<svg xmlns="http://www.w3.org/2000/svg" width="800" height="400" viewBox="0 0 800 400">
  <style>
    .axis{stroke:#666;stroke-width:1}
    .line{stroke:#4a9;stroke-width:2;fill:none}
    .point{fill:#4a9;r:4}
    .label{font:10px sans-serif;fill:#aaa}
    .title{font:14px sans-serif;fill:#333}
  </style>
  <text x="400" y="20" class="title" text-anchor="middle">OPIC Field Growth Timeline</text>
  <line x1="40" y1="40" x2="40" y2="360" class="axis"/>
  <line x1="40" y1="360" x2="760" y2="360" class="axis"/>
  <path d="M 40.0,101.53846153846155 L 48.275862068965516,101.53846153846155 L 56.55172413793103,101.53846153846155 L 64.82758620689656,101.53846153846155 L 73.10344827586206,101.53846153846155 L 81.37931034482759,101.53846153846155 L 89.65517241379311,101.53846153846155 L 97.93103448275862,101.53846153846155 L 106.20689655172414,101.53846153846155 L 114.48275862068965,101.53846153846155 L 122.75862068965517,101.53846153846155 L 131.0344827586207,101.53846153846155 L 139.31034482758622,101.53846153846155 L 147.58620689655174,101.53846153846155 L 155.86206896551724,101.53846153846155 L 164.13793103448276,101.53846153846155 L 172.41379310344828,101.53846153846155 L 180.6896551724138,101.53846153846155 L 188.9655172413793,101.53846153846155 L 197.24137931034483,101.53846153846155 L 205.51724137931035,101.53846153846155 L 213.79310344827587,101.53846153846155 L 222.0689655172414,101.53846153846155 L 230.34482758620692,101.53846153846155 L 238.6206896551724,101.53846153846155 L 246.8965517241379,101.53846153846155 L 255.17241379310346,101.53846153846155 L 263.44827586206895,40.0 L 271.7241379310345,40.0 L 280.0,40.0 L 288.2758620689655,40.0 L 296.55172413793105,40.0 L 304.82758620689657,40.0 L 313.10344827586204,40.0 L 321.3793103448276,40.0 L 329.6551724137931,40.0 L 337.9310344827586,40.0 L 346.2068965517241,40.0 L 354.48275862068965,40.0 L 362.7586206896552,40.0 L 371.0344827586207,40.0 L 379.31034482758616,40.0 L 387.58620689655174,40.0 L 395.86206896551727,40.0 L 404.1379310344828,40.0 L 412.4137931034483,40.0 L 420.68965517241384,40.0 L 428.9655172413793,40.0 L 437.2413793103448,40.0 L 445.51724137931035,40.0 L 453.7931034482758,40.0 L 462.06896551724134,40.0 L 470.3448275862069,40.0 L 478.62068965517244,40.0 L 486.89655172413796,40.0 L 495.17241379310343,40.0 L 503.44827586206895,40.0 L 511.7241379310345,40.0 L 520.0,40.0 L 528.2758620689655,40.0 L 536.551724137931,40.0 L 544.8275862068965,40.0 L 553.1034482758621,40.0 L 561.3793103448276,40.0 L 569.6551724137931,40.0 L 577.9310344827586,40.0 L 586.2068965517241,40.0 L 594.4827586206897,40.0 L 602.7586206896552,40.0 L 611.0344827586207,40.0 L 619.3103448275862,40.0 L 627.5862068965517,40.0 L 635.8620689655172,40.0 L 644.1379310344828,40.0 L 652.4137931034483,40.0 L 660.6896551724137,40.0 L 668.9655172413793,40.0 L 677.2413793103449,40.0 L 685.5172413793103,40.0 L 693.7931034482758,40.0 L 702.0689655172414,40.0 L 710.3448275862069,40.0 L 718.6206896551723,40.0 L 726.8965517241379,40.0 L 735.1724137931035,40.0 L 743.448275862069,40.0 L 751.7241379310345,40.0 L 760.0,40.0" class="line"/>
  <circle cx="40.0" cy="101.53846153846155" class="point"/>
  <text x="40.0" y="375" class="label" text-anchor="middle">2025-11-11</text>
  <text x="40.0" y="96.53846153846155" class="label" text-anchor="middle">42</text>
  <circle cx="48.275862068965516" cy="101.53846153846155" class="point"/>
  <text x="48.275862068965516" y="375" class="label" text-anchor="middle">2025-11-12</text>
  <text x="48.275862068965516" y="96.53846153846155" class="label" text-anchor="middle">42</text>
  <circle cx="56.55172413793103" cy="101.53846153846155" class="point"/>
  <text x="56.55172413793103" y="375" class="label" text-anchor="middle">2025-11-13</text>
  <text x="56.55172413793103" y="96.53846153846155" class="label" text-anchor="middle">42</text>
  <circle cx="64.82758620689656" cy="101.53846153846155" class="point"/>
  <text x="64.82758620689656" y="375" class="label" text-anchor="middle">2025-11-14</text>
  <text x="64.82758620689656" y="96.53846153846155" class="label" text-anchor="middle">42</text>
  <circle cx="73.10344827586206" cy="101.53846153846155" class="point"/>
  <text x="73.10344827586206" y="375" class="label" text-anchor="middle">2025-11-15</text>
  <text x="73.10344827586206" y="96.53846153846155" class="label" text-anchor="middle">42</text>
  <circle cx="81.37931034482759" cy="101.53846153846155" class="point"/>
  <text x="81.37931034482759" y="375" class="label" text-anchor="middle">2025-11-16</text>
  <text x="81.37931034482759" y="96.53846153846155" class="label" text-anchor="middle">42</text>
  <circle cx="89.65517241379311" cy="101.53846153846155" class="point"/>
  <text x="89.65517241379311" y="375" class="label" text-anchor="middle">2025-11-17</text>
  <text x="89.65517241379311" y="96.53846153846155" class="label" text-anchor="middle">42</text>
  <circle cx="97.93103448275862" cy="101.53846153846155" class="point"/>
  <text x="97.93103448275862" y="375" class="label" text-anchor="middle">2025-11-18</text>
  <text x="97.93103448275862" y="96.53846153846155" class="label" text-anchor="middle">42</text>
  <circle cx="106.20689655172414" cy="101.53846153846155" class="point"/>
  <text x="106.20689655172414" y="375" class="label" text-anchor="middle">2025-11-19</text>
  <text x="106.20689655172414" y="96.53846153846155" class="label" text-anchor="middle">42</text>
  <circle cx="114.48275862068965" cy="101.53846153846155" class="point"/>
  <text x="114.48275862068965" y="375" class="label" text-anchor="middle">2025-11-20</text>
  <text x="114.48275862068965" y="96.53846153846155" class="label" text-anchor="middle">42</text>
  <circle cx="122.75862068965517" cy="101.53846153846155" class="point"/>
  <text x="122.75862068965517" y="375" class="label" text-anchor="middle">2025-11-21</text>
  <text x="122.75862068965517" y="96.53846153846155" class="label" text-anchor="middle">42</text>
  <circle cx="131.0344827586207" cy="101.53846153846155" class="point"/>
  <text x="131.0344827586207" y="375" class="label" text-anchor="middle">2025-11-22</text>
  <text x="131.0344827586207" y="96.53846153846155" class="label" text-anchor="middle">42</text>
  <circle cx="139.31034482758622" cy="101.53846153846155" class="point"/>
  <text x="139.31034482758622" y="375" class="label" text-anchor="middle">2025-11-23</text>
  <text x="139.31034482758622" y="96.53846153846155" class="label" text-anchor="middle">42</text>
  <circle cx="147.58620689655174" cy="101.53846153846155" class="point"/>
  <text x="147.58620689655174" y="375" class="label" text-anchor="middle">2025-11-24</text>
  <text x="147.58620689655174" y="96.53846153846155" class="label" text-anchor="middle">42</text>
  <circle cx="155.86206896551724" cy="101.53846153846155" class="point"/>
  <text x="155.86206896551724" y="375" class="label" text-anchor="middle">2025-11-25</text>
  <text x="155.86206896551724" y="96.53846153846155" class="label" text-anchor="middle">42</text>
  <circle cx="164.13793103448276" cy="101.53846153846155" class="point"/>
  <text x="164.13793103448276" y="375" class="label" text-anchor="middle">2025-11-26</text>
  <text x="164.13793103448276" y="96.53846153846155" class="label" text-anchor="middle">42</text>
  <circle cx="172.41379310344828" cy="101.53846153846155" class="point"/>
  <text x="172.41379310344828" y="375" class="label" text-anchor="middle">2025-11-27</text>
  <text x="172.41379310344828" y="96.53846153846155" class="label" text-anchor="middle">42</text>
  <circle cx="180.6896551724138" cy="101.53846153846155" class="point"/>
  <text x="180.6896551724138" y="375" class="label" text-anchor="middle">2025-11-28</text>
  <text x="180.6896551724138" y="96.53846153846155" class="label" text-anchor="middle">42</text>
  <circle cx="188.9655172413793" cy="101.53846153846155" class="point"/>
  <text x="188.9655172413793" y="375" class="label" text-anchor="middle">2025-11-29</text>
  <text x="188.9655172413793" y="96.53846153846155" class="label" text-anchor="middle">42</text>
  <circle cx="197.24137931034483" cy="101.53846153846155" class="point"/>
  <text x="197.24137931034483" y="375" class="label" text-anchor="middle">2025-11-30</text>
  <text x="197.24137931034483" y="96.53846153846155" class="label" text-anchor="middle">42</text>
  <circle cx="205.51724137931035" cy="101.53846153846155" class="point"/>
  <text x="205.51724137931035" y="375" class="label" text-anchor="middle">2025-12-01</text>
  <text x="205.51724137931035" y="96.53846153846155" class="label" text-anchor="middle">42</text>
  <circle cx="213.79310344827587" cy="101.53846153846155" class="point"/>
  <text x="213.79310344827587" y="375" class="label" text-anchor="middle">2025-12-02</text>
  <text x="213.79310344827587" y="96.53846153846155" class="label" text-anchor="middle">42</text>
  <circle cx="222.0689655172414" cy="101.53846153846155" class="point"/>
  <text x="222.0689655172414" y="375" class="label" text-anchor="middle">2025-12-03</text>
  <text x="222.0689655172414" y="96.53846153846155" class="label" text-anchor="middle">42</text>
  <circle cx="230.34482758620692" cy="101.53846153846155" class="point"/>
  <text x="230.34482758620692" y="375" class="label" text-anchor="middle">2025-12-04</text>
  <text x="230.34482758620692" y="96.53846153846155" class="label" text-anchor="middle">42</text>
  <circle cx="238.6206896551724" cy="101.53846153846155" class="point"/>
  <text x="238.6206896551724" y="375" class="label" text-anchor="middle">2025-12-05</text>
  <text x="238.6206896551724" y="96.53846153846155" class="label" text-anchor="middle">42</text>
  <circle cx="246.8965517241379" cy="101.53846153846155" class="point"/>
  <text x="246.8965517241379" y="375" class="label" text-anchor="middle">2025-12-06</text>
  <text x="246.8965517241379" y="96.53846153846155" class="label" text-anchor="middle">42</text>
  <circle cx="255.17241379310346" cy="101.53846153846155" class="point"/>
  <text x="255.17241379310346" y="375" class="label" text-anchor="middle">2025-12-07</text>
  <text x="255.17241379310346" y="96.53846153846155" class="label" text-anchor="middle">42</text>
  <circle cx="263.44827586206895" cy="40.0" class="point"/>
  <text x="263.44827586206895" y="375" class="label" text-anchor="middle">2025-12-08</text>
  <text x="263.44827586206895" y="35.0" class="label" text-anchor="middle">52</text>
  <circle cx="271.7241379310345" cy="40.0" class="point"/>
  <text x="271.7241379310345" y="375" class="label" text-anchor="middle">2025-12-09</text>
  <text x="271.7241379310345" y="35.0" class="label" text-anchor="middle">52</text>
  <circle cx="280.0" cy="40.0" class="point"/>
  <text x="280.0" y="375" class="label" text-anchor="middle">2025-12-10</text>
  <text x="280.0" y="35.0" class="label" text-anchor="middle">52</text>
  <circle cx="288.2758620689655" cy="40.0" class="point"/>
  <text x="288.2758620689655" y="375" class="label" text-anchor="middle">2025-12-11</text>
  <text x="288.2758620689655" y="35.0" class="label" text-anchor="middle">52</text>
  <circle cx="296.55172413793105" cy="40.0" class="point"/>
  <text x="296.55172413793105" y="375" class="label" text-anchor="middle">2025-12-12</text>
  <text x="296.55172413793105" y="35.0" class="label" text-anchor="middle">52</text>
  <circle cx="304.82758620689657" cy="40.0" class="point"/>
  <text x="304.82758620689657" y="375" class="label" text-anchor="middle">2025-12-13</text>
  <text x="304.82758620689657" y="35.0" class="label" text-anchor="middle">52</text>
  <circle cx="313.10344827586204" cy="40.0" class="point"/>
  <text x="313.10344827586204" y="375" class="label" text-anchor="middle">2025-12-14</text>
  <text x="313.10344827586204" y="35.0" class="label" text-anchor="middle">52</text>
  <circle cx="321.3793103448276" cy="40.0" class="point"/>
  <text x="321.3793103448276" y="375" class="label" text-anchor="middle">2025-12-15</text>
  <text x="321.3793103448276" y="35.0" class="label" text-anchor="middle">52</text>
  <circle cx="329.6551724137931" cy="40.0" class="point"/>
  <text x="329.6551724137931" y="375" class="label" text-anchor="middle">2025-12-16</text>
  <text x="329.6551724137931" y="35.0" class="label" text-anchor="middle">52</text>
  <circle cx="337.9310344827586" cy="40.0" class="point"/>
  <text x="337.9310344827586" y="375" class="label" text-anchor="middle">2025-12-17</text>
  <text x="337.9310344827586" y="35.0" class="label" text-anchor="middle">52</text>
  <circle cx="346.2068965517241" cy="40.0" class="point"/>
  <text x="346.2068965517241" y="375" class="label" text-anchor="middle">2025-12-18</text>
  <text x="346.2068965517241" y="35.0" class="label" text-anchor="middle">52</text>
  <circle cx="354.48275862068965" cy="40.0" class="point"/>
  <text x="354.48275862068965" y="375" class="label" text-anchor="middle">2025-12-19</text>
  <text x="354.48275862068965" y="35.0" class="label" text-anchor="middle">52</text>
  <circle cx="362.7586206896552" cy="40.0" class="point"/>
  <text x="362.7586206896552" y="375" class="label" text-anchor="middle">2025-12-20</text>
  <text x="362.7586206896552" y="35.0" class="label" text-anchor="middle">52</text>
  <circle cx="371.0344827586207" cy="40.0" class="point"/>
  <text x="371.0344827586207" y="375" class="label" text-anchor="middle">2025-12-21</text>
  <text x="371.0344827586207" y="35.0" class="label" text-anchor="middle">52</text>
  <circle cx="379.31034482758616" cy="40.0" class="point"/>
  <text x="379.31034482758616" y="375" class="label" text-anchor="middle">2025-12-22</text>
  <text x="379.31034482758616" y="35.0" class="label" text-anchor="middle">52</text>
  <circle cx="387.58620689655174" cy="40.0" class="point"/>
  <text x="387.58620689655174" y="375" class="label" text-anchor="middle">2025-12-23</text>
  <text x="387.58620689655174" y="35.0" class="label" text-anchor="middle">52</text>
  <circle cx="395.86206896551727" cy="40.0" class="point"/>
  <text x="395.86206896551727" y="375" class="label" text-anchor="middle">2025-12-24</text>
  <text x="395.86206896551727" y="35.0" class="label" text-anchor="middle">52</text>
  <circle cx="404.1379310344828" cy="40.0" class="point"/>
  <text x="404.1379310344828" y="375" class="label" text-anchor="middle">2025-12-25</text>
  <text x="404.1379310344828" y="35.0" class="label" text-anchor="middle">52</text>
  <circle cx="412.4137931034483" cy="40.0" class="point"/>
  <text x="412.4137931034483" y="375" class="label" text-anchor="middle">2025-12-26</text>
  <text x="412.4137931034483" y="35.0" class="label" text-anchor="middle">52</text>
  <circle cx="420.68965517241384" cy="40.0" class="point"/>
  <text x="420.68965517241384" y="375" class="label" text-anchor="middle">2025-12-27</text>
  <text x="420.68965517241384" y="35.0" class="label" text-anchor="middle">52</text>
  <circle cx="428.9655172413793" cy="40.0" class="point"/>
  <text x="428.9655172413793" y="375" class="label" text-anchor="middle">2025-12-28</text>
  <text x="428.9655172413793" y="35.0" class="label" text-anchor="middle">52</text>
  <circle cx="437.2413793103448" cy="40.0" class="point"/>
  <text x="437.2413793103448" y="375" class="label" text-anchor="middle">2025-12-29</text>
  <text x="437.2413793103448" y="35.0" class="label" text-anchor="middle">52</text>
  <circle cx="445.51724137931035" cy="40.0" class="point"/>
  <text x="445.51724137931035" y="375" class="label" text-anchor="middle">2025-12-30</text>
  <text x="445.51724137931035" y="35.0" class="label" text-anchor="middle">52</text>
  <circle cx="453.7931034482758" cy="40.0" class="point"/>
  <text x="453.7931034482758" y="375" class="label" text-anchor="middle">2025-12-31</text>
  <text x="453.7931034482758" y="35.0" class="label" text-anchor="middle">52</text>
  <circle cx="462.06896551724134" cy="40.0" class="point"/>
  <text x="462.06896551724134" y="375" class="label" text-anchor="middle">2026-01-01</text>
  <text x="462.06896551724134" y="35.0" class="label" text-anchor="middle">52</text>
  <circle cx="470.3448275862069" cy="40.0" class="point"/>
  <text x="470.3448275862069" y="375" class="label" text-anchor="middle">2026-01-02</text>
  <text x="470.3448275862069" y="35.0" class="label" text-anchor="middle">52</text>
  <circle cx="478.62068965517244" cy="40.0" class="point"/>
  <text x="478.62068965517244" y="375" class="label" text-anchor="middle">2026-01-03</text>
  <text x="478.62068965517244" y="35.0" class="label" text-anchor="middle">52</text>
  <circle cx="486.89655172413796" cy="40.0" class="point"/>
  <text x="486.89655172413796" y="375" class="label" text-anchor="middle">2026-01-04</text>
  <text x="486.89655172413796" y="35.0" class="label" text-anchor="middle">52</text>
  <circle cx="495.17241379310343" cy="40.0" class="point"/>
  <text x="495.17241379310343" y="375" class="label" text-anchor="middle">2026-01-05</text>
  <text x="495.17241379310343" y="35.0" class="label" text-anchor="middle">52</text>
  <circle cx="503.44827586206895" cy="40.0" class="point"/>
  <text x="503.44827586206895" y="375" class="label" text-anchor="middle">2026-01-06</text>
  <text x="503.44827586206895" y="35.0" class="label" text-anchor="middle">52</text>
  <circle cx="511.7241379310345" cy="40.0" class="point"/>
  <text x="511.7241379310345" y="375" class="label" text-anchor="middle">2026-01-07</text>
  <text x="511.7241379310345" y="35.0" class="label" text-anchor="middle">52</text>
  <circle cx="520.0" cy="40.0" class="point"/>
  <text x="520.0" y="375" class="label" text-anchor="middle">2026-01-08</text>
  <text x="520.0" y="35.0" class="label" text-anchor="middle">52</text>
  <circle cx="528.2758620689655" cy="40.0" class="point"/>
  <text x="528.2758620689655" y="375" class="label" text-anchor="middle">2026-01-09</text>
  <text x="528.2758620689655" y="35.0" class="label" text-anchor="middle">52</text>
  <circle cx="536.551724137931" cy="40.0" class="point"/>
  <text x="536.551724137931" y="375" class="label" text-anchor="middle">2026-01-10</text>
  <text x="536.551724137931" y="35.0" class="label" text-anchor="middle">52</text>
  <circle cx="544.8275862068965" cy="40.0" class="point"/>
  <text x="544.8275862068965" y="375" class="label" text-anchor="middle">2026-01-11</text>
  <text x="544.8275862068965" y="35.0" class="label" text-anchor="middle">52</text>
  <circle cx="553.1034482758621" cy="40.0" class="point"/>
  <text x="553.1034482758621" y="375" class="label" text-anchor="middle">2026-01-12</text>
  <text x="553.1034482758621" y="35.0" class="label" text-anchor="middle">52</text>
  <circle cx="561.3793103448276" cy="40.0" class="point"/>
  <text x="561.3793103448276" y="375" class="label" text-anchor="middle">2026-01-13</text>
  <text x="561.3793103448276" y="35.0" class="label" text-anchor="middle">52</text>
  <circle cx="569.6551724137931" cy="40.0" class="point"/>
  <text x="569.6551724137931" y="375" class="label" text-anchor="middle">2026-01-14</text>
  <text x="569.6551724137931" y="35.0" class="label" text-anchor="middle">52</text>
  <circle cx="577.9310344827586" cy="40.0" class="point"/>
  <text x="577.9310344827586" y="375" class="label" text-anchor="middle">2026-01-15</text>
  <text x="577.9310344827586" y="35.0" class="label" text-anchor="middle">52</text>
  <circle cx="586.2068965517241" cy="40.0" class="point"/>
  <text x="586.2068965517241" y="375" class="label" text-anchor="middle">2026-01-16</text>
  <text x="586.2068965517241" y="35.0" class="label" text-anchor="middle">52</text>
  <circle cx="594.4827586206897" cy="40.0" class="point"/>
  <text x="594.4827586206897" y="375" class="label" text-anchor="middle">2026-01-17</text>
  <text x="594.4827586206897" y="35.0" class="label" text-anchor="middle">52</text>
  <circle cx="602.7586206896552" cy="40.0" class="point"/>
  <text x="602.7586206896552" y="375" class="label" text-anchor="middle">2026-01-18</text>
  <text x="602.7586206896552" y="35.0" class="label" text-anchor="middle">52</text>
  <circle cx="611.0344827586207" cy="40.0" class="point"/>
  <text x="611.0344827586207" y="375" class="label" text-anchor="middle">2026-01-19</text>
  <text x="611.0344827586207" y="35.0" class="label" text-anchor="middle">52</text>
  <circle cx="619.3103448275862" cy="40.0" class="point"/>
  <text x="619.3103448275862" y="375" class="label" text-anchor="middle">2026-01-20</text>
  <text x="619.3103448275862" y="35.0" class="label" text-anchor="middle">52</text>
  <circle cx="627.5862068965517" cy="40.0" class="point"/>
  <text x="627.5862068965517" y="375" class="label" text-anchor="middle">2026-01-21</text>
  <text x="627.5862068965517" y="35.0" class="label" text-anchor="middle">52</text>
  <circle cx="635.8620689655172" cy="40.0" class="point"/>
  <text x="635.8620689655172" y="375" class="label" text-anchor="middle">2026-01-22</text>
  <text x="635.8620689655172" y="35.0" class="label" text-anchor="middle">52</text>
  <circle cx="644.1379310344828" cy="40.0" class="point"/>
  <text x="644.1379310344828" y="375" class="label" text-anchor="middle">2026-01-23</text>
  <text x="644.1379310344828" y="35.0" class="label" text-anchor="middle">52</text>
  <circle cx="652.4137931034483" cy="40.0" class="point"/>
  <text x="652.4137931034483" y="375" class="label" text-anchor="middle">2026-01-24</text>
  <text x="652.4137931034483" y="35.0" class="label" text-anchor="middle">52</text>
  <circle cx="660.6896551724137" cy="40.0" class="point"/>
  <text x="660.6896551724137" y="375" class="label" text-anchor="middle">2026-01-25</text>
  <text x="660.6896551724137" y="35.0" class="label" text-anchor="middle">52</text>
  <circle cx="668.9655172413793" cy="40.0" class="point"/>
  <text x="668.9655172413793" y="375" class="label" text-anchor="middle">2026-01-26</text>
  <text x="668.9655172413793" y="35.0" class="label" text-anchor="middle">52</text>
  <circle cx="677.2413793103449" cy="40.0" class="point"/>
  <text x="677.2413793103449" y="375" class="label" text-anchor="middle">2026-01-27</text>
  <text x="677.2413793103449" y="35.0" class="label" text-anchor="middle">52</text>
  <circle cx="685.5172413793103" cy="40.0" class="point"/>
  <text x="685.5172413793103" y="375" class="label" text-anchor="middle">2026-01-28</text>
  <text x="685.5172413793103" y="35.0" class="label" text-anchor="middle">52</text>
  <circle cx="693.7931034482758" cy="40.0" class="point"/>
  <text x="693.7931034482758" y="375" class="label" text-anchor="middle">2026-01-29</text>
  <text x="693.7931034482758" y="35.0" class="label" text-anchor="middle">52</text>
  <circle cx="702.0689655172414" cy="40.0" class="point"/>
  <text x="702.0689655172414" y="375" class="label" text-anchor="middle">2026-01-30</text>
  <text x="702.0689655172414" y="35.0" class="label" text-anchor="middle">52</text>
  <circle cx="710.3448275862069" cy="40.0" class="point"/>
  <text x="710.3448275862069" y="375" class="label" text-anchor="middle">2026-01-31</text>
  <text x="710.3448275862069" y="35.0" class="label" text-anchor="middle">52</text>
  <circle cx="718.6206896551723" cy="40.0" class="point"/>
  <text x="718.6206896551723" y="375" class="label" text-anchor="middle">2026-02-01</text>
  <text x="718.6206896551723" y="35.0" class="label" text-anchor="middle">52</text>
  <circle cx="726.8965517241379" cy="40.0" class="point"/>
  <text x="726.8965517241379" y="375" class="label" text-anchor="middle">2026-02-02</text>
  <text x="726.8965517241379" y="35.0" class="label" text-anchor="middle">52</text>
  <circle cx="735.1724137931035" cy="40.0" class="point"/>
  <text x="735.1724137931035" y="375" class="label" text-anchor="middle">2026-02-03</text>
  <text x="735.1724137931035" y="35.0" class="label" text-anchor="middle">52</text>
  <circle cx="743.448275862069" cy="40.0" class="point"/>
  <text x="743.448275862069" y="375" class="label" text-anchor="middle">2026-02-04</text>
  <text x="743.448275862069" y="35.0" class="label" text-anchor="middle">52</text>
  <circle cx="751.7241379310345" cy="40.0" class="point"/>
  <text x="751.7241379310345" y="375" class="label" text-anchor="middle">2026-02-05</text>
  <text x="751.7241379310345" y="35.0" class="label" text-anchor="middle">52</text>
  <circle cx="760.0" cy="40.0" class="point"/>
  <text x="760.0" y="375" class="label" text-anchor="middle">2026-02-06</text>
  <text x="760.0" y="35.0" class="label" text-anchor="middle">52</text>
  <text x="30" y="363.0" class="label" text-anchor="end">0</text>
  <text x="30" y="301.46153846153845" class="label" text-anchor="end">10</text>
  <text x="30" y="239.9230769230769" class="label" text-anchor="end">20</text>
  <text x="30" y="178.38461538461542" class="label" text-anchor="end">30</text>
  <text x="30" y="116.84615384615384" class="label" text-anchor="end">40</text>
  <text x="30" y="55.30769230769232" class="label" text-anchor="end">50</text>
</svg>