<svg xmlns="http://www.w3.org/2000/svg" width="800" height="400" viewBox="0 0 800 400">
  <style>
    .axis{stroke:#666;stroke-width:1}
    .line{stroke:#4a9;stroke-width:2;fill:none}
    .point{fill:#4a9;r:4}
    .label{font:10px sans-serif;fill:#aaa}
    .title{font:14px sans-serif;fill:#333}
  </style>
  <text x="400" y="20" class="title" text-anchor="middle">OPIC Field Growth Timeline</text>
  <line x1="40" y1="40" x2="40" y2="360" class="axis"/>
  <line x1="40" y1="360" x2="760" y2="360" class="axis"/>
  <path d="M 40.0,101.53846153846155 L 58.0,101.53846153846155 L 76.0,101.53846153846155 L 94.0,101.53846153846155 L 112.0,101.53846153846155 L 130.0,101.53846153846155 L 148.0,101.53846153846155 L 166.0,101.53846153846155 L 184.0,101.53846153846155 L 202.0,101.53846153846155 L 220.0,101.53846153846155 L 238.00000000000003,101.53846153846155 L 256.0,101.53846153846155 L 274.0,101.53846153846155 L 292.0,101.53846153846155 L 310.0,101.53846153846155 L 328.0,101.53846153846155 L 346.0,101.53846153846155 L 364.0,101.53846153846155 L 382.0,101.53846153846155 L 400.0,101.53846153846155 L 418.0,101.53846153846155 L 436.00000000000006,101.53846153846155 L 453.99999999999994,101.53846153846155 L 472.0,101.53846153846155 L 490.0,101.53846153846155 L 508.0,101.53846153846155 L 526.0,40.0 L 544.0,40.0 L 562.0,40.0 L 580.0,40.0 L 598.0,40.0 L 616.0,40.0 L 634.0,40.0 L 652.0,40.0 L 670.0,40.0 L 688.0,40.0 L 706.0,40.0 L 724.0,40.0 L 742.0,40.0 L 760.0,40.0" class="line"/>
  <circle cx="40.0" cy="101.53846153846155" class="point"/>
  <text x="40.0" y="375" class="label" text-anchor="middle">2025-11-11</text>
  <text x="40.0" y="96.53846153846155" class="label" text-anchor="middle">42</text>
  <circle cx="58.0" cy="101.53846153846155" class="point"/>
  <text x="58.0" y="375" class="label" text-anchor="middle">2025-11-12</text>
  <text x="58.0" y="96.53846153846155" class="label" text-anchor="middle">42</text>
  <circle cx="76.0" cy="101.53846153846155" class="point"/>
  <text x="76.0" y="375" class="label" text-anchor="middle">2025-11-13</text>
  <text x="76.0" y="96.53846153846155" class="label" text-anchor="middle">42</text>
  <circle cx="94.0" cy="101.53846153846155" class="point"/>
  <text x="94.0" y="375" class="label" text-anchor="middle">2025-11-14</text>
  <text x="94.0" y="96.53846153846155" class="label" text-anchor="middle">42</text>
  <circle cx="112.0" cy="101.53846153846155" class="point"/>
  <text x="112.0" y="375" class="label" text-anchor="middle">2025-11-15</text>
  <text x="112.0" y="96.53846153846155" class="label" text-anchor="middle">42</text>
  <circle cx="130.0" cy="101.53846153846155" class="point"/>
  <text x="130.0" y="375" class="label" text-anchor="middle">2025-11-16</text>
  <text x="130.0" y="96.53846153846155" class="label" text-anchor="middle">42</text>
  <circle cx="148.0" cy="101.53846153846155" class="point"/>
  <text x="148.0" y="375" class="label" text-anchor="middle">2025-11-17</text>
  <text x="148.0" y="96.53846153846155" class="label" text-anchor="middle">42</text>
  <circle cx="166.0" cy="101.53846153846155" class="point"/>
  <text x="166.0" y="375" class="label" text-anchor="middle">2025-11-18</text>
  <text x="166.0" y="96.53846153846155" class="label" text-anchor="middle">42</text>
  <circle cx="184.0" cy="101.53846153846155" class="point"/>
  <text x="184.0" y="375" class="label" text-anchor="middle">2025-11-19</text>
  <text x="184.0" y="96.53846153846155" class="label" text-anchor="middle">42</text>
  <circle cx="202.0" cy="101.53846153846155" class="point"/>
  <text x="202.0" y="375" class="label" text-anchor="middle">2025-11-20</text>
  <text x="202.0" y="96.53846153846155" class="label" text-anchor="middle">42</text>
  <circle cx="220.0" cy="101.53846153846155" class="point"/>
  <text x="220.0" y="375" class="label" text-anchor="middle">2025-11-21</text>
  <text x="220.0" y="96.53846153846155" class="label" text-anchor="middle">42</text>
  <circle cx="238.00000000000003" cy="101.53846153846155" class="point"/>
  <text x="238.00000000000003" y="375" class="label" text-anchor="middle">2025-11-22</text>
  <text x="238.00000000000003" y="96.53846153846155" class="label" text-anchor="middle">42</text>
  <circle cx="256.0" cy="101.53846153846155" class="point"/>
  <text x="256.0" y="375" class="label" text-anchor="middle">2025-11-23</text>
  <text x="256.0" y="96.53846153846155" class="label" text-anchor="middle">42</text>
  <circle cx="274.0" cy="101.53846153846155" class="point"/>
  <text x="274.0" y="375" class="label" text-anchor="middle">2025-11-24</text>
  <text x="274.0" y="96.53846153846155" class="label" text-anchor="middle">42</text>
  <circle cx="292.0" cy="101.53846153846155" class="point"/>
  <text x="292.0" y="375" class="label" text-anchor="middle">2025-11-25</text>
  <text x="292.0" y="96.53846153846155" class="label" text-anchor="middle">42</text>
  <circle cx="310.0" cy="101.53846153846155" class="point"/>
  <text x="310.0" y="375" class="label" text-anchor="middle">2025-11-26</text>
  <text x="310.0" y="96.53846153846155" class="label" text-anchor="middle">42</text>
  <circle cx="328.0" cy="101.53846153846155" class="point"/>
  <text x="328.0" y="375" class="label" text-anchor="middle">2025-11-27</text>
  <text x="328.0" y="96.53846153846155" class="label" text-anchor="middle">42</text>
  <circle cx="346.0" cy="101.53846153846155" class="point"/>
  <text x="346.0" y="375" class="label" text-anchor="middle">2025-11-28</text>
  <text x="346.0" y="96.53846153846155" class="label" text-anchor="middle">42</text>
  <circle cx="364.0" cy="101.53846153846155" class="point"/>
  <text x="364.0" y="375" class="label" text-anchor="middle">2025-11-29</text>
  <text x="364.0" y="96.53846153846155" class="label" text-anchor="middle">42</text>
  <circle cx="382.0" cy="101.53846153846155" class="point"/>
  <text x="382.0" y="375" class="label" text-anchor="middle">2025-11-30</text>
  <text x="382.0" y="96.53846153846155" class="label" text-anchor="middle">42</text>
  <circle cx="400.0" cy="101.53846153846155" class="point"/>
  <text x="400.0" y="375" class="label" text-anchor="middle">2025-12-01</text>
  <text x="400.0" y="96.53846153846155" class="label" text-anchor="middle">42</text>
  <circle cx="418.0" cy="101.53846153846155" class="point"/>
  <text x="418.0" y="375" class="label" text-anchor="middle">2025-12-02</text>
  <text x="418.0" y="96.53846153846155" class="label" text-anchor="middle">42</text>
  <circle cx="436.00000000000006" cy="101.53846153846155" class="point"/>
  <text x="436.00000000000006" y="375" class="label" text-anchor="middle">2025-12-03</text>
  <text x="436.00000000000006" y="96.53846153846155" class="label" text-anchor="middle">42</text>
  <circle cx="453.99999999999994" cy="101.53846153846155" class="point"/>
  <text x="453.99999999999994" y="375" class="label" text-anchor="middle">2025-12-04</text>
  <text x="453.99999999999994" y="96.53846153846155" class="label" text-anchor="middle">42</text>
  <circle cx="472.0" cy="101.53846153846155" class="point"/>
  <text x="472.0" y="375" class="label" text-anchor="middle">2025-12-05</text>
  <text x="472.0" y="96.53846153846155" class="label" text-anchor="middle">42</text>
  <circle cx="490.0" cy="101.53846153846155" class="point"/>
  <text x="490.0" y="375" class="label" text-anchor="middle">2025-12-06</text>
  <text x="490.0" y="96.53846153846155" class="label" text-anchor="middle">42</text>
  <circle cx="508.0" cy="101.53846153846155" class="point"/>
  <text x="508.0" y="375" class="label" text-anchor="middle">2025-12-07</text>
  <text x="508.0" y="96.53846153846155" class="label" text-anchor="middle">42</text>
  <circle cx="526.0" cy="40.0" class="point"/>
  <text x="526.0" y="375" class="label" text-anchor="middle">2025-12-08</text>
  <text x="526.0" y="35.0" class="label" text-anchor="middle">52</text>
  <circle cx="544.0" cy="40.0" class="point"/>
  <text x="544.0" y="375" class="label" text-anchor="middle">2025-12-09</text>
  <text x="544.0" y="35.0" class="label" text-anchor="middle">52</text>
  <circle cx="562.0" cy="40.0" class="point"/>
  <text x="562.0" y="375" class="label" text-anchor="middle">2025-12-10</text>
  <text x="562.0" y="35.0" class="label" text-anchor="middle">52</text>
  <circle cx="580.0" cy="40.0" class="point"/>
  <text x="580.0" y="375" class="label" text-anchor="middle">2025-12-11</text>
  <text x="580.0" y="35.0" class="label" text-anchor="middle">52</text>
  <circle cx="598.0" cy="40.0" class="point"/>
  <text x="598.0" y="375" class="label" text-anchor="middle">2025-12-12</text>
  <text x="598.0" y="35.0" class="label" text-anchor="middle">52</text>
  <circle cx="616.0" cy="40.0" class="point"/>
  <text x="616.0" y="375" class="label" text-anchor="middle">2025-12-13</text>
  <text x="616.0" y="35.0" class="label" text-anchor="middle">52</text>
  <circle cx="634.0" cy="40.0" class="point"/>
  <text x="634.0" y="375" class="label" text-anchor="middle">2025-12-14</text>
  <text x="634.0" y="35.0" class="label" text-anchor="middle">52</text>
  <circle cx="652.0" cy="40.0" class="point"/>
  <text x="652.0" y="375" class="label" text-anchor="middle">2025-12-15</text>
  <text x="652.0" y="35.0" class="label" text-anchor="middle">52</text>
  <circle cx="670.0" cy="40.0" class="point"/>
  <text x="670.0" y="375" class="label" text-anchor="middle">2025-12-16</text>
  <text x="670.0" y="35.0" class="label" text-anchor="middle">52</text>
  <circle cx="688.0" cy="40.0" class="point"/>
  <text x="688.0" y="375" class="label" text-anchor="middle">2025-12-17</text>
  <text x="688.0" y="35.0" class="label" text-anchor="middle">52</text>
  <circle cx="706.0" cy="40.0" class="point"/>
  <text x="706.0" y="375" class="label" text-anchor="middle">2025-12-18</text>
  <text x="706.0" y="35.0" class="label" text-anchor="middle">52</text>
  <circle cx="724.0" cy="40.0" class="point"/>
  <text x="724.0" y="375" class="label" text-anchor="middle">2025-12-19</text>
  <text x="724.0" y="35.0" class="label" text-anchor="middle">52</text>
  <circle cx="742.0" cy="40.0" class="point"/>
  <text x="742.0" y="375" class="label" text-anchor="middle">2025-12-20</text>
  <text x="742.0" y="35.0" class="label" text-anchor="middle">52</text>
  <circle cx="760.0" cy="40.0" class="point"/>
  <text x="760.0" y="375" class="label" text-anchor="middle">2025-12-21</text>
  <text x="760.0" y="35.0" class="label" text-anchor="middle">52</text>
  <text x="30" y="363.0" class="label" text-anchor="end">0</text>
  <text x="30" y="301.46153846153845" class="label" text-anchor="end">10</text>
  <text x="30" y="239.9230769230769" class="label" text-anchor="end">20</text>
  <text x="30" y="178.38461538461542" class="label" text-anchor="end">30</text>
  <text x="30" y="116.84615384615384" class="label" text-anchor="end">40</text>
  <text x="30" y="55.30769230769232" class="label" text-anchor="end">50</text>
</svg>