<svg xmlns="http://www.w3.org/2000/svg" width="800" height="400" viewBox="0 0 800 400">
  <style>
    .axis{stroke:#666;stroke-width:1}
    .line{stroke:#4a9;stroke-width:2;fill:none}
    .point{fill:#4a9;r:4}
    .label{font:10px sans-serif;fill:#aaa}
    .title{font:14px sans-serif;fill:#333}
  </style>
  <text x="400" y="20" class="title" text-anchor="middle">OPIC Field Growth Timeline</text>
  <line x1="40" y1="40" x2="40" y2="360" class="axis"/>
  <line x1="40" y1="360" x2="760" y2="360" class="axis"/>
  <path d="M 40.0,101.53846153846155 L 48.18181818181818,101.53846153846155 L 56.36363636363636,101.53846153846155 L 64.54545454545455,101.53846153846155 L 72.72727272727272,101.53846153846155 L 80.9090909090909,101.53846153846155 L 89.0909090909091,101.53846153846155 L 97.27272727272728,101.53846153846155 L 105.45454545454545,101.53846153846155 L 113.63636363636364,101.53846153846155 L 121.81818181818181,101.53846153846155 L 130.0,101.53846153846155 L 138.1818181818182,101.53846153846155 L 146.36363636363637,101.53846153846155 L 154.54545454545456,101.53846153846155 L 162.72727272727272,101.53846153846155 L 170.9090909090909,101.53846153846155 L 179.0909090909091,101.53846153846155 L 187.27272727272728,101.53846153846155 L 195.45454545454547,101.53846153846155 L 203.63636363636363,101.53846153846155 L 211.8181818181818,101.53846153846155 L 220.0,101.53846153846155 L 228.1818181818182,101.53846153846155 L 236.36363636363635,101.53846153846155 L 244.54545454545456,101.53846153846155 L 252.72727272727275,101.53846153846155 L 260.9090909090909,40.0 L 269.0909090909091,40.0 L 277.27272727272725,40.0 L 285.45454545454544,40.0 L 293.6363636363636,40.0 L 301.8181818181818,40.0 L 310.0,40.0 L 318.1818181818182,40.0 L 326.3636363636364,40.0 L 334.54545454545456,40.0 L 342.72727272727275,40.0 L 350.90909090909093,40.0 L 359.09090909090907,40.0 L 367.27272727272725,40.0 L 375.45454545454544,40.0 L 383.6363636363636,40.0 L 391.8181818181818,40.0 L 400.0,40.0 L 408.1818181818182,40.0 L 416.3636363636364,40.0 L 424.5454545454545,40.0 L 432.7272727272727,40.0 L 440.9090909090909,40.0 L 449.0909090909091,40.0 L 457.2727272727273,40.0 L 465.4545454545455,40.0 L 473.6363636363636,40.0 L 481.8181818181818,40.0 L 490.0,40.0 L 498.1818181818182,40.0 L 506.3636363636364,40.0 L 514.5454545454545,40.0 L 522.7272727272727,40.0 L 530.9090909090909,40.0 L 539.0909090909091,40.0 L 547.2727272727273,40.0 L 555.4545454545455,40.0 L 563.6363636363636,40.0 L 571.8181818181819,40.0 L 580.0,40.0 L 588.1818181818181,40.0 L 596.3636363636364,40.0 L 604.5454545454545,40.0 L 612.7272727272727,40.0 L 620.9090909090909,40.0 L 629.0909090909091,40.0 L 637.2727272727273,40.0 L 645.4545454545455,40.0 L 653.6363636363636,40.0 L 661.8181818181819,40.0 L 670.0,40.0 L 678.1818181818181,40.0 L 686.3636363636364,40.0 L 694.5454545454545,40.0 L 702.7272727272727,40.0 L 710.9090909090909,40.0 L 719.0909090909091,40.0 L 727.2727272727273,40.0 L 735.4545454545455,40.0 L 743.6363636363636,40.0 L 751.8181818181819,40.0 L 760.0,40.0" class="line"/>
  <circle cx="40.0" cy="101.53846153846155" class="point"/>
  <text x="40.0" y="375" class="label" text-anchor="middle">2025-11-11</text>
  <text x="40.0" y="96.53846153846155" class="label" text-anchor="middle">42</text>
  <circle cx="48.18181818181818" cy="101.53846153846155" class="point"/>
  <text x="48.18181818181818" y="375" class="label" text-anchor="middle">2025-11-12</text>
  <text x="48.18181818181818" y="96.53846153846155" class="label" text-anchor="middle">42</text>
  <circle cx="56.36363636363636" cy="101.53846153846155" class="point"/>
  <text x="56.36363636363636" y="375" class="label" text-anchor="middle">2025-11-13</text>
  <text x="56.36363636363636" y="96.53846153846155" class="label" text-anchor="middle">42</text>
  <circle cx="64.54545454545455" cy="101.53846153846155" class="point"/>
  <text x="64.54545454545455" y="375" class="label" text-anchor="middle">2025-11-14</text>
  <text x="64.54545454545455" y="96.53846153846155" class="label" text-anchor="middle">42</text>
  <circle cx="72.72727272727272" cy="101.53846153846155" class="point"/>
  <text x="72.72727272727272" y="375" class="label" text-anchor="middle">2025-11-15</text>
  <text x="72.72727272727272" y="96.53846153846155" class="label" text-anchor="middle">42</text>
  <circle cx="80.9090909090909" cy="101.53846153846155" class="point"/>
  <text x="80.9090909090909" y="375" class="label" text-anchor="middle">2025-11-16</text>
  <text x="80.9090909090909" y="96.53846153846155" class="label" text-anchor="middle">42</text>
  <circle cx="89.0909090909091" cy="101.53846153846155" class="point"/>
  <text x="89.0909090909091" y="375" class="label" text-anchor="middle">2025-11-17</text>
  <text x="89.0909090909091" y="96.53846153846155" class="label" text-anchor="middle">42</text>
  <circle cx="97.27272727272728" cy="101.53846153846155" class="point"/>
  <text x="97.27272727272728" y="375" class="label" text-anchor="middle">2025-11-18</text>
  <text x="97.27272727272728" y="96.53846153846155" class="label" text-anchor="middle">42</text>
  <circle cx="105.45454545454545" cy="101.53846153846155" class="point"/>
  <text x="105.45454545454545" y="375" class="label" text-anchor="middle">2025-11-19</text>
  <text x="105.45454545454545" y="96.53846153846155" class="label" text-anchor="middle">42</text>
  <circle cx="113.63636363636364" cy="101.53846153846155" class="point"/>
  <text x="113.63636363636364" y="375" class="label" text-anchor="middle">2025-11-20</text>
  <text x="113.63636363636364" y="96.53846153846155" class="label" text-anchor="middle">42</text>
  <circle cx="121.81818181818181" cy="101.53846153846155" class="point"/>
  <text x="121.81818181818181" y="375" class="label" text-anchor="middle">2025-11-21</text>
  <text x="121.81818181818181" y="96.53846153846155" class="label" text-anchor="middle">42</text>
  <circle cx="130.0" cy="101.53846153846155" class="point"/>
  <text x="130.0" y="375" class="label" text-anchor="middle">2025-11-22</text>
  <text x="130.0" y="96.53846153846155" class="label" text-anchor="middle">42</text>
  <circle cx="138.1818181818182" cy="101.53846153846155" class="point"/>
  <text x="138.1818181818182" y="375" class="label" text-anchor="middle">2025-11-23</text>
  <text x="138.1818181818182" y="96.53846153846155" class="label" text-anchor="middle">42</text>
  <circle cx="146.36363636363637" cy="101.53846153846155" class="point"/>
  <text x="146.36363636363637" y="375" class="label" text-anchor="middle">2025-11-24</text>
  <text x="146.36363636363637" y="96.53846153846155" class="label" text-anchor="middle">42</text>
  <circle cx="154.54545454545456" cy="101.53846153846155" class="point"/>
  <text x="154.54545454545456" y="375" class="label" text-anchor="middle">2025-11-25</text>
  <text x="154.54545454545456" y="96.53846153846155" class="label" text-anchor="middle">42</text>
  <circle cx="162.72727272727272" cy="101.53846153846155" class="point"/>
  <text x="162.72727272727272" y="375" class="label" text-anchor="middle">2025-11-26</text>
  <text x="162.72727272727272" y="96.53846153846155" class="label" text-anchor="middle">42</text>
  <circle cx="170.9090909090909" cy="101.53846153846155" class="point"/>
  <text x="170.9090909090909" y="375" class="label" text-anchor="middle">2025-11-27</text>
  <text x="170.9090909090909" y="96.53846153846155" class="label" text-anchor="middle">42</text>
  <circle cx="179.0909090909091" cy="101.53846153846155" class="point"/>
  <text x="179.0909090909091" y="375" class="label" text-anchor="middle">2025-11-28</text>
  <text x="179.0909090909091" y="96.53846153846155" class="label" text-anchor="middle">42</text>
  <circle cx="187.27272727272728" cy="101.53846153846155" class="point"/>
  <text x="187.27272727272728" y="375" class="label" text-anchor="middle">2025-11-29</text>
  <text x="187.27272727272728" y="96.53846153846155" class="label" text-anchor="middle">42</text>
  <circle cx="195.45454545454547" cy="101.53846153846155" class="point"/>
  <text x="195.45454545454547" y="375" class="label" text-anchor="middle">2025-11-30</text>
  <text x="195.45454545454547" y="96.53846153846155" class="label" text-anchor="middle">42</text>
  <circle cx="203.63636363636363" cy="101.53846153846155" class="point"/>
  <text x="203.63636363636363" y="375" class="label" text-anchor="middle">2025-12-01</text>
  <text x="203.63636363636363" y="96.53846153846155" class="label" text-anchor="middle">42</text>
  <circle cx="211.8181818181818" cy="101.53846153846155" class="point"/>
  <text x="211.8181818181818" y="375" class="label" text-anchor="middle">2025-12-02</text>
  <text x="211.8181818181818" y="96.53846153846155" class="label" text-anchor="middle">42</text>
  <circle cx="220.0" cy="101.53846153846155" class="point"/>
  <text x="220.0" y="375" class="label" text-anchor="middle">2025-12-03</text>
  <text x="220.0" y="96.53846153846155" class="label" text-anchor="middle">42</text>
  <circle cx="228.1818181818182" cy="101.53846153846155" class="point"/>
  <text x="228.1818181818182" y="375" class="label" text-anchor="middle">2025-12-04</text>
  <text x="228.1818181818182" y="96.53846153846155" class="label" text-anchor="middle">42</text>
  <circle cx="236.36363636363635" cy="101.53846153846155" class="point"/>
  <text x="236.36363636363635" y="375" class="label" text-anchor="middle">2025-12-05</text>
  <text x="236.36363636363635" y="96.53846153846155" class="label" text-anchor="middle">42</text>
  <circle cx="244.54545454545456" cy="101.53846153846155" class="point"/>
  <text x="244.54545454545456" y="375" class="label" text-anchor="middle">2025-12-06</text>
  <text x="244.54545454545456" y="96.53846153846155" class="label" text-anchor="middle">42</text>
  <circle cx="252.72727272727275" cy="101.53846153846155" class="point"/>
  <text x="252.72727272727275" y="375" class="label" text-anchor="middle">2025-12-07</text>
  <text x="252.72727272727275" y="96.53846153846155" class="label" text-anchor="middle">42</text>
  <circle cx="260.9090909090909" cy="40.0" class="point"/>
  <text x="260.9090909090909" y="375" class="label" text-anchor="middle">2025-12-08</text>
  <text x="260.9090909090909" y="35.0" class="label" text-anchor="middle">52</text>
  <circle cx="269.0909090909091" cy="40.0" class="point"/>
  <text x="269.0909090909091" y="375" class="label" text-anchor="middle">2025-12-09</text>
  <text x="269.0909090909091" y="35.0" class="label" text-anchor="middle">52</text>
  <circle cx="277.27272727272725" cy="40.0" class="point"/>
  <text x="277.27272727272725" y="375" class="label" text-anchor="middle">2025-12-10</text>
  <text x="277.27272727272725" y="35.0" class="label" text-anchor="middle">52</text>
  <circle cx="285.45454545454544" cy="40.0" class="point"/>
  <text x="285.45454545454544" y="375" class="label" text-anchor="middle">2025-12-11</text>
  <text x="285.45454545454544" y="35.0" class="label" text-anchor="middle">52</text>
  <circle cx="293.6363636363636" cy="40.0" class="point"/>
  <text x="293.6363636363636" y="375" class="label" text-anchor="middle">2025-12-12</text>
  <text x="293.6363636363636" y="35.0" class="label" text-anchor="middle">52</text>
  <circle cx="301.8181818181818" cy="40.0" class="point"/>
  <text x="301.8181818181818" y="375" class="label" text-anchor="middle">2025-12-13</text>
  <text x="301.8181818181818" y="35.0" class="label" text-anchor="middle">52</text>
  <circle cx="310.0" cy="40.0" class="point"/>
  <text x="310.0" y="375" class="label" text-anchor="middle">2025-12-14</text>
  <text x="310.0" y="35.0" class="label" text-anchor="middle">52</text>
  <circle cx="318.1818181818182" cy="40.0" class="point"/>
  <text x="318.1818181818182" y="375" class="label" text-anchor="middle">2025-12-15</text>
  <text x="318.1818181818182" y="35.0" class="label" text-anchor="middle">52</text>
  <circle cx="326.3636363636364" cy="40.0" class="point"/>
  <text x="326.3636363636364" y="375" class="label" text-anchor="middle">2025-12-16</text>
  <text x="326.3636363636364" y="35.0" class="label" text-anchor="middle">52</text>
  <circle cx="334.54545454545456" cy="40.0" class="point"/>
  <text x="334.54545454545456" y="375" class="label" text-anchor="middle">2025-12-17</text>
  <text x="334.54545454545456" y="35.0" class="label" text-anchor="middle">52</text>
  <circle cx="342.72727272727275" cy="40.0" class="point"/>
  <text x="342.72727272727275" y="375" class="label" text-anchor="middle">2025-12-18</text>
  <text x="342.72727272727275" y="35.0" class="label" text-anchor="middle">52</text>
  <circle cx="350.90909090909093" cy="40.0" class="point"/>
  <text x="350.90909090909093" y="375" class="label" text-anchor="middle">2025-12-19</text>
  <text x="350.90909090909093" y="35.0" class="label" text-anchor="middle">52</text>
  <circle cx="359.09090909090907" cy="40.0" class="point"/>
  <text x="359.09090909090907" y="375" class="label" text-anchor="middle">2025-12-20</text>
  <text x="359.09090909090907" y="35.0" class="label" text-anchor="middle">52</text>
  <circle cx="367.27272727272725" cy="40.0" class="point"/>
  <text x="367.27272727272725" y="375" class="label" text-anchor="middle">2025-12-21</text>
  <text x="367.27272727272725" y="35.0" class="label" text-anchor="middle">52</text>
  <circle cx="375.45454545454544" cy="40.0" class="point"/>
  <text x="375.45454545454544" y="375" class="label" text-anchor="middle">2025-12-22</text>
  <text x="375.45454545454544" y="35.0" class="label" text-anchor="middle">52</text>
  <circle cx="383.6363636363636" cy="40.0" class="point"/>
  <text x="383.6363636363636" y="375" class="label" text-anchor="middle">2025-12-23</text>
  <text x="383.6363636363636" y="35.0" class="label" text-anchor="middle">52</text>
  <circle cx="391.8181818181818" cy="40.0" class="point"/>
  <text x="391.8181818181818" y="375" class="label" text-anchor="middle">2025-12-24</text>
  <text x="391.8181818181818" y="35.0" class="label" text-anchor="middle">52</text>
  <circle cx="400.0" cy="40.0" class="point"/>
  <text x="400.0" y="375" class="label" text-anchor="middle">2025-12-25</text>
  <text x="400.0" y="35.0" class="label" text-anchor="middle">52</text>
  <circle cx="408.1818181818182" cy="40.0" class="point"/>
  <text x="408.1818181818182" y="375" class="label" text-anchor="middle">2025-12-26</text>
  <text x="408.1818181818182" y="35.0" class="label" text-anchor="middle">52</text>
  <circle cx="416.3636363636364" cy="40.0" class="point"/>
  <text x="416.3636363636364" y="375" class="label" text-anchor="middle">2025-12-27</text>
  <text x="416.3636363636364" y="35.0" class="label" text-anchor="middle">52</text>
  <circle cx="424.5454545454545" cy="40.0" class="point"/>
  <text x="424.5454545454545" y="375" class="label" text-anchor="middle">2025-12-28</text>
  <text x="424.5454545454545" y="35.0" class="label" text-anchor="middle">52</text>
  <circle cx="432.7272727272727" cy="40.0" class="point"/>
  <text x="432.7272727272727" y="375" class="label" text-anchor="middle">2025-12-29</text>
  <text x="432.7272727272727" y="35.0" class="label" text-anchor="middle">52</text>
  <circle cx="440.9090909090909" cy="40.0" class="point"/>
  <text x="440.9090909090909" y="375" class="label" text-anchor="middle">2025-12-30</text>
  <text x="440.9090909090909" y="35.0" class="label" text-anchor="middle">52</text>
  <circle cx="449.0909090909091" cy="40.0" class="point"/>
  <text x="449.0909090909091" y="375" class="label" text-anchor="middle">2025-12-31</text>
  <text x="449.0909090909091" y="35.0" class="label" text-anchor="middle">52</text>
  <circle cx="457.2727272727273" cy="40.0" class="point"/>
  <text x="457.2727272727273" y="375" class="label" text-anchor="middle">2026-01-01</text>
  <text x="457.2727272727273" y="35.0" class="label" text-anchor="middle">52</text>
  <circle cx="465.4545454545455" cy="40.0" class="point"/>
  <text x="465.4545454545455" y="375" class="label" text-anchor="middle">2026-01-02</text>
  <text x="465.4545454545455" y="35.0" class="label" text-anchor="middle">52</text>
  <circle cx="473.6363636363636" cy="40.0" class="point"/>
  <text x="473.6363636363636" y="375" class="label" text-anchor="middle">2026-01-03</text>
  <text x="473.6363636363636" y="35.0" class="label" text-anchor="middle">52</text>
  <circle cx="481.8181818181818" cy="40.0" class="point"/>
  <text x="481.8181818181818" y="375" class="label" text-anchor="middle">2026-01-04</text>
  <text x="481.8181818181818" y="35.0" class="label" text-anchor="middle">52</text>
  <circle cx="490.0" cy="40.0" class="point"/>
  <text x="490.0" y="375" class="label" text-anchor="middle">2026-01-05</text>
  <text x="490.0" y="35.0" class="label" text-anchor="middle">52</text>
  <circle cx="498.1818181818182" cy="40.0" class="point"/>
  <text x="498.1818181818182" y="375" class="label" text-anchor="middle">2026-01-06</text>
  <text x="498.1818181818182" y="35.0" class="label" text-anchor="middle">52</text>
  <circle cx="506.3636363636364" cy="40.0" class="point"/>
  <text x="506.3636363636364" y="375" class="label" text-anchor="middle">2026-01-07</text>
  <text x="506.3636363636364" y="35.0" class="label" text-anchor="middle">52</text>
  <circle cx="514.5454545454545" cy="40.0" class="point"/>
  <text x="514.5454545454545" y="375" class="label" text-anchor="middle">2026-01-08</text>
  <text x="514.5454545454545" y="35.0" class="label" text-anchor="middle">52</text>
  <circle cx="522.7272727272727" cy="40.0" class="point"/>
  <text x="522.7272727272727" y="375" class="label" text-anchor="middle">2026-01-09</text>
  <text x="522.7272727272727" y="35.0" class="label" text-anchor="middle">52</text>
  <circle cx="530.9090909090909" cy="40.0" class="point"/>
  <text x="530.9090909090909" y="375" class="label" text-anchor="middle">2026-01-10</text>
  <text x="530.9090909090909" y="35.0" class="label" text-anchor="middle">52</text>
  <circle cx="539.0909090909091" cy="40.0" class="point"/>
  <text x="539.0909090909091" y="375" class="label" text-anchor="middle">2026-01-11</text>
  <text x="539.0909090909091" y="35.0" class="label" text-anchor="middle">52</text>
  <circle cx="547.2727272727273" cy="40.0" class="point"/>
  <text x="547.2727272727273" y="375" class="label" text-anchor="middle">2026-01-12</text>
  <text x="547.2727272727273" y="35.0" class="label" text-anchor="middle">52</text>
  <circle cx="555.4545454545455" cy="40.0" class="point"/>
  <text x="555.4545454545455" y="375" class="label" text-anchor="middle">2026-01-13</text>
  <text x="555.4545454545455" y="35.0" class="label" text-anchor="middle">52</text>
  <circle cx="563.6363636363636" cy="40.0" class="point"/>
  <text x="563.6363636363636" y="375" class="label" text-anchor="middle">2026-01-14</text>
  <text x="563.6363636363636" y="35.0" class="label" text-anchor="middle">52</text>
  <circle cx="571.8181818181819" cy="40.0" class="point"/>
  <text x="571.8181818181819" y="375" class="label" text-anchor="middle">2026-01-15</text>
  <text x="571.8181818181819" y="35.0" class="label" text-anchor="middle">52</text>
  <circle cx="580.0" cy="40.0" class="point"/>
  <text x="580.0" y="375" class="label" text-anchor="middle">2026-01-16</text>
  <text x="580.0" y="35.0" class="label" text-anchor="middle">52</text>
  <circle cx="588.1818181818181" cy="40.0" class="point"/>
  <text x="588.1818181818181" y="375" class="label" text-anchor="middle">2026-01-17</text>
  <text x="588.1818181818181" y="35.0" class="label" text-anchor="middle">52</text>
  <circle cx="596.3636363636364" cy="40.0" class="point"/>
  <text x="596.3636363636364" y="375" class="label" text-anchor="middle">2026-01-18</text>
  <text x="596.3636363636364" y="35.0" class="label" text-anchor="middle">52</text>
  <circle cx="604.5454545454545" cy="40.0" class="point"/>
  <text x="604.5454545454545" y="375" class="label" text-anchor="middle">2026-01-19</text>
  <text x="604.5454545454545" y="35.0" class="label" text-anchor="middle">52</text>
  <circle cx="612.7272727272727" cy="40.0" class="point"/>
  <text x="612.7272727272727" y="375" class="label" text-anchor="middle">2026-01-20</text>
  <text x="612.7272727272727" y="35.0" class="label" text-anchor="middle">52</text>
  <circle cx="620.9090909090909" cy="40.0" class="point"/>
  <text x="620.9090909090909" y="375" class="label" text-anchor="middle">2026-01-21</text>
  <text x="620.9090909090909" y="35.0" class="label" text-anchor="middle">52</text>
  <circle cx="629.0909090909091" cy="40.0" class="point"/>
  <text x="629.0909090909091" y="375" class="label" text-anchor="middle">2026-01-22</text>
  <text x="629.0909090909091" y="35.0" class="label" text-anchor="middle">52</text>
  <circle cx="637.2727272727273" cy="40.0" class="point"/>
  <text x="637.2727272727273" y="375" class="label" text-anchor="middle">2026-01-23</text>
  <text x="637.2727272727273" y="35.0" class="label" text-anchor="middle">52</text>
  <circle cx="645.4545454545455" cy="40.0" class="point"/>
  <text x="645.4545454545455" y="375" class="label" text-anchor="middle">2026-01-24</text>
  <text x="645.4545454545455" y="35.0" class="label" text-anchor="middle">52</text>
  <circle cx="653.6363636363636" cy="40.0" class="point"/>
  <text x="653.6363636363636" y="375" class="label" text-anchor="middle">2026-01-25</text>
  <text x="653.6363636363636" y="35.0" class="label" text-anchor="middle">52</text>
  <circle cx="661.8181818181819" cy="40.0" class="point"/>
  <text x="661.8181818181819" y="375" class="label" text-anchor="middle">2026-01-26</text>
  <text x="661.8181818181819" y="35.0" class="label" text-anchor="middle">52</text>
  <circle cx="670.0" cy="40.0" class="point"/>
  <text x="670.0" y="375" class="label" text-anchor="middle">2026-01-27</text>
  <text x="670.0" y="35.0" class="label" text-anchor="middle">52</text>
  <circle cx="678.1818181818181" cy="40.0" class="point"/>
  <text x="678.1818181818181" y="375" class="label" text-anchor="middle">2026-01-28</text>
  <text x="678.1818181818181" y="35.0" class="label" text-anchor="middle">52</text>
  <circle cx="686.3636363636364" cy="40.0" class="point"/>
  <text x="686.3636363636364" y="375" class="label" text-anchor="middle">2026-01-29</text>
  <text x="686.3636363636364" y="35.0" class="label" text-anchor="middle">52</text>
  <circle cx="694.5454545454545" cy="40.0" class="point"/>
  <text x="694.5454545454545" y="375" class="label" text-anchor="middle">2026-01-30</text>
  <text x="694.5454545454545" y="35.0" class="label" text-anchor="middle">52</text>
  <circle cx="702.7272727272727" cy="40.0" class="point"/>
  <text x="702.7272727272727" y="375" class="label" text-anchor="middle">2026-01-31</text>
  <text x="702.7272727272727" y="35.0" class="label" text-anchor="middle">52</text>
  <circle cx="710.9090909090909" cy="40.0" class="point"/>
  <text x="710.9090909090909" y="375" class="label" text-anchor="middle">2026-02-01</text>
  <text x="710.9090909090909" y="35.0" class="label" text-anchor="middle">52</text>
  <circle cx="719.0909090909091" cy="40.0" class="point"/>
  <text x="719.0909090909091" y="375" class="label" text-anchor="middle">2026-02-02</text>
  <text x="719.0909090909091" y="35.0" class="label" text-anchor="middle">52</text>
  <circle cx="727.2727272727273" cy="40.0" class="point"/>
  <text x="727.2727272727273" y="375" class="label" text-anchor="middle">2026-02-03</text>
  <text x="727.2727272727273" y="35.0" class="label" text-anchor="middle">52</text>
  <circle cx="735.4545454545455" cy="40.0" class="point"/>
  <text x="735.4545454545455" y="375" class="label" text-anchor="middle">2026-02-04</text>
  <text x="735.4545454545455" y="35.0" class="label" text-anchor="middle">52</text>
  <circle cx="743.6363636363636" cy="40.0" class="point"/>
  <text x="743.6363636363636" y="375" class="label" text-anchor="middle">2026-02-05</text>
  <text x="743.6363636363636" y="35.0" class="label" text-anchor="middle">52</text>
  <circle cx="751.8181818181819" cy="40.0" class="point"/>
  <text x="751.8181818181819" y="375" class="label" text-anchor="middle">2026-02-06</text>
  <text x="751.8181818181819" y="35.0" class="label" text-anchor="middle">52</text>
  <circle cx="760.0" cy="40.0" class="point"/>
  <text x="760.0" y="375" class="label" text-anchor="middle">2026-02-07</text>
  <text x="760.0" y="35.0" class="label" text-anchor="middle">52</text>
  <text x="30" y="363.0" class="label" text-anchor="end">0</text>
  <text x="30" y="301.46153846153845" class="label" text-anchor="end">10</text>
  <text x="30" y="239.9230769230769" class="label" text-anchor="end">20</text>
  <text x="30" y="178.38461538461542" class="label" text-anchor="end">30</text>
  <text x="30" y="116.84615384615384" class="label" text-anchor="end">40</text>
  <text x="30" y="55.30769230769232" class="label" text-anchor="end">50</text>
</svg>