<svg xmlns="http://www.w3.org/2000/svg" width="800" height="400" viewBox="0 0 800 400">
  <style>
    .axis{stroke:#666;stroke-width:1}
    .line{stroke:#4a9;stroke-width:2;fill:none}
    .point{fill:#4a9;r:4}
    .label{font:10px sans-serif;fill:#aaa}
    .title{font:14px sans-serif;fill:#333}
  </style>
  <text x="400" y="20" class="title" text-anchor="middle">OPIC Field Growth Timeline</text>
  <line x1="40" y1="40" x2="40" y2="360" class="axis"/>
  <line x1="40" y1="360" x2="760" y2="360" class="axis"/>
  <path d="M 40.0,101.53846153846155 L 54.4,101.53846153846155 L 68.8,101.53846153846155 L 83.19999999999999,101.53846153846155 L 97.6,101.53846153846155 L 112.0,101.53846153846155 L 126.39999999999999,101.53846153846155 L 140.8,101.53846153846155 L 155.2,101.53846153846155 L 169.6,101.53846153846155 L 184.0,101.53846153846155 L 198.4,101.53846153846155 L 212.79999999999998,101.53846153846155 L 227.20000000000002,101.53846153846155 L 241.60000000000002,101.53846153846155 L 256.0,101.53846153846155 L 270.4,101.53846153846155 L 284.8,101.53846153846155 L 299.2,101.53846153846155 L 313.6,101.53846153846155 L 328.0,101.53846153846155 L 342.4,101.53846153846155 L 356.8,101.53846153846155 L 371.2,101.53846153846155 L 385.59999999999997,101.53846153846155 L 400.0,101.53846153846155 L 414.40000000000003,101.53846153846155 L 428.8,40.0 L 443.20000000000005,40.0 L 457.59999999999997,40.0 L 472.0,40.0 L 486.4,40.0 L 500.8,40.0 L 515.2,40.0 L 529.6,40.0 L 544.0,40.0 L 558.4,40.0 L 572.8,40.0 L 587.2,40.0 L 601.6,40.0 L 616.0,40.0 L 630.4,40.0 L 644.8,40.0 L 659.2,40.0 L 673.6,40.0 L 688.0,40.0 L 702.4,40.0 L 716.8,40.0 L 731.1999999999999,40.0 L 745.6,40.0 L 760.0,40.0" class="line"/>
  <circle cx="40.0" cy="101.53846153846155" class="point"/>
  <text x="40.0" y="375" class="label" text-anchor="middle">2025-11-11</text>
  <text x="40.0" y="96.53846153846155" class="label" text-anchor="middle">42</text>
  <circle cx="54.4" cy="101.53846153846155" class="point"/>
  <text x="54.4" y="375" class="label" text-anchor="middle">2025-11-12</text>
  <text x="54.4" y="96.53846153846155" class="label" text-anchor="middle">42</text>
  <circle cx="68.8" cy="101.53846153846155" class="point"/>
  <text x="68.8" y="375" class="label" text-anchor="middle">2025-11-13</text>
  <text x="68.8" y="96.53846153846155" class="label" text-anchor="middle">42</text>
  <circle cx="83.19999999999999" cy="101.53846153846155" class="point"/>
  <text x="83.19999999999999" y="375" class="label" text-anchor="middle">2025-11-14</text>
  <text x="83.19999999999999" y="96.53846153846155" class="label" text-anchor="middle">42</text>
  <circle cx="97.6" cy="101.53846153846155" class="point"/>
  <text x="97.6" y="375" class="label" text-anchor="middle">2025-11-15</text>
  <text x="97.6" y="96.53846153846155" class="label" text-anchor="middle">42</text>
  <circle cx="112.0" cy="101.53846153846155" class="point"/>
  <text x="112.0" y="375" class="label" text-anchor="middle">2025-11-16</text>
  <text x="112.0" y="96.53846153846155" class="label" text-anchor="middle">42</text>
  <circle cx="126.39999999999999" cy="101.53846153846155" class="point"/>
  <text x="126.39999999999999" y="375" class="label" text-anchor="middle">2025-11-17</text>
  <text x="126.39999999999999" y="96.53846153846155" class="label" text-anchor="middle">42</text>
  <circle cx="140.8" cy="101.53846153846155" class="point"/>
  <text x="140.8" y="375" class="label" text-anchor="middle">2025-11-18</text>
  <text x="140.8" y="96.53846153846155" class="label" text-anchor="middle">42</text>
  <circle cx="155.2" cy="101.53846153846155" class="point"/>
  <text x="155.2" y="375" class="label" text-anchor="middle">2025-11-19</text>
  <text x="155.2" y="96.53846153846155" class="label" text-anchor="middle">42</text>
  <circle cx="169.6" cy="101.53846153846155" class="point"/>
  <text x="169.6" y="375" class="label" text-anchor="middle">2025-11-20</text>
  <text x="169.6" y="96.53846153846155" class="label" text-anchor="middle">42</text>
  <circle cx="184.0" cy="101.53846153846155" class="point"/>
  <text x="184.0" y="375" class="label" text-anchor="middle">2025-11-21</text>
  <text x="184.0" y="96.53846153846155" class="label" text-anchor="middle">42</text>
  <circle cx="198.4" cy="101.53846153846155" class="point"/>
  <text x="198.4" y="375" class="label" text-anchor="middle">2025-11-22</text>
  <text x="198.4" y="96.53846153846155" class="label" text-anchor="middle">42</text>
  <circle cx="212.79999999999998" cy="101.53846153846155" class="point"/>
  <text x="212.79999999999998" y="375" class="label" text-anchor="middle">2025-11-23</text>
  <text x="212.79999999999998" y="96.53846153846155" class="label" text-anchor="middle">42</text>
  <circle cx="227.20000000000002" cy="101.53846153846155" class="point"/>
  <text x="227.20000000000002" y="375" class="label" text-anchor="middle">2025-11-24</text>
  <text x="227.20000000000002" y="96.53846153846155" class="label" text-anchor="middle">42</text>
  <circle cx="241.60000000000002" cy="101.53846153846155" class="point"/>
  <text x="241.60000000000002" y="375" class="label" text-anchor="middle">2025-11-25</text>
  <text x="241.60000000000002" y="96.53846153846155" class="label" text-anchor="middle">42</text>
  <circle cx="256.0" cy="101.53846153846155" class="point"/>
  <text x="256.0" y="375" class="label" text-anchor="middle">2025-11-26</text>
  <text x="256.0" y="96.53846153846155" class="label" text-anchor="middle">42</text>
  <circle cx="270.4" cy="101.53846153846155" class="point"/>
  <text x="270.4" y="375" class="label" text-anchor="middle">2025-11-27</text>
  <text x="270.4" y="96.53846153846155" class="label" text-anchor="middle">42</text>
  <circle cx="284.8" cy="101.53846153846155" class="point"/>
  <text x="284.8" y="375" class="label" text-anchor="middle">2025-11-28</text>
  <text x="284.8" y="96.53846153846155" class="label" text-anchor="middle">42</text>
  <circle cx="299.2" cy="101.53846153846155" class="point"/>
  <text x="299.2" y="375" class="label" text-anchor="middle">2025-11-29</text>
  <text x="299.2" y="96.53846153846155" class="label" text-anchor="middle">42</text>
  <circle cx="313.6" cy="101.53846153846155" class="point"/>
  <text x="313.6" y="375" class="label" text-anchor="middle">2025-11-30</text>
  <text x="313.6" y="96.53846153846155" class="label" text-anchor="middle">42</text>
  <circle cx="328.0" cy="101.53846153846155" class="point"/>
  <text x="328.0" y="375" class="label" text-anchor="middle">2025-12-01</text>
  <text x="328.0" y="96.53846153846155" class="label" text-anchor="middle">42</text>
  <circle cx="342.4" cy="101.53846153846155" class="point"/>
  <text x="342.4" y="375" class="label" text-anchor="middle">2025-12-02</text>
  <text x="342.4" y="96.53846153846155" class="label" text-anchor="middle">42</text>
  <circle cx="356.8" cy="101.53846153846155" class="point"/>
  <text x="356.8" y="375" class="label" text-anchor="middle">2025-12-03</text>
  <text x="356.8" y="96.53846153846155" class="label" text-anchor="middle">42</text>
  <circle cx="371.2" cy="101.53846153846155" class="point"/>
  <text x="371.2" y="375" class="label" text-anchor="middle">2025-12-04</text>
  <text x="371.2" y="96.53846153846155" class="label" text-anchor="middle">42</text>
  <circle cx="385.59999999999997" cy="101.53846153846155" class="point"/>
  <text x="385.59999999999997" y="375" class="label" text-anchor="middle">2025-12-05</text>
  <text x="385.59999999999997" y="96.53846153846155" class="label" text-anchor="middle">42</text>
  <circle cx="400.0" cy="101.53846153846155" class="point"/>
  <text x="400.0" y="375" class="label" text-anchor="middle">2025-12-06</text>
  <text x="400.0" y="96.53846153846155" class="label" text-anchor="middle">42</text>
  <circle cx="414.40000000000003" cy="101.53846153846155" class="point"/>
  <text x="414.40000000000003" y="375" class="label" text-anchor="middle">2025-12-07</text>
  <text x="414.40000000000003" y="96.53846153846155" class="label" text-anchor="middle">42</text>
  <circle cx="428.8" cy="40.0" class="point"/>
  <text x="428.8" y="375" class="label" text-anchor="middle">2025-12-08</text>
  <text x="428.8" y="35.0" class="label" text-anchor="middle">52</text>
  <circle cx="443.20000000000005" cy="40.0" class="point"/>
  <text x="443.20000000000005" y="375" class="label" text-anchor="middle">2025-12-09</text>
  <text x="443.20000000000005" y="35.0" class="label" text-anchor="middle">52</text>
  <circle cx="457.59999999999997" cy="40.0" class="point"/>
  <text x="457.59999999999997" y="375" class="label" text-anchor="middle">2025-12-10</text>
  <text x="457.59999999999997" y="35.0" class="label" text-anchor="middle">52</text>
  <circle cx="472.0" cy="40.0" class="point"/>
  <text x="472.0" y="375" class="label" text-anchor="middle">2025-12-11</text>
  <text x="472.0" y="35.0" class="label" text-anchor="middle">52</text>
  <circle cx="486.4" cy="40.0" class="point"/>
  <text x="486.4" y="375" class="label" text-anchor="middle">2025-12-12</text>
  <text x="486.4" y="35.0" class="label" text-anchor="middle">52</text>
  <circle cx="500.8" cy="40.0" class="point"/>
  <text x="500.8" y="375" class="label" text-anchor="middle">2025-12-13</text>
  <text x="500.8" y="35.0" class="label" text-anchor="middle">52</text>
  <circle cx="515.2" cy="40.0" class="point"/>
  <text x="515.2" y="375" class="label" text-anchor="middle">2025-12-14</text>
  <text x="515.2" y="35.0" class="label" text-anchor="middle">52</text>
  <circle cx="529.6" cy="40.0" class="point"/>
  <text x="529.6" y="375" class="label" text-anchor="middle">2025-12-15</text>
  <text x="529.6" y="35.0" class="label" text-anchor="middle">52</text>
  <circle cx="544.0" cy="40.0" class="point"/>
  <text x="544.0" y="375" class="label" text-anchor="middle">2025-12-16</text>
  <text x="544.0" y="35.0" class="label" text-anchor="middle">52</text>
  <circle cx="558.4" cy="40.0" class="point"/>
  <text x="558.4" y="375" class="label" text-anchor="middle">2025-12-17</text>
  <text x="558.4" y="35.0" class="label" text-anchor="middle">52</text>
  <circle cx="572.8" cy="40.0" class="point"/>
  <text x="572.8" y="375" class="label" text-anchor="middle">2025-12-18</text>
  <text x="572.8" y="35.0" class="label" text-anchor="middle">52</text>
  <circle cx="587.2" cy="40.0" class="point"/>
  <text x="587.2" y="375" class="label" text-anchor="middle">2025-12-19</text>
  <text x="587.2" y="35.0" class="label" text-anchor="middle">52</text>
  <circle cx="601.6" cy="40.0" class="point"/>
  <text x="601.6" y="375" class="label" text-anchor="middle">2025-12-20</text>
  <text x="601.6" y="35.0" class="label" text-anchor="middle">52</text>
  <circle cx="616.0" cy="40.0" class="point"/>
  <text x="616.0" y="375" class="label" text-anchor="middle">2025-12-21</text>
  <text x="616.0" y="35.0" class="label" text-anchor="middle">52</text>
  <circle cx="630.4" cy="40.0" class="point"/>
  <text x="630.4" y="375" class="label" text-anchor="middle">2025-12-22</text>
  <text x="630.4" y="35.0" class="label" text-anchor="middle">52</text>
  <circle cx="644.8" cy="40.0" class="point"/>
  <text x="644.8" y="375" class="label" text-anchor="middle">2025-12-23</text>
  <text x="644.8" y="35.0" class="label" text-anchor="middle">52</text>
  <circle cx="659.2" cy="40.0" class="point"/>
  <text x="659.2" y="375" class="label" text-anchor="middle">2025-12-24</text>
  <text x="659.2" y="35.0" class="label" text-anchor="middle">52</text>
  <circle cx="673.6" cy="40.0" class="point"/>
  <text x="673.6" y="375" class="label" text-anchor="middle">2025-12-25</text>
  <text x="673.6" y="35.0" class="label" text-anchor="middle">52</text>
  <circle cx="688.0" cy="40.0" class="point"/>
  <text x="688.0" y="375" class="label" text-anchor="middle">2025-12-26</text>
  <text x="688.0" y="35.0" class="label" text-anchor="middle">52</text>
  <circle cx="702.4" cy="40.0" class="point"/>
  <text x="702.4" y="375" class="label" text-anchor="middle">2025-12-27</text>
  <text x="702.4" y="35.0" class="label" text-anchor="middle">52</text>
  <circle cx="716.8" cy="40.0" class="point"/>
  <text x="716.8" y="375" class="label" text-anchor="middle">2025-12-28</text>
  <text x="716.8" y="35.0" class="label" text-anchor="middle">52</text>
  <circle cx="731.1999999999999" cy="40.0" class="point"/>
  <text x="731.1999999999999" y="375" class="label" text-anchor="middle">2025-12-29</text>
  <text x="731.1999999999999" y="35.0" class="label" text-anchor="middle">52</text>
  <circle cx="745.6" cy="40.0" class="point"/>
  <text x="745.6" y="375" class="label" text-anchor="middle">2025-12-30</text>
  <text x="745.6" y="35.0" class="label" text-anchor="middle">52</text>
  <circle cx="760.0" cy="40.0" class="point"/>
  <text x="760.0" y="375" class="label" text-anchor="middle">2025-12-31</text>
  <text x="760.0" y="35.0" class="label" text-anchor="middle">52</text>
  <text x="30" y="363.0" class="label" text-anchor="end">0</text>
  <text x="30" y="301.46153846153845" class="label" text-anchor="end">10</text>
  <text x="30" y="239.9230769230769" class="label" text-anchor="end">20</text>
  <text x="30" y="178.38461538461542" class="label" text-anchor="end">30</text>
  <text x="30" y="116.84615384615384" class="label" text-anchor="end">40</text>
  <text x="30" y="55.30769230769232" class="label" text-anchor="end">50</text>
</svg>