<svg xmlns="http://www.w3.org/2000/svg" width="800" height="400" viewBox="0 0 800 400">
  <style>
    .axis{stroke:#666;stroke-width:1}
    .line{stroke:#4a9;stroke-width:2;fill:none}
    .point{fill:#4a9;r:4}
    .label{font:10px sans-serif;fill:#aaa}
    .title{font:14px sans-serif;fill:#333}
  </style>
  <text x="400" y="20" class="title" text-anchor="middle">OPIC Field Growth Timeline</text>
  <line x1="40" y1="40" x2="40" y2="360" class="axis"/>
  <line x1="40" y1="360" x2="760" y2="360" class="axis"/>
  <path d="M 40.0,101.53846153846155 L 45.950413223140494,101.53846153846155 L 51.90082644628099,101.53846153846155 L 57.85123966942149,101.53846153846155 L 63.80165289256198,101.53846153846155 L 69.75206611570248,101.53846153846155 L 75.70247933884298,101.53846153846155 L 81.65289256198346,101.53846153846155 L 87.60330578512396,101.53846153846155 L 93.55371900826447,101.53846153846155 L 99.50413223140495,101.53846153846155 L 105.45454545454545,101.53846153846155 L 111.40495867768595,101.53846153846155 L 117.35537190082646,101.53846153846155 L 123.30578512396694,101.53846153846155 L 129.25619834710744,101.53846153846155 L 135.20661157024793,101.53846153846155 L 141.15702479338842,101.53846153846155 L 147.10743801652893,101.53846153846155 L 153.05785123966942,101.53846153846155 L 159.0082644628099,101.53846153846155 L 164.95867768595042,101.53846153846155 L 170.9090909090909,101.53846153846155 L 176.85950413223142,101.53846153846155 L 182.8099173553719,101.53846153846155 L 188.7603305785124,101.53846153846155 L 194.7107438016529,101.53846153846155 L 200.6611570247934,40.0 L 206.61157024793388,40.0 L 212.5619834710744,40.0 L 218.51239669421489,40.0 L 224.46280991735534,40.0 L 230.41322314049586,40.0 L 236.36363636363635,40.0 L 242.31404958677686,40.0 L 248.26446280991735,40.0 L 254.21487603305786,40.0 L 260.1652892561983,40.0 L 266.11570247933884,40.0 L 272.06611570247935,40.0 L 278.0165289256198,40.0 L 283.9669421487603,40.0 L 289.91735537190084,40.0 L 295.8677685950413,40.0 L 301.8181818181818,40.0 L 307.7685950413223,40.0 L 313.71900826446284,40.0 L 319.6694214876033,40.0 L 325.6198347107438,40.0 L 331.5702479338843,40.0 L 337.5206611570248,40.0 L 343.4710743801653,40.0 L 349.4214876033058,40.0 L 355.3719008264463,40.0 L 361.3223140495868,40.0 L 367.27272727272725,40.0 L 373.22314049586777,40.0 L 379.1735537190083,40.0 L 385.1239669421488,40.0 L 391.07438016528926,40.0 L 397.02479338842977,40.0 L 402.97520661157023,40.0 L 408.9256198347107,40.0 L 414.87603305785126,40.0 L 420.8264462809917,40.0 L 426.77685950413223,40.0 L 432.7272727272727,40.0 L 438.67768595041326,40.0 L 444.6280991735537,40.0 L 450.5785123966942,40.0 L 456.5289256198347,40.0 L 462.47933884297527,40.0 L 468.4297520661157,40.0 L 474.3801652892562,40.0 L 480.33057851239664,40.0 L 486.2809917355372,40.0 L 492.2314049586777,40.0 L 498.1818181818182,40.0 L 504.13223140495865,40.0 L 510.0826446280992,40.0 L 516.0330578512396,40.0 L 521.9834710743801,40.0 L 527.9338842975206,40.0 L 533.8842975206612,40.0 L 539.8347107438017,40.0 L 545.7851239669421,40.0 L 551.7355371900826,40.0 L 557.6859504132232,40.0 L 563.6363636363636,40.0 L 569.5867768595041,40.0 L 575.5371900826447,40.0 L 581.4876033057851,40.0 L 587.4380165289257,40.0 L 593.3884297520661,40.0 L 599.3388429752066,40.0 L 605.2892561983472,40.0 L 611.2396694214876,40.0 L 617.1900826446281,40.0 L 623.1404958677685,40.0 L 629.0909090909091,40.0 L 635.0413223140496,40.0 L 640.99173553719,40.0 L 646.9421487603306,40.0 L 652.8925619834711,40.0 L 658.8429752066116,40.0 L 664.7933884297521,40.0 L 670.7438016528926,40.0 L 676.6942148760331,40.0 L 682.6446280991736,40.0 L 688.595041322314,40.0 L 694.5454545454545,40.0 L 700.4958677685951,40.0 L 706.4462809917355,40.0 L 712.396694214876,40.0 L 718.3471074380166,40.0 L 724.297520661157,40.0 L 730.2479338842976,40.0 L 736.198347107438,40.0 L 742.1487603305785,40.0 L 748.0991735537191,40.0 L 754.0495867768595,40.0 L 760.0,40.0" class="line"/>
  <circle cx="40.0" cy="101.53846153846155" class="point"/>
  <text x="40.0" y="375" class="label" text-anchor="middle">2025-11-11</text>
  <text x="40.0" y="96.53846153846155" class="label" text-anchor="middle">42</text>
  <circle cx="45.950413223140494" cy="101.53846153846155" class="point"/>
  <text x="45.950413223140494" y="375" class="label" text-anchor="middle">2025-11-12</text>
  <text x="45.950413223140494" y="96.53846153846155" class="label" text-anchor="middle">42</text>
  <circle cx="51.90082644628099" cy="101.53846153846155" class="point"/>
  <text x="51.90082644628099" y="375" class="label" text-anchor="middle">2025-11-13</text>
  <text x="51.90082644628099" y="96.53846153846155" class="label" text-anchor="middle">42</text>
  <circle cx="57.85123966942149" cy="101.53846153846155" class="point"/>
  <text x="57.85123966942149" y="375" class="label" text-anchor="middle">2025-11-14</text>
  <text x="57.85123966942149" y="96.53846153846155" class="label" text-anchor="middle">42</text>
  <circle cx="63.80165289256198" cy="101.53846153846155" class="point"/>
  <text x="63.80165289256198" y="375" class="label" text-anchor="middle">2025-11-15</text>
  <text x="63.80165289256198" y="96.53846153846155" class="label" text-anchor="middle">42</text>
  <circle cx="69.75206611570248" cy="101.53846153846155" class="point"/>
  <text x="69.75206611570248" y="375" class="label" text-anchor="middle">2025-11-16</text>
  <text x="69.75206611570248" y="96.53846153846155" class="label" text-anchor="middle">42</text>
  <circle cx="75.70247933884298" cy="101.53846153846155" class="point"/>
  <text x="75.70247933884298" y="375" class="label" text-anchor="middle">2025-11-17</text>
  <text x="75.70247933884298" y="96.53846153846155" class="label" text-anchor="middle">42</text>
  <circle cx="81.65289256198346" cy="101.53846153846155" class="point"/>
  <text x="81.65289256198346" y="375" class="label" text-anchor="middle">2025-11-18</text>
  <text x="81.65289256198346" y="96.53846153846155" class="label" text-anchor="middle">42</text>
  <circle cx="87.60330578512396" cy="101.53846153846155" class="point"/>
  <text x="87.60330578512396" y="375" class="label" text-anchor="middle">2025-11-19</text>
  <text x="87.60330578512396" y="96.53846153846155" class="label" text-anchor="middle">42</text>
  <circle cx="93.55371900826447" cy="101.53846153846155" class="point"/>
  <text x="93.55371900826447" y="375" class="label" text-anchor="middle">2025-11-20</text>
  <text x="93.55371900826447" y="96.53846153846155" class="label" text-anchor="middle">42</text>
  <circle cx="99.50413223140495" cy="101.53846153846155" class="point"/>
  <text x="99.50413223140495" y="375" class="label" text-anchor="middle">2025-11-21</text>
  <text x="99.50413223140495" y="96.53846153846155" class="label" text-anchor="middle">42</text>
  <circle cx="105.45454545454545" cy="101.53846153846155" class="point"/>
  <text x="105.45454545454545" y="375" class="label" text-anchor="middle">2025-11-22</text>
  <text x="105.45454545454545" y="96.53846153846155" class="label" text-anchor="middle">42</text>
  <circle cx="111.40495867768595" cy="101.53846153846155" class="point"/>
  <text x="111.40495867768595" y="375" class="label" text-anchor="middle">2025-11-23</text>
  <text x="111.40495867768595" y="96.53846153846155" class="label" text-anchor="middle">42</text>
  <circle cx="117.35537190082646" cy="101.53846153846155" class="point"/>
  <text x="117.35537190082646" y="375" class="label" text-anchor="middle">2025-11-24</text>
  <text x="117.35537190082646" y="96.53846153846155" class="label" text-anchor="middle">42</text>
  <circle cx="123.30578512396694" cy="101.53846153846155" class="point"/>
  <text x="123.30578512396694" y="375" class="label" text-anchor="middle">2025-11-25</text>
  <text x="123.30578512396694" y="96.53846153846155" class="label" text-anchor="middle">42</text>
  <circle cx="129.25619834710744" cy="101.53846153846155" class="point"/>
  <text x="129.25619834710744" y="375" class="label" text-anchor="middle">2025-11-26</text>
  <text x="129.25619834710744" y="96.53846153846155" class="label" text-anchor="middle">42</text>
  <circle cx="135.20661157024793" cy="101.53846153846155" class="point"/>
  <text x="135.20661157024793" y="375" class="label" text-anchor="middle">2025-11-27</text>
  <text x="135.20661157024793" y="96.53846153846155" class="label" text-anchor="middle">42</text>
  <circle cx="141.15702479338842" cy="101.53846153846155" class="point"/>
  <text x="141.15702479338842" y="375" class="label" text-anchor="middle">2025-11-28</text>
  <text x="141.15702479338842" y="96.53846153846155" class="label" text-anchor="middle">42</text>
  <circle cx="147.10743801652893" cy="101.53846153846155" class="point"/>
  <text x="147.10743801652893" y="375" class="label" text-anchor="middle">2025-11-29</text>
  <text x="147.10743801652893" y="96.53846153846155" class="label" text-anchor="middle">42</text>
  <circle cx="153.05785123966942" cy="101.53846153846155" class="point"/>
  <text x="153.05785123966942" y="375" class="label" text-anchor="middle">2025-11-30</text>
  <text x="153.05785123966942" y="96.53846153846155" class="label" text-anchor="middle">42</text>
  <circle cx="159.0082644628099" cy="101.53846153846155" class="point"/>
  <text x="159.0082644628099" y="375" class="label" text-anchor="middle">2025-12-01</text>
  <text x="159.0082644628099" y="96.53846153846155" class="label" text-anchor="middle">42</text>
  <circle cx="164.95867768595042" cy="101.53846153846155" class="point"/>
  <text x="164.95867768595042" y="375" class="label" text-anchor="middle">2025-12-02</text>
  <text x="164.95867768595042" y="96.53846153846155" class="label" text-anchor="middle">42</text>
  <circle cx="170.9090909090909" cy="101.53846153846155" class="point"/>
  <text x="170.9090909090909" y="375" class="label" text-anchor="middle">2025-12-03</text>
  <text x="170.9090909090909" y="96.53846153846155" class="label" text-anchor="middle">42</text>
  <circle cx="176.85950413223142" cy="101.53846153846155" class="point"/>
  <text x="176.85950413223142" y="375" class="label" text-anchor="middle">2025-12-04</text>
  <text x="176.85950413223142" y="96.53846153846155" class="label" text-anchor="middle">42</text>
  <circle cx="182.8099173553719" cy="101.53846153846155" class="point"/>
  <text x="182.8099173553719" y="375" class="label" text-anchor="middle">2025-12-05</text>
  <text x="182.8099173553719" y="96.53846153846155" class="label" text-anchor="middle">42</text>
  <circle cx="188.7603305785124" cy="101.53846153846155" class="point"/>
  <text x="188.7603305785124" y="375" class="label" text-anchor="middle">2025-12-06</text>
  <text x="188.7603305785124" y="96.53846153846155" class="label" text-anchor="middle">42</text>
  <circle cx="194.7107438016529" cy="101.53846153846155" class="point"/>
  <text x="194.7107438016529" y="375" class="label" text-anchor="middle">2025-12-07</text>
  <text x="194.7107438016529" y="96.53846153846155" class="label" text-anchor="middle">42</text>
  <circle cx="200.6611570247934" cy="40.0" class="point"/>
  <text x="200.6611570247934" y="375" class="label" text-anchor="middle">2025-12-08</text>
  <text x="200.6611570247934" y="35.0" class="label" text-anchor="middle">52</text>
  <circle cx="206.61157024793388" cy="40.0" class="point"/>
  <text x="206.61157024793388" y="375" class="label" text-anchor="middle">2025-12-09</text>
  <text x="206.61157024793388" y="35.0" class="label" text-anchor="middle">52</text>
  <circle cx="212.5619834710744" cy="40.0" class="point"/>
  <text x="212.5619834710744" y="375" class="label" text-anchor="middle">2025-12-10</text>
  <text x="212.5619834710744" y="35.0" class="label" text-anchor="middle">52</text>
  <circle cx="218.51239669421489" cy="40.0" class="point"/>
  <text x="218.51239669421489" y="375" class="label" text-anchor="middle">2025-12-11</text>
  <text x="218.51239669421489" y="35.0" class="label" text-anchor="middle">52</text>
  <circle cx="224.46280991735534" cy="40.0" class="point"/>
  <text x="224.46280991735534" y="375" class="label" text-anchor="middle">2025-12-12</text>
  <text x="224.46280991735534" y="35.0" class="label" text-anchor="middle">52</text>
  <circle cx="230.41322314049586" cy="40.0" class="point"/>
  <text x="230.41322314049586" y="375" class="label" text-anchor="middle">2025-12-13</text>
  <text x="230.41322314049586" y="35.0" class="label" text-anchor="middle">52</text>
  <circle cx="236.36363636363635" cy="40.0" class="point"/>
  <text x="236.36363636363635" y="375" class="label" text-anchor="middle">2025-12-14</text>
  <text x="236.36363636363635" y="35.0" class="label" text-anchor="middle">52</text>
  <circle cx="242.31404958677686" cy="40.0" class="point"/>
  <text x="242.31404958677686" y="375" class="label" text-anchor="middle">2025-12-15</text>
  <text x="242.31404958677686" y="35.0" class="label" text-anchor="middle">52</text>
  <circle cx="248.26446280991735" cy="40.0" class="point"/>
  <text x="248.26446280991735" y="375" class="label" text-anchor="middle">2025-12-16</text>
  <text x="248.26446280991735" y="35.0" class="label" text-anchor="middle">52</text>
  <circle cx="254.21487603305786" cy="40.0" class="point"/>
  <text x="254.21487603305786" y="375" class="label" text-anchor="middle">2025-12-17</text>
  <text x="254.21487603305786" y="35.0" class="label" text-anchor="middle">52</text>
  <circle cx="260.1652892561983" cy="40.0" class="point"/>
  <text x="260.1652892561983" y="375" class="label" text-anchor="middle">2025-12-18</text>
  <text x="260.1652892561983" y="35.0" class="label" text-anchor="middle">52</text>
  <circle cx="266.11570247933884" cy="40.0" class="point"/>
  <text x="266.11570247933884" y="375" class="label" text-anchor="middle">2025-12-19</text>
  <text x="266.11570247933884" y="35.0" class="label" text-anchor="middle">52</text>
  <circle cx="272.06611570247935" cy="40.0" class="point"/>
  <text x="272.06611570247935" y="375" class="label" text-anchor="middle">2025-12-20</text>
  <text x="272.06611570247935" y="35.0" class="label" text-anchor="middle">52</text>
  <circle cx="278.0165289256198" cy="40.0" class="point"/>
  <text x="278.0165289256198" y="375" class="label" text-anchor="middle">2025-12-21</text>
  <text x="278.0165289256198" y="35.0" class="label" text-anchor="middle">52</text>
  <circle cx="283.9669421487603" cy="40.0" class="point"/>
  <text x="283.9669421487603" y="375" class="label" text-anchor="middle">2025-12-22</text>
  <text x="283.9669421487603" y="35.0" class="label" text-anchor="middle">52</text>
  <circle cx="289.91735537190084" cy="40.0" class="point"/>
  <text x="289.91735537190084" y="375" class="label" text-anchor="middle">2025-12-23</text>
  <text x="289.91735537190084" y="35.0" class="label" text-anchor="middle">52</text>
  <circle cx="295.8677685950413" cy="40.0" class="point"/>
  <text x="295.8677685950413" y="375" class="label" text-anchor="middle">2025-12-24</text>
  <text x="295.8677685950413" y="35.0" class="label" text-anchor="middle">52</text>
  <circle cx="301.8181818181818" cy="40.0" class="point"/>
  <text x="301.8181818181818" y="375" class="label" text-anchor="middle">2025-12-25</text>
  <text x="301.8181818181818" y="35.0" class="label" text-anchor="middle">52</text>
  <circle cx="307.7685950413223" cy="40.0" class="point"/>
  <text x="307.7685950413223" y="375" class="label" text-anchor="middle">2025-12-26</text>
  <text x="307.7685950413223" y="35.0" class="label" text-anchor="middle">52</text>
  <circle cx="313.71900826446284" cy="40.0" class="point"/>
  <text x="313.71900826446284" y="375" class="label" text-anchor="middle">2025-12-27</text>
  <text x="313.71900826446284" y="35.0" class="label" text-anchor="middle">52</text>
  <circle cx="319.6694214876033" cy="40.0" class="point"/>
  <text x="319.6694214876033" y="375" class="label" text-anchor="middle">2025-12-28</text>
  <text x="319.6694214876033" y="35.0" class="label" text-anchor="middle">52</text>
  <circle cx="325.6198347107438" cy="40.0" class="point"/>
  <text x="325.6198347107438" y="375" class="label" text-anchor="middle">2025-12-29</text>
  <text x="325.6198347107438" y="35.0" class="label" text-anchor="middle">52</text>
  <circle cx="331.5702479338843" cy="40.0" class="point"/>
  <text x="331.5702479338843" y="375" class="label" text-anchor="middle">2025-12-30</text>
  <text x="331.5702479338843" y="35.0" class="label" text-anchor="middle">52</text>
  <circle cx="337.5206611570248" cy="40.0" class="point"/>
  <text x="337.5206611570248" y="375" class="label" text-anchor="middle">2025-12-31</text>
  <text x="337.5206611570248" y="35.0" class="label" text-anchor="middle">52</text>
  <circle cx="343.4710743801653" cy="40.0" class="point"/>
  <text x="343.4710743801653" y="375" class="label" text-anchor="middle">2026-01-01</text>
  <text x="343.4710743801653" y="35.0" class="label" text-anchor="middle">52</text>
  <circle cx="349.4214876033058" cy="40.0" class="point"/>
  <text x="349.4214876033058" y="375" class="label" text-anchor="middle">2026-01-02</text>
  <text x="349.4214876033058" y="35.0" class="label" text-anchor="middle">52</text>
  <circle cx="355.3719008264463" cy="40.0" class="point"/>
  <text x="355.3719008264463" y="375" class="label" text-anchor="middle">2026-01-03</text>
  <text x="355.3719008264463" y="35.0" class="label" text-anchor="middle">52</text>
  <circle cx="361.3223140495868" cy="40.0" class="point"/>
  <text x="361.3223140495868" y="375" class="label" text-anchor="middle">2026-01-04</text>
  <text x="361.3223140495868" y="35.0" class="label" text-anchor="middle">52</text>
  <circle cx="367.27272727272725" cy="40.0" class="point"/>
  <text x="367.27272727272725" y="375" class="label" text-anchor="middle">2026-01-05</text>
  <text x="367.27272727272725" y="35.0" class="label" text-anchor="middle">52</text>
  <circle cx="373.22314049586777" cy="40.0" class="point"/>
  <text x="373.22314049586777" y="375" class="label" text-anchor="middle">2026-01-06</text>
  <text x="373.22314049586777" y="35.0" class="label" text-anchor="middle">52</text>
  <circle cx="379.1735537190083" cy="40.0" class="point"/>
  <text x="379.1735537190083" y="375" class="label" text-anchor="middle">2026-01-07</text>
  <text x="379.1735537190083" y="35.0" class="label" text-anchor="middle">52</text>
  <circle cx="385.1239669421488" cy="40.0" class="point"/>
  <text x="385.1239669421488" y="375" class="label" text-anchor="middle">2026-01-08</text>
  <text x="385.1239669421488" y="35.0" class="label" text-anchor="middle">52</text>
  <circle cx="391.07438016528926" cy="40.0" class="point"/>
  <text x="391.07438016528926" y="375" class="label" text-anchor="middle">2026-01-09</text>
  <text x="391.07438016528926" y="35.0" class="label" text-anchor="middle">52</text>
  <circle cx="397.02479338842977" cy="40.0" class="point"/>
  <text x="397.02479338842977" y="375" class="label" text-anchor="middle">2026-01-10</text>
  <text x="397.02479338842977" y="35.0" class="label" text-anchor="middle">52</text>
  <circle cx="402.97520661157023" cy="40.0" class="point"/>
  <text x="402.97520661157023" y="375" class="label" text-anchor="middle">2026-01-11</text>
  <text x="402.97520661157023" y="35.0" class="label" text-anchor="middle">52</text>
  <circle cx="408.9256198347107" cy="40.0" class="point"/>
  <text x="408.9256198347107" y="375" class="label" text-anchor="middle">2026-01-12</text>
  <text x="408.9256198347107" y="35.0" class="label" text-anchor="middle">52</text>
  <circle cx="414.87603305785126" cy="40.0" class="point"/>
  <text x="414.87603305785126" y="375" class="label" text-anchor="middle">2026-01-13</text>
  <text x="414.87603305785126" y="35.0" class="label" text-anchor="middle">52</text>
  <circle cx="420.8264462809917" cy="40.0" class="point"/>
  <text x="420.8264462809917" y="375" class="label" text-anchor="middle">2026-01-14</text>
  <text x="420.8264462809917" y="35.0" class="label" text-anchor="middle">52</text>
  <circle cx="426.77685950413223" cy="40.0" class="point"/>
  <text x="426.77685950413223" y="375" class="label" text-anchor="middle">2026-01-15</text>
  <text x="426.77685950413223" y="35.0" class="label" text-anchor="middle">52</text>
  <circle cx="432.7272727272727" cy="40.0" class="point"/>
  <text x="432.7272727272727" y="375" class="label" text-anchor="middle">2026-01-16</text>
  <text x="432.7272727272727" y="35.0" class="label" text-anchor="middle">52</text>
  <circle cx="438.67768595041326" cy="40.0" class="point"/>
  <text x="438.67768595041326" y="375" class="label" text-anchor="middle">2026-01-17</text>
  <text x="438.67768595041326" y="35.0" class="label" text-anchor="middle">52</text>
  <circle cx="444.6280991735537" cy="40.0" class="point"/>
  <text x="444.6280991735537" y="375" class="label" text-anchor="middle">2026-01-18</text>
  <text x="444.6280991735537" y="35.0" class="label" text-anchor="middle">52</text>
  <circle cx="450.5785123966942" cy="40.0" class="point"/>
  <text x="450.5785123966942" y="375" class="label" text-anchor="middle">2026-01-19</text>
  <text x="450.5785123966942" y="35.0" class="label" text-anchor="middle">52</text>
  <circle cx="456.5289256198347" cy="40.0" class="point"/>
  <text x="456.5289256198347" y="375" class="label" text-anchor="middle">2026-01-20</text>
  <text x="456.5289256198347" y="35.0" class="label" text-anchor="middle">52</text>
  <circle cx="462.47933884297527" cy="40.0" class="point"/>
  <text x="462.47933884297527" y="375" class="label" text-anchor="middle">2026-01-21</text>
  <text x="462.47933884297527" y="35.0" class="label" text-anchor="middle">52</text>
  <circle cx="468.4297520661157" cy="40.0" class="point"/>
  <text x="468.4297520661157" y="375" class="label" text-anchor="middle">2026-01-22</text>
  <text x="468.4297520661157" y="35.0" class="label" text-anchor="middle">52</text>
  <circle cx="474.3801652892562" cy="40.0" class="point"/>
  <text x="474.3801652892562" y="375" class="label" text-anchor="middle">2026-01-23</text>
  <text x="474.3801652892562" y="35.0" class="label" text-anchor="middle">52</text>
  <circle cx="480.33057851239664" cy="40.0" class="point"/>
  <text x="480.33057851239664" y="375" class="label" text-anchor="middle">2026-01-24</text>
  <text x="480.33057851239664" y="35.0" class="label" text-anchor="middle">52</text>
  <circle cx="486.2809917355372" cy="40.0" class="point"/>
  <text x="486.2809917355372" y="375" class="label" text-anchor="middle">2026-01-25</text>
  <text x="486.2809917355372" y="35.0" class="label" text-anchor="middle">52</text>
  <circle cx="492.2314049586777" cy="40.0" class="point"/>
  <text x="492.2314049586777" y="375" class="label" text-anchor="middle">2026-01-26</text>
  <text x="492.2314049586777" y="35.0" class="label" text-anchor="middle">52</text>
  <circle cx="498.1818181818182" cy="40.0" class="point"/>
  <text x="498.1818181818182" y="375" class="label" text-anchor="middle">2026-01-27</text>
  <text x="498.1818181818182" y="35.0" class="label" text-anchor="middle">52</text>
  <circle cx="504.13223140495865" cy="40.0" class="point"/>
  <text x="504.13223140495865" y="375" class="label" text-anchor="middle">2026-01-28</text>
  <text x="504.13223140495865" y="35.0" class="label" text-anchor="middle">52</text>
  <circle cx="510.0826446280992" cy="40.0" class="point"/>
  <text x="510.0826446280992" y="375" class="label" text-anchor="middle">2026-01-29</text>
  <text x="510.0826446280992" y="35.0" class="label" text-anchor="middle">52</text>
  <circle cx="516.0330578512396" cy="40.0" class="point"/>
  <text x="516.0330578512396" y="375" class="label" text-anchor="middle">2026-01-30</text>
  <text x="516.0330578512396" y="35.0" class="label" text-anchor="middle">52</text>
  <circle cx="521.9834710743801" cy="40.0" class="point"/>
  <text x="521.9834710743801" y="375" class="label" text-anchor="middle">2026-01-31</text>
  <text x="521.9834710743801" y="35.0" class="label" text-anchor="middle">52</text>
  <circle cx="527.9338842975206" cy="40.0" class="point"/>
  <text x="527.9338842975206" y="375" class="label" text-anchor="middle">2026-02-01</text>
  <text x="527.9338842975206" y="35.0" class="label" text-anchor="middle">52</text>
  <circle cx="533.8842975206612" cy="40.0" class="point"/>
  <text x="533.8842975206612" y="375" class="label" text-anchor="middle">2026-02-02</text>
  <text x="533.8842975206612" y="35.0" class="label" text-anchor="middle">52</text>
  <circle cx="539.8347107438017" cy="40.0" class="point"/>
  <text x="539.8347107438017" y="375" class="label" text-anchor="middle">2026-02-03</text>
  <text x="539.8347107438017" y="35.0" class="label" text-anchor="middle">52</text>
  <circle cx="545.7851239669421" cy="40.0" class="point"/>
  <text x="545.7851239669421" y="375" class="label" text-anchor="middle">2026-02-04</text>
  <text x="545.7851239669421" y="35.0" class="label" text-anchor="middle">52</text>
  <circle cx="551.7355371900826" cy="40.0" class="point"/>
  <text x="551.7355371900826" y="375" class="label" text-anchor="middle">2026-02-05</text>
  <text x="551.7355371900826" y="35.0" class="label" text-anchor="middle">52</text>
  <circle cx="557.6859504132232" cy="40.0" class="point"/>
  <text x="557.6859504132232" y="375" class="label" text-anchor="middle">2026-02-06</text>
  <text x="557.6859504132232" y="35.0" class="label" text-anchor="middle">52</text>
  <circle cx="563.6363636363636" cy="40.0" class="point"/>
  <text x="563.6363636363636" y="375" class="label" text-anchor="middle">2026-02-07</text>
  <text x="563.6363636363636" y="35.0" class="label" text-anchor="middle">52</text>
  <circle cx="569.5867768595041" cy="40.0" class="point"/>
  <text x="569.5867768595041" y="375" class="label" text-anchor="middle">2026-02-08</text>
  <text x="569.5867768595041" y="35.0" class="label" text-anchor="middle">52</text>
  <circle cx="575.5371900826447" cy="40.0" class="point"/>
  <text x="575.5371900826447" y="375" class="label" text-anchor="middle">2026-02-09</text>
  <text x="575.5371900826447" y="35.0" class="label" text-anchor="middle">52</text>
  <circle cx="581.4876033057851" cy="40.0" class="point"/>
  <text x="581.4876033057851" y="375" class="label" text-anchor="middle">2026-02-10</text>
  <text x="581.4876033057851" y="35.0" class="label" text-anchor="middle">52</text>
  <circle cx="587.4380165289257" cy="40.0" class="point"/>
  <text x="587.4380165289257" y="375" class="label" text-anchor="middle">2026-02-11</text>
  <text x="587.4380165289257" y="35.0" class="label" text-anchor="middle">52</text>
  <circle cx="593.3884297520661" cy="40.0" class="point"/>
  <text x="593.3884297520661" y="375" class="label" text-anchor="middle">2026-02-12</text>
  <text x="593.3884297520661" y="35.0" class="label" text-anchor="middle">52</text>
  <circle cx="599.3388429752066" cy="40.0" class="point"/>
  <text x="599.3388429752066" y="375" class="label" text-anchor="middle">2026-02-13</text>
  <text x="599.3388429752066" y="35.0" class="label" text-anchor="middle">52</text>
  <circle cx="605.2892561983472" cy="40.0" class="point"/>
  <text x="605.2892561983472" y="375" class="label" text-anchor="middle">2026-02-14</text>
  <text x="605.2892561983472" y="35.0" class="label" text-anchor="middle">52</text>
  <circle cx="611.2396694214876" cy="40.0" class="point"/>
  <text x="611.2396694214876" y="375" class="label" text-anchor="middle">2026-02-15</text>
  <text x="611.2396694214876" y="35.0" class="label" text-anchor="middle">52</text>
  <circle cx="617.1900826446281" cy="40.0" class="point"/>
  <text x="617.1900826446281" y="375" class="label" text-anchor="middle">2026-02-16</text>
  <text x="617.1900826446281" y="35.0" class="label" text-anchor="middle">52</text>
  <circle cx="623.1404958677685" cy="40.0" class="point"/>
  <text x="623.1404958677685" y="375" class="label" text-anchor="middle">2026-02-17</text>
  <text x="623.1404958677685" y="35.0" class="label" text-anchor="middle">52</text>
  <circle cx="629.0909090909091" cy="40.0" class="point"/>
  <text x="629.0909090909091" y="375" class="label" text-anchor="middle">2026-02-18</text>
  <text x="629.0909090909091" y="35.0" class="label" text-anchor="middle">52</text>
  <circle cx="635.0413223140496" cy="40.0" class="point"/>
  <text x="635.0413223140496" y="375" class="label" text-anchor="middle">2026-02-19</text>
  <text x="635.0413223140496" y="35.0" class="label" text-anchor="middle">52</text>
  <circle cx="640.99173553719" cy="40.0" class="point"/>
  <text x="640.99173553719" y="375" class="label" text-anchor="middle">2026-02-20</text>
  <text x="640.99173553719" y="35.0" class="label" text-anchor="middle">52</text>
  <circle cx="646.9421487603306" cy="40.0" class="point"/>
  <text x="646.9421487603306" y="375" class="label" text-anchor="middle">2026-02-21</text>
  <text x="646.9421487603306" y="35.0" class="label" text-anchor="middle">52</text>
  <circle cx="652.8925619834711" cy="40.0" class="point"/>
  <text x="652.8925619834711" y="375" class="label" text-anchor="middle">2026-02-22</text>
  <text x="652.8925619834711" y="35.0" class="label" text-anchor="middle">52</text>
  <circle cx="658.8429752066116" cy="40.0" class="point"/>
  <text x="658.8429752066116" y="375" class="label" text-anchor="middle">2026-02-23</text>
  <text x="658.8429752066116" y="35.0" class="label" text-anchor="middle">52</text>
  <circle cx="664.7933884297521" cy="40.0" class="point"/>
  <text x="664.7933884297521" y="375" class="label" text-anchor="middle">2026-02-24</text>
  <text x="664.7933884297521" y="35.0" class="label" text-anchor="middle">52</text>
  <circle cx="670.7438016528926" cy="40.0" class="point"/>
  <text x="670.7438016528926" y="375" class="label" text-anchor="middle">2026-02-25</text>
  <text x="670.7438016528926" y="35.0" class="label" text-anchor="middle">52</text>
  <circle cx="676.6942148760331" cy="40.0" class="point"/>
  <text x="676.6942148760331" y="375" class="label" text-anchor="middle">2026-02-26</text>
  <text x="676.6942148760331" y="35.0" class="label" text-anchor="middle">52</text>
  <circle cx="682.6446280991736" cy="40.0" class="point"/>
  <text x="682.6446280991736" y="375" class="label" text-anchor="middle">2026-02-27</text>
  <text x="682.6446280991736" y="35.0" class="label" text-anchor="middle">52</text>
  <circle cx="688.595041322314" cy="40.0" class="point"/>
  <text x="688.595041322314" y="375" class="label" text-anchor="middle">2026-02-28</text>
  <text x="688.595041322314" y="35.0" class="label" text-anchor="middle">52</text>
  <circle cx="694.5454545454545" cy="40.0" class="point"/>
  <text x="694.5454545454545" y="375" class="label" text-anchor="middle">2026-03-01</text>
  <text x="694.5454545454545" y="35.0" class="label" text-anchor="middle">52</text>
  <circle cx="700.4958677685951" cy="40.0" class="point"/>
  <text x="700.4958677685951" y="375" class="label" text-anchor="middle">2026-03-02</text>
  <text x="700.4958677685951" y="35.0" class="label" text-anchor="middle">52</text>
  <circle cx="706.4462809917355" cy="40.0" class="point"/>
  <text x="706.4462809917355" y="375" class="label" text-anchor="middle">2026-03-03</text>
  <text x="706.4462809917355" y="35.0" class="label" text-anchor="middle">52</text>
  <circle cx="712.396694214876" cy="40.0" class="point"/>
  <text x="712.396694214876" y="375" class="label" text-anchor="middle">2026-03-04</text>
  <text x="712.396694214876" y="35.0" class="label" text-anchor="middle">52</text>
  <circle cx="718.3471074380166" cy="40.0" class="point"/>
  <text x="718.3471074380166" y="375" class="label" text-anchor="middle">2026-03-05</text>
  <text x="718.3471074380166" y="35.0" class="label" text-anchor="middle">52</text>
  <circle cx="724.297520661157" cy="40.0" class="point"/>
  <text x="724.297520661157" y="375" class="label" text-anchor="middle">2026-03-06</text>
  <text x="724.297520661157" y="35.0" class="label" text-anchor="middle">52</text>
  <circle cx="730.2479338842976" cy="40.0" class="point"/>
  <text x="730.2479338842976" y="375" class="label" text-anchor="middle">2026-03-07</text>
  <text x="730.2479338842976" y="35.0" class="label" text-anchor="middle">52</text>
  <circle cx="736.198347107438" cy="40.0" class="point"/>
  <text x="736.198347107438" y="375" class="label" text-anchor="middle">2026-03-08</text>
  <text x="736.198347107438" y="35.0" class="label" text-anchor="middle">52</text>
  <circle cx="742.1487603305785" cy="40.0" class="point"/>
  <text x="742.1487603305785" y="375" class="label" text-anchor="middle">2026-03-09</text>
  <text x="742.1487603305785" y="35.0" class="label" text-anchor="middle">52</text>
  <circle cx="748.0991735537191" cy="40.0" class="point"/>
  <text x="748.0991735537191" y="375" class="label" text-anchor="middle">2026-03-10</text>
  <text x="748.0991735537191" y="35.0" class="label" text-anchor="middle">52</text>
  <circle cx="754.0495867768595" cy="40.0" class="point"/>
  <text x="754.0495867768595" y="375" class="label" text-anchor="middle">2026-03-11</text>
  <text x="754.0495867768595" y="35.0" class="label" text-anchor="middle">52</text>
  <circle cx="760.0" cy="40.0" class="point"/>
  <text x="760.0" y="375" class="label" text-anchor="middle">2026-03-12</text>
  <text x="760.0" y="35.0" class="label" text-anchor="middle">52</text>
  <text x="30" y="363.0" class="label" text-anchor="end">0</text>
  <text x="30" y="301.46153846153845" class="label" text-anchor="end">10</text>
  <text x="30" y="239.9230769230769" class="label" text-anchor="end">20</text>
  <text x="30" y="178.38461538461542" class="label" text-anchor="end">30</text>
  <text x="30" y="116.84615384615384" class="label" text-anchor="end">40</text>
  <text x="30" y="55.30769230769232" class="label" text-anchor="end">50</text>
</svg>