<svg xmlns="http://www.w3.org/2000/svg" width="800" height="400" viewBox="0 0 800 400">
  <style>
    .axis{stroke:#666;stroke-width:1}
    .line{stroke:#4a9;stroke-width:2;fill:none}
    .point{fill:#4a9;r:4}
    .label{font:10px sans-serif;fill:#aaa}
    .title{font:14px sans-serif;fill:#333}
  </style>
  <text x="400" y="20" class="title" text-anchor="middle">OPIC Field Growth Timeline</text>
  <line x1="40" y1="40" x2="40" y2="360" class="axis"/>
  <line x1="40" y1="360" x2="760" y2="360" class="axis"/>
  <path d="M 40.0,101.53846153846155 L 60.0,101.53846153846155 L 80.0,101.53846153846155 L 100.0,101.53846153846155 L 120.0,101.53846153846155 L 140.0,101.53846153846155 L 160.0,101.53846153846155 L 180.0,101.53846153846155 L 200.0,101.53846153846155 L 220.0,101.53846153846155 L 240.0,101.53846153846155 L 260.0,101.53846153846155 L 280.0,101.53846153846155 L 300.0,101.53846153846155 L 320.0,101.53846153846155 L 340.0,101.53846153846155 L 360.0,101.53846153846155 L 380.0,101.53846153846155 L 400.0,101.53846153846155 L 420.0,101.53846153846155 L 440.0,101.53846153846155 L 460.0,101.53846153846155 L 480.00000000000006,101.53846153846155 L 499.99999999999994,101.53846153846155 L 520.0,101.53846153846155 L 540.0,101.53846153846155 L 560.0,101.53846153846155 L 580.0,40.0 L 600.0,40.0 L 620.0,40.0 L 640.0,40.0 L 660.0,40.0 L 680.0,40.0 L 700.0,40.0 L 720.0,40.0 L 740.0,40.0 L 760.0,40.0" class="line"/>
  <circle cx="40.0" cy="101.53846153846155" class="point"/>
  <text x="40.0" y="375" class="label" text-anchor="middle">2025-11-11</text>
  <text x="40.0" y="96.53846153846155" class="label" text-anchor="middle">42</text>
  <circle cx="60.0" cy="101.53846153846155" class="point"/>
  <text x="60.0" y="375" class="label" text-anchor="middle">2025-11-12</text>
  <text x="60.0" y="96.53846153846155" class="label" text-anchor="middle">42</text>
  <circle cx="80.0" cy="101.53846153846155" class="point"/>
  <text x="80.0" y="375" class="label" text-anchor="middle">2025-11-13</text>
  <text x="80.0" y="96.53846153846155" class="label" text-anchor="middle">42</text>
  <circle cx="100.0" cy="101.53846153846155" class="point"/>
  <text x="100.0" y="375" class="label" text-anchor="middle">2025-11-14</text>
  <text x="100.0" y="96.53846153846155" class="label" text-anchor="middle">42</text>
  <circle cx="120.0" cy="101.53846153846155" class="point"/>
  <text x="120.0" y="375" class="label" text-anchor="middle">2025-11-15</text>
  <text x="120.0" y="96.53846153846155" class="label" text-anchor="middle">42</text>
  <circle cx="140.0" cy="101.53846153846155" class="point"/>
  <text x="140.0" y="375" class="label" text-anchor="middle">2025-11-16</text>
  <text x="140.0" y="96.53846153846155" class="label" text-anchor="middle">42</text>
  <circle cx="160.0" cy="101.53846153846155" class="point"/>
  <text x="160.0" y="375" class="label" text-anchor="middle">2025-11-17</text>
  <text x="160.0" y="96.53846153846155" class="label" text-anchor="middle">42</text>
  <circle cx="180.0" cy="101.53846153846155" class="point"/>
  <text x="180.0" y="375" class="label" text-anchor="middle">2025-11-18</text>
  <text x="180.0" y="96.53846153846155" class="label" text-anchor="middle">42</text>
  <circle cx="200.0" cy="101.53846153846155" class="point"/>
  <text x="200.0" y="375" class="label" text-anchor="middle">2025-11-19</text>
  <text x="200.0" y="96.53846153846155" class="label" text-anchor="middle">42</text>
  <circle cx="220.0" cy="101.53846153846155" class="point"/>
  <text x="220.0" y="375" class="label" text-anchor="middle">2025-11-20</text>
  <text x="220.0" y="96.53846153846155" class="label" text-anchor="middle">42</text>
  <circle cx="240.0" cy="101.53846153846155" class="point"/>
  <text x="240.0" y="375" class="label" text-anchor="middle">2025-11-21</text>
  <text x="240.0" y="96.53846153846155" class="label" text-anchor="middle">42</text>
  <circle cx="260.0" cy="101.53846153846155" class="point"/>
  <text x="260.0" y="375" class="label" text-anchor="middle">2025-11-22</text>
  <text x="260.0" y="96.53846153846155" class="label" text-anchor="middle">42</text>
  <circle cx="280.0" cy="101.53846153846155" class="point"/>
  <text x="280.0" y="375" class="label" text-anchor="middle">2025-11-23</text>
  <text x="280.0" y="96.53846153846155" class="label" text-anchor="middle">42</text>
  <circle cx="300.0" cy="101.53846153846155" class="point"/>
  <text x="300.0" y="375" class="label" text-anchor="middle">2025-11-24</text>
  <text x="300.0" y="96.53846153846155" class="label" text-anchor="middle">42</text>
  <circle cx="320.0" cy="101.53846153846155" class="point"/>
  <text x="320.0" y="375" class="label" text-anchor="middle">2025-11-25</text>
  <text x="320.0" y="96.53846153846155" class="label" text-anchor="middle">42</text>
  <circle cx="340.0" cy="101.53846153846155" class="point"/>
  <text x="340.0" y="375" class="label" text-anchor="middle">2025-11-26</text>
  <text x="340.0" y="96.53846153846155" class="label" text-anchor="middle">42</text>
  <circle cx="360.0" cy="101.53846153846155" class="point"/>
  <text x="360.0" y="375" class="label" text-anchor="middle">2025-11-27</text>
  <text x="360.0" y="96.53846153846155" class="label" text-anchor="middle">42</text>
  <circle cx="380.0" cy="101.53846153846155" class="point"/>
  <text x="380.0" y="375" class="label" text-anchor="middle">2025-11-28</text>
  <text x="380.0" y="96.53846153846155" class="label" text-anchor="middle">42</text>
  <circle cx="400.0" cy="101.53846153846155" class="point"/>
  <text x="400.0" y="375" class="label" text-anchor="middle">2025-11-29</text>
  <text x="400.0" y="96.53846153846155" class="label" text-anchor="middle">42</text>
  <circle cx="420.0" cy="101.53846153846155" class="point"/>
  <text x="420.0" y="375" class="label" text-anchor="middle">2025-11-30</text>
  <text x="420.0" y="96.53846153846155" class="label" text-anchor="middle">42</text>
  <circle cx="440.0" cy="101.53846153846155" class="point"/>
  <text x="440.0" y="375" class="label" text-anchor="middle">2025-12-01</text>
  <text x="440.0" y="96.53846153846155" class="label" text-anchor="middle">42</text>
  <circle cx="460.0" cy="101.53846153846155" class="point"/>
  <text x="460.0" y="375" class="label" text-anchor="middle">2025-12-02</text>
  <text x="460.0" y="96.53846153846155" class="label" text-anchor="middle">42</text>
  <circle cx="480.00000000000006" cy="101.53846153846155" class="point"/>
  <text x="480.00000000000006" y="375" class="label" text-anchor="middle">2025-12-03</text>
  <text x="480.00000000000006" y="96.53846153846155" class="label" text-anchor="middle">42</text>
  <circle cx="499.99999999999994" cy="101.53846153846155" class="point"/>
  <text x="499.99999999999994" y="375" class="label" text-anchor="middle">2025-12-04</text>
  <text x="499.99999999999994" y="96.53846153846155" class="label" text-anchor="middle">42</text>
  <circle cx="520.0" cy="101.53846153846155" class="point"/>
  <text x="520.0" y="375" class="label" text-anchor="middle">2025-12-05</text>
  <text x="520.0" y="96.53846153846155" class="label" text-anchor="middle">42</text>
  <circle cx="540.0" cy="101.53846153846155" class="point"/>
  <text x="540.0" y="375" class="label" text-anchor="middle">2025-12-06</text>
  <text x="540.0" y="96.53846153846155" class="label" text-anchor="middle">42</text>
  <circle cx="560.0" cy="101.53846153846155" class="point"/>
  <text x="560.0" y="375" class="label" text-anchor="middle">2025-12-07</text>
  <text x="560.0" y="96.53846153846155" class="label" text-anchor="middle">42</text>
  <circle cx="580.0" cy="40.0" class="point"/>
  <text x="580.0" y="375" class="label" text-anchor="middle">2025-12-08</text>
  <text x="580.0" y="35.0" class="label" text-anchor="middle">52</text>
  <circle cx="600.0" cy="40.0" class="point"/>
  <text x="600.0" y="375" class="label" text-anchor="middle">2025-12-09</text>
  <text x="600.0" y="35.0" class="label" text-anchor="middle">52</text>
  <circle cx="620.0" cy="40.0" class="point"/>
  <text x="620.0" y="375" class="label" text-anchor="middle">2025-12-10</text>
  <text x="620.0" y="35.0" class="label" text-anchor="middle">52</text>
  <circle cx="640.0" cy="40.0" class="point"/>
  <text x="640.0" y="375" class="label" text-anchor="middle">2025-12-11</text>
  <text x="640.0" y="35.0" class="label" text-anchor="middle">52</text>
  <circle cx="660.0" cy="40.0" class="point"/>
  <text x="660.0" y="375" class="label" text-anchor="middle">2025-12-12</text>
  <text x="660.0" y="35.0" class="label" text-anchor="middle">52</text>
  <circle cx="680.0" cy="40.0" class="point"/>
  <text x="680.0" y="375" class="label" text-anchor="middle">2025-12-13</text>
  <text x="680.0" y="35.0" class="label" text-anchor="middle">52</text>
  <circle cx="700.0" cy="40.0" class="point"/>
  <text x="700.0" y="375" class="label" text-anchor="middle">2025-12-14</text>
  <text x="700.0" y="35.0" class="label" text-anchor="middle">52</text>
  <circle cx="720.0" cy="40.0" class="point"/>
  <text x="720.0" y="375" class="label" text-anchor="middle">2025-12-15</text>
  <text x="720.0" y="35.0" class="label" text-anchor="middle">52</text>
  <circle cx="740.0" cy="40.0" class="point"/>
  <text x="740.0" y="375" class="label" text-anchor="middle">2025-12-16</text>
  <text x="740.0" y="35.0" class="label" text-anchor="middle">52</text>
  <circle cx="760.0" cy="40.0" class="point"/>
  <text x="760.0" y="375" class="label" text-anchor="middle">2025-12-17</text>
  <text x="760.0" y="35.0" class="label" text-anchor="middle">52</text>
  <text x="30" y="363.0" class="label" text-anchor="end">0</text>
  <text x="30" y="301.46153846153845" class="label" text-anchor="end">10</text>
  <text x="30" y="239.9230769230769" class="label" text-anchor="end">20</text>
  <text x="30" y="178.38461538461542" class="label" text-anchor="end">30</text>
  <text x="30" y="116.84615384615384" class="label" text-anchor="end">40</text>
  <text x="30" y="55.30769230769232" class="label" text-anchor="end">50</text>
</svg>