<svg xmlns="http://www.w3.org/2000/svg" width="800" height="400" viewBox="0 0 800 400">
  <style>
    .axis{stroke:#666;stroke-width:1}
    .line{stroke:#4a9;stroke-width:2;fill:none}
    .point{fill:#4a9;r:4}
    .label{font:10px sans-serif;fill:#aaa}
    .title{font:14px sans-serif;fill:#333}
  </style>
  <text x="400" y="20" class="title" text-anchor="middle">OPIC Field Growth Timeline</text>
  <line x1="40" y1="40" x2="40" y2="360" class="axis"/>
  <line x1="40" y1="360" x2="760" y2="360" class="axis"/>
  <path d="M 40.0,101.53846153846155 L 44.13793103448276,101.53846153846155 L 48.275862068965516,101.53846153846155 L 52.41379310344828,101.53846153846155 L 56.55172413793103,101.53846153846155 L 60.689655172413794,101.53846153846155 L 64.82758620689656,101.53846153846155 L 68.9655172413793,101.53846153846155 L 73.10344827586206,101.53846153846155 L 77.24137931034483,101.53846153846155 L 81.37931034482759,101.53846153846155 L 85.51724137931035,101.53846153846155 L 89.65517241379311,101.53846153846155 L 93.79310344827587,101.53846153846155 L 97.93103448275862,101.53846153846155 L 102.06896551724138,101.53846153846155 L 106.20689655172414,101.53846153846155 L 110.3448275862069,101.53846153846155 L 114.48275862068965,101.53846153846155 L 118.62068965517241,101.53846153846155 L 122.75862068965517,101.53846153846155 L 126.89655172413794,101.53846153846155 L 131.0344827586207,101.53846153846155 L 135.17241379310346,101.53846153846155 L 139.31034482758622,101.53846153846155 L 143.44827586206895,101.53846153846155 L 147.58620689655174,101.53846153846155 L 151.72413793103448,40.0 L 155.86206896551724,40.0 L 160.0,40.0 L 164.13793103448276,40.0 L 168.27586206896552,40.0 L 172.41379310344828,40.0 L 176.55172413793102,40.0 L 180.6896551724138,40.0 L 184.82758620689654,40.0 L 188.9655172413793,40.0 L 193.10344827586206,40.0 L 197.24137931034483,40.0 L 201.3793103448276,40.0 L 205.51724137931035,40.0 L 209.65517241379308,40.0 L 213.79310344827587,40.0 L 217.93103448275863,40.0 L 222.0689655172414,40.0 L 226.20689655172416,40.0 L 230.34482758620692,40.0 L 234.48275862068965,40.0 L 238.6206896551724,40.0 L 242.75862068965517,40.0 L 246.8965517241379,40.0 L 251.03448275862067,40.0 L 255.17241379310346,40.0 L 259.3103448275862,40.0 L 263.44827586206895,40.0 L 267.58620689655174,40.0 L 271.7241379310345,40.0 L 275.8620689655172,40.0 L 280.0,40.0 L 284.13793103448273,40.0 L 288.2758620689655,40.0 L 292.41379310344826,40.0 L 296.55172413793105,40.0 L 300.6896551724138,40.0 L 304.82758620689657,40.0 L 308.9655172413793,40.0 L 313.10344827586204,40.0 L 317.2413793103448,40.0 L 321.3793103448276,40.0 L 325.51724137931035,40.0 L 329.6551724137931,40.0 L 333.7931034482759,40.0 L 337.9310344827586,40.0 L 342.0689655172414,40.0 L 346.2068965517241,40.0 L 350.34482758620686,40.0 L 354.48275862068965,40.0 L 358.62068965517244,40.0 L 362.7586206896552,40.0 L 366.8965517241379,40.0 L 371.0344827586207,40.0 L 375.17241379310343,40.0 L 379.31034482758616,40.0 L 383.44827586206895,40.0 L 387.58620689655174,40.0 L 391.7241379310345,40.0 L 395.86206896551727,40.0 L 400.0,40.0 L 404.1379310344828,40.0 L 408.2758620689655,40.0 L 412.4137931034483,40.0 L 416.551724137931,40.0 L 420.68965517241384,40.0 L 424.8275862068965,40.0 L 428.9655172413793,40.0 L 433.1034482758621,40.0 L 437.2413793103448,40.0 L 441.3793103448276,40.0 L 445.51724137931035,40.0 L 449.65517241379314,40.0 L 453.7931034482758,40.0 L 457.9310344827586,40.0 L 462.06896551724134,40.0 L 466.2068965517241,40.0 L 470.3448275862069,40.0 L 474.48275862068965,40.0 L 478.62068965517244,40.0 L 482.7586206896552,40.0 L 486.89655172413796,40.0 L 491.03448275862064,40.0 L 495.17241379310343,40.0 L 499.3103448275862,40.0 L 503.44827586206895,40.0 L 507.58620689655174,40.0 L 511.7241379310345,40.0 L 515.8620689655172,40.0 L 520.0,40.0 L 524.1379310344828,40.0 L 528.2758620689655,40.0 L 532.4137931034483,40.0 L 536.551724137931,40.0 L 540.6896551724137,40.0 L 544.8275862068965,40.0 L 548.9655172413793,40.0 L 553.1034482758621,40.0 L 557.2413793103448,40.0 L 561.3793103448276,40.0 L 565.5172413793103,40.0 L 569.6551724137931,40.0 L 573.7931034482759,40.0 L 577.9310344827586,40.0 L 582.0689655172414,40.0 L 586.2068965517241,40.0 L 590.3448275862069,40.0 L 594.4827586206897,40.0 L 598.6206896551724,40.0 L 602.7586206896552,40.0 L 606.8965517241379,40.0 L 611.0344827586207,40.0 L 615.1724137931034,40.0 L 619.3103448275862,40.0 L 623.448275862069,40.0 L 627.5862068965517,40.0 L 631.7241379310345,40.0 L 635.8620689655172,40.0 L 640.0,40.0 L 644.1379310344828,40.0 L 648.2758620689656,40.0 L 652.4137931034483,40.0 L 656.551724137931,40.0 L 660.6896551724137,40.0 L 664.8275862068965,40.0 L 668.9655172413793,40.0 L 673.1034482758621,40.0 L 677.2413793103449,40.0 L 681.3793103448276,40.0 L 685.5172413793103,40.0 L 689.655172413793,40.0 L 693.7931034482758,40.0 L 697.9310344827586,40.0 L 702.0689655172414,40.0 L 706.2068965517242,40.0 L 710.3448275862069,40.0 L 714.4827586206897,40.0 L 718.6206896551723,40.0 L 722.7586206896552,40.0 L 726.8965517241379,40.0 L 731.0344827586207,40.0 L 735.1724137931035,40.0 L 739.3103448275862,40.0 L 743.448275862069,40.0 L 747.5862068965517,40.0 L 751.7241379310345,40.0 L 755.8620689655172,40.0 L 760.0,40.0" class="line"/>
  <circle cx="40.0" cy="101.53846153846155" class="point"/>
  <text x="40.0" y="375" class="label" text-anchor="middle">2025-11-11</text>
  <text x="40.0" y="96.53846153846155" class="label" text-anchor="middle">42</text>
  <circle cx="44.13793103448276" cy="101.53846153846155" class="point"/>
  <text x="44.13793103448276" y="375" class="label" text-anchor="middle">2025-11-12</text>
  <text x="44.13793103448276" y="96.53846153846155" class="label" text-anchor="middle">42</text>
  <circle cx="48.275862068965516" cy="101.53846153846155" class="point"/>
  <text x="48.275862068965516" y="375" class="label" text-anchor="middle">2025-11-13</text>
  <text x="48.275862068965516" y="96.53846153846155" class="label" text-anchor="middle">42</text>
  <circle cx="52.41379310344828" cy="101.53846153846155" class="point"/>
  <text x="52.41379310344828" y="375" class="label" text-anchor="middle">2025-11-14</text>
  <text x="52.41379310344828" y="96.53846153846155" class="label" text-anchor="middle">42</text>
  <circle cx="56.55172413793103" cy="101.53846153846155" class="point"/>
  <text x="56.55172413793103" y="375" class="label" text-anchor="middle">2025-11-15</text>
  <text x="56.55172413793103" y="96.53846153846155" class="label" text-anchor="middle">42</text>
  <circle cx="60.689655172413794" cy="101.53846153846155" class="point"/>
  <text x="60.689655172413794" y="375" class="label" text-anchor="middle">2025-11-16</text>
  <text x="60.689655172413794" y="96.53846153846155" class="label" text-anchor="middle">42</text>
  <circle cx="64.82758620689656" cy="101.53846153846155" class="point"/>
  <text x="64.82758620689656" y="375" class="label" text-anchor="middle">2025-11-17</text>
  <text x="64.82758620689656" y="96.53846153846155" class="label" text-anchor="middle">42</text>
  <circle cx="68.9655172413793" cy="101.53846153846155" class="point"/>
  <text x="68.9655172413793" y="375" class="label" text-anchor="middle">2025-11-18</text>
  <text x="68.9655172413793" y="96.53846153846155" class="label" text-anchor="middle">42</text>
  <circle cx="73.10344827586206" cy="101.53846153846155" class="point"/>
  <text x="73.10344827586206" y="375" class="label" text-anchor="middle">2025-11-19</text>
  <text x="73.10344827586206" y="96.53846153846155" class="label" text-anchor="middle">42</text>
  <circle cx="77.24137931034483" cy="101.53846153846155" class="point"/>
  <text x="77.24137931034483" y="375" class="label" text-anchor="middle">2025-11-20</text>
  <text x="77.24137931034483" y="96.53846153846155" class="label" text-anchor="middle">42</text>
  <circle cx="81.37931034482759" cy="101.53846153846155" class="point"/>
  <text x="81.37931034482759" y="375" class="label" text-anchor="middle">2025-11-21</text>
  <text x="81.37931034482759" y="96.53846153846155" class="label" text-anchor="middle">42</text>
  <circle cx="85.51724137931035" cy="101.53846153846155" class="point"/>
  <text x="85.51724137931035" y="375" class="label" text-anchor="middle">2025-11-22</text>
  <text x="85.51724137931035" y="96.53846153846155" class="label" text-anchor="middle">42</text>
  <circle cx="89.65517241379311" cy="101.53846153846155" class="point"/>
  <text x="89.65517241379311" y="375" class="label" text-anchor="middle">2025-11-23</text>
  <text x="89.65517241379311" y="96.53846153846155" class="label" text-anchor="middle">42</text>
  <circle cx="93.79310344827587" cy="101.53846153846155" class="point"/>
  <text x="93.79310344827587" y="375" class="label" text-anchor="middle">2025-11-24</text>
  <text x="93.79310344827587" y="96.53846153846155" class="label" text-anchor="middle">42</text>
  <circle cx="97.93103448275862" cy="101.53846153846155" class="point"/>
  <text x="97.93103448275862" y="375" class="label" text-anchor="middle">2025-11-25</text>
  <text x="97.93103448275862" y="96.53846153846155" class="label" text-anchor="middle">42</text>
  <circle cx="102.06896551724138" cy="101.53846153846155" class="point"/>
  <text x="102.06896551724138" y="375" class="label" text-anchor="middle">2025-11-26</text>
  <text x="102.06896551724138" y="96.53846153846155" class="label" text-anchor="middle">42</text>
  <circle cx="106.20689655172414" cy="101.53846153846155" class="point"/>
  <text x="106.20689655172414" y="375" class="label" text-anchor="middle">2025-11-27</text>
  <text x="106.20689655172414" y="96.53846153846155" class="label" text-anchor="middle">42</text>
  <circle cx="110.3448275862069" cy="101.53846153846155" class="point"/>
  <text x="110.3448275862069" y="375" class="label" text-anchor="middle">2025-11-28</text>
  <text x="110.3448275862069" y="96.53846153846155" class="label" text-anchor="middle">42</text>
  <circle cx="114.48275862068965" cy="101.53846153846155" class="point"/>
  <text x="114.48275862068965" y="375" class="label" text-anchor="middle">2025-11-29</text>
  <text x="114.48275862068965" y="96.53846153846155" class="label" text-anchor="middle">42</text>
  <circle cx="118.62068965517241" cy="101.53846153846155" class="point"/>
  <text x="118.62068965517241" y="375" class="label" text-anchor="middle">2025-11-30</text>
  <text x="118.62068965517241" y="96.53846153846155" class="label" text-anchor="middle">42</text>
  <circle cx="122.75862068965517" cy="101.53846153846155" class="point"/>
  <text x="122.75862068965517" y="375" class="label" text-anchor="middle">2025-12-01</text>
  <text x="122.75862068965517" y="96.53846153846155" class="label" text-anchor="middle">42</text>
  <circle cx="126.89655172413794" cy="101.53846153846155" class="point"/>
  <text x="126.89655172413794" y="375" class="label" text-anchor="middle">2025-12-02</text>
  <text x="126.89655172413794" y="96.53846153846155" class="label" text-anchor="middle">42</text>
  <circle cx="131.0344827586207" cy="101.53846153846155" class="point"/>
  <text x="131.0344827586207" y="375" class="label" text-anchor="middle">2025-12-03</text>
  <text x="131.0344827586207" y="96.53846153846155" class="label" text-anchor="middle">42</text>
  <circle cx="135.17241379310346" cy="101.53846153846155" class="point"/>
  <text x="135.17241379310346" y="375" class="label" text-anchor="middle">2025-12-04</text>
  <text x="135.17241379310346" y="96.53846153846155" class="label" text-anchor="middle">42</text>
  <circle cx="139.31034482758622" cy="101.53846153846155" class="point"/>
  <text x="139.31034482758622" y="375" class="label" text-anchor="middle">2025-12-05</text>
  <text x="139.31034482758622" y="96.53846153846155" class="label" text-anchor="middle">42</text>
  <circle cx="143.44827586206895" cy="101.53846153846155" class="point"/>
  <text x="143.44827586206895" y="375" class="label" text-anchor="middle">2025-12-06</text>
  <text x="143.44827586206895" y="96.53846153846155" class="label" text-anchor="middle">42</text>
  <circle cx="147.58620689655174" cy="101.53846153846155" class="point"/>
  <text x="147.58620689655174" y="375" class="label" text-anchor="middle">2025-12-07</text>
  <text x="147.58620689655174" y="96.53846153846155" class="label" text-anchor="middle">42</text>
  <circle cx="151.72413793103448" cy="40.0" class="point"/>
  <text x="151.72413793103448" y="375" class="label" text-anchor="middle">2025-12-08</text>
  <text x="151.72413793103448" y="35.0" class="label" text-anchor="middle">52</text>
  <circle cx="155.86206896551724" cy="40.0" class="point"/>
  <text x="155.86206896551724" y="375" class="label" text-anchor="middle">2025-12-09</text>
  <text x="155.86206896551724" y="35.0" class="label" text-anchor="middle">52</text>
  <circle cx="160.0" cy="40.0" class="point"/>
  <text x="160.0" y="375" class="label" text-anchor="middle">2025-12-10</text>
  <text x="160.0" y="35.0" class="label" text-anchor="middle">52</text>
  <circle cx="164.13793103448276" cy="40.0" class="point"/>
  <text x="164.13793103448276" y="375" class="label" text-anchor="middle">2025-12-11</text>
  <text x="164.13793103448276" y="35.0" class="label" text-anchor="middle">52</text>
  <circle cx="168.27586206896552" cy="40.0" class="point"/>
  <text x="168.27586206896552" y="375" class="label" text-anchor="middle">2025-12-12</text>
  <text x="168.27586206896552" y="35.0" class="label" text-anchor="middle">52</text>
  <circle cx="172.41379310344828" cy="40.0" class="point"/>
  <text x="172.41379310344828" y="375" class="label" text-anchor="middle">2025-12-13</text>
  <text x="172.41379310344828" y="35.0" class="label" text-anchor="middle">52</text>
  <circle cx="176.55172413793102" cy="40.0" class="point"/>
  <text x="176.55172413793102" y="375" class="label" text-anchor="middle">2025-12-14</text>
  <text x="176.55172413793102" y="35.0" class="label" text-anchor="middle">52</text>
  <circle cx="180.6896551724138" cy="40.0" class="point"/>
  <text x="180.6896551724138" y="375" class="label" text-anchor="middle">2025-12-15</text>
  <text x="180.6896551724138" y="35.0" class="label" text-anchor="middle">52</text>
  <circle cx="184.82758620689654" cy="40.0" class="point"/>
  <text x="184.82758620689654" y="375" class="label" text-anchor="middle">2025-12-16</text>
  <text x="184.82758620689654" y="35.0" class="label" text-anchor="middle">52</text>
  <circle cx="188.9655172413793" cy="40.0" class="point"/>
  <text x="188.9655172413793" y="375" class="label" text-anchor="middle">2025-12-17</text>
  <text x="188.9655172413793" y="35.0" class="label" text-anchor="middle">52</text>
  <circle cx="193.10344827586206" cy="40.0" class="point"/>
  <text x="193.10344827586206" y="375" class="label" text-anchor="middle">2025-12-18</text>
  <text x="193.10344827586206" y="35.0" class="label" text-anchor="middle">52</text>
  <circle cx="197.24137931034483" cy="40.0" class="point"/>
  <text x="197.24137931034483" y="375" class="label" text-anchor="middle">2025-12-19</text>
  <text x="197.24137931034483" y="35.0" class="label" text-anchor="middle">52</text>
  <circle cx="201.3793103448276" cy="40.0" class="point"/>
  <text x="201.3793103448276" y="375" class="label" text-anchor="middle">2025-12-20</text>
  <text x="201.3793103448276" y="35.0" class="label" text-anchor="middle">52</text>
  <circle cx="205.51724137931035" cy="40.0" class="point"/>
  <text x="205.51724137931035" y="375" class="label" text-anchor="middle">2025-12-21</text>
  <text x="205.51724137931035" y="35.0" class="label" text-anchor="middle">52</text>
  <circle cx="209.65517241379308" cy="40.0" class="point"/>
  <text x="209.65517241379308" y="375" class="label" text-anchor="middle">2025-12-22</text>
  <text x="209.65517241379308" y="35.0" class="label" text-anchor="middle">52</text>
  <circle cx="213.79310344827587" cy="40.0" class="point"/>
  <text x="213.79310344827587" y="375" class="label" text-anchor="middle">2025-12-23</text>
  <text x="213.79310344827587" y="35.0" class="label" text-anchor="middle">52</text>
  <circle cx="217.93103448275863" cy="40.0" class="point"/>
  <text x="217.93103448275863" y="375" class="label" text-anchor="middle">2025-12-24</text>
  <text x="217.93103448275863" y="35.0" class="label" text-anchor="middle">52</text>
  <circle cx="222.0689655172414" cy="40.0" class="point"/>
  <text x="222.0689655172414" y="375" class="label" text-anchor="middle">2025-12-25</text>
  <text x="222.0689655172414" y="35.0" class="label" text-anchor="middle">52</text>
  <circle cx="226.20689655172416" cy="40.0" class="point"/>
  <text x="226.20689655172416" y="375" class="label" text-anchor="middle">2025-12-26</text>
  <text x="226.20689655172416" y="35.0" class="label" text-anchor="middle">52</text>
  <circle cx="230.34482758620692" cy="40.0" class="point"/>
  <text x="230.34482758620692" y="375" class="label" text-anchor="middle">2025-12-27</text>
  <text x="230.34482758620692" y="35.0" class="label" text-anchor="middle">52</text>
  <circle cx="234.48275862068965" cy="40.0" class="point"/>
  <text x="234.48275862068965" y="375" class="label" text-anchor="middle">2025-12-28</text>
  <text x="234.48275862068965" y="35.0" class="label" text-anchor="middle">52</text>
  <circle cx="238.6206896551724" cy="40.0" class="point"/>
  <text x="238.6206896551724" y="375" class="label" text-anchor="middle">2025-12-29</text>
  <text x="238.6206896551724" y="35.0" class="label" text-anchor="middle">52</text>
  <circle cx="242.75862068965517" cy="40.0" class="point"/>
  <text x="242.75862068965517" y="375" class="label" text-anchor="middle">2025-12-30</text>
  <text x="242.75862068965517" y="35.0" class="label" text-anchor="middle">52</text>
  <circle cx="246.8965517241379" cy="40.0" class="point"/>
  <text x="246.8965517241379" y="375" class="label" text-anchor="middle">2025-12-31</text>
  <text x="246.8965517241379" y="35.0" class="label" text-anchor="middle">52</text>
  <circle cx="251.03448275862067" cy="40.0" class="point"/>
  <text x="251.03448275862067" y="375" class="label" text-anchor="middle">2026-01-01</text>
  <text x="251.03448275862067" y="35.0" class="label" text-anchor="middle">52</text>
  <circle cx="255.17241379310346" cy="40.0" class="point"/>
  <text x="255.17241379310346" y="375" class="label" text-anchor="middle">2026-01-02</text>
  <text x="255.17241379310346" y="35.0" class="label" text-anchor="middle">52</text>
  <circle cx="259.3103448275862" cy="40.0" class="point"/>
  <text x="259.3103448275862" y="375" class="label" text-anchor="middle">2026-01-03</text>
  <text x="259.3103448275862" y="35.0" class="label" text-anchor="middle">52</text>
  <circle cx="263.44827586206895" cy="40.0" class="point"/>
  <text x="263.44827586206895" y="375" class="label" text-anchor="middle">2026-01-04</text>
  <text x="263.44827586206895" y="35.0" class="label" text-anchor="middle">52</text>
  <circle cx="267.58620689655174" cy="40.0" class="point"/>
  <text x="267.58620689655174" y="375" class="label" text-anchor="middle">2026-01-05</text>
  <text x="267.58620689655174" y="35.0" class="label" text-anchor="middle">52</text>
  <circle cx="271.7241379310345" cy="40.0" class="point"/>
  <text x="271.7241379310345" y="375" class="label" text-anchor="middle">2026-01-06</text>
  <text x="271.7241379310345" y="35.0" class="label" text-anchor="middle">52</text>
  <circle cx="275.8620689655172" cy="40.0" class="point"/>
  <text x="275.8620689655172" y="375" class="label" text-anchor="middle">2026-01-07</text>
  <text x="275.8620689655172" y="35.0" class="label" text-anchor="middle">52</text>
  <circle cx="280.0" cy="40.0" class="point"/>
  <text x="280.0" y="375" class="label" text-anchor="middle">2026-01-08</text>
  <text x="280.0" y="35.0" class="label" text-anchor="middle">52</text>
  <circle cx="284.13793103448273" cy="40.0" class="point"/>
  <text x="284.13793103448273" y="375" class="label" text-anchor="middle">2026-01-09</text>
  <text x="284.13793103448273" y="35.0" class="label" text-anchor="middle">52</text>
  <circle cx="288.2758620689655" cy="40.0" class="point"/>
  <text x="288.2758620689655" y="375" class="label" text-anchor="middle">2026-01-10</text>
  <text x="288.2758620689655" y="35.0" class="label" text-anchor="middle">52</text>
  <circle cx="292.41379310344826" cy="40.0" class="point"/>
  <text x="292.41379310344826" y="375" class="label" text-anchor="middle">2026-01-11</text>
  <text x="292.41379310344826" y="35.0" class="label" text-anchor="middle">52</text>
  <circle cx="296.55172413793105" cy="40.0" class="point"/>
  <text x="296.55172413793105" y="375" class="label" text-anchor="middle">2026-01-12</text>
  <text x="296.55172413793105" y="35.0" class="label" text-anchor="middle">52</text>
  <circle cx="300.6896551724138" cy="40.0" class="point"/>
  <text x="300.6896551724138" y="375" class="label" text-anchor="middle">2026-01-13</text>
  <text x="300.6896551724138" y="35.0" class="label" text-anchor="middle">52</text>
  <circle cx="304.82758620689657" cy="40.0" class="point"/>
  <text x="304.82758620689657" y="375" class="label" text-anchor="middle">2026-01-14</text>
  <text x="304.82758620689657" y="35.0" class="label" text-anchor="middle">52</text>
  <circle cx="308.9655172413793" cy="40.0" class="point"/>
  <text x="308.9655172413793" y="375" class="label" text-anchor="middle">2026-01-15</text>
  <text x="308.9655172413793" y="35.0" class="label" text-anchor="middle">52</text>
  <circle cx="313.10344827586204" cy="40.0" class="point"/>
  <text x="313.10344827586204" y="375" class="label" text-anchor="middle">2026-01-16</text>
  <text x="313.10344827586204" y="35.0" class="label" text-anchor="middle">52</text>
  <circle cx="317.2413793103448" cy="40.0" class="point"/>
  <text x="317.2413793103448" y="375" class="label" text-anchor="middle">2026-01-17</text>
  <text x="317.2413793103448" y="35.0" class="label" text-anchor="middle">52</text>
  <circle cx="321.3793103448276" cy="40.0" class="point"/>
  <text x="321.3793103448276" y="375" class="label" text-anchor="middle">2026-01-18</text>
  <text x="321.3793103448276" y="35.0" class="label" text-anchor="middle">52</text>
  <circle cx="325.51724137931035" cy="40.0" class="point"/>
  <text x="325.51724137931035" y="375" class="label" text-anchor="middle">2026-01-19</text>
  <text x="325.51724137931035" y="35.0" class="label" text-anchor="middle">52</text>
  <circle cx="329.6551724137931" cy="40.0" class="point"/>
  <text x="329.6551724137931" y="375" class="label" text-anchor="middle">2026-01-20</text>
  <text x="329.6551724137931" y="35.0" class="label" text-anchor="middle">52</text>
  <circle cx="333.7931034482759" cy="40.0" class="point"/>
  <text x="333.7931034482759" y="375" class="label" text-anchor="middle">2026-01-21</text>
  <text x="333.7931034482759" y="35.0" class="label" text-anchor="middle">52</text>
  <circle cx="337.9310344827586" cy="40.0" class="point"/>
  <text x="337.9310344827586" y="375" class="label" text-anchor="middle">2026-01-22</text>
  <text x="337.9310344827586" y="35.0" class="label" text-anchor="middle">52</text>
  <circle cx="342.0689655172414" cy="40.0" class="point"/>
  <text x="342.0689655172414" y="375" class="label" text-anchor="middle">2026-01-23</text>
  <text x="342.0689655172414" y="35.0" class="label" text-anchor="middle">52</text>
  <circle cx="346.2068965517241" cy="40.0" class="point"/>
  <text x="346.2068965517241" y="375" class="label" text-anchor="middle">2026-01-24</text>
  <text x="346.2068965517241" y="35.0" class="label" text-anchor="middle">52</text>
  <circle cx="350.34482758620686" cy="40.0" class="point"/>
  <text x="350.34482758620686" y="375" class="label" text-anchor="middle">2026-01-25</text>
  <text x="350.34482758620686" y="35.0" class="label" text-anchor="middle">52</text>
  <circle cx="354.48275862068965" cy="40.0" class="point"/>
  <text x="354.48275862068965" y="375" class="label" text-anchor="middle">2026-01-26</text>
  <text x="354.48275862068965" y="35.0" class="label" text-anchor="middle">52</text>
  <circle cx="358.62068965517244" cy="40.0" class="point"/>
  <text x="358.62068965517244" y="375" class="label" text-anchor="middle">2026-01-27</text>
  <text x="358.62068965517244" y="35.0" class="label" text-anchor="middle">52</text>
  <circle cx="362.7586206896552" cy="40.0" class="point"/>
  <text x="362.7586206896552" y="375" class="label" text-anchor="middle">2026-01-28</text>
  <text x="362.7586206896552" y="35.0" class="label" text-anchor="middle">52</text>
  <circle cx="366.8965517241379" cy="40.0" class="point"/>
  <text x="366.8965517241379" y="375" class="label" text-anchor="middle">2026-01-29</text>
  <text x="366.8965517241379" y="35.0" class="label" text-anchor="middle">52</text>
  <circle cx="371.0344827586207" cy="40.0" class="point"/>
  <text x="371.0344827586207" y="375" class="label" text-anchor="middle">2026-01-30</text>
  <text x="371.0344827586207" y="35.0" class="label" text-anchor="middle">52</text>
  <circle cx="375.17241379310343" cy="40.0" class="point"/>
  <text x="375.17241379310343" y="375" class="label" text-anchor="middle">2026-01-31</text>
  <text x="375.17241379310343" y="35.0" class="label" text-anchor="middle">52</text>
  <circle cx="379.31034482758616" cy="40.0" class="point"/>
  <text x="379.31034482758616" y="375" class="label" text-anchor="middle">2026-02-01</text>
  <text x="379.31034482758616" y="35.0" class="label" text-anchor="middle">52</text>
  <circle cx="383.44827586206895" cy="40.0" class="point"/>
  <text x="383.44827586206895" y="375" class="label" text-anchor="middle">2026-02-02</text>
  <text x="383.44827586206895" y="35.0" class="label" text-anchor="middle">52</text>
  <circle cx="387.58620689655174" cy="40.0" class="point"/>
  <text x="387.58620689655174" y="375" class="label" text-anchor="middle">2026-02-03</text>
  <text x="387.58620689655174" y="35.0" class="label" text-anchor="middle">52</text>
  <circle cx="391.7241379310345" cy="40.0" class="point"/>
  <text x="391.7241379310345" y="375" class="label" text-anchor="middle">2026-02-04</text>
  <text x="391.7241379310345" y="35.0" class="label" text-anchor="middle">52</text>
  <circle cx="395.86206896551727" cy="40.0" class="point"/>
  <text x="395.86206896551727" y="375" class="label" text-anchor="middle">2026-02-05</text>
  <text x="395.86206896551727" y="35.0" class="label" text-anchor="middle">52</text>
  <circle cx="400.0" cy="40.0" class="point"/>
  <text x="400.0" y="375" class="label" text-anchor="middle">2026-02-06</text>
  <text x="400.0" y="35.0" class="label" text-anchor="middle">52</text>
  <circle cx="404.1379310344828" cy="40.0" class="point"/>
  <text x="404.1379310344828" y="375" class="label" text-anchor="middle">2026-02-07</text>
  <text x="404.1379310344828" y="35.0" class="label" text-anchor="middle">52</text>
  <circle cx="408.2758620689655" cy="40.0" class="point"/>
  <text x="408.2758620689655" y="375" class="label" text-anchor="middle">2026-02-08</text>
  <text x="408.2758620689655" y="35.0" class="label" text-anchor="middle">52</text>
  <circle cx="412.4137931034483" cy="40.0" class="point"/>
  <text x="412.4137931034483" y="375" class="label" text-anchor="middle">2026-02-09</text>
  <text x="412.4137931034483" y="35.0" class="label" text-anchor="middle">52</text>
  <circle cx="416.551724137931" cy="40.0" class="point"/>
  <text x="416.551724137931" y="375" class="label" text-anchor="middle">2026-02-10</text>
  <text x="416.551724137931" y="35.0" class="label" text-anchor="middle">52</text>
  <circle cx="420.68965517241384" cy="40.0" class="point"/>
  <text x="420.68965517241384" y="375" class="label" text-anchor="middle">2026-02-11</text>
  <text x="420.68965517241384" y="35.0" class="label" text-anchor="middle">52</text>
  <circle cx="424.8275862068965" cy="40.0" class="point"/>
  <text x="424.8275862068965" y="375" class="label" text-anchor="middle">2026-02-12</text>
  <text x="424.8275862068965" y="35.0" class="label" text-anchor="middle">52</text>
  <circle cx="428.9655172413793" cy="40.0" class="point"/>
  <text x="428.9655172413793" y="375" class="label" text-anchor="middle">2026-02-13</text>
  <text x="428.9655172413793" y="35.0" class="label" text-anchor="middle">52</text>
  <circle cx="433.1034482758621" cy="40.0" class="point"/>
  <text x="433.1034482758621" y="375" class="label" text-anchor="middle">2026-02-14</text>
  <text x="433.1034482758621" y="35.0" class="label" text-anchor="middle">52</text>
  <circle cx="437.2413793103448" cy="40.0" class="point"/>
  <text x="437.2413793103448" y="375" class="label" text-anchor="middle">2026-02-15</text>
  <text x="437.2413793103448" y="35.0" class="label" text-anchor="middle">52</text>
  <circle cx="441.3793103448276" cy="40.0" class="point"/>
  <text x="441.3793103448276" y="375" class="label" text-anchor="middle">2026-02-16</text>
  <text x="441.3793103448276" y="35.0" class="label" text-anchor="middle">52</text>
  <circle cx="445.51724137931035" cy="40.0" class="point"/>
  <text x="445.51724137931035" y="375" class="label" text-anchor="middle">2026-02-17</text>
  <text x="445.51724137931035" y="35.0" class="label" text-anchor="middle">52</text>
  <circle cx="449.65517241379314" cy="40.0" class="point"/>
  <text x="449.65517241379314" y="375" class="label" text-anchor="middle">2026-02-18</text>
  <text x="449.65517241379314" y="35.0" class="label" text-anchor="middle">52</text>
  <circle cx="453.7931034482758" cy="40.0" class="point"/>
  <text x="453.7931034482758" y="375" class="label" text-anchor="middle">2026-02-19</text>
  <text x="453.7931034482758" y="35.0" class="label" text-anchor="middle">52</text>
  <circle cx="457.9310344827586" cy="40.0" class="point"/>
  <text x="457.9310344827586" y="375" class="label" text-anchor="middle">2026-02-20</text>
  <text x="457.9310344827586" y="35.0" class="label" text-anchor="middle">52</text>
  <circle cx="462.06896551724134" cy="40.0" class="point"/>
  <text x="462.06896551724134" y="375" class="label" text-anchor="middle">2026-02-21</text>
  <text x="462.06896551724134" y="35.0" class="label" text-anchor="middle">52</text>
  <circle cx="466.2068965517241" cy="40.0" class="point"/>
  <text x="466.2068965517241" y="375" class="label" text-anchor="middle">2026-02-22</text>
  <text x="466.2068965517241" y="35.0" class="label" text-anchor="middle">52</text>
  <circle cx="470.3448275862069" cy="40.0" class="point"/>
  <text x="470.3448275862069" y="375" class="label" text-anchor="middle">2026-02-23</text>
  <text x="470.3448275862069" y="35.0" class="label" text-anchor="middle">52</text>
  <circle cx="474.48275862068965" cy="40.0" class="point"/>
  <text x="474.48275862068965" y="375" class="label" text-anchor="middle">2026-02-24</text>
  <text x="474.48275862068965" y="35.0" class="label" text-anchor="middle">52</text>
  <circle cx="478.62068965517244" cy="40.0" class="point"/>
  <text x="478.62068965517244" y="375" class="label" text-anchor="middle">2026-02-25</text>
  <text x="478.62068965517244" y="35.0" class="label" text-anchor="middle">52</text>
  <circle cx="482.7586206896552" cy="40.0" class="point"/>
  <text x="482.7586206896552" y="375" class="label" text-anchor="middle">2026-02-26</text>
  <text x="482.7586206896552" y="35.0" class="label" text-anchor="middle">52</text>
  <circle cx="486.89655172413796" cy="40.0" class="point"/>
  <text x="486.89655172413796" y="375" class="label" text-anchor="middle">2026-02-27</text>
  <text x="486.89655172413796" y="35.0" class="label" text-anchor="middle">52</text>
  <circle cx="491.03448275862064" cy="40.0" class="point"/>
  <text x="491.03448275862064" y="375" class="label" text-anchor="middle">2026-02-28</text>
  <text x="491.03448275862064" y="35.0" class="label" text-anchor="middle">52</text>
  <circle cx="495.17241379310343" cy="40.0" class="point"/>
  <text x="495.17241379310343" y="375" class="label" text-anchor="middle">2026-03-01</text>
  <text x="495.17241379310343" y="35.0" class="label" text-anchor="middle">52</text>
  <circle cx="499.3103448275862" cy="40.0" class="point"/>
  <text x="499.3103448275862" y="375" class="label" text-anchor="middle">2026-03-02</text>
  <text x="499.3103448275862" y="35.0" class="label" text-anchor="middle">52</text>
  <circle cx="503.44827586206895" cy="40.0" class="point"/>
  <text x="503.44827586206895" y="375" class="label" text-anchor="middle">2026-03-03</text>
  <text x="503.44827586206895" y="35.0" class="label" text-anchor="middle">52</text>
  <circle cx="507.58620689655174" cy="40.0" class="point"/>
  <text x="507.58620689655174" y="375" class="label" text-anchor="middle">2026-03-04</text>
  <text x="507.58620689655174" y="35.0" class="label" text-anchor="middle">52</text>
  <circle cx="511.7241379310345" cy="40.0" class="point"/>
  <text x="511.7241379310345" y="375" class="label" text-anchor="middle">2026-03-05</text>
  <text x="511.7241379310345" y="35.0" class="label" text-anchor="middle">52</text>
  <circle cx="515.8620689655172" cy="40.0" class="point"/>
  <text x="515.8620689655172" y="375" class="label" text-anchor="middle">2026-03-06</text>
  <text x="515.8620689655172" y="35.0" class="label" text-anchor="middle">52</text>
  <circle cx="520.0" cy="40.0" class="point"/>
  <text x="520.0" y="375" class="label" text-anchor="middle">2026-03-07</text>
  <text x="520.0" y="35.0" class="label" text-anchor="middle">52</text>
  <circle cx="524.1379310344828" cy="40.0" class="point"/>
  <text x="524.1379310344828" y="375" class="label" text-anchor="middle">2026-03-08</text>
  <text x="524.1379310344828" y="35.0" class="label" text-anchor="middle">52</text>
  <circle cx="528.2758620689655" cy="40.0" class="point"/>
  <text x="528.2758620689655" y="375" class="label" text-anchor="middle">2026-03-09</text>
  <text x="528.2758620689655" y="35.0" class="label" text-anchor="middle">52</text>
  <circle cx="532.4137931034483" cy="40.0" class="point"/>
  <text x="532.4137931034483" y="375" class="label" text-anchor="middle">2026-03-10</text>
  <text x="532.4137931034483" y="35.0" class="label" text-anchor="middle">52</text>
  <circle cx="536.551724137931" cy="40.0" class="point"/>
  <text x="536.551724137931" y="375" class="label" text-anchor="middle">2026-03-11</text>
  <text x="536.551724137931" y="35.0" class="label" text-anchor="middle">52</text>
  <circle cx="540.6896551724137" cy="40.0" class="point"/>
  <text x="540.6896551724137" y="375" class="label" text-anchor="middle">2026-03-12</text>
  <text x="540.6896551724137" y="35.0" class="label" text-anchor="middle">52</text>
  <circle cx="544.8275862068965" cy="40.0" class="point"/>
  <text x="544.8275862068965" y="375" class="label" text-anchor="middle">2026-03-13</text>
  <text x="544.8275862068965" y="35.0" class="label" text-anchor="middle">52</text>
  <circle cx="548.9655172413793" cy="40.0" class="point"/>
  <text x="548.9655172413793" y="375" class="label" text-anchor="middle">2026-03-14</text>
  <text x="548.9655172413793" y="35.0" class="label" text-anchor="middle">52</text>
  <circle cx="553.1034482758621" cy="40.0" class="point"/>
  <text x="553.1034482758621" y="375" class="label" text-anchor="middle">2026-03-15</text>
  <text x="553.1034482758621" y="35.0" class="label" text-anchor="middle">52</text>
  <circle cx="557.2413793103448" cy="40.0" class="point"/>
  <text x="557.2413793103448" y="375" class="label" text-anchor="middle">2026-03-16</text>
  <text x="557.2413793103448" y="35.0" class="label" text-anchor="middle">52</text>
  <circle cx="561.3793103448276" cy="40.0" class="point"/>
  <text x="561.3793103448276" y="375" class="label" text-anchor="middle">2026-03-17</text>
  <text x="561.3793103448276" y="35.0" class="label" text-anchor="middle">52</text>
  <circle cx="565.5172413793103" cy="40.0" class="point"/>
  <text x="565.5172413793103" y="375" class="label" text-anchor="middle">2026-03-18</text>
  <text x="565.5172413793103" y="35.0" class="label" text-anchor="middle">52</text>
  <circle cx="569.6551724137931" cy="40.0" class="point"/>
  <text x="569.6551724137931" y="375" class="label" text-anchor="middle">2026-03-19</text>
  <text x="569.6551724137931" y="35.0" class="label" text-anchor="middle">52</text>
  <circle cx="573.7931034482759" cy="40.0" class="point"/>
  <text x="573.7931034482759" y="375" class="label" text-anchor="middle">2026-03-20</text>
  <text x="573.7931034482759" y="35.0" class="label" text-anchor="middle">52</text>
  <circle cx="577.9310344827586" cy="40.0" class="point"/>
  <text x="577.9310344827586" y="375" class="label" text-anchor="middle">2026-03-21</text>
  <text x="577.9310344827586" y="35.0" class="label" text-anchor="middle">52</text>
  <circle cx="582.0689655172414" cy="40.0" class="point"/>
  <text x="582.0689655172414" y="375" class="label" text-anchor="middle">2026-03-22</text>
  <text x="582.0689655172414" y="35.0" class="label" text-anchor="middle">52</text>
  <circle cx="586.2068965517241" cy="40.0" class="point"/>
  <text x="586.2068965517241" y="375" class="label" text-anchor="middle">2026-03-23</text>
  <text x="586.2068965517241" y="35.0" class="label" text-anchor="middle">52</text>
  <circle cx="590.3448275862069" cy="40.0" class="point"/>
  <text x="590.3448275862069" y="375" class="label" text-anchor="middle">2026-03-24</text>
  <text x="590.3448275862069" y="35.0" class="label" text-anchor="middle">52</text>
  <circle cx="594.4827586206897" cy="40.0" class="point"/>
  <text x="594.4827586206897" y="375" class="label" text-anchor="middle">2026-03-25</text>
  <text x="594.4827586206897" y="35.0" class="label" text-anchor="middle">52</text>
  <circle cx="598.6206896551724" cy="40.0" class="point"/>
  <text x="598.6206896551724" y="375" class="label" text-anchor="middle">2026-03-26</text>
  <text x="598.6206896551724" y="35.0" class="label" text-anchor="middle">52</text>
  <circle cx="602.7586206896552" cy="40.0" class="point"/>
  <text x="602.7586206896552" y="375" class="label" text-anchor="middle">2026-03-27</text>
  <text x="602.7586206896552" y="35.0" class="label" text-anchor="middle">52</text>
  <circle cx="606.8965517241379" cy="40.0" class="point"/>
  <text x="606.8965517241379" y="375" class="label" text-anchor="middle">2026-03-28</text>
  <text x="606.8965517241379" y="35.0" class="label" text-anchor="middle">52</text>
  <circle cx="611.0344827586207" cy="40.0" class="point"/>
  <text x="611.0344827586207" y="375" class="label" text-anchor="middle">2026-03-29</text>
  <text x="611.0344827586207" y="35.0" class="label" text-anchor="middle">52</text>
  <circle cx="615.1724137931034" cy="40.0" class="point"/>
  <text x="615.1724137931034" y="375" class="label" text-anchor="middle">2026-03-30</text>
  <text x="615.1724137931034" y="35.0" class="label" text-anchor="middle">52</text>
  <circle cx="619.3103448275862" cy="40.0" class="point"/>
  <text x="619.3103448275862" y="375" class="label" text-anchor="middle">2026-03-31</text>
  <text x="619.3103448275862" y="35.0" class="label" text-anchor="middle">52</text>
  <circle cx="623.448275862069" cy="40.0" class="point"/>
  <text x="623.448275862069" y="375" class="label" text-anchor="middle">2026-04-01</text>
  <text x="623.448275862069" y="35.0" class="label" text-anchor="middle">52</text>
  <circle cx="627.5862068965517" cy="40.0" class="point"/>
  <text x="627.5862068965517" y="375" class="label" text-anchor="middle">2026-04-02</text>
  <text x="627.5862068965517" y="35.0" class="label" text-anchor="middle">52</text>
  <circle cx="631.7241379310345" cy="40.0" class="point"/>
  <text x="631.7241379310345" y="375" class="label" text-anchor="middle">2026-04-03</text>
  <text x="631.7241379310345" y="35.0" class="label" text-anchor="middle">52</text>
  <circle cx="635.8620689655172" cy="40.0" class="point"/>
  <text x="635.8620689655172" y="375" class="label" text-anchor="middle">2026-04-04</text>
  <text x="635.8620689655172" y="35.0" class="label" text-anchor="middle">52</text>
  <circle cx="640.0" cy="40.0" class="point"/>
  <text x="640.0" y="375" class="label" text-anchor="middle">2026-04-05</text>
  <text x="640.0" y="35.0" class="label" text-anchor="middle">52</text>
  <circle cx="644.1379310344828" cy="40.0" class="point"/>
  <text x="644.1379310344828" y="375" class="label" text-anchor="middle">2026-04-06</text>
  <text x="644.1379310344828" y="35.0" class="label" text-anchor="middle">52</text>
  <circle cx="648.2758620689656" cy="40.0" class="point"/>
  <text x="648.2758620689656" y="375" class="label" text-anchor="middle">2026-04-07</text>
  <text x="648.2758620689656" y="35.0" class="label" text-anchor="middle">52</text>
  <circle cx="652.4137931034483" cy="40.0" class="point"/>
  <text x="652.4137931034483" y="375" class="label" text-anchor="middle">2026-04-08</text>
  <text x="652.4137931034483" y="35.0" class="label" text-anchor="middle">52</text>
  <circle cx="656.551724137931" cy="40.0" class="point"/>
  <text x="656.551724137931" y="375" class="label" text-anchor="middle">2026-04-09</text>
  <text x="656.551724137931" y="35.0" class="label" text-anchor="middle">52</text>
  <circle cx="660.6896551724137" cy="40.0" class="point"/>
  <text x="660.6896551724137" y="375" class="label" text-anchor="middle">2026-04-10</text>
  <text x="660.6896551724137" y="35.0" class="label" text-anchor="middle">52</text>
  <circle cx="664.8275862068965" cy="40.0" class="point"/>
  <text x="664.8275862068965" y="375" class="label" text-anchor="middle">2026-04-11</text>
  <text x="664.8275862068965" y="35.0" class="label" text-anchor="middle">52</text>
  <circle cx="668.9655172413793" cy="40.0" class="point"/>
  <text x="668.9655172413793" y="375" class="label" text-anchor="middle">2026-04-12</text>
  <text x="668.9655172413793" y="35.0" class="label" text-anchor="middle">52</text>
  <circle cx="673.1034482758621" cy="40.0" class="point"/>
  <text x="673.1034482758621" y="375" class="label" text-anchor="middle">2026-04-13</text>
  <text x="673.1034482758621" y="35.0" class="label" text-anchor="middle">52</text>
  <circle cx="677.2413793103449" cy="40.0" class="point"/>
  <text x="677.2413793103449" y="375" class="label" text-anchor="middle">2026-04-14</text>
  <text x="677.2413793103449" y="35.0" class="label" text-anchor="middle">52</text>
  <circle cx="681.3793103448276" cy="40.0" class="point"/>
  <text x="681.3793103448276" y="375" class="label" text-anchor="middle">2026-04-15</text>
  <text x="681.3793103448276" y="35.0" class="label" text-anchor="middle">52</text>
  <circle cx="685.5172413793103" cy="40.0" class="point"/>
  <text x="685.5172413793103" y="375" class="label" text-anchor="middle">2026-04-16</text>
  <text x="685.5172413793103" y="35.0" class="label" text-anchor="middle">52</text>
  <circle cx="689.655172413793" cy="40.0" class="point"/>
  <text x="689.655172413793" y="375" class="label" text-anchor="middle">2026-04-17</text>
  <text x="689.655172413793" y="35.0" class="label" text-anchor="middle">52</text>
  <circle cx="693.7931034482758" cy="40.0" class="point"/>
  <text x="693.7931034482758" y="375" class="label" text-anchor="middle">2026-04-18</text>
  <text x="693.7931034482758" y="35.0" class="label" text-anchor="middle">52</text>
  <circle cx="697.9310344827586" cy="40.0" class="point"/>
  <text x="697.9310344827586" y="375" class="label" text-anchor="middle">2026-04-19</text>
  <text x="697.9310344827586" y="35.0" class="label" text-anchor="middle">52</text>
  <circle cx="702.0689655172414" cy="40.0" class="point"/>
  <text x="702.0689655172414" y="375" class="label" text-anchor="middle">2026-04-20</text>
  <text x="702.0689655172414" y="35.0" class="label" text-anchor="middle">52</text>
  <circle cx="706.2068965517242" cy="40.0" class="point"/>
  <text x="706.2068965517242" y="375" class="label" text-anchor="middle">2026-04-21</text>
  <text x="706.2068965517242" y="35.0" class="label" text-anchor="middle">52</text>
  <circle cx="710.3448275862069" cy="40.0" class="point"/>
  <text x="710.3448275862069" y="375" class="label" text-anchor="middle">2026-04-22</text>
  <text x="710.3448275862069" y="35.0" class="label" text-anchor="middle">52</text>
  <circle cx="714.4827586206897" cy="40.0" class="point"/>
  <text x="714.4827586206897" y="375" class="label" text-anchor="middle">2026-04-23</text>
  <text x="714.4827586206897" y="35.0" class="label" text-anchor="middle">52</text>
  <circle cx="718.6206896551723" cy="40.0" class="point"/>
  <text x="718.6206896551723" y="375" class="label" text-anchor="middle">2026-04-24</text>
  <text x="718.6206896551723" y="35.0" class="label" text-anchor="middle">52</text>
  <circle cx="722.7586206896552" cy="40.0" class="point"/>
  <text x="722.7586206896552" y="375" class="label" text-anchor="middle">2026-04-25</text>
  <text x="722.7586206896552" y="35.0" class="label" text-anchor="middle">52</text>
  <circle cx="726.8965517241379" cy="40.0" class="point"/>
  <text x="726.8965517241379" y="375" class="label" text-anchor="middle">2026-04-26</text>
  <text x="726.8965517241379" y="35.0" class="label" text-anchor="middle">52</text>
  <circle cx="731.0344827586207" cy="40.0" class="point"/>
  <text x="731.0344827586207" y="375" class="label" text-anchor="middle">2026-04-27</text>
  <text x="731.0344827586207" y="35.0" class="label" text-anchor="middle">52</text>
  <circle cx="735.1724137931035" cy="40.0" class="point"/>
  <text x="735.1724137931035" y="375" class="label" text-anchor="middle">2026-04-28</text>
  <text x="735.1724137931035" y="35.0" class="label" text-anchor="middle">52</text>
  <circle cx="739.3103448275862" cy="40.0" class="point"/>
  <text x="739.3103448275862" y="375" class="label" text-anchor="middle">2026-04-29</text>
  <text x="739.3103448275862" y="35.0" class="label" text-anchor="middle">52</text>
  <circle cx="743.448275862069" cy="40.0" class="point"/>
  <text x="743.448275862069" y="375" class="label" text-anchor="middle">2026-04-30</text>
  <text x="743.448275862069" y="35.0" class="label" text-anchor="middle">52</text>
  <circle cx="747.5862068965517" cy="40.0" class="point"/>
  <text x="747.5862068965517" y="375" class="label" text-anchor="middle">2026-05-01</text>
  <text x="747.5862068965517" y="35.0" class="label" text-anchor="middle">52</text>
  <circle cx="751.7241379310345" cy="40.0" class="point"/>
  <text x="751.7241379310345" y="375" class="label" text-anchor="middle">2026-05-02</text>
  <text x="751.7241379310345" y="35.0" class="label" text-anchor="middle">52</text>
  <circle cx="755.8620689655172" cy="40.0" class="point"/>
  <text x="755.8620689655172" y="375" class="label" text-anchor="middle">2026-05-03</text>
  <text x="755.8620689655172" y="35.0" class="label" text-anchor="middle">52</text>
  <circle cx="760.0" cy="40.0" class="point"/>
  <text x="760.0" y="375" class="label" text-anchor="middle">2026-05-04</text>
  <text x="760.0" y="35.0" class="label" text-anchor="middle">52</text>
  <text x="30" y="363.0" class="label" text-anchor="end">0</text>
  <text x="30" y="301.46153846153845" class="label" text-anchor="end">10</text>
  <text x="30" y="239.9230769230769" class="label" text-anchor="end">20</text>
  <text x="30" y="178.38461538461542" class="label" text-anchor="end">30</text>
  <text x="30" y="116.84615384615384" class="label" text-anchor="end">40</text>
  <text x="30" y="55.30769230769232" class="label" text-anchor="end">50</text>
</svg>