<svg xmlns="http://www.w3.org/2000/svg" width="800" height="400" viewBox="0 0 800 400">
  <style>
    .axis{stroke:#666;stroke-width:1}
    .line{stroke:#4a9;stroke-width:2;fill:none}
    .point{fill:#4a9;r:4}
    .label{font:10px sans-serif;fill:#aaa}
    .title{font:14px sans-serif;fill:#333}
  </style>
  <text x="400" y="20" class="title" text-anchor="middle">OPIC Field Growth Timeline</text>
  <line x1="40" y1="40" x2="40" y2="360" class="axis"/>
  <line x1="40" y1="360" x2="760" y2="360" class="axis"/>
  <path d="M 40.0,40.0 L 82.35294117647058,40.0 L 124.70588235294117,40.0 L 167.05882352941177,40.0 L 209.41176470588235,40.0 L 251.76470588235296,40.0 L 294.11764705882354,40.0 L 336.4705882352941,40.0 L 378.8235294117647,40.0 L 421.1764705882353,40.0 L 463.5294117647059,40.0 L 505.8823529411765,40.0 L 548.2352941176471,40.0 L 590.5882352941176,40.0 L 632.9411764705882,40.0 L 675.2941176470588,40.0 L 717.6470588235294,40.0 L 760.0,40.0" class="line"/>
  <circle cx="40.0" cy="40.0" class="point"/>
  <text x="40.0" y="375" class="label" text-anchor="middle">2025-11-11</text>
  <text x="40.0" y="35.0" class="label" text-anchor="middle">42</text>
  <circle cx="82.35294117647058" cy="40.0" class="point"/>
  <text x="82.35294117647058" y="375" class="label" text-anchor="middle">2025-11-12</text>
  <text x="82.35294117647058" y="35.0" class="label" text-anchor="middle">42</text>
  <circle cx="124.70588235294117" cy="40.0" class="point"/>
  <text x="124.70588235294117" y="375" class="label" text-anchor="middle">2025-11-13</text>
  <text x="124.70588235294117" y="35.0" class="label" text-anchor="middle">42</text>
  <circle cx="167.05882352941177" cy="40.0" class="point"/>
  <text x="167.05882352941177" y="375" class="label" text-anchor="middle">2025-11-14</text>
  <text x="167.05882352941177" y="35.0" class="label" text-anchor="middle">42</text>
  <circle cx="209.41176470588235" cy="40.0" class="point"/>
  <text x="209.41176470588235" y="375" class="label" text-anchor="middle">2025-11-15</text>
  <text x="209.41176470588235" y="35.0" class="label" text-anchor="middle">42</text>
  <circle cx="251.76470588235296" cy="40.0" class="point"/>
  <text x="251.76470588235296" y="375" class="label" text-anchor="middle">2025-11-16</text>
  <text x="251.76470588235296" y="35.0" class="label" text-anchor="middle">42</text>
  <circle cx="294.11764705882354" cy="40.0" class="point"/>
  <text x="294.11764705882354" y="375" class="label" text-anchor="middle">2025-11-17</text>
  <text x="294.11764705882354" y="35.0" class="label" text-anchor="middle">42</text>
  <circle cx="336.4705882352941" cy="40.0" class="point"/>
  <text x="336.4705882352941" y="375" class="label" text-anchor="middle">2025-11-18</text>
  <text x="336.4705882352941" y="35.0" class="label" text-anchor="middle">42</text>
  <circle cx="378.8235294117647" cy="40.0" class="point"/>
  <text x="378.8235294117647" y="375" class="label" text-anchor="middle">2025-11-19</text>
  <text x="378.8235294117647" y="35.0" class="label" text-anchor="middle">42</text>
  <circle cx="421.1764705882353" cy="40.0" class="point"/>
  <text x="421.1764705882353" y="375" class="label" text-anchor="middle">2025-11-20</text>
  <text x="421.1764705882353" y="35.0" class="label" text-anchor="middle">42</text>
  <circle cx="463.5294117647059" cy="40.0" class="point"/>
  <text x="463.5294117647059" y="375" class="label" text-anchor="middle">2025-11-21</text>
  <text x="463.5294117647059" y="35.0" class="label" text-anchor="middle">42</text>
  <circle cx="505.8823529411765" cy="40.0" class="point"/>
  <text x="505.8823529411765" y="375" class="label" text-anchor="middle">2025-11-22</text>
  <text x="505.8823529411765" y="35.0" class="label" text-anchor="middle">42</text>
  <circle cx="548.2352941176471" cy="40.0" class="point"/>
  <text x="548.2352941176471" y="375" class="label" text-anchor="middle">2025-11-23</text>
  <text x="548.2352941176471" y="35.0" class="label" text-anchor="middle">42</text>
  <circle cx="590.5882352941176" cy="40.0" class="point"/>
  <text x="590.5882352941176" y="375" class="label" text-anchor="middle">2025-11-24</text>
  <text x="590.5882352941176" y="35.0" class="label" text-anchor="middle">42</text>
  <circle cx="632.9411764705882" cy="40.0" class="point"/>
  <text x="632.9411764705882" y="375" class="label" text-anchor="middle">2025-11-25</text>
  <text x="632.9411764705882" y="35.0" class="label" text-anchor="middle">42</text>
  <circle cx="675.2941176470588" cy="40.0" class="point"/>
  <text x="675.2941176470588" y="375" class="label" text-anchor="middle">2025-11-26</text>
  <text x="675.2941176470588" y="35.0" class="label" text-anchor="middle">42</text>
  <circle cx="717.6470588235294" cy="40.0" class="point"/>
  <text x="717.6470588235294" y="375" class="label" text-anchor="middle">2025-11-27</text>
  <text x="717.6470588235294" y="35.0" class="label" text-anchor="middle">42</text>
  <circle cx="760.0" cy="40.0" class="point"/>
  <text x="760.0" y="375" class="label" text-anchor="middle">2025-11-28</text>
  <text x="760.0" y="35.0" class="label" text-anchor="middle">42</text>
  <text x="30" y="363.0" class="label" text-anchor="end">0</text>
  <text x="30" y="302.04761904761904" class="label" text-anchor="end">8</text>
  <text x="30" y="241.0952380952381" class="label" text-anchor="end">16</text>
  <text x="30" y="180.14285714285717" class="label" text-anchor="end">24</text>
  <text x="30" y="119.1904761904762" class="label" text-anchor="end">32</text>
  <text x="30" y="58.23809523809524" class="label" text-anchor="end">40</text>
</svg>