<svg xmlns="http://www.w3.org/2000/svg" width="800" height="400" viewBox="0 0 800 400">
  <style>
    .axis{stroke:#666;stroke-width:1}
    .line{stroke:#4a9;stroke-width:2;fill:none}
    .point{fill:#4a9;r:4}
    .label{font:10px sans-serif;fill:#aaa}
    .title{font:14px sans-serif;fill:#333}
  </style>
  <text x="400" y="20" class="title" text-anchor="middle">OPIC Field Growth Timeline</text>
  <line x1="40" y1="40" x2="40" y2="360" class="axis"/>
  <line x1="40" y1="360" x2="760" y2="360" class="axis"/>
  <path d="M 40.0,101.53846153846155 L 47.3469387755102,101.53846153846155 L 54.69387755102041,101.53846153846155 L 62.04081632653061,101.53846153846155 L 69.38775510204081,101.53846153846155 L 76.73469387755102,101.53846153846155 L 84.08163265306122,101.53846153846155 L 91.42857142857142,101.53846153846155 L 98.77551020408163,101.53846153846155 L 106.12244897959184,101.53846153846155 L 113.46938775510205,101.53846153846155 L 120.81632653061224,101.53846153846155 L 128.16326530612244,101.53846153846155 L 135.51020408163265,101.53846153846155 L 142.85714285714283,101.53846153846155 L 150.20408163265307,101.53846153846155 L 157.55102040816325,101.53846153846155 L 164.89795918367346,101.53846153846155 L 172.24489795918367,101.53846153846155 L 179.59183673469389,101.53846153846155 L 186.9387755102041,101.53846153846155 L 194.28571428571428,101.53846153846155 L 201.6326530612245,101.53846153846155 L 208.9795918367347,101.53846153846155 L 216.32653061224488,101.53846153846155 L 223.67346938775512,101.53846153846155 L 231.02040816326533,101.53846153846155 L 238.36734693877548,40.0 L 245.7142857142857,40.0 L 253.0612244897959,40.0 L 260.40816326530614,40.0 L 267.7551020408163,40.0 L 275.1020408163265,40.0 L 282.44897959183675,40.0 L 289.7959183673469,40.0 L 297.14285714285717,40.0 L 304.48979591836735,40.0 L 311.83673469387753,40.0 L 319.18367346938777,40.0 L 326.53061224489795,40.0 L 333.8775510204082,40.0 L 341.2244897959184,40.0 L 348.57142857142856,40.0 L 355.9183673469388,40.0 L 363.265306122449,40.0 L 370.6122448979592,40.0 L 377.9591836734694,40.0 L 385.3061224489796,40.0 L 392.65306122448976,40.0 L 400.0,40.0 L 407.34693877551024,40.0 L 414.6938775510204,40.0 L 422.04081632653066,40.0 L 429.38775510204084,40.0 L 436.73469387755097,40.0 L 444.0816326530612,40.0 L 451.4285714285714,40.0 L 458.7755102040816,40.0 L 466.1224489795918,40.0 L 473.46938775510205,40.0 L 480.81632653061223,40.0 L 488.16326530612247,40.0 L 495.51020408163265,40.0 L 502.8571428571429,40.0 L 510.204081632653,40.0 L 517.5510204081633,40.0 L 524.8979591836735,40.0 L 532.2448979591836,40.0 L 539.5918367346939,40.0 L 546.9387755102041,40.0 L 554.2857142857143,40.0 L 561.6326530612245,40.0 L 568.9795918367347,40.0 L 576.3265306122449,40.0 L 583.6734693877551,40.0 L 591.0204081632653,40.0 L 598.3673469387755,40.0 L 605.7142857142857,40.0 L 613.0612244897959,40.0 L 620.4081632653061,40.0 L 627.7551020408164,40.0 L 635.1020408163265,40.0 L 642.4489795918367,40.0 L 649.795918367347,40.0 L 657.1428571428571,40.0 L 664.4897959183673,40.0 L 671.8367346938776,40.0 L 679.1836734693877,40.0 L 686.530612244898,40.0 L 693.8775510204082,40.0 L 701.2244897959184,40.0 L 708.5714285714286,40.0 L 715.9183673469388,40.0 L 723.265306122449,40.0 L 730.6122448979592,40.0 L 737.9591836734694,40.0 L 745.3061224489795,40.0 L 752.6530612244898,40.0 L 760.0,40.0" class="line"/>
  <circle cx="40.0" cy="101.53846153846155" class="point"/>
  <text x="40.0" y="375" class="label" text-anchor="middle">2025-11-11</text>
  <text x="40.0" y="96.53846153846155" class="label" text-anchor="middle">42</text>
  <circle cx="47.3469387755102" cy="101.53846153846155" class="point"/>
  <text x="47.3469387755102" y="375" class="label" text-anchor="middle">2025-11-12</text>
  <text x="47.3469387755102" y="96.53846153846155" class="label" text-anchor="middle">42</text>
  <circle cx="54.69387755102041" cy="101.53846153846155" class="point"/>
  <text x="54.69387755102041" y="375" class="label" text-anchor="middle">2025-11-13</text>
  <text x="54.69387755102041" y="96.53846153846155" class="label" text-anchor="middle">42</text>
  <circle cx="62.04081632653061" cy="101.53846153846155" class="point"/>
  <text x="62.04081632653061" y="375" class="label" text-anchor="middle">2025-11-14</text>
  <text x="62.04081632653061" y="96.53846153846155" class="label" text-anchor="middle">42</text>
  <circle cx="69.38775510204081" cy="101.53846153846155" class="point"/>
  <text x="69.38775510204081" y="375" class="label" text-anchor="middle">2025-11-15</text>
  <text x="69.38775510204081" y="96.53846153846155" class="label" text-anchor="middle">42</text>
  <circle cx="76.73469387755102" cy="101.53846153846155" class="point"/>
  <text x="76.73469387755102" y="375" class="label" text-anchor="middle">2025-11-16</text>
  <text x="76.73469387755102" y="96.53846153846155" class="label" text-anchor="middle">42</text>
  <circle cx="84.08163265306122" cy="101.53846153846155" class="point"/>
  <text x="84.08163265306122" y="375" class="label" text-anchor="middle">2025-11-17</text>
  <text x="84.08163265306122" y="96.53846153846155" class="label" text-anchor="middle">42</text>
  <circle cx="91.42857142857142" cy="101.53846153846155" class="point"/>
  <text x="91.42857142857142" y="375" class="label" text-anchor="middle">2025-11-18</text>
  <text x="91.42857142857142" y="96.53846153846155" class="label" text-anchor="middle">42</text>
  <circle cx="98.77551020408163" cy="101.53846153846155" class="point"/>
  <text x="98.77551020408163" y="375" class="label" text-anchor="middle">2025-11-19</text>
  <text x="98.77551020408163" y="96.53846153846155" class="label" text-anchor="middle">42</text>
  <circle cx="106.12244897959184" cy="101.53846153846155" class="point"/>
  <text x="106.12244897959184" y="375" class="label" text-anchor="middle">2025-11-20</text>
  <text x="106.12244897959184" y="96.53846153846155" class="label" text-anchor="middle">42</text>
  <circle cx="113.46938775510205" cy="101.53846153846155" class="point"/>
  <text x="113.46938775510205" y="375" class="label" text-anchor="middle">2025-11-21</text>
  <text x="113.46938775510205" y="96.53846153846155" class="label" text-anchor="middle">42</text>
  <circle cx="120.81632653061224" cy="101.53846153846155" class="point"/>
  <text x="120.81632653061224" y="375" class="label" text-anchor="middle">2025-11-22</text>
  <text x="120.81632653061224" y="96.53846153846155" class="label" text-anchor="middle">42</text>
  <circle cx="128.16326530612244" cy="101.53846153846155" class="point"/>
  <text x="128.16326530612244" y="375" class="label" text-anchor="middle">2025-11-23</text>
  <text x="128.16326530612244" y="96.53846153846155" class="label" text-anchor="middle">42</text>
  <circle cx="135.51020408163265" cy="101.53846153846155" class="point"/>
  <text x="135.51020408163265" y="375" class="label" text-anchor="middle">2025-11-24</text>
  <text x="135.51020408163265" y="96.53846153846155" class="label" text-anchor="middle">42</text>
  <circle cx="142.85714285714283" cy="101.53846153846155" class="point"/>
  <text x="142.85714285714283" y="375" class="label" text-anchor="middle">2025-11-25</text>
  <text x="142.85714285714283" y="96.53846153846155" class="label" text-anchor="middle">42</text>
  <circle cx="150.20408163265307" cy="101.53846153846155" class="point"/>
  <text x="150.20408163265307" y="375" class="label" text-anchor="middle">2025-11-26</text>
  <text x="150.20408163265307" y="96.53846153846155" class="label" text-anchor="middle">42</text>
  <circle cx="157.55102040816325" cy="101.53846153846155" class="point"/>
  <text x="157.55102040816325" y="375" class="label" text-anchor="middle">2025-11-27</text>
  <text x="157.55102040816325" y="96.53846153846155" class="label" text-anchor="middle">42</text>
  <circle cx="164.89795918367346" cy="101.53846153846155" class="point"/>
  <text x="164.89795918367346" y="375" class="label" text-anchor="middle">2025-11-28</text>
  <text x="164.89795918367346" y="96.53846153846155" class="label" text-anchor="middle">42</text>
  <circle cx="172.24489795918367" cy="101.53846153846155" class="point"/>
  <text x="172.24489795918367" y="375" class="label" text-anchor="middle">2025-11-29</text>
  <text x="172.24489795918367" y="96.53846153846155" class="label" text-anchor="middle">42</text>
  <circle cx="179.59183673469389" cy="101.53846153846155" class="point"/>
  <text x="179.59183673469389" y="375" class="label" text-anchor="middle">2025-11-30</text>
  <text x="179.59183673469389" y="96.53846153846155" class="label" text-anchor="middle">42</text>
  <circle cx="186.9387755102041" cy="101.53846153846155" class="point"/>
  <text x="186.9387755102041" y="375" class="label" text-anchor="middle">2025-12-01</text>
  <text x="186.9387755102041" y="96.53846153846155" class="label" text-anchor="middle">42</text>
  <circle cx="194.28571428571428" cy="101.53846153846155" class="point"/>
  <text x="194.28571428571428" y="375" class="label" text-anchor="middle">2025-12-02</text>
  <text x="194.28571428571428" y="96.53846153846155" class="label" text-anchor="middle">42</text>
  <circle cx="201.6326530612245" cy="101.53846153846155" class="point"/>
  <text x="201.6326530612245" y="375" class="label" text-anchor="middle">2025-12-03</text>
  <text x="201.6326530612245" y="96.53846153846155" class="label" text-anchor="middle">42</text>
  <circle cx="208.9795918367347" cy="101.53846153846155" class="point"/>
  <text x="208.9795918367347" y="375" class="label" text-anchor="middle">2025-12-04</text>
  <text x="208.9795918367347" y="96.53846153846155" class="label" text-anchor="middle">42</text>
  <circle cx="216.32653061224488" cy="101.53846153846155" class="point"/>
  <text x="216.32653061224488" y="375" class="label" text-anchor="middle">2025-12-05</text>
  <text x="216.32653061224488" y="96.53846153846155" class="label" text-anchor="middle">42</text>
  <circle cx="223.67346938775512" cy="101.53846153846155" class="point"/>
  <text x="223.67346938775512" y="375" class="label" text-anchor="middle">2025-12-06</text>
  <text x="223.67346938775512" y="96.53846153846155" class="label" text-anchor="middle">42</text>
  <circle cx="231.02040816326533" cy="101.53846153846155" class="point"/>
  <text x="231.02040816326533" y="375" class="label" text-anchor="middle">2025-12-07</text>
  <text x="231.02040816326533" y="96.53846153846155" class="label" text-anchor="middle">42</text>
  <circle cx="238.36734693877548" cy="40.0" class="point"/>
  <text x="238.36734693877548" y="375" class="label" text-anchor="middle">2025-12-08</text>
  <text x="238.36734693877548" y="35.0" class="label" text-anchor="middle">52</text>
  <circle cx="245.7142857142857" cy="40.0" class="point"/>
  <text x="245.7142857142857" y="375" class="label" text-anchor="middle">2025-12-09</text>
  <text x="245.7142857142857" y="35.0" class="label" text-anchor="middle">52</text>
  <circle cx="253.0612244897959" cy="40.0" class="point"/>
  <text x="253.0612244897959" y="375" class="label" text-anchor="middle">2025-12-10</text>
  <text x="253.0612244897959" y="35.0" class="label" text-anchor="middle">52</text>
  <circle cx="260.40816326530614" cy="40.0" class="point"/>
  <text x="260.40816326530614" y="375" class="label" text-anchor="middle">2025-12-11</text>
  <text x="260.40816326530614" y="35.0" class="label" text-anchor="middle">52</text>
  <circle cx="267.7551020408163" cy="40.0" class="point"/>
  <text x="267.7551020408163" y="375" class="label" text-anchor="middle">2025-12-12</text>
  <text x="267.7551020408163" y="35.0" class="label" text-anchor="middle">52</text>
  <circle cx="275.1020408163265" cy="40.0" class="point"/>
  <text x="275.1020408163265" y="375" class="label" text-anchor="middle">2025-12-13</text>
  <text x="275.1020408163265" y="35.0" class="label" text-anchor="middle">52</text>
  <circle cx="282.44897959183675" cy="40.0" class="point"/>
  <text x="282.44897959183675" y="375" class="label" text-anchor="middle">2025-12-14</text>
  <text x="282.44897959183675" y="35.0" class="label" text-anchor="middle">52</text>
  <circle cx="289.7959183673469" cy="40.0" class="point"/>
  <text x="289.7959183673469" y="375" class="label" text-anchor="middle">2025-12-15</text>
  <text x="289.7959183673469" y="35.0" class="label" text-anchor="middle">52</text>
  <circle cx="297.14285714285717" cy="40.0" class="point"/>
  <text x="297.14285714285717" y="375" class="label" text-anchor="middle">2025-12-16</text>
  <text x="297.14285714285717" y="35.0" class="label" text-anchor="middle">52</text>
  <circle cx="304.48979591836735" cy="40.0" class="point"/>
  <text x="304.48979591836735" y="375" class="label" text-anchor="middle">2025-12-17</text>
  <text x="304.48979591836735" y="35.0" class="label" text-anchor="middle">52</text>
  <circle cx="311.83673469387753" cy="40.0" class="point"/>
  <text x="311.83673469387753" y="375" class="label" text-anchor="middle">2025-12-18</text>
  <text x="311.83673469387753" y="35.0" class="label" text-anchor="middle">52</text>
  <circle cx="319.18367346938777" cy="40.0" class="point"/>
  <text x="319.18367346938777" y="375" class="label" text-anchor="middle">2025-12-19</text>
  <text x="319.18367346938777" y="35.0" class="label" text-anchor="middle">52</text>
  <circle cx="326.53061224489795" cy="40.0" class="point"/>
  <text x="326.53061224489795" y="375" class="label" text-anchor="middle">2025-12-20</text>
  <text x="326.53061224489795" y="35.0" class="label" text-anchor="middle">52</text>
  <circle cx="333.8775510204082" cy="40.0" class="point"/>
  <text x="333.8775510204082" y="375" class="label" text-anchor="middle">2025-12-21</text>
  <text x="333.8775510204082" y="35.0" class="label" text-anchor="middle">52</text>
  <circle cx="341.2244897959184" cy="40.0" class="point"/>
  <text x="341.2244897959184" y="375" class="label" text-anchor="middle">2025-12-22</text>
  <text x="341.2244897959184" y="35.0" class="label" text-anchor="middle">52</text>
  <circle cx="348.57142857142856" cy="40.0" class="point"/>
  <text x="348.57142857142856" y="375" class="label" text-anchor="middle">2025-12-23</text>
  <text x="348.57142857142856" y="35.0" class="label" text-anchor="middle">52</text>
  <circle cx="355.9183673469388" cy="40.0" class="point"/>
  <text x="355.9183673469388" y="375" class="label" text-anchor="middle">2025-12-24</text>
  <text x="355.9183673469388" y="35.0" class="label" text-anchor="middle">52</text>
  <circle cx="363.265306122449" cy="40.0" class="point"/>
  <text x="363.265306122449" y="375" class="label" text-anchor="middle">2025-12-25</text>
  <text x="363.265306122449" y="35.0" class="label" text-anchor="middle">52</text>
  <circle cx="370.6122448979592" cy="40.0" class="point"/>
  <text x="370.6122448979592" y="375" class="label" text-anchor="middle">2025-12-26</text>
  <text x="370.6122448979592" y="35.0" class="label" text-anchor="middle">52</text>
  <circle cx="377.9591836734694" cy="40.0" class="point"/>
  <text x="377.9591836734694" y="375" class="label" text-anchor="middle">2025-12-27</text>
  <text x="377.9591836734694" y="35.0" class="label" text-anchor="middle">52</text>
  <circle cx="385.3061224489796" cy="40.0" class="point"/>
  <text x="385.3061224489796" y="375" class="label" text-anchor="middle">2025-12-28</text>
  <text x="385.3061224489796" y="35.0" class="label" text-anchor="middle">52</text>
  <circle cx="392.65306122448976" cy="40.0" class="point"/>
  <text x="392.65306122448976" y="375" class="label" text-anchor="middle">2025-12-29</text>
  <text x="392.65306122448976" y="35.0" class="label" text-anchor="middle">52</text>
  <circle cx="400.0" cy="40.0" class="point"/>
  <text x="400.0" y="375" class="label" text-anchor="middle">2025-12-30</text>
  <text x="400.0" y="35.0" class="label" text-anchor="middle">52</text>
  <circle cx="407.34693877551024" cy="40.0" class="point"/>
  <text x="407.34693877551024" y="375" class="label" text-anchor="middle">2025-12-31</text>
  <text x="407.34693877551024" y="35.0" class="label" text-anchor="middle">52</text>
  <circle cx="414.6938775510204" cy="40.0" class="point"/>
  <text x="414.6938775510204" y="375" class="label" text-anchor="middle">2026-01-01</text>
  <text x="414.6938775510204" y="35.0" class="label" text-anchor="middle">52</text>
  <circle cx="422.04081632653066" cy="40.0" class="point"/>
  <text x="422.04081632653066" y="375" class="label" text-anchor="middle">2026-01-02</text>
  <text x="422.04081632653066" y="35.0" class="label" text-anchor="middle">52</text>
  <circle cx="429.38775510204084" cy="40.0" class="point"/>
  <text x="429.38775510204084" y="375" class="label" text-anchor="middle">2026-01-03</text>
  <text x="429.38775510204084" y="35.0" class="label" text-anchor="middle">52</text>
  <circle cx="436.73469387755097" cy="40.0" class="point"/>
  <text x="436.73469387755097" y="375" class="label" text-anchor="middle">2026-01-04</text>
  <text x="436.73469387755097" y="35.0" class="label" text-anchor="middle">52</text>
  <circle cx="444.0816326530612" cy="40.0" class="point"/>
  <text x="444.0816326530612" y="375" class="label" text-anchor="middle">2026-01-05</text>
  <text x="444.0816326530612" y="35.0" class="label" text-anchor="middle">52</text>
  <circle cx="451.4285714285714" cy="40.0" class="point"/>
  <text x="451.4285714285714" y="375" class="label" text-anchor="middle">2026-01-06</text>
  <text x="451.4285714285714" y="35.0" class="label" text-anchor="middle">52</text>
  <circle cx="458.7755102040816" cy="40.0" class="point"/>
  <text x="458.7755102040816" y="375" class="label" text-anchor="middle">2026-01-07</text>
  <text x="458.7755102040816" y="35.0" class="label" text-anchor="middle">52</text>
  <circle cx="466.1224489795918" cy="40.0" class="point"/>
  <text x="466.1224489795918" y="375" class="label" text-anchor="middle">2026-01-08</text>
  <text x="466.1224489795918" y="35.0" class="label" text-anchor="middle">52</text>
  <circle cx="473.46938775510205" cy="40.0" class="point"/>
  <text x="473.46938775510205" y="375" class="label" text-anchor="middle">2026-01-09</text>
  <text x="473.46938775510205" y="35.0" class="label" text-anchor="middle">52</text>
  <circle cx="480.81632653061223" cy="40.0" class="point"/>
  <text x="480.81632653061223" y="375" class="label" text-anchor="middle">2026-01-10</text>
  <text x="480.81632653061223" y="35.0" class="label" text-anchor="middle">52</text>
  <circle cx="488.16326530612247" cy="40.0" class="point"/>
  <text x="488.16326530612247" y="375" class="label" text-anchor="middle">2026-01-11</text>
  <text x="488.16326530612247" y="35.0" class="label" text-anchor="middle">52</text>
  <circle cx="495.51020408163265" cy="40.0" class="point"/>
  <text x="495.51020408163265" y="375" class="label" text-anchor="middle">2026-01-12</text>
  <text x="495.51020408163265" y="35.0" class="label" text-anchor="middle">52</text>
  <circle cx="502.8571428571429" cy="40.0" class="point"/>
  <text x="502.8571428571429" y="375" class="label" text-anchor="middle">2026-01-13</text>
  <text x="502.8571428571429" y="35.0" class="label" text-anchor="middle">52</text>
  <circle cx="510.204081632653" cy="40.0" class="point"/>
  <text x="510.204081632653" y="375" class="label" text-anchor="middle">2026-01-14</text>
  <text x="510.204081632653" y="35.0" class="label" text-anchor="middle">52</text>
  <circle cx="517.5510204081633" cy="40.0" class="point"/>
  <text x="517.5510204081633" y="375" class="label" text-anchor="middle">2026-01-15</text>
  <text x="517.5510204081633" y="35.0" class="label" text-anchor="middle">52</text>
  <circle cx="524.8979591836735" cy="40.0" class="point"/>
  <text x="524.8979591836735" y="375" class="label" text-anchor="middle">2026-01-16</text>
  <text x="524.8979591836735" y="35.0" class="label" text-anchor="middle">52</text>
  <circle cx="532.2448979591836" cy="40.0" class="point"/>
  <text x="532.2448979591836" y="375" class="label" text-anchor="middle">2026-01-17</text>
  <text x="532.2448979591836" y="35.0" class="label" text-anchor="middle">52</text>
  <circle cx="539.5918367346939" cy="40.0" class="point"/>
  <text x="539.5918367346939" y="375" class="label" text-anchor="middle">2026-01-18</text>
  <text x="539.5918367346939" y="35.0" class="label" text-anchor="middle">52</text>
  <circle cx="546.9387755102041" cy="40.0" class="point"/>
  <text x="546.9387755102041" y="375" class="label" text-anchor="middle">2026-01-19</text>
  <text x="546.9387755102041" y="35.0" class="label" text-anchor="middle">52</text>
  <circle cx="554.2857142857143" cy="40.0" class="point"/>
  <text x="554.2857142857143" y="375" class="label" text-anchor="middle">2026-01-20</text>
  <text x="554.2857142857143" y="35.0" class="label" text-anchor="middle">52</text>
  <circle cx="561.6326530612245" cy="40.0" class="point"/>
  <text x="561.6326530612245" y="375" class="label" text-anchor="middle">2026-01-21</text>
  <text x="561.6326530612245" y="35.0" class="label" text-anchor="middle">52</text>
  <circle cx="568.9795918367347" cy="40.0" class="point"/>
  <text x="568.9795918367347" y="375" class="label" text-anchor="middle">2026-01-22</text>
  <text x="568.9795918367347" y="35.0" class="label" text-anchor="middle">52</text>
  <circle cx="576.3265306122449" cy="40.0" class="point"/>
  <text x="576.3265306122449" y="375" class="label" text-anchor="middle">2026-01-23</text>
  <text x="576.3265306122449" y="35.0" class="label" text-anchor="middle">52</text>
  <circle cx="583.6734693877551" cy="40.0" class="point"/>
  <text x="583.6734693877551" y="375" class="label" text-anchor="middle">2026-01-24</text>
  <text x="583.6734693877551" y="35.0" class="label" text-anchor="middle">52</text>
  <circle cx="591.0204081632653" cy="40.0" class="point"/>
  <text x="591.0204081632653" y="375" class="label" text-anchor="middle">2026-01-25</text>
  <text x="591.0204081632653" y="35.0" class="label" text-anchor="middle">52</text>
  <circle cx="598.3673469387755" cy="40.0" class="point"/>
  <text x="598.3673469387755" y="375" class="label" text-anchor="middle">2026-01-26</text>
  <text x="598.3673469387755" y="35.0" class="label" text-anchor="middle">52</text>
  <circle cx="605.7142857142857" cy="40.0" class="point"/>
  <text x="605.7142857142857" y="375" class="label" text-anchor="middle">2026-01-27</text>
  <text x="605.7142857142857" y="35.0" class="label" text-anchor="middle">52</text>
  <circle cx="613.0612244897959" cy="40.0" class="point"/>
  <text x="613.0612244897959" y="375" class="label" text-anchor="middle">2026-01-28</text>
  <text x="613.0612244897959" y="35.0" class="label" text-anchor="middle">52</text>
  <circle cx="620.4081632653061" cy="40.0" class="point"/>
  <text x="620.4081632653061" y="375" class="label" text-anchor="middle">2026-01-29</text>
  <text x="620.4081632653061" y="35.0" class="label" text-anchor="middle">52</text>
  <circle cx="627.7551020408164" cy="40.0" class="point"/>
  <text x="627.7551020408164" y="375" class="label" text-anchor="middle">2026-01-30</text>
  <text x="627.7551020408164" y="35.0" class="label" text-anchor="middle">52</text>
  <circle cx="635.1020408163265" cy="40.0" class="point"/>
  <text x="635.1020408163265" y="375" class="label" text-anchor="middle">2026-01-31</text>
  <text x="635.1020408163265" y="35.0" class="label" text-anchor="middle">52</text>
  <circle cx="642.4489795918367" cy="40.0" class="point"/>
  <text x="642.4489795918367" y="375" class="label" text-anchor="middle">2026-02-01</text>
  <text x="642.4489795918367" y="35.0" class="label" text-anchor="middle">52</text>
  <circle cx="649.795918367347" cy="40.0" class="point"/>
  <text x="649.795918367347" y="375" class="label" text-anchor="middle">2026-02-02</text>
  <text x="649.795918367347" y="35.0" class="label" text-anchor="middle">52</text>
  <circle cx="657.1428571428571" cy="40.0" class="point"/>
  <text x="657.1428571428571" y="375" class="label" text-anchor="middle">2026-02-03</text>
  <text x="657.1428571428571" y="35.0" class="label" text-anchor="middle">52</text>
  <circle cx="664.4897959183673" cy="40.0" class="point"/>
  <text x="664.4897959183673" y="375" class="label" text-anchor="middle">2026-02-04</text>
  <text x="664.4897959183673" y="35.0" class="label" text-anchor="middle">52</text>
  <circle cx="671.8367346938776" cy="40.0" class="point"/>
  <text x="671.8367346938776" y="375" class="label" text-anchor="middle">2026-02-05</text>
  <text x="671.8367346938776" y="35.0" class="label" text-anchor="middle">52</text>
  <circle cx="679.1836734693877" cy="40.0" class="point"/>
  <text x="679.1836734693877" y="375" class="label" text-anchor="middle">2026-02-06</text>
  <text x="679.1836734693877" y="35.0" class="label" text-anchor="middle">52</text>
  <circle cx="686.530612244898" cy="40.0" class="point"/>
  <text x="686.530612244898" y="375" class="label" text-anchor="middle">2026-02-07</text>
  <text x="686.530612244898" y="35.0" class="label" text-anchor="middle">52</text>
  <circle cx="693.8775510204082" cy="40.0" class="point"/>
  <text x="693.8775510204082" y="375" class="label" text-anchor="middle">2026-02-08</text>
  <text x="693.8775510204082" y="35.0" class="label" text-anchor="middle">52</text>
  <circle cx="701.2244897959184" cy="40.0" class="point"/>
  <text x="701.2244897959184" y="375" class="label" text-anchor="middle">2026-02-09</text>
  <text x="701.2244897959184" y="35.0" class="label" text-anchor="middle">52</text>
  <circle cx="708.5714285714286" cy="40.0" class="point"/>
  <text x="708.5714285714286" y="375" class="label" text-anchor="middle">2026-02-10</text>
  <text x="708.5714285714286" y="35.0" class="label" text-anchor="middle">52</text>
  <circle cx="715.9183673469388" cy="40.0" class="point"/>
  <text x="715.9183673469388" y="375" class="label" text-anchor="middle">2026-02-11</text>
  <text x="715.9183673469388" y="35.0" class="label" text-anchor="middle">52</text>
  <circle cx="723.265306122449" cy="40.0" class="point"/>
  <text x="723.265306122449" y="375" class="label" text-anchor="middle">2026-02-12</text>
  <text x="723.265306122449" y="35.0" class="label" text-anchor="middle">52</text>
  <circle cx="730.6122448979592" cy="40.0" class="point"/>
  <text x="730.6122448979592" y="375" class="label" text-anchor="middle">2026-02-13</text>
  <text x="730.6122448979592" y="35.0" class="label" text-anchor="middle">52</text>
  <circle cx="737.9591836734694" cy="40.0" class="point"/>
  <text x="737.9591836734694" y="375" class="label" text-anchor="middle">2026-02-14</text>
  <text x="737.9591836734694" y="35.0" class="label" text-anchor="middle">52</text>
  <circle cx="745.3061224489795" cy="40.0" class="point"/>
  <text x="745.3061224489795" y="375" class="label" text-anchor="middle">2026-02-15</text>
  <text x="745.3061224489795" y="35.0" class="label" text-anchor="middle">52</text>
  <circle cx="752.6530612244898" cy="40.0" class="point"/>
  <text x="752.6530612244898" y="375" class="label" text-anchor="middle">2026-02-16</text>
  <text x="752.6530612244898" y="35.0" class="label" text-anchor="middle">52</text>
  <circle cx="760.0" cy="40.0" class="point"/>
  <text x="760.0" y="375" class="label" text-anchor="middle">2026-02-17</text>
  <text x="760.0" y="35.0" class="label" text-anchor="middle">52</text>
  <text x="30" y="363.0" class="label" text-anchor="end">0</text>
  <text x="30" y="301.46153846153845" class="label" text-anchor="end">10</text>
  <text x="30" y="239.9230769230769" class="label" text-anchor="end">20</text>
  <text x="30" y="178.38461538461542" class="label" text-anchor="end">30</text>
  <text x="30" y="116.84615384615384" class="label" text-anchor="end">40</text>
  <text x="30" y="55.30769230769232" class="label" text-anchor="end">50</text>
</svg>