<svg xmlns="http://www.w3.org/2000/svg" width="400" height="400" viewBox="0 0 400 400">
  <style>
    .ring{fill:none;stroke-width:3}
    .label{font:9px sans-serif;fill:#666;text-anchor:middle}
    .title{font:12px sans-serif;fill:#333;text-anchor:middle}
  </style>
  <text x="200" y="15" class="title">OPIC Field Growth Rings</text>
  <circle cx="200" cy="200" r="149.23076923076923" class="ring" stroke="#333"/>
  <text x="359.2307692307692" y="203" class="label">2025-11-11 (42)</text>
  <circle cx="200" cy="200" r="149.23076923076923" class="ring" stroke="#444"/>
  <text x="359.2307692307692" y="203" class="label">2025-11-12 (42)</text>
  <circle cx="200" cy="200" r="149.23076923076923" class="ring" stroke="#555"/>
  <text x="359.2307692307692" y="203" class="label">2025-11-13 (42)</text>
  <circle cx="200" cy="200" r="149.23076923076923" class="ring" stroke="#666"/>
  <text x="359.2307692307692" y="203" class="label">2025-11-14 (42)</text>
  <circle cx="200" cy="200" r="149.23076923076923" class="ring" stroke="#777"/>
  <text x="359.2307692307692" y="203" class="label">2025-11-15 (42)</text>
  <circle cx="200" cy="200" r="149.23076923076923" class="ring" stroke="#888"/>
  <text x="359.2307692307692" y="203" class="label">2025-11-16 (42)</text>
  <circle cx="200" cy="200" r="149.23076923076923" class="ring" stroke="#333"/>
  <text x="359.2307692307692" y="203" class="label">2025-11-17 (42)</text>
  <circle cx="200" cy="200" r="149.23076923076923" class="ring" stroke="#444"/>
  <text x="359.2307692307692" y="203" class="label">2025-11-18 (42)</text>
  <circle cx="200" cy="200" r="149.23076923076923" class="ring" stroke="#555"/>
  <text x="359.2307692307692" y="203" class="label">2025-11-19 (42)</text>
  <circle cx="200" cy="200" r="149.23076923076923" class="ring" stroke="#666"/>
  <text x="359.2307692307692" y="203" class="label">2025-11-20 (42)</text>
  <circle cx="200" cy="200" r="149.23076923076923" class="ring" stroke="#777"/>
  <text x="359.2307692307692" y="203" class="label">2025-11-21 (42)</text>
  <circle cx="200" cy="200" r="149.23076923076923" class="ring" stroke="#888"/>
  <text x="359.2307692307692" y="203" class="label">2025-11-22 (42)</text>
  <circle cx="200" cy="200" r="149.23076923076923" class="ring" stroke="#333"/>
  <text x="359.2307692307692" y="203" class="label">2025-11-23 (42)</text>
  <circle cx="200" cy="200" r="149.23076923076923" class="ring" stroke="#444"/>
  <text x="359.2307692307692" y="203" class="label">2025-11-24 (42)</text>
  <circle cx="200" cy="200" r="149.23076923076923" class="ring" stroke="#555"/>
  <text x="359.2307692307692" y="203" class="label">2025-11-25 (42)</text>
  <circle cx="200" cy="200" r="149.23076923076923" class="ring" stroke="#666"/>
  <text x="359.2307692307692" y="203" class="label">2025-11-26 (42)</text>
  <circle cx="200" cy="200" r="149.23076923076923" class="ring" stroke="#777"/>
  <text x="359.2307692307692" y="203" class="label">2025-11-27 (42)</text>
  <circle cx="200" cy="200" r="149.23076923076923" class="ring" stroke="#888"/>
  <text x="359.2307692307692" y="203" class="label">2025-11-28 (42)</text>
  <circle cx="200" cy="200" r="149.23076923076923" class="ring" stroke="#333"/>
  <text x="359.2307692307692" y="203" class="label">2025-11-29 (42)</text>
  <circle cx="200" cy="200" r="149.23076923076923" class="ring" stroke="#444"/>
  <text x="359.2307692307692" y="203" class="label">2025-11-30 (42)</text>
  <circle cx="200" cy="200" r="149.23076923076923" class="ring" stroke="#555"/>
  <text x="359.2307692307692" y="203" class="label">2025-12-01 (42)</text>
  <circle cx="200" cy="200" r="149.23076923076923" class="ring" stroke="#666"/>
  <text x="359.2307692307692" y="203" class="label">2025-12-02 (42)</text>
  <circle cx="200" cy="200" r="149.23076923076923" class="ring" stroke="#777"/>
  <text x="359.2307692307692" y="203" class="label">2025-12-03 (42)</text>
  <circle cx="200" cy="200" r="149.23076923076923" class="ring" stroke="#888"/>
  <text x="359.2307692307692" y="203" class="label">2025-12-04 (42)</text>
  <circle cx="200" cy="200" r="149.23076923076923" class="ring" stroke="#333"/>
  <text x="359.2307692307692" y="203" class="label">2025-12-05 (42)</text>
  <circle cx="200" cy="200" r="149.23076923076923" class="ring" stroke="#444"/>
  <text x="359.2307692307692" y="203" class="label">2025-12-06 (42)</text>
  <circle cx="200" cy="200" r="149.23076923076923" class="ring" stroke="#555"/>
  <text x="359.2307692307692" y="203" class="label">2025-12-07 (42)</text>
  <circle cx="200" cy="200" r="180.0" class="ring" stroke="#666"/>
  <text x="390.0" y="203" class="label">2025-12-08 (52)</text>
  <circle cx="200" cy="200" r="180.0" class="ring" stroke="#777"/>
  <text x="390.0" y="203" class="label">2025-12-09 (52)</text>
  <circle cx="200" cy="200" r="180.0" class="ring" stroke="#888"/>
  <text x="390.0" y="203" class="label">2025-12-10 (52)</text>
  <circle cx="200" cy="200" r="180.0" class="ring" stroke="#333"/>
  <text x="390.0" y="203" class="label">2025-12-11 (52)</text>
  <circle cx="200" cy="200" r="180.0" class="ring" stroke="#444"/>
  <text x="390.0" y="203" class="label">2025-12-12 (52)</text>
  <circle cx="200" cy="200" r="180.0" class="ring" stroke="#555"/>
  <text x="390.0" y="203" class="label">2025-12-13 (52)</text>
  <circle cx="200" cy="200" r="180.0" class="ring" stroke="#666"/>
  <text x="390.0" y="203" class="label">2025-12-14 (52)</text>
  <circle cx="200" cy="200" r="180.0" class="ring" stroke="#777"/>
  <text x="390.0" y="203" class="label">2025-12-15 (52)</text>
  <circle cx="200" cy="200" r="180.0" class="ring" stroke="#888"/>
  <text x="390.0" y="203" class="label">2025-12-16 (52)</text>
  <circle cx="200" cy="200" r="180.0" class="ring" stroke="#333"/>
  <text x="390.0" y="203" class="label">2025-12-17 (52)</text>
  <circle cx="200" cy="200" r="180.0" class="ring" stroke="#444"/>
  <text x="390.0" y="203" class="label">2025-12-18 (52)</text>
  <circle cx="200" cy="200" r="180.0" class="ring" stroke="#555"/>
  <text x="390.0" y="203" class="label">2025-12-19 (52)</text>
  <circle cx="200" cy="200" r="180.0" class="ring" stroke="#666"/>
  <text x="390.0" y="203" class="label">2025-12-20 (52)</text>
  <circle cx="200" cy="200" r="180.0" class="ring" stroke="#777"/>
  <text x="390.0" y="203" class="label">2025-12-21 (52)</text>
  <circle cx="200" cy="200" r="180.0" class="ring" stroke="#888"/>
  <text x="390.0" y="203" class="label">2025-12-22 (52)</text>
  <circle cx="200" cy="200" r="180.0" class="ring" stroke="#333"/>
  <text x="390.0" y="203" class="label">2025-12-23 (52)</text>
  <circle cx="200" cy="200" r="180.0" class="ring" stroke="#444"/>
  <text x="390.0" y="203" class="label">2025-12-24 (52)</text>
  <circle cx="200" cy="200" r="180.0" class="ring" stroke="#555"/>
  <text x="390.0" y="203" class="label">2025-12-25 (52)</text>
  <circle cx="200" cy="200" r="180.0" class="ring" stroke="#666"/>
  <text x="390.0" y="203" class="label">2025-12-26 (52)</text>
  <circle cx="200" cy="200" r="180.0" class="ring" stroke="#777"/>
  <text x="390.0" y="203" class="label">2025-12-27 (52)</text>
  <circle cx="200" cy="200" r="180.0" class="ring" stroke="#888"/>
  <text x="390.0" y="203" class="label">2025-12-28 (52)</text>
  <circle cx="200" cy="200" r="180.0" class="ring" stroke="#333"/>
  <text x="390.0" y="203" class="label">2025-12-29 (52)</text>
  <circle cx="200" cy="200" r="180.0" class="ring" stroke="#444"/>
  <text x="390.0" y="203" class="label">2025-12-30 (52)</text>
  <circle cx="200" cy="200" r="180.0" class="ring" stroke="#555"/>
  <text x="390.0" y="203" class="label">2025-12-31 (52)</text>
  <circle cx="200" cy="200" r="180.0" class="ring" stroke="#666"/>
  <text x="390.0" y="203" class="label">2026-01-01 (52)</text>
  <circle cx="200" cy="200" r="180.0" class="ring" stroke="#777"/>
  <text x="390.0" y="203" class="label">2026-01-02 (52)</text>
  <circle cx="200" cy="200" r="180.0" class="ring" stroke="#888"/>
  <text x="390.0" y="203" class="label">2026-01-03 (52)</text>
  <circle cx="200" cy="200" r="180.0" class="ring" stroke="#333"/>
  <text x="390.0" y="203" class="label">2026-01-04 (52)</text>
  <circle cx="200" cy="200" r="180.0" class="ring" stroke="#444"/>
  <text x="390.0" y="203" class="label">2026-01-05 (52)</text>
  <circle cx="200" cy="200" r="180.0" class="ring" stroke="#555"/>
  <text x="390.0" y="203" class="label">2026-01-06 (52)</text>
  <circle cx="200" cy="200" r="180.0" class="ring" stroke="#666"/>
  <text x="390.0" y="203" class="label">2026-01-07 (52)</text>
  <circle cx="200" cy="200" r="180.0" class="ring" stroke="#777"/>
  <text x="390.0" y="203" class="label">2026-01-08 (52)</text>
  <circle cx="200" cy="200" r="180.0" class="ring" stroke="#888"/>
  <text x="390.0" y="203" class="label">2026-01-09 (52)</text>
  <circle cx="200" cy="200" r="180.0" class="ring" stroke="#333"/>
  <text x="390.0" y="203" class="label">2026-01-10 (52)</text>
  <circle cx="200" cy="200" r="180.0" class="ring" stroke="#444"/>
  <text x="390.0" y="203" class="label">2026-01-11 (52)</text>
  <circle cx="200" cy="200" r="180.0" class="ring" stroke="#555"/>
  <text x="390.0" y="203" class="label">2026-01-12 (52)</text>
  <circle cx="200" cy="200" r="180.0" class="ring" stroke="#666"/>
  <text x="390.0" y="203" class="label">2026-01-13 (52)</text>
  <circle cx="200" cy="200" r="180.0" class="ring" stroke="#777"/>
  <text x="390.0" y="203" class="label">2026-01-14 (52)</text>
  <circle cx="200" cy="200" r="180.0" class="ring" stroke="#888"/>
  <text x="390.0" y="203" class="label">2026-01-15 (52)</text>
  <circle cx="200" cy="200" r="180.0" class="ring" stroke="#333"/>
  <text x="390.0" y="203" class="label">2026-01-16 (52)</text>
  <circle cx="200" cy="200" r="180.0" class="ring" stroke="#444"/>
  <text x="390.0" y="203" class="label">2026-01-17 (52)</text>
  <circle cx="200" cy="200" r="180.0" class="ring" stroke="#555"/>
  <text x="390.0" y="203" class="label">2026-01-18 (52)</text>
  <circle cx="200" cy="200" r="180.0" class="ring" stroke="#666"/>
  <text x="390.0" y="203" class="label">2026-01-19 (52)</text>
</svg>