<svg xmlns="http://www.w3.org/2000/svg" width="800" height="400" viewBox="0 0 800 400">
  <style>
    .axis{stroke:#666;stroke-width:1}
    .line{stroke:#4a9;stroke-width:2;fill:none}
    .point{fill:#4a9;r:4}
    .label{font:10px sans-serif;fill:#aaa}
    .title{font:14px sans-serif;fill:#333}
  </style>
  <text x="400" y="20" class="title" text-anchor="middle">OPIC Field Growth Timeline</text>
  <line x1="40" y1="40" x2="40" y2="360" class="axis"/>
  <line x1="40" y1="360" x2="760" y2="360" class="axis"/>
  <path d="M 40.0,101.53846153846155 L 50.90909090909091,101.53846153846155 L 61.81818181818182,101.53846153846155 L 72.72727272727272,101.53846153846155 L 83.63636363636364,101.53846153846155 L 94.54545454545455,101.53846153846155 L 105.45454545454545,101.53846153846155 L 116.36363636363636,101.53846153846155 L 127.27272727272728,101.53846153846155 L 138.1818181818182,101.53846153846155 L 149.0909090909091,101.53846153846155 L 160.0,101.53846153846155 L 170.9090909090909,101.53846153846155 L 181.8181818181818,101.53846153846155 L 192.72727272727272,101.53846153846155 L 203.63636363636363,101.53846153846155 L 214.54545454545456,101.53846153846155 L 225.45454545454544,101.53846153846155 L 236.36363636363635,101.53846153846155 L 247.27272727272728,101.53846153846155 L 258.1818181818182,101.53846153846155 L 269.0909090909091,101.53846153846155 L 280.0,101.53846153846155 L 290.90909090909093,101.53846153846155 L 301.8181818181818,101.53846153846155 L 312.72727272727275,101.53846153846155 L 323.6363636363636,101.53846153846155 L 334.54545454545456,40.0 L 345.45454545454544,40.0 L 356.3636363636364,40.0 L 367.27272727272725,40.0 L 378.1818181818182,40.0 L 389.0909090909091,40.0 L 400.0,40.0 L 410.9090909090909,40.0 L 421.8181818181818,40.0 L 432.7272727272727,40.0 L 443.6363636363636,40.0 L 454.54545454545456,40.0 L 465.4545454545455,40.0 L 476.3636363636364,40.0 L 487.27272727272725,40.0 L 498.1818181818182,40.0 L 509.09090909090907,40.0 L 520.0,40.0 L 530.9090909090909,40.0 L 541.8181818181819,40.0 L 552.7272727272727,40.0 L 563.6363636363636,40.0 L 574.5454545454545,40.0 L 585.4545454545455,40.0 L 596.3636363636364,40.0 L 607.2727272727273,40.0 L 618.1818181818181,40.0 L 629.0909090909091,40.0 L 640.0,40.0 L 650.9090909090909,40.0 L 661.8181818181819,40.0 L 672.7272727272727,40.0 L 683.6363636363636,40.0 L 694.5454545454545,40.0 L 705.4545454545454,40.0 L 716.3636363636364,40.0 L 727.2727272727273,40.0 L 738.1818181818182,40.0 L 749.0909090909091,40.0 L 760.0,40.0" class="line"/>
  <circle cx="40.0" cy="101.53846153846155" class="point"/>
  <text x="40.0" y="375" class="label" text-anchor="middle">2025-11-11</text>
  <text x="40.0" y="96.53846153846155" class="label" text-anchor="middle">42</text>
  <circle cx="50.90909090909091" cy="101.53846153846155" class="point"/>
  <text x="50.90909090909091" y="375" class="label" text-anchor="middle">2025-11-12</text>
  <text x="50.90909090909091" y="96.53846153846155" class="label" text-anchor="middle">42</text>
  <circle cx="61.81818181818182" cy="101.53846153846155" class="point"/>
  <text x="61.81818181818182" y="375" class="label" text-anchor="middle">2025-11-13</text>
  <text x="61.81818181818182" y="96.53846153846155" class="label" text-anchor="middle">42</text>
  <circle cx="72.72727272727272" cy="101.53846153846155" class="point"/>
  <text x="72.72727272727272" y="375" class="label" text-anchor="middle">2025-11-14</text>
  <text x="72.72727272727272" y="96.53846153846155" class="label" text-anchor="middle">42</text>
  <circle cx="83.63636363636364" cy="101.53846153846155" class="point"/>
  <text x="83.63636363636364" y="375" class="label" text-anchor="middle">2025-11-15</text>
  <text x="83.63636363636364" y="96.53846153846155" class="label" text-anchor="middle">42</text>
  <circle cx="94.54545454545455" cy="101.53846153846155" class="point"/>
  <text x="94.54545454545455" y="375" class="label" text-anchor="middle">2025-11-16</text>
  <text x="94.54545454545455" y="96.53846153846155" class="label" text-anchor="middle">42</text>
  <circle cx="105.45454545454545" cy="101.53846153846155" class="point"/>
  <text x="105.45454545454545" y="375" class="label" text-anchor="middle">2025-11-17</text>
  <text x="105.45454545454545" y="96.53846153846155" class="label" text-anchor="middle">42</text>
  <circle cx="116.36363636363636" cy="101.53846153846155" class="point"/>
  <text x="116.36363636363636" y="375" class="label" text-anchor="middle">2025-11-18</text>
  <text x="116.36363636363636" y="96.53846153846155" class="label" text-anchor="middle">42</text>
  <circle cx="127.27272727272728" cy="101.53846153846155" class="point"/>
  <text x="127.27272727272728" y="375" class="label" text-anchor="middle">2025-11-19</text>
  <text x="127.27272727272728" y="96.53846153846155" class="label" text-anchor="middle">42</text>
  <circle cx="138.1818181818182" cy="101.53846153846155" class="point"/>
  <text x="138.1818181818182" y="375" class="label" text-anchor="middle">2025-11-20</text>
  <text x="138.1818181818182" y="96.53846153846155" class="label" text-anchor="middle">42</text>
  <circle cx="149.0909090909091" cy="101.53846153846155" class="point"/>
  <text x="149.0909090909091" y="375" class="label" text-anchor="middle">2025-11-21</text>
  <text x="149.0909090909091" y="96.53846153846155" class="label" text-anchor="middle">42</text>
  <circle cx="160.0" cy="101.53846153846155" class="point"/>
  <text x="160.0" y="375" class="label" text-anchor="middle">2025-11-22</text>
  <text x="160.0" y="96.53846153846155" class="label" text-anchor="middle">42</text>
  <circle cx="170.9090909090909" cy="101.53846153846155" class="point"/>
  <text x="170.9090909090909" y="375" class="label" text-anchor="middle">2025-11-23</text>
  <text x="170.9090909090909" y="96.53846153846155" class="label" text-anchor="middle">42</text>
  <circle cx="181.8181818181818" cy="101.53846153846155" class="point"/>
  <text x="181.8181818181818" y="375" class="label" text-anchor="middle">2025-11-24</text>
  <text x="181.8181818181818" y="96.53846153846155" class="label" text-anchor="middle">42</text>
  <circle cx="192.72727272727272" cy="101.53846153846155" class="point"/>
  <text x="192.72727272727272" y="375" class="label" text-anchor="middle">2025-11-25</text>
  <text x="192.72727272727272" y="96.53846153846155" class="label" text-anchor="middle">42</text>
  <circle cx="203.63636363636363" cy="101.53846153846155" class="point"/>
  <text x="203.63636363636363" y="375" class="label" text-anchor="middle">2025-11-26</text>
  <text x="203.63636363636363" y="96.53846153846155" class="label" text-anchor="middle">42</text>
  <circle cx="214.54545454545456" cy="101.53846153846155" class="point"/>
  <text x="214.54545454545456" y="375" class="label" text-anchor="middle">2025-11-27</text>
  <text x="214.54545454545456" y="96.53846153846155" class="label" text-anchor="middle">42</text>
  <circle cx="225.45454545454544" cy="101.53846153846155" class="point"/>
  <text x="225.45454545454544" y="375" class="label" text-anchor="middle">2025-11-28</text>
  <text x="225.45454545454544" y="96.53846153846155" class="label" text-anchor="middle">42</text>
  <circle cx="236.36363636363635" cy="101.53846153846155" class="point"/>
  <text x="236.36363636363635" y="375" class="label" text-anchor="middle">2025-11-29</text>
  <text x="236.36363636363635" y="96.53846153846155" class="label" text-anchor="middle">42</text>
  <circle cx="247.27272727272728" cy="101.53846153846155" class="point"/>
  <text x="247.27272727272728" y="375" class="label" text-anchor="middle">2025-11-30</text>
  <text x="247.27272727272728" y="96.53846153846155" class="label" text-anchor="middle">42</text>
  <circle cx="258.1818181818182" cy="101.53846153846155" class="point"/>
  <text x="258.1818181818182" y="375" class="label" text-anchor="middle">2025-12-01</text>
  <text x="258.1818181818182" y="96.53846153846155" class="label" text-anchor="middle">42</text>
  <circle cx="269.0909090909091" cy="101.53846153846155" class="point"/>
  <text x="269.0909090909091" y="375" class="label" text-anchor="middle">2025-12-02</text>
  <text x="269.0909090909091" y="96.53846153846155" class="label" text-anchor="middle">42</text>
  <circle cx="280.0" cy="101.53846153846155" class="point"/>
  <text x="280.0" y="375" class="label" text-anchor="middle">2025-12-03</text>
  <text x="280.0" y="96.53846153846155" class="label" text-anchor="middle">42</text>
  <circle cx="290.90909090909093" cy="101.53846153846155" class="point"/>
  <text x="290.90909090909093" y="375" class="label" text-anchor="middle">2025-12-04</text>
  <text x="290.90909090909093" y="96.53846153846155" class="label" text-anchor="middle">42</text>
  <circle cx="301.8181818181818" cy="101.53846153846155" class="point"/>
  <text x="301.8181818181818" y="375" class="label" text-anchor="middle">2025-12-05</text>
  <text x="301.8181818181818" y="96.53846153846155" class="label" text-anchor="middle">42</text>
  <circle cx="312.72727272727275" cy="101.53846153846155" class="point"/>
  <text x="312.72727272727275" y="375" class="label" text-anchor="middle">2025-12-06</text>
  <text x="312.72727272727275" y="96.53846153846155" class="label" text-anchor="middle">42</text>
  <circle cx="323.6363636363636" cy="101.53846153846155" class="point"/>
  <text x="323.6363636363636" y="375" class="label" text-anchor="middle">2025-12-07</text>
  <text x="323.6363636363636" y="96.53846153846155" class="label" text-anchor="middle">42</text>
  <circle cx="334.54545454545456" cy="40.0" class="point"/>
  <text x="334.54545454545456" y="375" class="label" text-anchor="middle">2025-12-08</text>
  <text x="334.54545454545456" y="35.0" class="label" text-anchor="middle">52</text>
  <circle cx="345.45454545454544" cy="40.0" class="point"/>
  <text x="345.45454545454544" y="375" class="label" text-anchor="middle">2025-12-09</text>
  <text x="345.45454545454544" y="35.0" class="label" text-anchor="middle">52</text>
  <circle cx="356.3636363636364" cy="40.0" class="point"/>
  <text x="356.3636363636364" y="375" class="label" text-anchor="middle">2025-12-10</text>
  <text x="356.3636363636364" y="35.0" class="label" text-anchor="middle">52</text>
  <circle cx="367.27272727272725" cy="40.0" class="point"/>
  <text x="367.27272727272725" y="375" class="label" text-anchor="middle">2025-12-11</text>
  <text x="367.27272727272725" y="35.0" class="label" text-anchor="middle">52</text>
  <circle cx="378.1818181818182" cy="40.0" class="point"/>
  <text x="378.1818181818182" y="375" class="label" text-anchor="middle">2025-12-12</text>
  <text x="378.1818181818182" y="35.0" class="label" text-anchor="middle">52</text>
  <circle cx="389.0909090909091" cy="40.0" class="point"/>
  <text x="389.0909090909091" y="375" class="label" text-anchor="middle">2025-12-13</text>
  <text x="389.0909090909091" y="35.0" class="label" text-anchor="middle">52</text>
  <circle cx="400.0" cy="40.0" class="point"/>
  <text x="400.0" y="375" class="label" text-anchor="middle">2025-12-14</text>
  <text x="400.0" y="35.0" class="label" text-anchor="middle">52</text>
  <circle cx="410.9090909090909" cy="40.0" class="point"/>
  <text x="410.9090909090909" y="375" class="label" text-anchor="middle">2025-12-15</text>
  <text x="410.9090909090909" y="35.0" class="label" text-anchor="middle">52</text>
  <circle cx="421.8181818181818" cy="40.0" class="point"/>
  <text x="421.8181818181818" y="375" class="label" text-anchor="middle">2025-12-16</text>
  <text x="421.8181818181818" y="35.0" class="label" text-anchor="middle">52</text>
  <circle cx="432.7272727272727" cy="40.0" class="point"/>
  <text x="432.7272727272727" y="375" class="label" text-anchor="middle">2025-12-17</text>
  <text x="432.7272727272727" y="35.0" class="label" text-anchor="middle">52</text>
  <circle cx="443.6363636363636" cy="40.0" class="point"/>
  <text x="443.6363636363636" y="375" class="label" text-anchor="middle">2025-12-18</text>
  <text x="443.6363636363636" y="35.0" class="label" text-anchor="middle">52</text>
  <circle cx="454.54545454545456" cy="40.0" class="point"/>
  <text x="454.54545454545456" y="375" class="label" text-anchor="middle">2025-12-19</text>
  <text x="454.54545454545456" y="35.0" class="label" text-anchor="middle">52</text>
  <circle cx="465.4545454545455" cy="40.0" class="point"/>
  <text x="465.4545454545455" y="375" class="label" text-anchor="middle">2025-12-20</text>
  <text x="465.4545454545455" y="35.0" class="label" text-anchor="middle">52</text>
  <circle cx="476.3636363636364" cy="40.0" class="point"/>
  <text x="476.3636363636364" y="375" class="label" text-anchor="middle">2025-12-21</text>
  <text x="476.3636363636364" y="35.0" class="label" text-anchor="middle">52</text>
  <circle cx="487.27272727272725" cy="40.0" class="point"/>
  <text x="487.27272727272725" y="375" class="label" text-anchor="middle">2025-12-22</text>
  <text x="487.27272727272725" y="35.0" class="label" text-anchor="middle">52</text>
  <circle cx="498.1818181818182" cy="40.0" class="point"/>
  <text x="498.1818181818182" y="375" class="label" text-anchor="middle">2025-12-23</text>
  <text x="498.1818181818182" y="35.0" class="label" text-anchor="middle">52</text>
  <circle cx="509.09090909090907" cy="40.0" class="point"/>
  <text x="509.09090909090907" y="375" class="label" text-anchor="middle">2025-12-24</text>
  <text x="509.09090909090907" y="35.0" class="label" text-anchor="middle">52</text>
  <circle cx="520.0" cy="40.0" class="point"/>
  <text x="520.0" y="375" class="label" text-anchor="middle">2025-12-25</text>
  <text x="520.0" y="35.0" class="label" text-anchor="middle">52</text>
  <circle cx="530.9090909090909" cy="40.0" class="point"/>
  <text x="530.9090909090909" y="375" class="label" text-anchor="middle">2025-12-26</text>
  <text x="530.9090909090909" y="35.0" class="label" text-anchor="middle">52</text>
  <circle cx="541.8181818181819" cy="40.0" class="point"/>
  <text x="541.8181818181819" y="375" class="label" text-anchor="middle">2025-12-27</text>
  <text x="541.8181818181819" y="35.0" class="label" text-anchor="middle">52</text>
  <circle cx="552.7272727272727" cy="40.0" class="point"/>
  <text x="552.7272727272727" y="375" class="label" text-anchor="middle">2025-12-28</text>
  <text x="552.7272727272727" y="35.0" class="label" text-anchor="middle">52</text>
  <circle cx="563.6363636363636" cy="40.0" class="point"/>
  <text x="563.6363636363636" y="375" class="label" text-anchor="middle">2025-12-29</text>
  <text x="563.6363636363636" y="35.0" class="label" text-anchor="middle">52</text>
  <circle cx="574.5454545454545" cy="40.0" class="point"/>
  <text x="574.5454545454545" y="375" class="label" text-anchor="middle">2025-12-30</text>
  <text x="574.5454545454545" y="35.0" class="label" text-anchor="middle">52</text>
  <circle cx="585.4545454545455" cy="40.0" class="point"/>
  <text x="585.4545454545455" y="375" class="label" text-anchor="middle">2025-12-31</text>
  <text x="585.4545454545455" y="35.0" class="label" text-anchor="middle">52</text>
  <circle cx="596.3636363636364" cy="40.0" class="point"/>
  <text x="596.3636363636364" y="375" class="label" text-anchor="middle">2026-01-01</text>
  <text x="596.3636363636364" y="35.0" class="label" text-anchor="middle">52</text>
  <circle cx="607.2727272727273" cy="40.0" class="point"/>
  <text x="607.2727272727273" y="375" class="label" text-anchor="middle">2026-01-02</text>
  <text x="607.2727272727273" y="35.0" class="label" text-anchor="middle">52</text>
  <circle cx="618.1818181818181" cy="40.0" class="point"/>
  <text x="618.1818181818181" y="375" class="label" text-anchor="middle">2026-01-03</text>
  <text x="618.1818181818181" y="35.0" class="label" text-anchor="middle">52</text>
  <circle cx="629.0909090909091" cy="40.0" class="point"/>
  <text x="629.0909090909091" y="375" class="label" text-anchor="middle">2026-01-04</text>
  <text x="629.0909090909091" y="35.0" class="label" text-anchor="middle">52</text>
  <circle cx="640.0" cy="40.0" class="point"/>
  <text x="640.0" y="375" class="label" text-anchor="middle">2026-01-05</text>
  <text x="640.0" y="35.0" class="label" text-anchor="middle">52</text>
  <circle cx="650.9090909090909" cy="40.0" class="point"/>
  <text x="650.9090909090909" y="375" class="label" text-anchor="middle">2026-01-06</text>
  <text x="650.9090909090909" y="35.0" class="label" text-anchor="middle">52</text>
  <circle cx="661.8181818181819" cy="40.0" class="point"/>
  <text x="661.8181818181819" y="375" class="label" text-anchor="middle">2026-01-07</text>
  <text x="661.8181818181819" y="35.0" class="label" text-anchor="middle">52</text>
  <circle cx="672.7272727272727" cy="40.0" class="point"/>
  <text x="672.7272727272727" y="375" class="label" text-anchor="middle">2026-01-08</text>
  <text x="672.7272727272727" y="35.0" class="label" text-anchor="middle">52</text>
  <circle cx="683.6363636363636" cy="40.0" class="point"/>
  <text x="683.6363636363636" y="375" class="label" text-anchor="middle">2026-01-09</text>
  <text x="683.6363636363636" y="35.0" class="label" text-anchor="middle">52</text>
  <circle cx="694.5454545454545" cy="40.0" class="point"/>
  <text x="694.5454545454545" y="375" class="label" text-anchor="middle">2026-01-10</text>
  <text x="694.5454545454545" y="35.0" class="label" text-anchor="middle">52</text>
  <circle cx="705.4545454545454" cy="40.0" class="point"/>
  <text x="705.4545454545454" y="375" class="label" text-anchor="middle">2026-01-11</text>
  <text x="705.4545454545454" y="35.0" class="label" text-anchor="middle">52</text>
  <circle cx="716.3636363636364" cy="40.0" class="point"/>
  <text x="716.3636363636364" y="375" class="label" text-anchor="middle">2026-01-12</text>
  <text x="716.3636363636364" y="35.0" class="label" text-anchor="middle">52</text>
  <circle cx="727.2727272727273" cy="40.0" class="point"/>
  <text x="727.2727272727273" y="375" class="label" text-anchor="middle">2026-01-13</text>
  <text x="727.2727272727273" y="35.0" class="label" text-anchor="middle">52</text>
  <circle cx="738.1818181818182" cy="40.0" class="point"/>
  <text x="738.1818181818182" y="375" class="label" text-anchor="middle">2026-01-14</text>
  <text x="738.1818181818182" y="35.0" class="label" text-anchor="middle">52</text>
  <circle cx="749.0909090909091" cy="40.0" class="point"/>
  <text x="749.0909090909091" y="375" class="label" text-anchor="middle">2026-01-15</text>
  <text x="749.0909090909091" y="35.0" class="label" text-anchor="middle">52</text>
  <circle cx="760.0" cy="40.0" class="point"/>
  <text x="760.0" y="375" class="label" text-anchor="middle">2026-01-16</text>
  <text x="760.0" y="35.0" class="label" text-anchor="middle">52</text>
  <text x="30" y="363.0" class="label" text-anchor="end">0</text>
  <text x="30" y="301.46153846153845" class="label" text-anchor="end">10</text>
  <text x="30" y="239.9230769230769" class="label" text-anchor="end">20</text>
  <text x="30" y="178.38461538461542" class="label" text-anchor="end">30</text>
  <text x="30" y="116.84615384615384" class="label" text-anchor="end">40</text>
  <text x="30" y="55.30769230769232" class="label" text-anchor="end">50</text>
</svg>