<svg xmlns="http://www.w3.org/2000/svg" width="800" height="400" viewBox="0 0 800 400">
  <style>
    .axis{stroke:#666;stroke-width:1}
    .line{stroke:#4a9;stroke-width:2;fill:none}
    .point{fill:#4a9;r:4}
    .label{font:10px sans-serif;fill:#aaa}
    .title{font:14px sans-serif;fill:#333}
  </style>
  <text x="400" y="20" class="title" text-anchor="middle">OPIC Field Growth Timeline</text>
  <line x1="40" y1="40" x2="40" y2="360" class="axis"/>
  <line x1="40" y1="360" x2="760" y2="360" class="axis"/>
  <path d="M 40.0,101.53846153846155 L 49.473684210526315,101.53846153846155 L 58.94736842105263,101.53846153846155 L 68.42105263157895,101.53846153846155 L 77.89473684210526,101.53846153846155 L 87.36842105263158,101.53846153846155 L 96.84210526315789,101.53846153846155 L 106.3157894736842,101.53846153846155 L 115.78947368421052,101.53846153846155 L 125.26315789473684,101.53846153846155 L 134.73684210526315,101.53846153846155 L 144.21052631578948,101.53846153846155 L 153.68421052631578,101.53846153846155 L 163.1578947368421,101.53846153846155 L 172.6315789473684,101.53846153846155 L 182.10526315789474,101.53846153846155 L 191.57894736842104,101.53846153846155 L 201.05263157894737,101.53846153846155 L 210.52631578947367,101.53846153846155 L 220.0,101.53846153846155 L 229.4736842105263,101.53846153846155 L 238.94736842105266,101.53846153846155 L 248.42105263157896,101.53846153846155 L 257.89473684210526,101.53846153846155 L 267.36842105263156,101.53846153846155 L 276.8421052631579,101.53846153846155 L 286.3157894736842,101.53846153846155 L 295.7894736842105,40.0 L 305.2631578947368,40.0 L 314.7368421052632,40.0 L 324.2105263157895,40.0 L 333.6842105263158,40.0 L 343.1578947368421,40.0 L 352.63157894736844,40.0 L 362.10526315789474,40.0 L 371.57894736842104,40.0 L 381.05263157894734,40.0 L 390.5263157894737,40.0 L 400.0,40.0 L 409.47368421052636,40.0 L 418.9473684210526,40.0 L 428.42105263157896,40.0 L 437.8947368421053,40.0 L 447.36842105263156,40.0 L 456.8421052631579,40.0 L 466.31578947368416,40.0 L 475.7894736842105,40.0 L 485.2631578947369,40.0 L 494.7368421052631,40.0 L 504.2105263157895,40.0 L 513.6842105263158,40.0 L 523.1578947368421,40.0 L 532.6315789473684,40.0 L 542.1052631578947,40.0 L 551.578947368421,40.0 L 561.0526315789474,40.0 L 570.5263157894736,40.0 L 580.0,40.0 L 589.4736842105264,40.0 L 598.9473684210526,40.0 L 608.421052631579,40.0 L 617.8947368421053,40.0 L 627.3684210526316,40.0 L 636.8421052631579,40.0 L 646.3157894736842,40.0 L 655.7894736842105,40.0 L 665.2631578947369,40.0 L 674.7368421052631,40.0 L 684.2105263157895,40.0 L 693.6842105263158,40.0 L 703.1578947368421,40.0 L 712.6315789473684,40.0 L 722.1052631578947,40.0 L 731.578947368421,40.0 L 741.0526315789474,40.0 L 750.5263157894736,40.0 L 760.0,40.0" class="line"/>
  <circle cx="40.0" cy="101.53846153846155" class="point"/>
  <text x="40.0" y="375" class="label" text-anchor="middle">2025-11-11</text>
  <text x="40.0" y="96.53846153846155" class="label" text-anchor="middle">42</text>
  <circle cx="49.473684210526315" cy="101.53846153846155" class="point"/>
  <text x="49.473684210526315" y="375" class="label" text-anchor="middle">2025-11-12</text>
  <text x="49.473684210526315" y="96.53846153846155" class="label" text-anchor="middle">42</text>
  <circle cx="58.94736842105263" cy="101.53846153846155" class="point"/>
  <text x="58.94736842105263" y="375" class="label" text-anchor="middle">2025-11-13</text>
  <text x="58.94736842105263" y="96.53846153846155" class="label" text-anchor="middle">42</text>
  <circle cx="68.42105263157895" cy="101.53846153846155" class="point"/>
  <text x="68.42105263157895" y="375" class="label" text-anchor="middle">2025-11-14</text>
  <text x="68.42105263157895" y="96.53846153846155" class="label" text-anchor="middle">42</text>
  <circle cx="77.89473684210526" cy="101.53846153846155" class="point"/>
  <text x="77.89473684210526" y="375" class="label" text-anchor="middle">2025-11-15</text>
  <text x="77.89473684210526" y="96.53846153846155" class="label" text-anchor="middle">42</text>
  <circle cx="87.36842105263158" cy="101.53846153846155" class="point"/>
  <text x="87.36842105263158" y="375" class="label" text-anchor="middle">2025-11-16</text>
  <text x="87.36842105263158" y="96.53846153846155" class="label" text-anchor="middle">42</text>
  <circle cx="96.84210526315789" cy="101.53846153846155" class="point"/>
  <text x="96.84210526315789" y="375" class="label" text-anchor="middle">2025-11-17</text>
  <text x="96.84210526315789" y="96.53846153846155" class="label" text-anchor="middle">42</text>
  <circle cx="106.3157894736842" cy="101.53846153846155" class="point"/>
  <text x="106.3157894736842" y="375" class="label" text-anchor="middle">2025-11-18</text>
  <text x="106.3157894736842" y="96.53846153846155" class="label" text-anchor="middle">42</text>
  <circle cx="115.78947368421052" cy="101.53846153846155" class="point"/>
  <text x="115.78947368421052" y="375" class="label" text-anchor="middle">2025-11-19</text>
  <text x="115.78947368421052" y="96.53846153846155" class="label" text-anchor="middle">42</text>
  <circle cx="125.26315789473684" cy="101.53846153846155" class="point"/>
  <text x="125.26315789473684" y="375" class="label" text-anchor="middle">2025-11-20</text>
  <text x="125.26315789473684" y="96.53846153846155" class="label" text-anchor="middle">42</text>
  <circle cx="134.73684210526315" cy="101.53846153846155" class="point"/>
  <text x="134.73684210526315" y="375" class="label" text-anchor="middle">2025-11-21</text>
  <text x="134.73684210526315" y="96.53846153846155" class="label" text-anchor="middle">42</text>
  <circle cx="144.21052631578948" cy="101.53846153846155" class="point"/>
  <text x="144.21052631578948" y="375" class="label" text-anchor="middle">2025-11-22</text>
  <text x="144.21052631578948" y="96.53846153846155" class="label" text-anchor="middle">42</text>
  <circle cx="153.68421052631578" cy="101.53846153846155" class="point"/>
  <text x="153.68421052631578" y="375" class="label" text-anchor="middle">2025-11-23</text>
  <text x="153.68421052631578" y="96.53846153846155" class="label" text-anchor="middle">42</text>
  <circle cx="163.1578947368421" cy="101.53846153846155" class="point"/>
  <text x="163.1578947368421" y="375" class="label" text-anchor="middle">2025-11-24</text>
  <text x="163.1578947368421" y="96.53846153846155" class="label" text-anchor="middle">42</text>
  <circle cx="172.6315789473684" cy="101.53846153846155" class="point"/>
  <text x="172.6315789473684" y="375" class="label" text-anchor="middle">2025-11-25</text>
  <text x="172.6315789473684" y="96.53846153846155" class="label" text-anchor="middle">42</text>
  <circle cx="182.10526315789474" cy="101.53846153846155" class="point"/>
  <text x="182.10526315789474" y="375" class="label" text-anchor="middle">2025-11-26</text>
  <text x="182.10526315789474" y="96.53846153846155" class="label" text-anchor="middle">42</text>
  <circle cx="191.57894736842104" cy="101.53846153846155" class="point"/>
  <text x="191.57894736842104" y="375" class="label" text-anchor="middle">2025-11-27</text>
  <text x="191.57894736842104" y="96.53846153846155" class="label" text-anchor="middle">42</text>
  <circle cx="201.05263157894737" cy="101.53846153846155" class="point"/>
  <text x="201.05263157894737" y="375" class="label" text-anchor="middle">2025-11-28</text>
  <text x="201.05263157894737" y="96.53846153846155" class="label" text-anchor="middle">42</text>
  <circle cx="210.52631578947367" cy="101.53846153846155" class="point"/>
  <text x="210.52631578947367" y="375" class="label" text-anchor="middle">2025-11-29</text>
  <text x="210.52631578947367" y="96.53846153846155" class="label" text-anchor="middle">42</text>
  <circle cx="220.0" cy="101.53846153846155" class="point"/>
  <text x="220.0" y="375" class="label" text-anchor="middle">2025-11-30</text>
  <text x="220.0" y="96.53846153846155" class="label" text-anchor="middle">42</text>
  <circle cx="229.4736842105263" cy="101.53846153846155" class="point"/>
  <text x="229.4736842105263" y="375" class="label" text-anchor="middle">2025-12-01</text>
  <text x="229.4736842105263" y="96.53846153846155" class="label" text-anchor="middle">42</text>
  <circle cx="238.94736842105266" cy="101.53846153846155" class="point"/>
  <text x="238.94736842105266" y="375" class="label" text-anchor="middle">2025-12-02</text>
  <text x="238.94736842105266" y="96.53846153846155" class="label" text-anchor="middle">42</text>
  <circle cx="248.42105263157896" cy="101.53846153846155" class="point"/>
  <text x="248.42105263157896" y="375" class="label" text-anchor="middle">2025-12-03</text>
  <text x="248.42105263157896" y="96.53846153846155" class="label" text-anchor="middle">42</text>
  <circle cx="257.89473684210526" cy="101.53846153846155" class="point"/>
  <text x="257.89473684210526" y="375" class="label" text-anchor="middle">2025-12-04</text>
  <text x="257.89473684210526" y="96.53846153846155" class="label" text-anchor="middle">42</text>
  <circle cx="267.36842105263156" cy="101.53846153846155" class="point"/>
  <text x="267.36842105263156" y="375" class="label" text-anchor="middle">2025-12-05</text>
  <text x="267.36842105263156" y="96.53846153846155" class="label" text-anchor="middle">42</text>
  <circle cx="276.8421052631579" cy="101.53846153846155" class="point"/>
  <text x="276.8421052631579" y="375" class="label" text-anchor="middle">2025-12-06</text>
  <text x="276.8421052631579" y="96.53846153846155" class="label" text-anchor="middle">42</text>
  <circle cx="286.3157894736842" cy="101.53846153846155" class="point"/>
  <text x="286.3157894736842" y="375" class="label" text-anchor="middle">2025-12-07</text>
  <text x="286.3157894736842" y="96.53846153846155" class="label" text-anchor="middle">42</text>
  <circle cx="295.7894736842105" cy="40.0" class="point"/>
  <text x="295.7894736842105" y="375" class="label" text-anchor="middle">2025-12-08</text>
  <text x="295.7894736842105" y="35.0" class="label" text-anchor="middle">52</text>
  <circle cx="305.2631578947368" cy="40.0" class="point"/>
  <text x="305.2631578947368" y="375" class="label" text-anchor="middle">2025-12-09</text>
  <text x="305.2631578947368" y="35.0" class="label" text-anchor="middle">52</text>
  <circle cx="314.7368421052632" cy="40.0" class="point"/>
  <text x="314.7368421052632" y="375" class="label" text-anchor="middle">2025-12-10</text>
  <text x="314.7368421052632" y="35.0" class="label" text-anchor="middle">52</text>
  <circle cx="324.2105263157895" cy="40.0" class="point"/>
  <text x="324.2105263157895" y="375" class="label" text-anchor="middle">2025-12-11</text>
  <text x="324.2105263157895" y="35.0" class="label" text-anchor="middle">52</text>
  <circle cx="333.6842105263158" cy="40.0" class="point"/>
  <text x="333.6842105263158" y="375" class="label" text-anchor="middle">2025-12-12</text>
  <text x="333.6842105263158" y="35.0" class="label" text-anchor="middle">52</text>
  <circle cx="343.1578947368421" cy="40.0" class="point"/>
  <text x="343.1578947368421" y="375" class="label" text-anchor="middle">2025-12-13</text>
  <text x="343.1578947368421" y="35.0" class="label" text-anchor="middle">52</text>
  <circle cx="352.63157894736844" cy="40.0" class="point"/>
  <text x="352.63157894736844" y="375" class="label" text-anchor="middle">2025-12-14</text>
  <text x="352.63157894736844" y="35.0" class="label" text-anchor="middle">52</text>
  <circle cx="362.10526315789474" cy="40.0" class="point"/>
  <text x="362.10526315789474" y="375" class="label" text-anchor="middle">2025-12-15</text>
  <text x="362.10526315789474" y="35.0" class="label" text-anchor="middle">52</text>
  <circle cx="371.57894736842104" cy="40.0" class="point"/>
  <text x="371.57894736842104" y="375" class="label" text-anchor="middle">2025-12-16</text>
  <text x="371.57894736842104" y="35.0" class="label" text-anchor="middle">52</text>
  <circle cx="381.05263157894734" cy="40.0" class="point"/>
  <text x="381.05263157894734" y="375" class="label" text-anchor="middle">2025-12-17</text>
  <text x="381.05263157894734" y="35.0" class="label" text-anchor="middle">52</text>
  <circle cx="390.5263157894737" cy="40.0" class="point"/>
  <text x="390.5263157894737" y="375" class="label" text-anchor="middle">2025-12-18</text>
  <text x="390.5263157894737" y="35.0" class="label" text-anchor="middle">52</text>
  <circle cx="400.0" cy="40.0" class="point"/>
  <text x="400.0" y="375" class="label" text-anchor="middle">2025-12-19</text>
  <text x="400.0" y="35.0" class="label" text-anchor="middle">52</text>
  <circle cx="409.47368421052636" cy="40.0" class="point"/>
  <text x="409.47368421052636" y="375" class="label" text-anchor="middle">2025-12-20</text>
  <text x="409.47368421052636" y="35.0" class="label" text-anchor="middle">52</text>
  <circle cx="418.9473684210526" cy="40.0" class="point"/>
  <text x="418.9473684210526" y="375" class="label" text-anchor="middle">2025-12-21</text>
  <text x="418.9473684210526" y="35.0" class="label" text-anchor="middle">52</text>
  <circle cx="428.42105263157896" cy="40.0" class="point"/>
  <text x="428.42105263157896" y="375" class="label" text-anchor="middle">2025-12-22</text>
  <text x="428.42105263157896" y="35.0" class="label" text-anchor="middle">52</text>
  <circle cx="437.8947368421053" cy="40.0" class="point"/>
  <text x="437.8947368421053" y="375" class="label" text-anchor="middle">2025-12-23</text>
  <text x="437.8947368421053" y="35.0" class="label" text-anchor="middle">52</text>
  <circle cx="447.36842105263156" cy="40.0" class="point"/>
  <text x="447.36842105263156" y="375" class="label" text-anchor="middle">2025-12-24</text>
  <text x="447.36842105263156" y="35.0" class="label" text-anchor="middle">52</text>
  <circle cx="456.8421052631579" cy="40.0" class="point"/>
  <text x="456.8421052631579" y="375" class="label" text-anchor="middle">2025-12-25</text>
  <text x="456.8421052631579" y="35.0" class="label" text-anchor="middle">52</text>
  <circle cx="466.31578947368416" cy="40.0" class="point"/>
  <text x="466.31578947368416" y="375" class="label" text-anchor="middle">2025-12-26</text>
  <text x="466.31578947368416" y="35.0" class="label" text-anchor="middle">52</text>
  <circle cx="475.7894736842105" cy="40.0" class="point"/>
  <text x="475.7894736842105" y="375" class="label" text-anchor="middle">2025-12-27</text>
  <text x="475.7894736842105" y="35.0" class="label" text-anchor="middle">52</text>
  <circle cx="485.2631578947369" cy="40.0" class="point"/>
  <text x="485.2631578947369" y="375" class="label" text-anchor="middle">2025-12-28</text>
  <text x="485.2631578947369" y="35.0" class="label" text-anchor="middle">52</text>
  <circle cx="494.7368421052631" cy="40.0" class="point"/>
  <text x="494.7368421052631" y="375" class="label" text-anchor="middle">2025-12-29</text>
  <text x="494.7368421052631" y="35.0" class="label" text-anchor="middle">52</text>
  <circle cx="504.2105263157895" cy="40.0" class="point"/>
  <text x="504.2105263157895" y="375" class="label" text-anchor="middle">2025-12-30</text>
  <text x="504.2105263157895" y="35.0" class="label" text-anchor="middle">52</text>
  <circle cx="513.6842105263158" cy="40.0" class="point"/>
  <text x="513.6842105263158" y="375" class="label" text-anchor="middle">2025-12-31</text>
  <text x="513.6842105263158" y="35.0" class="label" text-anchor="middle">52</text>
  <circle cx="523.1578947368421" cy="40.0" class="point"/>
  <text x="523.1578947368421" y="375" class="label" text-anchor="middle">2026-01-01</text>
  <text x="523.1578947368421" y="35.0" class="label" text-anchor="middle">52</text>
  <circle cx="532.6315789473684" cy="40.0" class="point"/>
  <text x="532.6315789473684" y="375" class="label" text-anchor="middle">2026-01-02</text>
  <text x="532.6315789473684" y="35.0" class="label" text-anchor="middle">52</text>
  <circle cx="542.1052631578947" cy="40.0" class="point"/>
  <text x="542.1052631578947" y="375" class="label" text-anchor="middle">2026-01-03</text>
  <text x="542.1052631578947" y="35.0" class="label" text-anchor="middle">52</text>
  <circle cx="551.578947368421" cy="40.0" class="point"/>
  <text x="551.578947368421" y="375" class="label" text-anchor="middle">2026-01-04</text>
  <text x="551.578947368421" y="35.0" class="label" text-anchor="middle">52</text>
  <circle cx="561.0526315789474" cy="40.0" class="point"/>
  <text x="561.0526315789474" y="375" class="label" text-anchor="middle">2026-01-05</text>
  <text x="561.0526315789474" y="35.0" class="label" text-anchor="middle">52</text>
  <circle cx="570.5263157894736" cy="40.0" class="point"/>
  <text x="570.5263157894736" y="375" class="label" text-anchor="middle">2026-01-06</text>
  <text x="570.5263157894736" y="35.0" class="label" text-anchor="middle">52</text>
  <circle cx="580.0" cy="40.0" class="point"/>
  <text x="580.0" y="375" class="label" text-anchor="middle">2026-01-07</text>
  <text x="580.0" y="35.0" class="label" text-anchor="middle">52</text>
  <circle cx="589.4736842105264" cy="40.0" class="point"/>
  <text x="589.4736842105264" y="375" class="label" text-anchor="middle">2026-01-08</text>
  <text x="589.4736842105264" y="35.0" class="label" text-anchor="middle">52</text>
  <circle cx="598.9473684210526" cy="40.0" class="point"/>
  <text x="598.9473684210526" y="375" class="label" text-anchor="middle">2026-01-09</text>
  <text x="598.9473684210526" y="35.0" class="label" text-anchor="middle">52</text>
  <circle cx="608.421052631579" cy="40.0" class="point"/>
  <text x="608.421052631579" y="375" class="label" text-anchor="middle">2026-01-10</text>
  <text x="608.421052631579" y="35.0" class="label" text-anchor="middle">52</text>
  <circle cx="617.8947368421053" cy="40.0" class="point"/>
  <text x="617.8947368421053" y="375" class="label" text-anchor="middle">2026-01-11</text>
  <text x="617.8947368421053" y="35.0" class="label" text-anchor="middle">52</text>
  <circle cx="627.3684210526316" cy="40.0" class="point"/>
  <text x="627.3684210526316" y="375" class="label" text-anchor="middle">2026-01-12</text>
  <text x="627.3684210526316" y="35.0" class="label" text-anchor="middle">52</text>
  <circle cx="636.8421052631579" cy="40.0" class="point"/>
  <text x="636.8421052631579" y="375" class="label" text-anchor="middle">2026-01-13</text>
  <text x="636.8421052631579" y="35.0" class="label" text-anchor="middle">52</text>
  <circle cx="646.3157894736842" cy="40.0" class="point"/>
  <text x="646.3157894736842" y="375" class="label" text-anchor="middle">2026-01-14</text>
  <text x="646.3157894736842" y="35.0" class="label" text-anchor="middle">52</text>
  <circle cx="655.7894736842105" cy="40.0" class="point"/>
  <text x="655.7894736842105" y="375" class="label" text-anchor="middle">2026-01-15</text>
  <text x="655.7894736842105" y="35.0" class="label" text-anchor="middle">52</text>
  <circle cx="665.2631578947369" cy="40.0" class="point"/>
  <text x="665.2631578947369" y="375" class="label" text-anchor="middle">2026-01-16</text>
  <text x="665.2631578947369" y="35.0" class="label" text-anchor="middle">52</text>
  <circle cx="674.7368421052631" cy="40.0" class="point"/>
  <text x="674.7368421052631" y="375" class="label" text-anchor="middle">2026-01-17</text>
  <text x="674.7368421052631" y="35.0" class="label" text-anchor="middle">52</text>
  <circle cx="684.2105263157895" cy="40.0" class="point"/>
  <text x="684.2105263157895" y="375" class="label" text-anchor="middle">2026-01-18</text>
  <text x="684.2105263157895" y="35.0" class="label" text-anchor="middle">52</text>
  <circle cx="693.6842105263158" cy="40.0" class="point"/>
  <text x="693.6842105263158" y="375" class="label" text-anchor="middle">2026-01-19</text>
  <text x="693.6842105263158" y="35.0" class="label" text-anchor="middle">52</text>
  <circle cx="703.1578947368421" cy="40.0" class="point"/>
  <text x="703.1578947368421" y="375" class="label" text-anchor="middle">2026-01-20</text>
  <text x="703.1578947368421" y="35.0" class="label" text-anchor="middle">52</text>
  <circle cx="712.6315789473684" cy="40.0" class="point"/>
  <text x="712.6315789473684" y="375" class="label" text-anchor="middle">2026-01-21</text>
  <text x="712.6315789473684" y="35.0" class="label" text-anchor="middle">52</text>
  <circle cx="722.1052631578947" cy="40.0" class="point"/>
  <text x="722.1052631578947" y="375" class="label" text-anchor="middle">2026-01-22</text>
  <text x="722.1052631578947" y="35.0" class="label" text-anchor="middle">52</text>
  <circle cx="731.578947368421" cy="40.0" class="point"/>
  <text x="731.578947368421" y="375" class="label" text-anchor="middle">2026-01-23</text>
  <text x="731.578947368421" y="35.0" class="label" text-anchor="middle">52</text>
  <circle cx="741.0526315789474" cy="40.0" class="point"/>
  <text x="741.0526315789474" y="375" class="label" text-anchor="middle">2026-01-24</text>
  <text x="741.0526315789474" y="35.0" class="label" text-anchor="middle">52</text>
  <circle cx="750.5263157894736" cy="40.0" class="point"/>
  <text x="750.5263157894736" y="375" class="label" text-anchor="middle">2026-01-25</text>
  <text x="750.5263157894736" y="35.0" class="label" text-anchor="middle">52</text>
  <circle cx="760.0" cy="40.0" class="point"/>
  <text x="760.0" y="375" class="label" text-anchor="middle">2026-01-26</text>
  <text x="760.0" y="35.0" class="label" text-anchor="middle">52</text>
  <text x="30" y="363.0" class="label" text-anchor="end">0</text>
  <text x="30" y="301.46153846153845" class="label" text-anchor="end">10</text>
  <text x="30" y="239.9230769230769" class="label" text-anchor="end">20</text>
  <text x="30" y="178.38461538461542" class="label" text-anchor="end">30</text>
  <text x="30" y="116.84615384615384" class="label" text-anchor="end">40</text>
  <text x="30" y="55.30769230769232" class="label" text-anchor="end">50</text>
</svg>