<svg xmlns="http://www.w3.org/2000/svg" width="800" height="400" viewBox="0 0 800 400">
  <style>
    .axis{stroke:#666;stroke-width:1}
    .line{stroke:#4a9;stroke-width:2;fill:none}
    .point{fill:#4a9;r:4}
    .label{font:10px sans-serif;fill:#aaa}
    .title{font:14px sans-serif;fill:#333}
  </style>
  <text x="400" y="20" class="title" text-anchor="middle">OPIC Field Growth Timeline</text>
  <line x1="40" y1="40" x2="40" y2="360" class="axis"/>
  <line x1="40" y1="360" x2="760" y2="360" class="axis"/>
  <path d="M 40.0,101.53846153846155 L 46.85714285714286,101.53846153846155 L 53.714285714285715,101.53846153846155 L 60.57142857142857,101.53846153846155 L 67.42857142857143,101.53846153846155 L 74.28571428571428,101.53846153846155 L 81.14285714285714,101.53846153846155 L 88.0,101.53846153846155 L 94.85714285714286,101.53846153846155 L 101.71428571428572,101.53846153846155 L 108.57142857142857,101.53846153846155 L 115.42857142857143,101.53846153846155 L 122.28571428571428,101.53846153846155 L 129.14285714285714,101.53846153846155 L 136.0,101.53846153846155 L 142.85714285714283,101.53846153846155 L 149.71428571428572,101.53846153846155 L 156.57142857142858,101.53846153846155 L 163.42857142857144,101.53846153846155 L 170.28571428571428,101.53846153846155 L 177.14285714285714,101.53846153846155 L 184.0,101.53846153846155 L 190.85714285714286,101.53846153846155 L 197.71428571428572,101.53846153846155 L 204.57142857142856,101.53846153846155 L 211.42857142857142,101.53846153846155 L 218.28571428571428,101.53846153846155 L 225.1428571428571,40.0 L 232.0,40.0 L 238.85714285714286,40.0 L 245.7142857142857,40.0 L 252.57142857142858,40.0 L 259.42857142857144,40.0 L 266.2857142857143,40.0 L 273.14285714285717,40.0 L 280.0,40.0 L 286.8571428571429,40.0 L 293.7142857142857,40.0 L 300.57142857142856,40.0 L 307.42857142857144,40.0 L 314.2857142857143,40.0 L 321.14285714285717,40.0 L 328.0,40.0 L 334.85714285714283,40.0 L 341.7142857142857,40.0 L 348.57142857142856,40.0 L 355.42857142857144,40.0 L 362.2857142857143,40.0 L 369.1428571428571,40.0 L 376.0,40.0 L 382.85714285714283,40.0 L 389.7142857142857,40.0 L 396.57142857142856,40.0 L 403.42857142857144,40.0 L 410.2857142857142,40.0 L 417.14285714285717,40.0 L 424.0,40.0 L 430.85714285714283,40.0 L 437.7142857142857,40.0 L 444.57142857142856,40.0 L 451.4285714285714,40.0 L 458.28571428571433,40.0 L 465.14285714285717,40.0 L 472.0,40.0 L 478.8571428571429,40.0 L 485.7142857142857,40.0 L 492.57142857142856,40.0 L 499.4285714285714,40.0 L 506.28571428571433,40.0 L 513.1428571428571,40.0 L 520.0,40.0 L 526.8571428571429,40.0 L 533.7142857142858,40.0 L 540.5714285714286,40.0 L 547.4285714285714,40.0 L 554.2857142857143,40.0 L 561.1428571428571,40.0 L 568.0,40.0 L 574.8571428571429,40.0 L 581.7142857142857,40.0 L 588.5714285714286,40.0 L 595.4285714285714,40.0 L 602.2857142857143,40.0 L 609.1428571428571,40.0 L 616.0,40.0 L 622.8571428571429,40.0 L 629.7142857142857,40.0 L 636.5714285714286,40.0 L 643.4285714285714,40.0 L 650.2857142857142,40.0 L 657.1428571428571,40.0 L 664.0,40.0 L 670.8571428571429,40.0 L 677.7142857142857,40.0 L 684.5714285714286,40.0 L 691.4285714285714,40.0 L 698.2857142857142,40.0 L 705.1428571428572,40.0 L 712.0,40.0 L 718.8571428571429,40.0 L 725.7142857142857,40.0 L 732.5714285714286,40.0 L 739.4285714285714,40.0 L 746.2857142857142,40.0 L 753.1428571428571,40.0 L 760.0,40.0" class="line"/>
  <circle cx="40.0" cy="101.53846153846155" class="point"/>
  <text x="40.0" y="375" class="label" text-anchor="middle">2025-11-11</text>
  <text x="40.0" y="96.53846153846155" class="label" text-anchor="middle">42</text>
  <circle cx="46.85714285714286" cy="101.53846153846155" class="point"/>
  <text x="46.85714285714286" y="375" class="label" text-anchor="middle">2025-11-12</text>
  <text x="46.85714285714286" y="96.53846153846155" class="label" text-anchor="middle">42</text>
  <circle cx="53.714285714285715" cy="101.53846153846155" class="point"/>
  <text x="53.714285714285715" y="375" class="label" text-anchor="middle">2025-11-13</text>
  <text x="53.714285714285715" y="96.53846153846155" class="label" text-anchor="middle">42</text>
  <circle cx="60.57142857142857" cy="101.53846153846155" class="point"/>
  <text x="60.57142857142857" y="375" class="label" text-anchor="middle">2025-11-14</text>
  <text x="60.57142857142857" y="96.53846153846155" class="label" text-anchor="middle">42</text>
  <circle cx="67.42857142857143" cy="101.53846153846155" class="point"/>
  <text x="67.42857142857143" y="375" class="label" text-anchor="middle">2025-11-15</text>
  <text x="67.42857142857143" y="96.53846153846155" class="label" text-anchor="middle">42</text>
  <circle cx="74.28571428571428" cy="101.53846153846155" class="point"/>
  <text x="74.28571428571428" y="375" class="label" text-anchor="middle">2025-11-16</text>
  <text x="74.28571428571428" y="96.53846153846155" class="label" text-anchor="middle">42</text>
  <circle cx="81.14285714285714" cy="101.53846153846155" class="point"/>
  <text x="81.14285714285714" y="375" class="label" text-anchor="middle">2025-11-17</text>
  <text x="81.14285714285714" y="96.53846153846155" class="label" text-anchor="middle">42</text>
  <circle cx="88.0" cy="101.53846153846155" class="point"/>
  <text x="88.0" y="375" class="label" text-anchor="middle">2025-11-18</text>
  <text x="88.0" y="96.53846153846155" class="label" text-anchor="middle">42</text>
  <circle cx="94.85714285714286" cy="101.53846153846155" class="point"/>
  <text x="94.85714285714286" y="375" class="label" text-anchor="middle">2025-11-19</text>
  <text x="94.85714285714286" y="96.53846153846155" class="label" text-anchor="middle">42</text>
  <circle cx="101.71428571428572" cy="101.53846153846155" class="point"/>
  <text x="101.71428571428572" y="375" class="label" text-anchor="middle">2025-11-20</text>
  <text x="101.71428571428572" y="96.53846153846155" class="label" text-anchor="middle">42</text>
  <circle cx="108.57142857142857" cy="101.53846153846155" class="point"/>
  <text x="108.57142857142857" y="375" class="label" text-anchor="middle">2025-11-21</text>
  <text x="108.57142857142857" y="96.53846153846155" class="label" text-anchor="middle">42</text>
  <circle cx="115.42857142857143" cy="101.53846153846155" class="point"/>
  <text x="115.42857142857143" y="375" class="label" text-anchor="middle">2025-11-22</text>
  <text x="115.42857142857143" y="96.53846153846155" class="label" text-anchor="middle">42</text>
  <circle cx="122.28571428571428" cy="101.53846153846155" class="point"/>
  <text x="122.28571428571428" y="375" class="label" text-anchor="middle">2025-11-23</text>
  <text x="122.28571428571428" y="96.53846153846155" class="label" text-anchor="middle">42</text>
  <circle cx="129.14285714285714" cy="101.53846153846155" class="point"/>
  <text x="129.14285714285714" y="375" class="label" text-anchor="middle">2025-11-24</text>
  <text x="129.14285714285714" y="96.53846153846155" class="label" text-anchor="middle">42</text>
  <circle cx="136.0" cy="101.53846153846155" class="point"/>
  <text x="136.0" y="375" class="label" text-anchor="middle">2025-11-25</text>
  <text x="136.0" y="96.53846153846155" class="label" text-anchor="middle">42</text>
  <circle cx="142.85714285714283" cy="101.53846153846155" class="point"/>
  <text x="142.85714285714283" y="375" class="label" text-anchor="middle">2025-11-26</text>
  <text x="142.85714285714283" y="96.53846153846155" class="label" text-anchor="middle">42</text>
  <circle cx="149.71428571428572" cy="101.53846153846155" class="point"/>
  <text x="149.71428571428572" y="375" class="label" text-anchor="middle">2025-11-27</text>
  <text x="149.71428571428572" y="96.53846153846155" class="label" text-anchor="middle">42</text>
  <circle cx="156.57142857142858" cy="101.53846153846155" class="point"/>
  <text x="156.57142857142858" y="375" class="label" text-anchor="middle">2025-11-28</text>
  <text x="156.57142857142858" y="96.53846153846155" class="label" text-anchor="middle">42</text>
  <circle cx="163.42857142857144" cy="101.53846153846155" class="point"/>
  <text x="163.42857142857144" y="375" class="label" text-anchor="middle">2025-11-29</text>
  <text x="163.42857142857144" y="96.53846153846155" class="label" text-anchor="middle">42</text>
  <circle cx="170.28571428571428" cy="101.53846153846155" class="point"/>
  <text x="170.28571428571428" y="375" class="label" text-anchor="middle">2025-11-30</text>
  <text x="170.28571428571428" y="96.53846153846155" class="label" text-anchor="middle">42</text>
  <circle cx="177.14285714285714" cy="101.53846153846155" class="point"/>
  <text x="177.14285714285714" y="375" class="label" text-anchor="middle">2025-12-01</text>
  <text x="177.14285714285714" y="96.53846153846155" class="label" text-anchor="middle">42</text>
  <circle cx="184.0" cy="101.53846153846155" class="point"/>
  <text x="184.0" y="375" class="label" text-anchor="middle">2025-12-02</text>
  <text x="184.0" y="96.53846153846155" class="label" text-anchor="middle">42</text>
  <circle cx="190.85714285714286" cy="101.53846153846155" class="point"/>
  <text x="190.85714285714286" y="375" class="label" text-anchor="middle">2025-12-03</text>
  <text x="190.85714285714286" y="96.53846153846155" class="label" text-anchor="middle">42</text>
  <circle cx="197.71428571428572" cy="101.53846153846155" class="point"/>
  <text x="197.71428571428572" y="375" class="label" text-anchor="middle">2025-12-04</text>
  <text x="197.71428571428572" y="96.53846153846155" class="label" text-anchor="middle">42</text>
  <circle cx="204.57142857142856" cy="101.53846153846155" class="point"/>
  <text x="204.57142857142856" y="375" class="label" text-anchor="middle">2025-12-05</text>
  <text x="204.57142857142856" y="96.53846153846155" class="label" text-anchor="middle">42</text>
  <circle cx="211.42857142857142" cy="101.53846153846155" class="point"/>
  <text x="211.42857142857142" y="375" class="label" text-anchor="middle">2025-12-06</text>
  <text x="211.42857142857142" y="96.53846153846155" class="label" text-anchor="middle">42</text>
  <circle cx="218.28571428571428" cy="101.53846153846155" class="point"/>
  <text x="218.28571428571428" y="375" class="label" text-anchor="middle">2025-12-07</text>
  <text x="218.28571428571428" y="96.53846153846155" class="label" text-anchor="middle">42</text>
  <circle cx="225.1428571428571" cy="40.0" class="point"/>
  <text x="225.1428571428571" y="375" class="label" text-anchor="middle">2025-12-08</text>
  <text x="225.1428571428571" y="35.0" class="label" text-anchor="middle">52</text>
  <circle cx="232.0" cy="40.0" class="point"/>
  <text x="232.0" y="375" class="label" text-anchor="middle">2025-12-09</text>
  <text x="232.0" y="35.0" class="label" text-anchor="middle">52</text>
  <circle cx="238.85714285714286" cy="40.0" class="point"/>
  <text x="238.85714285714286" y="375" class="label" text-anchor="middle">2025-12-10</text>
  <text x="238.85714285714286" y="35.0" class="label" text-anchor="middle">52</text>
  <circle cx="245.7142857142857" cy="40.0" class="point"/>
  <text x="245.7142857142857" y="375" class="label" text-anchor="middle">2025-12-11</text>
  <text x="245.7142857142857" y="35.0" class="label" text-anchor="middle">52</text>
  <circle cx="252.57142857142858" cy="40.0" class="point"/>
  <text x="252.57142857142858" y="375" class="label" text-anchor="middle">2025-12-12</text>
  <text x="252.57142857142858" y="35.0" class="label" text-anchor="middle">52</text>
  <circle cx="259.42857142857144" cy="40.0" class="point"/>
  <text x="259.42857142857144" y="375" class="label" text-anchor="middle">2025-12-13</text>
  <text x="259.42857142857144" y="35.0" class="label" text-anchor="middle">52</text>
  <circle cx="266.2857142857143" cy="40.0" class="point"/>
  <text x="266.2857142857143" y="375" class="label" text-anchor="middle">2025-12-14</text>
  <text x="266.2857142857143" y="35.0" class="label" text-anchor="middle">52</text>
  <circle cx="273.14285714285717" cy="40.0" class="point"/>
  <text x="273.14285714285717" y="375" class="label" text-anchor="middle">2025-12-15</text>
  <text x="273.14285714285717" y="35.0" class="label" text-anchor="middle">52</text>
  <circle cx="280.0" cy="40.0" class="point"/>
  <text x="280.0" y="375" class="label" text-anchor="middle">2025-12-16</text>
  <text x="280.0" y="35.0" class="label" text-anchor="middle">52</text>
  <circle cx="286.8571428571429" cy="40.0" class="point"/>
  <text x="286.8571428571429" y="375" class="label" text-anchor="middle">2025-12-17</text>
  <text x="286.8571428571429" y="35.0" class="label" text-anchor="middle">52</text>
  <circle cx="293.7142857142857" cy="40.0" class="point"/>
  <text x="293.7142857142857" y="375" class="label" text-anchor="middle">2025-12-18</text>
  <text x="293.7142857142857" y="35.0" class="label" text-anchor="middle">52</text>
  <circle cx="300.57142857142856" cy="40.0" class="point"/>
  <text x="300.57142857142856" y="375" class="label" text-anchor="middle">2025-12-19</text>
  <text x="300.57142857142856" y="35.0" class="label" text-anchor="middle">52</text>
  <circle cx="307.42857142857144" cy="40.0" class="point"/>
  <text x="307.42857142857144" y="375" class="label" text-anchor="middle">2025-12-20</text>
  <text x="307.42857142857144" y="35.0" class="label" text-anchor="middle">52</text>
  <circle cx="314.2857142857143" cy="40.0" class="point"/>
  <text x="314.2857142857143" y="375" class="label" text-anchor="middle">2025-12-21</text>
  <text x="314.2857142857143" y="35.0" class="label" text-anchor="middle">52</text>
  <circle cx="321.14285714285717" cy="40.0" class="point"/>
  <text x="321.14285714285717" y="375" class="label" text-anchor="middle">2025-12-22</text>
  <text x="321.14285714285717" y="35.0" class="label" text-anchor="middle">52</text>
  <circle cx="328.0" cy="40.0" class="point"/>
  <text x="328.0" y="375" class="label" text-anchor="middle">2025-12-23</text>
  <text x="328.0" y="35.0" class="label" text-anchor="middle">52</text>
  <circle cx="334.85714285714283" cy="40.0" class="point"/>
  <text x="334.85714285714283" y="375" class="label" text-anchor="middle">2025-12-24</text>
  <text x="334.85714285714283" y="35.0" class="label" text-anchor="middle">52</text>
  <circle cx="341.7142857142857" cy="40.0" class="point"/>
  <text x="341.7142857142857" y="375" class="label" text-anchor="middle">2025-12-25</text>
  <text x="341.7142857142857" y="35.0" class="label" text-anchor="middle">52</text>
  <circle cx="348.57142857142856" cy="40.0" class="point"/>
  <text x="348.57142857142856" y="375" class="label" text-anchor="middle">2025-12-26</text>
  <text x="348.57142857142856" y="35.0" class="label" text-anchor="middle">52</text>
  <circle cx="355.42857142857144" cy="40.0" class="point"/>
  <text x="355.42857142857144" y="375" class="label" text-anchor="middle">2025-12-27</text>
  <text x="355.42857142857144" y="35.0" class="label" text-anchor="middle">52</text>
  <circle cx="362.2857142857143" cy="40.0" class="point"/>
  <text x="362.2857142857143" y="375" class="label" text-anchor="middle">2025-12-28</text>
  <text x="362.2857142857143" y="35.0" class="label" text-anchor="middle">52</text>
  <circle cx="369.1428571428571" cy="40.0" class="point"/>
  <text x="369.1428571428571" y="375" class="label" text-anchor="middle">2025-12-29</text>
  <text x="369.1428571428571" y="35.0" class="label" text-anchor="middle">52</text>
  <circle cx="376.0" cy="40.0" class="point"/>
  <text x="376.0" y="375" class="label" text-anchor="middle">2025-12-30</text>
  <text x="376.0" y="35.0" class="label" text-anchor="middle">52</text>
  <circle cx="382.85714285714283" cy="40.0" class="point"/>
  <text x="382.85714285714283" y="375" class="label" text-anchor="middle">2025-12-31</text>
  <text x="382.85714285714283" y="35.0" class="label" text-anchor="middle">52</text>
  <circle cx="389.7142857142857" cy="40.0" class="point"/>
  <text x="389.7142857142857" y="375" class="label" text-anchor="middle">2026-01-01</text>
  <text x="389.7142857142857" y="35.0" class="label" text-anchor="middle">52</text>
  <circle cx="396.57142857142856" cy="40.0" class="point"/>
  <text x="396.57142857142856" y="375" class="label" text-anchor="middle">2026-01-02</text>
  <text x="396.57142857142856" y="35.0" class="label" text-anchor="middle">52</text>
  <circle cx="403.42857142857144" cy="40.0" class="point"/>
  <text x="403.42857142857144" y="375" class="label" text-anchor="middle">2026-01-03</text>
  <text x="403.42857142857144" y="35.0" class="label" text-anchor="middle">52</text>
  <circle cx="410.2857142857142" cy="40.0" class="point"/>
  <text x="410.2857142857142" y="375" class="label" text-anchor="middle">2026-01-04</text>
  <text x="410.2857142857142" y="35.0" class="label" text-anchor="middle">52</text>
  <circle cx="417.14285714285717" cy="40.0" class="point"/>
  <text x="417.14285714285717" y="375" class="label" text-anchor="middle">2026-01-05</text>
  <text x="417.14285714285717" y="35.0" class="label" text-anchor="middle">52</text>
  <circle cx="424.0" cy="40.0" class="point"/>
  <text x="424.0" y="375" class="label" text-anchor="middle">2026-01-06</text>
  <text x="424.0" y="35.0" class="label" text-anchor="middle">52</text>
  <circle cx="430.85714285714283" cy="40.0" class="point"/>
  <text x="430.85714285714283" y="375" class="label" text-anchor="middle">2026-01-07</text>
  <text x="430.85714285714283" y="35.0" class="label" text-anchor="middle">52</text>
  <circle cx="437.7142857142857" cy="40.0" class="point"/>
  <text x="437.7142857142857" y="375" class="label" text-anchor="middle">2026-01-08</text>
  <text x="437.7142857142857" y="35.0" class="label" text-anchor="middle">52</text>
  <circle cx="444.57142857142856" cy="40.0" class="point"/>
  <text x="444.57142857142856" y="375" class="label" text-anchor="middle">2026-01-09</text>
  <text x="444.57142857142856" y="35.0" class="label" text-anchor="middle">52</text>
  <circle cx="451.4285714285714" cy="40.0" class="point"/>
  <text x="451.4285714285714" y="375" class="label" text-anchor="middle">2026-01-10</text>
  <text x="451.4285714285714" y="35.0" class="label" text-anchor="middle">52</text>
  <circle cx="458.28571428571433" cy="40.0" class="point"/>
  <text x="458.28571428571433" y="375" class="label" text-anchor="middle">2026-01-11</text>
  <text x="458.28571428571433" y="35.0" class="label" text-anchor="middle">52</text>
  <circle cx="465.14285714285717" cy="40.0" class="point"/>
  <text x="465.14285714285717" y="375" class="label" text-anchor="middle">2026-01-12</text>
  <text x="465.14285714285717" y="35.0" class="label" text-anchor="middle">52</text>
  <circle cx="472.0" cy="40.0" class="point"/>
  <text x="472.0" y="375" class="label" text-anchor="middle">2026-01-13</text>
  <text x="472.0" y="35.0" class="label" text-anchor="middle">52</text>
  <circle cx="478.8571428571429" cy="40.0" class="point"/>
  <text x="478.8571428571429" y="375" class="label" text-anchor="middle">2026-01-14</text>
  <text x="478.8571428571429" y="35.0" class="label" text-anchor="middle">52</text>
  <circle cx="485.7142857142857" cy="40.0" class="point"/>
  <text x="485.7142857142857" y="375" class="label" text-anchor="middle">2026-01-15</text>
  <text x="485.7142857142857" y="35.0" class="label" text-anchor="middle">52</text>
  <circle cx="492.57142857142856" cy="40.0" class="point"/>
  <text x="492.57142857142856" y="375" class="label" text-anchor="middle">2026-01-16</text>
  <text x="492.57142857142856" y="35.0" class="label" text-anchor="middle">52</text>
  <circle cx="499.4285714285714" cy="40.0" class="point"/>
  <text x="499.4285714285714" y="375" class="label" text-anchor="middle">2026-01-17</text>
  <text x="499.4285714285714" y="35.0" class="label" text-anchor="middle">52</text>
  <circle cx="506.28571428571433" cy="40.0" class="point"/>
  <text x="506.28571428571433" y="375" class="label" text-anchor="middle">2026-01-18</text>
  <text x="506.28571428571433" y="35.0" class="label" text-anchor="middle">52</text>
  <circle cx="513.1428571428571" cy="40.0" class="point"/>
  <text x="513.1428571428571" y="375" class="label" text-anchor="middle">2026-01-19</text>
  <text x="513.1428571428571" y="35.0" class="label" text-anchor="middle">52</text>
  <circle cx="520.0" cy="40.0" class="point"/>
  <text x="520.0" y="375" class="label" text-anchor="middle">2026-01-20</text>
  <text x="520.0" y="35.0" class="label" text-anchor="middle">52</text>
  <circle cx="526.8571428571429" cy="40.0" class="point"/>
  <text x="526.8571428571429" y="375" class="label" text-anchor="middle">2026-01-21</text>
  <text x="526.8571428571429" y="35.0" class="label" text-anchor="middle">52</text>
  <circle cx="533.7142857142858" cy="40.0" class="point"/>
  <text x="533.7142857142858" y="375" class="label" text-anchor="middle">2026-01-22</text>
  <text x="533.7142857142858" y="35.0" class="label" text-anchor="middle">52</text>
  <circle cx="540.5714285714286" cy="40.0" class="point"/>
  <text x="540.5714285714286" y="375" class="label" text-anchor="middle">2026-01-23</text>
  <text x="540.5714285714286" y="35.0" class="label" text-anchor="middle">52</text>
  <circle cx="547.4285714285714" cy="40.0" class="point"/>
  <text x="547.4285714285714" y="375" class="label" text-anchor="middle">2026-01-24</text>
  <text x="547.4285714285714" y="35.0" class="label" text-anchor="middle">52</text>
  <circle cx="554.2857142857143" cy="40.0" class="point"/>
  <text x="554.2857142857143" y="375" class="label" text-anchor="middle">2026-01-25</text>
  <text x="554.2857142857143" y="35.0" class="label" text-anchor="middle">52</text>
  <circle cx="561.1428571428571" cy="40.0" class="point"/>
  <text x="561.1428571428571" y="375" class="label" text-anchor="middle">2026-01-26</text>
  <text x="561.1428571428571" y="35.0" class="label" text-anchor="middle">52</text>
  <circle cx="568.0" cy="40.0" class="point"/>
  <text x="568.0" y="375" class="label" text-anchor="middle">2026-01-27</text>
  <text x="568.0" y="35.0" class="label" text-anchor="middle">52</text>
  <circle cx="574.8571428571429" cy="40.0" class="point"/>
  <text x="574.8571428571429" y="375" class="label" text-anchor="middle">2026-01-28</text>
  <text x="574.8571428571429" y="35.0" class="label" text-anchor="middle">52</text>
  <circle cx="581.7142857142857" cy="40.0" class="point"/>
  <text x="581.7142857142857" y="375" class="label" text-anchor="middle">2026-01-29</text>
  <text x="581.7142857142857" y="35.0" class="label" text-anchor="middle">52</text>
  <circle cx="588.5714285714286" cy="40.0" class="point"/>
  <text x="588.5714285714286" y="375" class="label" text-anchor="middle">2026-01-30</text>
  <text x="588.5714285714286" y="35.0" class="label" text-anchor="middle">52</text>
  <circle cx="595.4285714285714" cy="40.0" class="point"/>
  <text x="595.4285714285714" y="375" class="label" text-anchor="middle">2026-01-31</text>
  <text x="595.4285714285714" y="35.0" class="label" text-anchor="middle">52</text>
  <circle cx="602.2857142857143" cy="40.0" class="point"/>
  <text x="602.2857142857143" y="375" class="label" text-anchor="middle">2026-02-01</text>
  <text x="602.2857142857143" y="35.0" class="label" text-anchor="middle">52</text>
  <circle cx="609.1428571428571" cy="40.0" class="point"/>
  <text x="609.1428571428571" y="375" class="label" text-anchor="middle">2026-02-02</text>
  <text x="609.1428571428571" y="35.0" class="label" text-anchor="middle">52</text>
  <circle cx="616.0" cy="40.0" class="point"/>
  <text x="616.0" y="375" class="label" text-anchor="middle">2026-02-03</text>
  <text x="616.0" y="35.0" class="label" text-anchor="middle">52</text>
  <circle cx="622.8571428571429" cy="40.0" class="point"/>
  <text x="622.8571428571429" y="375" class="label" text-anchor="middle">2026-02-04</text>
  <text x="622.8571428571429" y="35.0" class="label" text-anchor="middle">52</text>
  <circle cx="629.7142857142857" cy="40.0" class="point"/>
  <text x="629.7142857142857" y="375" class="label" text-anchor="middle">2026-02-05</text>
  <text x="629.7142857142857" y="35.0" class="label" text-anchor="middle">52</text>
  <circle cx="636.5714285714286" cy="40.0" class="point"/>
  <text x="636.5714285714286" y="375" class="label" text-anchor="middle">2026-02-06</text>
  <text x="636.5714285714286" y="35.0" class="label" text-anchor="middle">52</text>
  <circle cx="643.4285714285714" cy="40.0" class="point"/>
  <text x="643.4285714285714" y="375" class="label" text-anchor="middle">2026-02-07</text>
  <text x="643.4285714285714" y="35.0" class="label" text-anchor="middle">52</text>
  <circle cx="650.2857142857142" cy="40.0" class="point"/>
  <text x="650.2857142857142" y="375" class="label" text-anchor="middle">2026-02-08</text>
  <text x="650.2857142857142" y="35.0" class="label" text-anchor="middle">52</text>
  <circle cx="657.1428571428571" cy="40.0" class="point"/>
  <text x="657.1428571428571" y="375" class="label" text-anchor="middle">2026-02-09</text>
  <text x="657.1428571428571" y="35.0" class="label" text-anchor="middle">52</text>
  <circle cx="664.0" cy="40.0" class="point"/>
  <text x="664.0" y="375" class="label" text-anchor="middle">2026-02-10</text>
  <text x="664.0" y="35.0" class="label" text-anchor="middle">52</text>
  <circle cx="670.8571428571429" cy="40.0" class="point"/>
  <text x="670.8571428571429" y="375" class="label" text-anchor="middle">2026-02-11</text>
  <text x="670.8571428571429" y="35.0" class="label" text-anchor="middle">52</text>
  <circle cx="677.7142857142857" cy="40.0" class="point"/>
  <text x="677.7142857142857" y="375" class="label" text-anchor="middle">2026-02-12</text>
  <text x="677.7142857142857" y="35.0" class="label" text-anchor="middle">52</text>
  <circle cx="684.5714285714286" cy="40.0" class="point"/>
  <text x="684.5714285714286" y="375" class="label" text-anchor="middle">2026-02-13</text>
  <text x="684.5714285714286" y="35.0" class="label" text-anchor="middle">52</text>
  <circle cx="691.4285714285714" cy="40.0" class="point"/>
  <text x="691.4285714285714" y="375" class="label" text-anchor="middle">2026-02-14</text>
  <text x="691.4285714285714" y="35.0" class="label" text-anchor="middle">52</text>
  <circle cx="698.2857142857142" cy="40.0" class="point"/>
  <text x="698.2857142857142" y="375" class="label" text-anchor="middle">2026-02-15</text>
  <text x="698.2857142857142" y="35.0" class="label" text-anchor="middle">52</text>
  <circle cx="705.1428571428572" cy="40.0" class="point"/>
  <text x="705.1428571428572" y="375" class="label" text-anchor="middle">2026-02-16</text>
  <text x="705.1428571428572" y="35.0" class="label" text-anchor="middle">52</text>
  <circle cx="712.0" cy="40.0" class="point"/>
  <text x="712.0" y="375" class="label" text-anchor="middle">2026-02-17</text>
  <text x="712.0" y="35.0" class="label" text-anchor="middle">52</text>
  <circle cx="718.8571428571429" cy="40.0" class="point"/>
  <text x="718.8571428571429" y="375" class="label" text-anchor="middle">2026-02-18</text>
  <text x="718.8571428571429" y="35.0" class="label" text-anchor="middle">52</text>
  <circle cx="725.7142857142857" cy="40.0" class="point"/>
  <text x="725.7142857142857" y="375" class="label" text-anchor="middle">2026-02-19</text>
  <text x="725.7142857142857" y="35.0" class="label" text-anchor="middle">52</text>
  <circle cx="732.5714285714286" cy="40.0" class="point"/>
  <text x="732.5714285714286" y="375" class="label" text-anchor="middle">2026-02-20</text>
  <text x="732.5714285714286" y="35.0" class="label" text-anchor="middle">52</text>
  <circle cx="739.4285714285714" cy="40.0" class="point"/>
  <text x="739.4285714285714" y="375" class="label" text-anchor="middle">2026-02-21</text>
  <text x="739.4285714285714" y="35.0" class="label" text-anchor="middle">52</text>
  <circle cx="746.2857142857142" cy="40.0" class="point"/>
  <text x="746.2857142857142" y="375" class="label" text-anchor="middle">2026-02-22</text>
  <text x="746.2857142857142" y="35.0" class="label" text-anchor="middle">52</text>
  <circle cx="753.1428571428571" cy="40.0" class="point"/>
  <text x="753.1428571428571" y="375" class="label" text-anchor="middle">2026-02-23</text>
  <text x="753.1428571428571" y="35.0" class="label" text-anchor="middle">52</text>
  <circle cx="760.0" cy="40.0" class="point"/>
  <text x="760.0" y="375" class="label" text-anchor="middle">2026-02-24</text>
  <text x="760.0" y="35.0" class="label" text-anchor="middle">52</text>
  <text x="30" y="363.0" class="label" text-anchor="end">0</text>
  <text x="30" y="301.46153846153845" class="label" text-anchor="end">10</text>
  <text x="30" y="239.9230769230769" class="label" text-anchor="end">20</text>
  <text x="30" y="178.38461538461542" class="label" text-anchor="end">30</text>
  <text x="30" y="116.84615384615384" class="label" text-anchor="end">40</text>
  <text x="30" y="55.30769230769232" class="label" text-anchor="end">50</text>
</svg>