<svg xmlns="http://www.w3.org/2000/svg" width="800" height="400" viewBox="0 0 800 400">
  <style>
    .axis{stroke:#666;stroke-width:1}
    .line{stroke:#4a9;stroke-width:2;fill:none}
    .point{fill:#4a9;r:4}
    .label{font:10px sans-serif;fill:#aaa}
    .title{font:14px sans-serif;fill:#333}
  </style>
  <text x="400" y="20" class="title" text-anchor="middle">OPIC Field Growth Timeline</text>
  <line x1="40" y1="40" x2="40" y2="360" class="axis"/>
  <line x1="40" y1="360" x2="760" y2="360" class="axis"/>
  <path d="M 40.0,101.53846153846155 L 53.09090909090909,101.53846153846155 L 66.18181818181819,101.53846153846155 L 79.27272727272728,101.53846153846155 L 92.36363636363636,101.53846153846155 L 105.45454545454545,101.53846153846155 L 118.54545454545455,101.53846153846155 L 131.63636363636363,101.53846153846155 L 144.72727272727272,101.53846153846155 L 157.8181818181818,101.53846153846155 L 170.9090909090909,101.53846153846155 L 184.0,101.53846153846155 L 197.0909090909091,101.53846153846155 L 210.1818181818182,101.53846153846155 L 223.27272727272725,101.53846153846155 L 236.36363636363635,101.53846153846155 L 249.45454545454544,101.53846153846155 L 262.5454545454545,101.53846153846155 L 275.6363636363636,101.53846153846155 L 288.72727272727275,101.53846153846155 L 301.8181818181818,101.53846153846155 L 314.90909090909093,101.53846153846155 L 328.0,101.53846153846155 L 341.09090909090907,101.53846153846155 L 354.1818181818182,101.53846153846155 L 367.27272727272725,101.53846153846155 L 380.3636363636364,101.53846153846155 L 393.45454545454544,40.0 L 406.5454545454545,40.0 L 419.6363636363636,40.0 L 432.7272727272727,40.0 L 445.8181818181818,40.0 L 458.9090909090909,40.0 L 472.0,40.0 L 485.09090909090907,40.0 L 498.1818181818182,40.0 L 511.27272727272725,40.0 L 524.3636363636364,40.0 L 537.4545454545455,40.0 L 550.5454545454545,40.0 L 563.6363636363636,40.0 L 576.7272727272727,40.0 L 589.8181818181819,40.0 L 602.909090909091,40.0 L 616.0,40.0 L 629.0909090909091,40.0 L 642.1818181818181,40.0 L 655.2727272727273,40.0 L 668.3636363636364,40.0 L 681.4545454545454,40.0 L 694.5454545454545,40.0 L 707.6363636363636,40.0 L 720.7272727272727,40.0 L 733.8181818181818,40.0 L 746.9090909090909,40.0 L 760.0,40.0" class="line"/>
  <circle cx="40.0" cy="101.53846153846155" class="point"/>
  <text x="40.0" y="375" class="label" text-anchor="middle">2025-11-11</text>
  <text x="40.0" y="96.53846153846155" class="label" text-anchor="middle">42</text>
  <circle cx="53.09090909090909" cy="101.53846153846155" class="point"/>
  <text x="53.09090909090909" y="375" class="label" text-anchor="middle">2025-11-12</text>
  <text x="53.09090909090909" y="96.53846153846155" class="label" text-anchor="middle">42</text>
  <circle cx="66.18181818181819" cy="101.53846153846155" class="point"/>
  <text x="66.18181818181819" y="375" class="label" text-anchor="middle">2025-11-13</text>
  <text x="66.18181818181819" y="96.53846153846155" class="label" text-anchor="middle">42</text>
  <circle cx="79.27272727272728" cy="101.53846153846155" class="point"/>
  <text x="79.27272727272728" y="375" class="label" text-anchor="middle">2025-11-14</text>
  <text x="79.27272727272728" y="96.53846153846155" class="label" text-anchor="middle">42</text>
  <circle cx="92.36363636363636" cy="101.53846153846155" class="point"/>
  <text x="92.36363636363636" y="375" class="label" text-anchor="middle">2025-11-15</text>
  <text x="92.36363636363636" y="96.53846153846155" class="label" text-anchor="middle">42</text>
  <circle cx="105.45454545454545" cy="101.53846153846155" class="point"/>
  <text x="105.45454545454545" y="375" class="label" text-anchor="middle">2025-11-16</text>
  <text x="105.45454545454545" y="96.53846153846155" class="label" text-anchor="middle">42</text>
  <circle cx="118.54545454545455" cy="101.53846153846155" class="point"/>
  <text x="118.54545454545455" y="375" class="label" text-anchor="middle">2025-11-17</text>
  <text x="118.54545454545455" y="96.53846153846155" class="label" text-anchor="middle">42</text>
  <circle cx="131.63636363636363" cy="101.53846153846155" class="point"/>
  <text x="131.63636363636363" y="375" class="label" text-anchor="middle">2025-11-18</text>
  <text x="131.63636363636363" y="96.53846153846155" class="label" text-anchor="middle">42</text>
  <circle cx="144.72727272727272" cy="101.53846153846155" class="point"/>
  <text x="144.72727272727272" y="375" class="label" text-anchor="middle">2025-11-19</text>
  <text x="144.72727272727272" y="96.53846153846155" class="label" text-anchor="middle">42</text>
  <circle cx="157.8181818181818" cy="101.53846153846155" class="point"/>
  <text x="157.8181818181818" y="375" class="label" text-anchor="middle">2025-11-20</text>
  <text x="157.8181818181818" y="96.53846153846155" class="label" text-anchor="middle">42</text>
  <circle cx="170.9090909090909" cy="101.53846153846155" class="point"/>
  <text x="170.9090909090909" y="375" class="label" text-anchor="middle">2025-11-21</text>
  <text x="170.9090909090909" y="96.53846153846155" class="label" text-anchor="middle">42</text>
  <circle cx="184.0" cy="101.53846153846155" class="point"/>
  <text x="184.0" y="375" class="label" text-anchor="middle">2025-11-22</text>
  <text x="184.0" y="96.53846153846155" class="label" text-anchor="middle">42</text>
  <circle cx="197.0909090909091" cy="101.53846153846155" class="point"/>
  <text x="197.0909090909091" y="375" class="label" text-anchor="middle">2025-11-23</text>
  <text x="197.0909090909091" y="96.53846153846155" class="label" text-anchor="middle">42</text>
  <circle cx="210.1818181818182" cy="101.53846153846155" class="point"/>
  <text x="210.1818181818182" y="375" class="label" text-anchor="middle">2025-11-24</text>
  <text x="210.1818181818182" y="96.53846153846155" class="label" text-anchor="middle">42</text>
  <circle cx="223.27272727272725" cy="101.53846153846155" class="point"/>
  <text x="223.27272727272725" y="375" class="label" text-anchor="middle">2025-11-25</text>
  <text x="223.27272727272725" y="96.53846153846155" class="label" text-anchor="middle">42</text>
  <circle cx="236.36363636363635" cy="101.53846153846155" class="point"/>
  <text x="236.36363636363635" y="375" class="label" text-anchor="middle">2025-11-26</text>
  <text x="236.36363636363635" y="96.53846153846155" class="label" text-anchor="middle">42</text>
  <circle cx="249.45454545454544" cy="101.53846153846155" class="point"/>
  <text x="249.45454545454544" y="375" class="label" text-anchor="middle">2025-11-27</text>
  <text x="249.45454545454544" y="96.53846153846155" class="label" text-anchor="middle">42</text>
  <circle cx="262.5454545454545" cy="101.53846153846155" class="point"/>
  <text x="262.5454545454545" y="375" class="label" text-anchor="middle">2025-11-28</text>
  <text x="262.5454545454545" y="96.53846153846155" class="label" text-anchor="middle">42</text>
  <circle cx="275.6363636363636" cy="101.53846153846155" class="point"/>
  <text x="275.6363636363636" y="375" class="label" text-anchor="middle">2025-11-29</text>
  <text x="275.6363636363636" y="96.53846153846155" class="label" text-anchor="middle">42</text>
  <circle cx="288.72727272727275" cy="101.53846153846155" class="point"/>
  <text x="288.72727272727275" y="375" class="label" text-anchor="middle">2025-11-30</text>
  <text x="288.72727272727275" y="96.53846153846155" class="label" text-anchor="middle">42</text>
  <circle cx="301.8181818181818" cy="101.53846153846155" class="point"/>
  <text x="301.8181818181818" y="375" class="label" text-anchor="middle">2025-12-01</text>
  <text x="301.8181818181818" y="96.53846153846155" class="label" text-anchor="middle">42</text>
  <circle cx="314.90909090909093" cy="101.53846153846155" class="point"/>
  <text x="314.90909090909093" y="375" class="label" text-anchor="middle">2025-12-02</text>
  <text x="314.90909090909093" y="96.53846153846155" class="label" text-anchor="middle">42</text>
  <circle cx="328.0" cy="101.53846153846155" class="point"/>
  <text x="328.0" y="375" class="label" text-anchor="middle">2025-12-03</text>
  <text x="328.0" y="96.53846153846155" class="label" text-anchor="middle">42</text>
  <circle cx="341.09090909090907" cy="101.53846153846155" class="point"/>
  <text x="341.09090909090907" y="375" class="label" text-anchor="middle">2025-12-04</text>
  <text x="341.09090909090907" y="96.53846153846155" class="label" text-anchor="middle">42</text>
  <circle cx="354.1818181818182" cy="101.53846153846155" class="point"/>
  <text x="354.1818181818182" y="375" class="label" text-anchor="middle">2025-12-05</text>
  <text x="354.1818181818182" y="96.53846153846155" class="label" text-anchor="middle">42</text>
  <circle cx="367.27272727272725" cy="101.53846153846155" class="point"/>
  <text x="367.27272727272725" y="375" class="label" text-anchor="middle">2025-12-06</text>
  <text x="367.27272727272725" y="96.53846153846155" class="label" text-anchor="middle">42</text>
  <circle cx="380.3636363636364" cy="101.53846153846155" class="point"/>
  <text x="380.3636363636364" y="375" class="label" text-anchor="middle">2025-12-07</text>
  <text x="380.3636363636364" y="96.53846153846155" class="label" text-anchor="middle">42</text>
  <circle cx="393.45454545454544" cy="40.0" class="point"/>
  <text x="393.45454545454544" y="375" class="label" text-anchor="middle">2025-12-08</text>
  <text x="393.45454545454544" y="35.0" class="label" text-anchor="middle">52</text>
  <circle cx="406.5454545454545" cy="40.0" class="point"/>
  <text x="406.5454545454545" y="375" class="label" text-anchor="middle">2025-12-09</text>
  <text x="406.5454545454545" y="35.0" class="label" text-anchor="middle">52</text>
  <circle cx="419.6363636363636" cy="40.0" class="point"/>
  <text x="419.6363636363636" y="375" class="label" text-anchor="middle">2025-12-10</text>
  <text x="419.6363636363636" y="35.0" class="label" text-anchor="middle">52</text>
  <circle cx="432.7272727272727" cy="40.0" class="point"/>
  <text x="432.7272727272727" y="375" class="label" text-anchor="middle">2025-12-11</text>
  <text x="432.7272727272727" y="35.0" class="label" text-anchor="middle">52</text>
  <circle cx="445.8181818181818" cy="40.0" class="point"/>
  <text x="445.8181818181818" y="375" class="label" text-anchor="middle">2025-12-12</text>
  <text x="445.8181818181818" y="35.0" class="label" text-anchor="middle">52</text>
  <circle cx="458.9090909090909" cy="40.0" class="point"/>
  <text x="458.9090909090909" y="375" class="label" text-anchor="middle">2025-12-13</text>
  <text x="458.9090909090909" y="35.0" class="label" text-anchor="middle">52</text>
  <circle cx="472.0" cy="40.0" class="point"/>
  <text x="472.0" y="375" class="label" text-anchor="middle">2025-12-14</text>
  <text x="472.0" y="35.0" class="label" text-anchor="middle">52</text>
  <circle cx="485.09090909090907" cy="40.0" class="point"/>
  <text x="485.09090909090907" y="375" class="label" text-anchor="middle">2025-12-15</text>
  <text x="485.09090909090907" y="35.0" class="label" text-anchor="middle">52</text>
  <circle cx="498.1818181818182" cy="40.0" class="point"/>
  <text x="498.1818181818182" y="375" class="label" text-anchor="middle">2025-12-16</text>
  <text x="498.1818181818182" y="35.0" class="label" text-anchor="middle">52</text>
  <circle cx="511.27272727272725" cy="40.0" class="point"/>
  <text x="511.27272727272725" y="375" class="label" text-anchor="middle">2025-12-17</text>
  <text x="511.27272727272725" y="35.0" class="label" text-anchor="middle">52</text>
  <circle cx="524.3636363636364" cy="40.0" class="point"/>
  <text x="524.3636363636364" y="375" class="label" text-anchor="middle">2025-12-18</text>
  <text x="524.3636363636364" y="35.0" class="label" text-anchor="middle">52</text>
  <circle cx="537.4545454545455" cy="40.0" class="point"/>
  <text x="537.4545454545455" y="375" class="label" text-anchor="middle">2025-12-19</text>
  <text x="537.4545454545455" y="35.0" class="label" text-anchor="middle">52</text>
  <circle cx="550.5454545454545" cy="40.0" class="point"/>
  <text x="550.5454545454545" y="375" class="label" text-anchor="middle">2025-12-20</text>
  <text x="550.5454545454545" y="35.0" class="label" text-anchor="middle">52</text>
  <circle cx="563.6363636363636" cy="40.0" class="point"/>
  <text x="563.6363636363636" y="375" class="label" text-anchor="middle">2025-12-21</text>
  <text x="563.6363636363636" y="35.0" class="label" text-anchor="middle">52</text>
  <circle cx="576.7272727272727" cy="40.0" class="point"/>
  <text x="576.7272727272727" y="375" class="label" text-anchor="middle">2025-12-22</text>
  <text x="576.7272727272727" y="35.0" class="label" text-anchor="middle">52</text>
  <circle cx="589.8181818181819" cy="40.0" class="point"/>
  <text x="589.8181818181819" y="375" class="label" text-anchor="middle">2025-12-23</text>
  <text x="589.8181818181819" y="35.0" class="label" text-anchor="middle">52</text>
  <circle cx="602.909090909091" cy="40.0" class="point"/>
  <text x="602.909090909091" y="375" class="label" text-anchor="middle">2025-12-24</text>
  <text x="602.909090909091" y="35.0" class="label" text-anchor="middle">52</text>
  <circle cx="616.0" cy="40.0" class="point"/>
  <text x="616.0" y="375" class="label" text-anchor="middle">2025-12-25</text>
  <text x="616.0" y="35.0" class="label" text-anchor="middle">52</text>
  <circle cx="629.0909090909091" cy="40.0" class="point"/>
  <text x="629.0909090909091" y="375" class="label" text-anchor="middle">2025-12-26</text>
  <text x="629.0909090909091" y="35.0" class="label" text-anchor="middle">52</text>
  <circle cx="642.1818181818181" cy="40.0" class="point"/>
  <text x="642.1818181818181" y="375" class="label" text-anchor="middle">2025-12-27</text>
  <text x="642.1818181818181" y="35.0" class="label" text-anchor="middle">52</text>
  <circle cx="655.2727272727273" cy="40.0" class="point"/>
  <text x="655.2727272727273" y="375" class="label" text-anchor="middle">2025-12-28</text>
  <text x="655.2727272727273" y="35.0" class="label" text-anchor="middle">52</text>
  <circle cx="668.3636363636364" cy="40.0" class="point"/>
  <text x="668.3636363636364" y="375" class="label" text-anchor="middle">2025-12-29</text>
  <text x="668.3636363636364" y="35.0" class="label" text-anchor="middle">52</text>
  <circle cx="681.4545454545454" cy="40.0" class="point"/>
  <text x="681.4545454545454" y="375" class="label" text-anchor="middle">2025-12-30</text>
  <text x="681.4545454545454" y="35.0" class="label" text-anchor="middle">52</text>
  <circle cx="694.5454545454545" cy="40.0" class="point"/>
  <text x="694.5454545454545" y="375" class="label" text-anchor="middle">2025-12-31</text>
  <text x="694.5454545454545" y="35.0" class="label" text-anchor="middle">52</text>
  <circle cx="707.6363636363636" cy="40.0" class="point"/>
  <text x="707.6363636363636" y="375" class="label" text-anchor="middle">2026-01-01</text>
  <text x="707.6363636363636" y="35.0" class="label" text-anchor="middle">52</text>
  <circle cx="720.7272727272727" cy="40.0" class="point"/>
  <text x="720.7272727272727" y="375" class="label" text-anchor="middle">2026-01-02</text>
  <text x="720.7272727272727" y="35.0" class="label" text-anchor="middle">52</text>
  <circle cx="733.8181818181818" cy="40.0" class="point"/>
  <text x="733.8181818181818" y="375" class="label" text-anchor="middle">2026-01-03</text>
  <text x="733.8181818181818" y="35.0" class="label" text-anchor="middle">52</text>
  <circle cx="746.9090909090909" cy="40.0" class="point"/>
  <text x="746.9090909090909" y="375" class="label" text-anchor="middle">2026-01-04</text>
  <text x="746.9090909090909" y="35.0" class="label" text-anchor="middle">52</text>
  <circle cx="760.0" cy="40.0" class="point"/>
  <text x="760.0" y="375" class="label" text-anchor="middle">2026-01-05</text>
  <text x="760.0" y="35.0" class="label" text-anchor="middle">52</text>
  <text x="30" y="363.0" class="label" text-anchor="end">0</text>
  <text x="30" y="301.46153846153845" class="label" text-anchor="end">10</text>
  <text x="30" y="239.9230769230769" class="label" text-anchor="end">20</text>
  <text x="30" y="178.38461538461542" class="label" text-anchor="end">30</text>
  <text x="30" y="116.84615384615384" class="label" text-anchor="end">40</text>
  <text x="30" y="55.30769230769232" class="label" text-anchor="end">50</text>
</svg>