<svg xmlns="http://www.w3.org/2000/svg" width="800" height="400" viewBox="0 0 800 400">
  <style>
    .axis{stroke:#666;stroke-width:1}
    .line{stroke:#4a9;stroke-width:2;fill:none}
    .point{fill:#4a9;r:4}
    .label{font:10px sans-serif;fill:#aaa}
    .title{font:14px sans-serif;fill:#333}
  </style>
  <text x="400" y="20" class="title" text-anchor="middle">OPIC Field Growth Timeline</text>
  <line x1="40" y1="40" x2="40" y2="360" class="axis"/>
  <line x1="40" y1="360" x2="760" y2="360" class="axis"/>
  <path d="M 40.0,101.53846153846155 L 58.46153846153846,101.53846153846155 L 76.92307692307692,101.53846153846155 L 95.38461538461539,101.53846153846155 L 113.84615384615384,101.53846153846155 L 132.3076923076923,101.53846153846155 L 150.76923076923077,101.53846153846155 L 169.23076923076923,101.53846153846155 L 187.69230769230768,101.53846153846155 L 206.15384615384616,101.53846153846155 L 224.61538461538458,101.53846153846155 L 243.07692307692307,101.53846153846155 L 261.53846153846155,101.53846153846155 L 280.0,101.53846153846155 L 298.46153846153845,101.53846153846155 L 316.92307692307696,101.53846153846155 L 335.38461538461536,101.53846153846155 L 353.84615384615387,101.53846153846155 L 372.3076923076923,101.53846153846155 L 390.7692307692308,101.53846153846155 L 409.23076923076917,101.53846153846155 L 427.6923076923077,101.53846153846155 L 446.15384615384613,101.53846153846155 L 464.61538461538464,101.53846153846155 L 483.0769230769231,101.53846153846155 L 501.5384615384616,101.53846153846155 L 520.0,101.53846153846155 L 538.4615384615385,40.0 L 556.9230769230769,40.0 L 575.3846153846154,40.0 L 593.8461538461539,40.0 L 612.3076923076923,40.0 L 630.7692307692307,40.0 L 649.2307692307692,40.0 L 667.6923076923077,40.0 L 686.1538461538462,40.0 L 704.6153846153846,40.0 L 723.0769230769231,40.0 L 741.5384615384615,40.0 L 760.0,40.0" class="line"/>
  <circle cx="40.0" cy="101.53846153846155" class="point"/>
  <text x="40.0" y="375" class="label" text-anchor="middle">2025-11-11</text>
  <text x="40.0" y="96.53846153846155" class="label" text-anchor="middle">42</text>
  <circle cx="58.46153846153846" cy="101.53846153846155" class="point"/>
  <text x="58.46153846153846" y="375" class="label" text-anchor="middle">2025-11-12</text>
  <text x="58.46153846153846" y="96.53846153846155" class="label" text-anchor="middle">42</text>
  <circle cx="76.92307692307692" cy="101.53846153846155" class="point"/>
  <text x="76.92307692307692" y="375" class="label" text-anchor="middle">2025-11-13</text>
  <text x="76.92307692307692" y="96.53846153846155" class="label" text-anchor="middle">42</text>
  <circle cx="95.38461538461539" cy="101.53846153846155" class="point"/>
  <text x="95.38461538461539" y="375" class="label" text-anchor="middle">2025-11-14</text>
  <text x="95.38461538461539" y="96.53846153846155" class="label" text-anchor="middle">42</text>
  <circle cx="113.84615384615384" cy="101.53846153846155" class="point"/>
  <text x="113.84615384615384" y="375" class="label" text-anchor="middle">2025-11-15</text>
  <text x="113.84615384615384" y="96.53846153846155" class="label" text-anchor="middle">42</text>
  <circle cx="132.3076923076923" cy="101.53846153846155" class="point"/>
  <text x="132.3076923076923" y="375" class="label" text-anchor="middle">2025-11-16</text>
  <text x="132.3076923076923" y="96.53846153846155" class="label" text-anchor="middle">42</text>
  <circle cx="150.76923076923077" cy="101.53846153846155" class="point"/>
  <text x="150.76923076923077" y="375" class="label" text-anchor="middle">2025-11-17</text>
  <text x="150.76923076923077" y="96.53846153846155" class="label" text-anchor="middle">42</text>
  <circle cx="169.23076923076923" cy="101.53846153846155" class="point"/>
  <text x="169.23076923076923" y="375" class="label" text-anchor="middle">2025-11-18</text>
  <text x="169.23076923076923" y="96.53846153846155" class="label" text-anchor="middle">42</text>
  <circle cx="187.69230769230768" cy="101.53846153846155" class="point"/>
  <text x="187.69230769230768" y="375" class="label" text-anchor="middle">2025-11-19</text>
  <text x="187.69230769230768" y="96.53846153846155" class="label" text-anchor="middle">42</text>
  <circle cx="206.15384615384616" cy="101.53846153846155" class="point"/>
  <text x="206.15384615384616" y="375" class="label" text-anchor="middle">2025-11-20</text>
  <text x="206.15384615384616" y="96.53846153846155" class="label" text-anchor="middle">42</text>
  <circle cx="224.61538461538458" cy="101.53846153846155" class="point"/>
  <text x="224.61538461538458" y="375" class="label" text-anchor="middle">2025-11-21</text>
  <text x="224.61538461538458" y="96.53846153846155" class="label" text-anchor="middle">42</text>
  <circle cx="243.07692307692307" cy="101.53846153846155" class="point"/>
  <text x="243.07692307692307" y="375" class="label" text-anchor="middle">2025-11-22</text>
  <text x="243.07692307692307" y="96.53846153846155" class="label" text-anchor="middle">42</text>
  <circle cx="261.53846153846155" cy="101.53846153846155" class="point"/>
  <text x="261.53846153846155" y="375" class="label" text-anchor="middle">2025-11-23</text>
  <text x="261.53846153846155" y="96.53846153846155" class="label" text-anchor="middle">42</text>
  <circle cx="280.0" cy="101.53846153846155" class="point"/>
  <text x="280.0" y="375" class="label" text-anchor="middle">2025-11-24</text>
  <text x="280.0" y="96.53846153846155" class="label" text-anchor="middle">42</text>
  <circle cx="298.46153846153845" cy="101.53846153846155" class="point"/>
  <text x="298.46153846153845" y="375" class="label" text-anchor="middle">2025-11-25</text>
  <text x="298.46153846153845" y="96.53846153846155" class="label" text-anchor="middle">42</text>
  <circle cx="316.92307692307696" cy="101.53846153846155" class="point"/>
  <text x="316.92307692307696" y="375" class="label" text-anchor="middle">2025-11-26</text>
  <text x="316.92307692307696" y="96.53846153846155" class="label" text-anchor="middle">42</text>
  <circle cx="335.38461538461536" cy="101.53846153846155" class="point"/>
  <text x="335.38461538461536" y="375" class="label" text-anchor="middle">2025-11-27</text>
  <text x="335.38461538461536" y="96.53846153846155" class="label" text-anchor="middle">42</text>
  <circle cx="353.84615384615387" cy="101.53846153846155" class="point"/>
  <text x="353.84615384615387" y="375" class="label" text-anchor="middle">2025-11-28</text>
  <text x="353.84615384615387" y="96.53846153846155" class="label" text-anchor="middle">42</text>
  <circle cx="372.3076923076923" cy="101.53846153846155" class="point"/>
  <text x="372.3076923076923" y="375" class="label" text-anchor="middle">2025-11-29</text>
  <text x="372.3076923076923" y="96.53846153846155" class="label" text-anchor="middle">42</text>
  <circle cx="390.7692307692308" cy="101.53846153846155" class="point"/>
  <text x="390.7692307692308" y="375" class="label" text-anchor="middle">2025-11-30</text>
  <text x="390.7692307692308" y="96.53846153846155" class="label" text-anchor="middle">42</text>
  <circle cx="409.23076923076917" cy="101.53846153846155" class="point"/>
  <text x="409.23076923076917" y="375" class="label" text-anchor="middle">2025-12-01</text>
  <text x="409.23076923076917" y="96.53846153846155" class="label" text-anchor="middle">42</text>
  <circle cx="427.6923076923077" cy="101.53846153846155" class="point"/>
  <text x="427.6923076923077" y="375" class="label" text-anchor="middle">2025-12-02</text>
  <text x="427.6923076923077" y="96.53846153846155" class="label" text-anchor="middle">42</text>
  <circle cx="446.15384615384613" cy="101.53846153846155" class="point"/>
  <text x="446.15384615384613" y="375" class="label" text-anchor="middle">2025-12-03</text>
  <text x="446.15384615384613" y="96.53846153846155" class="label" text-anchor="middle">42</text>
  <circle cx="464.61538461538464" cy="101.53846153846155" class="point"/>
  <text x="464.61538461538464" y="375" class="label" text-anchor="middle">2025-12-04</text>
  <text x="464.61538461538464" y="96.53846153846155" class="label" text-anchor="middle">42</text>
  <circle cx="483.0769230769231" cy="101.53846153846155" class="point"/>
  <text x="483.0769230769231" y="375" class="label" text-anchor="middle">2025-12-05</text>
  <text x="483.0769230769231" y="96.53846153846155" class="label" text-anchor="middle">42</text>
  <circle cx="501.5384615384616" cy="101.53846153846155" class="point"/>
  <text x="501.5384615384616" y="375" class="label" text-anchor="middle">2025-12-06</text>
  <text x="501.5384615384616" y="96.53846153846155" class="label" text-anchor="middle">42</text>
  <circle cx="520.0" cy="101.53846153846155" class="point"/>
  <text x="520.0" y="375" class="label" text-anchor="middle">2025-12-07</text>
  <text x="520.0" y="96.53846153846155" class="label" text-anchor="middle">42</text>
  <circle cx="538.4615384615385" cy="40.0" class="point"/>
  <text x="538.4615384615385" y="375" class="label" text-anchor="middle">2025-12-08</text>
  <text x="538.4615384615385" y="35.0" class="label" text-anchor="middle">52</text>
  <circle cx="556.9230769230769" cy="40.0" class="point"/>
  <text x="556.9230769230769" y="375" class="label" text-anchor="middle">2025-12-09</text>
  <text x="556.9230769230769" y="35.0" class="label" text-anchor="middle">52</text>
  <circle cx="575.3846153846154" cy="40.0" class="point"/>
  <text x="575.3846153846154" y="375" class="label" text-anchor="middle">2025-12-10</text>
  <text x="575.3846153846154" y="35.0" class="label" text-anchor="middle">52</text>
  <circle cx="593.8461538461539" cy="40.0" class="point"/>
  <text x="593.8461538461539" y="375" class="label" text-anchor="middle">2025-12-11</text>
  <text x="593.8461538461539" y="35.0" class="label" text-anchor="middle">52</text>
  <circle cx="612.3076923076923" cy="40.0" class="point"/>
  <text x="612.3076923076923" y="375" class="label" text-anchor="middle">2025-12-12</text>
  <text x="612.3076923076923" y="35.0" class="label" text-anchor="middle">52</text>
  <circle cx="630.7692307692307" cy="40.0" class="point"/>
  <text x="630.7692307692307" y="375" class="label" text-anchor="middle">2025-12-13</text>
  <text x="630.7692307692307" y="35.0" class="label" text-anchor="middle">52</text>
  <circle cx="649.2307692307692" cy="40.0" class="point"/>
  <text x="649.2307692307692" y="375" class="label" text-anchor="middle">2025-12-14</text>
  <text x="649.2307692307692" y="35.0" class="label" text-anchor="middle">52</text>
  <circle cx="667.6923076923077" cy="40.0" class="point"/>
  <text x="667.6923076923077" y="375" class="label" text-anchor="middle">2025-12-15</text>
  <text x="667.6923076923077" y="35.0" class="label" text-anchor="middle">52</text>
  <circle cx="686.1538461538462" cy="40.0" class="point"/>
  <text x="686.1538461538462" y="375" class="label" text-anchor="middle">2025-12-16</text>
  <text x="686.1538461538462" y="35.0" class="label" text-anchor="middle">52</text>
  <circle cx="704.6153846153846" cy="40.0" class="point"/>
  <text x="704.6153846153846" y="375" class="label" text-anchor="middle">2025-12-17</text>
  <text x="704.6153846153846" y="35.0" class="label" text-anchor="middle">52</text>
  <circle cx="723.0769230769231" cy="40.0" class="point"/>
  <text x="723.0769230769231" y="375" class="label" text-anchor="middle">2025-12-18</text>
  <text x="723.0769230769231" y="35.0" class="label" text-anchor="middle">52</text>
  <circle cx="741.5384615384615" cy="40.0" class="point"/>
  <text x="741.5384615384615" y="375" class="label" text-anchor="middle">2025-12-19</text>
  <text x="741.5384615384615" y="35.0" class="label" text-anchor="middle">52</text>
  <circle cx="760.0" cy="40.0" class="point"/>
  <text x="760.0" y="375" class="label" text-anchor="middle">2025-12-20</text>
  <text x="760.0" y="35.0" class="label" text-anchor="middle">52</text>
  <text x="30" y="363.0" class="label" text-anchor="end">0</text>
  <text x="30" y="301.46153846153845" class="label" text-anchor="end">10</text>
  <text x="30" y="239.9230769230769" class="label" text-anchor="end">20</text>
  <text x="30" y="178.38461538461542" class="label" text-anchor="end">30</text>
  <text x="30" y="116.84615384615384" class="label" text-anchor="end">40</text>
  <text x="30" y="55.30769230769232" class="label" text-anchor="end">50</text>
</svg>