<svg xmlns="http://www.w3.org/2000/svg" width="800" height="400" viewBox="0 0 800 400">
  <style>
    .axis{stroke:#666;stroke-width:1}
    .line{stroke:#4a9;stroke-width:2;fill:none}
    .point{fill:#4a9;r:4}
    .label{font:10px sans-serif;fill:#aaa}
    .title{font:14px sans-serif;fill:#333}
  </style>
  <text x="400" y="20" class="title" text-anchor="middle">OPIC Field Growth Timeline</text>
  <line x1="40" y1="40" x2="40" y2="360" class="axis"/>
  <line x1="40" y1="360" x2="760" y2="360" class="axis"/>
  <path d="M 40.0,101.53846153846155 L 47.5,101.53846153846155 L 55.0,101.53846153846155 L 62.5,101.53846153846155 L 70.0,101.53846153846155 L 77.5,101.53846153846155 L 85.0,101.53846153846155 L 92.5,101.53846153846155 L 100.0,101.53846153846155 L 107.5,101.53846153846155 L 115.0,101.53846153846155 L 122.5,101.53846153846155 L 130.0,101.53846153846155 L 137.5,101.53846153846155 L 145.0,101.53846153846155 L 152.5,101.53846153846155 L 160.0,101.53846153846155 L 167.5,101.53846153846155 L 175.0,101.53846153846155 L 182.5,101.53846153846155 L 190.0,101.53846153846155 L 197.5,101.53846153846155 L 205.0,101.53846153846155 L 212.5,101.53846153846155 L 220.0,101.53846153846155 L 227.5,101.53846153846155 L 235.0,101.53846153846155 L 242.5,40.0 L 250.0,40.0 L 257.5,40.0 L 265.0,40.0 L 272.5,40.0 L 280.0,40.0 L 287.5,40.0 L 295.0,40.0 L 302.5,40.0 L 310.0,40.0 L 317.5,40.0 L 325.0,40.0 L 332.5,40.0 L 340.0,40.0 L 347.5,40.0 L 355.0,40.0 L 362.5,40.0 L 370.0,40.0 L 377.5,40.0 L 385.0,40.0 L 392.5,40.0 L 400.0,40.0 L 407.5,40.0 L 415.0,40.0 L 422.5,40.0 L 430.0,40.0 L 437.5,40.0 L 445.0,40.0 L 452.5,40.0 L 460.0,40.0 L 467.5,40.0 L 475.0,40.0 L 482.5,40.0 L 490.0,40.0 L 497.5,40.0 L 505.0,40.0 L 512.5,40.0 L 520.0,40.0 L 527.5,40.0 L 535.0,40.0 L 542.5,40.0 L 550.0,40.0 L 557.5,40.0 L 565.0,40.0 L 572.5,40.0 L 580.0,40.0 L 587.5,40.0 L 595.0,40.0 L 602.5,40.0 L 610.0,40.0 L 617.5,40.0 L 625.0,40.0 L 632.5,40.0 L 640.0,40.0 L 647.5,40.0 L 655.0,40.0 L 662.5,40.0 L 670.0,40.0 L 677.5,40.0 L 685.0,40.0 L 692.5,40.0 L 700.0,40.0 L 707.5,40.0 L 715.0,40.0 L 722.5,40.0 L 730.0,40.0 L 737.5,40.0 L 745.0,40.0 L 752.5,40.0 L 760.0,40.0" class="line"/>
  <circle cx="40.0" cy="101.53846153846155" class="point"/>
  <text x="40.0" y="375" class="label" text-anchor="middle">2025-11-11</text>
  <text x="40.0" y="96.53846153846155" class="label" text-anchor="middle">42</text>
  <circle cx="47.5" cy="101.53846153846155" class="point"/>
  <text x="47.5" y="375" class="label" text-anchor="middle">2025-11-12</text>
  <text x="47.5" y="96.53846153846155" class="label" text-anchor="middle">42</text>
  <circle cx="55.0" cy="101.53846153846155" class="point"/>
  <text x="55.0" y="375" class="label" text-anchor="middle">2025-11-13</text>
  <text x="55.0" y="96.53846153846155" class="label" text-anchor="middle">42</text>
  <circle cx="62.5" cy="101.53846153846155" class="point"/>
  <text x="62.5" y="375" class="label" text-anchor="middle">2025-11-14</text>
  <text x="62.5" y="96.53846153846155" class="label" text-anchor="middle">42</text>
  <circle cx="70.0" cy="101.53846153846155" class="point"/>
  <text x="70.0" y="375" class="label" text-anchor="middle">2025-11-15</text>
  <text x="70.0" y="96.53846153846155" class="label" text-anchor="middle">42</text>
  <circle cx="77.5" cy="101.53846153846155" class="point"/>
  <text x="77.5" y="375" class="label" text-anchor="middle">2025-11-16</text>
  <text x="77.5" y="96.53846153846155" class="label" text-anchor="middle">42</text>
  <circle cx="85.0" cy="101.53846153846155" class="point"/>
  <text x="85.0" y="375" class="label" text-anchor="middle">2025-11-17</text>
  <text x="85.0" y="96.53846153846155" class="label" text-anchor="middle">42</text>
  <circle cx="92.5" cy="101.53846153846155" class="point"/>
  <text x="92.5" y="375" class="label" text-anchor="middle">2025-11-18</text>
  <text x="92.5" y="96.53846153846155" class="label" text-anchor="middle">42</text>
  <circle cx="100.0" cy="101.53846153846155" class="point"/>
  <text x="100.0" y="375" class="label" text-anchor="middle">2025-11-19</text>
  <text x="100.0" y="96.53846153846155" class="label" text-anchor="middle">42</text>
  <circle cx="107.5" cy="101.53846153846155" class="point"/>
  <text x="107.5" y="375" class="label" text-anchor="middle">2025-11-20</text>
  <text x="107.5" y="96.53846153846155" class="label" text-anchor="middle">42</text>
  <circle cx="115.0" cy="101.53846153846155" class="point"/>
  <text x="115.0" y="375" class="label" text-anchor="middle">2025-11-21</text>
  <text x="115.0" y="96.53846153846155" class="label" text-anchor="middle">42</text>
  <circle cx="122.5" cy="101.53846153846155" class="point"/>
  <text x="122.5" y="375" class="label" text-anchor="middle">2025-11-22</text>
  <text x="122.5" y="96.53846153846155" class="label" text-anchor="middle">42</text>
  <circle cx="130.0" cy="101.53846153846155" class="point"/>
  <text x="130.0" y="375" class="label" text-anchor="middle">2025-11-23</text>
  <text x="130.0" y="96.53846153846155" class="label" text-anchor="middle">42</text>
  <circle cx="137.5" cy="101.53846153846155" class="point"/>
  <text x="137.5" y="375" class="label" text-anchor="middle">2025-11-24</text>
  <text x="137.5" y="96.53846153846155" class="label" text-anchor="middle">42</text>
  <circle cx="145.0" cy="101.53846153846155" class="point"/>
  <text x="145.0" y="375" class="label" text-anchor="middle">2025-11-25</text>
  <text x="145.0" y="96.53846153846155" class="label" text-anchor="middle">42</text>
  <circle cx="152.5" cy="101.53846153846155" class="point"/>
  <text x="152.5" y="375" class="label" text-anchor="middle">2025-11-26</text>
  <text x="152.5" y="96.53846153846155" class="label" text-anchor="middle">42</text>
  <circle cx="160.0" cy="101.53846153846155" class="point"/>
  <text x="160.0" y="375" class="label" text-anchor="middle">2025-11-27</text>
  <text x="160.0" y="96.53846153846155" class="label" text-anchor="middle">42</text>
  <circle cx="167.5" cy="101.53846153846155" class="point"/>
  <text x="167.5" y="375" class="label" text-anchor="middle">2025-11-28</text>
  <text x="167.5" y="96.53846153846155" class="label" text-anchor="middle">42</text>
  <circle cx="175.0" cy="101.53846153846155" class="point"/>
  <text x="175.0" y="375" class="label" text-anchor="middle">2025-11-29</text>
  <text x="175.0" y="96.53846153846155" class="label" text-anchor="middle">42</text>
  <circle cx="182.5" cy="101.53846153846155" class="point"/>
  <text x="182.5" y="375" class="label" text-anchor="middle">2025-11-30</text>
  <text x="182.5" y="96.53846153846155" class="label" text-anchor="middle">42</text>
  <circle cx="190.0" cy="101.53846153846155" class="point"/>
  <text x="190.0" y="375" class="label" text-anchor="middle">2025-12-01</text>
  <text x="190.0" y="96.53846153846155" class="label" text-anchor="middle">42</text>
  <circle cx="197.5" cy="101.53846153846155" class="point"/>
  <text x="197.5" y="375" class="label" text-anchor="middle">2025-12-02</text>
  <text x="197.5" y="96.53846153846155" class="label" text-anchor="middle">42</text>
  <circle cx="205.0" cy="101.53846153846155" class="point"/>
  <text x="205.0" y="375" class="label" text-anchor="middle">2025-12-03</text>
  <text x="205.0" y="96.53846153846155" class="label" text-anchor="middle">42</text>
  <circle cx="212.5" cy="101.53846153846155" class="point"/>
  <text x="212.5" y="375" class="label" text-anchor="middle">2025-12-04</text>
  <text x="212.5" y="96.53846153846155" class="label" text-anchor="middle">42</text>
  <circle cx="220.0" cy="101.53846153846155" class="point"/>
  <text x="220.0" y="375" class="label" text-anchor="middle">2025-12-05</text>
  <text x="220.0" y="96.53846153846155" class="label" text-anchor="middle">42</text>
  <circle cx="227.5" cy="101.53846153846155" class="point"/>
  <text x="227.5" y="375" class="label" text-anchor="middle">2025-12-06</text>
  <text x="227.5" y="96.53846153846155" class="label" text-anchor="middle">42</text>
  <circle cx="235.0" cy="101.53846153846155" class="point"/>
  <text x="235.0" y="375" class="label" text-anchor="middle">2025-12-07</text>
  <text x="235.0" y="96.53846153846155" class="label" text-anchor="middle">42</text>
  <circle cx="242.5" cy="40.0" class="point"/>
  <text x="242.5" y="375" class="label" text-anchor="middle">2025-12-08</text>
  <text x="242.5" y="35.0" class="label" text-anchor="middle">52</text>
  <circle cx="250.0" cy="40.0" class="point"/>
  <text x="250.0" y="375" class="label" text-anchor="middle">2025-12-09</text>
  <text x="250.0" y="35.0" class="label" text-anchor="middle">52</text>
  <circle cx="257.5" cy="40.0" class="point"/>
  <text x="257.5" y="375" class="label" text-anchor="middle">2025-12-10</text>
  <text x="257.5" y="35.0" class="label" text-anchor="middle">52</text>
  <circle cx="265.0" cy="40.0" class="point"/>
  <text x="265.0" y="375" class="label" text-anchor="middle">2025-12-11</text>
  <text x="265.0" y="35.0" class="label" text-anchor="middle">52</text>
  <circle cx="272.5" cy="40.0" class="point"/>
  <text x="272.5" y="375" class="label" text-anchor="middle">2025-12-12</text>
  <text x="272.5" y="35.0" class="label" text-anchor="middle">52</text>
  <circle cx="280.0" cy="40.0" class="point"/>
  <text x="280.0" y="375" class="label" text-anchor="middle">2025-12-13</text>
  <text x="280.0" y="35.0" class="label" text-anchor="middle">52</text>
  <circle cx="287.5" cy="40.0" class="point"/>
  <text x="287.5" y="375" class="label" text-anchor="middle">2025-12-14</text>
  <text x="287.5" y="35.0" class="label" text-anchor="middle">52</text>
  <circle cx="295.0" cy="40.0" class="point"/>
  <text x="295.0" y="375" class="label" text-anchor="middle">2025-12-15</text>
  <text x="295.0" y="35.0" class="label" text-anchor="middle">52</text>
  <circle cx="302.5" cy="40.0" class="point"/>
  <text x="302.5" y="375" class="label" text-anchor="middle">2025-12-16</text>
  <text x="302.5" y="35.0" class="label" text-anchor="middle">52</text>
  <circle cx="310.0" cy="40.0" class="point"/>
  <text x="310.0" y="375" class="label" text-anchor="middle">2025-12-17</text>
  <text x="310.0" y="35.0" class="label" text-anchor="middle">52</text>
  <circle cx="317.5" cy="40.0" class="point"/>
  <text x="317.5" y="375" class="label" text-anchor="middle">2025-12-18</text>
  <text x="317.5" y="35.0" class="label" text-anchor="middle">52</text>
  <circle cx="325.0" cy="40.0" class="point"/>
  <text x="325.0" y="375" class="label" text-anchor="middle">2025-12-19</text>
  <text x="325.0" y="35.0" class="label" text-anchor="middle">52</text>
  <circle cx="332.5" cy="40.0" class="point"/>
  <text x="332.5" y="375" class="label" text-anchor="middle">2025-12-20</text>
  <text x="332.5" y="35.0" class="label" text-anchor="middle">52</text>
  <circle cx="340.0" cy="40.0" class="point"/>
  <text x="340.0" y="375" class="label" text-anchor="middle">2025-12-21</text>
  <text x="340.0" y="35.0" class="label" text-anchor="middle">52</text>
  <circle cx="347.5" cy="40.0" class="point"/>
  <text x="347.5" y="375" class="label" text-anchor="middle">2025-12-22</text>
  <text x="347.5" y="35.0" class="label" text-anchor="middle">52</text>
  <circle cx="355.0" cy="40.0" class="point"/>
  <text x="355.0" y="375" class="label" text-anchor="middle">2025-12-23</text>
  <text x="355.0" y="35.0" class="label" text-anchor="middle">52</text>
  <circle cx="362.5" cy="40.0" class="point"/>
  <text x="362.5" y="375" class="label" text-anchor="middle">2025-12-24</text>
  <text x="362.5" y="35.0" class="label" text-anchor="middle">52</text>
  <circle cx="370.0" cy="40.0" class="point"/>
  <text x="370.0" y="375" class="label" text-anchor="middle">2025-12-25</text>
  <text x="370.0" y="35.0" class="label" text-anchor="middle">52</text>
  <circle cx="377.5" cy="40.0" class="point"/>
  <text x="377.5" y="375" class="label" text-anchor="middle">2025-12-26</text>
  <text x="377.5" y="35.0" class="label" text-anchor="middle">52</text>
  <circle cx="385.0" cy="40.0" class="point"/>
  <text x="385.0" y="375" class="label" text-anchor="middle">2025-12-27</text>
  <text x="385.0" y="35.0" class="label" text-anchor="middle">52</text>
  <circle cx="392.5" cy="40.0" class="point"/>
  <text x="392.5" y="375" class="label" text-anchor="middle">2025-12-28</text>
  <text x="392.5" y="35.0" class="label" text-anchor="middle">52</text>
  <circle cx="400.0" cy="40.0" class="point"/>
  <text x="400.0" y="375" class="label" text-anchor="middle">2025-12-29</text>
  <text x="400.0" y="35.0" class="label" text-anchor="middle">52</text>
  <circle cx="407.5" cy="40.0" class="point"/>
  <text x="407.5" y="375" class="label" text-anchor="middle">2025-12-30</text>
  <text x="407.5" y="35.0" class="label" text-anchor="middle">52</text>
  <circle cx="415.0" cy="40.0" class="point"/>
  <text x="415.0" y="375" class="label" text-anchor="middle">2025-12-31</text>
  <text x="415.0" y="35.0" class="label" text-anchor="middle">52</text>
  <circle cx="422.5" cy="40.0" class="point"/>
  <text x="422.5" y="375" class="label" text-anchor="middle">2026-01-01</text>
  <text x="422.5" y="35.0" class="label" text-anchor="middle">52</text>
  <circle cx="430.0" cy="40.0" class="point"/>
  <text x="430.0" y="375" class="label" text-anchor="middle">2026-01-02</text>
  <text x="430.0" y="35.0" class="label" text-anchor="middle">52</text>
  <circle cx="437.5" cy="40.0" class="point"/>
  <text x="437.5" y="375" class="label" text-anchor="middle">2026-01-03</text>
  <text x="437.5" y="35.0" class="label" text-anchor="middle">52</text>
  <circle cx="445.0" cy="40.0" class="point"/>
  <text x="445.0" y="375" class="label" text-anchor="middle">2026-01-04</text>
  <text x="445.0" y="35.0" class="label" text-anchor="middle">52</text>
  <circle cx="452.5" cy="40.0" class="point"/>
  <text x="452.5" y="375" class="label" text-anchor="middle">2026-01-05</text>
  <text x="452.5" y="35.0" class="label" text-anchor="middle">52</text>
  <circle cx="460.0" cy="40.0" class="point"/>
  <text x="460.0" y="375" class="label" text-anchor="middle">2026-01-06</text>
  <text x="460.0" y="35.0" class="label" text-anchor="middle">52</text>
  <circle cx="467.5" cy="40.0" class="point"/>
  <text x="467.5" y="375" class="label" text-anchor="middle">2026-01-07</text>
  <text x="467.5" y="35.0" class="label" text-anchor="middle">52</text>
  <circle cx="475.0" cy="40.0" class="point"/>
  <text x="475.0" y="375" class="label" text-anchor="middle">2026-01-08</text>
  <text x="475.0" y="35.0" class="label" text-anchor="middle">52</text>
  <circle cx="482.5" cy="40.0" class="point"/>
  <text x="482.5" y="375" class="label" text-anchor="middle">2026-01-09</text>
  <text x="482.5" y="35.0" class="label" text-anchor="middle">52</text>
  <circle cx="490.0" cy="40.0" class="point"/>
  <text x="490.0" y="375" class="label" text-anchor="middle">2026-01-10</text>
  <text x="490.0" y="35.0" class="label" text-anchor="middle">52</text>
  <circle cx="497.5" cy="40.0" class="point"/>
  <text x="497.5" y="375" class="label" text-anchor="middle">2026-01-11</text>
  <text x="497.5" y="35.0" class="label" text-anchor="middle">52</text>
  <circle cx="505.0" cy="40.0" class="point"/>
  <text x="505.0" y="375" class="label" text-anchor="middle">2026-01-12</text>
  <text x="505.0" y="35.0" class="label" text-anchor="middle">52</text>
  <circle cx="512.5" cy="40.0" class="point"/>
  <text x="512.5" y="375" class="label" text-anchor="middle">2026-01-13</text>
  <text x="512.5" y="35.0" class="label" text-anchor="middle">52</text>
  <circle cx="520.0" cy="40.0" class="point"/>
  <text x="520.0" y="375" class="label" text-anchor="middle">2026-01-14</text>
  <text x="520.0" y="35.0" class="label" text-anchor="middle">52</text>
  <circle cx="527.5" cy="40.0" class="point"/>
  <text x="527.5" y="375" class="label" text-anchor="middle">2026-01-15</text>
  <text x="527.5" y="35.0" class="label" text-anchor="middle">52</text>
  <circle cx="535.0" cy="40.0" class="point"/>
  <text x="535.0" y="375" class="label" text-anchor="middle">2026-01-16</text>
  <text x="535.0" y="35.0" class="label" text-anchor="middle">52</text>
  <circle cx="542.5" cy="40.0" class="point"/>
  <text x="542.5" y="375" class="label" text-anchor="middle">2026-01-17</text>
  <text x="542.5" y="35.0" class="label" text-anchor="middle">52</text>
  <circle cx="550.0" cy="40.0" class="point"/>
  <text x="550.0" y="375" class="label" text-anchor="middle">2026-01-18</text>
  <text x="550.0" y="35.0" class="label" text-anchor="middle">52</text>
  <circle cx="557.5" cy="40.0" class="point"/>
  <text x="557.5" y="375" class="label" text-anchor="middle">2026-01-19</text>
  <text x="557.5" y="35.0" class="label" text-anchor="middle">52</text>
  <circle cx="565.0" cy="40.0" class="point"/>
  <text x="565.0" y="375" class="label" text-anchor="middle">2026-01-20</text>
  <text x="565.0" y="35.0" class="label" text-anchor="middle">52</text>
  <circle cx="572.5" cy="40.0" class="point"/>
  <text x="572.5" y="375" class="label" text-anchor="middle">2026-01-21</text>
  <text x="572.5" y="35.0" class="label" text-anchor="middle">52</text>
  <circle cx="580.0" cy="40.0" class="point"/>
  <text x="580.0" y="375" class="label" text-anchor="middle">2026-01-22</text>
  <text x="580.0" y="35.0" class="label" text-anchor="middle">52</text>
  <circle cx="587.5" cy="40.0" class="point"/>
  <text x="587.5" y="375" class="label" text-anchor="middle">2026-01-23</text>
  <text x="587.5" y="35.0" class="label" text-anchor="middle">52</text>
  <circle cx="595.0" cy="40.0" class="point"/>
  <text x="595.0" y="375" class="label" text-anchor="middle">2026-01-24</text>
  <text x="595.0" y="35.0" class="label" text-anchor="middle">52</text>
  <circle cx="602.5" cy="40.0" class="point"/>
  <text x="602.5" y="375" class="label" text-anchor="middle">2026-01-25</text>
  <text x="602.5" y="35.0" class="label" text-anchor="middle">52</text>
  <circle cx="610.0" cy="40.0" class="point"/>
  <text x="610.0" y="375" class="label" text-anchor="middle">2026-01-26</text>
  <text x="610.0" y="35.0" class="label" text-anchor="middle">52</text>
  <circle cx="617.5" cy="40.0" class="point"/>
  <text x="617.5" y="375" class="label" text-anchor="middle">2026-01-27</text>
  <text x="617.5" y="35.0" class="label" text-anchor="middle">52</text>
  <circle cx="625.0" cy="40.0" class="point"/>
  <text x="625.0" y="375" class="label" text-anchor="middle">2026-01-28</text>
  <text x="625.0" y="35.0" class="label" text-anchor="middle">52</text>
  <circle cx="632.5" cy="40.0" class="point"/>
  <text x="632.5" y="375" class="label" text-anchor="middle">2026-01-29</text>
  <text x="632.5" y="35.0" class="label" text-anchor="middle">52</text>
  <circle cx="640.0" cy="40.0" class="point"/>
  <text x="640.0" y="375" class="label" text-anchor="middle">2026-01-30</text>
  <text x="640.0" y="35.0" class="label" text-anchor="middle">52</text>
  <circle cx="647.5" cy="40.0" class="point"/>
  <text x="647.5" y="375" class="label" text-anchor="middle">2026-01-31</text>
  <text x="647.5" y="35.0" class="label" text-anchor="middle">52</text>
  <circle cx="655.0" cy="40.0" class="point"/>
  <text x="655.0" y="375" class="label" text-anchor="middle">2026-02-01</text>
  <text x="655.0" y="35.0" class="label" text-anchor="middle">52</text>
  <circle cx="662.5" cy="40.0" class="point"/>
  <text x="662.5" y="375" class="label" text-anchor="middle">2026-02-02</text>
  <text x="662.5" y="35.0" class="label" text-anchor="middle">52</text>
  <circle cx="670.0" cy="40.0" class="point"/>
  <text x="670.0" y="375" class="label" text-anchor="middle">2026-02-03</text>
  <text x="670.0" y="35.0" class="label" text-anchor="middle">52</text>
  <circle cx="677.5" cy="40.0" class="point"/>
  <text x="677.5" y="375" class="label" text-anchor="middle">2026-02-04</text>
  <text x="677.5" y="35.0" class="label" text-anchor="middle">52</text>
  <circle cx="685.0" cy="40.0" class="point"/>
  <text x="685.0" y="375" class="label" text-anchor="middle">2026-02-05</text>
  <text x="685.0" y="35.0" class="label" text-anchor="middle">52</text>
  <circle cx="692.5" cy="40.0" class="point"/>
  <text x="692.5" y="375" class="label" text-anchor="middle">2026-02-06</text>
  <text x="692.5" y="35.0" class="label" text-anchor="middle">52</text>
  <circle cx="700.0" cy="40.0" class="point"/>
  <text x="700.0" y="375" class="label" text-anchor="middle">2026-02-07</text>
  <text x="700.0" y="35.0" class="label" text-anchor="middle">52</text>
  <circle cx="707.5" cy="40.0" class="point"/>
  <text x="707.5" y="375" class="label" text-anchor="middle">2026-02-08</text>
  <text x="707.5" y="35.0" class="label" text-anchor="middle">52</text>
  <circle cx="715.0" cy="40.0" class="point"/>
  <text x="715.0" y="375" class="label" text-anchor="middle">2026-02-09</text>
  <text x="715.0" y="35.0" class="label" text-anchor="middle">52</text>
  <circle cx="722.5" cy="40.0" class="point"/>
  <text x="722.5" y="375" class="label" text-anchor="middle">2026-02-10</text>
  <text x="722.5" y="35.0" class="label" text-anchor="middle">52</text>
  <circle cx="730.0" cy="40.0" class="point"/>
  <text x="730.0" y="375" class="label" text-anchor="middle">2026-02-11</text>
  <text x="730.0" y="35.0" class="label" text-anchor="middle">52</text>
  <circle cx="737.5" cy="40.0" class="point"/>
  <text x="737.5" y="375" class="label" text-anchor="middle">2026-02-12</text>
  <text x="737.5" y="35.0" class="label" text-anchor="middle">52</text>
  <circle cx="745.0" cy="40.0" class="point"/>
  <text x="745.0" y="375" class="label" text-anchor="middle">2026-02-13</text>
  <text x="745.0" y="35.0" class="label" text-anchor="middle">52</text>
  <circle cx="752.5" cy="40.0" class="point"/>
  <text x="752.5" y="375" class="label" text-anchor="middle">2026-02-14</text>
  <text x="752.5" y="35.0" class="label" text-anchor="middle">52</text>
  <circle cx="760.0" cy="40.0" class="point"/>
  <text x="760.0" y="375" class="label" text-anchor="middle">2026-02-15</text>
  <text x="760.0" y="35.0" class="label" text-anchor="middle">52</text>
  <text x="30" y="363.0" class="label" text-anchor="end">0</text>
  <text x="30" y="301.46153846153845" class="label" text-anchor="end">10</text>
  <text x="30" y="239.9230769230769" class="label" text-anchor="end">20</text>
  <text x="30" y="178.38461538461542" class="label" text-anchor="end">30</text>
  <text x="30" y="116.84615384615384" class="label" text-anchor="end">40</text>
  <text x="30" y="55.30769230769232" class="label" text-anchor="end">50</text>
</svg>