<svg xmlns="http://www.w3.org/2000/svg" width="800" height="400" viewBox="0 0 800 400">
  <style>
    .axis{stroke:#666;stroke-width:1}
    .line{stroke:#4a9;stroke-width:2;fill:none}
    .point{fill:#4a9;r:4}
    .label{font:10px sans-serif;fill:#aaa}
    .title{font:14px sans-serif;fill:#333}
  </style>
  <text x="400" y="20" class="title" text-anchor="middle">OPIC Field Growth Timeline</text>
  <line x1="40" y1="40" x2="40" y2="360" class="axis"/>
  <line x1="40" y1="360" x2="760" y2="360" class="axis"/>
  <path d="M 40.0,101.53846153846155 L 45.14285714285714,101.53846153846155 L 50.285714285714285,101.53846153846155 L 55.42857142857143,101.53846153846155 L 60.57142857142857,101.53846153846155 L 65.71428571428571,101.53846153846155 L 70.85714285714286,101.53846153846155 L 76.0,101.53846153846155 L 81.14285714285714,101.53846153846155 L 86.28571428571428,101.53846153846155 L 91.42857142857142,101.53846153846155 L 96.57142857142857,101.53846153846155 L 101.71428571428572,101.53846153846155 L 106.85714285714286,101.53846153846155 L 112.0,101.53846153846155 L 117.14285714285714,101.53846153846155 L 122.28571428571428,101.53846153846155 L 127.42857142857143,101.53846153846155 L 132.57142857142856,101.53846153846155 L 137.71428571428572,101.53846153846155 L 142.85714285714283,101.53846153846155 L 148.0,101.53846153846155 L 153.14285714285714,101.53846153846155 L 158.28571428571428,101.53846153846155 L 163.42857142857144,101.53846153846155 L 168.57142857142858,101.53846153846155 L 173.71428571428572,101.53846153846155 L 178.85714285714286,40.0 L 184.0,40.0 L 189.14285714285714,40.0 L 194.28571428571428,40.0 L 199.42857142857142,40.0 L 204.57142857142856,40.0 L 209.71428571428572,40.0 L 214.85714285714286,40.0 L 220.0,40.0 L 225.1428571428571,40.0 L 230.28571428571428,40.0 L 235.42857142857142,40.0 L 240.57142857142858,40.0 L 245.7142857142857,40.0 L 250.85714285714286,40.0 L 256.0,40.0 L 261.14285714285717,40.0 L 266.2857142857143,40.0 L 271.42857142857144,40.0 L 276.57142857142856,40.0 L 281.71428571428567,40.0 L 286.8571428571429,40.0 L 292.0,40.0 L 297.14285714285717,40.0 L 302.2857142857143,40.0 L 307.42857142857144,40.0 L 312.57142857142856,40.0 L 317.7142857142857,40.0 L 322.85714285714283,40.0 L 328.0,40.0 L 333.14285714285717,40.0 L 338.2857142857143,40.0 L 343.42857142857144,40.0 L 348.57142857142856,40.0 L 353.7142857142857,40.0 L 358.85714285714283,40.0 L 364.0,40.0 L 369.1428571428571,40.0 L 374.2857142857143,40.0 L 379.42857142857144,40.0 L 384.5714285714286,40.0 L 389.7142857142857,40.0 L 394.8571428571429,40.0 L 400.0,40.0 L 405.1428571428571,40.0 L 410.2857142857142,40.0 L 415.42857142857144,40.0 L 420.57142857142856,40.0 L 425.7142857142857,40.0 L 430.85714285714283,40.0 L 436.00000000000006,40.0 L 441.14285714285717,40.0 L 446.2857142857143,40.0 L 451.4285714285714,40.0 L 456.5714285714286,40.0 L 461.7142857142857,40.0 L 466.85714285714283,40.0 L 472.0,40.0 L 477.1428571428571,40.0 L 482.28571428571433,40.0 L 487.42857142857144,40.0 L 492.57142857142856,40.0 L 497.71428571428567,40.0 L 502.8571428571429,40.0 L 508.0,40.0 L 513.1428571428571,40.0 L 518.2857142857142,40.0 L 523.4285714285713,40.0 L 528.5714285714287,40.0 L 533.7142857142858,40.0 L 538.8571428571429,40.0 L 544.0,40.0 L 549.1428571428571,40.0 L 554.2857142857143,40.0 L 559.4285714285714,40.0 L 564.5714285714286,40.0 L 569.7142857142858,40.0 L 574.8571428571429,40.0 L 580.0,40.0 L 585.1428571428571,40.0 L 590.2857142857142,40.0 L 595.4285714285714,40.0 L 600.5714285714286,40.0 L 605.7142857142857,40.0 L 610.8571428571428,40.0 L 616.0,40.0 L 621.1428571428571,40.0 L 626.2857142857143,40.0 L 631.4285714285714,40.0 L 636.5714285714286,40.0 L 641.7142857142858,40.0 L 646.8571428571429,40.0 L 652.0,40.0 L 657.1428571428571,40.0 L 662.2857142857143,40.0 L 667.4285714285714,40.0 L 672.5714285714286,40.0 L 677.7142857142857,40.0 L 682.8571428571429,40.0 L 688.0,40.0 L 693.1428571428571,40.0 L 698.2857142857142,40.0 L 703.4285714285714,40.0 L 708.5714285714286,40.0 L 713.7142857142857,40.0 L 718.8571428571429,40.0 L 724.0,40.0 L 729.1428571428572,40.0 L 734.2857142857143,40.0 L 739.4285714285714,40.0 L 744.5714285714286,40.0 L 749.7142857142858,40.0 L 754.8571428571429,40.0 L 760.0,40.0" class="line"/>
  <circle cx="40.0" cy="101.53846153846155" class="point"/>
  <text x="40.0" y="375" class="label" text-anchor="middle">2025-11-11</text>
  <text x="40.0" y="96.53846153846155" class="label" text-anchor="middle">42</text>
  <circle cx="45.14285714285714" cy="101.53846153846155" class="point"/>
  <text x="45.14285714285714" y="375" class="label" text-anchor="middle">2025-11-12</text>
  <text x="45.14285714285714" y="96.53846153846155" class="label" text-anchor="middle">42</text>
  <circle cx="50.285714285714285" cy="101.53846153846155" class="point"/>
  <text x="50.285714285714285" y="375" class="label" text-anchor="middle">2025-11-13</text>
  <text x="50.285714285714285" y="96.53846153846155" class="label" text-anchor="middle">42</text>
  <circle cx="55.42857142857143" cy="101.53846153846155" class="point"/>
  <text x="55.42857142857143" y="375" class="label" text-anchor="middle">2025-11-14</text>
  <text x="55.42857142857143" y="96.53846153846155" class="label" text-anchor="middle">42</text>
  <circle cx="60.57142857142857" cy="101.53846153846155" class="point"/>
  <text x="60.57142857142857" y="375" class="label" text-anchor="middle">2025-11-15</text>
  <text x="60.57142857142857" y="96.53846153846155" class="label" text-anchor="middle">42</text>
  <circle cx="65.71428571428571" cy="101.53846153846155" class="point"/>
  <text x="65.71428571428571" y="375" class="label" text-anchor="middle">2025-11-16</text>
  <text x="65.71428571428571" y="96.53846153846155" class="label" text-anchor="middle">42</text>
  <circle cx="70.85714285714286" cy="101.53846153846155" class="point"/>
  <text x="70.85714285714286" y="375" class="label" text-anchor="middle">2025-11-17</text>
  <text x="70.85714285714286" y="96.53846153846155" class="label" text-anchor="middle">42</text>
  <circle cx="76.0" cy="101.53846153846155" class="point"/>
  <text x="76.0" y="375" class="label" text-anchor="middle">2025-11-18</text>
  <text x="76.0" y="96.53846153846155" class="label" text-anchor="middle">42</text>
  <circle cx="81.14285714285714" cy="101.53846153846155" class="point"/>
  <text x="81.14285714285714" y="375" class="label" text-anchor="middle">2025-11-19</text>
  <text x="81.14285714285714" y="96.53846153846155" class="label" text-anchor="middle">42</text>
  <circle cx="86.28571428571428" cy="101.53846153846155" class="point"/>
  <text x="86.28571428571428" y="375" class="label" text-anchor="middle">2025-11-20</text>
  <text x="86.28571428571428" y="96.53846153846155" class="label" text-anchor="middle">42</text>
  <circle cx="91.42857142857142" cy="101.53846153846155" class="point"/>
  <text x="91.42857142857142" y="375" class="label" text-anchor="middle">2025-11-21</text>
  <text x="91.42857142857142" y="96.53846153846155" class="label" text-anchor="middle">42</text>
  <circle cx="96.57142857142857" cy="101.53846153846155" class="point"/>
  <text x="96.57142857142857" y="375" class="label" text-anchor="middle">2025-11-22</text>
  <text x="96.57142857142857" y="96.53846153846155" class="label" text-anchor="middle">42</text>
  <circle cx="101.71428571428572" cy="101.53846153846155" class="point"/>
  <text x="101.71428571428572" y="375" class="label" text-anchor="middle">2025-11-23</text>
  <text x="101.71428571428572" y="96.53846153846155" class="label" text-anchor="middle">42</text>
  <circle cx="106.85714285714286" cy="101.53846153846155" class="point"/>
  <text x="106.85714285714286" y="375" class="label" text-anchor="middle">2025-11-24</text>
  <text x="106.85714285714286" y="96.53846153846155" class="label" text-anchor="middle">42</text>
  <circle cx="112.0" cy="101.53846153846155" class="point"/>
  <text x="112.0" y="375" class="label" text-anchor="middle">2025-11-25</text>
  <text x="112.0" y="96.53846153846155" class="label" text-anchor="middle">42</text>
  <circle cx="117.14285714285714" cy="101.53846153846155" class="point"/>
  <text x="117.14285714285714" y="375" class="label" text-anchor="middle">2025-11-26</text>
  <text x="117.14285714285714" y="96.53846153846155" class="label" text-anchor="middle">42</text>
  <circle cx="122.28571428571428" cy="101.53846153846155" class="point"/>
  <text x="122.28571428571428" y="375" class="label" text-anchor="middle">2025-11-27</text>
  <text x="122.28571428571428" y="96.53846153846155" class="label" text-anchor="middle">42</text>
  <circle cx="127.42857142857143" cy="101.53846153846155" class="point"/>
  <text x="127.42857142857143" y="375" class="label" text-anchor="middle">2025-11-28</text>
  <text x="127.42857142857143" y="96.53846153846155" class="label" text-anchor="middle">42</text>
  <circle cx="132.57142857142856" cy="101.53846153846155" class="point"/>
  <text x="132.57142857142856" y="375" class="label" text-anchor="middle">2025-11-29</text>
  <text x="132.57142857142856" y="96.53846153846155" class="label" text-anchor="middle">42</text>
  <circle cx="137.71428571428572" cy="101.53846153846155" class="point"/>
  <text x="137.71428571428572" y="375" class="label" text-anchor="middle">2025-11-30</text>
  <text x="137.71428571428572" y="96.53846153846155" class="label" text-anchor="middle">42</text>
  <circle cx="142.85714285714283" cy="101.53846153846155" class="point"/>
  <text x="142.85714285714283" y="375" class="label" text-anchor="middle">2025-12-01</text>
  <text x="142.85714285714283" y="96.53846153846155" class="label" text-anchor="middle">42</text>
  <circle cx="148.0" cy="101.53846153846155" class="point"/>
  <text x="148.0" y="375" class="label" text-anchor="middle">2025-12-02</text>
  <text x="148.0" y="96.53846153846155" class="label" text-anchor="middle">42</text>
  <circle cx="153.14285714285714" cy="101.53846153846155" class="point"/>
  <text x="153.14285714285714" y="375" class="label" text-anchor="middle">2025-12-03</text>
  <text x="153.14285714285714" y="96.53846153846155" class="label" text-anchor="middle">42</text>
  <circle cx="158.28571428571428" cy="101.53846153846155" class="point"/>
  <text x="158.28571428571428" y="375" class="label" text-anchor="middle">2025-12-04</text>
  <text x="158.28571428571428" y="96.53846153846155" class="label" text-anchor="middle">42</text>
  <circle cx="163.42857142857144" cy="101.53846153846155" class="point"/>
  <text x="163.42857142857144" y="375" class="label" text-anchor="middle">2025-12-05</text>
  <text x="163.42857142857144" y="96.53846153846155" class="label" text-anchor="middle">42</text>
  <circle cx="168.57142857142858" cy="101.53846153846155" class="point"/>
  <text x="168.57142857142858" y="375" class="label" text-anchor="middle">2025-12-06</text>
  <text x="168.57142857142858" y="96.53846153846155" class="label" text-anchor="middle">42</text>
  <circle cx="173.71428571428572" cy="101.53846153846155" class="point"/>
  <text x="173.71428571428572" y="375" class="label" text-anchor="middle">2025-12-07</text>
  <text x="173.71428571428572" y="96.53846153846155" class="label" text-anchor="middle">42</text>
  <circle cx="178.85714285714286" cy="40.0" class="point"/>
  <text x="178.85714285714286" y="375" class="label" text-anchor="middle">2025-12-08</text>
  <text x="178.85714285714286" y="35.0" class="label" text-anchor="middle">52</text>
  <circle cx="184.0" cy="40.0" class="point"/>
  <text x="184.0" y="375" class="label" text-anchor="middle">2025-12-09</text>
  <text x="184.0" y="35.0" class="label" text-anchor="middle">52</text>
  <circle cx="189.14285714285714" cy="40.0" class="point"/>
  <text x="189.14285714285714" y="375" class="label" text-anchor="middle">2025-12-10</text>
  <text x="189.14285714285714" y="35.0" class="label" text-anchor="middle">52</text>
  <circle cx="194.28571428571428" cy="40.0" class="point"/>
  <text x="194.28571428571428" y="375" class="label" text-anchor="middle">2025-12-11</text>
  <text x="194.28571428571428" y="35.0" class="label" text-anchor="middle">52</text>
  <circle cx="199.42857142857142" cy="40.0" class="point"/>
  <text x="199.42857142857142" y="375" class="label" text-anchor="middle">2025-12-12</text>
  <text x="199.42857142857142" y="35.0" class="label" text-anchor="middle">52</text>
  <circle cx="204.57142857142856" cy="40.0" class="point"/>
  <text x="204.57142857142856" y="375" class="label" text-anchor="middle">2025-12-13</text>
  <text x="204.57142857142856" y="35.0" class="label" text-anchor="middle">52</text>
  <circle cx="209.71428571428572" cy="40.0" class="point"/>
  <text x="209.71428571428572" y="375" class="label" text-anchor="middle">2025-12-14</text>
  <text x="209.71428571428572" y="35.0" class="label" text-anchor="middle">52</text>
  <circle cx="214.85714285714286" cy="40.0" class="point"/>
  <text x="214.85714285714286" y="375" class="label" text-anchor="middle">2025-12-15</text>
  <text x="214.85714285714286" y="35.0" class="label" text-anchor="middle">52</text>
  <circle cx="220.0" cy="40.0" class="point"/>
  <text x="220.0" y="375" class="label" text-anchor="middle">2025-12-16</text>
  <text x="220.0" y="35.0" class="label" text-anchor="middle">52</text>
  <circle cx="225.1428571428571" cy="40.0" class="point"/>
  <text x="225.1428571428571" y="375" class="label" text-anchor="middle">2025-12-17</text>
  <text x="225.1428571428571" y="35.0" class="label" text-anchor="middle">52</text>
  <circle cx="230.28571428571428" cy="40.0" class="point"/>
  <text x="230.28571428571428" y="375" class="label" text-anchor="middle">2025-12-18</text>
  <text x="230.28571428571428" y="35.0" class="label" text-anchor="middle">52</text>
  <circle cx="235.42857142857142" cy="40.0" class="point"/>
  <text x="235.42857142857142" y="375" class="label" text-anchor="middle">2025-12-19</text>
  <text x="235.42857142857142" y="35.0" class="label" text-anchor="middle">52</text>
  <circle cx="240.57142857142858" cy="40.0" class="point"/>
  <text x="240.57142857142858" y="375" class="label" text-anchor="middle">2025-12-20</text>
  <text x="240.57142857142858" y="35.0" class="label" text-anchor="middle">52</text>
  <circle cx="245.7142857142857" cy="40.0" class="point"/>
  <text x="245.7142857142857" y="375" class="label" text-anchor="middle">2025-12-21</text>
  <text x="245.7142857142857" y="35.0" class="label" text-anchor="middle">52</text>
  <circle cx="250.85714285714286" cy="40.0" class="point"/>
  <text x="250.85714285714286" y="375" class="label" text-anchor="middle">2025-12-22</text>
  <text x="250.85714285714286" y="35.0" class="label" text-anchor="middle">52</text>
  <circle cx="256.0" cy="40.0" class="point"/>
  <text x="256.0" y="375" class="label" text-anchor="middle">2025-12-23</text>
  <text x="256.0" y="35.0" class="label" text-anchor="middle">52</text>
  <circle cx="261.14285714285717" cy="40.0" class="point"/>
  <text x="261.14285714285717" y="375" class="label" text-anchor="middle">2025-12-24</text>
  <text x="261.14285714285717" y="35.0" class="label" text-anchor="middle">52</text>
  <circle cx="266.2857142857143" cy="40.0" class="point"/>
  <text x="266.2857142857143" y="375" class="label" text-anchor="middle">2025-12-25</text>
  <text x="266.2857142857143" y="35.0" class="label" text-anchor="middle">52</text>
  <circle cx="271.42857142857144" cy="40.0" class="point"/>
  <text x="271.42857142857144" y="375" class="label" text-anchor="middle">2025-12-26</text>
  <text x="271.42857142857144" y="35.0" class="label" text-anchor="middle">52</text>
  <circle cx="276.57142857142856" cy="40.0" class="point"/>
  <text x="276.57142857142856" y="375" class="label" text-anchor="middle">2025-12-27</text>
  <text x="276.57142857142856" y="35.0" class="label" text-anchor="middle">52</text>
  <circle cx="281.71428571428567" cy="40.0" class="point"/>
  <text x="281.71428571428567" y="375" class="label" text-anchor="middle">2025-12-28</text>
  <text x="281.71428571428567" y="35.0" class="label" text-anchor="middle">52</text>
  <circle cx="286.8571428571429" cy="40.0" class="point"/>
  <text x="286.8571428571429" y="375" class="label" text-anchor="middle">2025-12-29</text>
  <text x="286.8571428571429" y="35.0" class="label" text-anchor="middle">52</text>
  <circle cx="292.0" cy="40.0" class="point"/>
  <text x="292.0" y="375" class="label" text-anchor="middle">2025-12-30</text>
  <text x="292.0" y="35.0" class="label" text-anchor="middle">52</text>
  <circle cx="297.14285714285717" cy="40.0" class="point"/>
  <text x="297.14285714285717" y="375" class="label" text-anchor="middle">2025-12-31</text>
  <text x="297.14285714285717" y="35.0" class="label" text-anchor="middle">52</text>
  <circle cx="302.2857142857143" cy="40.0" class="point"/>
  <text x="302.2857142857143" y="375" class="label" text-anchor="middle">2026-01-01</text>
  <text x="302.2857142857143" y="35.0" class="label" text-anchor="middle">52</text>
  <circle cx="307.42857142857144" cy="40.0" class="point"/>
  <text x="307.42857142857144" y="375" class="label" text-anchor="middle">2026-01-02</text>
  <text x="307.42857142857144" y="35.0" class="label" text-anchor="middle">52</text>
  <circle cx="312.57142857142856" cy="40.0" class="point"/>
  <text x="312.57142857142856" y="375" class="label" text-anchor="middle">2026-01-03</text>
  <text x="312.57142857142856" y="35.0" class="label" text-anchor="middle">52</text>
  <circle cx="317.7142857142857" cy="40.0" class="point"/>
  <text x="317.7142857142857" y="375" class="label" text-anchor="middle">2026-01-04</text>
  <text x="317.7142857142857" y="35.0" class="label" text-anchor="middle">52</text>
  <circle cx="322.85714285714283" cy="40.0" class="point"/>
  <text x="322.85714285714283" y="375" class="label" text-anchor="middle">2026-01-05</text>
  <text x="322.85714285714283" y="35.0" class="label" text-anchor="middle">52</text>
  <circle cx="328.0" cy="40.0" class="point"/>
  <text x="328.0" y="375" class="label" text-anchor="middle">2026-01-06</text>
  <text x="328.0" y="35.0" class="label" text-anchor="middle">52</text>
  <circle cx="333.14285714285717" cy="40.0" class="point"/>
  <text x="333.14285714285717" y="375" class="label" text-anchor="middle">2026-01-07</text>
  <text x="333.14285714285717" y="35.0" class="label" text-anchor="middle">52</text>
  <circle cx="338.2857142857143" cy="40.0" class="point"/>
  <text x="338.2857142857143" y="375" class="label" text-anchor="middle">2026-01-08</text>
  <text x="338.2857142857143" y="35.0" class="label" text-anchor="middle">52</text>
  <circle cx="343.42857142857144" cy="40.0" class="point"/>
  <text x="343.42857142857144" y="375" class="label" text-anchor="middle">2026-01-09</text>
  <text x="343.42857142857144" y="35.0" class="label" text-anchor="middle">52</text>
  <circle cx="348.57142857142856" cy="40.0" class="point"/>
  <text x="348.57142857142856" y="375" class="label" text-anchor="middle">2026-01-10</text>
  <text x="348.57142857142856" y="35.0" class="label" text-anchor="middle">52</text>
  <circle cx="353.7142857142857" cy="40.0" class="point"/>
  <text x="353.7142857142857" y="375" class="label" text-anchor="middle">2026-01-11</text>
  <text x="353.7142857142857" y="35.0" class="label" text-anchor="middle">52</text>
  <circle cx="358.85714285714283" cy="40.0" class="point"/>
  <text x="358.85714285714283" y="375" class="label" text-anchor="middle">2026-01-12</text>
  <text x="358.85714285714283" y="35.0" class="label" text-anchor="middle">52</text>
  <circle cx="364.0" cy="40.0" class="point"/>
  <text x="364.0" y="375" class="label" text-anchor="middle">2026-01-13</text>
  <text x="364.0" y="35.0" class="label" text-anchor="middle">52</text>
  <circle cx="369.1428571428571" cy="40.0" class="point"/>
  <text x="369.1428571428571" y="375" class="label" text-anchor="middle">2026-01-14</text>
  <text x="369.1428571428571" y="35.0" class="label" text-anchor="middle">52</text>
  <circle cx="374.2857142857143" cy="40.0" class="point"/>
  <text x="374.2857142857143" y="375" class="label" text-anchor="middle">2026-01-15</text>
  <text x="374.2857142857143" y="35.0" class="label" text-anchor="middle">52</text>
  <circle cx="379.42857142857144" cy="40.0" class="point"/>
  <text x="379.42857142857144" y="375" class="label" text-anchor="middle">2026-01-16</text>
  <text x="379.42857142857144" y="35.0" class="label" text-anchor="middle">52</text>
  <circle cx="384.5714285714286" cy="40.0" class="point"/>
  <text x="384.5714285714286" y="375" class="label" text-anchor="middle">2026-01-17</text>
  <text x="384.5714285714286" y="35.0" class="label" text-anchor="middle">52</text>
  <circle cx="389.7142857142857" cy="40.0" class="point"/>
  <text x="389.7142857142857" y="375" class="label" text-anchor="middle">2026-01-18</text>
  <text x="389.7142857142857" y="35.0" class="label" text-anchor="middle">52</text>
  <circle cx="394.8571428571429" cy="40.0" class="point"/>
  <text x="394.8571428571429" y="375" class="label" text-anchor="middle">2026-01-19</text>
  <text x="394.8571428571429" y="35.0" class="label" text-anchor="middle">52</text>
  <circle cx="400.0" cy="40.0" class="point"/>
  <text x="400.0" y="375" class="label" text-anchor="middle">2026-01-20</text>
  <text x="400.0" y="35.0" class="label" text-anchor="middle">52</text>
  <circle cx="405.1428571428571" cy="40.0" class="point"/>
  <text x="405.1428571428571" y="375" class="label" text-anchor="middle">2026-01-21</text>
  <text x="405.1428571428571" y="35.0" class="label" text-anchor="middle">52</text>
  <circle cx="410.2857142857142" cy="40.0" class="point"/>
  <text x="410.2857142857142" y="375" class="label" text-anchor="middle">2026-01-22</text>
  <text x="410.2857142857142" y="35.0" class="label" text-anchor="middle">52</text>
  <circle cx="415.42857142857144" cy="40.0" class="point"/>
  <text x="415.42857142857144" y="375" class="label" text-anchor="middle">2026-01-23</text>
  <text x="415.42857142857144" y="35.0" class="label" text-anchor="middle">52</text>
  <circle cx="420.57142857142856" cy="40.0" class="point"/>
  <text x="420.57142857142856" y="375" class="label" text-anchor="middle">2026-01-24</text>
  <text x="420.57142857142856" y="35.0" class="label" text-anchor="middle">52</text>
  <circle cx="425.7142857142857" cy="40.0" class="point"/>
  <text x="425.7142857142857" y="375" class="label" text-anchor="middle">2026-01-25</text>
  <text x="425.7142857142857" y="35.0" class="label" text-anchor="middle">52</text>
  <circle cx="430.85714285714283" cy="40.0" class="point"/>
  <text x="430.85714285714283" y="375" class="label" text-anchor="middle">2026-01-26</text>
  <text x="430.85714285714283" y="35.0" class="label" text-anchor="middle">52</text>
  <circle cx="436.00000000000006" cy="40.0" class="point"/>
  <text x="436.00000000000006" y="375" class="label" text-anchor="middle">2026-01-27</text>
  <text x="436.00000000000006" y="35.0" class="label" text-anchor="middle">52</text>
  <circle cx="441.14285714285717" cy="40.0" class="point"/>
  <text x="441.14285714285717" y="375" class="label" text-anchor="middle">2026-01-28</text>
  <text x="441.14285714285717" y="35.0" class="label" text-anchor="middle">52</text>
  <circle cx="446.2857142857143" cy="40.0" class="point"/>
  <text x="446.2857142857143" y="375" class="label" text-anchor="middle">2026-01-29</text>
  <text x="446.2857142857143" y="35.0" class="label" text-anchor="middle">52</text>
  <circle cx="451.4285714285714" cy="40.0" class="point"/>
  <text x="451.4285714285714" y="375" class="label" text-anchor="middle">2026-01-30</text>
  <text x="451.4285714285714" y="35.0" class="label" text-anchor="middle">52</text>
  <circle cx="456.5714285714286" cy="40.0" class="point"/>
  <text x="456.5714285714286" y="375" class="label" text-anchor="middle">2026-01-31</text>
  <text x="456.5714285714286" y="35.0" class="label" text-anchor="middle">52</text>
  <circle cx="461.7142857142857" cy="40.0" class="point"/>
  <text x="461.7142857142857" y="375" class="label" text-anchor="middle">2026-02-01</text>
  <text x="461.7142857142857" y="35.0" class="label" text-anchor="middle">52</text>
  <circle cx="466.85714285714283" cy="40.0" class="point"/>
  <text x="466.85714285714283" y="375" class="label" text-anchor="middle">2026-02-02</text>
  <text x="466.85714285714283" y="35.0" class="label" text-anchor="middle">52</text>
  <circle cx="472.0" cy="40.0" class="point"/>
  <text x="472.0" y="375" class="label" text-anchor="middle">2026-02-03</text>
  <text x="472.0" y="35.0" class="label" text-anchor="middle">52</text>
  <circle cx="477.1428571428571" cy="40.0" class="point"/>
  <text x="477.1428571428571" y="375" class="label" text-anchor="middle">2026-02-04</text>
  <text x="477.1428571428571" y="35.0" class="label" text-anchor="middle">52</text>
  <circle cx="482.28571428571433" cy="40.0" class="point"/>
  <text x="482.28571428571433" y="375" class="label" text-anchor="middle">2026-02-05</text>
  <text x="482.28571428571433" y="35.0" class="label" text-anchor="middle">52</text>
  <circle cx="487.42857142857144" cy="40.0" class="point"/>
  <text x="487.42857142857144" y="375" class="label" text-anchor="middle">2026-02-06</text>
  <text x="487.42857142857144" y="35.0" class="label" text-anchor="middle">52</text>
  <circle cx="492.57142857142856" cy="40.0" class="point"/>
  <text x="492.57142857142856" y="375" class="label" text-anchor="middle">2026-02-07</text>
  <text x="492.57142857142856" y="35.0" class="label" text-anchor="middle">52</text>
  <circle cx="497.71428571428567" cy="40.0" class="point"/>
  <text x="497.71428571428567" y="375" class="label" text-anchor="middle">2026-02-08</text>
  <text x="497.71428571428567" y="35.0" class="label" text-anchor="middle">52</text>
  <circle cx="502.8571428571429" cy="40.0" class="point"/>
  <text x="502.8571428571429" y="375" class="label" text-anchor="middle">2026-02-09</text>
  <text x="502.8571428571429" y="35.0" class="label" text-anchor="middle">52</text>
  <circle cx="508.0" cy="40.0" class="point"/>
  <text x="508.0" y="375" class="label" text-anchor="middle">2026-02-10</text>
  <text x="508.0" y="35.0" class="label" text-anchor="middle">52</text>
  <circle cx="513.1428571428571" cy="40.0" class="point"/>
  <text x="513.1428571428571" y="375" class="label" text-anchor="middle">2026-02-11</text>
  <text x="513.1428571428571" y="35.0" class="label" text-anchor="middle">52</text>
  <circle cx="518.2857142857142" cy="40.0" class="point"/>
  <text x="518.2857142857142" y="375" class="label" text-anchor="middle">2026-02-12</text>
  <text x="518.2857142857142" y="35.0" class="label" text-anchor="middle">52</text>
  <circle cx="523.4285714285713" cy="40.0" class="point"/>
  <text x="523.4285714285713" y="375" class="label" text-anchor="middle">2026-02-13</text>
  <text x="523.4285714285713" y="35.0" class="label" text-anchor="middle">52</text>
  <circle cx="528.5714285714287" cy="40.0" class="point"/>
  <text x="528.5714285714287" y="375" class="label" text-anchor="middle">2026-02-14</text>
  <text x="528.5714285714287" y="35.0" class="label" text-anchor="middle">52</text>
  <circle cx="533.7142857142858" cy="40.0" class="point"/>
  <text x="533.7142857142858" y="375" class="label" text-anchor="middle">2026-02-15</text>
  <text x="533.7142857142858" y="35.0" class="label" text-anchor="middle">52</text>
  <circle cx="538.8571428571429" cy="40.0" class="point"/>
  <text x="538.8571428571429" y="375" class="label" text-anchor="middle">2026-02-16</text>
  <text x="538.8571428571429" y="35.0" class="label" text-anchor="middle">52</text>
  <circle cx="544.0" cy="40.0" class="point"/>
  <text x="544.0" y="375" class="label" text-anchor="middle">2026-02-17</text>
  <text x="544.0" y="35.0" class="label" text-anchor="middle">52</text>
  <circle cx="549.1428571428571" cy="40.0" class="point"/>
  <text x="549.1428571428571" y="375" class="label" text-anchor="middle">2026-02-18</text>
  <text x="549.1428571428571" y="35.0" class="label" text-anchor="middle">52</text>
  <circle cx="554.2857142857143" cy="40.0" class="point"/>
  <text x="554.2857142857143" y="375" class="label" text-anchor="middle">2026-02-19</text>
  <text x="554.2857142857143" y="35.0" class="label" text-anchor="middle">52</text>
  <circle cx="559.4285714285714" cy="40.0" class="point"/>
  <text x="559.4285714285714" y="375" class="label" text-anchor="middle">2026-02-20</text>
  <text x="559.4285714285714" y="35.0" class="label" text-anchor="middle">52</text>
  <circle cx="564.5714285714286" cy="40.0" class="point"/>
  <text x="564.5714285714286" y="375" class="label" text-anchor="middle">2026-02-21</text>
  <text x="564.5714285714286" y="35.0" class="label" text-anchor="middle">52</text>
  <circle cx="569.7142857142858" cy="40.0" class="point"/>
  <text x="569.7142857142858" y="375" class="label" text-anchor="middle">2026-02-22</text>
  <text x="569.7142857142858" y="35.0" class="label" text-anchor="middle">52</text>
  <circle cx="574.8571428571429" cy="40.0" class="point"/>
  <text x="574.8571428571429" y="375" class="label" text-anchor="middle">2026-02-23</text>
  <text x="574.8571428571429" y="35.0" class="label" text-anchor="middle">52</text>
  <circle cx="580.0" cy="40.0" class="point"/>
  <text x="580.0" y="375" class="label" text-anchor="middle">2026-02-24</text>
  <text x="580.0" y="35.0" class="label" text-anchor="middle">52</text>
  <circle cx="585.1428571428571" cy="40.0" class="point"/>
  <text x="585.1428571428571" y="375" class="label" text-anchor="middle">2026-02-25</text>
  <text x="585.1428571428571" y="35.0" class="label" text-anchor="middle">52</text>
  <circle cx="590.2857142857142" cy="40.0" class="point"/>
  <text x="590.2857142857142" y="375" class="label" text-anchor="middle">2026-02-26</text>
  <text x="590.2857142857142" y="35.0" class="label" text-anchor="middle">52</text>
  <circle cx="595.4285714285714" cy="40.0" class="point"/>
  <text x="595.4285714285714" y="375" class="label" text-anchor="middle">2026-02-27</text>
  <text x="595.4285714285714" y="35.0" class="label" text-anchor="middle">52</text>
  <circle cx="600.5714285714286" cy="40.0" class="point"/>
  <text x="600.5714285714286" y="375" class="label" text-anchor="middle">2026-02-28</text>
  <text x="600.5714285714286" y="35.0" class="label" text-anchor="middle">52</text>
  <circle cx="605.7142857142857" cy="40.0" class="point"/>
  <text x="605.7142857142857" y="375" class="label" text-anchor="middle">2026-03-01</text>
  <text x="605.7142857142857" y="35.0" class="label" text-anchor="middle">52</text>
  <circle cx="610.8571428571428" cy="40.0" class="point"/>
  <text x="610.8571428571428" y="375" class="label" text-anchor="middle">2026-03-02</text>
  <text x="610.8571428571428" y="35.0" class="label" text-anchor="middle">52</text>
  <circle cx="616.0" cy="40.0" class="point"/>
  <text x="616.0" y="375" class="label" text-anchor="middle">2026-03-03</text>
  <text x="616.0" y="35.0" class="label" text-anchor="middle">52</text>
  <circle cx="621.1428571428571" cy="40.0" class="point"/>
  <text x="621.1428571428571" y="375" class="label" text-anchor="middle">2026-03-04</text>
  <text x="621.1428571428571" y="35.0" class="label" text-anchor="middle">52</text>
  <circle cx="626.2857142857143" cy="40.0" class="point"/>
  <text x="626.2857142857143" y="375" class="label" text-anchor="middle">2026-03-05</text>
  <text x="626.2857142857143" y="35.0" class="label" text-anchor="middle">52</text>
  <circle cx="631.4285714285714" cy="40.0" class="point"/>
  <text x="631.4285714285714" y="375" class="label" text-anchor="middle">2026-03-06</text>
  <text x="631.4285714285714" y="35.0" class="label" text-anchor="middle">52</text>
  <circle cx="636.5714285714286" cy="40.0" class="point"/>
  <text x="636.5714285714286" y="375" class="label" text-anchor="middle">2026-03-07</text>
  <text x="636.5714285714286" y="35.0" class="label" text-anchor="middle">52</text>
  <circle cx="641.7142857142858" cy="40.0" class="point"/>
  <text x="641.7142857142858" y="375" class="label" text-anchor="middle">2026-03-08</text>
  <text x="641.7142857142858" y="35.0" class="label" text-anchor="middle">52</text>
  <circle cx="646.8571428571429" cy="40.0" class="point"/>
  <text x="646.8571428571429" y="375" class="label" text-anchor="middle">2026-03-09</text>
  <text x="646.8571428571429" y="35.0" class="label" text-anchor="middle">52</text>
  <circle cx="652.0" cy="40.0" class="point"/>
  <text x="652.0" y="375" class="label" text-anchor="middle">2026-03-10</text>
  <text x="652.0" y="35.0" class="label" text-anchor="middle">52</text>
  <circle cx="657.1428571428571" cy="40.0" class="point"/>
  <text x="657.1428571428571" y="375" class="label" text-anchor="middle">2026-03-11</text>
  <text x="657.1428571428571" y="35.0" class="label" text-anchor="middle">52</text>
  <circle cx="662.2857142857143" cy="40.0" class="point"/>
  <text x="662.2857142857143" y="375" class="label" text-anchor="middle">2026-03-12</text>
  <text x="662.2857142857143" y="35.0" class="label" text-anchor="middle">52</text>
  <circle cx="667.4285714285714" cy="40.0" class="point"/>
  <text x="667.4285714285714" y="375" class="label" text-anchor="middle">2026-03-13</text>
  <text x="667.4285714285714" y="35.0" class="label" text-anchor="middle">52</text>
  <circle cx="672.5714285714286" cy="40.0" class="point"/>
  <text x="672.5714285714286" y="375" class="label" text-anchor="middle">2026-03-14</text>
  <text x="672.5714285714286" y="35.0" class="label" text-anchor="middle">52</text>
  <circle cx="677.7142857142857" cy="40.0" class="point"/>
  <text x="677.7142857142857" y="375" class="label" text-anchor="middle">2026-03-15</text>
  <text x="677.7142857142857" y="35.0" class="label" text-anchor="middle">52</text>
  <circle cx="682.8571428571429" cy="40.0" class="point"/>
  <text x="682.8571428571429" y="375" class="label" text-anchor="middle">2026-03-16</text>
  <text x="682.8571428571429" y="35.0" class="label" text-anchor="middle">52</text>
  <circle cx="688.0" cy="40.0" class="point"/>
  <text x="688.0" y="375" class="label" text-anchor="middle">2026-03-17</text>
  <text x="688.0" y="35.0" class="label" text-anchor="middle">52</text>
  <circle cx="693.1428571428571" cy="40.0" class="point"/>
  <text x="693.1428571428571" y="375" class="label" text-anchor="middle">2026-03-18</text>
  <text x="693.1428571428571" y="35.0" class="label" text-anchor="middle">52</text>
  <circle cx="698.2857142857142" cy="40.0" class="point"/>
  <text x="698.2857142857142" y="375" class="label" text-anchor="middle">2026-03-19</text>
  <text x="698.2857142857142" y="35.0" class="label" text-anchor="middle">52</text>
  <circle cx="703.4285714285714" cy="40.0" class="point"/>
  <text x="703.4285714285714" y="375" class="label" text-anchor="middle">2026-03-20</text>
  <text x="703.4285714285714" y="35.0" class="label" text-anchor="middle">52</text>
  <circle cx="708.5714285714286" cy="40.0" class="point"/>
  <text x="708.5714285714286" y="375" class="label" text-anchor="middle">2026-03-21</text>
  <text x="708.5714285714286" y="35.0" class="label" text-anchor="middle">52</text>
  <circle cx="713.7142857142857" cy="40.0" class="point"/>
  <text x="713.7142857142857" y="375" class="label" text-anchor="middle">2026-03-22</text>
  <text x="713.7142857142857" y="35.0" class="label" text-anchor="middle">52</text>
  <circle cx="718.8571428571429" cy="40.0" class="point"/>
  <text x="718.8571428571429" y="375" class="label" text-anchor="middle">2026-03-23</text>
  <text x="718.8571428571429" y="35.0" class="label" text-anchor="middle">52</text>
  <circle cx="724.0" cy="40.0" class="point"/>
  <text x="724.0" y="375" class="label" text-anchor="middle">2026-03-24</text>
  <text x="724.0" y="35.0" class="label" text-anchor="middle">52</text>
  <circle cx="729.1428571428572" cy="40.0" class="point"/>
  <text x="729.1428571428572" y="375" class="label" text-anchor="middle">2026-03-25</text>
  <text x="729.1428571428572" y="35.0" class="label" text-anchor="middle">52</text>
  <circle cx="734.2857142857143" cy="40.0" class="point"/>
  <text x="734.2857142857143" y="375" class="label" text-anchor="middle">2026-03-26</text>
  <text x="734.2857142857143" y="35.0" class="label" text-anchor="middle">52</text>
  <circle cx="739.4285714285714" cy="40.0" class="point"/>
  <text x="739.4285714285714" y="375" class="label" text-anchor="middle">2026-03-27</text>
  <text x="739.4285714285714" y="35.0" class="label" text-anchor="middle">52</text>
  <circle cx="744.5714285714286" cy="40.0" class="point"/>
  <text x="744.5714285714286" y="375" class="label" text-anchor="middle">2026-03-28</text>
  <text x="744.5714285714286" y="35.0" class="label" text-anchor="middle">52</text>
  <circle cx="749.7142857142858" cy="40.0" class="point"/>
  <text x="749.7142857142858" y="375" class="label" text-anchor="middle">2026-03-29</text>
  <text x="749.7142857142858" y="35.0" class="label" text-anchor="middle">52</text>
  <circle cx="754.8571428571429" cy="40.0" class="point"/>
  <text x="754.8571428571429" y="375" class="label" text-anchor="middle">2026-03-30</text>
  <text x="754.8571428571429" y="35.0" class="label" text-anchor="middle">52</text>
  <circle cx="760.0" cy="40.0" class="point"/>
  <text x="760.0" y="375" class="label" text-anchor="middle">2026-03-31</text>
  <text x="760.0" y="35.0" class="label" text-anchor="middle">52</text>
  <text x="30" y="363.0" class="label" text-anchor="end">0</text>
  <text x="30" y="301.46153846153845" class="label" text-anchor="end">10</text>
  <text x="30" y="239.9230769230769" class="label" text-anchor="end">20</text>
  <text x="30" y="178.38461538461542" class="label" text-anchor="end">30</text>
  <text x="30" y="116.84615384615384" class="label" text-anchor="end">40</text>
  <text x="30" y="55.30769230769232" class="label" text-anchor="end">50</text>
</svg>