<svg xmlns="http://www.w3.org/2000/svg" width="800" height="400" viewBox="0 0 800 400">
  <style>
    .axis{stroke:#666;stroke-width:1}
    .line{stroke:#4a9;stroke-width:2;fill:none}
    .point{fill:#4a9;r:4}
    .label{font:10px sans-serif;fill:#aaa}
    .title{font:14px sans-serif;fill:#333}
  </style>
  <text x="400" y="20" class="title" text-anchor="middle">OPIC Field Growth Timeline</text>
  <line x1="40" y1="40" x2="40" y2="360" class="axis"/>
  <line x1="40" y1="360" x2="760" y2="360" class="axis"/>
  <path d="M 40.0,101.53846153846155 L 47.578947368421055,101.53846153846155 L 55.1578947368421,101.53846153846155 L 62.73684210526316,101.53846153846155 L 70.3157894736842,101.53846153846155 L 77.89473684210526,101.53846153846155 L 85.47368421052632,101.53846153846155 L 93.05263157894737,101.53846153846155 L 100.63157894736841,101.53846153846155 L 108.21052631578948,101.53846153846155 L 115.78947368421052,101.53846153846155 L 123.36842105263158,101.53846153846155 L 130.94736842105263,101.53846153846155 L 138.5263157894737,101.53846153846155 L 146.10526315789474,101.53846153846155 L 153.68421052631578,101.53846153846155 L 161.26315789473682,101.53846153846155 L 168.8421052631579,101.53846153846155 L 176.42105263157896,101.53846153846155 L 184.0,101.53846153846155 L 191.57894736842104,101.53846153846155 L 199.1578947368421,101.53846153846155 L 206.73684210526315,101.53846153846155 L 214.31578947368422,101.53846153846155 L 221.89473684210526,101.53846153846155 L 229.4736842105263,101.53846153846155 L 237.05263157894737,101.53846153846155 L 244.6315789473684,40.0 L 252.21052631578945,40.0 L 259.7894736842105,40.0 L 267.36842105263156,40.0 L 274.9473684210526,40.0 L 282.52631578947364,40.0 L 290.1052631578948,40.0 L 297.6842105263158,40.0 L 305.2631578947368,40.0 L 312.8421052631579,40.0 L 320.42105263157896,40.0 L 328.0,40.0 L 335.57894736842104,40.0 L 343.1578947368421,40.0 L 350.7368421052632,40.0 L 358.3157894736842,40.0 L 365.89473684210526,40.0 L 373.4736842105263,40.0 L 381.05263157894734,40.0 L 388.63157894736844,40.0 L 396.2105263157895,40.0 L 403.7894736842105,40.0 L 411.3684210526316,40.0 L 418.9473684210526,40.0 L 426.5263157894737,40.0 L 434.10526315789474,40.0 L 441.6842105263158,40.0 L 449.2631578947368,40.0 L 456.8421052631579,40.0 L 464.4210526315789,40.0 L 472.0,40.0 L 479.57894736842104,40.0 L 487.15789473684214,40.0 L 494.7368421052631,40.0 L 502.3157894736842,40.0 L 509.89473684210526,40.0 L 517.4736842105262,40.0 L 525.0526315789473,40.0 L 532.6315789473684,40.0 L 540.2105263157896,40.0 L 547.7894736842105,40.0 L 555.3684210526316,40.0 L 562.9473684210527,40.0 L 570.5263157894736,40.0 L 578.1052631578947,40.0 L 585.6842105263158,40.0 L 593.2631578947368,40.0 L 600.8421052631579,40.0 L 608.421052631579,40.0 L 616.0,40.0 L 623.578947368421,40.0 L 631.1578947368421,40.0 L 638.7368421052632,40.0 L 646.3157894736842,40.0 L 653.8947368421052,40.0 L 661.4736842105264,40.0 L 669.0526315789474,40.0 L 676.6315789473684,40.0 L 684.2105263157895,40.0 L 691.7894736842105,40.0 L 699.3684210526316,40.0 L 706.9473684210526,40.0 L 714.5263157894738,40.0 L 722.1052631578947,40.0 L 729.6842105263157,40.0 L 737.2631578947369,40.0 L 744.8421052631579,40.0 L 752.421052631579,40.0 L 760.0,40.0" class="line"/>
  <circle cx="40.0" cy="101.53846153846155" class="point"/>
  <text x="40.0" y="375" class="label" text-anchor="middle">2025-11-11</text>
  <text x="40.0" y="96.53846153846155" class="label" text-anchor="middle">42</text>
  <circle cx="47.578947368421055" cy="101.53846153846155" class="point"/>
  <text x="47.578947368421055" y="375" class="label" text-anchor="middle">2025-11-12</text>
  <text x="47.578947368421055" y="96.53846153846155" class="label" text-anchor="middle">42</text>
  <circle cx="55.1578947368421" cy="101.53846153846155" class="point"/>
  <text x="55.1578947368421" y="375" class="label" text-anchor="middle">2025-11-13</text>
  <text x="55.1578947368421" y="96.53846153846155" class="label" text-anchor="middle">42</text>
  <circle cx="62.73684210526316" cy="101.53846153846155" class="point"/>
  <text x="62.73684210526316" y="375" class="label" text-anchor="middle">2025-11-14</text>
  <text x="62.73684210526316" y="96.53846153846155" class="label" text-anchor="middle">42</text>
  <circle cx="70.3157894736842" cy="101.53846153846155" class="point"/>
  <text x="70.3157894736842" y="375" class="label" text-anchor="middle">2025-11-15</text>
  <text x="70.3157894736842" y="96.53846153846155" class="label" text-anchor="middle">42</text>
  <circle cx="77.89473684210526" cy="101.53846153846155" class="point"/>
  <text x="77.89473684210526" y="375" class="label" text-anchor="middle">2025-11-16</text>
  <text x="77.89473684210526" y="96.53846153846155" class="label" text-anchor="middle">42</text>
  <circle cx="85.47368421052632" cy="101.53846153846155" class="point"/>
  <text x="85.47368421052632" y="375" class="label" text-anchor="middle">2025-11-17</text>
  <text x="85.47368421052632" y="96.53846153846155" class="label" text-anchor="middle">42</text>
  <circle cx="93.05263157894737" cy="101.53846153846155" class="point"/>
  <text x="93.05263157894737" y="375" class="label" text-anchor="middle">2025-11-18</text>
  <text x="93.05263157894737" y="96.53846153846155" class="label" text-anchor="middle">42</text>
  <circle cx="100.63157894736841" cy="101.53846153846155" class="point"/>
  <text x="100.63157894736841" y="375" class="label" text-anchor="middle">2025-11-19</text>
  <text x="100.63157894736841" y="96.53846153846155" class="label" text-anchor="middle">42</text>
  <circle cx="108.21052631578948" cy="101.53846153846155" class="point"/>
  <text x="108.21052631578948" y="375" class="label" text-anchor="middle">2025-11-20</text>
  <text x="108.21052631578948" y="96.53846153846155" class="label" text-anchor="middle">42</text>
  <circle cx="115.78947368421052" cy="101.53846153846155" class="point"/>
  <text x="115.78947368421052" y="375" class="label" text-anchor="middle">2025-11-21</text>
  <text x="115.78947368421052" y="96.53846153846155" class="label" text-anchor="middle">42</text>
  <circle cx="123.36842105263158" cy="101.53846153846155" class="point"/>
  <text x="123.36842105263158" y="375" class="label" text-anchor="middle">2025-11-22</text>
  <text x="123.36842105263158" y="96.53846153846155" class="label" text-anchor="middle">42</text>
  <circle cx="130.94736842105263" cy="101.53846153846155" class="point"/>
  <text x="130.94736842105263" y="375" class="label" text-anchor="middle">2025-11-23</text>
  <text x="130.94736842105263" y="96.53846153846155" class="label" text-anchor="middle">42</text>
  <circle cx="138.5263157894737" cy="101.53846153846155" class="point"/>
  <text x="138.5263157894737" y="375" class="label" text-anchor="middle">2025-11-24</text>
  <text x="138.5263157894737" y="96.53846153846155" class="label" text-anchor="middle">42</text>
  <circle cx="146.10526315789474" cy="101.53846153846155" class="point"/>
  <text x="146.10526315789474" y="375" class="label" text-anchor="middle">2025-11-25</text>
  <text x="146.10526315789474" y="96.53846153846155" class="label" text-anchor="middle">42</text>
  <circle cx="153.68421052631578" cy="101.53846153846155" class="point"/>
  <text x="153.68421052631578" y="375" class="label" text-anchor="middle">2025-11-26</text>
  <text x="153.68421052631578" y="96.53846153846155" class="label" text-anchor="middle">42</text>
  <circle cx="161.26315789473682" cy="101.53846153846155" class="point"/>
  <text x="161.26315789473682" y="375" class="label" text-anchor="middle">2025-11-27</text>
  <text x="161.26315789473682" y="96.53846153846155" class="label" text-anchor="middle">42</text>
  <circle cx="168.8421052631579" cy="101.53846153846155" class="point"/>
  <text x="168.8421052631579" y="375" class="label" text-anchor="middle">2025-11-28</text>
  <text x="168.8421052631579" y="96.53846153846155" class="label" text-anchor="middle">42</text>
  <circle cx="176.42105263157896" cy="101.53846153846155" class="point"/>
  <text x="176.42105263157896" y="375" class="label" text-anchor="middle">2025-11-29</text>
  <text x="176.42105263157896" y="96.53846153846155" class="label" text-anchor="middle">42</text>
  <circle cx="184.0" cy="101.53846153846155" class="point"/>
  <text x="184.0" y="375" class="label" text-anchor="middle">2025-11-30</text>
  <text x="184.0" y="96.53846153846155" class="label" text-anchor="middle">42</text>
  <circle cx="191.57894736842104" cy="101.53846153846155" class="point"/>
  <text x="191.57894736842104" y="375" class="label" text-anchor="middle">2025-12-01</text>
  <text x="191.57894736842104" y="96.53846153846155" class="label" text-anchor="middle">42</text>
  <circle cx="199.1578947368421" cy="101.53846153846155" class="point"/>
  <text x="199.1578947368421" y="375" class="label" text-anchor="middle">2025-12-02</text>
  <text x="199.1578947368421" y="96.53846153846155" class="label" text-anchor="middle">42</text>
  <circle cx="206.73684210526315" cy="101.53846153846155" class="point"/>
  <text x="206.73684210526315" y="375" class="label" text-anchor="middle">2025-12-03</text>
  <text x="206.73684210526315" y="96.53846153846155" class="label" text-anchor="middle">42</text>
  <circle cx="214.31578947368422" cy="101.53846153846155" class="point"/>
  <text x="214.31578947368422" y="375" class="label" text-anchor="middle">2025-12-04</text>
  <text x="214.31578947368422" y="96.53846153846155" class="label" text-anchor="middle">42</text>
  <circle cx="221.89473684210526" cy="101.53846153846155" class="point"/>
  <text x="221.89473684210526" y="375" class="label" text-anchor="middle">2025-12-05</text>
  <text x="221.89473684210526" y="96.53846153846155" class="label" text-anchor="middle">42</text>
  <circle cx="229.4736842105263" cy="101.53846153846155" class="point"/>
  <text x="229.4736842105263" y="375" class="label" text-anchor="middle">2025-12-06</text>
  <text x="229.4736842105263" y="96.53846153846155" class="label" text-anchor="middle">42</text>
  <circle cx="237.05263157894737" cy="101.53846153846155" class="point"/>
  <text x="237.05263157894737" y="375" class="label" text-anchor="middle">2025-12-07</text>
  <text x="237.05263157894737" y="96.53846153846155" class="label" text-anchor="middle">42</text>
  <circle cx="244.6315789473684" cy="40.0" class="point"/>
  <text x="244.6315789473684" y="375" class="label" text-anchor="middle">2025-12-08</text>
  <text x="244.6315789473684" y="35.0" class="label" text-anchor="middle">52</text>
  <circle cx="252.21052631578945" cy="40.0" class="point"/>
  <text x="252.21052631578945" y="375" class="label" text-anchor="middle">2025-12-09</text>
  <text x="252.21052631578945" y="35.0" class="label" text-anchor="middle">52</text>
  <circle cx="259.7894736842105" cy="40.0" class="point"/>
  <text x="259.7894736842105" y="375" class="label" text-anchor="middle">2025-12-10</text>
  <text x="259.7894736842105" y="35.0" class="label" text-anchor="middle">52</text>
  <circle cx="267.36842105263156" cy="40.0" class="point"/>
  <text x="267.36842105263156" y="375" class="label" text-anchor="middle">2025-12-11</text>
  <text x="267.36842105263156" y="35.0" class="label" text-anchor="middle">52</text>
  <circle cx="274.9473684210526" cy="40.0" class="point"/>
  <text x="274.9473684210526" y="375" class="label" text-anchor="middle">2025-12-12</text>
  <text x="274.9473684210526" y="35.0" class="label" text-anchor="middle">52</text>
  <circle cx="282.52631578947364" cy="40.0" class="point"/>
  <text x="282.52631578947364" y="375" class="label" text-anchor="middle">2025-12-13</text>
  <text x="282.52631578947364" y="35.0" class="label" text-anchor="middle">52</text>
  <circle cx="290.1052631578948" cy="40.0" class="point"/>
  <text x="290.1052631578948" y="375" class="label" text-anchor="middle">2025-12-14</text>
  <text x="290.1052631578948" y="35.0" class="label" text-anchor="middle">52</text>
  <circle cx="297.6842105263158" cy="40.0" class="point"/>
  <text x="297.6842105263158" y="375" class="label" text-anchor="middle">2025-12-15</text>
  <text x="297.6842105263158" y="35.0" class="label" text-anchor="middle">52</text>
  <circle cx="305.2631578947368" cy="40.0" class="point"/>
  <text x="305.2631578947368" y="375" class="label" text-anchor="middle">2025-12-16</text>
  <text x="305.2631578947368" y="35.0" class="label" text-anchor="middle">52</text>
  <circle cx="312.8421052631579" cy="40.0" class="point"/>
  <text x="312.8421052631579" y="375" class="label" text-anchor="middle">2025-12-17</text>
  <text x="312.8421052631579" y="35.0" class="label" text-anchor="middle">52</text>
  <circle cx="320.42105263157896" cy="40.0" class="point"/>
  <text x="320.42105263157896" y="375" class="label" text-anchor="middle">2025-12-18</text>
  <text x="320.42105263157896" y="35.0" class="label" text-anchor="middle">52</text>
  <circle cx="328.0" cy="40.0" class="point"/>
  <text x="328.0" y="375" class="label" text-anchor="middle">2025-12-19</text>
  <text x="328.0" y="35.0" class="label" text-anchor="middle">52</text>
  <circle cx="335.57894736842104" cy="40.0" class="point"/>
  <text x="335.57894736842104" y="375" class="label" text-anchor="middle">2025-12-20</text>
  <text x="335.57894736842104" y="35.0" class="label" text-anchor="middle">52</text>
  <circle cx="343.1578947368421" cy="40.0" class="point"/>
  <text x="343.1578947368421" y="375" class="label" text-anchor="middle">2025-12-21</text>
  <text x="343.1578947368421" y="35.0" class="label" text-anchor="middle">52</text>
  <circle cx="350.7368421052632" cy="40.0" class="point"/>
  <text x="350.7368421052632" y="375" class="label" text-anchor="middle">2025-12-22</text>
  <text x="350.7368421052632" y="35.0" class="label" text-anchor="middle">52</text>
  <circle cx="358.3157894736842" cy="40.0" class="point"/>
  <text x="358.3157894736842" y="375" class="label" text-anchor="middle">2025-12-23</text>
  <text x="358.3157894736842" y="35.0" class="label" text-anchor="middle">52</text>
  <circle cx="365.89473684210526" cy="40.0" class="point"/>
  <text x="365.89473684210526" y="375" class="label" text-anchor="middle">2025-12-24</text>
  <text x="365.89473684210526" y="35.0" class="label" text-anchor="middle">52</text>
  <circle cx="373.4736842105263" cy="40.0" class="point"/>
  <text x="373.4736842105263" y="375" class="label" text-anchor="middle">2025-12-25</text>
  <text x="373.4736842105263" y="35.0" class="label" text-anchor="middle">52</text>
  <circle cx="381.05263157894734" cy="40.0" class="point"/>
  <text x="381.05263157894734" y="375" class="label" text-anchor="middle">2025-12-26</text>
  <text x="381.05263157894734" y="35.0" class="label" text-anchor="middle">52</text>
  <circle cx="388.63157894736844" cy="40.0" class="point"/>
  <text x="388.63157894736844" y="375" class="label" text-anchor="middle">2025-12-27</text>
  <text x="388.63157894736844" y="35.0" class="label" text-anchor="middle">52</text>
  <circle cx="396.2105263157895" cy="40.0" class="point"/>
  <text x="396.2105263157895" y="375" class="label" text-anchor="middle">2025-12-28</text>
  <text x="396.2105263157895" y="35.0" class="label" text-anchor="middle">52</text>
  <circle cx="403.7894736842105" cy="40.0" class="point"/>
  <text x="403.7894736842105" y="375" class="label" text-anchor="middle">2025-12-29</text>
  <text x="403.7894736842105" y="35.0" class="label" text-anchor="middle">52</text>
  <circle cx="411.3684210526316" cy="40.0" class="point"/>
  <text x="411.3684210526316" y="375" class="label" text-anchor="middle">2025-12-30</text>
  <text x="411.3684210526316" y="35.0" class="label" text-anchor="middle">52</text>
  <circle cx="418.9473684210526" cy="40.0" class="point"/>
  <text x="418.9473684210526" y="375" class="label" text-anchor="middle">2025-12-31</text>
  <text x="418.9473684210526" y="35.0" class="label" text-anchor="middle">52</text>
  <circle cx="426.5263157894737" cy="40.0" class="point"/>
  <text x="426.5263157894737" y="375" class="label" text-anchor="middle">2026-01-01</text>
  <text x="426.5263157894737" y="35.0" class="label" text-anchor="middle">52</text>
  <circle cx="434.10526315789474" cy="40.0" class="point"/>
  <text x="434.10526315789474" y="375" class="label" text-anchor="middle">2026-01-02</text>
  <text x="434.10526315789474" y="35.0" class="label" text-anchor="middle">52</text>
  <circle cx="441.6842105263158" cy="40.0" class="point"/>
  <text x="441.6842105263158" y="375" class="label" text-anchor="middle">2026-01-03</text>
  <text x="441.6842105263158" y="35.0" class="label" text-anchor="middle">52</text>
  <circle cx="449.2631578947368" cy="40.0" class="point"/>
  <text x="449.2631578947368" y="375" class="label" text-anchor="middle">2026-01-04</text>
  <text x="449.2631578947368" y="35.0" class="label" text-anchor="middle">52</text>
  <circle cx="456.8421052631579" cy="40.0" class="point"/>
  <text x="456.8421052631579" y="375" class="label" text-anchor="middle">2026-01-05</text>
  <text x="456.8421052631579" y="35.0" class="label" text-anchor="middle">52</text>
  <circle cx="464.4210526315789" cy="40.0" class="point"/>
  <text x="464.4210526315789" y="375" class="label" text-anchor="middle">2026-01-06</text>
  <text x="464.4210526315789" y="35.0" class="label" text-anchor="middle">52</text>
  <circle cx="472.0" cy="40.0" class="point"/>
  <text x="472.0" y="375" class="label" text-anchor="middle">2026-01-07</text>
  <text x="472.0" y="35.0" class="label" text-anchor="middle">52</text>
  <circle cx="479.57894736842104" cy="40.0" class="point"/>
  <text x="479.57894736842104" y="375" class="label" text-anchor="middle">2026-01-08</text>
  <text x="479.57894736842104" y="35.0" class="label" text-anchor="middle">52</text>
  <circle cx="487.15789473684214" cy="40.0" class="point"/>
  <text x="487.15789473684214" y="375" class="label" text-anchor="middle">2026-01-09</text>
  <text x="487.15789473684214" y="35.0" class="label" text-anchor="middle">52</text>
  <circle cx="494.7368421052631" cy="40.0" class="point"/>
  <text x="494.7368421052631" y="375" class="label" text-anchor="middle">2026-01-10</text>
  <text x="494.7368421052631" y="35.0" class="label" text-anchor="middle">52</text>
  <circle cx="502.3157894736842" cy="40.0" class="point"/>
  <text x="502.3157894736842" y="375" class="label" text-anchor="middle">2026-01-11</text>
  <text x="502.3157894736842" y="35.0" class="label" text-anchor="middle">52</text>
  <circle cx="509.89473684210526" cy="40.0" class="point"/>
  <text x="509.89473684210526" y="375" class="label" text-anchor="middle">2026-01-12</text>
  <text x="509.89473684210526" y="35.0" class="label" text-anchor="middle">52</text>
  <circle cx="517.4736842105262" cy="40.0" class="point"/>
  <text x="517.4736842105262" y="375" class="label" text-anchor="middle">2026-01-13</text>
  <text x="517.4736842105262" y="35.0" class="label" text-anchor="middle">52</text>
  <circle cx="525.0526315789473" cy="40.0" class="point"/>
  <text x="525.0526315789473" y="375" class="label" text-anchor="middle">2026-01-14</text>
  <text x="525.0526315789473" y="35.0" class="label" text-anchor="middle">52</text>
  <circle cx="532.6315789473684" cy="40.0" class="point"/>
  <text x="532.6315789473684" y="375" class="label" text-anchor="middle">2026-01-15</text>
  <text x="532.6315789473684" y="35.0" class="label" text-anchor="middle">52</text>
  <circle cx="540.2105263157896" cy="40.0" class="point"/>
  <text x="540.2105263157896" y="375" class="label" text-anchor="middle">2026-01-16</text>
  <text x="540.2105263157896" y="35.0" class="label" text-anchor="middle">52</text>
  <circle cx="547.7894736842105" cy="40.0" class="point"/>
  <text x="547.7894736842105" y="375" class="label" text-anchor="middle">2026-01-17</text>
  <text x="547.7894736842105" y="35.0" class="label" text-anchor="middle">52</text>
  <circle cx="555.3684210526316" cy="40.0" class="point"/>
  <text x="555.3684210526316" y="375" class="label" text-anchor="middle">2026-01-18</text>
  <text x="555.3684210526316" y="35.0" class="label" text-anchor="middle">52</text>
  <circle cx="562.9473684210527" cy="40.0" class="point"/>
  <text x="562.9473684210527" y="375" class="label" text-anchor="middle">2026-01-19</text>
  <text x="562.9473684210527" y="35.0" class="label" text-anchor="middle">52</text>
  <circle cx="570.5263157894736" cy="40.0" class="point"/>
  <text x="570.5263157894736" y="375" class="label" text-anchor="middle">2026-01-20</text>
  <text x="570.5263157894736" y="35.0" class="label" text-anchor="middle">52</text>
  <circle cx="578.1052631578947" cy="40.0" class="point"/>
  <text x="578.1052631578947" y="375" class="label" text-anchor="middle">2026-01-21</text>
  <text x="578.1052631578947" y="35.0" class="label" text-anchor="middle">52</text>
  <circle cx="585.6842105263158" cy="40.0" class="point"/>
  <text x="585.6842105263158" y="375" class="label" text-anchor="middle">2026-01-22</text>
  <text x="585.6842105263158" y="35.0" class="label" text-anchor="middle">52</text>
  <circle cx="593.2631578947368" cy="40.0" class="point"/>
  <text x="593.2631578947368" y="375" class="label" text-anchor="middle">2026-01-23</text>
  <text x="593.2631578947368" y="35.0" class="label" text-anchor="middle">52</text>
  <circle cx="600.8421052631579" cy="40.0" class="point"/>
  <text x="600.8421052631579" y="375" class="label" text-anchor="middle">2026-01-24</text>
  <text x="600.8421052631579" y="35.0" class="label" text-anchor="middle">52</text>
  <circle cx="608.421052631579" cy="40.0" class="point"/>
  <text x="608.421052631579" y="375" class="label" text-anchor="middle">2026-01-25</text>
  <text x="608.421052631579" y="35.0" class="label" text-anchor="middle">52</text>
  <circle cx="616.0" cy="40.0" class="point"/>
  <text x="616.0" y="375" class="label" text-anchor="middle">2026-01-26</text>
  <text x="616.0" y="35.0" class="label" text-anchor="middle">52</text>
  <circle cx="623.578947368421" cy="40.0" class="point"/>
  <text x="623.578947368421" y="375" class="label" text-anchor="middle">2026-01-27</text>
  <text x="623.578947368421" y="35.0" class="label" text-anchor="middle">52</text>
  <circle cx="631.1578947368421" cy="40.0" class="point"/>
  <text x="631.1578947368421" y="375" class="label" text-anchor="middle">2026-01-28</text>
  <text x="631.1578947368421" y="35.0" class="label" text-anchor="middle">52</text>
  <circle cx="638.7368421052632" cy="40.0" class="point"/>
  <text x="638.7368421052632" y="375" class="label" text-anchor="middle">2026-01-29</text>
  <text x="638.7368421052632" y="35.0" class="label" text-anchor="middle">52</text>
  <circle cx="646.3157894736842" cy="40.0" class="point"/>
  <text x="646.3157894736842" y="375" class="label" text-anchor="middle">2026-01-30</text>
  <text x="646.3157894736842" y="35.0" class="label" text-anchor="middle">52</text>
  <circle cx="653.8947368421052" cy="40.0" class="point"/>
  <text x="653.8947368421052" y="375" class="label" text-anchor="middle">2026-01-31</text>
  <text x="653.8947368421052" y="35.0" class="label" text-anchor="middle">52</text>
  <circle cx="661.4736842105264" cy="40.0" class="point"/>
  <text x="661.4736842105264" y="375" class="label" text-anchor="middle">2026-02-01</text>
  <text x="661.4736842105264" y="35.0" class="label" text-anchor="middle">52</text>
  <circle cx="669.0526315789474" cy="40.0" class="point"/>
  <text x="669.0526315789474" y="375" class="label" text-anchor="middle">2026-02-02</text>
  <text x="669.0526315789474" y="35.0" class="label" text-anchor="middle">52</text>
  <circle cx="676.6315789473684" cy="40.0" class="point"/>
  <text x="676.6315789473684" y="375" class="label" text-anchor="middle">2026-02-03</text>
  <text x="676.6315789473684" y="35.0" class="label" text-anchor="middle">52</text>
  <circle cx="684.2105263157895" cy="40.0" class="point"/>
  <text x="684.2105263157895" y="375" class="label" text-anchor="middle">2026-02-04</text>
  <text x="684.2105263157895" y="35.0" class="label" text-anchor="middle">52</text>
  <circle cx="691.7894736842105" cy="40.0" class="point"/>
  <text x="691.7894736842105" y="375" class="label" text-anchor="middle">2026-02-05</text>
  <text x="691.7894736842105" y="35.0" class="label" text-anchor="middle">52</text>
  <circle cx="699.3684210526316" cy="40.0" class="point"/>
  <text x="699.3684210526316" y="375" class="label" text-anchor="middle">2026-02-06</text>
  <text x="699.3684210526316" y="35.0" class="label" text-anchor="middle">52</text>
  <circle cx="706.9473684210526" cy="40.0" class="point"/>
  <text x="706.9473684210526" y="375" class="label" text-anchor="middle">2026-02-07</text>
  <text x="706.9473684210526" y="35.0" class="label" text-anchor="middle">52</text>
  <circle cx="714.5263157894738" cy="40.0" class="point"/>
  <text x="714.5263157894738" y="375" class="label" text-anchor="middle">2026-02-08</text>
  <text x="714.5263157894738" y="35.0" class="label" text-anchor="middle">52</text>
  <circle cx="722.1052631578947" cy="40.0" class="point"/>
  <text x="722.1052631578947" y="375" class="label" text-anchor="middle">2026-02-09</text>
  <text x="722.1052631578947" y="35.0" class="label" text-anchor="middle">52</text>
  <circle cx="729.6842105263157" cy="40.0" class="point"/>
  <text x="729.6842105263157" y="375" class="label" text-anchor="middle">2026-02-10</text>
  <text x="729.6842105263157" y="35.0" class="label" text-anchor="middle">52</text>
  <circle cx="737.2631578947369" cy="40.0" class="point"/>
  <text x="737.2631578947369" y="375" class="label" text-anchor="middle">2026-02-11</text>
  <text x="737.2631578947369" y="35.0" class="label" text-anchor="middle">52</text>
  <circle cx="744.8421052631579" cy="40.0" class="point"/>
  <text x="744.8421052631579" y="375" class="label" text-anchor="middle">2026-02-12</text>
  <text x="744.8421052631579" y="35.0" class="label" text-anchor="middle">52</text>
  <circle cx="752.421052631579" cy="40.0" class="point"/>
  <text x="752.421052631579" y="375" class="label" text-anchor="middle">2026-02-13</text>
  <text x="752.421052631579" y="35.0" class="label" text-anchor="middle">52</text>
  <circle cx="760.0" cy="40.0" class="point"/>
  <text x="760.0" y="375" class="label" text-anchor="middle">2026-02-14</text>
  <text x="760.0" y="35.0" class="label" text-anchor="middle">52</text>
  <text x="30" y="363.0" class="label" text-anchor="end">0</text>
  <text x="30" y="301.46153846153845" class="label" text-anchor="end">10</text>
  <text x="30" y="239.9230769230769" class="label" text-anchor="end">20</text>
  <text x="30" y="178.38461538461542" class="label" text-anchor="end">30</text>
  <text x="30" y="116.84615384615384" class="label" text-anchor="end">40</text>
  <text x="30" y="55.30769230769232" class="label" text-anchor="end">50</text>
</svg>