<svg xmlns="http://www.w3.org/2000/svg" width="800" height="400" viewBox="0 0 800 400">
  <style>
    .axis{stroke:#666;stroke-width:1}
    .line{stroke:#4a9;stroke-width:2;fill:none}
    .point{fill:#4a9;r:4}
    .label{font:10px sans-serif;fill:#aaa}
    .title{font:14px sans-serif;fill:#333}
  </style>
  <text x="400" y="20" class="title" text-anchor="middle">OPIC Field Growth Timeline</text>
  <line x1="40" y1="40" x2="40" y2="360" class="axis"/>
  <line x1="40" y1="360" x2="760" y2="360" class="axis"/>
  <path d="M 40.0,101.53846153846155 L 44.41717791411043,101.53846153846155 L 48.83435582822086,101.53846153846155 L 53.25153374233129,101.53846153846155 L 57.668711656441715,101.53846153846155 L 62.08588957055215,101.53846153846155 L 66.50306748466258,101.53846153846155 L 70.920245398773,101.53846153846155 L 75.33742331288343,101.53846153846155 L 79.75460122699386,101.53846153846155 L 84.1717791411043,101.53846153846155 L 88.58895705521472,101.53846153846155 L 93.00613496932516,101.53846153846155 L 97.42331288343559,101.53846153846155 L 101.84049079754601,101.53846153846155 L 106.25766871165644,101.53846153846155 L 110.67484662576688,101.53846153846155 L 115.0920245398773,101.53846153846155 L 119.50920245398773,101.53846153846155 L 123.92638036809815,101.53846153846155 L 128.3435582822086,101.53846153846155 L 132.76073619631902,101.53846153846155 L 137.17791411042944,101.53846153846155 L 141.59509202453987,101.53846153846155 L 146.01226993865032,101.53846153846155 L 150.42944785276075,101.53846153846155 L 154.84662576687117,101.53846153846155 L 159.2638036809816,40.0 L 163.68098159509202,40.0 L 168.09815950920245,40.0 L 172.51533742331287,40.0 L 176.93251533742333,40.0 L 181.34969325153375,40.0 L 185.76687116564418,40.0 L 190.1840490797546,40.0 L 194.60122699386503,40.0 L 199.01840490797545,40.0 L 203.43558282208588,40.0 L 207.8527607361963,40.0 L 212.26993865030676,40.0 L 216.68711656441718,40.0 L 221.1042944785276,40.0 L 225.52147239263803,40.0 L 229.93865030674846,40.0 L 234.35582822085888,40.0 L 238.77300613496934,40.0 L 243.19018404907973,40.0 L 247.6073619631902,40.0 L 252.02453987730064,40.0 L 256.44171779141107,40.0 L 260.8588957055215,40.0 L 265.2760736196319,40.0 L 269.69325153374234,40.0 L 274.11042944785277,40.0 L 278.5276073619632,40.0 L 282.9447852760736,40.0 L 287.36196319018404,40.0 L 291.77914110429447,40.0 L 296.1963190184049,40.0 L 300.6134969325154,40.0 L 305.03067484662574,40.0 L 309.4478527607362,40.0 L 313.86503067484665,40.0 L 318.282208588957,40.0 L 322.6993865030675,40.0 L 327.11656441717787,40.0 L 331.53374233128835,40.0 L 335.9509202453988,40.0 L 340.3680981595092,40.0 L 344.7852760736196,40.0 L 349.20245398773005,40.0 L 353.6196319018405,40.0 L 358.0368098159509,40.0 L 362.4539877300614,40.0 L 366.87116564417175,40.0 L 371.28834355828224,40.0 L 375.7055214723926,40.0 L 380.1226993865031,40.0 L 384.5398773006135,40.0 L 388.95705521472394,40.0 L 393.37423312883436,40.0 L 397.7914110429448,40.0 L 402.2085889570552,40.0 L 406.6257668711656,40.0 L 411.04294478527606,40.0 L 415.4601226993865,40.0 L 419.8773006134969,40.0 L 424.2944785276074,40.0 L 428.71165644171776,40.0 L 433.1288343558282,40.0 L 437.5460122699387,40.0 L 441.9631901840491,40.0 L 446.38036809815947,40.0 L 450.79754601226995,40.0 L 455.2147239263804,40.0 L 459.6319018404908,40.0 L 464.0490797546013,40.0 L 468.46625766871165,40.0 L 472.8834355828221,40.0 L 477.30061349693256,40.0 L 481.717791411043,40.0 L 486.13496932515335,40.0 L 490.55214723926383,40.0 L 494.96932515337426,40.0 L 499.3865030674846,40.0 L 503.80368098159505,40.0 L 508.22085889570553,40.0 L 512.638036809816,40.0 L 517.0552147239264,40.0 L 521.4723926380368,40.0 L 525.8895705521472,40.0 L 530.3067484662577,40.0 L 534.7239263803681,40.0 L 539.1411042944785,40.0 L 543.5582822085889,40.0 L 547.9754601226994,40.0 L 552.3926380368098,40.0 L 556.8098159509202,40.0 L 561.2269938650307,40.0 L 565.6441717791411,40.0 L 570.0613496932515,40.0 L 574.478527607362,40.0 L 578.8957055214725,40.0 L 583.3128834355828,40.0 L 587.7300613496933,40.0 L 592.1472392638037,40.0 L 596.564417177914,40.0 L 600.9815950920246,40.0 L 605.398773006135,40.0 L 609.8159509202454,40.0 L 614.2331288343557,40.0 L 618.6503067484663,40.0 L 623.0674846625767,40.0 L 627.4846625766871,40.0 L 631.9018404907976,40.0 L 636.319018404908,40.0 L 640.7361963190184,40.0 L 645.1533742331288,40.0 L 649.5705521472393,40.0 L 653.9877300613497,40.0 L 658.4049079754601,40.0 L 662.8220858895705,40.0 L 667.239263803681,40.0 L 671.6564417177915,40.0 L 676.0736196319018,40.0 L 680.4907975460122,40.0 L 684.9079754601228,40.0 L 689.3251533742331,40.0 L 693.7423312883435,40.0 L 698.159509202454,40.0 L 702.5766871165645,40.0 L 706.9938650306748,40.0 L 711.4110429447852,40.0 L 715.8282208588957,40.0 L 720.2453987730062,40.0 L 724.6625766871165,40.0 L 729.079754601227,40.0 L 733.4969325153374,40.0 L 737.9141104294479,40.0 L 742.3312883435583,40.0 L 746.7484662576687,40.0 L 751.1656441717791,40.0 L 755.5828220858896,40.0 L 760.0,40.0" class="line"/>
  <circle cx="40.0" cy="101.53846153846155" class="point"/>
  <text x="40.0" y="375" class="label" text-anchor="middle">2025-11-11</text>
  <text x="40.0" y="96.53846153846155" class="label" text-anchor="middle">42</text>
  <circle cx="44.41717791411043" cy="101.53846153846155" class="point"/>
  <text x="44.41717791411043" y="375" class="label" text-anchor="middle">2025-11-12</text>
  <text x="44.41717791411043" y="96.53846153846155" class="label" text-anchor="middle">42</text>
  <circle cx="48.83435582822086" cy="101.53846153846155" class="point"/>
  <text x="48.83435582822086" y="375" class="label" text-anchor="middle">2025-11-13</text>
  <text x="48.83435582822086" y="96.53846153846155" class="label" text-anchor="middle">42</text>
  <circle cx="53.25153374233129" cy="101.53846153846155" class="point"/>
  <text x="53.25153374233129" y="375" class="label" text-anchor="middle">2025-11-14</text>
  <text x="53.25153374233129" y="96.53846153846155" class="label" text-anchor="middle">42</text>
  <circle cx="57.668711656441715" cy="101.53846153846155" class="point"/>
  <text x="57.668711656441715" y="375" class="label" text-anchor="middle">2025-11-15</text>
  <text x="57.668711656441715" y="96.53846153846155" class="label" text-anchor="middle">42</text>
  <circle cx="62.08588957055215" cy="101.53846153846155" class="point"/>
  <text x="62.08588957055215" y="375" class="label" text-anchor="middle">2025-11-16</text>
  <text x="62.08588957055215" y="96.53846153846155" class="label" text-anchor="middle">42</text>
  <circle cx="66.50306748466258" cy="101.53846153846155" class="point"/>
  <text x="66.50306748466258" y="375" class="label" text-anchor="middle">2025-11-17</text>
  <text x="66.50306748466258" y="96.53846153846155" class="label" text-anchor="middle">42</text>
  <circle cx="70.920245398773" cy="101.53846153846155" class="point"/>
  <text x="70.920245398773" y="375" class="label" text-anchor="middle">2025-11-18</text>
  <text x="70.920245398773" y="96.53846153846155" class="label" text-anchor="middle">42</text>
  <circle cx="75.33742331288343" cy="101.53846153846155" class="point"/>
  <text x="75.33742331288343" y="375" class="label" text-anchor="middle">2025-11-19</text>
  <text x="75.33742331288343" y="96.53846153846155" class="label" text-anchor="middle">42</text>
  <circle cx="79.75460122699386" cy="101.53846153846155" class="point"/>
  <text x="79.75460122699386" y="375" class="label" text-anchor="middle">2025-11-20</text>
  <text x="79.75460122699386" y="96.53846153846155" class="label" text-anchor="middle">42</text>
  <circle cx="84.1717791411043" cy="101.53846153846155" class="point"/>
  <text x="84.1717791411043" y="375" class="label" text-anchor="middle">2025-11-21</text>
  <text x="84.1717791411043" y="96.53846153846155" class="label" text-anchor="middle">42</text>
  <circle cx="88.58895705521472" cy="101.53846153846155" class="point"/>
  <text x="88.58895705521472" y="375" class="label" text-anchor="middle">2025-11-22</text>
  <text x="88.58895705521472" y="96.53846153846155" class="label" text-anchor="middle">42</text>
  <circle cx="93.00613496932516" cy="101.53846153846155" class="point"/>
  <text x="93.00613496932516" y="375" class="label" text-anchor="middle">2025-11-23</text>
  <text x="93.00613496932516" y="96.53846153846155" class="label" text-anchor="middle">42</text>
  <circle cx="97.42331288343559" cy="101.53846153846155" class="point"/>
  <text x="97.42331288343559" y="375" class="label" text-anchor="middle">2025-11-24</text>
  <text x="97.42331288343559" y="96.53846153846155" class="label" text-anchor="middle">42</text>
  <circle cx="101.84049079754601" cy="101.53846153846155" class="point"/>
  <text x="101.84049079754601" y="375" class="label" text-anchor="middle">2025-11-25</text>
  <text x="101.84049079754601" y="96.53846153846155" class="label" text-anchor="middle">42</text>
  <circle cx="106.25766871165644" cy="101.53846153846155" class="point"/>
  <text x="106.25766871165644" y="375" class="label" text-anchor="middle">2025-11-26</text>
  <text x="106.25766871165644" y="96.53846153846155" class="label" text-anchor="middle">42</text>
  <circle cx="110.67484662576688" cy="101.53846153846155" class="point"/>
  <text x="110.67484662576688" y="375" class="label" text-anchor="middle">2025-11-27</text>
  <text x="110.67484662576688" y="96.53846153846155" class="label" text-anchor="middle">42</text>
  <circle cx="115.0920245398773" cy="101.53846153846155" class="point"/>
  <text x="115.0920245398773" y="375" class="label" text-anchor="middle">2025-11-28</text>
  <text x="115.0920245398773" y="96.53846153846155" class="label" text-anchor="middle">42</text>
  <circle cx="119.50920245398773" cy="101.53846153846155" class="point"/>
  <text x="119.50920245398773" y="375" class="label" text-anchor="middle">2025-11-29</text>
  <text x="119.50920245398773" y="96.53846153846155" class="label" text-anchor="middle">42</text>
  <circle cx="123.92638036809815" cy="101.53846153846155" class="point"/>
  <text x="123.92638036809815" y="375" class="label" text-anchor="middle">2025-11-30</text>
  <text x="123.92638036809815" y="96.53846153846155" class="label" text-anchor="middle">42</text>
  <circle cx="128.3435582822086" cy="101.53846153846155" class="point"/>
  <text x="128.3435582822086" y="375" class="label" text-anchor="middle">2025-12-01</text>
  <text x="128.3435582822086" y="96.53846153846155" class="label" text-anchor="middle">42</text>
  <circle cx="132.76073619631902" cy="101.53846153846155" class="point"/>
  <text x="132.76073619631902" y="375" class="label" text-anchor="middle">2025-12-02</text>
  <text x="132.76073619631902" y="96.53846153846155" class="label" text-anchor="middle">42</text>
  <circle cx="137.17791411042944" cy="101.53846153846155" class="point"/>
  <text x="137.17791411042944" y="375" class="label" text-anchor="middle">2025-12-03</text>
  <text x="137.17791411042944" y="96.53846153846155" class="label" text-anchor="middle">42</text>
  <circle cx="141.59509202453987" cy="101.53846153846155" class="point"/>
  <text x="141.59509202453987" y="375" class="label" text-anchor="middle">2025-12-04</text>
  <text x="141.59509202453987" y="96.53846153846155" class="label" text-anchor="middle">42</text>
  <circle cx="146.01226993865032" cy="101.53846153846155" class="point"/>
  <text x="146.01226993865032" y="375" class="label" text-anchor="middle">2025-12-05</text>
  <text x="146.01226993865032" y="96.53846153846155" class="label" text-anchor="middle">42</text>
  <circle cx="150.42944785276075" cy="101.53846153846155" class="point"/>
  <text x="150.42944785276075" y="375" class="label" text-anchor="middle">2025-12-06</text>
  <text x="150.42944785276075" y="96.53846153846155" class="label" text-anchor="middle">42</text>
  <circle cx="154.84662576687117" cy="101.53846153846155" class="point"/>
  <text x="154.84662576687117" y="375" class="label" text-anchor="middle">2025-12-07</text>
  <text x="154.84662576687117" y="96.53846153846155" class="label" text-anchor="middle">42</text>
  <circle cx="159.2638036809816" cy="40.0" class="point"/>
  <text x="159.2638036809816" y="375" class="label" text-anchor="middle">2025-12-08</text>
  <text x="159.2638036809816" y="35.0" class="label" text-anchor="middle">52</text>
  <circle cx="163.68098159509202" cy="40.0" class="point"/>
  <text x="163.68098159509202" y="375" class="label" text-anchor="middle">2025-12-09</text>
  <text x="163.68098159509202" y="35.0" class="label" text-anchor="middle">52</text>
  <circle cx="168.09815950920245" cy="40.0" class="point"/>
  <text x="168.09815950920245" y="375" class="label" text-anchor="middle">2025-12-10</text>
  <text x="168.09815950920245" y="35.0" class="label" text-anchor="middle">52</text>
  <circle cx="172.51533742331287" cy="40.0" class="point"/>
  <text x="172.51533742331287" y="375" class="label" text-anchor="middle">2025-12-11</text>
  <text x="172.51533742331287" y="35.0" class="label" text-anchor="middle">52</text>
  <circle cx="176.93251533742333" cy="40.0" class="point"/>
  <text x="176.93251533742333" y="375" class="label" text-anchor="middle">2025-12-12</text>
  <text x="176.93251533742333" y="35.0" class="label" text-anchor="middle">52</text>
  <circle cx="181.34969325153375" cy="40.0" class="point"/>
  <text x="181.34969325153375" y="375" class="label" text-anchor="middle">2025-12-13</text>
  <text x="181.34969325153375" y="35.0" class="label" text-anchor="middle">52</text>
  <circle cx="185.76687116564418" cy="40.0" class="point"/>
  <text x="185.76687116564418" y="375" class="label" text-anchor="middle">2025-12-14</text>
  <text x="185.76687116564418" y="35.0" class="label" text-anchor="middle">52</text>
  <circle cx="190.1840490797546" cy="40.0" class="point"/>
  <text x="190.1840490797546" y="375" class="label" text-anchor="middle">2025-12-15</text>
  <text x="190.1840490797546" y="35.0" class="label" text-anchor="middle">52</text>
  <circle cx="194.60122699386503" cy="40.0" class="point"/>
  <text x="194.60122699386503" y="375" class="label" text-anchor="middle">2025-12-16</text>
  <text x="194.60122699386503" y="35.0" class="label" text-anchor="middle">52</text>
  <circle cx="199.01840490797545" cy="40.0" class="point"/>
  <text x="199.01840490797545" y="375" class="label" text-anchor="middle">2025-12-17</text>
  <text x="199.01840490797545" y="35.0" class="label" text-anchor="middle">52</text>
  <circle cx="203.43558282208588" cy="40.0" class="point"/>
  <text x="203.43558282208588" y="375" class="label" text-anchor="middle">2025-12-18</text>
  <text x="203.43558282208588" y="35.0" class="label" text-anchor="middle">52</text>
  <circle cx="207.8527607361963" cy="40.0" class="point"/>
  <text x="207.8527607361963" y="375" class="label" text-anchor="middle">2025-12-19</text>
  <text x="207.8527607361963" y="35.0" class="label" text-anchor="middle">52</text>
  <circle cx="212.26993865030676" cy="40.0" class="point"/>
  <text x="212.26993865030676" y="375" class="label" text-anchor="middle">2025-12-20</text>
  <text x="212.26993865030676" y="35.0" class="label" text-anchor="middle">52</text>
  <circle cx="216.68711656441718" cy="40.0" class="point"/>
  <text x="216.68711656441718" y="375" class="label" text-anchor="middle">2025-12-21</text>
  <text x="216.68711656441718" y="35.0" class="label" text-anchor="middle">52</text>
  <circle cx="221.1042944785276" cy="40.0" class="point"/>
  <text x="221.1042944785276" y="375" class="label" text-anchor="middle">2025-12-22</text>
  <text x="221.1042944785276" y="35.0" class="label" text-anchor="middle">52</text>
  <circle cx="225.52147239263803" cy="40.0" class="point"/>
  <text x="225.52147239263803" y="375" class="label" text-anchor="middle">2025-12-23</text>
  <text x="225.52147239263803" y="35.0" class="label" text-anchor="middle">52</text>
  <circle cx="229.93865030674846" cy="40.0" class="point"/>
  <text x="229.93865030674846" y="375" class="label" text-anchor="middle">2025-12-24</text>
  <text x="229.93865030674846" y="35.0" class="label" text-anchor="middle">52</text>
  <circle cx="234.35582822085888" cy="40.0" class="point"/>
  <text x="234.35582822085888" y="375" class="label" text-anchor="middle">2025-12-25</text>
  <text x="234.35582822085888" y="35.0" class="label" text-anchor="middle">52</text>
  <circle cx="238.77300613496934" cy="40.0" class="point"/>
  <text x="238.77300613496934" y="375" class="label" text-anchor="middle">2025-12-26</text>
  <text x="238.77300613496934" y="35.0" class="label" text-anchor="middle">52</text>
  <circle cx="243.19018404907973" cy="40.0" class="point"/>
  <text x="243.19018404907973" y="375" class="label" text-anchor="middle">2025-12-27</text>
  <text x="243.19018404907973" y="35.0" class="label" text-anchor="middle">52</text>
  <circle cx="247.6073619631902" cy="40.0" class="point"/>
  <text x="247.6073619631902" y="375" class="label" text-anchor="middle">2025-12-28</text>
  <text x="247.6073619631902" y="35.0" class="label" text-anchor="middle">52</text>
  <circle cx="252.02453987730064" cy="40.0" class="point"/>
  <text x="252.02453987730064" y="375" class="label" text-anchor="middle">2025-12-29</text>
  <text x="252.02453987730064" y="35.0" class="label" text-anchor="middle">52</text>
  <circle cx="256.44171779141107" cy="40.0" class="point"/>
  <text x="256.44171779141107" y="375" class="label" text-anchor="middle">2025-12-30</text>
  <text x="256.44171779141107" y="35.0" class="label" text-anchor="middle">52</text>
  <circle cx="260.8588957055215" cy="40.0" class="point"/>
  <text x="260.8588957055215" y="375" class="label" text-anchor="middle">2025-12-31</text>
  <text x="260.8588957055215" y="35.0" class="label" text-anchor="middle">52</text>
  <circle cx="265.2760736196319" cy="40.0" class="point"/>
  <text x="265.2760736196319" y="375" class="label" text-anchor="middle">2026-01-01</text>
  <text x="265.2760736196319" y="35.0" class="label" text-anchor="middle">52</text>
  <circle cx="269.69325153374234" cy="40.0" class="point"/>
  <text x="269.69325153374234" y="375" class="label" text-anchor="middle">2026-01-02</text>
  <text x="269.69325153374234" y="35.0" class="label" text-anchor="middle">52</text>
  <circle cx="274.11042944785277" cy="40.0" class="point"/>
  <text x="274.11042944785277" y="375" class="label" text-anchor="middle">2026-01-03</text>
  <text x="274.11042944785277" y="35.0" class="label" text-anchor="middle">52</text>
  <circle cx="278.5276073619632" cy="40.0" class="point"/>
  <text x="278.5276073619632" y="375" class="label" text-anchor="middle">2026-01-04</text>
  <text x="278.5276073619632" y="35.0" class="label" text-anchor="middle">52</text>
  <circle cx="282.9447852760736" cy="40.0" class="point"/>
  <text x="282.9447852760736" y="375" class="label" text-anchor="middle">2026-01-05</text>
  <text x="282.9447852760736" y="35.0" class="label" text-anchor="middle">52</text>
  <circle cx="287.36196319018404" cy="40.0" class="point"/>
  <text x="287.36196319018404" y="375" class="label" text-anchor="middle">2026-01-06</text>
  <text x="287.36196319018404" y="35.0" class="label" text-anchor="middle">52</text>
  <circle cx="291.77914110429447" cy="40.0" class="point"/>
  <text x="291.77914110429447" y="375" class="label" text-anchor="middle">2026-01-07</text>
  <text x="291.77914110429447" y="35.0" class="label" text-anchor="middle">52</text>
  <circle cx="296.1963190184049" cy="40.0" class="point"/>
  <text x="296.1963190184049" y="375" class="label" text-anchor="middle">2026-01-08</text>
  <text x="296.1963190184049" y="35.0" class="label" text-anchor="middle">52</text>
  <circle cx="300.6134969325154" cy="40.0" class="point"/>
  <text x="300.6134969325154" y="375" class="label" text-anchor="middle">2026-01-09</text>
  <text x="300.6134969325154" y="35.0" class="label" text-anchor="middle">52</text>
  <circle cx="305.03067484662574" cy="40.0" class="point"/>
  <text x="305.03067484662574" y="375" class="label" text-anchor="middle">2026-01-10</text>
  <text x="305.03067484662574" y="35.0" class="label" text-anchor="middle">52</text>
  <circle cx="309.4478527607362" cy="40.0" class="point"/>
  <text x="309.4478527607362" y="375" class="label" text-anchor="middle">2026-01-11</text>
  <text x="309.4478527607362" y="35.0" class="label" text-anchor="middle">52</text>
  <circle cx="313.86503067484665" cy="40.0" class="point"/>
  <text x="313.86503067484665" y="375" class="label" text-anchor="middle">2026-01-12</text>
  <text x="313.86503067484665" y="35.0" class="label" text-anchor="middle">52</text>
  <circle cx="318.282208588957" cy="40.0" class="point"/>
  <text x="318.282208588957" y="375" class="label" text-anchor="middle">2026-01-13</text>
  <text x="318.282208588957" y="35.0" class="label" text-anchor="middle">52</text>
  <circle cx="322.6993865030675" cy="40.0" class="point"/>
  <text x="322.6993865030675" y="375" class="label" text-anchor="middle">2026-01-14</text>
  <text x="322.6993865030675" y="35.0" class="label" text-anchor="middle">52</text>
  <circle cx="327.11656441717787" cy="40.0" class="point"/>
  <text x="327.11656441717787" y="375" class="label" text-anchor="middle">2026-01-15</text>
  <text x="327.11656441717787" y="35.0" class="label" text-anchor="middle">52</text>
  <circle cx="331.53374233128835" cy="40.0" class="point"/>
  <text x="331.53374233128835" y="375" class="label" text-anchor="middle">2026-01-16</text>
  <text x="331.53374233128835" y="35.0" class="label" text-anchor="middle">52</text>
  <circle cx="335.9509202453988" cy="40.0" class="point"/>
  <text x="335.9509202453988" y="375" class="label" text-anchor="middle">2026-01-17</text>
  <text x="335.9509202453988" y="35.0" class="label" text-anchor="middle">52</text>
  <circle cx="340.3680981595092" cy="40.0" class="point"/>
  <text x="340.3680981595092" y="375" class="label" text-anchor="middle">2026-01-18</text>
  <text x="340.3680981595092" y="35.0" class="label" text-anchor="middle">52</text>
  <circle cx="344.7852760736196" cy="40.0" class="point"/>
  <text x="344.7852760736196" y="375" class="label" text-anchor="middle">2026-01-19</text>
  <text x="344.7852760736196" y="35.0" class="label" text-anchor="middle">52</text>
  <circle cx="349.20245398773005" cy="40.0" class="point"/>
  <text x="349.20245398773005" y="375" class="label" text-anchor="middle">2026-01-20</text>
  <text x="349.20245398773005" y="35.0" class="label" text-anchor="middle">52</text>
  <circle cx="353.6196319018405" cy="40.0" class="point"/>
  <text x="353.6196319018405" y="375" class="label" text-anchor="middle">2026-01-21</text>
  <text x="353.6196319018405" y="35.0" class="label" text-anchor="middle">52</text>
  <circle cx="358.0368098159509" cy="40.0" class="point"/>
  <text x="358.0368098159509" y="375" class="label" text-anchor="middle">2026-01-22</text>
  <text x="358.0368098159509" y="35.0" class="label" text-anchor="middle">52</text>
  <circle cx="362.4539877300614" cy="40.0" class="point"/>
  <text x="362.4539877300614" y="375" class="label" text-anchor="middle">2026-01-23</text>
  <text x="362.4539877300614" y="35.0" class="label" text-anchor="middle">52</text>
  <circle cx="366.87116564417175" cy="40.0" class="point"/>
  <text x="366.87116564417175" y="375" class="label" text-anchor="middle">2026-01-24</text>
  <text x="366.87116564417175" y="35.0" class="label" text-anchor="middle">52</text>
  <circle cx="371.28834355828224" cy="40.0" class="point"/>
  <text x="371.28834355828224" y="375" class="label" text-anchor="middle">2026-01-25</text>
  <text x="371.28834355828224" y="35.0" class="label" text-anchor="middle">52</text>
  <circle cx="375.7055214723926" cy="40.0" class="point"/>
  <text x="375.7055214723926" y="375" class="label" text-anchor="middle">2026-01-26</text>
  <text x="375.7055214723926" y="35.0" class="label" text-anchor="middle">52</text>
  <circle cx="380.1226993865031" cy="40.0" class="point"/>
  <text x="380.1226993865031" y="375" class="label" text-anchor="middle">2026-01-27</text>
  <text x="380.1226993865031" y="35.0" class="label" text-anchor="middle">52</text>
  <circle cx="384.5398773006135" cy="40.0" class="point"/>
  <text x="384.5398773006135" y="375" class="label" text-anchor="middle">2026-01-28</text>
  <text x="384.5398773006135" y="35.0" class="label" text-anchor="middle">52</text>
  <circle cx="388.95705521472394" cy="40.0" class="point"/>
  <text x="388.95705521472394" y="375" class="label" text-anchor="middle">2026-01-29</text>
  <text x="388.95705521472394" y="35.0" class="label" text-anchor="middle">52</text>
  <circle cx="393.37423312883436" cy="40.0" class="point"/>
  <text x="393.37423312883436" y="375" class="label" text-anchor="middle">2026-01-30</text>
  <text x="393.37423312883436" y="35.0" class="label" text-anchor="middle">52</text>
  <circle cx="397.7914110429448" cy="40.0" class="point"/>
  <text x="397.7914110429448" y="375" class="label" text-anchor="middle">2026-01-31</text>
  <text x="397.7914110429448" y="35.0" class="label" text-anchor="middle">52</text>
  <circle cx="402.2085889570552" cy="40.0" class="point"/>
  <text x="402.2085889570552" y="375" class="label" text-anchor="middle">2026-02-01</text>
  <text x="402.2085889570552" y="35.0" class="label" text-anchor="middle">52</text>
  <circle cx="406.6257668711656" cy="40.0" class="point"/>
  <text x="406.6257668711656" y="375" class="label" text-anchor="middle">2026-02-02</text>
  <text x="406.6257668711656" y="35.0" class="label" text-anchor="middle">52</text>
  <circle cx="411.04294478527606" cy="40.0" class="point"/>
  <text x="411.04294478527606" y="375" class="label" text-anchor="middle">2026-02-03</text>
  <text x="411.04294478527606" y="35.0" class="label" text-anchor="middle">52</text>
  <circle cx="415.4601226993865" cy="40.0" class="point"/>
  <text x="415.4601226993865" y="375" class="label" text-anchor="middle">2026-02-04</text>
  <text x="415.4601226993865" y="35.0" class="label" text-anchor="middle">52</text>
  <circle cx="419.8773006134969" cy="40.0" class="point"/>
  <text x="419.8773006134969" y="375" class="label" text-anchor="middle">2026-02-05</text>
  <text x="419.8773006134969" y="35.0" class="label" text-anchor="middle">52</text>
  <circle cx="424.2944785276074" cy="40.0" class="point"/>
  <text x="424.2944785276074" y="375" class="label" text-anchor="middle">2026-02-06</text>
  <text x="424.2944785276074" y="35.0" class="label" text-anchor="middle">52</text>
  <circle cx="428.71165644171776" cy="40.0" class="point"/>
  <text x="428.71165644171776" y="375" class="label" text-anchor="middle">2026-02-07</text>
  <text x="428.71165644171776" y="35.0" class="label" text-anchor="middle">52</text>
  <circle cx="433.1288343558282" cy="40.0" class="point"/>
  <text x="433.1288343558282" y="375" class="label" text-anchor="middle">2026-02-08</text>
  <text x="433.1288343558282" y="35.0" class="label" text-anchor="middle">52</text>
  <circle cx="437.5460122699387" cy="40.0" class="point"/>
  <text x="437.5460122699387" y="375" class="label" text-anchor="middle">2026-02-09</text>
  <text x="437.5460122699387" y="35.0" class="label" text-anchor="middle">52</text>
  <circle cx="441.9631901840491" cy="40.0" class="point"/>
  <text x="441.9631901840491" y="375" class="label" text-anchor="middle">2026-02-10</text>
  <text x="441.9631901840491" y="35.0" class="label" text-anchor="middle">52</text>
  <circle cx="446.38036809815947" cy="40.0" class="point"/>
  <text x="446.38036809815947" y="375" class="label" text-anchor="middle">2026-02-11</text>
  <text x="446.38036809815947" y="35.0" class="label" text-anchor="middle">52</text>
  <circle cx="450.79754601226995" cy="40.0" class="point"/>
  <text x="450.79754601226995" y="375" class="label" text-anchor="middle">2026-02-12</text>
  <text x="450.79754601226995" y="35.0" class="label" text-anchor="middle">52</text>
  <circle cx="455.2147239263804" cy="40.0" class="point"/>
  <text x="455.2147239263804" y="375" class="label" text-anchor="middle">2026-02-13</text>
  <text x="455.2147239263804" y="35.0" class="label" text-anchor="middle">52</text>
  <circle cx="459.6319018404908" cy="40.0" class="point"/>
  <text x="459.6319018404908" y="375" class="label" text-anchor="middle">2026-02-14</text>
  <text x="459.6319018404908" y="35.0" class="label" text-anchor="middle">52</text>
  <circle cx="464.0490797546013" cy="40.0" class="point"/>
  <text x="464.0490797546013" y="375" class="label" text-anchor="middle">2026-02-15</text>
  <text x="464.0490797546013" y="35.0" class="label" text-anchor="middle">52</text>
  <circle cx="468.46625766871165" cy="40.0" class="point"/>
  <text x="468.46625766871165" y="375" class="label" text-anchor="middle">2026-02-16</text>
  <text x="468.46625766871165" y="35.0" class="label" text-anchor="middle">52</text>
  <circle cx="472.8834355828221" cy="40.0" class="point"/>
  <text x="472.8834355828221" y="375" class="label" text-anchor="middle">2026-02-17</text>
  <text x="472.8834355828221" y="35.0" class="label" text-anchor="middle">52</text>
  <circle cx="477.30061349693256" cy="40.0" class="point"/>
  <text x="477.30061349693256" y="375" class="label" text-anchor="middle">2026-02-18</text>
  <text x="477.30061349693256" y="35.0" class="label" text-anchor="middle">52</text>
  <circle cx="481.717791411043" cy="40.0" class="point"/>
  <text x="481.717791411043" y="375" class="label" text-anchor="middle">2026-02-19</text>
  <text x="481.717791411043" y="35.0" class="label" text-anchor="middle">52</text>
  <circle cx="486.13496932515335" cy="40.0" class="point"/>
  <text x="486.13496932515335" y="375" class="label" text-anchor="middle">2026-02-20</text>
  <text x="486.13496932515335" y="35.0" class="label" text-anchor="middle">52</text>
  <circle cx="490.55214723926383" cy="40.0" class="point"/>
  <text x="490.55214723926383" y="375" class="label" text-anchor="middle">2026-02-21</text>
  <text x="490.55214723926383" y="35.0" class="label" text-anchor="middle">52</text>
  <circle cx="494.96932515337426" cy="40.0" class="point"/>
  <text x="494.96932515337426" y="375" class="label" text-anchor="middle">2026-02-22</text>
  <text x="494.96932515337426" y="35.0" class="label" text-anchor="middle">52</text>
  <circle cx="499.3865030674846" cy="40.0" class="point"/>
  <text x="499.3865030674846" y="375" class="label" text-anchor="middle">2026-02-23</text>
  <text x="499.3865030674846" y="35.0" class="label" text-anchor="middle">52</text>
  <circle cx="503.80368098159505" cy="40.0" class="point"/>
  <text x="503.80368098159505" y="375" class="label" text-anchor="middle">2026-02-24</text>
  <text x="503.80368098159505" y="35.0" class="label" text-anchor="middle">52</text>
  <circle cx="508.22085889570553" cy="40.0" class="point"/>
  <text x="508.22085889570553" y="375" class="label" text-anchor="middle">2026-02-25</text>
  <text x="508.22085889570553" y="35.0" class="label" text-anchor="middle">52</text>
  <circle cx="512.638036809816" cy="40.0" class="point"/>
  <text x="512.638036809816" y="375" class="label" text-anchor="middle">2026-02-26</text>
  <text x="512.638036809816" y="35.0" class="label" text-anchor="middle">52</text>
  <circle cx="517.0552147239264" cy="40.0" class="point"/>
  <text x="517.0552147239264" y="375" class="label" text-anchor="middle">2026-02-27</text>
  <text x="517.0552147239264" y="35.0" class="label" text-anchor="middle">52</text>
  <circle cx="521.4723926380368" cy="40.0" class="point"/>
  <text x="521.4723926380368" y="375" class="label" text-anchor="middle">2026-02-28</text>
  <text x="521.4723926380368" y="35.0" class="label" text-anchor="middle">52</text>
  <circle cx="525.8895705521472" cy="40.0" class="point"/>
  <text x="525.8895705521472" y="375" class="label" text-anchor="middle">2026-03-01</text>
  <text x="525.8895705521472" y="35.0" class="label" text-anchor="middle">52</text>
  <circle cx="530.3067484662577" cy="40.0" class="point"/>
  <text x="530.3067484662577" y="375" class="label" text-anchor="middle">2026-03-02</text>
  <text x="530.3067484662577" y="35.0" class="label" text-anchor="middle">52</text>
  <circle cx="534.7239263803681" cy="40.0" class="point"/>
  <text x="534.7239263803681" y="375" class="label" text-anchor="middle">2026-03-03</text>
  <text x="534.7239263803681" y="35.0" class="label" text-anchor="middle">52</text>
  <circle cx="539.1411042944785" cy="40.0" class="point"/>
  <text x="539.1411042944785" y="375" class="label" text-anchor="middle">2026-03-04</text>
  <text x="539.1411042944785" y="35.0" class="label" text-anchor="middle">52</text>
  <circle cx="543.5582822085889" cy="40.0" class="point"/>
  <text x="543.5582822085889" y="375" class="label" text-anchor="middle">2026-03-05</text>
  <text x="543.5582822085889" y="35.0" class="label" text-anchor="middle">52</text>
  <circle cx="547.9754601226994" cy="40.0" class="point"/>
  <text x="547.9754601226994" y="375" class="label" text-anchor="middle">2026-03-06</text>
  <text x="547.9754601226994" y="35.0" class="label" text-anchor="middle">52</text>
  <circle cx="552.3926380368098" cy="40.0" class="point"/>
  <text x="552.3926380368098" y="375" class="label" text-anchor="middle">2026-03-07</text>
  <text x="552.3926380368098" y="35.0" class="label" text-anchor="middle">52</text>
  <circle cx="556.8098159509202" cy="40.0" class="point"/>
  <text x="556.8098159509202" y="375" class="label" text-anchor="middle">2026-03-08</text>
  <text x="556.8098159509202" y="35.0" class="label" text-anchor="middle">52</text>
  <circle cx="561.2269938650307" cy="40.0" class="point"/>
  <text x="561.2269938650307" y="375" class="label" text-anchor="middle">2026-03-09</text>
  <text x="561.2269938650307" y="35.0" class="label" text-anchor="middle">52</text>
  <circle cx="565.6441717791411" cy="40.0" class="point"/>
  <text x="565.6441717791411" y="375" class="label" text-anchor="middle">2026-03-10</text>
  <text x="565.6441717791411" y="35.0" class="label" text-anchor="middle">52</text>
  <circle cx="570.0613496932515" cy="40.0" class="point"/>
  <text x="570.0613496932515" y="375" class="label" text-anchor="middle">2026-03-11</text>
  <text x="570.0613496932515" y="35.0" class="label" text-anchor="middle">52</text>
  <circle cx="574.478527607362" cy="40.0" class="point"/>
  <text x="574.478527607362" y="375" class="label" text-anchor="middle">2026-03-12</text>
  <text x="574.478527607362" y="35.0" class="label" text-anchor="middle">52</text>
  <circle cx="578.8957055214725" cy="40.0" class="point"/>
  <text x="578.8957055214725" y="375" class="label" text-anchor="middle">2026-03-13</text>
  <text x="578.8957055214725" y="35.0" class="label" text-anchor="middle">52</text>
  <circle cx="583.3128834355828" cy="40.0" class="point"/>
  <text x="583.3128834355828" y="375" class="label" text-anchor="middle">2026-03-14</text>
  <text x="583.3128834355828" y="35.0" class="label" text-anchor="middle">52</text>
  <circle cx="587.7300613496933" cy="40.0" class="point"/>
  <text x="587.7300613496933" y="375" class="label" text-anchor="middle">2026-03-15</text>
  <text x="587.7300613496933" y="35.0" class="label" text-anchor="middle">52</text>
  <circle cx="592.1472392638037" cy="40.0" class="point"/>
  <text x="592.1472392638037" y="375" class="label" text-anchor="middle">2026-03-16</text>
  <text x="592.1472392638037" y="35.0" class="label" text-anchor="middle">52</text>
  <circle cx="596.564417177914" cy="40.0" class="point"/>
  <text x="596.564417177914" y="375" class="label" text-anchor="middle">2026-03-17</text>
  <text x="596.564417177914" y="35.0" class="label" text-anchor="middle">52</text>
  <circle cx="600.9815950920246" cy="40.0" class="point"/>
  <text x="600.9815950920246" y="375" class="label" text-anchor="middle">2026-03-18</text>
  <text x="600.9815950920246" y="35.0" class="label" text-anchor="middle">52</text>
  <circle cx="605.398773006135" cy="40.0" class="point"/>
  <text x="605.398773006135" y="375" class="label" text-anchor="middle">2026-03-19</text>
  <text x="605.398773006135" y="35.0" class="label" text-anchor="middle">52</text>
  <circle cx="609.8159509202454" cy="40.0" class="point"/>
  <text x="609.8159509202454" y="375" class="label" text-anchor="middle">2026-03-20</text>
  <text x="609.8159509202454" y="35.0" class="label" text-anchor="middle">52</text>
  <circle cx="614.2331288343557" cy="40.0" class="point"/>
  <text x="614.2331288343557" y="375" class="label" text-anchor="middle">2026-03-21</text>
  <text x="614.2331288343557" y="35.0" class="label" text-anchor="middle">52</text>
  <circle cx="618.6503067484663" cy="40.0" class="point"/>
  <text x="618.6503067484663" y="375" class="label" text-anchor="middle">2026-03-22</text>
  <text x="618.6503067484663" y="35.0" class="label" text-anchor="middle">52</text>
  <circle cx="623.0674846625767" cy="40.0" class="point"/>
  <text x="623.0674846625767" y="375" class="label" text-anchor="middle">2026-03-23</text>
  <text x="623.0674846625767" y="35.0" class="label" text-anchor="middle">52</text>
  <circle cx="627.4846625766871" cy="40.0" class="point"/>
  <text x="627.4846625766871" y="375" class="label" text-anchor="middle">2026-03-24</text>
  <text x="627.4846625766871" y="35.0" class="label" text-anchor="middle">52</text>
  <circle cx="631.9018404907976" cy="40.0" class="point"/>
  <text x="631.9018404907976" y="375" class="label" text-anchor="middle">2026-03-25</text>
  <text x="631.9018404907976" y="35.0" class="label" text-anchor="middle">52</text>
  <circle cx="636.319018404908" cy="40.0" class="point"/>
  <text x="636.319018404908" y="375" class="label" text-anchor="middle">2026-03-26</text>
  <text x="636.319018404908" y="35.0" class="label" text-anchor="middle">52</text>
  <circle cx="640.7361963190184" cy="40.0" class="point"/>
  <text x="640.7361963190184" y="375" class="label" text-anchor="middle">2026-03-27</text>
  <text x="640.7361963190184" y="35.0" class="label" text-anchor="middle">52</text>
  <circle cx="645.1533742331288" cy="40.0" class="point"/>
  <text x="645.1533742331288" y="375" class="label" text-anchor="middle">2026-03-28</text>
  <text x="645.1533742331288" y="35.0" class="label" text-anchor="middle">52</text>
  <circle cx="649.5705521472393" cy="40.0" class="point"/>
  <text x="649.5705521472393" y="375" class="label" text-anchor="middle">2026-03-29</text>
  <text x="649.5705521472393" y="35.0" class="label" text-anchor="middle">52</text>
  <circle cx="653.9877300613497" cy="40.0" class="point"/>
  <text x="653.9877300613497" y="375" class="label" text-anchor="middle">2026-03-30</text>
  <text x="653.9877300613497" y="35.0" class="label" text-anchor="middle">52</text>
  <circle cx="658.4049079754601" cy="40.0" class="point"/>
  <text x="658.4049079754601" y="375" class="label" text-anchor="middle">2026-03-31</text>
  <text x="658.4049079754601" y="35.0" class="label" text-anchor="middle">52</text>
  <circle cx="662.8220858895705" cy="40.0" class="point"/>
  <text x="662.8220858895705" y="375" class="label" text-anchor="middle">2026-04-01</text>
  <text x="662.8220858895705" y="35.0" class="label" text-anchor="middle">52</text>
  <circle cx="667.239263803681" cy="40.0" class="point"/>
  <text x="667.239263803681" y="375" class="label" text-anchor="middle">2026-04-02</text>
  <text x="667.239263803681" y="35.0" class="label" text-anchor="middle">52</text>
  <circle cx="671.6564417177915" cy="40.0" class="point"/>
  <text x="671.6564417177915" y="375" class="label" text-anchor="middle">2026-04-03</text>
  <text x="671.6564417177915" y="35.0" class="label" text-anchor="middle">52</text>
  <circle cx="676.0736196319018" cy="40.0" class="point"/>
  <text x="676.0736196319018" y="375" class="label" text-anchor="middle">2026-04-04</text>
  <text x="676.0736196319018" y="35.0" class="label" text-anchor="middle">52</text>
  <circle cx="680.4907975460122" cy="40.0" class="point"/>
  <text x="680.4907975460122" y="375" class="label" text-anchor="middle">2026-04-05</text>
  <text x="680.4907975460122" y="35.0" class="label" text-anchor="middle">52</text>
  <circle cx="684.9079754601228" cy="40.0" class="point"/>
  <text x="684.9079754601228" y="375" class="label" text-anchor="middle">2026-04-06</text>
  <text x="684.9079754601228" y="35.0" class="label" text-anchor="middle">52</text>
  <circle cx="689.3251533742331" cy="40.0" class="point"/>
  <text x="689.3251533742331" y="375" class="label" text-anchor="middle">2026-04-07</text>
  <text x="689.3251533742331" y="35.0" class="label" text-anchor="middle">52</text>
  <circle cx="693.7423312883435" cy="40.0" class="point"/>
  <text x="693.7423312883435" y="375" class="label" text-anchor="middle">2026-04-08</text>
  <text x="693.7423312883435" y="35.0" class="label" text-anchor="middle">52</text>
  <circle cx="698.159509202454" cy="40.0" class="point"/>
  <text x="698.159509202454" y="375" class="label" text-anchor="middle">2026-04-09</text>
  <text x="698.159509202454" y="35.0" class="label" text-anchor="middle">52</text>
  <circle cx="702.5766871165645" cy="40.0" class="point"/>
  <text x="702.5766871165645" y="375" class="label" text-anchor="middle">2026-04-10</text>
  <text x="702.5766871165645" y="35.0" class="label" text-anchor="middle">52</text>
  <circle cx="706.9938650306748" cy="40.0" class="point"/>
  <text x="706.9938650306748" y="375" class="label" text-anchor="middle">2026-04-11</text>
  <text x="706.9938650306748" y="35.0" class="label" text-anchor="middle">52</text>
  <circle cx="711.4110429447852" cy="40.0" class="point"/>
  <text x="711.4110429447852" y="375" class="label" text-anchor="middle">2026-04-12</text>
  <text x="711.4110429447852" y="35.0" class="label" text-anchor="middle">52</text>
  <circle cx="715.8282208588957" cy="40.0" class="point"/>
  <text x="715.8282208588957" y="375" class="label" text-anchor="middle">2026-04-13</text>
  <text x="715.8282208588957" y="35.0" class="label" text-anchor="middle">52</text>
  <circle cx="720.2453987730062" cy="40.0" class="point"/>
  <text x="720.2453987730062" y="375" class="label" text-anchor="middle">2026-04-14</text>
  <text x="720.2453987730062" y="35.0" class="label" text-anchor="middle">52</text>
  <circle cx="724.6625766871165" cy="40.0" class="point"/>
  <text x="724.6625766871165" y="375" class="label" text-anchor="middle">2026-04-15</text>
  <text x="724.6625766871165" y="35.0" class="label" text-anchor="middle">52</text>
  <circle cx="729.079754601227" cy="40.0" class="point"/>
  <text x="729.079754601227" y="375" class="label" text-anchor="middle">2026-04-16</text>
  <text x="729.079754601227" y="35.0" class="label" text-anchor="middle">52</text>
  <circle cx="733.4969325153374" cy="40.0" class="point"/>
  <text x="733.4969325153374" y="375" class="label" text-anchor="middle">2026-04-17</text>
  <text x="733.4969325153374" y="35.0" class="label" text-anchor="middle">52</text>
  <circle cx="737.9141104294479" cy="40.0" class="point"/>
  <text x="737.9141104294479" y="375" class="label" text-anchor="middle">2026-04-18</text>
  <text x="737.9141104294479" y="35.0" class="label" text-anchor="middle">52</text>
  <circle cx="742.3312883435583" cy="40.0" class="point"/>
  <text x="742.3312883435583" y="375" class="label" text-anchor="middle">2026-04-19</text>
  <text x="742.3312883435583" y="35.0" class="label" text-anchor="middle">52</text>
  <circle cx="746.7484662576687" cy="40.0" class="point"/>
  <text x="746.7484662576687" y="375" class="label" text-anchor="middle">2026-04-20</text>
  <text x="746.7484662576687" y="35.0" class="label" text-anchor="middle">52</text>
  <circle cx="751.1656441717791" cy="40.0" class="point"/>
  <text x="751.1656441717791" y="375" class="label" text-anchor="middle">2026-04-21</text>
  <text x="751.1656441717791" y="35.0" class="label" text-anchor="middle">52</text>
  <circle cx="755.5828220858896" cy="40.0" class="point"/>
  <text x="755.5828220858896" y="375" class="label" text-anchor="middle">2026-04-22</text>
  <text x="755.5828220858896" y="35.0" class="label" text-anchor="middle">52</text>
  <circle cx="760.0" cy="40.0" class="point"/>
  <text x="760.0" y="375" class="label" text-anchor="middle">2026-04-23</text>
  <text x="760.0" y="35.0" class="label" text-anchor="middle">52</text>
  <text x="30" y="363.0" class="label" text-anchor="end">0</text>
  <text x="30" y="301.46153846153845" class="label" text-anchor="end">10</text>
  <text x="30" y="239.9230769230769" class="label" text-anchor="end">20</text>
  <text x="30" y="178.38461538461542" class="label" text-anchor="end">30</text>
  <text x="30" y="116.84615384615384" class="label" text-anchor="end">40</text>
  <text x="30" y="55.30769230769232" class="label" text-anchor="end">50</text>
</svg>