<svg xmlns="http://www.w3.org/2000/svg" width="800" height="400" viewBox="0 0 800 400">
  <style>
    .axis{stroke:#666;stroke-width:1}
    .line{stroke:#4a9;stroke-width:2;fill:none}
    .point{fill:#4a9;r:4}
    .label{font:10px sans-serif;fill:#aaa}
    .title{font:14px sans-serif;fill:#333}
  </style>
  <text x="400" y="20" class="title" text-anchor="middle">OPIC Field Growth Timeline</text>
  <line x1="40" y1="40" x2="40" y2="360" class="axis"/>
  <line x1="40" y1="360" x2="760" y2="360" class="axis"/>
  <path d="M 40.0,101.53846153846155 L 45.1063829787234,101.53846153846155 L 50.212765957446805,101.53846153846155 L 55.31914893617021,101.53846153846155 L 60.42553191489362,101.53846153846155 L 65.53191489361703,101.53846153846155 L 70.63829787234042,101.53846153846155 L 75.74468085106383,101.53846153846155 L 80.85106382978724,101.53846153846155 L 85.95744680851064,101.53846153846155 L 91.06382978723406,101.53846153846155 L 96.17021276595744,101.53846153846155 L 101.27659574468085,101.53846153846155 L 106.38297872340425,101.53846153846155 L 111.48936170212767,101.53846153846155 L 116.59574468085107,101.53846153846155 L 121.70212765957447,101.53846153846155 L 126.80851063829786,101.53846153846155 L 131.91489361702128,101.53846153846155 L 137.02127659574467,101.53846153846155 L 142.1276595744681,101.53846153846155 L 147.2340425531915,101.53846153846155 L 152.3404255319149,101.53846153846155 L 157.4468085106383,101.53846153846155 L 162.5531914893617,101.53846153846155 L 167.6595744680851,101.53846153846155 L 172.7659574468085,101.53846153846155 L 177.87234042553192,40.0 L 182.97872340425533,40.0 L 188.08510638297872,40.0 L 193.19148936170214,40.0 L 198.29787234042553,40.0 L 203.40425531914894,40.0 L 208.51063829787233,40.0 L 213.61702127659572,40.0 L 218.72340425531914,40.0 L 223.82978723404253,40.0 L 228.93617021276594,40.0 L 234.04255319148936,40.0 L 239.14893617021278,40.0 L 244.2553191489362,40.0 L 249.36170212765956,40.0 L 254.46808510638297,40.0 L 259.5744680851064,40.0 L 264.6808510638298,40.0 L 269.7872340425532,40.0 L 274.8936170212766,40.0 L 280.0,40.0 L 285.1063829787234,40.0 L 290.2127659574468,40.0 L 295.3191489361702,40.0 L 300.4255319148936,40.0 L 305.531914893617,40.0 L 310.63829787234044,40.0 L 315.74468085106383,40.0 L 320.8510638297872,40.0 L 325.95744680851067,40.0 L 331.063829787234,40.0 L 336.17021276595744,40.0 L 341.27659574468083,40.0 L 346.3829787234043,40.0 L 351.48936170212767,40.0 L 356.59574468085106,40.0 L 361.70212765957444,40.0 L 366.8085106382979,40.0 L 371.9148936170213,40.0 L 377.02127659574467,40.0 L 382.1276595744681,40.0 L 387.23404255319144,40.0 L 392.3404255319149,40.0 L 397.4468085106383,40.0 L 402.55319148936167,40.0 L 407.65957446808505,40.0 L 412.7659574468085,40.0 L 417.8723404255319,40.0 L 422.97872340425533,40.0 L 428.0851063829787,40.0 L 433.1914893617021,40.0 L 438.29787234042556,40.0 L 443.40425531914894,40.0 L 448.5106382978724,40.0 L 453.6170212765958,40.0 L 458.7234042553191,40.0 L 463.8297872340425,40.0 L 468.93617021276594,40.0 L 474.04255319148933,40.0 L 479.1489361702128,40.0 L 484.25531914893617,40.0 L 489.36170212765956,40.0 L 494.468085106383,40.0 L 499.5744680851064,40.0 L 504.68085106382983,40.0 L 509.7872340425532,40.0 L 514.8936170212766,40.0 L 520.0,40.0 L 525.1063829787233,40.0 L 530.2127659574468,40.0 L 535.3191489361702,40.0 L 540.4255319148936,40.0 L 545.5319148936171,40.0 L 550.6382978723404,40.0 L 555.7446808510639,40.0 L 560.8510638297872,40.0 L 565.9574468085107,40.0 L 571.063829787234,40.0 L 576.1702127659574,40.0 L 581.2765957446809,40.0 L 586.3829787234042,40.0 L 591.4893617021277,40.0 L 596.5957446808511,40.0 L 601.7021276595744,40.0 L 606.8085106382979,40.0 L 611.9148936170213,40.0 L 617.0212765957447,40.0 L 622.127659574468,40.0 L 627.2340425531914,40.0 L 632.3404255319149,40.0 L 637.4468085106383,40.0 L 642.5531914893617,40.0 L 647.6595744680851,40.0 L 652.7659574468086,40.0 L 657.8723404255319,40.0 L 662.9787234042553,40.0 L 668.0851063829788,40.0 L 673.1914893617021,40.0 L 678.2978723404254,40.0 L 683.4042553191489,40.0 L 688.5106382978723,40.0 L 693.6170212765958,40.0 L 698.7234042553191,40.0 L 703.8297872340426,40.0 L 708.936170212766,40.0 L 714.0425531914893,40.0 L 719.1489361702128,40.0 L 724.2553191489362,40.0 L 729.3617021276596,40.0 L 734.4680851063829,40.0 L 739.5744680851063,40.0 L 744.6808510638298,40.0 L 749.7872340425532,40.0 L 754.8936170212766,40.0 L 760.0,40.0" class="line"/>
  <circle cx="40.0" cy="101.53846153846155" class="point"/>
  <text x="40.0" y="375" class="label" text-anchor="middle">2025-11-11</text>
  <text x="40.0" y="96.53846153846155" class="label" text-anchor="middle">42</text>
  <circle cx="45.1063829787234" cy="101.53846153846155" class="point"/>
  <text x="45.1063829787234" y="375" class="label" text-anchor="middle">2025-11-12</text>
  <text x="45.1063829787234" y="96.53846153846155" class="label" text-anchor="middle">42</text>
  <circle cx="50.212765957446805" cy="101.53846153846155" class="point"/>
  <text x="50.212765957446805" y="375" class="label" text-anchor="middle">2025-11-13</text>
  <text x="50.212765957446805" y="96.53846153846155" class="label" text-anchor="middle">42</text>
  <circle cx="55.31914893617021" cy="101.53846153846155" class="point"/>
  <text x="55.31914893617021" y="375" class="label" text-anchor="middle">2025-11-14</text>
  <text x="55.31914893617021" y="96.53846153846155" class="label" text-anchor="middle">42</text>
  <circle cx="60.42553191489362" cy="101.53846153846155" class="point"/>
  <text x="60.42553191489362" y="375" class="label" text-anchor="middle">2025-11-15</text>
  <text x="60.42553191489362" y="96.53846153846155" class="label" text-anchor="middle">42</text>
  <circle cx="65.53191489361703" cy="101.53846153846155" class="point"/>
  <text x="65.53191489361703" y="375" class="label" text-anchor="middle">2025-11-16</text>
  <text x="65.53191489361703" y="96.53846153846155" class="label" text-anchor="middle">42</text>
  <circle cx="70.63829787234042" cy="101.53846153846155" class="point"/>
  <text x="70.63829787234042" y="375" class="label" text-anchor="middle">2025-11-17</text>
  <text x="70.63829787234042" y="96.53846153846155" class="label" text-anchor="middle">42</text>
  <circle cx="75.74468085106383" cy="101.53846153846155" class="point"/>
  <text x="75.74468085106383" y="375" class="label" text-anchor="middle">2025-11-18</text>
  <text x="75.74468085106383" y="96.53846153846155" class="label" text-anchor="middle">42</text>
  <circle cx="80.85106382978724" cy="101.53846153846155" class="point"/>
  <text x="80.85106382978724" y="375" class="label" text-anchor="middle">2025-11-19</text>
  <text x="80.85106382978724" y="96.53846153846155" class="label" text-anchor="middle">42</text>
  <circle cx="85.95744680851064" cy="101.53846153846155" class="point"/>
  <text x="85.95744680851064" y="375" class="label" text-anchor="middle">2025-11-20</text>
  <text x="85.95744680851064" y="96.53846153846155" class="label" text-anchor="middle">42</text>
  <circle cx="91.06382978723406" cy="101.53846153846155" class="point"/>
  <text x="91.06382978723406" y="375" class="label" text-anchor="middle">2025-11-21</text>
  <text x="91.06382978723406" y="96.53846153846155" class="label" text-anchor="middle">42</text>
  <circle cx="96.17021276595744" cy="101.53846153846155" class="point"/>
  <text x="96.17021276595744" y="375" class="label" text-anchor="middle">2025-11-22</text>
  <text x="96.17021276595744" y="96.53846153846155" class="label" text-anchor="middle">42</text>
  <circle cx="101.27659574468085" cy="101.53846153846155" class="point"/>
  <text x="101.27659574468085" y="375" class="label" text-anchor="middle">2025-11-23</text>
  <text x="101.27659574468085" y="96.53846153846155" class="label" text-anchor="middle">42</text>
  <circle cx="106.38297872340425" cy="101.53846153846155" class="point"/>
  <text x="106.38297872340425" y="375" class="label" text-anchor="middle">2025-11-24</text>
  <text x="106.38297872340425" y="96.53846153846155" class="label" text-anchor="middle">42</text>
  <circle cx="111.48936170212767" cy="101.53846153846155" class="point"/>
  <text x="111.48936170212767" y="375" class="label" text-anchor="middle">2025-11-25</text>
  <text x="111.48936170212767" y="96.53846153846155" class="label" text-anchor="middle">42</text>
  <circle cx="116.59574468085107" cy="101.53846153846155" class="point"/>
  <text x="116.59574468085107" y="375" class="label" text-anchor="middle">2025-11-26</text>
  <text x="116.59574468085107" y="96.53846153846155" class="label" text-anchor="middle">42</text>
  <circle cx="121.70212765957447" cy="101.53846153846155" class="point"/>
  <text x="121.70212765957447" y="375" class="label" text-anchor="middle">2025-11-27</text>
  <text x="121.70212765957447" y="96.53846153846155" class="label" text-anchor="middle">42</text>
  <circle cx="126.80851063829786" cy="101.53846153846155" class="point"/>
  <text x="126.80851063829786" y="375" class="label" text-anchor="middle">2025-11-28</text>
  <text x="126.80851063829786" y="96.53846153846155" class="label" text-anchor="middle">42</text>
  <circle cx="131.91489361702128" cy="101.53846153846155" class="point"/>
  <text x="131.91489361702128" y="375" class="label" text-anchor="middle">2025-11-29</text>
  <text x="131.91489361702128" y="96.53846153846155" class="label" text-anchor="middle">42</text>
  <circle cx="137.02127659574467" cy="101.53846153846155" class="point"/>
  <text x="137.02127659574467" y="375" class="label" text-anchor="middle">2025-11-30</text>
  <text x="137.02127659574467" y="96.53846153846155" class="label" text-anchor="middle">42</text>
  <circle cx="142.1276595744681" cy="101.53846153846155" class="point"/>
  <text x="142.1276595744681" y="375" class="label" text-anchor="middle">2025-12-01</text>
  <text x="142.1276595744681" y="96.53846153846155" class="label" text-anchor="middle">42</text>
  <circle cx="147.2340425531915" cy="101.53846153846155" class="point"/>
  <text x="147.2340425531915" y="375" class="label" text-anchor="middle">2025-12-02</text>
  <text x="147.2340425531915" y="96.53846153846155" class="label" text-anchor="middle">42</text>
  <circle cx="152.3404255319149" cy="101.53846153846155" class="point"/>
  <text x="152.3404255319149" y="375" class="label" text-anchor="middle">2025-12-03</text>
  <text x="152.3404255319149" y="96.53846153846155" class="label" text-anchor="middle">42</text>
  <circle cx="157.4468085106383" cy="101.53846153846155" class="point"/>
  <text x="157.4468085106383" y="375" class="label" text-anchor="middle">2025-12-04</text>
  <text x="157.4468085106383" y="96.53846153846155" class="label" text-anchor="middle">42</text>
  <circle cx="162.5531914893617" cy="101.53846153846155" class="point"/>
  <text x="162.5531914893617" y="375" class="label" text-anchor="middle">2025-12-05</text>
  <text x="162.5531914893617" y="96.53846153846155" class="label" text-anchor="middle">42</text>
  <circle cx="167.6595744680851" cy="101.53846153846155" class="point"/>
  <text x="167.6595744680851" y="375" class="label" text-anchor="middle">2025-12-06</text>
  <text x="167.6595744680851" y="96.53846153846155" class="label" text-anchor="middle">42</text>
  <circle cx="172.7659574468085" cy="101.53846153846155" class="point"/>
  <text x="172.7659574468085" y="375" class="label" text-anchor="middle">2025-12-07</text>
  <text x="172.7659574468085" y="96.53846153846155" class="label" text-anchor="middle">42</text>
  <circle cx="177.87234042553192" cy="40.0" class="point"/>
  <text x="177.87234042553192" y="375" class="label" text-anchor="middle">2025-12-08</text>
  <text x="177.87234042553192" y="35.0" class="label" text-anchor="middle">52</text>
  <circle cx="182.97872340425533" cy="40.0" class="point"/>
  <text x="182.97872340425533" y="375" class="label" text-anchor="middle">2025-12-09</text>
  <text x="182.97872340425533" y="35.0" class="label" text-anchor="middle">52</text>
  <circle cx="188.08510638297872" cy="40.0" class="point"/>
  <text x="188.08510638297872" y="375" class="label" text-anchor="middle">2025-12-10</text>
  <text x="188.08510638297872" y="35.0" class="label" text-anchor="middle">52</text>
  <circle cx="193.19148936170214" cy="40.0" class="point"/>
  <text x="193.19148936170214" y="375" class="label" text-anchor="middle">2025-12-11</text>
  <text x="193.19148936170214" y="35.0" class="label" text-anchor="middle">52</text>
  <circle cx="198.29787234042553" cy="40.0" class="point"/>
  <text x="198.29787234042553" y="375" class="label" text-anchor="middle">2025-12-12</text>
  <text x="198.29787234042553" y="35.0" class="label" text-anchor="middle">52</text>
  <circle cx="203.40425531914894" cy="40.0" class="point"/>
  <text x="203.40425531914894" y="375" class="label" text-anchor="middle">2025-12-13</text>
  <text x="203.40425531914894" y="35.0" class="label" text-anchor="middle">52</text>
  <circle cx="208.51063829787233" cy="40.0" class="point"/>
  <text x="208.51063829787233" y="375" class="label" text-anchor="middle">2025-12-14</text>
  <text x="208.51063829787233" y="35.0" class="label" text-anchor="middle">52</text>
  <circle cx="213.61702127659572" cy="40.0" class="point"/>
  <text x="213.61702127659572" y="375" class="label" text-anchor="middle">2025-12-15</text>
  <text x="213.61702127659572" y="35.0" class="label" text-anchor="middle">52</text>
  <circle cx="218.72340425531914" cy="40.0" class="point"/>
  <text x="218.72340425531914" y="375" class="label" text-anchor="middle">2025-12-16</text>
  <text x="218.72340425531914" y="35.0" class="label" text-anchor="middle">52</text>
  <circle cx="223.82978723404253" cy="40.0" class="point"/>
  <text x="223.82978723404253" y="375" class="label" text-anchor="middle">2025-12-17</text>
  <text x="223.82978723404253" y="35.0" class="label" text-anchor="middle">52</text>
  <circle cx="228.93617021276594" cy="40.0" class="point"/>
  <text x="228.93617021276594" y="375" class="label" text-anchor="middle">2025-12-18</text>
  <text x="228.93617021276594" y="35.0" class="label" text-anchor="middle">52</text>
  <circle cx="234.04255319148936" cy="40.0" class="point"/>
  <text x="234.04255319148936" y="375" class="label" text-anchor="middle">2025-12-19</text>
  <text x="234.04255319148936" y="35.0" class="label" text-anchor="middle">52</text>
  <circle cx="239.14893617021278" cy="40.0" class="point"/>
  <text x="239.14893617021278" y="375" class="label" text-anchor="middle">2025-12-20</text>
  <text x="239.14893617021278" y="35.0" class="label" text-anchor="middle">52</text>
  <circle cx="244.2553191489362" cy="40.0" class="point"/>
  <text x="244.2553191489362" y="375" class="label" text-anchor="middle">2025-12-21</text>
  <text x="244.2553191489362" y="35.0" class="label" text-anchor="middle">52</text>
  <circle cx="249.36170212765956" cy="40.0" class="point"/>
  <text x="249.36170212765956" y="375" class="label" text-anchor="middle">2025-12-22</text>
  <text x="249.36170212765956" y="35.0" class="label" text-anchor="middle">52</text>
  <circle cx="254.46808510638297" cy="40.0" class="point"/>
  <text x="254.46808510638297" y="375" class="label" text-anchor="middle">2025-12-23</text>
  <text x="254.46808510638297" y="35.0" class="label" text-anchor="middle">52</text>
  <circle cx="259.5744680851064" cy="40.0" class="point"/>
  <text x="259.5744680851064" y="375" class="label" text-anchor="middle">2025-12-24</text>
  <text x="259.5744680851064" y="35.0" class="label" text-anchor="middle">52</text>
  <circle cx="264.6808510638298" cy="40.0" class="point"/>
  <text x="264.6808510638298" y="375" class="label" text-anchor="middle">2025-12-25</text>
  <text x="264.6808510638298" y="35.0" class="label" text-anchor="middle">52</text>
  <circle cx="269.7872340425532" cy="40.0" class="point"/>
  <text x="269.7872340425532" y="375" class="label" text-anchor="middle">2025-12-26</text>
  <text x="269.7872340425532" y="35.0" class="label" text-anchor="middle">52</text>
  <circle cx="274.8936170212766" cy="40.0" class="point"/>
  <text x="274.8936170212766" y="375" class="label" text-anchor="middle">2025-12-27</text>
  <text x="274.8936170212766" y="35.0" class="label" text-anchor="middle">52</text>
  <circle cx="280.0" cy="40.0" class="point"/>
  <text x="280.0" y="375" class="label" text-anchor="middle">2025-12-28</text>
  <text x="280.0" y="35.0" class="label" text-anchor="middle">52</text>
  <circle cx="285.1063829787234" cy="40.0" class="point"/>
  <text x="285.1063829787234" y="375" class="label" text-anchor="middle">2025-12-29</text>
  <text x="285.1063829787234" y="35.0" class="label" text-anchor="middle">52</text>
  <circle cx="290.2127659574468" cy="40.0" class="point"/>
  <text x="290.2127659574468" y="375" class="label" text-anchor="middle">2025-12-30</text>
  <text x="290.2127659574468" y="35.0" class="label" text-anchor="middle">52</text>
  <circle cx="295.3191489361702" cy="40.0" class="point"/>
  <text x="295.3191489361702" y="375" class="label" text-anchor="middle">2025-12-31</text>
  <text x="295.3191489361702" y="35.0" class="label" text-anchor="middle">52</text>
  <circle cx="300.4255319148936" cy="40.0" class="point"/>
  <text x="300.4255319148936" y="375" class="label" text-anchor="middle">2026-01-01</text>
  <text x="300.4255319148936" y="35.0" class="label" text-anchor="middle">52</text>
  <circle cx="305.531914893617" cy="40.0" class="point"/>
  <text x="305.531914893617" y="375" class="label" text-anchor="middle">2026-01-02</text>
  <text x="305.531914893617" y="35.0" class="label" text-anchor="middle">52</text>
  <circle cx="310.63829787234044" cy="40.0" class="point"/>
  <text x="310.63829787234044" y="375" class="label" text-anchor="middle">2026-01-03</text>
  <text x="310.63829787234044" y="35.0" class="label" text-anchor="middle">52</text>
  <circle cx="315.74468085106383" cy="40.0" class="point"/>
  <text x="315.74468085106383" y="375" class="label" text-anchor="middle">2026-01-04</text>
  <text x="315.74468085106383" y="35.0" class="label" text-anchor="middle">52</text>
  <circle cx="320.8510638297872" cy="40.0" class="point"/>
  <text x="320.8510638297872" y="375" class="label" text-anchor="middle">2026-01-05</text>
  <text x="320.8510638297872" y="35.0" class="label" text-anchor="middle">52</text>
  <circle cx="325.95744680851067" cy="40.0" class="point"/>
  <text x="325.95744680851067" y="375" class="label" text-anchor="middle">2026-01-06</text>
  <text x="325.95744680851067" y="35.0" class="label" text-anchor="middle">52</text>
  <circle cx="331.063829787234" cy="40.0" class="point"/>
  <text x="331.063829787234" y="375" class="label" text-anchor="middle">2026-01-07</text>
  <text x="331.063829787234" y="35.0" class="label" text-anchor="middle">52</text>
  <circle cx="336.17021276595744" cy="40.0" class="point"/>
  <text x="336.17021276595744" y="375" class="label" text-anchor="middle">2026-01-08</text>
  <text x="336.17021276595744" y="35.0" class="label" text-anchor="middle">52</text>
  <circle cx="341.27659574468083" cy="40.0" class="point"/>
  <text x="341.27659574468083" y="375" class="label" text-anchor="middle">2026-01-09</text>
  <text x="341.27659574468083" y="35.0" class="label" text-anchor="middle">52</text>
  <circle cx="346.3829787234043" cy="40.0" class="point"/>
  <text x="346.3829787234043" y="375" class="label" text-anchor="middle">2026-01-10</text>
  <text x="346.3829787234043" y="35.0" class="label" text-anchor="middle">52</text>
  <circle cx="351.48936170212767" cy="40.0" class="point"/>
  <text x="351.48936170212767" y="375" class="label" text-anchor="middle">2026-01-11</text>
  <text x="351.48936170212767" y="35.0" class="label" text-anchor="middle">52</text>
  <circle cx="356.59574468085106" cy="40.0" class="point"/>
  <text x="356.59574468085106" y="375" class="label" text-anchor="middle">2026-01-12</text>
  <text x="356.59574468085106" y="35.0" class="label" text-anchor="middle">52</text>
  <circle cx="361.70212765957444" cy="40.0" class="point"/>
  <text x="361.70212765957444" y="375" class="label" text-anchor="middle">2026-01-13</text>
  <text x="361.70212765957444" y="35.0" class="label" text-anchor="middle">52</text>
  <circle cx="366.8085106382979" cy="40.0" class="point"/>
  <text x="366.8085106382979" y="375" class="label" text-anchor="middle">2026-01-14</text>
  <text x="366.8085106382979" y="35.0" class="label" text-anchor="middle">52</text>
  <circle cx="371.9148936170213" cy="40.0" class="point"/>
  <text x="371.9148936170213" y="375" class="label" text-anchor="middle">2026-01-15</text>
  <text x="371.9148936170213" y="35.0" class="label" text-anchor="middle">52</text>
  <circle cx="377.02127659574467" cy="40.0" class="point"/>
  <text x="377.02127659574467" y="375" class="label" text-anchor="middle">2026-01-16</text>
  <text x="377.02127659574467" y="35.0" class="label" text-anchor="middle">52</text>
  <circle cx="382.1276595744681" cy="40.0" class="point"/>
  <text x="382.1276595744681" y="375" class="label" text-anchor="middle">2026-01-17</text>
  <text x="382.1276595744681" y="35.0" class="label" text-anchor="middle">52</text>
  <circle cx="387.23404255319144" cy="40.0" class="point"/>
  <text x="387.23404255319144" y="375" class="label" text-anchor="middle">2026-01-18</text>
  <text x="387.23404255319144" y="35.0" class="label" text-anchor="middle">52</text>
  <circle cx="392.3404255319149" cy="40.0" class="point"/>
  <text x="392.3404255319149" y="375" class="label" text-anchor="middle">2026-01-19</text>
  <text x="392.3404255319149" y="35.0" class="label" text-anchor="middle">52</text>
  <circle cx="397.4468085106383" cy="40.0" class="point"/>
  <text x="397.4468085106383" y="375" class="label" text-anchor="middle">2026-01-20</text>
  <text x="397.4468085106383" y="35.0" class="label" text-anchor="middle">52</text>
  <circle cx="402.55319148936167" cy="40.0" class="point"/>
  <text x="402.55319148936167" y="375" class="label" text-anchor="middle">2026-01-21</text>
  <text x="402.55319148936167" y="35.0" class="label" text-anchor="middle">52</text>
  <circle cx="407.65957446808505" cy="40.0" class="point"/>
  <text x="407.65957446808505" y="375" class="label" text-anchor="middle">2026-01-22</text>
  <text x="407.65957446808505" y="35.0" class="label" text-anchor="middle">52</text>
  <circle cx="412.7659574468085" cy="40.0" class="point"/>
  <text x="412.7659574468085" y="375" class="label" text-anchor="middle">2026-01-23</text>
  <text x="412.7659574468085" y="35.0" class="label" text-anchor="middle">52</text>
  <circle cx="417.8723404255319" cy="40.0" class="point"/>
  <text x="417.8723404255319" y="375" class="label" text-anchor="middle">2026-01-24</text>
  <text x="417.8723404255319" y="35.0" class="label" text-anchor="middle">52</text>
  <circle cx="422.97872340425533" cy="40.0" class="point"/>
  <text x="422.97872340425533" y="375" class="label" text-anchor="middle">2026-01-25</text>
  <text x="422.97872340425533" y="35.0" class="label" text-anchor="middle">52</text>
  <circle cx="428.0851063829787" cy="40.0" class="point"/>
  <text x="428.0851063829787" y="375" class="label" text-anchor="middle">2026-01-26</text>
  <text x="428.0851063829787" y="35.0" class="label" text-anchor="middle">52</text>
  <circle cx="433.1914893617021" cy="40.0" class="point"/>
  <text x="433.1914893617021" y="375" class="label" text-anchor="middle">2026-01-27</text>
  <text x="433.1914893617021" y="35.0" class="label" text-anchor="middle">52</text>
  <circle cx="438.29787234042556" cy="40.0" class="point"/>
  <text x="438.29787234042556" y="375" class="label" text-anchor="middle">2026-01-28</text>
  <text x="438.29787234042556" y="35.0" class="label" text-anchor="middle">52</text>
  <circle cx="443.40425531914894" cy="40.0" class="point"/>
  <text x="443.40425531914894" y="375" class="label" text-anchor="middle">2026-01-29</text>
  <text x="443.40425531914894" y="35.0" class="label" text-anchor="middle">52</text>
  <circle cx="448.5106382978724" cy="40.0" class="point"/>
  <text x="448.5106382978724" y="375" class="label" text-anchor="middle">2026-01-30</text>
  <text x="448.5106382978724" y="35.0" class="label" text-anchor="middle">52</text>
  <circle cx="453.6170212765958" cy="40.0" class="point"/>
  <text x="453.6170212765958" y="375" class="label" text-anchor="middle">2026-01-31</text>
  <text x="453.6170212765958" y="35.0" class="label" text-anchor="middle">52</text>
  <circle cx="458.7234042553191" cy="40.0" class="point"/>
  <text x="458.7234042553191" y="375" class="label" text-anchor="middle">2026-02-01</text>
  <text x="458.7234042553191" y="35.0" class="label" text-anchor="middle">52</text>
  <circle cx="463.8297872340425" cy="40.0" class="point"/>
  <text x="463.8297872340425" y="375" class="label" text-anchor="middle">2026-02-02</text>
  <text x="463.8297872340425" y="35.0" class="label" text-anchor="middle">52</text>
  <circle cx="468.93617021276594" cy="40.0" class="point"/>
  <text x="468.93617021276594" y="375" class="label" text-anchor="middle">2026-02-03</text>
  <text x="468.93617021276594" y="35.0" class="label" text-anchor="middle">52</text>
  <circle cx="474.04255319148933" cy="40.0" class="point"/>
  <text x="474.04255319148933" y="375" class="label" text-anchor="middle">2026-02-04</text>
  <text x="474.04255319148933" y="35.0" class="label" text-anchor="middle">52</text>
  <circle cx="479.1489361702128" cy="40.0" class="point"/>
  <text x="479.1489361702128" y="375" class="label" text-anchor="middle">2026-02-05</text>
  <text x="479.1489361702128" y="35.0" class="label" text-anchor="middle">52</text>
  <circle cx="484.25531914893617" cy="40.0" class="point"/>
  <text x="484.25531914893617" y="375" class="label" text-anchor="middle">2026-02-06</text>
  <text x="484.25531914893617" y="35.0" class="label" text-anchor="middle">52</text>
  <circle cx="489.36170212765956" cy="40.0" class="point"/>
  <text x="489.36170212765956" y="375" class="label" text-anchor="middle">2026-02-07</text>
  <text x="489.36170212765956" y="35.0" class="label" text-anchor="middle">52</text>
  <circle cx="494.468085106383" cy="40.0" class="point"/>
  <text x="494.468085106383" y="375" class="label" text-anchor="middle">2026-02-08</text>
  <text x="494.468085106383" y="35.0" class="label" text-anchor="middle">52</text>
  <circle cx="499.5744680851064" cy="40.0" class="point"/>
  <text x="499.5744680851064" y="375" class="label" text-anchor="middle">2026-02-09</text>
  <text x="499.5744680851064" y="35.0" class="label" text-anchor="middle">52</text>
  <circle cx="504.68085106382983" cy="40.0" class="point"/>
  <text x="504.68085106382983" y="375" class="label" text-anchor="middle">2026-02-10</text>
  <text x="504.68085106382983" y="35.0" class="label" text-anchor="middle">52</text>
  <circle cx="509.7872340425532" cy="40.0" class="point"/>
  <text x="509.7872340425532" y="375" class="label" text-anchor="middle">2026-02-11</text>
  <text x="509.7872340425532" y="35.0" class="label" text-anchor="middle">52</text>
  <circle cx="514.8936170212766" cy="40.0" class="point"/>
  <text x="514.8936170212766" y="375" class="label" text-anchor="middle">2026-02-12</text>
  <text x="514.8936170212766" y="35.0" class="label" text-anchor="middle">52</text>
  <circle cx="520.0" cy="40.0" class="point"/>
  <text x="520.0" y="375" class="label" text-anchor="middle">2026-02-13</text>
  <text x="520.0" y="35.0" class="label" text-anchor="middle">52</text>
  <circle cx="525.1063829787233" cy="40.0" class="point"/>
  <text x="525.1063829787233" y="375" class="label" text-anchor="middle">2026-02-14</text>
  <text x="525.1063829787233" y="35.0" class="label" text-anchor="middle">52</text>
  <circle cx="530.2127659574468" cy="40.0" class="point"/>
  <text x="530.2127659574468" y="375" class="label" text-anchor="middle">2026-02-15</text>
  <text x="530.2127659574468" y="35.0" class="label" text-anchor="middle">52</text>
  <circle cx="535.3191489361702" cy="40.0" class="point"/>
  <text x="535.3191489361702" y="375" class="label" text-anchor="middle">2026-02-16</text>
  <text x="535.3191489361702" y="35.0" class="label" text-anchor="middle">52</text>
  <circle cx="540.4255319148936" cy="40.0" class="point"/>
  <text x="540.4255319148936" y="375" class="label" text-anchor="middle">2026-02-17</text>
  <text x="540.4255319148936" y="35.0" class="label" text-anchor="middle">52</text>
  <circle cx="545.5319148936171" cy="40.0" class="point"/>
  <text x="545.5319148936171" y="375" class="label" text-anchor="middle">2026-02-18</text>
  <text x="545.5319148936171" y="35.0" class="label" text-anchor="middle">52</text>
  <circle cx="550.6382978723404" cy="40.0" class="point"/>
  <text x="550.6382978723404" y="375" class="label" text-anchor="middle">2026-02-19</text>
  <text x="550.6382978723404" y="35.0" class="label" text-anchor="middle">52</text>
  <circle cx="555.7446808510639" cy="40.0" class="point"/>
  <text x="555.7446808510639" y="375" class="label" text-anchor="middle">2026-02-20</text>
  <text x="555.7446808510639" y="35.0" class="label" text-anchor="middle">52</text>
  <circle cx="560.8510638297872" cy="40.0" class="point"/>
  <text x="560.8510638297872" y="375" class="label" text-anchor="middle">2026-02-21</text>
  <text x="560.8510638297872" y="35.0" class="label" text-anchor="middle">52</text>
  <circle cx="565.9574468085107" cy="40.0" class="point"/>
  <text x="565.9574468085107" y="375" class="label" text-anchor="middle">2026-02-22</text>
  <text x="565.9574468085107" y="35.0" class="label" text-anchor="middle">52</text>
  <circle cx="571.063829787234" cy="40.0" class="point"/>
  <text x="571.063829787234" y="375" class="label" text-anchor="middle">2026-02-23</text>
  <text x="571.063829787234" y="35.0" class="label" text-anchor="middle">52</text>
  <circle cx="576.1702127659574" cy="40.0" class="point"/>
  <text x="576.1702127659574" y="375" class="label" text-anchor="middle">2026-02-24</text>
  <text x="576.1702127659574" y="35.0" class="label" text-anchor="middle">52</text>
  <circle cx="581.2765957446809" cy="40.0" class="point"/>
  <text x="581.2765957446809" y="375" class="label" text-anchor="middle">2026-02-25</text>
  <text x="581.2765957446809" y="35.0" class="label" text-anchor="middle">52</text>
  <circle cx="586.3829787234042" cy="40.0" class="point"/>
  <text x="586.3829787234042" y="375" class="label" text-anchor="middle">2026-02-26</text>
  <text x="586.3829787234042" y="35.0" class="label" text-anchor="middle">52</text>
  <circle cx="591.4893617021277" cy="40.0" class="point"/>
  <text x="591.4893617021277" y="375" class="label" text-anchor="middle">2026-02-27</text>
  <text x="591.4893617021277" y="35.0" class="label" text-anchor="middle">52</text>
  <circle cx="596.5957446808511" cy="40.0" class="point"/>
  <text x="596.5957446808511" y="375" class="label" text-anchor="middle">2026-02-28</text>
  <text x="596.5957446808511" y="35.0" class="label" text-anchor="middle">52</text>
  <circle cx="601.7021276595744" cy="40.0" class="point"/>
  <text x="601.7021276595744" y="375" class="label" text-anchor="middle">2026-03-01</text>
  <text x="601.7021276595744" y="35.0" class="label" text-anchor="middle">52</text>
  <circle cx="606.8085106382979" cy="40.0" class="point"/>
  <text x="606.8085106382979" y="375" class="label" text-anchor="middle">2026-03-02</text>
  <text x="606.8085106382979" y="35.0" class="label" text-anchor="middle">52</text>
  <circle cx="611.9148936170213" cy="40.0" class="point"/>
  <text x="611.9148936170213" y="375" class="label" text-anchor="middle">2026-03-03</text>
  <text x="611.9148936170213" y="35.0" class="label" text-anchor="middle">52</text>
  <circle cx="617.0212765957447" cy="40.0" class="point"/>
  <text x="617.0212765957447" y="375" class="label" text-anchor="middle">2026-03-04</text>
  <text x="617.0212765957447" y="35.0" class="label" text-anchor="middle">52</text>
  <circle cx="622.127659574468" cy="40.0" class="point"/>
  <text x="622.127659574468" y="375" class="label" text-anchor="middle">2026-03-05</text>
  <text x="622.127659574468" y="35.0" class="label" text-anchor="middle">52</text>
  <circle cx="627.2340425531914" cy="40.0" class="point"/>
  <text x="627.2340425531914" y="375" class="label" text-anchor="middle">2026-03-06</text>
  <text x="627.2340425531914" y="35.0" class="label" text-anchor="middle">52</text>
  <circle cx="632.3404255319149" cy="40.0" class="point"/>
  <text x="632.3404255319149" y="375" class="label" text-anchor="middle">2026-03-07</text>
  <text x="632.3404255319149" y="35.0" class="label" text-anchor="middle">52</text>
  <circle cx="637.4468085106383" cy="40.0" class="point"/>
  <text x="637.4468085106383" y="375" class="label" text-anchor="middle">2026-03-08</text>
  <text x="637.4468085106383" y="35.0" class="label" text-anchor="middle">52</text>
  <circle cx="642.5531914893617" cy="40.0" class="point"/>
  <text x="642.5531914893617" y="375" class="label" text-anchor="middle">2026-03-09</text>
  <text x="642.5531914893617" y="35.0" class="label" text-anchor="middle">52</text>
  <circle cx="647.6595744680851" cy="40.0" class="point"/>
  <text x="647.6595744680851" y="375" class="label" text-anchor="middle">2026-03-10</text>
  <text x="647.6595744680851" y="35.0" class="label" text-anchor="middle">52</text>
  <circle cx="652.7659574468086" cy="40.0" class="point"/>
  <text x="652.7659574468086" y="375" class="label" text-anchor="middle">2026-03-11</text>
  <text x="652.7659574468086" y="35.0" class="label" text-anchor="middle">52</text>
  <circle cx="657.8723404255319" cy="40.0" class="point"/>
  <text x="657.8723404255319" y="375" class="label" text-anchor="middle">2026-03-12</text>
  <text x="657.8723404255319" y="35.0" class="label" text-anchor="middle">52</text>
  <circle cx="662.9787234042553" cy="40.0" class="point"/>
  <text x="662.9787234042553" y="375" class="label" text-anchor="middle">2026-03-13</text>
  <text x="662.9787234042553" y="35.0" class="label" text-anchor="middle">52</text>
  <circle cx="668.0851063829788" cy="40.0" class="point"/>
  <text x="668.0851063829788" y="375" class="label" text-anchor="middle">2026-03-14</text>
  <text x="668.0851063829788" y="35.0" class="label" text-anchor="middle">52</text>
  <circle cx="673.1914893617021" cy="40.0" class="point"/>
  <text x="673.1914893617021" y="375" class="label" text-anchor="middle">2026-03-15</text>
  <text x="673.1914893617021" y="35.0" class="label" text-anchor="middle">52</text>
  <circle cx="678.2978723404254" cy="40.0" class="point"/>
  <text x="678.2978723404254" y="375" class="label" text-anchor="middle">2026-03-16</text>
  <text x="678.2978723404254" y="35.0" class="label" text-anchor="middle">52</text>
  <circle cx="683.4042553191489" cy="40.0" class="point"/>
  <text x="683.4042553191489" y="375" class="label" text-anchor="middle">2026-03-17</text>
  <text x="683.4042553191489" y="35.0" class="label" text-anchor="middle">52</text>
  <circle cx="688.5106382978723" cy="40.0" class="point"/>
  <text x="688.5106382978723" y="375" class="label" text-anchor="middle">2026-03-18</text>
  <text x="688.5106382978723" y="35.0" class="label" text-anchor="middle">52</text>
  <circle cx="693.6170212765958" cy="40.0" class="point"/>
  <text x="693.6170212765958" y="375" class="label" text-anchor="middle">2026-03-19</text>
  <text x="693.6170212765958" y="35.0" class="label" text-anchor="middle">52</text>
  <circle cx="698.7234042553191" cy="40.0" class="point"/>
  <text x="698.7234042553191" y="375" class="label" text-anchor="middle">2026-03-20</text>
  <text x="698.7234042553191" y="35.0" class="label" text-anchor="middle">52</text>
  <circle cx="703.8297872340426" cy="40.0" class="point"/>
  <text x="703.8297872340426" y="375" class="label" text-anchor="middle">2026-03-21</text>
  <text x="703.8297872340426" y="35.0" class="label" text-anchor="middle">52</text>
  <circle cx="708.936170212766" cy="40.0" class="point"/>
  <text x="708.936170212766" y="375" class="label" text-anchor="middle">2026-03-22</text>
  <text x="708.936170212766" y="35.0" class="label" text-anchor="middle">52</text>
  <circle cx="714.0425531914893" cy="40.0" class="point"/>
  <text x="714.0425531914893" y="375" class="label" text-anchor="middle">2026-03-23</text>
  <text x="714.0425531914893" y="35.0" class="label" text-anchor="middle">52</text>
  <circle cx="719.1489361702128" cy="40.0" class="point"/>
  <text x="719.1489361702128" y="375" class="label" text-anchor="middle">2026-03-24</text>
  <text x="719.1489361702128" y="35.0" class="label" text-anchor="middle">52</text>
  <circle cx="724.2553191489362" cy="40.0" class="point"/>
  <text x="724.2553191489362" y="375" class="label" text-anchor="middle">2026-03-25</text>
  <text x="724.2553191489362" y="35.0" class="label" text-anchor="middle">52</text>
  <circle cx="729.3617021276596" cy="40.0" class="point"/>
  <text x="729.3617021276596" y="375" class="label" text-anchor="middle">2026-03-26</text>
  <text x="729.3617021276596" y="35.0" class="label" text-anchor="middle">52</text>
  <circle cx="734.4680851063829" cy="40.0" class="point"/>
  <text x="734.4680851063829" y="375" class="label" text-anchor="middle">2026-03-27</text>
  <text x="734.4680851063829" y="35.0" class="label" text-anchor="middle">52</text>
  <circle cx="739.5744680851063" cy="40.0" class="point"/>
  <text x="739.5744680851063" y="375" class="label" text-anchor="middle">2026-03-28</text>
  <text x="739.5744680851063" y="35.0" class="label" text-anchor="middle">52</text>
  <circle cx="744.6808510638298" cy="40.0" class="point"/>
  <text x="744.6808510638298" y="375" class="label" text-anchor="middle">2026-03-29</text>
  <text x="744.6808510638298" y="35.0" class="label" text-anchor="middle">52</text>
  <circle cx="749.7872340425532" cy="40.0" class="point"/>
  <text x="749.7872340425532" y="375" class="label" text-anchor="middle">2026-03-30</text>
  <text x="749.7872340425532" y="35.0" class="label" text-anchor="middle">52</text>
  <circle cx="754.8936170212766" cy="40.0" class="point"/>
  <text x="754.8936170212766" y="375" class="label" text-anchor="middle">2026-03-31</text>
  <text x="754.8936170212766" y="35.0" class="label" text-anchor="middle">52</text>
  <circle cx="760.0" cy="40.0" class="point"/>
  <text x="760.0" y="375" class="label" text-anchor="middle">2026-04-01</text>
  <text x="760.0" y="35.0" class="label" text-anchor="middle">52</text>
  <text x="30" y="363.0" class="label" text-anchor="end">0</text>
  <text x="30" y="301.46153846153845" class="label" text-anchor="end">10</text>
  <text x="30" y="239.9230769230769" class="label" text-anchor="end">20</text>
  <text x="30" y="178.38461538461542" class="label" text-anchor="end">30</text>
  <text x="30" y="116.84615384615384" class="label" text-anchor="end">40</text>
  <text x="30" y="55.30769230769232" class="label" text-anchor="end">50</text>
</svg>