<svg xmlns="http://www.w3.org/2000/svg" width="800" height="400" viewBox="0 0 800 400">
  <style>
    .axis{stroke:#666;stroke-width:1}
    .line{stroke:#4a9;stroke-width:2;fill:none}
    .point{fill:#4a9;r:4}
    .label{font:10px sans-serif;fill:#aaa}
    .title{font:14px sans-serif;fill:#333}
  </style>
  <text x="400" y="20" class="title" text-anchor="middle">OPIC Field Growth Timeline</text>
  <line x1="40" y1="40" x2="40" y2="360" class="axis"/>
  <line x1="40" y1="360" x2="760" y2="360" class="axis"/>
  <path d="M 40.0,101.53846153846155 L 46.15384615384615,101.53846153846155 L 52.30769230769231,101.53846153846155 L 58.46153846153846,101.53846153846155 L 64.61538461538461,101.53846153846155 L 70.76923076923077,101.53846153846155 L 76.92307692307692,101.53846153846155 L 83.07692307692308,101.53846153846155 L 89.23076923076923,101.53846153846155 L 95.38461538461539,101.53846153846155 L 101.53846153846155,101.53846153846155 L 107.6923076923077,101.53846153846155 L 113.84615384615384,101.53846153846155 L 120.0,101.53846153846155 L 126.15384615384616,101.53846153846155 L 132.3076923076923,101.53846153846155 L 138.46153846153845,101.53846153846155 L 144.61538461538464,101.53846153846155 L 150.76923076923077,101.53846153846155 L 156.92307692307693,101.53846153846155 L 163.0769230769231,101.53846153846155 L 169.23076923076923,101.53846153846155 L 175.3846153846154,101.53846153846155 L 181.53846153846155,101.53846153846155 L 187.69230769230768,101.53846153846155 L 193.84615384615384,101.53846153846155 L 200.0,101.53846153846155 L 206.15384615384616,40.0 L 212.30769230769232,40.0 L 218.46153846153845,40.0 L 224.61538461538458,40.0 L 230.76923076923077,40.0 L 236.92307692307693,40.0 L 243.07692307692307,40.0 L 249.23076923076925,40.0 L 255.3846153846154,40.0 L 261.53846153846155,40.0 L 267.6923076923077,40.0 L 273.84615384615387,40.0 L 280.0,40.0 L 286.1538461538462,40.0 L 292.30769230769226,40.0 L 298.46153846153845,40.0 L 304.61538461538464,40.0 L 310.7692307692308,40.0 L 316.92307692307696,40.0 L 323.0769230769231,40.0 L 329.2307692307692,40.0 L 335.38461538461536,40.0 L 341.53846153846155,40.0 L 347.6923076923077,40.0 L 353.84615384615387,40.0 L 360.0,40.0 L 366.15384615384613,40.0 L 372.3076923076923,40.0 L 378.46153846153845,40.0 L 384.61538461538464,40.0 L 390.7692307692308,40.0 L 396.9230769230769,40.0 L 403.0769230769231,40.0 L 409.23076923076917,40.0 L 415.3846153846154,40.0 L 421.53846153846155,40.0 L 427.6923076923077,40.0 L 433.84615384615387,40.0 L 440.0,40.0 L 446.15384615384613,40.0 L 452.30769230769226,40.0 L 458.4615384615385,40.0 L 464.61538461538464,40.0 L 470.7692307692308,40.0 L 476.9230769230769,40.0 L 483.0769230769231,40.0 L 489.2307692307692,40.0 L 495.38461538461536,40.0 L 501.5384615384616,40.0 L 507.69230769230774,40.0 L 513.8461538461538,40.0 L 520.0,40.0 L 526.1538461538462,40.0 L 532.3076923076924,40.0 L 538.4615384615385,40.0 L 544.6153846153845,40.0 L 550.7692307692307,40.0 L 556.9230769230769,40.0 L 563.0769230769231,40.0 L 569.2307692307693,40.0 L 575.3846153846154,40.0 L 581.5384615384615,40.0 L 587.6923076923076,40.0 L 593.8461538461539,40.0 L 600.0,40.0 L 606.1538461538462,40.0 L 612.3076923076923,40.0 L 618.4615384615385,40.0 L 624.6153846153846,40.0 L 630.7692307692307,40.0 L 636.9230769230769,40.0 L 643.0769230769231,40.0 L 649.2307692307692,40.0 L 655.3846153846154,40.0 L 661.5384615384615,40.0 L 667.6923076923077,40.0 L 673.8461538461538,40.0 L 680.0,40.0 L 686.1538461538462,40.0 L 692.3076923076923,40.0 L 698.4615384615385,40.0 L 704.6153846153846,40.0 L 710.7692307692308,40.0 L 716.9230769230769,40.0 L 723.0769230769231,40.0 L 729.2307692307693,40.0 L 735.3846153846154,40.0 L 741.5384615384615,40.0 L 747.6923076923076,40.0 L 753.8461538461538,40.0 L 760.0,40.0" class="line"/>
  <circle cx="40.0" cy="101.53846153846155" class="point"/>
  <text x="40.0" y="375" class="label" text-anchor="middle">2025-11-11</text>
  <text x="40.0" y="96.53846153846155" class="label" text-anchor="middle">42</text>
  <circle cx="46.15384615384615" cy="101.53846153846155" class="point"/>
  <text x="46.15384615384615" y="375" class="label" text-anchor="middle">2025-11-12</text>
  <text x="46.15384615384615" y="96.53846153846155" class="label" text-anchor="middle">42</text>
  <circle cx="52.30769230769231" cy="101.53846153846155" class="point"/>
  <text x="52.30769230769231" y="375" class="label" text-anchor="middle">2025-11-13</text>
  <text x="52.30769230769231" y="96.53846153846155" class="label" text-anchor="middle">42</text>
  <circle cx="58.46153846153846" cy="101.53846153846155" class="point"/>
  <text x="58.46153846153846" y="375" class="label" text-anchor="middle">2025-11-14</text>
  <text x="58.46153846153846" y="96.53846153846155" class="label" text-anchor="middle">42</text>
  <circle cx="64.61538461538461" cy="101.53846153846155" class="point"/>
  <text x="64.61538461538461" y="375" class="label" text-anchor="middle">2025-11-15</text>
  <text x="64.61538461538461" y="96.53846153846155" class="label" text-anchor="middle">42</text>
  <circle cx="70.76923076923077" cy="101.53846153846155" class="point"/>
  <text x="70.76923076923077" y="375" class="label" text-anchor="middle">2025-11-16</text>
  <text x="70.76923076923077" y="96.53846153846155" class="label" text-anchor="middle">42</text>
  <circle cx="76.92307692307692" cy="101.53846153846155" class="point"/>
  <text x="76.92307692307692" y="375" class="label" text-anchor="middle">2025-11-17</text>
  <text x="76.92307692307692" y="96.53846153846155" class="label" text-anchor="middle">42</text>
  <circle cx="83.07692307692308" cy="101.53846153846155" class="point"/>
  <text x="83.07692307692308" y="375" class="label" text-anchor="middle">2025-11-18</text>
  <text x="83.07692307692308" y="96.53846153846155" class="label" text-anchor="middle">42</text>
  <circle cx="89.23076923076923" cy="101.53846153846155" class="point"/>
  <text x="89.23076923076923" y="375" class="label" text-anchor="middle">2025-11-19</text>
  <text x="89.23076923076923" y="96.53846153846155" class="label" text-anchor="middle">42</text>
  <circle cx="95.38461538461539" cy="101.53846153846155" class="point"/>
  <text x="95.38461538461539" y="375" class="label" text-anchor="middle">2025-11-20</text>
  <text x="95.38461538461539" y="96.53846153846155" class="label" text-anchor="middle">42</text>
  <circle cx="101.53846153846155" cy="101.53846153846155" class="point"/>
  <text x="101.53846153846155" y="375" class="label" text-anchor="middle">2025-11-21</text>
  <text x="101.53846153846155" y="96.53846153846155" class="label" text-anchor="middle">42</text>
  <circle cx="107.6923076923077" cy="101.53846153846155" class="point"/>
  <text x="107.6923076923077" y="375" class="label" text-anchor="middle">2025-11-22</text>
  <text x="107.6923076923077" y="96.53846153846155" class="label" text-anchor="middle">42</text>
  <circle cx="113.84615384615384" cy="101.53846153846155" class="point"/>
  <text x="113.84615384615384" y="375" class="label" text-anchor="middle">2025-11-23</text>
  <text x="113.84615384615384" y="96.53846153846155" class="label" text-anchor="middle">42</text>
  <circle cx="120.0" cy="101.53846153846155" class="point"/>
  <text x="120.0" y="375" class="label" text-anchor="middle">2025-11-24</text>
  <text x="120.0" y="96.53846153846155" class="label" text-anchor="middle">42</text>
  <circle cx="126.15384615384616" cy="101.53846153846155" class="point"/>
  <text x="126.15384615384616" y="375" class="label" text-anchor="middle">2025-11-25</text>
  <text x="126.15384615384616" y="96.53846153846155" class="label" text-anchor="middle">42</text>
  <circle cx="132.3076923076923" cy="101.53846153846155" class="point"/>
  <text x="132.3076923076923" y="375" class="label" text-anchor="middle">2025-11-26</text>
  <text x="132.3076923076923" y="96.53846153846155" class="label" text-anchor="middle">42</text>
  <circle cx="138.46153846153845" cy="101.53846153846155" class="point"/>
  <text x="138.46153846153845" y="375" class="label" text-anchor="middle">2025-11-27</text>
  <text x="138.46153846153845" y="96.53846153846155" class="label" text-anchor="middle">42</text>
  <circle cx="144.61538461538464" cy="101.53846153846155" class="point"/>
  <text x="144.61538461538464" y="375" class="label" text-anchor="middle">2025-11-28</text>
  <text x="144.61538461538464" y="96.53846153846155" class="label" text-anchor="middle">42</text>
  <circle cx="150.76923076923077" cy="101.53846153846155" class="point"/>
  <text x="150.76923076923077" y="375" class="label" text-anchor="middle">2025-11-29</text>
  <text x="150.76923076923077" y="96.53846153846155" class="label" text-anchor="middle">42</text>
  <circle cx="156.92307692307693" cy="101.53846153846155" class="point"/>
  <text x="156.92307692307693" y="375" class="label" text-anchor="middle">2025-11-30</text>
  <text x="156.92307692307693" y="96.53846153846155" class="label" text-anchor="middle">42</text>
  <circle cx="163.0769230769231" cy="101.53846153846155" class="point"/>
  <text x="163.0769230769231" y="375" class="label" text-anchor="middle">2025-12-01</text>
  <text x="163.0769230769231" y="96.53846153846155" class="label" text-anchor="middle">42</text>
  <circle cx="169.23076923076923" cy="101.53846153846155" class="point"/>
  <text x="169.23076923076923" y="375" class="label" text-anchor="middle">2025-12-02</text>
  <text x="169.23076923076923" y="96.53846153846155" class="label" text-anchor="middle">42</text>
  <circle cx="175.3846153846154" cy="101.53846153846155" class="point"/>
  <text x="175.3846153846154" y="375" class="label" text-anchor="middle">2025-12-03</text>
  <text x="175.3846153846154" y="96.53846153846155" class="label" text-anchor="middle">42</text>
  <circle cx="181.53846153846155" cy="101.53846153846155" class="point"/>
  <text x="181.53846153846155" y="375" class="label" text-anchor="middle">2025-12-04</text>
  <text x="181.53846153846155" y="96.53846153846155" class="label" text-anchor="middle">42</text>
  <circle cx="187.69230769230768" cy="101.53846153846155" class="point"/>
  <text x="187.69230769230768" y="375" class="label" text-anchor="middle">2025-12-05</text>
  <text x="187.69230769230768" y="96.53846153846155" class="label" text-anchor="middle">42</text>
  <circle cx="193.84615384615384" cy="101.53846153846155" class="point"/>
  <text x="193.84615384615384" y="375" class="label" text-anchor="middle">2025-12-06</text>
  <text x="193.84615384615384" y="96.53846153846155" class="label" text-anchor="middle">42</text>
  <circle cx="200.0" cy="101.53846153846155" class="point"/>
  <text x="200.0" y="375" class="label" text-anchor="middle">2025-12-07</text>
  <text x="200.0" y="96.53846153846155" class="label" text-anchor="middle">42</text>
  <circle cx="206.15384615384616" cy="40.0" class="point"/>
  <text x="206.15384615384616" y="375" class="label" text-anchor="middle">2025-12-08</text>
  <text x="206.15384615384616" y="35.0" class="label" text-anchor="middle">52</text>
  <circle cx="212.30769230769232" cy="40.0" class="point"/>
  <text x="212.30769230769232" y="375" class="label" text-anchor="middle">2025-12-09</text>
  <text x="212.30769230769232" y="35.0" class="label" text-anchor="middle">52</text>
  <circle cx="218.46153846153845" cy="40.0" class="point"/>
  <text x="218.46153846153845" y="375" class="label" text-anchor="middle">2025-12-10</text>
  <text x="218.46153846153845" y="35.0" class="label" text-anchor="middle">52</text>
  <circle cx="224.61538461538458" cy="40.0" class="point"/>
  <text x="224.61538461538458" y="375" class="label" text-anchor="middle">2025-12-11</text>
  <text x="224.61538461538458" y="35.0" class="label" text-anchor="middle">52</text>
  <circle cx="230.76923076923077" cy="40.0" class="point"/>
  <text x="230.76923076923077" y="375" class="label" text-anchor="middle">2025-12-12</text>
  <text x="230.76923076923077" y="35.0" class="label" text-anchor="middle">52</text>
  <circle cx="236.92307692307693" cy="40.0" class="point"/>
  <text x="236.92307692307693" y="375" class="label" text-anchor="middle">2025-12-13</text>
  <text x="236.92307692307693" y="35.0" class="label" text-anchor="middle">52</text>
  <circle cx="243.07692307692307" cy="40.0" class="point"/>
  <text x="243.07692307692307" y="375" class="label" text-anchor="middle">2025-12-14</text>
  <text x="243.07692307692307" y="35.0" class="label" text-anchor="middle">52</text>
  <circle cx="249.23076923076925" cy="40.0" class="point"/>
  <text x="249.23076923076925" y="375" class="label" text-anchor="middle">2025-12-15</text>
  <text x="249.23076923076925" y="35.0" class="label" text-anchor="middle">52</text>
  <circle cx="255.3846153846154" cy="40.0" class="point"/>
  <text x="255.3846153846154" y="375" class="label" text-anchor="middle">2025-12-16</text>
  <text x="255.3846153846154" y="35.0" class="label" text-anchor="middle">52</text>
  <circle cx="261.53846153846155" cy="40.0" class="point"/>
  <text x="261.53846153846155" y="375" class="label" text-anchor="middle">2025-12-17</text>
  <text x="261.53846153846155" y="35.0" class="label" text-anchor="middle">52</text>
  <circle cx="267.6923076923077" cy="40.0" class="point"/>
  <text x="267.6923076923077" y="375" class="label" text-anchor="middle">2025-12-18</text>
  <text x="267.6923076923077" y="35.0" class="label" text-anchor="middle">52</text>
  <circle cx="273.84615384615387" cy="40.0" class="point"/>
  <text x="273.84615384615387" y="375" class="label" text-anchor="middle">2025-12-19</text>
  <text x="273.84615384615387" y="35.0" class="label" text-anchor="middle">52</text>
  <circle cx="280.0" cy="40.0" class="point"/>
  <text x="280.0" y="375" class="label" text-anchor="middle">2025-12-20</text>
  <text x="280.0" y="35.0" class="label" text-anchor="middle">52</text>
  <circle cx="286.1538461538462" cy="40.0" class="point"/>
  <text x="286.1538461538462" y="375" class="label" text-anchor="middle">2025-12-21</text>
  <text x="286.1538461538462" y="35.0" class="label" text-anchor="middle">52</text>
  <circle cx="292.30769230769226" cy="40.0" class="point"/>
  <text x="292.30769230769226" y="375" class="label" text-anchor="middle">2025-12-22</text>
  <text x="292.30769230769226" y="35.0" class="label" text-anchor="middle">52</text>
  <circle cx="298.46153846153845" cy="40.0" class="point"/>
  <text x="298.46153846153845" y="375" class="label" text-anchor="middle">2025-12-23</text>
  <text x="298.46153846153845" y="35.0" class="label" text-anchor="middle">52</text>
  <circle cx="304.61538461538464" cy="40.0" class="point"/>
  <text x="304.61538461538464" y="375" class="label" text-anchor="middle">2025-12-24</text>
  <text x="304.61538461538464" y="35.0" class="label" text-anchor="middle">52</text>
  <circle cx="310.7692307692308" cy="40.0" class="point"/>
  <text x="310.7692307692308" y="375" class="label" text-anchor="middle">2025-12-25</text>
  <text x="310.7692307692308" y="35.0" class="label" text-anchor="middle">52</text>
  <circle cx="316.92307692307696" cy="40.0" class="point"/>
  <text x="316.92307692307696" y="375" class="label" text-anchor="middle">2025-12-26</text>
  <text x="316.92307692307696" y="35.0" class="label" text-anchor="middle">52</text>
  <circle cx="323.0769230769231" cy="40.0" class="point"/>
  <text x="323.0769230769231" y="375" class="label" text-anchor="middle">2025-12-27</text>
  <text x="323.0769230769231" y="35.0" class="label" text-anchor="middle">52</text>
  <circle cx="329.2307692307692" cy="40.0" class="point"/>
  <text x="329.2307692307692" y="375" class="label" text-anchor="middle">2025-12-28</text>
  <text x="329.2307692307692" y="35.0" class="label" text-anchor="middle">52</text>
  <circle cx="335.38461538461536" cy="40.0" class="point"/>
  <text x="335.38461538461536" y="375" class="label" text-anchor="middle">2025-12-29</text>
  <text x="335.38461538461536" y="35.0" class="label" text-anchor="middle">52</text>
  <circle cx="341.53846153846155" cy="40.0" class="point"/>
  <text x="341.53846153846155" y="375" class="label" text-anchor="middle">2025-12-30</text>
  <text x="341.53846153846155" y="35.0" class="label" text-anchor="middle">52</text>
  <circle cx="347.6923076923077" cy="40.0" class="point"/>
  <text x="347.6923076923077" y="375" class="label" text-anchor="middle">2025-12-31</text>
  <text x="347.6923076923077" y="35.0" class="label" text-anchor="middle">52</text>
  <circle cx="353.84615384615387" cy="40.0" class="point"/>
  <text x="353.84615384615387" y="375" class="label" text-anchor="middle">2026-01-01</text>
  <text x="353.84615384615387" y="35.0" class="label" text-anchor="middle">52</text>
  <circle cx="360.0" cy="40.0" class="point"/>
  <text x="360.0" y="375" class="label" text-anchor="middle">2026-01-02</text>
  <text x="360.0" y="35.0" class="label" text-anchor="middle">52</text>
  <circle cx="366.15384615384613" cy="40.0" class="point"/>
  <text x="366.15384615384613" y="375" class="label" text-anchor="middle">2026-01-03</text>
  <text x="366.15384615384613" y="35.0" class="label" text-anchor="middle">52</text>
  <circle cx="372.3076923076923" cy="40.0" class="point"/>
  <text x="372.3076923076923" y="375" class="label" text-anchor="middle">2026-01-04</text>
  <text x="372.3076923076923" y="35.0" class="label" text-anchor="middle">52</text>
  <circle cx="378.46153846153845" cy="40.0" class="point"/>
  <text x="378.46153846153845" y="375" class="label" text-anchor="middle">2026-01-05</text>
  <text x="378.46153846153845" y="35.0" class="label" text-anchor="middle">52</text>
  <circle cx="384.61538461538464" cy="40.0" class="point"/>
  <text x="384.61538461538464" y="375" class="label" text-anchor="middle">2026-01-06</text>
  <text x="384.61538461538464" y="35.0" class="label" text-anchor="middle">52</text>
  <circle cx="390.7692307692308" cy="40.0" class="point"/>
  <text x="390.7692307692308" y="375" class="label" text-anchor="middle">2026-01-07</text>
  <text x="390.7692307692308" y="35.0" class="label" text-anchor="middle">52</text>
  <circle cx="396.9230769230769" cy="40.0" class="point"/>
  <text x="396.9230769230769" y="375" class="label" text-anchor="middle">2026-01-08</text>
  <text x="396.9230769230769" y="35.0" class="label" text-anchor="middle">52</text>
  <circle cx="403.0769230769231" cy="40.0" class="point"/>
  <text x="403.0769230769231" y="375" class="label" text-anchor="middle">2026-01-09</text>
  <text x="403.0769230769231" y="35.0" class="label" text-anchor="middle">52</text>
  <circle cx="409.23076923076917" cy="40.0" class="point"/>
  <text x="409.23076923076917" y="375" class="label" text-anchor="middle">2026-01-10</text>
  <text x="409.23076923076917" y="35.0" class="label" text-anchor="middle">52</text>
  <circle cx="415.3846153846154" cy="40.0" class="point"/>
  <text x="415.3846153846154" y="375" class="label" text-anchor="middle">2026-01-11</text>
  <text x="415.3846153846154" y="35.0" class="label" text-anchor="middle">52</text>
  <circle cx="421.53846153846155" cy="40.0" class="point"/>
  <text x="421.53846153846155" y="375" class="label" text-anchor="middle">2026-01-12</text>
  <text x="421.53846153846155" y="35.0" class="label" text-anchor="middle">52</text>
  <circle cx="427.6923076923077" cy="40.0" class="point"/>
  <text x="427.6923076923077" y="375" class="label" text-anchor="middle">2026-01-13</text>
  <text x="427.6923076923077" y="35.0" class="label" text-anchor="middle">52</text>
  <circle cx="433.84615384615387" cy="40.0" class="point"/>
  <text x="433.84615384615387" y="375" class="label" text-anchor="middle">2026-01-14</text>
  <text x="433.84615384615387" y="35.0" class="label" text-anchor="middle">52</text>
  <circle cx="440.0" cy="40.0" class="point"/>
  <text x="440.0" y="375" class="label" text-anchor="middle">2026-01-15</text>
  <text x="440.0" y="35.0" class="label" text-anchor="middle">52</text>
  <circle cx="446.15384615384613" cy="40.0" class="point"/>
  <text x="446.15384615384613" y="375" class="label" text-anchor="middle">2026-01-16</text>
  <text x="446.15384615384613" y="35.0" class="label" text-anchor="middle">52</text>
  <circle cx="452.30769230769226" cy="40.0" class="point"/>
  <text x="452.30769230769226" y="375" class="label" text-anchor="middle">2026-01-17</text>
  <text x="452.30769230769226" y="35.0" class="label" text-anchor="middle">52</text>
  <circle cx="458.4615384615385" cy="40.0" class="point"/>
  <text x="458.4615384615385" y="375" class="label" text-anchor="middle">2026-01-18</text>
  <text x="458.4615384615385" y="35.0" class="label" text-anchor="middle">52</text>
  <circle cx="464.61538461538464" cy="40.0" class="point"/>
  <text x="464.61538461538464" y="375" class="label" text-anchor="middle">2026-01-19</text>
  <text x="464.61538461538464" y="35.0" class="label" text-anchor="middle">52</text>
  <circle cx="470.7692307692308" cy="40.0" class="point"/>
  <text x="470.7692307692308" y="375" class="label" text-anchor="middle">2026-01-20</text>
  <text x="470.7692307692308" y="35.0" class="label" text-anchor="middle">52</text>
  <circle cx="476.9230769230769" cy="40.0" class="point"/>
  <text x="476.9230769230769" y="375" class="label" text-anchor="middle">2026-01-21</text>
  <text x="476.9230769230769" y="35.0" class="label" text-anchor="middle">52</text>
  <circle cx="483.0769230769231" cy="40.0" class="point"/>
  <text x="483.0769230769231" y="375" class="label" text-anchor="middle">2026-01-22</text>
  <text x="483.0769230769231" y="35.0" class="label" text-anchor="middle">52</text>
  <circle cx="489.2307692307692" cy="40.0" class="point"/>
  <text x="489.2307692307692" y="375" class="label" text-anchor="middle">2026-01-23</text>
  <text x="489.2307692307692" y="35.0" class="label" text-anchor="middle">52</text>
  <circle cx="495.38461538461536" cy="40.0" class="point"/>
  <text x="495.38461538461536" y="375" class="label" text-anchor="middle">2026-01-24</text>
  <text x="495.38461538461536" y="35.0" class="label" text-anchor="middle">52</text>
  <circle cx="501.5384615384616" cy="40.0" class="point"/>
  <text x="501.5384615384616" y="375" class="label" text-anchor="middle">2026-01-25</text>
  <text x="501.5384615384616" y="35.0" class="label" text-anchor="middle">52</text>
  <circle cx="507.69230769230774" cy="40.0" class="point"/>
  <text x="507.69230769230774" y="375" class="label" text-anchor="middle">2026-01-26</text>
  <text x="507.69230769230774" y="35.0" class="label" text-anchor="middle">52</text>
  <circle cx="513.8461538461538" cy="40.0" class="point"/>
  <text x="513.8461538461538" y="375" class="label" text-anchor="middle">2026-01-27</text>
  <text x="513.8461538461538" y="35.0" class="label" text-anchor="middle">52</text>
  <circle cx="520.0" cy="40.0" class="point"/>
  <text x="520.0" y="375" class="label" text-anchor="middle">2026-01-28</text>
  <text x="520.0" y="35.0" class="label" text-anchor="middle">52</text>
  <circle cx="526.1538461538462" cy="40.0" class="point"/>
  <text x="526.1538461538462" y="375" class="label" text-anchor="middle">2026-01-29</text>
  <text x="526.1538461538462" y="35.0" class="label" text-anchor="middle">52</text>
  <circle cx="532.3076923076924" cy="40.0" class="point"/>
  <text x="532.3076923076924" y="375" class="label" text-anchor="middle">2026-01-30</text>
  <text x="532.3076923076924" y="35.0" class="label" text-anchor="middle">52</text>
  <circle cx="538.4615384615385" cy="40.0" class="point"/>
  <text x="538.4615384615385" y="375" class="label" text-anchor="middle">2026-01-31</text>
  <text x="538.4615384615385" y="35.0" class="label" text-anchor="middle">52</text>
  <circle cx="544.6153846153845" cy="40.0" class="point"/>
  <text x="544.6153846153845" y="375" class="label" text-anchor="middle">2026-02-01</text>
  <text x="544.6153846153845" y="35.0" class="label" text-anchor="middle">52</text>
  <circle cx="550.7692307692307" cy="40.0" class="point"/>
  <text x="550.7692307692307" y="375" class="label" text-anchor="middle">2026-02-02</text>
  <text x="550.7692307692307" y="35.0" class="label" text-anchor="middle">52</text>
  <circle cx="556.9230769230769" cy="40.0" class="point"/>
  <text x="556.9230769230769" y="375" class="label" text-anchor="middle">2026-02-03</text>
  <text x="556.9230769230769" y="35.0" class="label" text-anchor="middle">52</text>
  <circle cx="563.0769230769231" cy="40.0" class="point"/>
  <text x="563.0769230769231" y="375" class="label" text-anchor="middle">2026-02-04</text>
  <text x="563.0769230769231" y="35.0" class="label" text-anchor="middle">52</text>
  <circle cx="569.2307692307693" cy="40.0" class="point"/>
  <text x="569.2307692307693" y="375" class="label" text-anchor="middle">2026-02-05</text>
  <text x="569.2307692307693" y="35.0" class="label" text-anchor="middle">52</text>
  <circle cx="575.3846153846154" cy="40.0" class="point"/>
  <text x="575.3846153846154" y="375" class="label" text-anchor="middle">2026-02-06</text>
  <text x="575.3846153846154" y="35.0" class="label" text-anchor="middle">52</text>
  <circle cx="581.5384615384615" cy="40.0" class="point"/>
  <text x="581.5384615384615" y="375" class="label" text-anchor="middle">2026-02-07</text>
  <text x="581.5384615384615" y="35.0" class="label" text-anchor="middle">52</text>
  <circle cx="587.6923076923076" cy="40.0" class="point"/>
  <text x="587.6923076923076" y="375" class="label" text-anchor="middle">2026-02-08</text>
  <text x="587.6923076923076" y="35.0" class="label" text-anchor="middle">52</text>
  <circle cx="593.8461538461539" cy="40.0" class="point"/>
  <text x="593.8461538461539" y="375" class="label" text-anchor="middle">2026-02-09</text>
  <text x="593.8461538461539" y="35.0" class="label" text-anchor="middle">52</text>
  <circle cx="600.0" cy="40.0" class="point"/>
  <text x="600.0" y="375" class="label" text-anchor="middle">2026-02-10</text>
  <text x="600.0" y="35.0" class="label" text-anchor="middle">52</text>
  <circle cx="606.1538461538462" cy="40.0" class="point"/>
  <text x="606.1538461538462" y="375" class="label" text-anchor="middle">2026-02-11</text>
  <text x="606.1538461538462" y="35.0" class="label" text-anchor="middle">52</text>
  <circle cx="612.3076923076923" cy="40.0" class="point"/>
  <text x="612.3076923076923" y="375" class="label" text-anchor="middle">2026-02-12</text>
  <text x="612.3076923076923" y="35.0" class="label" text-anchor="middle">52</text>
  <circle cx="618.4615384615385" cy="40.0" class="point"/>
  <text x="618.4615384615385" y="375" class="label" text-anchor="middle">2026-02-13</text>
  <text x="618.4615384615385" y="35.0" class="label" text-anchor="middle">52</text>
  <circle cx="624.6153846153846" cy="40.0" class="point"/>
  <text x="624.6153846153846" y="375" class="label" text-anchor="middle">2026-02-14</text>
  <text x="624.6153846153846" y="35.0" class="label" text-anchor="middle">52</text>
  <circle cx="630.7692307692307" cy="40.0" class="point"/>
  <text x="630.7692307692307" y="375" class="label" text-anchor="middle">2026-02-15</text>
  <text x="630.7692307692307" y="35.0" class="label" text-anchor="middle">52</text>
  <circle cx="636.9230769230769" cy="40.0" class="point"/>
  <text x="636.9230769230769" y="375" class="label" text-anchor="middle">2026-02-16</text>
  <text x="636.9230769230769" y="35.0" class="label" text-anchor="middle">52</text>
  <circle cx="643.0769230769231" cy="40.0" class="point"/>
  <text x="643.0769230769231" y="375" class="label" text-anchor="middle">2026-02-17</text>
  <text x="643.0769230769231" y="35.0" class="label" text-anchor="middle">52</text>
  <circle cx="649.2307692307692" cy="40.0" class="point"/>
  <text x="649.2307692307692" y="375" class="label" text-anchor="middle">2026-02-18</text>
  <text x="649.2307692307692" y="35.0" class="label" text-anchor="middle">52</text>
  <circle cx="655.3846153846154" cy="40.0" class="point"/>
  <text x="655.3846153846154" y="375" class="label" text-anchor="middle">2026-02-19</text>
  <text x="655.3846153846154" y="35.0" class="label" text-anchor="middle">52</text>
  <circle cx="661.5384615384615" cy="40.0" class="point"/>
  <text x="661.5384615384615" y="375" class="label" text-anchor="middle">2026-02-20</text>
  <text x="661.5384615384615" y="35.0" class="label" text-anchor="middle">52</text>
  <circle cx="667.6923076923077" cy="40.0" class="point"/>
  <text x="667.6923076923077" y="375" class="label" text-anchor="middle">2026-02-21</text>
  <text x="667.6923076923077" y="35.0" class="label" text-anchor="middle">52</text>
  <circle cx="673.8461538461538" cy="40.0" class="point"/>
  <text x="673.8461538461538" y="375" class="label" text-anchor="middle">2026-02-22</text>
  <text x="673.8461538461538" y="35.0" class="label" text-anchor="middle">52</text>
  <circle cx="680.0" cy="40.0" class="point"/>
  <text x="680.0" y="375" class="label" text-anchor="middle">2026-02-23</text>
  <text x="680.0" y="35.0" class="label" text-anchor="middle">52</text>
  <circle cx="686.1538461538462" cy="40.0" class="point"/>
  <text x="686.1538461538462" y="375" class="label" text-anchor="middle">2026-02-24</text>
  <text x="686.1538461538462" y="35.0" class="label" text-anchor="middle">52</text>
  <circle cx="692.3076923076923" cy="40.0" class="point"/>
  <text x="692.3076923076923" y="375" class="label" text-anchor="middle">2026-02-25</text>
  <text x="692.3076923076923" y="35.0" class="label" text-anchor="middle">52</text>
  <circle cx="698.4615384615385" cy="40.0" class="point"/>
  <text x="698.4615384615385" y="375" class="label" text-anchor="middle">2026-02-26</text>
  <text x="698.4615384615385" y="35.0" class="label" text-anchor="middle">52</text>
  <circle cx="704.6153846153846" cy="40.0" class="point"/>
  <text x="704.6153846153846" y="375" class="label" text-anchor="middle">2026-02-27</text>
  <text x="704.6153846153846" y="35.0" class="label" text-anchor="middle">52</text>
  <circle cx="710.7692307692308" cy="40.0" class="point"/>
  <text x="710.7692307692308" y="375" class="label" text-anchor="middle">2026-02-28</text>
  <text x="710.7692307692308" y="35.0" class="label" text-anchor="middle">52</text>
  <circle cx="716.9230769230769" cy="40.0" class="point"/>
  <text x="716.9230769230769" y="375" class="label" text-anchor="middle">2026-03-01</text>
  <text x="716.9230769230769" y="35.0" class="label" text-anchor="middle">52</text>
  <circle cx="723.0769230769231" cy="40.0" class="point"/>
  <text x="723.0769230769231" y="375" class="label" text-anchor="middle">2026-03-02</text>
  <text x="723.0769230769231" y="35.0" class="label" text-anchor="middle">52</text>
  <circle cx="729.2307692307693" cy="40.0" class="point"/>
  <text x="729.2307692307693" y="375" class="label" text-anchor="middle">2026-03-03</text>
  <text x="729.2307692307693" y="35.0" class="label" text-anchor="middle">52</text>
  <circle cx="735.3846153846154" cy="40.0" class="point"/>
  <text x="735.3846153846154" y="375" class="label" text-anchor="middle">2026-03-04</text>
  <text x="735.3846153846154" y="35.0" class="label" text-anchor="middle">52</text>
  <circle cx="741.5384615384615" cy="40.0" class="point"/>
  <text x="741.5384615384615" y="375" class="label" text-anchor="middle">2026-03-05</text>
  <text x="741.5384615384615" y="35.0" class="label" text-anchor="middle">52</text>
  <circle cx="747.6923076923076" cy="40.0" class="point"/>
  <text x="747.6923076923076" y="375" class="label" text-anchor="middle">2026-03-06</text>
  <text x="747.6923076923076" y="35.0" class="label" text-anchor="middle">52</text>
  <circle cx="753.8461538461538" cy="40.0" class="point"/>
  <text x="753.8461538461538" y="375" class="label" text-anchor="middle">2026-03-07</text>
  <text x="753.8461538461538" y="35.0" class="label" text-anchor="middle">52</text>
  <circle cx="760.0" cy="40.0" class="point"/>
  <text x="760.0" y="375" class="label" text-anchor="middle">2026-03-08</text>
  <text x="760.0" y="35.0" class="label" text-anchor="middle">52</text>
  <text x="30" y="363.0" class="label" text-anchor="end">0</text>
  <text x="30" y="301.46153846153845" class="label" text-anchor="end">10</text>
  <text x="30" y="239.9230769230769" class="label" text-anchor="end">20</text>
  <text x="30" y="178.38461538461542" class="label" text-anchor="end">30</text>
  <text x="30" y="116.84615384615384" class="label" text-anchor="end">40</text>
  <text x="30" y="55.30769230769232" class="label" text-anchor="end">50</text>
</svg>