<svg xmlns="http://www.w3.org/2000/svg" width="800" height="400" viewBox="0 0 800 400">
  <style>
    .axis{stroke:#666;stroke-width:1}
    .line{stroke:#4a9;stroke-width:2;fill:none}
    .point{fill:#4a9;r:4}
    .label{font:10px sans-serif;fill:#aaa}
    .title{font:14px sans-serif;fill:#333}
  </style>
  <text x="400" y="20" class="title" text-anchor="middle">OPIC Field Growth Timeline</text>
  <line x1="40" y1="40" x2="40" y2="360" class="axis"/>
  <line x1="40" y1="360" x2="760" y2="360" class="axis"/>
  <path d="M 40.0,101.53846153846155 L 48.470588235294116,101.53846153846155 L 56.94117647058823,101.53846153846155 L 65.41176470588235,101.53846153846155 L 73.88235294117646,101.53846153846155 L 82.35294117647058,101.53846153846155 L 90.8235294117647,101.53846153846155 L 99.29411764705883,101.53846153846155 L 107.76470588235294,101.53846153846155 L 116.23529411764706,101.53846153846155 L 124.70588235294117,101.53846153846155 L 133.1764705882353,101.53846153846155 L 141.6470588235294,101.53846153846155 L 150.11764705882354,101.53846153846155 L 158.58823529411765,101.53846153846155 L 167.05882352941177,101.53846153846155 L 175.52941176470588,101.53846153846155 L 184.0,101.53846153846155 L 192.47058823529412,101.53846153846155 L 200.94117647058823,101.53846153846155 L 209.41176470588235,101.53846153846155 L 217.88235294117646,101.53846153846155 L 226.3529411764706,101.53846153846155 L 234.8235294117647,101.53846153846155 L 243.2941176470588,101.53846153846155 L 251.76470588235296,101.53846153846155 L 260.2352941176471,101.53846153846155 L 268.70588235294116,40.0 L 277.1764705882353,40.0 L 285.6470588235294,40.0 L 294.11764705882354,40.0 L 302.5882352941176,40.0 L 311.05882352941177,40.0 L 319.5294117647059,40.0 L 328.0,40.0 L 336.4705882352941,40.0 L 344.94117647058823,40.0 L 353.4117647058824,40.0 L 361.88235294117646,40.0 L 370.35294117647055,40.0 L 378.8235294117647,40.0 L 387.29411764705884,40.0 L 395.7647058823529,40.0 L 404.2352941176471,40.0 L 412.7058823529412,40.0 L 421.1764705882353,40.0 L 429.6470588235294,40.0 L 438.11764705882354,40.0 L 446.5882352941176,40.0 L 455.0588235294117,40.0 L 463.5294117647059,40.0 L 472.0,40.0 L 480.47058823529414,40.0 L 488.94117647058823,40.0 L 497.4117647058823,40.0 L 505.8823529411765,40.0 L 514.3529411764706,40.0 L 522.8235294117646,40.0 L 531.2941176470588,40.0 L 539.7647058823529,40.0 L 548.2352941176471,40.0 L 556.7058823529412,40.0 L 565.1764705882352,40.0 L 573.6470588235294,40.0 L 582.1176470588235,40.0 L 590.5882352941176,40.0 L 599.0588235294118,40.0 L 607.5294117647059,40.0 L 616.0,40.0 L 624.4705882352941,40.0 L 632.9411764705882,40.0 L 641.4117647058823,40.0 L 649.8823529411765,40.0 L 658.3529411764705,40.0 L 666.8235294117648,40.0 L 675.2941176470588,40.0 L 683.7647058823529,40.0 L 692.2352941176471,40.0 L 700.7058823529411,40.0 L 709.1764705882354,40.0 L 717.6470588235294,40.0 L 726.1176470588235,40.0 L 734.5882352941177,40.0 L 743.0588235294117,40.0 L 751.5294117647059,40.0 L 760.0,40.0" class="line"/>
  <circle cx="40.0" cy="101.53846153846155" class="point"/>
  <text x="40.0" y="375" class="label" text-anchor="middle">2025-11-11</text>
  <text x="40.0" y="96.53846153846155" class="label" text-anchor="middle">42</text>
  <circle cx="48.470588235294116" cy="101.53846153846155" class="point"/>
  <text x="48.470588235294116" y="375" class="label" text-anchor="middle">2025-11-12</text>
  <text x="48.470588235294116" y="96.53846153846155" class="label" text-anchor="middle">42</text>
  <circle cx="56.94117647058823" cy="101.53846153846155" class="point"/>
  <text x="56.94117647058823" y="375" class="label" text-anchor="middle">2025-11-13</text>
  <text x="56.94117647058823" y="96.53846153846155" class="label" text-anchor="middle">42</text>
  <circle cx="65.41176470588235" cy="101.53846153846155" class="point"/>
  <text x="65.41176470588235" y="375" class="label" text-anchor="middle">2025-11-14</text>
  <text x="65.41176470588235" y="96.53846153846155" class="label" text-anchor="middle">42</text>
  <circle cx="73.88235294117646" cy="101.53846153846155" class="point"/>
  <text x="73.88235294117646" y="375" class="label" text-anchor="middle">2025-11-15</text>
  <text x="73.88235294117646" y="96.53846153846155" class="label" text-anchor="middle">42</text>
  <circle cx="82.35294117647058" cy="101.53846153846155" class="point"/>
  <text x="82.35294117647058" y="375" class="label" text-anchor="middle">2025-11-16</text>
  <text x="82.35294117647058" y="96.53846153846155" class="label" text-anchor="middle">42</text>
  <circle cx="90.8235294117647" cy="101.53846153846155" class="point"/>
  <text x="90.8235294117647" y="375" class="label" text-anchor="middle">2025-11-17</text>
  <text x="90.8235294117647" y="96.53846153846155" class="label" text-anchor="middle">42</text>
  <circle cx="99.29411764705883" cy="101.53846153846155" class="point"/>
  <text x="99.29411764705883" y="375" class="label" text-anchor="middle">2025-11-18</text>
  <text x="99.29411764705883" y="96.53846153846155" class="label" text-anchor="middle">42</text>
  <circle cx="107.76470588235294" cy="101.53846153846155" class="point"/>
  <text x="107.76470588235294" y="375" class="label" text-anchor="middle">2025-11-19</text>
  <text x="107.76470588235294" y="96.53846153846155" class="label" text-anchor="middle">42</text>
  <circle cx="116.23529411764706" cy="101.53846153846155" class="point"/>
  <text x="116.23529411764706" y="375" class="label" text-anchor="middle">2025-11-20</text>
  <text x="116.23529411764706" y="96.53846153846155" class="label" text-anchor="middle">42</text>
  <circle cx="124.70588235294117" cy="101.53846153846155" class="point"/>
  <text x="124.70588235294117" y="375" class="label" text-anchor="middle">2025-11-21</text>
  <text x="124.70588235294117" y="96.53846153846155" class="label" text-anchor="middle">42</text>
  <circle cx="133.1764705882353" cy="101.53846153846155" class="point"/>
  <text x="133.1764705882353" y="375" class="label" text-anchor="middle">2025-11-22</text>
  <text x="133.1764705882353" y="96.53846153846155" class="label" text-anchor="middle">42</text>
  <circle cx="141.6470588235294" cy="101.53846153846155" class="point"/>
  <text x="141.6470588235294" y="375" class="label" text-anchor="middle">2025-11-23</text>
  <text x="141.6470588235294" y="96.53846153846155" class="label" text-anchor="middle">42</text>
  <circle cx="150.11764705882354" cy="101.53846153846155" class="point"/>
  <text x="150.11764705882354" y="375" class="label" text-anchor="middle">2025-11-24</text>
  <text x="150.11764705882354" y="96.53846153846155" class="label" text-anchor="middle">42</text>
  <circle cx="158.58823529411765" cy="101.53846153846155" class="point"/>
  <text x="158.58823529411765" y="375" class="label" text-anchor="middle">2025-11-25</text>
  <text x="158.58823529411765" y="96.53846153846155" class="label" text-anchor="middle">42</text>
  <circle cx="167.05882352941177" cy="101.53846153846155" class="point"/>
  <text x="167.05882352941177" y="375" class="label" text-anchor="middle">2025-11-26</text>
  <text x="167.05882352941177" y="96.53846153846155" class="label" text-anchor="middle">42</text>
  <circle cx="175.52941176470588" cy="101.53846153846155" class="point"/>
  <text x="175.52941176470588" y="375" class="label" text-anchor="middle">2025-11-27</text>
  <text x="175.52941176470588" y="96.53846153846155" class="label" text-anchor="middle">42</text>
  <circle cx="184.0" cy="101.53846153846155" class="point"/>
  <text x="184.0" y="375" class="label" text-anchor="middle">2025-11-28</text>
  <text x="184.0" y="96.53846153846155" class="label" text-anchor="middle">42</text>
  <circle cx="192.47058823529412" cy="101.53846153846155" class="point"/>
  <text x="192.47058823529412" y="375" class="label" text-anchor="middle">2025-11-29</text>
  <text x="192.47058823529412" y="96.53846153846155" class="label" text-anchor="middle">42</text>
  <circle cx="200.94117647058823" cy="101.53846153846155" class="point"/>
  <text x="200.94117647058823" y="375" class="label" text-anchor="middle">2025-11-30</text>
  <text x="200.94117647058823" y="96.53846153846155" class="label" text-anchor="middle">42</text>
  <circle cx="209.41176470588235" cy="101.53846153846155" class="point"/>
  <text x="209.41176470588235" y="375" class="label" text-anchor="middle">2025-12-01</text>
  <text x="209.41176470588235" y="96.53846153846155" class="label" text-anchor="middle">42</text>
  <circle cx="217.88235294117646" cy="101.53846153846155" class="point"/>
  <text x="217.88235294117646" y="375" class="label" text-anchor="middle">2025-12-02</text>
  <text x="217.88235294117646" y="96.53846153846155" class="label" text-anchor="middle">42</text>
  <circle cx="226.3529411764706" cy="101.53846153846155" class="point"/>
  <text x="226.3529411764706" y="375" class="label" text-anchor="middle">2025-12-03</text>
  <text x="226.3529411764706" y="96.53846153846155" class="label" text-anchor="middle">42</text>
  <circle cx="234.8235294117647" cy="101.53846153846155" class="point"/>
  <text x="234.8235294117647" y="375" class="label" text-anchor="middle">2025-12-04</text>
  <text x="234.8235294117647" y="96.53846153846155" class="label" text-anchor="middle">42</text>
  <circle cx="243.2941176470588" cy="101.53846153846155" class="point"/>
  <text x="243.2941176470588" y="375" class="label" text-anchor="middle">2025-12-05</text>
  <text x="243.2941176470588" y="96.53846153846155" class="label" text-anchor="middle">42</text>
  <circle cx="251.76470588235296" cy="101.53846153846155" class="point"/>
  <text x="251.76470588235296" y="375" class="label" text-anchor="middle">2025-12-06</text>
  <text x="251.76470588235296" y="96.53846153846155" class="label" text-anchor="middle">42</text>
  <circle cx="260.2352941176471" cy="101.53846153846155" class="point"/>
  <text x="260.2352941176471" y="375" class="label" text-anchor="middle">2025-12-07</text>
  <text x="260.2352941176471" y="96.53846153846155" class="label" text-anchor="middle">42</text>
  <circle cx="268.70588235294116" cy="40.0" class="point"/>
  <text x="268.70588235294116" y="375" class="label" text-anchor="middle">2025-12-08</text>
  <text x="268.70588235294116" y="35.0" class="label" text-anchor="middle">52</text>
  <circle cx="277.1764705882353" cy="40.0" class="point"/>
  <text x="277.1764705882353" y="375" class="label" text-anchor="middle">2025-12-09</text>
  <text x="277.1764705882353" y="35.0" class="label" text-anchor="middle">52</text>
  <circle cx="285.6470588235294" cy="40.0" class="point"/>
  <text x="285.6470588235294" y="375" class="label" text-anchor="middle">2025-12-10</text>
  <text x="285.6470588235294" y="35.0" class="label" text-anchor="middle">52</text>
  <circle cx="294.11764705882354" cy="40.0" class="point"/>
  <text x="294.11764705882354" y="375" class="label" text-anchor="middle">2025-12-11</text>
  <text x="294.11764705882354" y="35.0" class="label" text-anchor="middle">52</text>
  <circle cx="302.5882352941176" cy="40.0" class="point"/>
  <text x="302.5882352941176" y="375" class="label" text-anchor="middle">2025-12-12</text>
  <text x="302.5882352941176" y="35.0" class="label" text-anchor="middle">52</text>
  <circle cx="311.05882352941177" cy="40.0" class="point"/>
  <text x="311.05882352941177" y="375" class="label" text-anchor="middle">2025-12-13</text>
  <text x="311.05882352941177" y="35.0" class="label" text-anchor="middle">52</text>
  <circle cx="319.5294117647059" cy="40.0" class="point"/>
  <text x="319.5294117647059" y="375" class="label" text-anchor="middle">2025-12-14</text>
  <text x="319.5294117647059" y="35.0" class="label" text-anchor="middle">52</text>
  <circle cx="328.0" cy="40.0" class="point"/>
  <text x="328.0" y="375" class="label" text-anchor="middle">2025-12-15</text>
  <text x="328.0" y="35.0" class="label" text-anchor="middle">52</text>
  <circle cx="336.4705882352941" cy="40.0" class="point"/>
  <text x="336.4705882352941" y="375" class="label" text-anchor="middle">2025-12-16</text>
  <text x="336.4705882352941" y="35.0" class="label" text-anchor="middle">52</text>
  <circle cx="344.94117647058823" cy="40.0" class="point"/>
  <text x="344.94117647058823" y="375" class="label" text-anchor="middle">2025-12-17</text>
  <text x="344.94117647058823" y="35.0" class="label" text-anchor="middle">52</text>
  <circle cx="353.4117647058824" cy="40.0" class="point"/>
  <text x="353.4117647058824" y="375" class="label" text-anchor="middle">2025-12-18</text>
  <text x="353.4117647058824" y="35.0" class="label" text-anchor="middle">52</text>
  <circle cx="361.88235294117646" cy="40.0" class="point"/>
  <text x="361.88235294117646" y="375" class="label" text-anchor="middle">2025-12-19</text>
  <text x="361.88235294117646" y="35.0" class="label" text-anchor="middle">52</text>
  <circle cx="370.35294117647055" cy="40.0" class="point"/>
  <text x="370.35294117647055" y="375" class="label" text-anchor="middle">2025-12-20</text>
  <text x="370.35294117647055" y="35.0" class="label" text-anchor="middle">52</text>
  <circle cx="378.8235294117647" cy="40.0" class="point"/>
  <text x="378.8235294117647" y="375" class="label" text-anchor="middle">2025-12-21</text>
  <text x="378.8235294117647" y="35.0" class="label" text-anchor="middle">52</text>
  <circle cx="387.29411764705884" cy="40.0" class="point"/>
  <text x="387.29411764705884" y="375" class="label" text-anchor="middle">2025-12-22</text>
  <text x="387.29411764705884" y="35.0" class="label" text-anchor="middle">52</text>
  <circle cx="395.7647058823529" cy="40.0" class="point"/>
  <text x="395.7647058823529" y="375" class="label" text-anchor="middle">2025-12-23</text>
  <text x="395.7647058823529" y="35.0" class="label" text-anchor="middle">52</text>
  <circle cx="404.2352941176471" cy="40.0" class="point"/>
  <text x="404.2352941176471" y="375" class="label" text-anchor="middle">2025-12-24</text>
  <text x="404.2352941176471" y="35.0" class="label" text-anchor="middle">52</text>
  <circle cx="412.7058823529412" cy="40.0" class="point"/>
  <text x="412.7058823529412" y="375" class="label" text-anchor="middle">2025-12-25</text>
  <text x="412.7058823529412" y="35.0" class="label" text-anchor="middle">52</text>
  <circle cx="421.1764705882353" cy="40.0" class="point"/>
  <text x="421.1764705882353" y="375" class="label" text-anchor="middle">2025-12-26</text>
  <text x="421.1764705882353" y="35.0" class="label" text-anchor="middle">52</text>
  <circle cx="429.6470588235294" cy="40.0" class="point"/>
  <text x="429.6470588235294" y="375" class="label" text-anchor="middle">2025-12-27</text>
  <text x="429.6470588235294" y="35.0" class="label" text-anchor="middle">52</text>
  <circle cx="438.11764705882354" cy="40.0" class="point"/>
  <text x="438.11764705882354" y="375" class="label" text-anchor="middle">2025-12-28</text>
  <text x="438.11764705882354" y="35.0" class="label" text-anchor="middle">52</text>
  <circle cx="446.5882352941176" cy="40.0" class="point"/>
  <text x="446.5882352941176" y="375" class="label" text-anchor="middle">2025-12-29</text>
  <text x="446.5882352941176" y="35.0" class="label" text-anchor="middle">52</text>
  <circle cx="455.0588235294117" cy="40.0" class="point"/>
  <text x="455.0588235294117" y="375" class="label" text-anchor="middle">2025-12-30</text>
  <text x="455.0588235294117" y="35.0" class="label" text-anchor="middle">52</text>
  <circle cx="463.5294117647059" cy="40.0" class="point"/>
  <text x="463.5294117647059" y="375" class="label" text-anchor="middle">2025-12-31</text>
  <text x="463.5294117647059" y="35.0" class="label" text-anchor="middle">52</text>
  <circle cx="472.0" cy="40.0" class="point"/>
  <text x="472.0" y="375" class="label" text-anchor="middle">2026-01-01</text>
  <text x="472.0" y="35.0" class="label" text-anchor="middle">52</text>
  <circle cx="480.47058823529414" cy="40.0" class="point"/>
  <text x="480.47058823529414" y="375" class="label" text-anchor="middle">2026-01-02</text>
  <text x="480.47058823529414" y="35.0" class="label" text-anchor="middle">52</text>
  <circle cx="488.94117647058823" cy="40.0" class="point"/>
  <text x="488.94117647058823" y="375" class="label" text-anchor="middle">2026-01-03</text>
  <text x="488.94117647058823" y="35.0" class="label" text-anchor="middle">52</text>
  <circle cx="497.4117647058823" cy="40.0" class="point"/>
  <text x="497.4117647058823" y="375" class="label" text-anchor="middle">2026-01-04</text>
  <text x="497.4117647058823" y="35.0" class="label" text-anchor="middle">52</text>
  <circle cx="505.8823529411765" cy="40.0" class="point"/>
  <text x="505.8823529411765" y="375" class="label" text-anchor="middle">2026-01-05</text>
  <text x="505.8823529411765" y="35.0" class="label" text-anchor="middle">52</text>
  <circle cx="514.3529411764706" cy="40.0" class="point"/>
  <text x="514.3529411764706" y="375" class="label" text-anchor="middle">2026-01-06</text>
  <text x="514.3529411764706" y="35.0" class="label" text-anchor="middle">52</text>
  <circle cx="522.8235294117646" cy="40.0" class="point"/>
  <text x="522.8235294117646" y="375" class="label" text-anchor="middle">2026-01-07</text>
  <text x="522.8235294117646" y="35.0" class="label" text-anchor="middle">52</text>
  <circle cx="531.2941176470588" cy="40.0" class="point"/>
  <text x="531.2941176470588" y="375" class="label" text-anchor="middle">2026-01-08</text>
  <text x="531.2941176470588" y="35.0" class="label" text-anchor="middle">52</text>
  <circle cx="539.7647058823529" cy="40.0" class="point"/>
  <text x="539.7647058823529" y="375" class="label" text-anchor="middle">2026-01-09</text>
  <text x="539.7647058823529" y="35.0" class="label" text-anchor="middle">52</text>
  <circle cx="548.2352941176471" cy="40.0" class="point"/>
  <text x="548.2352941176471" y="375" class="label" text-anchor="middle">2026-01-10</text>
  <text x="548.2352941176471" y="35.0" class="label" text-anchor="middle">52</text>
  <circle cx="556.7058823529412" cy="40.0" class="point"/>
  <text x="556.7058823529412" y="375" class="label" text-anchor="middle">2026-01-11</text>
  <text x="556.7058823529412" y="35.0" class="label" text-anchor="middle">52</text>
  <circle cx="565.1764705882352" cy="40.0" class="point"/>
  <text x="565.1764705882352" y="375" class="label" text-anchor="middle">2026-01-12</text>
  <text x="565.1764705882352" y="35.0" class="label" text-anchor="middle">52</text>
  <circle cx="573.6470588235294" cy="40.0" class="point"/>
  <text x="573.6470588235294" y="375" class="label" text-anchor="middle">2026-01-13</text>
  <text x="573.6470588235294" y="35.0" class="label" text-anchor="middle">52</text>
  <circle cx="582.1176470588235" cy="40.0" class="point"/>
  <text x="582.1176470588235" y="375" class="label" text-anchor="middle">2026-01-14</text>
  <text x="582.1176470588235" y="35.0" class="label" text-anchor="middle">52</text>
  <circle cx="590.5882352941176" cy="40.0" class="point"/>
  <text x="590.5882352941176" y="375" class="label" text-anchor="middle">2026-01-15</text>
  <text x="590.5882352941176" y="35.0" class="label" text-anchor="middle">52</text>
  <circle cx="599.0588235294118" cy="40.0" class="point"/>
  <text x="599.0588235294118" y="375" class="label" text-anchor="middle">2026-01-16</text>
  <text x="599.0588235294118" y="35.0" class="label" text-anchor="middle">52</text>
  <circle cx="607.5294117647059" cy="40.0" class="point"/>
  <text x="607.5294117647059" y="375" class="label" text-anchor="middle">2026-01-17</text>
  <text x="607.5294117647059" y="35.0" class="label" text-anchor="middle">52</text>
  <circle cx="616.0" cy="40.0" class="point"/>
  <text x="616.0" y="375" class="label" text-anchor="middle">2026-01-18</text>
  <text x="616.0" y="35.0" class="label" text-anchor="middle">52</text>
  <circle cx="624.4705882352941" cy="40.0" class="point"/>
  <text x="624.4705882352941" y="375" class="label" text-anchor="middle">2026-01-19</text>
  <text x="624.4705882352941" y="35.0" class="label" text-anchor="middle">52</text>
  <circle cx="632.9411764705882" cy="40.0" class="point"/>
  <text x="632.9411764705882" y="375" class="label" text-anchor="middle">2026-01-20</text>
  <text x="632.9411764705882" y="35.0" class="label" text-anchor="middle">52</text>
  <circle cx="641.4117647058823" cy="40.0" class="point"/>
  <text x="641.4117647058823" y="375" class="label" text-anchor="middle">2026-01-21</text>
  <text x="641.4117647058823" y="35.0" class="label" text-anchor="middle">52</text>
  <circle cx="649.8823529411765" cy="40.0" class="point"/>
  <text x="649.8823529411765" y="375" class="label" text-anchor="middle">2026-01-22</text>
  <text x="649.8823529411765" y="35.0" class="label" text-anchor="middle">52</text>
  <circle cx="658.3529411764705" cy="40.0" class="point"/>
  <text x="658.3529411764705" y="375" class="label" text-anchor="middle">2026-01-23</text>
  <text x="658.3529411764705" y="35.0" class="label" text-anchor="middle">52</text>
  <circle cx="666.8235294117648" cy="40.0" class="point"/>
  <text x="666.8235294117648" y="375" class="label" text-anchor="middle">2026-01-24</text>
  <text x="666.8235294117648" y="35.0" class="label" text-anchor="middle">52</text>
  <circle cx="675.2941176470588" cy="40.0" class="point"/>
  <text x="675.2941176470588" y="375" class="label" text-anchor="middle">2026-01-25</text>
  <text x="675.2941176470588" y="35.0" class="label" text-anchor="middle">52</text>
  <circle cx="683.7647058823529" cy="40.0" class="point"/>
  <text x="683.7647058823529" y="375" class="label" text-anchor="middle">2026-01-26</text>
  <text x="683.7647058823529" y="35.0" class="label" text-anchor="middle">52</text>
  <circle cx="692.2352941176471" cy="40.0" class="point"/>
  <text x="692.2352941176471" y="375" class="label" text-anchor="middle">2026-01-27</text>
  <text x="692.2352941176471" y="35.0" class="label" text-anchor="middle">52</text>
  <circle cx="700.7058823529411" cy="40.0" class="point"/>
  <text x="700.7058823529411" y="375" class="label" text-anchor="middle">2026-01-28</text>
  <text x="700.7058823529411" y="35.0" class="label" text-anchor="middle">52</text>
  <circle cx="709.1764705882354" cy="40.0" class="point"/>
  <text x="709.1764705882354" y="375" class="label" text-anchor="middle">2026-01-29</text>
  <text x="709.1764705882354" y="35.0" class="label" text-anchor="middle">52</text>
  <circle cx="717.6470588235294" cy="40.0" class="point"/>
  <text x="717.6470588235294" y="375" class="label" text-anchor="middle">2026-01-30</text>
  <text x="717.6470588235294" y="35.0" class="label" text-anchor="middle">52</text>
  <circle cx="726.1176470588235" cy="40.0" class="point"/>
  <text x="726.1176470588235" y="375" class="label" text-anchor="middle">2026-01-31</text>
  <text x="726.1176470588235" y="35.0" class="label" text-anchor="middle">52</text>
  <circle cx="734.5882352941177" cy="40.0" class="point"/>
  <text x="734.5882352941177" y="375" class="label" text-anchor="middle">2026-02-01</text>
  <text x="734.5882352941177" y="35.0" class="label" text-anchor="middle">52</text>
  <circle cx="743.0588235294117" cy="40.0" class="point"/>
  <text x="743.0588235294117" y="375" class="label" text-anchor="middle">2026-02-02</text>
  <text x="743.0588235294117" y="35.0" class="label" text-anchor="middle">52</text>
  <circle cx="751.5294117647059" cy="40.0" class="point"/>
  <text x="751.5294117647059" y="375" class="label" text-anchor="middle">2026-02-03</text>
  <text x="751.5294117647059" y="35.0" class="label" text-anchor="middle">52</text>
  <circle cx="760.0" cy="40.0" class="point"/>
  <text x="760.0" y="375" class="label" text-anchor="middle">2026-02-04</text>
  <text x="760.0" y="35.0" class="label" text-anchor="middle">52</text>
  <text x="30" y="363.0" class="label" text-anchor="end">0</text>
  <text x="30" y="301.46153846153845" class="label" text-anchor="end">10</text>
  <text x="30" y="239.9230769230769" class="label" text-anchor="end">20</text>
  <text x="30" y="178.38461538461542" class="label" text-anchor="end">30</text>
  <text x="30" y="116.84615384615384" class="label" text-anchor="end">40</text>
  <text x="30" y="55.30769230769232" class="label" text-anchor="end">50</text>
</svg>