<svg xmlns="http://www.w3.org/2000/svg" width="800" height="400" viewBox="0 0 800 400">
  <style>
    .axis{stroke:#666;stroke-width:1}
    .line{stroke:#4a9;stroke-width:2;fill:none}
    .point{fill:#4a9;r:4}
    .label{font:10px sans-serif;fill:#aaa}
    .title{font:14px sans-serif;fill:#333}
  </style>
  <text x="400" y="20" class="title" text-anchor="middle">OPIC Field Growth Timeline</text>
  <line x1="40" y1="40" x2="40" y2="360" class="axis"/>
  <line x1="40" y1="360" x2="760" y2="360" class="axis"/>
  <path d="M 40.0,101.53846153846155 L 44.8,101.53846153846155 L 49.6,101.53846153846155 L 54.4,101.53846153846155 L 59.2,101.53846153846155 L 64.0,101.53846153846155 L 68.8,101.53846153846155 L 73.6,101.53846153846155 L 78.4,101.53846153846155 L 83.19999999999999,101.53846153846155 L 88.0,101.53846153846155 L 92.8,101.53846153846155 L 97.6,101.53846153846155 L 102.4,101.53846153846155 L 107.2,101.53846153846155 L 112.0,101.53846153846155 L 116.80000000000001,101.53846153846155 L 121.6,101.53846153846155 L 126.39999999999999,101.53846153846155 L 131.2,101.53846153846155 L 136.0,101.53846153846155 L 140.8,101.53846153846155 L 145.6,101.53846153846155 L 150.39999999999998,101.53846153846155 L 155.2,101.53846153846155 L 160.0,101.53846153846155 L 164.8,101.53846153846155 L 169.6,40.0 L 174.4,40.0 L 179.2,40.0 L 184.0,40.0 L 188.8,40.0 L 193.60000000000002,40.0 L 198.4,40.0 L 203.2,40.0 L 208.0,40.0 L 212.79999999999998,40.0 L 217.6,40.0 L 222.4,40.0 L 227.20000000000002,40.0 L 232.0,40.0 L 236.79999999999998,40.0 L 241.60000000000002,40.0 L 246.4,40.0 L 251.2,40.0 L 256.0,40.0 L 260.79999999999995,40.0 L 265.6,40.0 L 270.4,40.0 L 275.2,40.0 L 280.0,40.0 L 284.8,40.0 L 289.6,40.0 L 294.4,40.0 L 299.2,40.0 L 304.0,40.0 L 308.8,40.0 L 313.6,40.0 L 318.4,40.0 L 323.2,40.0 L 328.0,40.0 L 332.8,40.0 L 337.6,40.0 L 342.4,40.0 L 347.20000000000005,40.0 L 352.0,40.0 L 356.8,40.0 L 361.59999999999997,40.0 L 366.4,40.0 L 371.2,40.0 L 376.0,40.0 L 380.8,40.0 L 385.59999999999997,40.0 L 390.40000000000003,40.0 L 395.2,40.0 L 400.0,40.0 L 404.8,40.0 L 409.59999999999997,40.0 L 414.40000000000003,40.0 L 419.2,40.0 L 424.0,40.0 L 428.8,40.0 L 433.59999999999997,40.0 L 438.40000000000003,40.0 L 443.20000000000005,40.0 L 448.0,40.0 L 452.8,40.0 L 457.59999999999997,40.0 L 462.4,40.0 L 467.20000000000005,40.0 L 472.0,40.0 L 476.8,40.0 L 481.59999999999997,40.0 L 486.4,40.0 L 491.20000000000005,40.0 L 496.0,40.0 L 500.8,40.0 L 505.59999999999997,40.0 L 510.4,40.0 L 515.2,40.0 L 520.0,40.0 L 524.8,40.0 L 529.6,40.0 L 534.4,40.0 L 539.2,40.0 L 544.0,40.0 L 548.8,40.0 L 553.6,40.0 L 558.4,40.0 L 563.2,40.0 L 568.0,40.0 L 572.8,40.0 L 577.6,40.0 L 582.4,40.0 L 587.2,40.0 L 592.0,40.0 L 596.8,40.0 L 601.6,40.0 L 606.4,40.0 L 611.2,40.0 L 616.0,40.0 L 620.8,40.0 L 625.6,40.0 L 630.4,40.0 L 635.2,40.0 L 640.0,40.0 L 644.8,40.0 L 649.6,40.0 L 654.4000000000001,40.0 L 659.2,40.0 L 664.0,40.0 L 668.8,40.0 L 673.6,40.0 L 678.4000000000001,40.0 L 683.1999999999999,40.0 L 688.0,40.0 L 692.8,40.0 L 697.6,40.0 L 702.4,40.0 L 707.1999999999999,40.0 L 712.0,40.0 L 716.8,40.0 L 721.6,40.0 L 726.4,40.0 L 731.1999999999999,40.0 L 736.0,40.0 L 740.8000000000001,40.0 L 745.6,40.0 L 750.4,40.0 L 755.1999999999999,40.0 L 760.0,40.0" class="line"/>
  <circle cx="40.0" cy="101.53846153846155" class="point"/>
  <text x="40.0" y="375" class="label" text-anchor="middle">2025-11-11</text>
  <text x="40.0" y="96.53846153846155" class="label" text-anchor="middle">42</text>
  <circle cx="44.8" cy="101.53846153846155" class="point"/>
  <text x="44.8" y="375" class="label" text-anchor="middle">2025-11-12</text>
  <text x="44.8" y="96.53846153846155" class="label" text-anchor="middle">42</text>
  <circle cx="49.6" cy="101.53846153846155" class="point"/>
  <text x="49.6" y="375" class="label" text-anchor="middle">2025-11-13</text>
  <text x="49.6" y="96.53846153846155" class="label" text-anchor="middle">42</text>
  <circle cx="54.4" cy="101.53846153846155" class="point"/>
  <text x="54.4" y="375" class="label" text-anchor="middle">2025-11-14</text>
  <text x="54.4" y="96.53846153846155" class="label" text-anchor="middle">42</text>
  <circle cx="59.2" cy="101.53846153846155" class="point"/>
  <text x="59.2" y="375" class="label" text-anchor="middle">2025-11-15</text>
  <text x="59.2" y="96.53846153846155" class="label" text-anchor="middle">42</text>
  <circle cx="64.0" cy="101.53846153846155" class="point"/>
  <text x="64.0" y="375" class="label" text-anchor="middle">2025-11-16</text>
  <text x="64.0" y="96.53846153846155" class="label" text-anchor="middle">42</text>
  <circle cx="68.8" cy="101.53846153846155" class="point"/>
  <text x="68.8" y="375" class="label" text-anchor="middle">2025-11-17</text>
  <text x="68.8" y="96.53846153846155" class="label" text-anchor="middle">42</text>
  <circle cx="73.6" cy="101.53846153846155" class="point"/>
  <text x="73.6" y="375" class="label" text-anchor="middle">2025-11-18</text>
  <text x="73.6" y="96.53846153846155" class="label" text-anchor="middle">42</text>
  <circle cx="78.4" cy="101.53846153846155" class="point"/>
  <text x="78.4" y="375" class="label" text-anchor="middle">2025-11-19</text>
  <text x="78.4" y="96.53846153846155" class="label" text-anchor="middle">42</text>
  <circle cx="83.19999999999999" cy="101.53846153846155" class="point"/>
  <text x="83.19999999999999" y="375" class="label" text-anchor="middle">2025-11-20</text>
  <text x="83.19999999999999" y="96.53846153846155" class="label" text-anchor="middle">42</text>
  <circle cx="88.0" cy="101.53846153846155" class="point"/>
  <text x="88.0" y="375" class="label" text-anchor="middle">2025-11-21</text>
  <text x="88.0" y="96.53846153846155" class="label" text-anchor="middle">42</text>
  <circle cx="92.8" cy="101.53846153846155" class="point"/>
  <text x="92.8" y="375" class="label" text-anchor="middle">2025-11-22</text>
  <text x="92.8" y="96.53846153846155" class="label" text-anchor="middle">42</text>
  <circle cx="97.6" cy="101.53846153846155" class="point"/>
  <text x="97.6" y="375" class="label" text-anchor="middle">2025-11-23</text>
  <text x="97.6" y="96.53846153846155" class="label" text-anchor="middle">42</text>
  <circle cx="102.4" cy="101.53846153846155" class="point"/>
  <text x="102.4" y="375" class="label" text-anchor="middle">2025-11-24</text>
  <text x="102.4" y="96.53846153846155" class="label" text-anchor="middle">42</text>
  <circle cx="107.2" cy="101.53846153846155" class="point"/>
  <text x="107.2" y="375" class="label" text-anchor="middle">2025-11-25</text>
  <text x="107.2" y="96.53846153846155" class="label" text-anchor="middle">42</text>
  <circle cx="112.0" cy="101.53846153846155" class="point"/>
  <text x="112.0" y="375" class="label" text-anchor="middle">2025-11-26</text>
  <text x="112.0" y="96.53846153846155" class="label" text-anchor="middle">42</text>
  <circle cx="116.80000000000001" cy="101.53846153846155" class="point"/>
  <text x="116.80000000000001" y="375" class="label" text-anchor="middle">2025-11-27</text>
  <text x="116.80000000000001" y="96.53846153846155" class="label" text-anchor="middle">42</text>
  <circle cx="121.6" cy="101.53846153846155" class="point"/>
  <text x="121.6" y="375" class="label" text-anchor="middle">2025-11-28</text>
  <text x="121.6" y="96.53846153846155" class="label" text-anchor="middle">42</text>
  <circle cx="126.39999999999999" cy="101.53846153846155" class="point"/>
  <text x="126.39999999999999" y="375" class="label" text-anchor="middle">2025-11-29</text>
  <text x="126.39999999999999" y="96.53846153846155" class="label" text-anchor="middle">42</text>
  <circle cx="131.2" cy="101.53846153846155" class="point"/>
  <text x="131.2" y="375" class="label" text-anchor="middle">2025-11-30</text>
  <text x="131.2" y="96.53846153846155" class="label" text-anchor="middle">42</text>
  <circle cx="136.0" cy="101.53846153846155" class="point"/>
  <text x="136.0" y="375" class="label" text-anchor="middle">2025-12-01</text>
  <text x="136.0" y="96.53846153846155" class="label" text-anchor="middle">42</text>
  <circle cx="140.8" cy="101.53846153846155" class="point"/>
  <text x="140.8" y="375" class="label" text-anchor="middle">2025-12-02</text>
  <text x="140.8" y="96.53846153846155" class="label" text-anchor="middle">42</text>
  <circle cx="145.6" cy="101.53846153846155" class="point"/>
  <text x="145.6" y="375" class="label" text-anchor="middle">2025-12-03</text>
  <text x="145.6" y="96.53846153846155" class="label" text-anchor="middle">42</text>
  <circle cx="150.39999999999998" cy="101.53846153846155" class="point"/>
  <text x="150.39999999999998" y="375" class="label" text-anchor="middle">2025-12-04</text>
  <text x="150.39999999999998" y="96.53846153846155" class="label" text-anchor="middle">42</text>
  <circle cx="155.2" cy="101.53846153846155" class="point"/>
  <text x="155.2" y="375" class="label" text-anchor="middle">2025-12-05</text>
  <text x="155.2" y="96.53846153846155" class="label" text-anchor="middle">42</text>
  <circle cx="160.0" cy="101.53846153846155" class="point"/>
  <text x="160.0" y="375" class="label" text-anchor="middle">2025-12-06</text>
  <text x="160.0" y="96.53846153846155" class="label" text-anchor="middle">42</text>
  <circle cx="164.8" cy="101.53846153846155" class="point"/>
  <text x="164.8" y="375" class="label" text-anchor="middle">2025-12-07</text>
  <text x="164.8" y="96.53846153846155" class="label" text-anchor="middle">42</text>
  <circle cx="169.6" cy="40.0" class="point"/>
  <text x="169.6" y="375" class="label" text-anchor="middle">2025-12-08</text>
  <text x="169.6" y="35.0" class="label" text-anchor="middle">52</text>
  <circle cx="174.4" cy="40.0" class="point"/>
  <text x="174.4" y="375" class="label" text-anchor="middle">2025-12-09</text>
  <text x="174.4" y="35.0" class="label" text-anchor="middle">52</text>
  <circle cx="179.2" cy="40.0" class="point"/>
  <text x="179.2" y="375" class="label" text-anchor="middle">2025-12-10</text>
  <text x="179.2" y="35.0" class="label" text-anchor="middle">52</text>
  <circle cx="184.0" cy="40.0" class="point"/>
  <text x="184.0" y="375" class="label" text-anchor="middle">2025-12-11</text>
  <text x="184.0" y="35.0" class="label" text-anchor="middle">52</text>
  <circle cx="188.8" cy="40.0" class="point"/>
  <text x="188.8" y="375" class="label" text-anchor="middle">2025-12-12</text>
  <text x="188.8" y="35.0" class="label" text-anchor="middle">52</text>
  <circle cx="193.60000000000002" cy="40.0" class="point"/>
  <text x="193.60000000000002" y="375" class="label" text-anchor="middle">2025-12-13</text>
  <text x="193.60000000000002" y="35.0" class="label" text-anchor="middle">52</text>
  <circle cx="198.4" cy="40.0" class="point"/>
  <text x="198.4" y="375" class="label" text-anchor="middle">2025-12-14</text>
  <text x="198.4" y="35.0" class="label" text-anchor="middle">52</text>
  <circle cx="203.2" cy="40.0" class="point"/>
  <text x="203.2" y="375" class="label" text-anchor="middle">2025-12-15</text>
  <text x="203.2" y="35.0" class="label" text-anchor="middle">52</text>
  <circle cx="208.0" cy="40.0" class="point"/>
  <text x="208.0" y="375" class="label" text-anchor="middle">2025-12-16</text>
  <text x="208.0" y="35.0" class="label" text-anchor="middle">52</text>
  <circle cx="212.79999999999998" cy="40.0" class="point"/>
  <text x="212.79999999999998" y="375" class="label" text-anchor="middle">2025-12-17</text>
  <text x="212.79999999999998" y="35.0" class="label" text-anchor="middle">52</text>
  <circle cx="217.6" cy="40.0" class="point"/>
  <text x="217.6" y="375" class="label" text-anchor="middle">2025-12-18</text>
  <text x="217.6" y="35.0" class="label" text-anchor="middle">52</text>
  <circle cx="222.4" cy="40.0" class="point"/>
  <text x="222.4" y="375" class="label" text-anchor="middle">2025-12-19</text>
  <text x="222.4" y="35.0" class="label" text-anchor="middle">52</text>
  <circle cx="227.20000000000002" cy="40.0" class="point"/>
  <text x="227.20000000000002" y="375" class="label" text-anchor="middle">2025-12-20</text>
  <text x="227.20000000000002" y="35.0" class="label" text-anchor="middle">52</text>
  <circle cx="232.0" cy="40.0" class="point"/>
  <text x="232.0" y="375" class="label" text-anchor="middle">2025-12-21</text>
  <text x="232.0" y="35.0" class="label" text-anchor="middle">52</text>
  <circle cx="236.79999999999998" cy="40.0" class="point"/>
  <text x="236.79999999999998" y="375" class="label" text-anchor="middle">2025-12-22</text>
  <text x="236.79999999999998" y="35.0" class="label" text-anchor="middle">52</text>
  <circle cx="241.60000000000002" cy="40.0" class="point"/>
  <text x="241.60000000000002" y="375" class="label" text-anchor="middle">2025-12-23</text>
  <text x="241.60000000000002" y="35.0" class="label" text-anchor="middle">52</text>
  <circle cx="246.4" cy="40.0" class="point"/>
  <text x="246.4" y="375" class="label" text-anchor="middle">2025-12-24</text>
  <text x="246.4" y="35.0" class="label" text-anchor="middle">52</text>
  <circle cx="251.2" cy="40.0" class="point"/>
  <text x="251.2" y="375" class="label" text-anchor="middle">2025-12-25</text>
  <text x="251.2" y="35.0" class="label" text-anchor="middle">52</text>
  <circle cx="256.0" cy="40.0" class="point"/>
  <text x="256.0" y="375" class="label" text-anchor="middle">2025-12-26</text>
  <text x="256.0" y="35.0" class="label" text-anchor="middle">52</text>
  <circle cx="260.79999999999995" cy="40.0" class="point"/>
  <text x="260.79999999999995" y="375" class="label" text-anchor="middle">2025-12-27</text>
  <text x="260.79999999999995" y="35.0" class="label" text-anchor="middle">52</text>
  <circle cx="265.6" cy="40.0" class="point"/>
  <text x="265.6" y="375" class="label" text-anchor="middle">2025-12-28</text>
  <text x="265.6" y="35.0" class="label" text-anchor="middle">52</text>
  <circle cx="270.4" cy="40.0" class="point"/>
  <text x="270.4" y="375" class="label" text-anchor="middle">2025-12-29</text>
  <text x="270.4" y="35.0" class="label" text-anchor="middle">52</text>
  <circle cx="275.2" cy="40.0" class="point"/>
  <text x="275.2" y="375" class="label" text-anchor="middle">2025-12-30</text>
  <text x="275.2" y="35.0" class="label" text-anchor="middle">52</text>
  <circle cx="280.0" cy="40.0" class="point"/>
  <text x="280.0" y="375" class="label" text-anchor="middle">2025-12-31</text>
  <text x="280.0" y="35.0" class="label" text-anchor="middle">52</text>
  <circle cx="284.8" cy="40.0" class="point"/>
  <text x="284.8" y="375" class="label" text-anchor="middle">2026-01-01</text>
  <text x="284.8" y="35.0" class="label" text-anchor="middle">52</text>
  <circle cx="289.6" cy="40.0" class="point"/>
  <text x="289.6" y="375" class="label" text-anchor="middle">2026-01-02</text>
  <text x="289.6" y="35.0" class="label" text-anchor="middle">52</text>
  <circle cx="294.4" cy="40.0" class="point"/>
  <text x="294.4" y="375" class="label" text-anchor="middle">2026-01-03</text>
  <text x="294.4" y="35.0" class="label" text-anchor="middle">52</text>
  <circle cx="299.2" cy="40.0" class="point"/>
  <text x="299.2" y="375" class="label" text-anchor="middle">2026-01-04</text>
  <text x="299.2" y="35.0" class="label" text-anchor="middle">52</text>
  <circle cx="304.0" cy="40.0" class="point"/>
  <text x="304.0" y="375" class="label" text-anchor="middle">2026-01-05</text>
  <text x="304.0" y="35.0" class="label" text-anchor="middle">52</text>
  <circle cx="308.8" cy="40.0" class="point"/>
  <text x="308.8" y="375" class="label" text-anchor="middle">2026-01-06</text>
  <text x="308.8" y="35.0" class="label" text-anchor="middle">52</text>
  <circle cx="313.6" cy="40.0" class="point"/>
  <text x="313.6" y="375" class="label" text-anchor="middle">2026-01-07</text>
  <text x="313.6" y="35.0" class="label" text-anchor="middle">52</text>
  <circle cx="318.4" cy="40.0" class="point"/>
  <text x="318.4" y="375" class="label" text-anchor="middle">2026-01-08</text>
  <text x="318.4" y="35.0" class="label" text-anchor="middle">52</text>
  <circle cx="323.2" cy="40.0" class="point"/>
  <text x="323.2" y="375" class="label" text-anchor="middle">2026-01-09</text>
  <text x="323.2" y="35.0" class="label" text-anchor="middle">52</text>
  <circle cx="328.0" cy="40.0" class="point"/>
  <text x="328.0" y="375" class="label" text-anchor="middle">2026-01-10</text>
  <text x="328.0" y="35.0" class="label" text-anchor="middle">52</text>
  <circle cx="332.8" cy="40.0" class="point"/>
  <text x="332.8" y="375" class="label" text-anchor="middle">2026-01-11</text>
  <text x="332.8" y="35.0" class="label" text-anchor="middle">52</text>
  <circle cx="337.6" cy="40.0" class="point"/>
  <text x="337.6" y="375" class="label" text-anchor="middle">2026-01-12</text>
  <text x="337.6" y="35.0" class="label" text-anchor="middle">52</text>
  <circle cx="342.4" cy="40.0" class="point"/>
  <text x="342.4" y="375" class="label" text-anchor="middle">2026-01-13</text>
  <text x="342.4" y="35.0" class="label" text-anchor="middle">52</text>
  <circle cx="347.20000000000005" cy="40.0" class="point"/>
  <text x="347.20000000000005" y="375" class="label" text-anchor="middle">2026-01-14</text>
  <text x="347.20000000000005" y="35.0" class="label" text-anchor="middle">52</text>
  <circle cx="352.0" cy="40.0" class="point"/>
  <text x="352.0" y="375" class="label" text-anchor="middle">2026-01-15</text>
  <text x="352.0" y="35.0" class="label" text-anchor="middle">52</text>
  <circle cx="356.8" cy="40.0" class="point"/>
  <text x="356.8" y="375" class="label" text-anchor="middle">2026-01-16</text>
  <text x="356.8" y="35.0" class="label" text-anchor="middle">52</text>
  <circle cx="361.59999999999997" cy="40.0" class="point"/>
  <text x="361.59999999999997" y="375" class="label" text-anchor="middle">2026-01-17</text>
  <text x="361.59999999999997" y="35.0" class="label" text-anchor="middle">52</text>
  <circle cx="366.4" cy="40.0" class="point"/>
  <text x="366.4" y="375" class="label" text-anchor="middle">2026-01-18</text>
  <text x="366.4" y="35.0" class="label" text-anchor="middle">52</text>
  <circle cx="371.2" cy="40.0" class="point"/>
  <text x="371.2" y="375" class="label" text-anchor="middle">2026-01-19</text>
  <text x="371.2" y="35.0" class="label" text-anchor="middle">52</text>
  <circle cx="376.0" cy="40.0" class="point"/>
  <text x="376.0" y="375" class="label" text-anchor="middle">2026-01-20</text>
  <text x="376.0" y="35.0" class="label" text-anchor="middle">52</text>
  <circle cx="380.8" cy="40.0" class="point"/>
  <text x="380.8" y="375" class="label" text-anchor="middle">2026-01-21</text>
  <text x="380.8" y="35.0" class="label" text-anchor="middle">52</text>
  <circle cx="385.59999999999997" cy="40.0" class="point"/>
  <text x="385.59999999999997" y="375" class="label" text-anchor="middle">2026-01-22</text>
  <text x="385.59999999999997" y="35.0" class="label" text-anchor="middle">52</text>
  <circle cx="390.40000000000003" cy="40.0" class="point"/>
  <text x="390.40000000000003" y="375" class="label" text-anchor="middle">2026-01-23</text>
  <text x="390.40000000000003" y="35.0" class="label" text-anchor="middle">52</text>
  <circle cx="395.2" cy="40.0" class="point"/>
  <text x="395.2" y="375" class="label" text-anchor="middle">2026-01-24</text>
  <text x="395.2" y="35.0" class="label" text-anchor="middle">52</text>
  <circle cx="400.0" cy="40.0" class="point"/>
  <text x="400.0" y="375" class="label" text-anchor="middle">2026-01-25</text>
  <text x="400.0" y="35.0" class="label" text-anchor="middle">52</text>
  <circle cx="404.8" cy="40.0" class="point"/>
  <text x="404.8" y="375" class="label" text-anchor="middle">2026-01-26</text>
  <text x="404.8" y="35.0" class="label" text-anchor="middle">52</text>
  <circle cx="409.59999999999997" cy="40.0" class="point"/>
  <text x="409.59999999999997" y="375" class="label" text-anchor="middle">2026-01-27</text>
  <text x="409.59999999999997" y="35.0" class="label" text-anchor="middle">52</text>
  <circle cx="414.40000000000003" cy="40.0" class="point"/>
  <text x="414.40000000000003" y="375" class="label" text-anchor="middle">2026-01-28</text>
  <text x="414.40000000000003" y="35.0" class="label" text-anchor="middle">52</text>
  <circle cx="419.2" cy="40.0" class="point"/>
  <text x="419.2" y="375" class="label" text-anchor="middle">2026-01-29</text>
  <text x="419.2" y="35.0" class="label" text-anchor="middle">52</text>
  <circle cx="424.0" cy="40.0" class="point"/>
  <text x="424.0" y="375" class="label" text-anchor="middle">2026-01-30</text>
  <text x="424.0" y="35.0" class="label" text-anchor="middle">52</text>
  <circle cx="428.8" cy="40.0" class="point"/>
  <text x="428.8" y="375" class="label" text-anchor="middle">2026-01-31</text>
  <text x="428.8" y="35.0" class="label" text-anchor="middle">52</text>
  <circle cx="433.59999999999997" cy="40.0" class="point"/>
  <text x="433.59999999999997" y="375" class="label" text-anchor="middle">2026-02-01</text>
  <text x="433.59999999999997" y="35.0" class="label" text-anchor="middle">52</text>
  <circle cx="438.40000000000003" cy="40.0" class="point"/>
  <text x="438.40000000000003" y="375" class="label" text-anchor="middle">2026-02-02</text>
  <text x="438.40000000000003" y="35.0" class="label" text-anchor="middle">52</text>
  <circle cx="443.20000000000005" cy="40.0" class="point"/>
  <text x="443.20000000000005" y="375" class="label" text-anchor="middle">2026-02-03</text>
  <text x="443.20000000000005" y="35.0" class="label" text-anchor="middle">52</text>
  <circle cx="448.0" cy="40.0" class="point"/>
  <text x="448.0" y="375" class="label" text-anchor="middle">2026-02-04</text>
  <text x="448.0" y="35.0" class="label" text-anchor="middle">52</text>
  <circle cx="452.8" cy="40.0" class="point"/>
  <text x="452.8" y="375" class="label" text-anchor="middle">2026-02-05</text>
  <text x="452.8" y="35.0" class="label" text-anchor="middle">52</text>
  <circle cx="457.59999999999997" cy="40.0" class="point"/>
  <text x="457.59999999999997" y="375" class="label" text-anchor="middle">2026-02-06</text>
  <text x="457.59999999999997" y="35.0" class="label" text-anchor="middle">52</text>
  <circle cx="462.4" cy="40.0" class="point"/>
  <text x="462.4" y="375" class="label" text-anchor="middle">2026-02-07</text>
  <text x="462.4" y="35.0" class="label" text-anchor="middle">52</text>
  <circle cx="467.20000000000005" cy="40.0" class="point"/>
  <text x="467.20000000000005" y="375" class="label" text-anchor="middle">2026-02-08</text>
  <text x="467.20000000000005" y="35.0" class="label" text-anchor="middle">52</text>
  <circle cx="472.0" cy="40.0" class="point"/>
  <text x="472.0" y="375" class="label" text-anchor="middle">2026-02-09</text>
  <text x="472.0" y="35.0" class="label" text-anchor="middle">52</text>
  <circle cx="476.8" cy="40.0" class="point"/>
  <text x="476.8" y="375" class="label" text-anchor="middle">2026-02-10</text>
  <text x="476.8" y="35.0" class="label" text-anchor="middle">52</text>
  <circle cx="481.59999999999997" cy="40.0" class="point"/>
  <text x="481.59999999999997" y="375" class="label" text-anchor="middle">2026-02-11</text>
  <text x="481.59999999999997" y="35.0" class="label" text-anchor="middle">52</text>
  <circle cx="486.4" cy="40.0" class="point"/>
  <text x="486.4" y="375" class="label" text-anchor="middle">2026-02-12</text>
  <text x="486.4" y="35.0" class="label" text-anchor="middle">52</text>
  <circle cx="491.20000000000005" cy="40.0" class="point"/>
  <text x="491.20000000000005" y="375" class="label" text-anchor="middle">2026-02-13</text>
  <text x="491.20000000000005" y="35.0" class="label" text-anchor="middle">52</text>
  <circle cx="496.0" cy="40.0" class="point"/>
  <text x="496.0" y="375" class="label" text-anchor="middle">2026-02-14</text>
  <text x="496.0" y="35.0" class="label" text-anchor="middle">52</text>
  <circle cx="500.8" cy="40.0" class="point"/>
  <text x="500.8" y="375" class="label" text-anchor="middle">2026-02-15</text>
  <text x="500.8" y="35.0" class="label" text-anchor="middle">52</text>
  <circle cx="505.59999999999997" cy="40.0" class="point"/>
  <text x="505.59999999999997" y="375" class="label" text-anchor="middle">2026-02-16</text>
  <text x="505.59999999999997" y="35.0" class="label" text-anchor="middle">52</text>
  <circle cx="510.4" cy="40.0" class="point"/>
  <text x="510.4" y="375" class="label" text-anchor="middle">2026-02-17</text>
  <text x="510.4" y="35.0" class="label" text-anchor="middle">52</text>
  <circle cx="515.2" cy="40.0" class="point"/>
  <text x="515.2" y="375" class="label" text-anchor="middle">2026-02-18</text>
  <text x="515.2" y="35.0" class="label" text-anchor="middle">52</text>
  <circle cx="520.0" cy="40.0" class="point"/>
  <text x="520.0" y="375" class="label" text-anchor="middle">2026-02-19</text>
  <text x="520.0" y="35.0" class="label" text-anchor="middle">52</text>
  <circle cx="524.8" cy="40.0" class="point"/>
  <text x="524.8" y="375" class="label" text-anchor="middle">2026-02-20</text>
  <text x="524.8" y="35.0" class="label" text-anchor="middle">52</text>
  <circle cx="529.6" cy="40.0" class="point"/>
  <text x="529.6" y="375" class="label" text-anchor="middle">2026-02-21</text>
  <text x="529.6" y="35.0" class="label" text-anchor="middle">52</text>
  <circle cx="534.4" cy="40.0" class="point"/>
  <text x="534.4" y="375" class="label" text-anchor="middle">2026-02-22</text>
  <text x="534.4" y="35.0" class="label" text-anchor="middle">52</text>
  <circle cx="539.2" cy="40.0" class="point"/>
  <text x="539.2" y="375" class="label" text-anchor="middle">2026-02-23</text>
  <text x="539.2" y="35.0" class="label" text-anchor="middle">52</text>
  <circle cx="544.0" cy="40.0" class="point"/>
  <text x="544.0" y="375" class="label" text-anchor="middle">2026-02-24</text>
  <text x="544.0" y="35.0" class="label" text-anchor="middle">52</text>
  <circle cx="548.8" cy="40.0" class="point"/>
  <text x="548.8" y="375" class="label" text-anchor="middle">2026-02-25</text>
  <text x="548.8" y="35.0" class="label" text-anchor="middle">52</text>
  <circle cx="553.6" cy="40.0" class="point"/>
  <text x="553.6" y="375" class="label" text-anchor="middle">2026-02-26</text>
  <text x="553.6" y="35.0" class="label" text-anchor="middle">52</text>
  <circle cx="558.4" cy="40.0" class="point"/>
  <text x="558.4" y="375" class="label" text-anchor="middle">2026-02-27</text>
  <text x="558.4" y="35.0" class="label" text-anchor="middle">52</text>
  <circle cx="563.2" cy="40.0" class="point"/>
  <text x="563.2" y="375" class="label" text-anchor="middle">2026-02-28</text>
  <text x="563.2" y="35.0" class="label" text-anchor="middle">52</text>
  <circle cx="568.0" cy="40.0" class="point"/>
  <text x="568.0" y="375" class="label" text-anchor="middle">2026-03-01</text>
  <text x="568.0" y="35.0" class="label" text-anchor="middle">52</text>
  <circle cx="572.8" cy="40.0" class="point"/>
  <text x="572.8" y="375" class="label" text-anchor="middle">2026-03-02</text>
  <text x="572.8" y="35.0" class="label" text-anchor="middle">52</text>
  <circle cx="577.6" cy="40.0" class="point"/>
  <text x="577.6" y="375" class="label" text-anchor="middle">2026-03-03</text>
  <text x="577.6" y="35.0" class="label" text-anchor="middle">52</text>
  <circle cx="582.4" cy="40.0" class="point"/>
  <text x="582.4" y="375" class="label" text-anchor="middle">2026-03-04</text>
  <text x="582.4" y="35.0" class="label" text-anchor="middle">52</text>
  <circle cx="587.2" cy="40.0" class="point"/>
  <text x="587.2" y="375" class="label" text-anchor="middle">2026-03-05</text>
  <text x="587.2" y="35.0" class="label" text-anchor="middle">52</text>
  <circle cx="592.0" cy="40.0" class="point"/>
  <text x="592.0" y="375" class="label" text-anchor="middle">2026-03-06</text>
  <text x="592.0" y="35.0" class="label" text-anchor="middle">52</text>
  <circle cx="596.8" cy="40.0" class="point"/>
  <text x="596.8" y="375" class="label" text-anchor="middle">2026-03-07</text>
  <text x="596.8" y="35.0" class="label" text-anchor="middle">52</text>
  <circle cx="601.6" cy="40.0" class="point"/>
  <text x="601.6" y="375" class="label" text-anchor="middle">2026-03-08</text>
  <text x="601.6" y="35.0" class="label" text-anchor="middle">52</text>
  <circle cx="606.4" cy="40.0" class="point"/>
  <text x="606.4" y="375" class="label" text-anchor="middle">2026-03-09</text>
  <text x="606.4" y="35.0" class="label" text-anchor="middle">52</text>
  <circle cx="611.2" cy="40.0" class="point"/>
  <text x="611.2" y="375" class="label" text-anchor="middle">2026-03-10</text>
  <text x="611.2" y="35.0" class="label" text-anchor="middle">52</text>
  <circle cx="616.0" cy="40.0" class="point"/>
  <text x="616.0" y="375" class="label" text-anchor="middle">2026-03-11</text>
  <text x="616.0" y="35.0" class="label" text-anchor="middle">52</text>
  <circle cx="620.8" cy="40.0" class="point"/>
  <text x="620.8" y="375" class="label" text-anchor="middle">2026-03-12</text>
  <text x="620.8" y="35.0" class="label" text-anchor="middle">52</text>
  <circle cx="625.6" cy="40.0" class="point"/>
  <text x="625.6" y="375" class="label" text-anchor="middle">2026-03-13</text>
  <text x="625.6" y="35.0" class="label" text-anchor="middle">52</text>
  <circle cx="630.4" cy="40.0" class="point"/>
  <text x="630.4" y="375" class="label" text-anchor="middle">2026-03-14</text>
  <text x="630.4" y="35.0" class="label" text-anchor="middle">52</text>
  <circle cx="635.2" cy="40.0" class="point"/>
  <text x="635.2" y="375" class="label" text-anchor="middle">2026-03-15</text>
  <text x="635.2" y="35.0" class="label" text-anchor="middle">52</text>
  <circle cx="640.0" cy="40.0" class="point"/>
  <text x="640.0" y="375" class="label" text-anchor="middle">2026-03-16</text>
  <text x="640.0" y="35.0" class="label" text-anchor="middle">52</text>
  <circle cx="644.8" cy="40.0" class="point"/>
  <text x="644.8" y="375" class="label" text-anchor="middle">2026-03-17</text>
  <text x="644.8" y="35.0" class="label" text-anchor="middle">52</text>
  <circle cx="649.6" cy="40.0" class="point"/>
  <text x="649.6" y="375" class="label" text-anchor="middle">2026-03-18</text>
  <text x="649.6" y="35.0" class="label" text-anchor="middle">52</text>
  <circle cx="654.4000000000001" cy="40.0" class="point"/>
  <text x="654.4000000000001" y="375" class="label" text-anchor="middle">2026-03-19</text>
  <text x="654.4000000000001" y="35.0" class="label" text-anchor="middle">52</text>
  <circle cx="659.2" cy="40.0" class="point"/>
  <text x="659.2" y="375" class="label" text-anchor="middle">2026-03-20</text>
  <text x="659.2" y="35.0" class="label" text-anchor="middle">52</text>
  <circle cx="664.0" cy="40.0" class="point"/>
  <text x="664.0" y="375" class="label" text-anchor="middle">2026-03-21</text>
  <text x="664.0" y="35.0" class="label" text-anchor="middle">52</text>
  <circle cx="668.8" cy="40.0" class="point"/>
  <text x="668.8" y="375" class="label" text-anchor="middle">2026-03-22</text>
  <text x="668.8" y="35.0" class="label" text-anchor="middle">52</text>
  <circle cx="673.6" cy="40.0" class="point"/>
  <text x="673.6" y="375" class="label" text-anchor="middle">2026-03-23</text>
  <text x="673.6" y="35.0" class="label" text-anchor="middle">52</text>
  <circle cx="678.4000000000001" cy="40.0" class="point"/>
  <text x="678.4000000000001" y="375" class="label" text-anchor="middle">2026-03-24</text>
  <text x="678.4000000000001" y="35.0" class="label" text-anchor="middle">52</text>
  <circle cx="683.1999999999999" cy="40.0" class="point"/>
  <text x="683.1999999999999" y="375" class="label" text-anchor="middle">2026-03-25</text>
  <text x="683.1999999999999" y="35.0" class="label" text-anchor="middle">52</text>
  <circle cx="688.0" cy="40.0" class="point"/>
  <text x="688.0" y="375" class="label" text-anchor="middle">2026-03-26</text>
  <text x="688.0" y="35.0" class="label" text-anchor="middle">52</text>
  <circle cx="692.8" cy="40.0" class="point"/>
  <text x="692.8" y="375" class="label" text-anchor="middle">2026-03-27</text>
  <text x="692.8" y="35.0" class="label" text-anchor="middle">52</text>
  <circle cx="697.6" cy="40.0" class="point"/>
  <text x="697.6" y="375" class="label" text-anchor="middle">2026-03-28</text>
  <text x="697.6" y="35.0" class="label" text-anchor="middle">52</text>
  <circle cx="702.4" cy="40.0" class="point"/>
  <text x="702.4" y="375" class="label" text-anchor="middle">2026-03-29</text>
  <text x="702.4" y="35.0" class="label" text-anchor="middle">52</text>
  <circle cx="707.1999999999999" cy="40.0" class="point"/>
  <text x="707.1999999999999" y="375" class="label" text-anchor="middle">2026-03-30</text>
  <text x="707.1999999999999" y="35.0" class="label" text-anchor="middle">52</text>
  <circle cx="712.0" cy="40.0" class="point"/>
  <text x="712.0" y="375" class="label" text-anchor="middle">2026-03-31</text>
  <text x="712.0" y="35.0" class="label" text-anchor="middle">52</text>
  <circle cx="716.8" cy="40.0" class="point"/>
  <text x="716.8" y="375" class="label" text-anchor="middle">2026-04-01</text>
  <text x="716.8" y="35.0" class="label" text-anchor="middle">52</text>
  <circle cx="721.6" cy="40.0" class="point"/>
  <text x="721.6" y="375" class="label" text-anchor="middle">2026-04-02</text>
  <text x="721.6" y="35.0" class="label" text-anchor="middle">52</text>
  <circle cx="726.4" cy="40.0" class="point"/>
  <text x="726.4" y="375" class="label" text-anchor="middle">2026-04-03</text>
  <text x="726.4" y="35.0" class="label" text-anchor="middle">52</text>
  <circle cx="731.1999999999999" cy="40.0" class="point"/>
  <text x="731.1999999999999" y="375" class="label" text-anchor="middle">2026-04-04</text>
  <text x="731.1999999999999" y="35.0" class="label" text-anchor="middle">52</text>
  <circle cx="736.0" cy="40.0" class="point"/>
  <text x="736.0" y="375" class="label" text-anchor="middle">2026-04-05</text>
  <text x="736.0" y="35.0" class="label" text-anchor="middle">52</text>
  <circle cx="740.8000000000001" cy="40.0" class="point"/>
  <text x="740.8000000000001" y="375" class="label" text-anchor="middle">2026-04-06</text>
  <text x="740.8000000000001" y="35.0" class="label" text-anchor="middle">52</text>
  <circle cx="745.6" cy="40.0" class="point"/>
  <text x="745.6" y="375" class="label" text-anchor="middle">2026-04-07</text>
  <text x="745.6" y="35.0" class="label" text-anchor="middle">52</text>
  <circle cx="750.4" cy="40.0" class="point"/>
  <text x="750.4" y="375" class="label" text-anchor="middle">2026-04-08</text>
  <text x="750.4" y="35.0" class="label" text-anchor="middle">52</text>
  <circle cx="755.1999999999999" cy="40.0" class="point"/>
  <text x="755.1999999999999" y="375" class="label" text-anchor="middle">2026-04-09</text>
  <text x="755.1999999999999" y="35.0" class="label" text-anchor="middle">52</text>
  <circle cx="760.0" cy="40.0" class="point"/>
  <text x="760.0" y="375" class="label" text-anchor="middle">2026-04-10</text>
  <text x="760.0" y="35.0" class="label" text-anchor="middle">52</text>
  <text x="30" y="363.0" class="label" text-anchor="end">0</text>
  <text x="30" y="301.46153846153845" class="label" text-anchor="end">10</text>
  <text x="30" y="239.9230769230769" class="label" text-anchor="end">20</text>
  <text x="30" y="178.38461538461542" class="label" text-anchor="end">30</text>
  <text x="30" y="116.84615384615384" class="label" text-anchor="end">40</text>
  <text x="30" y="55.30769230769232" class="label" text-anchor="end">50</text>
</svg>