<svg xmlns="http://www.w3.org/2000/svg" width="800" height="400" viewBox="0 0 800 400">
  <style>
    .axis{stroke:#666;stroke-width:1}
    .line{stroke:#4a9;stroke-width:2;fill:none}
    .point{fill:#4a9;r:4}
    .label{font:10px sans-serif;fill:#aaa}
    .title{font:14px sans-serif;fill:#333}
  </style>
  <text x="400" y="20" class="title" text-anchor="middle">OPIC Field Growth Timeline</text>
  <line x1="40" y1="40" x2="40" y2="360" class="axis"/>
  <line x1="40" y1="360" x2="760" y2="360" class="axis"/>
  <path d="M 40.0,101.53846153846155 L 46.31578947368421,101.53846153846155 L 52.631578947368425,101.53846153846155 L 58.94736842105263,101.53846153846155 L 65.26315789473685,101.53846153846155 L 71.57894736842105,101.53846153846155 L 77.89473684210526,101.53846153846155 L 84.21052631578948,101.53846153846155 L 90.52631578947368,101.53846153846155 L 96.84210526315789,101.53846153846155 L 103.15789473684211,101.53846153846155 L 109.47368421052632,101.53846153846155 L 115.78947368421052,101.53846153846155 L 122.10526315789473,101.53846153846155 L 128.42105263157896,101.53846153846155 L 134.73684210526315,101.53846153846155 L 141.05263157894737,101.53846153846155 L 147.36842105263156,101.53846153846155 L 153.68421052631578,101.53846153846155 L 160.0,101.53846153846155 L 166.31578947368422,101.53846153846155 L 172.6315789473684,101.53846153846155 L 178.94736842105263,101.53846153846155 L 185.26315789473682,101.53846153846155 L 191.57894736842104,101.53846153846155 L 197.89473684210526,101.53846153846155 L 204.21052631578945,101.53846153846155 L 210.52631578947367,40.0 L 216.8421052631579,40.0 L 223.1578947368421,40.0 L 229.4736842105263,40.0 L 235.78947368421055,40.0 L 242.10526315789474,40.0 L 248.42105263157896,40.0 L 254.73684210526315,40.0 L 261.0526315789474,40.0 L 267.36842105263156,40.0 L 273.68421052631584,40.0 L 280.0,40.0 L 286.3157894736842,40.0 L 292.63157894736844,40.0 L 298.94736842105266,40.0 L 305.2631578947368,40.0 L 311.57894736842104,40.0 L 317.89473684210526,40.0 L 324.2105263157895,40.0 L 330.52631578947364,40.0 L 336.8421052631579,40.0 L 343.1578947368421,40.0 L 349.4736842105263,40.0 L 355.7894736842105,40.0 L 362.10526315789474,40.0 L 368.4210526315789,40.0 L 374.7368421052632,40.0 L 381.05263157894734,40.0 L 387.36842105263156,40.0 L 393.6842105263158,40.0 L 400.0,40.0 L 406.3157894736842,40.0 L 412.63157894736844,40.0 L 418.9473684210526,40.0 L 425.2631578947368,40.0 L 431.5789473684211,40.0 L 437.8947368421053,40.0 L 444.2105263157895,40.0 L 450.5263157894737,40.0 L 456.8421052631579,40.0 L 463.15789473684214,40.0 L 469.4736842105263,40.0 L 475.7894736842105,40.0 L 482.10526315789474,40.0 L 488.42105263157896,40.0 L 494.7368421052631,40.0 L 501.05263157894734,40.0 L 507.3684210526316,40.0 L 513.6842105263158,40.0 L 520.0,40.0 L 526.3157894736842,40.0 L 532.6315789473684,40.0 L 538.9473684210527,40.0 L 545.2631578947369,40.0 L 551.578947368421,40.0 L 557.8947368421053,40.0 L 564.2105263157895,40.0 L 570.5263157894736,40.0 L 576.8421052631579,40.0 L 583.1578947368421,40.0 L 589.4736842105264,40.0 L 595.7894736842105,40.0 L 602.1052631578947,40.0 L 608.421052631579,40.0 L 614.7368421052632,40.0 L 621.0526315789473,40.0 L 627.3684210526316,40.0 L 633.6842105263158,40.0 L 640.0,40.0 L 646.3157894736842,40.0 L 652.6315789473684,40.0 L 658.9473684210526,40.0 L 665.2631578947369,40.0 L 671.578947368421,40.0 L 677.8947368421052,40.0 L 684.2105263157895,40.0 L 690.5263157894738,40.0 L 696.8421052631578,40.0 L 703.1578947368421,40.0 L 709.4736842105264,40.0 L 715.7894736842105,40.0 L 722.1052631578947,40.0 L 728.421052631579,40.0 L 734.7368421052631,40.0 L 741.0526315789474,40.0 L 747.3684210526316,40.0 L 753.6842105263157,40.0 L 760.0,40.0" class="line"/>
  <circle cx="40.0" cy="101.53846153846155" class="point"/>
  <text x="40.0" y="375" class="label" text-anchor="middle">2025-11-11</text>
  <text x="40.0" y="96.53846153846155" class="label" text-anchor="middle">42</text>
  <circle cx="46.31578947368421" cy="101.53846153846155" class="point"/>
  <text x="46.31578947368421" y="375" class="label" text-anchor="middle">2025-11-12</text>
  <text x="46.31578947368421" y="96.53846153846155" class="label" text-anchor="middle">42</text>
  <circle cx="52.631578947368425" cy="101.53846153846155" class="point"/>
  <text x="52.631578947368425" y="375" class="label" text-anchor="middle">2025-11-13</text>
  <text x="52.631578947368425" y="96.53846153846155" class="label" text-anchor="middle">42</text>
  <circle cx="58.94736842105263" cy="101.53846153846155" class="point"/>
  <text x="58.94736842105263" y="375" class="label" text-anchor="middle">2025-11-14</text>
  <text x="58.94736842105263" y="96.53846153846155" class="label" text-anchor="middle">42</text>
  <circle cx="65.26315789473685" cy="101.53846153846155" class="point"/>
  <text x="65.26315789473685" y="375" class="label" text-anchor="middle">2025-11-15</text>
  <text x="65.26315789473685" y="96.53846153846155" class="label" text-anchor="middle">42</text>
  <circle cx="71.57894736842105" cy="101.53846153846155" class="point"/>
  <text x="71.57894736842105" y="375" class="label" text-anchor="middle">2025-11-16</text>
  <text x="71.57894736842105" y="96.53846153846155" class="label" text-anchor="middle">42</text>
  <circle cx="77.89473684210526" cy="101.53846153846155" class="point"/>
  <text x="77.89473684210526" y="375" class="label" text-anchor="middle">2025-11-17</text>
  <text x="77.89473684210526" y="96.53846153846155" class="label" text-anchor="middle">42</text>
  <circle cx="84.21052631578948" cy="101.53846153846155" class="point"/>
  <text x="84.21052631578948" y="375" class="label" text-anchor="middle">2025-11-18</text>
  <text x="84.21052631578948" y="96.53846153846155" class="label" text-anchor="middle">42</text>
  <circle cx="90.52631578947368" cy="101.53846153846155" class="point"/>
  <text x="90.52631578947368" y="375" class="label" text-anchor="middle">2025-11-19</text>
  <text x="90.52631578947368" y="96.53846153846155" class="label" text-anchor="middle">42</text>
  <circle cx="96.84210526315789" cy="101.53846153846155" class="point"/>
  <text x="96.84210526315789" y="375" class="label" text-anchor="middle">2025-11-20</text>
  <text x="96.84210526315789" y="96.53846153846155" class="label" text-anchor="middle">42</text>
  <circle cx="103.15789473684211" cy="101.53846153846155" class="point"/>
  <text x="103.15789473684211" y="375" class="label" text-anchor="middle">2025-11-21</text>
  <text x="103.15789473684211" y="96.53846153846155" class="label" text-anchor="middle">42</text>
  <circle cx="109.47368421052632" cy="101.53846153846155" class="point"/>
  <text x="109.47368421052632" y="375" class="label" text-anchor="middle">2025-11-22</text>
  <text x="109.47368421052632" y="96.53846153846155" class="label" text-anchor="middle">42</text>
  <circle cx="115.78947368421052" cy="101.53846153846155" class="point"/>
  <text x="115.78947368421052" y="375" class="label" text-anchor="middle">2025-11-23</text>
  <text x="115.78947368421052" y="96.53846153846155" class="label" text-anchor="middle">42</text>
  <circle cx="122.10526315789473" cy="101.53846153846155" class="point"/>
  <text x="122.10526315789473" y="375" class="label" text-anchor="middle">2025-11-24</text>
  <text x="122.10526315789473" y="96.53846153846155" class="label" text-anchor="middle">42</text>
  <circle cx="128.42105263157896" cy="101.53846153846155" class="point"/>
  <text x="128.42105263157896" y="375" class="label" text-anchor="middle">2025-11-25</text>
  <text x="128.42105263157896" y="96.53846153846155" class="label" text-anchor="middle">42</text>
  <circle cx="134.73684210526315" cy="101.53846153846155" class="point"/>
  <text x="134.73684210526315" y="375" class="label" text-anchor="middle">2025-11-26</text>
  <text x="134.73684210526315" y="96.53846153846155" class="label" text-anchor="middle">42</text>
  <circle cx="141.05263157894737" cy="101.53846153846155" class="point"/>
  <text x="141.05263157894737" y="375" class="label" text-anchor="middle">2025-11-27</text>
  <text x="141.05263157894737" y="96.53846153846155" class="label" text-anchor="middle">42</text>
  <circle cx="147.36842105263156" cy="101.53846153846155" class="point"/>
  <text x="147.36842105263156" y="375" class="label" text-anchor="middle">2025-11-28</text>
  <text x="147.36842105263156" y="96.53846153846155" class="label" text-anchor="middle">42</text>
  <circle cx="153.68421052631578" cy="101.53846153846155" class="point"/>
  <text x="153.68421052631578" y="375" class="label" text-anchor="middle">2025-11-29</text>
  <text x="153.68421052631578" y="96.53846153846155" class="label" text-anchor="middle">42</text>
  <circle cx="160.0" cy="101.53846153846155" class="point"/>
  <text x="160.0" y="375" class="label" text-anchor="middle">2025-11-30</text>
  <text x="160.0" y="96.53846153846155" class="label" text-anchor="middle">42</text>
  <circle cx="166.31578947368422" cy="101.53846153846155" class="point"/>
  <text x="166.31578947368422" y="375" class="label" text-anchor="middle">2025-12-01</text>
  <text x="166.31578947368422" y="96.53846153846155" class="label" text-anchor="middle">42</text>
  <circle cx="172.6315789473684" cy="101.53846153846155" class="point"/>
  <text x="172.6315789473684" y="375" class="label" text-anchor="middle">2025-12-02</text>
  <text x="172.6315789473684" y="96.53846153846155" class="label" text-anchor="middle">42</text>
  <circle cx="178.94736842105263" cy="101.53846153846155" class="point"/>
  <text x="178.94736842105263" y="375" class="label" text-anchor="middle">2025-12-03</text>
  <text x="178.94736842105263" y="96.53846153846155" class="label" text-anchor="middle">42</text>
  <circle cx="185.26315789473682" cy="101.53846153846155" class="point"/>
  <text x="185.26315789473682" y="375" class="label" text-anchor="middle">2025-12-04</text>
  <text x="185.26315789473682" y="96.53846153846155" class="label" text-anchor="middle">42</text>
  <circle cx="191.57894736842104" cy="101.53846153846155" class="point"/>
  <text x="191.57894736842104" y="375" class="label" text-anchor="middle">2025-12-05</text>
  <text x="191.57894736842104" y="96.53846153846155" class="label" text-anchor="middle">42</text>
  <circle cx="197.89473684210526" cy="101.53846153846155" class="point"/>
  <text x="197.89473684210526" y="375" class="label" text-anchor="middle">2025-12-06</text>
  <text x="197.89473684210526" y="96.53846153846155" class="label" text-anchor="middle">42</text>
  <circle cx="204.21052631578945" cy="101.53846153846155" class="point"/>
  <text x="204.21052631578945" y="375" class="label" text-anchor="middle">2025-12-07</text>
  <text x="204.21052631578945" y="96.53846153846155" class="label" text-anchor="middle">42</text>
  <circle cx="210.52631578947367" cy="40.0" class="point"/>
  <text x="210.52631578947367" y="375" class="label" text-anchor="middle">2025-12-08</text>
  <text x="210.52631578947367" y="35.0" class="label" text-anchor="middle">52</text>
  <circle cx="216.8421052631579" cy="40.0" class="point"/>
  <text x="216.8421052631579" y="375" class="label" text-anchor="middle">2025-12-09</text>
  <text x="216.8421052631579" y="35.0" class="label" text-anchor="middle">52</text>
  <circle cx="223.1578947368421" cy="40.0" class="point"/>
  <text x="223.1578947368421" y="375" class="label" text-anchor="middle">2025-12-10</text>
  <text x="223.1578947368421" y="35.0" class="label" text-anchor="middle">52</text>
  <circle cx="229.4736842105263" cy="40.0" class="point"/>
  <text x="229.4736842105263" y="375" class="label" text-anchor="middle">2025-12-11</text>
  <text x="229.4736842105263" y="35.0" class="label" text-anchor="middle">52</text>
  <circle cx="235.78947368421055" cy="40.0" class="point"/>
  <text x="235.78947368421055" y="375" class="label" text-anchor="middle">2025-12-12</text>
  <text x="235.78947368421055" y="35.0" class="label" text-anchor="middle">52</text>
  <circle cx="242.10526315789474" cy="40.0" class="point"/>
  <text x="242.10526315789474" y="375" class="label" text-anchor="middle">2025-12-13</text>
  <text x="242.10526315789474" y="35.0" class="label" text-anchor="middle">52</text>
  <circle cx="248.42105263157896" cy="40.0" class="point"/>
  <text x="248.42105263157896" y="375" class="label" text-anchor="middle">2025-12-14</text>
  <text x="248.42105263157896" y="35.0" class="label" text-anchor="middle">52</text>
  <circle cx="254.73684210526315" cy="40.0" class="point"/>
  <text x="254.73684210526315" y="375" class="label" text-anchor="middle">2025-12-15</text>
  <text x="254.73684210526315" y="35.0" class="label" text-anchor="middle">52</text>
  <circle cx="261.0526315789474" cy="40.0" class="point"/>
  <text x="261.0526315789474" y="375" class="label" text-anchor="middle">2025-12-16</text>
  <text x="261.0526315789474" y="35.0" class="label" text-anchor="middle">52</text>
  <circle cx="267.36842105263156" cy="40.0" class="point"/>
  <text x="267.36842105263156" y="375" class="label" text-anchor="middle">2025-12-17</text>
  <text x="267.36842105263156" y="35.0" class="label" text-anchor="middle">52</text>
  <circle cx="273.68421052631584" cy="40.0" class="point"/>
  <text x="273.68421052631584" y="375" class="label" text-anchor="middle">2025-12-18</text>
  <text x="273.68421052631584" y="35.0" class="label" text-anchor="middle">52</text>
  <circle cx="280.0" cy="40.0" class="point"/>
  <text x="280.0" y="375" class="label" text-anchor="middle">2025-12-19</text>
  <text x="280.0" y="35.0" class="label" text-anchor="middle">52</text>
  <circle cx="286.3157894736842" cy="40.0" class="point"/>
  <text x="286.3157894736842" y="375" class="label" text-anchor="middle">2025-12-20</text>
  <text x="286.3157894736842" y="35.0" class="label" text-anchor="middle">52</text>
  <circle cx="292.63157894736844" cy="40.0" class="point"/>
  <text x="292.63157894736844" y="375" class="label" text-anchor="middle">2025-12-21</text>
  <text x="292.63157894736844" y="35.0" class="label" text-anchor="middle">52</text>
  <circle cx="298.94736842105266" cy="40.0" class="point"/>
  <text x="298.94736842105266" y="375" class="label" text-anchor="middle">2025-12-22</text>
  <text x="298.94736842105266" y="35.0" class="label" text-anchor="middle">52</text>
  <circle cx="305.2631578947368" cy="40.0" class="point"/>
  <text x="305.2631578947368" y="375" class="label" text-anchor="middle">2025-12-23</text>
  <text x="305.2631578947368" y="35.0" class="label" text-anchor="middle">52</text>
  <circle cx="311.57894736842104" cy="40.0" class="point"/>
  <text x="311.57894736842104" y="375" class="label" text-anchor="middle">2025-12-24</text>
  <text x="311.57894736842104" y="35.0" class="label" text-anchor="middle">52</text>
  <circle cx="317.89473684210526" cy="40.0" class="point"/>
  <text x="317.89473684210526" y="375" class="label" text-anchor="middle">2025-12-25</text>
  <text x="317.89473684210526" y="35.0" class="label" text-anchor="middle">52</text>
  <circle cx="324.2105263157895" cy="40.0" class="point"/>
  <text x="324.2105263157895" y="375" class="label" text-anchor="middle">2025-12-26</text>
  <text x="324.2105263157895" y="35.0" class="label" text-anchor="middle">52</text>
  <circle cx="330.52631578947364" cy="40.0" class="point"/>
  <text x="330.52631578947364" y="375" class="label" text-anchor="middle">2025-12-27</text>
  <text x="330.52631578947364" y="35.0" class="label" text-anchor="middle">52</text>
  <circle cx="336.8421052631579" cy="40.0" class="point"/>
  <text x="336.8421052631579" y="375" class="label" text-anchor="middle">2025-12-28</text>
  <text x="336.8421052631579" y="35.0" class="label" text-anchor="middle">52</text>
  <circle cx="343.1578947368421" cy="40.0" class="point"/>
  <text x="343.1578947368421" y="375" class="label" text-anchor="middle">2025-12-29</text>
  <text x="343.1578947368421" y="35.0" class="label" text-anchor="middle">52</text>
  <circle cx="349.4736842105263" cy="40.0" class="point"/>
  <text x="349.4736842105263" y="375" class="label" text-anchor="middle">2025-12-30</text>
  <text x="349.4736842105263" y="35.0" class="label" text-anchor="middle">52</text>
  <circle cx="355.7894736842105" cy="40.0" class="point"/>
  <text x="355.7894736842105" y="375" class="label" text-anchor="middle">2025-12-31</text>
  <text x="355.7894736842105" y="35.0" class="label" text-anchor="middle">52</text>
  <circle cx="362.10526315789474" cy="40.0" class="point"/>
  <text x="362.10526315789474" y="375" class="label" text-anchor="middle">2026-01-01</text>
  <text x="362.10526315789474" y="35.0" class="label" text-anchor="middle">52</text>
  <circle cx="368.4210526315789" cy="40.0" class="point"/>
  <text x="368.4210526315789" y="375" class="label" text-anchor="middle">2026-01-02</text>
  <text x="368.4210526315789" y="35.0" class="label" text-anchor="middle">52</text>
  <circle cx="374.7368421052632" cy="40.0" class="point"/>
  <text x="374.7368421052632" y="375" class="label" text-anchor="middle">2026-01-03</text>
  <text x="374.7368421052632" y="35.0" class="label" text-anchor="middle">52</text>
  <circle cx="381.05263157894734" cy="40.0" class="point"/>
  <text x="381.05263157894734" y="375" class="label" text-anchor="middle">2026-01-04</text>
  <text x="381.05263157894734" y="35.0" class="label" text-anchor="middle">52</text>
  <circle cx="387.36842105263156" cy="40.0" class="point"/>
  <text x="387.36842105263156" y="375" class="label" text-anchor="middle">2026-01-05</text>
  <text x="387.36842105263156" y="35.0" class="label" text-anchor="middle">52</text>
  <circle cx="393.6842105263158" cy="40.0" class="point"/>
  <text x="393.6842105263158" y="375" class="label" text-anchor="middle">2026-01-06</text>
  <text x="393.6842105263158" y="35.0" class="label" text-anchor="middle">52</text>
  <circle cx="400.0" cy="40.0" class="point"/>
  <text x="400.0" y="375" class="label" text-anchor="middle">2026-01-07</text>
  <text x="400.0" y="35.0" class="label" text-anchor="middle">52</text>
  <circle cx="406.3157894736842" cy="40.0" class="point"/>
  <text x="406.3157894736842" y="375" class="label" text-anchor="middle">2026-01-08</text>
  <text x="406.3157894736842" y="35.0" class="label" text-anchor="middle">52</text>
  <circle cx="412.63157894736844" cy="40.0" class="point"/>
  <text x="412.63157894736844" y="375" class="label" text-anchor="middle">2026-01-09</text>
  <text x="412.63157894736844" y="35.0" class="label" text-anchor="middle">52</text>
  <circle cx="418.9473684210526" cy="40.0" class="point"/>
  <text x="418.9473684210526" y="375" class="label" text-anchor="middle">2026-01-10</text>
  <text x="418.9473684210526" y="35.0" class="label" text-anchor="middle">52</text>
  <circle cx="425.2631578947368" cy="40.0" class="point"/>
  <text x="425.2631578947368" y="375" class="label" text-anchor="middle">2026-01-11</text>
  <text x="425.2631578947368" y="35.0" class="label" text-anchor="middle">52</text>
  <circle cx="431.5789473684211" cy="40.0" class="point"/>
  <text x="431.5789473684211" y="375" class="label" text-anchor="middle">2026-01-12</text>
  <text x="431.5789473684211" y="35.0" class="label" text-anchor="middle">52</text>
  <circle cx="437.8947368421053" cy="40.0" class="point"/>
  <text x="437.8947368421053" y="375" class="label" text-anchor="middle">2026-01-13</text>
  <text x="437.8947368421053" y="35.0" class="label" text-anchor="middle">52</text>
  <circle cx="444.2105263157895" cy="40.0" class="point"/>
  <text x="444.2105263157895" y="375" class="label" text-anchor="middle">2026-01-14</text>
  <text x="444.2105263157895" y="35.0" class="label" text-anchor="middle">52</text>
  <circle cx="450.5263157894737" cy="40.0" class="point"/>
  <text x="450.5263157894737" y="375" class="label" text-anchor="middle">2026-01-15</text>
  <text x="450.5263157894737" y="35.0" class="label" text-anchor="middle">52</text>
  <circle cx="456.8421052631579" cy="40.0" class="point"/>
  <text x="456.8421052631579" y="375" class="label" text-anchor="middle">2026-01-16</text>
  <text x="456.8421052631579" y="35.0" class="label" text-anchor="middle">52</text>
  <circle cx="463.15789473684214" cy="40.0" class="point"/>
  <text x="463.15789473684214" y="375" class="label" text-anchor="middle">2026-01-17</text>
  <text x="463.15789473684214" y="35.0" class="label" text-anchor="middle">52</text>
  <circle cx="469.4736842105263" cy="40.0" class="point"/>
  <text x="469.4736842105263" y="375" class="label" text-anchor="middle">2026-01-18</text>
  <text x="469.4736842105263" y="35.0" class="label" text-anchor="middle">52</text>
  <circle cx="475.7894736842105" cy="40.0" class="point"/>
  <text x="475.7894736842105" y="375" class="label" text-anchor="middle">2026-01-19</text>
  <text x="475.7894736842105" y="35.0" class="label" text-anchor="middle">52</text>
  <circle cx="482.10526315789474" cy="40.0" class="point"/>
  <text x="482.10526315789474" y="375" class="label" text-anchor="middle">2026-01-20</text>
  <text x="482.10526315789474" y="35.0" class="label" text-anchor="middle">52</text>
  <circle cx="488.42105263157896" cy="40.0" class="point"/>
  <text x="488.42105263157896" y="375" class="label" text-anchor="middle">2026-01-21</text>
  <text x="488.42105263157896" y="35.0" class="label" text-anchor="middle">52</text>
  <circle cx="494.7368421052631" cy="40.0" class="point"/>
  <text x="494.7368421052631" y="375" class="label" text-anchor="middle">2026-01-22</text>
  <text x="494.7368421052631" y="35.0" class="label" text-anchor="middle">52</text>
  <circle cx="501.05263157894734" cy="40.0" class="point"/>
  <text x="501.05263157894734" y="375" class="label" text-anchor="middle">2026-01-23</text>
  <text x="501.05263157894734" y="35.0" class="label" text-anchor="middle">52</text>
  <circle cx="507.3684210526316" cy="40.0" class="point"/>
  <text x="507.3684210526316" y="375" class="label" text-anchor="middle">2026-01-24</text>
  <text x="507.3684210526316" y="35.0" class="label" text-anchor="middle">52</text>
  <circle cx="513.6842105263158" cy="40.0" class="point"/>
  <text x="513.6842105263158" y="375" class="label" text-anchor="middle">2026-01-25</text>
  <text x="513.6842105263158" y="35.0" class="label" text-anchor="middle">52</text>
  <circle cx="520.0" cy="40.0" class="point"/>
  <text x="520.0" y="375" class="label" text-anchor="middle">2026-01-26</text>
  <text x="520.0" y="35.0" class="label" text-anchor="middle">52</text>
  <circle cx="526.3157894736842" cy="40.0" class="point"/>
  <text x="526.3157894736842" y="375" class="label" text-anchor="middle">2026-01-27</text>
  <text x="526.3157894736842" y="35.0" class="label" text-anchor="middle">52</text>
  <circle cx="532.6315789473684" cy="40.0" class="point"/>
  <text x="532.6315789473684" y="375" class="label" text-anchor="middle">2026-01-28</text>
  <text x="532.6315789473684" y="35.0" class="label" text-anchor="middle">52</text>
  <circle cx="538.9473684210527" cy="40.0" class="point"/>
  <text x="538.9473684210527" y="375" class="label" text-anchor="middle">2026-01-29</text>
  <text x="538.9473684210527" y="35.0" class="label" text-anchor="middle">52</text>
  <circle cx="545.2631578947369" cy="40.0" class="point"/>
  <text x="545.2631578947369" y="375" class="label" text-anchor="middle">2026-01-30</text>
  <text x="545.2631578947369" y="35.0" class="label" text-anchor="middle">52</text>
  <circle cx="551.578947368421" cy="40.0" class="point"/>
  <text x="551.578947368421" y="375" class="label" text-anchor="middle">2026-01-31</text>
  <text x="551.578947368421" y="35.0" class="label" text-anchor="middle">52</text>
  <circle cx="557.8947368421053" cy="40.0" class="point"/>
  <text x="557.8947368421053" y="375" class="label" text-anchor="middle">2026-02-01</text>
  <text x="557.8947368421053" y="35.0" class="label" text-anchor="middle">52</text>
  <circle cx="564.2105263157895" cy="40.0" class="point"/>
  <text x="564.2105263157895" y="375" class="label" text-anchor="middle">2026-02-02</text>
  <text x="564.2105263157895" y="35.0" class="label" text-anchor="middle">52</text>
  <circle cx="570.5263157894736" cy="40.0" class="point"/>
  <text x="570.5263157894736" y="375" class="label" text-anchor="middle">2026-02-03</text>
  <text x="570.5263157894736" y="35.0" class="label" text-anchor="middle">52</text>
  <circle cx="576.8421052631579" cy="40.0" class="point"/>
  <text x="576.8421052631579" y="375" class="label" text-anchor="middle">2026-02-04</text>
  <text x="576.8421052631579" y="35.0" class="label" text-anchor="middle">52</text>
  <circle cx="583.1578947368421" cy="40.0" class="point"/>
  <text x="583.1578947368421" y="375" class="label" text-anchor="middle">2026-02-05</text>
  <text x="583.1578947368421" y="35.0" class="label" text-anchor="middle">52</text>
  <circle cx="589.4736842105264" cy="40.0" class="point"/>
  <text x="589.4736842105264" y="375" class="label" text-anchor="middle">2026-02-06</text>
  <text x="589.4736842105264" y="35.0" class="label" text-anchor="middle">52</text>
  <circle cx="595.7894736842105" cy="40.0" class="point"/>
  <text x="595.7894736842105" y="375" class="label" text-anchor="middle">2026-02-07</text>
  <text x="595.7894736842105" y="35.0" class="label" text-anchor="middle">52</text>
  <circle cx="602.1052631578947" cy="40.0" class="point"/>
  <text x="602.1052631578947" y="375" class="label" text-anchor="middle">2026-02-08</text>
  <text x="602.1052631578947" y="35.0" class="label" text-anchor="middle">52</text>
  <circle cx="608.421052631579" cy="40.0" class="point"/>
  <text x="608.421052631579" y="375" class="label" text-anchor="middle">2026-02-09</text>
  <text x="608.421052631579" y="35.0" class="label" text-anchor="middle">52</text>
  <circle cx="614.7368421052632" cy="40.0" class="point"/>
  <text x="614.7368421052632" y="375" class="label" text-anchor="middle">2026-02-10</text>
  <text x="614.7368421052632" y="35.0" class="label" text-anchor="middle">52</text>
  <circle cx="621.0526315789473" cy="40.0" class="point"/>
  <text x="621.0526315789473" y="375" class="label" text-anchor="middle">2026-02-11</text>
  <text x="621.0526315789473" y="35.0" class="label" text-anchor="middle">52</text>
  <circle cx="627.3684210526316" cy="40.0" class="point"/>
  <text x="627.3684210526316" y="375" class="label" text-anchor="middle">2026-02-12</text>
  <text x="627.3684210526316" y="35.0" class="label" text-anchor="middle">52</text>
  <circle cx="633.6842105263158" cy="40.0" class="point"/>
  <text x="633.6842105263158" y="375" class="label" text-anchor="middle">2026-02-13</text>
  <text x="633.6842105263158" y="35.0" class="label" text-anchor="middle">52</text>
  <circle cx="640.0" cy="40.0" class="point"/>
  <text x="640.0" y="375" class="label" text-anchor="middle">2026-02-14</text>
  <text x="640.0" y="35.0" class="label" text-anchor="middle">52</text>
  <circle cx="646.3157894736842" cy="40.0" class="point"/>
  <text x="646.3157894736842" y="375" class="label" text-anchor="middle">2026-02-15</text>
  <text x="646.3157894736842" y="35.0" class="label" text-anchor="middle">52</text>
  <circle cx="652.6315789473684" cy="40.0" class="point"/>
  <text x="652.6315789473684" y="375" class="label" text-anchor="middle">2026-02-16</text>
  <text x="652.6315789473684" y="35.0" class="label" text-anchor="middle">52</text>
  <circle cx="658.9473684210526" cy="40.0" class="point"/>
  <text x="658.9473684210526" y="375" class="label" text-anchor="middle">2026-02-17</text>
  <text x="658.9473684210526" y="35.0" class="label" text-anchor="middle">52</text>
  <circle cx="665.2631578947369" cy="40.0" class="point"/>
  <text x="665.2631578947369" y="375" class="label" text-anchor="middle">2026-02-18</text>
  <text x="665.2631578947369" y="35.0" class="label" text-anchor="middle">52</text>
  <circle cx="671.578947368421" cy="40.0" class="point"/>
  <text x="671.578947368421" y="375" class="label" text-anchor="middle">2026-02-19</text>
  <text x="671.578947368421" y="35.0" class="label" text-anchor="middle">52</text>
  <circle cx="677.8947368421052" cy="40.0" class="point"/>
  <text x="677.8947368421052" y="375" class="label" text-anchor="middle">2026-02-20</text>
  <text x="677.8947368421052" y="35.0" class="label" text-anchor="middle">52</text>
  <circle cx="684.2105263157895" cy="40.0" class="point"/>
  <text x="684.2105263157895" y="375" class="label" text-anchor="middle">2026-02-21</text>
  <text x="684.2105263157895" y="35.0" class="label" text-anchor="middle">52</text>
  <circle cx="690.5263157894738" cy="40.0" class="point"/>
  <text x="690.5263157894738" y="375" class="label" text-anchor="middle">2026-02-22</text>
  <text x="690.5263157894738" y="35.0" class="label" text-anchor="middle">52</text>
  <circle cx="696.8421052631578" cy="40.0" class="point"/>
  <text x="696.8421052631578" y="375" class="label" text-anchor="middle">2026-02-23</text>
  <text x="696.8421052631578" y="35.0" class="label" text-anchor="middle">52</text>
  <circle cx="703.1578947368421" cy="40.0" class="point"/>
  <text x="703.1578947368421" y="375" class="label" text-anchor="middle">2026-02-24</text>
  <text x="703.1578947368421" y="35.0" class="label" text-anchor="middle">52</text>
  <circle cx="709.4736842105264" cy="40.0" class="point"/>
  <text x="709.4736842105264" y="375" class="label" text-anchor="middle">2026-02-25</text>
  <text x="709.4736842105264" y="35.0" class="label" text-anchor="middle">52</text>
  <circle cx="715.7894736842105" cy="40.0" class="point"/>
  <text x="715.7894736842105" y="375" class="label" text-anchor="middle">2026-02-26</text>
  <text x="715.7894736842105" y="35.0" class="label" text-anchor="middle">52</text>
  <circle cx="722.1052631578947" cy="40.0" class="point"/>
  <text x="722.1052631578947" y="375" class="label" text-anchor="middle">2026-02-27</text>
  <text x="722.1052631578947" y="35.0" class="label" text-anchor="middle">52</text>
  <circle cx="728.421052631579" cy="40.0" class="point"/>
  <text x="728.421052631579" y="375" class="label" text-anchor="middle">2026-02-28</text>
  <text x="728.421052631579" y="35.0" class="label" text-anchor="middle">52</text>
  <circle cx="734.7368421052631" cy="40.0" class="point"/>
  <text x="734.7368421052631" y="375" class="label" text-anchor="middle">2026-03-01</text>
  <text x="734.7368421052631" y="35.0" class="label" text-anchor="middle">52</text>
  <circle cx="741.0526315789474" cy="40.0" class="point"/>
  <text x="741.0526315789474" y="375" class="label" text-anchor="middle">2026-03-02</text>
  <text x="741.0526315789474" y="35.0" class="label" text-anchor="middle">52</text>
  <circle cx="747.3684210526316" cy="40.0" class="point"/>
  <text x="747.3684210526316" y="375" class="label" text-anchor="middle">2026-03-03</text>
  <text x="747.3684210526316" y="35.0" class="label" text-anchor="middle">52</text>
  <circle cx="753.6842105263157" cy="40.0" class="point"/>
  <text x="753.6842105263157" y="375" class="label" text-anchor="middle">2026-03-04</text>
  <text x="753.6842105263157" y="35.0" class="label" text-anchor="middle">52</text>
  <circle cx="760.0" cy="40.0" class="point"/>
  <text x="760.0" y="375" class="label" text-anchor="middle">2026-03-05</text>
  <text x="760.0" y="35.0" class="label" text-anchor="middle">52</text>
  <text x="30" y="363.0" class="label" text-anchor="end">0</text>
  <text x="30" y="301.46153846153845" class="label" text-anchor="end">10</text>
  <text x="30" y="239.9230769230769" class="label" text-anchor="end">20</text>
  <text x="30" y="178.38461538461542" class="label" text-anchor="end">30</text>
  <text x="30" y="116.84615384615384" class="label" text-anchor="end">40</text>
  <text x="30" y="55.30769230769232" class="label" text-anchor="end">50</text>
</svg>