<svg xmlns="http://www.w3.org/2000/svg" width="800" height="400" viewBox="0 0 800 400">
  <style>
    .axis{stroke:#666;stroke-width:1}
    .line{stroke:#4a9;stroke-width:2;fill:none}
    .point{fill:#4a9;r:4}
    .label{font:10px sans-serif;fill:#aaa}
    .title{font:14px sans-serif;fill:#333}
  </style>
  <text x="400" y="20" class="title" text-anchor="middle">OPIC Field Growth Timeline</text>
  <line x1="40" y1="40" x2="40" y2="360" class="axis"/>
  <line x1="40" y1="360" x2="760" y2="360" class="axis"/>
  <path d="M 40.0,101.53846153846155 L 46.05042016806723,101.53846153846155 L 52.10084033613445,101.53846153846155 L 58.15126050420168,101.53846153846155 L 64.2016806722689,101.53846153846155 L 70.25210084033614,101.53846153846155 L 76.30252100840336,101.53846153846155 L 82.35294117647058,101.53846153846155 L 88.40336134453781,101.53846153846155 L 94.45378151260505,101.53846153846155 L 100.50420168067228,101.53846153846155 L 106.5546218487395,101.53846153846155 L 112.60504201680672,101.53846153846155 L 118.65546218487395,101.53846153846155 L 124.70588235294117,101.53846153846155 L 130.7563025210084,101.53846153846155 L 136.80672268907563,101.53846153846155 L 142.85714285714283,101.53846153846155 L 148.9075630252101,101.53846153846155 L 154.9579831932773,101.53846153846155 L 161.00840336134456,101.53846153846155 L 167.05882352941177,101.53846153846155 L 173.109243697479,101.53846153846155 L 179.15966386554624,101.53846153846155 L 185.21008403361344,101.53846153846155 L 191.26050420168067,101.53846153846155 L 197.3109243697479,101.53846153846155 L 203.3613445378151,40.0 L 209.41176470588235,40.0 L 215.46218487394958,40.0 L 221.5126050420168,40.0 L 227.56302521008405,40.0 L 233.61344537815125,40.0 L 239.6638655462185,40.0 L 245.7142857142857,40.0 L 251.76470588235296,40.0 L 257.8151260504202,40.0 L 263.8655462184874,40.0 L 269.9159663865546,40.0 L 275.96638655462186,40.0 L 282.0168067226891,40.0 L 288.0672268907563,40.0 L 294.11764705882354,40.0 L 300.16806722689074,40.0 L 306.218487394958,40.0 L 312.2689075630252,40.0 L 318.31932773109247,40.0 L 324.3697478991597,40.0 L 330.4201680672269,40.0 L 336.4705882352941,40.0 L 342.52100840336135,40.0 L 348.57142857142856,40.0 L 354.6218487394958,40.0 L 360.672268907563,40.0 L 366.7226890756302,40.0 L 372.7731092436975,40.0 L 378.8235294117647,40.0 L 384.87394957983196,40.0 L 390.92436974789916,40.0 L 396.9747899159664,40.0 L 403.0252100840336,40.0 L 409.07563025210084,40.0 L 415.1260504201681,40.0 L 421.1764705882353,40.0 L 427.2268907563025,40.0 L 433.2773109243697,40.0 L 439.327731092437,40.0 L 445.3781512605042,40.0 L 451.4285714285714,40.0 L 457.4789915966387,40.0 L 463.5294117647059,40.0 L 469.5798319327731,40.0 L 475.6302521008403,40.0 L 481.6806722689076,40.0 L 487.7310924369748,40.0 L 493.781512605042,40.0 L 499.8319327731092,40.0 L 505.8823529411765,40.0 L 511.9327731092437,40.0 L 517.9831932773109,40.0 L 524.0336134453783,40.0 L 530.0840336134454,40.0 L 536.1344537815125,40.0 L 542.1848739495798,40.0 L 548.2352941176471,40.0 L 554.2857142857143,40.0 L 560.3361344537815,40.0 L 566.3865546218487,40.0 L 572.436974789916,40.0 L 578.4873949579832,40.0 L 584.5378151260504,40.0 L 590.5882352941176,40.0 L 596.6386554621849,40.0 L 602.6890756302521,40.0 L 608.7394957983194,40.0 L 614.7899159663866,40.0 L 620.8403361344538,40.0 L 626.890756302521,40.0 L 632.9411764705882,40.0 L 638.9915966386554,40.0 L 645.0420168067227,40.0 L 651.0924369747898,40.0 L 657.1428571428571,40.0 L 663.1932773109244,40.0 L 669.2436974789916,40.0 L 675.2941176470588,40.0 L 681.344537815126,40.0 L 687.3949579831933,40.0 L 693.4453781512605,40.0 L 699.4957983193277,40.0 L 705.546218487395,40.0 L 711.5966386554622,40.0 L 717.6470588235294,40.0 L 723.6974789915967,40.0 L 729.7478991596639,40.0 L 735.7983193277311,40.0 L 741.8487394957983,40.0 L 747.8991596638655,40.0 L 753.9495798319329,40.0 L 760.0,40.0" class="line"/>
  <circle cx="40.0" cy="101.53846153846155" class="point"/>
  <text x="40.0" y="375" class="label" text-anchor="middle">2025-11-11</text>
  <text x="40.0" y="96.53846153846155" class="label" text-anchor="middle">42</text>
  <circle cx="46.05042016806723" cy="101.53846153846155" class="point"/>
  <text x="46.05042016806723" y="375" class="label" text-anchor="middle">2025-11-12</text>
  <text x="46.05042016806723" y="96.53846153846155" class="label" text-anchor="middle">42</text>
  <circle cx="52.10084033613445" cy="101.53846153846155" class="point"/>
  <text x="52.10084033613445" y="375" class="label" text-anchor="middle">2025-11-13</text>
  <text x="52.10084033613445" y="96.53846153846155" class="label" text-anchor="middle">42</text>
  <circle cx="58.15126050420168" cy="101.53846153846155" class="point"/>
  <text x="58.15126050420168" y="375" class="label" text-anchor="middle">2025-11-14</text>
  <text x="58.15126050420168" y="96.53846153846155" class="label" text-anchor="middle">42</text>
  <circle cx="64.2016806722689" cy="101.53846153846155" class="point"/>
  <text x="64.2016806722689" y="375" class="label" text-anchor="middle">2025-11-15</text>
  <text x="64.2016806722689" y="96.53846153846155" class="label" text-anchor="middle">42</text>
  <circle cx="70.25210084033614" cy="101.53846153846155" class="point"/>
  <text x="70.25210084033614" y="375" class="label" text-anchor="middle">2025-11-16</text>
  <text x="70.25210084033614" y="96.53846153846155" class="label" text-anchor="middle">42</text>
  <circle cx="76.30252100840336" cy="101.53846153846155" class="point"/>
  <text x="76.30252100840336" y="375" class="label" text-anchor="middle">2025-11-17</text>
  <text x="76.30252100840336" y="96.53846153846155" class="label" text-anchor="middle">42</text>
  <circle cx="82.35294117647058" cy="101.53846153846155" class="point"/>
  <text x="82.35294117647058" y="375" class="label" text-anchor="middle">2025-11-18</text>
  <text x="82.35294117647058" y="96.53846153846155" class="label" text-anchor="middle">42</text>
  <circle cx="88.40336134453781" cy="101.53846153846155" class="point"/>
  <text x="88.40336134453781" y="375" class="label" text-anchor="middle">2025-11-19</text>
  <text x="88.40336134453781" y="96.53846153846155" class="label" text-anchor="middle">42</text>
  <circle cx="94.45378151260505" cy="101.53846153846155" class="point"/>
  <text x="94.45378151260505" y="375" class="label" text-anchor="middle">2025-11-20</text>
  <text x="94.45378151260505" y="96.53846153846155" class="label" text-anchor="middle">42</text>
  <circle cx="100.50420168067228" cy="101.53846153846155" class="point"/>
  <text x="100.50420168067228" y="375" class="label" text-anchor="middle">2025-11-21</text>
  <text x="100.50420168067228" y="96.53846153846155" class="label" text-anchor="middle">42</text>
  <circle cx="106.5546218487395" cy="101.53846153846155" class="point"/>
  <text x="106.5546218487395" y="375" class="label" text-anchor="middle">2025-11-22</text>
  <text x="106.5546218487395" y="96.53846153846155" class="label" text-anchor="middle">42</text>
  <circle cx="112.60504201680672" cy="101.53846153846155" class="point"/>
  <text x="112.60504201680672" y="375" class="label" text-anchor="middle">2025-11-23</text>
  <text x="112.60504201680672" y="96.53846153846155" class="label" text-anchor="middle">42</text>
  <circle cx="118.65546218487395" cy="101.53846153846155" class="point"/>
  <text x="118.65546218487395" y="375" class="label" text-anchor="middle">2025-11-24</text>
  <text x="118.65546218487395" y="96.53846153846155" class="label" text-anchor="middle">42</text>
  <circle cx="124.70588235294117" cy="101.53846153846155" class="point"/>
  <text x="124.70588235294117" y="375" class="label" text-anchor="middle">2025-11-25</text>
  <text x="124.70588235294117" y="96.53846153846155" class="label" text-anchor="middle">42</text>
  <circle cx="130.7563025210084" cy="101.53846153846155" class="point"/>
  <text x="130.7563025210084" y="375" class="label" text-anchor="middle">2025-11-26</text>
  <text x="130.7563025210084" y="96.53846153846155" class="label" text-anchor="middle">42</text>
  <circle cx="136.80672268907563" cy="101.53846153846155" class="point"/>
  <text x="136.80672268907563" y="375" class="label" text-anchor="middle">2025-11-27</text>
  <text x="136.80672268907563" y="96.53846153846155" class="label" text-anchor="middle">42</text>
  <circle cx="142.85714285714283" cy="101.53846153846155" class="point"/>
  <text x="142.85714285714283" y="375" class="label" text-anchor="middle">2025-11-28</text>
  <text x="142.85714285714283" y="96.53846153846155" class="label" text-anchor="middle">42</text>
  <circle cx="148.9075630252101" cy="101.53846153846155" class="point"/>
  <text x="148.9075630252101" y="375" class="label" text-anchor="middle">2025-11-29</text>
  <text x="148.9075630252101" y="96.53846153846155" class="label" text-anchor="middle">42</text>
  <circle cx="154.9579831932773" cy="101.53846153846155" class="point"/>
  <text x="154.9579831932773" y="375" class="label" text-anchor="middle">2025-11-30</text>
  <text x="154.9579831932773" y="96.53846153846155" class="label" text-anchor="middle">42</text>
  <circle cx="161.00840336134456" cy="101.53846153846155" class="point"/>
  <text x="161.00840336134456" y="375" class="label" text-anchor="middle">2025-12-01</text>
  <text x="161.00840336134456" y="96.53846153846155" class="label" text-anchor="middle">42</text>
  <circle cx="167.05882352941177" cy="101.53846153846155" class="point"/>
  <text x="167.05882352941177" y="375" class="label" text-anchor="middle">2025-12-02</text>
  <text x="167.05882352941177" y="96.53846153846155" class="label" text-anchor="middle">42</text>
  <circle cx="173.109243697479" cy="101.53846153846155" class="point"/>
  <text x="173.109243697479" y="375" class="label" text-anchor="middle">2025-12-03</text>
  <text x="173.109243697479" y="96.53846153846155" class="label" text-anchor="middle">42</text>
  <circle cx="179.15966386554624" cy="101.53846153846155" class="point"/>
  <text x="179.15966386554624" y="375" class="label" text-anchor="middle">2025-12-04</text>
  <text x="179.15966386554624" y="96.53846153846155" class="label" text-anchor="middle">42</text>
  <circle cx="185.21008403361344" cy="101.53846153846155" class="point"/>
  <text x="185.21008403361344" y="375" class="label" text-anchor="middle">2025-12-05</text>
  <text x="185.21008403361344" y="96.53846153846155" class="label" text-anchor="middle">42</text>
  <circle cx="191.26050420168067" cy="101.53846153846155" class="point"/>
  <text x="191.26050420168067" y="375" class="label" text-anchor="middle">2025-12-06</text>
  <text x="191.26050420168067" y="96.53846153846155" class="label" text-anchor="middle">42</text>
  <circle cx="197.3109243697479" cy="101.53846153846155" class="point"/>
  <text x="197.3109243697479" y="375" class="label" text-anchor="middle">2025-12-07</text>
  <text x="197.3109243697479" y="96.53846153846155" class="label" text-anchor="middle">42</text>
  <circle cx="203.3613445378151" cy="40.0" class="point"/>
  <text x="203.3613445378151" y="375" class="label" text-anchor="middle">2025-12-08</text>
  <text x="203.3613445378151" y="35.0" class="label" text-anchor="middle">52</text>
  <circle cx="209.41176470588235" cy="40.0" class="point"/>
  <text x="209.41176470588235" y="375" class="label" text-anchor="middle">2025-12-09</text>
  <text x="209.41176470588235" y="35.0" class="label" text-anchor="middle">52</text>
  <circle cx="215.46218487394958" cy="40.0" class="point"/>
  <text x="215.46218487394958" y="375" class="label" text-anchor="middle">2025-12-10</text>
  <text x="215.46218487394958" y="35.0" class="label" text-anchor="middle">52</text>
  <circle cx="221.5126050420168" cy="40.0" class="point"/>
  <text x="221.5126050420168" y="375" class="label" text-anchor="middle">2025-12-11</text>
  <text x="221.5126050420168" y="35.0" class="label" text-anchor="middle">52</text>
  <circle cx="227.56302521008405" cy="40.0" class="point"/>
  <text x="227.56302521008405" y="375" class="label" text-anchor="middle">2025-12-12</text>
  <text x="227.56302521008405" y="35.0" class="label" text-anchor="middle">52</text>
  <circle cx="233.61344537815125" cy="40.0" class="point"/>
  <text x="233.61344537815125" y="375" class="label" text-anchor="middle">2025-12-13</text>
  <text x="233.61344537815125" y="35.0" class="label" text-anchor="middle">52</text>
  <circle cx="239.6638655462185" cy="40.0" class="point"/>
  <text x="239.6638655462185" y="375" class="label" text-anchor="middle">2025-12-14</text>
  <text x="239.6638655462185" y="35.0" class="label" text-anchor="middle">52</text>
  <circle cx="245.7142857142857" cy="40.0" class="point"/>
  <text x="245.7142857142857" y="375" class="label" text-anchor="middle">2025-12-15</text>
  <text x="245.7142857142857" y="35.0" class="label" text-anchor="middle">52</text>
  <circle cx="251.76470588235296" cy="40.0" class="point"/>
  <text x="251.76470588235296" y="375" class="label" text-anchor="middle">2025-12-16</text>
  <text x="251.76470588235296" y="35.0" class="label" text-anchor="middle">52</text>
  <circle cx="257.8151260504202" cy="40.0" class="point"/>
  <text x="257.8151260504202" y="375" class="label" text-anchor="middle">2025-12-17</text>
  <text x="257.8151260504202" y="35.0" class="label" text-anchor="middle">52</text>
  <circle cx="263.8655462184874" cy="40.0" class="point"/>
  <text x="263.8655462184874" y="375" class="label" text-anchor="middle">2025-12-18</text>
  <text x="263.8655462184874" y="35.0" class="label" text-anchor="middle">52</text>
  <circle cx="269.9159663865546" cy="40.0" class="point"/>
  <text x="269.9159663865546" y="375" class="label" text-anchor="middle">2025-12-19</text>
  <text x="269.9159663865546" y="35.0" class="label" text-anchor="middle">52</text>
  <circle cx="275.96638655462186" cy="40.0" class="point"/>
  <text x="275.96638655462186" y="375" class="label" text-anchor="middle">2025-12-20</text>
  <text x="275.96638655462186" y="35.0" class="label" text-anchor="middle">52</text>
  <circle cx="282.0168067226891" cy="40.0" class="point"/>
  <text x="282.0168067226891" y="375" class="label" text-anchor="middle">2025-12-21</text>
  <text x="282.0168067226891" y="35.0" class="label" text-anchor="middle">52</text>
  <circle cx="288.0672268907563" cy="40.0" class="point"/>
  <text x="288.0672268907563" y="375" class="label" text-anchor="middle">2025-12-22</text>
  <text x="288.0672268907563" y="35.0" class="label" text-anchor="middle">52</text>
  <circle cx="294.11764705882354" cy="40.0" class="point"/>
  <text x="294.11764705882354" y="375" class="label" text-anchor="middle">2025-12-23</text>
  <text x="294.11764705882354" y="35.0" class="label" text-anchor="middle">52</text>
  <circle cx="300.16806722689074" cy="40.0" class="point"/>
  <text x="300.16806722689074" y="375" class="label" text-anchor="middle">2025-12-24</text>
  <text x="300.16806722689074" y="35.0" class="label" text-anchor="middle">52</text>
  <circle cx="306.218487394958" cy="40.0" class="point"/>
  <text x="306.218487394958" y="375" class="label" text-anchor="middle">2025-12-25</text>
  <text x="306.218487394958" y="35.0" class="label" text-anchor="middle">52</text>
  <circle cx="312.2689075630252" cy="40.0" class="point"/>
  <text x="312.2689075630252" y="375" class="label" text-anchor="middle">2025-12-26</text>
  <text x="312.2689075630252" y="35.0" class="label" text-anchor="middle">52</text>
  <circle cx="318.31932773109247" cy="40.0" class="point"/>
  <text x="318.31932773109247" y="375" class="label" text-anchor="middle">2025-12-27</text>
  <text x="318.31932773109247" y="35.0" class="label" text-anchor="middle">52</text>
  <circle cx="324.3697478991597" cy="40.0" class="point"/>
  <text x="324.3697478991597" y="375" class="label" text-anchor="middle">2025-12-28</text>
  <text x="324.3697478991597" y="35.0" class="label" text-anchor="middle">52</text>
  <circle cx="330.4201680672269" cy="40.0" class="point"/>
  <text x="330.4201680672269" y="375" class="label" text-anchor="middle">2025-12-29</text>
  <text x="330.4201680672269" y="35.0" class="label" text-anchor="middle">52</text>
  <circle cx="336.4705882352941" cy="40.0" class="point"/>
  <text x="336.4705882352941" y="375" class="label" text-anchor="middle">2025-12-30</text>
  <text x="336.4705882352941" y="35.0" class="label" text-anchor="middle">52</text>
  <circle cx="342.52100840336135" cy="40.0" class="point"/>
  <text x="342.52100840336135" y="375" class="label" text-anchor="middle">2025-12-31</text>
  <text x="342.52100840336135" y="35.0" class="label" text-anchor="middle">52</text>
  <circle cx="348.57142857142856" cy="40.0" class="point"/>
  <text x="348.57142857142856" y="375" class="label" text-anchor="middle">2026-01-01</text>
  <text x="348.57142857142856" y="35.0" class="label" text-anchor="middle">52</text>
  <circle cx="354.6218487394958" cy="40.0" class="point"/>
  <text x="354.6218487394958" y="375" class="label" text-anchor="middle">2026-01-02</text>
  <text x="354.6218487394958" y="35.0" class="label" text-anchor="middle">52</text>
  <circle cx="360.672268907563" cy="40.0" class="point"/>
  <text x="360.672268907563" y="375" class="label" text-anchor="middle">2026-01-03</text>
  <text x="360.672268907563" y="35.0" class="label" text-anchor="middle">52</text>
  <circle cx="366.7226890756302" cy="40.0" class="point"/>
  <text x="366.7226890756302" y="375" class="label" text-anchor="middle">2026-01-04</text>
  <text x="366.7226890756302" y="35.0" class="label" text-anchor="middle">52</text>
  <circle cx="372.7731092436975" cy="40.0" class="point"/>
  <text x="372.7731092436975" y="375" class="label" text-anchor="middle">2026-01-05</text>
  <text x="372.7731092436975" y="35.0" class="label" text-anchor="middle">52</text>
  <circle cx="378.8235294117647" cy="40.0" class="point"/>
  <text x="378.8235294117647" y="375" class="label" text-anchor="middle">2026-01-06</text>
  <text x="378.8235294117647" y="35.0" class="label" text-anchor="middle">52</text>
  <circle cx="384.87394957983196" cy="40.0" class="point"/>
  <text x="384.87394957983196" y="375" class="label" text-anchor="middle">2026-01-07</text>
  <text x="384.87394957983196" y="35.0" class="label" text-anchor="middle">52</text>
  <circle cx="390.92436974789916" cy="40.0" class="point"/>
  <text x="390.92436974789916" y="375" class="label" text-anchor="middle">2026-01-08</text>
  <text x="390.92436974789916" y="35.0" class="label" text-anchor="middle">52</text>
  <circle cx="396.9747899159664" cy="40.0" class="point"/>
  <text x="396.9747899159664" y="375" class="label" text-anchor="middle">2026-01-09</text>
  <text x="396.9747899159664" y="35.0" class="label" text-anchor="middle">52</text>
  <circle cx="403.0252100840336" cy="40.0" class="point"/>
  <text x="403.0252100840336" y="375" class="label" text-anchor="middle">2026-01-10</text>
  <text x="403.0252100840336" y="35.0" class="label" text-anchor="middle">52</text>
  <circle cx="409.07563025210084" cy="40.0" class="point"/>
  <text x="409.07563025210084" y="375" class="label" text-anchor="middle">2026-01-11</text>
  <text x="409.07563025210084" y="35.0" class="label" text-anchor="middle">52</text>
  <circle cx="415.1260504201681" cy="40.0" class="point"/>
  <text x="415.1260504201681" y="375" class="label" text-anchor="middle">2026-01-12</text>
  <text x="415.1260504201681" y="35.0" class="label" text-anchor="middle">52</text>
  <circle cx="421.1764705882353" cy="40.0" class="point"/>
  <text x="421.1764705882353" y="375" class="label" text-anchor="middle">2026-01-13</text>
  <text x="421.1764705882353" y="35.0" class="label" text-anchor="middle">52</text>
  <circle cx="427.2268907563025" cy="40.0" class="point"/>
  <text x="427.2268907563025" y="375" class="label" text-anchor="middle">2026-01-14</text>
  <text x="427.2268907563025" y="35.0" class="label" text-anchor="middle">52</text>
  <circle cx="433.2773109243697" cy="40.0" class="point"/>
  <text x="433.2773109243697" y="375" class="label" text-anchor="middle">2026-01-15</text>
  <text x="433.2773109243697" y="35.0" class="label" text-anchor="middle">52</text>
  <circle cx="439.327731092437" cy="40.0" class="point"/>
  <text x="439.327731092437" y="375" class="label" text-anchor="middle">2026-01-16</text>
  <text x="439.327731092437" y="35.0" class="label" text-anchor="middle">52</text>
  <circle cx="445.3781512605042" cy="40.0" class="point"/>
  <text x="445.3781512605042" y="375" class="label" text-anchor="middle">2026-01-17</text>
  <text x="445.3781512605042" y="35.0" class="label" text-anchor="middle">52</text>
  <circle cx="451.4285714285714" cy="40.0" class="point"/>
  <text x="451.4285714285714" y="375" class="label" text-anchor="middle">2026-01-18</text>
  <text x="451.4285714285714" y="35.0" class="label" text-anchor="middle">52</text>
  <circle cx="457.4789915966387" cy="40.0" class="point"/>
  <text x="457.4789915966387" y="375" class="label" text-anchor="middle">2026-01-19</text>
  <text x="457.4789915966387" y="35.0" class="label" text-anchor="middle">52</text>
  <circle cx="463.5294117647059" cy="40.0" class="point"/>
  <text x="463.5294117647059" y="375" class="label" text-anchor="middle">2026-01-20</text>
  <text x="463.5294117647059" y="35.0" class="label" text-anchor="middle">52</text>
  <circle cx="469.5798319327731" cy="40.0" class="point"/>
  <text x="469.5798319327731" y="375" class="label" text-anchor="middle">2026-01-21</text>
  <text x="469.5798319327731" y="35.0" class="label" text-anchor="middle">52</text>
  <circle cx="475.6302521008403" cy="40.0" class="point"/>
  <text x="475.6302521008403" y="375" class="label" text-anchor="middle">2026-01-22</text>
  <text x="475.6302521008403" y="35.0" class="label" text-anchor="middle">52</text>
  <circle cx="481.6806722689076" cy="40.0" class="point"/>
  <text x="481.6806722689076" y="375" class="label" text-anchor="middle">2026-01-23</text>
  <text x="481.6806722689076" y="35.0" class="label" text-anchor="middle">52</text>
  <circle cx="487.7310924369748" cy="40.0" class="point"/>
  <text x="487.7310924369748" y="375" class="label" text-anchor="middle">2026-01-24</text>
  <text x="487.7310924369748" y="35.0" class="label" text-anchor="middle">52</text>
  <circle cx="493.781512605042" cy="40.0" class="point"/>
  <text x="493.781512605042" y="375" class="label" text-anchor="middle">2026-01-25</text>
  <text x="493.781512605042" y="35.0" class="label" text-anchor="middle">52</text>
  <circle cx="499.8319327731092" cy="40.0" class="point"/>
  <text x="499.8319327731092" y="375" class="label" text-anchor="middle">2026-01-26</text>
  <text x="499.8319327731092" y="35.0" class="label" text-anchor="middle">52</text>
  <circle cx="505.8823529411765" cy="40.0" class="point"/>
  <text x="505.8823529411765" y="375" class="label" text-anchor="middle">2026-01-27</text>
  <text x="505.8823529411765" y="35.0" class="label" text-anchor="middle">52</text>
  <circle cx="511.9327731092437" cy="40.0" class="point"/>
  <text x="511.9327731092437" y="375" class="label" text-anchor="middle">2026-01-28</text>
  <text x="511.9327731092437" y="35.0" class="label" text-anchor="middle">52</text>
  <circle cx="517.9831932773109" cy="40.0" class="point"/>
  <text x="517.9831932773109" y="375" class="label" text-anchor="middle">2026-01-29</text>
  <text x="517.9831932773109" y="35.0" class="label" text-anchor="middle">52</text>
  <circle cx="524.0336134453783" cy="40.0" class="point"/>
  <text x="524.0336134453783" y="375" class="label" text-anchor="middle">2026-01-30</text>
  <text x="524.0336134453783" y="35.0" class="label" text-anchor="middle">52</text>
  <circle cx="530.0840336134454" cy="40.0" class="point"/>
  <text x="530.0840336134454" y="375" class="label" text-anchor="middle">2026-01-31</text>
  <text x="530.0840336134454" y="35.0" class="label" text-anchor="middle">52</text>
  <circle cx="536.1344537815125" cy="40.0" class="point"/>
  <text x="536.1344537815125" y="375" class="label" text-anchor="middle">2026-02-01</text>
  <text x="536.1344537815125" y="35.0" class="label" text-anchor="middle">52</text>
  <circle cx="542.1848739495798" cy="40.0" class="point"/>
  <text x="542.1848739495798" y="375" class="label" text-anchor="middle">2026-02-02</text>
  <text x="542.1848739495798" y="35.0" class="label" text-anchor="middle">52</text>
  <circle cx="548.2352941176471" cy="40.0" class="point"/>
  <text x="548.2352941176471" y="375" class="label" text-anchor="middle">2026-02-03</text>
  <text x="548.2352941176471" y="35.0" class="label" text-anchor="middle">52</text>
  <circle cx="554.2857142857143" cy="40.0" class="point"/>
  <text x="554.2857142857143" y="375" class="label" text-anchor="middle">2026-02-04</text>
  <text x="554.2857142857143" y="35.0" class="label" text-anchor="middle">52</text>
  <circle cx="560.3361344537815" cy="40.0" class="point"/>
  <text x="560.3361344537815" y="375" class="label" text-anchor="middle">2026-02-05</text>
  <text x="560.3361344537815" y="35.0" class="label" text-anchor="middle">52</text>
  <circle cx="566.3865546218487" cy="40.0" class="point"/>
  <text x="566.3865546218487" y="375" class="label" text-anchor="middle">2026-02-06</text>
  <text x="566.3865546218487" y="35.0" class="label" text-anchor="middle">52</text>
  <circle cx="572.436974789916" cy="40.0" class="point"/>
  <text x="572.436974789916" y="375" class="label" text-anchor="middle">2026-02-07</text>
  <text x="572.436974789916" y="35.0" class="label" text-anchor="middle">52</text>
  <circle cx="578.4873949579832" cy="40.0" class="point"/>
  <text x="578.4873949579832" y="375" class="label" text-anchor="middle">2026-02-08</text>
  <text x="578.4873949579832" y="35.0" class="label" text-anchor="middle">52</text>
  <circle cx="584.5378151260504" cy="40.0" class="point"/>
  <text x="584.5378151260504" y="375" class="label" text-anchor="middle">2026-02-09</text>
  <text x="584.5378151260504" y="35.0" class="label" text-anchor="middle">52</text>
  <circle cx="590.5882352941176" cy="40.0" class="point"/>
  <text x="590.5882352941176" y="375" class="label" text-anchor="middle">2026-02-10</text>
  <text x="590.5882352941176" y="35.0" class="label" text-anchor="middle">52</text>
  <circle cx="596.6386554621849" cy="40.0" class="point"/>
  <text x="596.6386554621849" y="375" class="label" text-anchor="middle">2026-02-11</text>
  <text x="596.6386554621849" y="35.0" class="label" text-anchor="middle">52</text>
  <circle cx="602.6890756302521" cy="40.0" class="point"/>
  <text x="602.6890756302521" y="375" class="label" text-anchor="middle">2026-02-12</text>
  <text x="602.6890756302521" y="35.0" class="label" text-anchor="middle">52</text>
  <circle cx="608.7394957983194" cy="40.0" class="point"/>
  <text x="608.7394957983194" y="375" class="label" text-anchor="middle">2026-02-13</text>
  <text x="608.7394957983194" y="35.0" class="label" text-anchor="middle">52</text>
  <circle cx="614.7899159663866" cy="40.0" class="point"/>
  <text x="614.7899159663866" y="375" class="label" text-anchor="middle">2026-02-14</text>
  <text x="614.7899159663866" y="35.0" class="label" text-anchor="middle">52</text>
  <circle cx="620.8403361344538" cy="40.0" class="point"/>
  <text x="620.8403361344538" y="375" class="label" text-anchor="middle">2026-02-15</text>
  <text x="620.8403361344538" y="35.0" class="label" text-anchor="middle">52</text>
  <circle cx="626.890756302521" cy="40.0" class="point"/>
  <text x="626.890756302521" y="375" class="label" text-anchor="middle">2026-02-16</text>
  <text x="626.890756302521" y="35.0" class="label" text-anchor="middle">52</text>
  <circle cx="632.9411764705882" cy="40.0" class="point"/>
  <text x="632.9411764705882" y="375" class="label" text-anchor="middle">2026-02-17</text>
  <text x="632.9411764705882" y="35.0" class="label" text-anchor="middle">52</text>
  <circle cx="638.9915966386554" cy="40.0" class="point"/>
  <text x="638.9915966386554" y="375" class="label" text-anchor="middle">2026-02-18</text>
  <text x="638.9915966386554" y="35.0" class="label" text-anchor="middle">52</text>
  <circle cx="645.0420168067227" cy="40.0" class="point"/>
  <text x="645.0420168067227" y="375" class="label" text-anchor="middle">2026-02-19</text>
  <text x="645.0420168067227" y="35.0" class="label" text-anchor="middle">52</text>
  <circle cx="651.0924369747898" cy="40.0" class="point"/>
  <text x="651.0924369747898" y="375" class="label" text-anchor="middle">2026-02-20</text>
  <text x="651.0924369747898" y="35.0" class="label" text-anchor="middle">52</text>
  <circle cx="657.1428571428571" cy="40.0" class="point"/>
  <text x="657.1428571428571" y="375" class="label" text-anchor="middle">2026-02-21</text>
  <text x="657.1428571428571" y="35.0" class="label" text-anchor="middle">52</text>
  <circle cx="663.1932773109244" cy="40.0" class="point"/>
  <text x="663.1932773109244" y="375" class="label" text-anchor="middle">2026-02-22</text>
  <text x="663.1932773109244" y="35.0" class="label" text-anchor="middle">52</text>
  <circle cx="669.2436974789916" cy="40.0" class="point"/>
  <text x="669.2436974789916" y="375" class="label" text-anchor="middle">2026-02-23</text>
  <text x="669.2436974789916" y="35.0" class="label" text-anchor="middle">52</text>
  <circle cx="675.2941176470588" cy="40.0" class="point"/>
  <text x="675.2941176470588" y="375" class="label" text-anchor="middle">2026-02-24</text>
  <text x="675.2941176470588" y="35.0" class="label" text-anchor="middle">52</text>
  <circle cx="681.344537815126" cy="40.0" class="point"/>
  <text x="681.344537815126" y="375" class="label" text-anchor="middle">2026-02-25</text>
  <text x="681.344537815126" y="35.0" class="label" text-anchor="middle">52</text>
  <circle cx="687.3949579831933" cy="40.0" class="point"/>
  <text x="687.3949579831933" y="375" class="label" text-anchor="middle">2026-02-26</text>
  <text x="687.3949579831933" y="35.0" class="label" text-anchor="middle">52</text>
  <circle cx="693.4453781512605" cy="40.0" class="point"/>
  <text x="693.4453781512605" y="375" class="label" text-anchor="middle">2026-02-27</text>
  <text x="693.4453781512605" y="35.0" class="label" text-anchor="middle">52</text>
  <circle cx="699.4957983193277" cy="40.0" class="point"/>
  <text x="699.4957983193277" y="375" class="label" text-anchor="middle">2026-02-28</text>
  <text x="699.4957983193277" y="35.0" class="label" text-anchor="middle">52</text>
  <circle cx="705.546218487395" cy="40.0" class="point"/>
  <text x="705.546218487395" y="375" class="label" text-anchor="middle">2026-03-01</text>
  <text x="705.546218487395" y="35.0" class="label" text-anchor="middle">52</text>
  <circle cx="711.5966386554622" cy="40.0" class="point"/>
  <text x="711.5966386554622" y="375" class="label" text-anchor="middle">2026-03-02</text>
  <text x="711.5966386554622" y="35.0" class="label" text-anchor="middle">52</text>
  <circle cx="717.6470588235294" cy="40.0" class="point"/>
  <text x="717.6470588235294" y="375" class="label" text-anchor="middle">2026-03-03</text>
  <text x="717.6470588235294" y="35.0" class="label" text-anchor="middle">52</text>
  <circle cx="723.6974789915967" cy="40.0" class="point"/>
  <text x="723.6974789915967" y="375" class="label" text-anchor="middle">2026-03-04</text>
  <text x="723.6974789915967" y="35.0" class="label" text-anchor="middle">52</text>
  <circle cx="729.7478991596639" cy="40.0" class="point"/>
  <text x="729.7478991596639" y="375" class="label" text-anchor="middle">2026-03-05</text>
  <text x="729.7478991596639" y="35.0" class="label" text-anchor="middle">52</text>
  <circle cx="735.7983193277311" cy="40.0" class="point"/>
  <text x="735.7983193277311" y="375" class="label" text-anchor="middle">2026-03-06</text>
  <text x="735.7983193277311" y="35.0" class="label" text-anchor="middle">52</text>
  <circle cx="741.8487394957983" cy="40.0" class="point"/>
  <text x="741.8487394957983" y="375" class="label" text-anchor="middle">2026-03-07</text>
  <text x="741.8487394957983" y="35.0" class="label" text-anchor="middle">52</text>
  <circle cx="747.8991596638655" cy="40.0" class="point"/>
  <text x="747.8991596638655" y="375" class="label" text-anchor="middle">2026-03-08</text>
  <text x="747.8991596638655" y="35.0" class="label" text-anchor="middle">52</text>
  <circle cx="753.9495798319329" cy="40.0" class="point"/>
  <text x="753.9495798319329" y="375" class="label" text-anchor="middle">2026-03-09</text>
  <text x="753.9495798319329" y="35.0" class="label" text-anchor="middle">52</text>
  <circle cx="760.0" cy="40.0" class="point"/>
  <text x="760.0" y="375" class="label" text-anchor="middle">2026-03-10</text>
  <text x="760.0" y="35.0" class="label" text-anchor="middle">52</text>
  <text x="30" y="363.0" class="label" text-anchor="end">0</text>
  <text x="30" y="301.46153846153845" class="label" text-anchor="end">10</text>
  <text x="30" y="239.9230769230769" class="label" text-anchor="end">20</text>
  <text x="30" y="178.38461538461542" class="label" text-anchor="end">30</text>
  <text x="30" y="116.84615384615384" class="label" text-anchor="end">40</text>
  <text x="30" y="55.30769230769232" class="label" text-anchor="end">50</text>
</svg>