<svg xmlns="http://www.w3.org/2000/svg" width="800" height="400" viewBox="0 0 800 400">
  <style>
    .axis{stroke:#666;stroke-width:1}
    .line{stroke:#4a9;stroke-width:2;fill:none}
    .point{fill:#4a9;r:4}
    .label{font:10px sans-serif;fill:#aaa}
    .title{font:14px sans-serif;fill:#333}
  </style>
  <text x="400" y="20" class="title" text-anchor="middle">OPIC Field Growth Timeline</text>
  <line x1="40" y1="40" x2="40" y2="360" class="axis"/>
  <line x1="40" y1="360" x2="760" y2="360" class="axis"/>
  <path d="M 40.0,101.53846153846155 L 46.92307692307692,101.53846153846155 L 53.84615384615385,101.53846153846155 L 60.769230769230774,101.53846153846155 L 67.6923076923077,101.53846153846155 L 74.61538461538461,101.53846153846155 L 81.53846153846155,101.53846153846155 L 88.46153846153845,101.53846153846155 L 95.38461538461539,101.53846153846155 L 102.3076923076923,101.53846153846155 L 109.23076923076924,101.53846153846155 L 116.15384615384615,101.53846153846155 L 123.07692307692308,101.53846153846155 L 130.0,101.53846153846155 L 136.9230769230769,101.53846153846155 L 143.84615384615384,101.53846153846155 L 150.76923076923077,101.53846153846155 L 157.69230769230768,101.53846153846155 L 164.6153846153846,101.53846153846155 L 171.53846153846152,101.53846153846155 L 178.46153846153848,101.53846153846155 L 185.3846153846154,101.53846153846155 L 192.3076923076923,101.53846153846155 L 199.23076923076923,101.53846153846155 L 206.15384615384616,101.53846153846155 L 213.0769230769231,101.53846153846155 L 220.0,101.53846153846155 L 226.92307692307693,40.0 L 233.84615384615384,40.0 L 240.76923076923077,40.0 L 247.69230769230768,40.0 L 254.6153846153846,40.0 L 261.53846153846155,40.0 L 268.46153846153845,40.0 L 275.38461538461536,40.0 L 282.3076923076923,40.0 L 289.2307692307692,40.0 L 296.1538461538462,40.0 L 303.07692307692304,40.0 L 310.0,40.0 L 316.92307692307696,40.0 L 323.8461538461538,40.0 L 330.7692307692308,40.0 L 337.6923076923077,40.0 L 344.6153846153846,40.0 L 351.53846153846155,40.0 L 358.46153846153845,40.0 L 365.3846153846154,40.0 L 372.3076923076923,40.0 L 379.2307692307692,40.0 L 386.1538461538462,40.0 L 393.07692307692304,40.0 L 400.0,40.0 L 406.9230769230769,40.0 L 413.84615384615387,40.0 L 420.7692307692308,40.0 L 427.6923076923077,40.0 L 434.61538461538464,40.0 L 441.53846153846155,40.0 L 448.46153846153845,40.0 L 455.38461538461536,40.0 L 462.3076923076923,40.0 L 469.2307692307692,40.0 L 476.15384615384613,40.0 L 483.0769230769231,40.0 L 490.0,40.0 L 496.9230769230769,40.0 L 503.84615384615387,40.0 L 510.7692307692308,40.0 L 517.6923076923076,40.0 L 524.6153846153846,40.0 L 531.5384615384615,40.0 L 538.4615384615385,40.0 L 545.3846153846154,40.0 L 552.3076923076924,40.0 L 559.2307692307692,40.0 L 566.1538461538461,40.0 L 573.0769230769231,40.0 L 580.0,40.0 L 586.9230769230769,40.0 L 593.8461538461539,40.0 L 600.7692307692308,40.0 L 607.6923076923076,40.0 L 614.6153846153846,40.0 L 621.5384615384615,40.0 L 628.4615384615385,40.0 L 635.3846153846154,40.0 L 642.3076923076924,40.0 L 649.2307692307692,40.0 L 656.1538461538461,40.0 L 663.0769230769231,40.0 L 670.0,40.0 L 676.9230769230769,40.0 L 683.8461538461539,40.0 L 690.7692307692308,40.0 L 697.6923076923076,40.0 L 704.6153846153846,40.0 L 711.5384615384615,40.0 L 718.4615384615385,40.0 L 725.3846153846154,40.0 L 732.3076923076924,40.0 L 739.2307692307692,40.0 L 746.1538461538461,40.0 L 753.0769230769231,40.0 L 760.0,40.0" class="line"/>
  <circle cx="40.0" cy="101.53846153846155" class="point"/>
  <text x="40.0" y="375" class="label" text-anchor="middle">2025-11-11</text>
  <text x="40.0" y="96.53846153846155" class="label" text-anchor="middle">42</text>
  <circle cx="46.92307692307692" cy="101.53846153846155" class="point"/>
  <text x="46.92307692307692" y="375" class="label" text-anchor="middle">2025-11-12</text>
  <text x="46.92307692307692" y="96.53846153846155" class="label" text-anchor="middle">42</text>
  <circle cx="53.84615384615385" cy="101.53846153846155" class="point"/>
  <text x="53.84615384615385" y="375" class="label" text-anchor="middle">2025-11-13</text>
  <text x="53.84615384615385" y="96.53846153846155" class="label" text-anchor="middle">42</text>
  <circle cx="60.769230769230774" cy="101.53846153846155" class="point"/>
  <text x="60.769230769230774" y="375" class="label" text-anchor="middle">2025-11-14</text>
  <text x="60.769230769230774" y="96.53846153846155" class="label" text-anchor="middle">42</text>
  <circle cx="67.6923076923077" cy="101.53846153846155" class="point"/>
  <text x="67.6923076923077" y="375" class="label" text-anchor="middle">2025-11-15</text>
  <text x="67.6923076923077" y="96.53846153846155" class="label" text-anchor="middle">42</text>
  <circle cx="74.61538461538461" cy="101.53846153846155" class="point"/>
  <text x="74.61538461538461" y="375" class="label" text-anchor="middle">2025-11-16</text>
  <text x="74.61538461538461" y="96.53846153846155" class="label" text-anchor="middle">42</text>
  <circle cx="81.53846153846155" cy="101.53846153846155" class="point"/>
  <text x="81.53846153846155" y="375" class="label" text-anchor="middle">2025-11-17</text>
  <text x="81.53846153846155" y="96.53846153846155" class="label" text-anchor="middle">42</text>
  <circle cx="88.46153846153845" cy="101.53846153846155" class="point"/>
  <text x="88.46153846153845" y="375" class="label" text-anchor="middle">2025-11-18</text>
  <text x="88.46153846153845" y="96.53846153846155" class="label" text-anchor="middle">42</text>
  <circle cx="95.38461538461539" cy="101.53846153846155" class="point"/>
  <text x="95.38461538461539" y="375" class="label" text-anchor="middle">2025-11-19</text>
  <text x="95.38461538461539" y="96.53846153846155" class="label" text-anchor="middle">42</text>
  <circle cx="102.3076923076923" cy="101.53846153846155" class="point"/>
  <text x="102.3076923076923" y="375" class="label" text-anchor="middle">2025-11-20</text>
  <text x="102.3076923076923" y="96.53846153846155" class="label" text-anchor="middle">42</text>
  <circle cx="109.23076923076924" cy="101.53846153846155" class="point"/>
  <text x="109.23076923076924" y="375" class="label" text-anchor="middle">2025-11-21</text>
  <text x="109.23076923076924" y="96.53846153846155" class="label" text-anchor="middle">42</text>
  <circle cx="116.15384615384615" cy="101.53846153846155" class="point"/>
  <text x="116.15384615384615" y="375" class="label" text-anchor="middle">2025-11-22</text>
  <text x="116.15384615384615" y="96.53846153846155" class="label" text-anchor="middle">42</text>
  <circle cx="123.07692307692308" cy="101.53846153846155" class="point"/>
  <text x="123.07692307692308" y="375" class="label" text-anchor="middle">2025-11-23</text>
  <text x="123.07692307692308" y="96.53846153846155" class="label" text-anchor="middle">42</text>
  <circle cx="130.0" cy="101.53846153846155" class="point"/>
  <text x="130.0" y="375" class="label" text-anchor="middle">2025-11-24</text>
  <text x="130.0" y="96.53846153846155" class="label" text-anchor="middle">42</text>
  <circle cx="136.9230769230769" cy="101.53846153846155" class="point"/>
  <text x="136.9230769230769" y="375" class="label" text-anchor="middle">2025-11-25</text>
  <text x="136.9230769230769" y="96.53846153846155" class="label" text-anchor="middle">42</text>
  <circle cx="143.84615384615384" cy="101.53846153846155" class="point"/>
  <text x="143.84615384615384" y="375" class="label" text-anchor="middle">2025-11-26</text>
  <text x="143.84615384615384" y="96.53846153846155" class="label" text-anchor="middle">42</text>
  <circle cx="150.76923076923077" cy="101.53846153846155" class="point"/>
  <text x="150.76923076923077" y="375" class="label" text-anchor="middle">2025-11-27</text>
  <text x="150.76923076923077" y="96.53846153846155" class="label" text-anchor="middle">42</text>
  <circle cx="157.69230769230768" cy="101.53846153846155" class="point"/>
  <text x="157.69230769230768" y="375" class="label" text-anchor="middle">2025-11-28</text>
  <text x="157.69230769230768" y="96.53846153846155" class="label" text-anchor="middle">42</text>
  <circle cx="164.6153846153846" cy="101.53846153846155" class="point"/>
  <text x="164.6153846153846" y="375" class="label" text-anchor="middle">2025-11-29</text>
  <text x="164.6153846153846" y="96.53846153846155" class="label" text-anchor="middle">42</text>
  <circle cx="171.53846153846152" cy="101.53846153846155" class="point"/>
  <text x="171.53846153846152" y="375" class="label" text-anchor="middle">2025-11-30</text>
  <text x="171.53846153846152" y="96.53846153846155" class="label" text-anchor="middle">42</text>
  <circle cx="178.46153846153848" cy="101.53846153846155" class="point"/>
  <text x="178.46153846153848" y="375" class="label" text-anchor="middle">2025-12-01</text>
  <text x="178.46153846153848" y="96.53846153846155" class="label" text-anchor="middle">42</text>
  <circle cx="185.3846153846154" cy="101.53846153846155" class="point"/>
  <text x="185.3846153846154" y="375" class="label" text-anchor="middle">2025-12-02</text>
  <text x="185.3846153846154" y="96.53846153846155" class="label" text-anchor="middle">42</text>
  <circle cx="192.3076923076923" cy="101.53846153846155" class="point"/>
  <text x="192.3076923076923" y="375" class="label" text-anchor="middle">2025-12-03</text>
  <text x="192.3076923076923" y="96.53846153846155" class="label" text-anchor="middle">42</text>
  <circle cx="199.23076923076923" cy="101.53846153846155" class="point"/>
  <text x="199.23076923076923" y="375" class="label" text-anchor="middle">2025-12-04</text>
  <text x="199.23076923076923" y="96.53846153846155" class="label" text-anchor="middle">42</text>
  <circle cx="206.15384615384616" cy="101.53846153846155" class="point"/>
  <text x="206.15384615384616" y="375" class="label" text-anchor="middle">2025-12-05</text>
  <text x="206.15384615384616" y="96.53846153846155" class="label" text-anchor="middle">42</text>
  <circle cx="213.0769230769231" cy="101.53846153846155" class="point"/>
  <text x="213.0769230769231" y="375" class="label" text-anchor="middle">2025-12-06</text>
  <text x="213.0769230769231" y="96.53846153846155" class="label" text-anchor="middle">42</text>
  <circle cx="220.0" cy="101.53846153846155" class="point"/>
  <text x="220.0" y="375" class="label" text-anchor="middle">2025-12-07</text>
  <text x="220.0" y="96.53846153846155" class="label" text-anchor="middle">42</text>
  <circle cx="226.92307692307693" cy="40.0" class="point"/>
  <text x="226.92307692307693" y="375" class="label" text-anchor="middle">2025-12-08</text>
  <text x="226.92307692307693" y="35.0" class="label" text-anchor="middle">52</text>
  <circle cx="233.84615384615384" cy="40.0" class="point"/>
  <text x="233.84615384615384" y="375" class="label" text-anchor="middle">2025-12-09</text>
  <text x="233.84615384615384" y="35.0" class="label" text-anchor="middle">52</text>
  <circle cx="240.76923076923077" cy="40.0" class="point"/>
  <text x="240.76923076923077" y="375" class="label" text-anchor="middle">2025-12-10</text>
  <text x="240.76923076923077" y="35.0" class="label" text-anchor="middle">52</text>
  <circle cx="247.69230769230768" cy="40.0" class="point"/>
  <text x="247.69230769230768" y="375" class="label" text-anchor="middle">2025-12-11</text>
  <text x="247.69230769230768" y="35.0" class="label" text-anchor="middle">52</text>
  <circle cx="254.6153846153846" cy="40.0" class="point"/>
  <text x="254.6153846153846" y="375" class="label" text-anchor="middle">2025-12-12</text>
  <text x="254.6153846153846" y="35.0" class="label" text-anchor="middle">52</text>
  <circle cx="261.53846153846155" cy="40.0" class="point"/>
  <text x="261.53846153846155" y="375" class="label" text-anchor="middle">2025-12-13</text>
  <text x="261.53846153846155" y="35.0" class="label" text-anchor="middle">52</text>
  <circle cx="268.46153846153845" cy="40.0" class="point"/>
  <text x="268.46153846153845" y="375" class="label" text-anchor="middle">2025-12-14</text>
  <text x="268.46153846153845" y="35.0" class="label" text-anchor="middle">52</text>
  <circle cx="275.38461538461536" cy="40.0" class="point"/>
  <text x="275.38461538461536" y="375" class="label" text-anchor="middle">2025-12-15</text>
  <text x="275.38461538461536" y="35.0" class="label" text-anchor="middle">52</text>
  <circle cx="282.3076923076923" cy="40.0" class="point"/>
  <text x="282.3076923076923" y="375" class="label" text-anchor="middle">2025-12-16</text>
  <text x="282.3076923076923" y="35.0" class="label" text-anchor="middle">52</text>
  <circle cx="289.2307692307692" cy="40.0" class="point"/>
  <text x="289.2307692307692" y="375" class="label" text-anchor="middle">2025-12-17</text>
  <text x="289.2307692307692" y="35.0" class="label" text-anchor="middle">52</text>
  <circle cx="296.1538461538462" cy="40.0" class="point"/>
  <text x="296.1538461538462" y="375" class="label" text-anchor="middle">2025-12-18</text>
  <text x="296.1538461538462" y="35.0" class="label" text-anchor="middle">52</text>
  <circle cx="303.07692307692304" cy="40.0" class="point"/>
  <text x="303.07692307692304" y="375" class="label" text-anchor="middle">2025-12-19</text>
  <text x="303.07692307692304" y="35.0" class="label" text-anchor="middle">52</text>
  <circle cx="310.0" cy="40.0" class="point"/>
  <text x="310.0" y="375" class="label" text-anchor="middle">2025-12-20</text>
  <text x="310.0" y="35.0" class="label" text-anchor="middle">52</text>
  <circle cx="316.92307692307696" cy="40.0" class="point"/>
  <text x="316.92307692307696" y="375" class="label" text-anchor="middle">2025-12-21</text>
  <text x="316.92307692307696" y="35.0" class="label" text-anchor="middle">52</text>
  <circle cx="323.8461538461538" cy="40.0" class="point"/>
  <text x="323.8461538461538" y="375" class="label" text-anchor="middle">2025-12-22</text>
  <text x="323.8461538461538" y="35.0" class="label" text-anchor="middle">52</text>
  <circle cx="330.7692307692308" cy="40.0" class="point"/>
  <text x="330.7692307692308" y="375" class="label" text-anchor="middle">2025-12-23</text>
  <text x="330.7692307692308" y="35.0" class="label" text-anchor="middle">52</text>
  <circle cx="337.6923076923077" cy="40.0" class="point"/>
  <text x="337.6923076923077" y="375" class="label" text-anchor="middle">2025-12-24</text>
  <text x="337.6923076923077" y="35.0" class="label" text-anchor="middle">52</text>
  <circle cx="344.6153846153846" cy="40.0" class="point"/>
  <text x="344.6153846153846" y="375" class="label" text-anchor="middle">2025-12-25</text>
  <text x="344.6153846153846" y="35.0" class="label" text-anchor="middle">52</text>
  <circle cx="351.53846153846155" cy="40.0" class="point"/>
  <text x="351.53846153846155" y="375" class="label" text-anchor="middle">2025-12-26</text>
  <text x="351.53846153846155" y="35.0" class="label" text-anchor="middle">52</text>
  <circle cx="358.46153846153845" cy="40.0" class="point"/>
  <text x="358.46153846153845" y="375" class="label" text-anchor="middle">2025-12-27</text>
  <text x="358.46153846153845" y="35.0" class="label" text-anchor="middle">52</text>
  <circle cx="365.3846153846154" cy="40.0" class="point"/>
  <text x="365.3846153846154" y="375" class="label" text-anchor="middle">2025-12-28</text>
  <text x="365.3846153846154" y="35.0" class="label" text-anchor="middle">52</text>
  <circle cx="372.3076923076923" cy="40.0" class="point"/>
  <text x="372.3076923076923" y="375" class="label" text-anchor="middle">2025-12-29</text>
  <text x="372.3076923076923" y="35.0" class="label" text-anchor="middle">52</text>
  <circle cx="379.2307692307692" cy="40.0" class="point"/>
  <text x="379.2307692307692" y="375" class="label" text-anchor="middle">2025-12-30</text>
  <text x="379.2307692307692" y="35.0" class="label" text-anchor="middle">52</text>
  <circle cx="386.1538461538462" cy="40.0" class="point"/>
  <text x="386.1538461538462" y="375" class="label" text-anchor="middle">2025-12-31</text>
  <text x="386.1538461538462" y="35.0" class="label" text-anchor="middle">52</text>
  <circle cx="393.07692307692304" cy="40.0" class="point"/>
  <text x="393.07692307692304" y="375" class="label" text-anchor="middle">2026-01-01</text>
  <text x="393.07692307692304" y="35.0" class="label" text-anchor="middle">52</text>
  <circle cx="400.0" cy="40.0" class="point"/>
  <text x="400.0" y="375" class="label" text-anchor="middle">2026-01-02</text>
  <text x="400.0" y="35.0" class="label" text-anchor="middle">52</text>
  <circle cx="406.9230769230769" cy="40.0" class="point"/>
  <text x="406.9230769230769" y="375" class="label" text-anchor="middle">2026-01-03</text>
  <text x="406.9230769230769" y="35.0" class="label" text-anchor="middle">52</text>
  <circle cx="413.84615384615387" cy="40.0" class="point"/>
  <text x="413.84615384615387" y="375" class="label" text-anchor="middle">2026-01-04</text>
  <text x="413.84615384615387" y="35.0" class="label" text-anchor="middle">52</text>
  <circle cx="420.7692307692308" cy="40.0" class="point"/>
  <text x="420.7692307692308" y="375" class="label" text-anchor="middle">2026-01-05</text>
  <text x="420.7692307692308" y="35.0" class="label" text-anchor="middle">52</text>
  <circle cx="427.6923076923077" cy="40.0" class="point"/>
  <text x="427.6923076923077" y="375" class="label" text-anchor="middle">2026-01-06</text>
  <text x="427.6923076923077" y="35.0" class="label" text-anchor="middle">52</text>
  <circle cx="434.61538461538464" cy="40.0" class="point"/>
  <text x="434.61538461538464" y="375" class="label" text-anchor="middle">2026-01-07</text>
  <text x="434.61538461538464" y="35.0" class="label" text-anchor="middle">52</text>
  <circle cx="441.53846153846155" cy="40.0" class="point"/>
  <text x="441.53846153846155" y="375" class="label" text-anchor="middle">2026-01-08</text>
  <text x="441.53846153846155" y="35.0" class="label" text-anchor="middle">52</text>
  <circle cx="448.46153846153845" cy="40.0" class="point"/>
  <text x="448.46153846153845" y="375" class="label" text-anchor="middle">2026-01-09</text>
  <text x="448.46153846153845" y="35.0" class="label" text-anchor="middle">52</text>
  <circle cx="455.38461538461536" cy="40.0" class="point"/>
  <text x="455.38461538461536" y="375" class="label" text-anchor="middle">2026-01-10</text>
  <text x="455.38461538461536" y="35.0" class="label" text-anchor="middle">52</text>
  <circle cx="462.3076923076923" cy="40.0" class="point"/>
  <text x="462.3076923076923" y="375" class="label" text-anchor="middle">2026-01-11</text>
  <text x="462.3076923076923" y="35.0" class="label" text-anchor="middle">52</text>
  <circle cx="469.2307692307692" cy="40.0" class="point"/>
  <text x="469.2307692307692" y="375" class="label" text-anchor="middle">2026-01-12</text>
  <text x="469.2307692307692" y="35.0" class="label" text-anchor="middle">52</text>
  <circle cx="476.15384615384613" cy="40.0" class="point"/>
  <text x="476.15384615384613" y="375" class="label" text-anchor="middle">2026-01-13</text>
  <text x="476.15384615384613" y="35.0" class="label" text-anchor="middle">52</text>
  <circle cx="483.0769230769231" cy="40.0" class="point"/>
  <text x="483.0769230769231" y="375" class="label" text-anchor="middle">2026-01-14</text>
  <text x="483.0769230769231" y="35.0" class="label" text-anchor="middle">52</text>
  <circle cx="490.0" cy="40.0" class="point"/>
  <text x="490.0" y="375" class="label" text-anchor="middle">2026-01-15</text>
  <text x="490.0" y="35.0" class="label" text-anchor="middle">52</text>
  <circle cx="496.9230769230769" cy="40.0" class="point"/>
  <text x="496.9230769230769" y="375" class="label" text-anchor="middle">2026-01-16</text>
  <text x="496.9230769230769" y="35.0" class="label" text-anchor="middle">52</text>
  <circle cx="503.84615384615387" cy="40.0" class="point"/>
  <text x="503.84615384615387" y="375" class="label" text-anchor="middle">2026-01-17</text>
  <text x="503.84615384615387" y="35.0" class="label" text-anchor="middle">52</text>
  <circle cx="510.7692307692308" cy="40.0" class="point"/>
  <text x="510.7692307692308" y="375" class="label" text-anchor="middle">2026-01-18</text>
  <text x="510.7692307692308" y="35.0" class="label" text-anchor="middle">52</text>
  <circle cx="517.6923076923076" cy="40.0" class="point"/>
  <text x="517.6923076923076" y="375" class="label" text-anchor="middle">2026-01-19</text>
  <text x="517.6923076923076" y="35.0" class="label" text-anchor="middle">52</text>
  <circle cx="524.6153846153846" cy="40.0" class="point"/>
  <text x="524.6153846153846" y="375" class="label" text-anchor="middle">2026-01-20</text>
  <text x="524.6153846153846" y="35.0" class="label" text-anchor="middle">52</text>
  <circle cx="531.5384615384615" cy="40.0" class="point"/>
  <text x="531.5384615384615" y="375" class="label" text-anchor="middle">2026-01-21</text>
  <text x="531.5384615384615" y="35.0" class="label" text-anchor="middle">52</text>
  <circle cx="538.4615384615385" cy="40.0" class="point"/>
  <text x="538.4615384615385" y="375" class="label" text-anchor="middle">2026-01-22</text>
  <text x="538.4615384615385" y="35.0" class="label" text-anchor="middle">52</text>
  <circle cx="545.3846153846154" cy="40.0" class="point"/>
  <text x="545.3846153846154" y="375" class="label" text-anchor="middle">2026-01-23</text>
  <text x="545.3846153846154" y="35.0" class="label" text-anchor="middle">52</text>
  <circle cx="552.3076923076924" cy="40.0" class="point"/>
  <text x="552.3076923076924" y="375" class="label" text-anchor="middle">2026-01-24</text>
  <text x="552.3076923076924" y="35.0" class="label" text-anchor="middle">52</text>
  <circle cx="559.2307692307692" cy="40.0" class="point"/>
  <text x="559.2307692307692" y="375" class="label" text-anchor="middle">2026-01-25</text>
  <text x="559.2307692307692" y="35.0" class="label" text-anchor="middle">52</text>
  <circle cx="566.1538461538461" cy="40.0" class="point"/>
  <text x="566.1538461538461" y="375" class="label" text-anchor="middle">2026-01-26</text>
  <text x="566.1538461538461" y="35.0" class="label" text-anchor="middle">52</text>
  <circle cx="573.0769230769231" cy="40.0" class="point"/>
  <text x="573.0769230769231" y="375" class="label" text-anchor="middle">2026-01-27</text>
  <text x="573.0769230769231" y="35.0" class="label" text-anchor="middle">52</text>
  <circle cx="580.0" cy="40.0" class="point"/>
  <text x="580.0" y="375" class="label" text-anchor="middle">2026-01-28</text>
  <text x="580.0" y="35.0" class="label" text-anchor="middle">52</text>
  <circle cx="586.9230769230769" cy="40.0" class="point"/>
  <text x="586.9230769230769" y="375" class="label" text-anchor="middle">2026-01-29</text>
  <text x="586.9230769230769" y="35.0" class="label" text-anchor="middle">52</text>
  <circle cx="593.8461538461539" cy="40.0" class="point"/>
  <text x="593.8461538461539" y="375" class="label" text-anchor="middle">2026-01-30</text>
  <text x="593.8461538461539" y="35.0" class="label" text-anchor="middle">52</text>
  <circle cx="600.7692307692308" cy="40.0" class="point"/>
  <text x="600.7692307692308" y="375" class="label" text-anchor="middle">2026-01-31</text>
  <text x="600.7692307692308" y="35.0" class="label" text-anchor="middle">52</text>
  <circle cx="607.6923076923076" cy="40.0" class="point"/>
  <text x="607.6923076923076" y="375" class="label" text-anchor="middle">2026-02-01</text>
  <text x="607.6923076923076" y="35.0" class="label" text-anchor="middle">52</text>
  <circle cx="614.6153846153846" cy="40.0" class="point"/>
  <text x="614.6153846153846" y="375" class="label" text-anchor="middle">2026-02-02</text>
  <text x="614.6153846153846" y="35.0" class="label" text-anchor="middle">52</text>
  <circle cx="621.5384615384615" cy="40.0" class="point"/>
  <text x="621.5384615384615" y="375" class="label" text-anchor="middle">2026-02-03</text>
  <text x="621.5384615384615" y="35.0" class="label" text-anchor="middle">52</text>
  <circle cx="628.4615384615385" cy="40.0" class="point"/>
  <text x="628.4615384615385" y="375" class="label" text-anchor="middle">2026-02-04</text>
  <text x="628.4615384615385" y="35.0" class="label" text-anchor="middle">52</text>
  <circle cx="635.3846153846154" cy="40.0" class="point"/>
  <text x="635.3846153846154" y="375" class="label" text-anchor="middle">2026-02-05</text>
  <text x="635.3846153846154" y="35.0" class="label" text-anchor="middle">52</text>
  <circle cx="642.3076923076924" cy="40.0" class="point"/>
  <text x="642.3076923076924" y="375" class="label" text-anchor="middle">2026-02-06</text>
  <text x="642.3076923076924" y="35.0" class="label" text-anchor="middle">52</text>
  <circle cx="649.2307692307692" cy="40.0" class="point"/>
  <text x="649.2307692307692" y="375" class="label" text-anchor="middle">2026-02-07</text>
  <text x="649.2307692307692" y="35.0" class="label" text-anchor="middle">52</text>
  <circle cx="656.1538461538461" cy="40.0" class="point"/>
  <text x="656.1538461538461" y="375" class="label" text-anchor="middle">2026-02-08</text>
  <text x="656.1538461538461" y="35.0" class="label" text-anchor="middle">52</text>
  <circle cx="663.0769230769231" cy="40.0" class="point"/>
  <text x="663.0769230769231" y="375" class="label" text-anchor="middle">2026-02-09</text>
  <text x="663.0769230769231" y="35.0" class="label" text-anchor="middle">52</text>
  <circle cx="670.0" cy="40.0" class="point"/>
  <text x="670.0" y="375" class="label" text-anchor="middle">2026-02-10</text>
  <text x="670.0" y="35.0" class="label" text-anchor="middle">52</text>
  <circle cx="676.9230769230769" cy="40.0" class="point"/>
  <text x="676.9230769230769" y="375" class="label" text-anchor="middle">2026-02-11</text>
  <text x="676.9230769230769" y="35.0" class="label" text-anchor="middle">52</text>
  <circle cx="683.8461538461539" cy="40.0" class="point"/>
  <text x="683.8461538461539" y="375" class="label" text-anchor="middle">2026-02-12</text>
  <text x="683.8461538461539" y="35.0" class="label" text-anchor="middle">52</text>
  <circle cx="690.7692307692308" cy="40.0" class="point"/>
  <text x="690.7692307692308" y="375" class="label" text-anchor="middle">2026-02-13</text>
  <text x="690.7692307692308" y="35.0" class="label" text-anchor="middle">52</text>
  <circle cx="697.6923076923076" cy="40.0" class="point"/>
  <text x="697.6923076923076" y="375" class="label" text-anchor="middle">2026-02-14</text>
  <text x="697.6923076923076" y="35.0" class="label" text-anchor="middle">52</text>
  <circle cx="704.6153846153846" cy="40.0" class="point"/>
  <text x="704.6153846153846" y="375" class="label" text-anchor="middle">2026-02-15</text>
  <text x="704.6153846153846" y="35.0" class="label" text-anchor="middle">52</text>
  <circle cx="711.5384615384615" cy="40.0" class="point"/>
  <text x="711.5384615384615" y="375" class="label" text-anchor="middle">2026-02-16</text>
  <text x="711.5384615384615" y="35.0" class="label" text-anchor="middle">52</text>
  <circle cx="718.4615384615385" cy="40.0" class="point"/>
  <text x="718.4615384615385" y="375" class="label" text-anchor="middle">2026-02-17</text>
  <text x="718.4615384615385" y="35.0" class="label" text-anchor="middle">52</text>
  <circle cx="725.3846153846154" cy="40.0" class="point"/>
  <text x="725.3846153846154" y="375" class="label" text-anchor="middle">2026-02-18</text>
  <text x="725.3846153846154" y="35.0" class="label" text-anchor="middle">52</text>
  <circle cx="732.3076923076924" cy="40.0" class="point"/>
  <text x="732.3076923076924" y="375" class="label" text-anchor="middle">2026-02-19</text>
  <text x="732.3076923076924" y="35.0" class="label" text-anchor="middle">52</text>
  <circle cx="739.2307692307692" cy="40.0" class="point"/>
  <text x="739.2307692307692" y="375" class="label" text-anchor="middle">2026-02-20</text>
  <text x="739.2307692307692" y="35.0" class="label" text-anchor="middle">52</text>
  <circle cx="746.1538461538461" cy="40.0" class="point"/>
  <text x="746.1538461538461" y="375" class="label" text-anchor="middle">2026-02-21</text>
  <text x="746.1538461538461" y="35.0" class="label" text-anchor="middle">52</text>
  <circle cx="753.0769230769231" cy="40.0" class="point"/>
  <text x="753.0769230769231" y="375" class="label" text-anchor="middle">2026-02-22</text>
  <text x="753.0769230769231" y="35.0" class="label" text-anchor="middle">52</text>
  <circle cx="760.0" cy="40.0" class="point"/>
  <text x="760.0" y="375" class="label" text-anchor="middle">2026-02-23</text>
  <text x="760.0" y="35.0" class="label" text-anchor="middle">52</text>
  <text x="30" y="363.0" class="label" text-anchor="end">0</text>
  <text x="30" y="301.46153846153845" class="label" text-anchor="end">10</text>
  <text x="30" y="239.9230769230769" class="label" text-anchor="end">20</text>
  <text x="30" y="178.38461538461542" class="label" text-anchor="end">30</text>
  <text x="30" y="116.84615384615384" class="label" text-anchor="end">40</text>
  <text x="30" y="55.30769230769232" class="label" text-anchor="end">50</text>
</svg>