<svg xmlns="http://www.w3.org/2000/svg" width="800" height="400" viewBox="0 0 800 400">
  <style>
    .axis{stroke:#666;stroke-width:1}
    .line{stroke:#4a9;stroke-width:2;fill:none}
    .point{fill:#4a9;r:4}
    .label{font:10px sans-serif;fill:#aaa}
    .title{font:14px sans-serif;fill:#333}
  </style>
  <text x="400" y="20" class="title" text-anchor="middle">OPIC Field Growth Timeline</text>
  <line x1="40" y1="40" x2="40" y2="360" class="axis"/>
  <line x1="40" y1="360" x2="760" y2="360" class="axis"/>
  <path d="M 40.0,101.53846153846155 L 55.31914893617021,101.53846153846155 L 70.63829787234042,101.53846153846155 L 85.95744680851064,101.53846153846155 L 101.27659574468085,101.53846153846155 L 116.59574468085107,101.53846153846155 L 131.91489361702128,101.53846153846155 L 147.2340425531915,101.53846153846155 L 162.5531914893617,101.53846153846155 L 177.87234042553192,101.53846153846155 L 193.19148936170214,101.53846153846155 L 208.51063829787233,101.53846153846155 L 223.82978723404253,101.53846153846155 L 239.14893617021278,101.53846153846155 L 254.46808510638297,101.53846153846155 L 269.7872340425532,101.53846153846155 L 285.1063829787234,101.53846153846155 L 300.4255319148936,101.53846153846155 L 315.74468085106383,101.53846153846155 L 331.063829787234,101.53846153846155 L 346.3829787234043,101.53846153846155 L 361.70212765957444,101.53846153846155 L 377.02127659574467,101.53846153846155 L 392.3404255319149,101.53846153846155 L 407.65957446808505,101.53846153846155 L 422.97872340425533,101.53846153846155 L 438.29787234042556,101.53846153846155 L 453.6170212765958,40.0 L 468.93617021276594,40.0 L 484.25531914893617,40.0 L 499.5744680851064,40.0 L 514.8936170212766,40.0 L 530.2127659574468,40.0 L 545.5319148936171,40.0 L 560.8510638297872,40.0 L 576.1702127659574,40.0 L 591.4893617021277,40.0 L 606.8085106382979,40.0 L 622.127659574468,40.0 L 637.4468085106383,40.0 L 652.7659574468086,40.0 L 668.0851063829788,40.0 L 683.4042553191489,40.0 L 698.7234042553191,40.0 L 714.0425531914893,40.0 L 729.3617021276596,40.0 L 744.6808510638298,40.0 L 760.0,40.0" class="line"/>
  <circle cx="40.0" cy="101.53846153846155" class="point"/>
  <text x="40.0" y="375" class="label" text-anchor="middle">2025-11-11</text>
  <text x="40.0" y="96.53846153846155" class="label" text-anchor="middle">42</text>
  <circle cx="55.31914893617021" cy="101.53846153846155" class="point"/>
  <text x="55.31914893617021" y="375" class="label" text-anchor="middle">2025-11-12</text>
  <text x="55.31914893617021" y="96.53846153846155" class="label" text-anchor="middle">42</text>
  <circle cx="70.63829787234042" cy="101.53846153846155" class="point"/>
  <text x="70.63829787234042" y="375" class="label" text-anchor="middle">2025-11-13</text>
  <text x="70.63829787234042" y="96.53846153846155" class="label" text-anchor="middle">42</text>
  <circle cx="85.95744680851064" cy="101.53846153846155" class="point"/>
  <text x="85.95744680851064" y="375" class="label" text-anchor="middle">2025-11-14</text>
  <text x="85.95744680851064" y="96.53846153846155" class="label" text-anchor="middle">42</text>
  <circle cx="101.27659574468085" cy="101.53846153846155" class="point"/>
  <text x="101.27659574468085" y="375" class="label" text-anchor="middle">2025-11-15</text>
  <text x="101.27659574468085" y="96.53846153846155" class="label" text-anchor="middle">42</text>
  <circle cx="116.59574468085107" cy="101.53846153846155" class="point"/>
  <text x="116.59574468085107" y="375" class="label" text-anchor="middle">2025-11-16</text>
  <text x="116.59574468085107" y="96.53846153846155" class="label" text-anchor="middle">42</text>
  <circle cx="131.91489361702128" cy="101.53846153846155" class="point"/>
  <text x="131.91489361702128" y="375" class="label" text-anchor="middle">2025-11-17</text>
  <text x="131.91489361702128" y="96.53846153846155" class="label" text-anchor="middle">42</text>
  <circle cx="147.2340425531915" cy="101.53846153846155" class="point"/>
  <text x="147.2340425531915" y="375" class="label" text-anchor="middle">2025-11-18</text>
  <text x="147.2340425531915" y="96.53846153846155" class="label" text-anchor="middle">42</text>
  <circle cx="162.5531914893617" cy="101.53846153846155" class="point"/>
  <text x="162.5531914893617" y="375" class="label" text-anchor="middle">2025-11-19</text>
  <text x="162.5531914893617" y="96.53846153846155" class="label" text-anchor="middle">42</text>
  <circle cx="177.87234042553192" cy="101.53846153846155" class="point"/>
  <text x="177.87234042553192" y="375" class="label" text-anchor="middle">2025-11-20</text>
  <text x="177.87234042553192" y="96.53846153846155" class="label" text-anchor="middle">42</text>
  <circle cx="193.19148936170214" cy="101.53846153846155" class="point"/>
  <text x="193.19148936170214" y="375" class="label" text-anchor="middle">2025-11-21</text>
  <text x="193.19148936170214" y="96.53846153846155" class="label" text-anchor="middle">42</text>
  <circle cx="208.51063829787233" cy="101.53846153846155" class="point"/>
  <text x="208.51063829787233" y="375" class="label" text-anchor="middle">2025-11-22</text>
  <text x="208.51063829787233" y="96.53846153846155" class="label" text-anchor="middle">42</text>
  <circle cx="223.82978723404253" cy="101.53846153846155" class="point"/>
  <text x="223.82978723404253" y="375" class="label" text-anchor="middle">2025-11-23</text>
  <text x="223.82978723404253" y="96.53846153846155" class="label" text-anchor="middle">42</text>
  <circle cx="239.14893617021278" cy="101.53846153846155" class="point"/>
  <text x="239.14893617021278" y="375" class="label" text-anchor="middle">2025-11-24</text>
  <text x="239.14893617021278" y="96.53846153846155" class="label" text-anchor="middle">42</text>
  <circle cx="254.46808510638297" cy="101.53846153846155" class="point"/>
  <text x="254.46808510638297" y="375" class="label" text-anchor="middle">2025-11-25</text>
  <text x="254.46808510638297" y="96.53846153846155" class="label" text-anchor="middle">42</text>
  <circle cx="269.7872340425532" cy="101.53846153846155" class="point"/>
  <text x="269.7872340425532" y="375" class="label" text-anchor="middle">2025-11-26</text>
  <text x="269.7872340425532" y="96.53846153846155" class="label" text-anchor="middle">42</text>
  <circle cx="285.1063829787234" cy="101.53846153846155" class="point"/>
  <text x="285.1063829787234" y="375" class="label" text-anchor="middle">2025-11-27</text>
  <text x="285.1063829787234" y="96.53846153846155" class="label" text-anchor="middle">42</text>
  <circle cx="300.4255319148936" cy="101.53846153846155" class="point"/>
  <text x="300.4255319148936" y="375" class="label" text-anchor="middle">2025-11-28</text>
  <text x="300.4255319148936" y="96.53846153846155" class="label" text-anchor="middle">42</text>
  <circle cx="315.74468085106383" cy="101.53846153846155" class="point"/>
  <text x="315.74468085106383" y="375" class="label" text-anchor="middle">2025-11-29</text>
  <text x="315.74468085106383" y="96.53846153846155" class="label" text-anchor="middle">42</text>
  <circle cx="331.063829787234" cy="101.53846153846155" class="point"/>
  <text x="331.063829787234" y="375" class="label" text-anchor="middle">2025-11-30</text>
  <text x="331.063829787234" y="96.53846153846155" class="label" text-anchor="middle">42</text>
  <circle cx="346.3829787234043" cy="101.53846153846155" class="point"/>
  <text x="346.3829787234043" y="375" class="label" text-anchor="middle">2025-12-01</text>
  <text x="346.3829787234043" y="96.53846153846155" class="label" text-anchor="middle">42</text>
  <circle cx="361.70212765957444" cy="101.53846153846155" class="point"/>
  <text x="361.70212765957444" y="375" class="label" text-anchor="middle">2025-12-02</text>
  <text x="361.70212765957444" y="96.53846153846155" class="label" text-anchor="middle">42</text>
  <circle cx="377.02127659574467" cy="101.53846153846155" class="point"/>
  <text x="377.02127659574467" y="375" class="label" text-anchor="middle">2025-12-03</text>
  <text x="377.02127659574467" y="96.53846153846155" class="label" text-anchor="middle">42</text>
  <circle cx="392.3404255319149" cy="101.53846153846155" class="point"/>
  <text x="392.3404255319149" y="375" class="label" text-anchor="middle">2025-12-04</text>
  <text x="392.3404255319149" y="96.53846153846155" class="label" text-anchor="middle">42</text>
  <circle cx="407.65957446808505" cy="101.53846153846155" class="point"/>
  <text x="407.65957446808505" y="375" class="label" text-anchor="middle">2025-12-05</text>
  <text x="407.65957446808505" y="96.53846153846155" class="label" text-anchor="middle">42</text>
  <circle cx="422.97872340425533" cy="101.53846153846155" class="point"/>
  <text x="422.97872340425533" y="375" class="label" text-anchor="middle">2025-12-06</text>
  <text x="422.97872340425533" y="96.53846153846155" class="label" text-anchor="middle">42</text>
  <circle cx="438.29787234042556" cy="101.53846153846155" class="point"/>
  <text x="438.29787234042556" y="375" class="label" text-anchor="middle">2025-12-07</text>
  <text x="438.29787234042556" y="96.53846153846155" class="label" text-anchor="middle">42</text>
  <circle cx="453.6170212765958" cy="40.0" class="point"/>
  <text x="453.6170212765958" y="375" class="label" text-anchor="middle">2025-12-08</text>
  <text x="453.6170212765958" y="35.0" class="label" text-anchor="middle">52</text>
  <circle cx="468.93617021276594" cy="40.0" class="point"/>
  <text x="468.93617021276594" y="375" class="label" text-anchor="middle">2025-12-09</text>
  <text x="468.93617021276594" y="35.0" class="label" text-anchor="middle">52</text>
  <circle cx="484.25531914893617" cy="40.0" class="point"/>
  <text x="484.25531914893617" y="375" class="label" text-anchor="middle">2025-12-10</text>
  <text x="484.25531914893617" y="35.0" class="label" text-anchor="middle">52</text>
  <circle cx="499.5744680851064" cy="40.0" class="point"/>
  <text x="499.5744680851064" y="375" class="label" text-anchor="middle">2025-12-11</text>
  <text x="499.5744680851064" y="35.0" class="label" text-anchor="middle">52</text>
  <circle cx="514.8936170212766" cy="40.0" class="point"/>
  <text x="514.8936170212766" y="375" class="label" text-anchor="middle">2025-12-12</text>
  <text x="514.8936170212766" y="35.0" class="label" text-anchor="middle">52</text>
  <circle cx="530.2127659574468" cy="40.0" class="point"/>
  <text x="530.2127659574468" y="375" class="label" text-anchor="middle">2025-12-13</text>
  <text x="530.2127659574468" y="35.0" class="label" text-anchor="middle">52</text>
  <circle cx="545.5319148936171" cy="40.0" class="point"/>
  <text x="545.5319148936171" y="375" class="label" text-anchor="middle">2025-12-14</text>
  <text x="545.5319148936171" y="35.0" class="label" text-anchor="middle">52</text>
  <circle cx="560.8510638297872" cy="40.0" class="point"/>
  <text x="560.8510638297872" y="375" class="label" text-anchor="middle">2025-12-15</text>
  <text x="560.8510638297872" y="35.0" class="label" text-anchor="middle">52</text>
  <circle cx="576.1702127659574" cy="40.0" class="point"/>
  <text x="576.1702127659574" y="375" class="label" text-anchor="middle">2025-12-16</text>
  <text x="576.1702127659574" y="35.0" class="label" text-anchor="middle">52</text>
  <circle cx="591.4893617021277" cy="40.0" class="point"/>
  <text x="591.4893617021277" y="375" class="label" text-anchor="middle">2025-12-17</text>
  <text x="591.4893617021277" y="35.0" class="label" text-anchor="middle">52</text>
  <circle cx="606.8085106382979" cy="40.0" class="point"/>
  <text x="606.8085106382979" y="375" class="label" text-anchor="middle">2025-12-18</text>
  <text x="606.8085106382979" y="35.0" class="label" text-anchor="middle">52</text>
  <circle cx="622.127659574468" cy="40.0" class="point"/>
  <text x="622.127659574468" y="375" class="label" text-anchor="middle">2025-12-19</text>
  <text x="622.127659574468" y="35.0" class="label" text-anchor="middle">52</text>
  <circle cx="637.4468085106383" cy="40.0" class="point"/>
  <text x="637.4468085106383" y="375" class="label" text-anchor="middle">2025-12-20</text>
  <text x="637.4468085106383" y="35.0" class="label" text-anchor="middle">52</text>
  <circle cx="652.7659574468086" cy="40.0" class="point"/>
  <text x="652.7659574468086" y="375" class="label" text-anchor="middle">2025-12-21</text>
  <text x="652.7659574468086" y="35.0" class="label" text-anchor="middle">52</text>
  <circle cx="668.0851063829788" cy="40.0" class="point"/>
  <text x="668.0851063829788" y="375" class="label" text-anchor="middle">2025-12-22</text>
  <text x="668.0851063829788" y="35.0" class="label" text-anchor="middle">52</text>
  <circle cx="683.4042553191489" cy="40.0" class="point"/>
  <text x="683.4042553191489" y="375" class="label" text-anchor="middle">2025-12-23</text>
  <text x="683.4042553191489" y="35.0" class="label" text-anchor="middle">52</text>
  <circle cx="698.7234042553191" cy="40.0" class="point"/>
  <text x="698.7234042553191" y="375" class="label" text-anchor="middle">2025-12-24</text>
  <text x="698.7234042553191" y="35.0" class="label" text-anchor="middle">52</text>
  <circle cx="714.0425531914893" cy="40.0" class="point"/>
  <text x="714.0425531914893" y="375" class="label" text-anchor="middle">2025-12-25</text>
  <text x="714.0425531914893" y="35.0" class="label" text-anchor="middle">52</text>
  <circle cx="729.3617021276596" cy="40.0" class="point"/>
  <text x="729.3617021276596" y="375" class="label" text-anchor="middle">2025-12-26</text>
  <text x="729.3617021276596" y="35.0" class="label" text-anchor="middle">52</text>
  <circle cx="744.6808510638298" cy="40.0" class="point"/>
  <text x="744.6808510638298" y="375" class="label" text-anchor="middle">2025-12-27</text>
  <text x="744.6808510638298" y="35.0" class="label" text-anchor="middle">52</text>
  <circle cx="760.0" cy="40.0" class="point"/>
  <text x="760.0" y="375" class="label" text-anchor="middle">2025-12-28</text>
  <text x="760.0" y="35.0" class="label" text-anchor="middle">52</text>
  <text x="30" y="363.0" class="label" text-anchor="end">0</text>
  <text x="30" y="301.46153846153845" class="label" text-anchor="end">10</text>
  <text x="30" y="239.9230769230769" class="label" text-anchor="end">20</text>
  <text x="30" y="178.38461538461542" class="label" text-anchor="end">30</text>
  <text x="30" y="116.84615384615384" class="label" text-anchor="end">40</text>
  <text x="30" y="55.30769230769232" class="label" text-anchor="end">50</text>
</svg>