<svg xmlns="http://www.w3.org/2000/svg" width="800" height="400" viewBox="0 0 800 400">
  <style>
    .axis{stroke:#666;stroke-width:1}
    .line{stroke:#4a9;stroke-width:2;fill:none}
    .point{fill:#4a9;r:4}
    .label{font:10px sans-serif;fill:#aaa}
    .title{font:14px sans-serif;fill:#333}
  </style>
  <text x="400" y="20" class="title" text-anchor="middle">OPIC Field Growth Timeline</text>
  <line x1="40" y1="40" x2="40" y2="360" class="axis"/>
  <line x1="40" y1="360" x2="760" y2="360" class="axis"/>
  <path d="M 40.0,101.53846153846155 L 44.93150684931507,101.53846153846155 L 49.86301369863014,101.53846153846155 L 54.794520547945204,101.53846153846155 L 59.726027397260275,101.53846153846155 L 64.65753424657534,101.53846153846155 L 69.58904109589041,101.53846153846155 L 74.52054794520548,101.53846153846155 L 79.45205479452055,101.53846153846155 L 84.3835616438356,101.53846153846155 L 89.31506849315068,101.53846153846155 L 94.24657534246575,101.53846153846155 L 99.17808219178082,101.53846153846155 L 104.10958904109589,101.53846153846155 L 109.04109589041096,101.53846153846155 L 113.97260273972603,101.53846153846155 L 118.9041095890411,101.53846153846155 L 123.83561643835615,101.53846153846155 L 128.7671232876712,101.53846153846155 L 133.6986301369863,101.53846153846155 L 138.63013698630135,101.53846153846155 L 143.56164383561645,101.53846153846155 L 148.4931506849315,101.53846153846155 L 153.42465753424656,101.53846153846155 L 158.35616438356163,101.53846153846155 L 163.2876712328767,101.53846153846155 L 168.21917808219177,101.53846153846155 L 173.15068493150685,40.0 L 178.08219178082192,40.0 L 183.013698630137,40.0 L 187.94520547945206,40.0 L 192.87671232876713,40.0 L 197.8082191780822,40.0 L 202.73972602739724,40.0 L 207.6712328767123,40.0 L 212.60273972602738,40.0 L 217.53424657534245,40.0 L 222.46575342465755,40.0 L 227.3972602739726,40.0 L 232.3287671232877,40.0 L 237.26027397260273,40.0 L 242.1917808219178,40.0 L 247.12328767123287,40.0 L 252.05479452054794,40.0 L 256.986301369863,40.0 L 261.9178082191781,40.0 L 266.8493150684931,40.0 L 271.7808219178082,40.0 L 276.71232876712327,40.0 L 281.64383561643837,40.0 L 286.5753424657534,40.0 L 291.5068493150685,40.0 L 296.43835616438355,40.0 L 301.36986301369865,40.0 L 306.3013698630137,40.0 L 311.2328767123288,40.0 L 316.16438356164383,40.0 L 321.09589041095893,40.0 L 326.027397260274,40.0 L 330.95890410958907,40.0 L 335.8904109589041,40.0 L 340.82191780821915,40.0 L 345.75342465753425,40.0 L 350.6849315068493,40.0 L 355.6164383561644,40.0 L 360.54794520547944,40.0 L 365.4794520547945,40.0 L 370.4109589041096,40.0 L 375.3424657534246,40.0 L 380.2739726027397,40.0 L 385.20547945205476,40.0 L 390.13698630136986,40.0 L 395.0684931506849,40.0 L 400.0,40.0 L 404.9315068493151,40.0 L 409.8630136986302,40.0 L 414.7945205479452,40.0 L 419.7260273972603,40.0 L 424.6575342465754,40.0 L 429.5890410958904,40.0 L 434.52054794520546,40.0 L 439.45205479452056,40.0 L 444.3835616438356,40.0 L 449.3150684931507,40.0 L 454.24657534246575,40.0 L 459.17808219178085,40.0 L 464.1095890410959,40.0 L 469.041095890411,40.0 L 473.972602739726,40.0 L 478.90410958904107,40.0 L 483.83561643835617,40.0 L 488.76712328767127,40.0 L 493.69863013698625,40.0 L 498.63013698630135,40.0 L 503.56164383561645,40.0 L 508.49315068493155,40.0 L 513.4246575342465,40.0 L 518.3561643835617,40.0 L 523.2876712328767,40.0 L 528.2191780821918,40.0 L 533.1506849315068,40.0 L 538.0821917808219,40.0 L 543.013698630137,40.0 L 547.9452054794522,40.0 L 552.8767123287671,40.0 L 557.8082191780821,40.0 L 562.7397260273973,40.0 L 567.6712328767123,40.0 L 572.6027397260274,40.0 L 577.5342465753424,40.0 L 582.4657534246576,40.0 L 587.3972602739726,40.0 L 592.3287671232877,40.0 L 597.2602739726027,40.0 L 602.1917808219179,40.0 L 607.1232876712329,40.0 L 612.054794520548,40.0 L 616.986301369863,40.0 L 621.9178082191781,40.0 L 626.8493150684932,40.0 L 631.7808219178082,40.0 L 636.7123287671233,40.0 L 641.6438356164383,40.0 L 646.5753424657535,40.0 L 651.5068493150685,40.0 L 656.4383561643835,40.0 L 661.3698630136986,40.0 L 666.3013698630137,40.0 L 671.2328767123288,40.0 L 676.1643835616438,40.0 L 681.0958904109589,40.0 L 686.027397260274,40.0 L 690.958904109589,40.0 L 695.8904109589041,40.0 L 700.8219178082192,40.0 L 705.7534246575343,40.0 L 710.6849315068492,40.0 L 715.6164383561644,40.0 L 720.5479452054794,40.0 L 725.4794520547946,40.0 L 730.4109589041095,40.0 L 735.3424657534247,40.0 L 740.2739726027397,40.0 L 745.2054794520548,40.0 L 750.1369863013698,40.0 L 755.068493150685,40.0 L 760.0,40.0" class="line"/>
  <circle cx="40.0" cy="101.53846153846155" class="point"/>
  <text x="40.0" y="375" class="label" text-anchor="middle">2025-11-11</text>
  <text x="40.0" y="96.53846153846155" class="label" text-anchor="middle">42</text>
  <circle cx="44.93150684931507" cy="101.53846153846155" class="point"/>
  <text x="44.93150684931507" y="375" class="label" text-anchor="middle">2025-11-12</text>
  <text x="44.93150684931507" y="96.53846153846155" class="label" text-anchor="middle">42</text>
  <circle cx="49.86301369863014" cy="101.53846153846155" class="point"/>
  <text x="49.86301369863014" y="375" class="label" text-anchor="middle">2025-11-13</text>
  <text x="49.86301369863014" y="96.53846153846155" class="label" text-anchor="middle">42</text>
  <circle cx="54.794520547945204" cy="101.53846153846155" class="point"/>
  <text x="54.794520547945204" y="375" class="label" text-anchor="middle">2025-11-14</text>
  <text x="54.794520547945204" y="96.53846153846155" class="label" text-anchor="middle">42</text>
  <circle cx="59.726027397260275" cy="101.53846153846155" class="point"/>
  <text x="59.726027397260275" y="375" class="label" text-anchor="middle">2025-11-15</text>
  <text x="59.726027397260275" y="96.53846153846155" class="label" text-anchor="middle">42</text>
  <circle cx="64.65753424657534" cy="101.53846153846155" class="point"/>
  <text x="64.65753424657534" y="375" class="label" text-anchor="middle">2025-11-16</text>
  <text x="64.65753424657534" y="96.53846153846155" class="label" text-anchor="middle">42</text>
  <circle cx="69.58904109589041" cy="101.53846153846155" class="point"/>
  <text x="69.58904109589041" y="375" class="label" text-anchor="middle">2025-11-17</text>
  <text x="69.58904109589041" y="96.53846153846155" class="label" text-anchor="middle">42</text>
  <circle cx="74.52054794520548" cy="101.53846153846155" class="point"/>
  <text x="74.52054794520548" y="375" class="label" text-anchor="middle">2025-11-18</text>
  <text x="74.52054794520548" y="96.53846153846155" class="label" text-anchor="middle">42</text>
  <circle cx="79.45205479452055" cy="101.53846153846155" class="point"/>
  <text x="79.45205479452055" y="375" class="label" text-anchor="middle">2025-11-19</text>
  <text x="79.45205479452055" y="96.53846153846155" class="label" text-anchor="middle">42</text>
  <circle cx="84.3835616438356" cy="101.53846153846155" class="point"/>
  <text x="84.3835616438356" y="375" class="label" text-anchor="middle">2025-11-20</text>
  <text x="84.3835616438356" y="96.53846153846155" class="label" text-anchor="middle">42</text>
  <circle cx="89.31506849315068" cy="101.53846153846155" class="point"/>
  <text x="89.31506849315068" y="375" class="label" text-anchor="middle">2025-11-21</text>
  <text x="89.31506849315068" y="96.53846153846155" class="label" text-anchor="middle">42</text>
  <circle cx="94.24657534246575" cy="101.53846153846155" class="point"/>
  <text x="94.24657534246575" y="375" class="label" text-anchor="middle">2025-11-22</text>
  <text x="94.24657534246575" y="96.53846153846155" class="label" text-anchor="middle">42</text>
  <circle cx="99.17808219178082" cy="101.53846153846155" class="point"/>
  <text x="99.17808219178082" y="375" class="label" text-anchor="middle">2025-11-23</text>
  <text x="99.17808219178082" y="96.53846153846155" class="label" text-anchor="middle">42</text>
  <circle cx="104.10958904109589" cy="101.53846153846155" class="point"/>
  <text x="104.10958904109589" y="375" class="label" text-anchor="middle">2025-11-24</text>
  <text x="104.10958904109589" y="96.53846153846155" class="label" text-anchor="middle">42</text>
  <circle cx="109.04109589041096" cy="101.53846153846155" class="point"/>
  <text x="109.04109589041096" y="375" class="label" text-anchor="middle">2025-11-25</text>
  <text x="109.04109589041096" y="96.53846153846155" class="label" text-anchor="middle">42</text>
  <circle cx="113.97260273972603" cy="101.53846153846155" class="point"/>
  <text x="113.97260273972603" y="375" class="label" text-anchor="middle">2025-11-26</text>
  <text x="113.97260273972603" y="96.53846153846155" class="label" text-anchor="middle">42</text>
  <circle cx="118.9041095890411" cy="101.53846153846155" class="point"/>
  <text x="118.9041095890411" y="375" class="label" text-anchor="middle">2025-11-27</text>
  <text x="118.9041095890411" y="96.53846153846155" class="label" text-anchor="middle">42</text>
  <circle cx="123.83561643835615" cy="101.53846153846155" class="point"/>
  <text x="123.83561643835615" y="375" class="label" text-anchor="middle">2025-11-28</text>
  <text x="123.83561643835615" y="96.53846153846155" class="label" text-anchor="middle">42</text>
  <circle cx="128.7671232876712" cy="101.53846153846155" class="point"/>
  <text x="128.7671232876712" y="375" class="label" text-anchor="middle">2025-11-29</text>
  <text x="128.7671232876712" y="96.53846153846155" class="label" text-anchor="middle">42</text>
  <circle cx="133.6986301369863" cy="101.53846153846155" class="point"/>
  <text x="133.6986301369863" y="375" class="label" text-anchor="middle">2025-11-30</text>
  <text x="133.6986301369863" y="96.53846153846155" class="label" text-anchor="middle">42</text>
  <circle cx="138.63013698630135" cy="101.53846153846155" class="point"/>
  <text x="138.63013698630135" y="375" class="label" text-anchor="middle">2025-12-01</text>
  <text x="138.63013698630135" y="96.53846153846155" class="label" text-anchor="middle">42</text>
  <circle cx="143.56164383561645" cy="101.53846153846155" class="point"/>
  <text x="143.56164383561645" y="375" class="label" text-anchor="middle">2025-12-02</text>
  <text x="143.56164383561645" y="96.53846153846155" class="label" text-anchor="middle">42</text>
  <circle cx="148.4931506849315" cy="101.53846153846155" class="point"/>
  <text x="148.4931506849315" y="375" class="label" text-anchor="middle">2025-12-03</text>
  <text x="148.4931506849315" y="96.53846153846155" class="label" text-anchor="middle">42</text>
  <circle cx="153.42465753424656" cy="101.53846153846155" class="point"/>
  <text x="153.42465753424656" y="375" class="label" text-anchor="middle">2025-12-04</text>
  <text x="153.42465753424656" y="96.53846153846155" class="label" text-anchor="middle">42</text>
  <circle cx="158.35616438356163" cy="101.53846153846155" class="point"/>
  <text x="158.35616438356163" y="375" class="label" text-anchor="middle">2025-12-05</text>
  <text x="158.35616438356163" y="96.53846153846155" class="label" text-anchor="middle">42</text>
  <circle cx="163.2876712328767" cy="101.53846153846155" class="point"/>
  <text x="163.2876712328767" y="375" class="label" text-anchor="middle">2025-12-06</text>
  <text x="163.2876712328767" y="96.53846153846155" class="label" text-anchor="middle">42</text>
  <circle cx="168.21917808219177" cy="101.53846153846155" class="point"/>
  <text x="168.21917808219177" y="375" class="label" text-anchor="middle">2025-12-07</text>
  <text x="168.21917808219177" y="96.53846153846155" class="label" text-anchor="middle">42</text>
  <circle cx="173.15068493150685" cy="40.0" class="point"/>
  <text x="173.15068493150685" y="375" class="label" text-anchor="middle">2025-12-08</text>
  <text x="173.15068493150685" y="35.0" class="label" text-anchor="middle">52</text>
  <circle cx="178.08219178082192" cy="40.0" class="point"/>
  <text x="178.08219178082192" y="375" class="label" text-anchor="middle">2025-12-09</text>
  <text x="178.08219178082192" y="35.0" class="label" text-anchor="middle">52</text>
  <circle cx="183.013698630137" cy="40.0" class="point"/>
  <text x="183.013698630137" y="375" class="label" text-anchor="middle">2025-12-10</text>
  <text x="183.013698630137" y="35.0" class="label" text-anchor="middle">52</text>
  <circle cx="187.94520547945206" cy="40.0" class="point"/>
  <text x="187.94520547945206" y="375" class="label" text-anchor="middle">2025-12-11</text>
  <text x="187.94520547945206" y="35.0" class="label" text-anchor="middle">52</text>
  <circle cx="192.87671232876713" cy="40.0" class="point"/>
  <text x="192.87671232876713" y="375" class="label" text-anchor="middle">2025-12-12</text>
  <text x="192.87671232876713" y="35.0" class="label" text-anchor="middle">52</text>
  <circle cx="197.8082191780822" cy="40.0" class="point"/>
  <text x="197.8082191780822" y="375" class="label" text-anchor="middle">2025-12-13</text>
  <text x="197.8082191780822" y="35.0" class="label" text-anchor="middle">52</text>
  <circle cx="202.73972602739724" cy="40.0" class="point"/>
  <text x="202.73972602739724" y="375" class="label" text-anchor="middle">2025-12-14</text>
  <text x="202.73972602739724" y="35.0" class="label" text-anchor="middle">52</text>
  <circle cx="207.6712328767123" cy="40.0" class="point"/>
  <text x="207.6712328767123" y="375" class="label" text-anchor="middle">2025-12-15</text>
  <text x="207.6712328767123" y="35.0" class="label" text-anchor="middle">52</text>
  <circle cx="212.60273972602738" cy="40.0" class="point"/>
  <text x="212.60273972602738" y="375" class="label" text-anchor="middle">2025-12-16</text>
  <text x="212.60273972602738" y="35.0" class="label" text-anchor="middle">52</text>
  <circle cx="217.53424657534245" cy="40.0" class="point"/>
  <text x="217.53424657534245" y="375" class="label" text-anchor="middle">2025-12-17</text>
  <text x="217.53424657534245" y="35.0" class="label" text-anchor="middle">52</text>
  <circle cx="222.46575342465755" cy="40.0" class="point"/>
  <text x="222.46575342465755" y="375" class="label" text-anchor="middle">2025-12-18</text>
  <text x="222.46575342465755" y="35.0" class="label" text-anchor="middle">52</text>
  <circle cx="227.3972602739726" cy="40.0" class="point"/>
  <text x="227.3972602739726" y="375" class="label" text-anchor="middle">2025-12-19</text>
  <text x="227.3972602739726" y="35.0" class="label" text-anchor="middle">52</text>
  <circle cx="232.3287671232877" cy="40.0" class="point"/>
  <text x="232.3287671232877" y="375" class="label" text-anchor="middle">2025-12-20</text>
  <text x="232.3287671232877" y="35.0" class="label" text-anchor="middle">52</text>
  <circle cx="237.26027397260273" cy="40.0" class="point"/>
  <text x="237.26027397260273" y="375" class="label" text-anchor="middle">2025-12-21</text>
  <text x="237.26027397260273" y="35.0" class="label" text-anchor="middle">52</text>
  <circle cx="242.1917808219178" cy="40.0" class="point"/>
  <text x="242.1917808219178" y="375" class="label" text-anchor="middle">2025-12-22</text>
  <text x="242.1917808219178" y="35.0" class="label" text-anchor="middle">52</text>
  <circle cx="247.12328767123287" cy="40.0" class="point"/>
  <text x="247.12328767123287" y="375" class="label" text-anchor="middle">2025-12-23</text>
  <text x="247.12328767123287" y="35.0" class="label" text-anchor="middle">52</text>
  <circle cx="252.05479452054794" cy="40.0" class="point"/>
  <text x="252.05479452054794" y="375" class="label" text-anchor="middle">2025-12-24</text>
  <text x="252.05479452054794" y="35.0" class="label" text-anchor="middle">52</text>
  <circle cx="256.986301369863" cy="40.0" class="point"/>
  <text x="256.986301369863" y="375" class="label" text-anchor="middle">2025-12-25</text>
  <text x="256.986301369863" y="35.0" class="label" text-anchor="middle">52</text>
  <circle cx="261.9178082191781" cy="40.0" class="point"/>
  <text x="261.9178082191781" y="375" class="label" text-anchor="middle">2025-12-26</text>
  <text x="261.9178082191781" y="35.0" class="label" text-anchor="middle">52</text>
  <circle cx="266.8493150684931" cy="40.0" class="point"/>
  <text x="266.8493150684931" y="375" class="label" text-anchor="middle">2025-12-27</text>
  <text x="266.8493150684931" y="35.0" class="label" text-anchor="middle">52</text>
  <circle cx="271.7808219178082" cy="40.0" class="point"/>
  <text x="271.7808219178082" y="375" class="label" text-anchor="middle">2025-12-28</text>
  <text x="271.7808219178082" y="35.0" class="label" text-anchor="middle">52</text>
  <circle cx="276.71232876712327" cy="40.0" class="point"/>
  <text x="276.71232876712327" y="375" class="label" text-anchor="middle">2025-12-29</text>
  <text x="276.71232876712327" y="35.0" class="label" text-anchor="middle">52</text>
  <circle cx="281.64383561643837" cy="40.0" class="point"/>
  <text x="281.64383561643837" y="375" class="label" text-anchor="middle">2025-12-30</text>
  <text x="281.64383561643837" y="35.0" class="label" text-anchor="middle">52</text>
  <circle cx="286.5753424657534" cy="40.0" class="point"/>
  <text x="286.5753424657534" y="375" class="label" text-anchor="middle">2025-12-31</text>
  <text x="286.5753424657534" y="35.0" class="label" text-anchor="middle">52</text>
  <circle cx="291.5068493150685" cy="40.0" class="point"/>
  <text x="291.5068493150685" y="375" class="label" text-anchor="middle">2026-01-01</text>
  <text x="291.5068493150685" y="35.0" class="label" text-anchor="middle">52</text>
  <circle cx="296.43835616438355" cy="40.0" class="point"/>
  <text x="296.43835616438355" y="375" class="label" text-anchor="middle">2026-01-02</text>
  <text x="296.43835616438355" y="35.0" class="label" text-anchor="middle">52</text>
  <circle cx="301.36986301369865" cy="40.0" class="point"/>
  <text x="301.36986301369865" y="375" class="label" text-anchor="middle">2026-01-03</text>
  <text x="301.36986301369865" y="35.0" class="label" text-anchor="middle">52</text>
  <circle cx="306.3013698630137" cy="40.0" class="point"/>
  <text x="306.3013698630137" y="375" class="label" text-anchor="middle">2026-01-04</text>
  <text x="306.3013698630137" y="35.0" class="label" text-anchor="middle">52</text>
  <circle cx="311.2328767123288" cy="40.0" class="point"/>
  <text x="311.2328767123288" y="375" class="label" text-anchor="middle">2026-01-05</text>
  <text x="311.2328767123288" y="35.0" class="label" text-anchor="middle">52</text>
  <circle cx="316.16438356164383" cy="40.0" class="point"/>
  <text x="316.16438356164383" y="375" class="label" text-anchor="middle">2026-01-06</text>
  <text x="316.16438356164383" y="35.0" class="label" text-anchor="middle">52</text>
  <circle cx="321.09589041095893" cy="40.0" class="point"/>
  <text x="321.09589041095893" y="375" class="label" text-anchor="middle">2026-01-07</text>
  <text x="321.09589041095893" y="35.0" class="label" text-anchor="middle">52</text>
  <circle cx="326.027397260274" cy="40.0" class="point"/>
  <text x="326.027397260274" y="375" class="label" text-anchor="middle">2026-01-08</text>
  <text x="326.027397260274" y="35.0" class="label" text-anchor="middle">52</text>
  <circle cx="330.95890410958907" cy="40.0" class="point"/>
  <text x="330.95890410958907" y="375" class="label" text-anchor="middle">2026-01-09</text>
  <text x="330.95890410958907" y="35.0" class="label" text-anchor="middle">52</text>
  <circle cx="335.8904109589041" cy="40.0" class="point"/>
  <text x="335.8904109589041" y="375" class="label" text-anchor="middle">2026-01-10</text>
  <text x="335.8904109589041" y="35.0" class="label" text-anchor="middle">52</text>
  <circle cx="340.82191780821915" cy="40.0" class="point"/>
  <text x="340.82191780821915" y="375" class="label" text-anchor="middle">2026-01-11</text>
  <text x="340.82191780821915" y="35.0" class="label" text-anchor="middle">52</text>
  <circle cx="345.75342465753425" cy="40.0" class="point"/>
  <text x="345.75342465753425" y="375" class="label" text-anchor="middle">2026-01-12</text>
  <text x="345.75342465753425" y="35.0" class="label" text-anchor="middle">52</text>
  <circle cx="350.6849315068493" cy="40.0" class="point"/>
  <text x="350.6849315068493" y="375" class="label" text-anchor="middle">2026-01-13</text>
  <text x="350.6849315068493" y="35.0" class="label" text-anchor="middle">52</text>
  <circle cx="355.6164383561644" cy="40.0" class="point"/>
  <text x="355.6164383561644" y="375" class="label" text-anchor="middle">2026-01-14</text>
  <text x="355.6164383561644" y="35.0" class="label" text-anchor="middle">52</text>
  <circle cx="360.54794520547944" cy="40.0" class="point"/>
  <text x="360.54794520547944" y="375" class="label" text-anchor="middle">2026-01-15</text>
  <text x="360.54794520547944" y="35.0" class="label" text-anchor="middle">52</text>
  <circle cx="365.4794520547945" cy="40.0" class="point"/>
  <text x="365.4794520547945" y="375" class="label" text-anchor="middle">2026-01-16</text>
  <text x="365.4794520547945" y="35.0" class="label" text-anchor="middle">52</text>
  <circle cx="370.4109589041096" cy="40.0" class="point"/>
  <text x="370.4109589041096" y="375" class="label" text-anchor="middle">2026-01-17</text>
  <text x="370.4109589041096" y="35.0" class="label" text-anchor="middle">52</text>
  <circle cx="375.3424657534246" cy="40.0" class="point"/>
  <text x="375.3424657534246" y="375" class="label" text-anchor="middle">2026-01-18</text>
  <text x="375.3424657534246" y="35.0" class="label" text-anchor="middle">52</text>
  <circle cx="380.2739726027397" cy="40.0" class="point"/>
  <text x="380.2739726027397" y="375" class="label" text-anchor="middle">2026-01-19</text>
  <text x="380.2739726027397" y="35.0" class="label" text-anchor="middle">52</text>
  <circle cx="385.20547945205476" cy="40.0" class="point"/>
  <text x="385.20547945205476" y="375" class="label" text-anchor="middle">2026-01-20</text>
  <text x="385.20547945205476" y="35.0" class="label" text-anchor="middle">52</text>
  <circle cx="390.13698630136986" cy="40.0" class="point"/>
  <text x="390.13698630136986" y="375" class="label" text-anchor="middle">2026-01-21</text>
  <text x="390.13698630136986" y="35.0" class="label" text-anchor="middle">52</text>
  <circle cx="395.0684931506849" cy="40.0" class="point"/>
  <text x="395.0684931506849" y="375" class="label" text-anchor="middle">2026-01-22</text>
  <text x="395.0684931506849" y="35.0" class="label" text-anchor="middle">52</text>
  <circle cx="400.0" cy="40.0" class="point"/>
  <text x="400.0" y="375" class="label" text-anchor="middle">2026-01-23</text>
  <text x="400.0" y="35.0" class="label" text-anchor="middle">52</text>
  <circle cx="404.9315068493151" cy="40.0" class="point"/>
  <text x="404.9315068493151" y="375" class="label" text-anchor="middle">2026-01-24</text>
  <text x="404.9315068493151" y="35.0" class="label" text-anchor="middle">52</text>
  <circle cx="409.8630136986302" cy="40.0" class="point"/>
  <text x="409.8630136986302" y="375" class="label" text-anchor="middle">2026-01-25</text>
  <text x="409.8630136986302" y="35.0" class="label" text-anchor="middle">52</text>
  <circle cx="414.7945205479452" cy="40.0" class="point"/>
  <text x="414.7945205479452" y="375" class="label" text-anchor="middle">2026-01-26</text>
  <text x="414.7945205479452" y="35.0" class="label" text-anchor="middle">52</text>
  <circle cx="419.7260273972603" cy="40.0" class="point"/>
  <text x="419.7260273972603" y="375" class="label" text-anchor="middle">2026-01-27</text>
  <text x="419.7260273972603" y="35.0" class="label" text-anchor="middle">52</text>
  <circle cx="424.6575342465754" cy="40.0" class="point"/>
  <text x="424.6575342465754" y="375" class="label" text-anchor="middle">2026-01-28</text>
  <text x="424.6575342465754" y="35.0" class="label" text-anchor="middle">52</text>
  <circle cx="429.5890410958904" cy="40.0" class="point"/>
  <text x="429.5890410958904" y="375" class="label" text-anchor="middle">2026-01-29</text>
  <text x="429.5890410958904" y="35.0" class="label" text-anchor="middle">52</text>
  <circle cx="434.52054794520546" cy="40.0" class="point"/>
  <text x="434.52054794520546" y="375" class="label" text-anchor="middle">2026-01-30</text>
  <text x="434.52054794520546" y="35.0" class="label" text-anchor="middle">52</text>
  <circle cx="439.45205479452056" cy="40.0" class="point"/>
  <text x="439.45205479452056" y="375" class="label" text-anchor="middle">2026-01-31</text>
  <text x="439.45205479452056" y="35.0" class="label" text-anchor="middle">52</text>
  <circle cx="444.3835616438356" cy="40.0" class="point"/>
  <text x="444.3835616438356" y="375" class="label" text-anchor="middle">2026-02-01</text>
  <text x="444.3835616438356" y="35.0" class="label" text-anchor="middle">52</text>
  <circle cx="449.3150684931507" cy="40.0" class="point"/>
  <text x="449.3150684931507" y="375" class="label" text-anchor="middle">2026-02-02</text>
  <text x="449.3150684931507" y="35.0" class="label" text-anchor="middle">52</text>
  <circle cx="454.24657534246575" cy="40.0" class="point"/>
  <text x="454.24657534246575" y="375" class="label" text-anchor="middle">2026-02-03</text>
  <text x="454.24657534246575" y="35.0" class="label" text-anchor="middle">52</text>
  <circle cx="459.17808219178085" cy="40.0" class="point"/>
  <text x="459.17808219178085" y="375" class="label" text-anchor="middle">2026-02-04</text>
  <text x="459.17808219178085" y="35.0" class="label" text-anchor="middle">52</text>
  <circle cx="464.1095890410959" cy="40.0" class="point"/>
  <text x="464.1095890410959" y="375" class="label" text-anchor="middle">2026-02-05</text>
  <text x="464.1095890410959" y="35.0" class="label" text-anchor="middle">52</text>
  <circle cx="469.041095890411" cy="40.0" class="point"/>
  <text x="469.041095890411" y="375" class="label" text-anchor="middle">2026-02-06</text>
  <text x="469.041095890411" y="35.0" class="label" text-anchor="middle">52</text>
  <circle cx="473.972602739726" cy="40.0" class="point"/>
  <text x="473.972602739726" y="375" class="label" text-anchor="middle">2026-02-07</text>
  <text x="473.972602739726" y="35.0" class="label" text-anchor="middle">52</text>
  <circle cx="478.90410958904107" cy="40.0" class="point"/>
  <text x="478.90410958904107" y="375" class="label" text-anchor="middle">2026-02-08</text>
  <text x="478.90410958904107" y="35.0" class="label" text-anchor="middle">52</text>
  <circle cx="483.83561643835617" cy="40.0" class="point"/>
  <text x="483.83561643835617" y="375" class="label" text-anchor="middle">2026-02-09</text>
  <text x="483.83561643835617" y="35.0" class="label" text-anchor="middle">52</text>
  <circle cx="488.76712328767127" cy="40.0" class="point"/>
  <text x="488.76712328767127" y="375" class="label" text-anchor="middle">2026-02-10</text>
  <text x="488.76712328767127" y="35.0" class="label" text-anchor="middle">52</text>
  <circle cx="493.69863013698625" cy="40.0" class="point"/>
  <text x="493.69863013698625" y="375" class="label" text-anchor="middle">2026-02-11</text>
  <text x="493.69863013698625" y="35.0" class="label" text-anchor="middle">52</text>
  <circle cx="498.63013698630135" cy="40.0" class="point"/>
  <text x="498.63013698630135" y="375" class="label" text-anchor="middle">2026-02-12</text>
  <text x="498.63013698630135" y="35.0" class="label" text-anchor="middle">52</text>
  <circle cx="503.56164383561645" cy="40.0" class="point"/>
  <text x="503.56164383561645" y="375" class="label" text-anchor="middle">2026-02-13</text>
  <text x="503.56164383561645" y="35.0" class="label" text-anchor="middle">52</text>
  <circle cx="508.49315068493155" cy="40.0" class="point"/>
  <text x="508.49315068493155" y="375" class="label" text-anchor="middle">2026-02-14</text>
  <text x="508.49315068493155" y="35.0" class="label" text-anchor="middle">52</text>
  <circle cx="513.4246575342465" cy="40.0" class="point"/>
  <text x="513.4246575342465" y="375" class="label" text-anchor="middle">2026-02-15</text>
  <text x="513.4246575342465" y="35.0" class="label" text-anchor="middle">52</text>
  <circle cx="518.3561643835617" cy="40.0" class="point"/>
  <text x="518.3561643835617" y="375" class="label" text-anchor="middle">2026-02-16</text>
  <text x="518.3561643835617" y="35.0" class="label" text-anchor="middle">52</text>
  <circle cx="523.2876712328767" cy="40.0" class="point"/>
  <text x="523.2876712328767" y="375" class="label" text-anchor="middle">2026-02-17</text>
  <text x="523.2876712328767" y="35.0" class="label" text-anchor="middle">52</text>
  <circle cx="528.2191780821918" cy="40.0" class="point"/>
  <text x="528.2191780821918" y="375" class="label" text-anchor="middle">2026-02-18</text>
  <text x="528.2191780821918" y="35.0" class="label" text-anchor="middle">52</text>
  <circle cx="533.1506849315068" cy="40.0" class="point"/>
  <text x="533.1506849315068" y="375" class="label" text-anchor="middle">2026-02-19</text>
  <text x="533.1506849315068" y="35.0" class="label" text-anchor="middle">52</text>
  <circle cx="538.0821917808219" cy="40.0" class="point"/>
  <text x="538.0821917808219" y="375" class="label" text-anchor="middle">2026-02-20</text>
  <text x="538.0821917808219" y="35.0" class="label" text-anchor="middle">52</text>
  <circle cx="543.013698630137" cy="40.0" class="point"/>
  <text x="543.013698630137" y="375" class="label" text-anchor="middle">2026-02-21</text>
  <text x="543.013698630137" y="35.0" class="label" text-anchor="middle">52</text>
  <circle cx="547.9452054794522" cy="40.0" class="point"/>
  <text x="547.9452054794522" y="375" class="label" text-anchor="middle">2026-02-22</text>
  <text x="547.9452054794522" y="35.0" class="label" text-anchor="middle">52</text>
  <circle cx="552.8767123287671" cy="40.0" class="point"/>
  <text x="552.8767123287671" y="375" class="label" text-anchor="middle">2026-02-23</text>
  <text x="552.8767123287671" y="35.0" class="label" text-anchor="middle">52</text>
  <circle cx="557.8082191780821" cy="40.0" class="point"/>
  <text x="557.8082191780821" y="375" class="label" text-anchor="middle">2026-02-24</text>
  <text x="557.8082191780821" y="35.0" class="label" text-anchor="middle">52</text>
  <circle cx="562.7397260273973" cy="40.0" class="point"/>
  <text x="562.7397260273973" y="375" class="label" text-anchor="middle">2026-02-25</text>
  <text x="562.7397260273973" y="35.0" class="label" text-anchor="middle">52</text>
  <circle cx="567.6712328767123" cy="40.0" class="point"/>
  <text x="567.6712328767123" y="375" class="label" text-anchor="middle">2026-02-26</text>
  <text x="567.6712328767123" y="35.0" class="label" text-anchor="middle">52</text>
  <circle cx="572.6027397260274" cy="40.0" class="point"/>
  <text x="572.6027397260274" y="375" class="label" text-anchor="middle">2026-02-27</text>
  <text x="572.6027397260274" y="35.0" class="label" text-anchor="middle">52</text>
  <circle cx="577.5342465753424" cy="40.0" class="point"/>
  <text x="577.5342465753424" y="375" class="label" text-anchor="middle">2026-02-28</text>
  <text x="577.5342465753424" y="35.0" class="label" text-anchor="middle">52</text>
  <circle cx="582.4657534246576" cy="40.0" class="point"/>
  <text x="582.4657534246576" y="375" class="label" text-anchor="middle">2026-03-01</text>
  <text x="582.4657534246576" y="35.0" class="label" text-anchor="middle">52</text>
  <circle cx="587.3972602739726" cy="40.0" class="point"/>
  <text x="587.3972602739726" y="375" class="label" text-anchor="middle">2026-03-02</text>
  <text x="587.3972602739726" y="35.0" class="label" text-anchor="middle">52</text>
  <circle cx="592.3287671232877" cy="40.0" class="point"/>
  <text x="592.3287671232877" y="375" class="label" text-anchor="middle">2026-03-03</text>
  <text x="592.3287671232877" y="35.0" class="label" text-anchor="middle">52</text>
  <circle cx="597.2602739726027" cy="40.0" class="point"/>
  <text x="597.2602739726027" y="375" class="label" text-anchor="middle">2026-03-04</text>
  <text x="597.2602739726027" y="35.0" class="label" text-anchor="middle">52</text>
  <circle cx="602.1917808219179" cy="40.0" class="point"/>
  <text x="602.1917808219179" y="375" class="label" text-anchor="middle">2026-03-05</text>
  <text x="602.1917808219179" y="35.0" class="label" text-anchor="middle">52</text>
  <circle cx="607.1232876712329" cy="40.0" class="point"/>
  <text x="607.1232876712329" y="375" class="label" text-anchor="middle">2026-03-06</text>
  <text x="607.1232876712329" y="35.0" class="label" text-anchor="middle">52</text>
  <circle cx="612.054794520548" cy="40.0" class="point"/>
  <text x="612.054794520548" y="375" class="label" text-anchor="middle">2026-03-07</text>
  <text x="612.054794520548" y="35.0" class="label" text-anchor="middle">52</text>
  <circle cx="616.986301369863" cy="40.0" class="point"/>
  <text x="616.986301369863" y="375" class="label" text-anchor="middle">2026-03-08</text>
  <text x="616.986301369863" y="35.0" class="label" text-anchor="middle">52</text>
  <circle cx="621.9178082191781" cy="40.0" class="point"/>
  <text x="621.9178082191781" y="375" class="label" text-anchor="middle">2026-03-09</text>
  <text x="621.9178082191781" y="35.0" class="label" text-anchor="middle">52</text>
  <circle cx="626.8493150684932" cy="40.0" class="point"/>
  <text x="626.8493150684932" y="375" class="label" text-anchor="middle">2026-03-10</text>
  <text x="626.8493150684932" y="35.0" class="label" text-anchor="middle">52</text>
  <circle cx="631.7808219178082" cy="40.0" class="point"/>
  <text x="631.7808219178082" y="375" class="label" text-anchor="middle">2026-03-11</text>
  <text x="631.7808219178082" y="35.0" class="label" text-anchor="middle">52</text>
  <circle cx="636.7123287671233" cy="40.0" class="point"/>
  <text x="636.7123287671233" y="375" class="label" text-anchor="middle">2026-03-12</text>
  <text x="636.7123287671233" y="35.0" class="label" text-anchor="middle">52</text>
  <circle cx="641.6438356164383" cy="40.0" class="point"/>
  <text x="641.6438356164383" y="375" class="label" text-anchor="middle">2026-03-13</text>
  <text x="641.6438356164383" y="35.0" class="label" text-anchor="middle">52</text>
  <circle cx="646.5753424657535" cy="40.0" class="point"/>
  <text x="646.5753424657535" y="375" class="label" text-anchor="middle">2026-03-14</text>
  <text x="646.5753424657535" y="35.0" class="label" text-anchor="middle">52</text>
  <circle cx="651.5068493150685" cy="40.0" class="point"/>
  <text x="651.5068493150685" y="375" class="label" text-anchor="middle">2026-03-15</text>
  <text x="651.5068493150685" y="35.0" class="label" text-anchor="middle">52</text>
  <circle cx="656.4383561643835" cy="40.0" class="point"/>
  <text x="656.4383561643835" y="375" class="label" text-anchor="middle">2026-03-16</text>
  <text x="656.4383561643835" y="35.0" class="label" text-anchor="middle">52</text>
  <circle cx="661.3698630136986" cy="40.0" class="point"/>
  <text x="661.3698630136986" y="375" class="label" text-anchor="middle">2026-03-17</text>
  <text x="661.3698630136986" y="35.0" class="label" text-anchor="middle">52</text>
  <circle cx="666.3013698630137" cy="40.0" class="point"/>
  <text x="666.3013698630137" y="375" class="label" text-anchor="middle">2026-03-18</text>
  <text x="666.3013698630137" y="35.0" class="label" text-anchor="middle">52</text>
  <circle cx="671.2328767123288" cy="40.0" class="point"/>
  <text x="671.2328767123288" y="375" class="label" text-anchor="middle">2026-03-19</text>
  <text x="671.2328767123288" y="35.0" class="label" text-anchor="middle">52</text>
  <circle cx="676.1643835616438" cy="40.0" class="point"/>
  <text x="676.1643835616438" y="375" class="label" text-anchor="middle">2026-03-20</text>
  <text x="676.1643835616438" y="35.0" class="label" text-anchor="middle">52</text>
  <circle cx="681.0958904109589" cy="40.0" class="point"/>
  <text x="681.0958904109589" y="375" class="label" text-anchor="middle">2026-03-21</text>
  <text x="681.0958904109589" y="35.0" class="label" text-anchor="middle">52</text>
  <circle cx="686.027397260274" cy="40.0" class="point"/>
  <text x="686.027397260274" y="375" class="label" text-anchor="middle">2026-03-22</text>
  <text x="686.027397260274" y="35.0" class="label" text-anchor="middle">52</text>
  <circle cx="690.958904109589" cy="40.0" class="point"/>
  <text x="690.958904109589" y="375" class="label" text-anchor="middle">2026-03-23</text>
  <text x="690.958904109589" y="35.0" class="label" text-anchor="middle">52</text>
  <circle cx="695.8904109589041" cy="40.0" class="point"/>
  <text x="695.8904109589041" y="375" class="label" text-anchor="middle">2026-03-24</text>
  <text x="695.8904109589041" y="35.0" class="label" text-anchor="middle">52</text>
  <circle cx="700.8219178082192" cy="40.0" class="point"/>
  <text x="700.8219178082192" y="375" class="label" text-anchor="middle">2026-03-25</text>
  <text x="700.8219178082192" y="35.0" class="label" text-anchor="middle">52</text>
  <circle cx="705.7534246575343" cy="40.0" class="point"/>
  <text x="705.7534246575343" y="375" class="label" text-anchor="middle">2026-03-26</text>
  <text x="705.7534246575343" y="35.0" class="label" text-anchor="middle">52</text>
  <circle cx="710.6849315068492" cy="40.0" class="point"/>
  <text x="710.6849315068492" y="375" class="label" text-anchor="middle">2026-03-27</text>
  <text x="710.6849315068492" y="35.0" class="label" text-anchor="middle">52</text>
  <circle cx="715.6164383561644" cy="40.0" class="point"/>
  <text x="715.6164383561644" y="375" class="label" text-anchor="middle">2026-03-28</text>
  <text x="715.6164383561644" y="35.0" class="label" text-anchor="middle">52</text>
  <circle cx="720.5479452054794" cy="40.0" class="point"/>
  <text x="720.5479452054794" y="375" class="label" text-anchor="middle">2026-03-29</text>
  <text x="720.5479452054794" y="35.0" class="label" text-anchor="middle">52</text>
  <circle cx="725.4794520547946" cy="40.0" class="point"/>
  <text x="725.4794520547946" y="375" class="label" text-anchor="middle">2026-03-30</text>
  <text x="725.4794520547946" y="35.0" class="label" text-anchor="middle">52</text>
  <circle cx="730.4109589041095" cy="40.0" class="point"/>
  <text x="730.4109589041095" y="375" class="label" text-anchor="middle">2026-03-31</text>
  <text x="730.4109589041095" y="35.0" class="label" text-anchor="middle">52</text>
  <circle cx="735.3424657534247" cy="40.0" class="point"/>
  <text x="735.3424657534247" y="375" class="label" text-anchor="middle">2026-04-01</text>
  <text x="735.3424657534247" y="35.0" class="label" text-anchor="middle">52</text>
  <circle cx="740.2739726027397" cy="40.0" class="point"/>
  <text x="740.2739726027397" y="375" class="label" text-anchor="middle">2026-04-02</text>
  <text x="740.2739726027397" y="35.0" class="label" text-anchor="middle">52</text>
  <circle cx="745.2054794520548" cy="40.0" class="point"/>
  <text x="745.2054794520548" y="375" class="label" text-anchor="middle">2026-04-03</text>
  <text x="745.2054794520548" y="35.0" class="label" text-anchor="middle">52</text>
  <circle cx="750.1369863013698" cy="40.0" class="point"/>
  <text x="750.1369863013698" y="375" class="label" text-anchor="middle">2026-04-04</text>
  <text x="750.1369863013698" y="35.0" class="label" text-anchor="middle">52</text>
  <circle cx="755.068493150685" cy="40.0" class="point"/>
  <text x="755.068493150685" y="375" class="label" text-anchor="middle">2026-04-05</text>
  <text x="755.068493150685" y="35.0" class="label" text-anchor="middle">52</text>
  <circle cx="760.0" cy="40.0" class="point"/>
  <text x="760.0" y="375" class="label" text-anchor="middle">2026-04-06</text>
  <text x="760.0" y="35.0" class="label" text-anchor="middle">52</text>
  <text x="30" y="363.0" class="label" text-anchor="end">0</text>
  <text x="30" y="301.46153846153845" class="label" text-anchor="end">10</text>
  <text x="30" y="239.9230769230769" class="label" text-anchor="end">20</text>
  <text x="30" y="178.38461538461542" class="label" text-anchor="end">30</text>
  <text x="30" y="116.84615384615384" class="label" text-anchor="end">40</text>
  <text x="30" y="55.30769230769232" class="label" text-anchor="end">50</text>
</svg>