<svg xmlns="http://www.w3.org/2000/svg" width="800" height="400" viewBox="0 0 800 400">
  <style>
    .axis{stroke:#666;stroke-width:1}
    .line{stroke:#4a9;stroke-width:2;fill:none}
    .point{fill:#4a9;r:4}
    .label{font:10px sans-serif;fill:#aaa}
    .title{font:14px sans-serif;fill:#333}
  </style>
  <text x="400" y="20" class="title" text-anchor="middle">OPIC Field Growth Timeline</text>
  <line x1="40" y1="40" x2="40" y2="360" class="axis"/>
  <line x1="40" y1="360" x2="760" y2="360" class="axis"/>
  <path d="M 40.0,101.53846153846155 L 44.260355029585796,101.53846153846155 L 48.5207100591716,101.53846153846155 L 52.781065088757394,101.53846153846155 L 57.0414201183432,101.53846153846155 L 61.30177514792899,101.53846153846155 L 65.56213017751479,101.53846153846155 L 69.8224852071006,101.53846153846155 L 74.0828402366864,101.53846153846155 L 78.34319526627219,101.53846153846155 L 82.60355029585799,101.53846153846155 L 86.8639053254438,101.53846153846155 L 91.12426035502958,101.53846153846155 L 95.38461538461539,101.53846153846155 L 99.6449704142012,101.53846153846155 L 103.90532544378698,101.53846153846155 L 108.16568047337277,101.53846153846155 L 112.42603550295858,101.53846153846155 L 116.68639053254438,101.53846153846155 L 120.94674556213018,101.53846153846155 L 125.20710059171597,101.53846153846155 L 129.46745562130178,101.53846153846155 L 133.7278106508876,101.53846153846155 L 137.98816568047337,101.53846153846155 L 142.24852071005915,101.53846153846155 L 146.50887573964496,101.53846153846155 L 150.76923076923077,101.53846153846155 L 155.02958579881658,40.0 L 159.2899408284024,40.0 L 163.55029585798815,40.0 L 167.81065088757396,40.0 L 172.07100591715977,40.0 L 176.33136094674555,40.0 L 180.59171597633136,40.0 L 184.85207100591717,40.0 L 189.11242603550295,40.0 L 193.37278106508876,40.0 L 197.63313609467457,40.0 L 201.89349112426035,40.0 L 206.15384615384616,40.0 L 210.41420118343194,40.0 L 214.67455621301775,40.0 L 218.93491124260353,40.0 L 223.19526627218937,40.0 L 227.45562130177515,40.0 L 231.71597633136096,40.0 L 235.97633136094674,40.0 L 240.23668639053253,40.0 L 244.49704142011834,40.0 L 248.75739644970412,40.0 L 253.01775147928996,40.0 L 257.27810650887574,40.0 L 261.53846153846155,40.0 L 265.7988165680473,40.0 L 270.05917159763317,40.0 L 274.3195266272189,40.0 L 278.5798816568048,40.0 L 282.84023668639054,40.0 L 287.1005917159763,40.0 L 291.36094674556216,40.0 L 295.6213017751479,40.0 L 299.8816568047337,40.0 L 304.14201183431953,40.0 L 308.40236686390534,40.0 L 312.6627218934911,40.0 L 316.92307692307696,40.0 L 321.1834319526627,40.0 L 325.4437869822485,40.0 L 329.70414201183434,40.0 L 333.9644970414201,40.0 L 338.2248520710059,40.0 L 342.4852071005917,40.0 L 346.7455621301775,40.0 L 351.0059171597633,40.0 L 355.26627218934914,40.0 L 359.5266272189349,40.0 L 363.7869822485207,40.0 L 368.0473372781065,40.0 L 372.3076923076923,40.0 L 376.56804733727813,40.0 L 380.8284023668639,40.0 L 385.0887573964497,40.0 L 389.3491124260355,40.0 L 393.6094674556213,40.0 L 397.86982248520707,40.0 L 402.13017751479293,40.0 L 406.39053254437874,40.0 L 410.6508875739645,40.0 L 414.9112426035503,40.0 L 419.1715976331361,40.0 L 423.4319526627219,40.0 L 427.6923076923077,40.0 L 431.9526627218935,40.0 L 436.2130177514793,40.0 L 440.47337278106505,40.0 L 444.73372781065086,40.0 L 448.9940828402367,40.0 L 453.25443786982254,40.0 L 457.51479289940823,40.0 L 461.7751479289941,40.0 L 466.0355029585799,40.0 L 470.2958579881657,40.0 L 474.5562130177515,40.0 L 478.8165680473373,40.0 L 483.0769230769231,40.0 L 487.33727810650885,40.0 L 491.59763313609466,40.0 L 495.85798816568047,40.0 L 500.1183431952663,40.0 L 504.37869822485203,40.0 L 508.63905325443784,40.0 L 512.8994082840237,40.0 L 517.1597633136096,40.0 L 521.4201183431953,40.0 L 525.6804733727811,40.0 L 529.9408284023668,40.0 L 534.2011834319526,40.0 L 538.4615384615385,40.0 L 542.7218934911243,40.0 L 546.9822485207101,40.0 L 551.2426035502958,40.0 L 555.5029585798817,40.0 L 559.7633136094674,40.0 L 564.0236686390533,40.0 L 568.2840236686391,40.0 L 572.5443786982248,40.0 L 576.8047337278107,40.0 L 581.0650887573964,40.0 L 585.3254437869822,40.0 L 589.5857988165681,40.0 L 593.8461538461539,40.0 L 598.1065088757396,40.0 L 602.3668639053254,40.0 L 606.6272189349113,40.0 L 610.887573964497,40.0 L 615.1479289940828,40.0 L 619.4082840236687,40.0 L 623.6686390532544,40.0 L 627.9289940828402,40.0 L 632.189349112426,40.0 L 636.4497041420118,40.0 L 640.7100591715977,40.0 L 644.9704142011834,40.0 L 649.2307692307692,40.0 L 653.491124260355,40.0 L 657.7514792899409,40.0 L 662.0118343195267,40.0 L 666.2721893491124,40.0 L 670.5325443786983,40.0 L 674.792899408284,40.0 L 679.0532544378698,40.0 L 683.3136094674556,40.0 L 687.5739644970414,40.0 L 691.8343195266272,40.0 L 696.094674556213,40.0 L 700.3550295857988,40.0 L 704.6153846153846,40.0 L 708.8757396449704,40.0 L 713.1360946745563,40.0 L 717.396449704142,40.0 L 721.6568047337278,40.0 L 725.9171597633136,40.0 L 730.1775147928994,40.0 L 734.4378698224853,40.0 L 738.698224852071,40.0 L 742.9585798816568,40.0 L 747.2189349112426,40.0 L 751.4792899408285,40.0 L 755.7396449704141,40.0 L 760.0,40.0" class="line"/>
  <circle cx="40.0" cy="101.53846153846155" class="point"/>
  <text x="40.0" y="375" class="label" text-anchor="middle">2025-11-11</text>
  <text x="40.0" y="96.53846153846155" class="label" text-anchor="middle">42</text>
  <circle cx="44.260355029585796" cy="101.53846153846155" class="point"/>
  <text x="44.260355029585796" y="375" class="label" text-anchor="middle">2025-11-12</text>
  <text x="44.260355029585796" y="96.53846153846155" class="label" text-anchor="middle">42</text>
  <circle cx="48.5207100591716" cy="101.53846153846155" class="point"/>
  <text x="48.5207100591716" y="375" class="label" text-anchor="middle">2025-11-13</text>
  <text x="48.5207100591716" y="96.53846153846155" class="label" text-anchor="middle">42</text>
  <circle cx="52.781065088757394" cy="101.53846153846155" class="point"/>
  <text x="52.781065088757394" y="375" class="label" text-anchor="middle">2025-11-14</text>
  <text x="52.781065088757394" y="96.53846153846155" class="label" text-anchor="middle">42</text>
  <circle cx="57.0414201183432" cy="101.53846153846155" class="point"/>
  <text x="57.0414201183432" y="375" class="label" text-anchor="middle">2025-11-15</text>
  <text x="57.0414201183432" y="96.53846153846155" class="label" text-anchor="middle">42</text>
  <circle cx="61.30177514792899" cy="101.53846153846155" class="point"/>
  <text x="61.30177514792899" y="375" class="label" text-anchor="middle">2025-11-16</text>
  <text x="61.30177514792899" y="96.53846153846155" class="label" text-anchor="middle">42</text>
  <circle cx="65.56213017751479" cy="101.53846153846155" class="point"/>
  <text x="65.56213017751479" y="375" class="label" text-anchor="middle">2025-11-17</text>
  <text x="65.56213017751479" y="96.53846153846155" class="label" text-anchor="middle">42</text>
  <circle cx="69.8224852071006" cy="101.53846153846155" class="point"/>
  <text x="69.8224852071006" y="375" class="label" text-anchor="middle">2025-11-18</text>
  <text x="69.8224852071006" y="96.53846153846155" class="label" text-anchor="middle">42</text>
  <circle cx="74.0828402366864" cy="101.53846153846155" class="point"/>
  <text x="74.0828402366864" y="375" class="label" text-anchor="middle">2025-11-19</text>
  <text x="74.0828402366864" y="96.53846153846155" class="label" text-anchor="middle">42</text>
  <circle cx="78.34319526627219" cy="101.53846153846155" class="point"/>
  <text x="78.34319526627219" y="375" class="label" text-anchor="middle">2025-11-20</text>
  <text x="78.34319526627219" y="96.53846153846155" class="label" text-anchor="middle">42</text>
  <circle cx="82.60355029585799" cy="101.53846153846155" class="point"/>
  <text x="82.60355029585799" y="375" class="label" text-anchor="middle">2025-11-21</text>
  <text x="82.60355029585799" y="96.53846153846155" class="label" text-anchor="middle">42</text>
  <circle cx="86.8639053254438" cy="101.53846153846155" class="point"/>
  <text x="86.8639053254438" y="375" class="label" text-anchor="middle">2025-11-22</text>
  <text x="86.8639053254438" y="96.53846153846155" class="label" text-anchor="middle">42</text>
  <circle cx="91.12426035502958" cy="101.53846153846155" class="point"/>
  <text x="91.12426035502958" y="375" class="label" text-anchor="middle">2025-11-23</text>
  <text x="91.12426035502958" y="96.53846153846155" class="label" text-anchor="middle">42</text>
  <circle cx="95.38461538461539" cy="101.53846153846155" class="point"/>
  <text x="95.38461538461539" y="375" class="label" text-anchor="middle">2025-11-24</text>
  <text x="95.38461538461539" y="96.53846153846155" class="label" text-anchor="middle">42</text>
  <circle cx="99.6449704142012" cy="101.53846153846155" class="point"/>
  <text x="99.6449704142012" y="375" class="label" text-anchor="middle">2025-11-25</text>
  <text x="99.6449704142012" y="96.53846153846155" class="label" text-anchor="middle">42</text>
  <circle cx="103.90532544378698" cy="101.53846153846155" class="point"/>
  <text x="103.90532544378698" y="375" class="label" text-anchor="middle">2025-11-26</text>
  <text x="103.90532544378698" y="96.53846153846155" class="label" text-anchor="middle">42</text>
  <circle cx="108.16568047337277" cy="101.53846153846155" class="point"/>
  <text x="108.16568047337277" y="375" class="label" text-anchor="middle">2025-11-27</text>
  <text x="108.16568047337277" y="96.53846153846155" class="label" text-anchor="middle">42</text>
  <circle cx="112.42603550295858" cy="101.53846153846155" class="point"/>
  <text x="112.42603550295858" y="375" class="label" text-anchor="middle">2025-11-28</text>
  <text x="112.42603550295858" y="96.53846153846155" class="label" text-anchor="middle">42</text>
  <circle cx="116.68639053254438" cy="101.53846153846155" class="point"/>
  <text x="116.68639053254438" y="375" class="label" text-anchor="middle">2025-11-29</text>
  <text x="116.68639053254438" y="96.53846153846155" class="label" text-anchor="middle">42</text>
  <circle cx="120.94674556213018" cy="101.53846153846155" class="point"/>
  <text x="120.94674556213018" y="375" class="label" text-anchor="middle">2025-11-30</text>
  <text x="120.94674556213018" y="96.53846153846155" class="label" text-anchor="middle">42</text>
  <circle cx="125.20710059171597" cy="101.53846153846155" class="point"/>
  <text x="125.20710059171597" y="375" class="label" text-anchor="middle">2025-12-01</text>
  <text x="125.20710059171597" y="96.53846153846155" class="label" text-anchor="middle">42</text>
  <circle cx="129.46745562130178" cy="101.53846153846155" class="point"/>
  <text x="129.46745562130178" y="375" class="label" text-anchor="middle">2025-12-02</text>
  <text x="129.46745562130178" y="96.53846153846155" class="label" text-anchor="middle">42</text>
  <circle cx="133.7278106508876" cy="101.53846153846155" class="point"/>
  <text x="133.7278106508876" y="375" class="label" text-anchor="middle">2025-12-03</text>
  <text x="133.7278106508876" y="96.53846153846155" class="label" text-anchor="middle">42</text>
  <circle cx="137.98816568047337" cy="101.53846153846155" class="point"/>
  <text x="137.98816568047337" y="375" class="label" text-anchor="middle">2025-12-04</text>
  <text x="137.98816568047337" y="96.53846153846155" class="label" text-anchor="middle">42</text>
  <circle cx="142.24852071005915" cy="101.53846153846155" class="point"/>
  <text x="142.24852071005915" y="375" class="label" text-anchor="middle">2025-12-05</text>
  <text x="142.24852071005915" y="96.53846153846155" class="label" text-anchor="middle">42</text>
  <circle cx="146.50887573964496" cy="101.53846153846155" class="point"/>
  <text x="146.50887573964496" y="375" class="label" text-anchor="middle">2025-12-06</text>
  <text x="146.50887573964496" y="96.53846153846155" class="label" text-anchor="middle">42</text>
  <circle cx="150.76923076923077" cy="101.53846153846155" class="point"/>
  <text x="150.76923076923077" y="375" class="label" text-anchor="middle">2025-12-07</text>
  <text x="150.76923076923077" y="96.53846153846155" class="label" text-anchor="middle">42</text>
  <circle cx="155.02958579881658" cy="40.0" class="point"/>
  <text x="155.02958579881658" y="375" class="label" text-anchor="middle">2025-12-08</text>
  <text x="155.02958579881658" y="35.0" class="label" text-anchor="middle">52</text>
  <circle cx="159.2899408284024" cy="40.0" class="point"/>
  <text x="159.2899408284024" y="375" class="label" text-anchor="middle">2025-12-09</text>
  <text x="159.2899408284024" y="35.0" class="label" text-anchor="middle">52</text>
  <circle cx="163.55029585798815" cy="40.0" class="point"/>
  <text x="163.55029585798815" y="375" class="label" text-anchor="middle">2025-12-10</text>
  <text x="163.55029585798815" y="35.0" class="label" text-anchor="middle">52</text>
  <circle cx="167.81065088757396" cy="40.0" class="point"/>
  <text x="167.81065088757396" y="375" class="label" text-anchor="middle">2025-12-11</text>
  <text x="167.81065088757396" y="35.0" class="label" text-anchor="middle">52</text>
  <circle cx="172.07100591715977" cy="40.0" class="point"/>
  <text x="172.07100591715977" y="375" class="label" text-anchor="middle">2025-12-12</text>
  <text x="172.07100591715977" y="35.0" class="label" text-anchor="middle">52</text>
  <circle cx="176.33136094674555" cy="40.0" class="point"/>
  <text x="176.33136094674555" y="375" class="label" text-anchor="middle">2025-12-13</text>
  <text x="176.33136094674555" y="35.0" class="label" text-anchor="middle">52</text>
  <circle cx="180.59171597633136" cy="40.0" class="point"/>
  <text x="180.59171597633136" y="375" class="label" text-anchor="middle">2025-12-14</text>
  <text x="180.59171597633136" y="35.0" class="label" text-anchor="middle">52</text>
  <circle cx="184.85207100591717" cy="40.0" class="point"/>
  <text x="184.85207100591717" y="375" class="label" text-anchor="middle">2025-12-15</text>
  <text x="184.85207100591717" y="35.0" class="label" text-anchor="middle">52</text>
  <circle cx="189.11242603550295" cy="40.0" class="point"/>
  <text x="189.11242603550295" y="375" class="label" text-anchor="middle">2025-12-16</text>
  <text x="189.11242603550295" y="35.0" class="label" text-anchor="middle">52</text>
  <circle cx="193.37278106508876" cy="40.0" class="point"/>
  <text x="193.37278106508876" y="375" class="label" text-anchor="middle">2025-12-17</text>
  <text x="193.37278106508876" y="35.0" class="label" text-anchor="middle">52</text>
  <circle cx="197.63313609467457" cy="40.0" class="point"/>
  <text x="197.63313609467457" y="375" class="label" text-anchor="middle">2025-12-18</text>
  <text x="197.63313609467457" y="35.0" class="label" text-anchor="middle">52</text>
  <circle cx="201.89349112426035" cy="40.0" class="point"/>
  <text x="201.89349112426035" y="375" class="label" text-anchor="middle">2025-12-19</text>
  <text x="201.89349112426035" y="35.0" class="label" text-anchor="middle">52</text>
  <circle cx="206.15384615384616" cy="40.0" class="point"/>
  <text x="206.15384615384616" y="375" class="label" text-anchor="middle">2025-12-20</text>
  <text x="206.15384615384616" y="35.0" class="label" text-anchor="middle">52</text>
  <circle cx="210.41420118343194" cy="40.0" class="point"/>
  <text x="210.41420118343194" y="375" class="label" text-anchor="middle">2025-12-21</text>
  <text x="210.41420118343194" y="35.0" class="label" text-anchor="middle">52</text>
  <circle cx="214.67455621301775" cy="40.0" class="point"/>
  <text x="214.67455621301775" y="375" class="label" text-anchor="middle">2025-12-22</text>
  <text x="214.67455621301775" y="35.0" class="label" text-anchor="middle">52</text>
  <circle cx="218.93491124260353" cy="40.0" class="point"/>
  <text x="218.93491124260353" y="375" class="label" text-anchor="middle">2025-12-23</text>
  <text x="218.93491124260353" y="35.0" class="label" text-anchor="middle">52</text>
  <circle cx="223.19526627218937" cy="40.0" class="point"/>
  <text x="223.19526627218937" y="375" class="label" text-anchor="middle">2025-12-24</text>
  <text x="223.19526627218937" y="35.0" class="label" text-anchor="middle">52</text>
  <circle cx="227.45562130177515" cy="40.0" class="point"/>
  <text x="227.45562130177515" y="375" class="label" text-anchor="middle">2025-12-25</text>
  <text x="227.45562130177515" y="35.0" class="label" text-anchor="middle">52</text>
  <circle cx="231.71597633136096" cy="40.0" class="point"/>
  <text x="231.71597633136096" y="375" class="label" text-anchor="middle">2025-12-26</text>
  <text x="231.71597633136096" y="35.0" class="label" text-anchor="middle">52</text>
  <circle cx="235.97633136094674" cy="40.0" class="point"/>
  <text x="235.97633136094674" y="375" class="label" text-anchor="middle">2025-12-27</text>
  <text x="235.97633136094674" y="35.0" class="label" text-anchor="middle">52</text>
  <circle cx="240.23668639053253" cy="40.0" class="point"/>
  <text x="240.23668639053253" y="375" class="label" text-anchor="middle">2025-12-28</text>
  <text x="240.23668639053253" y="35.0" class="label" text-anchor="middle">52</text>
  <circle cx="244.49704142011834" cy="40.0" class="point"/>
  <text x="244.49704142011834" y="375" class="label" text-anchor="middle">2025-12-29</text>
  <text x="244.49704142011834" y="35.0" class="label" text-anchor="middle">52</text>
  <circle cx="248.75739644970412" cy="40.0" class="point"/>
  <text x="248.75739644970412" y="375" class="label" text-anchor="middle">2025-12-30</text>
  <text x="248.75739644970412" y="35.0" class="label" text-anchor="middle">52</text>
  <circle cx="253.01775147928996" cy="40.0" class="point"/>
  <text x="253.01775147928996" y="375" class="label" text-anchor="middle">2025-12-31</text>
  <text x="253.01775147928996" y="35.0" class="label" text-anchor="middle">52</text>
  <circle cx="257.27810650887574" cy="40.0" class="point"/>
  <text x="257.27810650887574" y="375" class="label" text-anchor="middle">2026-01-01</text>
  <text x="257.27810650887574" y="35.0" class="label" text-anchor="middle">52</text>
  <circle cx="261.53846153846155" cy="40.0" class="point"/>
  <text x="261.53846153846155" y="375" class="label" text-anchor="middle">2026-01-02</text>
  <text x="261.53846153846155" y="35.0" class="label" text-anchor="middle">52</text>
  <circle cx="265.7988165680473" cy="40.0" class="point"/>
  <text x="265.7988165680473" y="375" class="label" text-anchor="middle">2026-01-03</text>
  <text x="265.7988165680473" y="35.0" class="label" text-anchor="middle">52</text>
  <circle cx="270.05917159763317" cy="40.0" class="point"/>
  <text x="270.05917159763317" y="375" class="label" text-anchor="middle">2026-01-04</text>
  <text x="270.05917159763317" y="35.0" class="label" text-anchor="middle">52</text>
  <circle cx="274.3195266272189" cy="40.0" class="point"/>
  <text x="274.3195266272189" y="375" class="label" text-anchor="middle">2026-01-05</text>
  <text x="274.3195266272189" y="35.0" class="label" text-anchor="middle">52</text>
  <circle cx="278.5798816568048" cy="40.0" class="point"/>
  <text x="278.5798816568048" y="375" class="label" text-anchor="middle">2026-01-06</text>
  <text x="278.5798816568048" y="35.0" class="label" text-anchor="middle">52</text>
  <circle cx="282.84023668639054" cy="40.0" class="point"/>
  <text x="282.84023668639054" y="375" class="label" text-anchor="middle">2026-01-07</text>
  <text x="282.84023668639054" y="35.0" class="label" text-anchor="middle">52</text>
  <circle cx="287.1005917159763" cy="40.0" class="point"/>
  <text x="287.1005917159763" y="375" class="label" text-anchor="middle">2026-01-08</text>
  <text x="287.1005917159763" y="35.0" class="label" text-anchor="middle">52</text>
  <circle cx="291.36094674556216" cy="40.0" class="point"/>
  <text x="291.36094674556216" y="375" class="label" text-anchor="middle">2026-01-09</text>
  <text x="291.36094674556216" y="35.0" class="label" text-anchor="middle">52</text>
  <circle cx="295.6213017751479" cy="40.0" class="point"/>
  <text x="295.6213017751479" y="375" class="label" text-anchor="middle">2026-01-10</text>
  <text x="295.6213017751479" y="35.0" class="label" text-anchor="middle">52</text>
  <circle cx="299.8816568047337" cy="40.0" class="point"/>
  <text x="299.8816568047337" y="375" class="label" text-anchor="middle">2026-01-11</text>
  <text x="299.8816568047337" y="35.0" class="label" text-anchor="middle">52</text>
  <circle cx="304.14201183431953" cy="40.0" class="point"/>
  <text x="304.14201183431953" y="375" class="label" text-anchor="middle">2026-01-12</text>
  <text x="304.14201183431953" y="35.0" class="label" text-anchor="middle">52</text>
  <circle cx="308.40236686390534" cy="40.0" class="point"/>
  <text x="308.40236686390534" y="375" class="label" text-anchor="middle">2026-01-13</text>
  <text x="308.40236686390534" y="35.0" class="label" text-anchor="middle">52</text>
  <circle cx="312.6627218934911" cy="40.0" class="point"/>
  <text x="312.6627218934911" y="375" class="label" text-anchor="middle">2026-01-14</text>
  <text x="312.6627218934911" y="35.0" class="label" text-anchor="middle">52</text>
  <circle cx="316.92307692307696" cy="40.0" class="point"/>
  <text x="316.92307692307696" y="375" class="label" text-anchor="middle">2026-01-15</text>
  <text x="316.92307692307696" y="35.0" class="label" text-anchor="middle">52</text>
  <circle cx="321.1834319526627" cy="40.0" class="point"/>
  <text x="321.1834319526627" y="375" class="label" text-anchor="middle">2026-01-16</text>
  <text x="321.1834319526627" y="35.0" class="label" text-anchor="middle">52</text>
  <circle cx="325.4437869822485" cy="40.0" class="point"/>
  <text x="325.4437869822485" y="375" class="label" text-anchor="middle">2026-01-17</text>
  <text x="325.4437869822485" y="35.0" class="label" text-anchor="middle">52</text>
  <circle cx="329.70414201183434" cy="40.0" class="point"/>
  <text x="329.70414201183434" y="375" class="label" text-anchor="middle">2026-01-18</text>
  <text x="329.70414201183434" y="35.0" class="label" text-anchor="middle">52</text>
  <circle cx="333.9644970414201" cy="40.0" class="point"/>
  <text x="333.9644970414201" y="375" class="label" text-anchor="middle">2026-01-19</text>
  <text x="333.9644970414201" y="35.0" class="label" text-anchor="middle">52</text>
  <circle cx="338.2248520710059" cy="40.0" class="point"/>
  <text x="338.2248520710059" y="375" class="label" text-anchor="middle">2026-01-20</text>
  <text x="338.2248520710059" y="35.0" class="label" text-anchor="middle">52</text>
  <circle cx="342.4852071005917" cy="40.0" class="point"/>
  <text x="342.4852071005917" y="375" class="label" text-anchor="middle">2026-01-21</text>
  <text x="342.4852071005917" y="35.0" class="label" text-anchor="middle">52</text>
  <circle cx="346.7455621301775" cy="40.0" class="point"/>
  <text x="346.7455621301775" y="375" class="label" text-anchor="middle">2026-01-22</text>
  <text x="346.7455621301775" y="35.0" class="label" text-anchor="middle">52</text>
  <circle cx="351.0059171597633" cy="40.0" class="point"/>
  <text x="351.0059171597633" y="375" class="label" text-anchor="middle">2026-01-23</text>
  <text x="351.0059171597633" y="35.0" class="label" text-anchor="middle">52</text>
  <circle cx="355.26627218934914" cy="40.0" class="point"/>
  <text x="355.26627218934914" y="375" class="label" text-anchor="middle">2026-01-24</text>
  <text x="355.26627218934914" y="35.0" class="label" text-anchor="middle">52</text>
  <circle cx="359.5266272189349" cy="40.0" class="point"/>
  <text x="359.5266272189349" y="375" class="label" text-anchor="middle">2026-01-25</text>
  <text x="359.5266272189349" y="35.0" class="label" text-anchor="middle">52</text>
  <circle cx="363.7869822485207" cy="40.0" class="point"/>
  <text x="363.7869822485207" y="375" class="label" text-anchor="middle">2026-01-26</text>
  <text x="363.7869822485207" y="35.0" class="label" text-anchor="middle">52</text>
  <circle cx="368.0473372781065" cy="40.0" class="point"/>
  <text x="368.0473372781065" y="375" class="label" text-anchor="middle">2026-01-27</text>
  <text x="368.0473372781065" y="35.0" class="label" text-anchor="middle">52</text>
  <circle cx="372.3076923076923" cy="40.0" class="point"/>
  <text x="372.3076923076923" y="375" class="label" text-anchor="middle">2026-01-28</text>
  <text x="372.3076923076923" y="35.0" class="label" text-anchor="middle">52</text>
  <circle cx="376.56804733727813" cy="40.0" class="point"/>
  <text x="376.56804733727813" y="375" class="label" text-anchor="middle">2026-01-29</text>
  <text x="376.56804733727813" y="35.0" class="label" text-anchor="middle">52</text>
  <circle cx="380.8284023668639" cy="40.0" class="point"/>
  <text x="380.8284023668639" y="375" class="label" text-anchor="middle">2026-01-30</text>
  <text x="380.8284023668639" y="35.0" class="label" text-anchor="middle">52</text>
  <circle cx="385.0887573964497" cy="40.0" class="point"/>
  <text x="385.0887573964497" y="375" class="label" text-anchor="middle">2026-01-31</text>
  <text x="385.0887573964497" y="35.0" class="label" text-anchor="middle">52</text>
  <circle cx="389.3491124260355" cy="40.0" class="point"/>
  <text x="389.3491124260355" y="375" class="label" text-anchor="middle">2026-02-01</text>
  <text x="389.3491124260355" y="35.0" class="label" text-anchor="middle">52</text>
  <circle cx="393.6094674556213" cy="40.0" class="point"/>
  <text x="393.6094674556213" y="375" class="label" text-anchor="middle">2026-02-02</text>
  <text x="393.6094674556213" y="35.0" class="label" text-anchor="middle">52</text>
  <circle cx="397.86982248520707" cy="40.0" class="point"/>
  <text x="397.86982248520707" y="375" class="label" text-anchor="middle">2026-02-03</text>
  <text x="397.86982248520707" y="35.0" class="label" text-anchor="middle">52</text>
  <circle cx="402.13017751479293" cy="40.0" class="point"/>
  <text x="402.13017751479293" y="375" class="label" text-anchor="middle">2026-02-04</text>
  <text x="402.13017751479293" y="35.0" class="label" text-anchor="middle">52</text>
  <circle cx="406.39053254437874" cy="40.0" class="point"/>
  <text x="406.39053254437874" y="375" class="label" text-anchor="middle">2026-02-05</text>
  <text x="406.39053254437874" y="35.0" class="label" text-anchor="middle">52</text>
  <circle cx="410.6508875739645" cy="40.0" class="point"/>
  <text x="410.6508875739645" y="375" class="label" text-anchor="middle">2026-02-06</text>
  <text x="410.6508875739645" y="35.0" class="label" text-anchor="middle">52</text>
  <circle cx="414.9112426035503" cy="40.0" class="point"/>
  <text x="414.9112426035503" y="375" class="label" text-anchor="middle">2026-02-07</text>
  <text x="414.9112426035503" y="35.0" class="label" text-anchor="middle">52</text>
  <circle cx="419.1715976331361" cy="40.0" class="point"/>
  <text x="419.1715976331361" y="375" class="label" text-anchor="middle">2026-02-08</text>
  <text x="419.1715976331361" y="35.0" class="label" text-anchor="middle">52</text>
  <circle cx="423.4319526627219" cy="40.0" class="point"/>
  <text x="423.4319526627219" y="375" class="label" text-anchor="middle">2026-02-09</text>
  <text x="423.4319526627219" y="35.0" class="label" text-anchor="middle">52</text>
  <circle cx="427.6923076923077" cy="40.0" class="point"/>
  <text x="427.6923076923077" y="375" class="label" text-anchor="middle">2026-02-10</text>
  <text x="427.6923076923077" y="35.0" class="label" text-anchor="middle">52</text>
  <circle cx="431.9526627218935" cy="40.0" class="point"/>
  <text x="431.9526627218935" y="375" class="label" text-anchor="middle">2026-02-11</text>
  <text x="431.9526627218935" y="35.0" class="label" text-anchor="middle">52</text>
  <circle cx="436.2130177514793" cy="40.0" class="point"/>
  <text x="436.2130177514793" y="375" class="label" text-anchor="middle">2026-02-12</text>
  <text x="436.2130177514793" y="35.0" class="label" text-anchor="middle">52</text>
  <circle cx="440.47337278106505" cy="40.0" class="point"/>
  <text x="440.47337278106505" y="375" class="label" text-anchor="middle">2026-02-13</text>
  <text x="440.47337278106505" y="35.0" class="label" text-anchor="middle">52</text>
  <circle cx="444.73372781065086" cy="40.0" class="point"/>
  <text x="444.73372781065086" y="375" class="label" text-anchor="middle">2026-02-14</text>
  <text x="444.73372781065086" y="35.0" class="label" text-anchor="middle">52</text>
  <circle cx="448.9940828402367" cy="40.0" class="point"/>
  <text x="448.9940828402367" y="375" class="label" text-anchor="middle">2026-02-15</text>
  <text x="448.9940828402367" y="35.0" class="label" text-anchor="middle">52</text>
  <circle cx="453.25443786982254" cy="40.0" class="point"/>
  <text x="453.25443786982254" y="375" class="label" text-anchor="middle">2026-02-16</text>
  <text x="453.25443786982254" y="35.0" class="label" text-anchor="middle">52</text>
  <circle cx="457.51479289940823" cy="40.0" class="point"/>
  <text x="457.51479289940823" y="375" class="label" text-anchor="middle">2026-02-17</text>
  <text x="457.51479289940823" y="35.0" class="label" text-anchor="middle">52</text>
  <circle cx="461.7751479289941" cy="40.0" class="point"/>
  <text x="461.7751479289941" y="375" class="label" text-anchor="middle">2026-02-18</text>
  <text x="461.7751479289941" y="35.0" class="label" text-anchor="middle">52</text>
  <circle cx="466.0355029585799" cy="40.0" class="point"/>
  <text x="466.0355029585799" y="375" class="label" text-anchor="middle">2026-02-19</text>
  <text x="466.0355029585799" y="35.0" class="label" text-anchor="middle">52</text>
  <circle cx="470.2958579881657" cy="40.0" class="point"/>
  <text x="470.2958579881657" y="375" class="label" text-anchor="middle">2026-02-20</text>
  <text x="470.2958579881657" y="35.0" class="label" text-anchor="middle">52</text>
  <circle cx="474.5562130177515" cy="40.0" class="point"/>
  <text x="474.5562130177515" y="375" class="label" text-anchor="middle">2026-02-21</text>
  <text x="474.5562130177515" y="35.0" class="label" text-anchor="middle">52</text>
  <circle cx="478.8165680473373" cy="40.0" class="point"/>
  <text x="478.8165680473373" y="375" class="label" text-anchor="middle">2026-02-22</text>
  <text x="478.8165680473373" y="35.0" class="label" text-anchor="middle">52</text>
  <circle cx="483.0769230769231" cy="40.0" class="point"/>
  <text x="483.0769230769231" y="375" class="label" text-anchor="middle">2026-02-23</text>
  <text x="483.0769230769231" y="35.0" class="label" text-anchor="middle">52</text>
  <circle cx="487.33727810650885" cy="40.0" class="point"/>
  <text x="487.33727810650885" y="375" class="label" text-anchor="middle">2026-02-24</text>
  <text x="487.33727810650885" y="35.0" class="label" text-anchor="middle">52</text>
  <circle cx="491.59763313609466" cy="40.0" class="point"/>
  <text x="491.59763313609466" y="375" class="label" text-anchor="middle">2026-02-25</text>
  <text x="491.59763313609466" y="35.0" class="label" text-anchor="middle">52</text>
  <circle cx="495.85798816568047" cy="40.0" class="point"/>
  <text x="495.85798816568047" y="375" class="label" text-anchor="middle">2026-02-26</text>
  <text x="495.85798816568047" y="35.0" class="label" text-anchor="middle">52</text>
  <circle cx="500.1183431952663" cy="40.0" class="point"/>
  <text x="500.1183431952663" y="375" class="label" text-anchor="middle">2026-02-27</text>
  <text x="500.1183431952663" y="35.0" class="label" text-anchor="middle">52</text>
  <circle cx="504.37869822485203" cy="40.0" class="point"/>
  <text x="504.37869822485203" y="375" class="label" text-anchor="middle">2026-02-28</text>
  <text x="504.37869822485203" y="35.0" class="label" text-anchor="middle">52</text>
  <circle cx="508.63905325443784" cy="40.0" class="point"/>
  <text x="508.63905325443784" y="375" class="label" text-anchor="middle">2026-03-01</text>
  <text x="508.63905325443784" y="35.0" class="label" text-anchor="middle">52</text>
  <circle cx="512.8994082840237" cy="40.0" class="point"/>
  <text x="512.8994082840237" y="375" class="label" text-anchor="middle">2026-03-02</text>
  <text x="512.8994082840237" y="35.0" class="label" text-anchor="middle">52</text>
  <circle cx="517.1597633136096" cy="40.0" class="point"/>
  <text x="517.1597633136096" y="375" class="label" text-anchor="middle">2026-03-03</text>
  <text x="517.1597633136096" y="35.0" class="label" text-anchor="middle">52</text>
  <circle cx="521.4201183431953" cy="40.0" class="point"/>
  <text x="521.4201183431953" y="375" class="label" text-anchor="middle">2026-03-04</text>
  <text x="521.4201183431953" y="35.0" class="label" text-anchor="middle">52</text>
  <circle cx="525.6804733727811" cy="40.0" class="point"/>
  <text x="525.6804733727811" y="375" class="label" text-anchor="middle">2026-03-05</text>
  <text x="525.6804733727811" y="35.0" class="label" text-anchor="middle">52</text>
  <circle cx="529.9408284023668" cy="40.0" class="point"/>
  <text x="529.9408284023668" y="375" class="label" text-anchor="middle">2026-03-06</text>
  <text x="529.9408284023668" y="35.0" class="label" text-anchor="middle">52</text>
  <circle cx="534.2011834319526" cy="40.0" class="point"/>
  <text x="534.2011834319526" y="375" class="label" text-anchor="middle">2026-03-07</text>
  <text x="534.2011834319526" y="35.0" class="label" text-anchor="middle">52</text>
  <circle cx="538.4615384615385" cy="40.0" class="point"/>
  <text x="538.4615384615385" y="375" class="label" text-anchor="middle">2026-03-08</text>
  <text x="538.4615384615385" y="35.0" class="label" text-anchor="middle">52</text>
  <circle cx="542.7218934911243" cy="40.0" class="point"/>
  <text x="542.7218934911243" y="375" class="label" text-anchor="middle">2026-03-09</text>
  <text x="542.7218934911243" y="35.0" class="label" text-anchor="middle">52</text>
  <circle cx="546.9822485207101" cy="40.0" class="point"/>
  <text x="546.9822485207101" y="375" class="label" text-anchor="middle">2026-03-10</text>
  <text x="546.9822485207101" y="35.0" class="label" text-anchor="middle">52</text>
  <circle cx="551.2426035502958" cy="40.0" class="point"/>
  <text x="551.2426035502958" y="375" class="label" text-anchor="middle">2026-03-11</text>
  <text x="551.2426035502958" y="35.0" class="label" text-anchor="middle">52</text>
  <circle cx="555.5029585798817" cy="40.0" class="point"/>
  <text x="555.5029585798817" y="375" class="label" text-anchor="middle">2026-03-12</text>
  <text x="555.5029585798817" y="35.0" class="label" text-anchor="middle">52</text>
  <circle cx="559.7633136094674" cy="40.0" class="point"/>
  <text x="559.7633136094674" y="375" class="label" text-anchor="middle">2026-03-13</text>
  <text x="559.7633136094674" y="35.0" class="label" text-anchor="middle">52</text>
  <circle cx="564.0236686390533" cy="40.0" class="point"/>
  <text x="564.0236686390533" y="375" class="label" text-anchor="middle">2026-03-14</text>
  <text x="564.0236686390533" y="35.0" class="label" text-anchor="middle">52</text>
  <circle cx="568.2840236686391" cy="40.0" class="point"/>
  <text x="568.2840236686391" y="375" class="label" text-anchor="middle">2026-03-15</text>
  <text x="568.2840236686391" y="35.0" class="label" text-anchor="middle">52</text>
  <circle cx="572.5443786982248" cy="40.0" class="point"/>
  <text x="572.5443786982248" y="375" class="label" text-anchor="middle">2026-03-16</text>
  <text x="572.5443786982248" y="35.0" class="label" text-anchor="middle">52</text>
  <circle cx="576.8047337278107" cy="40.0" class="point"/>
  <text x="576.8047337278107" y="375" class="label" text-anchor="middle">2026-03-17</text>
  <text x="576.8047337278107" y="35.0" class="label" text-anchor="middle">52</text>
  <circle cx="581.0650887573964" cy="40.0" class="point"/>
  <text x="581.0650887573964" y="375" class="label" text-anchor="middle">2026-03-18</text>
  <text x="581.0650887573964" y="35.0" class="label" text-anchor="middle">52</text>
  <circle cx="585.3254437869822" cy="40.0" class="point"/>
  <text x="585.3254437869822" y="375" class="label" text-anchor="middle">2026-03-19</text>
  <text x="585.3254437869822" y="35.0" class="label" text-anchor="middle">52</text>
  <circle cx="589.5857988165681" cy="40.0" class="point"/>
  <text x="589.5857988165681" y="375" class="label" text-anchor="middle">2026-03-20</text>
  <text x="589.5857988165681" y="35.0" class="label" text-anchor="middle">52</text>
  <circle cx="593.8461538461539" cy="40.0" class="point"/>
  <text x="593.8461538461539" y="375" class="label" text-anchor="middle">2026-03-21</text>
  <text x="593.8461538461539" y="35.0" class="label" text-anchor="middle">52</text>
  <circle cx="598.1065088757396" cy="40.0" class="point"/>
  <text x="598.1065088757396" y="375" class="label" text-anchor="middle">2026-03-22</text>
  <text x="598.1065088757396" y="35.0" class="label" text-anchor="middle">52</text>
  <circle cx="602.3668639053254" cy="40.0" class="point"/>
  <text x="602.3668639053254" y="375" class="label" text-anchor="middle">2026-03-23</text>
  <text x="602.3668639053254" y="35.0" class="label" text-anchor="middle">52</text>
  <circle cx="606.6272189349113" cy="40.0" class="point"/>
  <text x="606.6272189349113" y="375" class="label" text-anchor="middle">2026-03-24</text>
  <text x="606.6272189349113" y="35.0" class="label" text-anchor="middle">52</text>
  <circle cx="610.887573964497" cy="40.0" class="point"/>
  <text x="610.887573964497" y="375" class="label" text-anchor="middle">2026-03-25</text>
  <text x="610.887573964497" y="35.0" class="label" text-anchor="middle">52</text>
  <circle cx="615.1479289940828" cy="40.0" class="point"/>
  <text x="615.1479289940828" y="375" class="label" text-anchor="middle">2026-03-26</text>
  <text x="615.1479289940828" y="35.0" class="label" text-anchor="middle">52</text>
  <circle cx="619.4082840236687" cy="40.0" class="point"/>
  <text x="619.4082840236687" y="375" class="label" text-anchor="middle">2026-03-27</text>
  <text x="619.4082840236687" y="35.0" class="label" text-anchor="middle">52</text>
  <circle cx="623.6686390532544" cy="40.0" class="point"/>
  <text x="623.6686390532544" y="375" class="label" text-anchor="middle">2026-03-28</text>
  <text x="623.6686390532544" y="35.0" class="label" text-anchor="middle">52</text>
  <circle cx="627.9289940828402" cy="40.0" class="point"/>
  <text x="627.9289940828402" y="375" class="label" text-anchor="middle">2026-03-29</text>
  <text x="627.9289940828402" y="35.0" class="label" text-anchor="middle">52</text>
  <circle cx="632.189349112426" cy="40.0" class="point"/>
  <text x="632.189349112426" y="375" class="label" text-anchor="middle">2026-03-30</text>
  <text x="632.189349112426" y="35.0" class="label" text-anchor="middle">52</text>
  <circle cx="636.4497041420118" cy="40.0" class="point"/>
  <text x="636.4497041420118" y="375" class="label" text-anchor="middle">2026-03-31</text>
  <text x="636.4497041420118" y="35.0" class="label" text-anchor="middle">52</text>
  <circle cx="640.7100591715977" cy="40.0" class="point"/>
  <text x="640.7100591715977" y="375" class="label" text-anchor="middle">2026-04-01</text>
  <text x="640.7100591715977" y="35.0" class="label" text-anchor="middle">52</text>
  <circle cx="644.9704142011834" cy="40.0" class="point"/>
  <text x="644.9704142011834" y="375" class="label" text-anchor="middle">2026-04-02</text>
  <text x="644.9704142011834" y="35.0" class="label" text-anchor="middle">52</text>
  <circle cx="649.2307692307692" cy="40.0" class="point"/>
  <text x="649.2307692307692" y="375" class="label" text-anchor="middle">2026-04-03</text>
  <text x="649.2307692307692" y="35.0" class="label" text-anchor="middle">52</text>
  <circle cx="653.491124260355" cy="40.0" class="point"/>
  <text x="653.491124260355" y="375" class="label" text-anchor="middle">2026-04-04</text>
  <text x="653.491124260355" y="35.0" class="label" text-anchor="middle">52</text>
  <circle cx="657.7514792899409" cy="40.0" class="point"/>
  <text x="657.7514792899409" y="375" class="label" text-anchor="middle">2026-04-05</text>
  <text x="657.7514792899409" y="35.0" class="label" text-anchor="middle">52</text>
  <circle cx="662.0118343195267" cy="40.0" class="point"/>
  <text x="662.0118343195267" y="375" class="label" text-anchor="middle">2026-04-06</text>
  <text x="662.0118343195267" y="35.0" class="label" text-anchor="middle">52</text>
  <circle cx="666.2721893491124" cy="40.0" class="point"/>
  <text x="666.2721893491124" y="375" class="label" text-anchor="middle">2026-04-07</text>
  <text x="666.2721893491124" y="35.0" class="label" text-anchor="middle">52</text>
  <circle cx="670.5325443786983" cy="40.0" class="point"/>
  <text x="670.5325443786983" y="375" class="label" text-anchor="middle">2026-04-08</text>
  <text x="670.5325443786983" y="35.0" class="label" text-anchor="middle">52</text>
  <circle cx="674.792899408284" cy="40.0" class="point"/>
  <text x="674.792899408284" y="375" class="label" text-anchor="middle">2026-04-09</text>
  <text x="674.792899408284" y="35.0" class="label" text-anchor="middle">52</text>
  <circle cx="679.0532544378698" cy="40.0" class="point"/>
  <text x="679.0532544378698" y="375" class="label" text-anchor="middle">2026-04-10</text>
  <text x="679.0532544378698" y="35.0" class="label" text-anchor="middle">52</text>
  <circle cx="683.3136094674556" cy="40.0" class="point"/>
  <text x="683.3136094674556" y="375" class="label" text-anchor="middle">2026-04-11</text>
  <text x="683.3136094674556" y="35.0" class="label" text-anchor="middle">52</text>
  <circle cx="687.5739644970414" cy="40.0" class="point"/>
  <text x="687.5739644970414" y="375" class="label" text-anchor="middle">2026-04-12</text>
  <text x="687.5739644970414" y="35.0" class="label" text-anchor="middle">52</text>
  <circle cx="691.8343195266272" cy="40.0" class="point"/>
  <text x="691.8343195266272" y="375" class="label" text-anchor="middle">2026-04-13</text>
  <text x="691.8343195266272" y="35.0" class="label" text-anchor="middle">52</text>
  <circle cx="696.094674556213" cy="40.0" class="point"/>
  <text x="696.094674556213" y="375" class="label" text-anchor="middle">2026-04-14</text>
  <text x="696.094674556213" y="35.0" class="label" text-anchor="middle">52</text>
  <circle cx="700.3550295857988" cy="40.0" class="point"/>
  <text x="700.3550295857988" y="375" class="label" text-anchor="middle">2026-04-15</text>
  <text x="700.3550295857988" y="35.0" class="label" text-anchor="middle">52</text>
  <circle cx="704.6153846153846" cy="40.0" class="point"/>
  <text x="704.6153846153846" y="375" class="label" text-anchor="middle">2026-04-16</text>
  <text x="704.6153846153846" y="35.0" class="label" text-anchor="middle">52</text>
  <circle cx="708.8757396449704" cy="40.0" class="point"/>
  <text x="708.8757396449704" y="375" class="label" text-anchor="middle">2026-04-17</text>
  <text x="708.8757396449704" y="35.0" class="label" text-anchor="middle">52</text>
  <circle cx="713.1360946745563" cy="40.0" class="point"/>
  <text x="713.1360946745563" y="375" class="label" text-anchor="middle">2026-04-18</text>
  <text x="713.1360946745563" y="35.0" class="label" text-anchor="middle">52</text>
  <circle cx="717.396449704142" cy="40.0" class="point"/>
  <text x="717.396449704142" y="375" class="label" text-anchor="middle">2026-04-19</text>
  <text x="717.396449704142" y="35.0" class="label" text-anchor="middle">52</text>
  <circle cx="721.6568047337278" cy="40.0" class="point"/>
  <text x="721.6568047337278" y="375" class="label" text-anchor="middle">2026-04-20</text>
  <text x="721.6568047337278" y="35.0" class="label" text-anchor="middle">52</text>
  <circle cx="725.9171597633136" cy="40.0" class="point"/>
  <text x="725.9171597633136" y="375" class="label" text-anchor="middle">2026-04-21</text>
  <text x="725.9171597633136" y="35.0" class="label" text-anchor="middle">52</text>
  <circle cx="730.1775147928994" cy="40.0" class="point"/>
  <text x="730.1775147928994" y="375" class="label" text-anchor="middle">2026-04-22</text>
  <text x="730.1775147928994" y="35.0" class="label" text-anchor="middle">52</text>
  <circle cx="734.4378698224853" cy="40.0" class="point"/>
  <text x="734.4378698224853" y="375" class="label" text-anchor="middle">2026-04-23</text>
  <text x="734.4378698224853" y="35.0" class="label" text-anchor="middle">52</text>
  <circle cx="738.698224852071" cy="40.0" class="point"/>
  <text x="738.698224852071" y="375" class="label" text-anchor="middle">2026-04-24</text>
  <text x="738.698224852071" y="35.0" class="label" text-anchor="middle">52</text>
  <circle cx="742.9585798816568" cy="40.0" class="point"/>
  <text x="742.9585798816568" y="375" class="label" text-anchor="middle">2026-04-25</text>
  <text x="742.9585798816568" y="35.0" class="label" text-anchor="middle">52</text>
  <circle cx="747.2189349112426" cy="40.0" class="point"/>
  <text x="747.2189349112426" y="375" class="label" text-anchor="middle">2026-04-26</text>
  <text x="747.2189349112426" y="35.0" class="label" text-anchor="middle">52</text>
  <circle cx="751.4792899408285" cy="40.0" class="point"/>
  <text x="751.4792899408285" y="375" class="label" text-anchor="middle">2026-04-27</text>
  <text x="751.4792899408285" y="35.0" class="label" text-anchor="middle">52</text>
  <circle cx="755.7396449704141" cy="40.0" class="point"/>
  <text x="755.7396449704141" y="375" class="label" text-anchor="middle">2026-04-28</text>
  <text x="755.7396449704141" y="35.0" class="label" text-anchor="middle">52</text>
  <circle cx="760.0" cy="40.0" class="point"/>
  <text x="760.0" y="375" class="label" text-anchor="middle">2026-04-29</text>
  <text x="760.0" y="35.0" class="label" text-anchor="middle">52</text>
  <text x="30" y="363.0" class="label" text-anchor="end">0</text>
  <text x="30" y="301.46153846153845" class="label" text-anchor="end">10</text>
  <text x="30" y="239.9230769230769" class="label" text-anchor="end">20</text>
  <text x="30" y="178.38461538461542" class="label" text-anchor="end">30</text>
  <text x="30" y="116.84615384615384" class="label" text-anchor="end">40</text>
  <text x="30" y="55.30769230769232" class="label" text-anchor="end">50</text>
</svg>