<svg xmlns="http://www.w3.org/2000/svg" width="800" height="400" viewBox="0 0 800 400">
  <style>
    .axis{stroke:#666;stroke-width:1}
    .line{stroke:#4a9;stroke-width:2;fill:none}
    .point{fill:#4a9;r:4}
    .label{font:10px sans-serif;fill:#aaa}
    .title{font:14px sans-serif;fill:#333}
  </style>
  <text x="400" y="20" class="title" text-anchor="middle">OPIC Field Growth Timeline</text>
  <line x1="40" y1="40" x2="40" y2="360" class="axis"/>
  <line x1="40" y1="360" x2="760" y2="360" class="axis"/>
  <path d="M 40.0,101.53846153846155 L 44.675324675324674,101.53846153846155 L 49.35064935064935,101.53846153846155 L 54.02597402597402,101.53846153846155 L 58.701298701298704,101.53846153846155 L 63.37662337662337,101.53846153846155 L 68.05194805194805,101.53846153846155 L 72.72727272727272,101.53846153846155 L 77.40259740259741,101.53846153846155 L 82.07792207792207,101.53846153846155 L 86.75324675324674,101.53846153846155 L 91.42857142857142,101.53846153846155 L 96.1038961038961,101.53846153846155 L 100.77922077922078,101.53846153846155 L 105.45454545454545,101.53846153846155 L 110.12987012987013,101.53846153846155 L 114.80519480519482,101.53846153846155 L 119.48051948051948,101.53846153846155 L 124.15584415584415,101.53846153846155 L 128.83116883116884,101.53846153846155 L 133.50649350649348,101.53846153846155 L 138.1818181818182,101.53846153846155 L 142.85714285714283,101.53846153846155 L 147.53246753246754,101.53846153846155 L 152.2077922077922,101.53846153846155 L 156.88311688311688,101.53846153846155 L 161.55844155844156,101.53846153846155 L 166.23376623376623,40.0 L 170.9090909090909,40.0 L 175.58441558441558,40.0 L 180.25974025974025,40.0 L 184.93506493506493,40.0 L 189.61038961038963,40.0 L 194.28571428571428,40.0 L 198.96103896103895,40.0 L 203.63636363636363,40.0 L 208.3116883116883,40.0 L 212.98701298701297,40.0 L 217.66233766233765,40.0 L 222.33766233766232,40.0 L 227.012987012987,40.0 L 231.68831168831167,40.0 L 236.36363636363635,40.0 L 241.03896103896102,40.0 L 245.7142857142857,40.0 L 250.38961038961037,40.0 L 255.06493506493507,40.0 L 259.7402597402597,40.0 L 264.4155844155844,40.0 L 269.0909090909091,40.0 L 273.76623376623377,40.0 L 278.4415584415584,40.0 L 283.1168831168831,40.0 L 287.7922077922078,40.0 L 292.46753246753246,40.0 L 297.14285714285717,40.0 L 301.8181818181818,40.0 L 306.4935064935065,40.0 L 311.16883116883116,40.0 L 315.84415584415586,40.0 L 320.5194805194805,40.0 L 325.1948051948052,40.0 L 329.87012987012986,40.0 L 334.54545454545456,40.0 L 339.22077922077926,40.0 L 343.89610389610385,40.0 L 348.57142857142856,40.0 L 353.24675324675326,40.0 L 357.9220779220779,40.0 L 362.5974025974026,40.0 L 367.27272727272725,40.0 L 371.94805194805195,40.0 L 376.6233766233766,40.0 L 381.2987012987013,40.0 L 385.97402597402595,40.0 L 390.64935064935065,40.0 L 395.3246753246753,40.0 L 400.0,40.0 L 404.67532467532465,40.0 L 409.35064935064935,40.0 L 414.025974025974,40.0 L 418.7012987012987,40.0 L 423.37662337662334,40.0 L 428.05194805194805,40.0 L 432.7272727272727,40.0 L 437.4025974025974,40.0 L 442.07792207792204,40.0 L 446.75324675324674,40.0 L 451.4285714285714,40.0 L 456.10389610389615,40.0 L 460.77922077922074,40.0 L 465.4545454545455,40.0 L 470.12987012987014,40.0 L 474.80519480519484,40.0 L 479.4805194805195,40.0 L 484.1558441558442,40.0 L 488.83116883116884,40.0 L 493.50649350649354,40.0 L 498.1818181818182,40.0 L 502.8571428571429,40.0 L 507.53246753246754,40.0 L 512.2077922077922,40.0 L 516.8831168831168,40.0 L 521.5584415584415,40.0 L 526.2337662337662,40.0 L 530.9090909090909,40.0 L 535.5844155844156,40.0 L 540.2597402597403,40.0 L 544.9350649350649,40.0 L 549.6103896103896,40.0 L 554.2857142857143,40.0 L 558.961038961039,40.0 L 563.6363636363636,40.0 L 568.3116883116883,40.0 L 572.987012987013,40.0 L 577.6623376623377,40.0 L 582.3376623376623,40.0 L 587.012987012987,40.0 L 591.6883116883117,40.0 L 596.3636363636364,40.0 L 601.038961038961,40.0 L 605.7142857142857,40.0 L 610.3896103896104,40.0 L 615.0649350649351,40.0 L 619.7402597402597,40.0 L 624.4155844155844,40.0 L 629.0909090909091,40.0 L 633.7662337662338,40.0 L 638.4415584415585,40.0 L 643.1168831168832,40.0 L 647.7922077922077,40.0 L 652.4675324675325,40.0 L 657.1428571428571,40.0 L 661.8181818181819,40.0 L 666.4935064935065,40.0 L 671.1688311688312,40.0 L 675.8441558441558,40.0 L 680.5194805194806,40.0 L 685.1948051948052,40.0 L 689.8701298701299,40.0 L 694.5454545454545,40.0 L 699.2207792207793,40.0 L 703.8961038961039,40.0 L 708.5714285714286,40.0 L 713.2467532467532,40.0 L 717.922077922078,40.0 L 722.5974025974026,40.0 L 727.2727272727273,40.0 L 731.9480519480519,40.0 L 736.6233766233767,40.0 L 741.2987012987013,40.0 L 745.9740259740261,40.0 L 750.6493506493506,40.0 L 755.3246753246754,40.0 L 760.0,40.0" class="line"/>
  <circle cx="40.0" cy="101.53846153846155" class="point"/>
  <text x="40.0" y="375" class="label" text-anchor="middle">2025-11-11</text>
  <text x="40.0" y="96.53846153846155" class="label" text-anchor="middle">42</text>
  <circle cx="44.675324675324674" cy="101.53846153846155" class="point"/>
  <text x="44.675324675324674" y="375" class="label" text-anchor="middle">2025-11-12</text>
  <text x="44.675324675324674" y="96.53846153846155" class="label" text-anchor="middle">42</text>
  <circle cx="49.35064935064935" cy="101.53846153846155" class="point"/>
  <text x="49.35064935064935" y="375" class="label" text-anchor="middle">2025-11-13</text>
  <text x="49.35064935064935" y="96.53846153846155" class="label" text-anchor="middle">42</text>
  <circle cx="54.02597402597402" cy="101.53846153846155" class="point"/>
  <text x="54.02597402597402" y="375" class="label" text-anchor="middle">2025-11-14</text>
  <text x="54.02597402597402" y="96.53846153846155" class="label" text-anchor="middle">42</text>
  <circle cx="58.701298701298704" cy="101.53846153846155" class="point"/>
  <text x="58.701298701298704" y="375" class="label" text-anchor="middle">2025-11-15</text>
  <text x="58.701298701298704" y="96.53846153846155" class="label" text-anchor="middle">42</text>
  <circle cx="63.37662337662337" cy="101.53846153846155" class="point"/>
  <text x="63.37662337662337" y="375" class="label" text-anchor="middle">2025-11-16</text>
  <text x="63.37662337662337" y="96.53846153846155" class="label" text-anchor="middle">42</text>
  <circle cx="68.05194805194805" cy="101.53846153846155" class="point"/>
  <text x="68.05194805194805" y="375" class="label" text-anchor="middle">2025-11-17</text>
  <text x="68.05194805194805" y="96.53846153846155" class="label" text-anchor="middle">42</text>
  <circle cx="72.72727272727272" cy="101.53846153846155" class="point"/>
  <text x="72.72727272727272" y="375" class="label" text-anchor="middle">2025-11-18</text>
  <text x="72.72727272727272" y="96.53846153846155" class="label" text-anchor="middle">42</text>
  <circle cx="77.40259740259741" cy="101.53846153846155" class="point"/>
  <text x="77.40259740259741" y="375" class="label" text-anchor="middle">2025-11-19</text>
  <text x="77.40259740259741" y="96.53846153846155" class="label" text-anchor="middle">42</text>
  <circle cx="82.07792207792207" cy="101.53846153846155" class="point"/>
  <text x="82.07792207792207" y="375" class="label" text-anchor="middle">2025-11-20</text>
  <text x="82.07792207792207" y="96.53846153846155" class="label" text-anchor="middle">42</text>
  <circle cx="86.75324675324674" cy="101.53846153846155" class="point"/>
  <text x="86.75324675324674" y="375" class="label" text-anchor="middle">2025-11-21</text>
  <text x="86.75324675324674" y="96.53846153846155" class="label" text-anchor="middle">42</text>
  <circle cx="91.42857142857142" cy="101.53846153846155" class="point"/>
  <text x="91.42857142857142" y="375" class="label" text-anchor="middle">2025-11-22</text>
  <text x="91.42857142857142" y="96.53846153846155" class="label" text-anchor="middle">42</text>
  <circle cx="96.1038961038961" cy="101.53846153846155" class="point"/>
  <text x="96.1038961038961" y="375" class="label" text-anchor="middle">2025-11-23</text>
  <text x="96.1038961038961" y="96.53846153846155" class="label" text-anchor="middle">42</text>
  <circle cx="100.77922077922078" cy="101.53846153846155" class="point"/>
  <text x="100.77922077922078" y="375" class="label" text-anchor="middle">2025-11-24</text>
  <text x="100.77922077922078" y="96.53846153846155" class="label" text-anchor="middle">42</text>
  <circle cx="105.45454545454545" cy="101.53846153846155" class="point"/>
  <text x="105.45454545454545" y="375" class="label" text-anchor="middle">2025-11-25</text>
  <text x="105.45454545454545" y="96.53846153846155" class="label" text-anchor="middle">42</text>
  <circle cx="110.12987012987013" cy="101.53846153846155" class="point"/>
  <text x="110.12987012987013" y="375" class="label" text-anchor="middle">2025-11-26</text>
  <text x="110.12987012987013" y="96.53846153846155" class="label" text-anchor="middle">42</text>
  <circle cx="114.80519480519482" cy="101.53846153846155" class="point"/>
  <text x="114.80519480519482" y="375" class="label" text-anchor="middle">2025-11-27</text>
  <text x="114.80519480519482" y="96.53846153846155" class="label" text-anchor="middle">42</text>
  <circle cx="119.48051948051948" cy="101.53846153846155" class="point"/>
  <text x="119.48051948051948" y="375" class="label" text-anchor="middle">2025-11-28</text>
  <text x="119.48051948051948" y="96.53846153846155" class="label" text-anchor="middle">42</text>
  <circle cx="124.15584415584415" cy="101.53846153846155" class="point"/>
  <text x="124.15584415584415" y="375" class="label" text-anchor="middle">2025-11-29</text>
  <text x="124.15584415584415" y="96.53846153846155" class="label" text-anchor="middle">42</text>
  <circle cx="128.83116883116884" cy="101.53846153846155" class="point"/>
  <text x="128.83116883116884" y="375" class="label" text-anchor="middle">2025-11-30</text>
  <text x="128.83116883116884" y="96.53846153846155" class="label" text-anchor="middle">42</text>
  <circle cx="133.50649350649348" cy="101.53846153846155" class="point"/>
  <text x="133.50649350649348" y="375" class="label" text-anchor="middle">2025-12-01</text>
  <text x="133.50649350649348" y="96.53846153846155" class="label" text-anchor="middle">42</text>
  <circle cx="138.1818181818182" cy="101.53846153846155" class="point"/>
  <text x="138.1818181818182" y="375" class="label" text-anchor="middle">2025-12-02</text>
  <text x="138.1818181818182" y="96.53846153846155" class="label" text-anchor="middle">42</text>
  <circle cx="142.85714285714283" cy="101.53846153846155" class="point"/>
  <text x="142.85714285714283" y="375" class="label" text-anchor="middle">2025-12-03</text>
  <text x="142.85714285714283" y="96.53846153846155" class="label" text-anchor="middle">42</text>
  <circle cx="147.53246753246754" cy="101.53846153846155" class="point"/>
  <text x="147.53246753246754" y="375" class="label" text-anchor="middle">2025-12-04</text>
  <text x="147.53246753246754" y="96.53846153846155" class="label" text-anchor="middle">42</text>
  <circle cx="152.2077922077922" cy="101.53846153846155" class="point"/>
  <text x="152.2077922077922" y="375" class="label" text-anchor="middle">2025-12-05</text>
  <text x="152.2077922077922" y="96.53846153846155" class="label" text-anchor="middle">42</text>
  <circle cx="156.88311688311688" cy="101.53846153846155" class="point"/>
  <text x="156.88311688311688" y="375" class="label" text-anchor="middle">2025-12-06</text>
  <text x="156.88311688311688" y="96.53846153846155" class="label" text-anchor="middle">42</text>
  <circle cx="161.55844155844156" cy="101.53846153846155" class="point"/>
  <text x="161.55844155844156" y="375" class="label" text-anchor="middle">2025-12-07</text>
  <text x="161.55844155844156" y="96.53846153846155" class="label" text-anchor="middle">42</text>
  <circle cx="166.23376623376623" cy="40.0" class="point"/>
  <text x="166.23376623376623" y="375" class="label" text-anchor="middle">2025-12-08</text>
  <text x="166.23376623376623" y="35.0" class="label" text-anchor="middle">52</text>
  <circle cx="170.9090909090909" cy="40.0" class="point"/>
  <text x="170.9090909090909" y="375" class="label" text-anchor="middle">2025-12-09</text>
  <text x="170.9090909090909" y="35.0" class="label" text-anchor="middle">52</text>
  <circle cx="175.58441558441558" cy="40.0" class="point"/>
  <text x="175.58441558441558" y="375" class="label" text-anchor="middle">2025-12-10</text>
  <text x="175.58441558441558" y="35.0" class="label" text-anchor="middle">52</text>
  <circle cx="180.25974025974025" cy="40.0" class="point"/>
  <text x="180.25974025974025" y="375" class="label" text-anchor="middle">2025-12-11</text>
  <text x="180.25974025974025" y="35.0" class="label" text-anchor="middle">52</text>
  <circle cx="184.93506493506493" cy="40.0" class="point"/>
  <text x="184.93506493506493" y="375" class="label" text-anchor="middle">2025-12-12</text>
  <text x="184.93506493506493" y="35.0" class="label" text-anchor="middle">52</text>
  <circle cx="189.61038961038963" cy="40.0" class="point"/>
  <text x="189.61038961038963" y="375" class="label" text-anchor="middle">2025-12-13</text>
  <text x="189.61038961038963" y="35.0" class="label" text-anchor="middle">52</text>
  <circle cx="194.28571428571428" cy="40.0" class="point"/>
  <text x="194.28571428571428" y="375" class="label" text-anchor="middle">2025-12-14</text>
  <text x="194.28571428571428" y="35.0" class="label" text-anchor="middle">52</text>
  <circle cx="198.96103896103895" cy="40.0" class="point"/>
  <text x="198.96103896103895" y="375" class="label" text-anchor="middle">2025-12-15</text>
  <text x="198.96103896103895" y="35.0" class="label" text-anchor="middle">52</text>
  <circle cx="203.63636363636363" cy="40.0" class="point"/>
  <text x="203.63636363636363" y="375" class="label" text-anchor="middle">2025-12-16</text>
  <text x="203.63636363636363" y="35.0" class="label" text-anchor="middle">52</text>
  <circle cx="208.3116883116883" cy="40.0" class="point"/>
  <text x="208.3116883116883" y="375" class="label" text-anchor="middle">2025-12-17</text>
  <text x="208.3116883116883" y="35.0" class="label" text-anchor="middle">52</text>
  <circle cx="212.98701298701297" cy="40.0" class="point"/>
  <text x="212.98701298701297" y="375" class="label" text-anchor="middle">2025-12-18</text>
  <text x="212.98701298701297" y="35.0" class="label" text-anchor="middle">52</text>
  <circle cx="217.66233766233765" cy="40.0" class="point"/>
  <text x="217.66233766233765" y="375" class="label" text-anchor="middle">2025-12-19</text>
  <text x="217.66233766233765" y="35.0" class="label" text-anchor="middle">52</text>
  <circle cx="222.33766233766232" cy="40.0" class="point"/>
  <text x="222.33766233766232" y="375" class="label" text-anchor="middle">2025-12-20</text>
  <text x="222.33766233766232" y="35.0" class="label" text-anchor="middle">52</text>
  <circle cx="227.012987012987" cy="40.0" class="point"/>
  <text x="227.012987012987" y="375" class="label" text-anchor="middle">2025-12-21</text>
  <text x="227.012987012987" y="35.0" class="label" text-anchor="middle">52</text>
  <circle cx="231.68831168831167" cy="40.0" class="point"/>
  <text x="231.68831168831167" y="375" class="label" text-anchor="middle">2025-12-22</text>
  <text x="231.68831168831167" y="35.0" class="label" text-anchor="middle">52</text>
  <circle cx="236.36363636363635" cy="40.0" class="point"/>
  <text x="236.36363636363635" y="375" class="label" text-anchor="middle">2025-12-23</text>
  <text x="236.36363636363635" y="35.0" class="label" text-anchor="middle">52</text>
  <circle cx="241.03896103896102" cy="40.0" class="point"/>
  <text x="241.03896103896102" y="375" class="label" text-anchor="middle">2025-12-24</text>
  <text x="241.03896103896102" y="35.0" class="label" text-anchor="middle">52</text>
  <circle cx="245.7142857142857" cy="40.0" class="point"/>
  <text x="245.7142857142857" y="375" class="label" text-anchor="middle">2025-12-25</text>
  <text x="245.7142857142857" y="35.0" class="label" text-anchor="middle">52</text>
  <circle cx="250.38961038961037" cy="40.0" class="point"/>
  <text x="250.38961038961037" y="375" class="label" text-anchor="middle">2025-12-26</text>
  <text x="250.38961038961037" y="35.0" class="label" text-anchor="middle">52</text>
  <circle cx="255.06493506493507" cy="40.0" class="point"/>
  <text x="255.06493506493507" y="375" class="label" text-anchor="middle">2025-12-27</text>
  <text x="255.06493506493507" y="35.0" class="label" text-anchor="middle">52</text>
  <circle cx="259.7402597402597" cy="40.0" class="point"/>
  <text x="259.7402597402597" y="375" class="label" text-anchor="middle">2025-12-28</text>
  <text x="259.7402597402597" y="35.0" class="label" text-anchor="middle">52</text>
  <circle cx="264.4155844155844" cy="40.0" class="point"/>
  <text x="264.4155844155844" y="375" class="label" text-anchor="middle">2025-12-29</text>
  <text x="264.4155844155844" y="35.0" class="label" text-anchor="middle">52</text>
  <circle cx="269.0909090909091" cy="40.0" class="point"/>
  <text x="269.0909090909091" y="375" class="label" text-anchor="middle">2025-12-30</text>
  <text x="269.0909090909091" y="35.0" class="label" text-anchor="middle">52</text>
  <circle cx="273.76623376623377" cy="40.0" class="point"/>
  <text x="273.76623376623377" y="375" class="label" text-anchor="middle">2025-12-31</text>
  <text x="273.76623376623377" y="35.0" class="label" text-anchor="middle">52</text>
  <circle cx="278.4415584415584" cy="40.0" class="point"/>
  <text x="278.4415584415584" y="375" class="label" text-anchor="middle">2026-01-01</text>
  <text x="278.4415584415584" y="35.0" class="label" text-anchor="middle">52</text>
  <circle cx="283.1168831168831" cy="40.0" class="point"/>
  <text x="283.1168831168831" y="375" class="label" text-anchor="middle">2026-01-02</text>
  <text x="283.1168831168831" y="35.0" class="label" text-anchor="middle">52</text>
  <circle cx="287.7922077922078" cy="40.0" class="point"/>
  <text x="287.7922077922078" y="375" class="label" text-anchor="middle">2026-01-03</text>
  <text x="287.7922077922078" y="35.0" class="label" text-anchor="middle">52</text>
  <circle cx="292.46753246753246" cy="40.0" class="point"/>
  <text x="292.46753246753246" y="375" class="label" text-anchor="middle">2026-01-04</text>
  <text x="292.46753246753246" y="35.0" class="label" text-anchor="middle">52</text>
  <circle cx="297.14285714285717" cy="40.0" class="point"/>
  <text x="297.14285714285717" y="375" class="label" text-anchor="middle">2026-01-05</text>
  <text x="297.14285714285717" y="35.0" class="label" text-anchor="middle">52</text>
  <circle cx="301.8181818181818" cy="40.0" class="point"/>
  <text x="301.8181818181818" y="375" class="label" text-anchor="middle">2026-01-06</text>
  <text x="301.8181818181818" y="35.0" class="label" text-anchor="middle">52</text>
  <circle cx="306.4935064935065" cy="40.0" class="point"/>
  <text x="306.4935064935065" y="375" class="label" text-anchor="middle">2026-01-07</text>
  <text x="306.4935064935065" y="35.0" class="label" text-anchor="middle">52</text>
  <circle cx="311.16883116883116" cy="40.0" class="point"/>
  <text x="311.16883116883116" y="375" class="label" text-anchor="middle">2026-01-08</text>
  <text x="311.16883116883116" y="35.0" class="label" text-anchor="middle">52</text>
  <circle cx="315.84415584415586" cy="40.0" class="point"/>
  <text x="315.84415584415586" y="375" class="label" text-anchor="middle">2026-01-09</text>
  <text x="315.84415584415586" y="35.0" class="label" text-anchor="middle">52</text>
  <circle cx="320.5194805194805" cy="40.0" class="point"/>
  <text x="320.5194805194805" y="375" class="label" text-anchor="middle">2026-01-10</text>
  <text x="320.5194805194805" y="35.0" class="label" text-anchor="middle">52</text>
  <circle cx="325.1948051948052" cy="40.0" class="point"/>
  <text x="325.1948051948052" y="375" class="label" text-anchor="middle">2026-01-11</text>
  <text x="325.1948051948052" y="35.0" class="label" text-anchor="middle">52</text>
  <circle cx="329.87012987012986" cy="40.0" class="point"/>
  <text x="329.87012987012986" y="375" class="label" text-anchor="middle">2026-01-12</text>
  <text x="329.87012987012986" y="35.0" class="label" text-anchor="middle">52</text>
  <circle cx="334.54545454545456" cy="40.0" class="point"/>
  <text x="334.54545454545456" y="375" class="label" text-anchor="middle">2026-01-13</text>
  <text x="334.54545454545456" y="35.0" class="label" text-anchor="middle">52</text>
  <circle cx="339.22077922077926" cy="40.0" class="point"/>
  <text x="339.22077922077926" y="375" class="label" text-anchor="middle">2026-01-14</text>
  <text x="339.22077922077926" y="35.0" class="label" text-anchor="middle">52</text>
  <circle cx="343.89610389610385" cy="40.0" class="point"/>
  <text x="343.89610389610385" y="375" class="label" text-anchor="middle">2026-01-15</text>
  <text x="343.89610389610385" y="35.0" class="label" text-anchor="middle">52</text>
  <circle cx="348.57142857142856" cy="40.0" class="point"/>
  <text x="348.57142857142856" y="375" class="label" text-anchor="middle">2026-01-16</text>
  <text x="348.57142857142856" y="35.0" class="label" text-anchor="middle">52</text>
  <circle cx="353.24675324675326" cy="40.0" class="point"/>
  <text x="353.24675324675326" y="375" class="label" text-anchor="middle">2026-01-17</text>
  <text x="353.24675324675326" y="35.0" class="label" text-anchor="middle">52</text>
  <circle cx="357.9220779220779" cy="40.0" class="point"/>
  <text x="357.9220779220779" y="375" class="label" text-anchor="middle">2026-01-18</text>
  <text x="357.9220779220779" y="35.0" class="label" text-anchor="middle">52</text>
  <circle cx="362.5974025974026" cy="40.0" class="point"/>
  <text x="362.5974025974026" y="375" class="label" text-anchor="middle">2026-01-19</text>
  <text x="362.5974025974026" y="35.0" class="label" text-anchor="middle">52</text>
  <circle cx="367.27272727272725" cy="40.0" class="point"/>
  <text x="367.27272727272725" y="375" class="label" text-anchor="middle">2026-01-20</text>
  <text x="367.27272727272725" y="35.0" class="label" text-anchor="middle">52</text>
  <circle cx="371.94805194805195" cy="40.0" class="point"/>
  <text x="371.94805194805195" y="375" class="label" text-anchor="middle">2026-01-21</text>
  <text x="371.94805194805195" y="35.0" class="label" text-anchor="middle">52</text>
  <circle cx="376.6233766233766" cy="40.0" class="point"/>
  <text x="376.6233766233766" y="375" class="label" text-anchor="middle">2026-01-22</text>
  <text x="376.6233766233766" y="35.0" class="label" text-anchor="middle">52</text>
  <circle cx="381.2987012987013" cy="40.0" class="point"/>
  <text x="381.2987012987013" y="375" class="label" text-anchor="middle">2026-01-23</text>
  <text x="381.2987012987013" y="35.0" class="label" text-anchor="middle">52</text>
  <circle cx="385.97402597402595" cy="40.0" class="point"/>
  <text x="385.97402597402595" y="375" class="label" text-anchor="middle">2026-01-24</text>
  <text x="385.97402597402595" y="35.0" class="label" text-anchor="middle">52</text>
  <circle cx="390.64935064935065" cy="40.0" class="point"/>
  <text x="390.64935064935065" y="375" class="label" text-anchor="middle">2026-01-25</text>
  <text x="390.64935064935065" y="35.0" class="label" text-anchor="middle">52</text>
  <circle cx="395.3246753246753" cy="40.0" class="point"/>
  <text x="395.3246753246753" y="375" class="label" text-anchor="middle">2026-01-26</text>
  <text x="395.3246753246753" y="35.0" class="label" text-anchor="middle">52</text>
  <circle cx="400.0" cy="40.0" class="point"/>
  <text x="400.0" y="375" class="label" text-anchor="middle">2026-01-27</text>
  <text x="400.0" y="35.0" class="label" text-anchor="middle">52</text>
  <circle cx="404.67532467532465" cy="40.0" class="point"/>
  <text x="404.67532467532465" y="375" class="label" text-anchor="middle">2026-01-28</text>
  <text x="404.67532467532465" y="35.0" class="label" text-anchor="middle">52</text>
  <circle cx="409.35064935064935" cy="40.0" class="point"/>
  <text x="409.35064935064935" y="375" class="label" text-anchor="middle">2026-01-29</text>
  <text x="409.35064935064935" y="35.0" class="label" text-anchor="middle">52</text>
  <circle cx="414.025974025974" cy="40.0" class="point"/>
  <text x="414.025974025974" y="375" class="label" text-anchor="middle">2026-01-30</text>
  <text x="414.025974025974" y="35.0" class="label" text-anchor="middle">52</text>
  <circle cx="418.7012987012987" cy="40.0" class="point"/>
  <text x="418.7012987012987" y="375" class="label" text-anchor="middle">2026-01-31</text>
  <text x="418.7012987012987" y="35.0" class="label" text-anchor="middle">52</text>
  <circle cx="423.37662337662334" cy="40.0" class="point"/>
  <text x="423.37662337662334" y="375" class="label" text-anchor="middle">2026-02-01</text>
  <text x="423.37662337662334" y="35.0" class="label" text-anchor="middle">52</text>
  <circle cx="428.05194805194805" cy="40.0" class="point"/>
  <text x="428.05194805194805" y="375" class="label" text-anchor="middle">2026-02-02</text>
  <text x="428.05194805194805" y="35.0" class="label" text-anchor="middle">52</text>
  <circle cx="432.7272727272727" cy="40.0" class="point"/>
  <text x="432.7272727272727" y="375" class="label" text-anchor="middle">2026-02-03</text>
  <text x="432.7272727272727" y="35.0" class="label" text-anchor="middle">52</text>
  <circle cx="437.4025974025974" cy="40.0" class="point"/>
  <text x="437.4025974025974" y="375" class="label" text-anchor="middle">2026-02-04</text>
  <text x="437.4025974025974" y="35.0" class="label" text-anchor="middle">52</text>
  <circle cx="442.07792207792204" cy="40.0" class="point"/>
  <text x="442.07792207792204" y="375" class="label" text-anchor="middle">2026-02-05</text>
  <text x="442.07792207792204" y="35.0" class="label" text-anchor="middle">52</text>
  <circle cx="446.75324675324674" cy="40.0" class="point"/>
  <text x="446.75324675324674" y="375" class="label" text-anchor="middle">2026-02-06</text>
  <text x="446.75324675324674" y="35.0" class="label" text-anchor="middle">52</text>
  <circle cx="451.4285714285714" cy="40.0" class="point"/>
  <text x="451.4285714285714" y="375" class="label" text-anchor="middle">2026-02-07</text>
  <text x="451.4285714285714" y="35.0" class="label" text-anchor="middle">52</text>
  <circle cx="456.10389610389615" cy="40.0" class="point"/>
  <text x="456.10389610389615" y="375" class="label" text-anchor="middle">2026-02-08</text>
  <text x="456.10389610389615" y="35.0" class="label" text-anchor="middle">52</text>
  <circle cx="460.77922077922074" cy="40.0" class="point"/>
  <text x="460.77922077922074" y="375" class="label" text-anchor="middle">2026-02-09</text>
  <text x="460.77922077922074" y="35.0" class="label" text-anchor="middle">52</text>
  <circle cx="465.4545454545455" cy="40.0" class="point"/>
  <text x="465.4545454545455" y="375" class="label" text-anchor="middle">2026-02-10</text>
  <text x="465.4545454545455" y="35.0" class="label" text-anchor="middle">52</text>
  <circle cx="470.12987012987014" cy="40.0" class="point"/>
  <text x="470.12987012987014" y="375" class="label" text-anchor="middle">2026-02-11</text>
  <text x="470.12987012987014" y="35.0" class="label" text-anchor="middle">52</text>
  <circle cx="474.80519480519484" cy="40.0" class="point"/>
  <text x="474.80519480519484" y="375" class="label" text-anchor="middle">2026-02-12</text>
  <text x="474.80519480519484" y="35.0" class="label" text-anchor="middle">52</text>
  <circle cx="479.4805194805195" cy="40.0" class="point"/>
  <text x="479.4805194805195" y="375" class="label" text-anchor="middle">2026-02-13</text>
  <text x="479.4805194805195" y="35.0" class="label" text-anchor="middle">52</text>
  <circle cx="484.1558441558442" cy="40.0" class="point"/>
  <text x="484.1558441558442" y="375" class="label" text-anchor="middle">2026-02-14</text>
  <text x="484.1558441558442" y="35.0" class="label" text-anchor="middle">52</text>
  <circle cx="488.83116883116884" cy="40.0" class="point"/>
  <text x="488.83116883116884" y="375" class="label" text-anchor="middle">2026-02-15</text>
  <text x="488.83116883116884" y="35.0" class="label" text-anchor="middle">52</text>
  <circle cx="493.50649350649354" cy="40.0" class="point"/>
  <text x="493.50649350649354" y="375" class="label" text-anchor="middle">2026-02-16</text>
  <text x="493.50649350649354" y="35.0" class="label" text-anchor="middle">52</text>
  <circle cx="498.1818181818182" cy="40.0" class="point"/>
  <text x="498.1818181818182" y="375" class="label" text-anchor="middle">2026-02-17</text>
  <text x="498.1818181818182" y="35.0" class="label" text-anchor="middle">52</text>
  <circle cx="502.8571428571429" cy="40.0" class="point"/>
  <text x="502.8571428571429" y="375" class="label" text-anchor="middle">2026-02-18</text>
  <text x="502.8571428571429" y="35.0" class="label" text-anchor="middle">52</text>
  <circle cx="507.53246753246754" cy="40.0" class="point"/>
  <text x="507.53246753246754" y="375" class="label" text-anchor="middle">2026-02-19</text>
  <text x="507.53246753246754" y="35.0" class="label" text-anchor="middle">52</text>
  <circle cx="512.2077922077922" cy="40.0" class="point"/>
  <text x="512.2077922077922" y="375" class="label" text-anchor="middle">2026-02-20</text>
  <text x="512.2077922077922" y="35.0" class="label" text-anchor="middle">52</text>
  <circle cx="516.8831168831168" cy="40.0" class="point"/>
  <text x="516.8831168831168" y="375" class="label" text-anchor="middle">2026-02-21</text>
  <text x="516.8831168831168" y="35.0" class="label" text-anchor="middle">52</text>
  <circle cx="521.5584415584415" cy="40.0" class="point"/>
  <text x="521.5584415584415" y="375" class="label" text-anchor="middle">2026-02-22</text>
  <text x="521.5584415584415" y="35.0" class="label" text-anchor="middle">52</text>
  <circle cx="526.2337662337662" cy="40.0" class="point"/>
  <text x="526.2337662337662" y="375" class="label" text-anchor="middle">2026-02-23</text>
  <text x="526.2337662337662" y="35.0" class="label" text-anchor="middle">52</text>
  <circle cx="530.9090909090909" cy="40.0" class="point"/>
  <text x="530.9090909090909" y="375" class="label" text-anchor="middle">2026-02-24</text>
  <text x="530.9090909090909" y="35.0" class="label" text-anchor="middle">52</text>
  <circle cx="535.5844155844156" cy="40.0" class="point"/>
  <text x="535.5844155844156" y="375" class="label" text-anchor="middle">2026-02-25</text>
  <text x="535.5844155844156" y="35.0" class="label" text-anchor="middle">52</text>
  <circle cx="540.2597402597403" cy="40.0" class="point"/>
  <text x="540.2597402597403" y="375" class="label" text-anchor="middle">2026-02-26</text>
  <text x="540.2597402597403" y="35.0" class="label" text-anchor="middle">52</text>
  <circle cx="544.9350649350649" cy="40.0" class="point"/>
  <text x="544.9350649350649" y="375" class="label" text-anchor="middle">2026-02-27</text>
  <text x="544.9350649350649" y="35.0" class="label" text-anchor="middle">52</text>
  <circle cx="549.6103896103896" cy="40.0" class="point"/>
  <text x="549.6103896103896" y="375" class="label" text-anchor="middle">2026-02-28</text>
  <text x="549.6103896103896" y="35.0" class="label" text-anchor="middle">52</text>
  <circle cx="554.2857142857143" cy="40.0" class="point"/>
  <text x="554.2857142857143" y="375" class="label" text-anchor="middle">2026-03-01</text>
  <text x="554.2857142857143" y="35.0" class="label" text-anchor="middle">52</text>
  <circle cx="558.961038961039" cy="40.0" class="point"/>
  <text x="558.961038961039" y="375" class="label" text-anchor="middle">2026-03-02</text>
  <text x="558.961038961039" y="35.0" class="label" text-anchor="middle">52</text>
  <circle cx="563.6363636363636" cy="40.0" class="point"/>
  <text x="563.6363636363636" y="375" class="label" text-anchor="middle">2026-03-03</text>
  <text x="563.6363636363636" y="35.0" class="label" text-anchor="middle">52</text>
  <circle cx="568.3116883116883" cy="40.0" class="point"/>
  <text x="568.3116883116883" y="375" class="label" text-anchor="middle">2026-03-04</text>
  <text x="568.3116883116883" y="35.0" class="label" text-anchor="middle">52</text>
  <circle cx="572.987012987013" cy="40.0" class="point"/>
  <text x="572.987012987013" y="375" class="label" text-anchor="middle">2026-03-05</text>
  <text x="572.987012987013" y="35.0" class="label" text-anchor="middle">52</text>
  <circle cx="577.6623376623377" cy="40.0" class="point"/>
  <text x="577.6623376623377" y="375" class="label" text-anchor="middle">2026-03-06</text>
  <text x="577.6623376623377" y="35.0" class="label" text-anchor="middle">52</text>
  <circle cx="582.3376623376623" cy="40.0" class="point"/>
  <text x="582.3376623376623" y="375" class="label" text-anchor="middle">2026-03-07</text>
  <text x="582.3376623376623" y="35.0" class="label" text-anchor="middle">52</text>
  <circle cx="587.012987012987" cy="40.0" class="point"/>
  <text x="587.012987012987" y="375" class="label" text-anchor="middle">2026-03-08</text>
  <text x="587.012987012987" y="35.0" class="label" text-anchor="middle">52</text>
  <circle cx="591.6883116883117" cy="40.0" class="point"/>
  <text x="591.6883116883117" y="375" class="label" text-anchor="middle">2026-03-09</text>
  <text x="591.6883116883117" y="35.0" class="label" text-anchor="middle">52</text>
  <circle cx="596.3636363636364" cy="40.0" class="point"/>
  <text x="596.3636363636364" y="375" class="label" text-anchor="middle">2026-03-10</text>
  <text x="596.3636363636364" y="35.0" class="label" text-anchor="middle">52</text>
  <circle cx="601.038961038961" cy="40.0" class="point"/>
  <text x="601.038961038961" y="375" class="label" text-anchor="middle">2026-03-11</text>
  <text x="601.038961038961" y="35.0" class="label" text-anchor="middle">52</text>
  <circle cx="605.7142857142857" cy="40.0" class="point"/>
  <text x="605.7142857142857" y="375" class="label" text-anchor="middle">2026-03-12</text>
  <text x="605.7142857142857" y="35.0" class="label" text-anchor="middle">52</text>
  <circle cx="610.3896103896104" cy="40.0" class="point"/>
  <text x="610.3896103896104" y="375" class="label" text-anchor="middle">2026-03-13</text>
  <text x="610.3896103896104" y="35.0" class="label" text-anchor="middle">52</text>
  <circle cx="615.0649350649351" cy="40.0" class="point"/>
  <text x="615.0649350649351" y="375" class="label" text-anchor="middle">2026-03-14</text>
  <text x="615.0649350649351" y="35.0" class="label" text-anchor="middle">52</text>
  <circle cx="619.7402597402597" cy="40.0" class="point"/>
  <text x="619.7402597402597" y="375" class="label" text-anchor="middle">2026-03-15</text>
  <text x="619.7402597402597" y="35.0" class="label" text-anchor="middle">52</text>
  <circle cx="624.4155844155844" cy="40.0" class="point"/>
  <text x="624.4155844155844" y="375" class="label" text-anchor="middle">2026-03-16</text>
  <text x="624.4155844155844" y="35.0" class="label" text-anchor="middle">52</text>
  <circle cx="629.0909090909091" cy="40.0" class="point"/>
  <text x="629.0909090909091" y="375" class="label" text-anchor="middle">2026-03-17</text>
  <text x="629.0909090909091" y="35.0" class="label" text-anchor="middle">52</text>
  <circle cx="633.7662337662338" cy="40.0" class="point"/>
  <text x="633.7662337662338" y="375" class="label" text-anchor="middle">2026-03-18</text>
  <text x="633.7662337662338" y="35.0" class="label" text-anchor="middle">52</text>
  <circle cx="638.4415584415585" cy="40.0" class="point"/>
  <text x="638.4415584415585" y="375" class="label" text-anchor="middle">2026-03-19</text>
  <text x="638.4415584415585" y="35.0" class="label" text-anchor="middle">52</text>
  <circle cx="643.1168831168832" cy="40.0" class="point"/>
  <text x="643.1168831168832" y="375" class="label" text-anchor="middle">2026-03-20</text>
  <text x="643.1168831168832" y="35.0" class="label" text-anchor="middle">52</text>
  <circle cx="647.7922077922077" cy="40.0" class="point"/>
  <text x="647.7922077922077" y="375" class="label" text-anchor="middle">2026-03-21</text>
  <text x="647.7922077922077" y="35.0" class="label" text-anchor="middle">52</text>
  <circle cx="652.4675324675325" cy="40.0" class="point"/>
  <text x="652.4675324675325" y="375" class="label" text-anchor="middle">2026-03-22</text>
  <text x="652.4675324675325" y="35.0" class="label" text-anchor="middle">52</text>
  <circle cx="657.1428571428571" cy="40.0" class="point"/>
  <text x="657.1428571428571" y="375" class="label" text-anchor="middle">2026-03-23</text>
  <text x="657.1428571428571" y="35.0" class="label" text-anchor="middle">52</text>
  <circle cx="661.8181818181819" cy="40.0" class="point"/>
  <text x="661.8181818181819" y="375" class="label" text-anchor="middle">2026-03-24</text>
  <text x="661.8181818181819" y="35.0" class="label" text-anchor="middle">52</text>
  <circle cx="666.4935064935065" cy="40.0" class="point"/>
  <text x="666.4935064935065" y="375" class="label" text-anchor="middle">2026-03-25</text>
  <text x="666.4935064935065" y="35.0" class="label" text-anchor="middle">52</text>
  <circle cx="671.1688311688312" cy="40.0" class="point"/>
  <text x="671.1688311688312" y="375" class="label" text-anchor="middle">2026-03-26</text>
  <text x="671.1688311688312" y="35.0" class="label" text-anchor="middle">52</text>
  <circle cx="675.8441558441558" cy="40.0" class="point"/>
  <text x="675.8441558441558" y="375" class="label" text-anchor="middle">2026-03-27</text>
  <text x="675.8441558441558" y="35.0" class="label" text-anchor="middle">52</text>
  <circle cx="680.5194805194806" cy="40.0" class="point"/>
  <text x="680.5194805194806" y="375" class="label" text-anchor="middle">2026-03-28</text>
  <text x="680.5194805194806" y="35.0" class="label" text-anchor="middle">52</text>
  <circle cx="685.1948051948052" cy="40.0" class="point"/>
  <text x="685.1948051948052" y="375" class="label" text-anchor="middle">2026-03-29</text>
  <text x="685.1948051948052" y="35.0" class="label" text-anchor="middle">52</text>
  <circle cx="689.8701298701299" cy="40.0" class="point"/>
  <text x="689.8701298701299" y="375" class="label" text-anchor="middle">2026-03-30</text>
  <text x="689.8701298701299" y="35.0" class="label" text-anchor="middle">52</text>
  <circle cx="694.5454545454545" cy="40.0" class="point"/>
  <text x="694.5454545454545" y="375" class="label" text-anchor="middle">2026-03-31</text>
  <text x="694.5454545454545" y="35.0" class="label" text-anchor="middle">52</text>
  <circle cx="699.2207792207793" cy="40.0" class="point"/>
  <text x="699.2207792207793" y="375" class="label" text-anchor="middle">2026-04-01</text>
  <text x="699.2207792207793" y="35.0" class="label" text-anchor="middle">52</text>
  <circle cx="703.8961038961039" cy="40.0" class="point"/>
  <text x="703.8961038961039" y="375" class="label" text-anchor="middle">2026-04-02</text>
  <text x="703.8961038961039" y="35.0" class="label" text-anchor="middle">52</text>
  <circle cx="708.5714285714286" cy="40.0" class="point"/>
  <text x="708.5714285714286" y="375" class="label" text-anchor="middle">2026-04-03</text>
  <text x="708.5714285714286" y="35.0" class="label" text-anchor="middle">52</text>
  <circle cx="713.2467532467532" cy="40.0" class="point"/>
  <text x="713.2467532467532" y="375" class="label" text-anchor="middle">2026-04-04</text>
  <text x="713.2467532467532" y="35.0" class="label" text-anchor="middle">52</text>
  <circle cx="717.922077922078" cy="40.0" class="point"/>
  <text x="717.922077922078" y="375" class="label" text-anchor="middle">2026-04-05</text>
  <text x="717.922077922078" y="35.0" class="label" text-anchor="middle">52</text>
  <circle cx="722.5974025974026" cy="40.0" class="point"/>
  <text x="722.5974025974026" y="375" class="label" text-anchor="middle">2026-04-06</text>
  <text x="722.5974025974026" y="35.0" class="label" text-anchor="middle">52</text>
  <circle cx="727.2727272727273" cy="40.0" class="point"/>
  <text x="727.2727272727273" y="375" class="label" text-anchor="middle">2026-04-07</text>
  <text x="727.2727272727273" y="35.0" class="label" text-anchor="middle">52</text>
  <circle cx="731.9480519480519" cy="40.0" class="point"/>
  <text x="731.9480519480519" y="375" class="label" text-anchor="middle">2026-04-08</text>
  <text x="731.9480519480519" y="35.0" class="label" text-anchor="middle">52</text>
  <circle cx="736.6233766233767" cy="40.0" class="point"/>
  <text x="736.6233766233767" y="375" class="label" text-anchor="middle">2026-04-09</text>
  <text x="736.6233766233767" y="35.0" class="label" text-anchor="middle">52</text>
  <circle cx="741.2987012987013" cy="40.0" class="point"/>
  <text x="741.2987012987013" y="375" class="label" text-anchor="middle">2026-04-10</text>
  <text x="741.2987012987013" y="35.0" class="label" text-anchor="middle">52</text>
  <circle cx="745.9740259740261" cy="40.0" class="point"/>
  <text x="745.9740259740261" y="375" class="label" text-anchor="middle">2026-04-11</text>
  <text x="745.9740259740261" y="35.0" class="label" text-anchor="middle">52</text>
  <circle cx="750.6493506493506" cy="40.0" class="point"/>
  <text x="750.6493506493506" y="375" class="label" text-anchor="middle">2026-04-12</text>
  <text x="750.6493506493506" y="35.0" class="label" text-anchor="middle">52</text>
  <circle cx="755.3246753246754" cy="40.0" class="point"/>
  <text x="755.3246753246754" y="375" class="label" text-anchor="middle">2026-04-13</text>
  <text x="755.3246753246754" y="35.0" class="label" text-anchor="middle">52</text>
  <circle cx="760.0" cy="40.0" class="point"/>
  <text x="760.0" y="375" class="label" text-anchor="middle">2026-04-14</text>
  <text x="760.0" y="35.0" class="label" text-anchor="middle">52</text>
  <text x="30" y="363.0" class="label" text-anchor="end">0</text>
  <text x="30" y="301.46153846153845" class="label" text-anchor="end">10</text>
  <text x="30" y="239.9230769230769" class="label" text-anchor="end">20</text>
  <text x="30" y="178.38461538461542" class="label" text-anchor="end">30</text>
  <text x="30" y="116.84615384615384" class="label" text-anchor="end">40</text>
  <text x="30" y="55.30769230769232" class="label" text-anchor="end">50</text>
</svg>