<svg xmlns="http://www.w3.org/2000/svg" width="800" height="400" viewBox="0 0 800 400">
  <style>
    .axis{stroke:#666;stroke-width:1}
    .line{stroke:#4a9;stroke-width:2;fill:none}
    .point{fill:#4a9;r:4}
    .label{font:10px sans-serif;fill:#aaa}
    .title{font:14px sans-serif;fill:#333}
  </style>
  <text x="400" y="20" class="title" text-anchor="middle">OPIC Field Growth Timeline</text>
  <line x1="40" y1="40" x2="40" y2="360" class="axis"/>
  <line x1="40" y1="360" x2="760" y2="360" class="axis"/>
  <path d="M 40.0,101.53846153846155 L 45.853658536585364,101.53846153846155 L 51.707317073170735,101.53846153846155 L 57.5609756097561,101.53846153846155 L 63.41463414634147,101.53846153846155 L 69.26829268292683,101.53846153846155 L 75.1219512195122,101.53846153846155 L 80.97560975609755,101.53846153846155 L 86.82926829268294,101.53846153846155 L 92.6829268292683,101.53846153846155 L 98.53658536585365,101.53846153846155 L 104.39024390243902,101.53846153846155 L 110.2439024390244,101.53846153846155 L 116.09756097560977,101.53846153846155 L 121.95121951219512,101.53846153846155 L 127.80487804878048,101.53846153846155 L 133.65853658536588,101.53846153846155 L 139.5121951219512,101.53846153846155 L 145.3658536585366,101.53846153846155 L 151.21951219512195,101.53846153846155 L 157.0731707317073,101.53846153846155 L 162.9268292682927,101.53846153846155 L 168.78048780487805,101.53846153846155 L 174.6341463414634,101.53846153846155 L 180.4878048780488,101.53846153846155 L 186.34146341463415,101.53846153846155 L 192.19512195121953,101.53846153846155 L 198.0487804878049,40.0 L 203.90243902439025,40.0 L 209.7560975609756,40.0 L 215.60975609756096,40.0 L 221.46341463414632,40.0 L 227.31707317073173,40.0 L 233.1707317073171,40.0 L 239.02439024390245,40.0 L 244.8780487804878,40.0 L 250.73170731707316,40.0 L 256.5853658536586,40.0 L 262.4390243902439,40.0 L 268.29268292682923,40.0 L 274.1463414634146,40.0 L 280.0,40.0 L 285.8536585365854,40.0 L 291.70731707317077,40.0 L 297.5609756097561,40.0 L 303.4146341463415,40.0 L 309.2682926829268,40.0 L 315.1219512195122,40.0 L 320.9756097560976,40.0 L 326.8292682926829,40.0 L 332.6829268292683,40.0 L 338.5365853658536,40.0 L 344.39024390243907,40.0 L 350.2439024390244,40.0 L 356.0975609756098,40.0 L 361.9512195121951,40.0 L 367.8048780487805,40.0 L 373.6585365853659,40.0 L 379.5121951219512,40.0 L 385.3658536585366,40.0 L 391.2195121951219,40.0 L 397.0731707317073,40.0 L 402.92682926829264,40.0 L 408.7804878048781,40.0 L 414.63414634146346,40.0 L 420.4878048780488,40.0 L 426.3414634146342,40.0 L 432.1951219512195,40.0 L 438.0487804878049,40.0 L 443.9024390243903,40.0 L 449.7560975609756,40.0 L 455.609756097561,40.0 L 461.4634146341463,40.0 L 467.3170731707317,40.0 L 473.1707317073171,40.0 L 479.0243902439024,40.0 L 484.8780487804878,40.0 L 490.73170731707313,40.0 L 496.5853658536585,40.0 L 502.43902439024396,40.0 L 508.29268292682923,40.0 L 514.1463414634147,40.0 L 520.0,40.0 L 525.8536585365854,40.0 L 531.7073170731708,40.0 L 537.560975609756,40.0 L 543.4146341463415,40.0 L 549.2682926829268,40.0 L 555.1219512195122,40.0 L 560.9756097560976,40.0 L 566.829268292683,40.0 L 572.6829268292684,40.0 L 578.5365853658536,40.0 L 584.390243902439,40.0 L 590.2439024390244,40.0 L 596.0975609756098,40.0 L 601.9512195121952,40.0 L 607.8048780487804,40.0 L 613.6585365853658,40.0 L 619.5121951219512,40.0 L 625.3658536585366,40.0 L 631.219512195122,40.0 L 637.0731707317073,40.0 L 642.9268292682926,40.0 L 648.7804878048781,40.0 L 654.6341463414634,40.0 L 660.4878048780488,40.0 L 666.3414634146341,40.0 L 672.1951219512196,40.0 L 678.048780487805,40.0 L 683.9024390243902,40.0 L 689.7560975609756,40.0 L 695.609756097561,40.0 L 701.4634146341464,40.0 L 707.3170731707318,40.0 L 713.170731707317,40.0 L 719.0243902439024,40.0 L 724.8780487804878,40.0 L 730.7317073170732,40.0 L 736.5853658536586,40.0 L 742.4390243902438,40.0 L 748.2926829268292,40.0 L 754.1463414634146,40.0 L 760.0,40.0" class="line"/>
  <circle cx="40.0" cy="101.53846153846155" class="point"/>
  <text x="40.0" y="375" class="label" text-anchor="middle">2025-11-11</text>
  <text x="40.0" y="96.53846153846155" class="label" text-anchor="middle">42</text>
  <circle cx="45.853658536585364" cy="101.53846153846155" class="point"/>
  <text x="45.853658536585364" y="375" class="label" text-anchor="middle">2025-11-12</text>
  <text x="45.853658536585364" y="96.53846153846155" class="label" text-anchor="middle">42</text>
  <circle cx="51.707317073170735" cy="101.53846153846155" class="point"/>
  <text x="51.707317073170735" y="375" class="label" text-anchor="middle">2025-11-13</text>
  <text x="51.707317073170735" y="96.53846153846155" class="label" text-anchor="middle">42</text>
  <circle cx="57.5609756097561" cy="101.53846153846155" class="point"/>
  <text x="57.5609756097561" y="375" class="label" text-anchor="middle">2025-11-14</text>
  <text x="57.5609756097561" y="96.53846153846155" class="label" text-anchor="middle">42</text>
  <circle cx="63.41463414634147" cy="101.53846153846155" class="point"/>
  <text x="63.41463414634147" y="375" class="label" text-anchor="middle">2025-11-15</text>
  <text x="63.41463414634147" y="96.53846153846155" class="label" text-anchor="middle">42</text>
  <circle cx="69.26829268292683" cy="101.53846153846155" class="point"/>
  <text x="69.26829268292683" y="375" class="label" text-anchor="middle">2025-11-16</text>
  <text x="69.26829268292683" y="96.53846153846155" class="label" text-anchor="middle">42</text>
  <circle cx="75.1219512195122" cy="101.53846153846155" class="point"/>
  <text x="75.1219512195122" y="375" class="label" text-anchor="middle">2025-11-17</text>
  <text x="75.1219512195122" y="96.53846153846155" class="label" text-anchor="middle">42</text>
  <circle cx="80.97560975609755" cy="101.53846153846155" class="point"/>
  <text x="80.97560975609755" y="375" class="label" text-anchor="middle">2025-11-18</text>
  <text x="80.97560975609755" y="96.53846153846155" class="label" text-anchor="middle">42</text>
  <circle cx="86.82926829268294" cy="101.53846153846155" class="point"/>
  <text x="86.82926829268294" y="375" class="label" text-anchor="middle">2025-11-19</text>
  <text x="86.82926829268294" y="96.53846153846155" class="label" text-anchor="middle">42</text>
  <circle cx="92.6829268292683" cy="101.53846153846155" class="point"/>
  <text x="92.6829268292683" y="375" class="label" text-anchor="middle">2025-11-20</text>
  <text x="92.6829268292683" y="96.53846153846155" class="label" text-anchor="middle">42</text>
  <circle cx="98.53658536585365" cy="101.53846153846155" class="point"/>
  <text x="98.53658536585365" y="375" class="label" text-anchor="middle">2025-11-21</text>
  <text x="98.53658536585365" y="96.53846153846155" class="label" text-anchor="middle">42</text>
  <circle cx="104.39024390243902" cy="101.53846153846155" class="point"/>
  <text x="104.39024390243902" y="375" class="label" text-anchor="middle">2025-11-22</text>
  <text x="104.39024390243902" y="96.53846153846155" class="label" text-anchor="middle">42</text>
  <circle cx="110.2439024390244" cy="101.53846153846155" class="point"/>
  <text x="110.2439024390244" y="375" class="label" text-anchor="middle">2025-11-23</text>
  <text x="110.2439024390244" y="96.53846153846155" class="label" text-anchor="middle">42</text>
  <circle cx="116.09756097560977" cy="101.53846153846155" class="point"/>
  <text x="116.09756097560977" y="375" class="label" text-anchor="middle">2025-11-24</text>
  <text x="116.09756097560977" y="96.53846153846155" class="label" text-anchor="middle">42</text>
  <circle cx="121.95121951219512" cy="101.53846153846155" class="point"/>
  <text x="121.95121951219512" y="375" class="label" text-anchor="middle">2025-11-25</text>
  <text x="121.95121951219512" y="96.53846153846155" class="label" text-anchor="middle">42</text>
  <circle cx="127.80487804878048" cy="101.53846153846155" class="point"/>
  <text x="127.80487804878048" y="375" class="label" text-anchor="middle">2025-11-26</text>
  <text x="127.80487804878048" y="96.53846153846155" class="label" text-anchor="middle">42</text>
  <circle cx="133.65853658536588" cy="101.53846153846155" class="point"/>
  <text x="133.65853658536588" y="375" class="label" text-anchor="middle">2025-11-27</text>
  <text x="133.65853658536588" y="96.53846153846155" class="label" text-anchor="middle">42</text>
  <circle cx="139.5121951219512" cy="101.53846153846155" class="point"/>
  <text x="139.5121951219512" y="375" class="label" text-anchor="middle">2025-11-28</text>
  <text x="139.5121951219512" y="96.53846153846155" class="label" text-anchor="middle">42</text>
  <circle cx="145.3658536585366" cy="101.53846153846155" class="point"/>
  <text x="145.3658536585366" y="375" class="label" text-anchor="middle">2025-11-29</text>
  <text x="145.3658536585366" y="96.53846153846155" class="label" text-anchor="middle">42</text>
  <circle cx="151.21951219512195" cy="101.53846153846155" class="point"/>
  <text x="151.21951219512195" y="375" class="label" text-anchor="middle">2025-11-30</text>
  <text x="151.21951219512195" y="96.53846153846155" class="label" text-anchor="middle">42</text>
  <circle cx="157.0731707317073" cy="101.53846153846155" class="point"/>
  <text x="157.0731707317073" y="375" class="label" text-anchor="middle">2025-12-01</text>
  <text x="157.0731707317073" y="96.53846153846155" class="label" text-anchor="middle">42</text>
  <circle cx="162.9268292682927" cy="101.53846153846155" class="point"/>
  <text x="162.9268292682927" y="375" class="label" text-anchor="middle">2025-12-02</text>
  <text x="162.9268292682927" y="96.53846153846155" class="label" text-anchor="middle">42</text>
  <circle cx="168.78048780487805" cy="101.53846153846155" class="point"/>
  <text x="168.78048780487805" y="375" class="label" text-anchor="middle">2025-12-03</text>
  <text x="168.78048780487805" y="96.53846153846155" class="label" text-anchor="middle">42</text>
  <circle cx="174.6341463414634" cy="101.53846153846155" class="point"/>
  <text x="174.6341463414634" y="375" class="label" text-anchor="middle">2025-12-04</text>
  <text x="174.6341463414634" y="96.53846153846155" class="label" text-anchor="middle">42</text>
  <circle cx="180.4878048780488" cy="101.53846153846155" class="point"/>
  <text x="180.4878048780488" y="375" class="label" text-anchor="middle">2025-12-05</text>
  <text x="180.4878048780488" y="96.53846153846155" class="label" text-anchor="middle">42</text>
  <circle cx="186.34146341463415" cy="101.53846153846155" class="point"/>
  <text x="186.34146341463415" y="375" class="label" text-anchor="middle">2025-12-06</text>
  <text x="186.34146341463415" y="96.53846153846155" class="label" text-anchor="middle">42</text>
  <circle cx="192.19512195121953" cy="101.53846153846155" class="point"/>
  <text x="192.19512195121953" y="375" class="label" text-anchor="middle">2025-12-07</text>
  <text x="192.19512195121953" y="96.53846153846155" class="label" text-anchor="middle">42</text>
  <circle cx="198.0487804878049" cy="40.0" class="point"/>
  <text x="198.0487804878049" y="375" class="label" text-anchor="middle">2025-12-08</text>
  <text x="198.0487804878049" y="35.0" class="label" text-anchor="middle">52</text>
  <circle cx="203.90243902439025" cy="40.0" class="point"/>
  <text x="203.90243902439025" y="375" class="label" text-anchor="middle">2025-12-09</text>
  <text x="203.90243902439025" y="35.0" class="label" text-anchor="middle">52</text>
  <circle cx="209.7560975609756" cy="40.0" class="point"/>
  <text x="209.7560975609756" y="375" class="label" text-anchor="middle">2025-12-10</text>
  <text x="209.7560975609756" y="35.0" class="label" text-anchor="middle">52</text>
  <circle cx="215.60975609756096" cy="40.0" class="point"/>
  <text x="215.60975609756096" y="375" class="label" text-anchor="middle">2025-12-11</text>
  <text x="215.60975609756096" y="35.0" class="label" text-anchor="middle">52</text>
  <circle cx="221.46341463414632" cy="40.0" class="point"/>
  <text x="221.46341463414632" y="375" class="label" text-anchor="middle">2025-12-12</text>
  <text x="221.46341463414632" y="35.0" class="label" text-anchor="middle">52</text>
  <circle cx="227.31707317073173" cy="40.0" class="point"/>
  <text x="227.31707317073173" y="375" class="label" text-anchor="middle">2025-12-13</text>
  <text x="227.31707317073173" y="35.0" class="label" text-anchor="middle">52</text>
  <circle cx="233.1707317073171" cy="40.0" class="point"/>
  <text x="233.1707317073171" y="375" class="label" text-anchor="middle">2025-12-14</text>
  <text x="233.1707317073171" y="35.0" class="label" text-anchor="middle">52</text>
  <circle cx="239.02439024390245" cy="40.0" class="point"/>
  <text x="239.02439024390245" y="375" class="label" text-anchor="middle">2025-12-15</text>
  <text x="239.02439024390245" y="35.0" class="label" text-anchor="middle">52</text>
  <circle cx="244.8780487804878" cy="40.0" class="point"/>
  <text x="244.8780487804878" y="375" class="label" text-anchor="middle">2025-12-16</text>
  <text x="244.8780487804878" y="35.0" class="label" text-anchor="middle">52</text>
  <circle cx="250.73170731707316" cy="40.0" class="point"/>
  <text x="250.73170731707316" y="375" class="label" text-anchor="middle">2025-12-17</text>
  <text x="250.73170731707316" y="35.0" class="label" text-anchor="middle">52</text>
  <circle cx="256.5853658536586" cy="40.0" class="point"/>
  <text x="256.5853658536586" y="375" class="label" text-anchor="middle">2025-12-18</text>
  <text x="256.5853658536586" y="35.0" class="label" text-anchor="middle">52</text>
  <circle cx="262.4390243902439" cy="40.0" class="point"/>
  <text x="262.4390243902439" y="375" class="label" text-anchor="middle">2025-12-19</text>
  <text x="262.4390243902439" y="35.0" class="label" text-anchor="middle">52</text>
  <circle cx="268.29268292682923" cy="40.0" class="point"/>
  <text x="268.29268292682923" y="375" class="label" text-anchor="middle">2025-12-20</text>
  <text x="268.29268292682923" y="35.0" class="label" text-anchor="middle">52</text>
  <circle cx="274.1463414634146" cy="40.0" class="point"/>
  <text x="274.1463414634146" y="375" class="label" text-anchor="middle">2025-12-21</text>
  <text x="274.1463414634146" y="35.0" class="label" text-anchor="middle">52</text>
  <circle cx="280.0" cy="40.0" class="point"/>
  <text x="280.0" y="375" class="label" text-anchor="middle">2025-12-22</text>
  <text x="280.0" y="35.0" class="label" text-anchor="middle">52</text>
  <circle cx="285.8536585365854" cy="40.0" class="point"/>
  <text x="285.8536585365854" y="375" class="label" text-anchor="middle">2025-12-23</text>
  <text x="285.8536585365854" y="35.0" class="label" text-anchor="middle">52</text>
  <circle cx="291.70731707317077" cy="40.0" class="point"/>
  <text x="291.70731707317077" y="375" class="label" text-anchor="middle">2025-12-24</text>
  <text x="291.70731707317077" y="35.0" class="label" text-anchor="middle">52</text>
  <circle cx="297.5609756097561" cy="40.0" class="point"/>
  <text x="297.5609756097561" y="375" class="label" text-anchor="middle">2025-12-25</text>
  <text x="297.5609756097561" y="35.0" class="label" text-anchor="middle">52</text>
  <circle cx="303.4146341463415" cy="40.0" class="point"/>
  <text x="303.4146341463415" y="375" class="label" text-anchor="middle">2025-12-26</text>
  <text x="303.4146341463415" y="35.0" class="label" text-anchor="middle">52</text>
  <circle cx="309.2682926829268" cy="40.0" class="point"/>
  <text x="309.2682926829268" y="375" class="label" text-anchor="middle">2025-12-27</text>
  <text x="309.2682926829268" y="35.0" class="label" text-anchor="middle">52</text>
  <circle cx="315.1219512195122" cy="40.0" class="point"/>
  <text x="315.1219512195122" y="375" class="label" text-anchor="middle">2025-12-28</text>
  <text x="315.1219512195122" y="35.0" class="label" text-anchor="middle">52</text>
  <circle cx="320.9756097560976" cy="40.0" class="point"/>
  <text x="320.9756097560976" y="375" class="label" text-anchor="middle">2025-12-29</text>
  <text x="320.9756097560976" y="35.0" class="label" text-anchor="middle">52</text>
  <circle cx="326.8292682926829" cy="40.0" class="point"/>
  <text x="326.8292682926829" y="375" class="label" text-anchor="middle">2025-12-30</text>
  <text x="326.8292682926829" y="35.0" class="label" text-anchor="middle">52</text>
  <circle cx="332.6829268292683" cy="40.0" class="point"/>
  <text x="332.6829268292683" y="375" class="label" text-anchor="middle">2025-12-31</text>
  <text x="332.6829268292683" y="35.0" class="label" text-anchor="middle">52</text>
  <circle cx="338.5365853658536" cy="40.0" class="point"/>
  <text x="338.5365853658536" y="375" class="label" text-anchor="middle">2026-01-01</text>
  <text x="338.5365853658536" y="35.0" class="label" text-anchor="middle">52</text>
  <circle cx="344.39024390243907" cy="40.0" class="point"/>
  <text x="344.39024390243907" y="375" class="label" text-anchor="middle">2026-01-02</text>
  <text x="344.39024390243907" y="35.0" class="label" text-anchor="middle">52</text>
  <circle cx="350.2439024390244" cy="40.0" class="point"/>
  <text x="350.2439024390244" y="375" class="label" text-anchor="middle">2026-01-03</text>
  <text x="350.2439024390244" y="35.0" class="label" text-anchor="middle">52</text>
  <circle cx="356.0975609756098" cy="40.0" class="point"/>
  <text x="356.0975609756098" y="375" class="label" text-anchor="middle">2026-01-04</text>
  <text x="356.0975609756098" y="35.0" class="label" text-anchor="middle">52</text>
  <circle cx="361.9512195121951" cy="40.0" class="point"/>
  <text x="361.9512195121951" y="375" class="label" text-anchor="middle">2026-01-05</text>
  <text x="361.9512195121951" y="35.0" class="label" text-anchor="middle">52</text>
  <circle cx="367.8048780487805" cy="40.0" class="point"/>
  <text x="367.8048780487805" y="375" class="label" text-anchor="middle">2026-01-06</text>
  <text x="367.8048780487805" y="35.0" class="label" text-anchor="middle">52</text>
  <circle cx="373.6585365853659" cy="40.0" class="point"/>
  <text x="373.6585365853659" y="375" class="label" text-anchor="middle">2026-01-07</text>
  <text x="373.6585365853659" y="35.0" class="label" text-anchor="middle">52</text>
  <circle cx="379.5121951219512" cy="40.0" class="point"/>
  <text x="379.5121951219512" y="375" class="label" text-anchor="middle">2026-01-08</text>
  <text x="379.5121951219512" y="35.0" class="label" text-anchor="middle">52</text>
  <circle cx="385.3658536585366" cy="40.0" class="point"/>
  <text x="385.3658536585366" y="375" class="label" text-anchor="middle">2026-01-09</text>
  <text x="385.3658536585366" y="35.0" class="label" text-anchor="middle">52</text>
  <circle cx="391.2195121951219" cy="40.0" class="point"/>
  <text x="391.2195121951219" y="375" class="label" text-anchor="middle">2026-01-10</text>
  <text x="391.2195121951219" y="35.0" class="label" text-anchor="middle">52</text>
  <circle cx="397.0731707317073" cy="40.0" class="point"/>
  <text x="397.0731707317073" y="375" class="label" text-anchor="middle">2026-01-11</text>
  <text x="397.0731707317073" y="35.0" class="label" text-anchor="middle">52</text>
  <circle cx="402.92682926829264" cy="40.0" class="point"/>
  <text x="402.92682926829264" y="375" class="label" text-anchor="middle">2026-01-12</text>
  <text x="402.92682926829264" y="35.0" class="label" text-anchor="middle">52</text>
  <circle cx="408.7804878048781" cy="40.0" class="point"/>
  <text x="408.7804878048781" y="375" class="label" text-anchor="middle">2026-01-13</text>
  <text x="408.7804878048781" y="35.0" class="label" text-anchor="middle">52</text>
  <circle cx="414.63414634146346" cy="40.0" class="point"/>
  <text x="414.63414634146346" y="375" class="label" text-anchor="middle">2026-01-14</text>
  <text x="414.63414634146346" y="35.0" class="label" text-anchor="middle">52</text>
  <circle cx="420.4878048780488" cy="40.0" class="point"/>
  <text x="420.4878048780488" y="375" class="label" text-anchor="middle">2026-01-15</text>
  <text x="420.4878048780488" y="35.0" class="label" text-anchor="middle">52</text>
  <circle cx="426.3414634146342" cy="40.0" class="point"/>
  <text x="426.3414634146342" y="375" class="label" text-anchor="middle">2026-01-16</text>
  <text x="426.3414634146342" y="35.0" class="label" text-anchor="middle">52</text>
  <circle cx="432.1951219512195" cy="40.0" class="point"/>
  <text x="432.1951219512195" y="375" class="label" text-anchor="middle">2026-01-17</text>
  <text x="432.1951219512195" y="35.0" class="label" text-anchor="middle">52</text>
  <circle cx="438.0487804878049" cy="40.0" class="point"/>
  <text x="438.0487804878049" y="375" class="label" text-anchor="middle">2026-01-18</text>
  <text x="438.0487804878049" y="35.0" class="label" text-anchor="middle">52</text>
  <circle cx="443.9024390243903" cy="40.0" class="point"/>
  <text x="443.9024390243903" y="375" class="label" text-anchor="middle">2026-01-19</text>
  <text x="443.9024390243903" y="35.0" class="label" text-anchor="middle">52</text>
  <circle cx="449.7560975609756" cy="40.0" class="point"/>
  <text x="449.7560975609756" y="375" class="label" text-anchor="middle">2026-01-20</text>
  <text x="449.7560975609756" y="35.0" class="label" text-anchor="middle">52</text>
  <circle cx="455.609756097561" cy="40.0" class="point"/>
  <text x="455.609756097561" y="375" class="label" text-anchor="middle">2026-01-21</text>
  <text x="455.609756097561" y="35.0" class="label" text-anchor="middle">52</text>
  <circle cx="461.4634146341463" cy="40.0" class="point"/>
  <text x="461.4634146341463" y="375" class="label" text-anchor="middle">2026-01-22</text>
  <text x="461.4634146341463" y="35.0" class="label" text-anchor="middle">52</text>
  <circle cx="467.3170731707317" cy="40.0" class="point"/>
  <text x="467.3170731707317" y="375" class="label" text-anchor="middle">2026-01-23</text>
  <text x="467.3170731707317" y="35.0" class="label" text-anchor="middle">52</text>
  <circle cx="473.1707317073171" cy="40.0" class="point"/>
  <text x="473.1707317073171" y="375" class="label" text-anchor="middle">2026-01-24</text>
  <text x="473.1707317073171" y="35.0" class="label" text-anchor="middle">52</text>
  <circle cx="479.0243902439024" cy="40.0" class="point"/>
  <text x="479.0243902439024" y="375" class="label" text-anchor="middle">2026-01-25</text>
  <text x="479.0243902439024" y="35.0" class="label" text-anchor="middle">52</text>
  <circle cx="484.8780487804878" cy="40.0" class="point"/>
  <text x="484.8780487804878" y="375" class="label" text-anchor="middle">2026-01-26</text>
  <text x="484.8780487804878" y="35.0" class="label" text-anchor="middle">52</text>
  <circle cx="490.73170731707313" cy="40.0" class="point"/>
  <text x="490.73170731707313" y="375" class="label" text-anchor="middle">2026-01-27</text>
  <text x="490.73170731707313" y="35.0" class="label" text-anchor="middle">52</text>
  <circle cx="496.5853658536585" cy="40.0" class="point"/>
  <text x="496.5853658536585" y="375" class="label" text-anchor="middle">2026-01-28</text>
  <text x="496.5853658536585" y="35.0" class="label" text-anchor="middle">52</text>
  <circle cx="502.43902439024396" cy="40.0" class="point"/>
  <text x="502.43902439024396" y="375" class="label" text-anchor="middle">2026-01-29</text>
  <text x="502.43902439024396" y="35.0" class="label" text-anchor="middle">52</text>
  <circle cx="508.29268292682923" cy="40.0" class="point"/>
  <text x="508.29268292682923" y="375" class="label" text-anchor="middle">2026-01-30</text>
  <text x="508.29268292682923" y="35.0" class="label" text-anchor="middle">52</text>
  <circle cx="514.1463414634147" cy="40.0" class="point"/>
  <text x="514.1463414634147" y="375" class="label" text-anchor="middle">2026-01-31</text>
  <text x="514.1463414634147" y="35.0" class="label" text-anchor="middle">52</text>
  <circle cx="520.0" cy="40.0" class="point"/>
  <text x="520.0" y="375" class="label" text-anchor="middle">2026-02-01</text>
  <text x="520.0" y="35.0" class="label" text-anchor="middle">52</text>
  <circle cx="525.8536585365854" cy="40.0" class="point"/>
  <text x="525.8536585365854" y="375" class="label" text-anchor="middle">2026-02-02</text>
  <text x="525.8536585365854" y="35.0" class="label" text-anchor="middle">52</text>
  <circle cx="531.7073170731708" cy="40.0" class="point"/>
  <text x="531.7073170731708" y="375" class="label" text-anchor="middle">2026-02-03</text>
  <text x="531.7073170731708" y="35.0" class="label" text-anchor="middle">52</text>
  <circle cx="537.560975609756" cy="40.0" class="point"/>
  <text x="537.560975609756" y="375" class="label" text-anchor="middle">2026-02-04</text>
  <text x="537.560975609756" y="35.0" class="label" text-anchor="middle">52</text>
  <circle cx="543.4146341463415" cy="40.0" class="point"/>
  <text x="543.4146341463415" y="375" class="label" text-anchor="middle">2026-02-05</text>
  <text x="543.4146341463415" y="35.0" class="label" text-anchor="middle">52</text>
  <circle cx="549.2682926829268" cy="40.0" class="point"/>
  <text x="549.2682926829268" y="375" class="label" text-anchor="middle">2026-02-06</text>
  <text x="549.2682926829268" y="35.0" class="label" text-anchor="middle">52</text>
  <circle cx="555.1219512195122" cy="40.0" class="point"/>
  <text x="555.1219512195122" y="375" class="label" text-anchor="middle">2026-02-07</text>
  <text x="555.1219512195122" y="35.0" class="label" text-anchor="middle">52</text>
  <circle cx="560.9756097560976" cy="40.0" class="point"/>
  <text x="560.9756097560976" y="375" class="label" text-anchor="middle">2026-02-08</text>
  <text x="560.9756097560976" y="35.0" class="label" text-anchor="middle">52</text>
  <circle cx="566.829268292683" cy="40.0" class="point"/>
  <text x="566.829268292683" y="375" class="label" text-anchor="middle">2026-02-09</text>
  <text x="566.829268292683" y="35.0" class="label" text-anchor="middle">52</text>
  <circle cx="572.6829268292684" cy="40.0" class="point"/>
  <text x="572.6829268292684" y="375" class="label" text-anchor="middle">2026-02-10</text>
  <text x="572.6829268292684" y="35.0" class="label" text-anchor="middle">52</text>
  <circle cx="578.5365853658536" cy="40.0" class="point"/>
  <text x="578.5365853658536" y="375" class="label" text-anchor="middle">2026-02-11</text>
  <text x="578.5365853658536" y="35.0" class="label" text-anchor="middle">52</text>
  <circle cx="584.390243902439" cy="40.0" class="point"/>
  <text x="584.390243902439" y="375" class="label" text-anchor="middle">2026-02-12</text>
  <text x="584.390243902439" y="35.0" class="label" text-anchor="middle">52</text>
  <circle cx="590.2439024390244" cy="40.0" class="point"/>
  <text x="590.2439024390244" y="375" class="label" text-anchor="middle">2026-02-13</text>
  <text x="590.2439024390244" y="35.0" class="label" text-anchor="middle">52</text>
  <circle cx="596.0975609756098" cy="40.0" class="point"/>
  <text x="596.0975609756098" y="375" class="label" text-anchor="middle">2026-02-14</text>
  <text x="596.0975609756098" y="35.0" class="label" text-anchor="middle">52</text>
  <circle cx="601.9512195121952" cy="40.0" class="point"/>
  <text x="601.9512195121952" y="375" class="label" text-anchor="middle">2026-02-15</text>
  <text x="601.9512195121952" y="35.0" class="label" text-anchor="middle">52</text>
  <circle cx="607.8048780487804" cy="40.0" class="point"/>
  <text x="607.8048780487804" y="375" class="label" text-anchor="middle">2026-02-16</text>
  <text x="607.8048780487804" y="35.0" class="label" text-anchor="middle">52</text>
  <circle cx="613.6585365853658" cy="40.0" class="point"/>
  <text x="613.6585365853658" y="375" class="label" text-anchor="middle">2026-02-17</text>
  <text x="613.6585365853658" y="35.0" class="label" text-anchor="middle">52</text>
  <circle cx="619.5121951219512" cy="40.0" class="point"/>
  <text x="619.5121951219512" y="375" class="label" text-anchor="middle">2026-02-18</text>
  <text x="619.5121951219512" y="35.0" class="label" text-anchor="middle">52</text>
  <circle cx="625.3658536585366" cy="40.0" class="point"/>
  <text x="625.3658536585366" y="375" class="label" text-anchor="middle">2026-02-19</text>
  <text x="625.3658536585366" y="35.0" class="label" text-anchor="middle">52</text>
  <circle cx="631.219512195122" cy="40.0" class="point"/>
  <text x="631.219512195122" y="375" class="label" text-anchor="middle">2026-02-20</text>
  <text x="631.219512195122" y="35.0" class="label" text-anchor="middle">52</text>
  <circle cx="637.0731707317073" cy="40.0" class="point"/>
  <text x="637.0731707317073" y="375" class="label" text-anchor="middle">2026-02-21</text>
  <text x="637.0731707317073" y="35.0" class="label" text-anchor="middle">52</text>
  <circle cx="642.9268292682926" cy="40.0" class="point"/>
  <text x="642.9268292682926" y="375" class="label" text-anchor="middle">2026-02-22</text>
  <text x="642.9268292682926" y="35.0" class="label" text-anchor="middle">52</text>
  <circle cx="648.7804878048781" cy="40.0" class="point"/>
  <text x="648.7804878048781" y="375" class="label" text-anchor="middle">2026-02-23</text>
  <text x="648.7804878048781" y="35.0" class="label" text-anchor="middle">52</text>
  <circle cx="654.6341463414634" cy="40.0" class="point"/>
  <text x="654.6341463414634" y="375" class="label" text-anchor="middle">2026-02-24</text>
  <text x="654.6341463414634" y="35.0" class="label" text-anchor="middle">52</text>
  <circle cx="660.4878048780488" cy="40.0" class="point"/>
  <text x="660.4878048780488" y="375" class="label" text-anchor="middle">2026-02-25</text>
  <text x="660.4878048780488" y="35.0" class="label" text-anchor="middle">52</text>
  <circle cx="666.3414634146341" cy="40.0" class="point"/>
  <text x="666.3414634146341" y="375" class="label" text-anchor="middle">2026-02-26</text>
  <text x="666.3414634146341" y="35.0" class="label" text-anchor="middle">52</text>
  <circle cx="672.1951219512196" cy="40.0" class="point"/>
  <text x="672.1951219512196" y="375" class="label" text-anchor="middle">2026-02-27</text>
  <text x="672.1951219512196" y="35.0" class="label" text-anchor="middle">52</text>
  <circle cx="678.048780487805" cy="40.0" class="point"/>
  <text x="678.048780487805" y="375" class="label" text-anchor="middle">2026-02-28</text>
  <text x="678.048780487805" y="35.0" class="label" text-anchor="middle">52</text>
  <circle cx="683.9024390243902" cy="40.0" class="point"/>
  <text x="683.9024390243902" y="375" class="label" text-anchor="middle">2026-03-01</text>
  <text x="683.9024390243902" y="35.0" class="label" text-anchor="middle">52</text>
  <circle cx="689.7560975609756" cy="40.0" class="point"/>
  <text x="689.7560975609756" y="375" class="label" text-anchor="middle">2026-03-02</text>
  <text x="689.7560975609756" y="35.0" class="label" text-anchor="middle">52</text>
  <circle cx="695.609756097561" cy="40.0" class="point"/>
  <text x="695.609756097561" y="375" class="label" text-anchor="middle">2026-03-03</text>
  <text x="695.609756097561" y="35.0" class="label" text-anchor="middle">52</text>
  <circle cx="701.4634146341464" cy="40.0" class="point"/>
  <text x="701.4634146341464" y="375" class="label" text-anchor="middle">2026-03-04</text>
  <text x="701.4634146341464" y="35.0" class="label" text-anchor="middle">52</text>
  <circle cx="707.3170731707318" cy="40.0" class="point"/>
  <text x="707.3170731707318" y="375" class="label" text-anchor="middle">2026-03-05</text>
  <text x="707.3170731707318" y="35.0" class="label" text-anchor="middle">52</text>
  <circle cx="713.170731707317" cy="40.0" class="point"/>
  <text x="713.170731707317" y="375" class="label" text-anchor="middle">2026-03-06</text>
  <text x="713.170731707317" y="35.0" class="label" text-anchor="middle">52</text>
  <circle cx="719.0243902439024" cy="40.0" class="point"/>
  <text x="719.0243902439024" y="375" class="label" text-anchor="middle">2026-03-07</text>
  <text x="719.0243902439024" y="35.0" class="label" text-anchor="middle">52</text>
  <circle cx="724.8780487804878" cy="40.0" class="point"/>
  <text x="724.8780487804878" y="375" class="label" text-anchor="middle">2026-03-08</text>
  <text x="724.8780487804878" y="35.0" class="label" text-anchor="middle">52</text>
  <circle cx="730.7317073170732" cy="40.0" class="point"/>
  <text x="730.7317073170732" y="375" class="label" text-anchor="middle">2026-03-09</text>
  <text x="730.7317073170732" y="35.0" class="label" text-anchor="middle">52</text>
  <circle cx="736.5853658536586" cy="40.0" class="point"/>
  <text x="736.5853658536586" y="375" class="label" text-anchor="middle">2026-03-10</text>
  <text x="736.5853658536586" y="35.0" class="label" text-anchor="middle">52</text>
  <circle cx="742.4390243902438" cy="40.0" class="point"/>
  <text x="742.4390243902438" y="375" class="label" text-anchor="middle">2026-03-11</text>
  <text x="742.4390243902438" y="35.0" class="label" text-anchor="middle">52</text>
  <circle cx="748.2926829268292" cy="40.0" class="point"/>
  <text x="748.2926829268292" y="375" class="label" text-anchor="middle">2026-03-12</text>
  <text x="748.2926829268292" y="35.0" class="label" text-anchor="middle">52</text>
  <circle cx="754.1463414634146" cy="40.0" class="point"/>
  <text x="754.1463414634146" y="375" class="label" text-anchor="middle">2026-03-13</text>
  <text x="754.1463414634146" y="35.0" class="label" text-anchor="middle">52</text>
  <circle cx="760.0" cy="40.0" class="point"/>
  <text x="760.0" y="375" class="label" text-anchor="middle">2026-03-14</text>
  <text x="760.0" y="35.0" class="label" text-anchor="middle">52</text>
  <text x="30" y="363.0" class="label" text-anchor="end">0</text>
  <text x="30" y="301.46153846153845" class="label" text-anchor="end">10</text>
  <text x="30" y="239.9230769230769" class="label" text-anchor="end">20</text>
  <text x="30" y="178.38461538461542" class="label" text-anchor="end">30</text>
  <text x="30" y="116.84615384615384" class="label" text-anchor="end">40</text>
  <text x="30" y="55.30769230769232" class="label" text-anchor="end">50</text>
</svg>