<svg xmlns="http://www.w3.org/2000/svg" width="800" height="400" viewBox="0 0 800 400">
  <style>
    .axis{stroke:#666;stroke-width:1}
    .line{stroke:#4a9;stroke-width:2;fill:none}
    .point{fill:#4a9;r:4}
    .label{font:10px sans-serif;fill:#aaa}
    .title{font:14px sans-serif;fill:#333}
  </style>
  <text x="400" y="20" class="title" text-anchor="middle">OPIC Field Growth Timeline</text>
  <line x1="40" y1="40" x2="40" y2="360" class="axis"/>
  <line x1="40" y1="360" x2="760" y2="360" class="axis"/>
  <path d="M 40.0,101.53846153846155 L 63.225806451612904,101.53846153846155 L 86.45161290322581,101.53846153846155 L 109.6774193548387,101.53846153846155 L 132.90322580645162,101.53846153846155 L 156.1290322580645,101.53846153846155 L 179.3548387096774,101.53846153846155 L 202.5806451612903,101.53846153846155 L 225.80645161290323,101.53846153846155 L 249.03225806451616,101.53846153846155 L 272.258064516129,101.53846153846155 L 295.48387096774195,101.53846153846155 L 318.7096774193548,101.53846153846155 L 341.93548387096774,101.53846153846155 L 365.1612903225806,101.53846153846155 L 388.38709677419354,101.53846153846155 L 411.61290322580646,101.53846153846155 L 434.83870967741933,101.53846153846155 L 458.0645161290323,101.53846153846155 L 481.2903225806452,101.53846153846155 L 504.51612903225805,101.53846153846155 L 527.741935483871,101.53846153846155 L 550.9677419354839,101.53846153846155 L 574.1935483870968,101.53846153846155 L 597.4193548387096,101.53846153846155 L 620.6451612903226,101.53846153846155 L 643.8709677419355,101.53846153846155 L 667.0967741935484,40.0 L 690.3225806451612,40.0 L 713.5483870967741,40.0 L 736.7741935483871,40.0 L 760.0,40.0" class="line"/>
  <circle cx="40.0" cy="101.53846153846155" class="point"/>
  <text x="40.0" y="375" class="label" text-anchor="middle">2025-11-11</text>
  <text x="40.0" y="96.53846153846155" class="label" text-anchor="middle">42</text>
  <circle cx="63.225806451612904" cy="101.53846153846155" class="point"/>
  <text x="63.225806451612904" y="375" class="label" text-anchor="middle">2025-11-12</text>
  <text x="63.225806451612904" y="96.53846153846155" class="label" text-anchor="middle">42</text>
  <circle cx="86.45161290322581" cy="101.53846153846155" class="point"/>
  <text x="86.45161290322581" y="375" class="label" text-anchor="middle">2025-11-13</text>
  <text x="86.45161290322581" y="96.53846153846155" class="label" text-anchor="middle">42</text>
  <circle cx="109.6774193548387" cy="101.53846153846155" class="point"/>
  <text x="109.6774193548387" y="375" class="label" text-anchor="middle">2025-11-14</text>
  <text x="109.6774193548387" y="96.53846153846155" class="label" text-anchor="middle">42</text>
  <circle cx="132.90322580645162" cy="101.53846153846155" class="point"/>
  <text x="132.90322580645162" y="375" class="label" text-anchor="middle">2025-11-15</text>
  <text x="132.90322580645162" y="96.53846153846155" class="label" text-anchor="middle">42</text>
  <circle cx="156.1290322580645" cy="101.53846153846155" class="point"/>
  <text x="156.1290322580645" y="375" class="label" text-anchor="middle">2025-11-16</text>
  <text x="156.1290322580645" y="96.53846153846155" class="label" text-anchor="middle">42</text>
  <circle cx="179.3548387096774" cy="101.53846153846155" class="point"/>
  <text x="179.3548387096774" y="375" class="label" text-anchor="middle">2025-11-17</text>
  <text x="179.3548387096774" y="96.53846153846155" class="label" text-anchor="middle">42</text>
  <circle cx="202.5806451612903" cy="101.53846153846155" class="point"/>
  <text x="202.5806451612903" y="375" class="label" text-anchor="middle">2025-11-18</text>
  <text x="202.5806451612903" y="96.53846153846155" class="label" text-anchor="middle">42</text>
  <circle cx="225.80645161290323" cy="101.53846153846155" class="point"/>
  <text x="225.80645161290323" y="375" class="label" text-anchor="middle">2025-11-19</text>
  <text x="225.80645161290323" y="96.53846153846155" class="label" text-anchor="middle">42</text>
  <circle cx="249.03225806451616" cy="101.53846153846155" class="point"/>
  <text x="249.03225806451616" y="375" class="label" text-anchor="middle">2025-11-20</text>
  <text x="249.03225806451616" y="96.53846153846155" class="label" text-anchor="middle">42</text>
  <circle cx="272.258064516129" cy="101.53846153846155" class="point"/>
  <text x="272.258064516129" y="375" class="label" text-anchor="middle">2025-11-21</text>
  <text x="272.258064516129" y="96.53846153846155" class="label" text-anchor="middle">42</text>
  <circle cx="295.48387096774195" cy="101.53846153846155" class="point"/>
  <text x="295.48387096774195" y="375" class="label" text-anchor="middle">2025-11-22</text>
  <text x="295.48387096774195" y="96.53846153846155" class="label" text-anchor="middle">42</text>
  <circle cx="318.7096774193548" cy="101.53846153846155" class="point"/>
  <text x="318.7096774193548" y="375" class="label" text-anchor="middle">2025-11-23</text>
  <text x="318.7096774193548" y="96.53846153846155" class="label" text-anchor="middle">42</text>
  <circle cx="341.93548387096774" cy="101.53846153846155" class="point"/>
  <text x="341.93548387096774" y="375" class="label" text-anchor="middle">2025-11-24</text>
  <text x="341.93548387096774" y="96.53846153846155" class="label" text-anchor="middle">42</text>
  <circle cx="365.1612903225806" cy="101.53846153846155" class="point"/>
  <text x="365.1612903225806" y="375" class="label" text-anchor="middle">2025-11-25</text>
  <text x="365.1612903225806" y="96.53846153846155" class="label" text-anchor="middle">42</text>
  <circle cx="388.38709677419354" cy="101.53846153846155" class="point"/>
  <text x="388.38709677419354" y="375" class="label" text-anchor="middle">2025-11-26</text>
  <text x="388.38709677419354" y="96.53846153846155" class="label" text-anchor="middle">42</text>
  <circle cx="411.61290322580646" cy="101.53846153846155" class="point"/>
  <text x="411.61290322580646" y="375" class="label" text-anchor="middle">2025-11-27</text>
  <text x="411.61290322580646" y="96.53846153846155" class="label" text-anchor="middle">42</text>
  <circle cx="434.83870967741933" cy="101.53846153846155" class="point"/>
  <text x="434.83870967741933" y="375" class="label" text-anchor="middle">2025-11-28</text>
  <text x="434.83870967741933" y="96.53846153846155" class="label" text-anchor="middle">42</text>
  <circle cx="458.0645161290323" cy="101.53846153846155" class="point"/>
  <text x="458.0645161290323" y="375" class="label" text-anchor="middle">2025-11-29</text>
  <text x="458.0645161290323" y="96.53846153846155" class="label" text-anchor="middle">42</text>
  <circle cx="481.2903225806452" cy="101.53846153846155" class="point"/>
  <text x="481.2903225806452" y="375" class="label" text-anchor="middle">2025-11-30</text>
  <text x="481.2903225806452" y="96.53846153846155" class="label" text-anchor="middle">42</text>
  <circle cx="504.51612903225805" cy="101.53846153846155" class="point"/>
  <text x="504.51612903225805" y="375" class="label" text-anchor="middle">2025-12-01</text>
  <text x="504.51612903225805" y="96.53846153846155" class="label" text-anchor="middle">42</text>
  <circle cx="527.741935483871" cy="101.53846153846155" class="point"/>
  <text x="527.741935483871" y="375" class="label" text-anchor="middle">2025-12-02</text>
  <text x="527.741935483871" y="96.53846153846155" class="label" text-anchor="middle">42</text>
  <circle cx="550.9677419354839" cy="101.53846153846155" class="point"/>
  <text x="550.9677419354839" y="375" class="label" text-anchor="middle">2025-12-03</text>
  <text x="550.9677419354839" y="96.53846153846155" class="label" text-anchor="middle">42</text>
  <circle cx="574.1935483870968" cy="101.53846153846155" class="point"/>
  <text x="574.1935483870968" y="375" class="label" text-anchor="middle">2025-12-04</text>
  <text x="574.1935483870968" y="96.53846153846155" class="label" text-anchor="middle">42</text>
  <circle cx="597.4193548387096" cy="101.53846153846155" class="point"/>
  <text x="597.4193548387096" y="375" class="label" text-anchor="middle">2025-12-05</text>
  <text x="597.4193548387096" y="96.53846153846155" class="label" text-anchor="middle">42</text>
  <circle cx="620.6451612903226" cy="101.53846153846155" class="point"/>
  <text x="620.6451612903226" y="375" class="label" text-anchor="middle">2025-12-06</text>
  <text x="620.6451612903226" y="96.53846153846155" class="label" text-anchor="middle">42</text>
  <circle cx="643.8709677419355" cy="101.53846153846155" class="point"/>
  <text x="643.8709677419355" y="375" class="label" text-anchor="middle">2025-12-07</text>
  <text x="643.8709677419355" y="96.53846153846155" class="label" text-anchor="middle">42</text>
  <circle cx="667.0967741935484" cy="40.0" class="point"/>
  <text x="667.0967741935484" y="375" class="label" text-anchor="middle">2025-12-08</text>
  <text x="667.0967741935484" y="35.0" class="label" text-anchor="middle">52</text>
  <circle cx="690.3225806451612" cy="40.0" class="point"/>
  <text x="690.3225806451612" y="375" class="label" text-anchor="middle">2025-12-09</text>
  <text x="690.3225806451612" y="35.0" class="label" text-anchor="middle">52</text>
  <circle cx="713.5483870967741" cy="40.0" class="point"/>
  <text x="713.5483870967741" y="375" class="label" text-anchor="middle">2025-12-10</text>
  <text x="713.5483870967741" y="35.0" class="label" text-anchor="middle">52</text>
  <circle cx="736.7741935483871" cy="40.0" class="point"/>
  <text x="736.7741935483871" y="375" class="label" text-anchor="middle">2025-12-11</text>
  <text x="736.7741935483871" y="35.0" class="label" text-anchor="middle">52</text>
  <circle cx="760.0" cy="40.0" class="point"/>
  <text x="760.0" y="375" class="label" text-anchor="middle">2025-12-12</text>
  <text x="760.0" y="35.0" class="label" text-anchor="middle">52</text>
  <text x="30" y="363.0" class="label" text-anchor="end">0</text>
  <text x="30" y="301.46153846153845" class="label" text-anchor="end">10</text>
  <text x="30" y="239.9230769230769" class="label" text-anchor="end">20</text>
  <text x="30" y="178.38461538461542" class="label" text-anchor="end">30</text>
  <text x="30" y="116.84615384615384" class="label" text-anchor="end">40</text>
  <text x="30" y="55.30769230769232" class="label" text-anchor="end">50</text>
</svg>