<svg xmlns="http://www.w3.org/2000/svg" width="800" height="400" viewBox="0 0 800 400">
  <style>
    .axis{stroke:#666;stroke-width:1}
    .line{stroke:#4a9;stroke-width:2;fill:none}
    .point{fill:#4a9;r:4}
    .label{font:10px sans-serif;fill:#aaa}
    .title{font:14px sans-serif;fill:#333}
  </style>
  <text x="400" y="20" class="title" text-anchor="middle">OPIC Field Growth Timeline</text>
  <line x1="40" y1="40" x2="40" y2="360" class="axis"/>
  <line x1="40" y1="360" x2="760" y2="360" class="axis"/>
  <path d="M 40.0,101.53846153846155 L 44.96551724137931,101.53846153846155 L 49.93103448275862,101.53846153846155 L 54.89655172413793,101.53846153846155 L 59.86206896551724,101.53846153846155 L 64.82758620689656,101.53846153846155 L 69.79310344827586,101.53846153846155 L 74.75862068965517,101.53846153846155 L 79.72413793103448,101.53846153846155 L 84.6896551724138,101.53846153846155 L 89.65517241379311,101.53846153846155 L 94.62068965517241,101.53846153846155 L 99.58620689655172,101.53846153846155 L 104.55172413793103,101.53846153846155 L 109.51724137931035,101.53846153846155 L 114.48275862068965,101.53846153846155 L 119.44827586206897,101.53846153846155 L 124.41379310344827,101.53846153846155 L 129.3793103448276,101.53846153846155 L 134.34482758620692,101.53846153846155 L 139.31034482758622,101.53846153846155 L 144.27586206896552,101.53846153846155 L 149.24137931034483,101.53846153846155 L 154.20689655172413,101.53846153846155 L 159.17241379310343,101.53846153846155 L 164.13793103448276,101.53846153846155 L 169.10344827586206,101.53846153846155 L 174.0689655172414,40.0 L 179.0344827586207,40.0 L 184.0,40.0 L 188.9655172413793,40.0 L 193.93103448275863,40.0 L 198.89655172413794,40.0 L 203.86206896551724,40.0 L 208.82758620689654,40.0 L 213.79310344827587,40.0 L 218.75862068965517,40.0 L 223.72413793103448,40.0 L 228.6896551724138,40.0 L 233.65517241379308,40.0 L 238.6206896551724,40.0 L 243.58620689655174,40.0 L 248.55172413793105,40.0 L 253.51724137931032,40.0 L 258.48275862068965,40.0 L 263.44827586206895,40.0 L 268.41379310344826,40.0 L 273.37931034482756,40.0 L 278.34482758620686,40.0 L 283.3103448275862,40.0 L 288.2758620689655,40.0 L 293.2413793103448,40.0 L 298.2068965517241,40.0 L 303.17241379310343,40.0 L 308.1379310344828,40.0 L 313.10344827586204,40.0 L 318.0689655172414,40.0 L 323.0344827586207,40.0 L 328.0,40.0 L 332.9655172413793,40.0 L 337.9310344827586,40.0 L 342.89655172413796,40.0 L 347.86206896551727,40.0 L 352.8275862068965,40.0 L 357.7931034482759,40.0 L 362.7586206896552,40.0 L 367.7241379310345,40.0 L 372.6896551724138,40.0 L 377.6551724137931,40.0 L 382.62068965517244,40.0 L 387.58620689655174,40.0 L 392.55172413793105,40.0 L 397.51724137931035,40.0 L 402.48275862068965,40.0 L 407.44827586206895,40.0 L 412.4137931034483,40.0 L 417.3793103448276,40.0 L 422.34482758620686,40.0 L 427.31034482758616,40.0 L 432.2758620689655,40.0 L 437.2413793103448,40.0 L 442.2068965517241,40.0 L 447.1724137931035,40.0 L 452.1379310344828,40.0 L 457.1034482758621,40.0 L 462.06896551724134,40.0 L 467.03448275862064,40.0 L 472.0,40.0 L 476.9655172413793,40.0 L 481.9310344827586,40.0 L 486.89655172413796,40.0 L 491.86206896551727,40.0 L 496.82758620689657,40.0 L 501.7931034482758,40.0 L 506.7586206896551,40.0 L 511.7241379310345,40.0 L 516.6896551724137,40.0 L 521.655172413793,40.0 L 526.6206896551724,40.0 L 531.5862068965517,40.0 L 536.551724137931,40.0 L 541.5172413793102,40.0 L 546.4827586206897,40.0 L 551.448275862069,40.0 L 556.4137931034483,40.0 L 561.3793103448276,40.0 L 566.3448275862069,40.0 L 571.3103448275863,40.0 L 576.2758620689656,40.0 L 581.2413793103448,40.0 L 586.2068965517241,40.0 L 591.1724137931035,40.0 L 596.1379310344828,40.0 L 601.1034482758621,40.0 L 606.0689655172414,40.0 L 611.0344827586207,40.0 L 616.0,40.0 L 620.9655172413793,40.0 L 625.9310344827586,40.0 L 630.8965517241379,40.0 L 635.8620689655172,40.0 L 640.8275862068965,40.0 L 645.7931034482759,40.0 L 650.7586206896552,40.0 L 655.7241379310345,40.0 L 660.6896551724137,40.0 L 665.655172413793,40.0 L 670.6206896551724,40.0 L 675.5862068965517,40.0 L 680.551724137931,40.0 L 685.5172413793103,40.0 L 690.4827586206897,40.0 L 695.448275862069,40.0 L 700.4137931034483,40.0 L 705.3793103448276,40.0 L 710.3448275862069,40.0 L 715.3103448275862,40.0 L 720.2758620689655,40.0 L 725.2413793103449,40.0 L 730.2068965517242,40.0 L 735.1724137931035,40.0 L 740.1379310344827,40.0 L 745.1034482758621,40.0 L 750.0689655172414,40.0 L 755.0344827586207,40.0 L 760.0,40.0" class="line"/>
  <circle cx="40.0" cy="101.53846153846155" class="point"/>
  <text x="40.0" y="375" class="label" text-anchor="middle">2025-11-11</text>
  <text x="40.0" y="96.53846153846155" class="label" text-anchor="middle">42</text>
  <circle cx="44.96551724137931" cy="101.53846153846155" class="point"/>
  <text x="44.96551724137931" y="375" class="label" text-anchor="middle">2025-11-12</text>
  <text x="44.96551724137931" y="96.53846153846155" class="label" text-anchor="middle">42</text>
  <circle cx="49.93103448275862" cy="101.53846153846155" class="point"/>
  <text x="49.93103448275862" y="375" class="label" text-anchor="middle">2025-11-13</text>
  <text x="49.93103448275862" y="96.53846153846155" class="label" text-anchor="middle">42</text>
  <circle cx="54.89655172413793" cy="101.53846153846155" class="point"/>
  <text x="54.89655172413793" y="375" class="label" text-anchor="middle">2025-11-14</text>
  <text x="54.89655172413793" y="96.53846153846155" class="label" text-anchor="middle">42</text>
  <circle cx="59.86206896551724" cy="101.53846153846155" class="point"/>
  <text x="59.86206896551724" y="375" class="label" text-anchor="middle">2025-11-15</text>
  <text x="59.86206896551724" y="96.53846153846155" class="label" text-anchor="middle">42</text>
  <circle cx="64.82758620689656" cy="101.53846153846155" class="point"/>
  <text x="64.82758620689656" y="375" class="label" text-anchor="middle">2025-11-16</text>
  <text x="64.82758620689656" y="96.53846153846155" class="label" text-anchor="middle">42</text>
  <circle cx="69.79310344827586" cy="101.53846153846155" class="point"/>
  <text x="69.79310344827586" y="375" class="label" text-anchor="middle">2025-11-17</text>
  <text x="69.79310344827586" y="96.53846153846155" class="label" text-anchor="middle">42</text>
  <circle cx="74.75862068965517" cy="101.53846153846155" class="point"/>
  <text x="74.75862068965517" y="375" class="label" text-anchor="middle">2025-11-18</text>
  <text x="74.75862068965517" y="96.53846153846155" class="label" text-anchor="middle">42</text>
  <circle cx="79.72413793103448" cy="101.53846153846155" class="point"/>
  <text x="79.72413793103448" y="375" class="label" text-anchor="middle">2025-11-19</text>
  <text x="79.72413793103448" y="96.53846153846155" class="label" text-anchor="middle">42</text>
  <circle cx="84.6896551724138" cy="101.53846153846155" class="point"/>
  <text x="84.6896551724138" y="375" class="label" text-anchor="middle">2025-11-20</text>
  <text x="84.6896551724138" y="96.53846153846155" class="label" text-anchor="middle">42</text>
  <circle cx="89.65517241379311" cy="101.53846153846155" class="point"/>
  <text x="89.65517241379311" y="375" class="label" text-anchor="middle">2025-11-21</text>
  <text x="89.65517241379311" y="96.53846153846155" class="label" text-anchor="middle">42</text>
  <circle cx="94.62068965517241" cy="101.53846153846155" class="point"/>
  <text x="94.62068965517241" y="375" class="label" text-anchor="middle">2025-11-22</text>
  <text x="94.62068965517241" y="96.53846153846155" class="label" text-anchor="middle">42</text>
  <circle cx="99.58620689655172" cy="101.53846153846155" class="point"/>
  <text x="99.58620689655172" y="375" class="label" text-anchor="middle">2025-11-23</text>
  <text x="99.58620689655172" y="96.53846153846155" class="label" text-anchor="middle">42</text>
  <circle cx="104.55172413793103" cy="101.53846153846155" class="point"/>
  <text x="104.55172413793103" y="375" class="label" text-anchor="middle">2025-11-24</text>
  <text x="104.55172413793103" y="96.53846153846155" class="label" text-anchor="middle">42</text>
  <circle cx="109.51724137931035" cy="101.53846153846155" class="point"/>
  <text x="109.51724137931035" y="375" class="label" text-anchor="middle">2025-11-25</text>
  <text x="109.51724137931035" y="96.53846153846155" class="label" text-anchor="middle">42</text>
  <circle cx="114.48275862068965" cy="101.53846153846155" class="point"/>
  <text x="114.48275862068965" y="375" class="label" text-anchor="middle">2025-11-26</text>
  <text x="114.48275862068965" y="96.53846153846155" class="label" text-anchor="middle">42</text>
  <circle cx="119.44827586206897" cy="101.53846153846155" class="point"/>
  <text x="119.44827586206897" y="375" class="label" text-anchor="middle">2025-11-27</text>
  <text x="119.44827586206897" y="96.53846153846155" class="label" text-anchor="middle">42</text>
  <circle cx="124.41379310344827" cy="101.53846153846155" class="point"/>
  <text x="124.41379310344827" y="375" class="label" text-anchor="middle">2025-11-28</text>
  <text x="124.41379310344827" y="96.53846153846155" class="label" text-anchor="middle">42</text>
  <circle cx="129.3793103448276" cy="101.53846153846155" class="point"/>
  <text x="129.3793103448276" y="375" class="label" text-anchor="middle">2025-11-29</text>
  <text x="129.3793103448276" y="96.53846153846155" class="label" text-anchor="middle">42</text>
  <circle cx="134.34482758620692" cy="101.53846153846155" class="point"/>
  <text x="134.34482758620692" y="375" class="label" text-anchor="middle">2025-11-30</text>
  <text x="134.34482758620692" y="96.53846153846155" class="label" text-anchor="middle">42</text>
  <circle cx="139.31034482758622" cy="101.53846153846155" class="point"/>
  <text x="139.31034482758622" y="375" class="label" text-anchor="middle">2025-12-01</text>
  <text x="139.31034482758622" y="96.53846153846155" class="label" text-anchor="middle">42</text>
  <circle cx="144.27586206896552" cy="101.53846153846155" class="point"/>
  <text x="144.27586206896552" y="375" class="label" text-anchor="middle">2025-12-02</text>
  <text x="144.27586206896552" y="96.53846153846155" class="label" text-anchor="middle">42</text>
  <circle cx="149.24137931034483" cy="101.53846153846155" class="point"/>
  <text x="149.24137931034483" y="375" class="label" text-anchor="middle">2025-12-03</text>
  <text x="149.24137931034483" y="96.53846153846155" class="label" text-anchor="middle">42</text>
  <circle cx="154.20689655172413" cy="101.53846153846155" class="point"/>
  <text x="154.20689655172413" y="375" class="label" text-anchor="middle">2025-12-04</text>
  <text x="154.20689655172413" y="96.53846153846155" class="label" text-anchor="middle">42</text>
  <circle cx="159.17241379310343" cy="101.53846153846155" class="point"/>
  <text x="159.17241379310343" y="375" class="label" text-anchor="middle">2025-12-05</text>
  <text x="159.17241379310343" y="96.53846153846155" class="label" text-anchor="middle">42</text>
  <circle cx="164.13793103448276" cy="101.53846153846155" class="point"/>
  <text x="164.13793103448276" y="375" class="label" text-anchor="middle">2025-12-06</text>
  <text x="164.13793103448276" y="96.53846153846155" class="label" text-anchor="middle">42</text>
  <circle cx="169.10344827586206" cy="101.53846153846155" class="point"/>
  <text x="169.10344827586206" y="375" class="label" text-anchor="middle">2025-12-07</text>
  <text x="169.10344827586206" y="96.53846153846155" class="label" text-anchor="middle">42</text>
  <circle cx="174.0689655172414" cy="40.0" class="point"/>
  <text x="174.0689655172414" y="375" class="label" text-anchor="middle">2025-12-08</text>
  <text x="174.0689655172414" y="35.0" class="label" text-anchor="middle">52</text>
  <circle cx="179.0344827586207" cy="40.0" class="point"/>
  <text x="179.0344827586207" y="375" class="label" text-anchor="middle">2025-12-09</text>
  <text x="179.0344827586207" y="35.0" class="label" text-anchor="middle">52</text>
  <circle cx="184.0" cy="40.0" class="point"/>
  <text x="184.0" y="375" class="label" text-anchor="middle">2025-12-10</text>
  <text x="184.0" y="35.0" class="label" text-anchor="middle">52</text>
  <circle cx="188.9655172413793" cy="40.0" class="point"/>
  <text x="188.9655172413793" y="375" class="label" text-anchor="middle">2025-12-11</text>
  <text x="188.9655172413793" y="35.0" class="label" text-anchor="middle">52</text>
  <circle cx="193.93103448275863" cy="40.0" class="point"/>
  <text x="193.93103448275863" y="375" class="label" text-anchor="middle">2025-12-12</text>
  <text x="193.93103448275863" y="35.0" class="label" text-anchor="middle">52</text>
  <circle cx="198.89655172413794" cy="40.0" class="point"/>
  <text x="198.89655172413794" y="375" class="label" text-anchor="middle">2025-12-13</text>
  <text x="198.89655172413794" y="35.0" class="label" text-anchor="middle">52</text>
  <circle cx="203.86206896551724" cy="40.0" class="point"/>
  <text x="203.86206896551724" y="375" class="label" text-anchor="middle">2025-12-14</text>
  <text x="203.86206896551724" y="35.0" class="label" text-anchor="middle">52</text>
  <circle cx="208.82758620689654" cy="40.0" class="point"/>
  <text x="208.82758620689654" y="375" class="label" text-anchor="middle">2025-12-15</text>
  <text x="208.82758620689654" y="35.0" class="label" text-anchor="middle">52</text>
  <circle cx="213.79310344827587" cy="40.0" class="point"/>
  <text x="213.79310344827587" y="375" class="label" text-anchor="middle">2025-12-16</text>
  <text x="213.79310344827587" y="35.0" class="label" text-anchor="middle">52</text>
  <circle cx="218.75862068965517" cy="40.0" class="point"/>
  <text x="218.75862068965517" y="375" class="label" text-anchor="middle">2025-12-17</text>
  <text x="218.75862068965517" y="35.0" class="label" text-anchor="middle">52</text>
  <circle cx="223.72413793103448" cy="40.0" class="point"/>
  <text x="223.72413793103448" y="375" class="label" text-anchor="middle">2025-12-18</text>
  <text x="223.72413793103448" y="35.0" class="label" text-anchor="middle">52</text>
  <circle cx="228.6896551724138" cy="40.0" class="point"/>
  <text x="228.6896551724138" y="375" class="label" text-anchor="middle">2025-12-19</text>
  <text x="228.6896551724138" y="35.0" class="label" text-anchor="middle">52</text>
  <circle cx="233.65517241379308" cy="40.0" class="point"/>
  <text x="233.65517241379308" y="375" class="label" text-anchor="middle">2025-12-20</text>
  <text x="233.65517241379308" y="35.0" class="label" text-anchor="middle">52</text>
  <circle cx="238.6206896551724" cy="40.0" class="point"/>
  <text x="238.6206896551724" y="375" class="label" text-anchor="middle">2025-12-21</text>
  <text x="238.6206896551724" y="35.0" class="label" text-anchor="middle">52</text>
  <circle cx="243.58620689655174" cy="40.0" class="point"/>
  <text x="243.58620689655174" y="375" class="label" text-anchor="middle">2025-12-22</text>
  <text x="243.58620689655174" y="35.0" class="label" text-anchor="middle">52</text>
  <circle cx="248.55172413793105" cy="40.0" class="point"/>
  <text x="248.55172413793105" y="375" class="label" text-anchor="middle">2025-12-23</text>
  <text x="248.55172413793105" y="35.0" class="label" text-anchor="middle">52</text>
  <circle cx="253.51724137931032" cy="40.0" class="point"/>
  <text x="253.51724137931032" y="375" class="label" text-anchor="middle">2025-12-24</text>
  <text x="253.51724137931032" y="35.0" class="label" text-anchor="middle">52</text>
  <circle cx="258.48275862068965" cy="40.0" class="point"/>
  <text x="258.48275862068965" y="375" class="label" text-anchor="middle">2025-12-25</text>
  <text x="258.48275862068965" y="35.0" class="label" text-anchor="middle">52</text>
  <circle cx="263.44827586206895" cy="40.0" class="point"/>
  <text x="263.44827586206895" y="375" class="label" text-anchor="middle">2025-12-26</text>
  <text x="263.44827586206895" y="35.0" class="label" text-anchor="middle">52</text>
  <circle cx="268.41379310344826" cy="40.0" class="point"/>
  <text x="268.41379310344826" y="375" class="label" text-anchor="middle">2025-12-27</text>
  <text x="268.41379310344826" y="35.0" class="label" text-anchor="middle">52</text>
  <circle cx="273.37931034482756" cy="40.0" class="point"/>
  <text x="273.37931034482756" y="375" class="label" text-anchor="middle">2025-12-28</text>
  <text x="273.37931034482756" y="35.0" class="label" text-anchor="middle">52</text>
  <circle cx="278.34482758620686" cy="40.0" class="point"/>
  <text x="278.34482758620686" y="375" class="label" text-anchor="middle">2025-12-29</text>
  <text x="278.34482758620686" y="35.0" class="label" text-anchor="middle">52</text>
  <circle cx="283.3103448275862" cy="40.0" class="point"/>
  <text x="283.3103448275862" y="375" class="label" text-anchor="middle">2025-12-30</text>
  <text x="283.3103448275862" y="35.0" class="label" text-anchor="middle">52</text>
  <circle cx="288.2758620689655" cy="40.0" class="point"/>
  <text x="288.2758620689655" y="375" class="label" text-anchor="middle">2025-12-31</text>
  <text x="288.2758620689655" y="35.0" class="label" text-anchor="middle">52</text>
  <circle cx="293.2413793103448" cy="40.0" class="point"/>
  <text x="293.2413793103448" y="375" class="label" text-anchor="middle">2026-01-01</text>
  <text x="293.2413793103448" y="35.0" class="label" text-anchor="middle">52</text>
  <circle cx="298.2068965517241" cy="40.0" class="point"/>
  <text x="298.2068965517241" y="375" class="label" text-anchor="middle">2026-01-02</text>
  <text x="298.2068965517241" y="35.0" class="label" text-anchor="middle">52</text>
  <circle cx="303.17241379310343" cy="40.0" class="point"/>
  <text x="303.17241379310343" y="375" class="label" text-anchor="middle">2026-01-03</text>
  <text x="303.17241379310343" y="35.0" class="label" text-anchor="middle">52</text>
  <circle cx="308.1379310344828" cy="40.0" class="point"/>
  <text x="308.1379310344828" y="375" class="label" text-anchor="middle">2026-01-04</text>
  <text x="308.1379310344828" y="35.0" class="label" text-anchor="middle">52</text>
  <circle cx="313.10344827586204" cy="40.0" class="point"/>
  <text x="313.10344827586204" y="375" class="label" text-anchor="middle">2026-01-05</text>
  <text x="313.10344827586204" y="35.0" class="label" text-anchor="middle">52</text>
  <circle cx="318.0689655172414" cy="40.0" class="point"/>
  <text x="318.0689655172414" y="375" class="label" text-anchor="middle">2026-01-06</text>
  <text x="318.0689655172414" y="35.0" class="label" text-anchor="middle">52</text>
  <circle cx="323.0344827586207" cy="40.0" class="point"/>
  <text x="323.0344827586207" y="375" class="label" text-anchor="middle">2026-01-07</text>
  <text x="323.0344827586207" y="35.0" class="label" text-anchor="middle">52</text>
  <circle cx="328.0" cy="40.0" class="point"/>
  <text x="328.0" y="375" class="label" text-anchor="middle">2026-01-08</text>
  <text x="328.0" y="35.0" class="label" text-anchor="middle">52</text>
  <circle cx="332.9655172413793" cy="40.0" class="point"/>
  <text x="332.9655172413793" y="375" class="label" text-anchor="middle">2026-01-09</text>
  <text x="332.9655172413793" y="35.0" class="label" text-anchor="middle">52</text>
  <circle cx="337.9310344827586" cy="40.0" class="point"/>
  <text x="337.9310344827586" y="375" class="label" text-anchor="middle">2026-01-10</text>
  <text x="337.9310344827586" y="35.0" class="label" text-anchor="middle">52</text>
  <circle cx="342.89655172413796" cy="40.0" class="point"/>
  <text x="342.89655172413796" y="375" class="label" text-anchor="middle">2026-01-11</text>
  <text x="342.89655172413796" y="35.0" class="label" text-anchor="middle">52</text>
  <circle cx="347.86206896551727" cy="40.0" class="point"/>
  <text x="347.86206896551727" y="375" class="label" text-anchor="middle">2026-01-12</text>
  <text x="347.86206896551727" y="35.0" class="label" text-anchor="middle">52</text>
  <circle cx="352.8275862068965" cy="40.0" class="point"/>
  <text x="352.8275862068965" y="375" class="label" text-anchor="middle">2026-01-13</text>
  <text x="352.8275862068965" y="35.0" class="label" text-anchor="middle">52</text>
  <circle cx="357.7931034482759" cy="40.0" class="point"/>
  <text x="357.7931034482759" y="375" class="label" text-anchor="middle">2026-01-14</text>
  <text x="357.7931034482759" y="35.0" class="label" text-anchor="middle">52</text>
  <circle cx="362.7586206896552" cy="40.0" class="point"/>
  <text x="362.7586206896552" y="375" class="label" text-anchor="middle">2026-01-15</text>
  <text x="362.7586206896552" y="35.0" class="label" text-anchor="middle">52</text>
  <circle cx="367.7241379310345" cy="40.0" class="point"/>
  <text x="367.7241379310345" y="375" class="label" text-anchor="middle">2026-01-16</text>
  <text x="367.7241379310345" y="35.0" class="label" text-anchor="middle">52</text>
  <circle cx="372.6896551724138" cy="40.0" class="point"/>
  <text x="372.6896551724138" y="375" class="label" text-anchor="middle">2026-01-17</text>
  <text x="372.6896551724138" y="35.0" class="label" text-anchor="middle">52</text>
  <circle cx="377.6551724137931" cy="40.0" class="point"/>
  <text x="377.6551724137931" y="375" class="label" text-anchor="middle">2026-01-18</text>
  <text x="377.6551724137931" y="35.0" class="label" text-anchor="middle">52</text>
  <circle cx="382.62068965517244" cy="40.0" class="point"/>
  <text x="382.62068965517244" y="375" class="label" text-anchor="middle">2026-01-19</text>
  <text x="382.62068965517244" y="35.0" class="label" text-anchor="middle">52</text>
  <circle cx="387.58620689655174" cy="40.0" class="point"/>
  <text x="387.58620689655174" y="375" class="label" text-anchor="middle">2026-01-20</text>
  <text x="387.58620689655174" y="35.0" class="label" text-anchor="middle">52</text>
  <circle cx="392.55172413793105" cy="40.0" class="point"/>
  <text x="392.55172413793105" y="375" class="label" text-anchor="middle">2026-01-21</text>
  <text x="392.55172413793105" y="35.0" class="label" text-anchor="middle">52</text>
  <circle cx="397.51724137931035" cy="40.0" class="point"/>
  <text x="397.51724137931035" y="375" class="label" text-anchor="middle">2026-01-22</text>
  <text x="397.51724137931035" y="35.0" class="label" text-anchor="middle">52</text>
  <circle cx="402.48275862068965" cy="40.0" class="point"/>
  <text x="402.48275862068965" y="375" class="label" text-anchor="middle">2026-01-23</text>
  <text x="402.48275862068965" y="35.0" class="label" text-anchor="middle">52</text>
  <circle cx="407.44827586206895" cy="40.0" class="point"/>
  <text x="407.44827586206895" y="375" class="label" text-anchor="middle">2026-01-24</text>
  <text x="407.44827586206895" y="35.0" class="label" text-anchor="middle">52</text>
  <circle cx="412.4137931034483" cy="40.0" class="point"/>
  <text x="412.4137931034483" y="375" class="label" text-anchor="middle">2026-01-25</text>
  <text x="412.4137931034483" y="35.0" class="label" text-anchor="middle">52</text>
  <circle cx="417.3793103448276" cy="40.0" class="point"/>
  <text x="417.3793103448276" y="375" class="label" text-anchor="middle">2026-01-26</text>
  <text x="417.3793103448276" y="35.0" class="label" text-anchor="middle">52</text>
  <circle cx="422.34482758620686" cy="40.0" class="point"/>
  <text x="422.34482758620686" y="375" class="label" text-anchor="middle">2026-01-27</text>
  <text x="422.34482758620686" y="35.0" class="label" text-anchor="middle">52</text>
  <circle cx="427.31034482758616" cy="40.0" class="point"/>
  <text x="427.31034482758616" y="375" class="label" text-anchor="middle">2026-01-28</text>
  <text x="427.31034482758616" y="35.0" class="label" text-anchor="middle">52</text>
  <circle cx="432.2758620689655" cy="40.0" class="point"/>
  <text x="432.2758620689655" y="375" class="label" text-anchor="middle">2026-01-29</text>
  <text x="432.2758620689655" y="35.0" class="label" text-anchor="middle">52</text>
  <circle cx="437.2413793103448" cy="40.0" class="point"/>
  <text x="437.2413793103448" y="375" class="label" text-anchor="middle">2026-01-30</text>
  <text x="437.2413793103448" y="35.0" class="label" text-anchor="middle">52</text>
  <circle cx="442.2068965517241" cy="40.0" class="point"/>
  <text x="442.2068965517241" y="375" class="label" text-anchor="middle">2026-01-31</text>
  <text x="442.2068965517241" y="35.0" class="label" text-anchor="middle">52</text>
  <circle cx="447.1724137931035" cy="40.0" class="point"/>
  <text x="447.1724137931035" y="375" class="label" text-anchor="middle">2026-02-01</text>
  <text x="447.1724137931035" y="35.0" class="label" text-anchor="middle">52</text>
  <circle cx="452.1379310344828" cy="40.0" class="point"/>
  <text x="452.1379310344828" y="375" class="label" text-anchor="middle">2026-02-02</text>
  <text x="452.1379310344828" y="35.0" class="label" text-anchor="middle">52</text>
  <circle cx="457.1034482758621" cy="40.0" class="point"/>
  <text x="457.1034482758621" y="375" class="label" text-anchor="middle">2026-02-03</text>
  <text x="457.1034482758621" y="35.0" class="label" text-anchor="middle">52</text>
  <circle cx="462.06896551724134" cy="40.0" class="point"/>
  <text x="462.06896551724134" y="375" class="label" text-anchor="middle">2026-02-04</text>
  <text x="462.06896551724134" y="35.0" class="label" text-anchor="middle">52</text>
  <circle cx="467.03448275862064" cy="40.0" class="point"/>
  <text x="467.03448275862064" y="375" class="label" text-anchor="middle">2026-02-05</text>
  <text x="467.03448275862064" y="35.0" class="label" text-anchor="middle">52</text>
  <circle cx="472.0" cy="40.0" class="point"/>
  <text x="472.0" y="375" class="label" text-anchor="middle">2026-02-06</text>
  <text x="472.0" y="35.0" class="label" text-anchor="middle">52</text>
  <circle cx="476.9655172413793" cy="40.0" class="point"/>
  <text x="476.9655172413793" y="375" class="label" text-anchor="middle">2026-02-07</text>
  <text x="476.9655172413793" y="35.0" class="label" text-anchor="middle">52</text>
  <circle cx="481.9310344827586" cy="40.0" class="point"/>
  <text x="481.9310344827586" y="375" class="label" text-anchor="middle">2026-02-08</text>
  <text x="481.9310344827586" y="35.0" class="label" text-anchor="middle">52</text>
  <circle cx="486.89655172413796" cy="40.0" class="point"/>
  <text x="486.89655172413796" y="375" class="label" text-anchor="middle">2026-02-09</text>
  <text x="486.89655172413796" y="35.0" class="label" text-anchor="middle">52</text>
  <circle cx="491.86206896551727" cy="40.0" class="point"/>
  <text x="491.86206896551727" y="375" class="label" text-anchor="middle">2026-02-10</text>
  <text x="491.86206896551727" y="35.0" class="label" text-anchor="middle">52</text>
  <circle cx="496.82758620689657" cy="40.0" class="point"/>
  <text x="496.82758620689657" y="375" class="label" text-anchor="middle">2026-02-11</text>
  <text x="496.82758620689657" y="35.0" class="label" text-anchor="middle">52</text>
  <circle cx="501.7931034482758" cy="40.0" class="point"/>
  <text x="501.7931034482758" y="375" class="label" text-anchor="middle">2026-02-12</text>
  <text x="501.7931034482758" y="35.0" class="label" text-anchor="middle">52</text>
  <circle cx="506.7586206896551" cy="40.0" class="point"/>
  <text x="506.7586206896551" y="375" class="label" text-anchor="middle">2026-02-13</text>
  <text x="506.7586206896551" y="35.0" class="label" text-anchor="middle">52</text>
  <circle cx="511.7241379310345" cy="40.0" class="point"/>
  <text x="511.7241379310345" y="375" class="label" text-anchor="middle">2026-02-14</text>
  <text x="511.7241379310345" y="35.0" class="label" text-anchor="middle">52</text>
  <circle cx="516.6896551724137" cy="40.0" class="point"/>
  <text x="516.6896551724137" y="375" class="label" text-anchor="middle">2026-02-15</text>
  <text x="516.6896551724137" y="35.0" class="label" text-anchor="middle">52</text>
  <circle cx="521.655172413793" cy="40.0" class="point"/>
  <text x="521.655172413793" y="375" class="label" text-anchor="middle">2026-02-16</text>
  <text x="521.655172413793" y="35.0" class="label" text-anchor="middle">52</text>
  <circle cx="526.6206896551724" cy="40.0" class="point"/>
  <text x="526.6206896551724" y="375" class="label" text-anchor="middle">2026-02-17</text>
  <text x="526.6206896551724" y="35.0" class="label" text-anchor="middle">52</text>
  <circle cx="531.5862068965517" cy="40.0" class="point"/>
  <text x="531.5862068965517" y="375" class="label" text-anchor="middle">2026-02-18</text>
  <text x="531.5862068965517" y="35.0" class="label" text-anchor="middle">52</text>
  <circle cx="536.551724137931" cy="40.0" class="point"/>
  <text x="536.551724137931" y="375" class="label" text-anchor="middle">2026-02-19</text>
  <text x="536.551724137931" y="35.0" class="label" text-anchor="middle">52</text>
  <circle cx="541.5172413793102" cy="40.0" class="point"/>
  <text x="541.5172413793102" y="375" class="label" text-anchor="middle">2026-02-20</text>
  <text x="541.5172413793102" y="35.0" class="label" text-anchor="middle">52</text>
  <circle cx="546.4827586206897" cy="40.0" class="point"/>
  <text x="546.4827586206897" y="375" class="label" text-anchor="middle">2026-02-21</text>
  <text x="546.4827586206897" y="35.0" class="label" text-anchor="middle">52</text>
  <circle cx="551.448275862069" cy="40.0" class="point"/>
  <text x="551.448275862069" y="375" class="label" text-anchor="middle">2026-02-22</text>
  <text x="551.448275862069" y="35.0" class="label" text-anchor="middle">52</text>
  <circle cx="556.4137931034483" cy="40.0" class="point"/>
  <text x="556.4137931034483" y="375" class="label" text-anchor="middle">2026-02-23</text>
  <text x="556.4137931034483" y="35.0" class="label" text-anchor="middle">52</text>
  <circle cx="561.3793103448276" cy="40.0" class="point"/>
  <text x="561.3793103448276" y="375" class="label" text-anchor="middle">2026-02-24</text>
  <text x="561.3793103448276" y="35.0" class="label" text-anchor="middle">52</text>
  <circle cx="566.3448275862069" cy="40.0" class="point"/>
  <text x="566.3448275862069" y="375" class="label" text-anchor="middle">2026-02-25</text>
  <text x="566.3448275862069" y="35.0" class="label" text-anchor="middle">52</text>
  <circle cx="571.3103448275863" cy="40.0" class="point"/>
  <text x="571.3103448275863" y="375" class="label" text-anchor="middle">2026-02-26</text>
  <text x="571.3103448275863" y="35.0" class="label" text-anchor="middle">52</text>
  <circle cx="576.2758620689656" cy="40.0" class="point"/>
  <text x="576.2758620689656" y="375" class="label" text-anchor="middle">2026-02-27</text>
  <text x="576.2758620689656" y="35.0" class="label" text-anchor="middle">52</text>
  <circle cx="581.2413793103448" cy="40.0" class="point"/>
  <text x="581.2413793103448" y="375" class="label" text-anchor="middle">2026-02-28</text>
  <text x="581.2413793103448" y="35.0" class="label" text-anchor="middle">52</text>
  <circle cx="586.2068965517241" cy="40.0" class="point"/>
  <text x="586.2068965517241" y="375" class="label" text-anchor="middle">2026-03-01</text>
  <text x="586.2068965517241" y="35.0" class="label" text-anchor="middle">52</text>
  <circle cx="591.1724137931035" cy="40.0" class="point"/>
  <text x="591.1724137931035" y="375" class="label" text-anchor="middle">2026-03-02</text>
  <text x="591.1724137931035" y="35.0" class="label" text-anchor="middle">52</text>
  <circle cx="596.1379310344828" cy="40.0" class="point"/>
  <text x="596.1379310344828" y="375" class="label" text-anchor="middle">2026-03-03</text>
  <text x="596.1379310344828" y="35.0" class="label" text-anchor="middle">52</text>
  <circle cx="601.1034482758621" cy="40.0" class="point"/>
  <text x="601.1034482758621" y="375" class="label" text-anchor="middle">2026-03-04</text>
  <text x="601.1034482758621" y="35.0" class="label" text-anchor="middle">52</text>
  <circle cx="606.0689655172414" cy="40.0" class="point"/>
  <text x="606.0689655172414" y="375" class="label" text-anchor="middle">2026-03-05</text>
  <text x="606.0689655172414" y="35.0" class="label" text-anchor="middle">52</text>
  <circle cx="611.0344827586207" cy="40.0" class="point"/>
  <text x="611.0344827586207" y="375" class="label" text-anchor="middle">2026-03-06</text>
  <text x="611.0344827586207" y="35.0" class="label" text-anchor="middle">52</text>
  <circle cx="616.0" cy="40.0" class="point"/>
  <text x="616.0" y="375" class="label" text-anchor="middle">2026-03-07</text>
  <text x="616.0" y="35.0" class="label" text-anchor="middle">52</text>
  <circle cx="620.9655172413793" cy="40.0" class="point"/>
  <text x="620.9655172413793" y="375" class="label" text-anchor="middle">2026-03-08</text>
  <text x="620.9655172413793" y="35.0" class="label" text-anchor="middle">52</text>
  <circle cx="625.9310344827586" cy="40.0" class="point"/>
  <text x="625.9310344827586" y="375" class="label" text-anchor="middle">2026-03-09</text>
  <text x="625.9310344827586" y="35.0" class="label" text-anchor="middle">52</text>
  <circle cx="630.8965517241379" cy="40.0" class="point"/>
  <text x="630.8965517241379" y="375" class="label" text-anchor="middle">2026-03-10</text>
  <text x="630.8965517241379" y="35.0" class="label" text-anchor="middle">52</text>
  <circle cx="635.8620689655172" cy="40.0" class="point"/>
  <text x="635.8620689655172" y="375" class="label" text-anchor="middle">2026-03-11</text>
  <text x="635.8620689655172" y="35.0" class="label" text-anchor="middle">52</text>
  <circle cx="640.8275862068965" cy="40.0" class="point"/>
  <text x="640.8275862068965" y="375" class="label" text-anchor="middle">2026-03-12</text>
  <text x="640.8275862068965" y="35.0" class="label" text-anchor="middle">52</text>
  <circle cx="645.7931034482759" cy="40.0" class="point"/>
  <text x="645.7931034482759" y="375" class="label" text-anchor="middle">2026-03-13</text>
  <text x="645.7931034482759" y="35.0" class="label" text-anchor="middle">52</text>
  <circle cx="650.7586206896552" cy="40.0" class="point"/>
  <text x="650.7586206896552" y="375" class="label" text-anchor="middle">2026-03-14</text>
  <text x="650.7586206896552" y="35.0" class="label" text-anchor="middle">52</text>
  <circle cx="655.7241379310345" cy="40.0" class="point"/>
  <text x="655.7241379310345" y="375" class="label" text-anchor="middle">2026-03-15</text>
  <text x="655.7241379310345" y="35.0" class="label" text-anchor="middle">52</text>
  <circle cx="660.6896551724137" cy="40.0" class="point"/>
  <text x="660.6896551724137" y="375" class="label" text-anchor="middle">2026-03-16</text>
  <text x="660.6896551724137" y="35.0" class="label" text-anchor="middle">52</text>
  <circle cx="665.655172413793" cy="40.0" class="point"/>
  <text x="665.655172413793" y="375" class="label" text-anchor="middle">2026-03-17</text>
  <text x="665.655172413793" y="35.0" class="label" text-anchor="middle">52</text>
  <circle cx="670.6206896551724" cy="40.0" class="point"/>
  <text x="670.6206896551724" y="375" class="label" text-anchor="middle">2026-03-18</text>
  <text x="670.6206896551724" y="35.0" class="label" text-anchor="middle">52</text>
  <circle cx="675.5862068965517" cy="40.0" class="point"/>
  <text x="675.5862068965517" y="375" class="label" text-anchor="middle">2026-03-19</text>
  <text x="675.5862068965517" y="35.0" class="label" text-anchor="middle">52</text>
  <circle cx="680.551724137931" cy="40.0" class="point"/>
  <text x="680.551724137931" y="375" class="label" text-anchor="middle">2026-03-20</text>
  <text x="680.551724137931" y="35.0" class="label" text-anchor="middle">52</text>
  <circle cx="685.5172413793103" cy="40.0" class="point"/>
  <text x="685.5172413793103" y="375" class="label" text-anchor="middle">2026-03-21</text>
  <text x="685.5172413793103" y="35.0" class="label" text-anchor="middle">52</text>
  <circle cx="690.4827586206897" cy="40.0" class="point"/>
  <text x="690.4827586206897" y="375" class="label" text-anchor="middle">2026-03-22</text>
  <text x="690.4827586206897" y="35.0" class="label" text-anchor="middle">52</text>
  <circle cx="695.448275862069" cy="40.0" class="point"/>
  <text x="695.448275862069" y="375" class="label" text-anchor="middle">2026-03-23</text>
  <text x="695.448275862069" y="35.0" class="label" text-anchor="middle">52</text>
  <circle cx="700.4137931034483" cy="40.0" class="point"/>
  <text x="700.4137931034483" y="375" class="label" text-anchor="middle">2026-03-24</text>
  <text x="700.4137931034483" y="35.0" class="label" text-anchor="middle">52</text>
  <circle cx="705.3793103448276" cy="40.0" class="point"/>
  <text x="705.3793103448276" y="375" class="label" text-anchor="middle">2026-03-25</text>
  <text x="705.3793103448276" y="35.0" class="label" text-anchor="middle">52</text>
  <circle cx="710.3448275862069" cy="40.0" class="point"/>
  <text x="710.3448275862069" y="375" class="label" text-anchor="middle">2026-03-26</text>
  <text x="710.3448275862069" y="35.0" class="label" text-anchor="middle">52</text>
  <circle cx="715.3103448275862" cy="40.0" class="point"/>
  <text x="715.3103448275862" y="375" class="label" text-anchor="middle">2026-03-27</text>
  <text x="715.3103448275862" y="35.0" class="label" text-anchor="middle">52</text>
  <circle cx="720.2758620689655" cy="40.0" class="point"/>
  <text x="720.2758620689655" y="375" class="label" text-anchor="middle">2026-03-28</text>
  <text x="720.2758620689655" y="35.0" class="label" text-anchor="middle">52</text>
  <circle cx="725.2413793103449" cy="40.0" class="point"/>
  <text x="725.2413793103449" y="375" class="label" text-anchor="middle">2026-03-29</text>
  <text x="725.2413793103449" y="35.0" class="label" text-anchor="middle">52</text>
  <circle cx="730.2068965517242" cy="40.0" class="point"/>
  <text x="730.2068965517242" y="375" class="label" text-anchor="middle">2026-03-30</text>
  <text x="730.2068965517242" y="35.0" class="label" text-anchor="middle">52</text>
  <circle cx="735.1724137931035" cy="40.0" class="point"/>
  <text x="735.1724137931035" y="375" class="label" text-anchor="middle">2026-03-31</text>
  <text x="735.1724137931035" y="35.0" class="label" text-anchor="middle">52</text>
  <circle cx="740.1379310344827" cy="40.0" class="point"/>
  <text x="740.1379310344827" y="375" class="label" text-anchor="middle">2026-04-01</text>
  <text x="740.1379310344827" y="35.0" class="label" text-anchor="middle">52</text>
  <circle cx="745.1034482758621" cy="40.0" class="point"/>
  <text x="745.1034482758621" y="375" class="label" text-anchor="middle">2026-04-02</text>
  <text x="745.1034482758621" y="35.0" class="label" text-anchor="middle">52</text>
  <circle cx="750.0689655172414" cy="40.0" class="point"/>
  <text x="750.0689655172414" y="375" class="label" text-anchor="middle">2026-04-03</text>
  <text x="750.0689655172414" y="35.0" class="label" text-anchor="middle">52</text>
  <circle cx="755.0344827586207" cy="40.0" class="point"/>
  <text x="755.0344827586207" y="375" class="label" text-anchor="middle">2026-04-04</text>
  <text x="755.0344827586207" y="35.0" class="label" text-anchor="middle">52</text>
  <circle cx="760.0" cy="40.0" class="point"/>
  <text x="760.0" y="375" class="label" text-anchor="middle">2026-04-05</text>
  <text x="760.0" y="35.0" class="label" text-anchor="middle">52</text>
  <text x="30" y="363.0" class="label" text-anchor="end">0</text>
  <text x="30" y="301.46153846153845" class="label" text-anchor="end">10</text>
  <text x="30" y="239.9230769230769" class="label" text-anchor="end">20</text>
  <text x="30" y="178.38461538461542" class="label" text-anchor="end">30</text>
  <text x="30" y="116.84615384615384" class="label" text-anchor="end">40</text>
  <text x="30" y="55.30769230769232" class="label" text-anchor="end">50</text>
</svg>