<svg xmlns="http://www.w3.org/2000/svg" width="800" height="400" viewBox="0 0 800 400">
  <style>
    .axis{stroke:#666;stroke-width:1}
    .line{stroke:#4a9;stroke-width:2;fill:none}
    .point{fill:#4a9;r:4}
    .label{font:10px sans-serif;fill:#aaa}
    .title{font:14px sans-serif;fill:#333}
  </style>
  <text x="400" y="20" class="title" text-anchor="middle">OPIC Field Growth Timeline</text>
  <line x1="40" y1="40" x2="40" y2="360" class="axis"/>
  <line x1="40" y1="360" x2="760" y2="360" class="axis"/>
  <path d="M 40.0,101.53846153846155 L 46.99029126213592,101.53846153846155 L 53.980582524271846,101.53846153846155 L 60.970873786407765,101.53846153846155 L 67.96116504854369,101.53846153846155 L 74.95145631067962,101.53846153846155 L 81.94174757281553,101.53846153846155 L 88.93203883495146,101.53846153846155 L 95.92233009708738,101.53846153846155 L 102.9126213592233,101.53846153846155 L 109.90291262135922,101.53846153846155 L 116.89320388349515,101.53846153846155 L 123.88349514563107,101.53846153846155 L 130.873786407767,101.53846153846155 L 137.8640776699029,101.53846153846155 L 144.85436893203882,101.53846153846155 L 151.84466019417476,101.53846153846155 L 158.8349514563107,101.53846153846155 L 165.8252427184466,101.53846153846155 L 172.81553398058253,101.53846153846155 L 179.80582524271844,101.53846153846155 L 186.79611650485435,101.53846153846155 L 193.7864077669903,101.53846153846155 L 200.77669902912623,101.53846153846155 L 207.76699029126215,101.53846153846155 L 214.75728155339806,101.53846153846155 L 221.74757281553397,101.53846153846155 L 228.7378640776699,40.0 L 235.72815533980582,40.0 L 242.71844660194174,40.0 L 249.70873786407765,40.0 L 256.6990291262136,40.0 L 263.68932038834953,40.0 L 270.6796116504854,40.0 L 277.6699029126214,40.0 L 284.6601941747573,40.0 L 291.6504854368932,40.0 L 298.6407766990291,40.0 L 305.63106796116506,40.0 L 312.62135922330094,40.0 L 319.6116504854369,40.0 L 326.6019417475728,40.0 L 333.5922330097087,40.0 L 340.58252427184465,40.0 L 347.5728155339806,40.0 L 354.5631067961165,40.0 L 361.55339805825247,40.0 L 368.54368932038835,40.0 L 375.5339805825243,40.0 L 382.5242718446602,40.0 L 389.5145631067961,40.0 L 396.50485436893206,40.0 L 403.49514563106794,40.0 L 410.4854368932039,40.0 L 417.4757281553398,40.0 L 424.4660194174757,40.0 L 431.45631067961165,40.0 L 438.44660194174753,40.0 L 445.43689320388347,40.0 L 452.4271844660194,40.0 L 459.4174757281553,40.0 L 466.40776699029124,40.0 L 473.3980582524272,40.0 L 480.38834951456306,40.0 L 487.378640776699,40.0 L 494.368932038835,40.0 L 501.3592233009709,40.0 L 508.3495145631068,40.0 L 515.3398058252428,40.0 L 522.3300970873786,40.0 L 529.3203883495146,40.0 L 536.3106796116506,40.0 L 543.3009708737864,40.0 L 550.2912621359224,40.0 L 557.2815533980582,40.0 L 564.2718446601942,40.0 L 571.2621359223301,40.0 L 578.252427184466,40.0 L 585.2427184466019,40.0 L 592.2330097087379,40.0 L 599.2233009708738,40.0 L 606.2135922330096,40.0 L 613.2038834951456,40.0 L 620.1941747572815,40.0 L 627.1844660194174,40.0 L 634.1747572815534,40.0 L 641.1650485436893,40.0 L 648.1553398058252,40.0 L 655.1456310679612,40.0 L 662.1359223300971,40.0 L 669.126213592233,40.0 L 676.1165048543689,40.0 L 683.1067961165049,40.0 L 690.0970873786408,40.0 L 697.0873786407767,40.0 L 704.0776699029127,40.0 L 711.0679611650486,40.0 L 718.0582524271845,40.0 L 725.0485436893204,40.0 L 732.0388349514564,40.0 L 739.0291262135922,40.0 L 746.0194174757281,40.0 L 753.0097087378641,40.0 L 760.0,40.0" class="line"/>
  <circle cx="40.0" cy="101.53846153846155" class="point"/>
  <text x="40.0" y="375" class="label" text-anchor="middle">2025-11-11</text>
  <text x="40.0" y="96.53846153846155" class="label" text-anchor="middle">42</text>
  <circle cx="46.99029126213592" cy="101.53846153846155" class="point"/>
  <text x="46.99029126213592" y="375" class="label" text-anchor="middle">2025-11-12</text>
  <text x="46.99029126213592" y="96.53846153846155" class="label" text-anchor="middle">42</text>
  <circle cx="53.980582524271846" cy="101.53846153846155" class="point"/>
  <text x="53.980582524271846" y="375" class="label" text-anchor="middle">2025-11-13</text>
  <text x="53.980582524271846" y="96.53846153846155" class="label" text-anchor="middle">42</text>
  <circle cx="60.970873786407765" cy="101.53846153846155" class="point"/>
  <text x="60.970873786407765" y="375" class="label" text-anchor="middle">2025-11-14</text>
  <text x="60.970873786407765" y="96.53846153846155" class="label" text-anchor="middle">42</text>
  <circle cx="67.96116504854369" cy="101.53846153846155" class="point"/>
  <text x="67.96116504854369" y="375" class="label" text-anchor="middle">2025-11-15</text>
  <text x="67.96116504854369" y="96.53846153846155" class="label" text-anchor="middle">42</text>
  <circle cx="74.95145631067962" cy="101.53846153846155" class="point"/>
  <text x="74.95145631067962" y="375" class="label" text-anchor="middle">2025-11-16</text>
  <text x="74.95145631067962" y="96.53846153846155" class="label" text-anchor="middle">42</text>
  <circle cx="81.94174757281553" cy="101.53846153846155" class="point"/>
  <text x="81.94174757281553" y="375" class="label" text-anchor="middle">2025-11-17</text>
  <text x="81.94174757281553" y="96.53846153846155" class="label" text-anchor="middle">42</text>
  <circle cx="88.93203883495146" cy="101.53846153846155" class="point"/>
  <text x="88.93203883495146" y="375" class="label" text-anchor="middle">2025-11-18</text>
  <text x="88.93203883495146" y="96.53846153846155" class="label" text-anchor="middle">42</text>
  <circle cx="95.92233009708738" cy="101.53846153846155" class="point"/>
  <text x="95.92233009708738" y="375" class="label" text-anchor="middle">2025-11-19</text>
  <text x="95.92233009708738" y="96.53846153846155" class="label" text-anchor="middle">42</text>
  <circle cx="102.9126213592233" cy="101.53846153846155" class="point"/>
  <text x="102.9126213592233" y="375" class="label" text-anchor="middle">2025-11-20</text>
  <text x="102.9126213592233" y="96.53846153846155" class="label" text-anchor="middle">42</text>
  <circle cx="109.90291262135922" cy="101.53846153846155" class="point"/>
  <text x="109.90291262135922" y="375" class="label" text-anchor="middle">2025-11-21</text>
  <text x="109.90291262135922" y="96.53846153846155" class="label" text-anchor="middle">42</text>
  <circle cx="116.89320388349515" cy="101.53846153846155" class="point"/>
  <text x="116.89320388349515" y="375" class="label" text-anchor="middle">2025-11-22</text>
  <text x="116.89320388349515" y="96.53846153846155" class="label" text-anchor="middle">42</text>
  <circle cx="123.88349514563107" cy="101.53846153846155" class="point"/>
  <text x="123.88349514563107" y="375" class="label" text-anchor="middle">2025-11-23</text>
  <text x="123.88349514563107" y="96.53846153846155" class="label" text-anchor="middle">42</text>
  <circle cx="130.873786407767" cy="101.53846153846155" class="point"/>
  <text x="130.873786407767" y="375" class="label" text-anchor="middle">2025-11-24</text>
  <text x="130.873786407767" y="96.53846153846155" class="label" text-anchor="middle">42</text>
  <circle cx="137.8640776699029" cy="101.53846153846155" class="point"/>
  <text x="137.8640776699029" y="375" class="label" text-anchor="middle">2025-11-25</text>
  <text x="137.8640776699029" y="96.53846153846155" class="label" text-anchor="middle">42</text>
  <circle cx="144.85436893203882" cy="101.53846153846155" class="point"/>
  <text x="144.85436893203882" y="375" class="label" text-anchor="middle">2025-11-26</text>
  <text x="144.85436893203882" y="96.53846153846155" class="label" text-anchor="middle">42</text>
  <circle cx="151.84466019417476" cy="101.53846153846155" class="point"/>
  <text x="151.84466019417476" y="375" class="label" text-anchor="middle">2025-11-27</text>
  <text x="151.84466019417476" y="96.53846153846155" class="label" text-anchor="middle">42</text>
  <circle cx="158.8349514563107" cy="101.53846153846155" class="point"/>
  <text x="158.8349514563107" y="375" class="label" text-anchor="middle">2025-11-28</text>
  <text x="158.8349514563107" y="96.53846153846155" class="label" text-anchor="middle">42</text>
  <circle cx="165.8252427184466" cy="101.53846153846155" class="point"/>
  <text x="165.8252427184466" y="375" class="label" text-anchor="middle">2025-11-29</text>
  <text x="165.8252427184466" y="96.53846153846155" class="label" text-anchor="middle">42</text>
  <circle cx="172.81553398058253" cy="101.53846153846155" class="point"/>
  <text x="172.81553398058253" y="375" class="label" text-anchor="middle">2025-11-30</text>
  <text x="172.81553398058253" y="96.53846153846155" class="label" text-anchor="middle">42</text>
  <circle cx="179.80582524271844" cy="101.53846153846155" class="point"/>
  <text x="179.80582524271844" y="375" class="label" text-anchor="middle">2025-12-01</text>
  <text x="179.80582524271844" y="96.53846153846155" class="label" text-anchor="middle">42</text>
  <circle cx="186.79611650485435" cy="101.53846153846155" class="point"/>
  <text x="186.79611650485435" y="375" class="label" text-anchor="middle">2025-12-02</text>
  <text x="186.79611650485435" y="96.53846153846155" class="label" text-anchor="middle">42</text>
  <circle cx="193.7864077669903" cy="101.53846153846155" class="point"/>
  <text x="193.7864077669903" y="375" class="label" text-anchor="middle">2025-12-03</text>
  <text x="193.7864077669903" y="96.53846153846155" class="label" text-anchor="middle">42</text>
  <circle cx="200.77669902912623" cy="101.53846153846155" class="point"/>
  <text x="200.77669902912623" y="375" class="label" text-anchor="middle">2025-12-04</text>
  <text x="200.77669902912623" y="96.53846153846155" class="label" text-anchor="middle">42</text>
  <circle cx="207.76699029126215" cy="101.53846153846155" class="point"/>
  <text x="207.76699029126215" y="375" class="label" text-anchor="middle">2025-12-05</text>
  <text x="207.76699029126215" y="96.53846153846155" class="label" text-anchor="middle">42</text>
  <circle cx="214.75728155339806" cy="101.53846153846155" class="point"/>
  <text x="214.75728155339806" y="375" class="label" text-anchor="middle">2025-12-06</text>
  <text x="214.75728155339806" y="96.53846153846155" class="label" text-anchor="middle">42</text>
  <circle cx="221.74757281553397" cy="101.53846153846155" class="point"/>
  <text x="221.74757281553397" y="375" class="label" text-anchor="middle">2025-12-07</text>
  <text x="221.74757281553397" y="96.53846153846155" class="label" text-anchor="middle">42</text>
  <circle cx="228.7378640776699" cy="40.0" class="point"/>
  <text x="228.7378640776699" y="375" class="label" text-anchor="middle">2025-12-08</text>
  <text x="228.7378640776699" y="35.0" class="label" text-anchor="middle">52</text>
  <circle cx="235.72815533980582" cy="40.0" class="point"/>
  <text x="235.72815533980582" y="375" class="label" text-anchor="middle">2025-12-09</text>
  <text x="235.72815533980582" y="35.0" class="label" text-anchor="middle">52</text>
  <circle cx="242.71844660194174" cy="40.0" class="point"/>
  <text x="242.71844660194174" y="375" class="label" text-anchor="middle">2025-12-10</text>
  <text x="242.71844660194174" y="35.0" class="label" text-anchor="middle">52</text>
  <circle cx="249.70873786407765" cy="40.0" class="point"/>
  <text x="249.70873786407765" y="375" class="label" text-anchor="middle">2025-12-11</text>
  <text x="249.70873786407765" y="35.0" class="label" text-anchor="middle">52</text>
  <circle cx="256.6990291262136" cy="40.0" class="point"/>
  <text x="256.6990291262136" y="375" class="label" text-anchor="middle">2025-12-12</text>
  <text x="256.6990291262136" y="35.0" class="label" text-anchor="middle">52</text>
  <circle cx="263.68932038834953" cy="40.0" class="point"/>
  <text x="263.68932038834953" y="375" class="label" text-anchor="middle">2025-12-13</text>
  <text x="263.68932038834953" y="35.0" class="label" text-anchor="middle">52</text>
  <circle cx="270.6796116504854" cy="40.0" class="point"/>
  <text x="270.6796116504854" y="375" class="label" text-anchor="middle">2025-12-14</text>
  <text x="270.6796116504854" y="35.0" class="label" text-anchor="middle">52</text>
  <circle cx="277.6699029126214" cy="40.0" class="point"/>
  <text x="277.6699029126214" y="375" class="label" text-anchor="middle">2025-12-15</text>
  <text x="277.6699029126214" y="35.0" class="label" text-anchor="middle">52</text>
  <circle cx="284.6601941747573" cy="40.0" class="point"/>
  <text x="284.6601941747573" y="375" class="label" text-anchor="middle">2025-12-16</text>
  <text x="284.6601941747573" y="35.0" class="label" text-anchor="middle">52</text>
  <circle cx="291.6504854368932" cy="40.0" class="point"/>
  <text x="291.6504854368932" y="375" class="label" text-anchor="middle">2025-12-17</text>
  <text x="291.6504854368932" y="35.0" class="label" text-anchor="middle">52</text>
  <circle cx="298.6407766990291" cy="40.0" class="point"/>
  <text x="298.6407766990291" y="375" class="label" text-anchor="middle">2025-12-18</text>
  <text x="298.6407766990291" y="35.0" class="label" text-anchor="middle">52</text>
  <circle cx="305.63106796116506" cy="40.0" class="point"/>
  <text x="305.63106796116506" y="375" class="label" text-anchor="middle">2025-12-19</text>
  <text x="305.63106796116506" y="35.0" class="label" text-anchor="middle">52</text>
  <circle cx="312.62135922330094" cy="40.0" class="point"/>
  <text x="312.62135922330094" y="375" class="label" text-anchor="middle">2025-12-20</text>
  <text x="312.62135922330094" y="35.0" class="label" text-anchor="middle">52</text>
  <circle cx="319.6116504854369" cy="40.0" class="point"/>
  <text x="319.6116504854369" y="375" class="label" text-anchor="middle">2025-12-21</text>
  <text x="319.6116504854369" y="35.0" class="label" text-anchor="middle">52</text>
  <circle cx="326.6019417475728" cy="40.0" class="point"/>
  <text x="326.6019417475728" y="375" class="label" text-anchor="middle">2025-12-22</text>
  <text x="326.6019417475728" y="35.0" class="label" text-anchor="middle">52</text>
  <circle cx="333.5922330097087" cy="40.0" class="point"/>
  <text x="333.5922330097087" y="375" class="label" text-anchor="middle">2025-12-23</text>
  <text x="333.5922330097087" y="35.0" class="label" text-anchor="middle">52</text>
  <circle cx="340.58252427184465" cy="40.0" class="point"/>
  <text x="340.58252427184465" y="375" class="label" text-anchor="middle">2025-12-24</text>
  <text x="340.58252427184465" y="35.0" class="label" text-anchor="middle">52</text>
  <circle cx="347.5728155339806" cy="40.0" class="point"/>
  <text x="347.5728155339806" y="375" class="label" text-anchor="middle">2025-12-25</text>
  <text x="347.5728155339806" y="35.0" class="label" text-anchor="middle">52</text>
  <circle cx="354.5631067961165" cy="40.0" class="point"/>
  <text x="354.5631067961165" y="375" class="label" text-anchor="middle">2025-12-26</text>
  <text x="354.5631067961165" y="35.0" class="label" text-anchor="middle">52</text>
  <circle cx="361.55339805825247" cy="40.0" class="point"/>
  <text x="361.55339805825247" y="375" class="label" text-anchor="middle">2025-12-27</text>
  <text x="361.55339805825247" y="35.0" class="label" text-anchor="middle">52</text>
  <circle cx="368.54368932038835" cy="40.0" class="point"/>
  <text x="368.54368932038835" y="375" class="label" text-anchor="middle">2025-12-28</text>
  <text x="368.54368932038835" y="35.0" class="label" text-anchor="middle">52</text>
  <circle cx="375.5339805825243" cy="40.0" class="point"/>
  <text x="375.5339805825243" y="375" class="label" text-anchor="middle">2025-12-29</text>
  <text x="375.5339805825243" y="35.0" class="label" text-anchor="middle">52</text>
  <circle cx="382.5242718446602" cy="40.0" class="point"/>
  <text x="382.5242718446602" y="375" class="label" text-anchor="middle">2025-12-30</text>
  <text x="382.5242718446602" y="35.0" class="label" text-anchor="middle">52</text>
  <circle cx="389.5145631067961" cy="40.0" class="point"/>
  <text x="389.5145631067961" y="375" class="label" text-anchor="middle">2025-12-31</text>
  <text x="389.5145631067961" y="35.0" class="label" text-anchor="middle">52</text>
  <circle cx="396.50485436893206" cy="40.0" class="point"/>
  <text x="396.50485436893206" y="375" class="label" text-anchor="middle">2026-01-01</text>
  <text x="396.50485436893206" y="35.0" class="label" text-anchor="middle">52</text>
  <circle cx="403.49514563106794" cy="40.0" class="point"/>
  <text x="403.49514563106794" y="375" class="label" text-anchor="middle">2026-01-02</text>
  <text x="403.49514563106794" y="35.0" class="label" text-anchor="middle">52</text>
  <circle cx="410.4854368932039" cy="40.0" class="point"/>
  <text x="410.4854368932039" y="375" class="label" text-anchor="middle">2026-01-03</text>
  <text x="410.4854368932039" y="35.0" class="label" text-anchor="middle">52</text>
  <circle cx="417.4757281553398" cy="40.0" class="point"/>
  <text x="417.4757281553398" y="375" class="label" text-anchor="middle">2026-01-04</text>
  <text x="417.4757281553398" y="35.0" class="label" text-anchor="middle">52</text>
  <circle cx="424.4660194174757" cy="40.0" class="point"/>
  <text x="424.4660194174757" y="375" class="label" text-anchor="middle">2026-01-05</text>
  <text x="424.4660194174757" y="35.0" class="label" text-anchor="middle">52</text>
  <circle cx="431.45631067961165" cy="40.0" class="point"/>
  <text x="431.45631067961165" y="375" class="label" text-anchor="middle">2026-01-06</text>
  <text x="431.45631067961165" y="35.0" class="label" text-anchor="middle">52</text>
  <circle cx="438.44660194174753" cy="40.0" class="point"/>
  <text x="438.44660194174753" y="375" class="label" text-anchor="middle">2026-01-07</text>
  <text x="438.44660194174753" y="35.0" class="label" text-anchor="middle">52</text>
  <circle cx="445.43689320388347" cy="40.0" class="point"/>
  <text x="445.43689320388347" y="375" class="label" text-anchor="middle">2026-01-08</text>
  <text x="445.43689320388347" y="35.0" class="label" text-anchor="middle">52</text>
  <circle cx="452.4271844660194" cy="40.0" class="point"/>
  <text x="452.4271844660194" y="375" class="label" text-anchor="middle">2026-01-09</text>
  <text x="452.4271844660194" y="35.0" class="label" text-anchor="middle">52</text>
  <circle cx="459.4174757281553" cy="40.0" class="point"/>
  <text x="459.4174757281553" y="375" class="label" text-anchor="middle">2026-01-10</text>
  <text x="459.4174757281553" y="35.0" class="label" text-anchor="middle">52</text>
  <circle cx="466.40776699029124" cy="40.0" class="point"/>
  <text x="466.40776699029124" y="375" class="label" text-anchor="middle">2026-01-11</text>
  <text x="466.40776699029124" y="35.0" class="label" text-anchor="middle">52</text>
  <circle cx="473.3980582524272" cy="40.0" class="point"/>
  <text x="473.3980582524272" y="375" class="label" text-anchor="middle">2026-01-12</text>
  <text x="473.3980582524272" y="35.0" class="label" text-anchor="middle">52</text>
  <circle cx="480.38834951456306" cy="40.0" class="point"/>
  <text x="480.38834951456306" y="375" class="label" text-anchor="middle">2026-01-13</text>
  <text x="480.38834951456306" y="35.0" class="label" text-anchor="middle">52</text>
  <circle cx="487.378640776699" cy="40.0" class="point"/>
  <text x="487.378640776699" y="375" class="label" text-anchor="middle">2026-01-14</text>
  <text x="487.378640776699" y="35.0" class="label" text-anchor="middle">52</text>
  <circle cx="494.368932038835" cy="40.0" class="point"/>
  <text x="494.368932038835" y="375" class="label" text-anchor="middle">2026-01-15</text>
  <text x="494.368932038835" y="35.0" class="label" text-anchor="middle">52</text>
  <circle cx="501.3592233009709" cy="40.0" class="point"/>
  <text x="501.3592233009709" y="375" class="label" text-anchor="middle">2026-01-16</text>
  <text x="501.3592233009709" y="35.0" class="label" text-anchor="middle">52</text>
  <circle cx="508.3495145631068" cy="40.0" class="point"/>
  <text x="508.3495145631068" y="375" class="label" text-anchor="middle">2026-01-17</text>
  <text x="508.3495145631068" y="35.0" class="label" text-anchor="middle">52</text>
  <circle cx="515.3398058252428" cy="40.0" class="point"/>
  <text x="515.3398058252428" y="375" class="label" text-anchor="middle">2026-01-18</text>
  <text x="515.3398058252428" y="35.0" class="label" text-anchor="middle">52</text>
  <circle cx="522.3300970873786" cy="40.0" class="point"/>
  <text x="522.3300970873786" y="375" class="label" text-anchor="middle">2026-01-19</text>
  <text x="522.3300970873786" y="35.0" class="label" text-anchor="middle">52</text>
  <circle cx="529.3203883495146" cy="40.0" class="point"/>
  <text x="529.3203883495146" y="375" class="label" text-anchor="middle">2026-01-20</text>
  <text x="529.3203883495146" y="35.0" class="label" text-anchor="middle">52</text>
  <circle cx="536.3106796116506" cy="40.0" class="point"/>
  <text x="536.3106796116506" y="375" class="label" text-anchor="middle">2026-01-21</text>
  <text x="536.3106796116506" y="35.0" class="label" text-anchor="middle">52</text>
  <circle cx="543.3009708737864" cy="40.0" class="point"/>
  <text x="543.3009708737864" y="375" class="label" text-anchor="middle">2026-01-22</text>
  <text x="543.3009708737864" y="35.0" class="label" text-anchor="middle">52</text>
  <circle cx="550.2912621359224" cy="40.0" class="point"/>
  <text x="550.2912621359224" y="375" class="label" text-anchor="middle">2026-01-23</text>
  <text x="550.2912621359224" y="35.0" class="label" text-anchor="middle">52</text>
  <circle cx="557.2815533980582" cy="40.0" class="point"/>
  <text x="557.2815533980582" y="375" class="label" text-anchor="middle">2026-01-24</text>
  <text x="557.2815533980582" y="35.0" class="label" text-anchor="middle">52</text>
  <circle cx="564.2718446601942" cy="40.0" class="point"/>
  <text x="564.2718446601942" y="375" class="label" text-anchor="middle">2026-01-25</text>
  <text x="564.2718446601942" y="35.0" class="label" text-anchor="middle">52</text>
  <circle cx="571.2621359223301" cy="40.0" class="point"/>
  <text x="571.2621359223301" y="375" class="label" text-anchor="middle">2026-01-26</text>
  <text x="571.2621359223301" y="35.0" class="label" text-anchor="middle">52</text>
  <circle cx="578.252427184466" cy="40.0" class="point"/>
  <text x="578.252427184466" y="375" class="label" text-anchor="middle">2026-01-27</text>
  <text x="578.252427184466" y="35.0" class="label" text-anchor="middle">52</text>
  <circle cx="585.2427184466019" cy="40.0" class="point"/>
  <text x="585.2427184466019" y="375" class="label" text-anchor="middle">2026-01-28</text>
  <text x="585.2427184466019" y="35.0" class="label" text-anchor="middle">52</text>
  <circle cx="592.2330097087379" cy="40.0" class="point"/>
  <text x="592.2330097087379" y="375" class="label" text-anchor="middle">2026-01-29</text>
  <text x="592.2330097087379" y="35.0" class="label" text-anchor="middle">52</text>
  <circle cx="599.2233009708738" cy="40.0" class="point"/>
  <text x="599.2233009708738" y="375" class="label" text-anchor="middle">2026-01-30</text>
  <text x="599.2233009708738" y="35.0" class="label" text-anchor="middle">52</text>
  <circle cx="606.2135922330096" cy="40.0" class="point"/>
  <text x="606.2135922330096" y="375" class="label" text-anchor="middle">2026-01-31</text>
  <text x="606.2135922330096" y="35.0" class="label" text-anchor="middle">52</text>
  <circle cx="613.2038834951456" cy="40.0" class="point"/>
  <text x="613.2038834951456" y="375" class="label" text-anchor="middle">2026-02-01</text>
  <text x="613.2038834951456" y="35.0" class="label" text-anchor="middle">52</text>
  <circle cx="620.1941747572815" cy="40.0" class="point"/>
  <text x="620.1941747572815" y="375" class="label" text-anchor="middle">2026-02-02</text>
  <text x="620.1941747572815" y="35.0" class="label" text-anchor="middle">52</text>
  <circle cx="627.1844660194174" cy="40.0" class="point"/>
  <text x="627.1844660194174" y="375" class="label" text-anchor="middle">2026-02-03</text>
  <text x="627.1844660194174" y="35.0" class="label" text-anchor="middle">52</text>
  <circle cx="634.1747572815534" cy="40.0" class="point"/>
  <text x="634.1747572815534" y="375" class="label" text-anchor="middle">2026-02-04</text>
  <text x="634.1747572815534" y="35.0" class="label" text-anchor="middle">52</text>
  <circle cx="641.1650485436893" cy="40.0" class="point"/>
  <text x="641.1650485436893" y="375" class="label" text-anchor="middle">2026-02-05</text>
  <text x="641.1650485436893" y="35.0" class="label" text-anchor="middle">52</text>
  <circle cx="648.1553398058252" cy="40.0" class="point"/>
  <text x="648.1553398058252" y="375" class="label" text-anchor="middle">2026-02-06</text>
  <text x="648.1553398058252" y="35.0" class="label" text-anchor="middle">52</text>
  <circle cx="655.1456310679612" cy="40.0" class="point"/>
  <text x="655.1456310679612" y="375" class="label" text-anchor="middle">2026-02-07</text>
  <text x="655.1456310679612" y="35.0" class="label" text-anchor="middle">52</text>
  <circle cx="662.1359223300971" cy="40.0" class="point"/>
  <text x="662.1359223300971" y="375" class="label" text-anchor="middle">2026-02-08</text>
  <text x="662.1359223300971" y="35.0" class="label" text-anchor="middle">52</text>
  <circle cx="669.126213592233" cy="40.0" class="point"/>
  <text x="669.126213592233" y="375" class="label" text-anchor="middle">2026-02-09</text>
  <text x="669.126213592233" y="35.0" class="label" text-anchor="middle">52</text>
  <circle cx="676.1165048543689" cy="40.0" class="point"/>
  <text x="676.1165048543689" y="375" class="label" text-anchor="middle">2026-02-10</text>
  <text x="676.1165048543689" y="35.0" class="label" text-anchor="middle">52</text>
  <circle cx="683.1067961165049" cy="40.0" class="point"/>
  <text x="683.1067961165049" y="375" class="label" text-anchor="middle">2026-02-11</text>
  <text x="683.1067961165049" y="35.0" class="label" text-anchor="middle">52</text>
  <circle cx="690.0970873786408" cy="40.0" class="point"/>
  <text x="690.0970873786408" y="375" class="label" text-anchor="middle">2026-02-12</text>
  <text x="690.0970873786408" y="35.0" class="label" text-anchor="middle">52</text>
  <circle cx="697.0873786407767" cy="40.0" class="point"/>
  <text x="697.0873786407767" y="375" class="label" text-anchor="middle">2026-02-13</text>
  <text x="697.0873786407767" y="35.0" class="label" text-anchor="middle">52</text>
  <circle cx="704.0776699029127" cy="40.0" class="point"/>
  <text x="704.0776699029127" y="375" class="label" text-anchor="middle">2026-02-14</text>
  <text x="704.0776699029127" y="35.0" class="label" text-anchor="middle">52</text>
  <circle cx="711.0679611650486" cy="40.0" class="point"/>
  <text x="711.0679611650486" y="375" class="label" text-anchor="middle">2026-02-15</text>
  <text x="711.0679611650486" y="35.0" class="label" text-anchor="middle">52</text>
  <circle cx="718.0582524271845" cy="40.0" class="point"/>
  <text x="718.0582524271845" y="375" class="label" text-anchor="middle">2026-02-16</text>
  <text x="718.0582524271845" y="35.0" class="label" text-anchor="middle">52</text>
  <circle cx="725.0485436893204" cy="40.0" class="point"/>
  <text x="725.0485436893204" y="375" class="label" text-anchor="middle">2026-02-17</text>
  <text x="725.0485436893204" y="35.0" class="label" text-anchor="middle">52</text>
  <circle cx="732.0388349514564" cy="40.0" class="point"/>
  <text x="732.0388349514564" y="375" class="label" text-anchor="middle">2026-02-18</text>
  <text x="732.0388349514564" y="35.0" class="label" text-anchor="middle">52</text>
  <circle cx="739.0291262135922" cy="40.0" class="point"/>
  <text x="739.0291262135922" y="375" class="label" text-anchor="middle">2026-02-19</text>
  <text x="739.0291262135922" y="35.0" class="label" text-anchor="middle">52</text>
  <circle cx="746.0194174757281" cy="40.0" class="point"/>
  <text x="746.0194174757281" y="375" class="label" text-anchor="middle">2026-02-20</text>
  <text x="746.0194174757281" y="35.0" class="label" text-anchor="middle">52</text>
  <circle cx="753.0097087378641" cy="40.0" class="point"/>
  <text x="753.0097087378641" y="375" class="label" text-anchor="middle">2026-02-21</text>
  <text x="753.0097087378641" y="35.0" class="label" text-anchor="middle">52</text>
  <circle cx="760.0" cy="40.0" class="point"/>
  <text x="760.0" y="375" class="label" text-anchor="middle">2026-02-22</text>
  <text x="760.0" y="35.0" class="label" text-anchor="middle">52</text>
  <text x="30" y="363.0" class="label" text-anchor="end">0</text>
  <text x="30" y="301.46153846153845" class="label" text-anchor="end">10</text>
  <text x="30" y="239.9230769230769" class="label" text-anchor="end">20</text>
  <text x="30" y="178.38461538461542" class="label" text-anchor="end">30</text>
  <text x="30" y="116.84615384615384" class="label" text-anchor="end">40</text>
  <text x="30" y="55.30769230769232" class="label" text-anchor="end">50</text>
</svg>