<svg xmlns="http://www.w3.org/2000/svg" width="800" height="400" viewBox="0 0 800 400">
  <style>
    .axis{stroke:#666;stroke-width:1}
    .line{stroke:#4a9;stroke-width:2;fill:none}
    .point{fill:#4a9;r:4}
    .label{font:10px sans-serif;fill:#aaa}
    .title{font:14px sans-serif;fill:#333}
  </style>
  <text x="400" y="20" class="title" text-anchor="middle">OPIC Field Growth Timeline</text>
  <line x1="40" y1="40" x2="40" y2="360" class="axis"/>
  <line x1="40" y1="360" x2="760" y2="360" class="axis"/>
  <path d="M 40.0,40.0 L 76.0,40.0 L 112.0,40.0 L 148.0,40.0 L 184.0,40.0 L 220.0,40.0 L 256.0,40.0 L 292.0,40.0 L 328.0,40.0 L 364.0,40.0 L 400.0,40.0 L 436.00000000000006,40.0 L 472.0,40.0 L 508.0,40.0 L 544.0,40.0 L 580.0,40.0 L 616.0,40.0 L 652.0,40.0 L 688.0,40.0 L 724.0,40.0 L 760.0,40.0" class="line"/>
  <circle cx="40.0" cy="40.0" class="point"/>
  <text x="40.0" y="375" class="label" text-anchor="middle">2025-11-11</text>
  <text x="40.0" y="35.0" class="label" text-anchor="middle">42</text>
  <circle cx="76.0" cy="40.0" class="point"/>
  <text x="76.0" y="375" class="label" text-anchor="middle">2025-11-12</text>
  <text x="76.0" y="35.0" class="label" text-anchor="middle">42</text>
  <circle cx="112.0" cy="40.0" class="point"/>
  <text x="112.0" y="375" class="label" text-anchor="middle">2025-11-13</text>
  <text x="112.0" y="35.0" class="label" text-anchor="middle">42</text>
  <circle cx="148.0" cy="40.0" class="point"/>
  <text x="148.0" y="375" class="label" text-anchor="middle">2025-11-14</text>
  <text x="148.0" y="35.0" class="label" text-anchor="middle">42</text>
  <circle cx="184.0" cy="40.0" class="point"/>
  <text x="184.0" y="375" class="label" text-anchor="middle">2025-11-15</text>
  <text x="184.0" y="35.0" class="label" text-anchor="middle">42</text>
  <circle cx="220.0" cy="40.0" class="point"/>
  <text x="220.0" y="375" class="label" text-anchor="middle">2025-11-16</text>
  <text x="220.0" y="35.0" class="label" text-anchor="middle">42</text>
  <circle cx="256.0" cy="40.0" class="point"/>
  <text x="256.0" y="375" class="label" text-anchor="middle">2025-11-17</text>
  <text x="256.0" y="35.0" class="label" text-anchor="middle">42</text>
  <circle cx="292.0" cy="40.0" class="point"/>
  <text x="292.0" y="375" class="label" text-anchor="middle">2025-11-18</text>
  <text x="292.0" y="35.0" class="label" text-anchor="middle">42</text>
  <circle cx="328.0" cy="40.0" class="point"/>
  <text x="328.0" y="375" class="label" text-anchor="middle">2025-11-19</text>
  <text x="328.0" y="35.0" class="label" text-anchor="middle">42</text>
  <circle cx="364.0" cy="40.0" class="point"/>
  <text x="364.0" y="375" class="label" text-anchor="middle">2025-11-20</text>
  <text x="364.0" y="35.0" class="label" text-anchor="middle">42</text>
  <circle cx="400.0" cy="40.0" class="point"/>
  <text x="400.0" y="375" class="label" text-anchor="middle">2025-11-21</text>
  <text x="400.0" y="35.0" class="label" text-anchor="middle">42</text>
  <circle cx="436.00000000000006" cy="40.0" class="point"/>
  <text x="436.00000000000006" y="375" class="label" text-anchor="middle">2025-11-22</text>
  <text x="436.00000000000006" y="35.0" class="label" text-anchor="middle">42</text>
  <circle cx="472.0" cy="40.0" class="point"/>
  <text x="472.0" y="375" class="label" text-anchor="middle">2025-11-23</text>
  <text x="472.0" y="35.0" class="label" text-anchor="middle">42</text>
  <circle cx="508.0" cy="40.0" class="point"/>
  <text x="508.0" y="375" class="label" text-anchor="middle">2025-11-24</text>
  <text x="508.0" y="35.0" class="label" text-anchor="middle">42</text>
  <circle cx="544.0" cy="40.0" class="point"/>
  <text x="544.0" y="375" class="label" text-anchor="middle">2025-11-25</text>
  <text x="544.0" y="35.0" class="label" text-anchor="middle">42</text>
  <circle cx="580.0" cy="40.0" class="point"/>
  <text x="580.0" y="375" class="label" text-anchor="middle">2025-11-26</text>
  <text x="580.0" y="35.0" class="label" text-anchor="middle">42</text>
  <circle cx="616.0" cy="40.0" class="point"/>
  <text x="616.0" y="375" class="label" text-anchor="middle">2025-11-27</text>
  <text x="616.0" y="35.0" class="label" text-anchor="middle">42</text>
  <circle cx="652.0" cy="40.0" class="point"/>
  <text x="652.0" y="375" class="label" text-anchor="middle">2025-11-28</text>
  <text x="652.0" y="35.0" class="label" text-anchor="middle">42</text>
  <circle cx="688.0" cy="40.0" class="point"/>
  <text x="688.0" y="375" class="label" text-anchor="middle">2025-11-29</text>
  <text x="688.0" y="35.0" class="label" text-anchor="middle">42</text>
  <circle cx="724.0" cy="40.0" class="point"/>
  <text x="724.0" y="375" class="label" text-anchor="middle">2025-11-30</text>
  <text x="724.0" y="35.0" class="label" text-anchor="middle">42</text>
  <circle cx="760.0" cy="40.0" class="point"/>
  <text x="760.0" y="375" class="label" text-anchor="middle">2025-12-01</text>
  <text x="760.0" y="35.0" class="label" text-anchor="middle">42</text>
  <text x="30" y="363.0" class="label" text-anchor="end">0</text>
  <text x="30" y="302.04761904761904" class="label" text-anchor="end">8</text>
  <text x="30" y="241.0952380952381" class="label" text-anchor="end">16</text>
  <text x="30" y="180.14285714285717" class="label" text-anchor="end">24</text>
  <text x="30" y="119.1904761904762" class="label" text-anchor="end">32</text>
  <text x="30" y="58.23809523809524" class="label" text-anchor="end">40</text>
</svg>