<svg xmlns="http://www.w3.org/2000/svg" width="800" height="400" viewBox="0 0 800 400">
  <style>
    .axis{stroke:#666;stroke-width:1}
    .line{stroke:#4a9;stroke-width:2;fill:none}
    .point{fill:#4a9;r:4}
    .label{font:10px sans-serif;fill:#aaa}
    .title{font:14px sans-serif;fill:#333}
  </style>
  <text x="400" y="20" class="title" text-anchor="middle">OPIC Field Growth Timeline</text>
  <line x1="40" y1="40" x2="40" y2="360" class="axis"/>
  <line x1="40" y1="360" x2="760" y2="360" class="axis"/>
  <path d="M 40.0,101.53846153846155 L 44.705882352941174,101.53846153846155 L 49.411764705882355,101.53846153846155 L 54.11764705882353,101.53846153846155 L 58.82352941176471,101.53846153846155 L 63.529411764705884,101.53846153846155 L 68.23529411764706,101.53846153846155 L 72.94117647058823,101.53846153846155 L 77.64705882352942,101.53846153846155 L 82.35294117647058,101.53846153846155 L 87.05882352941177,101.53846153846155 L 91.76470588235293,101.53846153846155 L 96.47058823529412,101.53846153846155 L 101.1764705882353,101.53846153846155 L 105.88235294117646,101.53846153846155 L 110.58823529411765,101.53846153846155 L 115.29411764705883,101.53846153846155 L 120.0,101.53846153846155 L 124.70588235294117,101.53846153846155 L 129.41176470588235,101.53846153846155 L 134.11764705882354,101.53846153846155 L 138.8235294117647,101.53846153846155 L 143.52941176470586,101.53846153846155 L 148.23529411764707,101.53846153846155 L 152.94117647058823,101.53846153846155 L 157.64705882352942,101.53846153846155 L 162.3529411764706,101.53846153846155 L 167.05882352941177,40.0 L 171.76470588235293,40.0 L 176.47058823529412,40.0 L 181.1764705882353,40.0 L 185.88235294117646,40.0 L 190.58823529411765,40.0 L 195.29411764705884,40.0 L 200.0,40.0 L 204.70588235294116,40.0 L 209.41176470588235,40.0 L 214.11764705882354,40.0 L 218.8235294117647,40.0 L 223.52941176470586,40.0 L 228.23529411764707,40.0 L 232.94117647058823,40.0 L 237.64705882352942,40.0 L 242.35294117647058,40.0 L 247.05882352941174,40.0 L 251.76470588235296,40.0 L 256.47058823529414,40.0 L 261.1764705882353,40.0 L 265.88235294117646,40.0 L 270.5882352941176,40.0 L 275.29411764705884,40.0 L 280.0,40.0 L 284.7058823529412,40.0 L 289.4117647058823,40.0 L 294.11764705882354,40.0 L 298.8235294117647,40.0 L 303.52941176470586,40.0 L 308.2352941176471,40.0 L 312.94117647058823,40.0 L 317.64705882352945,40.0 L 322.3529411764706,40.0 L 327.05882352941177,40.0 L 331.7647058823529,40.0 L 336.4705882352941,40.0 L 341.1764705882353,40.0 L 345.88235294117646,40.0 L 350.5882352941177,40.0 L 355.29411764705884,40.0 L 360.0,40.0 L 364.70588235294116,40.0 L 369.4117647058823,40.0 L 374.11764705882354,40.0 L 378.8235294117647,40.0 L 383.5294117647059,40.0 L 388.2352941176471,40.0 L 392.94117647058823,40.0 L 397.6470588235294,40.0 L 402.3529411764706,40.0 L 407.0588235294117,40.0 L 411.764705882353,40.0 L 416.47058823529414,40.0 L 421.1764705882353,40.0 L 425.88235294117646,40.0 L 430.5882352941176,40.0 L 435.29411764705884,40.0 L 440.0,40.0 L 444.70588235294116,40.0 L 449.4117647058823,40.0 L 454.1176470588235,40.0 L 458.82352941176475,40.0 L 463.5294117647059,40.0 L 468.2352941176471,40.0 L 472.94117647058823,40.0 L 477.6470588235294,40.0 L 482.3529411764706,40.0 L 487.05882352941177,40.0 L 491.7647058823529,40.0 L 496.4705882352941,40.0 L 501.17647058823525,40.0 L 505.8823529411765,40.0 L 510.5882352941177,40.0 L 515.2941176470588,40.0 L 520.0,40.0 L 524.7058823529412,40.0 L 529.4117647058824,40.0 L 534.1176470588235,40.0 L 538.8235294117646,40.0 L 543.5294117647059,40.0 L 548.2352941176471,40.0 L 552.9411764705883,40.0 L 557.6470588235294,40.0 L 562.3529411764706,40.0 L 567.0588235294117,40.0 L 571.7647058823529,40.0 L 576.4705882352941,40.0 L 581.1764705882352,40.0 L 585.8823529411765,40.0 L 590.5882352941176,40.0 L 595.2941176470589,40.0 L 600.0,40.0 L 604.7058823529412,40.0 L 609.4117647058823,40.0 L 614.1176470588235,40.0 L 618.8235294117648,40.0 L 623.5294117647059,40.0 L 628.2352941176471,40.0 L 632.9411764705882,40.0 L 637.6470588235294,40.0 L 642.3529411764706,40.0 L 647.0588235294117,40.0 L 651.7647058823529,40.0 L 656.470588235294,40.0 L 661.1764705882354,40.0 L 665.8823529411765,40.0 L 670.5882352941177,40.0 L 675.2941176470588,40.0 L 680.0,40.0 L 684.7058823529412,40.0 L 689.4117647058823,40.0 L 694.1176470588235,40.0 L 698.8235294117646,40.0 L 703.5294117647059,40.0 L 708.2352941176471,40.0 L 712.9411764705883,40.0 L 717.6470588235294,40.0 L 722.3529411764706,40.0 L 727.0588235294118,40.0 L 731.7647058823529,40.0 L 736.4705882352941,40.0 L 741.1764705882352,40.0 L 745.8823529411765,40.0 L 750.5882352941177,40.0 L 755.2941176470588,40.0 L 760.0,40.0" class="line"/>
  <circle cx="40.0" cy="101.53846153846155" class="point"/>
  <text x="40.0" y="375" class="label" text-anchor="middle">2025-11-11</text>
  <text x="40.0" y="96.53846153846155" class="label" text-anchor="middle">42</text>
  <circle cx="44.705882352941174" cy="101.53846153846155" class="point"/>
  <text x="44.705882352941174" y="375" class="label" text-anchor="middle">2025-11-12</text>
  <text x="44.705882352941174" y="96.53846153846155" class="label" text-anchor="middle">42</text>
  <circle cx="49.411764705882355" cy="101.53846153846155" class="point"/>
  <text x="49.411764705882355" y="375" class="label" text-anchor="middle">2025-11-13</text>
  <text x="49.411764705882355" y="96.53846153846155" class="label" text-anchor="middle">42</text>
  <circle cx="54.11764705882353" cy="101.53846153846155" class="point"/>
  <text x="54.11764705882353" y="375" class="label" text-anchor="middle">2025-11-14</text>
  <text x="54.11764705882353" y="96.53846153846155" class="label" text-anchor="middle">42</text>
  <circle cx="58.82352941176471" cy="101.53846153846155" class="point"/>
  <text x="58.82352941176471" y="375" class="label" text-anchor="middle">2025-11-15</text>
  <text x="58.82352941176471" y="96.53846153846155" class="label" text-anchor="middle">42</text>
  <circle cx="63.529411764705884" cy="101.53846153846155" class="point"/>
  <text x="63.529411764705884" y="375" class="label" text-anchor="middle">2025-11-16</text>
  <text x="63.529411764705884" y="96.53846153846155" class="label" text-anchor="middle">42</text>
  <circle cx="68.23529411764706" cy="101.53846153846155" class="point"/>
  <text x="68.23529411764706" y="375" class="label" text-anchor="middle">2025-11-17</text>
  <text x="68.23529411764706" y="96.53846153846155" class="label" text-anchor="middle">42</text>
  <circle cx="72.94117647058823" cy="101.53846153846155" class="point"/>
  <text x="72.94117647058823" y="375" class="label" text-anchor="middle">2025-11-18</text>
  <text x="72.94117647058823" y="96.53846153846155" class="label" text-anchor="middle">42</text>
  <circle cx="77.64705882352942" cy="101.53846153846155" class="point"/>
  <text x="77.64705882352942" y="375" class="label" text-anchor="middle">2025-11-19</text>
  <text x="77.64705882352942" y="96.53846153846155" class="label" text-anchor="middle">42</text>
  <circle cx="82.35294117647058" cy="101.53846153846155" class="point"/>
  <text x="82.35294117647058" y="375" class="label" text-anchor="middle">2025-11-20</text>
  <text x="82.35294117647058" y="96.53846153846155" class="label" text-anchor="middle">42</text>
  <circle cx="87.05882352941177" cy="101.53846153846155" class="point"/>
  <text x="87.05882352941177" y="375" class="label" text-anchor="middle">2025-11-21</text>
  <text x="87.05882352941177" y="96.53846153846155" class="label" text-anchor="middle">42</text>
  <circle cx="91.76470588235293" cy="101.53846153846155" class="point"/>
  <text x="91.76470588235293" y="375" class="label" text-anchor="middle">2025-11-22</text>
  <text x="91.76470588235293" y="96.53846153846155" class="label" text-anchor="middle">42</text>
  <circle cx="96.47058823529412" cy="101.53846153846155" class="point"/>
  <text x="96.47058823529412" y="375" class="label" text-anchor="middle">2025-11-23</text>
  <text x="96.47058823529412" y="96.53846153846155" class="label" text-anchor="middle">42</text>
  <circle cx="101.1764705882353" cy="101.53846153846155" class="point"/>
  <text x="101.1764705882353" y="375" class="label" text-anchor="middle">2025-11-24</text>
  <text x="101.1764705882353" y="96.53846153846155" class="label" text-anchor="middle">42</text>
  <circle cx="105.88235294117646" cy="101.53846153846155" class="point"/>
  <text x="105.88235294117646" y="375" class="label" text-anchor="middle">2025-11-25</text>
  <text x="105.88235294117646" y="96.53846153846155" class="label" text-anchor="middle">42</text>
  <circle cx="110.58823529411765" cy="101.53846153846155" class="point"/>
  <text x="110.58823529411765" y="375" class="label" text-anchor="middle">2025-11-26</text>
  <text x="110.58823529411765" y="96.53846153846155" class="label" text-anchor="middle">42</text>
  <circle cx="115.29411764705883" cy="101.53846153846155" class="point"/>
  <text x="115.29411764705883" y="375" class="label" text-anchor="middle">2025-11-27</text>
  <text x="115.29411764705883" y="96.53846153846155" class="label" text-anchor="middle">42</text>
  <circle cx="120.0" cy="101.53846153846155" class="point"/>
  <text x="120.0" y="375" class="label" text-anchor="middle">2025-11-28</text>
  <text x="120.0" y="96.53846153846155" class="label" text-anchor="middle">42</text>
  <circle cx="124.70588235294117" cy="101.53846153846155" class="point"/>
  <text x="124.70588235294117" y="375" class="label" text-anchor="middle">2025-11-29</text>
  <text x="124.70588235294117" y="96.53846153846155" class="label" text-anchor="middle">42</text>
  <circle cx="129.41176470588235" cy="101.53846153846155" class="point"/>
  <text x="129.41176470588235" y="375" class="label" text-anchor="middle">2025-11-30</text>
  <text x="129.41176470588235" y="96.53846153846155" class="label" text-anchor="middle">42</text>
  <circle cx="134.11764705882354" cy="101.53846153846155" class="point"/>
  <text x="134.11764705882354" y="375" class="label" text-anchor="middle">2025-12-01</text>
  <text x="134.11764705882354" y="96.53846153846155" class="label" text-anchor="middle">42</text>
  <circle cx="138.8235294117647" cy="101.53846153846155" class="point"/>
  <text x="138.8235294117647" y="375" class="label" text-anchor="middle">2025-12-02</text>
  <text x="138.8235294117647" y="96.53846153846155" class="label" text-anchor="middle">42</text>
  <circle cx="143.52941176470586" cy="101.53846153846155" class="point"/>
  <text x="143.52941176470586" y="375" class="label" text-anchor="middle">2025-12-03</text>
  <text x="143.52941176470586" y="96.53846153846155" class="label" text-anchor="middle">42</text>
  <circle cx="148.23529411764707" cy="101.53846153846155" class="point"/>
  <text x="148.23529411764707" y="375" class="label" text-anchor="middle">2025-12-04</text>
  <text x="148.23529411764707" y="96.53846153846155" class="label" text-anchor="middle">42</text>
  <circle cx="152.94117647058823" cy="101.53846153846155" class="point"/>
  <text x="152.94117647058823" y="375" class="label" text-anchor="middle">2025-12-05</text>
  <text x="152.94117647058823" y="96.53846153846155" class="label" text-anchor="middle">42</text>
  <circle cx="157.64705882352942" cy="101.53846153846155" class="point"/>
  <text x="157.64705882352942" y="375" class="label" text-anchor="middle">2025-12-06</text>
  <text x="157.64705882352942" y="96.53846153846155" class="label" text-anchor="middle">42</text>
  <circle cx="162.3529411764706" cy="101.53846153846155" class="point"/>
  <text x="162.3529411764706" y="375" class="label" text-anchor="middle">2025-12-07</text>
  <text x="162.3529411764706" y="96.53846153846155" class="label" text-anchor="middle">42</text>
  <circle cx="167.05882352941177" cy="40.0" class="point"/>
  <text x="167.05882352941177" y="375" class="label" text-anchor="middle">2025-12-08</text>
  <text x="167.05882352941177" y="35.0" class="label" text-anchor="middle">52</text>
  <circle cx="171.76470588235293" cy="40.0" class="point"/>
  <text x="171.76470588235293" y="375" class="label" text-anchor="middle">2025-12-09</text>
  <text x="171.76470588235293" y="35.0" class="label" text-anchor="middle">52</text>
  <circle cx="176.47058823529412" cy="40.0" class="point"/>
  <text x="176.47058823529412" y="375" class="label" text-anchor="middle">2025-12-10</text>
  <text x="176.47058823529412" y="35.0" class="label" text-anchor="middle">52</text>
  <circle cx="181.1764705882353" cy="40.0" class="point"/>
  <text x="181.1764705882353" y="375" class="label" text-anchor="middle">2025-12-11</text>
  <text x="181.1764705882353" y="35.0" class="label" text-anchor="middle">52</text>
  <circle cx="185.88235294117646" cy="40.0" class="point"/>
  <text x="185.88235294117646" y="375" class="label" text-anchor="middle">2025-12-12</text>
  <text x="185.88235294117646" y="35.0" class="label" text-anchor="middle">52</text>
  <circle cx="190.58823529411765" cy="40.0" class="point"/>
  <text x="190.58823529411765" y="375" class="label" text-anchor="middle">2025-12-13</text>
  <text x="190.58823529411765" y="35.0" class="label" text-anchor="middle">52</text>
  <circle cx="195.29411764705884" cy="40.0" class="point"/>
  <text x="195.29411764705884" y="375" class="label" text-anchor="middle">2025-12-14</text>
  <text x="195.29411764705884" y="35.0" class="label" text-anchor="middle">52</text>
  <circle cx="200.0" cy="40.0" class="point"/>
  <text x="200.0" y="375" class="label" text-anchor="middle">2025-12-15</text>
  <text x="200.0" y="35.0" class="label" text-anchor="middle">52</text>
  <circle cx="204.70588235294116" cy="40.0" class="point"/>
  <text x="204.70588235294116" y="375" class="label" text-anchor="middle">2025-12-16</text>
  <text x="204.70588235294116" y="35.0" class="label" text-anchor="middle">52</text>
  <circle cx="209.41176470588235" cy="40.0" class="point"/>
  <text x="209.41176470588235" y="375" class="label" text-anchor="middle">2025-12-17</text>
  <text x="209.41176470588235" y="35.0" class="label" text-anchor="middle">52</text>
  <circle cx="214.11764705882354" cy="40.0" class="point"/>
  <text x="214.11764705882354" y="375" class="label" text-anchor="middle">2025-12-18</text>
  <text x="214.11764705882354" y="35.0" class="label" text-anchor="middle">52</text>
  <circle cx="218.8235294117647" cy="40.0" class="point"/>
  <text x="218.8235294117647" y="375" class="label" text-anchor="middle">2025-12-19</text>
  <text x="218.8235294117647" y="35.0" class="label" text-anchor="middle">52</text>
  <circle cx="223.52941176470586" cy="40.0" class="point"/>
  <text x="223.52941176470586" y="375" class="label" text-anchor="middle">2025-12-20</text>
  <text x="223.52941176470586" y="35.0" class="label" text-anchor="middle">52</text>
  <circle cx="228.23529411764707" cy="40.0" class="point"/>
  <text x="228.23529411764707" y="375" class="label" text-anchor="middle">2025-12-21</text>
  <text x="228.23529411764707" y="35.0" class="label" text-anchor="middle">52</text>
  <circle cx="232.94117647058823" cy="40.0" class="point"/>
  <text x="232.94117647058823" y="375" class="label" text-anchor="middle">2025-12-22</text>
  <text x="232.94117647058823" y="35.0" class="label" text-anchor="middle">52</text>
  <circle cx="237.64705882352942" cy="40.0" class="point"/>
  <text x="237.64705882352942" y="375" class="label" text-anchor="middle">2025-12-23</text>
  <text x="237.64705882352942" y="35.0" class="label" text-anchor="middle">52</text>
  <circle cx="242.35294117647058" cy="40.0" class="point"/>
  <text x="242.35294117647058" y="375" class="label" text-anchor="middle">2025-12-24</text>
  <text x="242.35294117647058" y="35.0" class="label" text-anchor="middle">52</text>
  <circle cx="247.05882352941174" cy="40.0" class="point"/>
  <text x="247.05882352941174" y="375" class="label" text-anchor="middle">2025-12-25</text>
  <text x="247.05882352941174" y="35.0" class="label" text-anchor="middle">52</text>
  <circle cx="251.76470588235296" cy="40.0" class="point"/>
  <text x="251.76470588235296" y="375" class="label" text-anchor="middle">2025-12-26</text>
  <text x="251.76470588235296" y="35.0" class="label" text-anchor="middle">52</text>
  <circle cx="256.47058823529414" cy="40.0" class="point"/>
  <text x="256.47058823529414" y="375" class="label" text-anchor="middle">2025-12-27</text>
  <text x="256.47058823529414" y="35.0" class="label" text-anchor="middle">52</text>
  <circle cx="261.1764705882353" cy="40.0" class="point"/>
  <text x="261.1764705882353" y="375" class="label" text-anchor="middle">2025-12-28</text>
  <text x="261.1764705882353" y="35.0" class="label" text-anchor="middle">52</text>
  <circle cx="265.88235294117646" cy="40.0" class="point"/>
  <text x="265.88235294117646" y="375" class="label" text-anchor="middle">2025-12-29</text>
  <text x="265.88235294117646" y="35.0" class="label" text-anchor="middle">52</text>
  <circle cx="270.5882352941176" cy="40.0" class="point"/>
  <text x="270.5882352941176" y="375" class="label" text-anchor="middle">2025-12-30</text>
  <text x="270.5882352941176" y="35.0" class="label" text-anchor="middle">52</text>
  <circle cx="275.29411764705884" cy="40.0" class="point"/>
  <text x="275.29411764705884" y="375" class="label" text-anchor="middle">2025-12-31</text>
  <text x="275.29411764705884" y="35.0" class="label" text-anchor="middle">52</text>
  <circle cx="280.0" cy="40.0" class="point"/>
  <text x="280.0" y="375" class="label" text-anchor="middle">2026-01-01</text>
  <text x="280.0" y="35.0" class="label" text-anchor="middle">52</text>
  <circle cx="284.7058823529412" cy="40.0" class="point"/>
  <text x="284.7058823529412" y="375" class="label" text-anchor="middle">2026-01-02</text>
  <text x="284.7058823529412" y="35.0" class="label" text-anchor="middle">52</text>
  <circle cx="289.4117647058823" cy="40.0" class="point"/>
  <text x="289.4117647058823" y="375" class="label" text-anchor="middle">2026-01-03</text>
  <text x="289.4117647058823" y="35.0" class="label" text-anchor="middle">52</text>
  <circle cx="294.11764705882354" cy="40.0" class="point"/>
  <text x="294.11764705882354" y="375" class="label" text-anchor="middle">2026-01-04</text>
  <text x="294.11764705882354" y="35.0" class="label" text-anchor="middle">52</text>
  <circle cx="298.8235294117647" cy="40.0" class="point"/>
  <text x="298.8235294117647" y="375" class="label" text-anchor="middle">2026-01-05</text>
  <text x="298.8235294117647" y="35.0" class="label" text-anchor="middle">52</text>
  <circle cx="303.52941176470586" cy="40.0" class="point"/>
  <text x="303.52941176470586" y="375" class="label" text-anchor="middle">2026-01-06</text>
  <text x="303.52941176470586" y="35.0" class="label" text-anchor="middle">52</text>
  <circle cx="308.2352941176471" cy="40.0" class="point"/>
  <text x="308.2352941176471" y="375" class="label" text-anchor="middle">2026-01-07</text>
  <text x="308.2352941176471" y="35.0" class="label" text-anchor="middle">52</text>
  <circle cx="312.94117647058823" cy="40.0" class="point"/>
  <text x="312.94117647058823" y="375" class="label" text-anchor="middle">2026-01-08</text>
  <text x="312.94117647058823" y="35.0" class="label" text-anchor="middle">52</text>
  <circle cx="317.64705882352945" cy="40.0" class="point"/>
  <text x="317.64705882352945" y="375" class="label" text-anchor="middle">2026-01-09</text>
  <text x="317.64705882352945" y="35.0" class="label" text-anchor="middle">52</text>
  <circle cx="322.3529411764706" cy="40.0" class="point"/>
  <text x="322.3529411764706" y="375" class="label" text-anchor="middle">2026-01-10</text>
  <text x="322.3529411764706" y="35.0" class="label" text-anchor="middle">52</text>
  <circle cx="327.05882352941177" cy="40.0" class="point"/>
  <text x="327.05882352941177" y="375" class="label" text-anchor="middle">2026-01-11</text>
  <text x="327.05882352941177" y="35.0" class="label" text-anchor="middle">52</text>
  <circle cx="331.7647058823529" cy="40.0" class="point"/>
  <text x="331.7647058823529" y="375" class="label" text-anchor="middle">2026-01-12</text>
  <text x="331.7647058823529" y="35.0" class="label" text-anchor="middle">52</text>
  <circle cx="336.4705882352941" cy="40.0" class="point"/>
  <text x="336.4705882352941" y="375" class="label" text-anchor="middle">2026-01-13</text>
  <text x="336.4705882352941" y="35.0" class="label" text-anchor="middle">52</text>
  <circle cx="341.1764705882353" cy="40.0" class="point"/>
  <text x="341.1764705882353" y="375" class="label" text-anchor="middle">2026-01-14</text>
  <text x="341.1764705882353" y="35.0" class="label" text-anchor="middle">52</text>
  <circle cx="345.88235294117646" cy="40.0" class="point"/>
  <text x="345.88235294117646" y="375" class="label" text-anchor="middle">2026-01-15</text>
  <text x="345.88235294117646" y="35.0" class="label" text-anchor="middle">52</text>
  <circle cx="350.5882352941177" cy="40.0" class="point"/>
  <text x="350.5882352941177" y="375" class="label" text-anchor="middle">2026-01-16</text>
  <text x="350.5882352941177" y="35.0" class="label" text-anchor="middle">52</text>
  <circle cx="355.29411764705884" cy="40.0" class="point"/>
  <text x="355.29411764705884" y="375" class="label" text-anchor="middle">2026-01-17</text>
  <text x="355.29411764705884" y="35.0" class="label" text-anchor="middle">52</text>
  <circle cx="360.0" cy="40.0" class="point"/>
  <text x="360.0" y="375" class="label" text-anchor="middle">2026-01-18</text>
  <text x="360.0" y="35.0" class="label" text-anchor="middle">52</text>
  <circle cx="364.70588235294116" cy="40.0" class="point"/>
  <text x="364.70588235294116" y="375" class="label" text-anchor="middle">2026-01-19</text>
  <text x="364.70588235294116" y="35.0" class="label" text-anchor="middle">52</text>
  <circle cx="369.4117647058823" cy="40.0" class="point"/>
  <text x="369.4117647058823" y="375" class="label" text-anchor="middle">2026-01-20</text>
  <text x="369.4117647058823" y="35.0" class="label" text-anchor="middle">52</text>
  <circle cx="374.11764705882354" cy="40.0" class="point"/>
  <text x="374.11764705882354" y="375" class="label" text-anchor="middle">2026-01-21</text>
  <text x="374.11764705882354" y="35.0" class="label" text-anchor="middle">52</text>
  <circle cx="378.8235294117647" cy="40.0" class="point"/>
  <text x="378.8235294117647" y="375" class="label" text-anchor="middle">2026-01-22</text>
  <text x="378.8235294117647" y="35.0" class="label" text-anchor="middle">52</text>
  <circle cx="383.5294117647059" cy="40.0" class="point"/>
  <text x="383.5294117647059" y="375" class="label" text-anchor="middle">2026-01-23</text>
  <text x="383.5294117647059" y="35.0" class="label" text-anchor="middle">52</text>
  <circle cx="388.2352941176471" cy="40.0" class="point"/>
  <text x="388.2352941176471" y="375" class="label" text-anchor="middle">2026-01-24</text>
  <text x="388.2352941176471" y="35.0" class="label" text-anchor="middle">52</text>
  <circle cx="392.94117647058823" cy="40.0" class="point"/>
  <text x="392.94117647058823" y="375" class="label" text-anchor="middle">2026-01-25</text>
  <text x="392.94117647058823" y="35.0" class="label" text-anchor="middle">52</text>
  <circle cx="397.6470588235294" cy="40.0" class="point"/>
  <text x="397.6470588235294" y="375" class="label" text-anchor="middle">2026-01-26</text>
  <text x="397.6470588235294" y="35.0" class="label" text-anchor="middle">52</text>
  <circle cx="402.3529411764706" cy="40.0" class="point"/>
  <text x="402.3529411764706" y="375" class="label" text-anchor="middle">2026-01-27</text>
  <text x="402.3529411764706" y="35.0" class="label" text-anchor="middle">52</text>
  <circle cx="407.0588235294117" cy="40.0" class="point"/>
  <text x="407.0588235294117" y="375" class="label" text-anchor="middle">2026-01-28</text>
  <text x="407.0588235294117" y="35.0" class="label" text-anchor="middle">52</text>
  <circle cx="411.764705882353" cy="40.0" class="point"/>
  <text x="411.764705882353" y="375" class="label" text-anchor="middle">2026-01-29</text>
  <text x="411.764705882353" y="35.0" class="label" text-anchor="middle">52</text>
  <circle cx="416.47058823529414" cy="40.0" class="point"/>
  <text x="416.47058823529414" y="375" class="label" text-anchor="middle">2026-01-30</text>
  <text x="416.47058823529414" y="35.0" class="label" text-anchor="middle">52</text>
  <circle cx="421.1764705882353" cy="40.0" class="point"/>
  <text x="421.1764705882353" y="375" class="label" text-anchor="middle">2026-01-31</text>
  <text x="421.1764705882353" y="35.0" class="label" text-anchor="middle">52</text>
  <circle cx="425.88235294117646" cy="40.0" class="point"/>
  <text x="425.88235294117646" y="375" class="label" text-anchor="middle">2026-02-01</text>
  <text x="425.88235294117646" y="35.0" class="label" text-anchor="middle">52</text>
  <circle cx="430.5882352941176" cy="40.0" class="point"/>
  <text x="430.5882352941176" y="375" class="label" text-anchor="middle">2026-02-02</text>
  <text x="430.5882352941176" y="35.0" class="label" text-anchor="middle">52</text>
  <circle cx="435.29411764705884" cy="40.0" class="point"/>
  <text x="435.29411764705884" y="375" class="label" text-anchor="middle">2026-02-03</text>
  <text x="435.29411764705884" y="35.0" class="label" text-anchor="middle">52</text>
  <circle cx="440.0" cy="40.0" class="point"/>
  <text x="440.0" y="375" class="label" text-anchor="middle">2026-02-04</text>
  <text x="440.0" y="35.0" class="label" text-anchor="middle">52</text>
  <circle cx="444.70588235294116" cy="40.0" class="point"/>
  <text x="444.70588235294116" y="375" class="label" text-anchor="middle">2026-02-05</text>
  <text x="444.70588235294116" y="35.0" class="label" text-anchor="middle">52</text>
  <circle cx="449.4117647058823" cy="40.0" class="point"/>
  <text x="449.4117647058823" y="375" class="label" text-anchor="middle">2026-02-06</text>
  <text x="449.4117647058823" y="35.0" class="label" text-anchor="middle">52</text>
  <circle cx="454.1176470588235" cy="40.0" class="point"/>
  <text x="454.1176470588235" y="375" class="label" text-anchor="middle">2026-02-07</text>
  <text x="454.1176470588235" y="35.0" class="label" text-anchor="middle">52</text>
  <circle cx="458.82352941176475" cy="40.0" class="point"/>
  <text x="458.82352941176475" y="375" class="label" text-anchor="middle">2026-02-08</text>
  <text x="458.82352941176475" y="35.0" class="label" text-anchor="middle">52</text>
  <circle cx="463.5294117647059" cy="40.0" class="point"/>
  <text x="463.5294117647059" y="375" class="label" text-anchor="middle">2026-02-09</text>
  <text x="463.5294117647059" y="35.0" class="label" text-anchor="middle">52</text>
  <circle cx="468.2352941176471" cy="40.0" class="point"/>
  <text x="468.2352941176471" y="375" class="label" text-anchor="middle">2026-02-10</text>
  <text x="468.2352941176471" y="35.0" class="label" text-anchor="middle">52</text>
  <circle cx="472.94117647058823" cy="40.0" class="point"/>
  <text x="472.94117647058823" y="375" class="label" text-anchor="middle">2026-02-11</text>
  <text x="472.94117647058823" y="35.0" class="label" text-anchor="middle">52</text>
  <circle cx="477.6470588235294" cy="40.0" class="point"/>
  <text x="477.6470588235294" y="375" class="label" text-anchor="middle">2026-02-12</text>
  <text x="477.6470588235294" y="35.0" class="label" text-anchor="middle">52</text>
  <circle cx="482.3529411764706" cy="40.0" class="point"/>
  <text x="482.3529411764706" y="375" class="label" text-anchor="middle">2026-02-13</text>
  <text x="482.3529411764706" y="35.0" class="label" text-anchor="middle">52</text>
  <circle cx="487.05882352941177" cy="40.0" class="point"/>
  <text x="487.05882352941177" y="375" class="label" text-anchor="middle">2026-02-14</text>
  <text x="487.05882352941177" y="35.0" class="label" text-anchor="middle">52</text>
  <circle cx="491.7647058823529" cy="40.0" class="point"/>
  <text x="491.7647058823529" y="375" class="label" text-anchor="middle">2026-02-15</text>
  <text x="491.7647058823529" y="35.0" class="label" text-anchor="middle">52</text>
  <circle cx="496.4705882352941" cy="40.0" class="point"/>
  <text x="496.4705882352941" y="375" class="label" text-anchor="middle">2026-02-16</text>
  <text x="496.4705882352941" y="35.0" class="label" text-anchor="middle">52</text>
  <circle cx="501.17647058823525" cy="40.0" class="point"/>
  <text x="501.17647058823525" y="375" class="label" text-anchor="middle">2026-02-17</text>
  <text x="501.17647058823525" y="35.0" class="label" text-anchor="middle">52</text>
  <circle cx="505.8823529411765" cy="40.0" class="point"/>
  <text x="505.8823529411765" y="375" class="label" text-anchor="middle">2026-02-18</text>
  <text x="505.8823529411765" y="35.0" class="label" text-anchor="middle">52</text>
  <circle cx="510.5882352941177" cy="40.0" class="point"/>
  <text x="510.5882352941177" y="375" class="label" text-anchor="middle">2026-02-19</text>
  <text x="510.5882352941177" y="35.0" class="label" text-anchor="middle">52</text>
  <circle cx="515.2941176470588" cy="40.0" class="point"/>
  <text x="515.2941176470588" y="375" class="label" text-anchor="middle">2026-02-20</text>
  <text x="515.2941176470588" y="35.0" class="label" text-anchor="middle">52</text>
  <circle cx="520.0" cy="40.0" class="point"/>
  <text x="520.0" y="375" class="label" text-anchor="middle">2026-02-21</text>
  <text x="520.0" y="35.0" class="label" text-anchor="middle">52</text>
  <circle cx="524.7058823529412" cy="40.0" class="point"/>
  <text x="524.7058823529412" y="375" class="label" text-anchor="middle">2026-02-22</text>
  <text x="524.7058823529412" y="35.0" class="label" text-anchor="middle">52</text>
  <circle cx="529.4117647058824" cy="40.0" class="point"/>
  <text x="529.4117647058824" y="375" class="label" text-anchor="middle">2026-02-23</text>
  <text x="529.4117647058824" y="35.0" class="label" text-anchor="middle">52</text>
  <circle cx="534.1176470588235" cy="40.0" class="point"/>
  <text x="534.1176470588235" y="375" class="label" text-anchor="middle">2026-02-24</text>
  <text x="534.1176470588235" y="35.0" class="label" text-anchor="middle">52</text>
  <circle cx="538.8235294117646" cy="40.0" class="point"/>
  <text x="538.8235294117646" y="375" class="label" text-anchor="middle">2026-02-25</text>
  <text x="538.8235294117646" y="35.0" class="label" text-anchor="middle">52</text>
  <circle cx="543.5294117647059" cy="40.0" class="point"/>
  <text x="543.5294117647059" y="375" class="label" text-anchor="middle">2026-02-26</text>
  <text x="543.5294117647059" y="35.0" class="label" text-anchor="middle">52</text>
  <circle cx="548.2352941176471" cy="40.0" class="point"/>
  <text x="548.2352941176471" y="375" class="label" text-anchor="middle">2026-02-27</text>
  <text x="548.2352941176471" y="35.0" class="label" text-anchor="middle">52</text>
  <circle cx="552.9411764705883" cy="40.0" class="point"/>
  <text x="552.9411764705883" y="375" class="label" text-anchor="middle">2026-02-28</text>
  <text x="552.9411764705883" y="35.0" class="label" text-anchor="middle">52</text>
  <circle cx="557.6470588235294" cy="40.0" class="point"/>
  <text x="557.6470588235294" y="375" class="label" text-anchor="middle">2026-03-01</text>
  <text x="557.6470588235294" y="35.0" class="label" text-anchor="middle">52</text>
  <circle cx="562.3529411764706" cy="40.0" class="point"/>
  <text x="562.3529411764706" y="375" class="label" text-anchor="middle">2026-03-02</text>
  <text x="562.3529411764706" y="35.0" class="label" text-anchor="middle">52</text>
  <circle cx="567.0588235294117" cy="40.0" class="point"/>
  <text x="567.0588235294117" y="375" class="label" text-anchor="middle">2026-03-03</text>
  <text x="567.0588235294117" y="35.0" class="label" text-anchor="middle">52</text>
  <circle cx="571.7647058823529" cy="40.0" class="point"/>
  <text x="571.7647058823529" y="375" class="label" text-anchor="middle">2026-03-04</text>
  <text x="571.7647058823529" y="35.0" class="label" text-anchor="middle">52</text>
  <circle cx="576.4705882352941" cy="40.0" class="point"/>
  <text x="576.4705882352941" y="375" class="label" text-anchor="middle">2026-03-05</text>
  <text x="576.4705882352941" y="35.0" class="label" text-anchor="middle">52</text>
  <circle cx="581.1764705882352" cy="40.0" class="point"/>
  <text x="581.1764705882352" y="375" class="label" text-anchor="middle">2026-03-06</text>
  <text x="581.1764705882352" y="35.0" class="label" text-anchor="middle">52</text>
  <circle cx="585.8823529411765" cy="40.0" class="point"/>
  <text x="585.8823529411765" y="375" class="label" text-anchor="middle">2026-03-07</text>
  <text x="585.8823529411765" y="35.0" class="label" text-anchor="middle">52</text>
  <circle cx="590.5882352941176" cy="40.0" class="point"/>
  <text x="590.5882352941176" y="375" class="label" text-anchor="middle">2026-03-08</text>
  <text x="590.5882352941176" y="35.0" class="label" text-anchor="middle">52</text>
  <circle cx="595.2941176470589" cy="40.0" class="point"/>
  <text x="595.2941176470589" y="375" class="label" text-anchor="middle">2026-03-09</text>
  <text x="595.2941176470589" y="35.0" class="label" text-anchor="middle">52</text>
  <circle cx="600.0" cy="40.0" class="point"/>
  <text x="600.0" y="375" class="label" text-anchor="middle">2026-03-10</text>
  <text x="600.0" y="35.0" class="label" text-anchor="middle">52</text>
  <circle cx="604.7058823529412" cy="40.0" class="point"/>
  <text x="604.7058823529412" y="375" class="label" text-anchor="middle">2026-03-11</text>
  <text x="604.7058823529412" y="35.0" class="label" text-anchor="middle">52</text>
  <circle cx="609.4117647058823" cy="40.0" class="point"/>
  <text x="609.4117647058823" y="375" class="label" text-anchor="middle">2026-03-12</text>
  <text x="609.4117647058823" y="35.0" class="label" text-anchor="middle">52</text>
  <circle cx="614.1176470588235" cy="40.0" class="point"/>
  <text x="614.1176470588235" y="375" class="label" text-anchor="middle">2026-03-13</text>
  <text x="614.1176470588235" y="35.0" class="label" text-anchor="middle">52</text>
  <circle cx="618.8235294117648" cy="40.0" class="point"/>
  <text x="618.8235294117648" y="375" class="label" text-anchor="middle">2026-03-14</text>
  <text x="618.8235294117648" y="35.0" class="label" text-anchor="middle">52</text>
  <circle cx="623.5294117647059" cy="40.0" class="point"/>
  <text x="623.5294117647059" y="375" class="label" text-anchor="middle">2026-03-15</text>
  <text x="623.5294117647059" y="35.0" class="label" text-anchor="middle">52</text>
  <circle cx="628.2352941176471" cy="40.0" class="point"/>
  <text x="628.2352941176471" y="375" class="label" text-anchor="middle">2026-03-16</text>
  <text x="628.2352941176471" y="35.0" class="label" text-anchor="middle">52</text>
  <circle cx="632.9411764705882" cy="40.0" class="point"/>
  <text x="632.9411764705882" y="375" class="label" text-anchor="middle">2026-03-17</text>
  <text x="632.9411764705882" y="35.0" class="label" text-anchor="middle">52</text>
  <circle cx="637.6470588235294" cy="40.0" class="point"/>
  <text x="637.6470588235294" y="375" class="label" text-anchor="middle">2026-03-18</text>
  <text x="637.6470588235294" y="35.0" class="label" text-anchor="middle">52</text>
  <circle cx="642.3529411764706" cy="40.0" class="point"/>
  <text x="642.3529411764706" y="375" class="label" text-anchor="middle">2026-03-19</text>
  <text x="642.3529411764706" y="35.0" class="label" text-anchor="middle">52</text>
  <circle cx="647.0588235294117" cy="40.0" class="point"/>
  <text x="647.0588235294117" y="375" class="label" text-anchor="middle">2026-03-20</text>
  <text x="647.0588235294117" y="35.0" class="label" text-anchor="middle">52</text>
  <circle cx="651.7647058823529" cy="40.0" class="point"/>
  <text x="651.7647058823529" y="375" class="label" text-anchor="middle">2026-03-21</text>
  <text x="651.7647058823529" y="35.0" class="label" text-anchor="middle">52</text>
  <circle cx="656.470588235294" cy="40.0" class="point"/>
  <text x="656.470588235294" y="375" class="label" text-anchor="middle">2026-03-22</text>
  <text x="656.470588235294" y="35.0" class="label" text-anchor="middle">52</text>
  <circle cx="661.1764705882354" cy="40.0" class="point"/>
  <text x="661.1764705882354" y="375" class="label" text-anchor="middle">2026-03-23</text>
  <text x="661.1764705882354" y="35.0" class="label" text-anchor="middle">52</text>
  <circle cx="665.8823529411765" cy="40.0" class="point"/>
  <text x="665.8823529411765" y="375" class="label" text-anchor="middle">2026-03-24</text>
  <text x="665.8823529411765" y="35.0" class="label" text-anchor="middle">52</text>
  <circle cx="670.5882352941177" cy="40.0" class="point"/>
  <text x="670.5882352941177" y="375" class="label" text-anchor="middle">2026-03-25</text>
  <text x="670.5882352941177" y="35.0" class="label" text-anchor="middle">52</text>
  <circle cx="675.2941176470588" cy="40.0" class="point"/>
  <text x="675.2941176470588" y="375" class="label" text-anchor="middle">2026-03-26</text>
  <text x="675.2941176470588" y="35.0" class="label" text-anchor="middle">52</text>
  <circle cx="680.0" cy="40.0" class="point"/>
  <text x="680.0" y="375" class="label" text-anchor="middle">2026-03-27</text>
  <text x="680.0" y="35.0" class="label" text-anchor="middle">52</text>
  <circle cx="684.7058823529412" cy="40.0" class="point"/>
  <text x="684.7058823529412" y="375" class="label" text-anchor="middle">2026-03-28</text>
  <text x="684.7058823529412" y="35.0" class="label" text-anchor="middle">52</text>
  <circle cx="689.4117647058823" cy="40.0" class="point"/>
  <text x="689.4117647058823" y="375" class="label" text-anchor="middle">2026-03-29</text>
  <text x="689.4117647058823" y="35.0" class="label" text-anchor="middle">52</text>
  <circle cx="694.1176470588235" cy="40.0" class="point"/>
  <text x="694.1176470588235" y="375" class="label" text-anchor="middle">2026-03-30</text>
  <text x="694.1176470588235" y="35.0" class="label" text-anchor="middle">52</text>
  <circle cx="698.8235294117646" cy="40.0" class="point"/>
  <text x="698.8235294117646" y="375" class="label" text-anchor="middle">2026-03-31</text>
  <text x="698.8235294117646" y="35.0" class="label" text-anchor="middle">52</text>
  <circle cx="703.5294117647059" cy="40.0" class="point"/>
  <text x="703.5294117647059" y="375" class="label" text-anchor="middle">2026-04-01</text>
  <text x="703.5294117647059" y="35.0" class="label" text-anchor="middle">52</text>
  <circle cx="708.2352941176471" cy="40.0" class="point"/>
  <text x="708.2352941176471" y="375" class="label" text-anchor="middle">2026-04-02</text>
  <text x="708.2352941176471" y="35.0" class="label" text-anchor="middle">52</text>
  <circle cx="712.9411764705883" cy="40.0" class="point"/>
  <text x="712.9411764705883" y="375" class="label" text-anchor="middle">2026-04-03</text>
  <text x="712.9411764705883" y="35.0" class="label" text-anchor="middle">52</text>
  <circle cx="717.6470588235294" cy="40.0" class="point"/>
  <text x="717.6470588235294" y="375" class="label" text-anchor="middle">2026-04-04</text>
  <text x="717.6470588235294" y="35.0" class="label" text-anchor="middle">52</text>
  <circle cx="722.3529411764706" cy="40.0" class="point"/>
  <text x="722.3529411764706" y="375" class="label" text-anchor="middle">2026-04-05</text>
  <text x="722.3529411764706" y="35.0" class="label" text-anchor="middle">52</text>
  <circle cx="727.0588235294118" cy="40.0" class="point"/>
  <text x="727.0588235294118" y="375" class="label" text-anchor="middle">2026-04-06</text>
  <text x="727.0588235294118" y="35.0" class="label" text-anchor="middle">52</text>
  <circle cx="731.7647058823529" cy="40.0" class="point"/>
  <text x="731.7647058823529" y="375" class="label" text-anchor="middle">2026-04-07</text>
  <text x="731.7647058823529" y="35.0" class="label" text-anchor="middle">52</text>
  <circle cx="736.4705882352941" cy="40.0" class="point"/>
  <text x="736.4705882352941" y="375" class="label" text-anchor="middle">2026-04-08</text>
  <text x="736.4705882352941" y="35.0" class="label" text-anchor="middle">52</text>
  <circle cx="741.1764705882352" cy="40.0" class="point"/>
  <text x="741.1764705882352" y="375" class="label" text-anchor="middle">2026-04-09</text>
  <text x="741.1764705882352" y="35.0" class="label" text-anchor="middle">52</text>
  <circle cx="745.8823529411765" cy="40.0" class="point"/>
  <text x="745.8823529411765" y="375" class="label" text-anchor="middle">2026-04-10</text>
  <text x="745.8823529411765" y="35.0" class="label" text-anchor="middle">52</text>
  <circle cx="750.5882352941177" cy="40.0" class="point"/>
  <text x="750.5882352941177" y="375" class="label" text-anchor="middle">2026-04-11</text>
  <text x="750.5882352941177" y="35.0" class="label" text-anchor="middle">52</text>
  <circle cx="755.2941176470588" cy="40.0" class="point"/>
  <text x="755.2941176470588" y="375" class="label" text-anchor="middle">2026-04-12</text>
  <text x="755.2941176470588" y="35.0" class="label" text-anchor="middle">52</text>
  <circle cx="760.0" cy="40.0" class="point"/>
  <text x="760.0" y="375" class="label" text-anchor="middle">2026-04-13</text>
  <text x="760.0" y="35.0" class="label" text-anchor="middle">52</text>
  <text x="30" y="363.0" class="label" text-anchor="end">0</text>
  <text x="30" y="301.46153846153845" class="label" text-anchor="end">10</text>
  <text x="30" y="239.9230769230769" class="label" text-anchor="end">20</text>
  <text x="30" y="178.38461538461542" class="label" text-anchor="end">30</text>
  <text x="30" y="116.84615384615384" class="label" text-anchor="end">40</text>
  <text x="30" y="55.30769230769232" class="label" text-anchor="end">50</text>
</svg>