<svg xmlns="http://www.w3.org/2000/svg" width="800" height="400" viewBox="0 0 800 400">
  <style>
    .axis{stroke:#666;stroke-width:1}
    .line{stroke:#4a9;stroke-width:2;fill:none}
    .point{fill:#4a9;r:4}
    .label{font:10px sans-serif;fill:#aaa}
    .title{font:14px sans-serif;fill:#333}
  </style>
  <text x="400" y="20" class="title" text-anchor="middle">OPIC Field Growth Timeline</text>
  <line x1="40" y1="40" x2="40" y2="360" class="axis"/>
  <line x1="40" y1="360" x2="760" y2="360" class="axis"/>
  <path d="M 40.0,101.53846153846155 L 46.666666666666664,101.53846153846155 L 53.33333333333333,101.53846153846155 L 60.0,101.53846153846155 L 66.66666666666666,101.53846153846155 L 73.33333333333333,101.53846153846155 L 80.0,101.53846153846155 L 86.66666666666666,101.53846153846155 L 93.33333333333333,101.53846153846155 L 100.0,101.53846153846155 L 106.66666666666666,101.53846153846155 L 113.33333333333333,101.53846153846155 L 120.0,101.53846153846155 L 126.66666666666666,101.53846153846155 L 133.33333333333331,101.53846153846155 L 140.0,101.53846153846155 L 146.66666666666666,101.53846153846155 L 153.33333333333334,101.53846153846155 L 160.0,101.53846153846155 L 166.66666666666669,101.53846153846155 L 173.33333333333331,101.53846153846155 L 180.0,101.53846153846155 L 186.66666666666666,101.53846153846155 L 193.33333333333334,101.53846153846155 L 200.0,101.53846153846155 L 206.66666666666666,101.53846153846155 L 213.33333333333331,101.53846153846155 L 220.0,40.0 L 226.66666666666666,40.0 L 233.33333333333334,40.0 L 240.0,40.0 L 246.66666666666666,40.0 L 253.33333333333331,40.0 L 260.0,40.0 L 266.6666666666667,40.0 L 273.33333333333337,40.0 L 280.0,40.0 L 286.6666666666667,40.0 L 293.33333333333337,40.0 L 300.0,40.0 L 306.66666666666663,40.0 L 313.33333333333337,40.0 L 320.0,40.0 L 326.6666666666667,40.0 L 333.3333333333333,40.0 L 340.0,40.0 L 346.6666666666667,40.0 L 353.3333333333333,40.0 L 360.0,40.0 L 366.6666666666667,40.0 L 373.3333333333333,40.0 L 380.0,40.0 L 386.66666666666663,40.0 L 393.33333333333337,40.0 L 400.0,40.0 L 406.6666666666667,40.0 L 413.3333333333333,40.0 L 420.0,40.0 L 426.6666666666667,40.0 L 433.3333333333333,40.0 L 440.0,40.0 L 446.66666666666663,40.0 L 453.3333333333333,40.0 L 460.0,40.0 L 466.66666666666663,40.0 L 473.3333333333333,40.0 L 480.00000000000006,40.0 L 486.66666666666663,40.0 L 493.33333333333337,40.0 L 499.99999999999994,40.0 L 506.6666666666667,40.0 L 513.3333333333334,40.0 L 520.0,40.0 L 526.6666666666667,40.0 L 533.3333333333334,40.0 L 540.0,40.0 L 546.6666666666667,40.0 L 553.3333333333333,40.0 L 560.0,40.0 L 566.6666666666667,40.0 L 573.3333333333333,40.0 L 580.0,40.0 L 586.6666666666667,40.0 L 593.3333333333333,40.0 L 600.0,40.0 L 606.6666666666667,40.0 L 613.3333333333334,40.0 L 620.0,40.0 L 626.6666666666666,40.0 L 633.3333333333334,40.0 L 640.0,40.0 L 646.6666666666666,40.0 L 653.3333333333334,40.0 L 660.0,40.0 L 666.6666666666666,40.0 L 673.3333333333334,40.0 L 680.0,40.0 L 686.6666666666666,40.0 L 693.3333333333334,40.0 L 700.0,40.0 L 706.6666666666666,40.0 L 713.3333333333334,40.0 L 720.0,40.0 L 726.6666666666666,40.0 L 733.3333333333333,40.0 L 740.0,40.0 L 746.6666666666667,40.0 L 753.3333333333333,40.0 L 760.0,40.0" class="line"/>
  <circle cx="40.0" cy="101.53846153846155" class="point"/>
  <text x="40.0" y="375" class="label" text-anchor="middle">2025-11-11</text>
  <text x="40.0" y="96.53846153846155" class="label" text-anchor="middle">42</text>
  <circle cx="46.666666666666664" cy="101.53846153846155" class="point"/>
  <text x="46.666666666666664" y="375" class="label" text-anchor="middle">2025-11-12</text>
  <text x="46.666666666666664" y="96.53846153846155" class="label" text-anchor="middle">42</text>
  <circle cx="53.33333333333333" cy="101.53846153846155" class="point"/>
  <text x="53.33333333333333" y="375" class="label" text-anchor="middle">2025-11-13</text>
  <text x="53.33333333333333" y="96.53846153846155" class="label" text-anchor="middle">42</text>
  <circle cx="60.0" cy="101.53846153846155" class="point"/>
  <text x="60.0" y="375" class="label" text-anchor="middle">2025-11-14</text>
  <text x="60.0" y="96.53846153846155" class="label" text-anchor="middle">42</text>
  <circle cx="66.66666666666666" cy="101.53846153846155" class="point"/>
  <text x="66.66666666666666" y="375" class="label" text-anchor="middle">2025-11-15</text>
  <text x="66.66666666666666" y="96.53846153846155" class="label" text-anchor="middle">42</text>
  <circle cx="73.33333333333333" cy="101.53846153846155" class="point"/>
  <text x="73.33333333333333" y="375" class="label" text-anchor="middle">2025-11-16</text>
  <text x="73.33333333333333" y="96.53846153846155" class="label" text-anchor="middle">42</text>
  <circle cx="80.0" cy="101.53846153846155" class="point"/>
  <text x="80.0" y="375" class="label" text-anchor="middle">2025-11-17</text>
  <text x="80.0" y="96.53846153846155" class="label" text-anchor="middle">42</text>
  <circle cx="86.66666666666666" cy="101.53846153846155" class="point"/>
  <text x="86.66666666666666" y="375" class="label" text-anchor="middle">2025-11-18</text>
  <text x="86.66666666666666" y="96.53846153846155" class="label" text-anchor="middle">42</text>
  <circle cx="93.33333333333333" cy="101.53846153846155" class="point"/>
  <text x="93.33333333333333" y="375" class="label" text-anchor="middle">2025-11-19</text>
  <text x="93.33333333333333" y="96.53846153846155" class="label" text-anchor="middle">42</text>
  <circle cx="100.0" cy="101.53846153846155" class="point"/>
  <text x="100.0" y="375" class="label" text-anchor="middle">2025-11-20</text>
  <text x="100.0" y="96.53846153846155" class="label" text-anchor="middle">42</text>
  <circle cx="106.66666666666666" cy="101.53846153846155" class="point"/>
  <text x="106.66666666666666" y="375" class="label" text-anchor="middle">2025-11-21</text>
  <text x="106.66666666666666" y="96.53846153846155" class="label" text-anchor="middle">42</text>
  <circle cx="113.33333333333333" cy="101.53846153846155" class="point"/>
  <text x="113.33333333333333" y="375" class="label" text-anchor="middle">2025-11-22</text>
  <text x="113.33333333333333" y="96.53846153846155" class="label" text-anchor="middle">42</text>
  <circle cx="120.0" cy="101.53846153846155" class="point"/>
  <text x="120.0" y="375" class="label" text-anchor="middle">2025-11-23</text>
  <text x="120.0" y="96.53846153846155" class="label" text-anchor="middle">42</text>
  <circle cx="126.66666666666666" cy="101.53846153846155" class="point"/>
  <text x="126.66666666666666" y="375" class="label" text-anchor="middle">2025-11-24</text>
  <text x="126.66666666666666" y="96.53846153846155" class="label" text-anchor="middle">42</text>
  <circle cx="133.33333333333331" cy="101.53846153846155" class="point"/>
  <text x="133.33333333333331" y="375" class="label" text-anchor="middle">2025-11-25</text>
  <text x="133.33333333333331" y="96.53846153846155" class="label" text-anchor="middle">42</text>
  <circle cx="140.0" cy="101.53846153846155" class="point"/>
  <text x="140.0" y="375" class="label" text-anchor="middle">2025-11-26</text>
  <text x="140.0" y="96.53846153846155" class="label" text-anchor="middle">42</text>
  <circle cx="146.66666666666666" cy="101.53846153846155" class="point"/>
  <text x="146.66666666666666" y="375" class="label" text-anchor="middle">2025-11-27</text>
  <text x="146.66666666666666" y="96.53846153846155" class="label" text-anchor="middle">42</text>
  <circle cx="153.33333333333334" cy="101.53846153846155" class="point"/>
  <text x="153.33333333333334" y="375" class="label" text-anchor="middle">2025-11-28</text>
  <text x="153.33333333333334" y="96.53846153846155" class="label" text-anchor="middle">42</text>
  <circle cx="160.0" cy="101.53846153846155" class="point"/>
  <text x="160.0" y="375" class="label" text-anchor="middle">2025-11-29</text>
  <text x="160.0" y="96.53846153846155" class="label" text-anchor="middle">42</text>
  <circle cx="166.66666666666669" cy="101.53846153846155" class="point"/>
  <text x="166.66666666666669" y="375" class="label" text-anchor="middle">2025-11-30</text>
  <text x="166.66666666666669" y="96.53846153846155" class="label" text-anchor="middle">42</text>
  <circle cx="173.33333333333331" cy="101.53846153846155" class="point"/>
  <text x="173.33333333333331" y="375" class="label" text-anchor="middle">2025-12-01</text>
  <text x="173.33333333333331" y="96.53846153846155" class="label" text-anchor="middle">42</text>
  <circle cx="180.0" cy="101.53846153846155" class="point"/>
  <text x="180.0" y="375" class="label" text-anchor="middle">2025-12-02</text>
  <text x="180.0" y="96.53846153846155" class="label" text-anchor="middle">42</text>
  <circle cx="186.66666666666666" cy="101.53846153846155" class="point"/>
  <text x="186.66666666666666" y="375" class="label" text-anchor="middle">2025-12-03</text>
  <text x="186.66666666666666" y="96.53846153846155" class="label" text-anchor="middle">42</text>
  <circle cx="193.33333333333334" cy="101.53846153846155" class="point"/>
  <text x="193.33333333333334" y="375" class="label" text-anchor="middle">2025-12-04</text>
  <text x="193.33333333333334" y="96.53846153846155" class="label" text-anchor="middle">42</text>
  <circle cx="200.0" cy="101.53846153846155" class="point"/>
  <text x="200.0" y="375" class="label" text-anchor="middle">2025-12-05</text>
  <text x="200.0" y="96.53846153846155" class="label" text-anchor="middle">42</text>
  <circle cx="206.66666666666666" cy="101.53846153846155" class="point"/>
  <text x="206.66666666666666" y="375" class="label" text-anchor="middle">2025-12-06</text>
  <text x="206.66666666666666" y="96.53846153846155" class="label" text-anchor="middle">42</text>
  <circle cx="213.33333333333331" cy="101.53846153846155" class="point"/>
  <text x="213.33333333333331" y="375" class="label" text-anchor="middle">2025-12-07</text>
  <text x="213.33333333333331" y="96.53846153846155" class="label" text-anchor="middle">42</text>
  <circle cx="220.0" cy="40.0" class="point"/>
  <text x="220.0" y="375" class="label" text-anchor="middle">2025-12-08</text>
  <text x="220.0" y="35.0" class="label" text-anchor="middle">52</text>
  <circle cx="226.66666666666666" cy="40.0" class="point"/>
  <text x="226.66666666666666" y="375" class="label" text-anchor="middle">2025-12-09</text>
  <text x="226.66666666666666" y="35.0" class="label" text-anchor="middle">52</text>
  <circle cx="233.33333333333334" cy="40.0" class="point"/>
  <text x="233.33333333333334" y="375" class="label" text-anchor="middle">2025-12-10</text>
  <text x="233.33333333333334" y="35.0" class="label" text-anchor="middle">52</text>
  <circle cx="240.0" cy="40.0" class="point"/>
  <text x="240.0" y="375" class="label" text-anchor="middle">2025-12-11</text>
  <text x="240.0" y="35.0" class="label" text-anchor="middle">52</text>
  <circle cx="246.66666666666666" cy="40.0" class="point"/>
  <text x="246.66666666666666" y="375" class="label" text-anchor="middle">2025-12-12</text>
  <text x="246.66666666666666" y="35.0" class="label" text-anchor="middle">52</text>
  <circle cx="253.33333333333331" cy="40.0" class="point"/>
  <text x="253.33333333333331" y="375" class="label" text-anchor="middle">2025-12-13</text>
  <text x="253.33333333333331" y="35.0" class="label" text-anchor="middle">52</text>
  <circle cx="260.0" cy="40.0" class="point"/>
  <text x="260.0" y="375" class="label" text-anchor="middle">2025-12-14</text>
  <text x="260.0" y="35.0" class="label" text-anchor="middle">52</text>
  <circle cx="266.6666666666667" cy="40.0" class="point"/>
  <text x="266.6666666666667" y="375" class="label" text-anchor="middle">2025-12-15</text>
  <text x="266.6666666666667" y="35.0" class="label" text-anchor="middle">52</text>
  <circle cx="273.33333333333337" cy="40.0" class="point"/>
  <text x="273.33333333333337" y="375" class="label" text-anchor="middle">2025-12-16</text>
  <text x="273.33333333333337" y="35.0" class="label" text-anchor="middle">52</text>
  <circle cx="280.0" cy="40.0" class="point"/>
  <text x="280.0" y="375" class="label" text-anchor="middle">2025-12-17</text>
  <text x="280.0" y="35.0" class="label" text-anchor="middle">52</text>
  <circle cx="286.6666666666667" cy="40.0" class="point"/>
  <text x="286.6666666666667" y="375" class="label" text-anchor="middle">2025-12-18</text>
  <text x="286.6666666666667" y="35.0" class="label" text-anchor="middle">52</text>
  <circle cx="293.33333333333337" cy="40.0" class="point"/>
  <text x="293.33333333333337" y="375" class="label" text-anchor="middle">2025-12-19</text>
  <text x="293.33333333333337" y="35.0" class="label" text-anchor="middle">52</text>
  <circle cx="300.0" cy="40.0" class="point"/>
  <text x="300.0" y="375" class="label" text-anchor="middle">2025-12-20</text>
  <text x="300.0" y="35.0" class="label" text-anchor="middle">52</text>
  <circle cx="306.66666666666663" cy="40.0" class="point"/>
  <text x="306.66666666666663" y="375" class="label" text-anchor="middle">2025-12-21</text>
  <text x="306.66666666666663" y="35.0" class="label" text-anchor="middle">52</text>
  <circle cx="313.33333333333337" cy="40.0" class="point"/>
  <text x="313.33333333333337" y="375" class="label" text-anchor="middle">2025-12-22</text>
  <text x="313.33333333333337" y="35.0" class="label" text-anchor="middle">52</text>
  <circle cx="320.0" cy="40.0" class="point"/>
  <text x="320.0" y="375" class="label" text-anchor="middle">2025-12-23</text>
  <text x="320.0" y="35.0" class="label" text-anchor="middle">52</text>
  <circle cx="326.6666666666667" cy="40.0" class="point"/>
  <text x="326.6666666666667" y="375" class="label" text-anchor="middle">2025-12-24</text>
  <text x="326.6666666666667" y="35.0" class="label" text-anchor="middle">52</text>
  <circle cx="333.3333333333333" cy="40.0" class="point"/>
  <text x="333.3333333333333" y="375" class="label" text-anchor="middle">2025-12-25</text>
  <text x="333.3333333333333" y="35.0" class="label" text-anchor="middle">52</text>
  <circle cx="340.0" cy="40.0" class="point"/>
  <text x="340.0" y="375" class="label" text-anchor="middle">2025-12-26</text>
  <text x="340.0" y="35.0" class="label" text-anchor="middle">52</text>
  <circle cx="346.6666666666667" cy="40.0" class="point"/>
  <text x="346.6666666666667" y="375" class="label" text-anchor="middle">2025-12-27</text>
  <text x="346.6666666666667" y="35.0" class="label" text-anchor="middle">52</text>
  <circle cx="353.3333333333333" cy="40.0" class="point"/>
  <text x="353.3333333333333" y="375" class="label" text-anchor="middle">2025-12-28</text>
  <text x="353.3333333333333" y="35.0" class="label" text-anchor="middle">52</text>
  <circle cx="360.0" cy="40.0" class="point"/>
  <text x="360.0" y="375" class="label" text-anchor="middle">2025-12-29</text>
  <text x="360.0" y="35.0" class="label" text-anchor="middle">52</text>
  <circle cx="366.6666666666667" cy="40.0" class="point"/>
  <text x="366.6666666666667" y="375" class="label" text-anchor="middle">2025-12-30</text>
  <text x="366.6666666666667" y="35.0" class="label" text-anchor="middle">52</text>
  <circle cx="373.3333333333333" cy="40.0" class="point"/>
  <text x="373.3333333333333" y="375" class="label" text-anchor="middle">2025-12-31</text>
  <text x="373.3333333333333" y="35.0" class="label" text-anchor="middle">52</text>
  <circle cx="380.0" cy="40.0" class="point"/>
  <text x="380.0" y="375" class="label" text-anchor="middle">2026-01-01</text>
  <text x="380.0" y="35.0" class="label" text-anchor="middle">52</text>
  <circle cx="386.66666666666663" cy="40.0" class="point"/>
  <text x="386.66666666666663" y="375" class="label" text-anchor="middle">2026-01-02</text>
  <text x="386.66666666666663" y="35.0" class="label" text-anchor="middle">52</text>
  <circle cx="393.33333333333337" cy="40.0" class="point"/>
  <text x="393.33333333333337" y="375" class="label" text-anchor="middle">2026-01-03</text>
  <text x="393.33333333333337" y="35.0" class="label" text-anchor="middle">52</text>
  <circle cx="400.0" cy="40.0" class="point"/>
  <text x="400.0" y="375" class="label" text-anchor="middle">2026-01-04</text>
  <text x="400.0" y="35.0" class="label" text-anchor="middle">52</text>
  <circle cx="406.6666666666667" cy="40.0" class="point"/>
  <text x="406.6666666666667" y="375" class="label" text-anchor="middle">2026-01-05</text>
  <text x="406.6666666666667" y="35.0" class="label" text-anchor="middle">52</text>
  <circle cx="413.3333333333333" cy="40.0" class="point"/>
  <text x="413.3333333333333" y="375" class="label" text-anchor="middle">2026-01-06</text>
  <text x="413.3333333333333" y="35.0" class="label" text-anchor="middle">52</text>
  <circle cx="420.0" cy="40.0" class="point"/>
  <text x="420.0" y="375" class="label" text-anchor="middle">2026-01-07</text>
  <text x="420.0" y="35.0" class="label" text-anchor="middle">52</text>
  <circle cx="426.6666666666667" cy="40.0" class="point"/>
  <text x="426.6666666666667" y="375" class="label" text-anchor="middle">2026-01-08</text>
  <text x="426.6666666666667" y="35.0" class="label" text-anchor="middle">52</text>
  <circle cx="433.3333333333333" cy="40.0" class="point"/>
  <text x="433.3333333333333" y="375" class="label" text-anchor="middle">2026-01-09</text>
  <text x="433.3333333333333" y="35.0" class="label" text-anchor="middle">52</text>
  <circle cx="440.0" cy="40.0" class="point"/>
  <text x="440.0" y="375" class="label" text-anchor="middle">2026-01-10</text>
  <text x="440.0" y="35.0" class="label" text-anchor="middle">52</text>
  <circle cx="446.66666666666663" cy="40.0" class="point"/>
  <text x="446.66666666666663" y="375" class="label" text-anchor="middle">2026-01-11</text>
  <text x="446.66666666666663" y="35.0" class="label" text-anchor="middle">52</text>
  <circle cx="453.3333333333333" cy="40.0" class="point"/>
  <text x="453.3333333333333" y="375" class="label" text-anchor="middle">2026-01-12</text>
  <text x="453.3333333333333" y="35.0" class="label" text-anchor="middle">52</text>
  <circle cx="460.0" cy="40.0" class="point"/>
  <text x="460.0" y="375" class="label" text-anchor="middle">2026-01-13</text>
  <text x="460.0" y="35.0" class="label" text-anchor="middle">52</text>
  <circle cx="466.66666666666663" cy="40.0" class="point"/>
  <text x="466.66666666666663" y="375" class="label" text-anchor="middle">2026-01-14</text>
  <text x="466.66666666666663" y="35.0" class="label" text-anchor="middle">52</text>
  <circle cx="473.3333333333333" cy="40.0" class="point"/>
  <text x="473.3333333333333" y="375" class="label" text-anchor="middle">2026-01-15</text>
  <text x="473.3333333333333" y="35.0" class="label" text-anchor="middle">52</text>
  <circle cx="480.00000000000006" cy="40.0" class="point"/>
  <text x="480.00000000000006" y="375" class="label" text-anchor="middle">2026-01-16</text>
  <text x="480.00000000000006" y="35.0" class="label" text-anchor="middle">52</text>
  <circle cx="486.66666666666663" cy="40.0" class="point"/>
  <text x="486.66666666666663" y="375" class="label" text-anchor="middle">2026-01-17</text>
  <text x="486.66666666666663" y="35.0" class="label" text-anchor="middle">52</text>
  <circle cx="493.33333333333337" cy="40.0" class="point"/>
  <text x="493.33333333333337" y="375" class="label" text-anchor="middle">2026-01-18</text>
  <text x="493.33333333333337" y="35.0" class="label" text-anchor="middle">52</text>
  <circle cx="499.99999999999994" cy="40.0" class="point"/>
  <text x="499.99999999999994" y="375" class="label" text-anchor="middle">2026-01-19</text>
  <text x="499.99999999999994" y="35.0" class="label" text-anchor="middle">52</text>
  <circle cx="506.6666666666667" cy="40.0" class="point"/>
  <text x="506.6666666666667" y="375" class="label" text-anchor="middle">2026-01-20</text>
  <text x="506.6666666666667" y="35.0" class="label" text-anchor="middle">52</text>
  <circle cx="513.3333333333334" cy="40.0" class="point"/>
  <text x="513.3333333333334" y="375" class="label" text-anchor="middle">2026-01-21</text>
  <text x="513.3333333333334" y="35.0" class="label" text-anchor="middle">52</text>
  <circle cx="520.0" cy="40.0" class="point"/>
  <text x="520.0" y="375" class="label" text-anchor="middle">2026-01-22</text>
  <text x="520.0" y="35.0" class="label" text-anchor="middle">52</text>
  <circle cx="526.6666666666667" cy="40.0" class="point"/>
  <text x="526.6666666666667" y="375" class="label" text-anchor="middle">2026-01-23</text>
  <text x="526.6666666666667" y="35.0" class="label" text-anchor="middle">52</text>
  <circle cx="533.3333333333334" cy="40.0" class="point"/>
  <text x="533.3333333333334" y="375" class="label" text-anchor="middle">2026-01-24</text>
  <text x="533.3333333333334" y="35.0" class="label" text-anchor="middle">52</text>
  <circle cx="540.0" cy="40.0" class="point"/>
  <text x="540.0" y="375" class="label" text-anchor="middle">2026-01-25</text>
  <text x="540.0" y="35.0" class="label" text-anchor="middle">52</text>
  <circle cx="546.6666666666667" cy="40.0" class="point"/>
  <text x="546.6666666666667" y="375" class="label" text-anchor="middle">2026-01-26</text>
  <text x="546.6666666666667" y="35.0" class="label" text-anchor="middle">52</text>
  <circle cx="553.3333333333333" cy="40.0" class="point"/>
  <text x="553.3333333333333" y="375" class="label" text-anchor="middle">2026-01-27</text>
  <text x="553.3333333333333" y="35.0" class="label" text-anchor="middle">52</text>
  <circle cx="560.0" cy="40.0" class="point"/>
  <text x="560.0" y="375" class="label" text-anchor="middle">2026-01-28</text>
  <text x="560.0" y="35.0" class="label" text-anchor="middle">52</text>
  <circle cx="566.6666666666667" cy="40.0" class="point"/>
  <text x="566.6666666666667" y="375" class="label" text-anchor="middle">2026-01-29</text>
  <text x="566.6666666666667" y="35.0" class="label" text-anchor="middle">52</text>
  <circle cx="573.3333333333333" cy="40.0" class="point"/>
  <text x="573.3333333333333" y="375" class="label" text-anchor="middle">2026-01-30</text>
  <text x="573.3333333333333" y="35.0" class="label" text-anchor="middle">52</text>
  <circle cx="580.0" cy="40.0" class="point"/>
  <text x="580.0" y="375" class="label" text-anchor="middle">2026-01-31</text>
  <text x="580.0" y="35.0" class="label" text-anchor="middle">52</text>
  <circle cx="586.6666666666667" cy="40.0" class="point"/>
  <text x="586.6666666666667" y="375" class="label" text-anchor="middle">2026-02-01</text>
  <text x="586.6666666666667" y="35.0" class="label" text-anchor="middle">52</text>
  <circle cx="593.3333333333333" cy="40.0" class="point"/>
  <text x="593.3333333333333" y="375" class="label" text-anchor="middle">2026-02-02</text>
  <text x="593.3333333333333" y="35.0" class="label" text-anchor="middle">52</text>
  <circle cx="600.0" cy="40.0" class="point"/>
  <text x="600.0" y="375" class="label" text-anchor="middle">2026-02-03</text>
  <text x="600.0" y="35.0" class="label" text-anchor="middle">52</text>
  <circle cx="606.6666666666667" cy="40.0" class="point"/>
  <text x="606.6666666666667" y="375" class="label" text-anchor="middle">2026-02-04</text>
  <text x="606.6666666666667" y="35.0" class="label" text-anchor="middle">52</text>
  <circle cx="613.3333333333334" cy="40.0" class="point"/>
  <text x="613.3333333333334" y="375" class="label" text-anchor="middle">2026-02-05</text>
  <text x="613.3333333333334" y="35.0" class="label" text-anchor="middle">52</text>
  <circle cx="620.0" cy="40.0" class="point"/>
  <text x="620.0" y="375" class="label" text-anchor="middle">2026-02-06</text>
  <text x="620.0" y="35.0" class="label" text-anchor="middle">52</text>
  <circle cx="626.6666666666666" cy="40.0" class="point"/>
  <text x="626.6666666666666" y="375" class="label" text-anchor="middle">2026-02-07</text>
  <text x="626.6666666666666" y="35.0" class="label" text-anchor="middle">52</text>
  <circle cx="633.3333333333334" cy="40.0" class="point"/>
  <text x="633.3333333333334" y="375" class="label" text-anchor="middle">2026-02-08</text>
  <text x="633.3333333333334" y="35.0" class="label" text-anchor="middle">52</text>
  <circle cx="640.0" cy="40.0" class="point"/>
  <text x="640.0" y="375" class="label" text-anchor="middle">2026-02-09</text>
  <text x="640.0" y="35.0" class="label" text-anchor="middle">52</text>
  <circle cx="646.6666666666666" cy="40.0" class="point"/>
  <text x="646.6666666666666" y="375" class="label" text-anchor="middle">2026-02-10</text>
  <text x="646.6666666666666" y="35.0" class="label" text-anchor="middle">52</text>
  <circle cx="653.3333333333334" cy="40.0" class="point"/>
  <text x="653.3333333333334" y="375" class="label" text-anchor="middle">2026-02-11</text>
  <text x="653.3333333333334" y="35.0" class="label" text-anchor="middle">52</text>
  <circle cx="660.0" cy="40.0" class="point"/>
  <text x="660.0" y="375" class="label" text-anchor="middle">2026-02-12</text>
  <text x="660.0" y="35.0" class="label" text-anchor="middle">52</text>
  <circle cx="666.6666666666666" cy="40.0" class="point"/>
  <text x="666.6666666666666" y="375" class="label" text-anchor="middle">2026-02-13</text>
  <text x="666.6666666666666" y="35.0" class="label" text-anchor="middle">52</text>
  <circle cx="673.3333333333334" cy="40.0" class="point"/>
  <text x="673.3333333333334" y="375" class="label" text-anchor="middle">2026-02-14</text>
  <text x="673.3333333333334" y="35.0" class="label" text-anchor="middle">52</text>
  <circle cx="680.0" cy="40.0" class="point"/>
  <text x="680.0" y="375" class="label" text-anchor="middle">2026-02-15</text>
  <text x="680.0" y="35.0" class="label" text-anchor="middle">52</text>
  <circle cx="686.6666666666666" cy="40.0" class="point"/>
  <text x="686.6666666666666" y="375" class="label" text-anchor="middle">2026-02-16</text>
  <text x="686.6666666666666" y="35.0" class="label" text-anchor="middle">52</text>
  <circle cx="693.3333333333334" cy="40.0" class="point"/>
  <text x="693.3333333333334" y="375" class="label" text-anchor="middle">2026-02-17</text>
  <text x="693.3333333333334" y="35.0" class="label" text-anchor="middle">52</text>
  <circle cx="700.0" cy="40.0" class="point"/>
  <text x="700.0" y="375" class="label" text-anchor="middle">2026-02-18</text>
  <text x="700.0" y="35.0" class="label" text-anchor="middle">52</text>
  <circle cx="706.6666666666666" cy="40.0" class="point"/>
  <text x="706.6666666666666" y="375" class="label" text-anchor="middle">2026-02-19</text>
  <text x="706.6666666666666" y="35.0" class="label" text-anchor="middle">52</text>
  <circle cx="713.3333333333334" cy="40.0" class="point"/>
  <text x="713.3333333333334" y="375" class="label" text-anchor="middle">2026-02-20</text>
  <text x="713.3333333333334" y="35.0" class="label" text-anchor="middle">52</text>
  <circle cx="720.0" cy="40.0" class="point"/>
  <text x="720.0" y="375" class="label" text-anchor="middle">2026-02-21</text>
  <text x="720.0" y="35.0" class="label" text-anchor="middle">52</text>
  <circle cx="726.6666666666666" cy="40.0" class="point"/>
  <text x="726.6666666666666" y="375" class="label" text-anchor="middle">2026-02-22</text>
  <text x="726.6666666666666" y="35.0" class="label" text-anchor="middle">52</text>
  <circle cx="733.3333333333333" cy="40.0" class="point"/>
  <text x="733.3333333333333" y="375" class="label" text-anchor="middle">2026-02-23</text>
  <text x="733.3333333333333" y="35.0" class="label" text-anchor="middle">52</text>
  <circle cx="740.0" cy="40.0" class="point"/>
  <text x="740.0" y="375" class="label" text-anchor="middle">2026-02-24</text>
  <text x="740.0" y="35.0" class="label" text-anchor="middle">52</text>
  <circle cx="746.6666666666667" cy="40.0" class="point"/>
  <text x="746.6666666666667" y="375" class="label" text-anchor="middle">2026-02-25</text>
  <text x="746.6666666666667" y="35.0" class="label" text-anchor="middle">52</text>
  <circle cx="753.3333333333333" cy="40.0" class="point"/>
  <text x="753.3333333333333" y="375" class="label" text-anchor="middle">2026-02-26</text>
  <text x="753.3333333333333" y="35.0" class="label" text-anchor="middle">52</text>
  <circle cx="760.0" cy="40.0" class="point"/>
  <text x="760.0" y="375" class="label" text-anchor="middle">2026-02-27</text>
  <text x="760.0" y="35.0" class="label" text-anchor="middle">52</text>
  <text x="30" y="363.0" class="label" text-anchor="end">0</text>
  <text x="30" y="301.46153846153845" class="label" text-anchor="end">10</text>
  <text x="30" y="239.9230769230769" class="label" text-anchor="end">20</text>
  <text x="30" y="178.38461538461542" class="label" text-anchor="end">30</text>
  <text x="30" y="116.84615384615384" class="label" text-anchor="end">40</text>
  <text x="30" y="55.30769230769232" class="label" text-anchor="end">50</text>
</svg>