<svg xmlns="http://www.w3.org/2000/svg" width="800" height="400" viewBox="0 0 800 400">
  <style>
    .axis{stroke:#666;stroke-width:1}
    .line{stroke:#4a9;stroke-width:2;fill:none}
    .point{fill:#4a9;r:4}
    .label{font:10px sans-serif;fill:#aaa}
    .title{font:14px sans-serif;fill:#333}
  </style>
  <text x="400" y="20" class="title" text-anchor="middle">OPIC Field Growth Timeline</text>
  <line x1="40" y1="40" x2="40" y2="360" class="axis"/>
  <line x1="40" y1="360" x2="760" y2="360" class="axis"/>
  <path d="M 40.0,101.53846153846155 L 46.206896551724135,101.53846153846155 L 52.41379310344828,101.53846153846155 L 58.62068965517241,101.53846153846155 L 64.82758620689656,101.53846153846155 L 71.0344827586207,101.53846153846155 L 77.24137931034483,101.53846153846155 L 83.44827586206897,101.53846153846155 L 89.65517241379311,101.53846153846155 L 95.86206896551724,101.53846153846155 L 102.06896551724138,101.53846153846155 L 108.27586206896551,101.53846153846155 L 114.48275862068965,101.53846153846155 L 120.6896551724138,101.53846153846155 L 126.89655172413794,101.53846153846155 L 133.1034482758621,101.53846153846155 L 139.31034482758622,101.53846153846155 L 145.51724137931035,101.53846153846155 L 151.72413793103448,101.53846153846155 L 157.9310344827586,101.53846153846155 L 164.13793103448276,101.53846153846155 L 170.3448275862069,101.53846153846155 L 176.55172413793102,101.53846153846155 L 182.75862068965517,101.53846153846155 L 188.9655172413793,101.53846153846155 L 195.17241379310343,101.53846153846155 L 201.3793103448276,101.53846153846155 L 207.58620689655172,40.0 L 213.79310344827587,40.0 L 220.0,40.0 L 226.20689655172416,40.0 L 232.41379310344826,40.0 L 238.6206896551724,40.0 L 244.82758620689657,40.0 L 251.03448275862067,40.0 L 257.2413793103448,40.0 L 263.44827586206895,40.0 L 269.65517241379314,40.0 L 275.8620689655172,40.0 L 282.0689655172414,40.0 L 288.2758620689655,40.0 L 294.48275862068965,40.0 L 300.6896551724138,40.0 L 306.89655172413796,40.0 L 313.10344827586204,40.0 L 319.3103448275862,40.0 L 325.51724137931035,40.0 L 331.7241379310345,40.0 L 337.9310344827586,40.0 L 344.1379310344828,40.0 L 350.34482758620686,40.0 L 356.55172413793105,40.0 L 362.7586206896552,40.0 L 368.9655172413793,40.0 L 375.17241379310343,40.0 L 381.3793103448276,40.0 L 387.58620689655174,40.0 L 393.7931034482759,40.0 L 400.0,40.0 L 406.2068965517241,40.0 L 412.4137931034483,40.0 L 418.6206896551724,40.0 L 424.8275862068965,40.0 L 431.0344827586207,40.0 L 437.2413793103448,40.0 L 443.44827586206895,40.0 L 449.65517241379314,40.0 L 455.8620689655172,40.0 L 462.06896551724134,40.0 L 468.2758620689655,40.0 L 474.48275862068965,40.0 L 480.6896551724138,40.0 L 486.89655172413796,40.0 L 493.10344827586204,40.0 L 499.3103448275862,40.0 L 505.51724137931035,40.0 L 511.7241379310345,40.0 L 517.9310344827586,40.0 L 524.1379310344828,40.0 L 530.3448275862069,40.0 L 536.551724137931,40.0 L 542.7586206896551,40.0 L 548.9655172413793,40.0 L 555.1724137931035,40.0 L 561.3793103448276,40.0 L 567.5862068965517,40.0 L 573.7931034482759,40.0 L 580.0,40.0 L 586.2068965517241,40.0 L 592.4137931034483,40.0 L 598.6206896551724,40.0 L 604.8275862068965,40.0 L 611.0344827586207,40.0 L 617.2413793103448,40.0 L 623.448275862069,40.0 L 629.6551724137931,40.0 L 635.8620689655172,40.0 L 642.0689655172414,40.0 L 648.2758620689656,40.0 L 654.4827586206897,40.0 L 660.6896551724137,40.0 L 666.8965517241379,40.0 L 673.1034482758621,40.0 L 679.3103448275863,40.0 L 685.5172413793103,40.0 L 691.7241379310344,40.0 L 697.9310344827586,40.0 L 704.1379310344828,40.0 L 710.3448275862069,40.0 L 716.551724137931,40.0 L 722.7586206896552,40.0 L 728.9655172413793,40.0 L 735.1724137931035,40.0 L 741.3793103448276,40.0 L 747.5862068965517,40.0 L 753.7931034482759,40.0 L 760.0,40.0" class="line"/>
  <circle cx="40.0" cy="101.53846153846155" class="point"/>
  <text x="40.0" y="375" class="label" text-anchor="middle">2025-11-11</text>
  <text x="40.0" y="96.53846153846155" class="label" text-anchor="middle">42</text>
  <circle cx="46.206896551724135" cy="101.53846153846155" class="point"/>
  <text x="46.206896551724135" y="375" class="label" text-anchor="middle">2025-11-12</text>
  <text x="46.206896551724135" y="96.53846153846155" class="label" text-anchor="middle">42</text>
  <circle cx="52.41379310344828" cy="101.53846153846155" class="point"/>
  <text x="52.41379310344828" y="375" class="label" text-anchor="middle">2025-11-13</text>
  <text x="52.41379310344828" y="96.53846153846155" class="label" text-anchor="middle">42</text>
  <circle cx="58.62068965517241" cy="101.53846153846155" class="point"/>
  <text x="58.62068965517241" y="375" class="label" text-anchor="middle">2025-11-14</text>
  <text x="58.62068965517241" y="96.53846153846155" class="label" text-anchor="middle">42</text>
  <circle cx="64.82758620689656" cy="101.53846153846155" class="point"/>
  <text x="64.82758620689656" y="375" class="label" text-anchor="middle">2025-11-15</text>
  <text x="64.82758620689656" y="96.53846153846155" class="label" text-anchor="middle">42</text>
  <circle cx="71.0344827586207" cy="101.53846153846155" class="point"/>
  <text x="71.0344827586207" y="375" class="label" text-anchor="middle">2025-11-16</text>
  <text x="71.0344827586207" y="96.53846153846155" class="label" text-anchor="middle">42</text>
  <circle cx="77.24137931034483" cy="101.53846153846155" class="point"/>
  <text x="77.24137931034483" y="375" class="label" text-anchor="middle">2025-11-17</text>
  <text x="77.24137931034483" y="96.53846153846155" class="label" text-anchor="middle">42</text>
  <circle cx="83.44827586206897" cy="101.53846153846155" class="point"/>
  <text x="83.44827586206897" y="375" class="label" text-anchor="middle">2025-11-18</text>
  <text x="83.44827586206897" y="96.53846153846155" class="label" text-anchor="middle">42</text>
  <circle cx="89.65517241379311" cy="101.53846153846155" class="point"/>
  <text x="89.65517241379311" y="375" class="label" text-anchor="middle">2025-11-19</text>
  <text x="89.65517241379311" y="96.53846153846155" class="label" text-anchor="middle">42</text>
  <circle cx="95.86206896551724" cy="101.53846153846155" class="point"/>
  <text x="95.86206896551724" y="375" class="label" text-anchor="middle">2025-11-20</text>
  <text x="95.86206896551724" y="96.53846153846155" class="label" text-anchor="middle">42</text>
  <circle cx="102.06896551724138" cy="101.53846153846155" class="point"/>
  <text x="102.06896551724138" y="375" class="label" text-anchor="middle">2025-11-21</text>
  <text x="102.06896551724138" y="96.53846153846155" class="label" text-anchor="middle">42</text>
  <circle cx="108.27586206896551" cy="101.53846153846155" class="point"/>
  <text x="108.27586206896551" y="375" class="label" text-anchor="middle">2025-11-22</text>
  <text x="108.27586206896551" y="96.53846153846155" class="label" text-anchor="middle">42</text>
  <circle cx="114.48275862068965" cy="101.53846153846155" class="point"/>
  <text x="114.48275862068965" y="375" class="label" text-anchor="middle">2025-11-23</text>
  <text x="114.48275862068965" y="96.53846153846155" class="label" text-anchor="middle">42</text>
  <circle cx="120.6896551724138" cy="101.53846153846155" class="point"/>
  <text x="120.6896551724138" y="375" class="label" text-anchor="middle">2025-11-24</text>
  <text x="120.6896551724138" y="96.53846153846155" class="label" text-anchor="middle">42</text>
  <circle cx="126.89655172413794" cy="101.53846153846155" class="point"/>
  <text x="126.89655172413794" y="375" class="label" text-anchor="middle">2025-11-25</text>
  <text x="126.89655172413794" y="96.53846153846155" class="label" text-anchor="middle">42</text>
  <circle cx="133.1034482758621" cy="101.53846153846155" class="point"/>
  <text x="133.1034482758621" y="375" class="label" text-anchor="middle">2025-11-26</text>
  <text x="133.1034482758621" y="96.53846153846155" class="label" text-anchor="middle">42</text>
  <circle cx="139.31034482758622" cy="101.53846153846155" class="point"/>
  <text x="139.31034482758622" y="375" class="label" text-anchor="middle">2025-11-27</text>
  <text x="139.31034482758622" y="96.53846153846155" class="label" text-anchor="middle">42</text>
  <circle cx="145.51724137931035" cy="101.53846153846155" class="point"/>
  <text x="145.51724137931035" y="375" class="label" text-anchor="middle">2025-11-28</text>
  <text x="145.51724137931035" y="96.53846153846155" class="label" text-anchor="middle">42</text>
  <circle cx="151.72413793103448" cy="101.53846153846155" class="point"/>
  <text x="151.72413793103448" y="375" class="label" text-anchor="middle">2025-11-29</text>
  <text x="151.72413793103448" y="96.53846153846155" class="label" text-anchor="middle">42</text>
  <circle cx="157.9310344827586" cy="101.53846153846155" class="point"/>
  <text x="157.9310344827586" y="375" class="label" text-anchor="middle">2025-11-30</text>
  <text x="157.9310344827586" y="96.53846153846155" class="label" text-anchor="middle">42</text>
  <circle cx="164.13793103448276" cy="101.53846153846155" class="point"/>
  <text x="164.13793103448276" y="375" class="label" text-anchor="middle">2025-12-01</text>
  <text x="164.13793103448276" y="96.53846153846155" class="label" text-anchor="middle">42</text>
  <circle cx="170.3448275862069" cy="101.53846153846155" class="point"/>
  <text x="170.3448275862069" y="375" class="label" text-anchor="middle">2025-12-02</text>
  <text x="170.3448275862069" y="96.53846153846155" class="label" text-anchor="middle">42</text>
  <circle cx="176.55172413793102" cy="101.53846153846155" class="point"/>
  <text x="176.55172413793102" y="375" class="label" text-anchor="middle">2025-12-03</text>
  <text x="176.55172413793102" y="96.53846153846155" class="label" text-anchor="middle">42</text>
  <circle cx="182.75862068965517" cy="101.53846153846155" class="point"/>
  <text x="182.75862068965517" y="375" class="label" text-anchor="middle">2025-12-04</text>
  <text x="182.75862068965517" y="96.53846153846155" class="label" text-anchor="middle">42</text>
  <circle cx="188.9655172413793" cy="101.53846153846155" class="point"/>
  <text x="188.9655172413793" y="375" class="label" text-anchor="middle">2025-12-05</text>
  <text x="188.9655172413793" y="96.53846153846155" class="label" text-anchor="middle">42</text>
  <circle cx="195.17241379310343" cy="101.53846153846155" class="point"/>
  <text x="195.17241379310343" y="375" class="label" text-anchor="middle">2025-12-06</text>
  <text x="195.17241379310343" y="96.53846153846155" class="label" text-anchor="middle">42</text>
  <circle cx="201.3793103448276" cy="101.53846153846155" class="point"/>
  <text x="201.3793103448276" y="375" class="label" text-anchor="middle">2025-12-07</text>
  <text x="201.3793103448276" y="96.53846153846155" class="label" text-anchor="middle">42</text>
  <circle cx="207.58620689655172" cy="40.0" class="point"/>
  <text x="207.58620689655172" y="375" class="label" text-anchor="middle">2025-12-08</text>
  <text x="207.58620689655172" y="35.0" class="label" text-anchor="middle">52</text>
  <circle cx="213.79310344827587" cy="40.0" class="point"/>
  <text x="213.79310344827587" y="375" class="label" text-anchor="middle">2025-12-09</text>
  <text x="213.79310344827587" y="35.0" class="label" text-anchor="middle">52</text>
  <circle cx="220.0" cy="40.0" class="point"/>
  <text x="220.0" y="375" class="label" text-anchor="middle">2025-12-10</text>
  <text x="220.0" y="35.0" class="label" text-anchor="middle">52</text>
  <circle cx="226.20689655172416" cy="40.0" class="point"/>
  <text x="226.20689655172416" y="375" class="label" text-anchor="middle">2025-12-11</text>
  <text x="226.20689655172416" y="35.0" class="label" text-anchor="middle">52</text>
  <circle cx="232.41379310344826" cy="40.0" class="point"/>
  <text x="232.41379310344826" y="375" class="label" text-anchor="middle">2025-12-12</text>
  <text x="232.41379310344826" y="35.0" class="label" text-anchor="middle">52</text>
  <circle cx="238.6206896551724" cy="40.0" class="point"/>
  <text x="238.6206896551724" y="375" class="label" text-anchor="middle">2025-12-13</text>
  <text x="238.6206896551724" y="35.0" class="label" text-anchor="middle">52</text>
  <circle cx="244.82758620689657" cy="40.0" class="point"/>
  <text x="244.82758620689657" y="375" class="label" text-anchor="middle">2025-12-14</text>
  <text x="244.82758620689657" y="35.0" class="label" text-anchor="middle">52</text>
  <circle cx="251.03448275862067" cy="40.0" class="point"/>
  <text x="251.03448275862067" y="375" class="label" text-anchor="middle">2025-12-15</text>
  <text x="251.03448275862067" y="35.0" class="label" text-anchor="middle">52</text>
  <circle cx="257.2413793103448" cy="40.0" class="point"/>
  <text x="257.2413793103448" y="375" class="label" text-anchor="middle">2025-12-16</text>
  <text x="257.2413793103448" y="35.0" class="label" text-anchor="middle">52</text>
  <circle cx="263.44827586206895" cy="40.0" class="point"/>
  <text x="263.44827586206895" y="375" class="label" text-anchor="middle">2025-12-17</text>
  <text x="263.44827586206895" y="35.0" class="label" text-anchor="middle">52</text>
  <circle cx="269.65517241379314" cy="40.0" class="point"/>
  <text x="269.65517241379314" y="375" class="label" text-anchor="middle">2025-12-18</text>
  <text x="269.65517241379314" y="35.0" class="label" text-anchor="middle">52</text>
  <circle cx="275.8620689655172" cy="40.0" class="point"/>
  <text x="275.8620689655172" y="375" class="label" text-anchor="middle">2025-12-19</text>
  <text x="275.8620689655172" y="35.0" class="label" text-anchor="middle">52</text>
  <circle cx="282.0689655172414" cy="40.0" class="point"/>
  <text x="282.0689655172414" y="375" class="label" text-anchor="middle">2025-12-20</text>
  <text x="282.0689655172414" y="35.0" class="label" text-anchor="middle">52</text>
  <circle cx="288.2758620689655" cy="40.0" class="point"/>
  <text x="288.2758620689655" y="375" class="label" text-anchor="middle">2025-12-21</text>
  <text x="288.2758620689655" y="35.0" class="label" text-anchor="middle">52</text>
  <circle cx="294.48275862068965" cy="40.0" class="point"/>
  <text x="294.48275862068965" y="375" class="label" text-anchor="middle">2025-12-22</text>
  <text x="294.48275862068965" y="35.0" class="label" text-anchor="middle">52</text>
  <circle cx="300.6896551724138" cy="40.0" class="point"/>
  <text x="300.6896551724138" y="375" class="label" text-anchor="middle">2025-12-23</text>
  <text x="300.6896551724138" y="35.0" class="label" text-anchor="middle">52</text>
  <circle cx="306.89655172413796" cy="40.0" class="point"/>
  <text x="306.89655172413796" y="375" class="label" text-anchor="middle">2025-12-24</text>
  <text x="306.89655172413796" y="35.0" class="label" text-anchor="middle">52</text>
  <circle cx="313.10344827586204" cy="40.0" class="point"/>
  <text x="313.10344827586204" y="375" class="label" text-anchor="middle">2025-12-25</text>
  <text x="313.10344827586204" y="35.0" class="label" text-anchor="middle">52</text>
  <circle cx="319.3103448275862" cy="40.0" class="point"/>
  <text x="319.3103448275862" y="375" class="label" text-anchor="middle">2025-12-26</text>
  <text x="319.3103448275862" y="35.0" class="label" text-anchor="middle">52</text>
  <circle cx="325.51724137931035" cy="40.0" class="point"/>
  <text x="325.51724137931035" y="375" class="label" text-anchor="middle">2025-12-27</text>
  <text x="325.51724137931035" y="35.0" class="label" text-anchor="middle">52</text>
  <circle cx="331.7241379310345" cy="40.0" class="point"/>
  <text x="331.7241379310345" y="375" class="label" text-anchor="middle">2025-12-28</text>
  <text x="331.7241379310345" y="35.0" class="label" text-anchor="middle">52</text>
  <circle cx="337.9310344827586" cy="40.0" class="point"/>
  <text x="337.9310344827586" y="375" class="label" text-anchor="middle">2025-12-29</text>
  <text x="337.9310344827586" y="35.0" class="label" text-anchor="middle">52</text>
  <circle cx="344.1379310344828" cy="40.0" class="point"/>
  <text x="344.1379310344828" y="375" class="label" text-anchor="middle">2025-12-30</text>
  <text x="344.1379310344828" y="35.0" class="label" text-anchor="middle">52</text>
  <circle cx="350.34482758620686" cy="40.0" class="point"/>
  <text x="350.34482758620686" y="375" class="label" text-anchor="middle">2025-12-31</text>
  <text x="350.34482758620686" y="35.0" class="label" text-anchor="middle">52</text>
  <circle cx="356.55172413793105" cy="40.0" class="point"/>
  <text x="356.55172413793105" y="375" class="label" text-anchor="middle">2026-01-01</text>
  <text x="356.55172413793105" y="35.0" class="label" text-anchor="middle">52</text>
  <circle cx="362.7586206896552" cy="40.0" class="point"/>
  <text x="362.7586206896552" y="375" class="label" text-anchor="middle">2026-01-02</text>
  <text x="362.7586206896552" y="35.0" class="label" text-anchor="middle">52</text>
  <circle cx="368.9655172413793" cy="40.0" class="point"/>
  <text x="368.9655172413793" y="375" class="label" text-anchor="middle">2026-01-03</text>
  <text x="368.9655172413793" y="35.0" class="label" text-anchor="middle">52</text>
  <circle cx="375.17241379310343" cy="40.0" class="point"/>
  <text x="375.17241379310343" y="375" class="label" text-anchor="middle">2026-01-04</text>
  <text x="375.17241379310343" y="35.0" class="label" text-anchor="middle">52</text>
  <circle cx="381.3793103448276" cy="40.0" class="point"/>
  <text x="381.3793103448276" y="375" class="label" text-anchor="middle">2026-01-05</text>
  <text x="381.3793103448276" y="35.0" class="label" text-anchor="middle">52</text>
  <circle cx="387.58620689655174" cy="40.0" class="point"/>
  <text x="387.58620689655174" y="375" class="label" text-anchor="middle">2026-01-06</text>
  <text x="387.58620689655174" y="35.0" class="label" text-anchor="middle">52</text>
  <circle cx="393.7931034482759" cy="40.0" class="point"/>
  <text x="393.7931034482759" y="375" class="label" text-anchor="middle">2026-01-07</text>
  <text x="393.7931034482759" y="35.0" class="label" text-anchor="middle">52</text>
  <circle cx="400.0" cy="40.0" class="point"/>
  <text x="400.0" y="375" class="label" text-anchor="middle">2026-01-08</text>
  <text x="400.0" y="35.0" class="label" text-anchor="middle">52</text>
  <circle cx="406.2068965517241" cy="40.0" class="point"/>
  <text x="406.2068965517241" y="375" class="label" text-anchor="middle">2026-01-09</text>
  <text x="406.2068965517241" y="35.0" class="label" text-anchor="middle">52</text>
  <circle cx="412.4137931034483" cy="40.0" class="point"/>
  <text x="412.4137931034483" y="375" class="label" text-anchor="middle">2026-01-10</text>
  <text x="412.4137931034483" y="35.0" class="label" text-anchor="middle">52</text>
  <circle cx="418.6206896551724" cy="40.0" class="point"/>
  <text x="418.6206896551724" y="375" class="label" text-anchor="middle">2026-01-11</text>
  <text x="418.6206896551724" y="35.0" class="label" text-anchor="middle">52</text>
  <circle cx="424.8275862068965" cy="40.0" class="point"/>
  <text x="424.8275862068965" y="375" class="label" text-anchor="middle">2026-01-12</text>
  <text x="424.8275862068965" y="35.0" class="label" text-anchor="middle">52</text>
  <circle cx="431.0344827586207" cy="40.0" class="point"/>
  <text x="431.0344827586207" y="375" class="label" text-anchor="middle">2026-01-13</text>
  <text x="431.0344827586207" y="35.0" class="label" text-anchor="middle">52</text>
  <circle cx="437.2413793103448" cy="40.0" class="point"/>
  <text x="437.2413793103448" y="375" class="label" text-anchor="middle">2026-01-14</text>
  <text x="437.2413793103448" y="35.0" class="label" text-anchor="middle">52</text>
  <circle cx="443.44827586206895" cy="40.0" class="point"/>
  <text x="443.44827586206895" y="375" class="label" text-anchor="middle">2026-01-15</text>
  <text x="443.44827586206895" y="35.0" class="label" text-anchor="middle">52</text>
  <circle cx="449.65517241379314" cy="40.0" class="point"/>
  <text x="449.65517241379314" y="375" class="label" text-anchor="middle">2026-01-16</text>
  <text x="449.65517241379314" y="35.0" class="label" text-anchor="middle">52</text>
  <circle cx="455.8620689655172" cy="40.0" class="point"/>
  <text x="455.8620689655172" y="375" class="label" text-anchor="middle">2026-01-17</text>
  <text x="455.8620689655172" y="35.0" class="label" text-anchor="middle">52</text>
  <circle cx="462.06896551724134" cy="40.0" class="point"/>
  <text x="462.06896551724134" y="375" class="label" text-anchor="middle">2026-01-18</text>
  <text x="462.06896551724134" y="35.0" class="label" text-anchor="middle">52</text>
  <circle cx="468.2758620689655" cy="40.0" class="point"/>
  <text x="468.2758620689655" y="375" class="label" text-anchor="middle">2026-01-19</text>
  <text x="468.2758620689655" y="35.0" class="label" text-anchor="middle">52</text>
  <circle cx="474.48275862068965" cy="40.0" class="point"/>
  <text x="474.48275862068965" y="375" class="label" text-anchor="middle">2026-01-20</text>
  <text x="474.48275862068965" y="35.0" class="label" text-anchor="middle">52</text>
  <circle cx="480.6896551724138" cy="40.0" class="point"/>
  <text x="480.6896551724138" y="375" class="label" text-anchor="middle">2026-01-21</text>
  <text x="480.6896551724138" y="35.0" class="label" text-anchor="middle">52</text>
  <circle cx="486.89655172413796" cy="40.0" class="point"/>
  <text x="486.89655172413796" y="375" class="label" text-anchor="middle">2026-01-22</text>
  <text x="486.89655172413796" y="35.0" class="label" text-anchor="middle">52</text>
  <circle cx="493.10344827586204" cy="40.0" class="point"/>
  <text x="493.10344827586204" y="375" class="label" text-anchor="middle">2026-01-23</text>
  <text x="493.10344827586204" y="35.0" class="label" text-anchor="middle">52</text>
  <circle cx="499.3103448275862" cy="40.0" class="point"/>
  <text x="499.3103448275862" y="375" class="label" text-anchor="middle">2026-01-24</text>
  <text x="499.3103448275862" y="35.0" class="label" text-anchor="middle">52</text>
  <circle cx="505.51724137931035" cy="40.0" class="point"/>
  <text x="505.51724137931035" y="375" class="label" text-anchor="middle">2026-01-25</text>
  <text x="505.51724137931035" y="35.0" class="label" text-anchor="middle">52</text>
  <circle cx="511.7241379310345" cy="40.0" class="point"/>
  <text x="511.7241379310345" y="375" class="label" text-anchor="middle">2026-01-26</text>
  <text x="511.7241379310345" y="35.0" class="label" text-anchor="middle">52</text>
  <circle cx="517.9310344827586" cy="40.0" class="point"/>
  <text x="517.9310344827586" y="375" class="label" text-anchor="middle">2026-01-27</text>
  <text x="517.9310344827586" y="35.0" class="label" text-anchor="middle">52</text>
  <circle cx="524.1379310344828" cy="40.0" class="point"/>
  <text x="524.1379310344828" y="375" class="label" text-anchor="middle">2026-01-28</text>
  <text x="524.1379310344828" y="35.0" class="label" text-anchor="middle">52</text>
  <circle cx="530.3448275862069" cy="40.0" class="point"/>
  <text x="530.3448275862069" y="375" class="label" text-anchor="middle">2026-01-29</text>
  <text x="530.3448275862069" y="35.0" class="label" text-anchor="middle">52</text>
  <circle cx="536.551724137931" cy="40.0" class="point"/>
  <text x="536.551724137931" y="375" class="label" text-anchor="middle">2026-01-30</text>
  <text x="536.551724137931" y="35.0" class="label" text-anchor="middle">52</text>
  <circle cx="542.7586206896551" cy="40.0" class="point"/>
  <text x="542.7586206896551" y="375" class="label" text-anchor="middle">2026-01-31</text>
  <text x="542.7586206896551" y="35.0" class="label" text-anchor="middle">52</text>
  <circle cx="548.9655172413793" cy="40.0" class="point"/>
  <text x="548.9655172413793" y="375" class="label" text-anchor="middle">2026-02-01</text>
  <text x="548.9655172413793" y="35.0" class="label" text-anchor="middle">52</text>
  <circle cx="555.1724137931035" cy="40.0" class="point"/>
  <text x="555.1724137931035" y="375" class="label" text-anchor="middle">2026-02-02</text>
  <text x="555.1724137931035" y="35.0" class="label" text-anchor="middle">52</text>
  <circle cx="561.3793103448276" cy="40.0" class="point"/>
  <text x="561.3793103448276" y="375" class="label" text-anchor="middle">2026-02-03</text>
  <text x="561.3793103448276" y="35.0" class="label" text-anchor="middle">52</text>
  <circle cx="567.5862068965517" cy="40.0" class="point"/>
  <text x="567.5862068965517" y="375" class="label" text-anchor="middle">2026-02-04</text>
  <text x="567.5862068965517" y="35.0" class="label" text-anchor="middle">52</text>
  <circle cx="573.7931034482759" cy="40.0" class="point"/>
  <text x="573.7931034482759" y="375" class="label" text-anchor="middle">2026-02-05</text>
  <text x="573.7931034482759" y="35.0" class="label" text-anchor="middle">52</text>
  <circle cx="580.0" cy="40.0" class="point"/>
  <text x="580.0" y="375" class="label" text-anchor="middle">2026-02-06</text>
  <text x="580.0" y="35.0" class="label" text-anchor="middle">52</text>
  <circle cx="586.2068965517241" cy="40.0" class="point"/>
  <text x="586.2068965517241" y="375" class="label" text-anchor="middle">2026-02-07</text>
  <text x="586.2068965517241" y="35.0" class="label" text-anchor="middle">52</text>
  <circle cx="592.4137931034483" cy="40.0" class="point"/>
  <text x="592.4137931034483" y="375" class="label" text-anchor="middle">2026-02-08</text>
  <text x="592.4137931034483" y="35.0" class="label" text-anchor="middle">52</text>
  <circle cx="598.6206896551724" cy="40.0" class="point"/>
  <text x="598.6206896551724" y="375" class="label" text-anchor="middle">2026-02-09</text>
  <text x="598.6206896551724" y="35.0" class="label" text-anchor="middle">52</text>
  <circle cx="604.8275862068965" cy="40.0" class="point"/>
  <text x="604.8275862068965" y="375" class="label" text-anchor="middle">2026-02-10</text>
  <text x="604.8275862068965" y="35.0" class="label" text-anchor="middle">52</text>
  <circle cx="611.0344827586207" cy="40.0" class="point"/>
  <text x="611.0344827586207" y="375" class="label" text-anchor="middle">2026-02-11</text>
  <text x="611.0344827586207" y="35.0" class="label" text-anchor="middle">52</text>
  <circle cx="617.2413793103448" cy="40.0" class="point"/>
  <text x="617.2413793103448" y="375" class="label" text-anchor="middle">2026-02-12</text>
  <text x="617.2413793103448" y="35.0" class="label" text-anchor="middle">52</text>
  <circle cx="623.448275862069" cy="40.0" class="point"/>
  <text x="623.448275862069" y="375" class="label" text-anchor="middle">2026-02-13</text>
  <text x="623.448275862069" y="35.0" class="label" text-anchor="middle">52</text>
  <circle cx="629.6551724137931" cy="40.0" class="point"/>
  <text x="629.6551724137931" y="375" class="label" text-anchor="middle">2026-02-14</text>
  <text x="629.6551724137931" y="35.0" class="label" text-anchor="middle">52</text>
  <circle cx="635.8620689655172" cy="40.0" class="point"/>
  <text x="635.8620689655172" y="375" class="label" text-anchor="middle">2026-02-15</text>
  <text x="635.8620689655172" y="35.0" class="label" text-anchor="middle">52</text>
  <circle cx="642.0689655172414" cy="40.0" class="point"/>
  <text x="642.0689655172414" y="375" class="label" text-anchor="middle">2026-02-16</text>
  <text x="642.0689655172414" y="35.0" class="label" text-anchor="middle">52</text>
  <circle cx="648.2758620689656" cy="40.0" class="point"/>
  <text x="648.2758620689656" y="375" class="label" text-anchor="middle">2026-02-17</text>
  <text x="648.2758620689656" y="35.0" class="label" text-anchor="middle">52</text>
  <circle cx="654.4827586206897" cy="40.0" class="point"/>
  <text x="654.4827586206897" y="375" class="label" text-anchor="middle">2026-02-18</text>
  <text x="654.4827586206897" y="35.0" class="label" text-anchor="middle">52</text>
  <circle cx="660.6896551724137" cy="40.0" class="point"/>
  <text x="660.6896551724137" y="375" class="label" text-anchor="middle">2026-02-19</text>
  <text x="660.6896551724137" y="35.0" class="label" text-anchor="middle">52</text>
  <circle cx="666.8965517241379" cy="40.0" class="point"/>
  <text x="666.8965517241379" y="375" class="label" text-anchor="middle">2026-02-20</text>
  <text x="666.8965517241379" y="35.0" class="label" text-anchor="middle">52</text>
  <circle cx="673.1034482758621" cy="40.0" class="point"/>
  <text x="673.1034482758621" y="375" class="label" text-anchor="middle">2026-02-21</text>
  <text x="673.1034482758621" y="35.0" class="label" text-anchor="middle">52</text>
  <circle cx="679.3103448275863" cy="40.0" class="point"/>
  <text x="679.3103448275863" y="375" class="label" text-anchor="middle">2026-02-22</text>
  <text x="679.3103448275863" y="35.0" class="label" text-anchor="middle">52</text>
  <circle cx="685.5172413793103" cy="40.0" class="point"/>
  <text x="685.5172413793103" y="375" class="label" text-anchor="middle">2026-02-23</text>
  <text x="685.5172413793103" y="35.0" class="label" text-anchor="middle">52</text>
  <circle cx="691.7241379310344" cy="40.0" class="point"/>
  <text x="691.7241379310344" y="375" class="label" text-anchor="middle">2026-02-24</text>
  <text x="691.7241379310344" y="35.0" class="label" text-anchor="middle">52</text>
  <circle cx="697.9310344827586" cy="40.0" class="point"/>
  <text x="697.9310344827586" y="375" class="label" text-anchor="middle">2026-02-25</text>
  <text x="697.9310344827586" y="35.0" class="label" text-anchor="middle">52</text>
  <circle cx="704.1379310344828" cy="40.0" class="point"/>
  <text x="704.1379310344828" y="375" class="label" text-anchor="middle">2026-02-26</text>
  <text x="704.1379310344828" y="35.0" class="label" text-anchor="middle">52</text>
  <circle cx="710.3448275862069" cy="40.0" class="point"/>
  <text x="710.3448275862069" y="375" class="label" text-anchor="middle">2026-02-27</text>
  <text x="710.3448275862069" y="35.0" class="label" text-anchor="middle">52</text>
  <circle cx="716.551724137931" cy="40.0" class="point"/>
  <text x="716.551724137931" y="375" class="label" text-anchor="middle">2026-02-28</text>
  <text x="716.551724137931" y="35.0" class="label" text-anchor="middle">52</text>
  <circle cx="722.7586206896552" cy="40.0" class="point"/>
  <text x="722.7586206896552" y="375" class="label" text-anchor="middle">2026-03-01</text>
  <text x="722.7586206896552" y="35.0" class="label" text-anchor="middle">52</text>
  <circle cx="728.9655172413793" cy="40.0" class="point"/>
  <text x="728.9655172413793" y="375" class="label" text-anchor="middle">2026-03-02</text>
  <text x="728.9655172413793" y="35.0" class="label" text-anchor="middle">52</text>
  <circle cx="735.1724137931035" cy="40.0" class="point"/>
  <text x="735.1724137931035" y="375" class="label" text-anchor="middle">2026-03-03</text>
  <text x="735.1724137931035" y="35.0" class="label" text-anchor="middle">52</text>
  <circle cx="741.3793103448276" cy="40.0" class="point"/>
  <text x="741.3793103448276" y="375" class="label" text-anchor="middle">2026-03-04</text>
  <text x="741.3793103448276" y="35.0" class="label" text-anchor="middle">52</text>
  <circle cx="747.5862068965517" cy="40.0" class="point"/>
  <text x="747.5862068965517" y="375" class="label" text-anchor="middle">2026-03-05</text>
  <text x="747.5862068965517" y="35.0" class="label" text-anchor="middle">52</text>
  <circle cx="753.7931034482759" cy="40.0" class="point"/>
  <text x="753.7931034482759" y="375" class="label" text-anchor="middle">2026-03-06</text>
  <text x="753.7931034482759" y="35.0" class="label" text-anchor="middle">52</text>
  <circle cx="760.0" cy="40.0" class="point"/>
  <text x="760.0" y="375" class="label" text-anchor="middle">2026-03-07</text>
  <text x="760.0" y="35.0" class="label" text-anchor="middle">52</text>
  <text x="30" y="363.0" class="label" text-anchor="end">0</text>
  <text x="30" y="301.46153846153845" class="label" text-anchor="end">10</text>
  <text x="30" y="239.9230769230769" class="label" text-anchor="end">20</text>
  <text x="30" y="178.38461538461542" class="label" text-anchor="end">30</text>
  <text x="30" y="116.84615384615384" class="label" text-anchor="end">40</text>
  <text x="30" y="55.30769230769232" class="label" text-anchor="end">50</text>
</svg>