<svg xmlns="http://www.w3.org/2000/svg" width="800" height="400" viewBox="0 0 800 400">
  <style>
    .axis{stroke:#666;stroke-width:1}
    .line{stroke:#4a9;stroke-width:2;fill:none}
    .point{fill:#4a9;r:4}
    .label{font:10px sans-serif;fill:#aaa}
    .title{font:14px sans-serif;fill:#333}
  </style>
  <text x="400" y="20" class="title" text-anchor="middle">OPIC Field Growth Timeline</text>
  <line x1="40" y1="40" x2="40" y2="360" class="axis"/>
  <line x1="40" y1="360" x2="760" y2="360" class="axis"/>
  <path d="M 40.0,101.53846153846155 L 47.2,101.53846153846155 L 54.4,101.53846153846155 L 61.599999999999994,101.53846153846155 L 68.8,101.53846153846155 L 76.0,101.53846153846155 L 83.19999999999999,101.53846153846155 L 90.4,101.53846153846155 L 97.6,101.53846153846155 L 104.8,101.53846153846155 L 112.0,101.53846153846155 L 119.2,101.53846153846155 L 126.39999999999999,101.53846153846155 L 133.60000000000002,101.53846153846155 L 140.8,101.53846153846155 L 148.0,101.53846153846155 L 155.2,101.53846153846155 L 162.4,101.53846153846155 L 169.6,101.53846153846155 L 176.8,101.53846153846155 L 184.0,101.53846153846155 L 191.2,101.53846153846155 L 198.4,101.53846153846155 L 205.6,101.53846153846155 L 212.79999999999998,101.53846153846155 L 220.0,101.53846153846155 L 227.20000000000002,101.53846153846155 L 234.4,40.0 L 241.60000000000002,40.0 L 248.79999999999998,40.0 L 256.0,40.0 L 263.2,40.0 L 270.4,40.0 L 277.6,40.0 L 284.8,40.0 L 292.0,40.0 L 299.2,40.0 L 306.4,40.0 L 313.6,40.0 L 320.8,40.0 L 328.0,40.0 L 335.2,40.0 L 342.4,40.0 L 349.6,40.0 L 356.8,40.0 L 364.0,40.0 L 371.2,40.0 L 378.4,40.0 L 385.59999999999997,40.0 L 392.8,40.0 L 400.0,40.0 L 407.2,40.0 L 414.40000000000003,40.0 L 421.6,40.0 L 428.8,40.0 L 436.00000000000006,40.0 L 443.20000000000005,40.0 L 450.4,40.0 L 457.59999999999997,40.0 L 464.79999999999995,40.0 L 472.0,40.0 L 479.2,40.0 L 486.4,40.0 L 493.6,40.0 L 500.8,40.0 L 508.0,40.0 L 515.2,40.0 L 522.4000000000001,40.0 L 529.6,40.0 L 536.8,40.0 L 544.0,40.0 L 551.2,40.0 L 558.4,40.0 L 565.6,40.0 L 572.8,40.0 L 580.0,40.0 L 587.2,40.0 L 594.4,40.0 L 601.6,40.0 L 608.8000000000001,40.0 L 616.0,40.0 L 623.2,40.0 L 630.4,40.0 L 637.6,40.0 L 644.8,40.0 L 652.0,40.0 L 659.2,40.0 L 666.4,40.0 L 673.6,40.0 L 680.8,40.0 L 688.0,40.0 L 695.2,40.0 L 702.4,40.0 L 709.6,40.0 L 716.8,40.0 L 724.0,40.0 L 731.1999999999999,40.0 L 738.4,40.0 L 745.6,40.0 L 752.8,40.0 L 760.0,40.0" class="line"/>
  <circle cx="40.0" cy="101.53846153846155" class="point"/>
  <text x="40.0" y="375" class="label" text-anchor="middle">2025-11-11</text>
  <text x="40.0" y="96.53846153846155" class="label" text-anchor="middle">42</text>
  <circle cx="47.2" cy="101.53846153846155" class="point"/>
  <text x="47.2" y="375" class="label" text-anchor="middle">2025-11-12</text>
  <text x="47.2" y="96.53846153846155" class="label" text-anchor="middle">42</text>
  <circle cx="54.4" cy="101.53846153846155" class="point"/>
  <text x="54.4" y="375" class="label" text-anchor="middle">2025-11-13</text>
  <text x="54.4" y="96.53846153846155" class="label" text-anchor="middle">42</text>
  <circle cx="61.599999999999994" cy="101.53846153846155" class="point"/>
  <text x="61.599999999999994" y="375" class="label" text-anchor="middle">2025-11-14</text>
  <text x="61.599999999999994" y="96.53846153846155" class="label" text-anchor="middle">42</text>
  <circle cx="68.8" cy="101.53846153846155" class="point"/>
  <text x="68.8" y="375" class="label" text-anchor="middle">2025-11-15</text>
  <text x="68.8" y="96.53846153846155" class="label" text-anchor="middle">42</text>
  <circle cx="76.0" cy="101.53846153846155" class="point"/>
  <text x="76.0" y="375" class="label" text-anchor="middle">2025-11-16</text>
  <text x="76.0" y="96.53846153846155" class="label" text-anchor="middle">42</text>
  <circle cx="83.19999999999999" cy="101.53846153846155" class="point"/>
  <text x="83.19999999999999" y="375" class="label" text-anchor="middle">2025-11-17</text>
  <text x="83.19999999999999" y="96.53846153846155" class="label" text-anchor="middle">42</text>
  <circle cx="90.4" cy="101.53846153846155" class="point"/>
  <text x="90.4" y="375" class="label" text-anchor="middle">2025-11-18</text>
  <text x="90.4" y="96.53846153846155" class="label" text-anchor="middle">42</text>
  <circle cx="97.6" cy="101.53846153846155" class="point"/>
  <text x="97.6" y="375" class="label" text-anchor="middle">2025-11-19</text>
  <text x="97.6" y="96.53846153846155" class="label" text-anchor="middle">42</text>
  <circle cx="104.8" cy="101.53846153846155" class="point"/>
  <text x="104.8" y="375" class="label" text-anchor="middle">2025-11-20</text>
  <text x="104.8" y="96.53846153846155" class="label" text-anchor="middle">42</text>
  <circle cx="112.0" cy="101.53846153846155" class="point"/>
  <text x="112.0" y="375" class="label" text-anchor="middle">2025-11-21</text>
  <text x="112.0" y="96.53846153846155" class="label" text-anchor="middle">42</text>
  <circle cx="119.2" cy="101.53846153846155" class="point"/>
  <text x="119.2" y="375" class="label" text-anchor="middle">2025-11-22</text>
  <text x="119.2" y="96.53846153846155" class="label" text-anchor="middle">42</text>
  <circle cx="126.39999999999999" cy="101.53846153846155" class="point"/>
  <text x="126.39999999999999" y="375" class="label" text-anchor="middle">2025-11-23</text>
  <text x="126.39999999999999" y="96.53846153846155" class="label" text-anchor="middle">42</text>
  <circle cx="133.60000000000002" cy="101.53846153846155" class="point"/>
  <text x="133.60000000000002" y="375" class="label" text-anchor="middle">2025-11-24</text>
  <text x="133.60000000000002" y="96.53846153846155" class="label" text-anchor="middle">42</text>
  <circle cx="140.8" cy="101.53846153846155" class="point"/>
  <text x="140.8" y="375" class="label" text-anchor="middle">2025-11-25</text>
  <text x="140.8" y="96.53846153846155" class="label" text-anchor="middle">42</text>
  <circle cx="148.0" cy="101.53846153846155" class="point"/>
  <text x="148.0" y="375" class="label" text-anchor="middle">2025-11-26</text>
  <text x="148.0" y="96.53846153846155" class="label" text-anchor="middle">42</text>
  <circle cx="155.2" cy="101.53846153846155" class="point"/>
  <text x="155.2" y="375" class="label" text-anchor="middle">2025-11-27</text>
  <text x="155.2" y="96.53846153846155" class="label" text-anchor="middle">42</text>
  <circle cx="162.4" cy="101.53846153846155" class="point"/>
  <text x="162.4" y="375" class="label" text-anchor="middle">2025-11-28</text>
  <text x="162.4" y="96.53846153846155" class="label" text-anchor="middle">42</text>
  <circle cx="169.6" cy="101.53846153846155" class="point"/>
  <text x="169.6" y="375" class="label" text-anchor="middle">2025-11-29</text>
  <text x="169.6" y="96.53846153846155" class="label" text-anchor="middle">42</text>
  <circle cx="176.8" cy="101.53846153846155" class="point"/>
  <text x="176.8" y="375" class="label" text-anchor="middle">2025-11-30</text>
  <text x="176.8" y="96.53846153846155" class="label" text-anchor="middle">42</text>
  <circle cx="184.0" cy="101.53846153846155" class="point"/>
  <text x="184.0" y="375" class="label" text-anchor="middle">2025-12-01</text>
  <text x="184.0" y="96.53846153846155" class="label" text-anchor="middle">42</text>
  <circle cx="191.2" cy="101.53846153846155" class="point"/>
  <text x="191.2" y="375" class="label" text-anchor="middle">2025-12-02</text>
  <text x="191.2" y="96.53846153846155" class="label" text-anchor="middle">42</text>
  <circle cx="198.4" cy="101.53846153846155" class="point"/>
  <text x="198.4" y="375" class="label" text-anchor="middle">2025-12-03</text>
  <text x="198.4" y="96.53846153846155" class="label" text-anchor="middle">42</text>
  <circle cx="205.6" cy="101.53846153846155" class="point"/>
  <text x="205.6" y="375" class="label" text-anchor="middle">2025-12-04</text>
  <text x="205.6" y="96.53846153846155" class="label" text-anchor="middle">42</text>
  <circle cx="212.79999999999998" cy="101.53846153846155" class="point"/>
  <text x="212.79999999999998" y="375" class="label" text-anchor="middle">2025-12-05</text>
  <text x="212.79999999999998" y="96.53846153846155" class="label" text-anchor="middle">42</text>
  <circle cx="220.0" cy="101.53846153846155" class="point"/>
  <text x="220.0" y="375" class="label" text-anchor="middle">2025-12-06</text>
  <text x="220.0" y="96.53846153846155" class="label" text-anchor="middle">42</text>
  <circle cx="227.20000000000002" cy="101.53846153846155" class="point"/>
  <text x="227.20000000000002" y="375" class="label" text-anchor="middle">2025-12-07</text>
  <text x="227.20000000000002" y="96.53846153846155" class="label" text-anchor="middle">42</text>
  <circle cx="234.4" cy="40.0" class="point"/>
  <text x="234.4" y="375" class="label" text-anchor="middle">2025-12-08</text>
  <text x="234.4" y="35.0" class="label" text-anchor="middle">52</text>
  <circle cx="241.60000000000002" cy="40.0" class="point"/>
  <text x="241.60000000000002" y="375" class="label" text-anchor="middle">2025-12-09</text>
  <text x="241.60000000000002" y="35.0" class="label" text-anchor="middle">52</text>
  <circle cx="248.79999999999998" cy="40.0" class="point"/>
  <text x="248.79999999999998" y="375" class="label" text-anchor="middle">2025-12-10</text>
  <text x="248.79999999999998" y="35.0" class="label" text-anchor="middle">52</text>
  <circle cx="256.0" cy="40.0" class="point"/>
  <text x="256.0" y="375" class="label" text-anchor="middle">2025-12-11</text>
  <text x="256.0" y="35.0" class="label" text-anchor="middle">52</text>
  <circle cx="263.2" cy="40.0" class="point"/>
  <text x="263.2" y="375" class="label" text-anchor="middle">2025-12-12</text>
  <text x="263.2" y="35.0" class="label" text-anchor="middle">52</text>
  <circle cx="270.4" cy="40.0" class="point"/>
  <text x="270.4" y="375" class="label" text-anchor="middle">2025-12-13</text>
  <text x="270.4" y="35.0" class="label" text-anchor="middle">52</text>
  <circle cx="277.6" cy="40.0" class="point"/>
  <text x="277.6" y="375" class="label" text-anchor="middle">2025-12-14</text>
  <text x="277.6" y="35.0" class="label" text-anchor="middle">52</text>
  <circle cx="284.8" cy="40.0" class="point"/>
  <text x="284.8" y="375" class="label" text-anchor="middle">2025-12-15</text>
  <text x="284.8" y="35.0" class="label" text-anchor="middle">52</text>
  <circle cx="292.0" cy="40.0" class="point"/>
  <text x="292.0" y="375" class="label" text-anchor="middle">2025-12-16</text>
  <text x="292.0" y="35.0" class="label" text-anchor="middle">52</text>
  <circle cx="299.2" cy="40.0" class="point"/>
  <text x="299.2" y="375" class="label" text-anchor="middle">2025-12-17</text>
  <text x="299.2" y="35.0" class="label" text-anchor="middle">52</text>
  <circle cx="306.4" cy="40.0" class="point"/>
  <text x="306.4" y="375" class="label" text-anchor="middle">2025-12-18</text>
  <text x="306.4" y="35.0" class="label" text-anchor="middle">52</text>
  <circle cx="313.6" cy="40.0" class="point"/>
  <text x="313.6" y="375" class="label" text-anchor="middle">2025-12-19</text>
  <text x="313.6" y="35.0" class="label" text-anchor="middle">52</text>
  <circle cx="320.8" cy="40.0" class="point"/>
  <text x="320.8" y="375" class="label" text-anchor="middle">2025-12-20</text>
  <text x="320.8" y="35.0" class="label" text-anchor="middle">52</text>
  <circle cx="328.0" cy="40.0" class="point"/>
  <text x="328.0" y="375" class="label" text-anchor="middle">2025-12-21</text>
  <text x="328.0" y="35.0" class="label" text-anchor="middle">52</text>
  <circle cx="335.2" cy="40.0" class="point"/>
  <text x="335.2" y="375" class="label" text-anchor="middle">2025-12-22</text>
  <text x="335.2" y="35.0" class="label" text-anchor="middle">52</text>
  <circle cx="342.4" cy="40.0" class="point"/>
  <text x="342.4" y="375" class="label" text-anchor="middle">2025-12-23</text>
  <text x="342.4" y="35.0" class="label" text-anchor="middle">52</text>
  <circle cx="349.6" cy="40.0" class="point"/>
  <text x="349.6" y="375" class="label" text-anchor="middle">2025-12-24</text>
  <text x="349.6" y="35.0" class="label" text-anchor="middle">52</text>
  <circle cx="356.8" cy="40.0" class="point"/>
  <text x="356.8" y="375" class="label" text-anchor="middle">2025-12-25</text>
  <text x="356.8" y="35.0" class="label" text-anchor="middle">52</text>
  <circle cx="364.0" cy="40.0" class="point"/>
  <text x="364.0" y="375" class="label" text-anchor="middle">2025-12-26</text>
  <text x="364.0" y="35.0" class="label" text-anchor="middle">52</text>
  <circle cx="371.2" cy="40.0" class="point"/>
  <text x="371.2" y="375" class="label" text-anchor="middle">2025-12-27</text>
  <text x="371.2" y="35.0" class="label" text-anchor="middle">52</text>
  <circle cx="378.4" cy="40.0" class="point"/>
  <text x="378.4" y="375" class="label" text-anchor="middle">2025-12-28</text>
  <text x="378.4" y="35.0" class="label" text-anchor="middle">52</text>
  <circle cx="385.59999999999997" cy="40.0" class="point"/>
  <text x="385.59999999999997" y="375" class="label" text-anchor="middle">2025-12-29</text>
  <text x="385.59999999999997" y="35.0" class="label" text-anchor="middle">52</text>
  <circle cx="392.8" cy="40.0" class="point"/>
  <text x="392.8" y="375" class="label" text-anchor="middle">2025-12-30</text>
  <text x="392.8" y="35.0" class="label" text-anchor="middle">52</text>
  <circle cx="400.0" cy="40.0" class="point"/>
  <text x="400.0" y="375" class="label" text-anchor="middle">2025-12-31</text>
  <text x="400.0" y="35.0" class="label" text-anchor="middle">52</text>
  <circle cx="407.2" cy="40.0" class="point"/>
  <text x="407.2" y="375" class="label" text-anchor="middle">2026-01-01</text>
  <text x="407.2" y="35.0" class="label" text-anchor="middle">52</text>
  <circle cx="414.40000000000003" cy="40.0" class="point"/>
  <text x="414.40000000000003" y="375" class="label" text-anchor="middle">2026-01-02</text>
  <text x="414.40000000000003" y="35.0" class="label" text-anchor="middle">52</text>
  <circle cx="421.6" cy="40.0" class="point"/>
  <text x="421.6" y="375" class="label" text-anchor="middle">2026-01-03</text>
  <text x="421.6" y="35.0" class="label" text-anchor="middle">52</text>
  <circle cx="428.8" cy="40.0" class="point"/>
  <text x="428.8" y="375" class="label" text-anchor="middle">2026-01-04</text>
  <text x="428.8" y="35.0" class="label" text-anchor="middle">52</text>
  <circle cx="436.00000000000006" cy="40.0" class="point"/>
  <text x="436.00000000000006" y="375" class="label" text-anchor="middle">2026-01-05</text>
  <text x="436.00000000000006" y="35.0" class="label" text-anchor="middle">52</text>
  <circle cx="443.20000000000005" cy="40.0" class="point"/>
  <text x="443.20000000000005" y="375" class="label" text-anchor="middle">2026-01-06</text>
  <text x="443.20000000000005" y="35.0" class="label" text-anchor="middle">52</text>
  <circle cx="450.4" cy="40.0" class="point"/>
  <text x="450.4" y="375" class="label" text-anchor="middle">2026-01-07</text>
  <text x="450.4" y="35.0" class="label" text-anchor="middle">52</text>
  <circle cx="457.59999999999997" cy="40.0" class="point"/>
  <text x="457.59999999999997" y="375" class="label" text-anchor="middle">2026-01-08</text>
  <text x="457.59999999999997" y="35.0" class="label" text-anchor="middle">52</text>
  <circle cx="464.79999999999995" cy="40.0" class="point"/>
  <text x="464.79999999999995" y="375" class="label" text-anchor="middle">2026-01-09</text>
  <text x="464.79999999999995" y="35.0" class="label" text-anchor="middle">52</text>
  <circle cx="472.0" cy="40.0" class="point"/>
  <text x="472.0" y="375" class="label" text-anchor="middle">2026-01-10</text>
  <text x="472.0" y="35.0" class="label" text-anchor="middle">52</text>
  <circle cx="479.2" cy="40.0" class="point"/>
  <text x="479.2" y="375" class="label" text-anchor="middle">2026-01-11</text>
  <text x="479.2" y="35.0" class="label" text-anchor="middle">52</text>
  <circle cx="486.4" cy="40.0" class="point"/>
  <text x="486.4" y="375" class="label" text-anchor="middle">2026-01-12</text>
  <text x="486.4" y="35.0" class="label" text-anchor="middle">52</text>
  <circle cx="493.6" cy="40.0" class="point"/>
  <text x="493.6" y="375" class="label" text-anchor="middle">2026-01-13</text>
  <text x="493.6" y="35.0" class="label" text-anchor="middle">52</text>
  <circle cx="500.8" cy="40.0" class="point"/>
  <text x="500.8" y="375" class="label" text-anchor="middle">2026-01-14</text>
  <text x="500.8" y="35.0" class="label" text-anchor="middle">52</text>
  <circle cx="508.0" cy="40.0" class="point"/>
  <text x="508.0" y="375" class="label" text-anchor="middle">2026-01-15</text>
  <text x="508.0" y="35.0" class="label" text-anchor="middle">52</text>
  <circle cx="515.2" cy="40.0" class="point"/>
  <text x="515.2" y="375" class="label" text-anchor="middle">2026-01-16</text>
  <text x="515.2" y="35.0" class="label" text-anchor="middle">52</text>
  <circle cx="522.4000000000001" cy="40.0" class="point"/>
  <text x="522.4000000000001" y="375" class="label" text-anchor="middle">2026-01-17</text>
  <text x="522.4000000000001" y="35.0" class="label" text-anchor="middle">52</text>
  <circle cx="529.6" cy="40.0" class="point"/>
  <text x="529.6" y="375" class="label" text-anchor="middle">2026-01-18</text>
  <text x="529.6" y="35.0" class="label" text-anchor="middle">52</text>
  <circle cx="536.8" cy="40.0" class="point"/>
  <text x="536.8" y="375" class="label" text-anchor="middle">2026-01-19</text>
  <text x="536.8" y="35.0" class="label" text-anchor="middle">52</text>
  <circle cx="544.0" cy="40.0" class="point"/>
  <text x="544.0" y="375" class="label" text-anchor="middle">2026-01-20</text>
  <text x="544.0" y="35.0" class="label" text-anchor="middle">52</text>
  <circle cx="551.2" cy="40.0" class="point"/>
  <text x="551.2" y="375" class="label" text-anchor="middle">2026-01-21</text>
  <text x="551.2" y="35.0" class="label" text-anchor="middle">52</text>
  <circle cx="558.4" cy="40.0" class="point"/>
  <text x="558.4" y="375" class="label" text-anchor="middle">2026-01-22</text>
  <text x="558.4" y="35.0" class="label" text-anchor="middle">52</text>
  <circle cx="565.6" cy="40.0" class="point"/>
  <text x="565.6" y="375" class="label" text-anchor="middle">2026-01-23</text>
  <text x="565.6" y="35.0" class="label" text-anchor="middle">52</text>
  <circle cx="572.8" cy="40.0" class="point"/>
  <text x="572.8" y="375" class="label" text-anchor="middle">2026-01-24</text>
  <text x="572.8" y="35.0" class="label" text-anchor="middle">52</text>
  <circle cx="580.0" cy="40.0" class="point"/>
  <text x="580.0" y="375" class="label" text-anchor="middle">2026-01-25</text>
  <text x="580.0" y="35.0" class="label" text-anchor="middle">52</text>
  <circle cx="587.2" cy="40.0" class="point"/>
  <text x="587.2" y="375" class="label" text-anchor="middle">2026-01-26</text>
  <text x="587.2" y="35.0" class="label" text-anchor="middle">52</text>
  <circle cx="594.4" cy="40.0" class="point"/>
  <text x="594.4" y="375" class="label" text-anchor="middle">2026-01-27</text>
  <text x="594.4" y="35.0" class="label" text-anchor="middle">52</text>
  <circle cx="601.6" cy="40.0" class="point"/>
  <text x="601.6" y="375" class="label" text-anchor="middle">2026-01-28</text>
  <text x="601.6" y="35.0" class="label" text-anchor="middle">52</text>
  <circle cx="608.8000000000001" cy="40.0" class="point"/>
  <text x="608.8000000000001" y="375" class="label" text-anchor="middle">2026-01-29</text>
  <text x="608.8000000000001" y="35.0" class="label" text-anchor="middle">52</text>
  <circle cx="616.0" cy="40.0" class="point"/>
  <text x="616.0" y="375" class="label" text-anchor="middle">2026-01-30</text>
  <text x="616.0" y="35.0" class="label" text-anchor="middle">52</text>
  <circle cx="623.2" cy="40.0" class="point"/>
  <text x="623.2" y="375" class="label" text-anchor="middle">2026-01-31</text>
  <text x="623.2" y="35.0" class="label" text-anchor="middle">52</text>
  <circle cx="630.4" cy="40.0" class="point"/>
  <text x="630.4" y="375" class="label" text-anchor="middle">2026-02-01</text>
  <text x="630.4" y="35.0" class="label" text-anchor="middle">52</text>
  <circle cx="637.6" cy="40.0" class="point"/>
  <text x="637.6" y="375" class="label" text-anchor="middle">2026-02-02</text>
  <text x="637.6" y="35.0" class="label" text-anchor="middle">52</text>
  <circle cx="644.8" cy="40.0" class="point"/>
  <text x="644.8" y="375" class="label" text-anchor="middle">2026-02-03</text>
  <text x="644.8" y="35.0" class="label" text-anchor="middle">52</text>
  <circle cx="652.0" cy="40.0" class="point"/>
  <text x="652.0" y="375" class="label" text-anchor="middle">2026-02-04</text>
  <text x="652.0" y="35.0" class="label" text-anchor="middle">52</text>
  <circle cx="659.2" cy="40.0" class="point"/>
  <text x="659.2" y="375" class="label" text-anchor="middle">2026-02-05</text>
  <text x="659.2" y="35.0" class="label" text-anchor="middle">52</text>
  <circle cx="666.4" cy="40.0" class="point"/>
  <text x="666.4" y="375" class="label" text-anchor="middle">2026-02-06</text>
  <text x="666.4" y="35.0" class="label" text-anchor="middle">52</text>
  <circle cx="673.6" cy="40.0" class="point"/>
  <text x="673.6" y="375" class="label" text-anchor="middle">2026-02-07</text>
  <text x="673.6" y="35.0" class="label" text-anchor="middle">52</text>
  <circle cx="680.8" cy="40.0" class="point"/>
  <text x="680.8" y="375" class="label" text-anchor="middle">2026-02-08</text>
  <text x="680.8" y="35.0" class="label" text-anchor="middle">52</text>
  <circle cx="688.0" cy="40.0" class="point"/>
  <text x="688.0" y="375" class="label" text-anchor="middle">2026-02-09</text>
  <text x="688.0" y="35.0" class="label" text-anchor="middle">52</text>
  <circle cx="695.2" cy="40.0" class="point"/>
  <text x="695.2" y="375" class="label" text-anchor="middle">2026-02-10</text>
  <text x="695.2" y="35.0" class="label" text-anchor="middle">52</text>
  <circle cx="702.4" cy="40.0" class="point"/>
  <text x="702.4" y="375" class="label" text-anchor="middle">2026-02-11</text>
  <text x="702.4" y="35.0" class="label" text-anchor="middle">52</text>
  <circle cx="709.6" cy="40.0" class="point"/>
  <text x="709.6" y="375" class="label" text-anchor="middle">2026-02-12</text>
  <text x="709.6" y="35.0" class="label" text-anchor="middle">52</text>
  <circle cx="716.8" cy="40.0" class="point"/>
  <text x="716.8" y="375" class="label" text-anchor="middle">2026-02-13</text>
  <text x="716.8" y="35.0" class="label" text-anchor="middle">52</text>
  <circle cx="724.0" cy="40.0" class="point"/>
  <text x="724.0" y="375" class="label" text-anchor="middle">2026-02-14</text>
  <text x="724.0" y="35.0" class="label" text-anchor="middle">52</text>
  <circle cx="731.1999999999999" cy="40.0" class="point"/>
  <text x="731.1999999999999" y="375" class="label" text-anchor="middle">2026-02-15</text>
  <text x="731.1999999999999" y="35.0" class="label" text-anchor="middle">52</text>
  <circle cx="738.4" cy="40.0" class="point"/>
  <text x="738.4" y="375" class="label" text-anchor="middle">2026-02-16</text>
  <text x="738.4" y="35.0" class="label" text-anchor="middle">52</text>
  <circle cx="745.6" cy="40.0" class="point"/>
  <text x="745.6" y="375" class="label" text-anchor="middle">2026-02-17</text>
  <text x="745.6" y="35.0" class="label" text-anchor="middle">52</text>
  <circle cx="752.8" cy="40.0" class="point"/>
  <text x="752.8" y="375" class="label" text-anchor="middle">2026-02-18</text>
  <text x="752.8" y="35.0" class="label" text-anchor="middle">52</text>
  <circle cx="760.0" cy="40.0" class="point"/>
  <text x="760.0" y="375" class="label" text-anchor="middle">2026-02-19</text>
  <text x="760.0" y="35.0" class="label" text-anchor="middle">52</text>
  <text x="30" y="363.0" class="label" text-anchor="end">0</text>
  <text x="30" y="301.46153846153845" class="label" text-anchor="end">10</text>
  <text x="30" y="239.9230769230769" class="label" text-anchor="end">20</text>
  <text x="30" y="178.38461538461542" class="label" text-anchor="end">30</text>
  <text x="30" y="116.84615384615384" class="label" text-anchor="end">40</text>
  <text x="30" y="55.30769230769232" class="label" text-anchor="end">50</text>
</svg>