<svg xmlns="http://www.w3.org/2000/svg" width="800" height="400" viewBox="0 0 800 400">
  <style>
    .axis{stroke:#666;stroke-width:1}
    .line{stroke:#4a9;stroke-width:2;fill:none}
    .point{fill:#4a9;r:4}
    .label{font:10px sans-serif;fill:#aaa}
    .title{font:14px sans-serif;fill:#333}
  </style>
  <text x="400" y="20" class="title" text-anchor="middle">OPIC Field Growth Timeline</text>
  <line x1="40" y1="40" x2="40" y2="360" class="axis"/>
  <line x1="40" y1="360" x2="760" y2="360" class="axis"/>
  <path d="M 40.0,101.53846153846155 L 44.55696202531646,101.53846153846155 L 49.11392405063291,101.53846153846155 L 53.67088607594937,101.53846153846155 L 58.22784810126582,101.53846153846155 L 62.78481012658228,101.53846153846155 L 67.34177215189874,101.53846153846155 L 71.89873417721519,101.53846153846155 L 76.45569620253164,101.53846153846155 L 81.0126582278481,101.53846153846155 L 85.56962025316456,101.53846153846155 L 90.12658227848101,101.53846153846155 L 94.68354430379748,101.53846153846155 L 99.24050632911391,101.53846153846155 L 103.79746835443038,101.53846153846155 L 108.35443037974684,101.53846153846155 L 112.9113924050633,101.53846153846155 L 117.46835443037975,101.53846153846155 L 122.0253164556962,101.53846153846155 L 126.58227848101266,101.53846153846155 L 131.13924050632912,101.53846153846155 L 135.69620253164555,101.53846153846155 L 140.25316455696202,101.53846153846155 L 144.81012658227849,101.53846153846155 L 149.36708860759495,101.53846153846155 L 153.92405063291142,101.53846153846155 L 158.48101265822783,101.53846153846155 L 163.0379746835443,40.0 L 167.59493670886076,40.0 L 172.15189873417722,40.0 L 176.7088607594937,40.0 L 181.26582278481013,40.0 L 185.8227848101266,40.0 L 190.37974683544303,40.0 L 194.9367088607595,40.0 L 199.49367088607593,40.0 L 204.0506329113924,40.0 L 208.60759493670886,40.0 L 213.16455696202533,40.0 L 217.72151898734177,40.0 L 222.27848101265823,40.0 L 226.83544303797467,40.0 L 231.3924050632911,40.0 L 235.9493670886076,40.0 L 240.50632911392404,40.0 L 245.06329113924053,40.0 L 249.62025316455697,40.0 L 254.1772151898734,40.0 L 258.7341772151899,40.0 L 263.2911392405063,40.0 L 267.84810126582283,40.0 L 272.40506329113924,40.0 L 276.96202531645565,40.0 L 281.5189873417722,40.0 L 286.0759493670886,40.0 L 290.63291139240505,40.0 L 295.1898734177215,40.0 L 299.746835443038,40.0 L 304.30379746835445,40.0 L 308.86075949367086,40.0 L 313.4177215189874,40.0 L 317.9746835443038,40.0 L 322.53164556962025,40.0 L 327.0886075949367,40.0 L 331.6455696202532,40.0 L 336.20253164556965,40.0 L 340.75949367088606,40.0 L 345.3164556962025,40.0 L 349.873417721519,40.0 L 354.43037974683546,40.0 L 358.98734177215186,40.0 L 363.5443037974684,40.0 L 368.1012658227848,40.0 L 372.65822784810126,40.0 L 377.2151898734177,40.0 L 381.77215189873414,40.0 L 386.32911392405066,40.0 L 390.88607594936707,40.0 L 395.44303797468353,40.0 L 400.0,40.0 L 404.55696202531647,40.0 L 409.1139240506329,40.0 L 413.67088607594934,40.0 L 418.22784810126586,40.0 L 422.7848101265822,40.0 L 427.34177215189874,40.0 L 431.8987341772152,40.0 L 436.45569620253167,40.0 L 441.0126582278481,40.0 L 445.56962025316454,40.0 L 450.12658227848107,40.0 L 454.6835443037974,40.0 L 459.24050632911394,40.0 L 463.7974683544304,40.0 L 468.3544303797468,40.0 L 472.9113924050633,40.0 L 477.46835443037975,40.0 L 482.0253164556962,40.0 L 486.5822784810126,40.0 L 491.13924050632914,40.0 L 495.6962025316456,40.0 L 500.253164556962,40.0 L 504.8101265822785,40.0 L 509.36708860759495,40.0 L 513.9240506329113,40.0 L 518.4810126582279,40.0 L 523.0379746835443,40.0 L 527.5949367088607,40.0 L 532.1518987341772,40.0 L 536.7088607594937,40.0 L 541.2658227848101,40.0 L 545.8227848101266,40.0 L 550.379746835443,40.0 L 554.9367088607595,40.0 L 559.493670886076,40.0 L 564.0506329113924,40.0 L 568.6075949367089,40.0 L 573.1645569620252,40.0 L 577.7215189873417,40.0 L 582.2784810126583,40.0 L 586.8354430379748,40.0 L 591.3924050632911,40.0 L 595.9493670886076,40.0 L 600.506329113924,40.0 L 605.0632911392405,40.0 L 609.620253164557,40.0 L 614.1772151898734,40.0 L 618.7341772151898,40.0 L 623.2911392405064,40.0 L 627.8481012658228,40.0 L 632.4050632911393,40.0 L 636.9620253164557,40.0 L 641.5189873417721,40.0 L 646.0759493670887,40.0 L 650.632911392405,40.0 L 655.1898734177215,40.0 L 659.746835443038,40.0 L 664.3037974683544,40.0 L 668.8607594936709,40.0 L 673.4177215189874,40.0 L 677.9746835443037,40.0 L 682.5316455696202,40.0 L 687.0886075949368,40.0 L 691.6455696202532,40.0 L 696.2025316455696,40.0 L 700.7594936708861,40.0 L 705.3164556962025,40.0 L 709.873417721519,40.0 L 714.4303797468355,40.0 L 718.9873417721519,40.0 L 723.5443037974683,40.0 L 728.1012658227849,40.0 L 732.6582278481013,40.0 L 737.2151898734178,40.0 L 741.7721518987341,40.0 L 746.3291139240506,40.0 L 750.8860759493671,40.0 L 755.4430379746835,40.0 L 760.0,40.0" class="line"/>
  <circle cx="40.0" cy="101.53846153846155" class="point"/>
  <text x="40.0" y="375" class="label" text-anchor="middle">2025-11-11</text>
  <text x="40.0" y="96.53846153846155" class="label" text-anchor="middle">42</text>
  <circle cx="44.55696202531646" cy="101.53846153846155" class="point"/>
  <text x="44.55696202531646" y="375" class="label" text-anchor="middle">2025-11-12</text>
  <text x="44.55696202531646" y="96.53846153846155" class="label" text-anchor="middle">42</text>
  <circle cx="49.11392405063291" cy="101.53846153846155" class="point"/>
  <text x="49.11392405063291" y="375" class="label" text-anchor="middle">2025-11-13</text>
  <text x="49.11392405063291" y="96.53846153846155" class="label" text-anchor="middle">42</text>
  <circle cx="53.67088607594937" cy="101.53846153846155" class="point"/>
  <text x="53.67088607594937" y="375" class="label" text-anchor="middle">2025-11-14</text>
  <text x="53.67088607594937" y="96.53846153846155" class="label" text-anchor="middle">42</text>
  <circle cx="58.22784810126582" cy="101.53846153846155" class="point"/>
  <text x="58.22784810126582" y="375" class="label" text-anchor="middle">2025-11-15</text>
  <text x="58.22784810126582" y="96.53846153846155" class="label" text-anchor="middle">42</text>
  <circle cx="62.78481012658228" cy="101.53846153846155" class="point"/>
  <text x="62.78481012658228" y="375" class="label" text-anchor="middle">2025-11-16</text>
  <text x="62.78481012658228" y="96.53846153846155" class="label" text-anchor="middle">42</text>
  <circle cx="67.34177215189874" cy="101.53846153846155" class="point"/>
  <text x="67.34177215189874" y="375" class="label" text-anchor="middle">2025-11-17</text>
  <text x="67.34177215189874" y="96.53846153846155" class="label" text-anchor="middle">42</text>
  <circle cx="71.89873417721519" cy="101.53846153846155" class="point"/>
  <text x="71.89873417721519" y="375" class="label" text-anchor="middle">2025-11-18</text>
  <text x="71.89873417721519" y="96.53846153846155" class="label" text-anchor="middle">42</text>
  <circle cx="76.45569620253164" cy="101.53846153846155" class="point"/>
  <text x="76.45569620253164" y="375" class="label" text-anchor="middle">2025-11-19</text>
  <text x="76.45569620253164" y="96.53846153846155" class="label" text-anchor="middle">42</text>
  <circle cx="81.0126582278481" cy="101.53846153846155" class="point"/>
  <text x="81.0126582278481" y="375" class="label" text-anchor="middle">2025-11-20</text>
  <text x="81.0126582278481" y="96.53846153846155" class="label" text-anchor="middle">42</text>
  <circle cx="85.56962025316456" cy="101.53846153846155" class="point"/>
  <text x="85.56962025316456" y="375" class="label" text-anchor="middle">2025-11-21</text>
  <text x="85.56962025316456" y="96.53846153846155" class="label" text-anchor="middle">42</text>
  <circle cx="90.12658227848101" cy="101.53846153846155" class="point"/>
  <text x="90.12658227848101" y="375" class="label" text-anchor="middle">2025-11-22</text>
  <text x="90.12658227848101" y="96.53846153846155" class="label" text-anchor="middle">42</text>
  <circle cx="94.68354430379748" cy="101.53846153846155" class="point"/>
  <text x="94.68354430379748" y="375" class="label" text-anchor="middle">2025-11-23</text>
  <text x="94.68354430379748" y="96.53846153846155" class="label" text-anchor="middle">42</text>
  <circle cx="99.24050632911391" cy="101.53846153846155" class="point"/>
  <text x="99.24050632911391" y="375" class="label" text-anchor="middle">2025-11-24</text>
  <text x="99.24050632911391" y="96.53846153846155" class="label" text-anchor="middle">42</text>
  <circle cx="103.79746835443038" cy="101.53846153846155" class="point"/>
  <text x="103.79746835443038" y="375" class="label" text-anchor="middle">2025-11-25</text>
  <text x="103.79746835443038" y="96.53846153846155" class="label" text-anchor="middle">42</text>
  <circle cx="108.35443037974684" cy="101.53846153846155" class="point"/>
  <text x="108.35443037974684" y="375" class="label" text-anchor="middle">2025-11-26</text>
  <text x="108.35443037974684" y="96.53846153846155" class="label" text-anchor="middle">42</text>
  <circle cx="112.9113924050633" cy="101.53846153846155" class="point"/>
  <text x="112.9113924050633" y="375" class="label" text-anchor="middle">2025-11-27</text>
  <text x="112.9113924050633" y="96.53846153846155" class="label" text-anchor="middle">42</text>
  <circle cx="117.46835443037975" cy="101.53846153846155" class="point"/>
  <text x="117.46835443037975" y="375" class="label" text-anchor="middle">2025-11-28</text>
  <text x="117.46835443037975" y="96.53846153846155" class="label" text-anchor="middle">42</text>
  <circle cx="122.0253164556962" cy="101.53846153846155" class="point"/>
  <text x="122.0253164556962" y="375" class="label" text-anchor="middle">2025-11-29</text>
  <text x="122.0253164556962" y="96.53846153846155" class="label" text-anchor="middle">42</text>
  <circle cx="126.58227848101266" cy="101.53846153846155" class="point"/>
  <text x="126.58227848101266" y="375" class="label" text-anchor="middle">2025-11-30</text>
  <text x="126.58227848101266" y="96.53846153846155" class="label" text-anchor="middle">42</text>
  <circle cx="131.13924050632912" cy="101.53846153846155" class="point"/>
  <text x="131.13924050632912" y="375" class="label" text-anchor="middle">2025-12-01</text>
  <text x="131.13924050632912" y="96.53846153846155" class="label" text-anchor="middle">42</text>
  <circle cx="135.69620253164555" cy="101.53846153846155" class="point"/>
  <text x="135.69620253164555" y="375" class="label" text-anchor="middle">2025-12-02</text>
  <text x="135.69620253164555" y="96.53846153846155" class="label" text-anchor="middle">42</text>
  <circle cx="140.25316455696202" cy="101.53846153846155" class="point"/>
  <text x="140.25316455696202" y="375" class="label" text-anchor="middle">2025-12-03</text>
  <text x="140.25316455696202" y="96.53846153846155" class="label" text-anchor="middle">42</text>
  <circle cx="144.81012658227849" cy="101.53846153846155" class="point"/>
  <text x="144.81012658227849" y="375" class="label" text-anchor="middle">2025-12-04</text>
  <text x="144.81012658227849" y="96.53846153846155" class="label" text-anchor="middle">42</text>
  <circle cx="149.36708860759495" cy="101.53846153846155" class="point"/>
  <text x="149.36708860759495" y="375" class="label" text-anchor="middle">2025-12-05</text>
  <text x="149.36708860759495" y="96.53846153846155" class="label" text-anchor="middle">42</text>
  <circle cx="153.92405063291142" cy="101.53846153846155" class="point"/>
  <text x="153.92405063291142" y="375" class="label" text-anchor="middle">2025-12-06</text>
  <text x="153.92405063291142" y="96.53846153846155" class="label" text-anchor="middle">42</text>
  <circle cx="158.48101265822783" cy="101.53846153846155" class="point"/>
  <text x="158.48101265822783" y="375" class="label" text-anchor="middle">2025-12-07</text>
  <text x="158.48101265822783" y="96.53846153846155" class="label" text-anchor="middle">42</text>
  <circle cx="163.0379746835443" cy="40.0" class="point"/>
  <text x="163.0379746835443" y="375" class="label" text-anchor="middle">2025-12-08</text>
  <text x="163.0379746835443" y="35.0" class="label" text-anchor="middle">52</text>
  <circle cx="167.59493670886076" cy="40.0" class="point"/>
  <text x="167.59493670886076" y="375" class="label" text-anchor="middle">2025-12-09</text>
  <text x="167.59493670886076" y="35.0" class="label" text-anchor="middle">52</text>
  <circle cx="172.15189873417722" cy="40.0" class="point"/>
  <text x="172.15189873417722" y="375" class="label" text-anchor="middle">2025-12-10</text>
  <text x="172.15189873417722" y="35.0" class="label" text-anchor="middle">52</text>
  <circle cx="176.7088607594937" cy="40.0" class="point"/>
  <text x="176.7088607594937" y="375" class="label" text-anchor="middle">2025-12-11</text>
  <text x="176.7088607594937" y="35.0" class="label" text-anchor="middle">52</text>
  <circle cx="181.26582278481013" cy="40.0" class="point"/>
  <text x="181.26582278481013" y="375" class="label" text-anchor="middle">2025-12-12</text>
  <text x="181.26582278481013" y="35.0" class="label" text-anchor="middle">52</text>
  <circle cx="185.8227848101266" cy="40.0" class="point"/>
  <text x="185.8227848101266" y="375" class="label" text-anchor="middle">2025-12-13</text>
  <text x="185.8227848101266" y="35.0" class="label" text-anchor="middle">52</text>
  <circle cx="190.37974683544303" cy="40.0" class="point"/>
  <text x="190.37974683544303" y="375" class="label" text-anchor="middle">2025-12-14</text>
  <text x="190.37974683544303" y="35.0" class="label" text-anchor="middle">52</text>
  <circle cx="194.9367088607595" cy="40.0" class="point"/>
  <text x="194.9367088607595" y="375" class="label" text-anchor="middle">2025-12-15</text>
  <text x="194.9367088607595" y="35.0" class="label" text-anchor="middle">52</text>
  <circle cx="199.49367088607593" cy="40.0" class="point"/>
  <text x="199.49367088607593" y="375" class="label" text-anchor="middle">2025-12-16</text>
  <text x="199.49367088607593" y="35.0" class="label" text-anchor="middle">52</text>
  <circle cx="204.0506329113924" cy="40.0" class="point"/>
  <text x="204.0506329113924" y="375" class="label" text-anchor="middle">2025-12-17</text>
  <text x="204.0506329113924" y="35.0" class="label" text-anchor="middle">52</text>
  <circle cx="208.60759493670886" cy="40.0" class="point"/>
  <text x="208.60759493670886" y="375" class="label" text-anchor="middle">2025-12-18</text>
  <text x="208.60759493670886" y="35.0" class="label" text-anchor="middle">52</text>
  <circle cx="213.16455696202533" cy="40.0" class="point"/>
  <text x="213.16455696202533" y="375" class="label" text-anchor="middle">2025-12-19</text>
  <text x="213.16455696202533" y="35.0" class="label" text-anchor="middle">52</text>
  <circle cx="217.72151898734177" cy="40.0" class="point"/>
  <text x="217.72151898734177" y="375" class="label" text-anchor="middle">2025-12-20</text>
  <text x="217.72151898734177" y="35.0" class="label" text-anchor="middle">52</text>
  <circle cx="222.27848101265823" cy="40.0" class="point"/>
  <text x="222.27848101265823" y="375" class="label" text-anchor="middle">2025-12-21</text>
  <text x="222.27848101265823" y="35.0" class="label" text-anchor="middle">52</text>
  <circle cx="226.83544303797467" cy="40.0" class="point"/>
  <text x="226.83544303797467" y="375" class="label" text-anchor="middle">2025-12-22</text>
  <text x="226.83544303797467" y="35.0" class="label" text-anchor="middle">52</text>
  <circle cx="231.3924050632911" cy="40.0" class="point"/>
  <text x="231.3924050632911" y="375" class="label" text-anchor="middle">2025-12-23</text>
  <text x="231.3924050632911" y="35.0" class="label" text-anchor="middle">52</text>
  <circle cx="235.9493670886076" cy="40.0" class="point"/>
  <text x="235.9493670886076" y="375" class="label" text-anchor="middle">2025-12-24</text>
  <text x="235.9493670886076" y="35.0" class="label" text-anchor="middle">52</text>
  <circle cx="240.50632911392404" cy="40.0" class="point"/>
  <text x="240.50632911392404" y="375" class="label" text-anchor="middle">2025-12-25</text>
  <text x="240.50632911392404" y="35.0" class="label" text-anchor="middle">52</text>
  <circle cx="245.06329113924053" cy="40.0" class="point"/>
  <text x="245.06329113924053" y="375" class="label" text-anchor="middle">2025-12-26</text>
  <text x="245.06329113924053" y="35.0" class="label" text-anchor="middle">52</text>
  <circle cx="249.62025316455697" cy="40.0" class="point"/>
  <text x="249.62025316455697" y="375" class="label" text-anchor="middle">2025-12-27</text>
  <text x="249.62025316455697" y="35.0" class="label" text-anchor="middle">52</text>
  <circle cx="254.1772151898734" cy="40.0" class="point"/>
  <text x="254.1772151898734" y="375" class="label" text-anchor="middle">2025-12-28</text>
  <text x="254.1772151898734" y="35.0" class="label" text-anchor="middle">52</text>
  <circle cx="258.7341772151899" cy="40.0" class="point"/>
  <text x="258.7341772151899" y="375" class="label" text-anchor="middle">2025-12-29</text>
  <text x="258.7341772151899" y="35.0" class="label" text-anchor="middle">52</text>
  <circle cx="263.2911392405063" cy="40.0" class="point"/>
  <text x="263.2911392405063" y="375" class="label" text-anchor="middle">2025-12-30</text>
  <text x="263.2911392405063" y="35.0" class="label" text-anchor="middle">52</text>
  <circle cx="267.84810126582283" cy="40.0" class="point"/>
  <text x="267.84810126582283" y="375" class="label" text-anchor="middle">2025-12-31</text>
  <text x="267.84810126582283" y="35.0" class="label" text-anchor="middle">52</text>
  <circle cx="272.40506329113924" cy="40.0" class="point"/>
  <text x="272.40506329113924" y="375" class="label" text-anchor="middle">2026-01-01</text>
  <text x="272.40506329113924" y="35.0" class="label" text-anchor="middle">52</text>
  <circle cx="276.96202531645565" cy="40.0" class="point"/>
  <text x="276.96202531645565" y="375" class="label" text-anchor="middle">2026-01-02</text>
  <text x="276.96202531645565" y="35.0" class="label" text-anchor="middle">52</text>
  <circle cx="281.5189873417722" cy="40.0" class="point"/>
  <text x="281.5189873417722" y="375" class="label" text-anchor="middle">2026-01-03</text>
  <text x="281.5189873417722" y="35.0" class="label" text-anchor="middle">52</text>
  <circle cx="286.0759493670886" cy="40.0" class="point"/>
  <text x="286.0759493670886" y="375" class="label" text-anchor="middle">2026-01-04</text>
  <text x="286.0759493670886" y="35.0" class="label" text-anchor="middle">52</text>
  <circle cx="290.63291139240505" cy="40.0" class="point"/>
  <text x="290.63291139240505" y="375" class="label" text-anchor="middle">2026-01-05</text>
  <text x="290.63291139240505" y="35.0" class="label" text-anchor="middle">52</text>
  <circle cx="295.1898734177215" cy="40.0" class="point"/>
  <text x="295.1898734177215" y="375" class="label" text-anchor="middle">2026-01-06</text>
  <text x="295.1898734177215" y="35.0" class="label" text-anchor="middle">52</text>
  <circle cx="299.746835443038" cy="40.0" class="point"/>
  <text x="299.746835443038" y="375" class="label" text-anchor="middle">2026-01-07</text>
  <text x="299.746835443038" y="35.0" class="label" text-anchor="middle">52</text>
  <circle cx="304.30379746835445" cy="40.0" class="point"/>
  <text x="304.30379746835445" y="375" class="label" text-anchor="middle">2026-01-08</text>
  <text x="304.30379746835445" y="35.0" class="label" text-anchor="middle">52</text>
  <circle cx="308.86075949367086" cy="40.0" class="point"/>
  <text x="308.86075949367086" y="375" class="label" text-anchor="middle">2026-01-09</text>
  <text x="308.86075949367086" y="35.0" class="label" text-anchor="middle">52</text>
  <circle cx="313.4177215189874" cy="40.0" class="point"/>
  <text x="313.4177215189874" y="375" class="label" text-anchor="middle">2026-01-10</text>
  <text x="313.4177215189874" y="35.0" class="label" text-anchor="middle">52</text>
  <circle cx="317.9746835443038" cy="40.0" class="point"/>
  <text x="317.9746835443038" y="375" class="label" text-anchor="middle">2026-01-11</text>
  <text x="317.9746835443038" y="35.0" class="label" text-anchor="middle">52</text>
  <circle cx="322.53164556962025" cy="40.0" class="point"/>
  <text x="322.53164556962025" y="375" class="label" text-anchor="middle">2026-01-12</text>
  <text x="322.53164556962025" y="35.0" class="label" text-anchor="middle">52</text>
  <circle cx="327.0886075949367" cy="40.0" class="point"/>
  <text x="327.0886075949367" y="375" class="label" text-anchor="middle">2026-01-13</text>
  <text x="327.0886075949367" y="35.0" class="label" text-anchor="middle">52</text>
  <circle cx="331.6455696202532" cy="40.0" class="point"/>
  <text x="331.6455696202532" y="375" class="label" text-anchor="middle">2026-01-14</text>
  <text x="331.6455696202532" y="35.0" class="label" text-anchor="middle">52</text>
  <circle cx="336.20253164556965" cy="40.0" class="point"/>
  <text x="336.20253164556965" y="375" class="label" text-anchor="middle">2026-01-15</text>
  <text x="336.20253164556965" y="35.0" class="label" text-anchor="middle">52</text>
  <circle cx="340.75949367088606" cy="40.0" class="point"/>
  <text x="340.75949367088606" y="375" class="label" text-anchor="middle">2026-01-16</text>
  <text x="340.75949367088606" y="35.0" class="label" text-anchor="middle">52</text>
  <circle cx="345.3164556962025" cy="40.0" class="point"/>
  <text x="345.3164556962025" y="375" class="label" text-anchor="middle">2026-01-17</text>
  <text x="345.3164556962025" y="35.0" class="label" text-anchor="middle">52</text>
  <circle cx="349.873417721519" cy="40.0" class="point"/>
  <text x="349.873417721519" y="375" class="label" text-anchor="middle">2026-01-18</text>
  <text x="349.873417721519" y="35.0" class="label" text-anchor="middle">52</text>
  <circle cx="354.43037974683546" cy="40.0" class="point"/>
  <text x="354.43037974683546" y="375" class="label" text-anchor="middle">2026-01-19</text>
  <text x="354.43037974683546" y="35.0" class="label" text-anchor="middle">52</text>
  <circle cx="358.98734177215186" cy="40.0" class="point"/>
  <text x="358.98734177215186" y="375" class="label" text-anchor="middle">2026-01-20</text>
  <text x="358.98734177215186" y="35.0" class="label" text-anchor="middle">52</text>
  <circle cx="363.5443037974684" cy="40.0" class="point"/>
  <text x="363.5443037974684" y="375" class="label" text-anchor="middle">2026-01-21</text>
  <text x="363.5443037974684" y="35.0" class="label" text-anchor="middle">52</text>
  <circle cx="368.1012658227848" cy="40.0" class="point"/>
  <text x="368.1012658227848" y="375" class="label" text-anchor="middle">2026-01-22</text>
  <text x="368.1012658227848" y="35.0" class="label" text-anchor="middle">52</text>
  <circle cx="372.65822784810126" cy="40.0" class="point"/>
  <text x="372.65822784810126" y="375" class="label" text-anchor="middle">2026-01-23</text>
  <text x="372.65822784810126" y="35.0" class="label" text-anchor="middle">52</text>
  <circle cx="377.2151898734177" cy="40.0" class="point"/>
  <text x="377.2151898734177" y="375" class="label" text-anchor="middle">2026-01-24</text>
  <text x="377.2151898734177" y="35.0" class="label" text-anchor="middle">52</text>
  <circle cx="381.77215189873414" cy="40.0" class="point"/>
  <text x="381.77215189873414" y="375" class="label" text-anchor="middle">2026-01-25</text>
  <text x="381.77215189873414" y="35.0" class="label" text-anchor="middle">52</text>
  <circle cx="386.32911392405066" cy="40.0" class="point"/>
  <text x="386.32911392405066" y="375" class="label" text-anchor="middle">2026-01-26</text>
  <text x="386.32911392405066" y="35.0" class="label" text-anchor="middle">52</text>
  <circle cx="390.88607594936707" cy="40.0" class="point"/>
  <text x="390.88607594936707" y="375" class="label" text-anchor="middle">2026-01-27</text>
  <text x="390.88607594936707" y="35.0" class="label" text-anchor="middle">52</text>
  <circle cx="395.44303797468353" cy="40.0" class="point"/>
  <text x="395.44303797468353" y="375" class="label" text-anchor="middle">2026-01-28</text>
  <text x="395.44303797468353" y="35.0" class="label" text-anchor="middle">52</text>
  <circle cx="400.0" cy="40.0" class="point"/>
  <text x="400.0" y="375" class="label" text-anchor="middle">2026-01-29</text>
  <text x="400.0" y="35.0" class="label" text-anchor="middle">52</text>
  <circle cx="404.55696202531647" cy="40.0" class="point"/>
  <text x="404.55696202531647" y="375" class="label" text-anchor="middle">2026-01-30</text>
  <text x="404.55696202531647" y="35.0" class="label" text-anchor="middle">52</text>
  <circle cx="409.1139240506329" cy="40.0" class="point"/>
  <text x="409.1139240506329" y="375" class="label" text-anchor="middle">2026-01-31</text>
  <text x="409.1139240506329" y="35.0" class="label" text-anchor="middle">52</text>
  <circle cx="413.67088607594934" cy="40.0" class="point"/>
  <text x="413.67088607594934" y="375" class="label" text-anchor="middle">2026-02-01</text>
  <text x="413.67088607594934" y="35.0" class="label" text-anchor="middle">52</text>
  <circle cx="418.22784810126586" cy="40.0" class="point"/>
  <text x="418.22784810126586" y="375" class="label" text-anchor="middle">2026-02-02</text>
  <text x="418.22784810126586" y="35.0" class="label" text-anchor="middle">52</text>
  <circle cx="422.7848101265822" cy="40.0" class="point"/>
  <text x="422.7848101265822" y="375" class="label" text-anchor="middle">2026-02-03</text>
  <text x="422.7848101265822" y="35.0" class="label" text-anchor="middle">52</text>
  <circle cx="427.34177215189874" cy="40.0" class="point"/>
  <text x="427.34177215189874" y="375" class="label" text-anchor="middle">2026-02-04</text>
  <text x="427.34177215189874" y="35.0" class="label" text-anchor="middle">52</text>
  <circle cx="431.8987341772152" cy="40.0" class="point"/>
  <text x="431.8987341772152" y="375" class="label" text-anchor="middle">2026-02-05</text>
  <text x="431.8987341772152" y="35.0" class="label" text-anchor="middle">52</text>
  <circle cx="436.45569620253167" cy="40.0" class="point"/>
  <text x="436.45569620253167" y="375" class="label" text-anchor="middle">2026-02-06</text>
  <text x="436.45569620253167" y="35.0" class="label" text-anchor="middle">52</text>
  <circle cx="441.0126582278481" cy="40.0" class="point"/>
  <text x="441.0126582278481" y="375" class="label" text-anchor="middle">2026-02-07</text>
  <text x="441.0126582278481" y="35.0" class="label" text-anchor="middle">52</text>
  <circle cx="445.56962025316454" cy="40.0" class="point"/>
  <text x="445.56962025316454" y="375" class="label" text-anchor="middle">2026-02-08</text>
  <text x="445.56962025316454" y="35.0" class="label" text-anchor="middle">52</text>
  <circle cx="450.12658227848107" cy="40.0" class="point"/>
  <text x="450.12658227848107" y="375" class="label" text-anchor="middle">2026-02-09</text>
  <text x="450.12658227848107" y="35.0" class="label" text-anchor="middle">52</text>
  <circle cx="454.6835443037974" cy="40.0" class="point"/>
  <text x="454.6835443037974" y="375" class="label" text-anchor="middle">2026-02-10</text>
  <text x="454.6835443037974" y="35.0" class="label" text-anchor="middle">52</text>
  <circle cx="459.24050632911394" cy="40.0" class="point"/>
  <text x="459.24050632911394" y="375" class="label" text-anchor="middle">2026-02-11</text>
  <text x="459.24050632911394" y="35.0" class="label" text-anchor="middle">52</text>
  <circle cx="463.7974683544304" cy="40.0" class="point"/>
  <text x="463.7974683544304" y="375" class="label" text-anchor="middle">2026-02-12</text>
  <text x="463.7974683544304" y="35.0" class="label" text-anchor="middle">52</text>
  <circle cx="468.3544303797468" cy="40.0" class="point"/>
  <text x="468.3544303797468" y="375" class="label" text-anchor="middle">2026-02-13</text>
  <text x="468.3544303797468" y="35.0" class="label" text-anchor="middle">52</text>
  <circle cx="472.9113924050633" cy="40.0" class="point"/>
  <text x="472.9113924050633" y="375" class="label" text-anchor="middle">2026-02-14</text>
  <text x="472.9113924050633" y="35.0" class="label" text-anchor="middle">52</text>
  <circle cx="477.46835443037975" cy="40.0" class="point"/>
  <text x="477.46835443037975" y="375" class="label" text-anchor="middle">2026-02-15</text>
  <text x="477.46835443037975" y="35.0" class="label" text-anchor="middle">52</text>
  <circle cx="482.0253164556962" cy="40.0" class="point"/>
  <text x="482.0253164556962" y="375" class="label" text-anchor="middle">2026-02-16</text>
  <text x="482.0253164556962" y="35.0" class="label" text-anchor="middle">52</text>
  <circle cx="486.5822784810126" cy="40.0" class="point"/>
  <text x="486.5822784810126" y="375" class="label" text-anchor="middle">2026-02-17</text>
  <text x="486.5822784810126" y="35.0" class="label" text-anchor="middle">52</text>
  <circle cx="491.13924050632914" cy="40.0" class="point"/>
  <text x="491.13924050632914" y="375" class="label" text-anchor="middle">2026-02-18</text>
  <text x="491.13924050632914" y="35.0" class="label" text-anchor="middle">52</text>
  <circle cx="495.6962025316456" cy="40.0" class="point"/>
  <text x="495.6962025316456" y="375" class="label" text-anchor="middle">2026-02-19</text>
  <text x="495.6962025316456" y="35.0" class="label" text-anchor="middle">52</text>
  <circle cx="500.253164556962" cy="40.0" class="point"/>
  <text x="500.253164556962" y="375" class="label" text-anchor="middle">2026-02-20</text>
  <text x="500.253164556962" y="35.0" class="label" text-anchor="middle">52</text>
  <circle cx="504.8101265822785" cy="40.0" class="point"/>
  <text x="504.8101265822785" y="375" class="label" text-anchor="middle">2026-02-21</text>
  <text x="504.8101265822785" y="35.0" class="label" text-anchor="middle">52</text>
  <circle cx="509.36708860759495" cy="40.0" class="point"/>
  <text x="509.36708860759495" y="375" class="label" text-anchor="middle">2026-02-22</text>
  <text x="509.36708860759495" y="35.0" class="label" text-anchor="middle">52</text>
  <circle cx="513.9240506329113" cy="40.0" class="point"/>
  <text x="513.9240506329113" y="375" class="label" text-anchor="middle">2026-02-23</text>
  <text x="513.9240506329113" y="35.0" class="label" text-anchor="middle">52</text>
  <circle cx="518.4810126582279" cy="40.0" class="point"/>
  <text x="518.4810126582279" y="375" class="label" text-anchor="middle">2026-02-24</text>
  <text x="518.4810126582279" y="35.0" class="label" text-anchor="middle">52</text>
  <circle cx="523.0379746835443" cy="40.0" class="point"/>
  <text x="523.0379746835443" y="375" class="label" text-anchor="middle">2026-02-25</text>
  <text x="523.0379746835443" y="35.0" class="label" text-anchor="middle">52</text>
  <circle cx="527.5949367088607" cy="40.0" class="point"/>
  <text x="527.5949367088607" y="375" class="label" text-anchor="middle">2026-02-26</text>
  <text x="527.5949367088607" y="35.0" class="label" text-anchor="middle">52</text>
  <circle cx="532.1518987341772" cy="40.0" class="point"/>
  <text x="532.1518987341772" y="375" class="label" text-anchor="middle">2026-02-27</text>
  <text x="532.1518987341772" y="35.0" class="label" text-anchor="middle">52</text>
  <circle cx="536.7088607594937" cy="40.0" class="point"/>
  <text x="536.7088607594937" y="375" class="label" text-anchor="middle">2026-02-28</text>
  <text x="536.7088607594937" y="35.0" class="label" text-anchor="middle">52</text>
  <circle cx="541.2658227848101" cy="40.0" class="point"/>
  <text x="541.2658227848101" y="375" class="label" text-anchor="middle">2026-03-01</text>
  <text x="541.2658227848101" y="35.0" class="label" text-anchor="middle">52</text>
  <circle cx="545.8227848101266" cy="40.0" class="point"/>
  <text x="545.8227848101266" y="375" class="label" text-anchor="middle">2026-03-02</text>
  <text x="545.8227848101266" y="35.0" class="label" text-anchor="middle">52</text>
  <circle cx="550.379746835443" cy="40.0" class="point"/>
  <text x="550.379746835443" y="375" class="label" text-anchor="middle">2026-03-03</text>
  <text x="550.379746835443" y="35.0" class="label" text-anchor="middle">52</text>
  <circle cx="554.9367088607595" cy="40.0" class="point"/>
  <text x="554.9367088607595" y="375" class="label" text-anchor="middle">2026-03-04</text>
  <text x="554.9367088607595" y="35.0" class="label" text-anchor="middle">52</text>
  <circle cx="559.493670886076" cy="40.0" class="point"/>
  <text x="559.493670886076" y="375" class="label" text-anchor="middle">2026-03-05</text>
  <text x="559.493670886076" y="35.0" class="label" text-anchor="middle">52</text>
  <circle cx="564.0506329113924" cy="40.0" class="point"/>
  <text x="564.0506329113924" y="375" class="label" text-anchor="middle">2026-03-06</text>
  <text x="564.0506329113924" y="35.0" class="label" text-anchor="middle">52</text>
  <circle cx="568.6075949367089" cy="40.0" class="point"/>
  <text x="568.6075949367089" y="375" class="label" text-anchor="middle">2026-03-07</text>
  <text x="568.6075949367089" y="35.0" class="label" text-anchor="middle">52</text>
  <circle cx="573.1645569620252" cy="40.0" class="point"/>
  <text x="573.1645569620252" y="375" class="label" text-anchor="middle">2026-03-08</text>
  <text x="573.1645569620252" y="35.0" class="label" text-anchor="middle">52</text>
  <circle cx="577.7215189873417" cy="40.0" class="point"/>
  <text x="577.7215189873417" y="375" class="label" text-anchor="middle">2026-03-09</text>
  <text x="577.7215189873417" y="35.0" class="label" text-anchor="middle">52</text>
  <circle cx="582.2784810126583" cy="40.0" class="point"/>
  <text x="582.2784810126583" y="375" class="label" text-anchor="middle">2026-03-10</text>
  <text x="582.2784810126583" y="35.0" class="label" text-anchor="middle">52</text>
  <circle cx="586.8354430379748" cy="40.0" class="point"/>
  <text x="586.8354430379748" y="375" class="label" text-anchor="middle">2026-03-11</text>
  <text x="586.8354430379748" y="35.0" class="label" text-anchor="middle">52</text>
  <circle cx="591.3924050632911" cy="40.0" class="point"/>
  <text x="591.3924050632911" y="375" class="label" text-anchor="middle">2026-03-12</text>
  <text x="591.3924050632911" y="35.0" class="label" text-anchor="middle">52</text>
  <circle cx="595.9493670886076" cy="40.0" class="point"/>
  <text x="595.9493670886076" y="375" class="label" text-anchor="middle">2026-03-13</text>
  <text x="595.9493670886076" y="35.0" class="label" text-anchor="middle">52</text>
  <circle cx="600.506329113924" cy="40.0" class="point"/>
  <text x="600.506329113924" y="375" class="label" text-anchor="middle">2026-03-14</text>
  <text x="600.506329113924" y="35.0" class="label" text-anchor="middle">52</text>
  <circle cx="605.0632911392405" cy="40.0" class="point"/>
  <text x="605.0632911392405" y="375" class="label" text-anchor="middle">2026-03-15</text>
  <text x="605.0632911392405" y="35.0" class="label" text-anchor="middle">52</text>
  <circle cx="609.620253164557" cy="40.0" class="point"/>
  <text x="609.620253164557" y="375" class="label" text-anchor="middle">2026-03-16</text>
  <text x="609.620253164557" y="35.0" class="label" text-anchor="middle">52</text>
  <circle cx="614.1772151898734" cy="40.0" class="point"/>
  <text x="614.1772151898734" y="375" class="label" text-anchor="middle">2026-03-17</text>
  <text x="614.1772151898734" y="35.0" class="label" text-anchor="middle">52</text>
  <circle cx="618.7341772151898" cy="40.0" class="point"/>
  <text x="618.7341772151898" y="375" class="label" text-anchor="middle">2026-03-18</text>
  <text x="618.7341772151898" y="35.0" class="label" text-anchor="middle">52</text>
  <circle cx="623.2911392405064" cy="40.0" class="point"/>
  <text x="623.2911392405064" y="375" class="label" text-anchor="middle">2026-03-19</text>
  <text x="623.2911392405064" y="35.0" class="label" text-anchor="middle">52</text>
  <circle cx="627.8481012658228" cy="40.0" class="point"/>
  <text x="627.8481012658228" y="375" class="label" text-anchor="middle">2026-03-20</text>
  <text x="627.8481012658228" y="35.0" class="label" text-anchor="middle">52</text>
  <circle cx="632.4050632911393" cy="40.0" class="point"/>
  <text x="632.4050632911393" y="375" class="label" text-anchor="middle">2026-03-21</text>
  <text x="632.4050632911393" y="35.0" class="label" text-anchor="middle">52</text>
  <circle cx="636.9620253164557" cy="40.0" class="point"/>
  <text x="636.9620253164557" y="375" class="label" text-anchor="middle">2026-03-22</text>
  <text x="636.9620253164557" y="35.0" class="label" text-anchor="middle">52</text>
  <circle cx="641.5189873417721" cy="40.0" class="point"/>
  <text x="641.5189873417721" y="375" class="label" text-anchor="middle">2026-03-23</text>
  <text x="641.5189873417721" y="35.0" class="label" text-anchor="middle">52</text>
  <circle cx="646.0759493670887" cy="40.0" class="point"/>
  <text x="646.0759493670887" y="375" class="label" text-anchor="middle">2026-03-24</text>
  <text x="646.0759493670887" y="35.0" class="label" text-anchor="middle">52</text>
  <circle cx="650.632911392405" cy="40.0" class="point"/>
  <text x="650.632911392405" y="375" class="label" text-anchor="middle">2026-03-25</text>
  <text x="650.632911392405" y="35.0" class="label" text-anchor="middle">52</text>
  <circle cx="655.1898734177215" cy="40.0" class="point"/>
  <text x="655.1898734177215" y="375" class="label" text-anchor="middle">2026-03-26</text>
  <text x="655.1898734177215" y="35.0" class="label" text-anchor="middle">52</text>
  <circle cx="659.746835443038" cy="40.0" class="point"/>
  <text x="659.746835443038" y="375" class="label" text-anchor="middle">2026-03-27</text>
  <text x="659.746835443038" y="35.0" class="label" text-anchor="middle">52</text>
  <circle cx="664.3037974683544" cy="40.0" class="point"/>
  <text x="664.3037974683544" y="375" class="label" text-anchor="middle">2026-03-28</text>
  <text x="664.3037974683544" y="35.0" class="label" text-anchor="middle">52</text>
  <circle cx="668.8607594936709" cy="40.0" class="point"/>
  <text x="668.8607594936709" y="375" class="label" text-anchor="middle">2026-03-29</text>
  <text x="668.8607594936709" y="35.0" class="label" text-anchor="middle">52</text>
  <circle cx="673.4177215189874" cy="40.0" class="point"/>
  <text x="673.4177215189874" y="375" class="label" text-anchor="middle">2026-03-30</text>
  <text x="673.4177215189874" y="35.0" class="label" text-anchor="middle">52</text>
  <circle cx="677.9746835443037" cy="40.0" class="point"/>
  <text x="677.9746835443037" y="375" class="label" text-anchor="middle">2026-03-31</text>
  <text x="677.9746835443037" y="35.0" class="label" text-anchor="middle">52</text>
  <circle cx="682.5316455696202" cy="40.0" class="point"/>
  <text x="682.5316455696202" y="375" class="label" text-anchor="middle">2026-04-01</text>
  <text x="682.5316455696202" y="35.0" class="label" text-anchor="middle">52</text>
  <circle cx="687.0886075949368" cy="40.0" class="point"/>
  <text x="687.0886075949368" y="375" class="label" text-anchor="middle">2026-04-02</text>
  <text x="687.0886075949368" y="35.0" class="label" text-anchor="middle">52</text>
  <circle cx="691.6455696202532" cy="40.0" class="point"/>
  <text x="691.6455696202532" y="375" class="label" text-anchor="middle">2026-04-03</text>
  <text x="691.6455696202532" y="35.0" class="label" text-anchor="middle">52</text>
  <circle cx="696.2025316455696" cy="40.0" class="point"/>
  <text x="696.2025316455696" y="375" class="label" text-anchor="middle">2026-04-04</text>
  <text x="696.2025316455696" y="35.0" class="label" text-anchor="middle">52</text>
  <circle cx="700.7594936708861" cy="40.0" class="point"/>
  <text x="700.7594936708861" y="375" class="label" text-anchor="middle">2026-04-05</text>
  <text x="700.7594936708861" y="35.0" class="label" text-anchor="middle">52</text>
  <circle cx="705.3164556962025" cy="40.0" class="point"/>
  <text x="705.3164556962025" y="375" class="label" text-anchor="middle">2026-04-06</text>
  <text x="705.3164556962025" y="35.0" class="label" text-anchor="middle">52</text>
  <circle cx="709.873417721519" cy="40.0" class="point"/>
  <text x="709.873417721519" y="375" class="label" text-anchor="middle">2026-04-07</text>
  <text x="709.873417721519" y="35.0" class="label" text-anchor="middle">52</text>
  <circle cx="714.4303797468355" cy="40.0" class="point"/>
  <text x="714.4303797468355" y="375" class="label" text-anchor="middle">2026-04-08</text>
  <text x="714.4303797468355" y="35.0" class="label" text-anchor="middle">52</text>
  <circle cx="718.9873417721519" cy="40.0" class="point"/>
  <text x="718.9873417721519" y="375" class="label" text-anchor="middle">2026-04-09</text>
  <text x="718.9873417721519" y="35.0" class="label" text-anchor="middle">52</text>
  <circle cx="723.5443037974683" cy="40.0" class="point"/>
  <text x="723.5443037974683" y="375" class="label" text-anchor="middle">2026-04-10</text>
  <text x="723.5443037974683" y="35.0" class="label" text-anchor="middle">52</text>
  <circle cx="728.1012658227849" cy="40.0" class="point"/>
  <text x="728.1012658227849" y="375" class="label" text-anchor="middle">2026-04-11</text>
  <text x="728.1012658227849" y="35.0" class="label" text-anchor="middle">52</text>
  <circle cx="732.6582278481013" cy="40.0" class="point"/>
  <text x="732.6582278481013" y="375" class="label" text-anchor="middle">2026-04-12</text>
  <text x="732.6582278481013" y="35.0" class="label" text-anchor="middle">52</text>
  <circle cx="737.2151898734178" cy="40.0" class="point"/>
  <text x="737.2151898734178" y="375" class="label" text-anchor="middle">2026-04-13</text>
  <text x="737.2151898734178" y="35.0" class="label" text-anchor="middle">52</text>
  <circle cx="741.7721518987341" cy="40.0" class="point"/>
  <text x="741.7721518987341" y="375" class="label" text-anchor="middle">2026-04-14</text>
  <text x="741.7721518987341" y="35.0" class="label" text-anchor="middle">52</text>
  <circle cx="746.3291139240506" cy="40.0" class="point"/>
  <text x="746.3291139240506" y="375" class="label" text-anchor="middle">2026-04-15</text>
  <text x="746.3291139240506" y="35.0" class="label" text-anchor="middle">52</text>
  <circle cx="750.8860759493671" cy="40.0" class="point"/>
  <text x="750.8860759493671" y="375" class="label" text-anchor="middle">2026-04-16</text>
  <text x="750.8860759493671" y="35.0" class="label" text-anchor="middle">52</text>
  <circle cx="755.4430379746835" cy="40.0" class="point"/>
  <text x="755.4430379746835" y="375" class="label" text-anchor="middle">2026-04-17</text>
  <text x="755.4430379746835" y="35.0" class="label" text-anchor="middle">52</text>
  <circle cx="760.0" cy="40.0" class="point"/>
  <text x="760.0" y="375" class="label" text-anchor="middle">2026-04-18</text>
  <text x="760.0" y="35.0" class="label" text-anchor="middle">52</text>
  <text x="30" y="363.0" class="label" text-anchor="end">0</text>
  <text x="30" y="301.46153846153845" class="label" text-anchor="end">10</text>
  <text x="30" y="239.9230769230769" class="label" text-anchor="end">20</text>
  <text x="30" y="178.38461538461542" class="label" text-anchor="end">30</text>
  <text x="30" y="116.84615384615384" class="label" text-anchor="end">40</text>
  <text x="30" y="55.30769230769232" class="label" text-anchor="end">50</text>
</svg>