<svg xmlns="http://www.w3.org/2000/svg" width="800" height="400" viewBox="0 0 800 400">
  <style>
    .axis{stroke:#666;stroke-width:1}
    .line{stroke:#4a9;stroke-width:2;fill:none}
    .point{fill:#4a9;r:4}
    .label{font:10px sans-serif;fill:#aaa}
    .title{font:14px sans-serif;fill:#333}
  </style>
  <text x="400" y="20" class="title" text-anchor="middle">OPIC Field Growth Timeline</text>
  <line x1="40" y1="40" x2="40" y2="360" class="axis"/>
  <line x1="40" y1="360" x2="760" y2="360" class="axis"/>
  <path d="M 40.0,101.53846153846155 L 44.31137724550898,101.53846153846155 L 48.622754491017965,101.53846153846155 L 52.93413173652694,101.53846153846155 L 57.24550898203593,101.53846153846155 L 61.55688622754491,101.53846153846155 L 65.86826347305389,101.53846153846155 L 70.17964071856287,101.53846153846155 L 74.49101796407186,101.53846153846155 L 78.80239520958084,101.53846153846155 L 83.11377245508982,101.53846153846155 L 87.42514970059881,101.53846153846155 L 91.73652694610777,101.53846153846155 L 96.04790419161677,101.53846153846155 L 100.35928143712574,101.53846153846155 L 104.67065868263474,101.53846153846155 L 108.98203592814372,101.53846153846155 L 113.2934131736527,101.53846153846155 L 117.60479041916167,101.53846153846155 L 121.91616766467065,101.53846153846155 L 126.22754491017965,101.53846153846155 L 130.53892215568862,101.53846153846155 L 134.85029940119762,101.53846153846155 L 139.1616766467066,101.53846153846155 L 143.47305389221555,101.53846153846155 L 147.78443113772454,101.53846153846155 L 152.09580838323353,101.53846153846155 L 156.40718562874252,40.0 L 160.7185628742515,40.0 L 165.02994011976048,40.0 L 169.34131736526948,40.0 L 173.65269461077844,40.0 L 177.96407185628743,40.0 L 182.2754491017964,40.0 L 186.5868263473054,40.0 L 190.89820359281435,40.0 L 195.20958083832335,40.0 L 199.52095808383234,40.0 L 203.8323353293413,40.0 L 208.1437125748503,40.0 L 212.4550898203593,40.0 L 216.76646706586826,40.0 L 221.07784431137725,40.0 L 225.3892215568862,40.0 L 229.70059880239523,40.0 L 234.0119760479042,40.0 L 238.3233532934132,40.0 L 242.63473053892216,40.0 L 246.94610778443112,40.0 L 251.2574850299401,40.0 L 255.56886227544908,40.0 L 259.88023952095807,40.0 L 264.19161676646706,40.0 L 268.50299401197606,40.0 L 272.81437125748505,40.0 L 277.12574850299404,40.0 L 281.437125748503,40.0 L 285.74850299401203,40.0 L 290.05988023952096,40.0 L 294.37125748502996,40.0 L 298.68263473053895,40.0 L 302.9940119760479,40.0 L 307.3053892215569,40.0 L 311.6167664670659,40.0 L 315.92814371257487,40.0 L 320.23952095808386,40.0 L 324.5508982035928,40.0 L 328.8622754491018,40.0 L 333.1736526946108,40.0 L 337.4850299401198,40.0 L 341.7964071856287,40.0 L 346.10778443113776,40.0 L 350.4191616766467,40.0 L 354.7305389221557,40.0 L 359.0419161676647,40.0 L 363.3532934131736,40.0 L 367.6646706586826,40.0 L 371.97604790419166,40.0 L 376.2874251497006,40.0 L 380.5988023952096,40.0 L 384.9101796407186,40.0 L 389.2215568862275,40.0 L 393.5329341317365,40.0 L 397.8443113772455,40.0 L 402.1556886227545,40.0 L 406.4670658682635,40.0 L 410.7784431137724,40.0 L 415.0898203592814,40.0 L 419.40119760479047,40.0 L 423.7125748502994,40.0 L 428.0239520958084,40.0 L 432.33532934131733,40.0 L 436.6467065868264,40.0 L 440.9580838323353,40.0 L 445.2694610778443,40.0 L 449.5808383233533,40.0 L 453.89221556886224,40.0 L 458.2035928143713,40.0 L 462.5149700598802,40.0 L 466.8263473053892,40.0 L 471.13772455089816,40.0 L 475.4491017964072,40.0 L 479.7604790419162,40.0 L 484.07185628742513,40.0 L 488.3832335329341,40.0 L 492.69461077844306,40.0 L 497.0059880239521,40.0 L 501.3173652694611,40.0 L 505.62874251497004,40.0 L 509.9401197604791,40.0 L 514.2514970059881,40.0 L 518.5628742514971,40.0 L 522.874251497006,40.0 L 527.185628742515,40.0 L 531.4970059880241,40.0 L 535.8083832335329,40.0 L 540.1197604790419,40.0 L 544.4311377245508,40.0 L 548.7425149700599,40.0 L 553.0538922155688,40.0 L 557.3652694610779,40.0 L 561.6766467065869,40.0 L 565.9880239520958,40.0 L 570.2994011976048,40.0 L 574.6107784431138,40.0 L 578.9221556886228,40.0 L 583.2335329341317,40.0 L 587.5449101796407,40.0 L 591.8562874251497,40.0 L 596.1676646706587,40.0 L 600.4790419161677,40.0 L 604.7904191616766,40.0 L 609.1017964071856,40.0 L 613.4131736526946,40.0 L 617.7245508982036,40.0 L 622.0359281437126,40.0 L 626.3473053892216,40.0 L 630.6586826347306,40.0 L 634.9700598802395,40.0 L 639.2814371257485,40.0 L 643.5928143712574,40.0 L 647.9041916167664,40.0 L 652.2155688622755,40.0 L 656.5269461077844,40.0 L 660.8383233532934,40.0 L 665.1497005988024,40.0 L 669.4610778443114,40.0 L 673.7724550898204,40.0 L 678.0838323353294,40.0 L 682.3952095808384,40.0 L 686.7065868263472,40.0 L 691.0179640718563,40.0 L 695.3293413173652,40.0 L 699.6407185628742,40.0 L 703.9520958083833,40.0 L 708.2634730538922,40.0 L 712.5748502994012,40.0 L 716.8862275449102,40.0 L 721.1976047904192,40.0 L 725.508982035928,40.0 L 729.8203592814372,40.0 L 734.1317365269462,40.0 L 738.443113772455,40.0 L 742.7544910179641,40.0 L 747.065868263473,40.0 L 751.377245508982,40.0 L 755.688622754491,40.0 L 760.0,40.0" class="line"/>
  <circle cx="40.0" cy="101.53846153846155" class="point"/>
  <text x="40.0" y="375" class="label" text-anchor="middle">2025-11-11</text>
  <text x="40.0" y="96.53846153846155" class="label" text-anchor="middle">42</text>
  <circle cx="44.31137724550898" cy="101.53846153846155" class="point"/>
  <text x="44.31137724550898" y="375" class="label" text-anchor="middle">2025-11-12</text>
  <text x="44.31137724550898" y="96.53846153846155" class="label" text-anchor="middle">42</text>
  <circle cx="48.622754491017965" cy="101.53846153846155" class="point"/>
  <text x="48.622754491017965" y="375" class="label" text-anchor="middle">2025-11-13</text>
  <text x="48.622754491017965" y="96.53846153846155" class="label" text-anchor="middle">42</text>
  <circle cx="52.93413173652694" cy="101.53846153846155" class="point"/>
  <text x="52.93413173652694" y="375" class="label" text-anchor="middle">2025-11-14</text>
  <text x="52.93413173652694" y="96.53846153846155" class="label" text-anchor="middle">42</text>
  <circle cx="57.24550898203593" cy="101.53846153846155" class="point"/>
  <text x="57.24550898203593" y="375" class="label" text-anchor="middle">2025-11-15</text>
  <text x="57.24550898203593" y="96.53846153846155" class="label" text-anchor="middle">42</text>
  <circle cx="61.55688622754491" cy="101.53846153846155" class="point"/>
  <text x="61.55688622754491" y="375" class="label" text-anchor="middle">2025-11-16</text>
  <text x="61.55688622754491" y="96.53846153846155" class="label" text-anchor="middle">42</text>
  <circle cx="65.86826347305389" cy="101.53846153846155" class="point"/>
  <text x="65.86826347305389" y="375" class="label" text-anchor="middle">2025-11-17</text>
  <text x="65.86826347305389" y="96.53846153846155" class="label" text-anchor="middle">42</text>
  <circle cx="70.17964071856287" cy="101.53846153846155" class="point"/>
  <text x="70.17964071856287" y="375" class="label" text-anchor="middle">2025-11-18</text>
  <text x="70.17964071856287" y="96.53846153846155" class="label" text-anchor="middle">42</text>
  <circle cx="74.49101796407186" cy="101.53846153846155" class="point"/>
  <text x="74.49101796407186" y="375" class="label" text-anchor="middle">2025-11-19</text>
  <text x="74.49101796407186" y="96.53846153846155" class="label" text-anchor="middle">42</text>
  <circle cx="78.80239520958084" cy="101.53846153846155" class="point"/>
  <text x="78.80239520958084" y="375" class="label" text-anchor="middle">2025-11-20</text>
  <text x="78.80239520958084" y="96.53846153846155" class="label" text-anchor="middle">42</text>
  <circle cx="83.11377245508982" cy="101.53846153846155" class="point"/>
  <text x="83.11377245508982" y="375" class="label" text-anchor="middle">2025-11-21</text>
  <text x="83.11377245508982" y="96.53846153846155" class="label" text-anchor="middle">42</text>
  <circle cx="87.42514970059881" cy="101.53846153846155" class="point"/>
  <text x="87.42514970059881" y="375" class="label" text-anchor="middle">2025-11-22</text>
  <text x="87.42514970059881" y="96.53846153846155" class="label" text-anchor="middle">42</text>
  <circle cx="91.73652694610777" cy="101.53846153846155" class="point"/>
  <text x="91.73652694610777" y="375" class="label" text-anchor="middle">2025-11-23</text>
  <text x="91.73652694610777" y="96.53846153846155" class="label" text-anchor="middle">42</text>
  <circle cx="96.04790419161677" cy="101.53846153846155" class="point"/>
  <text x="96.04790419161677" y="375" class="label" text-anchor="middle">2025-11-24</text>
  <text x="96.04790419161677" y="96.53846153846155" class="label" text-anchor="middle">42</text>
  <circle cx="100.35928143712574" cy="101.53846153846155" class="point"/>
  <text x="100.35928143712574" y="375" class="label" text-anchor="middle">2025-11-25</text>
  <text x="100.35928143712574" y="96.53846153846155" class="label" text-anchor="middle">42</text>
  <circle cx="104.67065868263474" cy="101.53846153846155" class="point"/>
  <text x="104.67065868263474" y="375" class="label" text-anchor="middle">2025-11-26</text>
  <text x="104.67065868263474" y="96.53846153846155" class="label" text-anchor="middle">42</text>
  <circle cx="108.98203592814372" cy="101.53846153846155" class="point"/>
  <text x="108.98203592814372" y="375" class="label" text-anchor="middle">2025-11-27</text>
  <text x="108.98203592814372" y="96.53846153846155" class="label" text-anchor="middle">42</text>
  <circle cx="113.2934131736527" cy="101.53846153846155" class="point"/>
  <text x="113.2934131736527" y="375" class="label" text-anchor="middle">2025-11-28</text>
  <text x="113.2934131736527" y="96.53846153846155" class="label" text-anchor="middle">42</text>
  <circle cx="117.60479041916167" cy="101.53846153846155" class="point"/>
  <text x="117.60479041916167" y="375" class="label" text-anchor="middle">2025-11-29</text>
  <text x="117.60479041916167" y="96.53846153846155" class="label" text-anchor="middle">42</text>
  <circle cx="121.91616766467065" cy="101.53846153846155" class="point"/>
  <text x="121.91616766467065" y="375" class="label" text-anchor="middle">2025-11-30</text>
  <text x="121.91616766467065" y="96.53846153846155" class="label" text-anchor="middle">42</text>
  <circle cx="126.22754491017965" cy="101.53846153846155" class="point"/>
  <text x="126.22754491017965" y="375" class="label" text-anchor="middle">2025-12-01</text>
  <text x="126.22754491017965" y="96.53846153846155" class="label" text-anchor="middle">42</text>
  <circle cx="130.53892215568862" cy="101.53846153846155" class="point"/>
  <text x="130.53892215568862" y="375" class="label" text-anchor="middle">2025-12-02</text>
  <text x="130.53892215568862" y="96.53846153846155" class="label" text-anchor="middle">42</text>
  <circle cx="134.85029940119762" cy="101.53846153846155" class="point"/>
  <text x="134.85029940119762" y="375" class="label" text-anchor="middle">2025-12-03</text>
  <text x="134.85029940119762" y="96.53846153846155" class="label" text-anchor="middle">42</text>
  <circle cx="139.1616766467066" cy="101.53846153846155" class="point"/>
  <text x="139.1616766467066" y="375" class="label" text-anchor="middle">2025-12-04</text>
  <text x="139.1616766467066" y="96.53846153846155" class="label" text-anchor="middle">42</text>
  <circle cx="143.47305389221555" cy="101.53846153846155" class="point"/>
  <text x="143.47305389221555" y="375" class="label" text-anchor="middle">2025-12-05</text>
  <text x="143.47305389221555" y="96.53846153846155" class="label" text-anchor="middle">42</text>
  <circle cx="147.78443113772454" cy="101.53846153846155" class="point"/>
  <text x="147.78443113772454" y="375" class="label" text-anchor="middle">2025-12-06</text>
  <text x="147.78443113772454" y="96.53846153846155" class="label" text-anchor="middle">42</text>
  <circle cx="152.09580838323353" cy="101.53846153846155" class="point"/>
  <text x="152.09580838323353" y="375" class="label" text-anchor="middle">2025-12-07</text>
  <text x="152.09580838323353" y="96.53846153846155" class="label" text-anchor="middle">42</text>
  <circle cx="156.40718562874252" cy="40.0" class="point"/>
  <text x="156.40718562874252" y="375" class="label" text-anchor="middle">2025-12-08</text>
  <text x="156.40718562874252" y="35.0" class="label" text-anchor="middle">52</text>
  <circle cx="160.7185628742515" cy="40.0" class="point"/>
  <text x="160.7185628742515" y="375" class="label" text-anchor="middle">2025-12-09</text>
  <text x="160.7185628742515" y="35.0" class="label" text-anchor="middle">52</text>
  <circle cx="165.02994011976048" cy="40.0" class="point"/>
  <text x="165.02994011976048" y="375" class="label" text-anchor="middle">2025-12-10</text>
  <text x="165.02994011976048" y="35.0" class="label" text-anchor="middle">52</text>
  <circle cx="169.34131736526948" cy="40.0" class="point"/>
  <text x="169.34131736526948" y="375" class="label" text-anchor="middle">2025-12-11</text>
  <text x="169.34131736526948" y="35.0" class="label" text-anchor="middle">52</text>
  <circle cx="173.65269461077844" cy="40.0" class="point"/>
  <text x="173.65269461077844" y="375" class="label" text-anchor="middle">2025-12-12</text>
  <text x="173.65269461077844" y="35.0" class="label" text-anchor="middle">52</text>
  <circle cx="177.96407185628743" cy="40.0" class="point"/>
  <text x="177.96407185628743" y="375" class="label" text-anchor="middle">2025-12-13</text>
  <text x="177.96407185628743" y="35.0" class="label" text-anchor="middle">52</text>
  <circle cx="182.2754491017964" cy="40.0" class="point"/>
  <text x="182.2754491017964" y="375" class="label" text-anchor="middle">2025-12-14</text>
  <text x="182.2754491017964" y="35.0" class="label" text-anchor="middle">52</text>
  <circle cx="186.5868263473054" cy="40.0" class="point"/>
  <text x="186.5868263473054" y="375" class="label" text-anchor="middle">2025-12-15</text>
  <text x="186.5868263473054" y="35.0" class="label" text-anchor="middle">52</text>
  <circle cx="190.89820359281435" cy="40.0" class="point"/>
  <text x="190.89820359281435" y="375" class="label" text-anchor="middle">2025-12-16</text>
  <text x="190.89820359281435" y="35.0" class="label" text-anchor="middle">52</text>
  <circle cx="195.20958083832335" cy="40.0" class="point"/>
  <text x="195.20958083832335" y="375" class="label" text-anchor="middle">2025-12-17</text>
  <text x="195.20958083832335" y="35.0" class="label" text-anchor="middle">52</text>
  <circle cx="199.52095808383234" cy="40.0" class="point"/>
  <text x="199.52095808383234" y="375" class="label" text-anchor="middle">2025-12-18</text>
  <text x="199.52095808383234" y="35.0" class="label" text-anchor="middle">52</text>
  <circle cx="203.8323353293413" cy="40.0" class="point"/>
  <text x="203.8323353293413" y="375" class="label" text-anchor="middle">2025-12-19</text>
  <text x="203.8323353293413" y="35.0" class="label" text-anchor="middle">52</text>
  <circle cx="208.1437125748503" cy="40.0" class="point"/>
  <text x="208.1437125748503" y="375" class="label" text-anchor="middle">2025-12-20</text>
  <text x="208.1437125748503" y="35.0" class="label" text-anchor="middle">52</text>
  <circle cx="212.4550898203593" cy="40.0" class="point"/>
  <text x="212.4550898203593" y="375" class="label" text-anchor="middle">2025-12-21</text>
  <text x="212.4550898203593" y="35.0" class="label" text-anchor="middle">52</text>
  <circle cx="216.76646706586826" cy="40.0" class="point"/>
  <text x="216.76646706586826" y="375" class="label" text-anchor="middle">2025-12-22</text>
  <text x="216.76646706586826" y="35.0" class="label" text-anchor="middle">52</text>
  <circle cx="221.07784431137725" cy="40.0" class="point"/>
  <text x="221.07784431137725" y="375" class="label" text-anchor="middle">2025-12-23</text>
  <text x="221.07784431137725" y="35.0" class="label" text-anchor="middle">52</text>
  <circle cx="225.3892215568862" cy="40.0" class="point"/>
  <text x="225.3892215568862" y="375" class="label" text-anchor="middle">2025-12-24</text>
  <text x="225.3892215568862" y="35.0" class="label" text-anchor="middle">52</text>
  <circle cx="229.70059880239523" cy="40.0" class="point"/>
  <text x="229.70059880239523" y="375" class="label" text-anchor="middle">2025-12-25</text>
  <text x="229.70059880239523" y="35.0" class="label" text-anchor="middle">52</text>
  <circle cx="234.0119760479042" cy="40.0" class="point"/>
  <text x="234.0119760479042" y="375" class="label" text-anchor="middle">2025-12-26</text>
  <text x="234.0119760479042" y="35.0" class="label" text-anchor="middle">52</text>
  <circle cx="238.3233532934132" cy="40.0" class="point"/>
  <text x="238.3233532934132" y="375" class="label" text-anchor="middle">2025-12-27</text>
  <text x="238.3233532934132" y="35.0" class="label" text-anchor="middle">52</text>
  <circle cx="242.63473053892216" cy="40.0" class="point"/>
  <text x="242.63473053892216" y="375" class="label" text-anchor="middle">2025-12-28</text>
  <text x="242.63473053892216" y="35.0" class="label" text-anchor="middle">52</text>
  <circle cx="246.94610778443112" cy="40.0" class="point"/>
  <text x="246.94610778443112" y="375" class="label" text-anchor="middle">2025-12-29</text>
  <text x="246.94610778443112" y="35.0" class="label" text-anchor="middle">52</text>
  <circle cx="251.2574850299401" cy="40.0" class="point"/>
  <text x="251.2574850299401" y="375" class="label" text-anchor="middle">2025-12-30</text>
  <text x="251.2574850299401" y="35.0" class="label" text-anchor="middle">52</text>
  <circle cx="255.56886227544908" cy="40.0" class="point"/>
  <text x="255.56886227544908" y="375" class="label" text-anchor="middle">2025-12-31</text>
  <text x="255.56886227544908" y="35.0" class="label" text-anchor="middle">52</text>
  <circle cx="259.88023952095807" cy="40.0" class="point"/>
  <text x="259.88023952095807" y="375" class="label" text-anchor="middle">2026-01-01</text>
  <text x="259.88023952095807" y="35.0" class="label" text-anchor="middle">52</text>
  <circle cx="264.19161676646706" cy="40.0" class="point"/>
  <text x="264.19161676646706" y="375" class="label" text-anchor="middle">2026-01-02</text>
  <text x="264.19161676646706" y="35.0" class="label" text-anchor="middle">52</text>
  <circle cx="268.50299401197606" cy="40.0" class="point"/>
  <text x="268.50299401197606" y="375" class="label" text-anchor="middle">2026-01-03</text>
  <text x="268.50299401197606" y="35.0" class="label" text-anchor="middle">52</text>
  <circle cx="272.81437125748505" cy="40.0" class="point"/>
  <text x="272.81437125748505" y="375" class="label" text-anchor="middle">2026-01-04</text>
  <text x="272.81437125748505" y="35.0" class="label" text-anchor="middle">52</text>
  <circle cx="277.12574850299404" cy="40.0" class="point"/>
  <text x="277.12574850299404" y="375" class="label" text-anchor="middle">2026-01-05</text>
  <text x="277.12574850299404" y="35.0" class="label" text-anchor="middle">52</text>
  <circle cx="281.437125748503" cy="40.0" class="point"/>
  <text x="281.437125748503" y="375" class="label" text-anchor="middle">2026-01-06</text>
  <text x="281.437125748503" y="35.0" class="label" text-anchor="middle">52</text>
  <circle cx="285.74850299401203" cy="40.0" class="point"/>
  <text x="285.74850299401203" y="375" class="label" text-anchor="middle">2026-01-07</text>
  <text x="285.74850299401203" y="35.0" class="label" text-anchor="middle">52</text>
  <circle cx="290.05988023952096" cy="40.0" class="point"/>
  <text x="290.05988023952096" y="375" class="label" text-anchor="middle">2026-01-08</text>
  <text x="290.05988023952096" y="35.0" class="label" text-anchor="middle">52</text>
  <circle cx="294.37125748502996" cy="40.0" class="point"/>
  <text x="294.37125748502996" y="375" class="label" text-anchor="middle">2026-01-09</text>
  <text x="294.37125748502996" y="35.0" class="label" text-anchor="middle">52</text>
  <circle cx="298.68263473053895" cy="40.0" class="point"/>
  <text x="298.68263473053895" y="375" class="label" text-anchor="middle">2026-01-10</text>
  <text x="298.68263473053895" y="35.0" class="label" text-anchor="middle">52</text>
  <circle cx="302.9940119760479" cy="40.0" class="point"/>
  <text x="302.9940119760479" y="375" class="label" text-anchor="middle">2026-01-11</text>
  <text x="302.9940119760479" y="35.0" class="label" text-anchor="middle">52</text>
  <circle cx="307.3053892215569" cy="40.0" class="point"/>
  <text x="307.3053892215569" y="375" class="label" text-anchor="middle">2026-01-12</text>
  <text x="307.3053892215569" y="35.0" class="label" text-anchor="middle">52</text>
  <circle cx="311.6167664670659" cy="40.0" class="point"/>
  <text x="311.6167664670659" y="375" class="label" text-anchor="middle">2026-01-13</text>
  <text x="311.6167664670659" y="35.0" class="label" text-anchor="middle">52</text>
  <circle cx="315.92814371257487" cy="40.0" class="point"/>
  <text x="315.92814371257487" y="375" class="label" text-anchor="middle">2026-01-14</text>
  <text x="315.92814371257487" y="35.0" class="label" text-anchor="middle">52</text>
  <circle cx="320.23952095808386" cy="40.0" class="point"/>
  <text x="320.23952095808386" y="375" class="label" text-anchor="middle">2026-01-15</text>
  <text x="320.23952095808386" y="35.0" class="label" text-anchor="middle">52</text>
  <circle cx="324.5508982035928" cy="40.0" class="point"/>
  <text x="324.5508982035928" y="375" class="label" text-anchor="middle">2026-01-16</text>
  <text x="324.5508982035928" y="35.0" class="label" text-anchor="middle">52</text>
  <circle cx="328.8622754491018" cy="40.0" class="point"/>
  <text x="328.8622754491018" y="375" class="label" text-anchor="middle">2026-01-17</text>
  <text x="328.8622754491018" y="35.0" class="label" text-anchor="middle">52</text>
  <circle cx="333.1736526946108" cy="40.0" class="point"/>
  <text x="333.1736526946108" y="375" class="label" text-anchor="middle">2026-01-18</text>
  <text x="333.1736526946108" y="35.0" class="label" text-anchor="middle">52</text>
  <circle cx="337.4850299401198" cy="40.0" class="point"/>
  <text x="337.4850299401198" y="375" class="label" text-anchor="middle">2026-01-19</text>
  <text x="337.4850299401198" y="35.0" class="label" text-anchor="middle">52</text>
  <circle cx="341.7964071856287" cy="40.0" class="point"/>
  <text x="341.7964071856287" y="375" class="label" text-anchor="middle">2026-01-20</text>
  <text x="341.7964071856287" y="35.0" class="label" text-anchor="middle">52</text>
  <circle cx="346.10778443113776" cy="40.0" class="point"/>
  <text x="346.10778443113776" y="375" class="label" text-anchor="middle">2026-01-21</text>
  <text x="346.10778443113776" y="35.0" class="label" text-anchor="middle">52</text>
  <circle cx="350.4191616766467" cy="40.0" class="point"/>
  <text x="350.4191616766467" y="375" class="label" text-anchor="middle">2026-01-22</text>
  <text x="350.4191616766467" y="35.0" class="label" text-anchor="middle">52</text>
  <circle cx="354.7305389221557" cy="40.0" class="point"/>
  <text x="354.7305389221557" y="375" class="label" text-anchor="middle">2026-01-23</text>
  <text x="354.7305389221557" y="35.0" class="label" text-anchor="middle">52</text>
  <circle cx="359.0419161676647" cy="40.0" class="point"/>
  <text x="359.0419161676647" y="375" class="label" text-anchor="middle">2026-01-24</text>
  <text x="359.0419161676647" y="35.0" class="label" text-anchor="middle">52</text>
  <circle cx="363.3532934131736" cy="40.0" class="point"/>
  <text x="363.3532934131736" y="375" class="label" text-anchor="middle">2026-01-25</text>
  <text x="363.3532934131736" y="35.0" class="label" text-anchor="middle">52</text>
  <circle cx="367.6646706586826" cy="40.0" class="point"/>
  <text x="367.6646706586826" y="375" class="label" text-anchor="middle">2026-01-26</text>
  <text x="367.6646706586826" y="35.0" class="label" text-anchor="middle">52</text>
  <circle cx="371.97604790419166" cy="40.0" class="point"/>
  <text x="371.97604790419166" y="375" class="label" text-anchor="middle">2026-01-27</text>
  <text x="371.97604790419166" y="35.0" class="label" text-anchor="middle">52</text>
  <circle cx="376.2874251497006" cy="40.0" class="point"/>
  <text x="376.2874251497006" y="375" class="label" text-anchor="middle">2026-01-28</text>
  <text x="376.2874251497006" y="35.0" class="label" text-anchor="middle">52</text>
  <circle cx="380.5988023952096" cy="40.0" class="point"/>
  <text x="380.5988023952096" y="375" class="label" text-anchor="middle">2026-01-29</text>
  <text x="380.5988023952096" y="35.0" class="label" text-anchor="middle">52</text>
  <circle cx="384.9101796407186" cy="40.0" class="point"/>
  <text x="384.9101796407186" y="375" class="label" text-anchor="middle">2026-01-30</text>
  <text x="384.9101796407186" y="35.0" class="label" text-anchor="middle">52</text>
  <circle cx="389.2215568862275" cy="40.0" class="point"/>
  <text x="389.2215568862275" y="375" class="label" text-anchor="middle">2026-01-31</text>
  <text x="389.2215568862275" y="35.0" class="label" text-anchor="middle">52</text>
  <circle cx="393.5329341317365" cy="40.0" class="point"/>
  <text x="393.5329341317365" y="375" class="label" text-anchor="middle">2026-02-01</text>
  <text x="393.5329341317365" y="35.0" class="label" text-anchor="middle">52</text>
  <circle cx="397.8443113772455" cy="40.0" class="point"/>
  <text x="397.8443113772455" y="375" class="label" text-anchor="middle">2026-02-02</text>
  <text x="397.8443113772455" y="35.0" class="label" text-anchor="middle">52</text>
  <circle cx="402.1556886227545" cy="40.0" class="point"/>
  <text x="402.1556886227545" y="375" class="label" text-anchor="middle">2026-02-03</text>
  <text x="402.1556886227545" y="35.0" class="label" text-anchor="middle">52</text>
  <circle cx="406.4670658682635" cy="40.0" class="point"/>
  <text x="406.4670658682635" y="375" class="label" text-anchor="middle">2026-02-04</text>
  <text x="406.4670658682635" y="35.0" class="label" text-anchor="middle">52</text>
  <circle cx="410.7784431137724" cy="40.0" class="point"/>
  <text x="410.7784431137724" y="375" class="label" text-anchor="middle">2026-02-05</text>
  <text x="410.7784431137724" y="35.0" class="label" text-anchor="middle">52</text>
  <circle cx="415.0898203592814" cy="40.0" class="point"/>
  <text x="415.0898203592814" y="375" class="label" text-anchor="middle">2026-02-06</text>
  <text x="415.0898203592814" y="35.0" class="label" text-anchor="middle">52</text>
  <circle cx="419.40119760479047" cy="40.0" class="point"/>
  <text x="419.40119760479047" y="375" class="label" text-anchor="middle">2026-02-07</text>
  <text x="419.40119760479047" y="35.0" class="label" text-anchor="middle">52</text>
  <circle cx="423.7125748502994" cy="40.0" class="point"/>
  <text x="423.7125748502994" y="375" class="label" text-anchor="middle">2026-02-08</text>
  <text x="423.7125748502994" y="35.0" class="label" text-anchor="middle">52</text>
  <circle cx="428.0239520958084" cy="40.0" class="point"/>
  <text x="428.0239520958084" y="375" class="label" text-anchor="middle">2026-02-09</text>
  <text x="428.0239520958084" y="35.0" class="label" text-anchor="middle">52</text>
  <circle cx="432.33532934131733" cy="40.0" class="point"/>
  <text x="432.33532934131733" y="375" class="label" text-anchor="middle">2026-02-10</text>
  <text x="432.33532934131733" y="35.0" class="label" text-anchor="middle">52</text>
  <circle cx="436.6467065868264" cy="40.0" class="point"/>
  <text x="436.6467065868264" y="375" class="label" text-anchor="middle">2026-02-11</text>
  <text x="436.6467065868264" y="35.0" class="label" text-anchor="middle">52</text>
  <circle cx="440.9580838323353" cy="40.0" class="point"/>
  <text x="440.9580838323353" y="375" class="label" text-anchor="middle">2026-02-12</text>
  <text x="440.9580838323353" y="35.0" class="label" text-anchor="middle">52</text>
  <circle cx="445.2694610778443" cy="40.0" class="point"/>
  <text x="445.2694610778443" y="375" class="label" text-anchor="middle">2026-02-13</text>
  <text x="445.2694610778443" y="35.0" class="label" text-anchor="middle">52</text>
  <circle cx="449.5808383233533" cy="40.0" class="point"/>
  <text x="449.5808383233533" y="375" class="label" text-anchor="middle">2026-02-14</text>
  <text x="449.5808383233533" y="35.0" class="label" text-anchor="middle">52</text>
  <circle cx="453.89221556886224" cy="40.0" class="point"/>
  <text x="453.89221556886224" y="375" class="label" text-anchor="middle">2026-02-15</text>
  <text x="453.89221556886224" y="35.0" class="label" text-anchor="middle">52</text>
  <circle cx="458.2035928143713" cy="40.0" class="point"/>
  <text x="458.2035928143713" y="375" class="label" text-anchor="middle">2026-02-16</text>
  <text x="458.2035928143713" y="35.0" class="label" text-anchor="middle">52</text>
  <circle cx="462.5149700598802" cy="40.0" class="point"/>
  <text x="462.5149700598802" y="375" class="label" text-anchor="middle">2026-02-17</text>
  <text x="462.5149700598802" y="35.0" class="label" text-anchor="middle">52</text>
  <circle cx="466.8263473053892" cy="40.0" class="point"/>
  <text x="466.8263473053892" y="375" class="label" text-anchor="middle">2026-02-18</text>
  <text x="466.8263473053892" y="35.0" class="label" text-anchor="middle">52</text>
  <circle cx="471.13772455089816" cy="40.0" class="point"/>
  <text x="471.13772455089816" y="375" class="label" text-anchor="middle">2026-02-19</text>
  <text x="471.13772455089816" y="35.0" class="label" text-anchor="middle">52</text>
  <circle cx="475.4491017964072" cy="40.0" class="point"/>
  <text x="475.4491017964072" y="375" class="label" text-anchor="middle">2026-02-20</text>
  <text x="475.4491017964072" y="35.0" class="label" text-anchor="middle">52</text>
  <circle cx="479.7604790419162" cy="40.0" class="point"/>
  <text x="479.7604790419162" y="375" class="label" text-anchor="middle">2026-02-21</text>
  <text x="479.7604790419162" y="35.0" class="label" text-anchor="middle">52</text>
  <circle cx="484.07185628742513" cy="40.0" class="point"/>
  <text x="484.07185628742513" y="375" class="label" text-anchor="middle">2026-02-22</text>
  <text x="484.07185628742513" y="35.0" class="label" text-anchor="middle">52</text>
  <circle cx="488.3832335329341" cy="40.0" class="point"/>
  <text x="488.3832335329341" y="375" class="label" text-anchor="middle">2026-02-23</text>
  <text x="488.3832335329341" y="35.0" class="label" text-anchor="middle">52</text>
  <circle cx="492.69461077844306" cy="40.0" class="point"/>
  <text x="492.69461077844306" y="375" class="label" text-anchor="middle">2026-02-24</text>
  <text x="492.69461077844306" y="35.0" class="label" text-anchor="middle">52</text>
  <circle cx="497.0059880239521" cy="40.0" class="point"/>
  <text x="497.0059880239521" y="375" class="label" text-anchor="middle">2026-02-25</text>
  <text x="497.0059880239521" y="35.0" class="label" text-anchor="middle">52</text>
  <circle cx="501.3173652694611" cy="40.0" class="point"/>
  <text x="501.3173652694611" y="375" class="label" text-anchor="middle">2026-02-26</text>
  <text x="501.3173652694611" y="35.0" class="label" text-anchor="middle">52</text>
  <circle cx="505.62874251497004" cy="40.0" class="point"/>
  <text x="505.62874251497004" y="375" class="label" text-anchor="middle">2026-02-27</text>
  <text x="505.62874251497004" y="35.0" class="label" text-anchor="middle">52</text>
  <circle cx="509.9401197604791" cy="40.0" class="point"/>
  <text x="509.9401197604791" y="375" class="label" text-anchor="middle">2026-02-28</text>
  <text x="509.9401197604791" y="35.0" class="label" text-anchor="middle">52</text>
  <circle cx="514.2514970059881" cy="40.0" class="point"/>
  <text x="514.2514970059881" y="375" class="label" text-anchor="middle">2026-03-01</text>
  <text x="514.2514970059881" y="35.0" class="label" text-anchor="middle">52</text>
  <circle cx="518.5628742514971" cy="40.0" class="point"/>
  <text x="518.5628742514971" y="375" class="label" text-anchor="middle">2026-03-02</text>
  <text x="518.5628742514971" y="35.0" class="label" text-anchor="middle">52</text>
  <circle cx="522.874251497006" cy="40.0" class="point"/>
  <text x="522.874251497006" y="375" class="label" text-anchor="middle">2026-03-03</text>
  <text x="522.874251497006" y="35.0" class="label" text-anchor="middle">52</text>
  <circle cx="527.185628742515" cy="40.0" class="point"/>
  <text x="527.185628742515" y="375" class="label" text-anchor="middle">2026-03-04</text>
  <text x="527.185628742515" y="35.0" class="label" text-anchor="middle">52</text>
  <circle cx="531.4970059880241" cy="40.0" class="point"/>
  <text x="531.4970059880241" y="375" class="label" text-anchor="middle">2026-03-05</text>
  <text x="531.4970059880241" y="35.0" class="label" text-anchor="middle">52</text>
  <circle cx="535.8083832335329" cy="40.0" class="point"/>
  <text x="535.8083832335329" y="375" class="label" text-anchor="middle">2026-03-06</text>
  <text x="535.8083832335329" y="35.0" class="label" text-anchor="middle">52</text>
  <circle cx="540.1197604790419" cy="40.0" class="point"/>
  <text x="540.1197604790419" y="375" class="label" text-anchor="middle">2026-03-07</text>
  <text x="540.1197604790419" y="35.0" class="label" text-anchor="middle">52</text>
  <circle cx="544.4311377245508" cy="40.0" class="point"/>
  <text x="544.4311377245508" y="375" class="label" text-anchor="middle">2026-03-08</text>
  <text x="544.4311377245508" y="35.0" class="label" text-anchor="middle">52</text>
  <circle cx="548.7425149700599" cy="40.0" class="point"/>
  <text x="548.7425149700599" y="375" class="label" text-anchor="middle">2026-03-09</text>
  <text x="548.7425149700599" y="35.0" class="label" text-anchor="middle">52</text>
  <circle cx="553.0538922155688" cy="40.0" class="point"/>
  <text x="553.0538922155688" y="375" class="label" text-anchor="middle">2026-03-10</text>
  <text x="553.0538922155688" y="35.0" class="label" text-anchor="middle">52</text>
  <circle cx="557.3652694610779" cy="40.0" class="point"/>
  <text x="557.3652694610779" y="375" class="label" text-anchor="middle">2026-03-11</text>
  <text x="557.3652694610779" y="35.0" class="label" text-anchor="middle">52</text>
  <circle cx="561.6766467065869" cy="40.0" class="point"/>
  <text x="561.6766467065869" y="375" class="label" text-anchor="middle">2026-03-12</text>
  <text x="561.6766467065869" y="35.0" class="label" text-anchor="middle">52</text>
  <circle cx="565.9880239520958" cy="40.0" class="point"/>
  <text x="565.9880239520958" y="375" class="label" text-anchor="middle">2026-03-13</text>
  <text x="565.9880239520958" y="35.0" class="label" text-anchor="middle">52</text>
  <circle cx="570.2994011976048" cy="40.0" class="point"/>
  <text x="570.2994011976048" y="375" class="label" text-anchor="middle">2026-03-14</text>
  <text x="570.2994011976048" y="35.0" class="label" text-anchor="middle">52</text>
  <circle cx="574.6107784431138" cy="40.0" class="point"/>
  <text x="574.6107784431138" y="375" class="label" text-anchor="middle">2026-03-15</text>
  <text x="574.6107784431138" y="35.0" class="label" text-anchor="middle">52</text>
  <circle cx="578.9221556886228" cy="40.0" class="point"/>
  <text x="578.9221556886228" y="375" class="label" text-anchor="middle">2026-03-16</text>
  <text x="578.9221556886228" y="35.0" class="label" text-anchor="middle">52</text>
  <circle cx="583.2335329341317" cy="40.0" class="point"/>
  <text x="583.2335329341317" y="375" class="label" text-anchor="middle">2026-03-17</text>
  <text x="583.2335329341317" y="35.0" class="label" text-anchor="middle">52</text>
  <circle cx="587.5449101796407" cy="40.0" class="point"/>
  <text x="587.5449101796407" y="375" class="label" text-anchor="middle">2026-03-18</text>
  <text x="587.5449101796407" y="35.0" class="label" text-anchor="middle">52</text>
  <circle cx="591.8562874251497" cy="40.0" class="point"/>
  <text x="591.8562874251497" y="375" class="label" text-anchor="middle">2026-03-19</text>
  <text x="591.8562874251497" y="35.0" class="label" text-anchor="middle">52</text>
  <circle cx="596.1676646706587" cy="40.0" class="point"/>
  <text x="596.1676646706587" y="375" class="label" text-anchor="middle">2026-03-20</text>
  <text x="596.1676646706587" y="35.0" class="label" text-anchor="middle">52</text>
  <circle cx="600.4790419161677" cy="40.0" class="point"/>
  <text x="600.4790419161677" y="375" class="label" text-anchor="middle">2026-03-21</text>
  <text x="600.4790419161677" y="35.0" class="label" text-anchor="middle">52</text>
  <circle cx="604.7904191616766" cy="40.0" class="point"/>
  <text x="604.7904191616766" y="375" class="label" text-anchor="middle">2026-03-22</text>
  <text x="604.7904191616766" y="35.0" class="label" text-anchor="middle">52</text>
  <circle cx="609.1017964071856" cy="40.0" class="point"/>
  <text x="609.1017964071856" y="375" class="label" text-anchor="middle">2026-03-23</text>
  <text x="609.1017964071856" y="35.0" class="label" text-anchor="middle">52</text>
  <circle cx="613.4131736526946" cy="40.0" class="point"/>
  <text x="613.4131736526946" y="375" class="label" text-anchor="middle">2026-03-24</text>
  <text x="613.4131736526946" y="35.0" class="label" text-anchor="middle">52</text>
  <circle cx="617.7245508982036" cy="40.0" class="point"/>
  <text x="617.7245508982036" y="375" class="label" text-anchor="middle">2026-03-25</text>
  <text x="617.7245508982036" y="35.0" class="label" text-anchor="middle">52</text>
  <circle cx="622.0359281437126" cy="40.0" class="point"/>
  <text x="622.0359281437126" y="375" class="label" text-anchor="middle">2026-03-26</text>
  <text x="622.0359281437126" y="35.0" class="label" text-anchor="middle">52</text>
  <circle cx="626.3473053892216" cy="40.0" class="point"/>
  <text x="626.3473053892216" y="375" class="label" text-anchor="middle">2026-03-27</text>
  <text x="626.3473053892216" y="35.0" class="label" text-anchor="middle">52</text>
  <circle cx="630.6586826347306" cy="40.0" class="point"/>
  <text x="630.6586826347306" y="375" class="label" text-anchor="middle">2026-03-28</text>
  <text x="630.6586826347306" y="35.0" class="label" text-anchor="middle">52</text>
  <circle cx="634.9700598802395" cy="40.0" class="point"/>
  <text x="634.9700598802395" y="375" class="label" text-anchor="middle">2026-03-29</text>
  <text x="634.9700598802395" y="35.0" class="label" text-anchor="middle">52</text>
  <circle cx="639.2814371257485" cy="40.0" class="point"/>
  <text x="639.2814371257485" y="375" class="label" text-anchor="middle">2026-03-30</text>
  <text x="639.2814371257485" y="35.0" class="label" text-anchor="middle">52</text>
  <circle cx="643.5928143712574" cy="40.0" class="point"/>
  <text x="643.5928143712574" y="375" class="label" text-anchor="middle">2026-03-31</text>
  <text x="643.5928143712574" y="35.0" class="label" text-anchor="middle">52</text>
  <circle cx="647.9041916167664" cy="40.0" class="point"/>
  <text x="647.9041916167664" y="375" class="label" text-anchor="middle">2026-04-01</text>
  <text x="647.9041916167664" y="35.0" class="label" text-anchor="middle">52</text>
  <circle cx="652.2155688622755" cy="40.0" class="point"/>
  <text x="652.2155688622755" y="375" class="label" text-anchor="middle">2026-04-02</text>
  <text x="652.2155688622755" y="35.0" class="label" text-anchor="middle">52</text>
  <circle cx="656.5269461077844" cy="40.0" class="point"/>
  <text x="656.5269461077844" y="375" class="label" text-anchor="middle">2026-04-03</text>
  <text x="656.5269461077844" y="35.0" class="label" text-anchor="middle">52</text>
  <circle cx="660.8383233532934" cy="40.0" class="point"/>
  <text x="660.8383233532934" y="375" class="label" text-anchor="middle">2026-04-04</text>
  <text x="660.8383233532934" y="35.0" class="label" text-anchor="middle">52</text>
  <circle cx="665.1497005988024" cy="40.0" class="point"/>
  <text x="665.1497005988024" y="375" class="label" text-anchor="middle">2026-04-05</text>
  <text x="665.1497005988024" y="35.0" class="label" text-anchor="middle">52</text>
  <circle cx="669.4610778443114" cy="40.0" class="point"/>
  <text x="669.4610778443114" y="375" class="label" text-anchor="middle">2026-04-06</text>
  <text x="669.4610778443114" y="35.0" class="label" text-anchor="middle">52</text>
  <circle cx="673.7724550898204" cy="40.0" class="point"/>
  <text x="673.7724550898204" y="375" class="label" text-anchor="middle">2026-04-07</text>
  <text x="673.7724550898204" y="35.0" class="label" text-anchor="middle">52</text>
  <circle cx="678.0838323353294" cy="40.0" class="point"/>
  <text x="678.0838323353294" y="375" class="label" text-anchor="middle">2026-04-08</text>
  <text x="678.0838323353294" y="35.0" class="label" text-anchor="middle">52</text>
  <circle cx="682.3952095808384" cy="40.0" class="point"/>
  <text x="682.3952095808384" y="375" class="label" text-anchor="middle">2026-04-09</text>
  <text x="682.3952095808384" y="35.0" class="label" text-anchor="middle">52</text>
  <circle cx="686.7065868263472" cy="40.0" class="point"/>
  <text x="686.7065868263472" y="375" class="label" text-anchor="middle">2026-04-10</text>
  <text x="686.7065868263472" y="35.0" class="label" text-anchor="middle">52</text>
  <circle cx="691.0179640718563" cy="40.0" class="point"/>
  <text x="691.0179640718563" y="375" class="label" text-anchor="middle">2026-04-11</text>
  <text x="691.0179640718563" y="35.0" class="label" text-anchor="middle">52</text>
  <circle cx="695.3293413173652" cy="40.0" class="point"/>
  <text x="695.3293413173652" y="375" class="label" text-anchor="middle">2026-04-12</text>
  <text x="695.3293413173652" y="35.0" class="label" text-anchor="middle">52</text>
  <circle cx="699.6407185628742" cy="40.0" class="point"/>
  <text x="699.6407185628742" y="375" class="label" text-anchor="middle">2026-04-13</text>
  <text x="699.6407185628742" y="35.0" class="label" text-anchor="middle">52</text>
  <circle cx="703.9520958083833" cy="40.0" class="point"/>
  <text x="703.9520958083833" y="375" class="label" text-anchor="middle">2026-04-14</text>
  <text x="703.9520958083833" y="35.0" class="label" text-anchor="middle">52</text>
  <circle cx="708.2634730538922" cy="40.0" class="point"/>
  <text x="708.2634730538922" y="375" class="label" text-anchor="middle">2026-04-15</text>
  <text x="708.2634730538922" y="35.0" class="label" text-anchor="middle">52</text>
  <circle cx="712.5748502994012" cy="40.0" class="point"/>
  <text x="712.5748502994012" y="375" class="label" text-anchor="middle">2026-04-16</text>
  <text x="712.5748502994012" y="35.0" class="label" text-anchor="middle">52</text>
  <circle cx="716.8862275449102" cy="40.0" class="point"/>
  <text x="716.8862275449102" y="375" class="label" text-anchor="middle">2026-04-17</text>
  <text x="716.8862275449102" y="35.0" class="label" text-anchor="middle">52</text>
  <circle cx="721.1976047904192" cy="40.0" class="point"/>
  <text x="721.1976047904192" y="375" class="label" text-anchor="middle">2026-04-18</text>
  <text x="721.1976047904192" y="35.0" class="label" text-anchor="middle">52</text>
  <circle cx="725.508982035928" cy="40.0" class="point"/>
  <text x="725.508982035928" y="375" class="label" text-anchor="middle">2026-04-19</text>
  <text x="725.508982035928" y="35.0" class="label" text-anchor="middle">52</text>
  <circle cx="729.8203592814372" cy="40.0" class="point"/>
  <text x="729.8203592814372" y="375" class="label" text-anchor="middle">2026-04-20</text>
  <text x="729.8203592814372" y="35.0" class="label" text-anchor="middle">52</text>
  <circle cx="734.1317365269462" cy="40.0" class="point"/>
  <text x="734.1317365269462" y="375" class="label" text-anchor="middle">2026-04-21</text>
  <text x="734.1317365269462" y="35.0" class="label" text-anchor="middle">52</text>
  <circle cx="738.443113772455" cy="40.0" class="point"/>
  <text x="738.443113772455" y="375" class="label" text-anchor="middle">2026-04-22</text>
  <text x="738.443113772455" y="35.0" class="label" text-anchor="middle">52</text>
  <circle cx="742.7544910179641" cy="40.0" class="point"/>
  <text x="742.7544910179641" y="375" class="label" text-anchor="middle">2026-04-23</text>
  <text x="742.7544910179641" y="35.0" class="label" text-anchor="middle">52</text>
  <circle cx="747.065868263473" cy="40.0" class="point"/>
  <text x="747.065868263473" y="375" class="label" text-anchor="middle">2026-04-24</text>
  <text x="747.065868263473" y="35.0" class="label" text-anchor="middle">52</text>
  <circle cx="751.377245508982" cy="40.0" class="point"/>
  <text x="751.377245508982" y="375" class="label" text-anchor="middle">2026-04-25</text>
  <text x="751.377245508982" y="35.0" class="label" text-anchor="middle">52</text>
  <circle cx="755.688622754491" cy="40.0" class="point"/>
  <text x="755.688622754491" y="375" class="label" text-anchor="middle">2026-04-26</text>
  <text x="755.688622754491" y="35.0" class="label" text-anchor="middle">52</text>
  <circle cx="760.0" cy="40.0" class="point"/>
  <text x="760.0" y="375" class="label" text-anchor="middle">2026-04-27</text>
  <text x="760.0" y="35.0" class="label" text-anchor="middle">52</text>
  <text x="30" y="363.0" class="label" text-anchor="end">0</text>
  <text x="30" y="301.46153846153845" class="label" text-anchor="end">10</text>
  <text x="30" y="239.9230769230769" class="label" text-anchor="end">20</text>
  <text x="30" y="178.38461538461542" class="label" text-anchor="end">30</text>
  <text x="30" y="116.84615384615384" class="label" text-anchor="end">40</text>
  <text x="30" y="55.30769230769232" class="label" text-anchor="end">50</text>
</svg>