<svg xmlns="http://www.w3.org/2000/svg" width="800" height="400" viewBox="0 0 800 400">
  <style>
    .axis{stroke:#666;stroke-width:1}
    .line{stroke:#4a9;stroke-width:2;fill:none}
    .point{fill:#4a9;r:4}
    .label{font:10px sans-serif;fill:#aaa}
    .title{font:14px sans-serif;fill:#333}
  </style>
  <text x="400" y="20" class="title" text-anchor="middle">OPIC Field Growth Timeline</text>
  <line x1="40" y1="40" x2="40" y2="360" class="axis"/>
  <line x1="40" y1="360" x2="760" y2="360" class="axis"/>
  <path d="M 40.0,101.53846153846155 L 48.888888888888886,101.53846153846155 L 57.77777777777778,101.53846153846155 L 66.66666666666666,101.53846153846155 L 75.55555555555556,101.53846153846155 L 84.44444444444444,101.53846153846155 L 93.33333333333333,101.53846153846155 L 102.22222222222223,101.53846153846155 L 111.11111111111111,101.53846153846155 L 120.0,101.53846153846155 L 128.88888888888889,101.53846153846155 L 137.77777777777777,101.53846153846155 L 146.66666666666666,101.53846153846155 L 155.55555555555554,101.53846153846155 L 164.44444444444446,101.53846153846155 L 173.33333333333331,101.53846153846155 L 182.22222222222223,101.53846153846155 L 191.11111111111111,101.53846153846155 L 200.0,101.53846153846155 L 208.88888888888889,101.53846153846155 L 217.77777777777777,101.53846153846155 L 226.66666666666666,101.53846153846155 L 235.55555555555554,101.53846153846155 L 244.44444444444443,101.53846153846155 L 253.33333333333331,101.53846153846155 L 262.2222222222222,101.53846153846155 L 271.1111111111111,101.53846153846155 L 280.0,40.0 L 288.8888888888889,40.0 L 297.77777777777777,40.0 L 306.66666666666663,40.0 L 315.55555555555554,40.0 L 324.44444444444446,40.0 L 333.3333333333333,40.0 L 342.22222222222223,40.0 L 351.1111111111111,40.0 L 360.0,40.0 L 368.88888888888886,40.0 L 377.77777777777777,40.0 L 386.66666666666663,40.0 L 395.55555555555554,40.0 L 404.44444444444446,40.0 L 413.3333333333333,40.0 L 422.22222222222223,40.0 L 431.1111111111111,40.0 L 440.0,40.0 L 448.88888888888886,40.0 L 457.77777777777777,40.0 L 466.66666666666663,40.0 L 475.55555555555554,40.0 L 484.4444444444444,40.0 L 493.33333333333337,40.0 L 502.2222222222222,40.0 L 511.11111111111114,40.0 L 520.0,40.0 L 528.8888888888889,40.0 L 537.7777777777778,40.0 L 546.6666666666667,40.0 L 555.5555555555555,40.0 L 564.4444444444445,40.0 L 573.3333333333333,40.0 L 582.2222222222223,40.0 L 591.1111111111111,40.0 L 600.0,40.0 L 608.8888888888889,40.0 L 617.7777777777778,40.0 L 626.6666666666666,40.0 L 635.5555555555555,40.0 L 644.4444444444445,40.0 L 653.3333333333334,40.0 L 662.2222222222222,40.0 L 671.1111111111111,40.0 L 680.0,40.0 L 688.8888888888889,40.0 L 697.7777777777777,40.0 L 706.6666666666666,40.0 L 715.5555555555555,40.0 L 724.4444444444445,40.0 L 733.3333333333333,40.0 L 742.2222222222222,40.0 L 751.1111111111111,40.0 L 760.0,40.0" class="line"/>
  <circle cx="40.0" cy="101.53846153846155" class="point"/>
  <text x="40.0" y="375" class="label" text-anchor="middle">2025-11-11</text>
  <text x="40.0" y="96.53846153846155" class="label" text-anchor="middle">42</text>
  <circle cx="48.888888888888886" cy="101.53846153846155" class="point"/>
  <text x="48.888888888888886" y="375" class="label" text-anchor="middle">2025-11-12</text>
  <text x="48.888888888888886" y="96.53846153846155" class="label" text-anchor="middle">42</text>
  <circle cx="57.77777777777778" cy="101.53846153846155" class="point"/>
  <text x="57.77777777777778" y="375" class="label" text-anchor="middle">2025-11-13</text>
  <text x="57.77777777777778" y="96.53846153846155" class="label" text-anchor="middle">42</text>
  <circle cx="66.66666666666666" cy="101.53846153846155" class="point"/>
  <text x="66.66666666666666" y="375" class="label" text-anchor="middle">2025-11-14</text>
  <text x="66.66666666666666" y="96.53846153846155" class="label" text-anchor="middle">42</text>
  <circle cx="75.55555555555556" cy="101.53846153846155" class="point"/>
  <text x="75.55555555555556" y="375" class="label" text-anchor="middle">2025-11-15</text>
  <text x="75.55555555555556" y="96.53846153846155" class="label" text-anchor="middle">42</text>
  <circle cx="84.44444444444444" cy="101.53846153846155" class="point"/>
  <text x="84.44444444444444" y="375" class="label" text-anchor="middle">2025-11-16</text>
  <text x="84.44444444444444" y="96.53846153846155" class="label" text-anchor="middle">42</text>
  <circle cx="93.33333333333333" cy="101.53846153846155" class="point"/>
  <text x="93.33333333333333" y="375" class="label" text-anchor="middle">2025-11-17</text>
  <text x="93.33333333333333" y="96.53846153846155" class="label" text-anchor="middle">42</text>
  <circle cx="102.22222222222223" cy="101.53846153846155" class="point"/>
  <text x="102.22222222222223" y="375" class="label" text-anchor="middle">2025-11-18</text>
  <text x="102.22222222222223" y="96.53846153846155" class="label" text-anchor="middle">42</text>
  <circle cx="111.11111111111111" cy="101.53846153846155" class="point"/>
  <text x="111.11111111111111" y="375" class="label" text-anchor="middle">2025-11-19</text>
  <text x="111.11111111111111" y="96.53846153846155" class="label" text-anchor="middle">42</text>
  <circle cx="120.0" cy="101.53846153846155" class="point"/>
  <text x="120.0" y="375" class="label" text-anchor="middle">2025-11-20</text>
  <text x="120.0" y="96.53846153846155" class="label" text-anchor="middle">42</text>
  <circle cx="128.88888888888889" cy="101.53846153846155" class="point"/>
  <text x="128.88888888888889" y="375" class="label" text-anchor="middle">2025-11-21</text>
  <text x="128.88888888888889" y="96.53846153846155" class="label" text-anchor="middle">42</text>
  <circle cx="137.77777777777777" cy="101.53846153846155" class="point"/>
  <text x="137.77777777777777" y="375" class="label" text-anchor="middle">2025-11-22</text>
  <text x="137.77777777777777" y="96.53846153846155" class="label" text-anchor="middle">42</text>
  <circle cx="146.66666666666666" cy="101.53846153846155" class="point"/>
  <text x="146.66666666666666" y="375" class="label" text-anchor="middle">2025-11-23</text>
  <text x="146.66666666666666" y="96.53846153846155" class="label" text-anchor="middle">42</text>
  <circle cx="155.55555555555554" cy="101.53846153846155" class="point"/>
  <text x="155.55555555555554" y="375" class="label" text-anchor="middle">2025-11-24</text>
  <text x="155.55555555555554" y="96.53846153846155" class="label" text-anchor="middle">42</text>
  <circle cx="164.44444444444446" cy="101.53846153846155" class="point"/>
  <text x="164.44444444444446" y="375" class="label" text-anchor="middle">2025-11-25</text>
  <text x="164.44444444444446" y="96.53846153846155" class="label" text-anchor="middle">42</text>
  <circle cx="173.33333333333331" cy="101.53846153846155" class="point"/>
  <text x="173.33333333333331" y="375" class="label" text-anchor="middle">2025-11-26</text>
  <text x="173.33333333333331" y="96.53846153846155" class="label" text-anchor="middle">42</text>
  <circle cx="182.22222222222223" cy="101.53846153846155" class="point"/>
  <text x="182.22222222222223" y="375" class="label" text-anchor="middle">2025-11-27</text>
  <text x="182.22222222222223" y="96.53846153846155" class="label" text-anchor="middle">42</text>
  <circle cx="191.11111111111111" cy="101.53846153846155" class="point"/>
  <text x="191.11111111111111" y="375" class="label" text-anchor="middle">2025-11-28</text>
  <text x="191.11111111111111" y="96.53846153846155" class="label" text-anchor="middle">42</text>
  <circle cx="200.0" cy="101.53846153846155" class="point"/>
  <text x="200.0" y="375" class="label" text-anchor="middle">2025-11-29</text>
  <text x="200.0" y="96.53846153846155" class="label" text-anchor="middle">42</text>
  <circle cx="208.88888888888889" cy="101.53846153846155" class="point"/>
  <text x="208.88888888888889" y="375" class="label" text-anchor="middle">2025-11-30</text>
  <text x="208.88888888888889" y="96.53846153846155" class="label" text-anchor="middle">42</text>
  <circle cx="217.77777777777777" cy="101.53846153846155" class="point"/>
  <text x="217.77777777777777" y="375" class="label" text-anchor="middle">2025-12-01</text>
  <text x="217.77777777777777" y="96.53846153846155" class="label" text-anchor="middle">42</text>
  <circle cx="226.66666666666666" cy="101.53846153846155" class="point"/>
  <text x="226.66666666666666" y="375" class="label" text-anchor="middle">2025-12-02</text>
  <text x="226.66666666666666" y="96.53846153846155" class="label" text-anchor="middle">42</text>
  <circle cx="235.55555555555554" cy="101.53846153846155" class="point"/>
  <text x="235.55555555555554" y="375" class="label" text-anchor="middle">2025-12-03</text>
  <text x="235.55555555555554" y="96.53846153846155" class="label" text-anchor="middle">42</text>
  <circle cx="244.44444444444443" cy="101.53846153846155" class="point"/>
  <text x="244.44444444444443" y="375" class="label" text-anchor="middle">2025-12-04</text>
  <text x="244.44444444444443" y="96.53846153846155" class="label" text-anchor="middle">42</text>
  <circle cx="253.33333333333331" cy="101.53846153846155" class="point"/>
  <text x="253.33333333333331" y="375" class="label" text-anchor="middle">2025-12-05</text>
  <text x="253.33333333333331" y="96.53846153846155" class="label" text-anchor="middle">42</text>
  <circle cx="262.2222222222222" cy="101.53846153846155" class="point"/>
  <text x="262.2222222222222" y="375" class="label" text-anchor="middle">2025-12-06</text>
  <text x="262.2222222222222" y="96.53846153846155" class="label" text-anchor="middle">42</text>
  <circle cx="271.1111111111111" cy="101.53846153846155" class="point"/>
  <text x="271.1111111111111" y="375" class="label" text-anchor="middle">2025-12-07</text>
  <text x="271.1111111111111" y="96.53846153846155" class="label" text-anchor="middle">42</text>
  <circle cx="280.0" cy="40.0" class="point"/>
  <text x="280.0" y="375" class="label" text-anchor="middle">2025-12-08</text>
  <text x="280.0" y="35.0" class="label" text-anchor="middle">52</text>
  <circle cx="288.8888888888889" cy="40.0" class="point"/>
  <text x="288.8888888888889" y="375" class="label" text-anchor="middle">2025-12-09</text>
  <text x="288.8888888888889" y="35.0" class="label" text-anchor="middle">52</text>
  <circle cx="297.77777777777777" cy="40.0" class="point"/>
  <text x="297.77777777777777" y="375" class="label" text-anchor="middle">2025-12-10</text>
  <text x="297.77777777777777" y="35.0" class="label" text-anchor="middle">52</text>
  <circle cx="306.66666666666663" cy="40.0" class="point"/>
  <text x="306.66666666666663" y="375" class="label" text-anchor="middle">2025-12-11</text>
  <text x="306.66666666666663" y="35.0" class="label" text-anchor="middle">52</text>
  <circle cx="315.55555555555554" cy="40.0" class="point"/>
  <text x="315.55555555555554" y="375" class="label" text-anchor="middle">2025-12-12</text>
  <text x="315.55555555555554" y="35.0" class="label" text-anchor="middle">52</text>
  <circle cx="324.44444444444446" cy="40.0" class="point"/>
  <text x="324.44444444444446" y="375" class="label" text-anchor="middle">2025-12-13</text>
  <text x="324.44444444444446" y="35.0" class="label" text-anchor="middle">52</text>
  <circle cx="333.3333333333333" cy="40.0" class="point"/>
  <text x="333.3333333333333" y="375" class="label" text-anchor="middle">2025-12-14</text>
  <text x="333.3333333333333" y="35.0" class="label" text-anchor="middle">52</text>
  <circle cx="342.22222222222223" cy="40.0" class="point"/>
  <text x="342.22222222222223" y="375" class="label" text-anchor="middle">2025-12-15</text>
  <text x="342.22222222222223" y="35.0" class="label" text-anchor="middle">52</text>
  <circle cx="351.1111111111111" cy="40.0" class="point"/>
  <text x="351.1111111111111" y="375" class="label" text-anchor="middle">2025-12-16</text>
  <text x="351.1111111111111" y="35.0" class="label" text-anchor="middle">52</text>
  <circle cx="360.0" cy="40.0" class="point"/>
  <text x="360.0" y="375" class="label" text-anchor="middle">2025-12-17</text>
  <text x="360.0" y="35.0" class="label" text-anchor="middle">52</text>
  <circle cx="368.88888888888886" cy="40.0" class="point"/>
  <text x="368.88888888888886" y="375" class="label" text-anchor="middle">2025-12-18</text>
  <text x="368.88888888888886" y="35.0" class="label" text-anchor="middle">52</text>
  <circle cx="377.77777777777777" cy="40.0" class="point"/>
  <text x="377.77777777777777" y="375" class="label" text-anchor="middle">2025-12-19</text>
  <text x="377.77777777777777" y="35.0" class="label" text-anchor="middle">52</text>
  <circle cx="386.66666666666663" cy="40.0" class="point"/>
  <text x="386.66666666666663" y="375" class="label" text-anchor="middle">2025-12-20</text>
  <text x="386.66666666666663" y="35.0" class="label" text-anchor="middle">52</text>
  <circle cx="395.55555555555554" cy="40.0" class="point"/>
  <text x="395.55555555555554" y="375" class="label" text-anchor="middle">2025-12-21</text>
  <text x="395.55555555555554" y="35.0" class="label" text-anchor="middle">52</text>
  <circle cx="404.44444444444446" cy="40.0" class="point"/>
  <text x="404.44444444444446" y="375" class="label" text-anchor="middle">2025-12-22</text>
  <text x="404.44444444444446" y="35.0" class="label" text-anchor="middle">52</text>
  <circle cx="413.3333333333333" cy="40.0" class="point"/>
  <text x="413.3333333333333" y="375" class="label" text-anchor="middle">2025-12-23</text>
  <text x="413.3333333333333" y="35.0" class="label" text-anchor="middle">52</text>
  <circle cx="422.22222222222223" cy="40.0" class="point"/>
  <text x="422.22222222222223" y="375" class="label" text-anchor="middle">2025-12-24</text>
  <text x="422.22222222222223" y="35.0" class="label" text-anchor="middle">52</text>
  <circle cx="431.1111111111111" cy="40.0" class="point"/>
  <text x="431.1111111111111" y="375" class="label" text-anchor="middle">2025-12-25</text>
  <text x="431.1111111111111" y="35.0" class="label" text-anchor="middle">52</text>
  <circle cx="440.0" cy="40.0" class="point"/>
  <text x="440.0" y="375" class="label" text-anchor="middle">2025-12-26</text>
  <text x="440.0" y="35.0" class="label" text-anchor="middle">52</text>
  <circle cx="448.88888888888886" cy="40.0" class="point"/>
  <text x="448.88888888888886" y="375" class="label" text-anchor="middle">2025-12-27</text>
  <text x="448.88888888888886" y="35.0" class="label" text-anchor="middle">52</text>
  <circle cx="457.77777777777777" cy="40.0" class="point"/>
  <text x="457.77777777777777" y="375" class="label" text-anchor="middle">2025-12-28</text>
  <text x="457.77777777777777" y="35.0" class="label" text-anchor="middle">52</text>
  <circle cx="466.66666666666663" cy="40.0" class="point"/>
  <text x="466.66666666666663" y="375" class="label" text-anchor="middle">2025-12-29</text>
  <text x="466.66666666666663" y="35.0" class="label" text-anchor="middle">52</text>
  <circle cx="475.55555555555554" cy="40.0" class="point"/>
  <text x="475.55555555555554" y="375" class="label" text-anchor="middle">2025-12-30</text>
  <text x="475.55555555555554" y="35.0" class="label" text-anchor="middle">52</text>
  <circle cx="484.4444444444444" cy="40.0" class="point"/>
  <text x="484.4444444444444" y="375" class="label" text-anchor="middle">2025-12-31</text>
  <text x="484.4444444444444" y="35.0" class="label" text-anchor="middle">52</text>
  <circle cx="493.33333333333337" cy="40.0" class="point"/>
  <text x="493.33333333333337" y="375" class="label" text-anchor="middle">2026-01-01</text>
  <text x="493.33333333333337" y="35.0" class="label" text-anchor="middle">52</text>
  <circle cx="502.2222222222222" cy="40.0" class="point"/>
  <text x="502.2222222222222" y="375" class="label" text-anchor="middle">2026-01-02</text>
  <text x="502.2222222222222" y="35.0" class="label" text-anchor="middle">52</text>
  <circle cx="511.11111111111114" cy="40.0" class="point"/>
  <text x="511.11111111111114" y="375" class="label" text-anchor="middle">2026-01-03</text>
  <text x="511.11111111111114" y="35.0" class="label" text-anchor="middle">52</text>
  <circle cx="520.0" cy="40.0" class="point"/>
  <text x="520.0" y="375" class="label" text-anchor="middle">2026-01-04</text>
  <text x="520.0" y="35.0" class="label" text-anchor="middle">52</text>
  <circle cx="528.8888888888889" cy="40.0" class="point"/>
  <text x="528.8888888888889" y="375" class="label" text-anchor="middle">2026-01-05</text>
  <text x="528.8888888888889" y="35.0" class="label" text-anchor="middle">52</text>
  <circle cx="537.7777777777778" cy="40.0" class="point"/>
  <text x="537.7777777777778" y="375" class="label" text-anchor="middle">2026-01-06</text>
  <text x="537.7777777777778" y="35.0" class="label" text-anchor="middle">52</text>
  <circle cx="546.6666666666667" cy="40.0" class="point"/>
  <text x="546.6666666666667" y="375" class="label" text-anchor="middle">2026-01-07</text>
  <text x="546.6666666666667" y="35.0" class="label" text-anchor="middle">52</text>
  <circle cx="555.5555555555555" cy="40.0" class="point"/>
  <text x="555.5555555555555" y="375" class="label" text-anchor="middle">2026-01-08</text>
  <text x="555.5555555555555" y="35.0" class="label" text-anchor="middle">52</text>
  <circle cx="564.4444444444445" cy="40.0" class="point"/>
  <text x="564.4444444444445" y="375" class="label" text-anchor="middle">2026-01-09</text>
  <text x="564.4444444444445" y="35.0" class="label" text-anchor="middle">52</text>
  <circle cx="573.3333333333333" cy="40.0" class="point"/>
  <text x="573.3333333333333" y="375" class="label" text-anchor="middle">2026-01-10</text>
  <text x="573.3333333333333" y="35.0" class="label" text-anchor="middle">52</text>
  <circle cx="582.2222222222223" cy="40.0" class="point"/>
  <text x="582.2222222222223" y="375" class="label" text-anchor="middle">2026-01-11</text>
  <text x="582.2222222222223" y="35.0" class="label" text-anchor="middle">52</text>
  <circle cx="591.1111111111111" cy="40.0" class="point"/>
  <text x="591.1111111111111" y="375" class="label" text-anchor="middle">2026-01-12</text>
  <text x="591.1111111111111" y="35.0" class="label" text-anchor="middle">52</text>
  <circle cx="600.0" cy="40.0" class="point"/>
  <text x="600.0" y="375" class="label" text-anchor="middle">2026-01-13</text>
  <text x="600.0" y="35.0" class="label" text-anchor="middle">52</text>
  <circle cx="608.8888888888889" cy="40.0" class="point"/>
  <text x="608.8888888888889" y="375" class="label" text-anchor="middle">2026-01-14</text>
  <text x="608.8888888888889" y="35.0" class="label" text-anchor="middle">52</text>
  <circle cx="617.7777777777778" cy="40.0" class="point"/>
  <text x="617.7777777777778" y="375" class="label" text-anchor="middle">2026-01-15</text>
  <text x="617.7777777777778" y="35.0" class="label" text-anchor="middle">52</text>
  <circle cx="626.6666666666666" cy="40.0" class="point"/>
  <text x="626.6666666666666" y="375" class="label" text-anchor="middle">2026-01-16</text>
  <text x="626.6666666666666" y="35.0" class="label" text-anchor="middle">52</text>
  <circle cx="635.5555555555555" cy="40.0" class="point"/>
  <text x="635.5555555555555" y="375" class="label" text-anchor="middle">2026-01-17</text>
  <text x="635.5555555555555" y="35.0" class="label" text-anchor="middle">52</text>
  <circle cx="644.4444444444445" cy="40.0" class="point"/>
  <text x="644.4444444444445" y="375" class="label" text-anchor="middle">2026-01-18</text>
  <text x="644.4444444444445" y="35.0" class="label" text-anchor="middle">52</text>
  <circle cx="653.3333333333334" cy="40.0" class="point"/>
  <text x="653.3333333333334" y="375" class="label" text-anchor="middle">2026-01-19</text>
  <text x="653.3333333333334" y="35.0" class="label" text-anchor="middle">52</text>
  <circle cx="662.2222222222222" cy="40.0" class="point"/>
  <text x="662.2222222222222" y="375" class="label" text-anchor="middle">2026-01-20</text>
  <text x="662.2222222222222" y="35.0" class="label" text-anchor="middle">52</text>
  <circle cx="671.1111111111111" cy="40.0" class="point"/>
  <text x="671.1111111111111" y="375" class="label" text-anchor="middle">2026-01-21</text>
  <text x="671.1111111111111" y="35.0" class="label" text-anchor="middle">52</text>
  <circle cx="680.0" cy="40.0" class="point"/>
  <text x="680.0" y="375" class="label" text-anchor="middle">2026-01-22</text>
  <text x="680.0" y="35.0" class="label" text-anchor="middle">52</text>
  <circle cx="688.8888888888889" cy="40.0" class="point"/>
  <text x="688.8888888888889" y="375" class="label" text-anchor="middle">2026-01-23</text>
  <text x="688.8888888888889" y="35.0" class="label" text-anchor="middle">52</text>
  <circle cx="697.7777777777777" cy="40.0" class="point"/>
  <text x="697.7777777777777" y="375" class="label" text-anchor="middle">2026-01-24</text>
  <text x="697.7777777777777" y="35.0" class="label" text-anchor="middle">52</text>
  <circle cx="706.6666666666666" cy="40.0" class="point"/>
  <text x="706.6666666666666" y="375" class="label" text-anchor="middle">2026-01-25</text>
  <text x="706.6666666666666" y="35.0" class="label" text-anchor="middle">52</text>
  <circle cx="715.5555555555555" cy="40.0" class="point"/>
  <text x="715.5555555555555" y="375" class="label" text-anchor="middle">2026-01-26</text>
  <text x="715.5555555555555" y="35.0" class="label" text-anchor="middle">52</text>
  <circle cx="724.4444444444445" cy="40.0" class="point"/>
  <text x="724.4444444444445" y="375" class="label" text-anchor="middle">2026-01-27</text>
  <text x="724.4444444444445" y="35.0" class="label" text-anchor="middle">52</text>
  <circle cx="733.3333333333333" cy="40.0" class="point"/>
  <text x="733.3333333333333" y="375" class="label" text-anchor="middle">2026-01-28</text>
  <text x="733.3333333333333" y="35.0" class="label" text-anchor="middle">52</text>
  <circle cx="742.2222222222222" cy="40.0" class="point"/>
  <text x="742.2222222222222" y="375" class="label" text-anchor="middle">2026-01-29</text>
  <text x="742.2222222222222" y="35.0" class="label" text-anchor="middle">52</text>
  <circle cx="751.1111111111111" cy="40.0" class="point"/>
  <text x="751.1111111111111" y="375" class="label" text-anchor="middle">2026-01-30</text>
  <text x="751.1111111111111" y="35.0" class="label" text-anchor="middle">52</text>
  <circle cx="760.0" cy="40.0" class="point"/>
  <text x="760.0" y="375" class="label" text-anchor="middle">2026-01-31</text>
  <text x="760.0" y="35.0" class="label" text-anchor="middle">52</text>
  <text x="30" y="363.0" class="label" text-anchor="end">0</text>
  <text x="30" y="301.46153846153845" class="label" text-anchor="end">10</text>
  <text x="30" y="239.9230769230769" class="label" text-anchor="end">20</text>
  <text x="30" y="178.38461538461542" class="label" text-anchor="end">30</text>
  <text x="30" y="116.84615384615384" class="label" text-anchor="end">40</text>
  <text x="30" y="55.30769230769232" class="label" text-anchor="end">50</text>
</svg>