<svg xmlns="http://www.w3.org/2000/svg" width="800" height="400" viewBox="0 0 800 400">
  <style>
    .axis{stroke:#666;stroke-width:1}
    .line{stroke:#4a9;stroke-width:2;fill:none}
    .point{fill:#4a9;r:4}
    .label{font:10px sans-serif;fill:#aaa}
    .title{font:14px sans-serif;fill:#333}
  </style>
  <text x="400" y="20" class="title" text-anchor="middle">OPIC Field Growth Timeline</text>
  <line x1="40" y1="40" x2="40" y2="360" class="axis"/>
  <line x1="40" y1="360" x2="760" y2="360" class="axis"/>
  <path d="M 40.0,101.53846153846155 L 44.5859872611465,101.53846153846155 L 49.17197452229299,101.53846153846155 L 53.75796178343949,101.53846153846155 L 58.34394904458598,101.53846153846155 L 62.92993630573248,101.53846153846155 L 67.51592356687898,101.53846153846155 L 72.10191082802547,101.53846153846155 L 76.68789808917197,101.53846153846155 L 81.27388535031847,101.53846153846155 L 85.85987261146497,101.53846153846155 L 90.44585987261146,101.53846153846155 L 95.03184713375796,101.53846153846155 L 99.61783439490446,101.53846153846155 L 104.20382165605095,101.53846153846155 L 108.78980891719746,101.53846153846155 L 113.37579617834395,101.53846153846155 L 117.96178343949045,101.53846153846155 L 122.54777070063695,101.53846153846155 L 127.13375796178345,101.53846153846155 L 131.71974522292993,101.53846153846155 L 136.30573248407643,101.53846153846155 L 140.89171974522293,101.53846153846155 L 145.47770700636943,101.53846153846155 L 150.06369426751593,101.53846153846155 L 154.64968152866243,101.53846153846155 L 159.23566878980893,101.53846153846155 L 163.82165605095543,40.0 L 168.4076433121019,40.0 L 172.9936305732484,40.0 L 177.57961783439492,40.0 L 182.16560509554142,40.0 L 186.7515923566879,40.0 L 191.3375796178344,40.0 L 195.9235668789809,40.0 L 200.5095541401274,40.0 L 205.0955414012739,40.0 L 209.6815286624204,40.0 L 214.2675159235669,40.0 L 218.8535031847134,40.0 L 223.43949044585986,40.0 L 228.02547770700636,40.0 L 232.61146496815286,40.0 L 237.19745222929936,40.0 L 241.78343949044586,40.0 L 246.36942675159236,40.0 L 250.95541401273886,40.0 L 255.54140127388536,40.0 L 260.12738853503186,40.0 L 264.7133757961783,40.0 L 269.29936305732485,40.0 L 273.8853503184713,40.0 L 278.47133757961785,40.0 L 283.0573248407643,40.0 L 287.64331210191085,40.0 L 292.2292993630573,40.0 L 296.8152866242038,40.0 L 301.4012738853503,40.0 L 305.9872611464968,40.0 L 310.57324840764335,40.0 L 315.15923566878985,40.0 L 319.74522292993635,40.0 L 324.33121019108285,40.0 L 328.9171974522293,40.0 L 333.5031847133758,40.0 L 338.0891719745223,40.0 L 342.6751592356688,40.0 L 347.2611464968153,40.0 L 351.8471337579618,40.0 L 356.4331210191083,40.0 L 361.0191082802548,40.0 L 365.6050955414013,40.0 L 370.1910828025478,40.0 L 374.7770700636943,40.0 L 379.3630573248408,40.0 L 383.9490445859873,40.0 L 388.5350318471338,40.0 L 393.1210191082803,40.0 L 397.7070063694268,40.0 L 402.2929936305732,40.0 L 406.8789808917197,40.0 L 411.4649681528662,40.0 L 416.0509554140127,40.0 L 420.6369426751592,40.0 L 425.2229299363057,40.0 L 429.8089171974522,40.0 L 434.3949044585987,40.0 L 438.9808917197452,40.0 L 443.5668789808917,40.0 L 448.1528662420382,40.0 L 452.7388535031847,40.0 L 457.3248407643312,40.0 L 461.9108280254777,40.0 L 466.4968152866242,40.0 L 471.0828025477707,40.0 L 475.66878980891715,40.0 L 480.25477707006365,40.0 L 484.84076433121015,40.0 L 489.42675159235665,40.0 L 494.01273885350315,40.0 L 498.59872611464965,40.0 L 503.18471337579615,40.0 L 507.77070063694265,40.0 L 512.3566878980891,40.0 L 516.9426751592357,40.0 L 521.5286624203821,40.0 L 526.1146496815286,40.0 L 530.7006369426751,40.0 L 535.2866242038217,40.0 L 539.8726114649681,40.0 L 544.4585987261146,40.0 L 549.0445859872611,40.0 L 553.6305732484076,40.0 L 558.2165605095541,40.0 L 562.8025477707006,40.0 L 567.3885350318471,40.0 L 571.9745222929936,40.0 L 576.5605095541401,40.0 L 581.1464968152867,40.0 L 585.7324840764331,40.0 L 590.3184713375797,40.0 L 594.9044585987261,40.0 L 599.4904458598727,40.0 L 604.0764331210191,40.0 L 608.6624203821657,40.0 L 613.2484076433121,40.0 L 617.8343949044586,40.0 L 622.4203821656051,40.0 L 627.0063694267516,40.0 L 631.5923566878981,40.0 L 636.1783439490446,40.0 L 640.7643312101911,40.0 L 645.3503184713376,40.0 L 649.9363057324841,40.0 L 654.5222929936306,40.0 L 659.1082802547771,40.0 L 663.6942675159236,40.0 L 668.2802547770701,40.0 L 672.8662420382166,40.0 L 677.4522292993631,40.0 L 682.0382165605096,40.0 L 686.624203821656,40.0 L 691.2101910828026,40.0 L 695.796178343949,40.0 L 700.3821656050956,40.0 L 704.968152866242,40.0 L 709.5541401273886,40.0 L 714.140127388535,40.0 L 718.7261146496816,40.0 L 723.312101910828,40.0 L 727.8980891719746,40.0 L 732.484076433121,40.0 L 737.0700636942676,40.0 L 741.656050955414,40.0 L 746.2420382165606,40.0 L 750.828025477707,40.0 L 755.4140127388536,40.0 L 760.0,40.0" class="line"/>
  <circle cx="40.0" cy="101.53846153846155" class="point"/>
  <text x="40.0" y="375" class="label" text-anchor="middle">2025-11-11</text>
  <text x="40.0" y="96.53846153846155" class="label" text-anchor="middle">42</text>
  <circle cx="44.5859872611465" cy="101.53846153846155" class="point"/>
  <text x="44.5859872611465" y="375" class="label" text-anchor="middle">2025-11-12</text>
  <text x="44.5859872611465" y="96.53846153846155" class="label" text-anchor="middle">42</text>
  <circle cx="49.17197452229299" cy="101.53846153846155" class="point"/>
  <text x="49.17197452229299" y="375" class="label" text-anchor="middle">2025-11-13</text>
  <text x="49.17197452229299" y="96.53846153846155" class="label" text-anchor="middle">42</text>
  <circle cx="53.75796178343949" cy="101.53846153846155" class="point"/>
  <text x="53.75796178343949" y="375" class="label" text-anchor="middle">2025-11-14</text>
  <text x="53.75796178343949" y="96.53846153846155" class="label" text-anchor="middle">42</text>
  <circle cx="58.34394904458598" cy="101.53846153846155" class="point"/>
  <text x="58.34394904458598" y="375" class="label" text-anchor="middle">2025-11-15</text>
  <text x="58.34394904458598" y="96.53846153846155" class="label" text-anchor="middle">42</text>
  <circle cx="62.92993630573248" cy="101.53846153846155" class="point"/>
  <text x="62.92993630573248" y="375" class="label" text-anchor="middle">2025-11-16</text>
  <text x="62.92993630573248" y="96.53846153846155" class="label" text-anchor="middle">42</text>
  <circle cx="67.51592356687898" cy="101.53846153846155" class="point"/>
  <text x="67.51592356687898" y="375" class="label" text-anchor="middle">2025-11-17</text>
  <text x="67.51592356687898" y="96.53846153846155" class="label" text-anchor="middle">42</text>
  <circle cx="72.10191082802547" cy="101.53846153846155" class="point"/>
  <text x="72.10191082802547" y="375" class="label" text-anchor="middle">2025-11-18</text>
  <text x="72.10191082802547" y="96.53846153846155" class="label" text-anchor="middle">42</text>
  <circle cx="76.68789808917197" cy="101.53846153846155" class="point"/>
  <text x="76.68789808917197" y="375" class="label" text-anchor="middle">2025-11-19</text>
  <text x="76.68789808917197" y="96.53846153846155" class="label" text-anchor="middle">42</text>
  <circle cx="81.27388535031847" cy="101.53846153846155" class="point"/>
  <text x="81.27388535031847" y="375" class="label" text-anchor="middle">2025-11-20</text>
  <text x="81.27388535031847" y="96.53846153846155" class="label" text-anchor="middle">42</text>
  <circle cx="85.85987261146497" cy="101.53846153846155" class="point"/>
  <text x="85.85987261146497" y="375" class="label" text-anchor="middle">2025-11-21</text>
  <text x="85.85987261146497" y="96.53846153846155" class="label" text-anchor="middle">42</text>
  <circle cx="90.44585987261146" cy="101.53846153846155" class="point"/>
  <text x="90.44585987261146" y="375" class="label" text-anchor="middle">2025-11-22</text>
  <text x="90.44585987261146" y="96.53846153846155" class="label" text-anchor="middle">42</text>
  <circle cx="95.03184713375796" cy="101.53846153846155" class="point"/>
  <text x="95.03184713375796" y="375" class="label" text-anchor="middle">2025-11-23</text>
  <text x="95.03184713375796" y="96.53846153846155" class="label" text-anchor="middle">42</text>
  <circle cx="99.61783439490446" cy="101.53846153846155" class="point"/>
  <text x="99.61783439490446" y="375" class="label" text-anchor="middle">2025-11-24</text>
  <text x="99.61783439490446" y="96.53846153846155" class="label" text-anchor="middle">42</text>
  <circle cx="104.20382165605095" cy="101.53846153846155" class="point"/>
  <text x="104.20382165605095" y="375" class="label" text-anchor="middle">2025-11-25</text>
  <text x="104.20382165605095" y="96.53846153846155" class="label" text-anchor="middle">42</text>
  <circle cx="108.78980891719746" cy="101.53846153846155" class="point"/>
  <text x="108.78980891719746" y="375" class="label" text-anchor="middle">2025-11-26</text>
  <text x="108.78980891719746" y="96.53846153846155" class="label" text-anchor="middle">42</text>
  <circle cx="113.37579617834395" cy="101.53846153846155" class="point"/>
  <text x="113.37579617834395" y="375" class="label" text-anchor="middle">2025-11-27</text>
  <text x="113.37579617834395" y="96.53846153846155" class="label" text-anchor="middle">42</text>
  <circle cx="117.96178343949045" cy="101.53846153846155" class="point"/>
  <text x="117.96178343949045" y="375" class="label" text-anchor="middle">2025-11-28</text>
  <text x="117.96178343949045" y="96.53846153846155" class="label" text-anchor="middle">42</text>
  <circle cx="122.54777070063695" cy="101.53846153846155" class="point"/>
  <text x="122.54777070063695" y="375" class="label" text-anchor="middle">2025-11-29</text>
  <text x="122.54777070063695" y="96.53846153846155" class="label" text-anchor="middle">42</text>
  <circle cx="127.13375796178345" cy="101.53846153846155" class="point"/>
  <text x="127.13375796178345" y="375" class="label" text-anchor="middle">2025-11-30</text>
  <text x="127.13375796178345" y="96.53846153846155" class="label" text-anchor="middle">42</text>
  <circle cx="131.71974522292993" cy="101.53846153846155" class="point"/>
  <text x="131.71974522292993" y="375" class="label" text-anchor="middle">2025-12-01</text>
  <text x="131.71974522292993" y="96.53846153846155" class="label" text-anchor="middle">42</text>
  <circle cx="136.30573248407643" cy="101.53846153846155" class="point"/>
  <text x="136.30573248407643" y="375" class="label" text-anchor="middle">2025-12-02</text>
  <text x="136.30573248407643" y="96.53846153846155" class="label" text-anchor="middle">42</text>
  <circle cx="140.89171974522293" cy="101.53846153846155" class="point"/>
  <text x="140.89171974522293" y="375" class="label" text-anchor="middle">2025-12-03</text>
  <text x="140.89171974522293" y="96.53846153846155" class="label" text-anchor="middle">42</text>
  <circle cx="145.47770700636943" cy="101.53846153846155" class="point"/>
  <text x="145.47770700636943" y="375" class="label" text-anchor="middle">2025-12-04</text>
  <text x="145.47770700636943" y="96.53846153846155" class="label" text-anchor="middle">42</text>
  <circle cx="150.06369426751593" cy="101.53846153846155" class="point"/>
  <text x="150.06369426751593" y="375" class="label" text-anchor="middle">2025-12-05</text>
  <text x="150.06369426751593" y="96.53846153846155" class="label" text-anchor="middle">42</text>
  <circle cx="154.64968152866243" cy="101.53846153846155" class="point"/>
  <text x="154.64968152866243" y="375" class="label" text-anchor="middle">2025-12-06</text>
  <text x="154.64968152866243" y="96.53846153846155" class="label" text-anchor="middle">42</text>
  <circle cx="159.23566878980893" cy="101.53846153846155" class="point"/>
  <text x="159.23566878980893" y="375" class="label" text-anchor="middle">2025-12-07</text>
  <text x="159.23566878980893" y="96.53846153846155" class="label" text-anchor="middle">42</text>
  <circle cx="163.82165605095543" cy="40.0" class="point"/>
  <text x="163.82165605095543" y="375" class="label" text-anchor="middle">2025-12-08</text>
  <text x="163.82165605095543" y="35.0" class="label" text-anchor="middle">52</text>
  <circle cx="168.4076433121019" cy="40.0" class="point"/>
  <text x="168.4076433121019" y="375" class="label" text-anchor="middle">2025-12-09</text>
  <text x="168.4076433121019" y="35.0" class="label" text-anchor="middle">52</text>
  <circle cx="172.9936305732484" cy="40.0" class="point"/>
  <text x="172.9936305732484" y="375" class="label" text-anchor="middle">2025-12-10</text>
  <text x="172.9936305732484" y="35.0" class="label" text-anchor="middle">52</text>
  <circle cx="177.57961783439492" cy="40.0" class="point"/>
  <text x="177.57961783439492" y="375" class="label" text-anchor="middle">2025-12-11</text>
  <text x="177.57961783439492" y="35.0" class="label" text-anchor="middle">52</text>
  <circle cx="182.16560509554142" cy="40.0" class="point"/>
  <text x="182.16560509554142" y="375" class="label" text-anchor="middle">2025-12-12</text>
  <text x="182.16560509554142" y="35.0" class="label" text-anchor="middle">52</text>
  <circle cx="186.7515923566879" cy="40.0" class="point"/>
  <text x="186.7515923566879" y="375" class="label" text-anchor="middle">2025-12-13</text>
  <text x="186.7515923566879" y="35.0" class="label" text-anchor="middle">52</text>
  <circle cx="191.3375796178344" cy="40.0" class="point"/>
  <text x="191.3375796178344" y="375" class="label" text-anchor="middle">2025-12-14</text>
  <text x="191.3375796178344" y="35.0" class="label" text-anchor="middle">52</text>
  <circle cx="195.9235668789809" cy="40.0" class="point"/>
  <text x="195.9235668789809" y="375" class="label" text-anchor="middle">2025-12-15</text>
  <text x="195.9235668789809" y="35.0" class="label" text-anchor="middle">52</text>
  <circle cx="200.5095541401274" cy="40.0" class="point"/>
  <text x="200.5095541401274" y="375" class="label" text-anchor="middle">2025-12-16</text>
  <text x="200.5095541401274" y="35.0" class="label" text-anchor="middle">52</text>
  <circle cx="205.0955414012739" cy="40.0" class="point"/>
  <text x="205.0955414012739" y="375" class="label" text-anchor="middle">2025-12-17</text>
  <text x="205.0955414012739" y="35.0" class="label" text-anchor="middle">52</text>
  <circle cx="209.6815286624204" cy="40.0" class="point"/>
  <text x="209.6815286624204" y="375" class="label" text-anchor="middle">2025-12-18</text>
  <text x="209.6815286624204" y="35.0" class="label" text-anchor="middle">52</text>
  <circle cx="214.2675159235669" cy="40.0" class="point"/>
  <text x="214.2675159235669" y="375" class="label" text-anchor="middle">2025-12-19</text>
  <text x="214.2675159235669" y="35.0" class="label" text-anchor="middle">52</text>
  <circle cx="218.8535031847134" cy="40.0" class="point"/>
  <text x="218.8535031847134" y="375" class="label" text-anchor="middle">2025-12-20</text>
  <text x="218.8535031847134" y="35.0" class="label" text-anchor="middle">52</text>
  <circle cx="223.43949044585986" cy="40.0" class="point"/>
  <text x="223.43949044585986" y="375" class="label" text-anchor="middle">2025-12-21</text>
  <text x="223.43949044585986" y="35.0" class="label" text-anchor="middle">52</text>
  <circle cx="228.02547770700636" cy="40.0" class="point"/>
  <text x="228.02547770700636" y="375" class="label" text-anchor="middle">2025-12-22</text>
  <text x="228.02547770700636" y="35.0" class="label" text-anchor="middle">52</text>
  <circle cx="232.61146496815286" cy="40.0" class="point"/>
  <text x="232.61146496815286" y="375" class="label" text-anchor="middle">2025-12-23</text>
  <text x="232.61146496815286" y="35.0" class="label" text-anchor="middle">52</text>
  <circle cx="237.19745222929936" cy="40.0" class="point"/>
  <text x="237.19745222929936" y="375" class="label" text-anchor="middle">2025-12-24</text>
  <text x="237.19745222929936" y="35.0" class="label" text-anchor="middle">52</text>
  <circle cx="241.78343949044586" cy="40.0" class="point"/>
  <text x="241.78343949044586" y="375" class="label" text-anchor="middle">2025-12-25</text>
  <text x="241.78343949044586" y="35.0" class="label" text-anchor="middle">52</text>
  <circle cx="246.36942675159236" cy="40.0" class="point"/>
  <text x="246.36942675159236" y="375" class="label" text-anchor="middle">2025-12-26</text>
  <text x="246.36942675159236" y="35.0" class="label" text-anchor="middle">52</text>
  <circle cx="250.95541401273886" cy="40.0" class="point"/>
  <text x="250.95541401273886" y="375" class="label" text-anchor="middle">2025-12-27</text>
  <text x="250.95541401273886" y="35.0" class="label" text-anchor="middle">52</text>
  <circle cx="255.54140127388536" cy="40.0" class="point"/>
  <text x="255.54140127388536" y="375" class="label" text-anchor="middle">2025-12-28</text>
  <text x="255.54140127388536" y="35.0" class="label" text-anchor="middle">52</text>
  <circle cx="260.12738853503186" cy="40.0" class="point"/>
  <text x="260.12738853503186" y="375" class="label" text-anchor="middle">2025-12-29</text>
  <text x="260.12738853503186" y="35.0" class="label" text-anchor="middle">52</text>
  <circle cx="264.7133757961783" cy="40.0" class="point"/>
  <text x="264.7133757961783" y="375" class="label" text-anchor="middle">2025-12-30</text>
  <text x="264.7133757961783" y="35.0" class="label" text-anchor="middle">52</text>
  <circle cx="269.29936305732485" cy="40.0" class="point"/>
  <text x="269.29936305732485" y="375" class="label" text-anchor="middle">2025-12-31</text>
  <text x="269.29936305732485" y="35.0" class="label" text-anchor="middle">52</text>
  <circle cx="273.8853503184713" cy="40.0" class="point"/>
  <text x="273.8853503184713" y="375" class="label" text-anchor="middle">2026-01-01</text>
  <text x="273.8853503184713" y="35.0" class="label" text-anchor="middle">52</text>
  <circle cx="278.47133757961785" cy="40.0" class="point"/>
  <text x="278.47133757961785" y="375" class="label" text-anchor="middle">2026-01-02</text>
  <text x="278.47133757961785" y="35.0" class="label" text-anchor="middle">52</text>
  <circle cx="283.0573248407643" cy="40.0" class="point"/>
  <text x="283.0573248407643" y="375" class="label" text-anchor="middle">2026-01-03</text>
  <text x="283.0573248407643" y="35.0" class="label" text-anchor="middle">52</text>
  <circle cx="287.64331210191085" cy="40.0" class="point"/>
  <text x="287.64331210191085" y="375" class="label" text-anchor="middle">2026-01-04</text>
  <text x="287.64331210191085" y="35.0" class="label" text-anchor="middle">52</text>
  <circle cx="292.2292993630573" cy="40.0" class="point"/>
  <text x="292.2292993630573" y="375" class="label" text-anchor="middle">2026-01-05</text>
  <text x="292.2292993630573" y="35.0" class="label" text-anchor="middle">52</text>
  <circle cx="296.8152866242038" cy="40.0" class="point"/>
  <text x="296.8152866242038" y="375" class="label" text-anchor="middle">2026-01-06</text>
  <text x="296.8152866242038" y="35.0" class="label" text-anchor="middle">52</text>
  <circle cx="301.4012738853503" cy="40.0" class="point"/>
  <text x="301.4012738853503" y="375" class="label" text-anchor="middle">2026-01-07</text>
  <text x="301.4012738853503" y="35.0" class="label" text-anchor="middle">52</text>
  <circle cx="305.9872611464968" cy="40.0" class="point"/>
  <text x="305.9872611464968" y="375" class="label" text-anchor="middle">2026-01-08</text>
  <text x="305.9872611464968" y="35.0" class="label" text-anchor="middle">52</text>
  <circle cx="310.57324840764335" cy="40.0" class="point"/>
  <text x="310.57324840764335" y="375" class="label" text-anchor="middle">2026-01-09</text>
  <text x="310.57324840764335" y="35.0" class="label" text-anchor="middle">52</text>
  <circle cx="315.15923566878985" cy="40.0" class="point"/>
  <text x="315.15923566878985" y="375" class="label" text-anchor="middle">2026-01-10</text>
  <text x="315.15923566878985" y="35.0" class="label" text-anchor="middle">52</text>
  <circle cx="319.74522292993635" cy="40.0" class="point"/>
  <text x="319.74522292993635" y="375" class="label" text-anchor="middle">2026-01-11</text>
  <text x="319.74522292993635" y="35.0" class="label" text-anchor="middle">52</text>
  <circle cx="324.33121019108285" cy="40.0" class="point"/>
  <text x="324.33121019108285" y="375" class="label" text-anchor="middle">2026-01-12</text>
  <text x="324.33121019108285" y="35.0" class="label" text-anchor="middle">52</text>
  <circle cx="328.9171974522293" cy="40.0" class="point"/>
  <text x="328.9171974522293" y="375" class="label" text-anchor="middle">2026-01-13</text>
  <text x="328.9171974522293" y="35.0" class="label" text-anchor="middle">52</text>
  <circle cx="333.5031847133758" cy="40.0" class="point"/>
  <text x="333.5031847133758" y="375" class="label" text-anchor="middle">2026-01-14</text>
  <text x="333.5031847133758" y="35.0" class="label" text-anchor="middle">52</text>
  <circle cx="338.0891719745223" cy="40.0" class="point"/>
  <text x="338.0891719745223" y="375" class="label" text-anchor="middle">2026-01-15</text>
  <text x="338.0891719745223" y="35.0" class="label" text-anchor="middle">52</text>
  <circle cx="342.6751592356688" cy="40.0" class="point"/>
  <text x="342.6751592356688" y="375" class="label" text-anchor="middle">2026-01-16</text>
  <text x="342.6751592356688" y="35.0" class="label" text-anchor="middle">52</text>
  <circle cx="347.2611464968153" cy="40.0" class="point"/>
  <text x="347.2611464968153" y="375" class="label" text-anchor="middle">2026-01-17</text>
  <text x="347.2611464968153" y="35.0" class="label" text-anchor="middle">52</text>
  <circle cx="351.8471337579618" cy="40.0" class="point"/>
  <text x="351.8471337579618" y="375" class="label" text-anchor="middle">2026-01-18</text>
  <text x="351.8471337579618" y="35.0" class="label" text-anchor="middle">52</text>
  <circle cx="356.4331210191083" cy="40.0" class="point"/>
  <text x="356.4331210191083" y="375" class="label" text-anchor="middle">2026-01-19</text>
  <text x="356.4331210191083" y="35.0" class="label" text-anchor="middle">52</text>
  <circle cx="361.0191082802548" cy="40.0" class="point"/>
  <text x="361.0191082802548" y="375" class="label" text-anchor="middle">2026-01-20</text>
  <text x="361.0191082802548" y="35.0" class="label" text-anchor="middle">52</text>
  <circle cx="365.6050955414013" cy="40.0" class="point"/>
  <text x="365.6050955414013" y="375" class="label" text-anchor="middle">2026-01-21</text>
  <text x="365.6050955414013" y="35.0" class="label" text-anchor="middle">52</text>
  <circle cx="370.1910828025478" cy="40.0" class="point"/>
  <text x="370.1910828025478" y="375" class="label" text-anchor="middle">2026-01-22</text>
  <text x="370.1910828025478" y="35.0" class="label" text-anchor="middle">52</text>
  <circle cx="374.7770700636943" cy="40.0" class="point"/>
  <text x="374.7770700636943" y="375" class="label" text-anchor="middle">2026-01-23</text>
  <text x="374.7770700636943" y="35.0" class="label" text-anchor="middle">52</text>
  <circle cx="379.3630573248408" cy="40.0" class="point"/>
  <text x="379.3630573248408" y="375" class="label" text-anchor="middle">2026-01-24</text>
  <text x="379.3630573248408" y="35.0" class="label" text-anchor="middle">52</text>
  <circle cx="383.9490445859873" cy="40.0" class="point"/>
  <text x="383.9490445859873" y="375" class="label" text-anchor="middle">2026-01-25</text>
  <text x="383.9490445859873" y="35.0" class="label" text-anchor="middle">52</text>
  <circle cx="388.5350318471338" cy="40.0" class="point"/>
  <text x="388.5350318471338" y="375" class="label" text-anchor="middle">2026-01-26</text>
  <text x="388.5350318471338" y="35.0" class="label" text-anchor="middle">52</text>
  <circle cx="393.1210191082803" cy="40.0" class="point"/>
  <text x="393.1210191082803" y="375" class="label" text-anchor="middle">2026-01-27</text>
  <text x="393.1210191082803" y="35.0" class="label" text-anchor="middle">52</text>
  <circle cx="397.7070063694268" cy="40.0" class="point"/>
  <text x="397.7070063694268" y="375" class="label" text-anchor="middle">2026-01-28</text>
  <text x="397.7070063694268" y="35.0" class="label" text-anchor="middle">52</text>
  <circle cx="402.2929936305732" cy="40.0" class="point"/>
  <text x="402.2929936305732" y="375" class="label" text-anchor="middle">2026-01-29</text>
  <text x="402.2929936305732" y="35.0" class="label" text-anchor="middle">52</text>
  <circle cx="406.8789808917197" cy="40.0" class="point"/>
  <text x="406.8789808917197" y="375" class="label" text-anchor="middle">2026-01-30</text>
  <text x="406.8789808917197" y="35.0" class="label" text-anchor="middle">52</text>
  <circle cx="411.4649681528662" cy="40.0" class="point"/>
  <text x="411.4649681528662" y="375" class="label" text-anchor="middle">2026-01-31</text>
  <text x="411.4649681528662" y="35.0" class="label" text-anchor="middle">52</text>
  <circle cx="416.0509554140127" cy="40.0" class="point"/>
  <text x="416.0509554140127" y="375" class="label" text-anchor="middle">2026-02-01</text>
  <text x="416.0509554140127" y="35.0" class="label" text-anchor="middle">52</text>
  <circle cx="420.6369426751592" cy="40.0" class="point"/>
  <text x="420.6369426751592" y="375" class="label" text-anchor="middle">2026-02-02</text>
  <text x="420.6369426751592" y="35.0" class="label" text-anchor="middle">52</text>
  <circle cx="425.2229299363057" cy="40.0" class="point"/>
  <text x="425.2229299363057" y="375" class="label" text-anchor="middle">2026-02-03</text>
  <text x="425.2229299363057" y="35.0" class="label" text-anchor="middle">52</text>
  <circle cx="429.8089171974522" cy="40.0" class="point"/>
  <text x="429.8089171974522" y="375" class="label" text-anchor="middle">2026-02-04</text>
  <text x="429.8089171974522" y="35.0" class="label" text-anchor="middle">52</text>
  <circle cx="434.3949044585987" cy="40.0" class="point"/>
  <text x="434.3949044585987" y="375" class="label" text-anchor="middle">2026-02-05</text>
  <text x="434.3949044585987" y="35.0" class="label" text-anchor="middle">52</text>
  <circle cx="438.9808917197452" cy="40.0" class="point"/>
  <text x="438.9808917197452" y="375" class="label" text-anchor="middle">2026-02-06</text>
  <text x="438.9808917197452" y="35.0" class="label" text-anchor="middle">52</text>
  <circle cx="443.5668789808917" cy="40.0" class="point"/>
  <text x="443.5668789808917" y="375" class="label" text-anchor="middle">2026-02-07</text>
  <text x="443.5668789808917" y="35.0" class="label" text-anchor="middle">52</text>
  <circle cx="448.1528662420382" cy="40.0" class="point"/>
  <text x="448.1528662420382" y="375" class="label" text-anchor="middle">2026-02-08</text>
  <text x="448.1528662420382" y="35.0" class="label" text-anchor="middle">52</text>
  <circle cx="452.7388535031847" cy="40.0" class="point"/>
  <text x="452.7388535031847" y="375" class="label" text-anchor="middle">2026-02-09</text>
  <text x="452.7388535031847" y="35.0" class="label" text-anchor="middle">52</text>
  <circle cx="457.3248407643312" cy="40.0" class="point"/>
  <text x="457.3248407643312" y="375" class="label" text-anchor="middle">2026-02-10</text>
  <text x="457.3248407643312" y="35.0" class="label" text-anchor="middle">52</text>
  <circle cx="461.9108280254777" cy="40.0" class="point"/>
  <text x="461.9108280254777" y="375" class="label" text-anchor="middle">2026-02-11</text>
  <text x="461.9108280254777" y="35.0" class="label" text-anchor="middle">52</text>
  <circle cx="466.4968152866242" cy="40.0" class="point"/>
  <text x="466.4968152866242" y="375" class="label" text-anchor="middle">2026-02-12</text>
  <text x="466.4968152866242" y="35.0" class="label" text-anchor="middle">52</text>
  <circle cx="471.0828025477707" cy="40.0" class="point"/>
  <text x="471.0828025477707" y="375" class="label" text-anchor="middle">2026-02-13</text>
  <text x="471.0828025477707" y="35.0" class="label" text-anchor="middle">52</text>
  <circle cx="475.66878980891715" cy="40.0" class="point"/>
  <text x="475.66878980891715" y="375" class="label" text-anchor="middle">2026-02-14</text>
  <text x="475.66878980891715" y="35.0" class="label" text-anchor="middle">52</text>
  <circle cx="480.25477707006365" cy="40.0" class="point"/>
  <text x="480.25477707006365" y="375" class="label" text-anchor="middle">2026-02-15</text>
  <text x="480.25477707006365" y="35.0" class="label" text-anchor="middle">52</text>
  <circle cx="484.84076433121015" cy="40.0" class="point"/>
  <text x="484.84076433121015" y="375" class="label" text-anchor="middle">2026-02-16</text>
  <text x="484.84076433121015" y="35.0" class="label" text-anchor="middle">52</text>
  <circle cx="489.42675159235665" cy="40.0" class="point"/>
  <text x="489.42675159235665" y="375" class="label" text-anchor="middle">2026-02-17</text>
  <text x="489.42675159235665" y="35.0" class="label" text-anchor="middle">52</text>
  <circle cx="494.01273885350315" cy="40.0" class="point"/>
  <text x="494.01273885350315" y="375" class="label" text-anchor="middle">2026-02-18</text>
  <text x="494.01273885350315" y="35.0" class="label" text-anchor="middle">52</text>
  <circle cx="498.59872611464965" cy="40.0" class="point"/>
  <text x="498.59872611464965" y="375" class="label" text-anchor="middle">2026-02-19</text>
  <text x="498.59872611464965" y="35.0" class="label" text-anchor="middle">52</text>
  <circle cx="503.18471337579615" cy="40.0" class="point"/>
  <text x="503.18471337579615" y="375" class="label" text-anchor="middle">2026-02-20</text>
  <text x="503.18471337579615" y="35.0" class="label" text-anchor="middle">52</text>
  <circle cx="507.77070063694265" cy="40.0" class="point"/>
  <text x="507.77070063694265" y="375" class="label" text-anchor="middle">2026-02-21</text>
  <text x="507.77070063694265" y="35.0" class="label" text-anchor="middle">52</text>
  <circle cx="512.3566878980891" cy="40.0" class="point"/>
  <text x="512.3566878980891" y="375" class="label" text-anchor="middle">2026-02-22</text>
  <text x="512.3566878980891" y="35.0" class="label" text-anchor="middle">52</text>
  <circle cx="516.9426751592357" cy="40.0" class="point"/>
  <text x="516.9426751592357" y="375" class="label" text-anchor="middle">2026-02-23</text>
  <text x="516.9426751592357" y="35.0" class="label" text-anchor="middle">52</text>
  <circle cx="521.5286624203821" cy="40.0" class="point"/>
  <text x="521.5286624203821" y="375" class="label" text-anchor="middle">2026-02-24</text>
  <text x="521.5286624203821" y="35.0" class="label" text-anchor="middle">52</text>
  <circle cx="526.1146496815286" cy="40.0" class="point"/>
  <text x="526.1146496815286" y="375" class="label" text-anchor="middle">2026-02-25</text>
  <text x="526.1146496815286" y="35.0" class="label" text-anchor="middle">52</text>
  <circle cx="530.7006369426751" cy="40.0" class="point"/>
  <text x="530.7006369426751" y="375" class="label" text-anchor="middle">2026-02-26</text>
  <text x="530.7006369426751" y="35.0" class="label" text-anchor="middle">52</text>
  <circle cx="535.2866242038217" cy="40.0" class="point"/>
  <text x="535.2866242038217" y="375" class="label" text-anchor="middle">2026-02-27</text>
  <text x="535.2866242038217" y="35.0" class="label" text-anchor="middle">52</text>
  <circle cx="539.8726114649681" cy="40.0" class="point"/>
  <text x="539.8726114649681" y="375" class="label" text-anchor="middle">2026-02-28</text>
  <text x="539.8726114649681" y="35.0" class="label" text-anchor="middle">52</text>
  <circle cx="544.4585987261146" cy="40.0" class="point"/>
  <text x="544.4585987261146" y="375" class="label" text-anchor="middle">2026-03-01</text>
  <text x="544.4585987261146" y="35.0" class="label" text-anchor="middle">52</text>
  <circle cx="549.0445859872611" cy="40.0" class="point"/>
  <text x="549.0445859872611" y="375" class="label" text-anchor="middle">2026-03-02</text>
  <text x="549.0445859872611" y="35.0" class="label" text-anchor="middle">52</text>
  <circle cx="553.6305732484076" cy="40.0" class="point"/>
  <text x="553.6305732484076" y="375" class="label" text-anchor="middle">2026-03-03</text>
  <text x="553.6305732484076" y="35.0" class="label" text-anchor="middle">52</text>
  <circle cx="558.2165605095541" cy="40.0" class="point"/>
  <text x="558.2165605095541" y="375" class="label" text-anchor="middle">2026-03-04</text>
  <text x="558.2165605095541" y="35.0" class="label" text-anchor="middle">52</text>
  <circle cx="562.8025477707006" cy="40.0" class="point"/>
  <text x="562.8025477707006" y="375" class="label" text-anchor="middle">2026-03-05</text>
  <text x="562.8025477707006" y="35.0" class="label" text-anchor="middle">52</text>
  <circle cx="567.3885350318471" cy="40.0" class="point"/>
  <text x="567.3885350318471" y="375" class="label" text-anchor="middle">2026-03-06</text>
  <text x="567.3885350318471" y="35.0" class="label" text-anchor="middle">52</text>
  <circle cx="571.9745222929936" cy="40.0" class="point"/>
  <text x="571.9745222929936" y="375" class="label" text-anchor="middle">2026-03-07</text>
  <text x="571.9745222929936" y="35.0" class="label" text-anchor="middle">52</text>
  <circle cx="576.5605095541401" cy="40.0" class="point"/>
  <text x="576.5605095541401" y="375" class="label" text-anchor="middle">2026-03-08</text>
  <text x="576.5605095541401" y="35.0" class="label" text-anchor="middle">52</text>
  <circle cx="581.1464968152867" cy="40.0" class="point"/>
  <text x="581.1464968152867" y="375" class="label" text-anchor="middle">2026-03-09</text>
  <text x="581.1464968152867" y="35.0" class="label" text-anchor="middle">52</text>
  <circle cx="585.7324840764331" cy="40.0" class="point"/>
  <text x="585.7324840764331" y="375" class="label" text-anchor="middle">2026-03-10</text>
  <text x="585.7324840764331" y="35.0" class="label" text-anchor="middle">52</text>
  <circle cx="590.3184713375797" cy="40.0" class="point"/>
  <text x="590.3184713375797" y="375" class="label" text-anchor="middle">2026-03-11</text>
  <text x="590.3184713375797" y="35.0" class="label" text-anchor="middle">52</text>
  <circle cx="594.9044585987261" cy="40.0" class="point"/>
  <text x="594.9044585987261" y="375" class="label" text-anchor="middle">2026-03-12</text>
  <text x="594.9044585987261" y="35.0" class="label" text-anchor="middle">52</text>
  <circle cx="599.4904458598727" cy="40.0" class="point"/>
  <text x="599.4904458598727" y="375" class="label" text-anchor="middle">2026-03-13</text>
  <text x="599.4904458598727" y="35.0" class="label" text-anchor="middle">52</text>
  <circle cx="604.0764331210191" cy="40.0" class="point"/>
  <text x="604.0764331210191" y="375" class="label" text-anchor="middle">2026-03-14</text>
  <text x="604.0764331210191" y="35.0" class="label" text-anchor="middle">52</text>
  <circle cx="608.6624203821657" cy="40.0" class="point"/>
  <text x="608.6624203821657" y="375" class="label" text-anchor="middle">2026-03-15</text>
  <text x="608.6624203821657" y="35.0" class="label" text-anchor="middle">52</text>
  <circle cx="613.2484076433121" cy="40.0" class="point"/>
  <text x="613.2484076433121" y="375" class="label" text-anchor="middle">2026-03-16</text>
  <text x="613.2484076433121" y="35.0" class="label" text-anchor="middle">52</text>
  <circle cx="617.8343949044586" cy="40.0" class="point"/>
  <text x="617.8343949044586" y="375" class="label" text-anchor="middle">2026-03-17</text>
  <text x="617.8343949044586" y="35.0" class="label" text-anchor="middle">52</text>
  <circle cx="622.4203821656051" cy="40.0" class="point"/>
  <text x="622.4203821656051" y="375" class="label" text-anchor="middle">2026-03-18</text>
  <text x="622.4203821656051" y="35.0" class="label" text-anchor="middle">52</text>
  <circle cx="627.0063694267516" cy="40.0" class="point"/>
  <text x="627.0063694267516" y="375" class="label" text-anchor="middle">2026-03-19</text>
  <text x="627.0063694267516" y="35.0" class="label" text-anchor="middle">52</text>
  <circle cx="631.5923566878981" cy="40.0" class="point"/>
  <text x="631.5923566878981" y="375" class="label" text-anchor="middle">2026-03-20</text>
  <text x="631.5923566878981" y="35.0" class="label" text-anchor="middle">52</text>
  <circle cx="636.1783439490446" cy="40.0" class="point"/>
  <text x="636.1783439490446" y="375" class="label" text-anchor="middle">2026-03-21</text>
  <text x="636.1783439490446" y="35.0" class="label" text-anchor="middle">52</text>
  <circle cx="640.7643312101911" cy="40.0" class="point"/>
  <text x="640.7643312101911" y="375" class="label" text-anchor="middle">2026-03-22</text>
  <text x="640.7643312101911" y="35.0" class="label" text-anchor="middle">52</text>
  <circle cx="645.3503184713376" cy="40.0" class="point"/>
  <text x="645.3503184713376" y="375" class="label" text-anchor="middle">2026-03-23</text>
  <text x="645.3503184713376" y="35.0" class="label" text-anchor="middle">52</text>
  <circle cx="649.9363057324841" cy="40.0" class="point"/>
  <text x="649.9363057324841" y="375" class="label" text-anchor="middle">2026-03-24</text>
  <text x="649.9363057324841" y="35.0" class="label" text-anchor="middle">52</text>
  <circle cx="654.5222929936306" cy="40.0" class="point"/>
  <text x="654.5222929936306" y="375" class="label" text-anchor="middle">2026-03-25</text>
  <text x="654.5222929936306" y="35.0" class="label" text-anchor="middle">52</text>
  <circle cx="659.1082802547771" cy="40.0" class="point"/>
  <text x="659.1082802547771" y="375" class="label" text-anchor="middle">2026-03-26</text>
  <text x="659.1082802547771" y="35.0" class="label" text-anchor="middle">52</text>
  <circle cx="663.6942675159236" cy="40.0" class="point"/>
  <text x="663.6942675159236" y="375" class="label" text-anchor="middle">2026-03-27</text>
  <text x="663.6942675159236" y="35.0" class="label" text-anchor="middle">52</text>
  <circle cx="668.2802547770701" cy="40.0" class="point"/>
  <text x="668.2802547770701" y="375" class="label" text-anchor="middle">2026-03-28</text>
  <text x="668.2802547770701" y="35.0" class="label" text-anchor="middle">52</text>
  <circle cx="672.8662420382166" cy="40.0" class="point"/>
  <text x="672.8662420382166" y="375" class="label" text-anchor="middle">2026-03-29</text>
  <text x="672.8662420382166" y="35.0" class="label" text-anchor="middle">52</text>
  <circle cx="677.4522292993631" cy="40.0" class="point"/>
  <text x="677.4522292993631" y="375" class="label" text-anchor="middle">2026-03-30</text>
  <text x="677.4522292993631" y="35.0" class="label" text-anchor="middle">52</text>
  <circle cx="682.0382165605096" cy="40.0" class="point"/>
  <text x="682.0382165605096" y="375" class="label" text-anchor="middle">2026-03-31</text>
  <text x="682.0382165605096" y="35.0" class="label" text-anchor="middle">52</text>
  <circle cx="686.624203821656" cy="40.0" class="point"/>
  <text x="686.624203821656" y="375" class="label" text-anchor="middle">2026-04-01</text>
  <text x="686.624203821656" y="35.0" class="label" text-anchor="middle">52</text>
  <circle cx="691.2101910828026" cy="40.0" class="point"/>
  <text x="691.2101910828026" y="375" class="label" text-anchor="middle">2026-04-02</text>
  <text x="691.2101910828026" y="35.0" class="label" text-anchor="middle">52</text>
  <circle cx="695.796178343949" cy="40.0" class="point"/>
  <text x="695.796178343949" y="375" class="label" text-anchor="middle">2026-04-03</text>
  <text x="695.796178343949" y="35.0" class="label" text-anchor="middle">52</text>
  <circle cx="700.3821656050956" cy="40.0" class="point"/>
  <text x="700.3821656050956" y="375" class="label" text-anchor="middle">2026-04-04</text>
  <text x="700.3821656050956" y="35.0" class="label" text-anchor="middle">52</text>
  <circle cx="704.968152866242" cy="40.0" class="point"/>
  <text x="704.968152866242" y="375" class="label" text-anchor="middle">2026-04-05</text>
  <text x="704.968152866242" y="35.0" class="label" text-anchor="middle">52</text>
  <circle cx="709.5541401273886" cy="40.0" class="point"/>
  <text x="709.5541401273886" y="375" class="label" text-anchor="middle">2026-04-06</text>
  <text x="709.5541401273886" y="35.0" class="label" text-anchor="middle">52</text>
  <circle cx="714.140127388535" cy="40.0" class="point"/>
  <text x="714.140127388535" y="375" class="label" text-anchor="middle">2026-04-07</text>
  <text x="714.140127388535" y="35.0" class="label" text-anchor="middle">52</text>
  <circle cx="718.7261146496816" cy="40.0" class="point"/>
  <text x="718.7261146496816" y="375" class="label" text-anchor="middle">2026-04-08</text>
  <text x="718.7261146496816" y="35.0" class="label" text-anchor="middle">52</text>
  <circle cx="723.312101910828" cy="40.0" class="point"/>
  <text x="723.312101910828" y="375" class="label" text-anchor="middle">2026-04-09</text>
  <text x="723.312101910828" y="35.0" class="label" text-anchor="middle">52</text>
  <circle cx="727.8980891719746" cy="40.0" class="point"/>
  <text x="727.8980891719746" y="375" class="label" text-anchor="middle">2026-04-10</text>
  <text x="727.8980891719746" y="35.0" class="label" text-anchor="middle">52</text>
  <circle cx="732.484076433121" cy="40.0" class="point"/>
  <text x="732.484076433121" y="375" class="label" text-anchor="middle">2026-04-11</text>
  <text x="732.484076433121" y="35.0" class="label" text-anchor="middle">52</text>
  <circle cx="737.0700636942676" cy="40.0" class="point"/>
  <text x="737.0700636942676" y="375" class="label" text-anchor="middle">2026-04-12</text>
  <text x="737.0700636942676" y="35.0" class="label" text-anchor="middle">52</text>
  <circle cx="741.656050955414" cy="40.0" class="point"/>
  <text x="741.656050955414" y="375" class="label" text-anchor="middle">2026-04-13</text>
  <text x="741.656050955414" y="35.0" class="label" text-anchor="middle">52</text>
  <circle cx="746.2420382165606" cy="40.0" class="point"/>
  <text x="746.2420382165606" y="375" class="label" text-anchor="middle">2026-04-14</text>
  <text x="746.2420382165606" y="35.0" class="label" text-anchor="middle">52</text>
  <circle cx="750.828025477707" cy="40.0" class="point"/>
  <text x="750.828025477707" y="375" class="label" text-anchor="middle">2026-04-15</text>
  <text x="750.828025477707" y="35.0" class="label" text-anchor="middle">52</text>
  <circle cx="755.4140127388536" cy="40.0" class="point"/>
  <text x="755.4140127388536" y="375" class="label" text-anchor="middle">2026-04-16</text>
  <text x="755.4140127388536" y="35.0" class="label" text-anchor="middle">52</text>
  <circle cx="760.0" cy="40.0" class="point"/>
  <text x="760.0" y="375" class="label" text-anchor="middle">2026-04-17</text>
  <text x="760.0" y="35.0" class="label" text-anchor="middle">52</text>
  <text x="30" y="363.0" class="label" text-anchor="end">0</text>
  <text x="30" y="301.46153846153845" class="label" text-anchor="end">10</text>
  <text x="30" y="239.9230769230769" class="label" text-anchor="end">20</text>
  <text x="30" y="178.38461538461542" class="label" text-anchor="end">30</text>
  <text x="30" y="116.84615384615384" class="label" text-anchor="end">40</text>
  <text x="30" y="55.30769230769232" class="label" text-anchor="end">50</text>
</svg>