<svg xmlns="http://www.w3.org/2000/svg" width="800" height="400" viewBox="0 0 800 400">
  <style>
    .axis{stroke:#666;stroke-width:1}
    .line{stroke:#4a9;stroke-width:2;fill:none}
    .point{fill:#4a9;r:4}
    .label{font:10px sans-serif;fill:#aaa}
    .title{font:14px sans-serif;fill:#333}
  </style>
  <text x="400" y="20" class="title" text-anchor="middle">OPIC Field Growth Timeline</text>
  <line x1="40" y1="40" x2="40" y2="360" class="axis"/>
  <line x1="40" y1="360" x2="760" y2="360" class="axis"/>
  <path d="M 40.0,101.53846153846155 L 46.3716814159292,101.53846153846155 L 52.743362831858406,101.53846153846155 L 59.11504424778761,101.53846153846155 L 65.48672566371681,101.53846153846155 L 71.85840707964601,101.53846153846155 L 78.23008849557522,101.53846153846155 L 84.60176991150442,101.53846153846155 L 90.97345132743362,101.53846153846155 L 97.34513274336283,101.53846153846155 L 103.71681415929203,101.53846153846155 L 110.08849557522124,101.53846153846155 L 116.46017699115045,101.53846153846155 L 122.83185840707965,101.53846153846155 L 129.20353982300884,101.53846153846155 L 135.57522123893807,101.53846153846155 L 141.94690265486724,101.53846153846155 L 148.31858407079648,101.53846153846155 L 154.69026548672565,101.53846153846155 L 161.06194690265488,101.53846153846155 L 167.43362831858406,101.53846153846155 L 173.8053097345133,101.53846153846155 L 180.1769911504425,101.53846153846155 L 186.5486725663717,101.53846153846155 L 192.9203539823009,101.53846153846155 L 199.2920353982301,101.53846153846155 L 205.6637168141593,101.53846153846155 L 212.0353982300885,40.0 L 218.4070796460177,40.0 L 224.7787610619469,40.0 L 231.1504424778761,40.0 L 237.5221238938053,40.0 L 243.89380530973452,40.0 L 250.26548672566372,40.0 L 256.63716814159295,40.0 L 263.0088495575221,40.0 L 269.3805309734513,40.0 L 275.75221238938053,40.0 L 282.12389380530976,40.0 L 288.49557522123894,40.0 L 294.8672566371681,40.0 L 301.23893805309734,40.0 L 307.6106194690266,40.0 L 313.98230088495575,40.0 L 320.353982300885,40.0 L 326.72566371681415,40.0 L 333.0973451327434,40.0 L 339.46902654867256,40.0 L 345.8407079646018,40.0 L 352.21238938053096,40.0 L 358.5840707964602,40.0 L 364.95575221238937,40.0 L 371.3274336283186,40.0 L 377.6991150442478,40.0 L 384.070796460177,40.0 L 390.4424778761062,40.0 L 396.8141592920354,40.0 L 403.1858407079646,40.0 L 409.5575221238938,40.0 L 415.92920353982305,40.0 L 422.3008849557522,40.0 L 428.6725663716814,40.0 L 435.0442477876106,40.0 L 441.4159292035398,40.0 L 447.78761061946904,40.0 L 454.1592920353982,40.0 L 460.53097345132744,40.0 L 466.9026548672567,40.0 L 473.2743362831859,40.0 L 479.646017699115,40.0 L 486.0176991150442,40.0 L 492.3893805309734,40.0 L 498.76106194690266,40.0 L 505.1327433628319,40.0 L 511.50442477876106,40.0 L 517.8761061946902,40.0 L 524.2477876106195,40.0 L 530.6194690265486,40.0 L 536.9911504424779,40.0 L 543.362831858407,40.0 L 549.7345132743362,40.0 L 556.1061946902655,40.0 L 562.4778761061947,40.0 L 568.8495575221239,40.0 L 575.2212389380531,40.0 L 581.5929203539822,40.0 L 587.9646017699115,40.0 L 594.3362831858407,40.0 L 600.70796460177,40.0 L 607.0796460176991,40.0 L 613.4513274336283,40.0 L 619.8230088495576,40.0 L 626.1946902654868,40.0 L 632.566371681416,40.0 L 638.9380530973451,40.0 L 645.3097345132743,40.0 L 651.6814159292036,40.0 L 658.0530973451328,40.0 L 664.4247787610619,40.0 L 670.7964601769912,40.0 L 677.1681415929204,40.0 L 683.5398230088496,40.0 L 689.9115044247787,40.0 L 696.2831858407079,40.0 L 702.6548672566372,40.0 L 709.0265486725664,40.0 L 715.3982300884956,40.0 L 721.7699115044248,40.0 L 728.141592920354,40.0 L 734.5132743362832,40.0 L 740.8849557522124,40.0 L 747.2566371681415,40.0 L 753.6283185840708,40.0 L 760.0,40.0" class="line"/>
  <circle cx="40.0" cy="101.53846153846155" class="point"/>
  <text x="40.0" y="375" class="label" text-anchor="middle">2025-11-11</text>
  <text x="40.0" y="96.53846153846155" class="label" text-anchor="middle">42</text>
  <circle cx="46.3716814159292" cy="101.53846153846155" class="point"/>
  <text x="46.3716814159292" y="375" class="label" text-anchor="middle">2025-11-12</text>
  <text x="46.3716814159292" y="96.53846153846155" class="label" text-anchor="middle">42</text>
  <circle cx="52.743362831858406" cy="101.53846153846155" class="point"/>
  <text x="52.743362831858406" y="375" class="label" text-anchor="middle">2025-11-13</text>
  <text x="52.743362831858406" y="96.53846153846155" class="label" text-anchor="middle">42</text>
  <circle cx="59.11504424778761" cy="101.53846153846155" class="point"/>
  <text x="59.11504424778761" y="375" class="label" text-anchor="middle">2025-11-14</text>
  <text x="59.11504424778761" y="96.53846153846155" class="label" text-anchor="middle">42</text>
  <circle cx="65.48672566371681" cy="101.53846153846155" class="point"/>
  <text x="65.48672566371681" y="375" class="label" text-anchor="middle">2025-11-15</text>
  <text x="65.48672566371681" y="96.53846153846155" class="label" text-anchor="middle">42</text>
  <circle cx="71.85840707964601" cy="101.53846153846155" class="point"/>
  <text x="71.85840707964601" y="375" class="label" text-anchor="middle">2025-11-16</text>
  <text x="71.85840707964601" y="96.53846153846155" class="label" text-anchor="middle">42</text>
  <circle cx="78.23008849557522" cy="101.53846153846155" class="point"/>
  <text x="78.23008849557522" y="375" class="label" text-anchor="middle">2025-11-17</text>
  <text x="78.23008849557522" y="96.53846153846155" class="label" text-anchor="middle">42</text>
  <circle cx="84.60176991150442" cy="101.53846153846155" class="point"/>
  <text x="84.60176991150442" y="375" class="label" text-anchor="middle">2025-11-18</text>
  <text x="84.60176991150442" y="96.53846153846155" class="label" text-anchor="middle">42</text>
  <circle cx="90.97345132743362" cy="101.53846153846155" class="point"/>
  <text x="90.97345132743362" y="375" class="label" text-anchor="middle">2025-11-19</text>
  <text x="90.97345132743362" y="96.53846153846155" class="label" text-anchor="middle">42</text>
  <circle cx="97.34513274336283" cy="101.53846153846155" class="point"/>
  <text x="97.34513274336283" y="375" class="label" text-anchor="middle">2025-11-20</text>
  <text x="97.34513274336283" y="96.53846153846155" class="label" text-anchor="middle">42</text>
  <circle cx="103.71681415929203" cy="101.53846153846155" class="point"/>
  <text x="103.71681415929203" y="375" class="label" text-anchor="middle">2025-11-21</text>
  <text x="103.71681415929203" y="96.53846153846155" class="label" text-anchor="middle">42</text>
  <circle cx="110.08849557522124" cy="101.53846153846155" class="point"/>
  <text x="110.08849557522124" y="375" class="label" text-anchor="middle">2025-11-22</text>
  <text x="110.08849557522124" y="96.53846153846155" class="label" text-anchor="middle">42</text>
  <circle cx="116.46017699115045" cy="101.53846153846155" class="point"/>
  <text x="116.46017699115045" y="375" class="label" text-anchor="middle">2025-11-23</text>
  <text x="116.46017699115045" y="96.53846153846155" class="label" text-anchor="middle">42</text>
  <circle cx="122.83185840707965" cy="101.53846153846155" class="point"/>
  <text x="122.83185840707965" y="375" class="label" text-anchor="middle">2025-11-24</text>
  <text x="122.83185840707965" y="96.53846153846155" class="label" text-anchor="middle">42</text>
  <circle cx="129.20353982300884" cy="101.53846153846155" class="point"/>
  <text x="129.20353982300884" y="375" class="label" text-anchor="middle">2025-11-25</text>
  <text x="129.20353982300884" y="96.53846153846155" class="label" text-anchor="middle">42</text>
  <circle cx="135.57522123893807" cy="101.53846153846155" class="point"/>
  <text x="135.57522123893807" y="375" class="label" text-anchor="middle">2025-11-26</text>
  <text x="135.57522123893807" y="96.53846153846155" class="label" text-anchor="middle">42</text>
  <circle cx="141.94690265486724" cy="101.53846153846155" class="point"/>
  <text x="141.94690265486724" y="375" class="label" text-anchor="middle">2025-11-27</text>
  <text x="141.94690265486724" y="96.53846153846155" class="label" text-anchor="middle">42</text>
  <circle cx="148.31858407079648" cy="101.53846153846155" class="point"/>
  <text x="148.31858407079648" y="375" class="label" text-anchor="middle">2025-11-28</text>
  <text x="148.31858407079648" y="96.53846153846155" class="label" text-anchor="middle">42</text>
  <circle cx="154.69026548672565" cy="101.53846153846155" class="point"/>
  <text x="154.69026548672565" y="375" class="label" text-anchor="middle">2025-11-29</text>
  <text x="154.69026548672565" y="96.53846153846155" class="label" text-anchor="middle">42</text>
  <circle cx="161.06194690265488" cy="101.53846153846155" class="point"/>
  <text x="161.06194690265488" y="375" class="label" text-anchor="middle">2025-11-30</text>
  <text x="161.06194690265488" y="96.53846153846155" class="label" text-anchor="middle">42</text>
  <circle cx="167.43362831858406" cy="101.53846153846155" class="point"/>
  <text x="167.43362831858406" y="375" class="label" text-anchor="middle">2025-12-01</text>
  <text x="167.43362831858406" y="96.53846153846155" class="label" text-anchor="middle">42</text>
  <circle cx="173.8053097345133" cy="101.53846153846155" class="point"/>
  <text x="173.8053097345133" y="375" class="label" text-anchor="middle">2025-12-02</text>
  <text x="173.8053097345133" y="96.53846153846155" class="label" text-anchor="middle">42</text>
  <circle cx="180.1769911504425" cy="101.53846153846155" class="point"/>
  <text x="180.1769911504425" y="375" class="label" text-anchor="middle">2025-12-03</text>
  <text x="180.1769911504425" y="96.53846153846155" class="label" text-anchor="middle">42</text>
  <circle cx="186.5486725663717" cy="101.53846153846155" class="point"/>
  <text x="186.5486725663717" y="375" class="label" text-anchor="middle">2025-12-04</text>
  <text x="186.5486725663717" y="96.53846153846155" class="label" text-anchor="middle">42</text>
  <circle cx="192.9203539823009" cy="101.53846153846155" class="point"/>
  <text x="192.9203539823009" y="375" class="label" text-anchor="middle">2025-12-05</text>
  <text x="192.9203539823009" y="96.53846153846155" class="label" text-anchor="middle">42</text>
  <circle cx="199.2920353982301" cy="101.53846153846155" class="point"/>
  <text x="199.2920353982301" y="375" class="label" text-anchor="middle">2025-12-06</text>
  <text x="199.2920353982301" y="96.53846153846155" class="label" text-anchor="middle">42</text>
  <circle cx="205.6637168141593" cy="101.53846153846155" class="point"/>
  <text x="205.6637168141593" y="375" class="label" text-anchor="middle">2025-12-07</text>
  <text x="205.6637168141593" y="96.53846153846155" class="label" text-anchor="middle">42</text>
  <circle cx="212.0353982300885" cy="40.0" class="point"/>
  <text x="212.0353982300885" y="375" class="label" text-anchor="middle">2025-12-08</text>
  <text x="212.0353982300885" y="35.0" class="label" text-anchor="middle">52</text>
  <circle cx="218.4070796460177" cy="40.0" class="point"/>
  <text x="218.4070796460177" y="375" class="label" text-anchor="middle">2025-12-09</text>
  <text x="218.4070796460177" y="35.0" class="label" text-anchor="middle">52</text>
  <circle cx="224.7787610619469" cy="40.0" class="point"/>
  <text x="224.7787610619469" y="375" class="label" text-anchor="middle">2025-12-10</text>
  <text x="224.7787610619469" y="35.0" class="label" text-anchor="middle">52</text>
  <circle cx="231.1504424778761" cy="40.0" class="point"/>
  <text x="231.1504424778761" y="375" class="label" text-anchor="middle">2025-12-11</text>
  <text x="231.1504424778761" y="35.0" class="label" text-anchor="middle">52</text>
  <circle cx="237.5221238938053" cy="40.0" class="point"/>
  <text x="237.5221238938053" y="375" class="label" text-anchor="middle">2025-12-12</text>
  <text x="237.5221238938053" y="35.0" class="label" text-anchor="middle">52</text>
  <circle cx="243.89380530973452" cy="40.0" class="point"/>
  <text x="243.89380530973452" y="375" class="label" text-anchor="middle">2025-12-13</text>
  <text x="243.89380530973452" y="35.0" class="label" text-anchor="middle">52</text>
  <circle cx="250.26548672566372" cy="40.0" class="point"/>
  <text x="250.26548672566372" y="375" class="label" text-anchor="middle">2025-12-14</text>
  <text x="250.26548672566372" y="35.0" class="label" text-anchor="middle">52</text>
  <circle cx="256.63716814159295" cy="40.0" class="point"/>
  <text x="256.63716814159295" y="375" class="label" text-anchor="middle">2025-12-15</text>
  <text x="256.63716814159295" y="35.0" class="label" text-anchor="middle">52</text>
  <circle cx="263.0088495575221" cy="40.0" class="point"/>
  <text x="263.0088495575221" y="375" class="label" text-anchor="middle">2025-12-16</text>
  <text x="263.0088495575221" y="35.0" class="label" text-anchor="middle">52</text>
  <circle cx="269.3805309734513" cy="40.0" class="point"/>
  <text x="269.3805309734513" y="375" class="label" text-anchor="middle">2025-12-17</text>
  <text x="269.3805309734513" y="35.0" class="label" text-anchor="middle">52</text>
  <circle cx="275.75221238938053" cy="40.0" class="point"/>
  <text x="275.75221238938053" y="375" class="label" text-anchor="middle">2025-12-18</text>
  <text x="275.75221238938053" y="35.0" class="label" text-anchor="middle">52</text>
  <circle cx="282.12389380530976" cy="40.0" class="point"/>
  <text x="282.12389380530976" y="375" class="label" text-anchor="middle">2025-12-19</text>
  <text x="282.12389380530976" y="35.0" class="label" text-anchor="middle">52</text>
  <circle cx="288.49557522123894" cy="40.0" class="point"/>
  <text x="288.49557522123894" y="375" class="label" text-anchor="middle">2025-12-20</text>
  <text x="288.49557522123894" y="35.0" class="label" text-anchor="middle">52</text>
  <circle cx="294.8672566371681" cy="40.0" class="point"/>
  <text x="294.8672566371681" y="375" class="label" text-anchor="middle">2025-12-21</text>
  <text x="294.8672566371681" y="35.0" class="label" text-anchor="middle">52</text>
  <circle cx="301.23893805309734" cy="40.0" class="point"/>
  <text x="301.23893805309734" y="375" class="label" text-anchor="middle">2025-12-22</text>
  <text x="301.23893805309734" y="35.0" class="label" text-anchor="middle">52</text>
  <circle cx="307.6106194690266" cy="40.0" class="point"/>
  <text x="307.6106194690266" y="375" class="label" text-anchor="middle">2025-12-23</text>
  <text x="307.6106194690266" y="35.0" class="label" text-anchor="middle">52</text>
  <circle cx="313.98230088495575" cy="40.0" class="point"/>
  <text x="313.98230088495575" y="375" class="label" text-anchor="middle">2025-12-24</text>
  <text x="313.98230088495575" y="35.0" class="label" text-anchor="middle">52</text>
  <circle cx="320.353982300885" cy="40.0" class="point"/>
  <text x="320.353982300885" y="375" class="label" text-anchor="middle">2025-12-25</text>
  <text x="320.353982300885" y="35.0" class="label" text-anchor="middle">52</text>
  <circle cx="326.72566371681415" cy="40.0" class="point"/>
  <text x="326.72566371681415" y="375" class="label" text-anchor="middle">2025-12-26</text>
  <text x="326.72566371681415" y="35.0" class="label" text-anchor="middle">52</text>
  <circle cx="333.0973451327434" cy="40.0" class="point"/>
  <text x="333.0973451327434" y="375" class="label" text-anchor="middle">2025-12-27</text>
  <text x="333.0973451327434" y="35.0" class="label" text-anchor="middle">52</text>
  <circle cx="339.46902654867256" cy="40.0" class="point"/>
  <text x="339.46902654867256" y="375" class="label" text-anchor="middle">2025-12-28</text>
  <text x="339.46902654867256" y="35.0" class="label" text-anchor="middle">52</text>
  <circle cx="345.8407079646018" cy="40.0" class="point"/>
  <text x="345.8407079646018" y="375" class="label" text-anchor="middle">2025-12-29</text>
  <text x="345.8407079646018" y="35.0" class="label" text-anchor="middle">52</text>
  <circle cx="352.21238938053096" cy="40.0" class="point"/>
  <text x="352.21238938053096" y="375" class="label" text-anchor="middle">2025-12-30</text>
  <text x="352.21238938053096" y="35.0" class="label" text-anchor="middle">52</text>
  <circle cx="358.5840707964602" cy="40.0" class="point"/>
  <text x="358.5840707964602" y="375" class="label" text-anchor="middle">2025-12-31</text>
  <text x="358.5840707964602" y="35.0" class="label" text-anchor="middle">52</text>
  <circle cx="364.95575221238937" cy="40.0" class="point"/>
  <text x="364.95575221238937" y="375" class="label" text-anchor="middle">2026-01-01</text>
  <text x="364.95575221238937" y="35.0" class="label" text-anchor="middle">52</text>
  <circle cx="371.3274336283186" cy="40.0" class="point"/>
  <text x="371.3274336283186" y="375" class="label" text-anchor="middle">2026-01-02</text>
  <text x="371.3274336283186" y="35.0" class="label" text-anchor="middle">52</text>
  <circle cx="377.6991150442478" cy="40.0" class="point"/>
  <text x="377.6991150442478" y="375" class="label" text-anchor="middle">2026-01-03</text>
  <text x="377.6991150442478" y="35.0" class="label" text-anchor="middle">52</text>
  <circle cx="384.070796460177" cy="40.0" class="point"/>
  <text x="384.070796460177" y="375" class="label" text-anchor="middle">2026-01-04</text>
  <text x="384.070796460177" y="35.0" class="label" text-anchor="middle">52</text>
  <circle cx="390.4424778761062" cy="40.0" class="point"/>
  <text x="390.4424778761062" y="375" class="label" text-anchor="middle">2026-01-05</text>
  <text x="390.4424778761062" y="35.0" class="label" text-anchor="middle">52</text>
  <circle cx="396.8141592920354" cy="40.0" class="point"/>
  <text x="396.8141592920354" y="375" class="label" text-anchor="middle">2026-01-06</text>
  <text x="396.8141592920354" y="35.0" class="label" text-anchor="middle">52</text>
  <circle cx="403.1858407079646" cy="40.0" class="point"/>
  <text x="403.1858407079646" y="375" class="label" text-anchor="middle">2026-01-07</text>
  <text x="403.1858407079646" y="35.0" class="label" text-anchor="middle">52</text>
  <circle cx="409.5575221238938" cy="40.0" class="point"/>
  <text x="409.5575221238938" y="375" class="label" text-anchor="middle">2026-01-08</text>
  <text x="409.5575221238938" y="35.0" class="label" text-anchor="middle">52</text>
  <circle cx="415.92920353982305" cy="40.0" class="point"/>
  <text x="415.92920353982305" y="375" class="label" text-anchor="middle">2026-01-09</text>
  <text x="415.92920353982305" y="35.0" class="label" text-anchor="middle">52</text>
  <circle cx="422.3008849557522" cy="40.0" class="point"/>
  <text x="422.3008849557522" y="375" class="label" text-anchor="middle">2026-01-10</text>
  <text x="422.3008849557522" y="35.0" class="label" text-anchor="middle">52</text>
  <circle cx="428.6725663716814" cy="40.0" class="point"/>
  <text x="428.6725663716814" y="375" class="label" text-anchor="middle">2026-01-11</text>
  <text x="428.6725663716814" y="35.0" class="label" text-anchor="middle">52</text>
  <circle cx="435.0442477876106" cy="40.0" class="point"/>
  <text x="435.0442477876106" y="375" class="label" text-anchor="middle">2026-01-12</text>
  <text x="435.0442477876106" y="35.0" class="label" text-anchor="middle">52</text>
  <circle cx="441.4159292035398" cy="40.0" class="point"/>
  <text x="441.4159292035398" y="375" class="label" text-anchor="middle">2026-01-13</text>
  <text x="441.4159292035398" y="35.0" class="label" text-anchor="middle">52</text>
  <circle cx="447.78761061946904" cy="40.0" class="point"/>
  <text x="447.78761061946904" y="375" class="label" text-anchor="middle">2026-01-14</text>
  <text x="447.78761061946904" y="35.0" class="label" text-anchor="middle">52</text>
  <circle cx="454.1592920353982" cy="40.0" class="point"/>
  <text x="454.1592920353982" y="375" class="label" text-anchor="middle">2026-01-15</text>
  <text x="454.1592920353982" y="35.0" class="label" text-anchor="middle">52</text>
  <circle cx="460.53097345132744" cy="40.0" class="point"/>
  <text x="460.53097345132744" y="375" class="label" text-anchor="middle">2026-01-16</text>
  <text x="460.53097345132744" y="35.0" class="label" text-anchor="middle">52</text>
  <circle cx="466.9026548672567" cy="40.0" class="point"/>
  <text x="466.9026548672567" y="375" class="label" text-anchor="middle">2026-01-17</text>
  <text x="466.9026548672567" y="35.0" class="label" text-anchor="middle">52</text>
  <circle cx="473.2743362831859" cy="40.0" class="point"/>
  <text x="473.2743362831859" y="375" class="label" text-anchor="middle">2026-01-18</text>
  <text x="473.2743362831859" y="35.0" class="label" text-anchor="middle">52</text>
  <circle cx="479.646017699115" cy="40.0" class="point"/>
  <text x="479.646017699115" y="375" class="label" text-anchor="middle">2026-01-19</text>
  <text x="479.646017699115" y="35.0" class="label" text-anchor="middle">52</text>
  <circle cx="486.0176991150442" cy="40.0" class="point"/>
  <text x="486.0176991150442" y="375" class="label" text-anchor="middle">2026-01-20</text>
  <text x="486.0176991150442" y="35.0" class="label" text-anchor="middle">52</text>
  <circle cx="492.3893805309734" cy="40.0" class="point"/>
  <text x="492.3893805309734" y="375" class="label" text-anchor="middle">2026-01-21</text>
  <text x="492.3893805309734" y="35.0" class="label" text-anchor="middle">52</text>
  <circle cx="498.76106194690266" cy="40.0" class="point"/>
  <text x="498.76106194690266" y="375" class="label" text-anchor="middle">2026-01-22</text>
  <text x="498.76106194690266" y="35.0" class="label" text-anchor="middle">52</text>
  <circle cx="505.1327433628319" cy="40.0" class="point"/>
  <text x="505.1327433628319" y="375" class="label" text-anchor="middle">2026-01-23</text>
  <text x="505.1327433628319" y="35.0" class="label" text-anchor="middle">52</text>
  <circle cx="511.50442477876106" cy="40.0" class="point"/>
  <text x="511.50442477876106" y="375" class="label" text-anchor="middle">2026-01-24</text>
  <text x="511.50442477876106" y="35.0" class="label" text-anchor="middle">52</text>
  <circle cx="517.8761061946902" cy="40.0" class="point"/>
  <text x="517.8761061946902" y="375" class="label" text-anchor="middle">2026-01-25</text>
  <text x="517.8761061946902" y="35.0" class="label" text-anchor="middle">52</text>
  <circle cx="524.2477876106195" cy="40.0" class="point"/>
  <text x="524.2477876106195" y="375" class="label" text-anchor="middle">2026-01-26</text>
  <text x="524.2477876106195" y="35.0" class="label" text-anchor="middle">52</text>
  <circle cx="530.6194690265486" cy="40.0" class="point"/>
  <text x="530.6194690265486" y="375" class="label" text-anchor="middle">2026-01-27</text>
  <text x="530.6194690265486" y="35.0" class="label" text-anchor="middle">52</text>
  <circle cx="536.9911504424779" cy="40.0" class="point"/>
  <text x="536.9911504424779" y="375" class="label" text-anchor="middle">2026-01-28</text>
  <text x="536.9911504424779" y="35.0" class="label" text-anchor="middle">52</text>
  <circle cx="543.362831858407" cy="40.0" class="point"/>
  <text x="543.362831858407" y="375" class="label" text-anchor="middle">2026-01-29</text>
  <text x="543.362831858407" y="35.0" class="label" text-anchor="middle">52</text>
  <circle cx="549.7345132743362" cy="40.0" class="point"/>
  <text x="549.7345132743362" y="375" class="label" text-anchor="middle">2026-01-30</text>
  <text x="549.7345132743362" y="35.0" class="label" text-anchor="middle">52</text>
  <circle cx="556.1061946902655" cy="40.0" class="point"/>
  <text x="556.1061946902655" y="375" class="label" text-anchor="middle">2026-01-31</text>
  <text x="556.1061946902655" y="35.0" class="label" text-anchor="middle">52</text>
  <circle cx="562.4778761061947" cy="40.0" class="point"/>
  <text x="562.4778761061947" y="375" class="label" text-anchor="middle">2026-02-01</text>
  <text x="562.4778761061947" y="35.0" class="label" text-anchor="middle">52</text>
  <circle cx="568.8495575221239" cy="40.0" class="point"/>
  <text x="568.8495575221239" y="375" class="label" text-anchor="middle">2026-02-02</text>
  <text x="568.8495575221239" y="35.0" class="label" text-anchor="middle">52</text>
  <circle cx="575.2212389380531" cy="40.0" class="point"/>
  <text x="575.2212389380531" y="375" class="label" text-anchor="middle">2026-02-03</text>
  <text x="575.2212389380531" y="35.0" class="label" text-anchor="middle">52</text>
  <circle cx="581.5929203539822" cy="40.0" class="point"/>
  <text x="581.5929203539822" y="375" class="label" text-anchor="middle">2026-02-04</text>
  <text x="581.5929203539822" y="35.0" class="label" text-anchor="middle">52</text>
  <circle cx="587.9646017699115" cy="40.0" class="point"/>
  <text x="587.9646017699115" y="375" class="label" text-anchor="middle">2026-02-05</text>
  <text x="587.9646017699115" y="35.0" class="label" text-anchor="middle">52</text>
  <circle cx="594.3362831858407" cy="40.0" class="point"/>
  <text x="594.3362831858407" y="375" class="label" text-anchor="middle">2026-02-06</text>
  <text x="594.3362831858407" y="35.0" class="label" text-anchor="middle">52</text>
  <circle cx="600.70796460177" cy="40.0" class="point"/>
  <text x="600.70796460177" y="375" class="label" text-anchor="middle">2026-02-07</text>
  <text x="600.70796460177" y="35.0" class="label" text-anchor="middle">52</text>
  <circle cx="607.0796460176991" cy="40.0" class="point"/>
  <text x="607.0796460176991" y="375" class="label" text-anchor="middle">2026-02-08</text>
  <text x="607.0796460176991" y="35.0" class="label" text-anchor="middle">52</text>
  <circle cx="613.4513274336283" cy="40.0" class="point"/>
  <text x="613.4513274336283" y="375" class="label" text-anchor="middle">2026-02-09</text>
  <text x="613.4513274336283" y="35.0" class="label" text-anchor="middle">52</text>
  <circle cx="619.8230088495576" cy="40.0" class="point"/>
  <text x="619.8230088495576" y="375" class="label" text-anchor="middle">2026-02-10</text>
  <text x="619.8230088495576" y="35.0" class="label" text-anchor="middle">52</text>
  <circle cx="626.1946902654868" cy="40.0" class="point"/>
  <text x="626.1946902654868" y="375" class="label" text-anchor="middle">2026-02-11</text>
  <text x="626.1946902654868" y="35.0" class="label" text-anchor="middle">52</text>
  <circle cx="632.566371681416" cy="40.0" class="point"/>
  <text x="632.566371681416" y="375" class="label" text-anchor="middle">2026-02-12</text>
  <text x="632.566371681416" y="35.0" class="label" text-anchor="middle">52</text>
  <circle cx="638.9380530973451" cy="40.0" class="point"/>
  <text x="638.9380530973451" y="375" class="label" text-anchor="middle">2026-02-13</text>
  <text x="638.9380530973451" y="35.0" class="label" text-anchor="middle">52</text>
  <circle cx="645.3097345132743" cy="40.0" class="point"/>
  <text x="645.3097345132743" y="375" class="label" text-anchor="middle">2026-02-14</text>
  <text x="645.3097345132743" y="35.0" class="label" text-anchor="middle">52</text>
  <circle cx="651.6814159292036" cy="40.0" class="point"/>
  <text x="651.6814159292036" y="375" class="label" text-anchor="middle">2026-02-15</text>
  <text x="651.6814159292036" y="35.0" class="label" text-anchor="middle">52</text>
  <circle cx="658.0530973451328" cy="40.0" class="point"/>
  <text x="658.0530973451328" y="375" class="label" text-anchor="middle">2026-02-16</text>
  <text x="658.0530973451328" y="35.0" class="label" text-anchor="middle">52</text>
  <circle cx="664.4247787610619" cy="40.0" class="point"/>
  <text x="664.4247787610619" y="375" class="label" text-anchor="middle">2026-02-17</text>
  <text x="664.4247787610619" y="35.0" class="label" text-anchor="middle">52</text>
  <circle cx="670.7964601769912" cy="40.0" class="point"/>
  <text x="670.7964601769912" y="375" class="label" text-anchor="middle">2026-02-18</text>
  <text x="670.7964601769912" y="35.0" class="label" text-anchor="middle">52</text>
  <circle cx="677.1681415929204" cy="40.0" class="point"/>
  <text x="677.1681415929204" y="375" class="label" text-anchor="middle">2026-02-19</text>
  <text x="677.1681415929204" y="35.0" class="label" text-anchor="middle">52</text>
  <circle cx="683.5398230088496" cy="40.0" class="point"/>
  <text x="683.5398230088496" y="375" class="label" text-anchor="middle">2026-02-20</text>
  <text x="683.5398230088496" y="35.0" class="label" text-anchor="middle">52</text>
  <circle cx="689.9115044247787" cy="40.0" class="point"/>
  <text x="689.9115044247787" y="375" class="label" text-anchor="middle">2026-02-21</text>
  <text x="689.9115044247787" y="35.0" class="label" text-anchor="middle">52</text>
  <circle cx="696.2831858407079" cy="40.0" class="point"/>
  <text x="696.2831858407079" y="375" class="label" text-anchor="middle">2026-02-22</text>
  <text x="696.2831858407079" y="35.0" class="label" text-anchor="middle">52</text>
  <circle cx="702.6548672566372" cy="40.0" class="point"/>
  <text x="702.6548672566372" y="375" class="label" text-anchor="middle">2026-02-23</text>
  <text x="702.6548672566372" y="35.0" class="label" text-anchor="middle">52</text>
  <circle cx="709.0265486725664" cy="40.0" class="point"/>
  <text x="709.0265486725664" y="375" class="label" text-anchor="middle">2026-02-24</text>
  <text x="709.0265486725664" y="35.0" class="label" text-anchor="middle">52</text>
  <circle cx="715.3982300884956" cy="40.0" class="point"/>
  <text x="715.3982300884956" y="375" class="label" text-anchor="middle">2026-02-25</text>
  <text x="715.3982300884956" y="35.0" class="label" text-anchor="middle">52</text>
  <circle cx="721.7699115044248" cy="40.0" class="point"/>
  <text x="721.7699115044248" y="375" class="label" text-anchor="middle">2026-02-26</text>
  <text x="721.7699115044248" y="35.0" class="label" text-anchor="middle">52</text>
  <circle cx="728.141592920354" cy="40.0" class="point"/>
  <text x="728.141592920354" y="375" class="label" text-anchor="middle">2026-02-27</text>
  <text x="728.141592920354" y="35.0" class="label" text-anchor="middle">52</text>
  <circle cx="734.5132743362832" cy="40.0" class="point"/>
  <text x="734.5132743362832" y="375" class="label" text-anchor="middle">2026-02-28</text>
  <text x="734.5132743362832" y="35.0" class="label" text-anchor="middle">52</text>
  <circle cx="740.8849557522124" cy="40.0" class="point"/>
  <text x="740.8849557522124" y="375" class="label" text-anchor="middle">2026-03-01</text>
  <text x="740.8849557522124" y="35.0" class="label" text-anchor="middle">52</text>
  <circle cx="747.2566371681415" cy="40.0" class="point"/>
  <text x="747.2566371681415" y="375" class="label" text-anchor="middle">2026-03-02</text>
  <text x="747.2566371681415" y="35.0" class="label" text-anchor="middle">52</text>
  <circle cx="753.6283185840708" cy="40.0" class="point"/>
  <text x="753.6283185840708" y="375" class="label" text-anchor="middle">2026-03-03</text>
  <text x="753.6283185840708" y="35.0" class="label" text-anchor="middle">52</text>
  <circle cx="760.0" cy="40.0" class="point"/>
  <text x="760.0" y="375" class="label" text-anchor="middle">2026-03-04</text>
  <text x="760.0" y="35.0" class="label" text-anchor="middle">52</text>
  <text x="30" y="363.0" class="label" text-anchor="end">0</text>
  <text x="30" y="301.46153846153845" class="label" text-anchor="end">10</text>
  <text x="30" y="239.9230769230769" class="label" text-anchor="end">20</text>
  <text x="30" y="178.38461538461542" class="label" text-anchor="end">30</text>
  <text x="30" y="116.84615384615384" class="label" text-anchor="end">40</text>
  <text x="30" y="55.30769230769232" class="label" text-anchor="end">50</text>
</svg>