<svg xmlns="http://www.w3.org/2000/svg" width="800" height="400" viewBox="0 0 800 400">
  <style>
    .axis{stroke:#666;stroke-width:1}
    .line{stroke:#4a9;stroke-width:2;fill:none}
    .point{fill:#4a9;r:4}
    .label{font:10px sans-serif;fill:#aaa}
    .title{font:14px sans-serif;fill:#333}
  </style>
  <text x="400" y="20" class="title" text-anchor="middle">OPIC Field Growth Timeline</text>
  <line x1="40" y1="40" x2="40" y2="360" class="axis"/>
  <line x1="40" y1="360" x2="760" y2="360" class="axis"/>
  <path d="M 40.0,101.53846153846155 L 66.66666666666666,101.53846153846155 L 93.33333333333333,101.53846153846155 L 120.0,101.53846153846155 L 146.66666666666666,101.53846153846155 L 173.33333333333331,101.53846153846155 L 200.0,101.53846153846155 L 226.66666666666666,101.53846153846155 L 253.33333333333331,101.53846153846155 L 280.0,101.53846153846155 L 306.66666666666663,101.53846153846155 L 333.3333333333333,101.53846153846155 L 360.0,101.53846153846155 L 386.66666666666663,101.53846153846155 L 413.3333333333333,101.53846153846155 L 440.0,101.53846153846155 L 466.66666666666663,101.53846153846155 L 493.33333333333337,101.53846153846155 L 520.0,101.53846153846155 L 546.6666666666667,101.53846153846155 L 573.3333333333333,101.53846153846155 L 600.0,101.53846153846155 L 626.6666666666666,101.53846153846155 L 653.3333333333334,101.53846153846155 L 680.0,101.53846153846155 L 706.6666666666666,101.53846153846155 L 733.3333333333333,101.53846153846155 L 760.0,40.0" class="line"/>
  <circle cx="40.0" cy="101.53846153846155" class="point"/>
  <text x="40.0" y="375" class="label" text-anchor="middle">2025-11-11</text>
  <text x="40.0" y="96.53846153846155" class="label" text-anchor="middle">42</text>
  <circle cx="66.66666666666666" cy="101.53846153846155" class="point"/>
  <text x="66.66666666666666" y="375" class="label" text-anchor="middle">2025-11-12</text>
  <text x="66.66666666666666" y="96.53846153846155" class="label" text-anchor="middle">42</text>
  <circle cx="93.33333333333333" cy="101.53846153846155" class="point"/>
  <text x="93.33333333333333" y="375" class="label" text-anchor="middle">2025-11-13</text>
  <text x="93.33333333333333" y="96.53846153846155" class="label" text-anchor="middle">42</text>
  <circle cx="120.0" cy="101.53846153846155" class="point"/>
  <text x="120.0" y="375" class="label" text-anchor="middle">2025-11-14</text>
  <text x="120.0" y="96.53846153846155" class="label" text-anchor="middle">42</text>
  <circle cx="146.66666666666666" cy="101.53846153846155" class="point"/>
  <text x="146.66666666666666" y="375" class="label" text-anchor="middle">2025-11-15</text>
  <text x="146.66666666666666" y="96.53846153846155" class="label" text-anchor="middle">42</text>
  <circle cx="173.33333333333331" cy="101.53846153846155" class="point"/>
  <text x="173.33333333333331" y="375" class="label" text-anchor="middle">2025-11-16</text>
  <text x="173.33333333333331" y="96.53846153846155" class="label" text-anchor="middle">42</text>
  <circle cx="200.0" cy="101.53846153846155" class="point"/>
  <text x="200.0" y="375" class="label" text-anchor="middle">2025-11-17</text>
  <text x="200.0" y="96.53846153846155" class="label" text-anchor="middle">42</text>
  <circle cx="226.66666666666666" cy="101.53846153846155" class="point"/>
  <text x="226.66666666666666" y="375" class="label" text-anchor="middle">2025-11-18</text>
  <text x="226.66666666666666" y="96.53846153846155" class="label" text-anchor="middle">42</text>
  <circle cx="253.33333333333331" cy="101.53846153846155" class="point"/>
  <text x="253.33333333333331" y="375" class="label" text-anchor="middle">2025-11-19</text>
  <text x="253.33333333333331" y="96.53846153846155" class="label" text-anchor="middle">42</text>
  <circle cx="280.0" cy="101.53846153846155" class="point"/>
  <text x="280.0" y="375" class="label" text-anchor="middle">2025-11-20</text>
  <text x="280.0" y="96.53846153846155" class="label" text-anchor="middle">42</text>
  <circle cx="306.66666666666663" cy="101.53846153846155" class="point"/>
  <text x="306.66666666666663" y="375" class="label" text-anchor="middle">2025-11-21</text>
  <text x="306.66666666666663" y="96.53846153846155" class="label" text-anchor="middle">42</text>
  <circle cx="333.3333333333333" cy="101.53846153846155" class="point"/>
  <text x="333.3333333333333" y="375" class="label" text-anchor="middle">2025-11-22</text>
  <text x="333.3333333333333" y="96.53846153846155" class="label" text-anchor="middle">42</text>
  <circle cx="360.0" cy="101.53846153846155" class="point"/>
  <text x="360.0" y="375" class="label" text-anchor="middle">2025-11-23</text>
  <text x="360.0" y="96.53846153846155" class="label" text-anchor="middle">42</text>
  <circle cx="386.66666666666663" cy="101.53846153846155" class="point"/>
  <text x="386.66666666666663" y="375" class="label" text-anchor="middle">2025-11-24</text>
  <text x="386.66666666666663" y="96.53846153846155" class="label" text-anchor="middle">42</text>
  <circle cx="413.3333333333333" cy="101.53846153846155" class="point"/>
  <text x="413.3333333333333" y="375" class="label" text-anchor="middle">2025-11-25</text>
  <text x="413.3333333333333" y="96.53846153846155" class="label" text-anchor="middle">42</text>
  <circle cx="440.0" cy="101.53846153846155" class="point"/>
  <text x="440.0" y="375" class="label" text-anchor="middle">2025-11-26</text>
  <text x="440.0" y="96.53846153846155" class="label" text-anchor="middle">42</text>
  <circle cx="466.66666666666663" cy="101.53846153846155" class="point"/>
  <text x="466.66666666666663" y="375" class="label" text-anchor="middle">2025-11-27</text>
  <text x="466.66666666666663" y="96.53846153846155" class="label" text-anchor="middle">42</text>
  <circle cx="493.33333333333337" cy="101.53846153846155" class="point"/>
  <text x="493.33333333333337" y="375" class="label" text-anchor="middle">2025-11-28</text>
  <text x="493.33333333333337" y="96.53846153846155" class="label" text-anchor="middle">42</text>
  <circle cx="520.0" cy="101.53846153846155" class="point"/>
  <text x="520.0" y="375" class="label" text-anchor="middle">2025-11-29</text>
  <text x="520.0" y="96.53846153846155" class="label" text-anchor="middle">42</text>
  <circle cx="546.6666666666667" cy="101.53846153846155" class="point"/>
  <text x="546.6666666666667" y="375" class="label" text-anchor="middle">2025-11-30</text>
  <text x="546.6666666666667" y="96.53846153846155" class="label" text-anchor="middle">42</text>
  <circle cx="573.3333333333333" cy="101.53846153846155" class="point"/>
  <text x="573.3333333333333" y="375" class="label" text-anchor="middle">2025-12-01</text>
  <text x="573.3333333333333" y="96.53846153846155" class="label" text-anchor="middle">42</text>
  <circle cx="600.0" cy="101.53846153846155" class="point"/>
  <text x="600.0" y="375" class="label" text-anchor="middle">2025-12-02</text>
  <text x="600.0" y="96.53846153846155" class="label" text-anchor="middle">42</text>
  <circle cx="626.6666666666666" cy="101.53846153846155" class="point"/>
  <text x="626.6666666666666" y="375" class="label" text-anchor="middle">2025-12-03</text>
  <text x="626.6666666666666" y="96.53846153846155" class="label" text-anchor="middle">42</text>
  <circle cx="653.3333333333334" cy="101.53846153846155" class="point"/>
  <text x="653.3333333333334" y="375" class="label" text-anchor="middle">2025-12-04</text>
  <text x="653.3333333333334" y="96.53846153846155" class="label" text-anchor="middle">42</text>
  <circle cx="680.0" cy="101.53846153846155" class="point"/>
  <text x="680.0" y="375" class="label" text-anchor="middle">2025-12-05</text>
  <text x="680.0" y="96.53846153846155" class="label" text-anchor="middle">42</text>
  <circle cx="706.6666666666666" cy="101.53846153846155" class="point"/>
  <text x="706.6666666666666" y="375" class="label" text-anchor="middle">2025-12-06</text>
  <text x="706.6666666666666" y="96.53846153846155" class="label" text-anchor="middle">42</text>
  <circle cx="733.3333333333333" cy="101.53846153846155" class="point"/>
  <text x="733.3333333333333" y="375" class="label" text-anchor="middle">2025-12-07</text>
  <text x="733.3333333333333" y="96.53846153846155" class="label" text-anchor="middle">42</text>
  <circle cx="760.0" cy="40.0" class="point"/>
  <text x="760.0" y="375" class="label" text-anchor="middle">2025-12-08</text>
  <text x="760.0" y="35.0" class="label" text-anchor="middle">52</text>
  <text x="30" y="363.0" class="label" text-anchor="end">0</text>
  <text x="30" y="301.46153846153845" class="label" text-anchor="end">10</text>
  <text x="30" y="239.9230769230769" class="label" text-anchor="end">20</text>
  <text x="30" y="178.38461538461542" class="label" text-anchor="end">30</text>
  <text x="30" y="116.84615384615384" class="label" text-anchor="end">40</text>
  <text x="30" y="55.30769230769232" class="label" text-anchor="end">50</text>
</svg>