<svg xmlns="http://www.w3.org/2000/svg" width="800" height="400" viewBox="0 0 800 400">
  <style>
    .axis{stroke:#666;stroke-width:1}
    .line{stroke:#4a9;stroke-width:2;fill:none}
    .point{fill:#4a9;r:4}
    .label{font:10px sans-serif;fill:#aaa}
    .title{font:14px sans-serif;fill:#333}
  </style>
  <text x="400" y="20" class="title" text-anchor="middle">OPIC Field Growth Timeline</text>
  <line x1="40" y1="40" x2="40" y2="360" class="axis"/>
  <line x1="40" y1="360" x2="760" y2="360" class="axis"/>
  <path d="M 40.0,101.53846153846155 L 45.0,101.53846153846155 L 50.0,101.53846153846155 L 55.0,101.53846153846155 L 60.0,101.53846153846155 L 65.0,101.53846153846155 L 70.0,101.53846153846155 L 75.0,101.53846153846155 L 80.0,101.53846153846155 L 85.0,101.53846153846155 L 90.0,101.53846153846155 L 95.0,101.53846153846155 L 100.0,101.53846153846155 L 105.0,101.53846153846155 L 110.0,101.53846153846155 L 115.0,101.53846153846155 L 120.0,101.53846153846155 L 125.0,101.53846153846155 L 130.0,101.53846153846155 L 135.0,101.53846153846155 L 140.0,101.53846153846155 L 145.0,101.53846153846155 L 150.0,101.53846153846155 L 155.0,101.53846153846155 L 160.0,101.53846153846155 L 165.0,101.53846153846155 L 170.0,101.53846153846155 L 175.0,40.0 L 180.0,40.0 L 185.0,40.0 L 190.0,40.0 L 195.0,40.0 L 200.0,40.0 L 205.0,40.0 L 210.0,40.0 L 215.0,40.0 L 220.0,40.0 L 224.99999999999997,40.0 L 230.0,40.0 L 235.0,40.0 L 240.0,40.0 L 245.0,40.0 L 250.0,40.0 L 255.0,40.0 L 260.0,40.0 L 265.0,40.0 L 270.0,40.0 L 275.0,40.0 L 280.0,40.0 L 285.0,40.0 L 290.0,40.0 L 295.0,40.0 L 300.0,40.0 L 305.0,40.0 L 310.0,40.0 L 315.0,40.0 L 320.0,40.0 L 325.0,40.0 L 330.0,40.0 L 335.0,40.0 L 340.0,40.0 L 345.0,40.0 L 350.0,40.0 L 355.0,40.0 L 360.0,40.0 L 365.0,40.0 L 370.0,40.0 L 375.0,40.0 L 380.0,40.0 L 385.0,40.0 L 390.0,40.0 L 395.0,40.0 L 400.0,40.0 L 405.0,40.0 L 409.99999999999994,40.0 L 415.0,40.0 L 420.0,40.0 L 425.0,40.0 L 430.0,40.0 L 435.00000000000006,40.0 L 440.0,40.0 L 445.0,40.0 L 450.0,40.0 L 454.99999999999994,40.0 L 460.0,40.0 L 465.0,40.0 L 470.0,40.0 L 475.0,40.0 L 480.00000000000006,40.0 L 485.0,40.0 L 490.0,40.0 L 495.0,40.0 L 499.99999999999994,40.0 L 505.0,40.0 L 510.0,40.0 L 515.0,40.0 L 520.0,40.0 L 525.0,40.0 L 530.0,40.0 L 535.0,40.0 L 540.0,40.0 L 545.0,40.0 L 550.0,40.0 L 555.0,40.0 L 560.0,40.0 L 565.0,40.0 L 570.0,40.0 L 575.0,40.0 L 580.0,40.0 L 585.0,40.0 L 590.0,40.0 L 595.0,40.0 L 600.0,40.0 L 605.0,40.0 L 610.0,40.0 L 615.0,40.0 L 620.0,40.0 L 625.0,40.0 L 630.0,40.0 L 635.0,40.0 L 640.0,40.0 L 645.0,40.0 L 650.0,40.0 L 655.0,40.0 L 660.0,40.0 L 665.0,40.0 L 670.0,40.0 L 675.0,40.0 L 680.0,40.0 L 685.0,40.0 L 690.0,40.0 L 695.0,40.0 L 700.0,40.0 L 705.0,40.0 L 710.0,40.0 L 715.0,40.0 L 720.0,40.0 L 725.0,40.0 L 730.0,40.0 L 735.0,40.0 L 740.0,40.0 L 745.0,40.0 L 750.0,40.0 L 755.0,40.0 L 760.0,40.0" class="line"/>
  <circle cx="40.0" cy="101.53846153846155" class="point"/>
  <text x="40.0" y="375" class="label" text-anchor="middle">2025-11-11</text>
  <text x="40.0" y="96.53846153846155" class="label" text-anchor="middle">42</text>
  <circle cx="45.0" cy="101.53846153846155" class="point"/>
  <text x="45.0" y="375" class="label" text-anchor="middle">2025-11-12</text>
  <text x="45.0" y="96.53846153846155" class="label" text-anchor="middle">42</text>
  <circle cx="50.0" cy="101.53846153846155" class="point"/>
  <text x="50.0" y="375" class="label" text-anchor="middle">2025-11-13</text>
  <text x="50.0" y="96.53846153846155" class="label" text-anchor="middle">42</text>
  <circle cx="55.0" cy="101.53846153846155" class="point"/>
  <text x="55.0" y="375" class="label" text-anchor="middle">2025-11-14</text>
  <text x="55.0" y="96.53846153846155" class="label" text-anchor="middle">42</text>
  <circle cx="60.0" cy="101.53846153846155" class="point"/>
  <text x="60.0" y="375" class="label" text-anchor="middle">2025-11-15</text>
  <text x="60.0" y="96.53846153846155" class="label" text-anchor="middle">42</text>
  <circle cx="65.0" cy="101.53846153846155" class="point"/>
  <text x="65.0" y="375" class="label" text-anchor="middle">2025-11-16</text>
  <text x="65.0" y="96.53846153846155" class="label" text-anchor="middle">42</text>
  <circle cx="70.0" cy="101.53846153846155" class="point"/>
  <text x="70.0" y="375" class="label" text-anchor="middle">2025-11-17</text>
  <text x="70.0" y="96.53846153846155" class="label" text-anchor="middle">42</text>
  <circle cx="75.0" cy="101.53846153846155" class="point"/>
  <text x="75.0" y="375" class="label" text-anchor="middle">2025-11-18</text>
  <text x="75.0" y="96.53846153846155" class="label" text-anchor="middle">42</text>
  <circle cx="80.0" cy="101.53846153846155" class="point"/>
  <text x="80.0" y="375" class="label" text-anchor="middle">2025-11-19</text>
  <text x="80.0" y="96.53846153846155" class="label" text-anchor="middle">42</text>
  <circle cx="85.0" cy="101.53846153846155" class="point"/>
  <text x="85.0" y="375" class="label" text-anchor="middle">2025-11-20</text>
  <text x="85.0" y="96.53846153846155" class="label" text-anchor="middle">42</text>
  <circle cx="90.0" cy="101.53846153846155" class="point"/>
  <text x="90.0" y="375" class="label" text-anchor="middle">2025-11-21</text>
  <text x="90.0" y="96.53846153846155" class="label" text-anchor="middle">42</text>
  <circle cx="95.0" cy="101.53846153846155" class="point"/>
  <text x="95.0" y="375" class="label" text-anchor="middle">2025-11-22</text>
  <text x="95.0" y="96.53846153846155" class="label" text-anchor="middle">42</text>
  <circle cx="100.0" cy="101.53846153846155" class="point"/>
  <text x="100.0" y="375" class="label" text-anchor="middle">2025-11-23</text>
  <text x="100.0" y="96.53846153846155" class="label" text-anchor="middle">42</text>
  <circle cx="105.0" cy="101.53846153846155" class="point"/>
  <text x="105.0" y="375" class="label" text-anchor="middle">2025-11-24</text>
  <text x="105.0" y="96.53846153846155" class="label" text-anchor="middle">42</text>
  <circle cx="110.0" cy="101.53846153846155" class="point"/>
  <text x="110.0" y="375" class="label" text-anchor="middle">2025-11-25</text>
  <text x="110.0" y="96.53846153846155" class="label" text-anchor="middle">42</text>
  <circle cx="115.0" cy="101.53846153846155" class="point"/>
  <text x="115.0" y="375" class="label" text-anchor="middle">2025-11-26</text>
  <text x="115.0" y="96.53846153846155" class="label" text-anchor="middle">42</text>
  <circle cx="120.0" cy="101.53846153846155" class="point"/>
  <text x="120.0" y="375" class="label" text-anchor="middle">2025-11-27</text>
  <text x="120.0" y="96.53846153846155" class="label" text-anchor="middle">42</text>
  <circle cx="125.0" cy="101.53846153846155" class="point"/>
  <text x="125.0" y="375" class="label" text-anchor="middle">2025-11-28</text>
  <text x="125.0" y="96.53846153846155" class="label" text-anchor="middle">42</text>
  <circle cx="130.0" cy="101.53846153846155" class="point"/>
  <text x="130.0" y="375" class="label" text-anchor="middle">2025-11-29</text>
  <text x="130.0" y="96.53846153846155" class="label" text-anchor="middle">42</text>
  <circle cx="135.0" cy="101.53846153846155" class="point"/>
  <text x="135.0" y="375" class="label" text-anchor="middle">2025-11-30</text>
  <text x="135.0" y="96.53846153846155" class="label" text-anchor="middle">42</text>
  <circle cx="140.0" cy="101.53846153846155" class="point"/>
  <text x="140.0" y="375" class="label" text-anchor="middle">2025-12-01</text>
  <text x="140.0" y="96.53846153846155" class="label" text-anchor="middle">42</text>
  <circle cx="145.0" cy="101.53846153846155" class="point"/>
  <text x="145.0" y="375" class="label" text-anchor="middle">2025-12-02</text>
  <text x="145.0" y="96.53846153846155" class="label" text-anchor="middle">42</text>
  <circle cx="150.0" cy="101.53846153846155" class="point"/>
  <text x="150.0" y="375" class="label" text-anchor="middle">2025-12-03</text>
  <text x="150.0" y="96.53846153846155" class="label" text-anchor="middle">42</text>
  <circle cx="155.0" cy="101.53846153846155" class="point"/>
  <text x="155.0" y="375" class="label" text-anchor="middle">2025-12-04</text>
  <text x="155.0" y="96.53846153846155" class="label" text-anchor="middle">42</text>
  <circle cx="160.0" cy="101.53846153846155" class="point"/>
  <text x="160.0" y="375" class="label" text-anchor="middle">2025-12-05</text>
  <text x="160.0" y="96.53846153846155" class="label" text-anchor="middle">42</text>
  <circle cx="165.0" cy="101.53846153846155" class="point"/>
  <text x="165.0" y="375" class="label" text-anchor="middle">2025-12-06</text>
  <text x="165.0" y="96.53846153846155" class="label" text-anchor="middle">42</text>
  <circle cx="170.0" cy="101.53846153846155" class="point"/>
  <text x="170.0" y="375" class="label" text-anchor="middle">2025-12-07</text>
  <text x="170.0" y="96.53846153846155" class="label" text-anchor="middle">42</text>
  <circle cx="175.0" cy="40.0" class="point"/>
  <text x="175.0" y="375" class="label" text-anchor="middle">2025-12-08</text>
  <text x="175.0" y="35.0" class="label" text-anchor="middle">52</text>
  <circle cx="180.0" cy="40.0" class="point"/>
  <text x="180.0" y="375" class="label" text-anchor="middle">2025-12-09</text>
  <text x="180.0" y="35.0" class="label" text-anchor="middle">52</text>
  <circle cx="185.0" cy="40.0" class="point"/>
  <text x="185.0" y="375" class="label" text-anchor="middle">2025-12-10</text>
  <text x="185.0" y="35.0" class="label" text-anchor="middle">52</text>
  <circle cx="190.0" cy="40.0" class="point"/>
  <text x="190.0" y="375" class="label" text-anchor="middle">2025-12-11</text>
  <text x="190.0" y="35.0" class="label" text-anchor="middle">52</text>
  <circle cx="195.0" cy="40.0" class="point"/>
  <text x="195.0" y="375" class="label" text-anchor="middle">2025-12-12</text>
  <text x="195.0" y="35.0" class="label" text-anchor="middle">52</text>
  <circle cx="200.0" cy="40.0" class="point"/>
  <text x="200.0" y="375" class="label" text-anchor="middle">2025-12-13</text>
  <text x="200.0" y="35.0" class="label" text-anchor="middle">52</text>
  <circle cx="205.0" cy="40.0" class="point"/>
  <text x="205.0" y="375" class="label" text-anchor="middle">2025-12-14</text>
  <text x="205.0" y="35.0" class="label" text-anchor="middle">52</text>
  <circle cx="210.0" cy="40.0" class="point"/>
  <text x="210.0" y="375" class="label" text-anchor="middle">2025-12-15</text>
  <text x="210.0" y="35.0" class="label" text-anchor="middle">52</text>
  <circle cx="215.0" cy="40.0" class="point"/>
  <text x="215.0" y="375" class="label" text-anchor="middle">2025-12-16</text>
  <text x="215.0" y="35.0" class="label" text-anchor="middle">52</text>
  <circle cx="220.0" cy="40.0" class="point"/>
  <text x="220.0" y="375" class="label" text-anchor="middle">2025-12-17</text>
  <text x="220.0" y="35.0" class="label" text-anchor="middle">52</text>
  <circle cx="224.99999999999997" cy="40.0" class="point"/>
  <text x="224.99999999999997" y="375" class="label" text-anchor="middle">2025-12-18</text>
  <text x="224.99999999999997" y="35.0" class="label" text-anchor="middle">52</text>
  <circle cx="230.0" cy="40.0" class="point"/>
  <text x="230.0" y="375" class="label" text-anchor="middle">2025-12-19</text>
  <text x="230.0" y="35.0" class="label" text-anchor="middle">52</text>
  <circle cx="235.0" cy="40.0" class="point"/>
  <text x="235.0" y="375" class="label" text-anchor="middle">2025-12-20</text>
  <text x="235.0" y="35.0" class="label" text-anchor="middle">52</text>
  <circle cx="240.0" cy="40.0" class="point"/>
  <text x="240.0" y="375" class="label" text-anchor="middle">2025-12-21</text>
  <text x="240.0" y="35.0" class="label" text-anchor="middle">52</text>
  <circle cx="245.0" cy="40.0" class="point"/>
  <text x="245.0" y="375" class="label" text-anchor="middle">2025-12-22</text>
  <text x="245.0" y="35.0" class="label" text-anchor="middle">52</text>
  <circle cx="250.0" cy="40.0" class="point"/>
  <text x="250.0" y="375" class="label" text-anchor="middle">2025-12-23</text>
  <text x="250.0" y="35.0" class="label" text-anchor="middle">52</text>
  <circle cx="255.0" cy="40.0" class="point"/>
  <text x="255.0" y="375" class="label" text-anchor="middle">2025-12-24</text>
  <text x="255.0" y="35.0" class="label" text-anchor="middle">52</text>
  <circle cx="260.0" cy="40.0" class="point"/>
  <text x="260.0" y="375" class="label" text-anchor="middle">2025-12-25</text>
  <text x="260.0" y="35.0" class="label" text-anchor="middle">52</text>
  <circle cx="265.0" cy="40.0" class="point"/>
  <text x="265.0" y="375" class="label" text-anchor="middle">2025-12-26</text>
  <text x="265.0" y="35.0" class="label" text-anchor="middle">52</text>
  <circle cx="270.0" cy="40.0" class="point"/>
  <text x="270.0" y="375" class="label" text-anchor="middle">2025-12-27</text>
  <text x="270.0" y="35.0" class="label" text-anchor="middle">52</text>
  <circle cx="275.0" cy="40.0" class="point"/>
  <text x="275.0" y="375" class="label" text-anchor="middle">2025-12-28</text>
  <text x="275.0" y="35.0" class="label" text-anchor="middle">52</text>
  <circle cx="280.0" cy="40.0" class="point"/>
  <text x="280.0" y="375" class="label" text-anchor="middle">2025-12-29</text>
  <text x="280.0" y="35.0" class="label" text-anchor="middle">52</text>
  <circle cx="285.0" cy="40.0" class="point"/>
  <text x="285.0" y="375" class="label" text-anchor="middle">2025-12-30</text>
  <text x="285.0" y="35.0" class="label" text-anchor="middle">52</text>
  <circle cx="290.0" cy="40.0" class="point"/>
  <text x="290.0" y="375" class="label" text-anchor="middle">2025-12-31</text>
  <text x="290.0" y="35.0" class="label" text-anchor="middle">52</text>
  <circle cx="295.0" cy="40.0" class="point"/>
  <text x="295.0" y="375" class="label" text-anchor="middle">2026-01-01</text>
  <text x="295.0" y="35.0" class="label" text-anchor="middle">52</text>
  <circle cx="300.0" cy="40.0" class="point"/>
  <text x="300.0" y="375" class="label" text-anchor="middle">2026-01-02</text>
  <text x="300.0" y="35.0" class="label" text-anchor="middle">52</text>
  <circle cx="305.0" cy="40.0" class="point"/>
  <text x="305.0" y="375" class="label" text-anchor="middle">2026-01-03</text>
  <text x="305.0" y="35.0" class="label" text-anchor="middle">52</text>
  <circle cx="310.0" cy="40.0" class="point"/>
  <text x="310.0" y="375" class="label" text-anchor="middle">2026-01-04</text>
  <text x="310.0" y="35.0" class="label" text-anchor="middle">52</text>
  <circle cx="315.0" cy="40.0" class="point"/>
  <text x="315.0" y="375" class="label" text-anchor="middle">2026-01-05</text>
  <text x="315.0" y="35.0" class="label" text-anchor="middle">52</text>
  <circle cx="320.0" cy="40.0" class="point"/>
  <text x="320.0" y="375" class="label" text-anchor="middle">2026-01-06</text>
  <text x="320.0" y="35.0" class="label" text-anchor="middle">52</text>
  <circle cx="325.0" cy="40.0" class="point"/>
  <text x="325.0" y="375" class="label" text-anchor="middle">2026-01-07</text>
  <text x="325.0" y="35.0" class="label" text-anchor="middle">52</text>
  <circle cx="330.0" cy="40.0" class="point"/>
  <text x="330.0" y="375" class="label" text-anchor="middle">2026-01-08</text>
  <text x="330.0" y="35.0" class="label" text-anchor="middle">52</text>
  <circle cx="335.0" cy="40.0" class="point"/>
  <text x="335.0" y="375" class="label" text-anchor="middle">2026-01-09</text>
  <text x="335.0" y="35.0" class="label" text-anchor="middle">52</text>
  <circle cx="340.0" cy="40.0" class="point"/>
  <text x="340.0" y="375" class="label" text-anchor="middle">2026-01-10</text>
  <text x="340.0" y="35.0" class="label" text-anchor="middle">52</text>
  <circle cx="345.0" cy="40.0" class="point"/>
  <text x="345.0" y="375" class="label" text-anchor="middle">2026-01-11</text>
  <text x="345.0" y="35.0" class="label" text-anchor="middle">52</text>
  <circle cx="350.0" cy="40.0" class="point"/>
  <text x="350.0" y="375" class="label" text-anchor="middle">2026-01-12</text>
  <text x="350.0" y="35.0" class="label" text-anchor="middle">52</text>
  <circle cx="355.0" cy="40.0" class="point"/>
  <text x="355.0" y="375" class="label" text-anchor="middle">2026-01-13</text>
  <text x="355.0" y="35.0" class="label" text-anchor="middle">52</text>
  <circle cx="360.0" cy="40.0" class="point"/>
  <text x="360.0" y="375" class="label" text-anchor="middle">2026-01-14</text>
  <text x="360.0" y="35.0" class="label" text-anchor="middle">52</text>
  <circle cx="365.0" cy="40.0" class="point"/>
  <text x="365.0" y="375" class="label" text-anchor="middle">2026-01-15</text>
  <text x="365.0" y="35.0" class="label" text-anchor="middle">52</text>
  <circle cx="370.0" cy="40.0" class="point"/>
  <text x="370.0" y="375" class="label" text-anchor="middle">2026-01-16</text>
  <text x="370.0" y="35.0" class="label" text-anchor="middle">52</text>
  <circle cx="375.0" cy="40.0" class="point"/>
  <text x="375.0" y="375" class="label" text-anchor="middle">2026-01-17</text>
  <text x="375.0" y="35.0" class="label" text-anchor="middle">52</text>
  <circle cx="380.0" cy="40.0" class="point"/>
  <text x="380.0" y="375" class="label" text-anchor="middle">2026-01-18</text>
  <text x="380.0" y="35.0" class="label" text-anchor="middle">52</text>
  <circle cx="385.0" cy="40.0" class="point"/>
  <text x="385.0" y="375" class="label" text-anchor="middle">2026-01-19</text>
  <text x="385.0" y="35.0" class="label" text-anchor="middle">52</text>
  <circle cx="390.0" cy="40.0" class="point"/>
  <text x="390.0" y="375" class="label" text-anchor="middle">2026-01-20</text>
  <text x="390.0" y="35.0" class="label" text-anchor="middle">52</text>
  <circle cx="395.0" cy="40.0" class="point"/>
  <text x="395.0" y="375" class="label" text-anchor="middle">2026-01-21</text>
  <text x="395.0" y="35.0" class="label" text-anchor="middle">52</text>
  <circle cx="400.0" cy="40.0" class="point"/>
  <text x="400.0" y="375" class="label" text-anchor="middle">2026-01-22</text>
  <text x="400.0" y="35.0" class="label" text-anchor="middle">52</text>
  <circle cx="405.0" cy="40.0" class="point"/>
  <text x="405.0" y="375" class="label" text-anchor="middle">2026-01-23</text>
  <text x="405.0" y="35.0" class="label" text-anchor="middle">52</text>
  <circle cx="409.99999999999994" cy="40.0" class="point"/>
  <text x="409.99999999999994" y="375" class="label" text-anchor="middle">2026-01-24</text>
  <text x="409.99999999999994" y="35.0" class="label" text-anchor="middle">52</text>
  <circle cx="415.0" cy="40.0" class="point"/>
  <text x="415.0" y="375" class="label" text-anchor="middle">2026-01-25</text>
  <text x="415.0" y="35.0" class="label" text-anchor="middle">52</text>
  <circle cx="420.0" cy="40.0" class="point"/>
  <text x="420.0" y="375" class="label" text-anchor="middle">2026-01-26</text>
  <text x="420.0" y="35.0" class="label" text-anchor="middle">52</text>
  <circle cx="425.0" cy="40.0" class="point"/>
  <text x="425.0" y="375" class="label" text-anchor="middle">2026-01-27</text>
  <text x="425.0" y="35.0" class="label" text-anchor="middle">52</text>
  <circle cx="430.0" cy="40.0" class="point"/>
  <text x="430.0" y="375" class="label" text-anchor="middle">2026-01-28</text>
  <text x="430.0" y="35.0" class="label" text-anchor="middle">52</text>
  <circle cx="435.00000000000006" cy="40.0" class="point"/>
  <text x="435.00000000000006" y="375" class="label" text-anchor="middle">2026-01-29</text>
  <text x="435.00000000000006" y="35.0" class="label" text-anchor="middle">52</text>
  <circle cx="440.0" cy="40.0" class="point"/>
  <text x="440.0" y="375" class="label" text-anchor="middle">2026-01-30</text>
  <text x="440.0" y="35.0" class="label" text-anchor="middle">52</text>
  <circle cx="445.0" cy="40.0" class="point"/>
  <text x="445.0" y="375" class="label" text-anchor="middle">2026-01-31</text>
  <text x="445.0" y="35.0" class="label" text-anchor="middle">52</text>
  <circle cx="450.0" cy="40.0" class="point"/>
  <text x="450.0" y="375" class="label" text-anchor="middle">2026-02-01</text>
  <text x="450.0" y="35.0" class="label" text-anchor="middle">52</text>
  <circle cx="454.99999999999994" cy="40.0" class="point"/>
  <text x="454.99999999999994" y="375" class="label" text-anchor="middle">2026-02-02</text>
  <text x="454.99999999999994" y="35.0" class="label" text-anchor="middle">52</text>
  <circle cx="460.0" cy="40.0" class="point"/>
  <text x="460.0" y="375" class="label" text-anchor="middle">2026-02-03</text>
  <text x="460.0" y="35.0" class="label" text-anchor="middle">52</text>
  <circle cx="465.0" cy="40.0" class="point"/>
  <text x="465.0" y="375" class="label" text-anchor="middle">2026-02-04</text>
  <text x="465.0" y="35.0" class="label" text-anchor="middle">52</text>
  <circle cx="470.0" cy="40.0" class="point"/>
  <text x="470.0" y="375" class="label" text-anchor="middle">2026-02-05</text>
  <text x="470.0" y="35.0" class="label" text-anchor="middle">52</text>
  <circle cx="475.0" cy="40.0" class="point"/>
  <text x="475.0" y="375" class="label" text-anchor="middle">2026-02-06</text>
  <text x="475.0" y="35.0" class="label" text-anchor="middle">52</text>
  <circle cx="480.00000000000006" cy="40.0" class="point"/>
  <text x="480.00000000000006" y="375" class="label" text-anchor="middle">2026-02-07</text>
  <text x="480.00000000000006" y="35.0" class="label" text-anchor="middle">52</text>
  <circle cx="485.0" cy="40.0" class="point"/>
  <text x="485.0" y="375" class="label" text-anchor="middle">2026-02-08</text>
  <text x="485.0" y="35.0" class="label" text-anchor="middle">52</text>
  <circle cx="490.0" cy="40.0" class="point"/>
  <text x="490.0" y="375" class="label" text-anchor="middle">2026-02-09</text>
  <text x="490.0" y="35.0" class="label" text-anchor="middle">52</text>
  <circle cx="495.0" cy="40.0" class="point"/>
  <text x="495.0" y="375" class="label" text-anchor="middle">2026-02-10</text>
  <text x="495.0" y="35.0" class="label" text-anchor="middle">52</text>
  <circle cx="499.99999999999994" cy="40.0" class="point"/>
  <text x="499.99999999999994" y="375" class="label" text-anchor="middle">2026-02-11</text>
  <text x="499.99999999999994" y="35.0" class="label" text-anchor="middle">52</text>
  <circle cx="505.0" cy="40.0" class="point"/>
  <text x="505.0" y="375" class="label" text-anchor="middle">2026-02-12</text>
  <text x="505.0" y="35.0" class="label" text-anchor="middle">52</text>
  <circle cx="510.0" cy="40.0" class="point"/>
  <text x="510.0" y="375" class="label" text-anchor="middle">2026-02-13</text>
  <text x="510.0" y="35.0" class="label" text-anchor="middle">52</text>
  <circle cx="515.0" cy="40.0" class="point"/>
  <text x="515.0" y="375" class="label" text-anchor="middle">2026-02-14</text>
  <text x="515.0" y="35.0" class="label" text-anchor="middle">52</text>
  <circle cx="520.0" cy="40.0" class="point"/>
  <text x="520.0" y="375" class="label" text-anchor="middle">2026-02-15</text>
  <text x="520.0" y="35.0" class="label" text-anchor="middle">52</text>
  <circle cx="525.0" cy="40.0" class="point"/>
  <text x="525.0" y="375" class="label" text-anchor="middle">2026-02-16</text>
  <text x="525.0" y="35.0" class="label" text-anchor="middle">52</text>
  <circle cx="530.0" cy="40.0" class="point"/>
  <text x="530.0" y="375" class="label" text-anchor="middle">2026-02-17</text>
  <text x="530.0" y="35.0" class="label" text-anchor="middle">52</text>
  <circle cx="535.0" cy="40.0" class="point"/>
  <text x="535.0" y="375" class="label" text-anchor="middle">2026-02-18</text>
  <text x="535.0" y="35.0" class="label" text-anchor="middle">52</text>
  <circle cx="540.0" cy="40.0" class="point"/>
  <text x="540.0" y="375" class="label" text-anchor="middle">2026-02-19</text>
  <text x="540.0" y="35.0" class="label" text-anchor="middle">52</text>
  <circle cx="545.0" cy="40.0" class="point"/>
  <text x="545.0" y="375" class="label" text-anchor="middle">2026-02-20</text>
  <text x="545.0" y="35.0" class="label" text-anchor="middle">52</text>
  <circle cx="550.0" cy="40.0" class="point"/>
  <text x="550.0" y="375" class="label" text-anchor="middle">2026-02-21</text>
  <text x="550.0" y="35.0" class="label" text-anchor="middle">52</text>
  <circle cx="555.0" cy="40.0" class="point"/>
  <text x="555.0" y="375" class="label" text-anchor="middle">2026-02-22</text>
  <text x="555.0" y="35.0" class="label" text-anchor="middle">52</text>
  <circle cx="560.0" cy="40.0" class="point"/>
  <text x="560.0" y="375" class="label" text-anchor="middle">2026-02-23</text>
  <text x="560.0" y="35.0" class="label" text-anchor="middle">52</text>
  <circle cx="565.0" cy="40.0" class="point"/>
  <text x="565.0" y="375" class="label" text-anchor="middle">2026-02-24</text>
  <text x="565.0" y="35.0" class="label" text-anchor="middle">52</text>
  <circle cx="570.0" cy="40.0" class="point"/>
  <text x="570.0" y="375" class="label" text-anchor="middle">2026-02-25</text>
  <text x="570.0" y="35.0" class="label" text-anchor="middle">52</text>
  <circle cx="575.0" cy="40.0" class="point"/>
  <text x="575.0" y="375" class="label" text-anchor="middle">2026-02-26</text>
  <text x="575.0" y="35.0" class="label" text-anchor="middle">52</text>
  <circle cx="580.0" cy="40.0" class="point"/>
  <text x="580.0" y="375" class="label" text-anchor="middle">2026-02-27</text>
  <text x="580.0" y="35.0" class="label" text-anchor="middle">52</text>
  <circle cx="585.0" cy="40.0" class="point"/>
  <text x="585.0" y="375" class="label" text-anchor="middle">2026-02-28</text>
  <text x="585.0" y="35.0" class="label" text-anchor="middle">52</text>
  <circle cx="590.0" cy="40.0" class="point"/>
  <text x="590.0" y="375" class="label" text-anchor="middle">2026-03-01</text>
  <text x="590.0" y="35.0" class="label" text-anchor="middle">52</text>
  <circle cx="595.0" cy="40.0" class="point"/>
  <text x="595.0" y="375" class="label" text-anchor="middle">2026-03-02</text>
  <text x="595.0" y="35.0" class="label" text-anchor="middle">52</text>
  <circle cx="600.0" cy="40.0" class="point"/>
  <text x="600.0" y="375" class="label" text-anchor="middle">2026-03-03</text>
  <text x="600.0" y="35.0" class="label" text-anchor="middle">52</text>
  <circle cx="605.0" cy="40.0" class="point"/>
  <text x="605.0" y="375" class="label" text-anchor="middle">2026-03-04</text>
  <text x="605.0" y="35.0" class="label" text-anchor="middle">52</text>
  <circle cx="610.0" cy="40.0" class="point"/>
  <text x="610.0" y="375" class="label" text-anchor="middle">2026-03-05</text>
  <text x="610.0" y="35.0" class="label" text-anchor="middle">52</text>
  <circle cx="615.0" cy="40.0" class="point"/>
  <text x="615.0" y="375" class="label" text-anchor="middle">2026-03-06</text>
  <text x="615.0" y="35.0" class="label" text-anchor="middle">52</text>
  <circle cx="620.0" cy="40.0" class="point"/>
  <text x="620.0" y="375" class="label" text-anchor="middle">2026-03-07</text>
  <text x="620.0" y="35.0" class="label" text-anchor="middle">52</text>
  <circle cx="625.0" cy="40.0" class="point"/>
  <text x="625.0" y="375" class="label" text-anchor="middle">2026-03-08</text>
  <text x="625.0" y="35.0" class="label" text-anchor="middle">52</text>
  <circle cx="630.0" cy="40.0" class="point"/>
  <text x="630.0" y="375" class="label" text-anchor="middle">2026-03-09</text>
  <text x="630.0" y="35.0" class="label" text-anchor="middle">52</text>
  <circle cx="635.0" cy="40.0" class="point"/>
  <text x="635.0" y="375" class="label" text-anchor="middle">2026-03-10</text>
  <text x="635.0" y="35.0" class="label" text-anchor="middle">52</text>
  <circle cx="640.0" cy="40.0" class="point"/>
  <text x="640.0" y="375" class="label" text-anchor="middle">2026-03-11</text>
  <text x="640.0" y="35.0" class="label" text-anchor="middle">52</text>
  <circle cx="645.0" cy="40.0" class="point"/>
  <text x="645.0" y="375" class="label" text-anchor="middle">2026-03-12</text>
  <text x="645.0" y="35.0" class="label" text-anchor="middle">52</text>
  <circle cx="650.0" cy="40.0" class="point"/>
  <text x="650.0" y="375" class="label" text-anchor="middle">2026-03-13</text>
  <text x="650.0" y="35.0" class="label" text-anchor="middle">52</text>
  <circle cx="655.0" cy="40.0" class="point"/>
  <text x="655.0" y="375" class="label" text-anchor="middle">2026-03-14</text>
  <text x="655.0" y="35.0" class="label" text-anchor="middle">52</text>
  <circle cx="660.0" cy="40.0" class="point"/>
  <text x="660.0" y="375" class="label" text-anchor="middle">2026-03-15</text>
  <text x="660.0" y="35.0" class="label" text-anchor="middle">52</text>
  <circle cx="665.0" cy="40.0" class="point"/>
  <text x="665.0" y="375" class="label" text-anchor="middle">2026-03-16</text>
  <text x="665.0" y="35.0" class="label" text-anchor="middle">52</text>
  <circle cx="670.0" cy="40.0" class="point"/>
  <text x="670.0" y="375" class="label" text-anchor="middle">2026-03-17</text>
  <text x="670.0" y="35.0" class="label" text-anchor="middle">52</text>
  <circle cx="675.0" cy="40.0" class="point"/>
  <text x="675.0" y="375" class="label" text-anchor="middle">2026-03-18</text>
  <text x="675.0" y="35.0" class="label" text-anchor="middle">52</text>
  <circle cx="680.0" cy="40.0" class="point"/>
  <text x="680.0" y="375" class="label" text-anchor="middle">2026-03-19</text>
  <text x="680.0" y="35.0" class="label" text-anchor="middle">52</text>
  <circle cx="685.0" cy="40.0" class="point"/>
  <text x="685.0" y="375" class="label" text-anchor="middle">2026-03-20</text>
  <text x="685.0" y="35.0" class="label" text-anchor="middle">52</text>
  <circle cx="690.0" cy="40.0" class="point"/>
  <text x="690.0" y="375" class="label" text-anchor="middle">2026-03-21</text>
  <text x="690.0" y="35.0" class="label" text-anchor="middle">52</text>
  <circle cx="695.0" cy="40.0" class="point"/>
  <text x="695.0" y="375" class="label" text-anchor="middle">2026-03-22</text>
  <text x="695.0" y="35.0" class="label" text-anchor="middle">52</text>
  <circle cx="700.0" cy="40.0" class="point"/>
  <text x="700.0" y="375" class="label" text-anchor="middle">2026-03-23</text>
  <text x="700.0" y="35.0" class="label" text-anchor="middle">52</text>
  <circle cx="705.0" cy="40.0" class="point"/>
  <text x="705.0" y="375" class="label" text-anchor="middle">2026-03-24</text>
  <text x="705.0" y="35.0" class="label" text-anchor="middle">52</text>
  <circle cx="710.0" cy="40.0" class="point"/>
  <text x="710.0" y="375" class="label" text-anchor="middle">2026-03-25</text>
  <text x="710.0" y="35.0" class="label" text-anchor="middle">52</text>
  <circle cx="715.0" cy="40.0" class="point"/>
  <text x="715.0" y="375" class="label" text-anchor="middle">2026-03-26</text>
  <text x="715.0" y="35.0" class="label" text-anchor="middle">52</text>
  <circle cx="720.0" cy="40.0" class="point"/>
  <text x="720.0" y="375" class="label" text-anchor="middle">2026-03-27</text>
  <text x="720.0" y="35.0" class="label" text-anchor="middle">52</text>
  <circle cx="725.0" cy="40.0" class="point"/>
  <text x="725.0" y="375" class="label" text-anchor="middle">2026-03-28</text>
  <text x="725.0" y="35.0" class="label" text-anchor="middle">52</text>
  <circle cx="730.0" cy="40.0" class="point"/>
  <text x="730.0" y="375" class="label" text-anchor="middle">2026-03-29</text>
  <text x="730.0" y="35.0" class="label" text-anchor="middle">52</text>
  <circle cx="735.0" cy="40.0" class="point"/>
  <text x="735.0" y="375" class="label" text-anchor="middle">2026-03-30</text>
  <text x="735.0" y="35.0" class="label" text-anchor="middle">52</text>
  <circle cx="740.0" cy="40.0" class="point"/>
  <text x="740.0" y="375" class="label" text-anchor="middle">2026-03-31</text>
  <text x="740.0" y="35.0" class="label" text-anchor="middle">52</text>
  <circle cx="745.0" cy="40.0" class="point"/>
  <text x="745.0" y="375" class="label" text-anchor="middle">2026-04-01</text>
  <text x="745.0" y="35.0" class="label" text-anchor="middle">52</text>
  <circle cx="750.0" cy="40.0" class="point"/>
  <text x="750.0" y="375" class="label" text-anchor="middle">2026-04-02</text>
  <text x="750.0" y="35.0" class="label" text-anchor="middle">52</text>
  <circle cx="755.0" cy="40.0" class="point"/>
  <text x="755.0" y="375" class="label" text-anchor="middle">2026-04-03</text>
  <text x="755.0" y="35.0" class="label" text-anchor="middle">52</text>
  <circle cx="760.0" cy="40.0" class="point"/>
  <text x="760.0" y="375" class="label" text-anchor="middle">2026-04-04</text>
  <text x="760.0" y="35.0" class="label" text-anchor="middle">52</text>
  <text x="30" y="363.0" class="label" text-anchor="end">0</text>
  <text x="30" y="301.46153846153845" class="label" text-anchor="end">10</text>
  <text x="30" y="239.9230769230769" class="label" text-anchor="end">20</text>
  <text x="30" y="178.38461538461542" class="label" text-anchor="end">30</text>
  <text x="30" y="116.84615384615384" class="label" text-anchor="end">40</text>
  <text x="30" y="55.30769230769232" class="label" text-anchor="end">50</text>
</svg>