<svg xmlns="http://www.w3.org/2000/svg" width="800" height="400" viewBox="0 0 800 400">
  <style>
    .axis{stroke:#666;stroke-width:1}
    .line{stroke:#4a9;stroke-width:2;fill:none}
    .point{fill:#4a9;r:4}
    .label{font:10px sans-serif;fill:#aaa}
    .title{font:14px sans-serif;fill:#333}
  </style>
  <text x="400" y="20" class="title" text-anchor="middle">OPIC Field Growth Timeline</text>
  <line x1="40" y1="40" x2="40" y2="360" class="axis"/>
  <line x1="40" y1="360" x2="760" y2="360" class="axis"/>
  <path d="M 40.0,101.53846153846155 L 45.53846153846154,101.53846153846155 L 51.07692307692308,101.53846153846155 L 56.61538461538461,101.53846153846155 L 62.15384615384615,101.53846153846155 L 67.6923076923077,101.53846153846155 L 73.23076923076923,101.53846153846155 L 78.76923076923077,101.53846153846155 L 84.3076923076923,101.53846153846155 L 89.84615384615384,101.53846153846155 L 95.38461538461539,101.53846153846155 L 100.92307692307693,101.53846153846155 L 106.46153846153847,101.53846153846155 L 112.0,101.53846153846155 L 117.53846153846155,101.53846153846155 L 123.07692307692308,101.53846153846155 L 128.6153846153846,101.53846153846155 L 134.15384615384616,101.53846153846155 L 139.69230769230768,101.53846153846155 L 145.23076923076923,101.53846153846155 L 150.76923076923077,101.53846153846155 L 156.30769230769232,101.53846153846155 L 161.84615384615387,101.53846153846155 L 167.3846153846154,101.53846153846155 L 172.92307692307693,101.53846153846155 L 178.46153846153848,101.53846153846155 L 184.0,101.53846153846155 L 189.53846153846155,40.0 L 195.0769230769231,40.0 L 200.6153846153846,40.0 L 206.15384615384616,40.0 L 211.6923076923077,40.0 L 217.23076923076923,40.0 L 222.76923076923077,40.0 L 228.30769230769232,40.0 L 233.84615384615384,40.0 L 239.3846153846154,40.0 L 244.9230769230769,40.0 L 250.46153846153848,40.0 L 256.0,40.0 L 261.53846153846155,40.0 L 267.0769230769231,40.0 L 272.61538461538464,40.0 L 278.1538461538462,40.0 L 283.69230769230774,40.0 L 289.2307692307692,40.0 L 294.7692307692308,40.0 L 300.3076923076923,40.0 L 305.84615384615387,40.0 L 311.38461538461536,40.0 L 316.92307692307696,40.0 L 322.46153846153845,40.0 L 328.0,40.0 L 333.53846153846155,40.0 L 339.0769230769231,40.0 L 344.6153846153846,40.0 L 350.1538461538462,40.0 L 355.6923076923077,40.0 L 361.2307692307692,40.0 L 366.7692307692308,40.0 L 372.3076923076923,40.0 L 377.84615384615387,40.0 L 383.3846153846154,40.0 L 388.9230769230769,40.0 L 394.46153846153845,40.0 L 400.0,40.0 L 405.53846153846155,40.0 L 411.07692307692304,40.0 L 416.61538461538464,40.0 L 422.15384615384613,40.0 L 427.6923076923077,40.0 L 433.23076923076917,40.0 L 438.7692307692308,40.0 L 444.3076923076923,40.0 L 449.8461538461538,40.0 L 455.38461538461536,40.0 L 460.92307692307696,40.0 L 466.46153846153845,40.0 L 472.0,40.0 L 477.5384615384615,40.0 L 483.0769230769231,40.0 L 488.61538461538464,40.0 L 494.15384615384613,40.0 L 499.6923076923077,40.0 L 505.2307692307693,40.0 L 510.7692307692308,40.0 L 516.3076923076924,40.0 L 521.8461538461538,40.0 L 527.3846153846155,40.0 L 532.9230769230769,40.0 L 538.4615384615385,40.0 L 544.0,40.0 L 549.5384615384615,40.0 L 555.0769230769231,40.0 L 560.6153846153846,40.0 L 566.1538461538461,40.0 L 571.6923076923077,40.0 L 577.2307692307693,40.0 L 582.7692307692307,40.0 L 588.3076923076923,40.0 L 593.8461538461539,40.0 L 599.3846153846154,40.0 L 604.9230769230769,40.0 L 610.4615384615385,40.0 L 616.0,40.0 L 621.5384615384615,40.0 L 627.0769230769231,40.0 L 632.6153846153846,40.0 L 638.1538461538462,40.0 L 643.6923076923077,40.0 L 649.2307692307692,40.0 L 654.7692307692307,40.0 L 660.3076923076924,40.0 L 665.8461538461538,40.0 L 671.3846153846154,40.0 L 676.9230769230769,40.0 L 682.4615384615385,40.0 L 688.0,40.0 L 693.5384615384615,40.0 L 699.0769230769231,40.0 L 704.6153846153846,40.0 L 710.1538461538462,40.0 L 715.6923076923077,40.0 L 721.2307692307692,40.0 L 726.7692307692308,40.0 L 732.3076923076924,40.0 L 737.8461538461538,40.0 L 743.3846153846154,40.0 L 748.9230769230769,40.0 L 754.4615384615385,40.0 L 760.0,40.0" class="line"/>
  <circle cx="40.0" cy="101.53846153846155" class="point"/>
  <text x="40.0" y="375" class="label" text-anchor="middle">2025-11-11</text>
  <text x="40.0" y="96.53846153846155" class="label" text-anchor="middle">42</text>
  <circle cx="45.53846153846154" cy="101.53846153846155" class="point"/>
  <text x="45.53846153846154" y="375" class="label" text-anchor="middle">2025-11-12</text>
  <text x="45.53846153846154" y="96.53846153846155" class="label" text-anchor="middle">42</text>
  <circle cx="51.07692307692308" cy="101.53846153846155" class="point"/>
  <text x="51.07692307692308" y="375" class="label" text-anchor="middle">2025-11-13</text>
  <text x="51.07692307692308" y="96.53846153846155" class="label" text-anchor="middle">42</text>
  <circle cx="56.61538461538461" cy="101.53846153846155" class="point"/>
  <text x="56.61538461538461" y="375" class="label" text-anchor="middle">2025-11-14</text>
  <text x="56.61538461538461" y="96.53846153846155" class="label" text-anchor="middle">42</text>
  <circle cx="62.15384615384615" cy="101.53846153846155" class="point"/>
  <text x="62.15384615384615" y="375" class="label" text-anchor="middle">2025-11-15</text>
  <text x="62.15384615384615" y="96.53846153846155" class="label" text-anchor="middle">42</text>
  <circle cx="67.6923076923077" cy="101.53846153846155" class="point"/>
  <text x="67.6923076923077" y="375" class="label" text-anchor="middle">2025-11-16</text>
  <text x="67.6923076923077" y="96.53846153846155" class="label" text-anchor="middle">42</text>
  <circle cx="73.23076923076923" cy="101.53846153846155" class="point"/>
  <text x="73.23076923076923" y="375" class="label" text-anchor="middle">2025-11-17</text>
  <text x="73.23076923076923" y="96.53846153846155" class="label" text-anchor="middle">42</text>
  <circle cx="78.76923076923077" cy="101.53846153846155" class="point"/>
  <text x="78.76923076923077" y="375" class="label" text-anchor="middle">2025-11-18</text>
  <text x="78.76923076923077" y="96.53846153846155" class="label" text-anchor="middle">42</text>
  <circle cx="84.3076923076923" cy="101.53846153846155" class="point"/>
  <text x="84.3076923076923" y="375" class="label" text-anchor="middle">2025-11-19</text>
  <text x="84.3076923076923" y="96.53846153846155" class="label" text-anchor="middle">42</text>
  <circle cx="89.84615384615384" cy="101.53846153846155" class="point"/>
  <text x="89.84615384615384" y="375" class="label" text-anchor="middle">2025-11-20</text>
  <text x="89.84615384615384" y="96.53846153846155" class="label" text-anchor="middle">42</text>
  <circle cx="95.38461538461539" cy="101.53846153846155" class="point"/>
  <text x="95.38461538461539" y="375" class="label" text-anchor="middle">2025-11-21</text>
  <text x="95.38461538461539" y="96.53846153846155" class="label" text-anchor="middle">42</text>
  <circle cx="100.92307692307693" cy="101.53846153846155" class="point"/>
  <text x="100.92307692307693" y="375" class="label" text-anchor="middle">2025-11-22</text>
  <text x="100.92307692307693" y="96.53846153846155" class="label" text-anchor="middle">42</text>
  <circle cx="106.46153846153847" cy="101.53846153846155" class="point"/>
  <text x="106.46153846153847" y="375" class="label" text-anchor="middle">2025-11-23</text>
  <text x="106.46153846153847" y="96.53846153846155" class="label" text-anchor="middle">42</text>
  <circle cx="112.0" cy="101.53846153846155" class="point"/>
  <text x="112.0" y="375" class="label" text-anchor="middle">2025-11-24</text>
  <text x="112.0" y="96.53846153846155" class="label" text-anchor="middle">42</text>
  <circle cx="117.53846153846155" cy="101.53846153846155" class="point"/>
  <text x="117.53846153846155" y="375" class="label" text-anchor="middle">2025-11-25</text>
  <text x="117.53846153846155" y="96.53846153846155" class="label" text-anchor="middle">42</text>
  <circle cx="123.07692307692308" cy="101.53846153846155" class="point"/>
  <text x="123.07692307692308" y="375" class="label" text-anchor="middle">2025-11-26</text>
  <text x="123.07692307692308" y="96.53846153846155" class="label" text-anchor="middle">42</text>
  <circle cx="128.6153846153846" cy="101.53846153846155" class="point"/>
  <text x="128.6153846153846" y="375" class="label" text-anchor="middle">2025-11-27</text>
  <text x="128.6153846153846" y="96.53846153846155" class="label" text-anchor="middle">42</text>
  <circle cx="134.15384615384616" cy="101.53846153846155" class="point"/>
  <text x="134.15384615384616" y="375" class="label" text-anchor="middle">2025-11-28</text>
  <text x="134.15384615384616" y="96.53846153846155" class="label" text-anchor="middle">42</text>
  <circle cx="139.69230769230768" cy="101.53846153846155" class="point"/>
  <text x="139.69230769230768" y="375" class="label" text-anchor="middle">2025-11-29</text>
  <text x="139.69230769230768" y="96.53846153846155" class="label" text-anchor="middle">42</text>
  <circle cx="145.23076923076923" cy="101.53846153846155" class="point"/>
  <text x="145.23076923076923" y="375" class="label" text-anchor="middle">2025-11-30</text>
  <text x="145.23076923076923" y="96.53846153846155" class="label" text-anchor="middle">42</text>
  <circle cx="150.76923076923077" cy="101.53846153846155" class="point"/>
  <text x="150.76923076923077" y="375" class="label" text-anchor="middle">2025-12-01</text>
  <text x="150.76923076923077" y="96.53846153846155" class="label" text-anchor="middle">42</text>
  <circle cx="156.30769230769232" cy="101.53846153846155" class="point"/>
  <text x="156.30769230769232" y="375" class="label" text-anchor="middle">2025-12-02</text>
  <text x="156.30769230769232" y="96.53846153846155" class="label" text-anchor="middle">42</text>
  <circle cx="161.84615384615387" cy="101.53846153846155" class="point"/>
  <text x="161.84615384615387" y="375" class="label" text-anchor="middle">2025-12-03</text>
  <text x="161.84615384615387" y="96.53846153846155" class="label" text-anchor="middle">42</text>
  <circle cx="167.3846153846154" cy="101.53846153846155" class="point"/>
  <text x="167.3846153846154" y="375" class="label" text-anchor="middle">2025-12-04</text>
  <text x="167.3846153846154" y="96.53846153846155" class="label" text-anchor="middle">42</text>
  <circle cx="172.92307692307693" cy="101.53846153846155" class="point"/>
  <text x="172.92307692307693" y="375" class="label" text-anchor="middle">2025-12-05</text>
  <text x="172.92307692307693" y="96.53846153846155" class="label" text-anchor="middle">42</text>
  <circle cx="178.46153846153848" cy="101.53846153846155" class="point"/>
  <text x="178.46153846153848" y="375" class="label" text-anchor="middle">2025-12-06</text>
  <text x="178.46153846153848" y="96.53846153846155" class="label" text-anchor="middle">42</text>
  <circle cx="184.0" cy="101.53846153846155" class="point"/>
  <text x="184.0" y="375" class="label" text-anchor="middle">2025-12-07</text>
  <text x="184.0" y="96.53846153846155" class="label" text-anchor="middle">42</text>
  <circle cx="189.53846153846155" cy="40.0" class="point"/>
  <text x="189.53846153846155" y="375" class="label" text-anchor="middle">2025-12-08</text>
  <text x="189.53846153846155" y="35.0" class="label" text-anchor="middle">52</text>
  <circle cx="195.0769230769231" cy="40.0" class="point"/>
  <text x="195.0769230769231" y="375" class="label" text-anchor="middle">2025-12-09</text>
  <text x="195.0769230769231" y="35.0" class="label" text-anchor="middle">52</text>
  <circle cx="200.6153846153846" cy="40.0" class="point"/>
  <text x="200.6153846153846" y="375" class="label" text-anchor="middle">2025-12-10</text>
  <text x="200.6153846153846" y="35.0" class="label" text-anchor="middle">52</text>
  <circle cx="206.15384615384616" cy="40.0" class="point"/>
  <text x="206.15384615384616" y="375" class="label" text-anchor="middle">2025-12-11</text>
  <text x="206.15384615384616" y="35.0" class="label" text-anchor="middle">52</text>
  <circle cx="211.6923076923077" cy="40.0" class="point"/>
  <text x="211.6923076923077" y="375" class="label" text-anchor="middle">2025-12-12</text>
  <text x="211.6923076923077" y="35.0" class="label" text-anchor="middle">52</text>
  <circle cx="217.23076923076923" cy="40.0" class="point"/>
  <text x="217.23076923076923" y="375" class="label" text-anchor="middle">2025-12-13</text>
  <text x="217.23076923076923" y="35.0" class="label" text-anchor="middle">52</text>
  <circle cx="222.76923076923077" cy="40.0" class="point"/>
  <text x="222.76923076923077" y="375" class="label" text-anchor="middle">2025-12-14</text>
  <text x="222.76923076923077" y="35.0" class="label" text-anchor="middle">52</text>
  <circle cx="228.30769230769232" cy="40.0" class="point"/>
  <text x="228.30769230769232" y="375" class="label" text-anchor="middle">2025-12-15</text>
  <text x="228.30769230769232" y="35.0" class="label" text-anchor="middle">52</text>
  <circle cx="233.84615384615384" cy="40.0" class="point"/>
  <text x="233.84615384615384" y="375" class="label" text-anchor="middle">2025-12-16</text>
  <text x="233.84615384615384" y="35.0" class="label" text-anchor="middle">52</text>
  <circle cx="239.3846153846154" cy="40.0" class="point"/>
  <text x="239.3846153846154" y="375" class="label" text-anchor="middle">2025-12-17</text>
  <text x="239.3846153846154" y="35.0" class="label" text-anchor="middle">52</text>
  <circle cx="244.9230769230769" cy="40.0" class="point"/>
  <text x="244.9230769230769" y="375" class="label" text-anchor="middle">2025-12-18</text>
  <text x="244.9230769230769" y="35.0" class="label" text-anchor="middle">52</text>
  <circle cx="250.46153846153848" cy="40.0" class="point"/>
  <text x="250.46153846153848" y="375" class="label" text-anchor="middle">2025-12-19</text>
  <text x="250.46153846153848" y="35.0" class="label" text-anchor="middle">52</text>
  <circle cx="256.0" cy="40.0" class="point"/>
  <text x="256.0" y="375" class="label" text-anchor="middle">2025-12-20</text>
  <text x="256.0" y="35.0" class="label" text-anchor="middle">52</text>
  <circle cx="261.53846153846155" cy="40.0" class="point"/>
  <text x="261.53846153846155" y="375" class="label" text-anchor="middle">2025-12-21</text>
  <text x="261.53846153846155" y="35.0" class="label" text-anchor="middle">52</text>
  <circle cx="267.0769230769231" cy="40.0" class="point"/>
  <text x="267.0769230769231" y="375" class="label" text-anchor="middle">2025-12-22</text>
  <text x="267.0769230769231" y="35.0" class="label" text-anchor="middle">52</text>
  <circle cx="272.61538461538464" cy="40.0" class="point"/>
  <text x="272.61538461538464" y="375" class="label" text-anchor="middle">2025-12-23</text>
  <text x="272.61538461538464" y="35.0" class="label" text-anchor="middle">52</text>
  <circle cx="278.1538461538462" cy="40.0" class="point"/>
  <text x="278.1538461538462" y="375" class="label" text-anchor="middle">2025-12-24</text>
  <text x="278.1538461538462" y="35.0" class="label" text-anchor="middle">52</text>
  <circle cx="283.69230769230774" cy="40.0" class="point"/>
  <text x="283.69230769230774" y="375" class="label" text-anchor="middle">2025-12-25</text>
  <text x="283.69230769230774" y="35.0" class="label" text-anchor="middle">52</text>
  <circle cx="289.2307692307692" cy="40.0" class="point"/>
  <text x="289.2307692307692" y="375" class="label" text-anchor="middle">2025-12-26</text>
  <text x="289.2307692307692" y="35.0" class="label" text-anchor="middle">52</text>
  <circle cx="294.7692307692308" cy="40.0" class="point"/>
  <text x="294.7692307692308" y="375" class="label" text-anchor="middle">2025-12-27</text>
  <text x="294.7692307692308" y="35.0" class="label" text-anchor="middle">52</text>
  <circle cx="300.3076923076923" cy="40.0" class="point"/>
  <text x="300.3076923076923" y="375" class="label" text-anchor="middle">2025-12-28</text>
  <text x="300.3076923076923" y="35.0" class="label" text-anchor="middle">52</text>
  <circle cx="305.84615384615387" cy="40.0" class="point"/>
  <text x="305.84615384615387" y="375" class="label" text-anchor="middle">2025-12-29</text>
  <text x="305.84615384615387" y="35.0" class="label" text-anchor="middle">52</text>
  <circle cx="311.38461538461536" cy="40.0" class="point"/>
  <text x="311.38461538461536" y="375" class="label" text-anchor="middle">2025-12-30</text>
  <text x="311.38461538461536" y="35.0" class="label" text-anchor="middle">52</text>
  <circle cx="316.92307692307696" cy="40.0" class="point"/>
  <text x="316.92307692307696" y="375" class="label" text-anchor="middle">2025-12-31</text>
  <text x="316.92307692307696" y="35.0" class="label" text-anchor="middle">52</text>
  <circle cx="322.46153846153845" cy="40.0" class="point"/>
  <text x="322.46153846153845" y="375" class="label" text-anchor="middle">2026-01-01</text>
  <text x="322.46153846153845" y="35.0" class="label" text-anchor="middle">52</text>
  <circle cx="328.0" cy="40.0" class="point"/>
  <text x="328.0" y="375" class="label" text-anchor="middle">2026-01-02</text>
  <text x="328.0" y="35.0" class="label" text-anchor="middle">52</text>
  <circle cx="333.53846153846155" cy="40.0" class="point"/>
  <text x="333.53846153846155" y="375" class="label" text-anchor="middle">2026-01-03</text>
  <text x="333.53846153846155" y="35.0" class="label" text-anchor="middle">52</text>
  <circle cx="339.0769230769231" cy="40.0" class="point"/>
  <text x="339.0769230769231" y="375" class="label" text-anchor="middle">2026-01-04</text>
  <text x="339.0769230769231" y="35.0" class="label" text-anchor="middle">52</text>
  <circle cx="344.6153846153846" cy="40.0" class="point"/>
  <text x="344.6153846153846" y="375" class="label" text-anchor="middle">2026-01-05</text>
  <text x="344.6153846153846" y="35.0" class="label" text-anchor="middle">52</text>
  <circle cx="350.1538461538462" cy="40.0" class="point"/>
  <text x="350.1538461538462" y="375" class="label" text-anchor="middle">2026-01-06</text>
  <text x="350.1538461538462" y="35.0" class="label" text-anchor="middle">52</text>
  <circle cx="355.6923076923077" cy="40.0" class="point"/>
  <text x="355.6923076923077" y="375" class="label" text-anchor="middle">2026-01-07</text>
  <text x="355.6923076923077" y="35.0" class="label" text-anchor="middle">52</text>
  <circle cx="361.2307692307692" cy="40.0" class="point"/>
  <text x="361.2307692307692" y="375" class="label" text-anchor="middle">2026-01-08</text>
  <text x="361.2307692307692" y="35.0" class="label" text-anchor="middle">52</text>
  <circle cx="366.7692307692308" cy="40.0" class="point"/>
  <text x="366.7692307692308" y="375" class="label" text-anchor="middle">2026-01-09</text>
  <text x="366.7692307692308" y="35.0" class="label" text-anchor="middle">52</text>
  <circle cx="372.3076923076923" cy="40.0" class="point"/>
  <text x="372.3076923076923" y="375" class="label" text-anchor="middle">2026-01-10</text>
  <text x="372.3076923076923" y="35.0" class="label" text-anchor="middle">52</text>
  <circle cx="377.84615384615387" cy="40.0" class="point"/>
  <text x="377.84615384615387" y="375" class="label" text-anchor="middle">2026-01-11</text>
  <text x="377.84615384615387" y="35.0" class="label" text-anchor="middle">52</text>
  <circle cx="383.3846153846154" cy="40.0" class="point"/>
  <text x="383.3846153846154" y="375" class="label" text-anchor="middle">2026-01-12</text>
  <text x="383.3846153846154" y="35.0" class="label" text-anchor="middle">52</text>
  <circle cx="388.9230769230769" cy="40.0" class="point"/>
  <text x="388.9230769230769" y="375" class="label" text-anchor="middle">2026-01-13</text>
  <text x="388.9230769230769" y="35.0" class="label" text-anchor="middle">52</text>
  <circle cx="394.46153846153845" cy="40.0" class="point"/>
  <text x="394.46153846153845" y="375" class="label" text-anchor="middle">2026-01-14</text>
  <text x="394.46153846153845" y="35.0" class="label" text-anchor="middle">52</text>
  <circle cx="400.0" cy="40.0" class="point"/>
  <text x="400.0" y="375" class="label" text-anchor="middle">2026-01-15</text>
  <text x="400.0" y="35.0" class="label" text-anchor="middle">52</text>
  <circle cx="405.53846153846155" cy="40.0" class="point"/>
  <text x="405.53846153846155" y="375" class="label" text-anchor="middle">2026-01-16</text>
  <text x="405.53846153846155" y="35.0" class="label" text-anchor="middle">52</text>
  <circle cx="411.07692307692304" cy="40.0" class="point"/>
  <text x="411.07692307692304" y="375" class="label" text-anchor="middle">2026-01-17</text>
  <text x="411.07692307692304" y="35.0" class="label" text-anchor="middle">52</text>
  <circle cx="416.61538461538464" cy="40.0" class="point"/>
  <text x="416.61538461538464" y="375" class="label" text-anchor="middle">2026-01-18</text>
  <text x="416.61538461538464" y="35.0" class="label" text-anchor="middle">52</text>
  <circle cx="422.15384615384613" cy="40.0" class="point"/>
  <text x="422.15384615384613" y="375" class="label" text-anchor="middle">2026-01-19</text>
  <text x="422.15384615384613" y="35.0" class="label" text-anchor="middle">52</text>
  <circle cx="427.6923076923077" cy="40.0" class="point"/>
  <text x="427.6923076923077" y="375" class="label" text-anchor="middle">2026-01-20</text>
  <text x="427.6923076923077" y="35.0" class="label" text-anchor="middle">52</text>
  <circle cx="433.23076923076917" cy="40.0" class="point"/>
  <text x="433.23076923076917" y="375" class="label" text-anchor="middle">2026-01-21</text>
  <text x="433.23076923076917" y="35.0" class="label" text-anchor="middle">52</text>
  <circle cx="438.7692307692308" cy="40.0" class="point"/>
  <text x="438.7692307692308" y="375" class="label" text-anchor="middle">2026-01-22</text>
  <text x="438.7692307692308" y="35.0" class="label" text-anchor="middle">52</text>
  <circle cx="444.3076923076923" cy="40.0" class="point"/>
  <text x="444.3076923076923" y="375" class="label" text-anchor="middle">2026-01-23</text>
  <text x="444.3076923076923" y="35.0" class="label" text-anchor="middle">52</text>
  <circle cx="449.8461538461538" cy="40.0" class="point"/>
  <text x="449.8461538461538" y="375" class="label" text-anchor="middle">2026-01-24</text>
  <text x="449.8461538461538" y="35.0" class="label" text-anchor="middle">52</text>
  <circle cx="455.38461538461536" cy="40.0" class="point"/>
  <text x="455.38461538461536" y="375" class="label" text-anchor="middle">2026-01-25</text>
  <text x="455.38461538461536" y="35.0" class="label" text-anchor="middle">52</text>
  <circle cx="460.92307692307696" cy="40.0" class="point"/>
  <text x="460.92307692307696" y="375" class="label" text-anchor="middle">2026-01-26</text>
  <text x="460.92307692307696" y="35.0" class="label" text-anchor="middle">52</text>
  <circle cx="466.46153846153845" cy="40.0" class="point"/>
  <text x="466.46153846153845" y="375" class="label" text-anchor="middle">2026-01-27</text>
  <text x="466.46153846153845" y="35.0" class="label" text-anchor="middle">52</text>
  <circle cx="472.0" cy="40.0" class="point"/>
  <text x="472.0" y="375" class="label" text-anchor="middle">2026-01-28</text>
  <text x="472.0" y="35.0" class="label" text-anchor="middle">52</text>
  <circle cx="477.5384615384615" cy="40.0" class="point"/>
  <text x="477.5384615384615" y="375" class="label" text-anchor="middle">2026-01-29</text>
  <text x="477.5384615384615" y="35.0" class="label" text-anchor="middle">52</text>
  <circle cx="483.0769230769231" cy="40.0" class="point"/>
  <text x="483.0769230769231" y="375" class="label" text-anchor="middle">2026-01-30</text>
  <text x="483.0769230769231" y="35.0" class="label" text-anchor="middle">52</text>
  <circle cx="488.61538461538464" cy="40.0" class="point"/>
  <text x="488.61538461538464" y="375" class="label" text-anchor="middle">2026-01-31</text>
  <text x="488.61538461538464" y="35.0" class="label" text-anchor="middle">52</text>
  <circle cx="494.15384615384613" cy="40.0" class="point"/>
  <text x="494.15384615384613" y="375" class="label" text-anchor="middle">2026-02-01</text>
  <text x="494.15384615384613" y="35.0" class="label" text-anchor="middle">52</text>
  <circle cx="499.6923076923077" cy="40.0" class="point"/>
  <text x="499.6923076923077" y="375" class="label" text-anchor="middle">2026-02-02</text>
  <text x="499.6923076923077" y="35.0" class="label" text-anchor="middle">52</text>
  <circle cx="505.2307692307693" cy="40.0" class="point"/>
  <text x="505.2307692307693" y="375" class="label" text-anchor="middle">2026-02-03</text>
  <text x="505.2307692307693" y="35.0" class="label" text-anchor="middle">52</text>
  <circle cx="510.7692307692308" cy="40.0" class="point"/>
  <text x="510.7692307692308" y="375" class="label" text-anchor="middle">2026-02-04</text>
  <text x="510.7692307692308" y="35.0" class="label" text-anchor="middle">52</text>
  <circle cx="516.3076923076924" cy="40.0" class="point"/>
  <text x="516.3076923076924" y="375" class="label" text-anchor="middle">2026-02-05</text>
  <text x="516.3076923076924" y="35.0" class="label" text-anchor="middle">52</text>
  <circle cx="521.8461538461538" cy="40.0" class="point"/>
  <text x="521.8461538461538" y="375" class="label" text-anchor="middle">2026-02-06</text>
  <text x="521.8461538461538" y="35.0" class="label" text-anchor="middle">52</text>
  <circle cx="527.3846153846155" cy="40.0" class="point"/>
  <text x="527.3846153846155" y="375" class="label" text-anchor="middle">2026-02-07</text>
  <text x="527.3846153846155" y="35.0" class="label" text-anchor="middle">52</text>
  <circle cx="532.9230769230769" cy="40.0" class="point"/>
  <text x="532.9230769230769" y="375" class="label" text-anchor="middle">2026-02-08</text>
  <text x="532.9230769230769" y="35.0" class="label" text-anchor="middle">52</text>
  <circle cx="538.4615384615385" cy="40.0" class="point"/>
  <text x="538.4615384615385" y="375" class="label" text-anchor="middle">2026-02-09</text>
  <text x="538.4615384615385" y="35.0" class="label" text-anchor="middle">52</text>
  <circle cx="544.0" cy="40.0" class="point"/>
  <text x="544.0" y="375" class="label" text-anchor="middle">2026-02-10</text>
  <text x="544.0" y="35.0" class="label" text-anchor="middle">52</text>
  <circle cx="549.5384615384615" cy="40.0" class="point"/>
  <text x="549.5384615384615" y="375" class="label" text-anchor="middle">2026-02-11</text>
  <text x="549.5384615384615" y="35.0" class="label" text-anchor="middle">52</text>
  <circle cx="555.0769230769231" cy="40.0" class="point"/>
  <text x="555.0769230769231" y="375" class="label" text-anchor="middle">2026-02-12</text>
  <text x="555.0769230769231" y="35.0" class="label" text-anchor="middle">52</text>
  <circle cx="560.6153846153846" cy="40.0" class="point"/>
  <text x="560.6153846153846" y="375" class="label" text-anchor="middle">2026-02-13</text>
  <text x="560.6153846153846" y="35.0" class="label" text-anchor="middle">52</text>
  <circle cx="566.1538461538461" cy="40.0" class="point"/>
  <text x="566.1538461538461" y="375" class="label" text-anchor="middle">2026-02-14</text>
  <text x="566.1538461538461" y="35.0" class="label" text-anchor="middle">52</text>
  <circle cx="571.6923076923077" cy="40.0" class="point"/>
  <text x="571.6923076923077" y="375" class="label" text-anchor="middle">2026-02-15</text>
  <text x="571.6923076923077" y="35.0" class="label" text-anchor="middle">52</text>
  <circle cx="577.2307692307693" cy="40.0" class="point"/>
  <text x="577.2307692307693" y="375" class="label" text-anchor="middle">2026-02-16</text>
  <text x="577.2307692307693" y="35.0" class="label" text-anchor="middle">52</text>
  <circle cx="582.7692307692307" cy="40.0" class="point"/>
  <text x="582.7692307692307" y="375" class="label" text-anchor="middle">2026-02-17</text>
  <text x="582.7692307692307" y="35.0" class="label" text-anchor="middle">52</text>
  <circle cx="588.3076923076923" cy="40.0" class="point"/>
  <text x="588.3076923076923" y="375" class="label" text-anchor="middle">2026-02-18</text>
  <text x="588.3076923076923" y="35.0" class="label" text-anchor="middle">52</text>
  <circle cx="593.8461538461539" cy="40.0" class="point"/>
  <text x="593.8461538461539" y="375" class="label" text-anchor="middle">2026-02-19</text>
  <text x="593.8461538461539" y="35.0" class="label" text-anchor="middle">52</text>
  <circle cx="599.3846153846154" cy="40.0" class="point"/>
  <text x="599.3846153846154" y="375" class="label" text-anchor="middle">2026-02-20</text>
  <text x="599.3846153846154" y="35.0" class="label" text-anchor="middle">52</text>
  <circle cx="604.9230769230769" cy="40.0" class="point"/>
  <text x="604.9230769230769" y="375" class="label" text-anchor="middle">2026-02-21</text>
  <text x="604.9230769230769" y="35.0" class="label" text-anchor="middle">52</text>
  <circle cx="610.4615384615385" cy="40.0" class="point"/>
  <text x="610.4615384615385" y="375" class="label" text-anchor="middle">2026-02-22</text>
  <text x="610.4615384615385" y="35.0" class="label" text-anchor="middle">52</text>
  <circle cx="616.0" cy="40.0" class="point"/>
  <text x="616.0" y="375" class="label" text-anchor="middle">2026-02-23</text>
  <text x="616.0" y="35.0" class="label" text-anchor="middle">52</text>
  <circle cx="621.5384615384615" cy="40.0" class="point"/>
  <text x="621.5384615384615" y="375" class="label" text-anchor="middle">2026-02-24</text>
  <text x="621.5384615384615" y="35.0" class="label" text-anchor="middle">52</text>
  <circle cx="627.0769230769231" cy="40.0" class="point"/>
  <text x="627.0769230769231" y="375" class="label" text-anchor="middle">2026-02-25</text>
  <text x="627.0769230769231" y="35.0" class="label" text-anchor="middle">52</text>
  <circle cx="632.6153846153846" cy="40.0" class="point"/>
  <text x="632.6153846153846" y="375" class="label" text-anchor="middle">2026-02-26</text>
  <text x="632.6153846153846" y="35.0" class="label" text-anchor="middle">52</text>
  <circle cx="638.1538461538462" cy="40.0" class="point"/>
  <text x="638.1538461538462" y="375" class="label" text-anchor="middle">2026-02-27</text>
  <text x="638.1538461538462" y="35.0" class="label" text-anchor="middle">52</text>
  <circle cx="643.6923076923077" cy="40.0" class="point"/>
  <text x="643.6923076923077" y="375" class="label" text-anchor="middle">2026-02-28</text>
  <text x="643.6923076923077" y="35.0" class="label" text-anchor="middle">52</text>
  <circle cx="649.2307692307692" cy="40.0" class="point"/>
  <text x="649.2307692307692" y="375" class="label" text-anchor="middle">2026-03-01</text>
  <text x="649.2307692307692" y="35.0" class="label" text-anchor="middle">52</text>
  <circle cx="654.7692307692307" cy="40.0" class="point"/>
  <text x="654.7692307692307" y="375" class="label" text-anchor="middle">2026-03-02</text>
  <text x="654.7692307692307" y="35.0" class="label" text-anchor="middle">52</text>
  <circle cx="660.3076923076924" cy="40.0" class="point"/>
  <text x="660.3076923076924" y="375" class="label" text-anchor="middle">2026-03-03</text>
  <text x="660.3076923076924" y="35.0" class="label" text-anchor="middle">52</text>
  <circle cx="665.8461538461538" cy="40.0" class="point"/>
  <text x="665.8461538461538" y="375" class="label" text-anchor="middle">2026-03-04</text>
  <text x="665.8461538461538" y="35.0" class="label" text-anchor="middle">52</text>
  <circle cx="671.3846153846154" cy="40.0" class="point"/>
  <text x="671.3846153846154" y="375" class="label" text-anchor="middle">2026-03-05</text>
  <text x="671.3846153846154" y="35.0" class="label" text-anchor="middle">52</text>
  <circle cx="676.9230769230769" cy="40.0" class="point"/>
  <text x="676.9230769230769" y="375" class="label" text-anchor="middle">2026-03-06</text>
  <text x="676.9230769230769" y="35.0" class="label" text-anchor="middle">52</text>
  <circle cx="682.4615384615385" cy="40.0" class="point"/>
  <text x="682.4615384615385" y="375" class="label" text-anchor="middle">2026-03-07</text>
  <text x="682.4615384615385" y="35.0" class="label" text-anchor="middle">52</text>
  <circle cx="688.0" cy="40.0" class="point"/>
  <text x="688.0" y="375" class="label" text-anchor="middle">2026-03-08</text>
  <text x="688.0" y="35.0" class="label" text-anchor="middle">52</text>
  <circle cx="693.5384615384615" cy="40.0" class="point"/>
  <text x="693.5384615384615" y="375" class="label" text-anchor="middle">2026-03-09</text>
  <text x="693.5384615384615" y="35.0" class="label" text-anchor="middle">52</text>
  <circle cx="699.0769230769231" cy="40.0" class="point"/>
  <text x="699.0769230769231" y="375" class="label" text-anchor="middle">2026-03-10</text>
  <text x="699.0769230769231" y="35.0" class="label" text-anchor="middle">52</text>
  <circle cx="704.6153846153846" cy="40.0" class="point"/>
  <text x="704.6153846153846" y="375" class="label" text-anchor="middle">2026-03-11</text>
  <text x="704.6153846153846" y="35.0" class="label" text-anchor="middle">52</text>
  <circle cx="710.1538461538462" cy="40.0" class="point"/>
  <text x="710.1538461538462" y="375" class="label" text-anchor="middle">2026-03-12</text>
  <text x="710.1538461538462" y="35.0" class="label" text-anchor="middle">52</text>
  <circle cx="715.6923076923077" cy="40.0" class="point"/>
  <text x="715.6923076923077" y="375" class="label" text-anchor="middle">2026-03-13</text>
  <text x="715.6923076923077" y="35.0" class="label" text-anchor="middle">52</text>
  <circle cx="721.2307692307692" cy="40.0" class="point"/>
  <text x="721.2307692307692" y="375" class="label" text-anchor="middle">2026-03-14</text>
  <text x="721.2307692307692" y="35.0" class="label" text-anchor="middle">52</text>
  <circle cx="726.7692307692308" cy="40.0" class="point"/>
  <text x="726.7692307692308" y="375" class="label" text-anchor="middle">2026-03-15</text>
  <text x="726.7692307692308" y="35.0" class="label" text-anchor="middle">52</text>
  <circle cx="732.3076923076924" cy="40.0" class="point"/>
  <text x="732.3076923076924" y="375" class="label" text-anchor="middle">2026-03-16</text>
  <text x="732.3076923076924" y="35.0" class="label" text-anchor="middle">52</text>
  <circle cx="737.8461538461538" cy="40.0" class="point"/>
  <text x="737.8461538461538" y="375" class="label" text-anchor="middle">2026-03-17</text>
  <text x="737.8461538461538" y="35.0" class="label" text-anchor="middle">52</text>
  <circle cx="743.3846153846154" cy="40.0" class="point"/>
  <text x="743.3846153846154" y="375" class="label" text-anchor="middle">2026-03-18</text>
  <text x="743.3846153846154" y="35.0" class="label" text-anchor="middle">52</text>
  <circle cx="748.9230769230769" cy="40.0" class="point"/>
  <text x="748.9230769230769" y="375" class="label" text-anchor="middle">2026-03-19</text>
  <text x="748.9230769230769" y="35.0" class="label" text-anchor="middle">52</text>
  <circle cx="754.4615384615385" cy="40.0" class="point"/>
  <text x="754.4615384615385" y="375" class="label" text-anchor="middle">2026-03-20</text>
  <text x="754.4615384615385" y="35.0" class="label" text-anchor="middle">52</text>
  <circle cx="760.0" cy="40.0" class="point"/>
  <text x="760.0" y="375" class="label" text-anchor="middle">2026-03-21</text>
  <text x="760.0" y="35.0" class="label" text-anchor="middle">52</text>
  <text x="30" y="363.0" class="label" text-anchor="end">0</text>
  <text x="30" y="301.46153846153845" class="label" text-anchor="end">10</text>
  <text x="30" y="239.9230769230769" class="label" text-anchor="end">20</text>
  <text x="30" y="178.38461538461542" class="label" text-anchor="end">30</text>
  <text x="30" y="116.84615384615384" class="label" text-anchor="end">40</text>
  <text x="30" y="55.30769230769232" class="label" text-anchor="end">50</text>
</svg>