<svg xmlns="http://www.w3.org/2000/svg" width="800" height="400" viewBox="0 0 800 400">
  <style>
    .axis{stroke:#666;stroke-width:1}
    .line{stroke:#4a9;stroke-width:2;fill:none}
    .point{fill:#4a9;r:4}
    .label{font:10px sans-serif;fill:#aaa}
    .title{font:14px sans-serif;fill:#333}
  </style>
  <text x="400" y="20" class="title" text-anchor="middle">OPIC Field Growth Timeline</text>
  <line x1="40" y1="40" x2="40" y2="360" class="axis"/>
  <line x1="40" y1="360" x2="760" y2="360" class="axis"/>
  <path d="M 40.0,101.53846153846155 L 44.47204968944099,101.53846153846155 L 48.94409937888199,101.53846153846155 L 53.41614906832298,101.53846153846155 L 57.88819875776397,101.53846153846155 L 62.36024844720497,101.53846153846155 L 66.83229813664596,101.53846153846155 L 71.30434782608695,101.53846153846155 L 75.77639751552795,101.53846153846155 L 80.24844720496895,101.53846153846155 L 84.72049689440993,101.53846153846155 L 89.19254658385094,101.53846153846155 L 93.66459627329192,101.53846153846155 L 98.13664596273293,101.53846153846155 L 102.6086956521739,101.53846153846155 L 107.0807453416149,101.53846153846155 L 111.5527950310559,101.53846153846155 L 116.0248447204969,101.53846153846155 L 120.4968944099379,101.53846153846155 L 124.96894409937889,101.53846153846155 L 129.44099378881987,101.53846153846155 L 133.91304347826087,101.53846153846155 L 138.38509316770188,101.53846153846155 L 142.85714285714283,101.53846153846155 L 147.32919254658384,101.53846153846155 L 151.80124223602485,101.53846153846155 L 156.27329192546586,101.53846153846155 L 160.74534161490683,40.0 L 165.2173913043478,40.0 L 169.68944099378882,40.0 L 174.1614906832298,40.0 L 178.6335403726708,40.0 L 183.1055900621118,40.0 L 187.5776397515528,40.0 L 192.0496894409938,40.0 L 196.52173913043478,40.0 L 200.9937888198758,40.0 L 205.46583850931677,40.0 L 209.93788819875778,40.0 L 214.40993788819875,40.0 L 218.88198757763976,40.0 L 223.35403726708074,40.0 L 227.82608695652172,40.0 L 232.29813664596273,40.0 L 236.77018633540374,40.0 L 241.24223602484471,40.0 L 245.7142857142857,40.0 L 250.1863354037267,40.0 L 254.6583850931677,40.0 L 259.13043478260875,40.0 L 263.6024844720497,40.0 L 268.07453416149065,40.0 L 272.5465838509317,40.0 L 277.01863354037266,40.0 L 281.49068322981367,40.0 L 285.9627329192547,40.0 L 290.4347826086956,40.0 L 294.90683229813664,40.0 L 299.37888198757764,40.0 L 303.85093167701865,40.0 L 308.3229813664596,40.0 L 312.7950310559006,40.0 L 317.2670807453416,40.0 L 321.7391304347826,40.0 L 326.2111801242236,40.0 L 330.6832298136646,40.0 L 335.1552795031056,40.0 L 339.6273291925466,40.0 L 344.0993788819876,40.0 L 348.57142857142856,40.0 L 353.04347826086956,40.0 L 357.51552795031057,40.0 L 361.9875776397516,40.0 L 366.4596273291926,40.0 L 370.93167701863354,40.0 L 375.40372670807454,40.0 L 379.87577639751555,40.0 L 384.34782608695656,40.0 L 388.8198757763975,40.0 L 393.2919254658385,40.0 L 397.7639751552795,40.0 L 402.2360248447205,40.0 L 406.7080745341615,40.0 L 411.1801242236025,40.0 L 415.65217391304344,40.0 L 420.12422360248445,40.0 L 424.59627329192546,40.0 L 429.06832298136646,40.0 L 433.54037267080747,40.0 L 438.0124223602485,40.0 L 442.48447204968943,40.0 L 446.9565217391304,40.0 L 451.4285714285714,40.0 L 455.9006211180124,40.0 L 460.3726708074534,40.0 L 464.8447204968944,40.0 L 469.3167701863354,40.0 L 473.7888198757764,40.0 L 478.26086956521743,40.0 L 482.73291925465844,40.0 L 487.20496894409933,40.0 L 491.67701863354034,40.0 L 496.14906832298135,40.0 L 500.62111801242236,40.0 L 505.09316770186336,40.0 L 509.5652173913044,40.0 L 514.0372670807453,40.0 L 518.5093167701864,40.0 L 522.9813664596273,40.0 L 527.4534161490683,40.0 L 531.9254658385094,40.0 L 536.3975155279503,40.0 L 540.8695652173913,40.0 L 545.3416149068323,40.0 L 549.8136645962733,40.0 L 554.2857142857143,40.0 L 558.7577639751553,40.0 L 563.2298136645963,40.0 L 567.7018633540373,40.0 L 572.1739130434783,40.0 L 576.6459627329192,40.0 L 581.1180124223603,40.0 L 585.5900621118012,40.0 L 590.0621118012423,40.0 L 594.5341614906832,40.0 L 599.0062111801242,40.0 L 603.4782608695652,40.0 L 607.9503105590062,40.0 L 612.4223602484471,40.0 L 616.8944099378882,40.0 L 621.3664596273292,40.0 L 625.8385093167702,40.0 L 630.3105590062112,40.0 L 634.7826086956521,40.0 L 639.2546583850932,40.0 L 643.7267080745341,40.0 L 648.1987577639752,40.0 L 652.6708074534162,40.0 L 657.1428571428571,40.0 L 661.6149068322981,40.0 L 666.0869565217391,40.0 L 670.5590062111801,40.0 L 675.0310559006211,40.0 L 679.5031055900621,40.0 L 683.9751552795032,40.0 L 688.4472049689441,40.0 L 692.9192546583852,40.0 L 697.391304347826,40.0 L 701.8633540372671,40.0 L 706.335403726708,40.0 L 710.8074534161491,40.0 L 715.27950310559,40.0 L 719.7515527950311,40.0 L 724.223602484472,40.0 L 728.6956521739131,40.0 L 733.1677018633541,40.0 L 737.639751552795,40.0 L 742.111801242236,40.0 L 746.583850931677,40.0 L 751.055900621118,40.0 L 755.527950310559,40.0 L 760.0,40.0" class="line"/>
  <circle cx="40.0" cy="101.53846153846155" class="point"/>
  <text x="40.0" y="375" class="label" text-anchor="middle">2025-11-11</text>
  <text x="40.0" y="96.53846153846155" class="label" text-anchor="middle">42</text>
  <circle cx="44.47204968944099" cy="101.53846153846155" class="point"/>
  <text x="44.47204968944099" y="375" class="label" text-anchor="middle">2025-11-12</text>
  <text x="44.47204968944099" y="96.53846153846155" class="label" text-anchor="middle">42</text>
  <circle cx="48.94409937888199" cy="101.53846153846155" class="point"/>
  <text x="48.94409937888199" y="375" class="label" text-anchor="middle">2025-11-13</text>
  <text x="48.94409937888199" y="96.53846153846155" class="label" text-anchor="middle">42</text>
  <circle cx="53.41614906832298" cy="101.53846153846155" class="point"/>
  <text x="53.41614906832298" y="375" class="label" text-anchor="middle">2025-11-14</text>
  <text x="53.41614906832298" y="96.53846153846155" class="label" text-anchor="middle">42</text>
  <circle cx="57.88819875776397" cy="101.53846153846155" class="point"/>
  <text x="57.88819875776397" y="375" class="label" text-anchor="middle">2025-11-15</text>
  <text x="57.88819875776397" y="96.53846153846155" class="label" text-anchor="middle">42</text>
  <circle cx="62.36024844720497" cy="101.53846153846155" class="point"/>
  <text x="62.36024844720497" y="375" class="label" text-anchor="middle">2025-11-16</text>
  <text x="62.36024844720497" y="96.53846153846155" class="label" text-anchor="middle">42</text>
  <circle cx="66.83229813664596" cy="101.53846153846155" class="point"/>
  <text x="66.83229813664596" y="375" class="label" text-anchor="middle">2025-11-17</text>
  <text x="66.83229813664596" y="96.53846153846155" class="label" text-anchor="middle">42</text>
  <circle cx="71.30434782608695" cy="101.53846153846155" class="point"/>
  <text x="71.30434782608695" y="375" class="label" text-anchor="middle">2025-11-18</text>
  <text x="71.30434782608695" y="96.53846153846155" class="label" text-anchor="middle">42</text>
  <circle cx="75.77639751552795" cy="101.53846153846155" class="point"/>
  <text x="75.77639751552795" y="375" class="label" text-anchor="middle">2025-11-19</text>
  <text x="75.77639751552795" y="96.53846153846155" class="label" text-anchor="middle">42</text>
  <circle cx="80.24844720496895" cy="101.53846153846155" class="point"/>
  <text x="80.24844720496895" y="375" class="label" text-anchor="middle">2025-11-20</text>
  <text x="80.24844720496895" y="96.53846153846155" class="label" text-anchor="middle">42</text>
  <circle cx="84.72049689440993" cy="101.53846153846155" class="point"/>
  <text x="84.72049689440993" y="375" class="label" text-anchor="middle">2025-11-21</text>
  <text x="84.72049689440993" y="96.53846153846155" class="label" text-anchor="middle">42</text>
  <circle cx="89.19254658385094" cy="101.53846153846155" class="point"/>
  <text x="89.19254658385094" y="375" class="label" text-anchor="middle">2025-11-22</text>
  <text x="89.19254658385094" y="96.53846153846155" class="label" text-anchor="middle">42</text>
  <circle cx="93.66459627329192" cy="101.53846153846155" class="point"/>
  <text x="93.66459627329192" y="375" class="label" text-anchor="middle">2025-11-23</text>
  <text x="93.66459627329192" y="96.53846153846155" class="label" text-anchor="middle">42</text>
  <circle cx="98.13664596273293" cy="101.53846153846155" class="point"/>
  <text x="98.13664596273293" y="375" class="label" text-anchor="middle">2025-11-24</text>
  <text x="98.13664596273293" y="96.53846153846155" class="label" text-anchor="middle">42</text>
  <circle cx="102.6086956521739" cy="101.53846153846155" class="point"/>
  <text x="102.6086956521739" y="375" class="label" text-anchor="middle">2025-11-25</text>
  <text x="102.6086956521739" y="96.53846153846155" class="label" text-anchor="middle">42</text>
  <circle cx="107.0807453416149" cy="101.53846153846155" class="point"/>
  <text x="107.0807453416149" y="375" class="label" text-anchor="middle">2025-11-26</text>
  <text x="107.0807453416149" y="96.53846153846155" class="label" text-anchor="middle">42</text>
  <circle cx="111.5527950310559" cy="101.53846153846155" class="point"/>
  <text x="111.5527950310559" y="375" class="label" text-anchor="middle">2025-11-27</text>
  <text x="111.5527950310559" y="96.53846153846155" class="label" text-anchor="middle">42</text>
  <circle cx="116.0248447204969" cy="101.53846153846155" class="point"/>
  <text x="116.0248447204969" y="375" class="label" text-anchor="middle">2025-11-28</text>
  <text x="116.0248447204969" y="96.53846153846155" class="label" text-anchor="middle">42</text>
  <circle cx="120.4968944099379" cy="101.53846153846155" class="point"/>
  <text x="120.4968944099379" y="375" class="label" text-anchor="middle">2025-11-29</text>
  <text x="120.4968944099379" y="96.53846153846155" class="label" text-anchor="middle">42</text>
  <circle cx="124.96894409937889" cy="101.53846153846155" class="point"/>
  <text x="124.96894409937889" y="375" class="label" text-anchor="middle">2025-11-30</text>
  <text x="124.96894409937889" y="96.53846153846155" class="label" text-anchor="middle">42</text>
  <circle cx="129.44099378881987" cy="101.53846153846155" class="point"/>
  <text x="129.44099378881987" y="375" class="label" text-anchor="middle">2025-12-01</text>
  <text x="129.44099378881987" y="96.53846153846155" class="label" text-anchor="middle">42</text>
  <circle cx="133.91304347826087" cy="101.53846153846155" class="point"/>
  <text x="133.91304347826087" y="375" class="label" text-anchor="middle">2025-12-02</text>
  <text x="133.91304347826087" y="96.53846153846155" class="label" text-anchor="middle">42</text>
  <circle cx="138.38509316770188" cy="101.53846153846155" class="point"/>
  <text x="138.38509316770188" y="375" class="label" text-anchor="middle">2025-12-03</text>
  <text x="138.38509316770188" y="96.53846153846155" class="label" text-anchor="middle">42</text>
  <circle cx="142.85714285714283" cy="101.53846153846155" class="point"/>
  <text x="142.85714285714283" y="375" class="label" text-anchor="middle">2025-12-04</text>
  <text x="142.85714285714283" y="96.53846153846155" class="label" text-anchor="middle">42</text>
  <circle cx="147.32919254658384" cy="101.53846153846155" class="point"/>
  <text x="147.32919254658384" y="375" class="label" text-anchor="middle">2025-12-05</text>
  <text x="147.32919254658384" y="96.53846153846155" class="label" text-anchor="middle">42</text>
  <circle cx="151.80124223602485" cy="101.53846153846155" class="point"/>
  <text x="151.80124223602485" y="375" class="label" text-anchor="middle">2025-12-06</text>
  <text x="151.80124223602485" y="96.53846153846155" class="label" text-anchor="middle">42</text>
  <circle cx="156.27329192546586" cy="101.53846153846155" class="point"/>
  <text x="156.27329192546586" y="375" class="label" text-anchor="middle">2025-12-07</text>
  <text x="156.27329192546586" y="96.53846153846155" class="label" text-anchor="middle">42</text>
  <circle cx="160.74534161490683" cy="40.0" class="point"/>
  <text x="160.74534161490683" y="375" class="label" text-anchor="middle">2025-12-08</text>
  <text x="160.74534161490683" y="35.0" class="label" text-anchor="middle">52</text>
  <circle cx="165.2173913043478" cy="40.0" class="point"/>
  <text x="165.2173913043478" y="375" class="label" text-anchor="middle">2025-12-09</text>
  <text x="165.2173913043478" y="35.0" class="label" text-anchor="middle">52</text>
  <circle cx="169.68944099378882" cy="40.0" class="point"/>
  <text x="169.68944099378882" y="375" class="label" text-anchor="middle">2025-12-10</text>
  <text x="169.68944099378882" y="35.0" class="label" text-anchor="middle">52</text>
  <circle cx="174.1614906832298" cy="40.0" class="point"/>
  <text x="174.1614906832298" y="375" class="label" text-anchor="middle">2025-12-11</text>
  <text x="174.1614906832298" y="35.0" class="label" text-anchor="middle">52</text>
  <circle cx="178.6335403726708" cy="40.0" class="point"/>
  <text x="178.6335403726708" y="375" class="label" text-anchor="middle">2025-12-12</text>
  <text x="178.6335403726708" y="35.0" class="label" text-anchor="middle">52</text>
  <circle cx="183.1055900621118" cy="40.0" class="point"/>
  <text x="183.1055900621118" y="375" class="label" text-anchor="middle">2025-12-13</text>
  <text x="183.1055900621118" y="35.0" class="label" text-anchor="middle">52</text>
  <circle cx="187.5776397515528" cy="40.0" class="point"/>
  <text x="187.5776397515528" y="375" class="label" text-anchor="middle">2025-12-14</text>
  <text x="187.5776397515528" y="35.0" class="label" text-anchor="middle">52</text>
  <circle cx="192.0496894409938" cy="40.0" class="point"/>
  <text x="192.0496894409938" y="375" class="label" text-anchor="middle">2025-12-15</text>
  <text x="192.0496894409938" y="35.0" class="label" text-anchor="middle">52</text>
  <circle cx="196.52173913043478" cy="40.0" class="point"/>
  <text x="196.52173913043478" y="375" class="label" text-anchor="middle">2025-12-16</text>
  <text x="196.52173913043478" y="35.0" class="label" text-anchor="middle">52</text>
  <circle cx="200.9937888198758" cy="40.0" class="point"/>
  <text x="200.9937888198758" y="375" class="label" text-anchor="middle">2025-12-17</text>
  <text x="200.9937888198758" y="35.0" class="label" text-anchor="middle">52</text>
  <circle cx="205.46583850931677" cy="40.0" class="point"/>
  <text x="205.46583850931677" y="375" class="label" text-anchor="middle">2025-12-18</text>
  <text x="205.46583850931677" y="35.0" class="label" text-anchor="middle">52</text>
  <circle cx="209.93788819875778" cy="40.0" class="point"/>
  <text x="209.93788819875778" y="375" class="label" text-anchor="middle">2025-12-19</text>
  <text x="209.93788819875778" y="35.0" class="label" text-anchor="middle">52</text>
  <circle cx="214.40993788819875" cy="40.0" class="point"/>
  <text x="214.40993788819875" y="375" class="label" text-anchor="middle">2025-12-20</text>
  <text x="214.40993788819875" y="35.0" class="label" text-anchor="middle">52</text>
  <circle cx="218.88198757763976" cy="40.0" class="point"/>
  <text x="218.88198757763976" y="375" class="label" text-anchor="middle">2025-12-21</text>
  <text x="218.88198757763976" y="35.0" class="label" text-anchor="middle">52</text>
  <circle cx="223.35403726708074" cy="40.0" class="point"/>
  <text x="223.35403726708074" y="375" class="label" text-anchor="middle">2025-12-22</text>
  <text x="223.35403726708074" y="35.0" class="label" text-anchor="middle">52</text>
  <circle cx="227.82608695652172" cy="40.0" class="point"/>
  <text x="227.82608695652172" y="375" class="label" text-anchor="middle">2025-12-23</text>
  <text x="227.82608695652172" y="35.0" class="label" text-anchor="middle">52</text>
  <circle cx="232.29813664596273" cy="40.0" class="point"/>
  <text x="232.29813664596273" y="375" class="label" text-anchor="middle">2025-12-24</text>
  <text x="232.29813664596273" y="35.0" class="label" text-anchor="middle">52</text>
  <circle cx="236.77018633540374" cy="40.0" class="point"/>
  <text x="236.77018633540374" y="375" class="label" text-anchor="middle">2025-12-25</text>
  <text x="236.77018633540374" y="35.0" class="label" text-anchor="middle">52</text>
  <circle cx="241.24223602484471" cy="40.0" class="point"/>
  <text x="241.24223602484471" y="375" class="label" text-anchor="middle">2025-12-26</text>
  <text x="241.24223602484471" y="35.0" class="label" text-anchor="middle">52</text>
  <circle cx="245.7142857142857" cy="40.0" class="point"/>
  <text x="245.7142857142857" y="375" class="label" text-anchor="middle">2025-12-27</text>
  <text x="245.7142857142857" y="35.0" class="label" text-anchor="middle">52</text>
  <circle cx="250.1863354037267" cy="40.0" class="point"/>
  <text x="250.1863354037267" y="375" class="label" text-anchor="middle">2025-12-28</text>
  <text x="250.1863354037267" y="35.0" class="label" text-anchor="middle">52</text>
  <circle cx="254.6583850931677" cy="40.0" class="point"/>
  <text x="254.6583850931677" y="375" class="label" text-anchor="middle">2025-12-29</text>
  <text x="254.6583850931677" y="35.0" class="label" text-anchor="middle">52</text>
  <circle cx="259.13043478260875" cy="40.0" class="point"/>
  <text x="259.13043478260875" y="375" class="label" text-anchor="middle">2025-12-30</text>
  <text x="259.13043478260875" y="35.0" class="label" text-anchor="middle">52</text>
  <circle cx="263.6024844720497" cy="40.0" class="point"/>
  <text x="263.6024844720497" y="375" class="label" text-anchor="middle">2025-12-31</text>
  <text x="263.6024844720497" y="35.0" class="label" text-anchor="middle">52</text>
  <circle cx="268.07453416149065" cy="40.0" class="point"/>
  <text x="268.07453416149065" y="375" class="label" text-anchor="middle">2026-01-01</text>
  <text x="268.07453416149065" y="35.0" class="label" text-anchor="middle">52</text>
  <circle cx="272.5465838509317" cy="40.0" class="point"/>
  <text x="272.5465838509317" y="375" class="label" text-anchor="middle">2026-01-02</text>
  <text x="272.5465838509317" y="35.0" class="label" text-anchor="middle">52</text>
  <circle cx="277.01863354037266" cy="40.0" class="point"/>
  <text x="277.01863354037266" y="375" class="label" text-anchor="middle">2026-01-03</text>
  <text x="277.01863354037266" y="35.0" class="label" text-anchor="middle">52</text>
  <circle cx="281.49068322981367" cy="40.0" class="point"/>
  <text x="281.49068322981367" y="375" class="label" text-anchor="middle">2026-01-04</text>
  <text x="281.49068322981367" y="35.0" class="label" text-anchor="middle">52</text>
  <circle cx="285.9627329192547" cy="40.0" class="point"/>
  <text x="285.9627329192547" y="375" class="label" text-anchor="middle">2026-01-05</text>
  <text x="285.9627329192547" y="35.0" class="label" text-anchor="middle">52</text>
  <circle cx="290.4347826086956" cy="40.0" class="point"/>
  <text x="290.4347826086956" y="375" class="label" text-anchor="middle">2026-01-06</text>
  <text x="290.4347826086956" y="35.0" class="label" text-anchor="middle">52</text>
  <circle cx="294.90683229813664" cy="40.0" class="point"/>
  <text x="294.90683229813664" y="375" class="label" text-anchor="middle">2026-01-07</text>
  <text x="294.90683229813664" y="35.0" class="label" text-anchor="middle">52</text>
  <circle cx="299.37888198757764" cy="40.0" class="point"/>
  <text x="299.37888198757764" y="375" class="label" text-anchor="middle">2026-01-08</text>
  <text x="299.37888198757764" y="35.0" class="label" text-anchor="middle">52</text>
  <circle cx="303.85093167701865" cy="40.0" class="point"/>
  <text x="303.85093167701865" y="375" class="label" text-anchor="middle">2026-01-09</text>
  <text x="303.85093167701865" y="35.0" class="label" text-anchor="middle">52</text>
  <circle cx="308.3229813664596" cy="40.0" class="point"/>
  <text x="308.3229813664596" y="375" class="label" text-anchor="middle">2026-01-10</text>
  <text x="308.3229813664596" y="35.0" class="label" text-anchor="middle">52</text>
  <circle cx="312.7950310559006" cy="40.0" class="point"/>
  <text x="312.7950310559006" y="375" class="label" text-anchor="middle">2026-01-11</text>
  <text x="312.7950310559006" y="35.0" class="label" text-anchor="middle">52</text>
  <circle cx="317.2670807453416" cy="40.0" class="point"/>
  <text x="317.2670807453416" y="375" class="label" text-anchor="middle">2026-01-12</text>
  <text x="317.2670807453416" y="35.0" class="label" text-anchor="middle">52</text>
  <circle cx="321.7391304347826" cy="40.0" class="point"/>
  <text x="321.7391304347826" y="375" class="label" text-anchor="middle">2026-01-13</text>
  <text x="321.7391304347826" y="35.0" class="label" text-anchor="middle">52</text>
  <circle cx="326.2111801242236" cy="40.0" class="point"/>
  <text x="326.2111801242236" y="375" class="label" text-anchor="middle">2026-01-14</text>
  <text x="326.2111801242236" y="35.0" class="label" text-anchor="middle">52</text>
  <circle cx="330.6832298136646" cy="40.0" class="point"/>
  <text x="330.6832298136646" y="375" class="label" text-anchor="middle">2026-01-15</text>
  <text x="330.6832298136646" y="35.0" class="label" text-anchor="middle">52</text>
  <circle cx="335.1552795031056" cy="40.0" class="point"/>
  <text x="335.1552795031056" y="375" class="label" text-anchor="middle">2026-01-16</text>
  <text x="335.1552795031056" y="35.0" class="label" text-anchor="middle">52</text>
  <circle cx="339.6273291925466" cy="40.0" class="point"/>
  <text x="339.6273291925466" y="375" class="label" text-anchor="middle">2026-01-17</text>
  <text x="339.6273291925466" y="35.0" class="label" text-anchor="middle">52</text>
  <circle cx="344.0993788819876" cy="40.0" class="point"/>
  <text x="344.0993788819876" y="375" class="label" text-anchor="middle">2026-01-18</text>
  <text x="344.0993788819876" y="35.0" class="label" text-anchor="middle">52</text>
  <circle cx="348.57142857142856" cy="40.0" class="point"/>
  <text x="348.57142857142856" y="375" class="label" text-anchor="middle">2026-01-19</text>
  <text x="348.57142857142856" y="35.0" class="label" text-anchor="middle">52</text>
  <circle cx="353.04347826086956" cy="40.0" class="point"/>
  <text x="353.04347826086956" y="375" class="label" text-anchor="middle">2026-01-20</text>
  <text x="353.04347826086956" y="35.0" class="label" text-anchor="middle">52</text>
  <circle cx="357.51552795031057" cy="40.0" class="point"/>
  <text x="357.51552795031057" y="375" class="label" text-anchor="middle">2026-01-21</text>
  <text x="357.51552795031057" y="35.0" class="label" text-anchor="middle">52</text>
  <circle cx="361.9875776397516" cy="40.0" class="point"/>
  <text x="361.9875776397516" y="375" class="label" text-anchor="middle">2026-01-22</text>
  <text x="361.9875776397516" y="35.0" class="label" text-anchor="middle">52</text>
  <circle cx="366.4596273291926" cy="40.0" class="point"/>
  <text x="366.4596273291926" y="375" class="label" text-anchor="middle">2026-01-23</text>
  <text x="366.4596273291926" y="35.0" class="label" text-anchor="middle">52</text>
  <circle cx="370.93167701863354" cy="40.0" class="point"/>
  <text x="370.93167701863354" y="375" class="label" text-anchor="middle">2026-01-24</text>
  <text x="370.93167701863354" y="35.0" class="label" text-anchor="middle">52</text>
  <circle cx="375.40372670807454" cy="40.0" class="point"/>
  <text x="375.40372670807454" y="375" class="label" text-anchor="middle">2026-01-25</text>
  <text x="375.40372670807454" y="35.0" class="label" text-anchor="middle">52</text>
  <circle cx="379.87577639751555" cy="40.0" class="point"/>
  <text x="379.87577639751555" y="375" class="label" text-anchor="middle">2026-01-26</text>
  <text x="379.87577639751555" y="35.0" class="label" text-anchor="middle">52</text>
  <circle cx="384.34782608695656" cy="40.0" class="point"/>
  <text x="384.34782608695656" y="375" class="label" text-anchor="middle">2026-01-27</text>
  <text x="384.34782608695656" y="35.0" class="label" text-anchor="middle">52</text>
  <circle cx="388.8198757763975" cy="40.0" class="point"/>
  <text x="388.8198757763975" y="375" class="label" text-anchor="middle">2026-01-28</text>
  <text x="388.8198757763975" y="35.0" class="label" text-anchor="middle">52</text>
  <circle cx="393.2919254658385" cy="40.0" class="point"/>
  <text x="393.2919254658385" y="375" class="label" text-anchor="middle">2026-01-29</text>
  <text x="393.2919254658385" y="35.0" class="label" text-anchor="middle">52</text>
  <circle cx="397.7639751552795" cy="40.0" class="point"/>
  <text x="397.7639751552795" y="375" class="label" text-anchor="middle">2026-01-30</text>
  <text x="397.7639751552795" y="35.0" class="label" text-anchor="middle">52</text>
  <circle cx="402.2360248447205" cy="40.0" class="point"/>
  <text x="402.2360248447205" y="375" class="label" text-anchor="middle">2026-01-31</text>
  <text x="402.2360248447205" y="35.0" class="label" text-anchor="middle">52</text>
  <circle cx="406.7080745341615" cy="40.0" class="point"/>
  <text x="406.7080745341615" y="375" class="label" text-anchor="middle">2026-02-01</text>
  <text x="406.7080745341615" y="35.0" class="label" text-anchor="middle">52</text>
  <circle cx="411.1801242236025" cy="40.0" class="point"/>
  <text x="411.1801242236025" y="375" class="label" text-anchor="middle">2026-02-02</text>
  <text x="411.1801242236025" y="35.0" class="label" text-anchor="middle">52</text>
  <circle cx="415.65217391304344" cy="40.0" class="point"/>
  <text x="415.65217391304344" y="375" class="label" text-anchor="middle">2026-02-03</text>
  <text x="415.65217391304344" y="35.0" class="label" text-anchor="middle">52</text>
  <circle cx="420.12422360248445" cy="40.0" class="point"/>
  <text x="420.12422360248445" y="375" class="label" text-anchor="middle">2026-02-04</text>
  <text x="420.12422360248445" y="35.0" class="label" text-anchor="middle">52</text>
  <circle cx="424.59627329192546" cy="40.0" class="point"/>
  <text x="424.59627329192546" y="375" class="label" text-anchor="middle">2026-02-05</text>
  <text x="424.59627329192546" y="35.0" class="label" text-anchor="middle">52</text>
  <circle cx="429.06832298136646" cy="40.0" class="point"/>
  <text x="429.06832298136646" y="375" class="label" text-anchor="middle">2026-02-06</text>
  <text x="429.06832298136646" y="35.0" class="label" text-anchor="middle">52</text>
  <circle cx="433.54037267080747" cy="40.0" class="point"/>
  <text x="433.54037267080747" y="375" class="label" text-anchor="middle">2026-02-07</text>
  <text x="433.54037267080747" y="35.0" class="label" text-anchor="middle">52</text>
  <circle cx="438.0124223602485" cy="40.0" class="point"/>
  <text x="438.0124223602485" y="375" class="label" text-anchor="middle">2026-02-08</text>
  <text x="438.0124223602485" y="35.0" class="label" text-anchor="middle">52</text>
  <circle cx="442.48447204968943" cy="40.0" class="point"/>
  <text x="442.48447204968943" y="375" class="label" text-anchor="middle">2026-02-09</text>
  <text x="442.48447204968943" y="35.0" class="label" text-anchor="middle">52</text>
  <circle cx="446.9565217391304" cy="40.0" class="point"/>
  <text x="446.9565217391304" y="375" class="label" text-anchor="middle">2026-02-10</text>
  <text x="446.9565217391304" y="35.0" class="label" text-anchor="middle">52</text>
  <circle cx="451.4285714285714" cy="40.0" class="point"/>
  <text x="451.4285714285714" y="375" class="label" text-anchor="middle">2026-02-11</text>
  <text x="451.4285714285714" y="35.0" class="label" text-anchor="middle">52</text>
  <circle cx="455.9006211180124" cy="40.0" class="point"/>
  <text x="455.9006211180124" y="375" class="label" text-anchor="middle">2026-02-12</text>
  <text x="455.9006211180124" y="35.0" class="label" text-anchor="middle">52</text>
  <circle cx="460.3726708074534" cy="40.0" class="point"/>
  <text x="460.3726708074534" y="375" class="label" text-anchor="middle">2026-02-13</text>
  <text x="460.3726708074534" y="35.0" class="label" text-anchor="middle">52</text>
  <circle cx="464.8447204968944" cy="40.0" class="point"/>
  <text x="464.8447204968944" y="375" class="label" text-anchor="middle">2026-02-14</text>
  <text x="464.8447204968944" y="35.0" class="label" text-anchor="middle">52</text>
  <circle cx="469.3167701863354" cy="40.0" class="point"/>
  <text x="469.3167701863354" y="375" class="label" text-anchor="middle">2026-02-15</text>
  <text x="469.3167701863354" y="35.0" class="label" text-anchor="middle">52</text>
  <circle cx="473.7888198757764" cy="40.0" class="point"/>
  <text x="473.7888198757764" y="375" class="label" text-anchor="middle">2026-02-16</text>
  <text x="473.7888198757764" y="35.0" class="label" text-anchor="middle">52</text>
  <circle cx="478.26086956521743" cy="40.0" class="point"/>
  <text x="478.26086956521743" y="375" class="label" text-anchor="middle">2026-02-17</text>
  <text x="478.26086956521743" y="35.0" class="label" text-anchor="middle">52</text>
  <circle cx="482.73291925465844" cy="40.0" class="point"/>
  <text x="482.73291925465844" y="375" class="label" text-anchor="middle">2026-02-18</text>
  <text x="482.73291925465844" y="35.0" class="label" text-anchor="middle">52</text>
  <circle cx="487.20496894409933" cy="40.0" class="point"/>
  <text x="487.20496894409933" y="375" class="label" text-anchor="middle">2026-02-19</text>
  <text x="487.20496894409933" y="35.0" class="label" text-anchor="middle">52</text>
  <circle cx="491.67701863354034" cy="40.0" class="point"/>
  <text x="491.67701863354034" y="375" class="label" text-anchor="middle">2026-02-20</text>
  <text x="491.67701863354034" y="35.0" class="label" text-anchor="middle">52</text>
  <circle cx="496.14906832298135" cy="40.0" class="point"/>
  <text x="496.14906832298135" y="375" class="label" text-anchor="middle">2026-02-21</text>
  <text x="496.14906832298135" y="35.0" class="label" text-anchor="middle">52</text>
  <circle cx="500.62111801242236" cy="40.0" class="point"/>
  <text x="500.62111801242236" y="375" class="label" text-anchor="middle">2026-02-22</text>
  <text x="500.62111801242236" y="35.0" class="label" text-anchor="middle">52</text>
  <circle cx="505.09316770186336" cy="40.0" class="point"/>
  <text x="505.09316770186336" y="375" class="label" text-anchor="middle">2026-02-23</text>
  <text x="505.09316770186336" y="35.0" class="label" text-anchor="middle">52</text>
  <circle cx="509.5652173913044" cy="40.0" class="point"/>
  <text x="509.5652173913044" y="375" class="label" text-anchor="middle">2026-02-24</text>
  <text x="509.5652173913044" y="35.0" class="label" text-anchor="middle">52</text>
  <circle cx="514.0372670807453" cy="40.0" class="point"/>
  <text x="514.0372670807453" y="375" class="label" text-anchor="middle">2026-02-25</text>
  <text x="514.0372670807453" y="35.0" class="label" text-anchor="middle">52</text>
  <circle cx="518.5093167701864" cy="40.0" class="point"/>
  <text x="518.5093167701864" y="375" class="label" text-anchor="middle">2026-02-26</text>
  <text x="518.5093167701864" y="35.0" class="label" text-anchor="middle">52</text>
  <circle cx="522.9813664596273" cy="40.0" class="point"/>
  <text x="522.9813664596273" y="375" class="label" text-anchor="middle">2026-02-27</text>
  <text x="522.9813664596273" y="35.0" class="label" text-anchor="middle">52</text>
  <circle cx="527.4534161490683" cy="40.0" class="point"/>
  <text x="527.4534161490683" y="375" class="label" text-anchor="middle">2026-02-28</text>
  <text x="527.4534161490683" y="35.0" class="label" text-anchor="middle">52</text>
  <circle cx="531.9254658385094" cy="40.0" class="point"/>
  <text x="531.9254658385094" y="375" class="label" text-anchor="middle">2026-03-01</text>
  <text x="531.9254658385094" y="35.0" class="label" text-anchor="middle">52</text>
  <circle cx="536.3975155279503" cy="40.0" class="point"/>
  <text x="536.3975155279503" y="375" class="label" text-anchor="middle">2026-03-02</text>
  <text x="536.3975155279503" y="35.0" class="label" text-anchor="middle">52</text>
  <circle cx="540.8695652173913" cy="40.0" class="point"/>
  <text x="540.8695652173913" y="375" class="label" text-anchor="middle">2026-03-03</text>
  <text x="540.8695652173913" y="35.0" class="label" text-anchor="middle">52</text>
  <circle cx="545.3416149068323" cy="40.0" class="point"/>
  <text x="545.3416149068323" y="375" class="label" text-anchor="middle">2026-03-04</text>
  <text x="545.3416149068323" y="35.0" class="label" text-anchor="middle">52</text>
  <circle cx="549.8136645962733" cy="40.0" class="point"/>
  <text x="549.8136645962733" y="375" class="label" text-anchor="middle">2026-03-05</text>
  <text x="549.8136645962733" y="35.0" class="label" text-anchor="middle">52</text>
  <circle cx="554.2857142857143" cy="40.0" class="point"/>
  <text x="554.2857142857143" y="375" class="label" text-anchor="middle">2026-03-06</text>
  <text x="554.2857142857143" y="35.0" class="label" text-anchor="middle">52</text>
  <circle cx="558.7577639751553" cy="40.0" class="point"/>
  <text x="558.7577639751553" y="375" class="label" text-anchor="middle">2026-03-07</text>
  <text x="558.7577639751553" y="35.0" class="label" text-anchor="middle">52</text>
  <circle cx="563.2298136645963" cy="40.0" class="point"/>
  <text x="563.2298136645963" y="375" class="label" text-anchor="middle">2026-03-08</text>
  <text x="563.2298136645963" y="35.0" class="label" text-anchor="middle">52</text>
  <circle cx="567.7018633540373" cy="40.0" class="point"/>
  <text x="567.7018633540373" y="375" class="label" text-anchor="middle">2026-03-09</text>
  <text x="567.7018633540373" y="35.0" class="label" text-anchor="middle">52</text>
  <circle cx="572.1739130434783" cy="40.0" class="point"/>
  <text x="572.1739130434783" y="375" class="label" text-anchor="middle">2026-03-10</text>
  <text x="572.1739130434783" y="35.0" class="label" text-anchor="middle">52</text>
  <circle cx="576.6459627329192" cy="40.0" class="point"/>
  <text x="576.6459627329192" y="375" class="label" text-anchor="middle">2026-03-11</text>
  <text x="576.6459627329192" y="35.0" class="label" text-anchor="middle">52</text>
  <circle cx="581.1180124223603" cy="40.0" class="point"/>
  <text x="581.1180124223603" y="375" class="label" text-anchor="middle">2026-03-12</text>
  <text x="581.1180124223603" y="35.0" class="label" text-anchor="middle">52</text>
  <circle cx="585.5900621118012" cy="40.0" class="point"/>
  <text x="585.5900621118012" y="375" class="label" text-anchor="middle">2026-03-13</text>
  <text x="585.5900621118012" y="35.0" class="label" text-anchor="middle">52</text>
  <circle cx="590.0621118012423" cy="40.0" class="point"/>
  <text x="590.0621118012423" y="375" class="label" text-anchor="middle">2026-03-14</text>
  <text x="590.0621118012423" y="35.0" class="label" text-anchor="middle">52</text>
  <circle cx="594.5341614906832" cy="40.0" class="point"/>
  <text x="594.5341614906832" y="375" class="label" text-anchor="middle">2026-03-15</text>
  <text x="594.5341614906832" y="35.0" class="label" text-anchor="middle">52</text>
  <circle cx="599.0062111801242" cy="40.0" class="point"/>
  <text x="599.0062111801242" y="375" class="label" text-anchor="middle">2026-03-16</text>
  <text x="599.0062111801242" y="35.0" class="label" text-anchor="middle">52</text>
  <circle cx="603.4782608695652" cy="40.0" class="point"/>
  <text x="603.4782608695652" y="375" class="label" text-anchor="middle">2026-03-17</text>
  <text x="603.4782608695652" y="35.0" class="label" text-anchor="middle">52</text>
  <circle cx="607.9503105590062" cy="40.0" class="point"/>
  <text x="607.9503105590062" y="375" class="label" text-anchor="middle">2026-03-18</text>
  <text x="607.9503105590062" y="35.0" class="label" text-anchor="middle">52</text>
  <circle cx="612.4223602484471" cy="40.0" class="point"/>
  <text x="612.4223602484471" y="375" class="label" text-anchor="middle">2026-03-19</text>
  <text x="612.4223602484471" y="35.0" class="label" text-anchor="middle">52</text>
  <circle cx="616.8944099378882" cy="40.0" class="point"/>
  <text x="616.8944099378882" y="375" class="label" text-anchor="middle">2026-03-20</text>
  <text x="616.8944099378882" y="35.0" class="label" text-anchor="middle">52</text>
  <circle cx="621.3664596273292" cy="40.0" class="point"/>
  <text x="621.3664596273292" y="375" class="label" text-anchor="middle">2026-03-21</text>
  <text x="621.3664596273292" y="35.0" class="label" text-anchor="middle">52</text>
  <circle cx="625.8385093167702" cy="40.0" class="point"/>
  <text x="625.8385093167702" y="375" class="label" text-anchor="middle">2026-03-22</text>
  <text x="625.8385093167702" y="35.0" class="label" text-anchor="middle">52</text>
  <circle cx="630.3105590062112" cy="40.0" class="point"/>
  <text x="630.3105590062112" y="375" class="label" text-anchor="middle">2026-03-23</text>
  <text x="630.3105590062112" y="35.0" class="label" text-anchor="middle">52</text>
  <circle cx="634.7826086956521" cy="40.0" class="point"/>
  <text x="634.7826086956521" y="375" class="label" text-anchor="middle">2026-03-24</text>
  <text x="634.7826086956521" y="35.0" class="label" text-anchor="middle">52</text>
  <circle cx="639.2546583850932" cy="40.0" class="point"/>
  <text x="639.2546583850932" y="375" class="label" text-anchor="middle">2026-03-25</text>
  <text x="639.2546583850932" y="35.0" class="label" text-anchor="middle">52</text>
  <circle cx="643.7267080745341" cy="40.0" class="point"/>
  <text x="643.7267080745341" y="375" class="label" text-anchor="middle">2026-03-26</text>
  <text x="643.7267080745341" y="35.0" class="label" text-anchor="middle">52</text>
  <circle cx="648.1987577639752" cy="40.0" class="point"/>
  <text x="648.1987577639752" y="375" class="label" text-anchor="middle">2026-03-27</text>
  <text x="648.1987577639752" y="35.0" class="label" text-anchor="middle">52</text>
  <circle cx="652.6708074534162" cy="40.0" class="point"/>
  <text x="652.6708074534162" y="375" class="label" text-anchor="middle">2026-03-28</text>
  <text x="652.6708074534162" y="35.0" class="label" text-anchor="middle">52</text>
  <circle cx="657.1428571428571" cy="40.0" class="point"/>
  <text x="657.1428571428571" y="375" class="label" text-anchor="middle">2026-03-29</text>
  <text x="657.1428571428571" y="35.0" class="label" text-anchor="middle">52</text>
  <circle cx="661.6149068322981" cy="40.0" class="point"/>
  <text x="661.6149068322981" y="375" class="label" text-anchor="middle">2026-03-30</text>
  <text x="661.6149068322981" y="35.0" class="label" text-anchor="middle">52</text>
  <circle cx="666.0869565217391" cy="40.0" class="point"/>
  <text x="666.0869565217391" y="375" class="label" text-anchor="middle">2026-03-31</text>
  <text x="666.0869565217391" y="35.0" class="label" text-anchor="middle">52</text>
  <circle cx="670.5590062111801" cy="40.0" class="point"/>
  <text x="670.5590062111801" y="375" class="label" text-anchor="middle">2026-04-01</text>
  <text x="670.5590062111801" y="35.0" class="label" text-anchor="middle">52</text>
  <circle cx="675.0310559006211" cy="40.0" class="point"/>
  <text x="675.0310559006211" y="375" class="label" text-anchor="middle">2026-04-02</text>
  <text x="675.0310559006211" y="35.0" class="label" text-anchor="middle">52</text>
  <circle cx="679.5031055900621" cy="40.0" class="point"/>
  <text x="679.5031055900621" y="375" class="label" text-anchor="middle">2026-04-03</text>
  <text x="679.5031055900621" y="35.0" class="label" text-anchor="middle">52</text>
  <circle cx="683.9751552795032" cy="40.0" class="point"/>
  <text x="683.9751552795032" y="375" class="label" text-anchor="middle">2026-04-04</text>
  <text x="683.9751552795032" y="35.0" class="label" text-anchor="middle">52</text>
  <circle cx="688.4472049689441" cy="40.0" class="point"/>
  <text x="688.4472049689441" y="375" class="label" text-anchor="middle">2026-04-05</text>
  <text x="688.4472049689441" y="35.0" class="label" text-anchor="middle">52</text>
  <circle cx="692.9192546583852" cy="40.0" class="point"/>
  <text x="692.9192546583852" y="375" class="label" text-anchor="middle">2026-04-06</text>
  <text x="692.9192546583852" y="35.0" class="label" text-anchor="middle">52</text>
  <circle cx="697.391304347826" cy="40.0" class="point"/>
  <text x="697.391304347826" y="375" class="label" text-anchor="middle">2026-04-07</text>
  <text x="697.391304347826" y="35.0" class="label" text-anchor="middle">52</text>
  <circle cx="701.8633540372671" cy="40.0" class="point"/>
  <text x="701.8633540372671" y="375" class="label" text-anchor="middle">2026-04-08</text>
  <text x="701.8633540372671" y="35.0" class="label" text-anchor="middle">52</text>
  <circle cx="706.335403726708" cy="40.0" class="point"/>
  <text x="706.335403726708" y="375" class="label" text-anchor="middle">2026-04-09</text>
  <text x="706.335403726708" y="35.0" class="label" text-anchor="middle">52</text>
  <circle cx="710.8074534161491" cy="40.0" class="point"/>
  <text x="710.8074534161491" y="375" class="label" text-anchor="middle">2026-04-10</text>
  <text x="710.8074534161491" y="35.0" class="label" text-anchor="middle">52</text>
  <circle cx="715.27950310559" cy="40.0" class="point"/>
  <text x="715.27950310559" y="375" class="label" text-anchor="middle">2026-04-11</text>
  <text x="715.27950310559" y="35.0" class="label" text-anchor="middle">52</text>
  <circle cx="719.7515527950311" cy="40.0" class="point"/>
  <text x="719.7515527950311" y="375" class="label" text-anchor="middle">2026-04-12</text>
  <text x="719.7515527950311" y="35.0" class="label" text-anchor="middle">52</text>
  <circle cx="724.223602484472" cy="40.0" class="point"/>
  <text x="724.223602484472" y="375" class="label" text-anchor="middle">2026-04-13</text>
  <text x="724.223602484472" y="35.0" class="label" text-anchor="middle">52</text>
  <circle cx="728.6956521739131" cy="40.0" class="point"/>
  <text x="728.6956521739131" y="375" class="label" text-anchor="middle">2026-04-14</text>
  <text x="728.6956521739131" y="35.0" class="label" text-anchor="middle">52</text>
  <circle cx="733.1677018633541" cy="40.0" class="point"/>
  <text x="733.1677018633541" y="375" class="label" text-anchor="middle">2026-04-15</text>
  <text x="733.1677018633541" y="35.0" class="label" text-anchor="middle">52</text>
  <circle cx="737.639751552795" cy="40.0" class="point"/>
  <text x="737.639751552795" y="375" class="label" text-anchor="middle">2026-04-16</text>
  <text x="737.639751552795" y="35.0" class="label" text-anchor="middle">52</text>
  <circle cx="742.111801242236" cy="40.0" class="point"/>
  <text x="742.111801242236" y="375" class="label" text-anchor="middle">2026-04-17</text>
  <text x="742.111801242236" y="35.0" class="label" text-anchor="middle">52</text>
  <circle cx="746.583850931677" cy="40.0" class="point"/>
  <text x="746.583850931677" y="375" class="label" text-anchor="middle">2026-04-18</text>
  <text x="746.583850931677" y="35.0" class="label" text-anchor="middle">52</text>
  <circle cx="751.055900621118" cy="40.0" class="point"/>
  <text x="751.055900621118" y="375" class="label" text-anchor="middle">2026-04-19</text>
  <text x="751.055900621118" y="35.0" class="label" text-anchor="middle">52</text>
  <circle cx="755.527950310559" cy="40.0" class="point"/>
  <text x="755.527950310559" y="375" class="label" text-anchor="middle">2026-04-20</text>
  <text x="755.527950310559" y="35.0" class="label" text-anchor="middle">52</text>
  <circle cx="760.0" cy="40.0" class="point"/>
  <text x="760.0" y="375" class="label" text-anchor="middle">2026-04-21</text>
  <text x="760.0" y="35.0" class="label" text-anchor="middle">52</text>
  <text x="30" y="363.0" class="label" text-anchor="end">0</text>
  <text x="30" y="301.46153846153845" class="label" text-anchor="end">10</text>
  <text x="30" y="239.9230769230769" class="label" text-anchor="end">20</text>
  <text x="30" y="178.38461538461542" class="label" text-anchor="end">30</text>
  <text x="30" y="116.84615384615384" class="label" text-anchor="end">40</text>
  <text x="30" y="55.30769230769232" class="label" text-anchor="end">50</text>
</svg>