<svg xmlns="http://www.w3.org/2000/svg" width="800" height="400" viewBox="0 0 800 400">
  <style>
    .axis{stroke:#666;stroke-width:1}
    .line{stroke:#4a9;stroke-width:2;fill:none}
    .point{fill:#4a9;r:4}
    .label{font:10px sans-serif;fill:#aaa}
    .title{font:14px sans-serif;fill:#333}
  </style>
  <text x="400" y="20" class="title" text-anchor="middle">OPIC Field Growth Timeline</text>
  <line x1="40" y1="40" x2="40" y2="360" class="axis"/>
  <line x1="40" y1="360" x2="760" y2="360" class="axis"/>
  <path d="M 40.0,101.53846153846155 L 53.84615384615385,101.53846153846155 L 67.6923076923077,101.53846153846155 L 81.53846153846155,101.53846153846155 L 95.38461538461539,101.53846153846155 L 109.23076923076924,101.53846153846155 L 123.07692307692308,101.53846153846155 L 136.9230769230769,101.53846153846155 L 150.76923076923077,101.53846153846155 L 164.6153846153846,101.53846153846155 L 178.46153846153848,101.53846153846155 L 192.3076923076923,101.53846153846155 L 206.15384615384616,101.53846153846155 L 220.0,101.53846153846155 L 233.84615384615384,101.53846153846155 L 247.69230769230768,101.53846153846155 L 261.53846153846155,101.53846153846155 L 275.38461538461536,101.53846153846155 L 289.2307692307692,101.53846153846155 L 303.07692307692304,101.53846153846155 L 316.92307692307696,101.53846153846155 L 330.7692307692308,101.53846153846155 L 344.6153846153846,101.53846153846155 L 358.46153846153845,101.53846153846155 L 372.3076923076923,101.53846153846155 L 386.1538461538462,101.53846153846155 L 400.0,101.53846153846155 L 413.84615384615387,40.0 L 427.6923076923077,40.0 L 441.53846153846155,40.0 L 455.38461538461536,40.0 L 469.2307692307692,40.0 L 483.0769230769231,40.0 L 496.9230769230769,40.0 L 510.7692307692308,40.0 L 524.6153846153846,40.0 L 538.4615384615385,40.0 L 552.3076923076924,40.0 L 566.1538461538461,40.0 L 580.0,40.0 L 593.8461538461539,40.0 L 607.6923076923076,40.0 L 621.5384615384615,40.0 L 635.3846153846154,40.0 L 649.2307692307692,40.0 L 663.0769230769231,40.0 L 676.9230769230769,40.0 L 690.7692307692308,40.0 L 704.6153846153846,40.0 L 718.4615384615385,40.0 L 732.3076923076924,40.0 L 746.1538461538461,40.0 L 760.0,40.0" class="line"/>
  <circle cx="40.0" cy="101.53846153846155" class="point"/>
  <text x="40.0" y="375" class="label" text-anchor="middle">2025-11-11</text>
  <text x="40.0" y="96.53846153846155" class="label" text-anchor="middle">42</text>
  <circle cx="53.84615384615385" cy="101.53846153846155" class="point"/>
  <text x="53.84615384615385" y="375" class="label" text-anchor="middle">2025-11-12</text>
  <text x="53.84615384615385" y="96.53846153846155" class="label" text-anchor="middle">42</text>
  <circle cx="67.6923076923077" cy="101.53846153846155" class="point"/>
  <text x="67.6923076923077" y="375" class="label" text-anchor="middle">2025-11-13</text>
  <text x="67.6923076923077" y="96.53846153846155" class="label" text-anchor="middle">42</text>
  <circle cx="81.53846153846155" cy="101.53846153846155" class="point"/>
  <text x="81.53846153846155" y="375" class="label" text-anchor="middle">2025-11-14</text>
  <text x="81.53846153846155" y="96.53846153846155" class="label" text-anchor="middle">42</text>
  <circle cx="95.38461538461539" cy="101.53846153846155" class="point"/>
  <text x="95.38461538461539" y="375" class="label" text-anchor="middle">2025-11-15</text>
  <text x="95.38461538461539" y="96.53846153846155" class="label" text-anchor="middle">42</text>
  <circle cx="109.23076923076924" cy="101.53846153846155" class="point"/>
  <text x="109.23076923076924" y="375" class="label" text-anchor="middle">2025-11-16</text>
  <text x="109.23076923076924" y="96.53846153846155" class="label" text-anchor="middle">42</text>
  <circle cx="123.07692307692308" cy="101.53846153846155" class="point"/>
  <text x="123.07692307692308" y="375" class="label" text-anchor="middle">2025-11-17</text>
  <text x="123.07692307692308" y="96.53846153846155" class="label" text-anchor="middle">42</text>
  <circle cx="136.9230769230769" cy="101.53846153846155" class="point"/>
  <text x="136.9230769230769" y="375" class="label" text-anchor="middle">2025-11-18</text>
  <text x="136.9230769230769" y="96.53846153846155" class="label" text-anchor="middle">42</text>
  <circle cx="150.76923076923077" cy="101.53846153846155" class="point"/>
  <text x="150.76923076923077" y="375" class="label" text-anchor="middle">2025-11-19</text>
  <text x="150.76923076923077" y="96.53846153846155" class="label" text-anchor="middle">42</text>
  <circle cx="164.6153846153846" cy="101.53846153846155" class="point"/>
  <text x="164.6153846153846" y="375" class="label" text-anchor="middle">2025-11-20</text>
  <text x="164.6153846153846" y="96.53846153846155" class="label" text-anchor="middle">42</text>
  <circle cx="178.46153846153848" cy="101.53846153846155" class="point"/>
  <text x="178.46153846153848" y="375" class="label" text-anchor="middle">2025-11-21</text>
  <text x="178.46153846153848" y="96.53846153846155" class="label" text-anchor="middle">42</text>
  <circle cx="192.3076923076923" cy="101.53846153846155" class="point"/>
  <text x="192.3076923076923" y="375" class="label" text-anchor="middle">2025-11-22</text>
  <text x="192.3076923076923" y="96.53846153846155" class="label" text-anchor="middle">42</text>
  <circle cx="206.15384615384616" cy="101.53846153846155" class="point"/>
  <text x="206.15384615384616" y="375" class="label" text-anchor="middle">2025-11-23</text>
  <text x="206.15384615384616" y="96.53846153846155" class="label" text-anchor="middle">42</text>
  <circle cx="220.0" cy="101.53846153846155" class="point"/>
  <text x="220.0" y="375" class="label" text-anchor="middle">2025-11-24</text>
  <text x="220.0" y="96.53846153846155" class="label" text-anchor="middle">42</text>
  <circle cx="233.84615384615384" cy="101.53846153846155" class="point"/>
  <text x="233.84615384615384" y="375" class="label" text-anchor="middle">2025-11-25</text>
  <text x="233.84615384615384" y="96.53846153846155" class="label" text-anchor="middle">42</text>
  <circle cx="247.69230769230768" cy="101.53846153846155" class="point"/>
  <text x="247.69230769230768" y="375" class="label" text-anchor="middle">2025-11-26</text>
  <text x="247.69230769230768" y="96.53846153846155" class="label" text-anchor="middle">42</text>
  <circle cx="261.53846153846155" cy="101.53846153846155" class="point"/>
  <text x="261.53846153846155" y="375" class="label" text-anchor="middle">2025-11-27</text>
  <text x="261.53846153846155" y="96.53846153846155" class="label" text-anchor="middle">42</text>
  <circle cx="275.38461538461536" cy="101.53846153846155" class="point"/>
  <text x="275.38461538461536" y="375" class="label" text-anchor="middle">2025-11-28</text>
  <text x="275.38461538461536" y="96.53846153846155" class="label" text-anchor="middle">42</text>
  <circle cx="289.2307692307692" cy="101.53846153846155" class="point"/>
  <text x="289.2307692307692" y="375" class="label" text-anchor="middle">2025-11-29</text>
  <text x="289.2307692307692" y="96.53846153846155" class="label" text-anchor="middle">42</text>
  <circle cx="303.07692307692304" cy="101.53846153846155" class="point"/>
  <text x="303.07692307692304" y="375" class="label" text-anchor="middle">2025-11-30</text>
  <text x="303.07692307692304" y="96.53846153846155" class="label" text-anchor="middle">42</text>
  <circle cx="316.92307692307696" cy="101.53846153846155" class="point"/>
  <text x="316.92307692307696" y="375" class="label" text-anchor="middle">2025-12-01</text>
  <text x="316.92307692307696" y="96.53846153846155" class="label" text-anchor="middle">42</text>
  <circle cx="330.7692307692308" cy="101.53846153846155" class="point"/>
  <text x="330.7692307692308" y="375" class="label" text-anchor="middle">2025-12-02</text>
  <text x="330.7692307692308" y="96.53846153846155" class="label" text-anchor="middle">42</text>
  <circle cx="344.6153846153846" cy="101.53846153846155" class="point"/>
  <text x="344.6153846153846" y="375" class="label" text-anchor="middle">2025-12-03</text>
  <text x="344.6153846153846" y="96.53846153846155" class="label" text-anchor="middle">42</text>
  <circle cx="358.46153846153845" cy="101.53846153846155" class="point"/>
  <text x="358.46153846153845" y="375" class="label" text-anchor="middle">2025-12-04</text>
  <text x="358.46153846153845" y="96.53846153846155" class="label" text-anchor="middle">42</text>
  <circle cx="372.3076923076923" cy="101.53846153846155" class="point"/>
  <text x="372.3076923076923" y="375" class="label" text-anchor="middle">2025-12-05</text>
  <text x="372.3076923076923" y="96.53846153846155" class="label" text-anchor="middle">42</text>
  <circle cx="386.1538461538462" cy="101.53846153846155" class="point"/>
  <text x="386.1538461538462" y="375" class="label" text-anchor="middle">2025-12-06</text>
  <text x="386.1538461538462" y="96.53846153846155" class="label" text-anchor="middle">42</text>
  <circle cx="400.0" cy="101.53846153846155" class="point"/>
  <text x="400.0" y="375" class="label" text-anchor="middle">2025-12-07</text>
  <text x="400.0" y="96.53846153846155" class="label" text-anchor="middle">42</text>
  <circle cx="413.84615384615387" cy="40.0" class="point"/>
  <text x="413.84615384615387" y="375" class="label" text-anchor="middle">2025-12-08</text>
  <text x="413.84615384615387" y="35.0" class="label" text-anchor="middle">52</text>
  <circle cx="427.6923076923077" cy="40.0" class="point"/>
  <text x="427.6923076923077" y="375" class="label" text-anchor="middle">2025-12-09</text>
  <text x="427.6923076923077" y="35.0" class="label" text-anchor="middle">52</text>
  <circle cx="441.53846153846155" cy="40.0" class="point"/>
  <text x="441.53846153846155" y="375" class="label" text-anchor="middle">2025-12-10</text>
  <text x="441.53846153846155" y="35.0" class="label" text-anchor="middle">52</text>
  <circle cx="455.38461538461536" cy="40.0" class="point"/>
  <text x="455.38461538461536" y="375" class="label" text-anchor="middle">2025-12-11</text>
  <text x="455.38461538461536" y="35.0" class="label" text-anchor="middle">52</text>
  <circle cx="469.2307692307692" cy="40.0" class="point"/>
  <text x="469.2307692307692" y="375" class="label" text-anchor="middle">2025-12-12</text>
  <text x="469.2307692307692" y="35.0" class="label" text-anchor="middle">52</text>
  <circle cx="483.0769230769231" cy="40.0" class="point"/>
  <text x="483.0769230769231" y="375" class="label" text-anchor="middle">2025-12-13</text>
  <text x="483.0769230769231" y="35.0" class="label" text-anchor="middle">52</text>
  <circle cx="496.9230769230769" cy="40.0" class="point"/>
  <text x="496.9230769230769" y="375" class="label" text-anchor="middle">2025-12-14</text>
  <text x="496.9230769230769" y="35.0" class="label" text-anchor="middle">52</text>
  <circle cx="510.7692307692308" cy="40.0" class="point"/>
  <text x="510.7692307692308" y="375" class="label" text-anchor="middle">2025-12-15</text>
  <text x="510.7692307692308" y="35.0" class="label" text-anchor="middle">52</text>
  <circle cx="524.6153846153846" cy="40.0" class="point"/>
  <text x="524.6153846153846" y="375" class="label" text-anchor="middle">2025-12-16</text>
  <text x="524.6153846153846" y="35.0" class="label" text-anchor="middle">52</text>
  <circle cx="538.4615384615385" cy="40.0" class="point"/>
  <text x="538.4615384615385" y="375" class="label" text-anchor="middle">2025-12-17</text>
  <text x="538.4615384615385" y="35.0" class="label" text-anchor="middle">52</text>
  <circle cx="552.3076923076924" cy="40.0" class="point"/>
  <text x="552.3076923076924" y="375" class="label" text-anchor="middle">2025-12-18</text>
  <text x="552.3076923076924" y="35.0" class="label" text-anchor="middle">52</text>
  <circle cx="566.1538461538461" cy="40.0" class="point"/>
  <text x="566.1538461538461" y="375" class="label" text-anchor="middle">2025-12-19</text>
  <text x="566.1538461538461" y="35.0" class="label" text-anchor="middle">52</text>
  <circle cx="580.0" cy="40.0" class="point"/>
  <text x="580.0" y="375" class="label" text-anchor="middle">2025-12-20</text>
  <text x="580.0" y="35.0" class="label" text-anchor="middle">52</text>
  <circle cx="593.8461538461539" cy="40.0" class="point"/>
  <text x="593.8461538461539" y="375" class="label" text-anchor="middle">2025-12-21</text>
  <text x="593.8461538461539" y="35.0" class="label" text-anchor="middle">52</text>
  <circle cx="607.6923076923076" cy="40.0" class="point"/>
  <text x="607.6923076923076" y="375" class="label" text-anchor="middle">2025-12-22</text>
  <text x="607.6923076923076" y="35.0" class="label" text-anchor="middle">52</text>
  <circle cx="621.5384615384615" cy="40.0" class="point"/>
  <text x="621.5384615384615" y="375" class="label" text-anchor="middle">2025-12-23</text>
  <text x="621.5384615384615" y="35.0" class="label" text-anchor="middle">52</text>
  <circle cx="635.3846153846154" cy="40.0" class="point"/>
  <text x="635.3846153846154" y="375" class="label" text-anchor="middle">2025-12-24</text>
  <text x="635.3846153846154" y="35.0" class="label" text-anchor="middle">52</text>
  <circle cx="649.2307692307692" cy="40.0" class="point"/>
  <text x="649.2307692307692" y="375" class="label" text-anchor="middle">2025-12-25</text>
  <text x="649.2307692307692" y="35.0" class="label" text-anchor="middle">52</text>
  <circle cx="663.0769230769231" cy="40.0" class="point"/>
  <text x="663.0769230769231" y="375" class="label" text-anchor="middle">2025-12-26</text>
  <text x="663.0769230769231" y="35.0" class="label" text-anchor="middle">52</text>
  <circle cx="676.9230769230769" cy="40.0" class="point"/>
  <text x="676.9230769230769" y="375" class="label" text-anchor="middle">2025-12-27</text>
  <text x="676.9230769230769" y="35.0" class="label" text-anchor="middle">52</text>
  <circle cx="690.7692307692308" cy="40.0" class="point"/>
  <text x="690.7692307692308" y="375" class="label" text-anchor="middle">2025-12-28</text>
  <text x="690.7692307692308" y="35.0" class="label" text-anchor="middle">52</text>
  <circle cx="704.6153846153846" cy="40.0" class="point"/>
  <text x="704.6153846153846" y="375" class="label" text-anchor="middle">2025-12-29</text>
  <text x="704.6153846153846" y="35.0" class="label" text-anchor="middle">52</text>
  <circle cx="718.4615384615385" cy="40.0" class="point"/>
  <text x="718.4615384615385" y="375" class="label" text-anchor="middle">2025-12-30</text>
  <text x="718.4615384615385" y="35.0" class="label" text-anchor="middle">52</text>
  <circle cx="732.3076923076924" cy="40.0" class="point"/>
  <text x="732.3076923076924" y="375" class="label" text-anchor="middle">2025-12-31</text>
  <text x="732.3076923076924" y="35.0" class="label" text-anchor="middle">52</text>
  <circle cx="746.1538461538461" cy="40.0" class="point"/>
  <text x="746.1538461538461" y="375" class="label" text-anchor="middle">2026-01-01</text>
  <text x="746.1538461538461" y="35.0" class="label" text-anchor="middle">52</text>
  <circle cx="760.0" cy="40.0" class="point"/>
  <text x="760.0" y="375" class="label" text-anchor="middle">2026-01-02</text>
  <text x="760.0" y="35.0" class="label" text-anchor="middle">52</text>
  <text x="30" y="363.0" class="label" text-anchor="end">0</text>
  <text x="30" y="301.46153846153845" class="label" text-anchor="end">10</text>
  <text x="30" y="239.9230769230769" class="label" text-anchor="end">20</text>
  <text x="30" y="178.38461538461542" class="label" text-anchor="end">30</text>
  <text x="30" y="116.84615384615384" class="label" text-anchor="end">40</text>
  <text x="30" y="55.30769230769232" class="label" text-anchor="end">50</text>
</svg>