<svg xmlns="http://www.w3.org/2000/svg" width="800" height="400" viewBox="0 0 800 400">
  <style>
    .axis{stroke:#666;stroke-width:1}
    .line{stroke:#4a9;stroke-width:2;fill:none}
    .point{fill:#4a9;r:4}
    .label{font:10px sans-serif;fill:#aaa}
    .title{font:14px sans-serif;fill:#333}
  </style>
  <text x="400" y="20" class="title" text-anchor="middle">OPIC Field Growth Timeline</text>
  <line x1="40" y1="40" x2="40" y2="360" class="axis"/>
  <line x1="40" y1="360" x2="760" y2="360" class="axis"/>
  <path d="M 40.0,101.53846153846155 L 48.674698795180724,101.53846153846155 L 57.34939759036145,101.53846153846155 L 66.02409638554217,101.53846153846155 L 74.6987951807229,101.53846153846155 L 83.37349397590361,101.53846153846155 L 92.04819277108433,101.53846153846155 L 100.72289156626505,101.53846153846155 L 109.3975903614458,101.53846153846155 L 118.07228915662651,101.53846153846155 L 126.74698795180723,101.53846153846155 L 135.42168674698797,101.53846153846155 L 144.09638554216866,101.53846153846155 L 152.7710843373494,101.53846153846155 L 161.4457831325301,101.53846153846155 L 170.12048192771084,101.53846153846155 L 178.7951807228916,101.53846153846155 L 187.46987951807228,101.53846153846155 L 196.14457831325302,101.53846153846155 L 204.81927710843374,101.53846153846155 L 213.49397590361446,101.53846153846155 L 222.16867469879517,101.53846153846155 L 230.84337349397592,101.53846153846155 L 239.51807228915663,101.53846153846155 L 248.19277108433735,101.53846153846155 L 256.8674698795181,101.53846153846155 L 265.5421686746988,101.53846153846155 L 274.2168674698795,40.0 L 282.8915662650602,40.0 L 291.566265060241,40.0 L 300.2409638554217,40.0 L 308.91566265060237,40.0 L 317.5903614457832,40.0 L 326.26506024096386,40.0 L 334.93975903614455,40.0 L 343.6144578313253,40.0 L 352.28915662650604,40.0 L 360.96385542168673,40.0 L 369.6385542168675,40.0 L 378.3132530120482,40.0 L 386.9879518072289,40.0 L 395.6626506024096,40.0 L 404.33734939759034,40.0 L 413.0120481927711,40.0 L 421.68674698795184,40.0 L 430.3614457831325,40.0 L 439.03614457831327,40.0 L 447.710843373494,40.0 L 456.3855421686747,40.0 L 465.06024096385545,40.0 L 473.7349397590362,40.0 L 482.4096385542168,40.0 L 491.08433734939763,40.0 L 499.75903614457826,40.0 L 508.433734939759,40.0 L 517.1084337349398,40.0 L 525.7831325301204,40.0 L 534.4578313253012,40.0 L 543.132530120482,40.0 L 551.8072289156626,40.0 L 560.4819277108434,40.0 L 569.1566265060242,40.0 L 577.8313253012047,40.0 L 586.5060240963855,40.0 L 595.1807228915663,40.0 L 603.8554216867469,40.0 L 612.5301204819277,40.0 L 621.2048192771084,40.0 L 629.8795180722891,40.0 L 638.5542168674699,40.0 L 647.2289156626506,40.0 L 655.9036144578313,40.0 L 664.5783132530121,40.0 L 673.2530120481928,40.0 L 681.9277108433735,40.0 L 690.6024096385543,40.0 L 699.277108433735,40.0 L 707.9518072289156,40.0 L 716.6265060240964,40.0 L 725.3012048192771,40.0 L 733.9759036144578,40.0 L 742.6506024096386,40.0 L 751.3253012048192,40.0 L 760.0,40.0" class="line"/>
  <circle cx="40.0" cy="101.53846153846155" class="point"/>
  <text x="40.0" y="375" class="label" text-anchor="middle">2025-11-11</text>
  <text x="40.0" y="96.53846153846155" class="label" text-anchor="middle">42</text>
  <circle cx="48.674698795180724" cy="101.53846153846155" class="point"/>
  <text x="48.674698795180724" y="375" class="label" text-anchor="middle">2025-11-12</text>
  <text x="48.674698795180724" y="96.53846153846155" class="label" text-anchor="middle">42</text>
  <circle cx="57.34939759036145" cy="101.53846153846155" class="point"/>
  <text x="57.34939759036145" y="375" class="label" text-anchor="middle">2025-11-13</text>
  <text x="57.34939759036145" y="96.53846153846155" class="label" text-anchor="middle">42</text>
  <circle cx="66.02409638554217" cy="101.53846153846155" class="point"/>
  <text x="66.02409638554217" y="375" class="label" text-anchor="middle">2025-11-14</text>
  <text x="66.02409638554217" y="96.53846153846155" class="label" text-anchor="middle">42</text>
  <circle cx="74.6987951807229" cy="101.53846153846155" class="point"/>
  <text x="74.6987951807229" y="375" class="label" text-anchor="middle">2025-11-15</text>
  <text x="74.6987951807229" y="96.53846153846155" class="label" text-anchor="middle">42</text>
  <circle cx="83.37349397590361" cy="101.53846153846155" class="point"/>
  <text x="83.37349397590361" y="375" class="label" text-anchor="middle">2025-11-16</text>
  <text x="83.37349397590361" y="96.53846153846155" class="label" text-anchor="middle">42</text>
  <circle cx="92.04819277108433" cy="101.53846153846155" class="point"/>
  <text x="92.04819277108433" y="375" class="label" text-anchor="middle">2025-11-17</text>
  <text x="92.04819277108433" y="96.53846153846155" class="label" text-anchor="middle">42</text>
  <circle cx="100.72289156626505" cy="101.53846153846155" class="point"/>
  <text x="100.72289156626505" y="375" class="label" text-anchor="middle">2025-11-18</text>
  <text x="100.72289156626505" y="96.53846153846155" class="label" text-anchor="middle">42</text>
  <circle cx="109.3975903614458" cy="101.53846153846155" class="point"/>
  <text x="109.3975903614458" y="375" class="label" text-anchor="middle">2025-11-19</text>
  <text x="109.3975903614458" y="96.53846153846155" class="label" text-anchor="middle">42</text>
  <circle cx="118.07228915662651" cy="101.53846153846155" class="point"/>
  <text x="118.07228915662651" y="375" class="label" text-anchor="middle">2025-11-20</text>
  <text x="118.07228915662651" y="96.53846153846155" class="label" text-anchor="middle">42</text>
  <circle cx="126.74698795180723" cy="101.53846153846155" class="point"/>
  <text x="126.74698795180723" y="375" class="label" text-anchor="middle">2025-11-21</text>
  <text x="126.74698795180723" y="96.53846153846155" class="label" text-anchor="middle">42</text>
  <circle cx="135.42168674698797" cy="101.53846153846155" class="point"/>
  <text x="135.42168674698797" y="375" class="label" text-anchor="middle">2025-11-22</text>
  <text x="135.42168674698797" y="96.53846153846155" class="label" text-anchor="middle">42</text>
  <circle cx="144.09638554216866" cy="101.53846153846155" class="point"/>
  <text x="144.09638554216866" y="375" class="label" text-anchor="middle">2025-11-23</text>
  <text x="144.09638554216866" y="96.53846153846155" class="label" text-anchor="middle">42</text>
  <circle cx="152.7710843373494" cy="101.53846153846155" class="point"/>
  <text x="152.7710843373494" y="375" class="label" text-anchor="middle">2025-11-24</text>
  <text x="152.7710843373494" y="96.53846153846155" class="label" text-anchor="middle">42</text>
  <circle cx="161.4457831325301" cy="101.53846153846155" class="point"/>
  <text x="161.4457831325301" y="375" class="label" text-anchor="middle">2025-11-25</text>
  <text x="161.4457831325301" y="96.53846153846155" class="label" text-anchor="middle">42</text>
  <circle cx="170.12048192771084" cy="101.53846153846155" class="point"/>
  <text x="170.12048192771084" y="375" class="label" text-anchor="middle">2025-11-26</text>
  <text x="170.12048192771084" y="96.53846153846155" class="label" text-anchor="middle">42</text>
  <circle cx="178.7951807228916" cy="101.53846153846155" class="point"/>
  <text x="178.7951807228916" y="375" class="label" text-anchor="middle">2025-11-27</text>
  <text x="178.7951807228916" y="96.53846153846155" class="label" text-anchor="middle">42</text>
  <circle cx="187.46987951807228" cy="101.53846153846155" class="point"/>
  <text x="187.46987951807228" y="375" class="label" text-anchor="middle">2025-11-28</text>
  <text x="187.46987951807228" y="96.53846153846155" class="label" text-anchor="middle">42</text>
  <circle cx="196.14457831325302" cy="101.53846153846155" class="point"/>
  <text x="196.14457831325302" y="375" class="label" text-anchor="middle">2025-11-29</text>
  <text x="196.14457831325302" y="96.53846153846155" class="label" text-anchor="middle">42</text>
  <circle cx="204.81927710843374" cy="101.53846153846155" class="point"/>
  <text x="204.81927710843374" y="375" class="label" text-anchor="middle">2025-11-30</text>
  <text x="204.81927710843374" y="96.53846153846155" class="label" text-anchor="middle">42</text>
  <circle cx="213.49397590361446" cy="101.53846153846155" class="point"/>
  <text x="213.49397590361446" y="375" class="label" text-anchor="middle">2025-12-01</text>
  <text x="213.49397590361446" y="96.53846153846155" class="label" text-anchor="middle">42</text>
  <circle cx="222.16867469879517" cy="101.53846153846155" class="point"/>
  <text x="222.16867469879517" y="375" class="label" text-anchor="middle">2025-12-02</text>
  <text x="222.16867469879517" y="96.53846153846155" class="label" text-anchor="middle">42</text>
  <circle cx="230.84337349397592" cy="101.53846153846155" class="point"/>
  <text x="230.84337349397592" y="375" class="label" text-anchor="middle">2025-12-03</text>
  <text x="230.84337349397592" y="96.53846153846155" class="label" text-anchor="middle">42</text>
  <circle cx="239.51807228915663" cy="101.53846153846155" class="point"/>
  <text x="239.51807228915663" y="375" class="label" text-anchor="middle">2025-12-04</text>
  <text x="239.51807228915663" y="96.53846153846155" class="label" text-anchor="middle">42</text>
  <circle cx="248.19277108433735" cy="101.53846153846155" class="point"/>
  <text x="248.19277108433735" y="375" class="label" text-anchor="middle">2025-12-05</text>
  <text x="248.19277108433735" y="96.53846153846155" class="label" text-anchor="middle">42</text>
  <circle cx="256.8674698795181" cy="101.53846153846155" class="point"/>
  <text x="256.8674698795181" y="375" class="label" text-anchor="middle">2025-12-06</text>
  <text x="256.8674698795181" y="96.53846153846155" class="label" text-anchor="middle">42</text>
  <circle cx="265.5421686746988" cy="101.53846153846155" class="point"/>
  <text x="265.5421686746988" y="375" class="label" text-anchor="middle">2025-12-07</text>
  <text x="265.5421686746988" y="96.53846153846155" class="label" text-anchor="middle">42</text>
  <circle cx="274.2168674698795" cy="40.0" class="point"/>
  <text x="274.2168674698795" y="375" class="label" text-anchor="middle">2025-12-08</text>
  <text x="274.2168674698795" y="35.0" class="label" text-anchor="middle">52</text>
  <circle cx="282.8915662650602" cy="40.0" class="point"/>
  <text x="282.8915662650602" y="375" class="label" text-anchor="middle">2025-12-09</text>
  <text x="282.8915662650602" y="35.0" class="label" text-anchor="middle">52</text>
  <circle cx="291.566265060241" cy="40.0" class="point"/>
  <text x="291.566265060241" y="375" class="label" text-anchor="middle">2025-12-10</text>
  <text x="291.566265060241" y="35.0" class="label" text-anchor="middle">52</text>
  <circle cx="300.2409638554217" cy="40.0" class="point"/>
  <text x="300.2409638554217" y="375" class="label" text-anchor="middle">2025-12-11</text>
  <text x="300.2409638554217" y="35.0" class="label" text-anchor="middle">52</text>
  <circle cx="308.91566265060237" cy="40.0" class="point"/>
  <text x="308.91566265060237" y="375" class="label" text-anchor="middle">2025-12-12</text>
  <text x="308.91566265060237" y="35.0" class="label" text-anchor="middle">52</text>
  <circle cx="317.5903614457832" cy="40.0" class="point"/>
  <text x="317.5903614457832" y="375" class="label" text-anchor="middle">2025-12-13</text>
  <text x="317.5903614457832" y="35.0" class="label" text-anchor="middle">52</text>
  <circle cx="326.26506024096386" cy="40.0" class="point"/>
  <text x="326.26506024096386" y="375" class="label" text-anchor="middle">2025-12-14</text>
  <text x="326.26506024096386" y="35.0" class="label" text-anchor="middle">52</text>
  <circle cx="334.93975903614455" cy="40.0" class="point"/>
  <text x="334.93975903614455" y="375" class="label" text-anchor="middle">2025-12-15</text>
  <text x="334.93975903614455" y="35.0" class="label" text-anchor="middle">52</text>
  <circle cx="343.6144578313253" cy="40.0" class="point"/>
  <text x="343.6144578313253" y="375" class="label" text-anchor="middle">2025-12-16</text>
  <text x="343.6144578313253" y="35.0" class="label" text-anchor="middle">52</text>
  <circle cx="352.28915662650604" cy="40.0" class="point"/>
  <text x="352.28915662650604" y="375" class="label" text-anchor="middle">2025-12-17</text>
  <text x="352.28915662650604" y="35.0" class="label" text-anchor="middle">52</text>
  <circle cx="360.96385542168673" cy="40.0" class="point"/>
  <text x="360.96385542168673" y="375" class="label" text-anchor="middle">2025-12-18</text>
  <text x="360.96385542168673" y="35.0" class="label" text-anchor="middle">52</text>
  <circle cx="369.6385542168675" cy="40.0" class="point"/>
  <text x="369.6385542168675" y="375" class="label" text-anchor="middle">2025-12-19</text>
  <text x="369.6385542168675" y="35.0" class="label" text-anchor="middle">52</text>
  <circle cx="378.3132530120482" cy="40.0" class="point"/>
  <text x="378.3132530120482" y="375" class="label" text-anchor="middle">2025-12-20</text>
  <text x="378.3132530120482" y="35.0" class="label" text-anchor="middle">52</text>
  <circle cx="386.9879518072289" cy="40.0" class="point"/>
  <text x="386.9879518072289" y="375" class="label" text-anchor="middle">2025-12-21</text>
  <text x="386.9879518072289" y="35.0" class="label" text-anchor="middle">52</text>
  <circle cx="395.6626506024096" cy="40.0" class="point"/>
  <text x="395.6626506024096" y="375" class="label" text-anchor="middle">2025-12-22</text>
  <text x="395.6626506024096" y="35.0" class="label" text-anchor="middle">52</text>
  <circle cx="404.33734939759034" cy="40.0" class="point"/>
  <text x="404.33734939759034" y="375" class="label" text-anchor="middle">2025-12-23</text>
  <text x="404.33734939759034" y="35.0" class="label" text-anchor="middle">52</text>
  <circle cx="413.0120481927711" cy="40.0" class="point"/>
  <text x="413.0120481927711" y="375" class="label" text-anchor="middle">2025-12-24</text>
  <text x="413.0120481927711" y="35.0" class="label" text-anchor="middle">52</text>
  <circle cx="421.68674698795184" cy="40.0" class="point"/>
  <text x="421.68674698795184" y="375" class="label" text-anchor="middle">2025-12-25</text>
  <text x="421.68674698795184" y="35.0" class="label" text-anchor="middle">52</text>
  <circle cx="430.3614457831325" cy="40.0" class="point"/>
  <text x="430.3614457831325" y="375" class="label" text-anchor="middle">2025-12-26</text>
  <text x="430.3614457831325" y="35.0" class="label" text-anchor="middle">52</text>
  <circle cx="439.03614457831327" cy="40.0" class="point"/>
  <text x="439.03614457831327" y="375" class="label" text-anchor="middle">2025-12-27</text>
  <text x="439.03614457831327" y="35.0" class="label" text-anchor="middle">52</text>
  <circle cx="447.710843373494" cy="40.0" class="point"/>
  <text x="447.710843373494" y="375" class="label" text-anchor="middle">2025-12-28</text>
  <text x="447.710843373494" y="35.0" class="label" text-anchor="middle">52</text>
  <circle cx="456.3855421686747" cy="40.0" class="point"/>
  <text x="456.3855421686747" y="375" class="label" text-anchor="middle">2025-12-29</text>
  <text x="456.3855421686747" y="35.0" class="label" text-anchor="middle">52</text>
  <circle cx="465.06024096385545" cy="40.0" class="point"/>
  <text x="465.06024096385545" y="375" class="label" text-anchor="middle">2025-12-30</text>
  <text x="465.06024096385545" y="35.0" class="label" text-anchor="middle">52</text>
  <circle cx="473.7349397590362" cy="40.0" class="point"/>
  <text x="473.7349397590362" y="375" class="label" text-anchor="middle">2025-12-31</text>
  <text x="473.7349397590362" y="35.0" class="label" text-anchor="middle">52</text>
  <circle cx="482.4096385542168" cy="40.0" class="point"/>
  <text x="482.4096385542168" y="375" class="label" text-anchor="middle">2026-01-01</text>
  <text x="482.4096385542168" y="35.0" class="label" text-anchor="middle">52</text>
  <circle cx="491.08433734939763" cy="40.0" class="point"/>
  <text x="491.08433734939763" y="375" class="label" text-anchor="middle">2026-01-02</text>
  <text x="491.08433734939763" y="35.0" class="label" text-anchor="middle">52</text>
  <circle cx="499.75903614457826" cy="40.0" class="point"/>
  <text x="499.75903614457826" y="375" class="label" text-anchor="middle">2026-01-03</text>
  <text x="499.75903614457826" y="35.0" class="label" text-anchor="middle">52</text>
  <circle cx="508.433734939759" cy="40.0" class="point"/>
  <text x="508.433734939759" y="375" class="label" text-anchor="middle">2026-01-04</text>
  <text x="508.433734939759" y="35.0" class="label" text-anchor="middle">52</text>
  <circle cx="517.1084337349398" cy="40.0" class="point"/>
  <text x="517.1084337349398" y="375" class="label" text-anchor="middle">2026-01-05</text>
  <text x="517.1084337349398" y="35.0" class="label" text-anchor="middle">52</text>
  <circle cx="525.7831325301204" cy="40.0" class="point"/>
  <text x="525.7831325301204" y="375" class="label" text-anchor="middle">2026-01-06</text>
  <text x="525.7831325301204" y="35.0" class="label" text-anchor="middle">52</text>
  <circle cx="534.4578313253012" cy="40.0" class="point"/>
  <text x="534.4578313253012" y="375" class="label" text-anchor="middle">2026-01-07</text>
  <text x="534.4578313253012" y="35.0" class="label" text-anchor="middle">52</text>
  <circle cx="543.132530120482" cy="40.0" class="point"/>
  <text x="543.132530120482" y="375" class="label" text-anchor="middle">2026-01-08</text>
  <text x="543.132530120482" y="35.0" class="label" text-anchor="middle">52</text>
  <circle cx="551.8072289156626" cy="40.0" class="point"/>
  <text x="551.8072289156626" y="375" class="label" text-anchor="middle">2026-01-09</text>
  <text x="551.8072289156626" y="35.0" class="label" text-anchor="middle">52</text>
  <circle cx="560.4819277108434" cy="40.0" class="point"/>
  <text x="560.4819277108434" y="375" class="label" text-anchor="middle">2026-01-10</text>
  <text x="560.4819277108434" y="35.0" class="label" text-anchor="middle">52</text>
  <circle cx="569.1566265060242" cy="40.0" class="point"/>
  <text x="569.1566265060242" y="375" class="label" text-anchor="middle">2026-01-11</text>
  <text x="569.1566265060242" y="35.0" class="label" text-anchor="middle">52</text>
  <circle cx="577.8313253012047" cy="40.0" class="point"/>
  <text x="577.8313253012047" y="375" class="label" text-anchor="middle">2026-01-12</text>
  <text x="577.8313253012047" y="35.0" class="label" text-anchor="middle">52</text>
  <circle cx="586.5060240963855" cy="40.0" class="point"/>
  <text x="586.5060240963855" y="375" class="label" text-anchor="middle">2026-01-13</text>
  <text x="586.5060240963855" y="35.0" class="label" text-anchor="middle">52</text>
  <circle cx="595.1807228915663" cy="40.0" class="point"/>
  <text x="595.1807228915663" y="375" class="label" text-anchor="middle">2026-01-14</text>
  <text x="595.1807228915663" y="35.0" class="label" text-anchor="middle">52</text>
  <circle cx="603.8554216867469" cy="40.0" class="point"/>
  <text x="603.8554216867469" y="375" class="label" text-anchor="middle">2026-01-15</text>
  <text x="603.8554216867469" y="35.0" class="label" text-anchor="middle">52</text>
  <circle cx="612.5301204819277" cy="40.0" class="point"/>
  <text x="612.5301204819277" y="375" class="label" text-anchor="middle">2026-01-16</text>
  <text x="612.5301204819277" y="35.0" class="label" text-anchor="middle">52</text>
  <circle cx="621.2048192771084" cy="40.0" class="point"/>
  <text x="621.2048192771084" y="375" class="label" text-anchor="middle">2026-01-17</text>
  <text x="621.2048192771084" y="35.0" class="label" text-anchor="middle">52</text>
  <circle cx="629.8795180722891" cy="40.0" class="point"/>
  <text x="629.8795180722891" y="375" class="label" text-anchor="middle">2026-01-18</text>
  <text x="629.8795180722891" y="35.0" class="label" text-anchor="middle">52</text>
  <circle cx="638.5542168674699" cy="40.0" class="point"/>
  <text x="638.5542168674699" y="375" class="label" text-anchor="middle">2026-01-19</text>
  <text x="638.5542168674699" y="35.0" class="label" text-anchor="middle">52</text>
  <circle cx="647.2289156626506" cy="40.0" class="point"/>
  <text x="647.2289156626506" y="375" class="label" text-anchor="middle">2026-01-20</text>
  <text x="647.2289156626506" y="35.0" class="label" text-anchor="middle">52</text>
  <circle cx="655.9036144578313" cy="40.0" class="point"/>
  <text x="655.9036144578313" y="375" class="label" text-anchor="middle">2026-01-21</text>
  <text x="655.9036144578313" y="35.0" class="label" text-anchor="middle">52</text>
  <circle cx="664.5783132530121" cy="40.0" class="point"/>
  <text x="664.5783132530121" y="375" class="label" text-anchor="middle">2026-01-22</text>
  <text x="664.5783132530121" y="35.0" class="label" text-anchor="middle">52</text>
  <circle cx="673.2530120481928" cy="40.0" class="point"/>
  <text x="673.2530120481928" y="375" class="label" text-anchor="middle">2026-01-23</text>
  <text x="673.2530120481928" y="35.0" class="label" text-anchor="middle">52</text>
  <circle cx="681.9277108433735" cy="40.0" class="point"/>
  <text x="681.9277108433735" y="375" class="label" text-anchor="middle">2026-01-24</text>
  <text x="681.9277108433735" y="35.0" class="label" text-anchor="middle">52</text>
  <circle cx="690.6024096385543" cy="40.0" class="point"/>
  <text x="690.6024096385543" y="375" class="label" text-anchor="middle">2026-01-25</text>
  <text x="690.6024096385543" y="35.0" class="label" text-anchor="middle">52</text>
  <circle cx="699.277108433735" cy="40.0" class="point"/>
  <text x="699.277108433735" y="375" class="label" text-anchor="middle">2026-01-26</text>
  <text x="699.277108433735" y="35.0" class="label" text-anchor="middle">52</text>
  <circle cx="707.9518072289156" cy="40.0" class="point"/>
  <text x="707.9518072289156" y="375" class="label" text-anchor="middle">2026-01-27</text>
  <text x="707.9518072289156" y="35.0" class="label" text-anchor="middle">52</text>
  <circle cx="716.6265060240964" cy="40.0" class="point"/>
  <text x="716.6265060240964" y="375" class="label" text-anchor="middle">2026-01-28</text>
  <text x="716.6265060240964" y="35.0" class="label" text-anchor="middle">52</text>
  <circle cx="725.3012048192771" cy="40.0" class="point"/>
  <text x="725.3012048192771" y="375" class="label" text-anchor="middle">2026-01-29</text>
  <text x="725.3012048192771" y="35.0" class="label" text-anchor="middle">52</text>
  <circle cx="733.9759036144578" cy="40.0" class="point"/>
  <text x="733.9759036144578" y="375" class="label" text-anchor="middle">2026-01-30</text>
  <text x="733.9759036144578" y="35.0" class="label" text-anchor="middle">52</text>
  <circle cx="742.6506024096386" cy="40.0" class="point"/>
  <text x="742.6506024096386" y="375" class="label" text-anchor="middle">2026-01-31</text>
  <text x="742.6506024096386" y="35.0" class="label" text-anchor="middle">52</text>
  <circle cx="751.3253012048192" cy="40.0" class="point"/>
  <text x="751.3253012048192" y="375" class="label" text-anchor="middle">2026-02-01</text>
  <text x="751.3253012048192" y="35.0" class="label" text-anchor="middle">52</text>
  <circle cx="760.0" cy="40.0" class="point"/>
  <text x="760.0" y="375" class="label" text-anchor="middle">2026-02-02</text>
  <text x="760.0" y="35.0" class="label" text-anchor="middle">52</text>
  <text x="30" y="363.0" class="label" text-anchor="end">0</text>
  <text x="30" y="301.46153846153845" class="label" text-anchor="end">10</text>
  <text x="30" y="239.9230769230769" class="label" text-anchor="end">20</text>
  <text x="30" y="178.38461538461542" class="label" text-anchor="end">30</text>
  <text x="30" y="116.84615384615384" class="label" text-anchor="end">40</text>
  <text x="30" y="55.30769230769232" class="label" text-anchor="end">50</text>
</svg>