<svg xmlns="http://www.w3.org/2000/svg" width="800" height="400" viewBox="0 0 800 400">
  <style>
    .axis{stroke:#666;stroke-width:1}
    .line{stroke:#4a9;stroke-width:2;fill:none}
    .point{fill:#4a9;r:4}
    .label{font:10px sans-serif;fill:#aaa}
    .title{font:14px sans-serif;fill:#333}
  </style>
  <text x="400" y="20" class="title" text-anchor="middle">OPIC Field Growth Timeline</text>
  <line x1="40" y1="40" x2="40" y2="360" class="axis"/>
  <line x1="40" y1="360" x2="760" y2="360" class="axis"/>
  <path d="M 40.0,101.53846153846155 L 47.27272727272727,101.53846153846155 L 54.54545454545455,101.53846153846155 L 61.81818181818182,101.53846153846155 L 69.0909090909091,101.53846153846155 L 76.36363636363636,101.53846153846155 L 83.63636363636364,101.53846153846155 L 90.9090909090909,101.53846153846155 L 98.18181818181819,101.53846153846155 L 105.45454545454545,101.53846153846155 L 112.72727272727272,101.53846153846155 L 120.0,101.53846153846155 L 127.27272727272728,101.53846153846155 L 134.54545454545456,101.53846153846155 L 141.8181818181818,101.53846153846155 L 149.0909090909091,101.53846153846155 L 156.36363636363637,101.53846153846155 L 163.63636363636363,101.53846153846155 L 170.9090909090909,101.53846153846155 L 178.18181818181816,101.53846153846155 L 185.45454545454544,101.53846153846155 L 192.72727272727272,101.53846153846155 L 200.0,101.53846153846155 L 207.27272727272728,101.53846153846155 L 214.54545454545456,101.53846153846155 L 221.81818181818184,101.53846153846155 L 229.09090909090912,101.53846153846155 L 236.36363636363635,40.0 L 243.63636363636363,40.0 L 250.9090909090909,40.0 L 258.1818181818182,40.0 L 265.4545454545455,40.0 L 272.72727272727275,40.0 L 280.0,40.0 L 287.27272727272725,40.0 L 294.5454545454545,40.0 L 301.8181818181818,40.0 L 309.0909090909091,40.0 L 316.3636363636363,40.0 L 323.6363636363636,40.0 L 330.9090909090909,40.0 L 338.1818181818182,40.0 L 345.45454545454544,40.0 L 352.72727272727275,40.0 L 360.0,40.0 L 367.27272727272725,40.0 L 374.54545454545456,40.0 L 381.8181818181818,40.0 L 389.0909090909091,40.0 L 396.3636363636364,40.0 L 403.6363636363637,40.0 L 410.9090909090909,40.0 L 418.18181818181824,40.0 L 425.45454545454544,40.0 L 432.7272727272727,40.0 L 440.0,40.0 L 447.27272727272725,40.0 L 454.54545454545456,40.0 L 461.8181818181818,40.0 L 469.09090909090907,40.0 L 476.3636363636364,40.0 L 483.6363636363636,40.0 L 490.90909090909093,40.0 L 498.1818181818182,40.0 L 505.4545454545455,40.0 L 512.7272727272727,40.0 L 520.0,40.0 L 527.2727272727273,40.0 L 534.5454545454545,40.0 L 541.8181818181819,40.0 L 549.090909090909,40.0 L 556.3636363636364,40.0 L 563.6363636363636,40.0 L 570.9090909090909,40.0 L 578.1818181818182,40.0 L 585.4545454545455,40.0 L 592.7272727272726,40.0 L 600.0,40.0 L 607.2727272727273,40.0 L 614.5454545454546,40.0 L 621.8181818181818,40.0 L 629.0909090909091,40.0 L 636.3636363636364,40.0 L 643.6363636363636,40.0 L 650.9090909090909,40.0 L 658.1818181818181,40.0 L 665.4545454545455,40.0 L 672.7272727272727,40.0 L 680.0,40.0 L 687.2727272727273,40.0 L 694.5454545454545,40.0 L 701.8181818181819,40.0 L 709.0909090909091,40.0 L 716.3636363636364,40.0 L 723.6363636363636,40.0 L 730.9090909090909,40.0 L 738.1818181818182,40.0 L 745.4545454545455,40.0 L 752.7272727272727,40.0 L 760.0,40.0" class="line"/>
  <circle cx="40.0" cy="101.53846153846155" class="point"/>
  <text x="40.0" y="375" class="label" text-anchor="middle">2025-11-11</text>
  <text x="40.0" y="96.53846153846155" class="label" text-anchor="middle">42</text>
  <circle cx="47.27272727272727" cy="101.53846153846155" class="point"/>
  <text x="47.27272727272727" y="375" class="label" text-anchor="middle">2025-11-12</text>
  <text x="47.27272727272727" y="96.53846153846155" class="label" text-anchor="middle">42</text>
  <circle cx="54.54545454545455" cy="101.53846153846155" class="point"/>
  <text x="54.54545454545455" y="375" class="label" text-anchor="middle">2025-11-13</text>
  <text x="54.54545454545455" y="96.53846153846155" class="label" text-anchor="middle">42</text>
  <circle cx="61.81818181818182" cy="101.53846153846155" class="point"/>
  <text x="61.81818181818182" y="375" class="label" text-anchor="middle">2025-11-14</text>
  <text x="61.81818181818182" y="96.53846153846155" class="label" text-anchor="middle">42</text>
  <circle cx="69.0909090909091" cy="101.53846153846155" class="point"/>
  <text x="69.0909090909091" y="375" class="label" text-anchor="middle">2025-11-15</text>
  <text x="69.0909090909091" y="96.53846153846155" class="label" text-anchor="middle">42</text>
  <circle cx="76.36363636363636" cy="101.53846153846155" class="point"/>
  <text x="76.36363636363636" y="375" class="label" text-anchor="middle">2025-11-16</text>
  <text x="76.36363636363636" y="96.53846153846155" class="label" text-anchor="middle">42</text>
  <circle cx="83.63636363636364" cy="101.53846153846155" class="point"/>
  <text x="83.63636363636364" y="375" class="label" text-anchor="middle">2025-11-17</text>
  <text x="83.63636363636364" y="96.53846153846155" class="label" text-anchor="middle">42</text>
  <circle cx="90.9090909090909" cy="101.53846153846155" class="point"/>
  <text x="90.9090909090909" y="375" class="label" text-anchor="middle">2025-11-18</text>
  <text x="90.9090909090909" y="96.53846153846155" class="label" text-anchor="middle">42</text>
  <circle cx="98.18181818181819" cy="101.53846153846155" class="point"/>
  <text x="98.18181818181819" y="375" class="label" text-anchor="middle">2025-11-19</text>
  <text x="98.18181818181819" y="96.53846153846155" class="label" text-anchor="middle">42</text>
  <circle cx="105.45454545454545" cy="101.53846153846155" class="point"/>
  <text x="105.45454545454545" y="375" class="label" text-anchor="middle">2025-11-20</text>
  <text x="105.45454545454545" y="96.53846153846155" class="label" text-anchor="middle">42</text>
  <circle cx="112.72727272727272" cy="101.53846153846155" class="point"/>
  <text x="112.72727272727272" y="375" class="label" text-anchor="middle">2025-11-21</text>
  <text x="112.72727272727272" y="96.53846153846155" class="label" text-anchor="middle">42</text>
  <circle cx="120.0" cy="101.53846153846155" class="point"/>
  <text x="120.0" y="375" class="label" text-anchor="middle">2025-11-22</text>
  <text x="120.0" y="96.53846153846155" class="label" text-anchor="middle">42</text>
  <circle cx="127.27272727272728" cy="101.53846153846155" class="point"/>
  <text x="127.27272727272728" y="375" class="label" text-anchor="middle">2025-11-23</text>
  <text x="127.27272727272728" y="96.53846153846155" class="label" text-anchor="middle">42</text>
  <circle cx="134.54545454545456" cy="101.53846153846155" class="point"/>
  <text x="134.54545454545456" y="375" class="label" text-anchor="middle">2025-11-24</text>
  <text x="134.54545454545456" y="96.53846153846155" class="label" text-anchor="middle">42</text>
  <circle cx="141.8181818181818" cy="101.53846153846155" class="point"/>
  <text x="141.8181818181818" y="375" class="label" text-anchor="middle">2025-11-25</text>
  <text x="141.8181818181818" y="96.53846153846155" class="label" text-anchor="middle">42</text>
  <circle cx="149.0909090909091" cy="101.53846153846155" class="point"/>
  <text x="149.0909090909091" y="375" class="label" text-anchor="middle">2025-11-26</text>
  <text x="149.0909090909091" y="96.53846153846155" class="label" text-anchor="middle">42</text>
  <circle cx="156.36363636363637" cy="101.53846153846155" class="point"/>
  <text x="156.36363636363637" y="375" class="label" text-anchor="middle">2025-11-27</text>
  <text x="156.36363636363637" y="96.53846153846155" class="label" text-anchor="middle">42</text>
  <circle cx="163.63636363636363" cy="101.53846153846155" class="point"/>
  <text x="163.63636363636363" y="375" class="label" text-anchor="middle">2025-11-28</text>
  <text x="163.63636363636363" y="96.53846153846155" class="label" text-anchor="middle">42</text>
  <circle cx="170.9090909090909" cy="101.53846153846155" class="point"/>
  <text x="170.9090909090909" y="375" class="label" text-anchor="middle">2025-11-29</text>
  <text x="170.9090909090909" y="96.53846153846155" class="label" text-anchor="middle">42</text>
  <circle cx="178.18181818181816" cy="101.53846153846155" class="point"/>
  <text x="178.18181818181816" y="375" class="label" text-anchor="middle">2025-11-30</text>
  <text x="178.18181818181816" y="96.53846153846155" class="label" text-anchor="middle">42</text>
  <circle cx="185.45454545454544" cy="101.53846153846155" class="point"/>
  <text x="185.45454545454544" y="375" class="label" text-anchor="middle">2025-12-01</text>
  <text x="185.45454545454544" y="96.53846153846155" class="label" text-anchor="middle">42</text>
  <circle cx="192.72727272727272" cy="101.53846153846155" class="point"/>
  <text x="192.72727272727272" y="375" class="label" text-anchor="middle">2025-12-02</text>
  <text x="192.72727272727272" y="96.53846153846155" class="label" text-anchor="middle">42</text>
  <circle cx="200.0" cy="101.53846153846155" class="point"/>
  <text x="200.0" y="375" class="label" text-anchor="middle">2025-12-03</text>
  <text x="200.0" y="96.53846153846155" class="label" text-anchor="middle">42</text>
  <circle cx="207.27272727272728" cy="101.53846153846155" class="point"/>
  <text x="207.27272727272728" y="375" class="label" text-anchor="middle">2025-12-04</text>
  <text x="207.27272727272728" y="96.53846153846155" class="label" text-anchor="middle">42</text>
  <circle cx="214.54545454545456" cy="101.53846153846155" class="point"/>
  <text x="214.54545454545456" y="375" class="label" text-anchor="middle">2025-12-05</text>
  <text x="214.54545454545456" y="96.53846153846155" class="label" text-anchor="middle">42</text>
  <circle cx="221.81818181818184" cy="101.53846153846155" class="point"/>
  <text x="221.81818181818184" y="375" class="label" text-anchor="middle">2025-12-06</text>
  <text x="221.81818181818184" y="96.53846153846155" class="label" text-anchor="middle">42</text>
  <circle cx="229.09090909090912" cy="101.53846153846155" class="point"/>
  <text x="229.09090909090912" y="375" class="label" text-anchor="middle">2025-12-07</text>
  <text x="229.09090909090912" y="96.53846153846155" class="label" text-anchor="middle">42</text>
  <circle cx="236.36363636363635" cy="40.0" class="point"/>
  <text x="236.36363636363635" y="375" class="label" text-anchor="middle">2025-12-08</text>
  <text x="236.36363636363635" y="35.0" class="label" text-anchor="middle">52</text>
  <circle cx="243.63636363636363" cy="40.0" class="point"/>
  <text x="243.63636363636363" y="375" class="label" text-anchor="middle">2025-12-09</text>
  <text x="243.63636363636363" y="35.0" class="label" text-anchor="middle">52</text>
  <circle cx="250.9090909090909" cy="40.0" class="point"/>
  <text x="250.9090909090909" y="375" class="label" text-anchor="middle">2025-12-10</text>
  <text x="250.9090909090909" y="35.0" class="label" text-anchor="middle">52</text>
  <circle cx="258.1818181818182" cy="40.0" class="point"/>
  <text x="258.1818181818182" y="375" class="label" text-anchor="middle">2025-12-11</text>
  <text x="258.1818181818182" y="35.0" class="label" text-anchor="middle">52</text>
  <circle cx="265.4545454545455" cy="40.0" class="point"/>
  <text x="265.4545454545455" y="375" class="label" text-anchor="middle">2025-12-12</text>
  <text x="265.4545454545455" y="35.0" class="label" text-anchor="middle">52</text>
  <circle cx="272.72727272727275" cy="40.0" class="point"/>
  <text x="272.72727272727275" y="375" class="label" text-anchor="middle">2025-12-13</text>
  <text x="272.72727272727275" y="35.0" class="label" text-anchor="middle">52</text>
  <circle cx="280.0" cy="40.0" class="point"/>
  <text x="280.0" y="375" class="label" text-anchor="middle">2025-12-14</text>
  <text x="280.0" y="35.0" class="label" text-anchor="middle">52</text>
  <circle cx="287.27272727272725" cy="40.0" class="point"/>
  <text x="287.27272727272725" y="375" class="label" text-anchor="middle">2025-12-15</text>
  <text x="287.27272727272725" y="35.0" class="label" text-anchor="middle">52</text>
  <circle cx="294.5454545454545" cy="40.0" class="point"/>
  <text x="294.5454545454545" y="375" class="label" text-anchor="middle">2025-12-16</text>
  <text x="294.5454545454545" y="35.0" class="label" text-anchor="middle">52</text>
  <circle cx="301.8181818181818" cy="40.0" class="point"/>
  <text x="301.8181818181818" y="375" class="label" text-anchor="middle">2025-12-17</text>
  <text x="301.8181818181818" y="35.0" class="label" text-anchor="middle">52</text>
  <circle cx="309.0909090909091" cy="40.0" class="point"/>
  <text x="309.0909090909091" y="375" class="label" text-anchor="middle">2025-12-18</text>
  <text x="309.0909090909091" y="35.0" class="label" text-anchor="middle">52</text>
  <circle cx="316.3636363636363" cy="40.0" class="point"/>
  <text x="316.3636363636363" y="375" class="label" text-anchor="middle">2025-12-19</text>
  <text x="316.3636363636363" y="35.0" class="label" text-anchor="middle">52</text>
  <circle cx="323.6363636363636" cy="40.0" class="point"/>
  <text x="323.6363636363636" y="375" class="label" text-anchor="middle">2025-12-20</text>
  <text x="323.6363636363636" y="35.0" class="label" text-anchor="middle">52</text>
  <circle cx="330.9090909090909" cy="40.0" class="point"/>
  <text x="330.9090909090909" y="375" class="label" text-anchor="middle">2025-12-21</text>
  <text x="330.9090909090909" y="35.0" class="label" text-anchor="middle">52</text>
  <circle cx="338.1818181818182" cy="40.0" class="point"/>
  <text x="338.1818181818182" y="375" class="label" text-anchor="middle">2025-12-22</text>
  <text x="338.1818181818182" y="35.0" class="label" text-anchor="middle">52</text>
  <circle cx="345.45454545454544" cy="40.0" class="point"/>
  <text x="345.45454545454544" y="375" class="label" text-anchor="middle">2025-12-23</text>
  <text x="345.45454545454544" y="35.0" class="label" text-anchor="middle">52</text>
  <circle cx="352.72727272727275" cy="40.0" class="point"/>
  <text x="352.72727272727275" y="375" class="label" text-anchor="middle">2025-12-24</text>
  <text x="352.72727272727275" y="35.0" class="label" text-anchor="middle">52</text>
  <circle cx="360.0" cy="40.0" class="point"/>
  <text x="360.0" y="375" class="label" text-anchor="middle">2025-12-25</text>
  <text x="360.0" y="35.0" class="label" text-anchor="middle">52</text>
  <circle cx="367.27272727272725" cy="40.0" class="point"/>
  <text x="367.27272727272725" y="375" class="label" text-anchor="middle">2025-12-26</text>
  <text x="367.27272727272725" y="35.0" class="label" text-anchor="middle">52</text>
  <circle cx="374.54545454545456" cy="40.0" class="point"/>
  <text x="374.54545454545456" y="375" class="label" text-anchor="middle">2025-12-27</text>
  <text x="374.54545454545456" y="35.0" class="label" text-anchor="middle">52</text>
  <circle cx="381.8181818181818" cy="40.0" class="point"/>
  <text x="381.8181818181818" y="375" class="label" text-anchor="middle">2025-12-28</text>
  <text x="381.8181818181818" y="35.0" class="label" text-anchor="middle">52</text>
  <circle cx="389.0909090909091" cy="40.0" class="point"/>
  <text x="389.0909090909091" y="375" class="label" text-anchor="middle">2025-12-29</text>
  <text x="389.0909090909091" y="35.0" class="label" text-anchor="middle">52</text>
  <circle cx="396.3636363636364" cy="40.0" class="point"/>
  <text x="396.3636363636364" y="375" class="label" text-anchor="middle">2025-12-30</text>
  <text x="396.3636363636364" y="35.0" class="label" text-anchor="middle">52</text>
  <circle cx="403.6363636363637" cy="40.0" class="point"/>
  <text x="403.6363636363637" y="375" class="label" text-anchor="middle">2025-12-31</text>
  <text x="403.6363636363637" y="35.0" class="label" text-anchor="middle">52</text>
  <circle cx="410.9090909090909" cy="40.0" class="point"/>
  <text x="410.9090909090909" y="375" class="label" text-anchor="middle">2026-01-01</text>
  <text x="410.9090909090909" y="35.0" class="label" text-anchor="middle">52</text>
  <circle cx="418.18181818181824" cy="40.0" class="point"/>
  <text x="418.18181818181824" y="375" class="label" text-anchor="middle">2026-01-02</text>
  <text x="418.18181818181824" y="35.0" class="label" text-anchor="middle">52</text>
  <circle cx="425.45454545454544" cy="40.0" class="point"/>
  <text x="425.45454545454544" y="375" class="label" text-anchor="middle">2026-01-03</text>
  <text x="425.45454545454544" y="35.0" class="label" text-anchor="middle">52</text>
  <circle cx="432.7272727272727" cy="40.0" class="point"/>
  <text x="432.7272727272727" y="375" class="label" text-anchor="middle">2026-01-04</text>
  <text x="432.7272727272727" y="35.0" class="label" text-anchor="middle">52</text>
  <circle cx="440.0" cy="40.0" class="point"/>
  <text x="440.0" y="375" class="label" text-anchor="middle">2026-01-05</text>
  <text x="440.0" y="35.0" class="label" text-anchor="middle">52</text>
  <circle cx="447.27272727272725" cy="40.0" class="point"/>
  <text x="447.27272727272725" y="375" class="label" text-anchor="middle">2026-01-06</text>
  <text x="447.27272727272725" y="35.0" class="label" text-anchor="middle">52</text>
  <circle cx="454.54545454545456" cy="40.0" class="point"/>
  <text x="454.54545454545456" y="375" class="label" text-anchor="middle">2026-01-07</text>
  <text x="454.54545454545456" y="35.0" class="label" text-anchor="middle">52</text>
  <circle cx="461.8181818181818" cy="40.0" class="point"/>
  <text x="461.8181818181818" y="375" class="label" text-anchor="middle">2026-01-08</text>
  <text x="461.8181818181818" y="35.0" class="label" text-anchor="middle">52</text>
  <circle cx="469.09090909090907" cy="40.0" class="point"/>
  <text x="469.09090909090907" y="375" class="label" text-anchor="middle">2026-01-09</text>
  <text x="469.09090909090907" y="35.0" class="label" text-anchor="middle">52</text>
  <circle cx="476.3636363636364" cy="40.0" class="point"/>
  <text x="476.3636363636364" y="375" class="label" text-anchor="middle">2026-01-10</text>
  <text x="476.3636363636364" y="35.0" class="label" text-anchor="middle">52</text>
  <circle cx="483.6363636363636" cy="40.0" class="point"/>
  <text x="483.6363636363636" y="375" class="label" text-anchor="middle">2026-01-11</text>
  <text x="483.6363636363636" y="35.0" class="label" text-anchor="middle">52</text>
  <circle cx="490.90909090909093" cy="40.0" class="point"/>
  <text x="490.90909090909093" y="375" class="label" text-anchor="middle">2026-01-12</text>
  <text x="490.90909090909093" y="35.0" class="label" text-anchor="middle">52</text>
  <circle cx="498.1818181818182" cy="40.0" class="point"/>
  <text x="498.1818181818182" y="375" class="label" text-anchor="middle">2026-01-13</text>
  <text x="498.1818181818182" y="35.0" class="label" text-anchor="middle">52</text>
  <circle cx="505.4545454545455" cy="40.0" class="point"/>
  <text x="505.4545454545455" y="375" class="label" text-anchor="middle">2026-01-14</text>
  <text x="505.4545454545455" y="35.0" class="label" text-anchor="middle">52</text>
  <circle cx="512.7272727272727" cy="40.0" class="point"/>
  <text x="512.7272727272727" y="375" class="label" text-anchor="middle">2026-01-15</text>
  <text x="512.7272727272727" y="35.0" class="label" text-anchor="middle">52</text>
  <circle cx="520.0" cy="40.0" class="point"/>
  <text x="520.0" y="375" class="label" text-anchor="middle">2026-01-16</text>
  <text x="520.0" y="35.0" class="label" text-anchor="middle">52</text>
  <circle cx="527.2727272727273" cy="40.0" class="point"/>
  <text x="527.2727272727273" y="375" class="label" text-anchor="middle">2026-01-17</text>
  <text x="527.2727272727273" y="35.0" class="label" text-anchor="middle">52</text>
  <circle cx="534.5454545454545" cy="40.0" class="point"/>
  <text x="534.5454545454545" y="375" class="label" text-anchor="middle">2026-01-18</text>
  <text x="534.5454545454545" y="35.0" class="label" text-anchor="middle">52</text>
  <circle cx="541.8181818181819" cy="40.0" class="point"/>
  <text x="541.8181818181819" y="375" class="label" text-anchor="middle">2026-01-19</text>
  <text x="541.8181818181819" y="35.0" class="label" text-anchor="middle">52</text>
  <circle cx="549.090909090909" cy="40.0" class="point"/>
  <text x="549.090909090909" y="375" class="label" text-anchor="middle">2026-01-20</text>
  <text x="549.090909090909" y="35.0" class="label" text-anchor="middle">52</text>
  <circle cx="556.3636363636364" cy="40.0" class="point"/>
  <text x="556.3636363636364" y="375" class="label" text-anchor="middle">2026-01-21</text>
  <text x="556.3636363636364" y="35.0" class="label" text-anchor="middle">52</text>
  <circle cx="563.6363636363636" cy="40.0" class="point"/>
  <text x="563.6363636363636" y="375" class="label" text-anchor="middle">2026-01-22</text>
  <text x="563.6363636363636" y="35.0" class="label" text-anchor="middle">52</text>
  <circle cx="570.9090909090909" cy="40.0" class="point"/>
  <text x="570.9090909090909" y="375" class="label" text-anchor="middle">2026-01-23</text>
  <text x="570.9090909090909" y="35.0" class="label" text-anchor="middle">52</text>
  <circle cx="578.1818181818182" cy="40.0" class="point"/>
  <text x="578.1818181818182" y="375" class="label" text-anchor="middle">2026-01-24</text>
  <text x="578.1818181818182" y="35.0" class="label" text-anchor="middle">52</text>
  <circle cx="585.4545454545455" cy="40.0" class="point"/>
  <text x="585.4545454545455" y="375" class="label" text-anchor="middle">2026-01-25</text>
  <text x="585.4545454545455" y="35.0" class="label" text-anchor="middle">52</text>
  <circle cx="592.7272727272726" cy="40.0" class="point"/>
  <text x="592.7272727272726" y="375" class="label" text-anchor="middle">2026-01-26</text>
  <text x="592.7272727272726" y="35.0" class="label" text-anchor="middle">52</text>
  <circle cx="600.0" cy="40.0" class="point"/>
  <text x="600.0" y="375" class="label" text-anchor="middle">2026-01-27</text>
  <text x="600.0" y="35.0" class="label" text-anchor="middle">52</text>
  <circle cx="607.2727272727273" cy="40.0" class="point"/>
  <text x="607.2727272727273" y="375" class="label" text-anchor="middle">2026-01-28</text>
  <text x="607.2727272727273" y="35.0" class="label" text-anchor="middle">52</text>
  <circle cx="614.5454545454546" cy="40.0" class="point"/>
  <text x="614.5454545454546" y="375" class="label" text-anchor="middle">2026-01-29</text>
  <text x="614.5454545454546" y="35.0" class="label" text-anchor="middle">52</text>
  <circle cx="621.8181818181818" cy="40.0" class="point"/>
  <text x="621.8181818181818" y="375" class="label" text-anchor="middle">2026-01-30</text>
  <text x="621.8181818181818" y="35.0" class="label" text-anchor="middle">52</text>
  <circle cx="629.0909090909091" cy="40.0" class="point"/>
  <text x="629.0909090909091" y="375" class="label" text-anchor="middle">2026-01-31</text>
  <text x="629.0909090909091" y="35.0" class="label" text-anchor="middle">52</text>
  <circle cx="636.3636363636364" cy="40.0" class="point"/>
  <text x="636.3636363636364" y="375" class="label" text-anchor="middle">2026-02-01</text>
  <text x="636.3636363636364" y="35.0" class="label" text-anchor="middle">52</text>
  <circle cx="643.6363636363636" cy="40.0" class="point"/>
  <text x="643.6363636363636" y="375" class="label" text-anchor="middle">2026-02-02</text>
  <text x="643.6363636363636" y="35.0" class="label" text-anchor="middle">52</text>
  <circle cx="650.9090909090909" cy="40.0" class="point"/>
  <text x="650.9090909090909" y="375" class="label" text-anchor="middle">2026-02-03</text>
  <text x="650.9090909090909" y="35.0" class="label" text-anchor="middle">52</text>
  <circle cx="658.1818181818181" cy="40.0" class="point"/>
  <text x="658.1818181818181" y="375" class="label" text-anchor="middle">2026-02-04</text>
  <text x="658.1818181818181" y="35.0" class="label" text-anchor="middle">52</text>
  <circle cx="665.4545454545455" cy="40.0" class="point"/>
  <text x="665.4545454545455" y="375" class="label" text-anchor="middle">2026-02-05</text>
  <text x="665.4545454545455" y="35.0" class="label" text-anchor="middle">52</text>
  <circle cx="672.7272727272727" cy="40.0" class="point"/>
  <text x="672.7272727272727" y="375" class="label" text-anchor="middle">2026-02-06</text>
  <text x="672.7272727272727" y="35.0" class="label" text-anchor="middle">52</text>
  <circle cx="680.0" cy="40.0" class="point"/>
  <text x="680.0" y="375" class="label" text-anchor="middle">2026-02-07</text>
  <text x="680.0" y="35.0" class="label" text-anchor="middle">52</text>
  <circle cx="687.2727272727273" cy="40.0" class="point"/>
  <text x="687.2727272727273" y="375" class="label" text-anchor="middle">2026-02-08</text>
  <text x="687.2727272727273" y="35.0" class="label" text-anchor="middle">52</text>
  <circle cx="694.5454545454545" cy="40.0" class="point"/>
  <text x="694.5454545454545" y="375" class="label" text-anchor="middle">2026-02-09</text>
  <text x="694.5454545454545" y="35.0" class="label" text-anchor="middle">52</text>
  <circle cx="701.8181818181819" cy="40.0" class="point"/>
  <text x="701.8181818181819" y="375" class="label" text-anchor="middle">2026-02-10</text>
  <text x="701.8181818181819" y="35.0" class="label" text-anchor="middle">52</text>
  <circle cx="709.0909090909091" cy="40.0" class="point"/>
  <text x="709.0909090909091" y="375" class="label" text-anchor="middle">2026-02-11</text>
  <text x="709.0909090909091" y="35.0" class="label" text-anchor="middle">52</text>
  <circle cx="716.3636363636364" cy="40.0" class="point"/>
  <text x="716.3636363636364" y="375" class="label" text-anchor="middle">2026-02-12</text>
  <text x="716.3636363636364" y="35.0" class="label" text-anchor="middle">52</text>
  <circle cx="723.6363636363636" cy="40.0" class="point"/>
  <text x="723.6363636363636" y="375" class="label" text-anchor="middle">2026-02-13</text>
  <text x="723.6363636363636" y="35.0" class="label" text-anchor="middle">52</text>
  <circle cx="730.9090909090909" cy="40.0" class="point"/>
  <text x="730.9090909090909" y="375" class="label" text-anchor="middle">2026-02-14</text>
  <text x="730.9090909090909" y="35.0" class="label" text-anchor="middle">52</text>
  <circle cx="738.1818181818182" cy="40.0" class="point"/>
  <text x="738.1818181818182" y="375" class="label" text-anchor="middle">2026-02-15</text>
  <text x="738.1818181818182" y="35.0" class="label" text-anchor="middle">52</text>
  <circle cx="745.4545454545455" cy="40.0" class="point"/>
  <text x="745.4545454545455" y="375" class="label" text-anchor="middle">2026-02-16</text>
  <text x="745.4545454545455" y="35.0" class="label" text-anchor="middle">52</text>
  <circle cx="752.7272727272727" cy="40.0" class="point"/>
  <text x="752.7272727272727" y="375" class="label" text-anchor="middle">2026-02-17</text>
  <text x="752.7272727272727" y="35.0" class="label" text-anchor="middle">52</text>
  <circle cx="760.0" cy="40.0" class="point"/>
  <text x="760.0" y="375" class="label" text-anchor="middle">2026-02-18</text>
  <text x="760.0" y="35.0" class="label" text-anchor="middle">52</text>
  <text x="30" y="363.0" class="label" text-anchor="end">0</text>
  <text x="30" y="301.46153846153845" class="label" text-anchor="end">10</text>
  <text x="30" y="239.9230769230769" class="label" text-anchor="end">20</text>
  <text x="30" y="178.38461538461542" class="label" text-anchor="end">30</text>
  <text x="30" y="116.84615384615384" class="label" text-anchor="end">40</text>
  <text x="30" y="55.30769230769232" class="label" text-anchor="end">50</text>
</svg>