<svg xmlns="http://www.w3.org/2000/svg" width="800" height="400" viewBox="0 0 800 400">
  <style>
    .axis{stroke:#666;stroke-width:1}
    .line{stroke:#4a9;stroke-width:2;fill:none}
    .point{fill:#4a9;r:4}
    .label{font:10px sans-serif;fill:#aaa}
    .title{font:14px sans-serif;fill:#333}
  </style>
  <text x="400" y="20" class="title" text-anchor="middle">OPIC Field Growth Timeline</text>
  <line x1="40" y1="40" x2="40" y2="360" class="axis"/>
  <line x1="40" y1="360" x2="760" y2="360" class="axis"/>
  <path d="M 40.0,101.53846153846155 L 46.79245283018868,101.53846153846155 L 53.58490566037736,101.53846153846155 L 60.37735849056604,101.53846153846155 L 67.16981132075472,101.53846153846155 L 73.9622641509434,101.53846153846155 L 80.75471698113208,101.53846153846155 L 87.54716981132076,101.53846153846155 L 94.33962264150944,101.53846153846155 L 101.1320754716981,101.53846153846155 L 107.9245283018868,101.53846153846155 L 114.71698113207547,101.53846153846155 L 121.50943396226415,101.53846153846155 L 128.30188679245282,101.53846153846155 L 135.0943396226415,101.53846153846155 L 141.8867924528302,101.53846153846155 L 148.67924528301887,101.53846153846155 L 155.47169811320754,101.53846153846155 L 162.2641509433962,101.53846153846155 L 169.0566037735849,101.53846153846155 L 175.8490566037736,101.53846153846155 L 182.64150943396228,101.53846153846155 L 189.43396226415095,101.53846153846155 L 196.22641509433961,101.53846153846155 L 203.0188679245283,101.53846153846155 L 209.81132075471697,101.53846153846155 L 216.60377358490567,101.53846153846155 L 223.39622641509433,40.0 L 230.18867924528303,40.0 L 236.9811320754717,40.0 L 243.77358490566039,40.0 L 250.56603773584905,40.0 L 257.35849056603774,40.0 L 264.1509433962264,40.0 L 270.9433962264151,40.0 L 277.7358490566038,40.0 L 284.5283018867924,40.0 L 291.3207547169811,40.0 L 298.1132075471698,40.0 L 304.90566037735846,40.0 L 311.6981132075472,40.0 L 318.49056603773585,40.0 L 325.28301886792457,40.0 L 332.07547169811323,40.0 L 338.8679245283019,40.0 L 345.66037735849056,40.0 L 352.45283018867923,40.0 L 359.24528301886795,40.0 L 366.0377358490566,40.0 L 372.8301886792453,40.0 L 379.62264150943395,40.0 L 386.41509433962267,40.0 L 393.20754716981133,40.0 L 400.0,40.0 L 406.79245283018867,40.0 L 413.58490566037733,40.0 L 420.37735849056605,40.0 L 427.1698113207547,40.0 L 433.9622641509434,40.0 L 440.75471698113205,40.0 L 447.54716981132077,40.0 L 454.33962264150944,40.0 L 461.1320754716981,40.0 L 467.92452830188677,40.0 L 474.71698113207543,40.0 L 481.50943396226415,40.0 L 488.3018867924528,40.0 L 495.0943396226415,40.0 L 501.88679245283015,40.0 L 508.6792452830189,40.0 L 515.4716981132076,40.0 L 522.2641509433962,40.0 L 529.0566037735848,40.0 L 535.8490566037735,40.0 L 542.6415094339623,40.0 L 549.433962264151,40.0 L 556.2264150943396,40.0 L 563.0188679245283,40.0 L 569.8113207547169,40.0 L 576.6037735849056,40.0 L 583.3962264150944,40.0 L 590.1886792452831,40.0 L 596.9811320754717,40.0 L 603.7735849056604,40.0 L 610.5660377358491,40.0 L 617.3584905660377,40.0 L 624.1509433962265,40.0 L 630.9433962264151,40.0 L 637.7358490566038,40.0 L 644.5283018867925,40.0 L 651.3207547169811,40.0 L 658.1132075471698,40.0 L 664.9056603773585,40.0 L 671.6981132075472,40.0 L 678.4905660377359,40.0 L 685.2830188679245,40.0 L 692.0754716981132,40.0 L 698.867924528302,40.0 L 705.6603773584906,40.0 L 712.4528301886793,40.0 L 719.2452830188679,40.0 L 726.0377358490566,40.0 L 732.8301886792453,40.0 L 739.622641509434,40.0 L 746.4150943396227,40.0 L 753.2075471698113,40.0 L 760.0,40.0" class="line"/>
  <circle cx="40.0" cy="101.53846153846155" class="point"/>
  <text x="40.0" y="375" class="label" text-anchor="middle">2025-11-11</text>
  <text x="40.0" y="96.53846153846155" class="label" text-anchor="middle">42</text>
  <circle cx="46.79245283018868" cy="101.53846153846155" class="point"/>
  <text x="46.79245283018868" y="375" class="label" text-anchor="middle">2025-11-12</text>
  <text x="46.79245283018868" y="96.53846153846155" class="label" text-anchor="middle">42</text>
  <circle cx="53.58490566037736" cy="101.53846153846155" class="point"/>
  <text x="53.58490566037736" y="375" class="label" text-anchor="middle">2025-11-13</text>
  <text x="53.58490566037736" y="96.53846153846155" class="label" text-anchor="middle">42</text>
  <circle cx="60.37735849056604" cy="101.53846153846155" class="point"/>
  <text x="60.37735849056604" y="375" class="label" text-anchor="middle">2025-11-14</text>
  <text x="60.37735849056604" y="96.53846153846155" class="label" text-anchor="middle">42</text>
  <circle cx="67.16981132075472" cy="101.53846153846155" class="point"/>
  <text x="67.16981132075472" y="375" class="label" text-anchor="middle">2025-11-15</text>
  <text x="67.16981132075472" y="96.53846153846155" class="label" text-anchor="middle">42</text>
  <circle cx="73.9622641509434" cy="101.53846153846155" class="point"/>
  <text x="73.9622641509434" y="375" class="label" text-anchor="middle">2025-11-16</text>
  <text x="73.9622641509434" y="96.53846153846155" class="label" text-anchor="middle">42</text>
  <circle cx="80.75471698113208" cy="101.53846153846155" class="point"/>
  <text x="80.75471698113208" y="375" class="label" text-anchor="middle">2025-11-17</text>
  <text x="80.75471698113208" y="96.53846153846155" class="label" text-anchor="middle">42</text>
  <circle cx="87.54716981132076" cy="101.53846153846155" class="point"/>
  <text x="87.54716981132076" y="375" class="label" text-anchor="middle">2025-11-18</text>
  <text x="87.54716981132076" y="96.53846153846155" class="label" text-anchor="middle">42</text>
  <circle cx="94.33962264150944" cy="101.53846153846155" class="point"/>
  <text x="94.33962264150944" y="375" class="label" text-anchor="middle">2025-11-19</text>
  <text x="94.33962264150944" y="96.53846153846155" class="label" text-anchor="middle">42</text>
  <circle cx="101.1320754716981" cy="101.53846153846155" class="point"/>
  <text x="101.1320754716981" y="375" class="label" text-anchor="middle">2025-11-20</text>
  <text x="101.1320754716981" y="96.53846153846155" class="label" text-anchor="middle">42</text>
  <circle cx="107.9245283018868" cy="101.53846153846155" class="point"/>
  <text x="107.9245283018868" y="375" class="label" text-anchor="middle">2025-11-21</text>
  <text x="107.9245283018868" y="96.53846153846155" class="label" text-anchor="middle">42</text>
  <circle cx="114.71698113207547" cy="101.53846153846155" class="point"/>
  <text x="114.71698113207547" y="375" class="label" text-anchor="middle">2025-11-22</text>
  <text x="114.71698113207547" y="96.53846153846155" class="label" text-anchor="middle">42</text>
  <circle cx="121.50943396226415" cy="101.53846153846155" class="point"/>
  <text x="121.50943396226415" y="375" class="label" text-anchor="middle">2025-11-23</text>
  <text x="121.50943396226415" y="96.53846153846155" class="label" text-anchor="middle">42</text>
  <circle cx="128.30188679245282" cy="101.53846153846155" class="point"/>
  <text x="128.30188679245282" y="375" class="label" text-anchor="middle">2025-11-24</text>
  <text x="128.30188679245282" y="96.53846153846155" class="label" text-anchor="middle">42</text>
  <circle cx="135.0943396226415" cy="101.53846153846155" class="point"/>
  <text x="135.0943396226415" y="375" class="label" text-anchor="middle">2025-11-25</text>
  <text x="135.0943396226415" y="96.53846153846155" class="label" text-anchor="middle">42</text>
  <circle cx="141.8867924528302" cy="101.53846153846155" class="point"/>
  <text x="141.8867924528302" y="375" class="label" text-anchor="middle">2025-11-26</text>
  <text x="141.8867924528302" y="96.53846153846155" class="label" text-anchor="middle">42</text>
  <circle cx="148.67924528301887" cy="101.53846153846155" class="point"/>
  <text x="148.67924528301887" y="375" class="label" text-anchor="middle">2025-11-27</text>
  <text x="148.67924528301887" y="96.53846153846155" class="label" text-anchor="middle">42</text>
  <circle cx="155.47169811320754" cy="101.53846153846155" class="point"/>
  <text x="155.47169811320754" y="375" class="label" text-anchor="middle">2025-11-28</text>
  <text x="155.47169811320754" y="96.53846153846155" class="label" text-anchor="middle">42</text>
  <circle cx="162.2641509433962" cy="101.53846153846155" class="point"/>
  <text x="162.2641509433962" y="375" class="label" text-anchor="middle">2025-11-29</text>
  <text x="162.2641509433962" y="96.53846153846155" class="label" text-anchor="middle">42</text>
  <circle cx="169.0566037735849" cy="101.53846153846155" class="point"/>
  <text x="169.0566037735849" y="375" class="label" text-anchor="middle">2025-11-30</text>
  <text x="169.0566037735849" y="96.53846153846155" class="label" text-anchor="middle">42</text>
  <circle cx="175.8490566037736" cy="101.53846153846155" class="point"/>
  <text x="175.8490566037736" y="375" class="label" text-anchor="middle">2025-12-01</text>
  <text x="175.8490566037736" y="96.53846153846155" class="label" text-anchor="middle">42</text>
  <circle cx="182.64150943396228" cy="101.53846153846155" class="point"/>
  <text x="182.64150943396228" y="375" class="label" text-anchor="middle">2025-12-02</text>
  <text x="182.64150943396228" y="96.53846153846155" class="label" text-anchor="middle">42</text>
  <circle cx="189.43396226415095" cy="101.53846153846155" class="point"/>
  <text x="189.43396226415095" y="375" class="label" text-anchor="middle">2025-12-03</text>
  <text x="189.43396226415095" y="96.53846153846155" class="label" text-anchor="middle">42</text>
  <circle cx="196.22641509433961" cy="101.53846153846155" class="point"/>
  <text x="196.22641509433961" y="375" class="label" text-anchor="middle">2025-12-04</text>
  <text x="196.22641509433961" y="96.53846153846155" class="label" text-anchor="middle">42</text>
  <circle cx="203.0188679245283" cy="101.53846153846155" class="point"/>
  <text x="203.0188679245283" y="375" class="label" text-anchor="middle">2025-12-05</text>
  <text x="203.0188679245283" y="96.53846153846155" class="label" text-anchor="middle">42</text>
  <circle cx="209.81132075471697" cy="101.53846153846155" class="point"/>
  <text x="209.81132075471697" y="375" class="label" text-anchor="middle">2025-12-06</text>
  <text x="209.81132075471697" y="96.53846153846155" class="label" text-anchor="middle">42</text>
  <circle cx="216.60377358490567" cy="101.53846153846155" class="point"/>
  <text x="216.60377358490567" y="375" class="label" text-anchor="middle">2025-12-07</text>
  <text x="216.60377358490567" y="96.53846153846155" class="label" text-anchor="middle">42</text>
  <circle cx="223.39622641509433" cy="40.0" class="point"/>
  <text x="223.39622641509433" y="375" class="label" text-anchor="middle">2025-12-08</text>
  <text x="223.39622641509433" y="35.0" class="label" text-anchor="middle">52</text>
  <circle cx="230.18867924528303" cy="40.0" class="point"/>
  <text x="230.18867924528303" y="375" class="label" text-anchor="middle">2025-12-09</text>
  <text x="230.18867924528303" y="35.0" class="label" text-anchor="middle">52</text>
  <circle cx="236.9811320754717" cy="40.0" class="point"/>
  <text x="236.9811320754717" y="375" class="label" text-anchor="middle">2025-12-10</text>
  <text x="236.9811320754717" y="35.0" class="label" text-anchor="middle">52</text>
  <circle cx="243.77358490566039" cy="40.0" class="point"/>
  <text x="243.77358490566039" y="375" class="label" text-anchor="middle">2025-12-11</text>
  <text x="243.77358490566039" y="35.0" class="label" text-anchor="middle">52</text>
  <circle cx="250.56603773584905" cy="40.0" class="point"/>
  <text x="250.56603773584905" y="375" class="label" text-anchor="middle">2025-12-12</text>
  <text x="250.56603773584905" y="35.0" class="label" text-anchor="middle">52</text>
  <circle cx="257.35849056603774" cy="40.0" class="point"/>
  <text x="257.35849056603774" y="375" class="label" text-anchor="middle">2025-12-13</text>
  <text x="257.35849056603774" y="35.0" class="label" text-anchor="middle">52</text>
  <circle cx="264.1509433962264" cy="40.0" class="point"/>
  <text x="264.1509433962264" y="375" class="label" text-anchor="middle">2025-12-14</text>
  <text x="264.1509433962264" y="35.0" class="label" text-anchor="middle">52</text>
  <circle cx="270.9433962264151" cy="40.0" class="point"/>
  <text x="270.9433962264151" y="375" class="label" text-anchor="middle">2025-12-15</text>
  <text x="270.9433962264151" y="35.0" class="label" text-anchor="middle">52</text>
  <circle cx="277.7358490566038" cy="40.0" class="point"/>
  <text x="277.7358490566038" y="375" class="label" text-anchor="middle">2025-12-16</text>
  <text x="277.7358490566038" y="35.0" class="label" text-anchor="middle">52</text>
  <circle cx="284.5283018867924" cy="40.0" class="point"/>
  <text x="284.5283018867924" y="375" class="label" text-anchor="middle">2025-12-17</text>
  <text x="284.5283018867924" y="35.0" class="label" text-anchor="middle">52</text>
  <circle cx="291.3207547169811" cy="40.0" class="point"/>
  <text x="291.3207547169811" y="375" class="label" text-anchor="middle">2025-12-18</text>
  <text x="291.3207547169811" y="35.0" class="label" text-anchor="middle">52</text>
  <circle cx="298.1132075471698" cy="40.0" class="point"/>
  <text x="298.1132075471698" y="375" class="label" text-anchor="middle">2025-12-19</text>
  <text x="298.1132075471698" y="35.0" class="label" text-anchor="middle">52</text>
  <circle cx="304.90566037735846" cy="40.0" class="point"/>
  <text x="304.90566037735846" y="375" class="label" text-anchor="middle">2025-12-20</text>
  <text x="304.90566037735846" y="35.0" class="label" text-anchor="middle">52</text>
  <circle cx="311.6981132075472" cy="40.0" class="point"/>
  <text x="311.6981132075472" y="375" class="label" text-anchor="middle">2025-12-21</text>
  <text x="311.6981132075472" y="35.0" class="label" text-anchor="middle">52</text>
  <circle cx="318.49056603773585" cy="40.0" class="point"/>
  <text x="318.49056603773585" y="375" class="label" text-anchor="middle">2025-12-22</text>
  <text x="318.49056603773585" y="35.0" class="label" text-anchor="middle">52</text>
  <circle cx="325.28301886792457" cy="40.0" class="point"/>
  <text x="325.28301886792457" y="375" class="label" text-anchor="middle">2025-12-23</text>
  <text x="325.28301886792457" y="35.0" class="label" text-anchor="middle">52</text>
  <circle cx="332.07547169811323" cy="40.0" class="point"/>
  <text x="332.07547169811323" y="375" class="label" text-anchor="middle">2025-12-24</text>
  <text x="332.07547169811323" y="35.0" class="label" text-anchor="middle">52</text>
  <circle cx="338.8679245283019" cy="40.0" class="point"/>
  <text x="338.8679245283019" y="375" class="label" text-anchor="middle">2025-12-25</text>
  <text x="338.8679245283019" y="35.0" class="label" text-anchor="middle">52</text>
  <circle cx="345.66037735849056" cy="40.0" class="point"/>
  <text x="345.66037735849056" y="375" class="label" text-anchor="middle">2025-12-26</text>
  <text x="345.66037735849056" y="35.0" class="label" text-anchor="middle">52</text>
  <circle cx="352.45283018867923" cy="40.0" class="point"/>
  <text x="352.45283018867923" y="375" class="label" text-anchor="middle">2025-12-27</text>
  <text x="352.45283018867923" y="35.0" class="label" text-anchor="middle">52</text>
  <circle cx="359.24528301886795" cy="40.0" class="point"/>
  <text x="359.24528301886795" y="375" class="label" text-anchor="middle">2025-12-28</text>
  <text x="359.24528301886795" y="35.0" class="label" text-anchor="middle">52</text>
  <circle cx="366.0377358490566" cy="40.0" class="point"/>
  <text x="366.0377358490566" y="375" class="label" text-anchor="middle">2025-12-29</text>
  <text x="366.0377358490566" y="35.0" class="label" text-anchor="middle">52</text>
  <circle cx="372.8301886792453" cy="40.0" class="point"/>
  <text x="372.8301886792453" y="375" class="label" text-anchor="middle">2025-12-30</text>
  <text x="372.8301886792453" y="35.0" class="label" text-anchor="middle">52</text>
  <circle cx="379.62264150943395" cy="40.0" class="point"/>
  <text x="379.62264150943395" y="375" class="label" text-anchor="middle">2025-12-31</text>
  <text x="379.62264150943395" y="35.0" class="label" text-anchor="middle">52</text>
  <circle cx="386.41509433962267" cy="40.0" class="point"/>
  <text x="386.41509433962267" y="375" class="label" text-anchor="middle">2026-01-01</text>
  <text x="386.41509433962267" y="35.0" class="label" text-anchor="middle">52</text>
  <circle cx="393.20754716981133" cy="40.0" class="point"/>
  <text x="393.20754716981133" y="375" class="label" text-anchor="middle">2026-01-02</text>
  <text x="393.20754716981133" y="35.0" class="label" text-anchor="middle">52</text>
  <circle cx="400.0" cy="40.0" class="point"/>
  <text x="400.0" y="375" class="label" text-anchor="middle">2026-01-03</text>
  <text x="400.0" y="35.0" class="label" text-anchor="middle">52</text>
  <circle cx="406.79245283018867" cy="40.0" class="point"/>
  <text x="406.79245283018867" y="375" class="label" text-anchor="middle">2026-01-04</text>
  <text x="406.79245283018867" y="35.0" class="label" text-anchor="middle">52</text>
  <circle cx="413.58490566037733" cy="40.0" class="point"/>
  <text x="413.58490566037733" y="375" class="label" text-anchor="middle">2026-01-05</text>
  <text x="413.58490566037733" y="35.0" class="label" text-anchor="middle">52</text>
  <circle cx="420.37735849056605" cy="40.0" class="point"/>
  <text x="420.37735849056605" y="375" class="label" text-anchor="middle">2026-01-06</text>
  <text x="420.37735849056605" y="35.0" class="label" text-anchor="middle">52</text>
  <circle cx="427.1698113207547" cy="40.0" class="point"/>
  <text x="427.1698113207547" y="375" class="label" text-anchor="middle">2026-01-07</text>
  <text x="427.1698113207547" y="35.0" class="label" text-anchor="middle">52</text>
  <circle cx="433.9622641509434" cy="40.0" class="point"/>
  <text x="433.9622641509434" y="375" class="label" text-anchor="middle">2026-01-08</text>
  <text x="433.9622641509434" y="35.0" class="label" text-anchor="middle">52</text>
  <circle cx="440.75471698113205" cy="40.0" class="point"/>
  <text x="440.75471698113205" y="375" class="label" text-anchor="middle">2026-01-09</text>
  <text x="440.75471698113205" y="35.0" class="label" text-anchor="middle">52</text>
  <circle cx="447.54716981132077" cy="40.0" class="point"/>
  <text x="447.54716981132077" y="375" class="label" text-anchor="middle">2026-01-10</text>
  <text x="447.54716981132077" y="35.0" class="label" text-anchor="middle">52</text>
  <circle cx="454.33962264150944" cy="40.0" class="point"/>
  <text x="454.33962264150944" y="375" class="label" text-anchor="middle">2026-01-11</text>
  <text x="454.33962264150944" y="35.0" class="label" text-anchor="middle">52</text>
  <circle cx="461.1320754716981" cy="40.0" class="point"/>
  <text x="461.1320754716981" y="375" class="label" text-anchor="middle">2026-01-12</text>
  <text x="461.1320754716981" y="35.0" class="label" text-anchor="middle">52</text>
  <circle cx="467.92452830188677" cy="40.0" class="point"/>
  <text x="467.92452830188677" y="375" class="label" text-anchor="middle">2026-01-13</text>
  <text x="467.92452830188677" y="35.0" class="label" text-anchor="middle">52</text>
  <circle cx="474.71698113207543" cy="40.0" class="point"/>
  <text x="474.71698113207543" y="375" class="label" text-anchor="middle">2026-01-14</text>
  <text x="474.71698113207543" y="35.0" class="label" text-anchor="middle">52</text>
  <circle cx="481.50943396226415" cy="40.0" class="point"/>
  <text x="481.50943396226415" y="375" class="label" text-anchor="middle">2026-01-15</text>
  <text x="481.50943396226415" y="35.0" class="label" text-anchor="middle">52</text>
  <circle cx="488.3018867924528" cy="40.0" class="point"/>
  <text x="488.3018867924528" y="375" class="label" text-anchor="middle">2026-01-16</text>
  <text x="488.3018867924528" y="35.0" class="label" text-anchor="middle">52</text>
  <circle cx="495.0943396226415" cy="40.0" class="point"/>
  <text x="495.0943396226415" y="375" class="label" text-anchor="middle">2026-01-17</text>
  <text x="495.0943396226415" y="35.0" class="label" text-anchor="middle">52</text>
  <circle cx="501.88679245283015" cy="40.0" class="point"/>
  <text x="501.88679245283015" y="375" class="label" text-anchor="middle">2026-01-18</text>
  <text x="501.88679245283015" y="35.0" class="label" text-anchor="middle">52</text>
  <circle cx="508.6792452830189" cy="40.0" class="point"/>
  <text x="508.6792452830189" y="375" class="label" text-anchor="middle">2026-01-19</text>
  <text x="508.6792452830189" y="35.0" class="label" text-anchor="middle">52</text>
  <circle cx="515.4716981132076" cy="40.0" class="point"/>
  <text x="515.4716981132076" y="375" class="label" text-anchor="middle">2026-01-20</text>
  <text x="515.4716981132076" y="35.0" class="label" text-anchor="middle">52</text>
  <circle cx="522.2641509433962" cy="40.0" class="point"/>
  <text x="522.2641509433962" y="375" class="label" text-anchor="middle">2026-01-21</text>
  <text x="522.2641509433962" y="35.0" class="label" text-anchor="middle">52</text>
  <circle cx="529.0566037735848" cy="40.0" class="point"/>
  <text x="529.0566037735848" y="375" class="label" text-anchor="middle">2026-01-22</text>
  <text x="529.0566037735848" y="35.0" class="label" text-anchor="middle">52</text>
  <circle cx="535.8490566037735" cy="40.0" class="point"/>
  <text x="535.8490566037735" y="375" class="label" text-anchor="middle">2026-01-23</text>
  <text x="535.8490566037735" y="35.0" class="label" text-anchor="middle">52</text>
  <circle cx="542.6415094339623" cy="40.0" class="point"/>
  <text x="542.6415094339623" y="375" class="label" text-anchor="middle">2026-01-24</text>
  <text x="542.6415094339623" y="35.0" class="label" text-anchor="middle">52</text>
  <circle cx="549.433962264151" cy="40.0" class="point"/>
  <text x="549.433962264151" y="375" class="label" text-anchor="middle">2026-01-25</text>
  <text x="549.433962264151" y="35.0" class="label" text-anchor="middle">52</text>
  <circle cx="556.2264150943396" cy="40.0" class="point"/>
  <text x="556.2264150943396" y="375" class="label" text-anchor="middle">2026-01-26</text>
  <text x="556.2264150943396" y="35.0" class="label" text-anchor="middle">52</text>
  <circle cx="563.0188679245283" cy="40.0" class="point"/>
  <text x="563.0188679245283" y="375" class="label" text-anchor="middle">2026-01-27</text>
  <text x="563.0188679245283" y="35.0" class="label" text-anchor="middle">52</text>
  <circle cx="569.8113207547169" cy="40.0" class="point"/>
  <text x="569.8113207547169" y="375" class="label" text-anchor="middle">2026-01-28</text>
  <text x="569.8113207547169" y="35.0" class="label" text-anchor="middle">52</text>
  <circle cx="576.6037735849056" cy="40.0" class="point"/>
  <text x="576.6037735849056" y="375" class="label" text-anchor="middle">2026-01-29</text>
  <text x="576.6037735849056" y="35.0" class="label" text-anchor="middle">52</text>
  <circle cx="583.3962264150944" cy="40.0" class="point"/>
  <text x="583.3962264150944" y="375" class="label" text-anchor="middle">2026-01-30</text>
  <text x="583.3962264150944" y="35.0" class="label" text-anchor="middle">52</text>
  <circle cx="590.1886792452831" cy="40.0" class="point"/>
  <text x="590.1886792452831" y="375" class="label" text-anchor="middle">2026-01-31</text>
  <text x="590.1886792452831" y="35.0" class="label" text-anchor="middle">52</text>
  <circle cx="596.9811320754717" cy="40.0" class="point"/>
  <text x="596.9811320754717" y="375" class="label" text-anchor="middle">2026-02-01</text>
  <text x="596.9811320754717" y="35.0" class="label" text-anchor="middle">52</text>
  <circle cx="603.7735849056604" cy="40.0" class="point"/>
  <text x="603.7735849056604" y="375" class="label" text-anchor="middle">2026-02-02</text>
  <text x="603.7735849056604" y="35.0" class="label" text-anchor="middle">52</text>
  <circle cx="610.5660377358491" cy="40.0" class="point"/>
  <text x="610.5660377358491" y="375" class="label" text-anchor="middle">2026-02-03</text>
  <text x="610.5660377358491" y="35.0" class="label" text-anchor="middle">52</text>
  <circle cx="617.3584905660377" cy="40.0" class="point"/>
  <text x="617.3584905660377" y="375" class="label" text-anchor="middle">2026-02-04</text>
  <text x="617.3584905660377" y="35.0" class="label" text-anchor="middle">52</text>
  <circle cx="624.1509433962265" cy="40.0" class="point"/>
  <text x="624.1509433962265" y="375" class="label" text-anchor="middle">2026-02-05</text>
  <text x="624.1509433962265" y="35.0" class="label" text-anchor="middle">52</text>
  <circle cx="630.9433962264151" cy="40.0" class="point"/>
  <text x="630.9433962264151" y="375" class="label" text-anchor="middle">2026-02-06</text>
  <text x="630.9433962264151" y="35.0" class="label" text-anchor="middle">52</text>
  <circle cx="637.7358490566038" cy="40.0" class="point"/>
  <text x="637.7358490566038" y="375" class="label" text-anchor="middle">2026-02-07</text>
  <text x="637.7358490566038" y="35.0" class="label" text-anchor="middle">52</text>
  <circle cx="644.5283018867925" cy="40.0" class="point"/>
  <text x="644.5283018867925" y="375" class="label" text-anchor="middle">2026-02-08</text>
  <text x="644.5283018867925" y="35.0" class="label" text-anchor="middle">52</text>
  <circle cx="651.3207547169811" cy="40.0" class="point"/>
  <text x="651.3207547169811" y="375" class="label" text-anchor="middle">2026-02-09</text>
  <text x="651.3207547169811" y="35.0" class="label" text-anchor="middle">52</text>
  <circle cx="658.1132075471698" cy="40.0" class="point"/>
  <text x="658.1132075471698" y="375" class="label" text-anchor="middle">2026-02-10</text>
  <text x="658.1132075471698" y="35.0" class="label" text-anchor="middle">52</text>
  <circle cx="664.9056603773585" cy="40.0" class="point"/>
  <text x="664.9056603773585" y="375" class="label" text-anchor="middle">2026-02-11</text>
  <text x="664.9056603773585" y="35.0" class="label" text-anchor="middle">52</text>
  <circle cx="671.6981132075472" cy="40.0" class="point"/>
  <text x="671.6981132075472" y="375" class="label" text-anchor="middle">2026-02-12</text>
  <text x="671.6981132075472" y="35.0" class="label" text-anchor="middle">52</text>
  <circle cx="678.4905660377359" cy="40.0" class="point"/>
  <text x="678.4905660377359" y="375" class="label" text-anchor="middle">2026-02-13</text>
  <text x="678.4905660377359" y="35.0" class="label" text-anchor="middle">52</text>
  <circle cx="685.2830188679245" cy="40.0" class="point"/>
  <text x="685.2830188679245" y="375" class="label" text-anchor="middle">2026-02-14</text>
  <text x="685.2830188679245" y="35.0" class="label" text-anchor="middle">52</text>
  <circle cx="692.0754716981132" cy="40.0" class="point"/>
  <text x="692.0754716981132" y="375" class="label" text-anchor="middle">2026-02-15</text>
  <text x="692.0754716981132" y="35.0" class="label" text-anchor="middle">52</text>
  <circle cx="698.867924528302" cy="40.0" class="point"/>
  <text x="698.867924528302" y="375" class="label" text-anchor="middle">2026-02-16</text>
  <text x="698.867924528302" y="35.0" class="label" text-anchor="middle">52</text>
  <circle cx="705.6603773584906" cy="40.0" class="point"/>
  <text x="705.6603773584906" y="375" class="label" text-anchor="middle">2026-02-17</text>
  <text x="705.6603773584906" y="35.0" class="label" text-anchor="middle">52</text>
  <circle cx="712.4528301886793" cy="40.0" class="point"/>
  <text x="712.4528301886793" y="375" class="label" text-anchor="middle">2026-02-18</text>
  <text x="712.4528301886793" y="35.0" class="label" text-anchor="middle">52</text>
  <circle cx="719.2452830188679" cy="40.0" class="point"/>
  <text x="719.2452830188679" y="375" class="label" text-anchor="middle">2026-02-19</text>
  <text x="719.2452830188679" y="35.0" class="label" text-anchor="middle">52</text>
  <circle cx="726.0377358490566" cy="40.0" class="point"/>
  <text x="726.0377358490566" y="375" class="label" text-anchor="middle">2026-02-20</text>
  <text x="726.0377358490566" y="35.0" class="label" text-anchor="middle">52</text>
  <circle cx="732.8301886792453" cy="40.0" class="point"/>
  <text x="732.8301886792453" y="375" class="label" text-anchor="middle">2026-02-21</text>
  <text x="732.8301886792453" y="35.0" class="label" text-anchor="middle">52</text>
  <circle cx="739.622641509434" cy="40.0" class="point"/>
  <text x="739.622641509434" y="375" class="label" text-anchor="middle">2026-02-22</text>
  <text x="739.622641509434" y="35.0" class="label" text-anchor="middle">52</text>
  <circle cx="746.4150943396227" cy="40.0" class="point"/>
  <text x="746.4150943396227" y="375" class="label" text-anchor="middle">2026-02-23</text>
  <text x="746.4150943396227" y="35.0" class="label" text-anchor="middle">52</text>
  <circle cx="753.2075471698113" cy="40.0" class="point"/>
  <text x="753.2075471698113" y="375" class="label" text-anchor="middle">2026-02-24</text>
  <text x="753.2075471698113" y="35.0" class="label" text-anchor="middle">52</text>
  <circle cx="760.0" cy="40.0" class="point"/>
  <text x="760.0" y="375" class="label" text-anchor="middle">2026-02-25</text>
  <text x="760.0" y="35.0" class="label" text-anchor="middle">52</text>
  <text x="30" y="363.0" class="label" text-anchor="end">0</text>
  <text x="30" y="301.46153846153845" class="label" text-anchor="end">10</text>
  <text x="30" y="239.9230769230769" class="label" text-anchor="end">20</text>
  <text x="30" y="178.38461538461542" class="label" text-anchor="end">30</text>
  <text x="30" y="116.84615384615384" class="label" text-anchor="end">40</text>
  <text x="30" y="55.30769230769232" class="label" text-anchor="end">50</text>
</svg>