<svg xmlns="http://www.w3.org/2000/svg" width="800" height="400" viewBox="0 0 800 400">
  <style>
    .axis{stroke:#666;stroke-width:1}
    .line{stroke:#4a9;stroke-width:2;fill:none}
    .point{fill:#4a9;r:4}
    .label{font:10px sans-serif;fill:#aaa}
    .title{font:14px sans-serif;fill:#333}
  </style>
  <text x="400" y="20" class="title" text-anchor="middle">OPIC Field Growth Timeline</text>
  <line x1="40" y1="40" x2="40" y2="360" class="axis"/>
  <line x1="40" y1="360" x2="760" y2="360" class="axis"/>
  <path d="M 40.0,101.53846153846155 L 45.669291338582674,101.53846153846155 L 51.338582677165356,101.53846153846155 L 57.00787401574803,101.53846153846155 L 62.67716535433071,101.53846153846155 L 68.34645669291339,101.53846153846155 L 74.01574803149606,101.53846153846155 L 79.68503937007874,101.53846153846155 L 85.35433070866142,101.53846153846155 L 91.02362204724409,101.53846153846155 L 96.69291338582677,101.53846153846155 L 102.36220472440945,101.53846153846155 L 108.03149606299212,101.53846153846155 L 113.7007874015748,101.53846153846155 L 119.37007874015748,101.53846153846155 L 125.03937007874016,101.53846153846155 L 130.70866141732284,101.53846153846155 L 136.37795275590554,101.53846153846155 L 142.04724409448818,101.53846153846155 L 147.71653543307087,101.53846153846155 L 153.38582677165354,101.53846153846155 L 159.0551181102362,101.53846153846155 L 164.7244094488189,101.53846153846155 L 170.39370078740157,101.53846153846155 L 176.06299212598424,101.53846153846155 L 181.73228346456693,101.53846153846155 L 187.4015748031496,101.53846153846155 L 193.0708661417323,40.0 L 198.74015748031496,40.0 L 204.40944881889766,40.0 L 210.07874015748033,40.0 L 215.748031496063,40.0 L 221.41732283464566,40.0 L 227.08661417322833,40.0 L 232.75590551181105,40.0 L 238.42519685039372,40.0 L 244.09448818897638,40.0 L 249.76377952755905,40.0 L 255.43307086614175,40.0 L 261.1023622047244,40.0 L 266.7716535433071,40.0 L 272.4409448818898,40.0 L 278.1102362204724,40.0 L 283.7795275590551,40.0 L 289.4488188976378,40.0 L 295.11811023622045,40.0 L 300.78740157480314,40.0 L 306.45669291338584,40.0 L 312.1259842519685,40.0 L 317.79527559055117,40.0 L 323.46456692913387,40.0 L 329.13385826771656,40.0 L 334.8031496062992,40.0 L 340.4724409448819,40.0 L 346.1417322834646,40.0 L 351.81102362204723,40.0 L 357.4803149606299,40.0 L 363.14960629921256,40.0 L 368.8188976377953,40.0 L 374.48818897637796,40.0 L 380.15748031496065,40.0 L 385.8267716535433,40.0 L 391.496062992126,40.0 L 397.1653543307087,40.0 L 402.8346456692913,40.0 L 408.503937007874,40.0 L 414.17322834645665,40.0 L 419.84251968503935,40.0 L 425.5118110236221,40.0 L 431.18110236220474,40.0 L 436.85039370078744,40.0 L 442.5196850393701,40.0 L 448.18897637795277,40.0 L 453.8582677165354,40.0 L 459.5275590551181,40.0 L 465.19685039370074,40.0 L 470.8661417322835,40.0 L 476.5354330708662,40.0 L 482.20472440944883,40.0 L 487.8740157480315,40.0 L 493.54330708661416,40.0 L 499.21259842519686,40.0 L 504.8818897637795,40.0 L 510.5511811023622,40.0 L 516.2204724409448,40.0 L 521.8897637795276,40.0 L 527.5590551181102,40.0 L 533.2283464566929,40.0 L 538.8976377952756,40.0 L 544.5669291338583,40.0 L 550.2362204724409,40.0 L 555.9055118110235,40.0 L 561.5748031496063,40.0 L 567.244094488189,40.0 L 572.9133858267717,40.0 L 578.5826771653543,40.0 L 584.251968503937,40.0 L 589.9212598425197,40.0 L 595.5905511811023,40.0 L 601.259842519685,40.0 L 606.9291338582677,40.0 L 612.5984251968504,40.0 L 618.2677165354331,40.0 L 623.9370078740158,40.0 L 629.6062992125984,40.0 L 635.275590551181,40.0 L 640.9448818897638,40.0 L 646.6141732283464,40.0 L 652.2834645669292,40.0 L 657.9527559055118,40.0 L 663.6220472440945,40.0 L 669.2913385826772,40.0 L 674.9606299212599,40.0 L 680.6299212598425,40.0 L 686.2992125984251,40.0 L 691.9685039370079,40.0 L 697.6377952755906,40.0 L 703.3070866141733,40.0 L 708.9763779527559,40.0 L 714.6456692913385,40.0 L 720.3149606299213,40.0 L 725.9842519685039,40.0 L 731.6535433070866,40.0 L 737.3228346456692,40.0 L 742.992125984252,40.0 L 748.6614173228347,40.0 L 754.3307086614174,40.0 L 760.0,40.0" class="line"/>
  <circle cx="40.0" cy="101.53846153846155" class="point"/>
  <text x="40.0" y="375" class="label" text-anchor="middle">2025-11-11</text>
  <text x="40.0" y="96.53846153846155" class="label" text-anchor="middle">42</text>
  <circle cx="45.669291338582674" cy="101.53846153846155" class="point"/>
  <text x="45.669291338582674" y="375" class="label" text-anchor="middle">2025-11-12</text>
  <text x="45.669291338582674" y="96.53846153846155" class="label" text-anchor="middle">42</text>
  <circle cx="51.338582677165356" cy="101.53846153846155" class="point"/>
  <text x="51.338582677165356" y="375" class="label" text-anchor="middle">2025-11-13</text>
  <text x="51.338582677165356" y="96.53846153846155" class="label" text-anchor="middle">42</text>
  <circle cx="57.00787401574803" cy="101.53846153846155" class="point"/>
  <text x="57.00787401574803" y="375" class="label" text-anchor="middle">2025-11-14</text>
  <text x="57.00787401574803" y="96.53846153846155" class="label" text-anchor="middle">42</text>
  <circle cx="62.67716535433071" cy="101.53846153846155" class="point"/>
  <text x="62.67716535433071" y="375" class="label" text-anchor="middle">2025-11-15</text>
  <text x="62.67716535433071" y="96.53846153846155" class="label" text-anchor="middle">42</text>
  <circle cx="68.34645669291339" cy="101.53846153846155" class="point"/>
  <text x="68.34645669291339" y="375" class="label" text-anchor="middle">2025-11-16</text>
  <text x="68.34645669291339" y="96.53846153846155" class="label" text-anchor="middle">42</text>
  <circle cx="74.01574803149606" cy="101.53846153846155" class="point"/>
  <text x="74.01574803149606" y="375" class="label" text-anchor="middle">2025-11-17</text>
  <text x="74.01574803149606" y="96.53846153846155" class="label" text-anchor="middle">42</text>
  <circle cx="79.68503937007874" cy="101.53846153846155" class="point"/>
  <text x="79.68503937007874" y="375" class="label" text-anchor="middle">2025-11-18</text>
  <text x="79.68503937007874" y="96.53846153846155" class="label" text-anchor="middle">42</text>
  <circle cx="85.35433070866142" cy="101.53846153846155" class="point"/>
  <text x="85.35433070866142" y="375" class="label" text-anchor="middle">2025-11-19</text>
  <text x="85.35433070866142" y="96.53846153846155" class="label" text-anchor="middle">42</text>
  <circle cx="91.02362204724409" cy="101.53846153846155" class="point"/>
  <text x="91.02362204724409" y="375" class="label" text-anchor="middle">2025-11-20</text>
  <text x="91.02362204724409" y="96.53846153846155" class="label" text-anchor="middle">42</text>
  <circle cx="96.69291338582677" cy="101.53846153846155" class="point"/>
  <text x="96.69291338582677" y="375" class="label" text-anchor="middle">2025-11-21</text>
  <text x="96.69291338582677" y="96.53846153846155" class="label" text-anchor="middle">42</text>
  <circle cx="102.36220472440945" cy="101.53846153846155" class="point"/>
  <text x="102.36220472440945" y="375" class="label" text-anchor="middle">2025-11-22</text>
  <text x="102.36220472440945" y="96.53846153846155" class="label" text-anchor="middle">42</text>
  <circle cx="108.03149606299212" cy="101.53846153846155" class="point"/>
  <text x="108.03149606299212" y="375" class="label" text-anchor="middle">2025-11-23</text>
  <text x="108.03149606299212" y="96.53846153846155" class="label" text-anchor="middle">42</text>
  <circle cx="113.7007874015748" cy="101.53846153846155" class="point"/>
  <text x="113.7007874015748" y="375" class="label" text-anchor="middle">2025-11-24</text>
  <text x="113.7007874015748" y="96.53846153846155" class="label" text-anchor="middle">42</text>
  <circle cx="119.37007874015748" cy="101.53846153846155" class="point"/>
  <text x="119.37007874015748" y="375" class="label" text-anchor="middle">2025-11-25</text>
  <text x="119.37007874015748" y="96.53846153846155" class="label" text-anchor="middle">42</text>
  <circle cx="125.03937007874016" cy="101.53846153846155" class="point"/>
  <text x="125.03937007874016" y="375" class="label" text-anchor="middle">2025-11-26</text>
  <text x="125.03937007874016" y="96.53846153846155" class="label" text-anchor="middle">42</text>
  <circle cx="130.70866141732284" cy="101.53846153846155" class="point"/>
  <text x="130.70866141732284" y="375" class="label" text-anchor="middle">2025-11-27</text>
  <text x="130.70866141732284" y="96.53846153846155" class="label" text-anchor="middle">42</text>
  <circle cx="136.37795275590554" cy="101.53846153846155" class="point"/>
  <text x="136.37795275590554" y="375" class="label" text-anchor="middle">2025-11-28</text>
  <text x="136.37795275590554" y="96.53846153846155" class="label" text-anchor="middle">42</text>
  <circle cx="142.04724409448818" cy="101.53846153846155" class="point"/>
  <text x="142.04724409448818" y="375" class="label" text-anchor="middle">2025-11-29</text>
  <text x="142.04724409448818" y="96.53846153846155" class="label" text-anchor="middle">42</text>
  <circle cx="147.71653543307087" cy="101.53846153846155" class="point"/>
  <text x="147.71653543307087" y="375" class="label" text-anchor="middle">2025-11-30</text>
  <text x="147.71653543307087" y="96.53846153846155" class="label" text-anchor="middle">42</text>
  <circle cx="153.38582677165354" cy="101.53846153846155" class="point"/>
  <text x="153.38582677165354" y="375" class="label" text-anchor="middle">2025-12-01</text>
  <text x="153.38582677165354" y="96.53846153846155" class="label" text-anchor="middle">42</text>
  <circle cx="159.0551181102362" cy="101.53846153846155" class="point"/>
  <text x="159.0551181102362" y="375" class="label" text-anchor="middle">2025-12-02</text>
  <text x="159.0551181102362" y="96.53846153846155" class="label" text-anchor="middle">42</text>
  <circle cx="164.7244094488189" cy="101.53846153846155" class="point"/>
  <text x="164.7244094488189" y="375" class="label" text-anchor="middle">2025-12-03</text>
  <text x="164.7244094488189" y="96.53846153846155" class="label" text-anchor="middle">42</text>
  <circle cx="170.39370078740157" cy="101.53846153846155" class="point"/>
  <text x="170.39370078740157" y="375" class="label" text-anchor="middle">2025-12-04</text>
  <text x="170.39370078740157" y="96.53846153846155" class="label" text-anchor="middle">42</text>
  <circle cx="176.06299212598424" cy="101.53846153846155" class="point"/>
  <text x="176.06299212598424" y="375" class="label" text-anchor="middle">2025-12-05</text>
  <text x="176.06299212598424" y="96.53846153846155" class="label" text-anchor="middle">42</text>
  <circle cx="181.73228346456693" cy="101.53846153846155" class="point"/>
  <text x="181.73228346456693" y="375" class="label" text-anchor="middle">2025-12-06</text>
  <text x="181.73228346456693" y="96.53846153846155" class="label" text-anchor="middle">42</text>
  <circle cx="187.4015748031496" cy="101.53846153846155" class="point"/>
  <text x="187.4015748031496" y="375" class="label" text-anchor="middle">2025-12-07</text>
  <text x="187.4015748031496" y="96.53846153846155" class="label" text-anchor="middle">42</text>
  <circle cx="193.0708661417323" cy="40.0" class="point"/>
  <text x="193.0708661417323" y="375" class="label" text-anchor="middle">2025-12-08</text>
  <text x="193.0708661417323" y="35.0" class="label" text-anchor="middle">52</text>
  <circle cx="198.74015748031496" cy="40.0" class="point"/>
  <text x="198.74015748031496" y="375" class="label" text-anchor="middle">2025-12-09</text>
  <text x="198.74015748031496" y="35.0" class="label" text-anchor="middle">52</text>
  <circle cx="204.40944881889766" cy="40.0" class="point"/>
  <text x="204.40944881889766" y="375" class="label" text-anchor="middle">2025-12-10</text>
  <text x="204.40944881889766" y="35.0" class="label" text-anchor="middle">52</text>
  <circle cx="210.07874015748033" cy="40.0" class="point"/>
  <text x="210.07874015748033" y="375" class="label" text-anchor="middle">2025-12-11</text>
  <text x="210.07874015748033" y="35.0" class="label" text-anchor="middle">52</text>
  <circle cx="215.748031496063" cy="40.0" class="point"/>
  <text x="215.748031496063" y="375" class="label" text-anchor="middle">2025-12-12</text>
  <text x="215.748031496063" y="35.0" class="label" text-anchor="middle">52</text>
  <circle cx="221.41732283464566" cy="40.0" class="point"/>
  <text x="221.41732283464566" y="375" class="label" text-anchor="middle">2025-12-13</text>
  <text x="221.41732283464566" y="35.0" class="label" text-anchor="middle">52</text>
  <circle cx="227.08661417322833" cy="40.0" class="point"/>
  <text x="227.08661417322833" y="375" class="label" text-anchor="middle">2025-12-14</text>
  <text x="227.08661417322833" y="35.0" class="label" text-anchor="middle">52</text>
  <circle cx="232.75590551181105" cy="40.0" class="point"/>
  <text x="232.75590551181105" y="375" class="label" text-anchor="middle">2025-12-15</text>
  <text x="232.75590551181105" y="35.0" class="label" text-anchor="middle">52</text>
  <circle cx="238.42519685039372" cy="40.0" class="point"/>
  <text x="238.42519685039372" y="375" class="label" text-anchor="middle">2025-12-16</text>
  <text x="238.42519685039372" y="35.0" class="label" text-anchor="middle">52</text>
  <circle cx="244.09448818897638" cy="40.0" class="point"/>
  <text x="244.09448818897638" y="375" class="label" text-anchor="middle">2025-12-17</text>
  <text x="244.09448818897638" y="35.0" class="label" text-anchor="middle">52</text>
  <circle cx="249.76377952755905" cy="40.0" class="point"/>
  <text x="249.76377952755905" y="375" class="label" text-anchor="middle">2025-12-18</text>
  <text x="249.76377952755905" y="35.0" class="label" text-anchor="middle">52</text>
  <circle cx="255.43307086614175" cy="40.0" class="point"/>
  <text x="255.43307086614175" y="375" class="label" text-anchor="middle">2025-12-19</text>
  <text x="255.43307086614175" y="35.0" class="label" text-anchor="middle">52</text>
  <circle cx="261.1023622047244" cy="40.0" class="point"/>
  <text x="261.1023622047244" y="375" class="label" text-anchor="middle">2025-12-20</text>
  <text x="261.1023622047244" y="35.0" class="label" text-anchor="middle">52</text>
  <circle cx="266.7716535433071" cy="40.0" class="point"/>
  <text x="266.7716535433071" y="375" class="label" text-anchor="middle">2025-12-21</text>
  <text x="266.7716535433071" y="35.0" class="label" text-anchor="middle">52</text>
  <circle cx="272.4409448818898" cy="40.0" class="point"/>
  <text x="272.4409448818898" y="375" class="label" text-anchor="middle">2025-12-22</text>
  <text x="272.4409448818898" y="35.0" class="label" text-anchor="middle">52</text>
  <circle cx="278.1102362204724" cy="40.0" class="point"/>
  <text x="278.1102362204724" y="375" class="label" text-anchor="middle">2025-12-23</text>
  <text x="278.1102362204724" y="35.0" class="label" text-anchor="middle">52</text>
  <circle cx="283.7795275590551" cy="40.0" class="point"/>
  <text x="283.7795275590551" y="375" class="label" text-anchor="middle">2025-12-24</text>
  <text x="283.7795275590551" y="35.0" class="label" text-anchor="middle">52</text>
  <circle cx="289.4488188976378" cy="40.0" class="point"/>
  <text x="289.4488188976378" y="375" class="label" text-anchor="middle">2025-12-25</text>
  <text x="289.4488188976378" y="35.0" class="label" text-anchor="middle">52</text>
  <circle cx="295.11811023622045" cy="40.0" class="point"/>
  <text x="295.11811023622045" y="375" class="label" text-anchor="middle">2025-12-26</text>
  <text x="295.11811023622045" y="35.0" class="label" text-anchor="middle">52</text>
  <circle cx="300.78740157480314" cy="40.0" class="point"/>
  <text x="300.78740157480314" y="375" class="label" text-anchor="middle">2025-12-27</text>
  <text x="300.78740157480314" y="35.0" class="label" text-anchor="middle">52</text>
  <circle cx="306.45669291338584" cy="40.0" class="point"/>
  <text x="306.45669291338584" y="375" class="label" text-anchor="middle">2025-12-28</text>
  <text x="306.45669291338584" y="35.0" class="label" text-anchor="middle">52</text>
  <circle cx="312.1259842519685" cy="40.0" class="point"/>
  <text x="312.1259842519685" y="375" class="label" text-anchor="middle">2025-12-29</text>
  <text x="312.1259842519685" y="35.0" class="label" text-anchor="middle">52</text>
  <circle cx="317.79527559055117" cy="40.0" class="point"/>
  <text x="317.79527559055117" y="375" class="label" text-anchor="middle">2025-12-30</text>
  <text x="317.79527559055117" y="35.0" class="label" text-anchor="middle">52</text>
  <circle cx="323.46456692913387" cy="40.0" class="point"/>
  <text x="323.46456692913387" y="375" class="label" text-anchor="middle">2025-12-31</text>
  <text x="323.46456692913387" y="35.0" class="label" text-anchor="middle">52</text>
  <circle cx="329.13385826771656" cy="40.0" class="point"/>
  <text x="329.13385826771656" y="375" class="label" text-anchor="middle">2026-01-01</text>
  <text x="329.13385826771656" y="35.0" class="label" text-anchor="middle">52</text>
  <circle cx="334.8031496062992" cy="40.0" class="point"/>
  <text x="334.8031496062992" y="375" class="label" text-anchor="middle">2026-01-02</text>
  <text x="334.8031496062992" y="35.0" class="label" text-anchor="middle">52</text>
  <circle cx="340.4724409448819" cy="40.0" class="point"/>
  <text x="340.4724409448819" y="375" class="label" text-anchor="middle">2026-01-03</text>
  <text x="340.4724409448819" y="35.0" class="label" text-anchor="middle">52</text>
  <circle cx="346.1417322834646" cy="40.0" class="point"/>
  <text x="346.1417322834646" y="375" class="label" text-anchor="middle">2026-01-04</text>
  <text x="346.1417322834646" y="35.0" class="label" text-anchor="middle">52</text>
  <circle cx="351.81102362204723" cy="40.0" class="point"/>
  <text x="351.81102362204723" y="375" class="label" text-anchor="middle">2026-01-05</text>
  <text x="351.81102362204723" y="35.0" class="label" text-anchor="middle">52</text>
  <circle cx="357.4803149606299" cy="40.0" class="point"/>
  <text x="357.4803149606299" y="375" class="label" text-anchor="middle">2026-01-06</text>
  <text x="357.4803149606299" y="35.0" class="label" text-anchor="middle">52</text>
  <circle cx="363.14960629921256" cy="40.0" class="point"/>
  <text x="363.14960629921256" y="375" class="label" text-anchor="middle">2026-01-07</text>
  <text x="363.14960629921256" y="35.0" class="label" text-anchor="middle">52</text>
  <circle cx="368.8188976377953" cy="40.0" class="point"/>
  <text x="368.8188976377953" y="375" class="label" text-anchor="middle">2026-01-08</text>
  <text x="368.8188976377953" y="35.0" class="label" text-anchor="middle">52</text>
  <circle cx="374.48818897637796" cy="40.0" class="point"/>
  <text x="374.48818897637796" y="375" class="label" text-anchor="middle">2026-01-09</text>
  <text x="374.48818897637796" y="35.0" class="label" text-anchor="middle">52</text>
  <circle cx="380.15748031496065" cy="40.0" class="point"/>
  <text x="380.15748031496065" y="375" class="label" text-anchor="middle">2026-01-10</text>
  <text x="380.15748031496065" y="35.0" class="label" text-anchor="middle">52</text>
  <circle cx="385.8267716535433" cy="40.0" class="point"/>
  <text x="385.8267716535433" y="375" class="label" text-anchor="middle">2026-01-11</text>
  <text x="385.8267716535433" y="35.0" class="label" text-anchor="middle">52</text>
  <circle cx="391.496062992126" cy="40.0" class="point"/>
  <text x="391.496062992126" y="375" class="label" text-anchor="middle">2026-01-12</text>
  <text x="391.496062992126" y="35.0" class="label" text-anchor="middle">52</text>
  <circle cx="397.1653543307087" cy="40.0" class="point"/>
  <text x="397.1653543307087" y="375" class="label" text-anchor="middle">2026-01-13</text>
  <text x="397.1653543307087" y="35.0" class="label" text-anchor="middle">52</text>
  <circle cx="402.8346456692913" cy="40.0" class="point"/>
  <text x="402.8346456692913" y="375" class="label" text-anchor="middle">2026-01-14</text>
  <text x="402.8346456692913" y="35.0" class="label" text-anchor="middle">52</text>
  <circle cx="408.503937007874" cy="40.0" class="point"/>
  <text x="408.503937007874" y="375" class="label" text-anchor="middle">2026-01-15</text>
  <text x="408.503937007874" y="35.0" class="label" text-anchor="middle">52</text>
  <circle cx="414.17322834645665" cy="40.0" class="point"/>
  <text x="414.17322834645665" y="375" class="label" text-anchor="middle">2026-01-16</text>
  <text x="414.17322834645665" y="35.0" class="label" text-anchor="middle">52</text>
  <circle cx="419.84251968503935" cy="40.0" class="point"/>
  <text x="419.84251968503935" y="375" class="label" text-anchor="middle">2026-01-17</text>
  <text x="419.84251968503935" y="35.0" class="label" text-anchor="middle">52</text>
  <circle cx="425.5118110236221" cy="40.0" class="point"/>
  <text x="425.5118110236221" y="375" class="label" text-anchor="middle">2026-01-18</text>
  <text x="425.5118110236221" y="35.0" class="label" text-anchor="middle">52</text>
  <circle cx="431.18110236220474" cy="40.0" class="point"/>
  <text x="431.18110236220474" y="375" class="label" text-anchor="middle">2026-01-19</text>
  <text x="431.18110236220474" y="35.0" class="label" text-anchor="middle">52</text>
  <circle cx="436.85039370078744" cy="40.0" class="point"/>
  <text x="436.85039370078744" y="375" class="label" text-anchor="middle">2026-01-20</text>
  <text x="436.85039370078744" y="35.0" class="label" text-anchor="middle">52</text>
  <circle cx="442.5196850393701" cy="40.0" class="point"/>
  <text x="442.5196850393701" y="375" class="label" text-anchor="middle">2026-01-21</text>
  <text x="442.5196850393701" y="35.0" class="label" text-anchor="middle">52</text>
  <circle cx="448.18897637795277" cy="40.0" class="point"/>
  <text x="448.18897637795277" y="375" class="label" text-anchor="middle">2026-01-22</text>
  <text x="448.18897637795277" y="35.0" class="label" text-anchor="middle">52</text>
  <circle cx="453.8582677165354" cy="40.0" class="point"/>
  <text x="453.8582677165354" y="375" class="label" text-anchor="middle">2026-01-23</text>
  <text x="453.8582677165354" y="35.0" class="label" text-anchor="middle">52</text>
  <circle cx="459.5275590551181" cy="40.0" class="point"/>
  <text x="459.5275590551181" y="375" class="label" text-anchor="middle">2026-01-24</text>
  <text x="459.5275590551181" y="35.0" class="label" text-anchor="middle">52</text>
  <circle cx="465.19685039370074" cy="40.0" class="point"/>
  <text x="465.19685039370074" y="375" class="label" text-anchor="middle">2026-01-25</text>
  <text x="465.19685039370074" y="35.0" class="label" text-anchor="middle">52</text>
  <circle cx="470.8661417322835" cy="40.0" class="point"/>
  <text x="470.8661417322835" y="375" class="label" text-anchor="middle">2026-01-26</text>
  <text x="470.8661417322835" y="35.0" class="label" text-anchor="middle">52</text>
  <circle cx="476.5354330708662" cy="40.0" class="point"/>
  <text x="476.5354330708662" y="375" class="label" text-anchor="middle">2026-01-27</text>
  <text x="476.5354330708662" y="35.0" class="label" text-anchor="middle">52</text>
  <circle cx="482.20472440944883" cy="40.0" class="point"/>
  <text x="482.20472440944883" y="375" class="label" text-anchor="middle">2026-01-28</text>
  <text x="482.20472440944883" y="35.0" class="label" text-anchor="middle">52</text>
  <circle cx="487.8740157480315" cy="40.0" class="point"/>
  <text x="487.8740157480315" y="375" class="label" text-anchor="middle">2026-01-29</text>
  <text x="487.8740157480315" y="35.0" class="label" text-anchor="middle">52</text>
  <circle cx="493.54330708661416" cy="40.0" class="point"/>
  <text x="493.54330708661416" y="375" class="label" text-anchor="middle">2026-01-30</text>
  <text x="493.54330708661416" y="35.0" class="label" text-anchor="middle">52</text>
  <circle cx="499.21259842519686" cy="40.0" class="point"/>
  <text x="499.21259842519686" y="375" class="label" text-anchor="middle">2026-01-31</text>
  <text x="499.21259842519686" y="35.0" class="label" text-anchor="middle">52</text>
  <circle cx="504.8818897637795" cy="40.0" class="point"/>
  <text x="504.8818897637795" y="375" class="label" text-anchor="middle">2026-02-01</text>
  <text x="504.8818897637795" y="35.0" class="label" text-anchor="middle">52</text>
  <circle cx="510.5511811023622" cy="40.0" class="point"/>
  <text x="510.5511811023622" y="375" class="label" text-anchor="middle">2026-02-02</text>
  <text x="510.5511811023622" y="35.0" class="label" text-anchor="middle">52</text>
  <circle cx="516.2204724409448" cy="40.0" class="point"/>
  <text x="516.2204724409448" y="375" class="label" text-anchor="middle">2026-02-03</text>
  <text x="516.2204724409448" y="35.0" class="label" text-anchor="middle">52</text>
  <circle cx="521.8897637795276" cy="40.0" class="point"/>
  <text x="521.8897637795276" y="375" class="label" text-anchor="middle">2026-02-04</text>
  <text x="521.8897637795276" y="35.0" class="label" text-anchor="middle">52</text>
  <circle cx="527.5590551181102" cy="40.0" class="point"/>
  <text x="527.5590551181102" y="375" class="label" text-anchor="middle">2026-02-05</text>
  <text x="527.5590551181102" y="35.0" class="label" text-anchor="middle">52</text>
  <circle cx="533.2283464566929" cy="40.0" class="point"/>
  <text x="533.2283464566929" y="375" class="label" text-anchor="middle">2026-02-06</text>
  <text x="533.2283464566929" y="35.0" class="label" text-anchor="middle">52</text>
  <circle cx="538.8976377952756" cy="40.0" class="point"/>
  <text x="538.8976377952756" y="375" class="label" text-anchor="middle">2026-02-07</text>
  <text x="538.8976377952756" y="35.0" class="label" text-anchor="middle">52</text>
  <circle cx="544.5669291338583" cy="40.0" class="point"/>
  <text x="544.5669291338583" y="375" class="label" text-anchor="middle">2026-02-08</text>
  <text x="544.5669291338583" y="35.0" class="label" text-anchor="middle">52</text>
  <circle cx="550.2362204724409" cy="40.0" class="point"/>
  <text x="550.2362204724409" y="375" class="label" text-anchor="middle">2026-02-09</text>
  <text x="550.2362204724409" y="35.0" class="label" text-anchor="middle">52</text>
  <circle cx="555.9055118110235" cy="40.0" class="point"/>
  <text x="555.9055118110235" y="375" class="label" text-anchor="middle">2026-02-10</text>
  <text x="555.9055118110235" y="35.0" class="label" text-anchor="middle">52</text>
  <circle cx="561.5748031496063" cy="40.0" class="point"/>
  <text x="561.5748031496063" y="375" class="label" text-anchor="middle">2026-02-11</text>
  <text x="561.5748031496063" y="35.0" class="label" text-anchor="middle">52</text>
  <circle cx="567.244094488189" cy="40.0" class="point"/>
  <text x="567.244094488189" y="375" class="label" text-anchor="middle">2026-02-12</text>
  <text x="567.244094488189" y="35.0" class="label" text-anchor="middle">52</text>
  <circle cx="572.9133858267717" cy="40.0" class="point"/>
  <text x="572.9133858267717" y="375" class="label" text-anchor="middle">2026-02-13</text>
  <text x="572.9133858267717" y="35.0" class="label" text-anchor="middle">52</text>
  <circle cx="578.5826771653543" cy="40.0" class="point"/>
  <text x="578.5826771653543" y="375" class="label" text-anchor="middle">2026-02-14</text>
  <text x="578.5826771653543" y="35.0" class="label" text-anchor="middle">52</text>
  <circle cx="584.251968503937" cy="40.0" class="point"/>
  <text x="584.251968503937" y="375" class="label" text-anchor="middle">2026-02-15</text>
  <text x="584.251968503937" y="35.0" class="label" text-anchor="middle">52</text>
  <circle cx="589.9212598425197" cy="40.0" class="point"/>
  <text x="589.9212598425197" y="375" class="label" text-anchor="middle">2026-02-16</text>
  <text x="589.9212598425197" y="35.0" class="label" text-anchor="middle">52</text>
  <circle cx="595.5905511811023" cy="40.0" class="point"/>
  <text x="595.5905511811023" y="375" class="label" text-anchor="middle">2026-02-17</text>
  <text x="595.5905511811023" y="35.0" class="label" text-anchor="middle">52</text>
  <circle cx="601.259842519685" cy="40.0" class="point"/>
  <text x="601.259842519685" y="375" class="label" text-anchor="middle">2026-02-18</text>
  <text x="601.259842519685" y="35.0" class="label" text-anchor="middle">52</text>
  <circle cx="606.9291338582677" cy="40.0" class="point"/>
  <text x="606.9291338582677" y="375" class="label" text-anchor="middle">2026-02-19</text>
  <text x="606.9291338582677" y="35.0" class="label" text-anchor="middle">52</text>
  <circle cx="612.5984251968504" cy="40.0" class="point"/>
  <text x="612.5984251968504" y="375" class="label" text-anchor="middle">2026-02-20</text>
  <text x="612.5984251968504" y="35.0" class="label" text-anchor="middle">52</text>
  <circle cx="618.2677165354331" cy="40.0" class="point"/>
  <text x="618.2677165354331" y="375" class="label" text-anchor="middle">2026-02-21</text>
  <text x="618.2677165354331" y="35.0" class="label" text-anchor="middle">52</text>
  <circle cx="623.9370078740158" cy="40.0" class="point"/>
  <text x="623.9370078740158" y="375" class="label" text-anchor="middle">2026-02-22</text>
  <text x="623.9370078740158" y="35.0" class="label" text-anchor="middle">52</text>
  <circle cx="629.6062992125984" cy="40.0" class="point"/>
  <text x="629.6062992125984" y="375" class="label" text-anchor="middle">2026-02-23</text>
  <text x="629.6062992125984" y="35.0" class="label" text-anchor="middle">52</text>
  <circle cx="635.275590551181" cy="40.0" class="point"/>
  <text x="635.275590551181" y="375" class="label" text-anchor="middle">2026-02-24</text>
  <text x="635.275590551181" y="35.0" class="label" text-anchor="middle">52</text>
  <circle cx="640.9448818897638" cy="40.0" class="point"/>
  <text x="640.9448818897638" y="375" class="label" text-anchor="middle">2026-02-25</text>
  <text x="640.9448818897638" y="35.0" class="label" text-anchor="middle">52</text>
  <circle cx="646.6141732283464" cy="40.0" class="point"/>
  <text x="646.6141732283464" y="375" class="label" text-anchor="middle">2026-02-26</text>
  <text x="646.6141732283464" y="35.0" class="label" text-anchor="middle">52</text>
  <circle cx="652.2834645669292" cy="40.0" class="point"/>
  <text x="652.2834645669292" y="375" class="label" text-anchor="middle">2026-02-27</text>
  <text x="652.2834645669292" y="35.0" class="label" text-anchor="middle">52</text>
  <circle cx="657.9527559055118" cy="40.0" class="point"/>
  <text x="657.9527559055118" y="375" class="label" text-anchor="middle">2026-02-28</text>
  <text x="657.9527559055118" y="35.0" class="label" text-anchor="middle">52</text>
  <circle cx="663.6220472440945" cy="40.0" class="point"/>
  <text x="663.6220472440945" y="375" class="label" text-anchor="middle">2026-03-01</text>
  <text x="663.6220472440945" y="35.0" class="label" text-anchor="middle">52</text>
  <circle cx="669.2913385826772" cy="40.0" class="point"/>
  <text x="669.2913385826772" y="375" class="label" text-anchor="middle">2026-03-02</text>
  <text x="669.2913385826772" y="35.0" class="label" text-anchor="middle">52</text>
  <circle cx="674.9606299212599" cy="40.0" class="point"/>
  <text x="674.9606299212599" y="375" class="label" text-anchor="middle">2026-03-03</text>
  <text x="674.9606299212599" y="35.0" class="label" text-anchor="middle">52</text>
  <circle cx="680.6299212598425" cy="40.0" class="point"/>
  <text x="680.6299212598425" y="375" class="label" text-anchor="middle">2026-03-04</text>
  <text x="680.6299212598425" y="35.0" class="label" text-anchor="middle">52</text>
  <circle cx="686.2992125984251" cy="40.0" class="point"/>
  <text x="686.2992125984251" y="375" class="label" text-anchor="middle">2026-03-05</text>
  <text x="686.2992125984251" y="35.0" class="label" text-anchor="middle">52</text>
  <circle cx="691.9685039370079" cy="40.0" class="point"/>
  <text x="691.9685039370079" y="375" class="label" text-anchor="middle">2026-03-06</text>
  <text x="691.9685039370079" y="35.0" class="label" text-anchor="middle">52</text>
  <circle cx="697.6377952755906" cy="40.0" class="point"/>
  <text x="697.6377952755906" y="375" class="label" text-anchor="middle">2026-03-07</text>
  <text x="697.6377952755906" y="35.0" class="label" text-anchor="middle">52</text>
  <circle cx="703.3070866141733" cy="40.0" class="point"/>
  <text x="703.3070866141733" y="375" class="label" text-anchor="middle">2026-03-08</text>
  <text x="703.3070866141733" y="35.0" class="label" text-anchor="middle">52</text>
  <circle cx="708.9763779527559" cy="40.0" class="point"/>
  <text x="708.9763779527559" y="375" class="label" text-anchor="middle">2026-03-09</text>
  <text x="708.9763779527559" y="35.0" class="label" text-anchor="middle">52</text>
  <circle cx="714.6456692913385" cy="40.0" class="point"/>
  <text x="714.6456692913385" y="375" class="label" text-anchor="middle">2026-03-10</text>
  <text x="714.6456692913385" y="35.0" class="label" text-anchor="middle">52</text>
  <circle cx="720.3149606299213" cy="40.0" class="point"/>
  <text x="720.3149606299213" y="375" class="label" text-anchor="middle">2026-03-11</text>
  <text x="720.3149606299213" y="35.0" class="label" text-anchor="middle">52</text>
  <circle cx="725.9842519685039" cy="40.0" class="point"/>
  <text x="725.9842519685039" y="375" class="label" text-anchor="middle">2026-03-12</text>
  <text x="725.9842519685039" y="35.0" class="label" text-anchor="middle">52</text>
  <circle cx="731.6535433070866" cy="40.0" class="point"/>
  <text x="731.6535433070866" y="375" class="label" text-anchor="middle">2026-03-13</text>
  <text x="731.6535433070866" y="35.0" class="label" text-anchor="middle">52</text>
  <circle cx="737.3228346456692" cy="40.0" class="point"/>
  <text x="737.3228346456692" y="375" class="label" text-anchor="middle">2026-03-14</text>
  <text x="737.3228346456692" y="35.0" class="label" text-anchor="middle">52</text>
  <circle cx="742.992125984252" cy="40.0" class="point"/>
  <text x="742.992125984252" y="375" class="label" text-anchor="middle">2026-03-15</text>
  <text x="742.992125984252" y="35.0" class="label" text-anchor="middle">52</text>
  <circle cx="748.6614173228347" cy="40.0" class="point"/>
  <text x="748.6614173228347" y="375" class="label" text-anchor="middle">2026-03-16</text>
  <text x="748.6614173228347" y="35.0" class="label" text-anchor="middle">52</text>
  <circle cx="754.3307086614174" cy="40.0" class="point"/>
  <text x="754.3307086614174" y="375" class="label" text-anchor="middle">2026-03-17</text>
  <text x="754.3307086614174" y="35.0" class="label" text-anchor="middle">52</text>
  <circle cx="760.0" cy="40.0" class="point"/>
  <text x="760.0" y="375" class="label" text-anchor="middle">2026-03-18</text>
  <text x="760.0" y="35.0" class="label" text-anchor="middle">52</text>
  <text x="30" y="363.0" class="label" text-anchor="end">0</text>
  <text x="30" y="301.46153846153845" class="label" text-anchor="end">10</text>
  <text x="30" y="239.9230769230769" class="label" text-anchor="end">20</text>
  <text x="30" y="178.38461538461542" class="label" text-anchor="end">30</text>
  <text x="30" y="116.84615384615384" class="label" text-anchor="end">40</text>
  <text x="30" y="55.30769230769232" class="label" text-anchor="end">50</text>
</svg>