<svg xmlns="http://www.w3.org/2000/svg" width="800" height="400" viewBox="0 0 800 400">
  <style>
    .axis{stroke:#666;stroke-width:1}
    .line{stroke:#4a9;stroke-width:2;fill:none}
    .point{fill:#4a9;r:4}
    .label{font:10px sans-serif;fill:#aaa}
    .title{font:14px sans-serif;fill:#333}
  </style>
  <text x="400" y="20" class="title" text-anchor="middle">OPIC Field Growth Timeline</text>
  <line x1="40" y1="40" x2="40" y2="360" class="axis"/>
  <line x1="40" y1="360" x2="760" y2="360" class="axis"/>
  <path d="M 40.0,101.53846153846155 L 45.03496503496503,101.53846153846155 L 50.06993006993007,101.53846153846155 L 55.10489510489511,101.53846153846155 L 60.13986013986014,101.53846153846155 L 65.17482517482517,101.53846153846155 L 70.20979020979021,101.53846153846155 L 75.24475524475525,101.53846153846155 L 80.27972027972028,101.53846153846155 L 85.31468531468532,101.53846153846155 L 90.34965034965035,101.53846153846155 L 95.38461538461539,101.53846153846155 L 100.41958041958043,101.53846153846155 L 105.45454545454545,101.53846153846155 L 110.4895104895105,101.53846153846155 L 115.52447552447552,101.53846153846155 L 120.55944055944056,101.53846153846155 L 125.5944055944056,101.53846153846155 L 130.62937062937064,101.53846153846155 L 135.66433566433568,101.53846153846155 L 140.6993006993007,101.53846153846155 L 145.73426573426573,101.53846153846155 L 150.76923076923077,101.53846153846155 L 155.80419580419579,101.53846153846155 L 160.83916083916085,101.53846153846155 L 165.87412587412587,101.53846153846155 L 170.9090909090909,101.53846153846155 L 175.94405594405595,40.0 L 180.979020979021,40.0 L 186.013986013986,40.0 L 191.04895104895104,40.0 L 196.08391608391608,40.0 L 201.11888111888112,40.0 L 206.15384615384616,40.0 L 211.1888111888112,40.0 L 216.22377622377624,40.0 L 221.25874125874128,40.0 L 226.2937062937063,40.0 L 231.32867132867133,40.0 L 236.36363636363635,40.0 L 241.39860139860141,40.0 L 246.43356643356643,40.0 L 251.46853146853147,40.0 L 256.5034965034965,40.0 L 261.53846153846155,40.0 L 266.57342657342656,40.0 L 271.60839160839157,40.0 L 276.6433566433566,40.0 L 281.6783216783217,40.0 L 286.7132867132867,40.0 L 291.74825174825173,40.0 L 296.7832167832168,40.0 L 301.8181818181818,40.0 L 306.8531468531468,40.0 L 311.8881118881119,40.0 L 316.92307692307696,40.0 L 321.958041958042,40.0 L 326.993006993007,40.0 L 332.027972027972,40.0 L 337.06293706293707,40.0 L 342.0979020979021,40.0 L 347.13286713286715,40.0 L 352.16783216783216,40.0 L 357.2027972027972,40.0 L 362.23776223776224,40.0 L 367.27272727272725,40.0 L 372.3076923076923,40.0 L 377.34265734265733,40.0 L 382.3776223776224,40.0 L 387.4125874125874,40.0 L 392.4475524475525,40.0 L 397.4825174825175,40.0 L 402.51748251748256,40.0 L 407.5524475524476,40.0 L 412.5874125874126,40.0 L 417.6223776223776,40.0 L 422.65734265734267,40.0 L 427.6923076923077,40.0 L 432.7272727272727,40.0 L 437.7622377622377,40.0 L 442.79720279720283,40.0 L 447.83216783216784,40.0 L 452.86713286713285,40.0 L 457.9020979020979,40.0 L 462.93706293706293,40.0 L 467.97202797202794,40.0 L 473.00699300699296,40.0 L 478.0419580419581,40.0 L 483.0769230769231,40.0 L 488.1118881118881,40.0 L 493.1468531468532,40.0 L 498.1818181818182,40.0 L 503.2167832167832,40.0 L 508.2517482517482,40.0 L 513.2867132867132,40.0 L 518.3216783216783,40.0 L 523.3566433566434,40.0 L 528.3916083916084,40.0 L 533.4265734265734,40.0 L 538.4615384615385,40.0 L 543.4965034965035,40.0 L 548.5314685314685,40.0 L 553.5664335664336,40.0 L 558.6013986013986,40.0 L 563.6363636363636,40.0 L 568.6713286713286,40.0 L 573.7062937062936,40.0 L 578.7412587412588,40.0 L 583.7762237762238,40.0 L 588.8111888111888,40.0 L 593.8461538461539,40.0 L 598.8811188811189,40.0 L 603.916083916084,40.0 L 608.951048951049,40.0 L 613.986013986014,40.0 L 619.020979020979,40.0 L 624.055944055944,40.0 L 629.0909090909091,40.0 L 634.1258741258741,40.0 L 639.1608391608391,40.0 L 644.1958041958042,40.0 L 649.2307692307692,40.0 L 654.2657342657343,40.0 L 659.3006993006993,40.0 L 664.3356643356643,40.0 L 669.3706293706294,40.0 L 674.4055944055945,40.0 L 679.4405594405595,40.0 L 684.4755244755245,40.0 L 689.5104895104895,40.0 L 694.5454545454545,40.0 L 699.5804195804195,40.0 L 704.6153846153846,40.0 L 709.6503496503497,40.0 L 714.6853146853147,40.0 L 719.7202797202797,40.0 L 724.7552447552448,40.0 L 729.7902097902098,40.0 L 734.8251748251748,40.0 L 739.8601398601398,40.0 L 744.895104895105,40.0 L 749.93006993007,40.0 L 754.965034965035,40.0 L 760.0,40.0" class="line"/>
  <circle cx="40.0" cy="101.53846153846155" class="point"/>
  <text x="40.0" y="375" class="label" text-anchor="middle">2025-11-11</text>
  <text x="40.0" y="96.53846153846155" class="label" text-anchor="middle">42</text>
  <circle cx="45.03496503496503" cy="101.53846153846155" class="point"/>
  <text x="45.03496503496503" y="375" class="label" text-anchor="middle">2025-11-12</text>
  <text x="45.03496503496503" y="96.53846153846155" class="label" text-anchor="middle">42</text>
  <circle cx="50.06993006993007" cy="101.53846153846155" class="point"/>
  <text x="50.06993006993007" y="375" class="label" text-anchor="middle">2025-11-13</text>
  <text x="50.06993006993007" y="96.53846153846155" class="label" text-anchor="middle">42</text>
  <circle cx="55.10489510489511" cy="101.53846153846155" class="point"/>
  <text x="55.10489510489511" y="375" class="label" text-anchor="middle">2025-11-14</text>
  <text x="55.10489510489511" y="96.53846153846155" class="label" text-anchor="middle">42</text>
  <circle cx="60.13986013986014" cy="101.53846153846155" class="point"/>
  <text x="60.13986013986014" y="375" class="label" text-anchor="middle">2025-11-15</text>
  <text x="60.13986013986014" y="96.53846153846155" class="label" text-anchor="middle">42</text>
  <circle cx="65.17482517482517" cy="101.53846153846155" class="point"/>
  <text x="65.17482517482517" y="375" class="label" text-anchor="middle">2025-11-16</text>
  <text x="65.17482517482517" y="96.53846153846155" class="label" text-anchor="middle">42</text>
  <circle cx="70.20979020979021" cy="101.53846153846155" class="point"/>
  <text x="70.20979020979021" y="375" class="label" text-anchor="middle">2025-11-17</text>
  <text x="70.20979020979021" y="96.53846153846155" class="label" text-anchor="middle">42</text>
  <circle cx="75.24475524475525" cy="101.53846153846155" class="point"/>
  <text x="75.24475524475525" y="375" class="label" text-anchor="middle">2025-11-18</text>
  <text x="75.24475524475525" y="96.53846153846155" class="label" text-anchor="middle">42</text>
  <circle cx="80.27972027972028" cy="101.53846153846155" class="point"/>
  <text x="80.27972027972028" y="375" class="label" text-anchor="middle">2025-11-19</text>
  <text x="80.27972027972028" y="96.53846153846155" class="label" text-anchor="middle">42</text>
  <circle cx="85.31468531468532" cy="101.53846153846155" class="point"/>
  <text x="85.31468531468532" y="375" class="label" text-anchor="middle">2025-11-20</text>
  <text x="85.31468531468532" y="96.53846153846155" class="label" text-anchor="middle">42</text>
  <circle cx="90.34965034965035" cy="101.53846153846155" class="point"/>
  <text x="90.34965034965035" y="375" class="label" text-anchor="middle">2025-11-21</text>
  <text x="90.34965034965035" y="96.53846153846155" class="label" text-anchor="middle">42</text>
  <circle cx="95.38461538461539" cy="101.53846153846155" class="point"/>
  <text x="95.38461538461539" y="375" class="label" text-anchor="middle">2025-11-22</text>
  <text x="95.38461538461539" y="96.53846153846155" class="label" text-anchor="middle">42</text>
  <circle cx="100.41958041958043" cy="101.53846153846155" class="point"/>
  <text x="100.41958041958043" y="375" class="label" text-anchor="middle">2025-11-23</text>
  <text x="100.41958041958043" y="96.53846153846155" class="label" text-anchor="middle">42</text>
  <circle cx="105.45454545454545" cy="101.53846153846155" class="point"/>
  <text x="105.45454545454545" y="375" class="label" text-anchor="middle">2025-11-24</text>
  <text x="105.45454545454545" y="96.53846153846155" class="label" text-anchor="middle">42</text>
  <circle cx="110.4895104895105" cy="101.53846153846155" class="point"/>
  <text x="110.4895104895105" y="375" class="label" text-anchor="middle">2025-11-25</text>
  <text x="110.4895104895105" y="96.53846153846155" class="label" text-anchor="middle">42</text>
  <circle cx="115.52447552447552" cy="101.53846153846155" class="point"/>
  <text x="115.52447552447552" y="375" class="label" text-anchor="middle">2025-11-26</text>
  <text x="115.52447552447552" y="96.53846153846155" class="label" text-anchor="middle">42</text>
  <circle cx="120.55944055944056" cy="101.53846153846155" class="point"/>
  <text x="120.55944055944056" y="375" class="label" text-anchor="middle">2025-11-27</text>
  <text x="120.55944055944056" y="96.53846153846155" class="label" text-anchor="middle">42</text>
  <circle cx="125.5944055944056" cy="101.53846153846155" class="point"/>
  <text x="125.5944055944056" y="375" class="label" text-anchor="middle">2025-11-28</text>
  <text x="125.5944055944056" y="96.53846153846155" class="label" text-anchor="middle">42</text>
  <circle cx="130.62937062937064" cy="101.53846153846155" class="point"/>
  <text x="130.62937062937064" y="375" class="label" text-anchor="middle">2025-11-29</text>
  <text x="130.62937062937064" y="96.53846153846155" class="label" text-anchor="middle">42</text>
  <circle cx="135.66433566433568" cy="101.53846153846155" class="point"/>
  <text x="135.66433566433568" y="375" class="label" text-anchor="middle">2025-11-30</text>
  <text x="135.66433566433568" y="96.53846153846155" class="label" text-anchor="middle">42</text>
  <circle cx="140.6993006993007" cy="101.53846153846155" class="point"/>
  <text x="140.6993006993007" y="375" class="label" text-anchor="middle">2025-12-01</text>
  <text x="140.6993006993007" y="96.53846153846155" class="label" text-anchor="middle">42</text>
  <circle cx="145.73426573426573" cy="101.53846153846155" class="point"/>
  <text x="145.73426573426573" y="375" class="label" text-anchor="middle">2025-12-02</text>
  <text x="145.73426573426573" y="96.53846153846155" class="label" text-anchor="middle">42</text>
  <circle cx="150.76923076923077" cy="101.53846153846155" class="point"/>
  <text x="150.76923076923077" y="375" class="label" text-anchor="middle">2025-12-03</text>
  <text x="150.76923076923077" y="96.53846153846155" class="label" text-anchor="middle">42</text>
  <circle cx="155.80419580419579" cy="101.53846153846155" class="point"/>
  <text x="155.80419580419579" y="375" class="label" text-anchor="middle">2025-12-04</text>
  <text x="155.80419580419579" y="96.53846153846155" class="label" text-anchor="middle">42</text>
  <circle cx="160.83916083916085" cy="101.53846153846155" class="point"/>
  <text x="160.83916083916085" y="375" class="label" text-anchor="middle">2025-12-05</text>
  <text x="160.83916083916085" y="96.53846153846155" class="label" text-anchor="middle">42</text>
  <circle cx="165.87412587412587" cy="101.53846153846155" class="point"/>
  <text x="165.87412587412587" y="375" class="label" text-anchor="middle">2025-12-06</text>
  <text x="165.87412587412587" y="96.53846153846155" class="label" text-anchor="middle">42</text>
  <circle cx="170.9090909090909" cy="101.53846153846155" class="point"/>
  <text x="170.9090909090909" y="375" class="label" text-anchor="middle">2025-12-07</text>
  <text x="170.9090909090909" y="96.53846153846155" class="label" text-anchor="middle">42</text>
  <circle cx="175.94405594405595" cy="40.0" class="point"/>
  <text x="175.94405594405595" y="375" class="label" text-anchor="middle">2025-12-08</text>
  <text x="175.94405594405595" y="35.0" class="label" text-anchor="middle">52</text>
  <circle cx="180.979020979021" cy="40.0" class="point"/>
  <text x="180.979020979021" y="375" class="label" text-anchor="middle">2025-12-09</text>
  <text x="180.979020979021" y="35.0" class="label" text-anchor="middle">52</text>
  <circle cx="186.013986013986" cy="40.0" class="point"/>
  <text x="186.013986013986" y="375" class="label" text-anchor="middle">2025-12-10</text>
  <text x="186.013986013986" y="35.0" class="label" text-anchor="middle">52</text>
  <circle cx="191.04895104895104" cy="40.0" class="point"/>
  <text x="191.04895104895104" y="375" class="label" text-anchor="middle">2025-12-11</text>
  <text x="191.04895104895104" y="35.0" class="label" text-anchor="middle">52</text>
  <circle cx="196.08391608391608" cy="40.0" class="point"/>
  <text x="196.08391608391608" y="375" class="label" text-anchor="middle">2025-12-12</text>
  <text x="196.08391608391608" y="35.0" class="label" text-anchor="middle">52</text>
  <circle cx="201.11888111888112" cy="40.0" class="point"/>
  <text x="201.11888111888112" y="375" class="label" text-anchor="middle">2025-12-13</text>
  <text x="201.11888111888112" y="35.0" class="label" text-anchor="middle">52</text>
  <circle cx="206.15384615384616" cy="40.0" class="point"/>
  <text x="206.15384615384616" y="375" class="label" text-anchor="middle">2025-12-14</text>
  <text x="206.15384615384616" y="35.0" class="label" text-anchor="middle">52</text>
  <circle cx="211.1888111888112" cy="40.0" class="point"/>
  <text x="211.1888111888112" y="375" class="label" text-anchor="middle">2025-12-15</text>
  <text x="211.1888111888112" y="35.0" class="label" text-anchor="middle">52</text>
  <circle cx="216.22377622377624" cy="40.0" class="point"/>
  <text x="216.22377622377624" y="375" class="label" text-anchor="middle">2025-12-16</text>
  <text x="216.22377622377624" y="35.0" class="label" text-anchor="middle">52</text>
  <circle cx="221.25874125874128" cy="40.0" class="point"/>
  <text x="221.25874125874128" y="375" class="label" text-anchor="middle">2025-12-17</text>
  <text x="221.25874125874128" y="35.0" class="label" text-anchor="middle">52</text>
  <circle cx="226.2937062937063" cy="40.0" class="point"/>
  <text x="226.2937062937063" y="375" class="label" text-anchor="middle">2025-12-18</text>
  <text x="226.2937062937063" y="35.0" class="label" text-anchor="middle">52</text>
  <circle cx="231.32867132867133" cy="40.0" class="point"/>
  <text x="231.32867132867133" y="375" class="label" text-anchor="middle">2025-12-19</text>
  <text x="231.32867132867133" y="35.0" class="label" text-anchor="middle">52</text>
  <circle cx="236.36363636363635" cy="40.0" class="point"/>
  <text x="236.36363636363635" y="375" class="label" text-anchor="middle">2025-12-20</text>
  <text x="236.36363636363635" y="35.0" class="label" text-anchor="middle">52</text>
  <circle cx="241.39860139860141" cy="40.0" class="point"/>
  <text x="241.39860139860141" y="375" class="label" text-anchor="middle">2025-12-21</text>
  <text x="241.39860139860141" y="35.0" class="label" text-anchor="middle">52</text>
  <circle cx="246.43356643356643" cy="40.0" class="point"/>
  <text x="246.43356643356643" y="375" class="label" text-anchor="middle">2025-12-22</text>
  <text x="246.43356643356643" y="35.0" class="label" text-anchor="middle">52</text>
  <circle cx="251.46853146853147" cy="40.0" class="point"/>
  <text x="251.46853146853147" y="375" class="label" text-anchor="middle">2025-12-23</text>
  <text x="251.46853146853147" y="35.0" class="label" text-anchor="middle">52</text>
  <circle cx="256.5034965034965" cy="40.0" class="point"/>
  <text x="256.5034965034965" y="375" class="label" text-anchor="middle">2025-12-24</text>
  <text x="256.5034965034965" y="35.0" class="label" text-anchor="middle">52</text>
  <circle cx="261.53846153846155" cy="40.0" class="point"/>
  <text x="261.53846153846155" y="375" class="label" text-anchor="middle">2025-12-25</text>
  <text x="261.53846153846155" y="35.0" class="label" text-anchor="middle">52</text>
  <circle cx="266.57342657342656" cy="40.0" class="point"/>
  <text x="266.57342657342656" y="375" class="label" text-anchor="middle">2025-12-26</text>
  <text x="266.57342657342656" y="35.0" class="label" text-anchor="middle">52</text>
  <circle cx="271.60839160839157" cy="40.0" class="point"/>
  <text x="271.60839160839157" y="375" class="label" text-anchor="middle">2025-12-27</text>
  <text x="271.60839160839157" y="35.0" class="label" text-anchor="middle">52</text>
  <circle cx="276.6433566433566" cy="40.0" class="point"/>
  <text x="276.6433566433566" y="375" class="label" text-anchor="middle">2025-12-28</text>
  <text x="276.6433566433566" y="35.0" class="label" text-anchor="middle">52</text>
  <circle cx="281.6783216783217" cy="40.0" class="point"/>
  <text x="281.6783216783217" y="375" class="label" text-anchor="middle">2025-12-29</text>
  <text x="281.6783216783217" y="35.0" class="label" text-anchor="middle">52</text>
  <circle cx="286.7132867132867" cy="40.0" class="point"/>
  <text x="286.7132867132867" y="375" class="label" text-anchor="middle">2025-12-30</text>
  <text x="286.7132867132867" y="35.0" class="label" text-anchor="middle">52</text>
  <circle cx="291.74825174825173" cy="40.0" class="point"/>
  <text x="291.74825174825173" y="375" class="label" text-anchor="middle">2025-12-31</text>
  <text x="291.74825174825173" y="35.0" class="label" text-anchor="middle">52</text>
  <circle cx="296.7832167832168" cy="40.0" class="point"/>
  <text x="296.7832167832168" y="375" class="label" text-anchor="middle">2026-01-01</text>
  <text x="296.7832167832168" y="35.0" class="label" text-anchor="middle">52</text>
  <circle cx="301.8181818181818" cy="40.0" class="point"/>
  <text x="301.8181818181818" y="375" class="label" text-anchor="middle">2026-01-02</text>
  <text x="301.8181818181818" y="35.0" class="label" text-anchor="middle">52</text>
  <circle cx="306.8531468531468" cy="40.0" class="point"/>
  <text x="306.8531468531468" y="375" class="label" text-anchor="middle">2026-01-03</text>
  <text x="306.8531468531468" y="35.0" class="label" text-anchor="middle">52</text>
  <circle cx="311.8881118881119" cy="40.0" class="point"/>
  <text x="311.8881118881119" y="375" class="label" text-anchor="middle">2026-01-04</text>
  <text x="311.8881118881119" y="35.0" class="label" text-anchor="middle">52</text>
  <circle cx="316.92307692307696" cy="40.0" class="point"/>
  <text x="316.92307692307696" y="375" class="label" text-anchor="middle">2026-01-05</text>
  <text x="316.92307692307696" y="35.0" class="label" text-anchor="middle">52</text>
  <circle cx="321.958041958042" cy="40.0" class="point"/>
  <text x="321.958041958042" y="375" class="label" text-anchor="middle">2026-01-06</text>
  <text x="321.958041958042" y="35.0" class="label" text-anchor="middle">52</text>
  <circle cx="326.993006993007" cy="40.0" class="point"/>
  <text x="326.993006993007" y="375" class="label" text-anchor="middle">2026-01-07</text>
  <text x="326.993006993007" y="35.0" class="label" text-anchor="middle">52</text>
  <circle cx="332.027972027972" cy="40.0" class="point"/>
  <text x="332.027972027972" y="375" class="label" text-anchor="middle">2026-01-08</text>
  <text x="332.027972027972" y="35.0" class="label" text-anchor="middle">52</text>
  <circle cx="337.06293706293707" cy="40.0" class="point"/>
  <text x="337.06293706293707" y="375" class="label" text-anchor="middle">2026-01-09</text>
  <text x="337.06293706293707" y="35.0" class="label" text-anchor="middle">52</text>
  <circle cx="342.0979020979021" cy="40.0" class="point"/>
  <text x="342.0979020979021" y="375" class="label" text-anchor="middle">2026-01-10</text>
  <text x="342.0979020979021" y="35.0" class="label" text-anchor="middle">52</text>
  <circle cx="347.13286713286715" cy="40.0" class="point"/>
  <text x="347.13286713286715" y="375" class="label" text-anchor="middle">2026-01-11</text>
  <text x="347.13286713286715" y="35.0" class="label" text-anchor="middle">52</text>
  <circle cx="352.16783216783216" cy="40.0" class="point"/>
  <text x="352.16783216783216" y="375" class="label" text-anchor="middle">2026-01-12</text>
  <text x="352.16783216783216" y="35.0" class="label" text-anchor="middle">52</text>
  <circle cx="357.2027972027972" cy="40.0" class="point"/>
  <text x="357.2027972027972" y="375" class="label" text-anchor="middle">2026-01-13</text>
  <text x="357.2027972027972" y="35.0" class="label" text-anchor="middle">52</text>
  <circle cx="362.23776223776224" cy="40.0" class="point"/>
  <text x="362.23776223776224" y="375" class="label" text-anchor="middle">2026-01-14</text>
  <text x="362.23776223776224" y="35.0" class="label" text-anchor="middle">52</text>
  <circle cx="367.27272727272725" cy="40.0" class="point"/>
  <text x="367.27272727272725" y="375" class="label" text-anchor="middle">2026-01-15</text>
  <text x="367.27272727272725" y="35.0" class="label" text-anchor="middle">52</text>
  <circle cx="372.3076923076923" cy="40.0" class="point"/>
  <text x="372.3076923076923" y="375" class="label" text-anchor="middle">2026-01-16</text>
  <text x="372.3076923076923" y="35.0" class="label" text-anchor="middle">52</text>
  <circle cx="377.34265734265733" cy="40.0" class="point"/>
  <text x="377.34265734265733" y="375" class="label" text-anchor="middle">2026-01-17</text>
  <text x="377.34265734265733" y="35.0" class="label" text-anchor="middle">52</text>
  <circle cx="382.3776223776224" cy="40.0" class="point"/>
  <text x="382.3776223776224" y="375" class="label" text-anchor="middle">2026-01-18</text>
  <text x="382.3776223776224" y="35.0" class="label" text-anchor="middle">52</text>
  <circle cx="387.4125874125874" cy="40.0" class="point"/>
  <text x="387.4125874125874" y="375" class="label" text-anchor="middle">2026-01-19</text>
  <text x="387.4125874125874" y="35.0" class="label" text-anchor="middle">52</text>
  <circle cx="392.4475524475525" cy="40.0" class="point"/>
  <text x="392.4475524475525" y="375" class="label" text-anchor="middle">2026-01-20</text>
  <text x="392.4475524475525" y="35.0" class="label" text-anchor="middle">52</text>
  <circle cx="397.4825174825175" cy="40.0" class="point"/>
  <text x="397.4825174825175" y="375" class="label" text-anchor="middle">2026-01-21</text>
  <text x="397.4825174825175" y="35.0" class="label" text-anchor="middle">52</text>
  <circle cx="402.51748251748256" cy="40.0" class="point"/>
  <text x="402.51748251748256" y="375" class="label" text-anchor="middle">2026-01-22</text>
  <text x="402.51748251748256" y="35.0" class="label" text-anchor="middle">52</text>
  <circle cx="407.5524475524476" cy="40.0" class="point"/>
  <text x="407.5524475524476" y="375" class="label" text-anchor="middle">2026-01-23</text>
  <text x="407.5524475524476" y="35.0" class="label" text-anchor="middle">52</text>
  <circle cx="412.5874125874126" cy="40.0" class="point"/>
  <text x="412.5874125874126" y="375" class="label" text-anchor="middle">2026-01-24</text>
  <text x="412.5874125874126" y="35.0" class="label" text-anchor="middle">52</text>
  <circle cx="417.6223776223776" cy="40.0" class="point"/>
  <text x="417.6223776223776" y="375" class="label" text-anchor="middle">2026-01-25</text>
  <text x="417.6223776223776" y="35.0" class="label" text-anchor="middle">52</text>
  <circle cx="422.65734265734267" cy="40.0" class="point"/>
  <text x="422.65734265734267" y="375" class="label" text-anchor="middle">2026-01-26</text>
  <text x="422.65734265734267" y="35.0" class="label" text-anchor="middle">52</text>
  <circle cx="427.6923076923077" cy="40.0" class="point"/>
  <text x="427.6923076923077" y="375" class="label" text-anchor="middle">2026-01-27</text>
  <text x="427.6923076923077" y="35.0" class="label" text-anchor="middle">52</text>
  <circle cx="432.7272727272727" cy="40.0" class="point"/>
  <text x="432.7272727272727" y="375" class="label" text-anchor="middle">2026-01-28</text>
  <text x="432.7272727272727" y="35.0" class="label" text-anchor="middle">52</text>
  <circle cx="437.7622377622377" cy="40.0" class="point"/>
  <text x="437.7622377622377" y="375" class="label" text-anchor="middle">2026-01-29</text>
  <text x="437.7622377622377" y="35.0" class="label" text-anchor="middle">52</text>
  <circle cx="442.79720279720283" cy="40.0" class="point"/>
  <text x="442.79720279720283" y="375" class="label" text-anchor="middle">2026-01-30</text>
  <text x="442.79720279720283" y="35.0" class="label" text-anchor="middle">52</text>
  <circle cx="447.83216783216784" cy="40.0" class="point"/>
  <text x="447.83216783216784" y="375" class="label" text-anchor="middle">2026-01-31</text>
  <text x="447.83216783216784" y="35.0" class="label" text-anchor="middle">52</text>
  <circle cx="452.86713286713285" cy="40.0" class="point"/>
  <text x="452.86713286713285" y="375" class="label" text-anchor="middle">2026-02-01</text>
  <text x="452.86713286713285" y="35.0" class="label" text-anchor="middle">52</text>
  <circle cx="457.9020979020979" cy="40.0" class="point"/>
  <text x="457.9020979020979" y="375" class="label" text-anchor="middle">2026-02-02</text>
  <text x="457.9020979020979" y="35.0" class="label" text-anchor="middle">52</text>
  <circle cx="462.93706293706293" cy="40.0" class="point"/>
  <text x="462.93706293706293" y="375" class="label" text-anchor="middle">2026-02-03</text>
  <text x="462.93706293706293" y="35.0" class="label" text-anchor="middle">52</text>
  <circle cx="467.97202797202794" cy="40.0" class="point"/>
  <text x="467.97202797202794" y="375" class="label" text-anchor="middle">2026-02-04</text>
  <text x="467.97202797202794" y="35.0" class="label" text-anchor="middle">52</text>
  <circle cx="473.00699300699296" cy="40.0" class="point"/>
  <text x="473.00699300699296" y="375" class="label" text-anchor="middle">2026-02-05</text>
  <text x="473.00699300699296" y="35.0" class="label" text-anchor="middle">52</text>
  <circle cx="478.0419580419581" cy="40.0" class="point"/>
  <text x="478.0419580419581" y="375" class="label" text-anchor="middle">2026-02-06</text>
  <text x="478.0419580419581" y="35.0" class="label" text-anchor="middle">52</text>
  <circle cx="483.0769230769231" cy="40.0" class="point"/>
  <text x="483.0769230769231" y="375" class="label" text-anchor="middle">2026-02-07</text>
  <text x="483.0769230769231" y="35.0" class="label" text-anchor="middle">52</text>
  <circle cx="488.1118881118881" cy="40.0" class="point"/>
  <text x="488.1118881118881" y="375" class="label" text-anchor="middle">2026-02-08</text>
  <text x="488.1118881118881" y="35.0" class="label" text-anchor="middle">52</text>
  <circle cx="493.1468531468532" cy="40.0" class="point"/>
  <text x="493.1468531468532" y="375" class="label" text-anchor="middle">2026-02-09</text>
  <text x="493.1468531468532" y="35.0" class="label" text-anchor="middle">52</text>
  <circle cx="498.1818181818182" cy="40.0" class="point"/>
  <text x="498.1818181818182" y="375" class="label" text-anchor="middle">2026-02-10</text>
  <text x="498.1818181818182" y="35.0" class="label" text-anchor="middle">52</text>
  <circle cx="503.2167832167832" cy="40.0" class="point"/>
  <text x="503.2167832167832" y="375" class="label" text-anchor="middle">2026-02-11</text>
  <text x="503.2167832167832" y="35.0" class="label" text-anchor="middle">52</text>
  <circle cx="508.2517482517482" cy="40.0" class="point"/>
  <text x="508.2517482517482" y="375" class="label" text-anchor="middle">2026-02-12</text>
  <text x="508.2517482517482" y="35.0" class="label" text-anchor="middle">52</text>
  <circle cx="513.2867132867132" cy="40.0" class="point"/>
  <text x="513.2867132867132" y="375" class="label" text-anchor="middle">2026-02-13</text>
  <text x="513.2867132867132" y="35.0" class="label" text-anchor="middle">52</text>
  <circle cx="518.3216783216783" cy="40.0" class="point"/>
  <text x="518.3216783216783" y="375" class="label" text-anchor="middle">2026-02-14</text>
  <text x="518.3216783216783" y="35.0" class="label" text-anchor="middle">52</text>
  <circle cx="523.3566433566434" cy="40.0" class="point"/>
  <text x="523.3566433566434" y="375" class="label" text-anchor="middle">2026-02-15</text>
  <text x="523.3566433566434" y="35.0" class="label" text-anchor="middle">52</text>
  <circle cx="528.3916083916084" cy="40.0" class="point"/>
  <text x="528.3916083916084" y="375" class="label" text-anchor="middle">2026-02-16</text>
  <text x="528.3916083916084" y="35.0" class="label" text-anchor="middle">52</text>
  <circle cx="533.4265734265734" cy="40.0" class="point"/>
  <text x="533.4265734265734" y="375" class="label" text-anchor="middle">2026-02-17</text>
  <text x="533.4265734265734" y="35.0" class="label" text-anchor="middle">52</text>
  <circle cx="538.4615384615385" cy="40.0" class="point"/>
  <text x="538.4615384615385" y="375" class="label" text-anchor="middle">2026-02-18</text>
  <text x="538.4615384615385" y="35.0" class="label" text-anchor="middle">52</text>
  <circle cx="543.4965034965035" cy="40.0" class="point"/>
  <text x="543.4965034965035" y="375" class="label" text-anchor="middle">2026-02-19</text>
  <text x="543.4965034965035" y="35.0" class="label" text-anchor="middle">52</text>
  <circle cx="548.5314685314685" cy="40.0" class="point"/>
  <text x="548.5314685314685" y="375" class="label" text-anchor="middle">2026-02-20</text>
  <text x="548.5314685314685" y="35.0" class="label" text-anchor="middle">52</text>
  <circle cx="553.5664335664336" cy="40.0" class="point"/>
  <text x="553.5664335664336" y="375" class="label" text-anchor="middle">2026-02-21</text>
  <text x="553.5664335664336" y="35.0" class="label" text-anchor="middle">52</text>
  <circle cx="558.6013986013986" cy="40.0" class="point"/>
  <text x="558.6013986013986" y="375" class="label" text-anchor="middle">2026-02-22</text>
  <text x="558.6013986013986" y="35.0" class="label" text-anchor="middle">52</text>
  <circle cx="563.6363636363636" cy="40.0" class="point"/>
  <text x="563.6363636363636" y="375" class="label" text-anchor="middle">2026-02-23</text>
  <text x="563.6363636363636" y="35.0" class="label" text-anchor="middle">52</text>
  <circle cx="568.6713286713286" cy="40.0" class="point"/>
  <text x="568.6713286713286" y="375" class="label" text-anchor="middle">2026-02-24</text>
  <text x="568.6713286713286" y="35.0" class="label" text-anchor="middle">52</text>
  <circle cx="573.7062937062936" cy="40.0" class="point"/>
  <text x="573.7062937062936" y="375" class="label" text-anchor="middle">2026-02-25</text>
  <text x="573.7062937062936" y="35.0" class="label" text-anchor="middle">52</text>
  <circle cx="578.7412587412588" cy="40.0" class="point"/>
  <text x="578.7412587412588" y="375" class="label" text-anchor="middle">2026-02-26</text>
  <text x="578.7412587412588" y="35.0" class="label" text-anchor="middle">52</text>
  <circle cx="583.7762237762238" cy="40.0" class="point"/>
  <text x="583.7762237762238" y="375" class="label" text-anchor="middle">2026-02-27</text>
  <text x="583.7762237762238" y="35.0" class="label" text-anchor="middle">52</text>
  <circle cx="588.8111888111888" cy="40.0" class="point"/>
  <text x="588.8111888111888" y="375" class="label" text-anchor="middle">2026-02-28</text>
  <text x="588.8111888111888" y="35.0" class="label" text-anchor="middle">52</text>
  <circle cx="593.8461538461539" cy="40.0" class="point"/>
  <text x="593.8461538461539" y="375" class="label" text-anchor="middle">2026-03-01</text>
  <text x="593.8461538461539" y="35.0" class="label" text-anchor="middle">52</text>
  <circle cx="598.8811188811189" cy="40.0" class="point"/>
  <text x="598.8811188811189" y="375" class="label" text-anchor="middle">2026-03-02</text>
  <text x="598.8811188811189" y="35.0" class="label" text-anchor="middle">52</text>
  <circle cx="603.916083916084" cy="40.0" class="point"/>
  <text x="603.916083916084" y="375" class="label" text-anchor="middle">2026-03-03</text>
  <text x="603.916083916084" y="35.0" class="label" text-anchor="middle">52</text>
  <circle cx="608.951048951049" cy="40.0" class="point"/>
  <text x="608.951048951049" y="375" class="label" text-anchor="middle">2026-03-04</text>
  <text x="608.951048951049" y="35.0" class="label" text-anchor="middle">52</text>
  <circle cx="613.986013986014" cy="40.0" class="point"/>
  <text x="613.986013986014" y="375" class="label" text-anchor="middle">2026-03-05</text>
  <text x="613.986013986014" y="35.0" class="label" text-anchor="middle">52</text>
  <circle cx="619.020979020979" cy="40.0" class="point"/>
  <text x="619.020979020979" y="375" class="label" text-anchor="middle">2026-03-06</text>
  <text x="619.020979020979" y="35.0" class="label" text-anchor="middle">52</text>
  <circle cx="624.055944055944" cy="40.0" class="point"/>
  <text x="624.055944055944" y="375" class="label" text-anchor="middle">2026-03-07</text>
  <text x="624.055944055944" y="35.0" class="label" text-anchor="middle">52</text>
  <circle cx="629.0909090909091" cy="40.0" class="point"/>
  <text x="629.0909090909091" y="375" class="label" text-anchor="middle">2026-03-08</text>
  <text x="629.0909090909091" y="35.0" class="label" text-anchor="middle">52</text>
  <circle cx="634.1258741258741" cy="40.0" class="point"/>
  <text x="634.1258741258741" y="375" class="label" text-anchor="middle">2026-03-09</text>
  <text x="634.1258741258741" y="35.0" class="label" text-anchor="middle">52</text>
  <circle cx="639.1608391608391" cy="40.0" class="point"/>
  <text x="639.1608391608391" y="375" class="label" text-anchor="middle">2026-03-10</text>
  <text x="639.1608391608391" y="35.0" class="label" text-anchor="middle">52</text>
  <circle cx="644.1958041958042" cy="40.0" class="point"/>
  <text x="644.1958041958042" y="375" class="label" text-anchor="middle">2026-03-11</text>
  <text x="644.1958041958042" y="35.0" class="label" text-anchor="middle">52</text>
  <circle cx="649.2307692307692" cy="40.0" class="point"/>
  <text x="649.2307692307692" y="375" class="label" text-anchor="middle">2026-03-12</text>
  <text x="649.2307692307692" y="35.0" class="label" text-anchor="middle">52</text>
  <circle cx="654.2657342657343" cy="40.0" class="point"/>
  <text x="654.2657342657343" y="375" class="label" text-anchor="middle">2026-03-13</text>
  <text x="654.2657342657343" y="35.0" class="label" text-anchor="middle">52</text>
  <circle cx="659.3006993006993" cy="40.0" class="point"/>
  <text x="659.3006993006993" y="375" class="label" text-anchor="middle">2026-03-14</text>
  <text x="659.3006993006993" y="35.0" class="label" text-anchor="middle">52</text>
  <circle cx="664.3356643356643" cy="40.0" class="point"/>
  <text x="664.3356643356643" y="375" class="label" text-anchor="middle">2026-03-15</text>
  <text x="664.3356643356643" y="35.0" class="label" text-anchor="middle">52</text>
  <circle cx="669.3706293706294" cy="40.0" class="point"/>
  <text x="669.3706293706294" y="375" class="label" text-anchor="middle">2026-03-16</text>
  <text x="669.3706293706294" y="35.0" class="label" text-anchor="middle">52</text>
  <circle cx="674.4055944055945" cy="40.0" class="point"/>
  <text x="674.4055944055945" y="375" class="label" text-anchor="middle">2026-03-17</text>
  <text x="674.4055944055945" y="35.0" class="label" text-anchor="middle">52</text>
  <circle cx="679.4405594405595" cy="40.0" class="point"/>
  <text x="679.4405594405595" y="375" class="label" text-anchor="middle">2026-03-18</text>
  <text x="679.4405594405595" y="35.0" class="label" text-anchor="middle">52</text>
  <circle cx="684.4755244755245" cy="40.0" class="point"/>
  <text x="684.4755244755245" y="375" class="label" text-anchor="middle">2026-03-19</text>
  <text x="684.4755244755245" y="35.0" class="label" text-anchor="middle">52</text>
  <circle cx="689.5104895104895" cy="40.0" class="point"/>
  <text x="689.5104895104895" y="375" class="label" text-anchor="middle">2026-03-20</text>
  <text x="689.5104895104895" y="35.0" class="label" text-anchor="middle">52</text>
  <circle cx="694.5454545454545" cy="40.0" class="point"/>
  <text x="694.5454545454545" y="375" class="label" text-anchor="middle">2026-03-21</text>
  <text x="694.5454545454545" y="35.0" class="label" text-anchor="middle">52</text>
  <circle cx="699.5804195804195" cy="40.0" class="point"/>
  <text x="699.5804195804195" y="375" class="label" text-anchor="middle">2026-03-22</text>
  <text x="699.5804195804195" y="35.0" class="label" text-anchor="middle">52</text>
  <circle cx="704.6153846153846" cy="40.0" class="point"/>
  <text x="704.6153846153846" y="375" class="label" text-anchor="middle">2026-03-23</text>
  <text x="704.6153846153846" y="35.0" class="label" text-anchor="middle">52</text>
  <circle cx="709.6503496503497" cy="40.0" class="point"/>
  <text x="709.6503496503497" y="375" class="label" text-anchor="middle">2026-03-24</text>
  <text x="709.6503496503497" y="35.0" class="label" text-anchor="middle">52</text>
  <circle cx="714.6853146853147" cy="40.0" class="point"/>
  <text x="714.6853146853147" y="375" class="label" text-anchor="middle">2026-03-25</text>
  <text x="714.6853146853147" y="35.0" class="label" text-anchor="middle">52</text>
  <circle cx="719.7202797202797" cy="40.0" class="point"/>
  <text x="719.7202797202797" y="375" class="label" text-anchor="middle">2026-03-26</text>
  <text x="719.7202797202797" y="35.0" class="label" text-anchor="middle">52</text>
  <circle cx="724.7552447552448" cy="40.0" class="point"/>
  <text x="724.7552447552448" y="375" class="label" text-anchor="middle">2026-03-27</text>
  <text x="724.7552447552448" y="35.0" class="label" text-anchor="middle">52</text>
  <circle cx="729.7902097902098" cy="40.0" class="point"/>
  <text x="729.7902097902098" y="375" class="label" text-anchor="middle">2026-03-28</text>
  <text x="729.7902097902098" y="35.0" class="label" text-anchor="middle">52</text>
  <circle cx="734.8251748251748" cy="40.0" class="point"/>
  <text x="734.8251748251748" y="375" class="label" text-anchor="middle">2026-03-29</text>
  <text x="734.8251748251748" y="35.0" class="label" text-anchor="middle">52</text>
  <circle cx="739.8601398601398" cy="40.0" class="point"/>
  <text x="739.8601398601398" y="375" class="label" text-anchor="middle">2026-03-30</text>
  <text x="739.8601398601398" y="35.0" class="label" text-anchor="middle">52</text>
  <circle cx="744.895104895105" cy="40.0" class="point"/>
  <text x="744.895104895105" y="375" class="label" text-anchor="middle">2026-03-31</text>
  <text x="744.895104895105" y="35.0" class="label" text-anchor="middle">52</text>
  <circle cx="749.93006993007" cy="40.0" class="point"/>
  <text x="749.93006993007" y="375" class="label" text-anchor="middle">2026-04-01</text>
  <text x="749.93006993007" y="35.0" class="label" text-anchor="middle">52</text>
  <circle cx="754.965034965035" cy="40.0" class="point"/>
  <text x="754.965034965035" y="375" class="label" text-anchor="middle">2026-04-02</text>
  <text x="754.965034965035" y="35.0" class="label" text-anchor="middle">52</text>
  <circle cx="760.0" cy="40.0" class="point"/>
  <text x="760.0" y="375" class="label" text-anchor="middle">2026-04-03</text>
  <text x="760.0" y="35.0" class="label" text-anchor="middle">52</text>
  <text x="30" y="363.0" class="label" text-anchor="end">0</text>
  <text x="30" y="301.46153846153845" class="label" text-anchor="end">10</text>
  <text x="30" y="239.9230769230769" class="label" text-anchor="end">20</text>
  <text x="30" y="178.38461538461542" class="label" text-anchor="end">30</text>
  <text x="30" y="116.84615384615384" class="label" text-anchor="end">40</text>
  <text x="30" y="55.30769230769232" class="label" text-anchor="end">50</text>
</svg>