<svg xmlns="http://www.w3.org/2000/svg" width="800" height="400" viewBox="0 0 800 400">
  <style>
    .axis{stroke:#666;stroke-width:1}
    .line{stroke:#4a9;stroke-width:2;fill:none}
    .point{fill:#4a9;r:4}
    .label{font:10px sans-serif;fill:#aaa}
    .title{font:14px sans-serif;fill:#333}
  </style>
  <text x="400" y="20" class="title" text-anchor="middle">OPIC Field Growth Timeline</text>
  <line x1="40" y1="40" x2="40" y2="360" class="axis"/>
  <line x1="40" y1="360" x2="760" y2="360" class="axis"/>
  <path d="M 40.0,101.53846153846155 L 44.36363636363636,101.53846153846155 L 48.72727272727273,101.53846153846155 L 53.09090909090909,101.53846153846155 L 57.45454545454545,101.53846153846155 L 61.81818181818182,101.53846153846155 L 66.18181818181819,101.53846153846155 L 70.54545454545455,101.53846153846155 L 74.9090909090909,101.53846153846155 L 79.27272727272728,101.53846153846155 L 83.63636363636364,101.53846153846155 L 88.0,101.53846153846155 L 92.36363636363636,101.53846153846155 L 96.72727272727272,101.53846153846155 L 101.0909090909091,101.53846153846155 L 105.45454545454545,101.53846153846155 L 109.81818181818181,101.53846153846155 L 114.18181818181819,101.53846153846155 L 118.54545454545455,101.53846153846155 L 122.9090909090909,101.53846153846155 L 127.27272727272728,101.53846153846155 L 131.63636363636363,101.53846153846155 L 136.0,101.53846153846155 L 140.36363636363637,101.53846153846155 L 144.72727272727272,101.53846153846155 L 149.0909090909091,101.53846153846155 L 153.45454545454544,101.53846153846155 L 157.8181818181818,40.0 L 162.1818181818182,40.0 L 166.54545454545456,40.0 L 170.9090909090909,40.0 L 175.27272727272725,40.0 L 179.63636363636363,40.0 L 184.0,40.0 L 188.36363636363637,40.0 L 192.72727272727272,40.0 L 197.0909090909091,40.0 L 201.45454545454547,40.0 L 205.8181818181818,40.0 L 210.1818181818182,40.0 L 214.54545454545456,40.0 L 218.9090909090909,40.0 L 223.27272727272725,40.0 L 227.63636363636365,40.0 L 232.0,40.0 L 236.36363636363635,40.0 L 240.72727272727275,40.0 L 245.0909090909091,40.0 L 249.45454545454544,40.0 L 253.81818181818184,40.0 L 258.1818181818182,40.0 L 262.5454545454545,40.0 L 266.9090909090909,40.0 L 271.27272727272725,40.0 L 275.6363636363636,40.0 L 280.0,40.0 L 284.3636363636364,40.0 L 288.72727272727275,40.0 L 293.0909090909091,40.0 L 297.4545454545455,40.0 L 301.8181818181818,40.0 L 306.1818181818182,40.0 L 310.5454545454545,40.0 L 314.90909090909093,40.0 L 319.27272727272725,40.0 L 323.6363636363636,40.0 L 328.0,40.0 L 332.3636363636364,40.0 L 336.72727272727275,40.0 L 341.09090909090907,40.0 L 345.45454545454544,40.0 L 349.8181818181818,40.0 L 354.1818181818182,40.0 L 358.54545454545456,40.0 L 362.90909090909093,40.0 L 367.27272727272725,40.0 L 371.6363636363636,40.0 L 376.0,40.0 L 380.3636363636364,40.0 L 384.7272727272727,40.0 L 389.0909090909091,40.0 L 393.45454545454544,40.0 L 397.8181818181818,40.0 L 402.1818181818182,40.0 L 406.5454545454545,40.0 L 410.9090909090909,40.0 L 415.2727272727273,40.0 L 419.6363636363636,40.0 L 424.0,40.0 L 428.3636363636364,40.0 L 432.7272727272727,40.0 L 437.09090909090907,40.0 L 441.4545454545455,40.0 L 445.8181818181818,40.0 L 450.1818181818182,40.0 L 454.54545454545456,40.0 L 458.9090909090909,40.0 L 463.27272727272725,40.0 L 467.6363636363637,40.0 L 472.0,40.0 L 476.3636363636364,40.0 L 480.7272727272727,40.0 L 485.09090909090907,40.0 L 489.4545454545455,40.0 L 493.81818181818176,40.0 L 498.1818181818182,40.0 L 502.54545454545456,40.0 L 506.9090909090909,40.0 L 511.27272727272725,40.0 L 515.6363636363637,40.0 L 520.0,40.0 L 524.3636363636364,40.0 L 528.7272727272727,40.0 L 533.090909090909,40.0 L 537.4545454545455,40.0 L 541.8181818181819,40.0 L 546.1818181818182,40.0 L 550.5454545454545,40.0 L 554.909090909091,40.0 L 559.2727272727273,40.0 L 563.6363636363636,40.0 L 568.0,40.0 L 572.3636363636364,40.0 L 576.7272727272727,40.0 L 581.090909090909,40.0 L 585.4545454545455,40.0 L 589.8181818181819,40.0 L 594.1818181818181,40.0 L 598.5454545454545,40.0 L 602.909090909091,40.0 L 607.2727272727273,40.0 L 611.6363636363636,40.0 L 616.0,40.0 L 620.3636363636364,40.0 L 624.7272727272727,40.0 L 629.0909090909091,40.0 L 633.4545454545455,40.0 L 637.8181818181819,40.0 L 642.1818181818181,40.0 L 646.5454545454545,40.0 L 650.9090909090909,40.0 L 655.2727272727273,40.0 L 659.6363636363636,40.0 L 664.0,40.0 L 668.3636363636364,40.0 L 672.7272727272727,40.0 L 677.0909090909091,40.0 L 681.4545454545454,40.0 L 685.8181818181819,40.0 L 690.1818181818182,40.0 L 694.5454545454545,40.0 L 698.9090909090909,40.0 L 703.2727272727273,40.0 L 707.6363636363636,40.0 L 712.0,40.0 L 716.3636363636364,40.0 L 720.7272727272727,40.0 L 725.0909090909091,40.0 L 729.4545454545454,40.0 L 733.8181818181818,40.0 L 738.1818181818182,40.0 L 742.5454545454545,40.0 L 746.9090909090909,40.0 L 751.2727272727273,40.0 L 755.6363636363636,40.0 L 760.0,40.0" class="line"/>
  <circle cx="40.0" cy="101.53846153846155" class="point"/>
  <text x="40.0" y="375" class="label" text-anchor="middle">2025-11-11</text>
  <text x="40.0" y="96.53846153846155" class="label" text-anchor="middle">42</text>
  <circle cx="44.36363636363636" cy="101.53846153846155" class="point"/>
  <text x="44.36363636363636" y="375" class="label" text-anchor="middle">2025-11-12</text>
  <text x="44.36363636363636" y="96.53846153846155" class="label" text-anchor="middle">42</text>
  <circle cx="48.72727272727273" cy="101.53846153846155" class="point"/>
  <text x="48.72727272727273" y="375" class="label" text-anchor="middle">2025-11-13</text>
  <text x="48.72727272727273" y="96.53846153846155" class="label" text-anchor="middle">42</text>
  <circle cx="53.09090909090909" cy="101.53846153846155" class="point"/>
  <text x="53.09090909090909" y="375" class="label" text-anchor="middle">2025-11-14</text>
  <text x="53.09090909090909" y="96.53846153846155" class="label" text-anchor="middle">42</text>
  <circle cx="57.45454545454545" cy="101.53846153846155" class="point"/>
  <text x="57.45454545454545" y="375" class="label" text-anchor="middle">2025-11-15</text>
  <text x="57.45454545454545" y="96.53846153846155" class="label" text-anchor="middle">42</text>
  <circle cx="61.81818181818182" cy="101.53846153846155" class="point"/>
  <text x="61.81818181818182" y="375" class="label" text-anchor="middle">2025-11-16</text>
  <text x="61.81818181818182" y="96.53846153846155" class="label" text-anchor="middle">42</text>
  <circle cx="66.18181818181819" cy="101.53846153846155" class="point"/>
  <text x="66.18181818181819" y="375" class="label" text-anchor="middle">2025-11-17</text>
  <text x="66.18181818181819" y="96.53846153846155" class="label" text-anchor="middle">42</text>
  <circle cx="70.54545454545455" cy="101.53846153846155" class="point"/>
  <text x="70.54545454545455" y="375" class="label" text-anchor="middle">2025-11-18</text>
  <text x="70.54545454545455" y="96.53846153846155" class="label" text-anchor="middle">42</text>
  <circle cx="74.9090909090909" cy="101.53846153846155" class="point"/>
  <text x="74.9090909090909" y="375" class="label" text-anchor="middle">2025-11-19</text>
  <text x="74.9090909090909" y="96.53846153846155" class="label" text-anchor="middle">42</text>
  <circle cx="79.27272727272728" cy="101.53846153846155" class="point"/>
  <text x="79.27272727272728" y="375" class="label" text-anchor="middle">2025-11-20</text>
  <text x="79.27272727272728" y="96.53846153846155" class="label" text-anchor="middle">42</text>
  <circle cx="83.63636363636364" cy="101.53846153846155" class="point"/>
  <text x="83.63636363636364" y="375" class="label" text-anchor="middle">2025-11-21</text>
  <text x="83.63636363636364" y="96.53846153846155" class="label" text-anchor="middle">42</text>
  <circle cx="88.0" cy="101.53846153846155" class="point"/>
  <text x="88.0" y="375" class="label" text-anchor="middle">2025-11-22</text>
  <text x="88.0" y="96.53846153846155" class="label" text-anchor="middle">42</text>
  <circle cx="92.36363636363636" cy="101.53846153846155" class="point"/>
  <text x="92.36363636363636" y="375" class="label" text-anchor="middle">2025-11-23</text>
  <text x="92.36363636363636" y="96.53846153846155" class="label" text-anchor="middle">42</text>
  <circle cx="96.72727272727272" cy="101.53846153846155" class="point"/>
  <text x="96.72727272727272" y="375" class="label" text-anchor="middle">2025-11-24</text>
  <text x="96.72727272727272" y="96.53846153846155" class="label" text-anchor="middle">42</text>
  <circle cx="101.0909090909091" cy="101.53846153846155" class="point"/>
  <text x="101.0909090909091" y="375" class="label" text-anchor="middle">2025-11-25</text>
  <text x="101.0909090909091" y="96.53846153846155" class="label" text-anchor="middle">42</text>
  <circle cx="105.45454545454545" cy="101.53846153846155" class="point"/>
  <text x="105.45454545454545" y="375" class="label" text-anchor="middle">2025-11-26</text>
  <text x="105.45454545454545" y="96.53846153846155" class="label" text-anchor="middle">42</text>
  <circle cx="109.81818181818181" cy="101.53846153846155" class="point"/>
  <text x="109.81818181818181" y="375" class="label" text-anchor="middle">2025-11-27</text>
  <text x="109.81818181818181" y="96.53846153846155" class="label" text-anchor="middle">42</text>
  <circle cx="114.18181818181819" cy="101.53846153846155" class="point"/>
  <text x="114.18181818181819" y="375" class="label" text-anchor="middle">2025-11-28</text>
  <text x="114.18181818181819" y="96.53846153846155" class="label" text-anchor="middle">42</text>
  <circle cx="118.54545454545455" cy="101.53846153846155" class="point"/>
  <text x="118.54545454545455" y="375" class="label" text-anchor="middle">2025-11-29</text>
  <text x="118.54545454545455" y="96.53846153846155" class="label" text-anchor="middle">42</text>
  <circle cx="122.9090909090909" cy="101.53846153846155" class="point"/>
  <text x="122.9090909090909" y="375" class="label" text-anchor="middle">2025-11-30</text>
  <text x="122.9090909090909" y="96.53846153846155" class="label" text-anchor="middle">42</text>
  <circle cx="127.27272727272728" cy="101.53846153846155" class="point"/>
  <text x="127.27272727272728" y="375" class="label" text-anchor="middle">2025-12-01</text>
  <text x="127.27272727272728" y="96.53846153846155" class="label" text-anchor="middle">42</text>
  <circle cx="131.63636363636363" cy="101.53846153846155" class="point"/>
  <text x="131.63636363636363" y="375" class="label" text-anchor="middle">2025-12-02</text>
  <text x="131.63636363636363" y="96.53846153846155" class="label" text-anchor="middle">42</text>
  <circle cx="136.0" cy="101.53846153846155" class="point"/>
  <text x="136.0" y="375" class="label" text-anchor="middle">2025-12-03</text>
  <text x="136.0" y="96.53846153846155" class="label" text-anchor="middle">42</text>
  <circle cx="140.36363636363637" cy="101.53846153846155" class="point"/>
  <text x="140.36363636363637" y="375" class="label" text-anchor="middle">2025-12-04</text>
  <text x="140.36363636363637" y="96.53846153846155" class="label" text-anchor="middle">42</text>
  <circle cx="144.72727272727272" cy="101.53846153846155" class="point"/>
  <text x="144.72727272727272" y="375" class="label" text-anchor="middle">2025-12-05</text>
  <text x="144.72727272727272" y="96.53846153846155" class="label" text-anchor="middle">42</text>
  <circle cx="149.0909090909091" cy="101.53846153846155" class="point"/>
  <text x="149.0909090909091" y="375" class="label" text-anchor="middle">2025-12-06</text>
  <text x="149.0909090909091" y="96.53846153846155" class="label" text-anchor="middle">42</text>
  <circle cx="153.45454545454544" cy="101.53846153846155" class="point"/>
  <text x="153.45454545454544" y="375" class="label" text-anchor="middle">2025-12-07</text>
  <text x="153.45454545454544" y="96.53846153846155" class="label" text-anchor="middle">42</text>
  <circle cx="157.8181818181818" cy="40.0" class="point"/>
  <text x="157.8181818181818" y="375" class="label" text-anchor="middle">2025-12-08</text>
  <text x="157.8181818181818" y="35.0" class="label" text-anchor="middle">52</text>
  <circle cx="162.1818181818182" cy="40.0" class="point"/>
  <text x="162.1818181818182" y="375" class="label" text-anchor="middle">2025-12-09</text>
  <text x="162.1818181818182" y="35.0" class="label" text-anchor="middle">52</text>
  <circle cx="166.54545454545456" cy="40.0" class="point"/>
  <text x="166.54545454545456" y="375" class="label" text-anchor="middle">2025-12-10</text>
  <text x="166.54545454545456" y="35.0" class="label" text-anchor="middle">52</text>
  <circle cx="170.9090909090909" cy="40.0" class="point"/>
  <text x="170.9090909090909" y="375" class="label" text-anchor="middle">2025-12-11</text>
  <text x="170.9090909090909" y="35.0" class="label" text-anchor="middle">52</text>
  <circle cx="175.27272727272725" cy="40.0" class="point"/>
  <text x="175.27272727272725" y="375" class="label" text-anchor="middle">2025-12-12</text>
  <text x="175.27272727272725" y="35.0" class="label" text-anchor="middle">52</text>
  <circle cx="179.63636363636363" cy="40.0" class="point"/>
  <text x="179.63636363636363" y="375" class="label" text-anchor="middle">2025-12-13</text>
  <text x="179.63636363636363" y="35.0" class="label" text-anchor="middle">52</text>
  <circle cx="184.0" cy="40.0" class="point"/>
  <text x="184.0" y="375" class="label" text-anchor="middle">2025-12-14</text>
  <text x="184.0" y="35.0" class="label" text-anchor="middle">52</text>
  <circle cx="188.36363636363637" cy="40.0" class="point"/>
  <text x="188.36363636363637" y="375" class="label" text-anchor="middle">2025-12-15</text>
  <text x="188.36363636363637" y="35.0" class="label" text-anchor="middle">52</text>
  <circle cx="192.72727272727272" cy="40.0" class="point"/>
  <text x="192.72727272727272" y="375" class="label" text-anchor="middle">2025-12-16</text>
  <text x="192.72727272727272" y="35.0" class="label" text-anchor="middle">52</text>
  <circle cx="197.0909090909091" cy="40.0" class="point"/>
  <text x="197.0909090909091" y="375" class="label" text-anchor="middle">2025-12-17</text>
  <text x="197.0909090909091" y="35.0" class="label" text-anchor="middle">52</text>
  <circle cx="201.45454545454547" cy="40.0" class="point"/>
  <text x="201.45454545454547" y="375" class="label" text-anchor="middle">2025-12-18</text>
  <text x="201.45454545454547" y="35.0" class="label" text-anchor="middle">52</text>
  <circle cx="205.8181818181818" cy="40.0" class="point"/>
  <text x="205.8181818181818" y="375" class="label" text-anchor="middle">2025-12-19</text>
  <text x="205.8181818181818" y="35.0" class="label" text-anchor="middle">52</text>
  <circle cx="210.1818181818182" cy="40.0" class="point"/>
  <text x="210.1818181818182" y="375" class="label" text-anchor="middle">2025-12-20</text>
  <text x="210.1818181818182" y="35.0" class="label" text-anchor="middle">52</text>
  <circle cx="214.54545454545456" cy="40.0" class="point"/>
  <text x="214.54545454545456" y="375" class="label" text-anchor="middle">2025-12-21</text>
  <text x="214.54545454545456" y="35.0" class="label" text-anchor="middle">52</text>
  <circle cx="218.9090909090909" cy="40.0" class="point"/>
  <text x="218.9090909090909" y="375" class="label" text-anchor="middle">2025-12-22</text>
  <text x="218.9090909090909" y="35.0" class="label" text-anchor="middle">52</text>
  <circle cx="223.27272727272725" cy="40.0" class="point"/>
  <text x="223.27272727272725" y="375" class="label" text-anchor="middle">2025-12-23</text>
  <text x="223.27272727272725" y="35.0" class="label" text-anchor="middle">52</text>
  <circle cx="227.63636363636365" cy="40.0" class="point"/>
  <text x="227.63636363636365" y="375" class="label" text-anchor="middle">2025-12-24</text>
  <text x="227.63636363636365" y="35.0" class="label" text-anchor="middle">52</text>
  <circle cx="232.0" cy="40.0" class="point"/>
  <text x="232.0" y="375" class="label" text-anchor="middle">2025-12-25</text>
  <text x="232.0" y="35.0" class="label" text-anchor="middle">52</text>
  <circle cx="236.36363636363635" cy="40.0" class="point"/>
  <text x="236.36363636363635" y="375" class="label" text-anchor="middle">2025-12-26</text>
  <text x="236.36363636363635" y="35.0" class="label" text-anchor="middle">52</text>
  <circle cx="240.72727272727275" cy="40.0" class="point"/>
  <text x="240.72727272727275" y="375" class="label" text-anchor="middle">2025-12-27</text>
  <text x="240.72727272727275" y="35.0" class="label" text-anchor="middle">52</text>
  <circle cx="245.0909090909091" cy="40.0" class="point"/>
  <text x="245.0909090909091" y="375" class="label" text-anchor="middle">2025-12-28</text>
  <text x="245.0909090909091" y="35.0" class="label" text-anchor="middle">52</text>
  <circle cx="249.45454545454544" cy="40.0" class="point"/>
  <text x="249.45454545454544" y="375" class="label" text-anchor="middle">2025-12-29</text>
  <text x="249.45454545454544" y="35.0" class="label" text-anchor="middle">52</text>
  <circle cx="253.81818181818184" cy="40.0" class="point"/>
  <text x="253.81818181818184" y="375" class="label" text-anchor="middle">2025-12-30</text>
  <text x="253.81818181818184" y="35.0" class="label" text-anchor="middle">52</text>
  <circle cx="258.1818181818182" cy="40.0" class="point"/>
  <text x="258.1818181818182" y="375" class="label" text-anchor="middle">2025-12-31</text>
  <text x="258.1818181818182" y="35.0" class="label" text-anchor="middle">52</text>
  <circle cx="262.5454545454545" cy="40.0" class="point"/>
  <text x="262.5454545454545" y="375" class="label" text-anchor="middle">2026-01-01</text>
  <text x="262.5454545454545" y="35.0" class="label" text-anchor="middle">52</text>
  <circle cx="266.9090909090909" cy="40.0" class="point"/>
  <text x="266.9090909090909" y="375" class="label" text-anchor="middle">2026-01-02</text>
  <text x="266.9090909090909" y="35.0" class="label" text-anchor="middle">52</text>
  <circle cx="271.27272727272725" cy="40.0" class="point"/>
  <text x="271.27272727272725" y="375" class="label" text-anchor="middle">2026-01-03</text>
  <text x="271.27272727272725" y="35.0" class="label" text-anchor="middle">52</text>
  <circle cx="275.6363636363636" cy="40.0" class="point"/>
  <text x="275.6363636363636" y="375" class="label" text-anchor="middle">2026-01-04</text>
  <text x="275.6363636363636" y="35.0" class="label" text-anchor="middle">52</text>
  <circle cx="280.0" cy="40.0" class="point"/>
  <text x="280.0" y="375" class="label" text-anchor="middle">2026-01-05</text>
  <text x="280.0" y="35.0" class="label" text-anchor="middle">52</text>
  <circle cx="284.3636363636364" cy="40.0" class="point"/>
  <text x="284.3636363636364" y="375" class="label" text-anchor="middle">2026-01-06</text>
  <text x="284.3636363636364" y="35.0" class="label" text-anchor="middle">52</text>
  <circle cx="288.72727272727275" cy="40.0" class="point"/>
  <text x="288.72727272727275" y="375" class="label" text-anchor="middle">2026-01-07</text>
  <text x="288.72727272727275" y="35.0" class="label" text-anchor="middle">52</text>
  <circle cx="293.0909090909091" cy="40.0" class="point"/>
  <text x="293.0909090909091" y="375" class="label" text-anchor="middle">2026-01-08</text>
  <text x="293.0909090909091" y="35.0" class="label" text-anchor="middle">52</text>
  <circle cx="297.4545454545455" cy="40.0" class="point"/>
  <text x="297.4545454545455" y="375" class="label" text-anchor="middle">2026-01-09</text>
  <text x="297.4545454545455" y="35.0" class="label" text-anchor="middle">52</text>
  <circle cx="301.8181818181818" cy="40.0" class="point"/>
  <text x="301.8181818181818" y="375" class="label" text-anchor="middle">2026-01-10</text>
  <text x="301.8181818181818" y="35.0" class="label" text-anchor="middle">52</text>
  <circle cx="306.1818181818182" cy="40.0" class="point"/>
  <text x="306.1818181818182" y="375" class="label" text-anchor="middle">2026-01-11</text>
  <text x="306.1818181818182" y="35.0" class="label" text-anchor="middle">52</text>
  <circle cx="310.5454545454545" cy="40.0" class="point"/>
  <text x="310.5454545454545" y="375" class="label" text-anchor="middle">2026-01-12</text>
  <text x="310.5454545454545" y="35.0" class="label" text-anchor="middle">52</text>
  <circle cx="314.90909090909093" cy="40.0" class="point"/>
  <text x="314.90909090909093" y="375" class="label" text-anchor="middle">2026-01-13</text>
  <text x="314.90909090909093" y="35.0" class="label" text-anchor="middle">52</text>
  <circle cx="319.27272727272725" cy="40.0" class="point"/>
  <text x="319.27272727272725" y="375" class="label" text-anchor="middle">2026-01-14</text>
  <text x="319.27272727272725" y="35.0" class="label" text-anchor="middle">52</text>
  <circle cx="323.6363636363636" cy="40.0" class="point"/>
  <text x="323.6363636363636" y="375" class="label" text-anchor="middle">2026-01-15</text>
  <text x="323.6363636363636" y="35.0" class="label" text-anchor="middle">52</text>
  <circle cx="328.0" cy="40.0" class="point"/>
  <text x="328.0" y="375" class="label" text-anchor="middle">2026-01-16</text>
  <text x="328.0" y="35.0" class="label" text-anchor="middle">52</text>
  <circle cx="332.3636363636364" cy="40.0" class="point"/>
  <text x="332.3636363636364" y="375" class="label" text-anchor="middle">2026-01-17</text>
  <text x="332.3636363636364" y="35.0" class="label" text-anchor="middle">52</text>
  <circle cx="336.72727272727275" cy="40.0" class="point"/>
  <text x="336.72727272727275" y="375" class="label" text-anchor="middle">2026-01-18</text>
  <text x="336.72727272727275" y="35.0" class="label" text-anchor="middle">52</text>
  <circle cx="341.09090909090907" cy="40.0" class="point"/>
  <text x="341.09090909090907" y="375" class="label" text-anchor="middle">2026-01-19</text>
  <text x="341.09090909090907" y="35.0" class="label" text-anchor="middle">52</text>
  <circle cx="345.45454545454544" cy="40.0" class="point"/>
  <text x="345.45454545454544" y="375" class="label" text-anchor="middle">2026-01-20</text>
  <text x="345.45454545454544" y="35.0" class="label" text-anchor="middle">52</text>
  <circle cx="349.8181818181818" cy="40.0" class="point"/>
  <text x="349.8181818181818" y="375" class="label" text-anchor="middle">2026-01-21</text>
  <text x="349.8181818181818" y="35.0" class="label" text-anchor="middle">52</text>
  <circle cx="354.1818181818182" cy="40.0" class="point"/>
  <text x="354.1818181818182" y="375" class="label" text-anchor="middle">2026-01-22</text>
  <text x="354.1818181818182" y="35.0" class="label" text-anchor="middle">52</text>
  <circle cx="358.54545454545456" cy="40.0" class="point"/>
  <text x="358.54545454545456" y="375" class="label" text-anchor="middle">2026-01-23</text>
  <text x="358.54545454545456" y="35.0" class="label" text-anchor="middle">52</text>
  <circle cx="362.90909090909093" cy="40.0" class="point"/>
  <text x="362.90909090909093" y="375" class="label" text-anchor="middle">2026-01-24</text>
  <text x="362.90909090909093" y="35.0" class="label" text-anchor="middle">52</text>
  <circle cx="367.27272727272725" cy="40.0" class="point"/>
  <text x="367.27272727272725" y="375" class="label" text-anchor="middle">2026-01-25</text>
  <text x="367.27272727272725" y="35.0" class="label" text-anchor="middle">52</text>
  <circle cx="371.6363636363636" cy="40.0" class="point"/>
  <text x="371.6363636363636" y="375" class="label" text-anchor="middle">2026-01-26</text>
  <text x="371.6363636363636" y="35.0" class="label" text-anchor="middle">52</text>
  <circle cx="376.0" cy="40.0" class="point"/>
  <text x="376.0" y="375" class="label" text-anchor="middle">2026-01-27</text>
  <text x="376.0" y="35.0" class="label" text-anchor="middle">52</text>
  <circle cx="380.3636363636364" cy="40.0" class="point"/>
  <text x="380.3636363636364" y="375" class="label" text-anchor="middle">2026-01-28</text>
  <text x="380.3636363636364" y="35.0" class="label" text-anchor="middle">52</text>
  <circle cx="384.7272727272727" cy="40.0" class="point"/>
  <text x="384.7272727272727" y="375" class="label" text-anchor="middle">2026-01-29</text>
  <text x="384.7272727272727" y="35.0" class="label" text-anchor="middle">52</text>
  <circle cx="389.0909090909091" cy="40.0" class="point"/>
  <text x="389.0909090909091" y="375" class="label" text-anchor="middle">2026-01-30</text>
  <text x="389.0909090909091" y="35.0" class="label" text-anchor="middle">52</text>
  <circle cx="393.45454545454544" cy="40.0" class="point"/>
  <text x="393.45454545454544" y="375" class="label" text-anchor="middle">2026-01-31</text>
  <text x="393.45454545454544" y="35.0" class="label" text-anchor="middle">52</text>
  <circle cx="397.8181818181818" cy="40.0" class="point"/>
  <text x="397.8181818181818" y="375" class="label" text-anchor="middle">2026-02-01</text>
  <text x="397.8181818181818" y="35.0" class="label" text-anchor="middle">52</text>
  <circle cx="402.1818181818182" cy="40.0" class="point"/>
  <text x="402.1818181818182" y="375" class="label" text-anchor="middle">2026-02-02</text>
  <text x="402.1818181818182" y="35.0" class="label" text-anchor="middle">52</text>
  <circle cx="406.5454545454545" cy="40.0" class="point"/>
  <text x="406.5454545454545" y="375" class="label" text-anchor="middle">2026-02-03</text>
  <text x="406.5454545454545" y="35.0" class="label" text-anchor="middle">52</text>
  <circle cx="410.9090909090909" cy="40.0" class="point"/>
  <text x="410.9090909090909" y="375" class="label" text-anchor="middle">2026-02-04</text>
  <text x="410.9090909090909" y="35.0" class="label" text-anchor="middle">52</text>
  <circle cx="415.2727272727273" cy="40.0" class="point"/>
  <text x="415.2727272727273" y="375" class="label" text-anchor="middle">2026-02-05</text>
  <text x="415.2727272727273" y="35.0" class="label" text-anchor="middle">52</text>
  <circle cx="419.6363636363636" cy="40.0" class="point"/>
  <text x="419.6363636363636" y="375" class="label" text-anchor="middle">2026-02-06</text>
  <text x="419.6363636363636" y="35.0" class="label" text-anchor="middle">52</text>
  <circle cx="424.0" cy="40.0" class="point"/>
  <text x="424.0" y="375" class="label" text-anchor="middle">2026-02-07</text>
  <text x="424.0" y="35.0" class="label" text-anchor="middle">52</text>
  <circle cx="428.3636363636364" cy="40.0" class="point"/>
  <text x="428.3636363636364" y="375" class="label" text-anchor="middle">2026-02-08</text>
  <text x="428.3636363636364" y="35.0" class="label" text-anchor="middle">52</text>
  <circle cx="432.7272727272727" cy="40.0" class="point"/>
  <text x="432.7272727272727" y="375" class="label" text-anchor="middle">2026-02-09</text>
  <text x="432.7272727272727" y="35.0" class="label" text-anchor="middle">52</text>
  <circle cx="437.09090909090907" cy="40.0" class="point"/>
  <text x="437.09090909090907" y="375" class="label" text-anchor="middle">2026-02-10</text>
  <text x="437.09090909090907" y="35.0" class="label" text-anchor="middle">52</text>
  <circle cx="441.4545454545455" cy="40.0" class="point"/>
  <text x="441.4545454545455" y="375" class="label" text-anchor="middle">2026-02-11</text>
  <text x="441.4545454545455" y="35.0" class="label" text-anchor="middle">52</text>
  <circle cx="445.8181818181818" cy="40.0" class="point"/>
  <text x="445.8181818181818" y="375" class="label" text-anchor="middle">2026-02-12</text>
  <text x="445.8181818181818" y="35.0" class="label" text-anchor="middle">52</text>
  <circle cx="450.1818181818182" cy="40.0" class="point"/>
  <text x="450.1818181818182" y="375" class="label" text-anchor="middle">2026-02-13</text>
  <text x="450.1818181818182" y="35.0" class="label" text-anchor="middle">52</text>
  <circle cx="454.54545454545456" cy="40.0" class="point"/>
  <text x="454.54545454545456" y="375" class="label" text-anchor="middle">2026-02-14</text>
  <text x="454.54545454545456" y="35.0" class="label" text-anchor="middle">52</text>
  <circle cx="458.9090909090909" cy="40.0" class="point"/>
  <text x="458.9090909090909" y="375" class="label" text-anchor="middle">2026-02-15</text>
  <text x="458.9090909090909" y="35.0" class="label" text-anchor="middle">52</text>
  <circle cx="463.27272727272725" cy="40.0" class="point"/>
  <text x="463.27272727272725" y="375" class="label" text-anchor="middle">2026-02-16</text>
  <text x="463.27272727272725" y="35.0" class="label" text-anchor="middle">52</text>
  <circle cx="467.6363636363637" cy="40.0" class="point"/>
  <text x="467.6363636363637" y="375" class="label" text-anchor="middle">2026-02-17</text>
  <text x="467.6363636363637" y="35.0" class="label" text-anchor="middle">52</text>
  <circle cx="472.0" cy="40.0" class="point"/>
  <text x="472.0" y="375" class="label" text-anchor="middle">2026-02-18</text>
  <text x="472.0" y="35.0" class="label" text-anchor="middle">52</text>
  <circle cx="476.3636363636364" cy="40.0" class="point"/>
  <text x="476.3636363636364" y="375" class="label" text-anchor="middle">2026-02-19</text>
  <text x="476.3636363636364" y="35.0" class="label" text-anchor="middle">52</text>
  <circle cx="480.7272727272727" cy="40.0" class="point"/>
  <text x="480.7272727272727" y="375" class="label" text-anchor="middle">2026-02-20</text>
  <text x="480.7272727272727" y="35.0" class="label" text-anchor="middle">52</text>
  <circle cx="485.09090909090907" cy="40.0" class="point"/>
  <text x="485.09090909090907" y="375" class="label" text-anchor="middle">2026-02-21</text>
  <text x="485.09090909090907" y="35.0" class="label" text-anchor="middle">52</text>
  <circle cx="489.4545454545455" cy="40.0" class="point"/>
  <text x="489.4545454545455" y="375" class="label" text-anchor="middle">2026-02-22</text>
  <text x="489.4545454545455" y="35.0" class="label" text-anchor="middle">52</text>
  <circle cx="493.81818181818176" cy="40.0" class="point"/>
  <text x="493.81818181818176" y="375" class="label" text-anchor="middle">2026-02-23</text>
  <text x="493.81818181818176" y="35.0" class="label" text-anchor="middle">52</text>
  <circle cx="498.1818181818182" cy="40.0" class="point"/>
  <text x="498.1818181818182" y="375" class="label" text-anchor="middle">2026-02-24</text>
  <text x="498.1818181818182" y="35.0" class="label" text-anchor="middle">52</text>
  <circle cx="502.54545454545456" cy="40.0" class="point"/>
  <text x="502.54545454545456" y="375" class="label" text-anchor="middle">2026-02-25</text>
  <text x="502.54545454545456" y="35.0" class="label" text-anchor="middle">52</text>
  <circle cx="506.9090909090909" cy="40.0" class="point"/>
  <text x="506.9090909090909" y="375" class="label" text-anchor="middle">2026-02-26</text>
  <text x="506.9090909090909" y="35.0" class="label" text-anchor="middle">52</text>
  <circle cx="511.27272727272725" cy="40.0" class="point"/>
  <text x="511.27272727272725" y="375" class="label" text-anchor="middle">2026-02-27</text>
  <text x="511.27272727272725" y="35.0" class="label" text-anchor="middle">52</text>
  <circle cx="515.6363636363637" cy="40.0" class="point"/>
  <text x="515.6363636363637" y="375" class="label" text-anchor="middle">2026-02-28</text>
  <text x="515.6363636363637" y="35.0" class="label" text-anchor="middle">52</text>
  <circle cx="520.0" cy="40.0" class="point"/>
  <text x="520.0" y="375" class="label" text-anchor="middle">2026-03-01</text>
  <text x="520.0" y="35.0" class="label" text-anchor="middle">52</text>
  <circle cx="524.3636363636364" cy="40.0" class="point"/>
  <text x="524.3636363636364" y="375" class="label" text-anchor="middle">2026-03-02</text>
  <text x="524.3636363636364" y="35.0" class="label" text-anchor="middle">52</text>
  <circle cx="528.7272727272727" cy="40.0" class="point"/>
  <text x="528.7272727272727" y="375" class="label" text-anchor="middle">2026-03-03</text>
  <text x="528.7272727272727" y="35.0" class="label" text-anchor="middle">52</text>
  <circle cx="533.090909090909" cy="40.0" class="point"/>
  <text x="533.090909090909" y="375" class="label" text-anchor="middle">2026-03-04</text>
  <text x="533.090909090909" y="35.0" class="label" text-anchor="middle">52</text>
  <circle cx="537.4545454545455" cy="40.0" class="point"/>
  <text x="537.4545454545455" y="375" class="label" text-anchor="middle">2026-03-05</text>
  <text x="537.4545454545455" y="35.0" class="label" text-anchor="middle">52</text>
  <circle cx="541.8181818181819" cy="40.0" class="point"/>
  <text x="541.8181818181819" y="375" class="label" text-anchor="middle">2026-03-06</text>
  <text x="541.8181818181819" y="35.0" class="label" text-anchor="middle">52</text>
  <circle cx="546.1818181818182" cy="40.0" class="point"/>
  <text x="546.1818181818182" y="375" class="label" text-anchor="middle">2026-03-07</text>
  <text x="546.1818181818182" y="35.0" class="label" text-anchor="middle">52</text>
  <circle cx="550.5454545454545" cy="40.0" class="point"/>
  <text x="550.5454545454545" y="375" class="label" text-anchor="middle">2026-03-08</text>
  <text x="550.5454545454545" y="35.0" class="label" text-anchor="middle">52</text>
  <circle cx="554.909090909091" cy="40.0" class="point"/>
  <text x="554.909090909091" y="375" class="label" text-anchor="middle">2026-03-09</text>
  <text x="554.909090909091" y="35.0" class="label" text-anchor="middle">52</text>
  <circle cx="559.2727272727273" cy="40.0" class="point"/>
  <text x="559.2727272727273" y="375" class="label" text-anchor="middle">2026-03-10</text>
  <text x="559.2727272727273" y="35.0" class="label" text-anchor="middle">52</text>
  <circle cx="563.6363636363636" cy="40.0" class="point"/>
  <text x="563.6363636363636" y="375" class="label" text-anchor="middle">2026-03-11</text>
  <text x="563.6363636363636" y="35.0" class="label" text-anchor="middle">52</text>
  <circle cx="568.0" cy="40.0" class="point"/>
  <text x="568.0" y="375" class="label" text-anchor="middle">2026-03-12</text>
  <text x="568.0" y="35.0" class="label" text-anchor="middle">52</text>
  <circle cx="572.3636363636364" cy="40.0" class="point"/>
  <text x="572.3636363636364" y="375" class="label" text-anchor="middle">2026-03-13</text>
  <text x="572.3636363636364" y="35.0" class="label" text-anchor="middle">52</text>
  <circle cx="576.7272727272727" cy="40.0" class="point"/>
  <text x="576.7272727272727" y="375" class="label" text-anchor="middle">2026-03-14</text>
  <text x="576.7272727272727" y="35.0" class="label" text-anchor="middle">52</text>
  <circle cx="581.090909090909" cy="40.0" class="point"/>
  <text x="581.090909090909" y="375" class="label" text-anchor="middle">2026-03-15</text>
  <text x="581.090909090909" y="35.0" class="label" text-anchor="middle">52</text>
  <circle cx="585.4545454545455" cy="40.0" class="point"/>
  <text x="585.4545454545455" y="375" class="label" text-anchor="middle">2026-03-16</text>
  <text x="585.4545454545455" y="35.0" class="label" text-anchor="middle">52</text>
  <circle cx="589.8181818181819" cy="40.0" class="point"/>
  <text x="589.8181818181819" y="375" class="label" text-anchor="middle">2026-03-17</text>
  <text x="589.8181818181819" y="35.0" class="label" text-anchor="middle">52</text>
  <circle cx="594.1818181818181" cy="40.0" class="point"/>
  <text x="594.1818181818181" y="375" class="label" text-anchor="middle">2026-03-18</text>
  <text x="594.1818181818181" y="35.0" class="label" text-anchor="middle">52</text>
  <circle cx="598.5454545454545" cy="40.0" class="point"/>
  <text x="598.5454545454545" y="375" class="label" text-anchor="middle">2026-03-19</text>
  <text x="598.5454545454545" y="35.0" class="label" text-anchor="middle">52</text>
  <circle cx="602.909090909091" cy="40.0" class="point"/>
  <text x="602.909090909091" y="375" class="label" text-anchor="middle">2026-03-20</text>
  <text x="602.909090909091" y="35.0" class="label" text-anchor="middle">52</text>
  <circle cx="607.2727272727273" cy="40.0" class="point"/>
  <text x="607.2727272727273" y="375" class="label" text-anchor="middle">2026-03-21</text>
  <text x="607.2727272727273" y="35.0" class="label" text-anchor="middle">52</text>
  <circle cx="611.6363636363636" cy="40.0" class="point"/>
  <text x="611.6363636363636" y="375" class="label" text-anchor="middle">2026-03-22</text>
  <text x="611.6363636363636" y="35.0" class="label" text-anchor="middle">52</text>
  <circle cx="616.0" cy="40.0" class="point"/>
  <text x="616.0" y="375" class="label" text-anchor="middle">2026-03-23</text>
  <text x="616.0" y="35.0" class="label" text-anchor="middle">52</text>
  <circle cx="620.3636363636364" cy="40.0" class="point"/>
  <text x="620.3636363636364" y="375" class="label" text-anchor="middle">2026-03-24</text>
  <text x="620.3636363636364" y="35.0" class="label" text-anchor="middle">52</text>
  <circle cx="624.7272727272727" cy="40.0" class="point"/>
  <text x="624.7272727272727" y="375" class="label" text-anchor="middle">2026-03-25</text>
  <text x="624.7272727272727" y="35.0" class="label" text-anchor="middle">52</text>
  <circle cx="629.0909090909091" cy="40.0" class="point"/>
  <text x="629.0909090909091" y="375" class="label" text-anchor="middle">2026-03-26</text>
  <text x="629.0909090909091" y="35.0" class="label" text-anchor="middle">52</text>
  <circle cx="633.4545454545455" cy="40.0" class="point"/>
  <text x="633.4545454545455" y="375" class="label" text-anchor="middle">2026-03-27</text>
  <text x="633.4545454545455" y="35.0" class="label" text-anchor="middle">52</text>
  <circle cx="637.8181818181819" cy="40.0" class="point"/>
  <text x="637.8181818181819" y="375" class="label" text-anchor="middle">2026-03-28</text>
  <text x="637.8181818181819" y="35.0" class="label" text-anchor="middle">52</text>
  <circle cx="642.1818181818181" cy="40.0" class="point"/>
  <text x="642.1818181818181" y="375" class="label" text-anchor="middle">2026-03-29</text>
  <text x="642.1818181818181" y="35.0" class="label" text-anchor="middle">52</text>
  <circle cx="646.5454545454545" cy="40.0" class="point"/>
  <text x="646.5454545454545" y="375" class="label" text-anchor="middle">2026-03-30</text>
  <text x="646.5454545454545" y="35.0" class="label" text-anchor="middle">52</text>
  <circle cx="650.9090909090909" cy="40.0" class="point"/>
  <text x="650.9090909090909" y="375" class="label" text-anchor="middle">2026-03-31</text>
  <text x="650.9090909090909" y="35.0" class="label" text-anchor="middle">52</text>
  <circle cx="655.2727272727273" cy="40.0" class="point"/>
  <text x="655.2727272727273" y="375" class="label" text-anchor="middle">2026-04-01</text>
  <text x="655.2727272727273" y="35.0" class="label" text-anchor="middle">52</text>
  <circle cx="659.6363636363636" cy="40.0" class="point"/>
  <text x="659.6363636363636" y="375" class="label" text-anchor="middle">2026-04-02</text>
  <text x="659.6363636363636" y="35.0" class="label" text-anchor="middle">52</text>
  <circle cx="664.0" cy="40.0" class="point"/>
  <text x="664.0" y="375" class="label" text-anchor="middle">2026-04-03</text>
  <text x="664.0" y="35.0" class="label" text-anchor="middle">52</text>
  <circle cx="668.3636363636364" cy="40.0" class="point"/>
  <text x="668.3636363636364" y="375" class="label" text-anchor="middle">2026-04-04</text>
  <text x="668.3636363636364" y="35.0" class="label" text-anchor="middle">52</text>
  <circle cx="672.7272727272727" cy="40.0" class="point"/>
  <text x="672.7272727272727" y="375" class="label" text-anchor="middle">2026-04-05</text>
  <text x="672.7272727272727" y="35.0" class="label" text-anchor="middle">52</text>
  <circle cx="677.0909090909091" cy="40.0" class="point"/>
  <text x="677.0909090909091" y="375" class="label" text-anchor="middle">2026-04-06</text>
  <text x="677.0909090909091" y="35.0" class="label" text-anchor="middle">52</text>
  <circle cx="681.4545454545454" cy="40.0" class="point"/>
  <text x="681.4545454545454" y="375" class="label" text-anchor="middle">2026-04-07</text>
  <text x="681.4545454545454" y="35.0" class="label" text-anchor="middle">52</text>
  <circle cx="685.8181818181819" cy="40.0" class="point"/>
  <text x="685.8181818181819" y="375" class="label" text-anchor="middle">2026-04-08</text>
  <text x="685.8181818181819" y="35.0" class="label" text-anchor="middle">52</text>
  <circle cx="690.1818181818182" cy="40.0" class="point"/>
  <text x="690.1818181818182" y="375" class="label" text-anchor="middle">2026-04-09</text>
  <text x="690.1818181818182" y="35.0" class="label" text-anchor="middle">52</text>
  <circle cx="694.5454545454545" cy="40.0" class="point"/>
  <text x="694.5454545454545" y="375" class="label" text-anchor="middle">2026-04-10</text>
  <text x="694.5454545454545" y="35.0" class="label" text-anchor="middle">52</text>
  <circle cx="698.9090909090909" cy="40.0" class="point"/>
  <text x="698.9090909090909" y="375" class="label" text-anchor="middle">2026-04-11</text>
  <text x="698.9090909090909" y="35.0" class="label" text-anchor="middle">52</text>
  <circle cx="703.2727272727273" cy="40.0" class="point"/>
  <text x="703.2727272727273" y="375" class="label" text-anchor="middle">2026-04-12</text>
  <text x="703.2727272727273" y="35.0" class="label" text-anchor="middle">52</text>
  <circle cx="707.6363636363636" cy="40.0" class="point"/>
  <text x="707.6363636363636" y="375" class="label" text-anchor="middle">2026-04-13</text>
  <text x="707.6363636363636" y="35.0" class="label" text-anchor="middle">52</text>
  <circle cx="712.0" cy="40.0" class="point"/>
  <text x="712.0" y="375" class="label" text-anchor="middle">2026-04-14</text>
  <text x="712.0" y="35.0" class="label" text-anchor="middle">52</text>
  <circle cx="716.3636363636364" cy="40.0" class="point"/>
  <text x="716.3636363636364" y="375" class="label" text-anchor="middle">2026-04-15</text>
  <text x="716.3636363636364" y="35.0" class="label" text-anchor="middle">52</text>
  <circle cx="720.7272727272727" cy="40.0" class="point"/>
  <text x="720.7272727272727" y="375" class="label" text-anchor="middle">2026-04-16</text>
  <text x="720.7272727272727" y="35.0" class="label" text-anchor="middle">52</text>
  <circle cx="725.0909090909091" cy="40.0" class="point"/>
  <text x="725.0909090909091" y="375" class="label" text-anchor="middle">2026-04-17</text>
  <text x="725.0909090909091" y="35.0" class="label" text-anchor="middle">52</text>
  <circle cx="729.4545454545454" cy="40.0" class="point"/>
  <text x="729.4545454545454" y="375" class="label" text-anchor="middle">2026-04-18</text>
  <text x="729.4545454545454" y="35.0" class="label" text-anchor="middle">52</text>
  <circle cx="733.8181818181818" cy="40.0" class="point"/>
  <text x="733.8181818181818" y="375" class="label" text-anchor="middle">2026-04-19</text>
  <text x="733.8181818181818" y="35.0" class="label" text-anchor="middle">52</text>
  <circle cx="738.1818181818182" cy="40.0" class="point"/>
  <text x="738.1818181818182" y="375" class="label" text-anchor="middle">2026-04-20</text>
  <text x="738.1818181818182" y="35.0" class="label" text-anchor="middle">52</text>
  <circle cx="742.5454545454545" cy="40.0" class="point"/>
  <text x="742.5454545454545" y="375" class="label" text-anchor="middle">2026-04-21</text>
  <text x="742.5454545454545" y="35.0" class="label" text-anchor="middle">52</text>
  <circle cx="746.9090909090909" cy="40.0" class="point"/>
  <text x="746.9090909090909" y="375" class="label" text-anchor="middle">2026-04-22</text>
  <text x="746.9090909090909" y="35.0" class="label" text-anchor="middle">52</text>
  <circle cx="751.2727272727273" cy="40.0" class="point"/>
  <text x="751.2727272727273" y="375" class="label" text-anchor="middle">2026-04-23</text>
  <text x="751.2727272727273" y="35.0" class="label" text-anchor="middle">52</text>
  <circle cx="755.6363636363636" cy="40.0" class="point"/>
  <text x="755.6363636363636" y="375" class="label" text-anchor="middle">2026-04-24</text>
  <text x="755.6363636363636" y="35.0" class="label" text-anchor="middle">52</text>
  <circle cx="760.0" cy="40.0" class="point"/>
  <text x="760.0" y="375" class="label" text-anchor="middle">2026-04-25</text>
  <text x="760.0" y="35.0" class="label" text-anchor="middle">52</text>
  <text x="30" y="363.0" class="label" text-anchor="end">0</text>
  <text x="30" y="301.46153846153845" class="label" text-anchor="end">10</text>
  <text x="30" y="239.9230769230769" class="label" text-anchor="end">20</text>
  <text x="30" y="178.38461538461542" class="label" text-anchor="end">30</text>
  <text x="30" y="116.84615384615384" class="label" text-anchor="end">40</text>
  <text x="30" y="55.30769230769232" class="label" text-anchor="end">50</text>
</svg>