<svg xmlns="http://www.w3.org/2000/svg" width="800" height="400" viewBox="0 0 800 400">
  <style>
    .axis{stroke:#666;stroke-width:1}
    .line{stroke:#4a9;stroke-width:2;fill:none}
    .point{fill:#4a9;r:4}
    .label{font:10px sans-serif;fill:#aaa}
    .title{font:14px sans-serif;fill:#333}
  </style>
  <text x="400" y="20" class="title" text-anchor="middle">OPIC Field Growth Timeline</text>
  <line x1="40" y1="40" x2="40" y2="360" class="axis"/>
  <line x1="40" y1="360" x2="760" y2="360" class="axis"/>
  <path d="M 40.0,101.53846153846155 L 46.728971962616825,101.53846153846155 L 53.45794392523364,101.53846153846155 L 60.18691588785047,101.53846153846155 L 66.91588785046729,101.53846153846155 L 73.64485981308411,101.53846153846155 L 80.37383177570094,101.53846153846155 L 87.10280373831776,101.53846153846155 L 93.83177570093457,101.53846153846155 L 100.5607476635514,101.53846153846155 L 107.28971962616822,101.53846153846155 L 114.01869158878505,101.53846153846155 L 120.74766355140187,101.53846153846155 L 127.4766355140187,101.53846153846155 L 134.20560747663552,101.53846153846155 L 140.93457943925233,101.53846153846155 L 147.66355140186914,101.53846153846155 L 154.39252336448595,101.53846153846155 L 161.1214953271028,101.53846153846155 L 167.85046728971963,101.53846153846155 L 174.57943925233644,101.53846153846155 L 181.30841121495325,101.53846153846155 L 188.0373831775701,101.53846153846155 L 194.7663551401869,101.53846153846155 L 201.49532710280374,101.53846153846155 L 208.22429906542055,101.53846153846155 L 214.9532710280374,101.53846153846155 L 221.68224299065417,40.0 L 228.411214953271,40.0 L 235.14018691588782,40.0 L 241.86915887850466,40.0 L 248.59813084112147,40.0 L 255.3271028037383,40.0 L 262.0560747663551,40.0 L 268.7850467289719,40.0 L 275.5140186915888,40.0 L 282.2429906542056,40.0 L 288.97196261682245,40.0 L 295.70093457943926,40.0 L 302.4299065420561,40.0 L 309.1588785046729,40.0 L 315.8878504672897,40.0 L 322.6168224299065,40.0 L 329.3457943925234,40.0 L 336.0747663551402,40.0 L 342.803738317757,40.0 L 349.5327102803738,40.0 L 356.2616822429907,40.0 L 362.9906542056075,40.0 L 369.7196261682243,40.0 L 376.4485981308411,40.0 L 383.1775700934579,40.0 L 389.9065420560748,40.0 L 396.6355140186916,40.0 L 403.36448598130835,40.0 L 410.0934579439252,40.0 L 416.822429906542,40.0 L 423.55140186915884,40.0 L 430.28037383177565,40.0 L 437.0093457943925,40.0 L 443.7383177570093,40.0 L 450.46728971962614,40.0 L 457.19626168224295,40.0 L 463.92523364485976,40.0 L 470.6542056074766,40.0 L 477.38317757009344,40.0 L 484.11214953271025,40.0 L 490.84112149532706,40.0 L 497.57009345794387,40.0 L 504.29906542056074,40.0 L 511.02803738317755,40.0 L 517.7570093457944,40.0 L 524.4859813084112,40.0 L 531.214953271028,40.0 L 537.9439252336449,40.0 L 544.6728971962616,40.0 L 551.4018691588785,40.0 L 558.1308411214953,40.0 L 564.8598130841121,40.0 L 571.588785046729,40.0 L 578.3177570093458,40.0 L 585.0467289719626,40.0 L 591.7757009345794,40.0 L 598.5046728971962,40.0 L 605.233644859813,40.0 L 611.9626168224299,40.0 L 618.6915887850467,40.0 L 625.4205607476636,40.0 L 632.1495327102804,40.0 L 638.8785046728972,40.0 L 645.607476635514,40.0 L 652.3364485981308,40.0 L 659.0654205607476,40.0 L 665.7943925233644,40.0 L 672.5233644859813,40.0 L 679.2523364485982,40.0 L 685.981308411215,40.0 L 692.7102803738318,40.0 L 699.4392523364486,40.0 L 706.1682242990654,40.0 L 712.8971962616822,40.0 L 719.626168224299,40.0 L 726.3551401869158,40.0 L 733.0841121495328,40.0 L 739.8130841121496,40.0 L 746.5420560747664,40.0 L 753.2710280373832,40.0 L 760.0,40.0" class="line"/>
  <circle cx="40.0" cy="101.53846153846155" class="point"/>
  <text x="40.0" y="375" class="label" text-anchor="middle">2025-11-11</text>
  <text x="40.0" y="96.53846153846155" class="label" text-anchor="middle">42</text>
  <circle cx="46.728971962616825" cy="101.53846153846155" class="point"/>
  <text x="46.728971962616825" y="375" class="label" text-anchor="middle">2025-11-12</text>
  <text x="46.728971962616825" y="96.53846153846155" class="label" text-anchor="middle">42</text>
  <circle cx="53.45794392523364" cy="101.53846153846155" class="point"/>
  <text x="53.45794392523364" y="375" class="label" text-anchor="middle">2025-11-13</text>
  <text x="53.45794392523364" y="96.53846153846155" class="label" text-anchor="middle">42</text>
  <circle cx="60.18691588785047" cy="101.53846153846155" class="point"/>
  <text x="60.18691588785047" y="375" class="label" text-anchor="middle">2025-11-14</text>
  <text x="60.18691588785047" y="96.53846153846155" class="label" text-anchor="middle">42</text>
  <circle cx="66.91588785046729" cy="101.53846153846155" class="point"/>
  <text x="66.91588785046729" y="375" class="label" text-anchor="middle">2025-11-15</text>
  <text x="66.91588785046729" y="96.53846153846155" class="label" text-anchor="middle">42</text>
  <circle cx="73.64485981308411" cy="101.53846153846155" class="point"/>
  <text x="73.64485981308411" y="375" class="label" text-anchor="middle">2025-11-16</text>
  <text x="73.64485981308411" y="96.53846153846155" class="label" text-anchor="middle">42</text>
  <circle cx="80.37383177570094" cy="101.53846153846155" class="point"/>
  <text x="80.37383177570094" y="375" class="label" text-anchor="middle">2025-11-17</text>
  <text x="80.37383177570094" y="96.53846153846155" class="label" text-anchor="middle">42</text>
  <circle cx="87.10280373831776" cy="101.53846153846155" class="point"/>
  <text x="87.10280373831776" y="375" class="label" text-anchor="middle">2025-11-18</text>
  <text x="87.10280373831776" y="96.53846153846155" class="label" text-anchor="middle">42</text>
  <circle cx="93.83177570093457" cy="101.53846153846155" class="point"/>
  <text x="93.83177570093457" y="375" class="label" text-anchor="middle">2025-11-19</text>
  <text x="93.83177570093457" y="96.53846153846155" class="label" text-anchor="middle">42</text>
  <circle cx="100.5607476635514" cy="101.53846153846155" class="point"/>
  <text x="100.5607476635514" y="375" class="label" text-anchor="middle">2025-11-20</text>
  <text x="100.5607476635514" y="96.53846153846155" class="label" text-anchor="middle">42</text>
  <circle cx="107.28971962616822" cy="101.53846153846155" class="point"/>
  <text x="107.28971962616822" y="375" class="label" text-anchor="middle">2025-11-21</text>
  <text x="107.28971962616822" y="96.53846153846155" class="label" text-anchor="middle">42</text>
  <circle cx="114.01869158878505" cy="101.53846153846155" class="point"/>
  <text x="114.01869158878505" y="375" class="label" text-anchor="middle">2025-11-22</text>
  <text x="114.01869158878505" y="96.53846153846155" class="label" text-anchor="middle">42</text>
  <circle cx="120.74766355140187" cy="101.53846153846155" class="point"/>
  <text x="120.74766355140187" y="375" class="label" text-anchor="middle">2025-11-23</text>
  <text x="120.74766355140187" y="96.53846153846155" class="label" text-anchor="middle">42</text>
  <circle cx="127.4766355140187" cy="101.53846153846155" class="point"/>
  <text x="127.4766355140187" y="375" class="label" text-anchor="middle">2025-11-24</text>
  <text x="127.4766355140187" y="96.53846153846155" class="label" text-anchor="middle">42</text>
  <circle cx="134.20560747663552" cy="101.53846153846155" class="point"/>
  <text x="134.20560747663552" y="375" class="label" text-anchor="middle">2025-11-25</text>
  <text x="134.20560747663552" y="96.53846153846155" class="label" text-anchor="middle">42</text>
  <circle cx="140.93457943925233" cy="101.53846153846155" class="point"/>
  <text x="140.93457943925233" y="375" class="label" text-anchor="middle">2025-11-26</text>
  <text x="140.93457943925233" y="96.53846153846155" class="label" text-anchor="middle">42</text>
  <circle cx="147.66355140186914" cy="101.53846153846155" class="point"/>
  <text x="147.66355140186914" y="375" class="label" text-anchor="middle">2025-11-27</text>
  <text x="147.66355140186914" y="96.53846153846155" class="label" text-anchor="middle">42</text>
  <circle cx="154.39252336448595" cy="101.53846153846155" class="point"/>
  <text x="154.39252336448595" y="375" class="label" text-anchor="middle">2025-11-28</text>
  <text x="154.39252336448595" y="96.53846153846155" class="label" text-anchor="middle">42</text>
  <circle cx="161.1214953271028" cy="101.53846153846155" class="point"/>
  <text x="161.1214953271028" y="375" class="label" text-anchor="middle">2025-11-29</text>
  <text x="161.1214953271028" y="96.53846153846155" class="label" text-anchor="middle">42</text>
  <circle cx="167.85046728971963" cy="101.53846153846155" class="point"/>
  <text x="167.85046728971963" y="375" class="label" text-anchor="middle">2025-11-30</text>
  <text x="167.85046728971963" y="96.53846153846155" class="label" text-anchor="middle">42</text>
  <circle cx="174.57943925233644" cy="101.53846153846155" class="point"/>
  <text x="174.57943925233644" y="375" class="label" text-anchor="middle">2025-12-01</text>
  <text x="174.57943925233644" y="96.53846153846155" class="label" text-anchor="middle">42</text>
  <circle cx="181.30841121495325" cy="101.53846153846155" class="point"/>
  <text x="181.30841121495325" y="375" class="label" text-anchor="middle">2025-12-02</text>
  <text x="181.30841121495325" y="96.53846153846155" class="label" text-anchor="middle">42</text>
  <circle cx="188.0373831775701" cy="101.53846153846155" class="point"/>
  <text x="188.0373831775701" y="375" class="label" text-anchor="middle">2025-12-03</text>
  <text x="188.0373831775701" y="96.53846153846155" class="label" text-anchor="middle">42</text>
  <circle cx="194.7663551401869" cy="101.53846153846155" class="point"/>
  <text x="194.7663551401869" y="375" class="label" text-anchor="middle">2025-12-04</text>
  <text x="194.7663551401869" y="96.53846153846155" class="label" text-anchor="middle">42</text>
  <circle cx="201.49532710280374" cy="101.53846153846155" class="point"/>
  <text x="201.49532710280374" y="375" class="label" text-anchor="middle">2025-12-05</text>
  <text x="201.49532710280374" y="96.53846153846155" class="label" text-anchor="middle">42</text>
  <circle cx="208.22429906542055" cy="101.53846153846155" class="point"/>
  <text x="208.22429906542055" y="375" class="label" text-anchor="middle">2025-12-06</text>
  <text x="208.22429906542055" y="96.53846153846155" class="label" text-anchor="middle">42</text>
  <circle cx="214.9532710280374" cy="101.53846153846155" class="point"/>
  <text x="214.9532710280374" y="375" class="label" text-anchor="middle">2025-12-07</text>
  <text x="214.9532710280374" y="96.53846153846155" class="label" text-anchor="middle">42</text>
  <circle cx="221.68224299065417" cy="40.0" class="point"/>
  <text x="221.68224299065417" y="375" class="label" text-anchor="middle">2025-12-08</text>
  <text x="221.68224299065417" y="35.0" class="label" text-anchor="middle">52</text>
  <circle cx="228.411214953271" cy="40.0" class="point"/>
  <text x="228.411214953271" y="375" class="label" text-anchor="middle">2025-12-09</text>
  <text x="228.411214953271" y="35.0" class="label" text-anchor="middle">52</text>
  <circle cx="235.14018691588782" cy="40.0" class="point"/>
  <text x="235.14018691588782" y="375" class="label" text-anchor="middle">2025-12-10</text>
  <text x="235.14018691588782" y="35.0" class="label" text-anchor="middle">52</text>
  <circle cx="241.86915887850466" cy="40.0" class="point"/>
  <text x="241.86915887850466" y="375" class="label" text-anchor="middle">2025-12-11</text>
  <text x="241.86915887850466" y="35.0" class="label" text-anchor="middle">52</text>
  <circle cx="248.59813084112147" cy="40.0" class="point"/>
  <text x="248.59813084112147" y="375" class="label" text-anchor="middle">2025-12-12</text>
  <text x="248.59813084112147" y="35.0" class="label" text-anchor="middle">52</text>
  <circle cx="255.3271028037383" cy="40.0" class="point"/>
  <text x="255.3271028037383" y="375" class="label" text-anchor="middle">2025-12-13</text>
  <text x="255.3271028037383" y="35.0" class="label" text-anchor="middle">52</text>
  <circle cx="262.0560747663551" cy="40.0" class="point"/>
  <text x="262.0560747663551" y="375" class="label" text-anchor="middle">2025-12-14</text>
  <text x="262.0560747663551" y="35.0" class="label" text-anchor="middle">52</text>
  <circle cx="268.7850467289719" cy="40.0" class="point"/>
  <text x="268.7850467289719" y="375" class="label" text-anchor="middle">2025-12-15</text>
  <text x="268.7850467289719" y="35.0" class="label" text-anchor="middle">52</text>
  <circle cx="275.5140186915888" cy="40.0" class="point"/>
  <text x="275.5140186915888" y="375" class="label" text-anchor="middle">2025-12-16</text>
  <text x="275.5140186915888" y="35.0" class="label" text-anchor="middle">52</text>
  <circle cx="282.2429906542056" cy="40.0" class="point"/>
  <text x="282.2429906542056" y="375" class="label" text-anchor="middle">2025-12-17</text>
  <text x="282.2429906542056" y="35.0" class="label" text-anchor="middle">52</text>
  <circle cx="288.97196261682245" cy="40.0" class="point"/>
  <text x="288.97196261682245" y="375" class="label" text-anchor="middle">2025-12-18</text>
  <text x="288.97196261682245" y="35.0" class="label" text-anchor="middle">52</text>
  <circle cx="295.70093457943926" cy="40.0" class="point"/>
  <text x="295.70093457943926" y="375" class="label" text-anchor="middle">2025-12-19</text>
  <text x="295.70093457943926" y="35.0" class="label" text-anchor="middle">52</text>
  <circle cx="302.4299065420561" cy="40.0" class="point"/>
  <text x="302.4299065420561" y="375" class="label" text-anchor="middle">2025-12-20</text>
  <text x="302.4299065420561" y="35.0" class="label" text-anchor="middle">52</text>
  <circle cx="309.1588785046729" cy="40.0" class="point"/>
  <text x="309.1588785046729" y="375" class="label" text-anchor="middle">2025-12-21</text>
  <text x="309.1588785046729" y="35.0" class="label" text-anchor="middle">52</text>
  <circle cx="315.8878504672897" cy="40.0" class="point"/>
  <text x="315.8878504672897" y="375" class="label" text-anchor="middle">2025-12-22</text>
  <text x="315.8878504672897" y="35.0" class="label" text-anchor="middle">52</text>
  <circle cx="322.6168224299065" cy="40.0" class="point"/>
  <text x="322.6168224299065" y="375" class="label" text-anchor="middle">2025-12-23</text>
  <text x="322.6168224299065" y="35.0" class="label" text-anchor="middle">52</text>
  <circle cx="329.3457943925234" cy="40.0" class="point"/>
  <text x="329.3457943925234" y="375" class="label" text-anchor="middle">2025-12-24</text>
  <text x="329.3457943925234" y="35.0" class="label" text-anchor="middle">52</text>
  <circle cx="336.0747663551402" cy="40.0" class="point"/>
  <text x="336.0747663551402" y="375" class="label" text-anchor="middle">2025-12-25</text>
  <text x="336.0747663551402" y="35.0" class="label" text-anchor="middle">52</text>
  <circle cx="342.803738317757" cy="40.0" class="point"/>
  <text x="342.803738317757" y="375" class="label" text-anchor="middle">2025-12-26</text>
  <text x="342.803738317757" y="35.0" class="label" text-anchor="middle">52</text>
  <circle cx="349.5327102803738" cy="40.0" class="point"/>
  <text x="349.5327102803738" y="375" class="label" text-anchor="middle">2025-12-27</text>
  <text x="349.5327102803738" y="35.0" class="label" text-anchor="middle">52</text>
  <circle cx="356.2616822429907" cy="40.0" class="point"/>
  <text x="356.2616822429907" y="375" class="label" text-anchor="middle">2025-12-28</text>
  <text x="356.2616822429907" y="35.0" class="label" text-anchor="middle">52</text>
  <circle cx="362.9906542056075" cy="40.0" class="point"/>
  <text x="362.9906542056075" y="375" class="label" text-anchor="middle">2025-12-29</text>
  <text x="362.9906542056075" y="35.0" class="label" text-anchor="middle">52</text>
  <circle cx="369.7196261682243" cy="40.0" class="point"/>
  <text x="369.7196261682243" y="375" class="label" text-anchor="middle">2025-12-30</text>
  <text x="369.7196261682243" y="35.0" class="label" text-anchor="middle">52</text>
  <circle cx="376.4485981308411" cy="40.0" class="point"/>
  <text x="376.4485981308411" y="375" class="label" text-anchor="middle">2025-12-31</text>
  <text x="376.4485981308411" y="35.0" class="label" text-anchor="middle">52</text>
  <circle cx="383.1775700934579" cy="40.0" class="point"/>
  <text x="383.1775700934579" y="375" class="label" text-anchor="middle">2026-01-01</text>
  <text x="383.1775700934579" y="35.0" class="label" text-anchor="middle">52</text>
  <circle cx="389.9065420560748" cy="40.0" class="point"/>
  <text x="389.9065420560748" y="375" class="label" text-anchor="middle">2026-01-02</text>
  <text x="389.9065420560748" y="35.0" class="label" text-anchor="middle">52</text>
  <circle cx="396.6355140186916" cy="40.0" class="point"/>
  <text x="396.6355140186916" y="375" class="label" text-anchor="middle">2026-01-03</text>
  <text x="396.6355140186916" y="35.0" class="label" text-anchor="middle">52</text>
  <circle cx="403.36448598130835" cy="40.0" class="point"/>
  <text x="403.36448598130835" y="375" class="label" text-anchor="middle">2026-01-04</text>
  <text x="403.36448598130835" y="35.0" class="label" text-anchor="middle">52</text>
  <circle cx="410.0934579439252" cy="40.0" class="point"/>
  <text x="410.0934579439252" y="375" class="label" text-anchor="middle">2026-01-05</text>
  <text x="410.0934579439252" y="35.0" class="label" text-anchor="middle">52</text>
  <circle cx="416.822429906542" cy="40.0" class="point"/>
  <text x="416.822429906542" y="375" class="label" text-anchor="middle">2026-01-06</text>
  <text x="416.822429906542" y="35.0" class="label" text-anchor="middle">52</text>
  <circle cx="423.55140186915884" cy="40.0" class="point"/>
  <text x="423.55140186915884" y="375" class="label" text-anchor="middle">2026-01-07</text>
  <text x="423.55140186915884" y="35.0" class="label" text-anchor="middle">52</text>
  <circle cx="430.28037383177565" cy="40.0" class="point"/>
  <text x="430.28037383177565" y="375" class="label" text-anchor="middle">2026-01-08</text>
  <text x="430.28037383177565" y="35.0" class="label" text-anchor="middle">52</text>
  <circle cx="437.0093457943925" cy="40.0" class="point"/>
  <text x="437.0093457943925" y="375" class="label" text-anchor="middle">2026-01-09</text>
  <text x="437.0093457943925" y="35.0" class="label" text-anchor="middle">52</text>
  <circle cx="443.7383177570093" cy="40.0" class="point"/>
  <text x="443.7383177570093" y="375" class="label" text-anchor="middle">2026-01-10</text>
  <text x="443.7383177570093" y="35.0" class="label" text-anchor="middle">52</text>
  <circle cx="450.46728971962614" cy="40.0" class="point"/>
  <text x="450.46728971962614" y="375" class="label" text-anchor="middle">2026-01-11</text>
  <text x="450.46728971962614" y="35.0" class="label" text-anchor="middle">52</text>
  <circle cx="457.19626168224295" cy="40.0" class="point"/>
  <text x="457.19626168224295" y="375" class="label" text-anchor="middle">2026-01-12</text>
  <text x="457.19626168224295" y="35.0" class="label" text-anchor="middle">52</text>
  <circle cx="463.92523364485976" cy="40.0" class="point"/>
  <text x="463.92523364485976" y="375" class="label" text-anchor="middle">2026-01-13</text>
  <text x="463.92523364485976" y="35.0" class="label" text-anchor="middle">52</text>
  <circle cx="470.6542056074766" cy="40.0" class="point"/>
  <text x="470.6542056074766" y="375" class="label" text-anchor="middle">2026-01-14</text>
  <text x="470.6542056074766" y="35.0" class="label" text-anchor="middle">52</text>
  <circle cx="477.38317757009344" cy="40.0" class="point"/>
  <text x="477.38317757009344" y="375" class="label" text-anchor="middle">2026-01-15</text>
  <text x="477.38317757009344" y="35.0" class="label" text-anchor="middle">52</text>
  <circle cx="484.11214953271025" cy="40.0" class="point"/>
  <text x="484.11214953271025" y="375" class="label" text-anchor="middle">2026-01-16</text>
  <text x="484.11214953271025" y="35.0" class="label" text-anchor="middle">52</text>
  <circle cx="490.84112149532706" cy="40.0" class="point"/>
  <text x="490.84112149532706" y="375" class="label" text-anchor="middle">2026-01-17</text>
  <text x="490.84112149532706" y="35.0" class="label" text-anchor="middle">52</text>
  <circle cx="497.57009345794387" cy="40.0" class="point"/>
  <text x="497.57009345794387" y="375" class="label" text-anchor="middle">2026-01-18</text>
  <text x="497.57009345794387" y="35.0" class="label" text-anchor="middle">52</text>
  <circle cx="504.29906542056074" cy="40.0" class="point"/>
  <text x="504.29906542056074" y="375" class="label" text-anchor="middle">2026-01-19</text>
  <text x="504.29906542056074" y="35.0" class="label" text-anchor="middle">52</text>
  <circle cx="511.02803738317755" cy="40.0" class="point"/>
  <text x="511.02803738317755" y="375" class="label" text-anchor="middle">2026-01-20</text>
  <text x="511.02803738317755" y="35.0" class="label" text-anchor="middle">52</text>
  <circle cx="517.7570093457944" cy="40.0" class="point"/>
  <text x="517.7570093457944" y="375" class="label" text-anchor="middle">2026-01-21</text>
  <text x="517.7570093457944" y="35.0" class="label" text-anchor="middle">52</text>
  <circle cx="524.4859813084112" cy="40.0" class="point"/>
  <text x="524.4859813084112" y="375" class="label" text-anchor="middle">2026-01-22</text>
  <text x="524.4859813084112" y="35.0" class="label" text-anchor="middle">52</text>
  <circle cx="531.214953271028" cy="40.0" class="point"/>
  <text x="531.214953271028" y="375" class="label" text-anchor="middle">2026-01-23</text>
  <text x="531.214953271028" y="35.0" class="label" text-anchor="middle">52</text>
  <circle cx="537.9439252336449" cy="40.0" class="point"/>
  <text x="537.9439252336449" y="375" class="label" text-anchor="middle">2026-01-24</text>
  <text x="537.9439252336449" y="35.0" class="label" text-anchor="middle">52</text>
  <circle cx="544.6728971962616" cy="40.0" class="point"/>
  <text x="544.6728971962616" y="375" class="label" text-anchor="middle">2026-01-25</text>
  <text x="544.6728971962616" y="35.0" class="label" text-anchor="middle">52</text>
  <circle cx="551.4018691588785" cy="40.0" class="point"/>
  <text x="551.4018691588785" y="375" class="label" text-anchor="middle">2026-01-26</text>
  <text x="551.4018691588785" y="35.0" class="label" text-anchor="middle">52</text>
  <circle cx="558.1308411214953" cy="40.0" class="point"/>
  <text x="558.1308411214953" y="375" class="label" text-anchor="middle">2026-01-27</text>
  <text x="558.1308411214953" y="35.0" class="label" text-anchor="middle">52</text>
  <circle cx="564.8598130841121" cy="40.0" class="point"/>
  <text x="564.8598130841121" y="375" class="label" text-anchor="middle">2026-01-28</text>
  <text x="564.8598130841121" y="35.0" class="label" text-anchor="middle">52</text>
  <circle cx="571.588785046729" cy="40.0" class="point"/>
  <text x="571.588785046729" y="375" class="label" text-anchor="middle">2026-01-29</text>
  <text x="571.588785046729" y="35.0" class="label" text-anchor="middle">52</text>
  <circle cx="578.3177570093458" cy="40.0" class="point"/>
  <text x="578.3177570093458" y="375" class="label" text-anchor="middle">2026-01-30</text>
  <text x="578.3177570093458" y="35.0" class="label" text-anchor="middle">52</text>
  <circle cx="585.0467289719626" cy="40.0" class="point"/>
  <text x="585.0467289719626" y="375" class="label" text-anchor="middle">2026-01-31</text>
  <text x="585.0467289719626" y="35.0" class="label" text-anchor="middle">52</text>
  <circle cx="591.7757009345794" cy="40.0" class="point"/>
  <text x="591.7757009345794" y="375" class="label" text-anchor="middle">2026-02-01</text>
  <text x="591.7757009345794" y="35.0" class="label" text-anchor="middle">52</text>
  <circle cx="598.5046728971962" cy="40.0" class="point"/>
  <text x="598.5046728971962" y="375" class="label" text-anchor="middle">2026-02-02</text>
  <text x="598.5046728971962" y="35.0" class="label" text-anchor="middle">52</text>
  <circle cx="605.233644859813" cy="40.0" class="point"/>
  <text x="605.233644859813" y="375" class="label" text-anchor="middle">2026-02-03</text>
  <text x="605.233644859813" y="35.0" class="label" text-anchor="middle">52</text>
  <circle cx="611.9626168224299" cy="40.0" class="point"/>
  <text x="611.9626168224299" y="375" class="label" text-anchor="middle">2026-02-04</text>
  <text x="611.9626168224299" y="35.0" class="label" text-anchor="middle">52</text>
  <circle cx="618.6915887850467" cy="40.0" class="point"/>
  <text x="618.6915887850467" y="375" class="label" text-anchor="middle">2026-02-05</text>
  <text x="618.6915887850467" y="35.0" class="label" text-anchor="middle">52</text>
  <circle cx="625.4205607476636" cy="40.0" class="point"/>
  <text x="625.4205607476636" y="375" class="label" text-anchor="middle">2026-02-06</text>
  <text x="625.4205607476636" y="35.0" class="label" text-anchor="middle">52</text>
  <circle cx="632.1495327102804" cy="40.0" class="point"/>
  <text x="632.1495327102804" y="375" class="label" text-anchor="middle">2026-02-07</text>
  <text x="632.1495327102804" y="35.0" class="label" text-anchor="middle">52</text>
  <circle cx="638.8785046728972" cy="40.0" class="point"/>
  <text x="638.8785046728972" y="375" class="label" text-anchor="middle">2026-02-08</text>
  <text x="638.8785046728972" y="35.0" class="label" text-anchor="middle">52</text>
  <circle cx="645.607476635514" cy="40.0" class="point"/>
  <text x="645.607476635514" y="375" class="label" text-anchor="middle">2026-02-09</text>
  <text x="645.607476635514" y="35.0" class="label" text-anchor="middle">52</text>
  <circle cx="652.3364485981308" cy="40.0" class="point"/>
  <text x="652.3364485981308" y="375" class="label" text-anchor="middle">2026-02-10</text>
  <text x="652.3364485981308" y="35.0" class="label" text-anchor="middle">52</text>
  <circle cx="659.0654205607476" cy="40.0" class="point"/>
  <text x="659.0654205607476" y="375" class="label" text-anchor="middle">2026-02-11</text>
  <text x="659.0654205607476" y="35.0" class="label" text-anchor="middle">52</text>
  <circle cx="665.7943925233644" cy="40.0" class="point"/>
  <text x="665.7943925233644" y="375" class="label" text-anchor="middle">2026-02-12</text>
  <text x="665.7943925233644" y="35.0" class="label" text-anchor="middle">52</text>
  <circle cx="672.5233644859813" cy="40.0" class="point"/>
  <text x="672.5233644859813" y="375" class="label" text-anchor="middle">2026-02-13</text>
  <text x="672.5233644859813" y="35.0" class="label" text-anchor="middle">52</text>
  <circle cx="679.2523364485982" cy="40.0" class="point"/>
  <text x="679.2523364485982" y="375" class="label" text-anchor="middle">2026-02-14</text>
  <text x="679.2523364485982" y="35.0" class="label" text-anchor="middle">52</text>
  <circle cx="685.981308411215" cy="40.0" class="point"/>
  <text x="685.981308411215" y="375" class="label" text-anchor="middle">2026-02-15</text>
  <text x="685.981308411215" y="35.0" class="label" text-anchor="middle">52</text>
  <circle cx="692.7102803738318" cy="40.0" class="point"/>
  <text x="692.7102803738318" y="375" class="label" text-anchor="middle">2026-02-16</text>
  <text x="692.7102803738318" y="35.0" class="label" text-anchor="middle">52</text>
  <circle cx="699.4392523364486" cy="40.0" class="point"/>
  <text x="699.4392523364486" y="375" class="label" text-anchor="middle">2026-02-17</text>
  <text x="699.4392523364486" y="35.0" class="label" text-anchor="middle">52</text>
  <circle cx="706.1682242990654" cy="40.0" class="point"/>
  <text x="706.1682242990654" y="375" class="label" text-anchor="middle">2026-02-18</text>
  <text x="706.1682242990654" y="35.0" class="label" text-anchor="middle">52</text>
  <circle cx="712.8971962616822" cy="40.0" class="point"/>
  <text x="712.8971962616822" y="375" class="label" text-anchor="middle">2026-02-19</text>
  <text x="712.8971962616822" y="35.0" class="label" text-anchor="middle">52</text>
  <circle cx="719.626168224299" cy="40.0" class="point"/>
  <text x="719.626168224299" y="375" class="label" text-anchor="middle">2026-02-20</text>
  <text x="719.626168224299" y="35.0" class="label" text-anchor="middle">52</text>
  <circle cx="726.3551401869158" cy="40.0" class="point"/>
  <text x="726.3551401869158" y="375" class="label" text-anchor="middle">2026-02-21</text>
  <text x="726.3551401869158" y="35.0" class="label" text-anchor="middle">52</text>
  <circle cx="733.0841121495328" cy="40.0" class="point"/>
  <text x="733.0841121495328" y="375" class="label" text-anchor="middle">2026-02-22</text>
  <text x="733.0841121495328" y="35.0" class="label" text-anchor="middle">52</text>
  <circle cx="739.8130841121496" cy="40.0" class="point"/>
  <text x="739.8130841121496" y="375" class="label" text-anchor="middle">2026-02-23</text>
  <text x="739.8130841121496" y="35.0" class="label" text-anchor="middle">52</text>
  <circle cx="746.5420560747664" cy="40.0" class="point"/>
  <text x="746.5420560747664" y="375" class="label" text-anchor="middle">2026-02-24</text>
  <text x="746.5420560747664" y="35.0" class="label" text-anchor="middle">52</text>
  <circle cx="753.2710280373832" cy="40.0" class="point"/>
  <text x="753.2710280373832" y="375" class="label" text-anchor="middle">2026-02-25</text>
  <text x="753.2710280373832" y="35.0" class="label" text-anchor="middle">52</text>
  <circle cx="760.0" cy="40.0" class="point"/>
  <text x="760.0" y="375" class="label" text-anchor="middle">2026-02-26</text>
  <text x="760.0" y="35.0" class="label" text-anchor="middle">52</text>
  <text x="30" y="363.0" class="label" text-anchor="end">0</text>
  <text x="30" y="301.46153846153845" class="label" text-anchor="end">10</text>
  <text x="30" y="239.9230769230769" class="label" text-anchor="end">20</text>
  <text x="30" y="178.38461538461542" class="label" text-anchor="end">30</text>
  <text x="30" y="116.84615384615384" class="label" text-anchor="end">40</text>
  <text x="30" y="55.30769230769232" class="label" text-anchor="end">50</text>
</svg>