<svg xmlns="http://www.w3.org/2000/svg" width="800" height="400" viewBox="0 0 800 400">
  <style>
    .axis{stroke:#666;stroke-width:1}
    .line{stroke:#4a9;stroke-width:2;fill:none}
    .point{fill:#4a9;r:4}
    .label{font:10px sans-serif;fill:#aaa}
    .title{font:14px sans-serif;fill:#333}
  </style>
  <text x="400" y="20" class="title" text-anchor="middle">OPIC Field Growth Timeline</text>
  <line x1="40" y1="40" x2="40" y2="360" class="axis"/>
  <line x1="40" y1="360" x2="760" y2="360" class="axis"/>
  <path d="M 40.0,101.53846153846155 L 51.80327868852459,101.53846153846155 L 63.606557377049185,101.53846153846155 L 75.40983606557377,101.53846153846155 L 87.21311475409837,101.53846153846155 L 99.01639344262296,101.53846153846155 L 110.81967213114754,101.53846153846155 L 122.62295081967213,101.53846153846155 L 134.42622950819674,101.53846153846155 L 146.22950819672133,101.53846153846155 L 158.0327868852459,101.53846153846155 L 169.8360655737705,101.53846153846155 L 181.63934426229508,101.53846153846155 L 193.44262295081967,101.53846153846155 L 205.24590163934425,101.53846153846155 L 217.04918032786884,101.53846153846155 L 228.85245901639345,101.53846153846155 L 240.655737704918,101.53846153846155 L 252.45901639344262,101.53846153846155 L 264.2622950819672,101.53846153846155 L 276.0655737704918,101.53846153846155 L 287.86885245901635,101.53846153846155 L 299.672131147541,101.53846153846155 L 311.4754098360656,101.53846153846155 L 323.27868852459017,101.53846153846155 L 335.08196721311475,101.53846153846155 L 346.88524590163934,101.53846153846155 L 358.6885245901639,40.0 L 370.4918032786885,40.0 L 382.2950819672131,40.0 L 394.0983606557377,40.0 L 405.9016393442623,40.0 L 417.7049180327869,40.0 L 429.5081967213115,40.0 L 441.311475409836,40.0 L 453.11475409836066,40.0 L 464.91803278688525,40.0 L 476.72131147540983,40.0 L 488.5245901639344,40.0 L 500.32786885245906,40.0 L 512.1311475409836,40.0 L 523.9344262295082,40.0 L 535.7377049180327,40.0 L 547.5409836065573,40.0 L 559.344262295082,40.0 L 571.1475409836066,40.0 L 582.9508196721312,40.0 L 594.7540983606557,40.0 L 606.5573770491803,40.0 L 618.360655737705,40.0 L 630.1639344262295,40.0 L 641.9672131147541,40.0 L 653.7704918032787,40.0 L 665.5737704918032,40.0 L 677.3770491803278,40.0 L 689.1803278688525,40.0 L 700.983606557377,40.0 L 712.7868852459017,40.0 L 724.5901639344262,40.0 L 736.3934426229508,40.0 L 748.1967213114754,40.0 L 760.0,40.0" class="line"/>
  <circle cx="40.0" cy="101.53846153846155" class="point"/>
  <text x="40.0" y="375" class="label" text-anchor="middle">2025-11-11</text>
  <text x="40.0" y="96.53846153846155" class="label" text-anchor="middle">42</text>
  <circle cx="51.80327868852459" cy="101.53846153846155" class="point"/>
  <text x="51.80327868852459" y="375" class="label" text-anchor="middle">2025-11-12</text>
  <text x="51.80327868852459" y="96.53846153846155" class="label" text-anchor="middle">42</text>
  <circle cx="63.606557377049185" cy="101.53846153846155" class="point"/>
  <text x="63.606557377049185" y="375" class="label" text-anchor="middle">2025-11-13</text>
  <text x="63.606557377049185" y="96.53846153846155" class="label" text-anchor="middle">42</text>
  <circle cx="75.40983606557377" cy="101.53846153846155" class="point"/>
  <text x="75.40983606557377" y="375" class="label" text-anchor="middle">2025-11-14</text>
  <text x="75.40983606557377" y="96.53846153846155" class="label" text-anchor="middle">42</text>
  <circle cx="87.21311475409837" cy="101.53846153846155" class="point"/>
  <text x="87.21311475409837" y="375" class="label" text-anchor="middle">2025-11-15</text>
  <text x="87.21311475409837" y="96.53846153846155" class="label" text-anchor="middle">42</text>
  <circle cx="99.01639344262296" cy="101.53846153846155" class="point"/>
  <text x="99.01639344262296" y="375" class="label" text-anchor="middle">2025-11-16</text>
  <text x="99.01639344262296" y="96.53846153846155" class="label" text-anchor="middle">42</text>
  <circle cx="110.81967213114754" cy="101.53846153846155" class="point"/>
  <text x="110.81967213114754" y="375" class="label" text-anchor="middle">2025-11-17</text>
  <text x="110.81967213114754" y="96.53846153846155" class="label" text-anchor="middle">42</text>
  <circle cx="122.62295081967213" cy="101.53846153846155" class="point"/>
  <text x="122.62295081967213" y="375" class="label" text-anchor="middle">2025-11-18</text>
  <text x="122.62295081967213" y="96.53846153846155" class="label" text-anchor="middle">42</text>
  <circle cx="134.42622950819674" cy="101.53846153846155" class="point"/>
  <text x="134.42622950819674" y="375" class="label" text-anchor="middle">2025-11-19</text>
  <text x="134.42622950819674" y="96.53846153846155" class="label" text-anchor="middle">42</text>
  <circle cx="146.22950819672133" cy="101.53846153846155" class="point"/>
  <text x="146.22950819672133" y="375" class="label" text-anchor="middle">2025-11-20</text>
  <text x="146.22950819672133" y="96.53846153846155" class="label" text-anchor="middle">42</text>
  <circle cx="158.0327868852459" cy="101.53846153846155" class="point"/>
  <text x="158.0327868852459" y="375" class="label" text-anchor="middle">2025-11-21</text>
  <text x="158.0327868852459" y="96.53846153846155" class="label" text-anchor="middle">42</text>
  <circle cx="169.8360655737705" cy="101.53846153846155" class="point"/>
  <text x="169.8360655737705" y="375" class="label" text-anchor="middle">2025-11-22</text>
  <text x="169.8360655737705" y="96.53846153846155" class="label" text-anchor="middle">42</text>
  <circle cx="181.63934426229508" cy="101.53846153846155" class="point"/>
  <text x="181.63934426229508" y="375" class="label" text-anchor="middle">2025-11-23</text>
  <text x="181.63934426229508" y="96.53846153846155" class="label" text-anchor="middle">42</text>
  <circle cx="193.44262295081967" cy="101.53846153846155" class="point"/>
  <text x="193.44262295081967" y="375" class="label" text-anchor="middle">2025-11-24</text>
  <text x="193.44262295081967" y="96.53846153846155" class="label" text-anchor="middle">42</text>
  <circle cx="205.24590163934425" cy="101.53846153846155" class="point"/>
  <text x="205.24590163934425" y="375" class="label" text-anchor="middle">2025-11-25</text>
  <text x="205.24590163934425" y="96.53846153846155" class="label" text-anchor="middle">42</text>
  <circle cx="217.04918032786884" cy="101.53846153846155" class="point"/>
  <text x="217.04918032786884" y="375" class="label" text-anchor="middle">2025-11-26</text>
  <text x="217.04918032786884" y="96.53846153846155" class="label" text-anchor="middle">42</text>
  <circle cx="228.85245901639345" cy="101.53846153846155" class="point"/>
  <text x="228.85245901639345" y="375" class="label" text-anchor="middle">2025-11-27</text>
  <text x="228.85245901639345" y="96.53846153846155" class="label" text-anchor="middle">42</text>
  <circle cx="240.655737704918" cy="101.53846153846155" class="point"/>
  <text x="240.655737704918" y="375" class="label" text-anchor="middle">2025-11-28</text>
  <text x="240.655737704918" y="96.53846153846155" class="label" text-anchor="middle">42</text>
  <circle cx="252.45901639344262" cy="101.53846153846155" class="point"/>
  <text x="252.45901639344262" y="375" class="label" text-anchor="middle">2025-11-29</text>
  <text x="252.45901639344262" y="96.53846153846155" class="label" text-anchor="middle">42</text>
  <circle cx="264.2622950819672" cy="101.53846153846155" class="point"/>
  <text x="264.2622950819672" y="375" class="label" text-anchor="middle">2025-11-30</text>
  <text x="264.2622950819672" y="96.53846153846155" class="label" text-anchor="middle">42</text>
  <circle cx="276.0655737704918" cy="101.53846153846155" class="point"/>
  <text x="276.0655737704918" y="375" class="label" text-anchor="middle">2025-12-01</text>
  <text x="276.0655737704918" y="96.53846153846155" class="label" text-anchor="middle">42</text>
  <circle cx="287.86885245901635" cy="101.53846153846155" class="point"/>
  <text x="287.86885245901635" y="375" class="label" text-anchor="middle">2025-12-02</text>
  <text x="287.86885245901635" y="96.53846153846155" class="label" text-anchor="middle">42</text>
  <circle cx="299.672131147541" cy="101.53846153846155" class="point"/>
  <text x="299.672131147541" y="375" class="label" text-anchor="middle">2025-12-03</text>
  <text x="299.672131147541" y="96.53846153846155" class="label" text-anchor="middle">42</text>
  <circle cx="311.4754098360656" cy="101.53846153846155" class="point"/>
  <text x="311.4754098360656" y="375" class="label" text-anchor="middle">2025-12-04</text>
  <text x="311.4754098360656" y="96.53846153846155" class="label" text-anchor="middle">42</text>
  <circle cx="323.27868852459017" cy="101.53846153846155" class="point"/>
  <text x="323.27868852459017" y="375" class="label" text-anchor="middle">2025-12-05</text>
  <text x="323.27868852459017" y="96.53846153846155" class="label" text-anchor="middle">42</text>
  <circle cx="335.08196721311475" cy="101.53846153846155" class="point"/>
  <text x="335.08196721311475" y="375" class="label" text-anchor="middle">2025-12-06</text>
  <text x="335.08196721311475" y="96.53846153846155" class="label" text-anchor="middle">42</text>
  <circle cx="346.88524590163934" cy="101.53846153846155" class="point"/>
  <text x="346.88524590163934" y="375" class="label" text-anchor="middle">2025-12-07</text>
  <text x="346.88524590163934" y="96.53846153846155" class="label" text-anchor="middle">42</text>
  <circle cx="358.6885245901639" cy="40.0" class="point"/>
  <text x="358.6885245901639" y="375" class="label" text-anchor="middle">2025-12-08</text>
  <text x="358.6885245901639" y="35.0" class="label" text-anchor="middle">52</text>
  <circle cx="370.4918032786885" cy="40.0" class="point"/>
  <text x="370.4918032786885" y="375" class="label" text-anchor="middle">2025-12-09</text>
  <text x="370.4918032786885" y="35.0" class="label" text-anchor="middle">52</text>
  <circle cx="382.2950819672131" cy="40.0" class="point"/>
  <text x="382.2950819672131" y="375" class="label" text-anchor="middle">2025-12-10</text>
  <text x="382.2950819672131" y="35.0" class="label" text-anchor="middle">52</text>
  <circle cx="394.0983606557377" cy="40.0" class="point"/>
  <text x="394.0983606557377" y="375" class="label" text-anchor="middle">2025-12-11</text>
  <text x="394.0983606557377" y="35.0" class="label" text-anchor="middle">52</text>
  <circle cx="405.9016393442623" cy="40.0" class="point"/>
  <text x="405.9016393442623" y="375" class="label" text-anchor="middle">2025-12-12</text>
  <text x="405.9016393442623" y="35.0" class="label" text-anchor="middle">52</text>
  <circle cx="417.7049180327869" cy="40.0" class="point"/>
  <text x="417.7049180327869" y="375" class="label" text-anchor="middle">2025-12-13</text>
  <text x="417.7049180327869" y="35.0" class="label" text-anchor="middle">52</text>
  <circle cx="429.5081967213115" cy="40.0" class="point"/>
  <text x="429.5081967213115" y="375" class="label" text-anchor="middle">2025-12-14</text>
  <text x="429.5081967213115" y="35.0" class="label" text-anchor="middle">52</text>
  <circle cx="441.311475409836" cy="40.0" class="point"/>
  <text x="441.311475409836" y="375" class="label" text-anchor="middle">2025-12-15</text>
  <text x="441.311475409836" y="35.0" class="label" text-anchor="middle">52</text>
  <circle cx="453.11475409836066" cy="40.0" class="point"/>
  <text x="453.11475409836066" y="375" class="label" text-anchor="middle">2025-12-16</text>
  <text x="453.11475409836066" y="35.0" class="label" text-anchor="middle">52</text>
  <circle cx="464.91803278688525" cy="40.0" class="point"/>
  <text x="464.91803278688525" y="375" class="label" text-anchor="middle">2025-12-17</text>
  <text x="464.91803278688525" y="35.0" class="label" text-anchor="middle">52</text>
  <circle cx="476.72131147540983" cy="40.0" class="point"/>
  <text x="476.72131147540983" y="375" class="label" text-anchor="middle">2025-12-18</text>
  <text x="476.72131147540983" y="35.0" class="label" text-anchor="middle">52</text>
  <circle cx="488.5245901639344" cy="40.0" class="point"/>
  <text x="488.5245901639344" y="375" class="label" text-anchor="middle">2025-12-19</text>
  <text x="488.5245901639344" y="35.0" class="label" text-anchor="middle">52</text>
  <circle cx="500.32786885245906" cy="40.0" class="point"/>
  <text x="500.32786885245906" y="375" class="label" text-anchor="middle">2025-12-20</text>
  <text x="500.32786885245906" y="35.0" class="label" text-anchor="middle">52</text>
  <circle cx="512.1311475409836" cy="40.0" class="point"/>
  <text x="512.1311475409836" y="375" class="label" text-anchor="middle">2025-12-21</text>
  <text x="512.1311475409836" y="35.0" class="label" text-anchor="middle">52</text>
  <circle cx="523.9344262295082" cy="40.0" class="point"/>
  <text x="523.9344262295082" y="375" class="label" text-anchor="middle">2025-12-22</text>
  <text x="523.9344262295082" y="35.0" class="label" text-anchor="middle">52</text>
  <circle cx="535.7377049180327" cy="40.0" class="point"/>
  <text x="535.7377049180327" y="375" class="label" text-anchor="middle">2025-12-23</text>
  <text x="535.7377049180327" y="35.0" class="label" text-anchor="middle">52</text>
  <circle cx="547.5409836065573" cy="40.0" class="point"/>
  <text x="547.5409836065573" y="375" class="label" text-anchor="middle">2025-12-24</text>
  <text x="547.5409836065573" y="35.0" class="label" text-anchor="middle">52</text>
  <circle cx="559.344262295082" cy="40.0" class="point"/>
  <text x="559.344262295082" y="375" class="label" text-anchor="middle">2025-12-25</text>
  <text x="559.344262295082" y="35.0" class="label" text-anchor="middle">52</text>
  <circle cx="571.1475409836066" cy="40.0" class="point"/>
  <text x="571.1475409836066" y="375" class="label" text-anchor="middle">2025-12-26</text>
  <text x="571.1475409836066" y="35.0" class="label" text-anchor="middle">52</text>
  <circle cx="582.9508196721312" cy="40.0" class="point"/>
  <text x="582.9508196721312" y="375" class="label" text-anchor="middle">2025-12-27</text>
  <text x="582.9508196721312" y="35.0" class="label" text-anchor="middle">52</text>
  <circle cx="594.7540983606557" cy="40.0" class="point"/>
  <text x="594.7540983606557" y="375" class="label" text-anchor="middle">2025-12-28</text>
  <text x="594.7540983606557" y="35.0" class="label" text-anchor="middle">52</text>
  <circle cx="606.5573770491803" cy="40.0" class="point"/>
  <text x="606.5573770491803" y="375" class="label" text-anchor="middle">2025-12-29</text>
  <text x="606.5573770491803" y="35.0" class="label" text-anchor="middle">52</text>
  <circle cx="618.360655737705" cy="40.0" class="point"/>
  <text x="618.360655737705" y="375" class="label" text-anchor="middle">2025-12-30</text>
  <text x="618.360655737705" y="35.0" class="label" text-anchor="middle">52</text>
  <circle cx="630.1639344262295" cy="40.0" class="point"/>
  <text x="630.1639344262295" y="375" class="label" text-anchor="middle">2025-12-31</text>
  <text x="630.1639344262295" y="35.0" class="label" text-anchor="middle">52</text>
  <circle cx="641.9672131147541" cy="40.0" class="point"/>
  <text x="641.9672131147541" y="375" class="label" text-anchor="middle">2026-01-01</text>
  <text x="641.9672131147541" y="35.0" class="label" text-anchor="middle">52</text>
  <circle cx="653.7704918032787" cy="40.0" class="point"/>
  <text x="653.7704918032787" y="375" class="label" text-anchor="middle">2026-01-02</text>
  <text x="653.7704918032787" y="35.0" class="label" text-anchor="middle">52</text>
  <circle cx="665.5737704918032" cy="40.0" class="point"/>
  <text x="665.5737704918032" y="375" class="label" text-anchor="middle">2026-01-03</text>
  <text x="665.5737704918032" y="35.0" class="label" text-anchor="middle">52</text>
  <circle cx="677.3770491803278" cy="40.0" class="point"/>
  <text x="677.3770491803278" y="375" class="label" text-anchor="middle">2026-01-04</text>
  <text x="677.3770491803278" y="35.0" class="label" text-anchor="middle">52</text>
  <circle cx="689.1803278688525" cy="40.0" class="point"/>
  <text x="689.1803278688525" y="375" class="label" text-anchor="middle">2026-01-05</text>
  <text x="689.1803278688525" y="35.0" class="label" text-anchor="middle">52</text>
  <circle cx="700.983606557377" cy="40.0" class="point"/>
  <text x="700.983606557377" y="375" class="label" text-anchor="middle">2026-01-06</text>
  <text x="700.983606557377" y="35.0" class="label" text-anchor="middle">52</text>
  <circle cx="712.7868852459017" cy="40.0" class="point"/>
  <text x="712.7868852459017" y="375" class="label" text-anchor="middle">2026-01-07</text>
  <text x="712.7868852459017" y="35.0" class="label" text-anchor="middle">52</text>
  <circle cx="724.5901639344262" cy="40.0" class="point"/>
  <text x="724.5901639344262" y="375" class="label" text-anchor="middle">2026-01-08</text>
  <text x="724.5901639344262" y="35.0" class="label" text-anchor="middle">52</text>
  <circle cx="736.3934426229508" cy="40.0" class="point"/>
  <text x="736.3934426229508" y="375" class="label" text-anchor="middle">2026-01-09</text>
  <text x="736.3934426229508" y="35.0" class="label" text-anchor="middle">52</text>
  <circle cx="748.1967213114754" cy="40.0" class="point"/>
  <text x="748.1967213114754" y="375" class="label" text-anchor="middle">2026-01-10</text>
  <text x="748.1967213114754" y="35.0" class="label" text-anchor="middle">52</text>
  <circle cx="760.0" cy="40.0" class="point"/>
  <text x="760.0" y="375" class="label" text-anchor="middle">2026-01-11</text>
  <text x="760.0" y="35.0" class="label" text-anchor="middle">52</text>
  <text x="30" y="363.0" class="label" text-anchor="end">0</text>
  <text x="30" y="301.46153846153845" class="label" text-anchor="end">10</text>
  <text x="30" y="239.9230769230769" class="label" text-anchor="end">20</text>
  <text x="30" y="178.38461538461542" class="label" text-anchor="end">30</text>
  <text x="30" y="116.84615384615384" class="label" text-anchor="end">40</text>
  <text x="30" y="55.30769230769232" class="label" text-anchor="end">50</text>
</svg>