<svg xmlns="http://www.w3.org/2000/svg" width="800" height="400" viewBox="0 0 800 400">
  <style>
    .axis{stroke:#666;stroke-width:1}
    .line{stroke:#4a9;stroke-width:2;fill:none}
    .point{fill:#4a9;r:4}
    .label{font:10px sans-serif;fill:#aaa}
    .title{font:14px sans-serif;fill:#333}
  </style>
  <text x="400" y="20" class="title" text-anchor="middle">OPIC Field Growth Timeline</text>
  <line x1="40" y1="40" x2="40" y2="360" class="axis"/>
  <line x1="40" y1="360" x2="760" y2="360" class="axis"/>
  <path d="M 40.0,40.0 L 85.0,40.0 L 130.0,40.0 L 175.0,40.0 L 220.0,40.0 L 265.0,40.0 L 310.0,40.0 L 355.0,40.0 L 400.0,40.0 L 445.0,40.0 L 490.0,40.0 L 535.0,40.0 L 580.0,40.0 L 625.0,40.0 L 670.0,40.0 L 715.0,40.0 L 760.0,40.0" class="line"/>
  <circle cx="40.0" cy="40.0" class="point"/>
  <text x="40.0" y="375" class="label" text-anchor="middle">2025-11-11</text>
  <text x="40.0" y="35.0" class="label" text-anchor="middle">42</text>
  <circle cx="85.0" cy="40.0" class="point"/>
  <text x="85.0" y="375" class="label" text-anchor="middle">2025-11-12</text>
  <text x="85.0" y="35.0" class="label" text-anchor="middle">42</text>
  <circle cx="130.0" cy="40.0" class="point"/>
  <text x="130.0" y="375" class="label" text-anchor="middle">2025-11-13</text>
  <text x="130.0" y="35.0" class="label" text-anchor="middle">42</text>
  <circle cx="175.0" cy="40.0" class="point"/>
  <text x="175.0" y="375" class="label" text-anchor="middle">2025-11-14</text>
  <text x="175.0" y="35.0" class="label" text-anchor="middle">42</text>
  <circle cx="220.0" cy="40.0" class="point"/>
  <text x="220.0" y="375" class="label" text-anchor="middle">2025-11-15</text>
  <text x="220.0" y="35.0" class="label" text-anchor="middle">42</text>
  <circle cx="265.0" cy="40.0" class="point"/>
  <text x="265.0" y="375" class="label" text-anchor="middle">2025-11-16</text>
  <text x="265.0" y="35.0" class="label" text-anchor="middle">42</text>
  <circle cx="310.0" cy="40.0" class="point"/>
  <text x="310.0" y="375" class="label" text-anchor="middle">2025-11-17</text>
  <text x="310.0" y="35.0" class="label" text-anchor="middle">42</text>
  <circle cx="355.0" cy="40.0" class="point"/>
  <text x="355.0" y="375" class="label" text-anchor="middle">2025-11-18</text>
  <text x="355.0" y="35.0" class="label" text-anchor="middle">42</text>
  <circle cx="400.0" cy="40.0" class="point"/>
  <text x="400.0" y="375" class="label" text-anchor="middle">2025-11-19</text>
  <text x="400.0" y="35.0" class="label" text-anchor="middle">42</text>
  <circle cx="445.0" cy="40.0" class="point"/>
  <text x="445.0" y="375" class="label" text-anchor="middle">2025-11-20</text>
  <text x="445.0" y="35.0" class="label" text-anchor="middle">42</text>
  <circle cx="490.0" cy="40.0" class="point"/>
  <text x="490.0" y="375" class="label" text-anchor="middle">2025-11-21</text>
  <text x="490.0" y="35.0" class="label" text-anchor="middle">42</text>
  <circle cx="535.0" cy="40.0" class="point"/>
  <text x="535.0" y="375" class="label" text-anchor="middle">2025-11-22</text>
  <text x="535.0" y="35.0" class="label" text-anchor="middle">42</text>
  <circle cx="580.0" cy="40.0" class="point"/>
  <text x="580.0" y="375" class="label" text-anchor="middle">2025-11-23</text>
  <text x="580.0" y="35.0" class="label" text-anchor="middle">42</text>
  <circle cx="625.0" cy="40.0" class="point"/>
  <text x="625.0" y="375" class="label" text-anchor="middle">2025-11-24</text>
  <text x="625.0" y="35.0" class="label" text-anchor="middle">42</text>
  <circle cx="670.0" cy="40.0" class="point"/>
  <text x="670.0" y="375" class="label" text-anchor="middle">2025-11-25</text>
  <text x="670.0" y="35.0" class="label" text-anchor="middle">42</text>
  <circle cx="715.0" cy="40.0" class="point"/>
  <text x="715.0" y="375" class="label" text-anchor="middle">2025-11-26</text>
  <text x="715.0" y="35.0" class="label" text-anchor="middle">42</text>
  <circle cx="760.0" cy="40.0" class="point"/>
  <text x="760.0" y="375" class="label" text-anchor="middle">2025-11-27</text>
  <text x="760.0" y="35.0" class="label" text-anchor="middle">42</text>
  <text x="30" y="363.0" class="label" text-anchor="end">0</text>
  <text x="30" y="302.04761904761904" class="label" text-anchor="end">8</text>
  <text x="30" y="241.0952380952381" class="label" text-anchor="end">16</text>
  <text x="30" y="180.14285714285717" class="label" text-anchor="end">24</text>
  <text x="30" y="119.1904761904762" class="label" text-anchor="end">32</text>
  <text x="30" y="58.23809523809524" class="label" text-anchor="end">40</text>
</svg>