<svg xmlns="http://www.w3.org/2000/svg" width="800" height="400" viewBox="0 0 800 400">
  <style>
    .axis{stroke:#666;stroke-width:1}
    .line{stroke:#4a9;stroke-width:2;fill:none}
    .point{fill:#4a9;r:4}
    .label{font:10px sans-serif;fill:#aaa}
    .title{font:14px sans-serif;fill:#333}
  </style>
  <text x="400" y="20" class="title" text-anchor="middle">OPIC Field Growth Timeline</text>
  <line x1="40" y1="40" x2="40" y2="360" class="axis"/>
  <line x1="40" y1="360" x2="760" y2="360" class="axis"/>
  <path d="M 40.0,101.53846153846155 L 45.25547445255474,101.53846153846155 L 50.51094890510949,101.53846153846155 L 55.76642335766424,101.53846153846155 L 61.021897810218974,101.53846153846155 L 66.27737226277372,101.53846153846155 L 71.53284671532847,101.53846153846155 L 76.78832116788321,101.53846153846155 L 82.04379562043795,101.53846153846155 L 87.2992700729927,101.53846153846155 L 92.55474452554745,101.53846153846155 L 97.8102189781022,101.53846153846155 L 103.06569343065694,101.53846153846155 L 108.32116788321167,101.53846153846155 L 113.57664233576642,101.53846153846155 L 118.83211678832117,101.53846153846155 L 124.08759124087591,101.53846153846155 L 129.34306569343067,101.53846153846155 L 134.5985401459854,101.53846153846155 L 139.85401459854015,101.53846153846155 L 145.1094890510949,101.53846153846155 L 150.36496350364962,101.53846153846155 L 155.6204379562044,101.53846153846155 L 160.87591240875912,101.53846153846155 L 166.13138686131387,101.53846153846155 L 171.38686131386862,101.53846153846155 L 176.64233576642334,101.53846153846155 L 181.89781021897812,40.0 L 187.15328467153284,40.0 L 192.4087591240876,40.0 L 197.66423357664235,40.0 L 202.91970802919707,40.0 L 208.17518248175182,40.0 L 213.43065693430657,40.0 L 218.68613138686132,40.0 L 223.94160583941607,40.0 L 229.19708029197082,40.0 L 234.45255474452554,40.0 L 239.7080291970803,40.0 L 244.96350364963502,40.0 L 250.21897810218977,40.0 L 255.47445255474454,40.0 L 260.72992700729924,40.0 L 265.985401459854,40.0 L 271.2408759124088,40.0 L 276.4963503649635,40.0 L 281.75182481751824,40.0 L 287.007299270073,40.0 L 292.26277372262774,40.0 L 297.51824817518246,40.0 L 302.77372262773724,40.0 L 308.02919708029196,40.0 L 313.2846715328467,40.0 L 318.54014598540147,40.0 L 323.79562043795625,40.0 L 329.05109489051097,40.0 L 334.3065693430657,40.0 L 339.5620437956204,40.0 L 344.8175182481752,40.0 L 350.0729927007299,40.0 L 355.3284671532847,40.0 L 360.5839416058394,40.0 L 365.83941605839414,40.0 L 371.0948905109489,40.0 L 376.35036496350364,40.0 L 381.60583941605836,40.0 L 386.86131386861314,40.0 L 392.1167883211679,40.0 L 397.37226277372264,40.0 L 402.6277372262774,40.0 L 407.88321167883214,40.0 L 413.13868613138686,40.0 L 418.39416058394164,40.0 L 423.64963503649636,40.0 L 428.9051094890511,40.0 L 434.16058394160586,40.0 L 439.4160583941606,40.0 L 444.6715328467153,40.0 L 449.92700729927003,40.0 L 455.1824817518248,40.0 L 460.43795620437953,40.0 L 465.69343065693437,40.0 L 470.9489051094891,40.0 L 476.2043795620438,40.0 L 481.45985401459853,40.0 L 486.7153284671533,40.0 L 491.97080291970804,40.0 L 497.22627737226276,40.0 L 502.48175182481754,40.0 L 507.73722627737226,40.0 L 512.992700729927,40.0 L 518.2481751824816,40.0 L 523.5036496350365,40.0 L 528.7591240875912,40.0 L 534.014598540146,40.0 L 539.2700729927008,40.0 L 544.5255474452555,40.0 L 549.7810218978102,40.0 L 555.0364963503649,40.0 L 560.2919708029198,40.0 L 565.5474452554745,40.0 L 570.8029197080292,40.0 L 576.0583941605839,40.0 L 581.3138686131387,40.0 L 586.5693430656934,40.0 L 591.8248175182481,40.0 L 597.0802919708029,40.0 L 602.3357664233577,40.0 L 607.5912408759125,40.0 L 612.8467153284672,40.0 L 618.1021897810219,40.0 L 623.3576642335767,40.0 L 628.6131386861314,40.0 L 633.8686131386861,40.0 L 639.1240875912408,40.0 L 644.3795620437957,40.0 L 649.6350364963504,40.0 L 654.8905109489051,40.0 L 660.1459854014598,40.0 L 665.4014598540147,40.0 L 670.6569343065694,40.0 L 675.9124087591241,40.0 L 681.1678832116788,40.0 L 686.4233576642335,40.0 L 691.6788321167883,40.0 L 696.9343065693431,40.0 L 702.1897810218978,40.0 L 707.4452554744526,40.0 L 712.7007299270073,40.0 L 717.956204379562,40.0 L 723.2116788321167,40.0 L 728.4671532846716,40.0 L 733.7226277372263,40.0 L 738.978102189781,40.0 L 744.2335766423358,40.0 L 749.4890510948906,40.0 L 754.7445255474453,40.0 L 760.0,40.0" class="line"/>
  <circle cx="40.0" cy="101.53846153846155" class="point"/>
  <text x="40.0" y="375" class="label" text-anchor="middle">2025-11-11</text>
  <text x="40.0" y="96.53846153846155" class="label" text-anchor="middle">42</text>
  <circle cx="45.25547445255474" cy="101.53846153846155" class="point"/>
  <text x="45.25547445255474" y="375" class="label" text-anchor="middle">2025-11-12</text>
  <text x="45.25547445255474" y="96.53846153846155" class="label" text-anchor="middle">42</text>
  <circle cx="50.51094890510949" cy="101.53846153846155" class="point"/>
  <text x="50.51094890510949" y="375" class="label" text-anchor="middle">2025-11-13</text>
  <text x="50.51094890510949" y="96.53846153846155" class="label" text-anchor="middle">42</text>
  <circle cx="55.76642335766424" cy="101.53846153846155" class="point"/>
  <text x="55.76642335766424" y="375" class="label" text-anchor="middle">2025-11-14</text>
  <text x="55.76642335766424" y="96.53846153846155" class="label" text-anchor="middle">42</text>
  <circle cx="61.021897810218974" cy="101.53846153846155" class="point"/>
  <text x="61.021897810218974" y="375" class="label" text-anchor="middle">2025-11-15</text>
  <text x="61.021897810218974" y="96.53846153846155" class="label" text-anchor="middle">42</text>
  <circle cx="66.27737226277372" cy="101.53846153846155" class="point"/>
  <text x="66.27737226277372" y="375" class="label" text-anchor="middle">2025-11-16</text>
  <text x="66.27737226277372" y="96.53846153846155" class="label" text-anchor="middle">42</text>
  <circle cx="71.53284671532847" cy="101.53846153846155" class="point"/>
  <text x="71.53284671532847" y="375" class="label" text-anchor="middle">2025-11-17</text>
  <text x="71.53284671532847" y="96.53846153846155" class="label" text-anchor="middle">42</text>
  <circle cx="76.78832116788321" cy="101.53846153846155" class="point"/>
  <text x="76.78832116788321" y="375" class="label" text-anchor="middle">2025-11-18</text>
  <text x="76.78832116788321" y="96.53846153846155" class="label" text-anchor="middle">42</text>
  <circle cx="82.04379562043795" cy="101.53846153846155" class="point"/>
  <text x="82.04379562043795" y="375" class="label" text-anchor="middle">2025-11-19</text>
  <text x="82.04379562043795" y="96.53846153846155" class="label" text-anchor="middle">42</text>
  <circle cx="87.2992700729927" cy="101.53846153846155" class="point"/>
  <text x="87.2992700729927" y="375" class="label" text-anchor="middle">2025-11-20</text>
  <text x="87.2992700729927" y="96.53846153846155" class="label" text-anchor="middle">42</text>
  <circle cx="92.55474452554745" cy="101.53846153846155" class="point"/>
  <text x="92.55474452554745" y="375" class="label" text-anchor="middle">2025-11-21</text>
  <text x="92.55474452554745" y="96.53846153846155" class="label" text-anchor="middle">42</text>
  <circle cx="97.8102189781022" cy="101.53846153846155" class="point"/>
  <text x="97.8102189781022" y="375" class="label" text-anchor="middle">2025-11-22</text>
  <text x="97.8102189781022" y="96.53846153846155" class="label" text-anchor="middle">42</text>
  <circle cx="103.06569343065694" cy="101.53846153846155" class="point"/>
  <text x="103.06569343065694" y="375" class="label" text-anchor="middle">2025-11-23</text>
  <text x="103.06569343065694" y="96.53846153846155" class="label" text-anchor="middle">42</text>
  <circle cx="108.32116788321167" cy="101.53846153846155" class="point"/>
  <text x="108.32116788321167" y="375" class="label" text-anchor="middle">2025-11-24</text>
  <text x="108.32116788321167" y="96.53846153846155" class="label" text-anchor="middle">42</text>
  <circle cx="113.57664233576642" cy="101.53846153846155" class="point"/>
  <text x="113.57664233576642" y="375" class="label" text-anchor="middle">2025-11-25</text>
  <text x="113.57664233576642" y="96.53846153846155" class="label" text-anchor="middle">42</text>
  <circle cx="118.83211678832117" cy="101.53846153846155" class="point"/>
  <text x="118.83211678832117" y="375" class="label" text-anchor="middle">2025-11-26</text>
  <text x="118.83211678832117" y="96.53846153846155" class="label" text-anchor="middle">42</text>
  <circle cx="124.08759124087591" cy="101.53846153846155" class="point"/>
  <text x="124.08759124087591" y="375" class="label" text-anchor="middle">2025-11-27</text>
  <text x="124.08759124087591" y="96.53846153846155" class="label" text-anchor="middle">42</text>
  <circle cx="129.34306569343067" cy="101.53846153846155" class="point"/>
  <text x="129.34306569343067" y="375" class="label" text-anchor="middle">2025-11-28</text>
  <text x="129.34306569343067" y="96.53846153846155" class="label" text-anchor="middle">42</text>
  <circle cx="134.5985401459854" cy="101.53846153846155" class="point"/>
  <text x="134.5985401459854" y="375" class="label" text-anchor="middle">2025-11-29</text>
  <text x="134.5985401459854" y="96.53846153846155" class="label" text-anchor="middle">42</text>
  <circle cx="139.85401459854015" cy="101.53846153846155" class="point"/>
  <text x="139.85401459854015" y="375" class="label" text-anchor="middle">2025-11-30</text>
  <text x="139.85401459854015" y="96.53846153846155" class="label" text-anchor="middle">42</text>
  <circle cx="145.1094890510949" cy="101.53846153846155" class="point"/>
  <text x="145.1094890510949" y="375" class="label" text-anchor="middle">2025-12-01</text>
  <text x="145.1094890510949" y="96.53846153846155" class="label" text-anchor="middle">42</text>
  <circle cx="150.36496350364962" cy="101.53846153846155" class="point"/>
  <text x="150.36496350364962" y="375" class="label" text-anchor="middle">2025-12-02</text>
  <text x="150.36496350364962" y="96.53846153846155" class="label" text-anchor="middle">42</text>
  <circle cx="155.6204379562044" cy="101.53846153846155" class="point"/>
  <text x="155.6204379562044" y="375" class="label" text-anchor="middle">2025-12-03</text>
  <text x="155.6204379562044" y="96.53846153846155" class="label" text-anchor="middle">42</text>
  <circle cx="160.87591240875912" cy="101.53846153846155" class="point"/>
  <text x="160.87591240875912" y="375" class="label" text-anchor="middle">2025-12-04</text>
  <text x="160.87591240875912" y="96.53846153846155" class="label" text-anchor="middle">42</text>
  <circle cx="166.13138686131387" cy="101.53846153846155" class="point"/>
  <text x="166.13138686131387" y="375" class="label" text-anchor="middle">2025-12-05</text>
  <text x="166.13138686131387" y="96.53846153846155" class="label" text-anchor="middle">42</text>
  <circle cx="171.38686131386862" cy="101.53846153846155" class="point"/>
  <text x="171.38686131386862" y="375" class="label" text-anchor="middle">2025-12-06</text>
  <text x="171.38686131386862" y="96.53846153846155" class="label" text-anchor="middle">42</text>
  <circle cx="176.64233576642334" cy="101.53846153846155" class="point"/>
  <text x="176.64233576642334" y="375" class="label" text-anchor="middle">2025-12-07</text>
  <text x="176.64233576642334" y="96.53846153846155" class="label" text-anchor="middle">42</text>
  <circle cx="181.89781021897812" cy="40.0" class="point"/>
  <text x="181.89781021897812" y="375" class="label" text-anchor="middle">2025-12-08</text>
  <text x="181.89781021897812" y="35.0" class="label" text-anchor="middle">52</text>
  <circle cx="187.15328467153284" cy="40.0" class="point"/>
  <text x="187.15328467153284" y="375" class="label" text-anchor="middle">2025-12-09</text>
  <text x="187.15328467153284" y="35.0" class="label" text-anchor="middle">52</text>
  <circle cx="192.4087591240876" cy="40.0" class="point"/>
  <text x="192.4087591240876" y="375" class="label" text-anchor="middle">2025-12-10</text>
  <text x="192.4087591240876" y="35.0" class="label" text-anchor="middle">52</text>
  <circle cx="197.66423357664235" cy="40.0" class="point"/>
  <text x="197.66423357664235" y="375" class="label" text-anchor="middle">2025-12-11</text>
  <text x="197.66423357664235" y="35.0" class="label" text-anchor="middle">52</text>
  <circle cx="202.91970802919707" cy="40.0" class="point"/>
  <text x="202.91970802919707" y="375" class="label" text-anchor="middle">2025-12-12</text>
  <text x="202.91970802919707" y="35.0" class="label" text-anchor="middle">52</text>
  <circle cx="208.17518248175182" cy="40.0" class="point"/>
  <text x="208.17518248175182" y="375" class="label" text-anchor="middle">2025-12-13</text>
  <text x="208.17518248175182" y="35.0" class="label" text-anchor="middle">52</text>
  <circle cx="213.43065693430657" cy="40.0" class="point"/>
  <text x="213.43065693430657" y="375" class="label" text-anchor="middle">2025-12-14</text>
  <text x="213.43065693430657" y="35.0" class="label" text-anchor="middle">52</text>
  <circle cx="218.68613138686132" cy="40.0" class="point"/>
  <text x="218.68613138686132" y="375" class="label" text-anchor="middle">2025-12-15</text>
  <text x="218.68613138686132" y="35.0" class="label" text-anchor="middle">52</text>
  <circle cx="223.94160583941607" cy="40.0" class="point"/>
  <text x="223.94160583941607" y="375" class="label" text-anchor="middle">2025-12-16</text>
  <text x="223.94160583941607" y="35.0" class="label" text-anchor="middle">52</text>
  <circle cx="229.19708029197082" cy="40.0" class="point"/>
  <text x="229.19708029197082" y="375" class="label" text-anchor="middle">2025-12-17</text>
  <text x="229.19708029197082" y="35.0" class="label" text-anchor="middle">52</text>
  <circle cx="234.45255474452554" cy="40.0" class="point"/>
  <text x="234.45255474452554" y="375" class="label" text-anchor="middle">2025-12-18</text>
  <text x="234.45255474452554" y="35.0" class="label" text-anchor="middle">52</text>
  <circle cx="239.7080291970803" cy="40.0" class="point"/>
  <text x="239.7080291970803" y="375" class="label" text-anchor="middle">2025-12-19</text>
  <text x="239.7080291970803" y="35.0" class="label" text-anchor="middle">52</text>
  <circle cx="244.96350364963502" cy="40.0" class="point"/>
  <text x="244.96350364963502" y="375" class="label" text-anchor="middle">2025-12-20</text>
  <text x="244.96350364963502" y="35.0" class="label" text-anchor="middle">52</text>
  <circle cx="250.21897810218977" cy="40.0" class="point"/>
  <text x="250.21897810218977" y="375" class="label" text-anchor="middle">2025-12-21</text>
  <text x="250.21897810218977" y="35.0" class="label" text-anchor="middle">52</text>
  <circle cx="255.47445255474454" cy="40.0" class="point"/>
  <text x="255.47445255474454" y="375" class="label" text-anchor="middle">2025-12-22</text>
  <text x="255.47445255474454" y="35.0" class="label" text-anchor="middle">52</text>
  <circle cx="260.72992700729924" cy="40.0" class="point"/>
  <text x="260.72992700729924" y="375" class="label" text-anchor="middle">2025-12-23</text>
  <text x="260.72992700729924" y="35.0" class="label" text-anchor="middle">52</text>
  <circle cx="265.985401459854" cy="40.0" class="point"/>
  <text x="265.985401459854" y="375" class="label" text-anchor="middle">2025-12-24</text>
  <text x="265.985401459854" y="35.0" class="label" text-anchor="middle">52</text>
  <circle cx="271.2408759124088" cy="40.0" class="point"/>
  <text x="271.2408759124088" y="375" class="label" text-anchor="middle">2025-12-25</text>
  <text x="271.2408759124088" y="35.0" class="label" text-anchor="middle">52</text>
  <circle cx="276.4963503649635" cy="40.0" class="point"/>
  <text x="276.4963503649635" y="375" class="label" text-anchor="middle">2025-12-26</text>
  <text x="276.4963503649635" y="35.0" class="label" text-anchor="middle">52</text>
  <circle cx="281.75182481751824" cy="40.0" class="point"/>
  <text x="281.75182481751824" y="375" class="label" text-anchor="middle">2025-12-27</text>
  <text x="281.75182481751824" y="35.0" class="label" text-anchor="middle">52</text>
  <circle cx="287.007299270073" cy="40.0" class="point"/>
  <text x="287.007299270073" y="375" class="label" text-anchor="middle">2025-12-28</text>
  <text x="287.007299270073" y="35.0" class="label" text-anchor="middle">52</text>
  <circle cx="292.26277372262774" cy="40.0" class="point"/>
  <text x="292.26277372262774" y="375" class="label" text-anchor="middle">2025-12-29</text>
  <text x="292.26277372262774" y="35.0" class="label" text-anchor="middle">52</text>
  <circle cx="297.51824817518246" cy="40.0" class="point"/>
  <text x="297.51824817518246" y="375" class="label" text-anchor="middle">2025-12-30</text>
  <text x="297.51824817518246" y="35.0" class="label" text-anchor="middle">52</text>
  <circle cx="302.77372262773724" cy="40.0" class="point"/>
  <text x="302.77372262773724" y="375" class="label" text-anchor="middle">2025-12-31</text>
  <text x="302.77372262773724" y="35.0" class="label" text-anchor="middle">52</text>
  <circle cx="308.02919708029196" cy="40.0" class="point"/>
  <text x="308.02919708029196" y="375" class="label" text-anchor="middle">2026-01-01</text>
  <text x="308.02919708029196" y="35.0" class="label" text-anchor="middle">52</text>
  <circle cx="313.2846715328467" cy="40.0" class="point"/>
  <text x="313.2846715328467" y="375" class="label" text-anchor="middle">2026-01-02</text>
  <text x="313.2846715328467" y="35.0" class="label" text-anchor="middle">52</text>
  <circle cx="318.54014598540147" cy="40.0" class="point"/>
  <text x="318.54014598540147" y="375" class="label" text-anchor="middle">2026-01-03</text>
  <text x="318.54014598540147" y="35.0" class="label" text-anchor="middle">52</text>
  <circle cx="323.79562043795625" cy="40.0" class="point"/>
  <text x="323.79562043795625" y="375" class="label" text-anchor="middle">2026-01-04</text>
  <text x="323.79562043795625" y="35.0" class="label" text-anchor="middle">52</text>
  <circle cx="329.05109489051097" cy="40.0" class="point"/>
  <text x="329.05109489051097" y="375" class="label" text-anchor="middle">2026-01-05</text>
  <text x="329.05109489051097" y="35.0" class="label" text-anchor="middle">52</text>
  <circle cx="334.3065693430657" cy="40.0" class="point"/>
  <text x="334.3065693430657" y="375" class="label" text-anchor="middle">2026-01-06</text>
  <text x="334.3065693430657" y="35.0" class="label" text-anchor="middle">52</text>
  <circle cx="339.5620437956204" cy="40.0" class="point"/>
  <text x="339.5620437956204" y="375" class="label" text-anchor="middle">2026-01-07</text>
  <text x="339.5620437956204" y="35.0" class="label" text-anchor="middle">52</text>
  <circle cx="344.8175182481752" cy="40.0" class="point"/>
  <text x="344.8175182481752" y="375" class="label" text-anchor="middle">2026-01-08</text>
  <text x="344.8175182481752" y="35.0" class="label" text-anchor="middle">52</text>
  <circle cx="350.0729927007299" cy="40.0" class="point"/>
  <text x="350.0729927007299" y="375" class="label" text-anchor="middle">2026-01-09</text>
  <text x="350.0729927007299" y="35.0" class="label" text-anchor="middle">52</text>
  <circle cx="355.3284671532847" cy="40.0" class="point"/>
  <text x="355.3284671532847" y="375" class="label" text-anchor="middle">2026-01-10</text>
  <text x="355.3284671532847" y="35.0" class="label" text-anchor="middle">52</text>
  <circle cx="360.5839416058394" cy="40.0" class="point"/>
  <text x="360.5839416058394" y="375" class="label" text-anchor="middle">2026-01-11</text>
  <text x="360.5839416058394" y="35.0" class="label" text-anchor="middle">52</text>
  <circle cx="365.83941605839414" cy="40.0" class="point"/>
  <text x="365.83941605839414" y="375" class="label" text-anchor="middle">2026-01-12</text>
  <text x="365.83941605839414" y="35.0" class="label" text-anchor="middle">52</text>
  <circle cx="371.0948905109489" cy="40.0" class="point"/>
  <text x="371.0948905109489" y="375" class="label" text-anchor="middle">2026-01-13</text>
  <text x="371.0948905109489" y="35.0" class="label" text-anchor="middle">52</text>
  <circle cx="376.35036496350364" cy="40.0" class="point"/>
  <text x="376.35036496350364" y="375" class="label" text-anchor="middle">2026-01-14</text>
  <text x="376.35036496350364" y="35.0" class="label" text-anchor="middle">52</text>
  <circle cx="381.60583941605836" cy="40.0" class="point"/>
  <text x="381.60583941605836" y="375" class="label" text-anchor="middle">2026-01-15</text>
  <text x="381.60583941605836" y="35.0" class="label" text-anchor="middle">52</text>
  <circle cx="386.86131386861314" cy="40.0" class="point"/>
  <text x="386.86131386861314" y="375" class="label" text-anchor="middle">2026-01-16</text>
  <text x="386.86131386861314" y="35.0" class="label" text-anchor="middle">52</text>
  <circle cx="392.1167883211679" cy="40.0" class="point"/>
  <text x="392.1167883211679" y="375" class="label" text-anchor="middle">2026-01-17</text>
  <text x="392.1167883211679" y="35.0" class="label" text-anchor="middle">52</text>
  <circle cx="397.37226277372264" cy="40.0" class="point"/>
  <text x="397.37226277372264" y="375" class="label" text-anchor="middle">2026-01-18</text>
  <text x="397.37226277372264" y="35.0" class="label" text-anchor="middle">52</text>
  <circle cx="402.6277372262774" cy="40.0" class="point"/>
  <text x="402.6277372262774" y="375" class="label" text-anchor="middle">2026-01-19</text>
  <text x="402.6277372262774" y="35.0" class="label" text-anchor="middle">52</text>
  <circle cx="407.88321167883214" cy="40.0" class="point"/>
  <text x="407.88321167883214" y="375" class="label" text-anchor="middle">2026-01-20</text>
  <text x="407.88321167883214" y="35.0" class="label" text-anchor="middle">52</text>
  <circle cx="413.13868613138686" cy="40.0" class="point"/>
  <text x="413.13868613138686" y="375" class="label" text-anchor="middle">2026-01-21</text>
  <text x="413.13868613138686" y="35.0" class="label" text-anchor="middle">52</text>
  <circle cx="418.39416058394164" cy="40.0" class="point"/>
  <text x="418.39416058394164" y="375" class="label" text-anchor="middle">2026-01-22</text>
  <text x="418.39416058394164" y="35.0" class="label" text-anchor="middle">52</text>
  <circle cx="423.64963503649636" cy="40.0" class="point"/>
  <text x="423.64963503649636" y="375" class="label" text-anchor="middle">2026-01-23</text>
  <text x="423.64963503649636" y="35.0" class="label" text-anchor="middle">52</text>
  <circle cx="428.9051094890511" cy="40.0" class="point"/>
  <text x="428.9051094890511" y="375" class="label" text-anchor="middle">2026-01-24</text>
  <text x="428.9051094890511" y="35.0" class="label" text-anchor="middle">52</text>
  <circle cx="434.16058394160586" cy="40.0" class="point"/>
  <text x="434.16058394160586" y="375" class="label" text-anchor="middle">2026-01-25</text>
  <text x="434.16058394160586" y="35.0" class="label" text-anchor="middle">52</text>
  <circle cx="439.4160583941606" cy="40.0" class="point"/>
  <text x="439.4160583941606" y="375" class="label" text-anchor="middle">2026-01-26</text>
  <text x="439.4160583941606" y="35.0" class="label" text-anchor="middle">52</text>
  <circle cx="444.6715328467153" cy="40.0" class="point"/>
  <text x="444.6715328467153" y="375" class="label" text-anchor="middle">2026-01-27</text>
  <text x="444.6715328467153" y="35.0" class="label" text-anchor="middle">52</text>
  <circle cx="449.92700729927003" cy="40.0" class="point"/>
  <text x="449.92700729927003" y="375" class="label" text-anchor="middle">2026-01-28</text>
  <text x="449.92700729927003" y="35.0" class="label" text-anchor="middle">52</text>
  <circle cx="455.1824817518248" cy="40.0" class="point"/>
  <text x="455.1824817518248" y="375" class="label" text-anchor="middle">2026-01-29</text>
  <text x="455.1824817518248" y="35.0" class="label" text-anchor="middle">52</text>
  <circle cx="460.43795620437953" cy="40.0" class="point"/>
  <text x="460.43795620437953" y="375" class="label" text-anchor="middle">2026-01-30</text>
  <text x="460.43795620437953" y="35.0" class="label" text-anchor="middle">52</text>
  <circle cx="465.69343065693437" cy="40.0" class="point"/>
  <text x="465.69343065693437" y="375" class="label" text-anchor="middle">2026-01-31</text>
  <text x="465.69343065693437" y="35.0" class="label" text-anchor="middle">52</text>
  <circle cx="470.9489051094891" cy="40.0" class="point"/>
  <text x="470.9489051094891" y="375" class="label" text-anchor="middle">2026-02-01</text>
  <text x="470.9489051094891" y="35.0" class="label" text-anchor="middle">52</text>
  <circle cx="476.2043795620438" cy="40.0" class="point"/>
  <text x="476.2043795620438" y="375" class="label" text-anchor="middle">2026-02-02</text>
  <text x="476.2043795620438" y="35.0" class="label" text-anchor="middle">52</text>
  <circle cx="481.45985401459853" cy="40.0" class="point"/>
  <text x="481.45985401459853" y="375" class="label" text-anchor="middle">2026-02-03</text>
  <text x="481.45985401459853" y="35.0" class="label" text-anchor="middle">52</text>
  <circle cx="486.7153284671533" cy="40.0" class="point"/>
  <text x="486.7153284671533" y="375" class="label" text-anchor="middle">2026-02-04</text>
  <text x="486.7153284671533" y="35.0" class="label" text-anchor="middle">52</text>
  <circle cx="491.97080291970804" cy="40.0" class="point"/>
  <text x="491.97080291970804" y="375" class="label" text-anchor="middle">2026-02-05</text>
  <text x="491.97080291970804" y="35.0" class="label" text-anchor="middle">52</text>
  <circle cx="497.22627737226276" cy="40.0" class="point"/>
  <text x="497.22627737226276" y="375" class="label" text-anchor="middle">2026-02-06</text>
  <text x="497.22627737226276" y="35.0" class="label" text-anchor="middle">52</text>
  <circle cx="502.48175182481754" cy="40.0" class="point"/>
  <text x="502.48175182481754" y="375" class="label" text-anchor="middle">2026-02-07</text>
  <text x="502.48175182481754" y="35.0" class="label" text-anchor="middle">52</text>
  <circle cx="507.73722627737226" cy="40.0" class="point"/>
  <text x="507.73722627737226" y="375" class="label" text-anchor="middle">2026-02-08</text>
  <text x="507.73722627737226" y="35.0" class="label" text-anchor="middle">52</text>
  <circle cx="512.992700729927" cy="40.0" class="point"/>
  <text x="512.992700729927" y="375" class="label" text-anchor="middle">2026-02-09</text>
  <text x="512.992700729927" y="35.0" class="label" text-anchor="middle">52</text>
  <circle cx="518.2481751824816" cy="40.0" class="point"/>
  <text x="518.2481751824816" y="375" class="label" text-anchor="middle">2026-02-10</text>
  <text x="518.2481751824816" y="35.0" class="label" text-anchor="middle">52</text>
  <circle cx="523.5036496350365" cy="40.0" class="point"/>
  <text x="523.5036496350365" y="375" class="label" text-anchor="middle">2026-02-11</text>
  <text x="523.5036496350365" y="35.0" class="label" text-anchor="middle">52</text>
  <circle cx="528.7591240875912" cy="40.0" class="point"/>
  <text x="528.7591240875912" y="375" class="label" text-anchor="middle">2026-02-12</text>
  <text x="528.7591240875912" y="35.0" class="label" text-anchor="middle">52</text>
  <circle cx="534.014598540146" cy="40.0" class="point"/>
  <text x="534.014598540146" y="375" class="label" text-anchor="middle">2026-02-13</text>
  <text x="534.014598540146" y="35.0" class="label" text-anchor="middle">52</text>
  <circle cx="539.2700729927008" cy="40.0" class="point"/>
  <text x="539.2700729927008" y="375" class="label" text-anchor="middle">2026-02-14</text>
  <text x="539.2700729927008" y="35.0" class="label" text-anchor="middle">52</text>
  <circle cx="544.5255474452555" cy="40.0" class="point"/>
  <text x="544.5255474452555" y="375" class="label" text-anchor="middle">2026-02-15</text>
  <text x="544.5255474452555" y="35.0" class="label" text-anchor="middle">52</text>
  <circle cx="549.7810218978102" cy="40.0" class="point"/>
  <text x="549.7810218978102" y="375" class="label" text-anchor="middle">2026-02-16</text>
  <text x="549.7810218978102" y="35.0" class="label" text-anchor="middle">52</text>
  <circle cx="555.0364963503649" cy="40.0" class="point"/>
  <text x="555.0364963503649" y="375" class="label" text-anchor="middle">2026-02-17</text>
  <text x="555.0364963503649" y="35.0" class="label" text-anchor="middle">52</text>
  <circle cx="560.2919708029198" cy="40.0" class="point"/>
  <text x="560.2919708029198" y="375" class="label" text-anchor="middle">2026-02-18</text>
  <text x="560.2919708029198" y="35.0" class="label" text-anchor="middle">52</text>
  <circle cx="565.5474452554745" cy="40.0" class="point"/>
  <text x="565.5474452554745" y="375" class="label" text-anchor="middle">2026-02-19</text>
  <text x="565.5474452554745" y="35.0" class="label" text-anchor="middle">52</text>
  <circle cx="570.8029197080292" cy="40.0" class="point"/>
  <text x="570.8029197080292" y="375" class="label" text-anchor="middle">2026-02-20</text>
  <text x="570.8029197080292" y="35.0" class="label" text-anchor="middle">52</text>
  <circle cx="576.0583941605839" cy="40.0" class="point"/>
  <text x="576.0583941605839" y="375" class="label" text-anchor="middle">2026-02-21</text>
  <text x="576.0583941605839" y="35.0" class="label" text-anchor="middle">52</text>
  <circle cx="581.3138686131387" cy="40.0" class="point"/>
  <text x="581.3138686131387" y="375" class="label" text-anchor="middle">2026-02-22</text>
  <text x="581.3138686131387" y="35.0" class="label" text-anchor="middle">52</text>
  <circle cx="586.5693430656934" cy="40.0" class="point"/>
  <text x="586.5693430656934" y="375" class="label" text-anchor="middle">2026-02-23</text>
  <text x="586.5693430656934" y="35.0" class="label" text-anchor="middle">52</text>
  <circle cx="591.8248175182481" cy="40.0" class="point"/>
  <text x="591.8248175182481" y="375" class="label" text-anchor="middle">2026-02-24</text>
  <text x="591.8248175182481" y="35.0" class="label" text-anchor="middle">52</text>
  <circle cx="597.0802919708029" cy="40.0" class="point"/>
  <text x="597.0802919708029" y="375" class="label" text-anchor="middle">2026-02-25</text>
  <text x="597.0802919708029" y="35.0" class="label" text-anchor="middle">52</text>
  <circle cx="602.3357664233577" cy="40.0" class="point"/>
  <text x="602.3357664233577" y="375" class="label" text-anchor="middle">2026-02-26</text>
  <text x="602.3357664233577" y="35.0" class="label" text-anchor="middle">52</text>
  <circle cx="607.5912408759125" cy="40.0" class="point"/>
  <text x="607.5912408759125" y="375" class="label" text-anchor="middle">2026-02-27</text>
  <text x="607.5912408759125" y="35.0" class="label" text-anchor="middle">52</text>
  <circle cx="612.8467153284672" cy="40.0" class="point"/>
  <text x="612.8467153284672" y="375" class="label" text-anchor="middle">2026-02-28</text>
  <text x="612.8467153284672" y="35.0" class="label" text-anchor="middle">52</text>
  <circle cx="618.1021897810219" cy="40.0" class="point"/>
  <text x="618.1021897810219" y="375" class="label" text-anchor="middle">2026-03-01</text>
  <text x="618.1021897810219" y="35.0" class="label" text-anchor="middle">52</text>
  <circle cx="623.3576642335767" cy="40.0" class="point"/>
  <text x="623.3576642335767" y="375" class="label" text-anchor="middle">2026-03-02</text>
  <text x="623.3576642335767" y="35.0" class="label" text-anchor="middle">52</text>
  <circle cx="628.6131386861314" cy="40.0" class="point"/>
  <text x="628.6131386861314" y="375" class="label" text-anchor="middle">2026-03-03</text>
  <text x="628.6131386861314" y="35.0" class="label" text-anchor="middle">52</text>
  <circle cx="633.8686131386861" cy="40.0" class="point"/>
  <text x="633.8686131386861" y="375" class="label" text-anchor="middle">2026-03-04</text>
  <text x="633.8686131386861" y="35.0" class="label" text-anchor="middle">52</text>
  <circle cx="639.1240875912408" cy="40.0" class="point"/>
  <text x="639.1240875912408" y="375" class="label" text-anchor="middle">2026-03-05</text>
  <text x="639.1240875912408" y="35.0" class="label" text-anchor="middle">52</text>
  <circle cx="644.3795620437957" cy="40.0" class="point"/>
  <text x="644.3795620437957" y="375" class="label" text-anchor="middle">2026-03-06</text>
  <text x="644.3795620437957" y="35.0" class="label" text-anchor="middle">52</text>
  <circle cx="649.6350364963504" cy="40.0" class="point"/>
  <text x="649.6350364963504" y="375" class="label" text-anchor="middle">2026-03-07</text>
  <text x="649.6350364963504" y="35.0" class="label" text-anchor="middle">52</text>
  <circle cx="654.8905109489051" cy="40.0" class="point"/>
  <text x="654.8905109489051" y="375" class="label" text-anchor="middle">2026-03-08</text>
  <text x="654.8905109489051" y="35.0" class="label" text-anchor="middle">52</text>
  <circle cx="660.1459854014598" cy="40.0" class="point"/>
  <text x="660.1459854014598" y="375" class="label" text-anchor="middle">2026-03-09</text>
  <text x="660.1459854014598" y="35.0" class="label" text-anchor="middle">52</text>
  <circle cx="665.4014598540147" cy="40.0" class="point"/>
  <text x="665.4014598540147" y="375" class="label" text-anchor="middle">2026-03-10</text>
  <text x="665.4014598540147" y="35.0" class="label" text-anchor="middle">52</text>
  <circle cx="670.6569343065694" cy="40.0" class="point"/>
  <text x="670.6569343065694" y="375" class="label" text-anchor="middle">2026-03-11</text>
  <text x="670.6569343065694" y="35.0" class="label" text-anchor="middle">52</text>
  <circle cx="675.9124087591241" cy="40.0" class="point"/>
  <text x="675.9124087591241" y="375" class="label" text-anchor="middle">2026-03-12</text>
  <text x="675.9124087591241" y="35.0" class="label" text-anchor="middle">52</text>
  <circle cx="681.1678832116788" cy="40.0" class="point"/>
  <text x="681.1678832116788" y="375" class="label" text-anchor="middle">2026-03-13</text>
  <text x="681.1678832116788" y="35.0" class="label" text-anchor="middle">52</text>
  <circle cx="686.4233576642335" cy="40.0" class="point"/>
  <text x="686.4233576642335" y="375" class="label" text-anchor="middle">2026-03-14</text>
  <text x="686.4233576642335" y="35.0" class="label" text-anchor="middle">52</text>
  <circle cx="691.6788321167883" cy="40.0" class="point"/>
  <text x="691.6788321167883" y="375" class="label" text-anchor="middle">2026-03-15</text>
  <text x="691.6788321167883" y="35.0" class="label" text-anchor="middle">52</text>
  <circle cx="696.9343065693431" cy="40.0" class="point"/>
  <text x="696.9343065693431" y="375" class="label" text-anchor="middle">2026-03-16</text>
  <text x="696.9343065693431" y="35.0" class="label" text-anchor="middle">52</text>
  <circle cx="702.1897810218978" cy="40.0" class="point"/>
  <text x="702.1897810218978" y="375" class="label" text-anchor="middle">2026-03-17</text>
  <text x="702.1897810218978" y="35.0" class="label" text-anchor="middle">52</text>
  <circle cx="707.4452554744526" cy="40.0" class="point"/>
  <text x="707.4452554744526" y="375" class="label" text-anchor="middle">2026-03-18</text>
  <text x="707.4452554744526" y="35.0" class="label" text-anchor="middle">52</text>
  <circle cx="712.7007299270073" cy="40.0" class="point"/>
  <text x="712.7007299270073" y="375" class="label" text-anchor="middle">2026-03-19</text>
  <text x="712.7007299270073" y="35.0" class="label" text-anchor="middle">52</text>
  <circle cx="717.956204379562" cy="40.0" class="point"/>
  <text x="717.956204379562" y="375" class="label" text-anchor="middle">2026-03-20</text>
  <text x="717.956204379562" y="35.0" class="label" text-anchor="middle">52</text>
  <circle cx="723.2116788321167" cy="40.0" class="point"/>
  <text x="723.2116788321167" y="375" class="label" text-anchor="middle">2026-03-21</text>
  <text x="723.2116788321167" y="35.0" class="label" text-anchor="middle">52</text>
  <circle cx="728.4671532846716" cy="40.0" class="point"/>
  <text x="728.4671532846716" y="375" class="label" text-anchor="middle">2026-03-22</text>
  <text x="728.4671532846716" y="35.0" class="label" text-anchor="middle">52</text>
  <circle cx="733.7226277372263" cy="40.0" class="point"/>
  <text x="733.7226277372263" y="375" class="label" text-anchor="middle">2026-03-23</text>
  <text x="733.7226277372263" y="35.0" class="label" text-anchor="middle">52</text>
  <circle cx="738.978102189781" cy="40.0" class="point"/>
  <text x="738.978102189781" y="375" class="label" text-anchor="middle">2026-03-24</text>
  <text x="738.978102189781" y="35.0" class="label" text-anchor="middle">52</text>
  <circle cx="744.2335766423358" cy="40.0" class="point"/>
  <text x="744.2335766423358" y="375" class="label" text-anchor="middle">2026-03-25</text>
  <text x="744.2335766423358" y="35.0" class="label" text-anchor="middle">52</text>
  <circle cx="749.4890510948906" cy="40.0" class="point"/>
  <text x="749.4890510948906" y="375" class="label" text-anchor="middle">2026-03-26</text>
  <text x="749.4890510948906" y="35.0" class="label" text-anchor="middle">52</text>
  <circle cx="754.7445255474453" cy="40.0" class="point"/>
  <text x="754.7445255474453" y="375" class="label" text-anchor="middle">2026-03-27</text>
  <text x="754.7445255474453" y="35.0" class="label" text-anchor="middle">52</text>
  <circle cx="760.0" cy="40.0" class="point"/>
  <text x="760.0" y="375" class="label" text-anchor="middle">2026-03-28</text>
  <text x="760.0" y="35.0" class="label" text-anchor="middle">52</text>
  <text x="30" y="363.0" class="label" text-anchor="end">0</text>
  <text x="30" y="301.46153846153845" class="label" text-anchor="end">10</text>
  <text x="30" y="239.9230769230769" class="label" text-anchor="end">20</text>
  <text x="30" y="178.38461538461542" class="label" text-anchor="end">30</text>
  <text x="30" y="116.84615384615384" class="label" text-anchor="end">40</text>
  <text x="30" y="55.30769230769232" class="label" text-anchor="end">50</text>
</svg>