<svg xmlns="http://www.w3.org/2000/svg" width="800" height="400" viewBox="0 0 800 400">
  <style>
    .axis{stroke:#666;stroke-width:1}
    .line{stroke:#4a9;stroke-width:2;fill:none}
    .point{fill:#4a9;r:4}
    .label{font:10px sans-serif;fill:#aaa}
    .title{font:14px sans-serif;fill:#333}
  </style>
  <text x="400" y="20" class="title" text-anchor="middle">OPIC Field Growth Timeline</text>
  <line x1="40" y1="40" x2="40" y2="360" class="axis"/>
  <line x1="40" y1="360" x2="760" y2="360" class="axis"/>
  <path d="M 40.0,101.53846153846155 L 52.0,101.53846153846155 L 64.0,101.53846153846155 L 76.0,101.53846153846155 L 88.0,101.53846153846155 L 100.0,101.53846153846155 L 112.0,101.53846153846155 L 124.0,101.53846153846155 L 136.0,101.53846153846155 L 148.0,101.53846153846155 L 160.0,101.53846153846155 L 172.0,101.53846153846155 L 184.0,101.53846153846155 L 196.0,101.53846153846155 L 208.0,101.53846153846155 L 220.0,101.53846153846155 L 232.0,101.53846153846155 L 244.0,101.53846153846155 L 256.0,101.53846153846155 L 268.0,101.53846153846155 L 280.0,101.53846153846155 L 292.0,101.53846153846155 L 304.0,101.53846153846155 L 316.0,101.53846153846155 L 328.0,101.53846153846155 L 340.0,101.53846153846155 L 352.0,101.53846153846155 L 364.0,40.0 L 376.0,40.0 L 388.0,40.0 L 400.0,40.0 L 412.00000000000006,40.0 L 424.0,40.0 L 436.00000000000006,40.0 L 448.0,40.0 L 460.0,40.0 L 472.0,40.0 L 484.0,40.0 L 496.0,40.0 L 508.0,40.0 L 520.0,40.0 L 532.0,40.0 L 544.0,40.0 L 556.0,40.0 L 568.0,40.0 L 580.0,40.0 L 592.0,40.0 L 604.0,40.0 L 616.0,40.0 L 628.0,40.0 L 640.0,40.0 L 652.0,40.0 L 664.0,40.0 L 676.0,40.0 L 688.0,40.0 L 700.0,40.0 L 712.0,40.0 L 724.0,40.0 L 736.0,40.0 L 748.0,40.0 L 760.0,40.0" class="line"/>
  <circle cx="40.0" cy="101.53846153846155" class="point"/>
  <text x="40.0" y="375" class="label" text-anchor="middle">2025-11-11</text>
  <text x="40.0" y="96.53846153846155" class="label" text-anchor="middle">42</text>
  <circle cx="52.0" cy="101.53846153846155" class="point"/>
  <text x="52.0" y="375" class="label" text-anchor="middle">2025-11-12</text>
  <text x="52.0" y="96.53846153846155" class="label" text-anchor="middle">42</text>
  <circle cx="64.0" cy="101.53846153846155" class="point"/>
  <text x="64.0" y="375" class="label" text-anchor="middle">2025-11-13</text>
  <text x="64.0" y="96.53846153846155" class="label" text-anchor="middle">42</text>
  <circle cx="76.0" cy="101.53846153846155" class="point"/>
  <text x="76.0" y="375" class="label" text-anchor="middle">2025-11-14</text>
  <text x="76.0" y="96.53846153846155" class="label" text-anchor="middle">42</text>
  <circle cx="88.0" cy="101.53846153846155" class="point"/>
  <text x="88.0" y="375" class="label" text-anchor="middle">2025-11-15</text>
  <text x="88.0" y="96.53846153846155" class="label" text-anchor="middle">42</text>
  <circle cx="100.0" cy="101.53846153846155" class="point"/>
  <text x="100.0" y="375" class="label" text-anchor="middle">2025-11-16</text>
  <text x="100.0" y="96.53846153846155" class="label" text-anchor="middle">42</text>
  <circle cx="112.0" cy="101.53846153846155" class="point"/>
  <text x="112.0" y="375" class="label" text-anchor="middle">2025-11-17</text>
  <text x="112.0" y="96.53846153846155" class="label" text-anchor="middle">42</text>
  <circle cx="124.0" cy="101.53846153846155" class="point"/>
  <text x="124.0" y="375" class="label" text-anchor="middle">2025-11-18</text>
  <text x="124.0" y="96.53846153846155" class="label" text-anchor="middle">42</text>
  <circle cx="136.0" cy="101.53846153846155" class="point"/>
  <text x="136.0" y="375" class="label" text-anchor="middle">2025-11-19</text>
  <text x="136.0" y="96.53846153846155" class="label" text-anchor="middle">42</text>
  <circle cx="148.0" cy="101.53846153846155" class="point"/>
  <text x="148.0" y="375" class="label" text-anchor="middle">2025-11-20</text>
  <text x="148.0" y="96.53846153846155" class="label" text-anchor="middle">42</text>
  <circle cx="160.0" cy="101.53846153846155" class="point"/>
  <text x="160.0" y="375" class="label" text-anchor="middle">2025-11-21</text>
  <text x="160.0" y="96.53846153846155" class="label" text-anchor="middle">42</text>
  <circle cx="172.0" cy="101.53846153846155" class="point"/>
  <text x="172.0" y="375" class="label" text-anchor="middle">2025-11-22</text>
  <text x="172.0" y="96.53846153846155" class="label" text-anchor="middle">42</text>
  <circle cx="184.0" cy="101.53846153846155" class="point"/>
  <text x="184.0" y="375" class="label" text-anchor="middle">2025-11-23</text>
  <text x="184.0" y="96.53846153846155" class="label" text-anchor="middle">42</text>
  <circle cx="196.0" cy="101.53846153846155" class="point"/>
  <text x="196.0" y="375" class="label" text-anchor="middle">2025-11-24</text>
  <text x="196.0" y="96.53846153846155" class="label" text-anchor="middle">42</text>
  <circle cx="208.0" cy="101.53846153846155" class="point"/>
  <text x="208.0" y="375" class="label" text-anchor="middle">2025-11-25</text>
  <text x="208.0" y="96.53846153846155" class="label" text-anchor="middle">42</text>
  <circle cx="220.0" cy="101.53846153846155" class="point"/>
  <text x="220.0" y="375" class="label" text-anchor="middle">2025-11-26</text>
  <text x="220.0" y="96.53846153846155" class="label" text-anchor="middle">42</text>
  <circle cx="232.0" cy="101.53846153846155" class="point"/>
  <text x="232.0" y="375" class="label" text-anchor="middle">2025-11-27</text>
  <text x="232.0" y="96.53846153846155" class="label" text-anchor="middle">42</text>
  <circle cx="244.0" cy="101.53846153846155" class="point"/>
  <text x="244.0" y="375" class="label" text-anchor="middle">2025-11-28</text>
  <text x="244.0" y="96.53846153846155" class="label" text-anchor="middle">42</text>
  <circle cx="256.0" cy="101.53846153846155" class="point"/>
  <text x="256.0" y="375" class="label" text-anchor="middle">2025-11-29</text>
  <text x="256.0" y="96.53846153846155" class="label" text-anchor="middle">42</text>
  <circle cx="268.0" cy="101.53846153846155" class="point"/>
  <text x="268.0" y="375" class="label" text-anchor="middle">2025-11-30</text>
  <text x="268.0" y="96.53846153846155" class="label" text-anchor="middle">42</text>
  <circle cx="280.0" cy="101.53846153846155" class="point"/>
  <text x="280.0" y="375" class="label" text-anchor="middle">2025-12-01</text>
  <text x="280.0" y="96.53846153846155" class="label" text-anchor="middle">42</text>
  <circle cx="292.0" cy="101.53846153846155" class="point"/>
  <text x="292.0" y="375" class="label" text-anchor="middle">2025-12-02</text>
  <text x="292.0" y="96.53846153846155" class="label" text-anchor="middle">42</text>
  <circle cx="304.0" cy="101.53846153846155" class="point"/>
  <text x="304.0" y="375" class="label" text-anchor="middle">2025-12-03</text>
  <text x="304.0" y="96.53846153846155" class="label" text-anchor="middle">42</text>
  <circle cx="316.0" cy="101.53846153846155" class="point"/>
  <text x="316.0" y="375" class="label" text-anchor="middle">2025-12-04</text>
  <text x="316.0" y="96.53846153846155" class="label" text-anchor="middle">42</text>
  <circle cx="328.0" cy="101.53846153846155" class="point"/>
  <text x="328.0" y="375" class="label" text-anchor="middle">2025-12-05</text>
  <text x="328.0" y="96.53846153846155" class="label" text-anchor="middle">42</text>
  <circle cx="340.0" cy="101.53846153846155" class="point"/>
  <text x="340.0" y="375" class="label" text-anchor="middle">2025-12-06</text>
  <text x="340.0" y="96.53846153846155" class="label" text-anchor="middle">42</text>
  <circle cx="352.0" cy="101.53846153846155" class="point"/>
  <text x="352.0" y="375" class="label" text-anchor="middle">2025-12-07</text>
  <text x="352.0" y="96.53846153846155" class="label" text-anchor="middle">42</text>
  <circle cx="364.0" cy="40.0" class="point"/>
  <text x="364.0" y="375" class="label" text-anchor="middle">2025-12-08</text>
  <text x="364.0" y="35.0" class="label" text-anchor="middle">52</text>
  <circle cx="376.0" cy="40.0" class="point"/>
  <text x="376.0" y="375" class="label" text-anchor="middle">2025-12-09</text>
  <text x="376.0" y="35.0" class="label" text-anchor="middle">52</text>
  <circle cx="388.0" cy="40.0" class="point"/>
  <text x="388.0" y="375" class="label" text-anchor="middle">2025-12-10</text>
  <text x="388.0" y="35.0" class="label" text-anchor="middle">52</text>
  <circle cx="400.0" cy="40.0" class="point"/>
  <text x="400.0" y="375" class="label" text-anchor="middle">2025-12-11</text>
  <text x="400.0" y="35.0" class="label" text-anchor="middle">52</text>
  <circle cx="412.00000000000006" cy="40.0" class="point"/>
  <text x="412.00000000000006" y="375" class="label" text-anchor="middle">2025-12-12</text>
  <text x="412.00000000000006" y="35.0" class="label" text-anchor="middle">52</text>
  <circle cx="424.0" cy="40.0" class="point"/>
  <text x="424.0" y="375" class="label" text-anchor="middle">2025-12-13</text>
  <text x="424.0" y="35.0" class="label" text-anchor="middle">52</text>
  <circle cx="436.00000000000006" cy="40.0" class="point"/>
  <text x="436.00000000000006" y="375" class="label" text-anchor="middle">2025-12-14</text>
  <text x="436.00000000000006" y="35.0" class="label" text-anchor="middle">52</text>
  <circle cx="448.0" cy="40.0" class="point"/>
  <text x="448.0" y="375" class="label" text-anchor="middle">2025-12-15</text>
  <text x="448.0" y="35.0" class="label" text-anchor="middle">52</text>
  <circle cx="460.0" cy="40.0" class="point"/>
  <text x="460.0" y="375" class="label" text-anchor="middle">2025-12-16</text>
  <text x="460.0" y="35.0" class="label" text-anchor="middle">52</text>
  <circle cx="472.0" cy="40.0" class="point"/>
  <text x="472.0" y="375" class="label" text-anchor="middle">2025-12-17</text>
  <text x="472.0" y="35.0" class="label" text-anchor="middle">52</text>
  <circle cx="484.0" cy="40.0" class="point"/>
  <text x="484.0" y="375" class="label" text-anchor="middle">2025-12-18</text>
  <text x="484.0" y="35.0" class="label" text-anchor="middle">52</text>
  <circle cx="496.0" cy="40.0" class="point"/>
  <text x="496.0" y="375" class="label" text-anchor="middle">2025-12-19</text>
  <text x="496.0" y="35.0" class="label" text-anchor="middle">52</text>
  <circle cx="508.0" cy="40.0" class="point"/>
  <text x="508.0" y="375" class="label" text-anchor="middle">2025-12-20</text>
  <text x="508.0" y="35.0" class="label" text-anchor="middle">52</text>
  <circle cx="520.0" cy="40.0" class="point"/>
  <text x="520.0" y="375" class="label" text-anchor="middle">2025-12-21</text>
  <text x="520.0" y="35.0" class="label" text-anchor="middle">52</text>
  <circle cx="532.0" cy="40.0" class="point"/>
  <text x="532.0" y="375" class="label" text-anchor="middle">2025-12-22</text>
  <text x="532.0" y="35.0" class="label" text-anchor="middle">52</text>
  <circle cx="544.0" cy="40.0" class="point"/>
  <text x="544.0" y="375" class="label" text-anchor="middle">2025-12-23</text>
  <text x="544.0" y="35.0" class="label" text-anchor="middle">52</text>
  <circle cx="556.0" cy="40.0" class="point"/>
  <text x="556.0" y="375" class="label" text-anchor="middle">2025-12-24</text>
  <text x="556.0" y="35.0" class="label" text-anchor="middle">52</text>
  <circle cx="568.0" cy="40.0" class="point"/>
  <text x="568.0" y="375" class="label" text-anchor="middle">2025-12-25</text>
  <text x="568.0" y="35.0" class="label" text-anchor="middle">52</text>
  <circle cx="580.0" cy="40.0" class="point"/>
  <text x="580.0" y="375" class="label" text-anchor="middle">2025-12-26</text>
  <text x="580.0" y="35.0" class="label" text-anchor="middle">52</text>
  <circle cx="592.0" cy="40.0" class="point"/>
  <text x="592.0" y="375" class="label" text-anchor="middle">2025-12-27</text>
  <text x="592.0" y="35.0" class="label" text-anchor="middle">52</text>
  <circle cx="604.0" cy="40.0" class="point"/>
  <text x="604.0" y="375" class="label" text-anchor="middle">2025-12-28</text>
  <text x="604.0" y="35.0" class="label" text-anchor="middle">52</text>
  <circle cx="616.0" cy="40.0" class="point"/>
  <text x="616.0" y="375" class="label" text-anchor="middle">2025-12-29</text>
  <text x="616.0" y="35.0" class="label" text-anchor="middle">52</text>
  <circle cx="628.0" cy="40.0" class="point"/>
  <text x="628.0" y="375" class="label" text-anchor="middle">2025-12-30</text>
  <text x="628.0" y="35.0" class="label" text-anchor="middle">52</text>
  <circle cx="640.0" cy="40.0" class="point"/>
  <text x="640.0" y="375" class="label" text-anchor="middle">2025-12-31</text>
  <text x="640.0" y="35.0" class="label" text-anchor="middle">52</text>
  <circle cx="652.0" cy="40.0" class="point"/>
  <text x="652.0" y="375" class="label" text-anchor="middle">2026-01-01</text>
  <text x="652.0" y="35.0" class="label" text-anchor="middle">52</text>
  <circle cx="664.0" cy="40.0" class="point"/>
  <text x="664.0" y="375" class="label" text-anchor="middle">2026-01-02</text>
  <text x="664.0" y="35.0" class="label" text-anchor="middle">52</text>
  <circle cx="676.0" cy="40.0" class="point"/>
  <text x="676.0" y="375" class="label" text-anchor="middle">2026-01-03</text>
  <text x="676.0" y="35.0" class="label" text-anchor="middle">52</text>
  <circle cx="688.0" cy="40.0" class="point"/>
  <text x="688.0" y="375" class="label" text-anchor="middle">2026-01-04</text>
  <text x="688.0" y="35.0" class="label" text-anchor="middle">52</text>
  <circle cx="700.0" cy="40.0" class="point"/>
  <text x="700.0" y="375" class="label" text-anchor="middle">2026-01-05</text>
  <text x="700.0" y="35.0" class="label" text-anchor="middle">52</text>
  <circle cx="712.0" cy="40.0" class="point"/>
  <text x="712.0" y="375" class="label" text-anchor="middle">2026-01-06</text>
  <text x="712.0" y="35.0" class="label" text-anchor="middle">52</text>
  <circle cx="724.0" cy="40.0" class="point"/>
  <text x="724.0" y="375" class="label" text-anchor="middle">2026-01-07</text>
  <text x="724.0" y="35.0" class="label" text-anchor="middle">52</text>
  <circle cx="736.0" cy="40.0" class="point"/>
  <text x="736.0" y="375" class="label" text-anchor="middle">2026-01-08</text>
  <text x="736.0" y="35.0" class="label" text-anchor="middle">52</text>
  <circle cx="748.0" cy="40.0" class="point"/>
  <text x="748.0" y="375" class="label" text-anchor="middle">2026-01-09</text>
  <text x="748.0" y="35.0" class="label" text-anchor="middle">52</text>
  <circle cx="760.0" cy="40.0" class="point"/>
  <text x="760.0" y="375" class="label" text-anchor="middle">2026-01-10</text>
  <text x="760.0" y="35.0" class="label" text-anchor="middle">52</text>
  <text x="30" y="363.0" class="label" text-anchor="end">0</text>
  <text x="30" y="301.46153846153845" class="label" text-anchor="end">10</text>
  <text x="30" y="239.9230769230769" class="label" text-anchor="end">20</text>
  <text x="30" y="178.38461538461542" class="label" text-anchor="end">30</text>
  <text x="30" y="116.84615384615384" class="label" text-anchor="end">40</text>
  <text x="30" y="55.30769230769232" class="label" text-anchor="end">50</text>
</svg>