<svg xmlns="http://www.w3.org/2000/svg" width="800" height="400" viewBox="0 0 800 400">
  <style>
    .axis{stroke:#666;stroke-width:1}
    .line{stroke:#4a9;stroke-width:2;fill:none}
    .point{fill:#4a9;r:4}
    .label{font:10px sans-serif;fill:#aaa}
    .title{font:14px sans-serif;fill:#333}
  </style>
  <text x="400" y="20" class="title" text-anchor="middle">OPIC Field Growth Timeline</text>
  <line x1="40" y1="40" x2="40" y2="360" class="axis"/>
  <line x1="40" y1="360" x2="760" y2="360" class="axis"/>
  <path d="M 40.0,101.53846153846155 L 57.14285714285714,101.53846153846155 L 74.28571428571428,101.53846153846155 L 91.42857142857142,101.53846153846155 L 108.57142857142857,101.53846153846155 L 125.71428571428571,101.53846153846155 L 142.85714285714283,101.53846153846155 L 160.0,101.53846153846155 L 177.14285714285714,101.53846153846155 L 194.28571428571428,101.53846153846155 L 211.42857142857142,101.53846153846155 L 228.57142857142858,101.53846153846155 L 245.7142857142857,101.53846153846155 L 262.8571428571429,101.53846153846155 L 280.0,101.53846153846155 L 297.14285714285717,101.53846153846155 L 314.2857142857143,101.53846153846155 L 331.42857142857144,101.53846153846155 L 348.57142857142856,101.53846153846155 L 365.7142857142857,101.53846153846155 L 382.85714285714283,101.53846153846155 L 400.0,101.53846153846155 L 417.14285714285717,101.53846153846155 L 434.28571428571433,101.53846153846155 L 451.4285714285714,101.53846153846155 L 468.57142857142856,101.53846153846155 L 485.7142857142857,101.53846153846155 L 502.8571428571429,40.0 L 520.0,40.0 L 537.1428571428571,40.0 L 554.2857142857143,40.0 L 571.4285714285714,40.0 L 588.5714285714286,40.0 L 605.7142857142857,40.0 L 622.8571428571429,40.0 L 640.0,40.0 L 657.1428571428571,40.0 L 674.2857142857142,40.0 L 691.4285714285714,40.0 L 708.5714285714286,40.0 L 725.7142857142857,40.0 L 742.8571428571429,40.0 L 760.0,40.0" class="line"/>
  <circle cx="40.0" cy="101.53846153846155" class="point"/>
  <text x="40.0" y="375" class="label" text-anchor="middle">2025-11-11</text>
  <text x="40.0" y="96.53846153846155" class="label" text-anchor="middle">42</text>
  <circle cx="57.14285714285714" cy="101.53846153846155" class="point"/>
  <text x="57.14285714285714" y="375" class="label" text-anchor="middle">2025-11-12</text>
  <text x="57.14285714285714" y="96.53846153846155" class="label" text-anchor="middle">42</text>
  <circle cx="74.28571428571428" cy="101.53846153846155" class="point"/>
  <text x="74.28571428571428" y="375" class="label" text-anchor="middle">2025-11-13</text>
  <text x="74.28571428571428" y="96.53846153846155" class="label" text-anchor="middle">42</text>
  <circle cx="91.42857142857142" cy="101.53846153846155" class="point"/>
  <text x="91.42857142857142" y="375" class="label" text-anchor="middle">2025-11-14</text>
  <text x="91.42857142857142" y="96.53846153846155" class="label" text-anchor="middle">42</text>
  <circle cx="108.57142857142857" cy="101.53846153846155" class="point"/>
  <text x="108.57142857142857" y="375" class="label" text-anchor="middle">2025-11-15</text>
  <text x="108.57142857142857" y="96.53846153846155" class="label" text-anchor="middle">42</text>
  <circle cx="125.71428571428571" cy="101.53846153846155" class="point"/>
  <text x="125.71428571428571" y="375" class="label" text-anchor="middle">2025-11-16</text>
  <text x="125.71428571428571" y="96.53846153846155" class="label" text-anchor="middle">42</text>
  <circle cx="142.85714285714283" cy="101.53846153846155" class="point"/>
  <text x="142.85714285714283" y="375" class="label" text-anchor="middle">2025-11-17</text>
  <text x="142.85714285714283" y="96.53846153846155" class="label" text-anchor="middle">42</text>
  <circle cx="160.0" cy="101.53846153846155" class="point"/>
  <text x="160.0" y="375" class="label" text-anchor="middle">2025-11-18</text>
  <text x="160.0" y="96.53846153846155" class="label" text-anchor="middle">42</text>
  <circle cx="177.14285714285714" cy="101.53846153846155" class="point"/>
  <text x="177.14285714285714" y="375" class="label" text-anchor="middle">2025-11-19</text>
  <text x="177.14285714285714" y="96.53846153846155" class="label" text-anchor="middle">42</text>
  <circle cx="194.28571428571428" cy="101.53846153846155" class="point"/>
  <text x="194.28571428571428" y="375" class="label" text-anchor="middle">2025-11-20</text>
  <text x="194.28571428571428" y="96.53846153846155" class="label" text-anchor="middle">42</text>
  <circle cx="211.42857142857142" cy="101.53846153846155" class="point"/>
  <text x="211.42857142857142" y="375" class="label" text-anchor="middle">2025-11-21</text>
  <text x="211.42857142857142" y="96.53846153846155" class="label" text-anchor="middle">42</text>
  <circle cx="228.57142857142858" cy="101.53846153846155" class="point"/>
  <text x="228.57142857142858" y="375" class="label" text-anchor="middle">2025-11-22</text>
  <text x="228.57142857142858" y="96.53846153846155" class="label" text-anchor="middle">42</text>
  <circle cx="245.7142857142857" cy="101.53846153846155" class="point"/>
  <text x="245.7142857142857" y="375" class="label" text-anchor="middle">2025-11-23</text>
  <text x="245.7142857142857" y="96.53846153846155" class="label" text-anchor="middle">42</text>
  <circle cx="262.8571428571429" cy="101.53846153846155" class="point"/>
  <text x="262.8571428571429" y="375" class="label" text-anchor="middle">2025-11-24</text>
  <text x="262.8571428571429" y="96.53846153846155" class="label" text-anchor="middle">42</text>
  <circle cx="280.0" cy="101.53846153846155" class="point"/>
  <text x="280.0" y="375" class="label" text-anchor="middle">2025-11-25</text>
  <text x="280.0" y="96.53846153846155" class="label" text-anchor="middle">42</text>
  <circle cx="297.14285714285717" cy="101.53846153846155" class="point"/>
  <text x="297.14285714285717" y="375" class="label" text-anchor="middle">2025-11-26</text>
  <text x="297.14285714285717" y="96.53846153846155" class="label" text-anchor="middle">42</text>
  <circle cx="314.2857142857143" cy="101.53846153846155" class="point"/>
  <text x="314.2857142857143" y="375" class="label" text-anchor="middle">2025-11-27</text>
  <text x="314.2857142857143" y="96.53846153846155" class="label" text-anchor="middle">42</text>
  <circle cx="331.42857142857144" cy="101.53846153846155" class="point"/>
  <text x="331.42857142857144" y="375" class="label" text-anchor="middle">2025-11-28</text>
  <text x="331.42857142857144" y="96.53846153846155" class="label" text-anchor="middle">42</text>
  <circle cx="348.57142857142856" cy="101.53846153846155" class="point"/>
  <text x="348.57142857142856" y="375" class="label" text-anchor="middle">2025-11-29</text>
  <text x="348.57142857142856" y="96.53846153846155" class="label" text-anchor="middle">42</text>
  <circle cx="365.7142857142857" cy="101.53846153846155" class="point"/>
  <text x="365.7142857142857" y="375" class="label" text-anchor="middle">2025-11-30</text>
  <text x="365.7142857142857" y="96.53846153846155" class="label" text-anchor="middle">42</text>
  <circle cx="382.85714285714283" cy="101.53846153846155" class="point"/>
  <text x="382.85714285714283" y="375" class="label" text-anchor="middle">2025-12-01</text>
  <text x="382.85714285714283" y="96.53846153846155" class="label" text-anchor="middle">42</text>
  <circle cx="400.0" cy="101.53846153846155" class="point"/>
  <text x="400.0" y="375" class="label" text-anchor="middle">2025-12-02</text>
  <text x="400.0" y="96.53846153846155" class="label" text-anchor="middle">42</text>
  <circle cx="417.14285714285717" cy="101.53846153846155" class="point"/>
  <text x="417.14285714285717" y="375" class="label" text-anchor="middle">2025-12-03</text>
  <text x="417.14285714285717" y="96.53846153846155" class="label" text-anchor="middle">42</text>
  <circle cx="434.28571428571433" cy="101.53846153846155" class="point"/>
  <text x="434.28571428571433" y="375" class="label" text-anchor="middle">2025-12-04</text>
  <text x="434.28571428571433" y="96.53846153846155" class="label" text-anchor="middle">42</text>
  <circle cx="451.4285714285714" cy="101.53846153846155" class="point"/>
  <text x="451.4285714285714" y="375" class="label" text-anchor="middle">2025-12-05</text>
  <text x="451.4285714285714" y="96.53846153846155" class="label" text-anchor="middle">42</text>
  <circle cx="468.57142857142856" cy="101.53846153846155" class="point"/>
  <text x="468.57142857142856" y="375" class="label" text-anchor="middle">2025-12-06</text>
  <text x="468.57142857142856" y="96.53846153846155" class="label" text-anchor="middle">42</text>
  <circle cx="485.7142857142857" cy="101.53846153846155" class="point"/>
  <text x="485.7142857142857" y="375" class="label" text-anchor="middle">2025-12-07</text>
  <text x="485.7142857142857" y="96.53846153846155" class="label" text-anchor="middle">42</text>
  <circle cx="502.8571428571429" cy="40.0" class="point"/>
  <text x="502.8571428571429" y="375" class="label" text-anchor="middle">2025-12-08</text>
  <text x="502.8571428571429" y="35.0" class="label" text-anchor="middle">52</text>
  <circle cx="520.0" cy="40.0" class="point"/>
  <text x="520.0" y="375" class="label" text-anchor="middle">2025-12-09</text>
  <text x="520.0" y="35.0" class="label" text-anchor="middle">52</text>
  <circle cx="537.1428571428571" cy="40.0" class="point"/>
  <text x="537.1428571428571" y="375" class="label" text-anchor="middle">2025-12-10</text>
  <text x="537.1428571428571" y="35.0" class="label" text-anchor="middle">52</text>
  <circle cx="554.2857142857143" cy="40.0" class="point"/>
  <text x="554.2857142857143" y="375" class="label" text-anchor="middle">2025-12-11</text>
  <text x="554.2857142857143" y="35.0" class="label" text-anchor="middle">52</text>
  <circle cx="571.4285714285714" cy="40.0" class="point"/>
  <text x="571.4285714285714" y="375" class="label" text-anchor="middle">2025-12-12</text>
  <text x="571.4285714285714" y="35.0" class="label" text-anchor="middle">52</text>
  <circle cx="588.5714285714286" cy="40.0" class="point"/>
  <text x="588.5714285714286" y="375" class="label" text-anchor="middle">2025-12-13</text>
  <text x="588.5714285714286" y="35.0" class="label" text-anchor="middle">52</text>
  <circle cx="605.7142857142857" cy="40.0" class="point"/>
  <text x="605.7142857142857" y="375" class="label" text-anchor="middle">2025-12-14</text>
  <text x="605.7142857142857" y="35.0" class="label" text-anchor="middle">52</text>
  <circle cx="622.8571428571429" cy="40.0" class="point"/>
  <text x="622.8571428571429" y="375" class="label" text-anchor="middle">2025-12-15</text>
  <text x="622.8571428571429" y="35.0" class="label" text-anchor="middle">52</text>
  <circle cx="640.0" cy="40.0" class="point"/>
  <text x="640.0" y="375" class="label" text-anchor="middle">2025-12-16</text>
  <text x="640.0" y="35.0" class="label" text-anchor="middle">52</text>
  <circle cx="657.1428571428571" cy="40.0" class="point"/>
  <text x="657.1428571428571" y="375" class="label" text-anchor="middle">2025-12-17</text>
  <text x="657.1428571428571" y="35.0" class="label" text-anchor="middle">52</text>
  <circle cx="674.2857142857142" cy="40.0" class="point"/>
  <text x="674.2857142857142" y="375" class="label" text-anchor="middle">2025-12-18</text>
  <text x="674.2857142857142" y="35.0" class="label" text-anchor="middle">52</text>
  <circle cx="691.4285714285714" cy="40.0" class="point"/>
  <text x="691.4285714285714" y="375" class="label" text-anchor="middle">2025-12-19</text>
  <text x="691.4285714285714" y="35.0" class="label" text-anchor="middle">52</text>
  <circle cx="708.5714285714286" cy="40.0" class="point"/>
  <text x="708.5714285714286" y="375" class="label" text-anchor="middle">2025-12-20</text>
  <text x="708.5714285714286" y="35.0" class="label" text-anchor="middle">52</text>
  <circle cx="725.7142857142857" cy="40.0" class="point"/>
  <text x="725.7142857142857" y="375" class="label" text-anchor="middle">2025-12-21</text>
  <text x="725.7142857142857" y="35.0" class="label" text-anchor="middle">52</text>
  <circle cx="742.8571428571429" cy="40.0" class="point"/>
  <text x="742.8571428571429" y="375" class="label" text-anchor="middle">2025-12-22</text>
  <text x="742.8571428571429" y="35.0" class="label" text-anchor="middle">52</text>
  <circle cx="760.0" cy="40.0" class="point"/>
  <text x="760.0" y="375" class="label" text-anchor="middle">2025-12-23</text>
  <text x="760.0" y="35.0" class="label" text-anchor="middle">52</text>
  <text x="30" y="363.0" class="label" text-anchor="end">0</text>
  <text x="30" y="301.46153846153845" class="label" text-anchor="end">10</text>
  <text x="30" y="239.9230769230769" class="label" text-anchor="end">20</text>
  <text x="30" y="178.38461538461542" class="label" text-anchor="end">30</text>
  <text x="30" y="116.84615384615384" class="label" text-anchor="end">40</text>
  <text x="30" y="55.30769230769232" class="label" text-anchor="end">50</text>
</svg>