<svg xmlns="http://www.w3.org/2000/svg" width="800" height="400" viewBox="0 0 800 400">
  <style>
    .axis{stroke:#666;stroke-width:1}
    .line{stroke:#4a9;stroke-width:2;fill:none}
    .point{fill:#4a9;r:4}
    .label{font:10px sans-serif;fill:#aaa}
    .title{font:14px sans-serif;fill:#333}
  </style>
  <text x="400" y="20" class="title" text-anchor="middle">OPIC Field Growth Timeline</text>
  <line x1="40" y1="40" x2="40" y2="360" class="axis"/>
  <line x1="40" y1="360" x2="760" y2="360" class="axis"/>
  <path d="M 40.0,101.53846153846155 L 44.7682119205298,101.53846153846155 L 49.5364238410596,101.53846153846155 L 54.3046357615894,101.53846153846155 L 59.0728476821192,101.53846153846155 L 63.84105960264901,101.53846153846155 L 68.6092715231788,101.53846153846155 L 73.37748344370861,101.53846153846155 L 78.1456953642384,101.53846153846155 L 82.91390728476821,101.53846153846155 L 87.68211920529802,101.53846153846155 L 92.45033112582782,101.53846153846155 L 97.21854304635761,101.53846153846155 L 101.98675496688742,101.53846153846155 L 106.75496688741723,101.53846153846155 L 111.52317880794702,101.53846153846155 L 116.29139072847683,101.53846153846155 L 121.05960264900662,101.53846153846155 L 125.82781456953643,101.53846153846155 L 130.5960264900662,101.53846153846155 L 135.36423841059604,101.53846153846155 L 140.13245033112582,101.53846153846155 L 144.90066225165563,101.53846153846155 L 149.66887417218544,101.53846153846155 L 154.43708609271522,101.53846153846155 L 159.20529801324506,101.53846153846155 L 163.97350993377484,101.53846153846155 L 168.74172185430464,40.0 L 173.50993377483445,40.0 L 178.27814569536426,40.0 L 183.04635761589404,40.0 L 187.81456953642385,40.0 L 192.58278145695365,40.0 L 197.35099337748346,40.0 L 202.11920529801324,40.0 L 206.88741721854305,40.0 L 211.65562913907286,40.0 L 216.42384105960264,40.0 L 221.19205298013244,40.0 L 225.96026490066225,40.0 L 230.72847682119206,40.0 L 235.49668874172184,40.0 L 240.26490066225165,40.0 L 245.03311258278146,40.0 L 249.80132450331126,40.0 L 254.56953642384107,40.0 L 259.3377483443709,40.0 L 264.10596026490066,40.0 L 268.87417218543044,40.0 L 273.6423841059602,40.0 L 278.4105960264901,40.0 L 283.1788079470199,40.0 L 287.94701986754967,40.0 L 292.71523178807945,40.0 L 297.4834437086093,40.0 L 302.25165562913907,40.0 L 307.0198675496689,40.0 L 311.7880794701987,40.0 L 316.5562913907285,40.0 L 321.3245033112583,40.0 L 326.0927152317881,40.0 L 330.8609271523179,40.0 L 335.6291390728477,40.0 L 340.3973509933775,40.0 L 345.1655629139073,40.0 L 349.9337748344371,40.0 L 354.7019867549669,40.0 L 359.4701986754967,40.0 L 364.2384105960265,40.0 L 369.0066225165563,40.0 L 373.7748344370861,40.0 L 378.5430463576159,40.0 L 383.3112582781457,40.0 L 388.0794701986755,40.0 L 392.8476821192053,40.0 L 397.6158940397351,40.0 L 402.3841059602649,40.0 L 407.1523178807947,40.0 L 411.9205298013245,40.0 L 416.6887417218543,40.0 L 421.4569536423841,40.0 L 426.2251655629139,40.0 L 430.9933774834437,40.0 L 435.7615894039735,40.0 L 440.5298013245033,40.0 L 445.2980132450331,40.0 L 450.0662251655629,40.0 L 454.8344370860927,40.0 L 459.6026490066225,40.0 L 464.3708609271523,40.0 L 469.13907284768214,40.0 L 473.9072847682119,40.0 L 478.6754966887417,40.0 L 483.44370860927154,40.0 L 488.2119205298013,40.0 L 492.9801324503311,40.0 L 497.74834437086093,40.0 L 502.5165562913907,40.0 L 507.2847682119205,40.0 L 512.0529801324503,40.0 L 516.8211920529802,40.0 L 521.5894039735099,40.0 L 526.3576158940398,40.0 L 531.1258278145696,40.0 L 535.8940397350993,40.0 L 540.6622516556291,40.0 L 545.4304635761589,40.0 L 550.1986754966888,40.0 L 554.9668874172186,40.0 L 559.7350993377484,40.0 L 564.5033112582781,40.0 L 569.2715231788079,40.0 L 574.0397350993378,40.0 L 578.8079470198676,40.0 L 583.5761589403974,40.0 L 588.3443708609271,40.0 L 593.112582781457,40.0 L 597.8807947019867,40.0 L 602.6490066225166,40.0 L 607.4172185430464,40.0 L 612.1854304635762,40.0 L 616.9536423841059,40.0 L 621.7218543046358,40.0 L 626.4900662251656,40.0 L 631.2582781456954,40.0 L 636.0264900662252,40.0 L 640.794701986755,40.0 L 645.5629139072847,40.0 L 650.3311258278146,40.0 L 655.0993377483444,40.0 L 659.8675496688742,40.0 L 664.635761589404,40.0 L 669.4039735099338,40.0 L 674.1721854304635,40.0 L 678.9403973509934,40.0 L 683.7086092715232,40.0 L 688.476821192053,40.0 L 693.2450331125827,40.0 L 698.0132450331126,40.0 L 702.7814569536424,40.0 L 707.5496688741722,40.0 L 712.317880794702,40.0 L 717.0860927152318,40.0 L 721.8543046357615,40.0 L 726.6225165562914,40.0 L 731.3907284768212,40.0 L 736.158940397351,40.0 L 740.9271523178808,40.0 L 745.6953642384105,40.0 L 750.4635761589404,40.0 L 755.2317880794702,40.0 L 760.0,40.0" class="line"/>
  <circle cx="40.0" cy="101.53846153846155" class="point"/>
  <text x="40.0" y="375" class="label" text-anchor="middle">2025-11-11</text>
  <text x="40.0" y="96.53846153846155" class="label" text-anchor="middle">42</text>
  <circle cx="44.7682119205298" cy="101.53846153846155" class="point"/>
  <text x="44.7682119205298" y="375" class="label" text-anchor="middle">2025-11-12</text>
  <text x="44.7682119205298" y="96.53846153846155" class="label" text-anchor="middle">42</text>
  <circle cx="49.5364238410596" cy="101.53846153846155" class="point"/>
  <text x="49.5364238410596" y="375" class="label" text-anchor="middle">2025-11-13</text>
  <text x="49.5364238410596" y="96.53846153846155" class="label" text-anchor="middle">42</text>
  <circle cx="54.3046357615894" cy="101.53846153846155" class="point"/>
  <text x="54.3046357615894" y="375" class="label" text-anchor="middle">2025-11-14</text>
  <text x="54.3046357615894" y="96.53846153846155" class="label" text-anchor="middle">42</text>
  <circle cx="59.0728476821192" cy="101.53846153846155" class="point"/>
  <text x="59.0728476821192" y="375" class="label" text-anchor="middle">2025-11-15</text>
  <text x="59.0728476821192" y="96.53846153846155" class="label" text-anchor="middle">42</text>
  <circle cx="63.84105960264901" cy="101.53846153846155" class="point"/>
  <text x="63.84105960264901" y="375" class="label" text-anchor="middle">2025-11-16</text>
  <text x="63.84105960264901" y="96.53846153846155" class="label" text-anchor="middle">42</text>
  <circle cx="68.6092715231788" cy="101.53846153846155" class="point"/>
  <text x="68.6092715231788" y="375" class="label" text-anchor="middle">2025-11-17</text>
  <text x="68.6092715231788" y="96.53846153846155" class="label" text-anchor="middle">42</text>
  <circle cx="73.37748344370861" cy="101.53846153846155" class="point"/>
  <text x="73.37748344370861" y="375" class="label" text-anchor="middle">2025-11-18</text>
  <text x="73.37748344370861" y="96.53846153846155" class="label" text-anchor="middle">42</text>
  <circle cx="78.1456953642384" cy="101.53846153846155" class="point"/>
  <text x="78.1456953642384" y="375" class="label" text-anchor="middle">2025-11-19</text>
  <text x="78.1456953642384" y="96.53846153846155" class="label" text-anchor="middle">42</text>
  <circle cx="82.91390728476821" cy="101.53846153846155" class="point"/>
  <text x="82.91390728476821" y="375" class="label" text-anchor="middle">2025-11-20</text>
  <text x="82.91390728476821" y="96.53846153846155" class="label" text-anchor="middle">42</text>
  <circle cx="87.68211920529802" cy="101.53846153846155" class="point"/>
  <text x="87.68211920529802" y="375" class="label" text-anchor="middle">2025-11-21</text>
  <text x="87.68211920529802" y="96.53846153846155" class="label" text-anchor="middle">42</text>
  <circle cx="92.45033112582782" cy="101.53846153846155" class="point"/>
  <text x="92.45033112582782" y="375" class="label" text-anchor="middle">2025-11-22</text>
  <text x="92.45033112582782" y="96.53846153846155" class="label" text-anchor="middle">42</text>
  <circle cx="97.21854304635761" cy="101.53846153846155" class="point"/>
  <text x="97.21854304635761" y="375" class="label" text-anchor="middle">2025-11-23</text>
  <text x="97.21854304635761" y="96.53846153846155" class="label" text-anchor="middle">42</text>
  <circle cx="101.98675496688742" cy="101.53846153846155" class="point"/>
  <text x="101.98675496688742" y="375" class="label" text-anchor="middle">2025-11-24</text>
  <text x="101.98675496688742" y="96.53846153846155" class="label" text-anchor="middle">42</text>
  <circle cx="106.75496688741723" cy="101.53846153846155" class="point"/>
  <text x="106.75496688741723" y="375" class="label" text-anchor="middle">2025-11-25</text>
  <text x="106.75496688741723" y="96.53846153846155" class="label" text-anchor="middle">42</text>
  <circle cx="111.52317880794702" cy="101.53846153846155" class="point"/>
  <text x="111.52317880794702" y="375" class="label" text-anchor="middle">2025-11-26</text>
  <text x="111.52317880794702" y="96.53846153846155" class="label" text-anchor="middle">42</text>
  <circle cx="116.29139072847683" cy="101.53846153846155" class="point"/>
  <text x="116.29139072847683" y="375" class="label" text-anchor="middle">2025-11-27</text>
  <text x="116.29139072847683" y="96.53846153846155" class="label" text-anchor="middle">42</text>
  <circle cx="121.05960264900662" cy="101.53846153846155" class="point"/>
  <text x="121.05960264900662" y="375" class="label" text-anchor="middle">2025-11-28</text>
  <text x="121.05960264900662" y="96.53846153846155" class="label" text-anchor="middle">42</text>
  <circle cx="125.82781456953643" cy="101.53846153846155" class="point"/>
  <text x="125.82781456953643" y="375" class="label" text-anchor="middle">2025-11-29</text>
  <text x="125.82781456953643" y="96.53846153846155" class="label" text-anchor="middle">42</text>
  <circle cx="130.5960264900662" cy="101.53846153846155" class="point"/>
  <text x="130.5960264900662" y="375" class="label" text-anchor="middle">2025-11-30</text>
  <text x="130.5960264900662" y="96.53846153846155" class="label" text-anchor="middle">42</text>
  <circle cx="135.36423841059604" cy="101.53846153846155" class="point"/>
  <text x="135.36423841059604" y="375" class="label" text-anchor="middle">2025-12-01</text>
  <text x="135.36423841059604" y="96.53846153846155" class="label" text-anchor="middle">42</text>
  <circle cx="140.13245033112582" cy="101.53846153846155" class="point"/>
  <text x="140.13245033112582" y="375" class="label" text-anchor="middle">2025-12-02</text>
  <text x="140.13245033112582" y="96.53846153846155" class="label" text-anchor="middle">42</text>
  <circle cx="144.90066225165563" cy="101.53846153846155" class="point"/>
  <text x="144.90066225165563" y="375" class="label" text-anchor="middle">2025-12-03</text>
  <text x="144.90066225165563" y="96.53846153846155" class="label" text-anchor="middle">42</text>
  <circle cx="149.66887417218544" cy="101.53846153846155" class="point"/>
  <text x="149.66887417218544" y="375" class="label" text-anchor="middle">2025-12-04</text>
  <text x="149.66887417218544" y="96.53846153846155" class="label" text-anchor="middle">42</text>
  <circle cx="154.43708609271522" cy="101.53846153846155" class="point"/>
  <text x="154.43708609271522" y="375" class="label" text-anchor="middle">2025-12-05</text>
  <text x="154.43708609271522" y="96.53846153846155" class="label" text-anchor="middle">42</text>
  <circle cx="159.20529801324506" cy="101.53846153846155" class="point"/>
  <text x="159.20529801324506" y="375" class="label" text-anchor="middle">2025-12-06</text>
  <text x="159.20529801324506" y="96.53846153846155" class="label" text-anchor="middle">42</text>
  <circle cx="163.97350993377484" cy="101.53846153846155" class="point"/>
  <text x="163.97350993377484" y="375" class="label" text-anchor="middle">2025-12-07</text>
  <text x="163.97350993377484" y="96.53846153846155" class="label" text-anchor="middle">42</text>
  <circle cx="168.74172185430464" cy="40.0" class="point"/>
  <text x="168.74172185430464" y="375" class="label" text-anchor="middle">2025-12-08</text>
  <text x="168.74172185430464" y="35.0" class="label" text-anchor="middle">52</text>
  <circle cx="173.50993377483445" cy="40.0" class="point"/>
  <text x="173.50993377483445" y="375" class="label" text-anchor="middle">2025-12-09</text>
  <text x="173.50993377483445" y="35.0" class="label" text-anchor="middle">52</text>
  <circle cx="178.27814569536426" cy="40.0" class="point"/>
  <text x="178.27814569536426" y="375" class="label" text-anchor="middle">2025-12-10</text>
  <text x="178.27814569536426" y="35.0" class="label" text-anchor="middle">52</text>
  <circle cx="183.04635761589404" cy="40.0" class="point"/>
  <text x="183.04635761589404" y="375" class="label" text-anchor="middle">2025-12-11</text>
  <text x="183.04635761589404" y="35.0" class="label" text-anchor="middle">52</text>
  <circle cx="187.81456953642385" cy="40.0" class="point"/>
  <text x="187.81456953642385" y="375" class="label" text-anchor="middle">2025-12-12</text>
  <text x="187.81456953642385" y="35.0" class="label" text-anchor="middle">52</text>
  <circle cx="192.58278145695365" cy="40.0" class="point"/>
  <text x="192.58278145695365" y="375" class="label" text-anchor="middle">2025-12-13</text>
  <text x="192.58278145695365" y="35.0" class="label" text-anchor="middle">52</text>
  <circle cx="197.35099337748346" cy="40.0" class="point"/>
  <text x="197.35099337748346" y="375" class="label" text-anchor="middle">2025-12-14</text>
  <text x="197.35099337748346" y="35.0" class="label" text-anchor="middle">52</text>
  <circle cx="202.11920529801324" cy="40.0" class="point"/>
  <text x="202.11920529801324" y="375" class="label" text-anchor="middle">2025-12-15</text>
  <text x="202.11920529801324" y="35.0" class="label" text-anchor="middle">52</text>
  <circle cx="206.88741721854305" cy="40.0" class="point"/>
  <text x="206.88741721854305" y="375" class="label" text-anchor="middle">2025-12-16</text>
  <text x="206.88741721854305" y="35.0" class="label" text-anchor="middle">52</text>
  <circle cx="211.65562913907286" cy="40.0" class="point"/>
  <text x="211.65562913907286" y="375" class="label" text-anchor="middle">2025-12-17</text>
  <text x="211.65562913907286" y="35.0" class="label" text-anchor="middle">52</text>
  <circle cx="216.42384105960264" cy="40.0" class="point"/>
  <text x="216.42384105960264" y="375" class="label" text-anchor="middle">2025-12-18</text>
  <text x="216.42384105960264" y="35.0" class="label" text-anchor="middle">52</text>
  <circle cx="221.19205298013244" cy="40.0" class="point"/>
  <text x="221.19205298013244" y="375" class="label" text-anchor="middle">2025-12-19</text>
  <text x="221.19205298013244" y="35.0" class="label" text-anchor="middle">52</text>
  <circle cx="225.96026490066225" cy="40.0" class="point"/>
  <text x="225.96026490066225" y="375" class="label" text-anchor="middle">2025-12-20</text>
  <text x="225.96026490066225" y="35.0" class="label" text-anchor="middle">52</text>
  <circle cx="230.72847682119206" cy="40.0" class="point"/>
  <text x="230.72847682119206" y="375" class="label" text-anchor="middle">2025-12-21</text>
  <text x="230.72847682119206" y="35.0" class="label" text-anchor="middle">52</text>
  <circle cx="235.49668874172184" cy="40.0" class="point"/>
  <text x="235.49668874172184" y="375" class="label" text-anchor="middle">2025-12-22</text>
  <text x="235.49668874172184" y="35.0" class="label" text-anchor="middle">52</text>
  <circle cx="240.26490066225165" cy="40.0" class="point"/>
  <text x="240.26490066225165" y="375" class="label" text-anchor="middle">2025-12-23</text>
  <text x="240.26490066225165" y="35.0" class="label" text-anchor="middle">52</text>
  <circle cx="245.03311258278146" cy="40.0" class="point"/>
  <text x="245.03311258278146" y="375" class="label" text-anchor="middle">2025-12-24</text>
  <text x="245.03311258278146" y="35.0" class="label" text-anchor="middle">52</text>
  <circle cx="249.80132450331126" cy="40.0" class="point"/>
  <text x="249.80132450331126" y="375" class="label" text-anchor="middle">2025-12-25</text>
  <text x="249.80132450331126" y="35.0" class="label" text-anchor="middle">52</text>
  <circle cx="254.56953642384107" cy="40.0" class="point"/>
  <text x="254.56953642384107" y="375" class="label" text-anchor="middle">2025-12-26</text>
  <text x="254.56953642384107" y="35.0" class="label" text-anchor="middle">52</text>
  <circle cx="259.3377483443709" cy="40.0" class="point"/>
  <text x="259.3377483443709" y="375" class="label" text-anchor="middle">2025-12-27</text>
  <text x="259.3377483443709" y="35.0" class="label" text-anchor="middle">52</text>
  <circle cx="264.10596026490066" cy="40.0" class="point"/>
  <text x="264.10596026490066" y="375" class="label" text-anchor="middle">2025-12-28</text>
  <text x="264.10596026490066" y="35.0" class="label" text-anchor="middle">52</text>
  <circle cx="268.87417218543044" cy="40.0" class="point"/>
  <text x="268.87417218543044" y="375" class="label" text-anchor="middle">2025-12-29</text>
  <text x="268.87417218543044" y="35.0" class="label" text-anchor="middle">52</text>
  <circle cx="273.6423841059602" cy="40.0" class="point"/>
  <text x="273.6423841059602" y="375" class="label" text-anchor="middle">2025-12-30</text>
  <text x="273.6423841059602" y="35.0" class="label" text-anchor="middle">52</text>
  <circle cx="278.4105960264901" cy="40.0" class="point"/>
  <text x="278.4105960264901" y="375" class="label" text-anchor="middle">2025-12-31</text>
  <text x="278.4105960264901" y="35.0" class="label" text-anchor="middle">52</text>
  <circle cx="283.1788079470199" cy="40.0" class="point"/>
  <text x="283.1788079470199" y="375" class="label" text-anchor="middle">2026-01-01</text>
  <text x="283.1788079470199" y="35.0" class="label" text-anchor="middle">52</text>
  <circle cx="287.94701986754967" cy="40.0" class="point"/>
  <text x="287.94701986754967" y="375" class="label" text-anchor="middle">2026-01-02</text>
  <text x="287.94701986754967" y="35.0" class="label" text-anchor="middle">52</text>
  <circle cx="292.71523178807945" cy="40.0" class="point"/>
  <text x="292.71523178807945" y="375" class="label" text-anchor="middle">2026-01-03</text>
  <text x="292.71523178807945" y="35.0" class="label" text-anchor="middle">52</text>
  <circle cx="297.4834437086093" cy="40.0" class="point"/>
  <text x="297.4834437086093" y="375" class="label" text-anchor="middle">2026-01-04</text>
  <text x="297.4834437086093" y="35.0" class="label" text-anchor="middle">52</text>
  <circle cx="302.25165562913907" cy="40.0" class="point"/>
  <text x="302.25165562913907" y="375" class="label" text-anchor="middle">2026-01-05</text>
  <text x="302.25165562913907" y="35.0" class="label" text-anchor="middle">52</text>
  <circle cx="307.0198675496689" cy="40.0" class="point"/>
  <text x="307.0198675496689" y="375" class="label" text-anchor="middle">2026-01-06</text>
  <text x="307.0198675496689" y="35.0" class="label" text-anchor="middle">52</text>
  <circle cx="311.7880794701987" cy="40.0" class="point"/>
  <text x="311.7880794701987" y="375" class="label" text-anchor="middle">2026-01-07</text>
  <text x="311.7880794701987" y="35.0" class="label" text-anchor="middle">52</text>
  <circle cx="316.5562913907285" cy="40.0" class="point"/>
  <text x="316.5562913907285" y="375" class="label" text-anchor="middle">2026-01-08</text>
  <text x="316.5562913907285" y="35.0" class="label" text-anchor="middle">52</text>
  <circle cx="321.3245033112583" cy="40.0" class="point"/>
  <text x="321.3245033112583" y="375" class="label" text-anchor="middle">2026-01-09</text>
  <text x="321.3245033112583" y="35.0" class="label" text-anchor="middle">52</text>
  <circle cx="326.0927152317881" cy="40.0" class="point"/>
  <text x="326.0927152317881" y="375" class="label" text-anchor="middle">2026-01-10</text>
  <text x="326.0927152317881" y="35.0" class="label" text-anchor="middle">52</text>
  <circle cx="330.8609271523179" cy="40.0" class="point"/>
  <text x="330.8609271523179" y="375" class="label" text-anchor="middle">2026-01-11</text>
  <text x="330.8609271523179" y="35.0" class="label" text-anchor="middle">52</text>
  <circle cx="335.6291390728477" cy="40.0" class="point"/>
  <text x="335.6291390728477" y="375" class="label" text-anchor="middle">2026-01-12</text>
  <text x="335.6291390728477" y="35.0" class="label" text-anchor="middle">52</text>
  <circle cx="340.3973509933775" cy="40.0" class="point"/>
  <text x="340.3973509933775" y="375" class="label" text-anchor="middle">2026-01-13</text>
  <text x="340.3973509933775" y="35.0" class="label" text-anchor="middle">52</text>
  <circle cx="345.1655629139073" cy="40.0" class="point"/>
  <text x="345.1655629139073" y="375" class="label" text-anchor="middle">2026-01-14</text>
  <text x="345.1655629139073" y="35.0" class="label" text-anchor="middle">52</text>
  <circle cx="349.9337748344371" cy="40.0" class="point"/>
  <text x="349.9337748344371" y="375" class="label" text-anchor="middle">2026-01-15</text>
  <text x="349.9337748344371" y="35.0" class="label" text-anchor="middle">52</text>
  <circle cx="354.7019867549669" cy="40.0" class="point"/>
  <text x="354.7019867549669" y="375" class="label" text-anchor="middle">2026-01-16</text>
  <text x="354.7019867549669" y="35.0" class="label" text-anchor="middle">52</text>
  <circle cx="359.4701986754967" cy="40.0" class="point"/>
  <text x="359.4701986754967" y="375" class="label" text-anchor="middle">2026-01-17</text>
  <text x="359.4701986754967" y="35.0" class="label" text-anchor="middle">52</text>
  <circle cx="364.2384105960265" cy="40.0" class="point"/>
  <text x="364.2384105960265" y="375" class="label" text-anchor="middle">2026-01-18</text>
  <text x="364.2384105960265" y="35.0" class="label" text-anchor="middle">52</text>
  <circle cx="369.0066225165563" cy="40.0" class="point"/>
  <text x="369.0066225165563" y="375" class="label" text-anchor="middle">2026-01-19</text>
  <text x="369.0066225165563" y="35.0" class="label" text-anchor="middle">52</text>
  <circle cx="373.7748344370861" cy="40.0" class="point"/>
  <text x="373.7748344370861" y="375" class="label" text-anchor="middle">2026-01-20</text>
  <text x="373.7748344370861" y="35.0" class="label" text-anchor="middle">52</text>
  <circle cx="378.5430463576159" cy="40.0" class="point"/>
  <text x="378.5430463576159" y="375" class="label" text-anchor="middle">2026-01-21</text>
  <text x="378.5430463576159" y="35.0" class="label" text-anchor="middle">52</text>
  <circle cx="383.3112582781457" cy="40.0" class="point"/>
  <text x="383.3112582781457" y="375" class="label" text-anchor="middle">2026-01-22</text>
  <text x="383.3112582781457" y="35.0" class="label" text-anchor="middle">52</text>
  <circle cx="388.0794701986755" cy="40.0" class="point"/>
  <text x="388.0794701986755" y="375" class="label" text-anchor="middle">2026-01-23</text>
  <text x="388.0794701986755" y="35.0" class="label" text-anchor="middle">52</text>
  <circle cx="392.8476821192053" cy="40.0" class="point"/>
  <text x="392.8476821192053" y="375" class="label" text-anchor="middle">2026-01-24</text>
  <text x="392.8476821192053" y="35.0" class="label" text-anchor="middle">52</text>
  <circle cx="397.6158940397351" cy="40.0" class="point"/>
  <text x="397.6158940397351" y="375" class="label" text-anchor="middle">2026-01-25</text>
  <text x="397.6158940397351" y="35.0" class="label" text-anchor="middle">52</text>
  <circle cx="402.3841059602649" cy="40.0" class="point"/>
  <text x="402.3841059602649" y="375" class="label" text-anchor="middle">2026-01-26</text>
  <text x="402.3841059602649" y="35.0" class="label" text-anchor="middle">52</text>
  <circle cx="407.1523178807947" cy="40.0" class="point"/>
  <text x="407.1523178807947" y="375" class="label" text-anchor="middle">2026-01-27</text>
  <text x="407.1523178807947" y="35.0" class="label" text-anchor="middle">52</text>
  <circle cx="411.9205298013245" cy="40.0" class="point"/>
  <text x="411.9205298013245" y="375" class="label" text-anchor="middle">2026-01-28</text>
  <text x="411.9205298013245" y="35.0" class="label" text-anchor="middle">52</text>
  <circle cx="416.6887417218543" cy="40.0" class="point"/>
  <text x="416.6887417218543" y="375" class="label" text-anchor="middle">2026-01-29</text>
  <text x="416.6887417218543" y="35.0" class="label" text-anchor="middle">52</text>
  <circle cx="421.4569536423841" cy="40.0" class="point"/>
  <text x="421.4569536423841" y="375" class="label" text-anchor="middle">2026-01-30</text>
  <text x="421.4569536423841" y="35.0" class="label" text-anchor="middle">52</text>
  <circle cx="426.2251655629139" cy="40.0" class="point"/>
  <text x="426.2251655629139" y="375" class="label" text-anchor="middle">2026-01-31</text>
  <text x="426.2251655629139" y="35.0" class="label" text-anchor="middle">52</text>
  <circle cx="430.9933774834437" cy="40.0" class="point"/>
  <text x="430.9933774834437" y="375" class="label" text-anchor="middle">2026-02-01</text>
  <text x="430.9933774834437" y="35.0" class="label" text-anchor="middle">52</text>
  <circle cx="435.7615894039735" cy="40.0" class="point"/>
  <text x="435.7615894039735" y="375" class="label" text-anchor="middle">2026-02-02</text>
  <text x="435.7615894039735" y="35.0" class="label" text-anchor="middle">52</text>
  <circle cx="440.5298013245033" cy="40.0" class="point"/>
  <text x="440.5298013245033" y="375" class="label" text-anchor="middle">2026-02-03</text>
  <text x="440.5298013245033" y="35.0" class="label" text-anchor="middle">52</text>
  <circle cx="445.2980132450331" cy="40.0" class="point"/>
  <text x="445.2980132450331" y="375" class="label" text-anchor="middle">2026-02-04</text>
  <text x="445.2980132450331" y="35.0" class="label" text-anchor="middle">52</text>
  <circle cx="450.0662251655629" cy="40.0" class="point"/>
  <text x="450.0662251655629" y="375" class="label" text-anchor="middle">2026-02-05</text>
  <text x="450.0662251655629" y="35.0" class="label" text-anchor="middle">52</text>
  <circle cx="454.8344370860927" cy="40.0" class="point"/>
  <text x="454.8344370860927" y="375" class="label" text-anchor="middle">2026-02-06</text>
  <text x="454.8344370860927" y="35.0" class="label" text-anchor="middle">52</text>
  <circle cx="459.6026490066225" cy="40.0" class="point"/>
  <text x="459.6026490066225" y="375" class="label" text-anchor="middle">2026-02-07</text>
  <text x="459.6026490066225" y="35.0" class="label" text-anchor="middle">52</text>
  <circle cx="464.3708609271523" cy="40.0" class="point"/>
  <text x="464.3708609271523" y="375" class="label" text-anchor="middle">2026-02-08</text>
  <text x="464.3708609271523" y="35.0" class="label" text-anchor="middle">52</text>
  <circle cx="469.13907284768214" cy="40.0" class="point"/>
  <text x="469.13907284768214" y="375" class="label" text-anchor="middle">2026-02-09</text>
  <text x="469.13907284768214" y="35.0" class="label" text-anchor="middle">52</text>
  <circle cx="473.9072847682119" cy="40.0" class="point"/>
  <text x="473.9072847682119" y="375" class="label" text-anchor="middle">2026-02-10</text>
  <text x="473.9072847682119" y="35.0" class="label" text-anchor="middle">52</text>
  <circle cx="478.6754966887417" cy="40.0" class="point"/>
  <text x="478.6754966887417" y="375" class="label" text-anchor="middle">2026-02-11</text>
  <text x="478.6754966887417" y="35.0" class="label" text-anchor="middle">52</text>
  <circle cx="483.44370860927154" cy="40.0" class="point"/>
  <text x="483.44370860927154" y="375" class="label" text-anchor="middle">2026-02-12</text>
  <text x="483.44370860927154" y="35.0" class="label" text-anchor="middle">52</text>
  <circle cx="488.2119205298013" cy="40.0" class="point"/>
  <text x="488.2119205298013" y="375" class="label" text-anchor="middle">2026-02-13</text>
  <text x="488.2119205298013" y="35.0" class="label" text-anchor="middle">52</text>
  <circle cx="492.9801324503311" cy="40.0" class="point"/>
  <text x="492.9801324503311" y="375" class="label" text-anchor="middle">2026-02-14</text>
  <text x="492.9801324503311" y="35.0" class="label" text-anchor="middle">52</text>
  <circle cx="497.74834437086093" cy="40.0" class="point"/>
  <text x="497.74834437086093" y="375" class="label" text-anchor="middle">2026-02-15</text>
  <text x="497.74834437086093" y="35.0" class="label" text-anchor="middle">52</text>
  <circle cx="502.5165562913907" cy="40.0" class="point"/>
  <text x="502.5165562913907" y="375" class="label" text-anchor="middle">2026-02-16</text>
  <text x="502.5165562913907" y="35.0" class="label" text-anchor="middle">52</text>
  <circle cx="507.2847682119205" cy="40.0" class="point"/>
  <text x="507.2847682119205" y="375" class="label" text-anchor="middle">2026-02-17</text>
  <text x="507.2847682119205" y="35.0" class="label" text-anchor="middle">52</text>
  <circle cx="512.0529801324503" cy="40.0" class="point"/>
  <text x="512.0529801324503" y="375" class="label" text-anchor="middle">2026-02-18</text>
  <text x="512.0529801324503" y="35.0" class="label" text-anchor="middle">52</text>
  <circle cx="516.8211920529802" cy="40.0" class="point"/>
  <text x="516.8211920529802" y="375" class="label" text-anchor="middle">2026-02-19</text>
  <text x="516.8211920529802" y="35.0" class="label" text-anchor="middle">52</text>
  <circle cx="521.5894039735099" cy="40.0" class="point"/>
  <text x="521.5894039735099" y="375" class="label" text-anchor="middle">2026-02-20</text>
  <text x="521.5894039735099" y="35.0" class="label" text-anchor="middle">52</text>
  <circle cx="526.3576158940398" cy="40.0" class="point"/>
  <text x="526.3576158940398" y="375" class="label" text-anchor="middle">2026-02-21</text>
  <text x="526.3576158940398" y="35.0" class="label" text-anchor="middle">52</text>
  <circle cx="531.1258278145696" cy="40.0" class="point"/>
  <text x="531.1258278145696" y="375" class="label" text-anchor="middle">2026-02-22</text>
  <text x="531.1258278145696" y="35.0" class="label" text-anchor="middle">52</text>
  <circle cx="535.8940397350993" cy="40.0" class="point"/>
  <text x="535.8940397350993" y="375" class="label" text-anchor="middle">2026-02-23</text>
  <text x="535.8940397350993" y="35.0" class="label" text-anchor="middle">52</text>
  <circle cx="540.6622516556291" cy="40.0" class="point"/>
  <text x="540.6622516556291" y="375" class="label" text-anchor="middle">2026-02-24</text>
  <text x="540.6622516556291" y="35.0" class="label" text-anchor="middle">52</text>
  <circle cx="545.4304635761589" cy="40.0" class="point"/>
  <text x="545.4304635761589" y="375" class="label" text-anchor="middle">2026-02-25</text>
  <text x="545.4304635761589" y="35.0" class="label" text-anchor="middle">52</text>
  <circle cx="550.1986754966888" cy="40.0" class="point"/>
  <text x="550.1986754966888" y="375" class="label" text-anchor="middle">2026-02-26</text>
  <text x="550.1986754966888" y="35.0" class="label" text-anchor="middle">52</text>
  <circle cx="554.9668874172186" cy="40.0" class="point"/>
  <text x="554.9668874172186" y="375" class="label" text-anchor="middle">2026-02-27</text>
  <text x="554.9668874172186" y="35.0" class="label" text-anchor="middle">52</text>
  <circle cx="559.7350993377484" cy="40.0" class="point"/>
  <text x="559.7350993377484" y="375" class="label" text-anchor="middle">2026-02-28</text>
  <text x="559.7350993377484" y="35.0" class="label" text-anchor="middle">52</text>
  <circle cx="564.5033112582781" cy="40.0" class="point"/>
  <text x="564.5033112582781" y="375" class="label" text-anchor="middle">2026-03-01</text>
  <text x="564.5033112582781" y="35.0" class="label" text-anchor="middle">52</text>
  <circle cx="569.2715231788079" cy="40.0" class="point"/>
  <text x="569.2715231788079" y="375" class="label" text-anchor="middle">2026-03-02</text>
  <text x="569.2715231788079" y="35.0" class="label" text-anchor="middle">52</text>
  <circle cx="574.0397350993378" cy="40.0" class="point"/>
  <text x="574.0397350993378" y="375" class="label" text-anchor="middle">2026-03-03</text>
  <text x="574.0397350993378" y="35.0" class="label" text-anchor="middle">52</text>
  <circle cx="578.8079470198676" cy="40.0" class="point"/>
  <text x="578.8079470198676" y="375" class="label" text-anchor="middle">2026-03-04</text>
  <text x="578.8079470198676" y="35.0" class="label" text-anchor="middle">52</text>
  <circle cx="583.5761589403974" cy="40.0" class="point"/>
  <text x="583.5761589403974" y="375" class="label" text-anchor="middle">2026-03-05</text>
  <text x="583.5761589403974" y="35.0" class="label" text-anchor="middle">52</text>
  <circle cx="588.3443708609271" cy="40.0" class="point"/>
  <text x="588.3443708609271" y="375" class="label" text-anchor="middle">2026-03-06</text>
  <text x="588.3443708609271" y="35.0" class="label" text-anchor="middle">52</text>
  <circle cx="593.112582781457" cy="40.0" class="point"/>
  <text x="593.112582781457" y="375" class="label" text-anchor="middle">2026-03-07</text>
  <text x="593.112582781457" y="35.0" class="label" text-anchor="middle">52</text>
  <circle cx="597.8807947019867" cy="40.0" class="point"/>
  <text x="597.8807947019867" y="375" class="label" text-anchor="middle">2026-03-08</text>
  <text x="597.8807947019867" y="35.0" class="label" text-anchor="middle">52</text>
  <circle cx="602.6490066225166" cy="40.0" class="point"/>
  <text x="602.6490066225166" y="375" class="label" text-anchor="middle">2026-03-09</text>
  <text x="602.6490066225166" y="35.0" class="label" text-anchor="middle">52</text>
  <circle cx="607.4172185430464" cy="40.0" class="point"/>
  <text x="607.4172185430464" y="375" class="label" text-anchor="middle">2026-03-10</text>
  <text x="607.4172185430464" y="35.0" class="label" text-anchor="middle">52</text>
  <circle cx="612.1854304635762" cy="40.0" class="point"/>
  <text x="612.1854304635762" y="375" class="label" text-anchor="middle">2026-03-11</text>
  <text x="612.1854304635762" y="35.0" class="label" text-anchor="middle">52</text>
  <circle cx="616.9536423841059" cy="40.0" class="point"/>
  <text x="616.9536423841059" y="375" class="label" text-anchor="middle">2026-03-12</text>
  <text x="616.9536423841059" y="35.0" class="label" text-anchor="middle">52</text>
  <circle cx="621.7218543046358" cy="40.0" class="point"/>
  <text x="621.7218543046358" y="375" class="label" text-anchor="middle">2026-03-13</text>
  <text x="621.7218543046358" y="35.0" class="label" text-anchor="middle">52</text>
  <circle cx="626.4900662251656" cy="40.0" class="point"/>
  <text x="626.4900662251656" y="375" class="label" text-anchor="middle">2026-03-14</text>
  <text x="626.4900662251656" y="35.0" class="label" text-anchor="middle">52</text>
  <circle cx="631.2582781456954" cy="40.0" class="point"/>
  <text x="631.2582781456954" y="375" class="label" text-anchor="middle">2026-03-15</text>
  <text x="631.2582781456954" y="35.0" class="label" text-anchor="middle">52</text>
  <circle cx="636.0264900662252" cy="40.0" class="point"/>
  <text x="636.0264900662252" y="375" class="label" text-anchor="middle">2026-03-16</text>
  <text x="636.0264900662252" y="35.0" class="label" text-anchor="middle">52</text>
  <circle cx="640.794701986755" cy="40.0" class="point"/>
  <text x="640.794701986755" y="375" class="label" text-anchor="middle">2026-03-17</text>
  <text x="640.794701986755" y="35.0" class="label" text-anchor="middle">52</text>
  <circle cx="645.5629139072847" cy="40.0" class="point"/>
  <text x="645.5629139072847" y="375" class="label" text-anchor="middle">2026-03-18</text>
  <text x="645.5629139072847" y="35.0" class="label" text-anchor="middle">52</text>
  <circle cx="650.3311258278146" cy="40.0" class="point"/>
  <text x="650.3311258278146" y="375" class="label" text-anchor="middle">2026-03-19</text>
  <text x="650.3311258278146" y="35.0" class="label" text-anchor="middle">52</text>
  <circle cx="655.0993377483444" cy="40.0" class="point"/>
  <text x="655.0993377483444" y="375" class="label" text-anchor="middle">2026-03-20</text>
  <text x="655.0993377483444" y="35.0" class="label" text-anchor="middle">52</text>
  <circle cx="659.8675496688742" cy="40.0" class="point"/>
  <text x="659.8675496688742" y="375" class="label" text-anchor="middle">2026-03-21</text>
  <text x="659.8675496688742" y="35.0" class="label" text-anchor="middle">52</text>
  <circle cx="664.635761589404" cy="40.0" class="point"/>
  <text x="664.635761589404" y="375" class="label" text-anchor="middle">2026-03-22</text>
  <text x="664.635761589404" y="35.0" class="label" text-anchor="middle">52</text>
  <circle cx="669.4039735099338" cy="40.0" class="point"/>
  <text x="669.4039735099338" y="375" class="label" text-anchor="middle">2026-03-23</text>
  <text x="669.4039735099338" y="35.0" class="label" text-anchor="middle">52</text>
  <circle cx="674.1721854304635" cy="40.0" class="point"/>
  <text x="674.1721854304635" y="375" class="label" text-anchor="middle">2026-03-24</text>
  <text x="674.1721854304635" y="35.0" class="label" text-anchor="middle">52</text>
  <circle cx="678.9403973509934" cy="40.0" class="point"/>
  <text x="678.9403973509934" y="375" class="label" text-anchor="middle">2026-03-25</text>
  <text x="678.9403973509934" y="35.0" class="label" text-anchor="middle">52</text>
  <circle cx="683.7086092715232" cy="40.0" class="point"/>
  <text x="683.7086092715232" y="375" class="label" text-anchor="middle">2026-03-26</text>
  <text x="683.7086092715232" y="35.0" class="label" text-anchor="middle">52</text>
  <circle cx="688.476821192053" cy="40.0" class="point"/>
  <text x="688.476821192053" y="375" class="label" text-anchor="middle">2026-03-27</text>
  <text x="688.476821192053" y="35.0" class="label" text-anchor="middle">52</text>
  <circle cx="693.2450331125827" cy="40.0" class="point"/>
  <text x="693.2450331125827" y="375" class="label" text-anchor="middle">2026-03-28</text>
  <text x="693.2450331125827" y="35.0" class="label" text-anchor="middle">52</text>
  <circle cx="698.0132450331126" cy="40.0" class="point"/>
  <text x="698.0132450331126" y="375" class="label" text-anchor="middle">2026-03-29</text>
  <text x="698.0132450331126" y="35.0" class="label" text-anchor="middle">52</text>
  <circle cx="702.7814569536424" cy="40.0" class="point"/>
  <text x="702.7814569536424" y="375" class="label" text-anchor="middle">2026-03-30</text>
  <text x="702.7814569536424" y="35.0" class="label" text-anchor="middle">52</text>
  <circle cx="707.5496688741722" cy="40.0" class="point"/>
  <text x="707.5496688741722" y="375" class="label" text-anchor="middle">2026-03-31</text>
  <text x="707.5496688741722" y="35.0" class="label" text-anchor="middle">52</text>
  <circle cx="712.317880794702" cy="40.0" class="point"/>
  <text x="712.317880794702" y="375" class="label" text-anchor="middle">2026-04-01</text>
  <text x="712.317880794702" y="35.0" class="label" text-anchor="middle">52</text>
  <circle cx="717.0860927152318" cy="40.0" class="point"/>
  <text x="717.0860927152318" y="375" class="label" text-anchor="middle">2026-04-02</text>
  <text x="717.0860927152318" y="35.0" class="label" text-anchor="middle">52</text>
  <circle cx="721.8543046357615" cy="40.0" class="point"/>
  <text x="721.8543046357615" y="375" class="label" text-anchor="middle">2026-04-03</text>
  <text x="721.8543046357615" y="35.0" class="label" text-anchor="middle">52</text>
  <circle cx="726.6225165562914" cy="40.0" class="point"/>
  <text x="726.6225165562914" y="375" class="label" text-anchor="middle">2026-04-04</text>
  <text x="726.6225165562914" y="35.0" class="label" text-anchor="middle">52</text>
  <circle cx="731.3907284768212" cy="40.0" class="point"/>
  <text x="731.3907284768212" y="375" class="label" text-anchor="middle">2026-04-05</text>
  <text x="731.3907284768212" y="35.0" class="label" text-anchor="middle">52</text>
  <circle cx="736.158940397351" cy="40.0" class="point"/>
  <text x="736.158940397351" y="375" class="label" text-anchor="middle">2026-04-06</text>
  <text x="736.158940397351" y="35.0" class="label" text-anchor="middle">52</text>
  <circle cx="740.9271523178808" cy="40.0" class="point"/>
  <text x="740.9271523178808" y="375" class="label" text-anchor="middle">2026-04-07</text>
  <text x="740.9271523178808" y="35.0" class="label" text-anchor="middle">52</text>
  <circle cx="745.6953642384105" cy="40.0" class="point"/>
  <text x="745.6953642384105" y="375" class="label" text-anchor="middle">2026-04-08</text>
  <text x="745.6953642384105" y="35.0" class="label" text-anchor="middle">52</text>
  <circle cx="750.4635761589404" cy="40.0" class="point"/>
  <text x="750.4635761589404" y="375" class="label" text-anchor="middle">2026-04-09</text>
  <text x="750.4635761589404" y="35.0" class="label" text-anchor="middle">52</text>
  <circle cx="755.2317880794702" cy="40.0" class="point"/>
  <text x="755.2317880794702" y="375" class="label" text-anchor="middle">2026-04-10</text>
  <text x="755.2317880794702" y="35.0" class="label" text-anchor="middle">52</text>
  <circle cx="760.0" cy="40.0" class="point"/>
  <text x="760.0" y="375" class="label" text-anchor="middle">2026-04-11</text>
  <text x="760.0" y="35.0" class="label" text-anchor="middle">52</text>
  <text x="30" y="363.0" class="label" text-anchor="end">0</text>
  <text x="30" y="301.46153846153845" class="label" text-anchor="end">10</text>
  <text x="30" y="239.9230769230769" class="label" text-anchor="end">20</text>
  <text x="30" y="178.38461538461542" class="label" text-anchor="end">30</text>
  <text x="30" y="116.84615384615384" class="label" text-anchor="end">40</text>
  <text x="30" y="55.30769230769232" class="label" text-anchor="end">50</text>
</svg>