<svg xmlns="http://www.w3.org/2000/svg" width="800" height="400" viewBox="0 0 800 400">
  <style>
    .axis{stroke:#666;stroke-width:1}
    .line{stroke:#4a9;stroke-width:2;fill:none}
    .point{fill:#4a9;r:4}
    .label{font:10px sans-serif;fill:#aaa}
    .title{font:14px sans-serif;fill:#333}
  </style>
  <text x="400" y="20" class="title" text-anchor="middle">OPIC Field Growth Timeline</text>
  <line x1="40" y1="40" x2="40" y2="360" class="axis"/>
  <line x1="40" y1="360" x2="760" y2="360" class="axis"/>
  <path d="M 40.0,101.53846153846155 L 47.82608695652174,101.53846153846155 L 55.65217391304348,101.53846153846155 L 63.47826086956522,101.53846153846155 L 71.30434782608695,101.53846153846155 L 79.13043478260869,101.53846153846155 L 86.95652173913044,101.53846153846155 L 94.78260869565219,101.53846153846155 L 102.6086956521739,101.53846153846155 L 110.43478260869566,101.53846153846155 L 118.26086956521739,101.53846153846155 L 126.08695652173914,101.53846153846155 L 133.91304347826087,101.53846153846155 L 141.7391304347826,101.53846153846155 L 149.56521739130437,101.53846153846155 L 157.3913043478261,101.53846153846155 L 165.2173913043478,101.53846153846155 L 173.04347826086956,101.53846153846155 L 180.8695652173913,101.53846153846155 L 188.69565217391303,101.53846153846155 L 196.52173913043478,101.53846153846155 L 204.3478260869565,101.53846153846155 L 212.17391304347828,101.53846153846155 L 220.0,101.53846153846155 L 227.82608695652172,101.53846153846155 L 235.65217391304347,101.53846153846155 L 243.4782608695652,101.53846153846155 L 251.30434782608697,40.0 L 259.13043478260875,40.0 L 266.95652173913044,40.0 L 274.7826086956522,40.0 L 282.6086956521739,40.0 L 290.4347826086956,40.0 L 298.2608695652174,40.0 L 306.0869565217391,40.0 L 313.9130434782609,40.0 L 321.7391304347826,40.0 L 329.5652173913044,40.0 L 337.39130434782606,40.0 L 345.2173913043478,40.0 L 353.04347826086956,40.0 L 360.8695652173913,40.0 L 368.695652173913,40.0 L 376.5217391304348,40.0 L 384.34782608695656,40.0 L 392.17391304347825,40.0 L 400.0,40.0 L 407.82608695652175,40.0 L 415.65217391304344,40.0 L 423.47826086956525,40.0 L 431.30434782608694,40.0 L 439.1304347826087,40.0 L 446.9565217391304,40.0 L 454.7826086956522,40.0 L 462.60869565217394,40.0 L 470.4347826086956,40.0 L 478.26086956521743,40.0 L 486.0869565217391,40.0 L 493.9130434782609,40.0 L 501.73913043478257,40.0 L 509.5652173913044,40.0 L 517.391304347826,40.0 L 525.2173913043478,40.0 L 533.0434782608696,40.0 L 540.8695652173913,40.0 L 548.695652173913,40.0 L 556.5217391304348,40.0 L 564.3478260869565,40.0 L 572.1739130434783,40.0 L 580.0,40.0 L 587.8260869565217,40.0 L 595.6521739130435,40.0 L 603.4782608695652,40.0 L 611.3043478260869,40.0 L 619.1304347826087,40.0 L 626.9565217391304,40.0 L 634.7826086956521,40.0 L 642.608695652174,40.0 L 650.4347826086956,40.0 L 658.2608695652174,40.0 L 666.0869565217391,40.0 L 673.9130434782609,40.0 L 681.7391304347826,40.0 L 689.5652173913044,40.0 L 697.391304347826,40.0 L 705.2173913043479,40.0 L 713.0434782608696,40.0 L 720.8695652173913,40.0 L 728.6956521739131,40.0 L 736.5217391304348,40.0 L 744.3478260869565,40.0 L 752.1739130434783,40.0 L 760.0,40.0" class="line"/>
  <circle cx="40.0" cy="101.53846153846155" class="point"/>
  <text x="40.0" y="375" class="label" text-anchor="middle">2025-11-11</text>
  <text x="40.0" y="96.53846153846155" class="label" text-anchor="middle">42</text>
  <circle cx="47.82608695652174" cy="101.53846153846155" class="point"/>
  <text x="47.82608695652174" y="375" class="label" text-anchor="middle">2025-11-12</text>
  <text x="47.82608695652174" y="96.53846153846155" class="label" text-anchor="middle">42</text>
  <circle cx="55.65217391304348" cy="101.53846153846155" class="point"/>
  <text x="55.65217391304348" y="375" class="label" text-anchor="middle">2025-11-13</text>
  <text x="55.65217391304348" y="96.53846153846155" class="label" text-anchor="middle">42</text>
  <circle cx="63.47826086956522" cy="101.53846153846155" class="point"/>
  <text x="63.47826086956522" y="375" class="label" text-anchor="middle">2025-11-14</text>
  <text x="63.47826086956522" y="96.53846153846155" class="label" text-anchor="middle">42</text>
  <circle cx="71.30434782608695" cy="101.53846153846155" class="point"/>
  <text x="71.30434782608695" y="375" class="label" text-anchor="middle">2025-11-15</text>
  <text x="71.30434782608695" y="96.53846153846155" class="label" text-anchor="middle">42</text>
  <circle cx="79.13043478260869" cy="101.53846153846155" class="point"/>
  <text x="79.13043478260869" y="375" class="label" text-anchor="middle">2025-11-16</text>
  <text x="79.13043478260869" y="96.53846153846155" class="label" text-anchor="middle">42</text>
  <circle cx="86.95652173913044" cy="101.53846153846155" class="point"/>
  <text x="86.95652173913044" y="375" class="label" text-anchor="middle">2025-11-17</text>
  <text x="86.95652173913044" y="96.53846153846155" class="label" text-anchor="middle">42</text>
  <circle cx="94.78260869565219" cy="101.53846153846155" class="point"/>
  <text x="94.78260869565219" y="375" class="label" text-anchor="middle">2025-11-18</text>
  <text x="94.78260869565219" y="96.53846153846155" class="label" text-anchor="middle">42</text>
  <circle cx="102.6086956521739" cy="101.53846153846155" class="point"/>
  <text x="102.6086956521739" y="375" class="label" text-anchor="middle">2025-11-19</text>
  <text x="102.6086956521739" y="96.53846153846155" class="label" text-anchor="middle">42</text>
  <circle cx="110.43478260869566" cy="101.53846153846155" class="point"/>
  <text x="110.43478260869566" y="375" class="label" text-anchor="middle">2025-11-20</text>
  <text x="110.43478260869566" y="96.53846153846155" class="label" text-anchor="middle">42</text>
  <circle cx="118.26086956521739" cy="101.53846153846155" class="point"/>
  <text x="118.26086956521739" y="375" class="label" text-anchor="middle">2025-11-21</text>
  <text x="118.26086956521739" y="96.53846153846155" class="label" text-anchor="middle">42</text>
  <circle cx="126.08695652173914" cy="101.53846153846155" class="point"/>
  <text x="126.08695652173914" y="375" class="label" text-anchor="middle">2025-11-22</text>
  <text x="126.08695652173914" y="96.53846153846155" class="label" text-anchor="middle">42</text>
  <circle cx="133.91304347826087" cy="101.53846153846155" class="point"/>
  <text x="133.91304347826087" y="375" class="label" text-anchor="middle">2025-11-23</text>
  <text x="133.91304347826087" y="96.53846153846155" class="label" text-anchor="middle">42</text>
  <circle cx="141.7391304347826" cy="101.53846153846155" class="point"/>
  <text x="141.7391304347826" y="375" class="label" text-anchor="middle">2025-11-24</text>
  <text x="141.7391304347826" y="96.53846153846155" class="label" text-anchor="middle">42</text>
  <circle cx="149.56521739130437" cy="101.53846153846155" class="point"/>
  <text x="149.56521739130437" y="375" class="label" text-anchor="middle">2025-11-25</text>
  <text x="149.56521739130437" y="96.53846153846155" class="label" text-anchor="middle">42</text>
  <circle cx="157.3913043478261" cy="101.53846153846155" class="point"/>
  <text x="157.3913043478261" y="375" class="label" text-anchor="middle">2025-11-26</text>
  <text x="157.3913043478261" y="96.53846153846155" class="label" text-anchor="middle">42</text>
  <circle cx="165.2173913043478" cy="101.53846153846155" class="point"/>
  <text x="165.2173913043478" y="375" class="label" text-anchor="middle">2025-11-27</text>
  <text x="165.2173913043478" y="96.53846153846155" class="label" text-anchor="middle">42</text>
  <circle cx="173.04347826086956" cy="101.53846153846155" class="point"/>
  <text x="173.04347826086956" y="375" class="label" text-anchor="middle">2025-11-28</text>
  <text x="173.04347826086956" y="96.53846153846155" class="label" text-anchor="middle">42</text>
  <circle cx="180.8695652173913" cy="101.53846153846155" class="point"/>
  <text x="180.8695652173913" y="375" class="label" text-anchor="middle">2025-11-29</text>
  <text x="180.8695652173913" y="96.53846153846155" class="label" text-anchor="middle">42</text>
  <circle cx="188.69565217391303" cy="101.53846153846155" class="point"/>
  <text x="188.69565217391303" y="375" class="label" text-anchor="middle">2025-11-30</text>
  <text x="188.69565217391303" y="96.53846153846155" class="label" text-anchor="middle">42</text>
  <circle cx="196.52173913043478" cy="101.53846153846155" class="point"/>
  <text x="196.52173913043478" y="375" class="label" text-anchor="middle">2025-12-01</text>
  <text x="196.52173913043478" y="96.53846153846155" class="label" text-anchor="middle">42</text>
  <circle cx="204.3478260869565" cy="101.53846153846155" class="point"/>
  <text x="204.3478260869565" y="375" class="label" text-anchor="middle">2025-12-02</text>
  <text x="204.3478260869565" y="96.53846153846155" class="label" text-anchor="middle">42</text>
  <circle cx="212.17391304347828" cy="101.53846153846155" class="point"/>
  <text x="212.17391304347828" y="375" class="label" text-anchor="middle">2025-12-03</text>
  <text x="212.17391304347828" y="96.53846153846155" class="label" text-anchor="middle">42</text>
  <circle cx="220.0" cy="101.53846153846155" class="point"/>
  <text x="220.0" y="375" class="label" text-anchor="middle">2025-12-04</text>
  <text x="220.0" y="96.53846153846155" class="label" text-anchor="middle">42</text>
  <circle cx="227.82608695652172" cy="101.53846153846155" class="point"/>
  <text x="227.82608695652172" y="375" class="label" text-anchor="middle">2025-12-05</text>
  <text x="227.82608695652172" y="96.53846153846155" class="label" text-anchor="middle">42</text>
  <circle cx="235.65217391304347" cy="101.53846153846155" class="point"/>
  <text x="235.65217391304347" y="375" class="label" text-anchor="middle">2025-12-06</text>
  <text x="235.65217391304347" y="96.53846153846155" class="label" text-anchor="middle">42</text>
  <circle cx="243.4782608695652" cy="101.53846153846155" class="point"/>
  <text x="243.4782608695652" y="375" class="label" text-anchor="middle">2025-12-07</text>
  <text x="243.4782608695652" y="96.53846153846155" class="label" text-anchor="middle">42</text>
  <circle cx="251.30434782608697" cy="40.0" class="point"/>
  <text x="251.30434782608697" y="375" class="label" text-anchor="middle">2025-12-08</text>
  <text x="251.30434782608697" y="35.0" class="label" text-anchor="middle">52</text>
  <circle cx="259.13043478260875" cy="40.0" class="point"/>
  <text x="259.13043478260875" y="375" class="label" text-anchor="middle">2025-12-09</text>
  <text x="259.13043478260875" y="35.0" class="label" text-anchor="middle">52</text>
  <circle cx="266.95652173913044" cy="40.0" class="point"/>
  <text x="266.95652173913044" y="375" class="label" text-anchor="middle">2025-12-10</text>
  <text x="266.95652173913044" y="35.0" class="label" text-anchor="middle">52</text>
  <circle cx="274.7826086956522" cy="40.0" class="point"/>
  <text x="274.7826086956522" y="375" class="label" text-anchor="middle">2025-12-11</text>
  <text x="274.7826086956522" y="35.0" class="label" text-anchor="middle">52</text>
  <circle cx="282.6086956521739" cy="40.0" class="point"/>
  <text x="282.6086956521739" y="375" class="label" text-anchor="middle">2025-12-12</text>
  <text x="282.6086956521739" y="35.0" class="label" text-anchor="middle">52</text>
  <circle cx="290.4347826086956" cy="40.0" class="point"/>
  <text x="290.4347826086956" y="375" class="label" text-anchor="middle">2025-12-13</text>
  <text x="290.4347826086956" y="35.0" class="label" text-anchor="middle">52</text>
  <circle cx="298.2608695652174" cy="40.0" class="point"/>
  <text x="298.2608695652174" y="375" class="label" text-anchor="middle">2025-12-14</text>
  <text x="298.2608695652174" y="35.0" class="label" text-anchor="middle">52</text>
  <circle cx="306.0869565217391" cy="40.0" class="point"/>
  <text x="306.0869565217391" y="375" class="label" text-anchor="middle">2025-12-15</text>
  <text x="306.0869565217391" y="35.0" class="label" text-anchor="middle">52</text>
  <circle cx="313.9130434782609" cy="40.0" class="point"/>
  <text x="313.9130434782609" y="375" class="label" text-anchor="middle">2025-12-16</text>
  <text x="313.9130434782609" y="35.0" class="label" text-anchor="middle">52</text>
  <circle cx="321.7391304347826" cy="40.0" class="point"/>
  <text x="321.7391304347826" y="375" class="label" text-anchor="middle">2025-12-17</text>
  <text x="321.7391304347826" y="35.0" class="label" text-anchor="middle">52</text>
  <circle cx="329.5652173913044" cy="40.0" class="point"/>
  <text x="329.5652173913044" y="375" class="label" text-anchor="middle">2025-12-18</text>
  <text x="329.5652173913044" y="35.0" class="label" text-anchor="middle">52</text>
  <circle cx="337.39130434782606" cy="40.0" class="point"/>
  <text x="337.39130434782606" y="375" class="label" text-anchor="middle">2025-12-19</text>
  <text x="337.39130434782606" y="35.0" class="label" text-anchor="middle">52</text>
  <circle cx="345.2173913043478" cy="40.0" class="point"/>
  <text x="345.2173913043478" y="375" class="label" text-anchor="middle">2025-12-20</text>
  <text x="345.2173913043478" y="35.0" class="label" text-anchor="middle">52</text>
  <circle cx="353.04347826086956" cy="40.0" class="point"/>
  <text x="353.04347826086956" y="375" class="label" text-anchor="middle">2025-12-21</text>
  <text x="353.04347826086956" y="35.0" class="label" text-anchor="middle">52</text>
  <circle cx="360.8695652173913" cy="40.0" class="point"/>
  <text x="360.8695652173913" y="375" class="label" text-anchor="middle">2025-12-22</text>
  <text x="360.8695652173913" y="35.0" class="label" text-anchor="middle">52</text>
  <circle cx="368.695652173913" cy="40.0" class="point"/>
  <text x="368.695652173913" y="375" class="label" text-anchor="middle">2025-12-23</text>
  <text x="368.695652173913" y="35.0" class="label" text-anchor="middle">52</text>
  <circle cx="376.5217391304348" cy="40.0" class="point"/>
  <text x="376.5217391304348" y="375" class="label" text-anchor="middle">2025-12-24</text>
  <text x="376.5217391304348" y="35.0" class="label" text-anchor="middle">52</text>
  <circle cx="384.34782608695656" cy="40.0" class="point"/>
  <text x="384.34782608695656" y="375" class="label" text-anchor="middle">2025-12-25</text>
  <text x="384.34782608695656" y="35.0" class="label" text-anchor="middle">52</text>
  <circle cx="392.17391304347825" cy="40.0" class="point"/>
  <text x="392.17391304347825" y="375" class="label" text-anchor="middle">2025-12-26</text>
  <text x="392.17391304347825" y="35.0" class="label" text-anchor="middle">52</text>
  <circle cx="400.0" cy="40.0" class="point"/>
  <text x="400.0" y="375" class="label" text-anchor="middle">2025-12-27</text>
  <text x="400.0" y="35.0" class="label" text-anchor="middle">52</text>
  <circle cx="407.82608695652175" cy="40.0" class="point"/>
  <text x="407.82608695652175" y="375" class="label" text-anchor="middle">2025-12-28</text>
  <text x="407.82608695652175" y="35.0" class="label" text-anchor="middle">52</text>
  <circle cx="415.65217391304344" cy="40.0" class="point"/>
  <text x="415.65217391304344" y="375" class="label" text-anchor="middle">2025-12-29</text>
  <text x="415.65217391304344" y="35.0" class="label" text-anchor="middle">52</text>
  <circle cx="423.47826086956525" cy="40.0" class="point"/>
  <text x="423.47826086956525" y="375" class="label" text-anchor="middle">2025-12-30</text>
  <text x="423.47826086956525" y="35.0" class="label" text-anchor="middle">52</text>
  <circle cx="431.30434782608694" cy="40.0" class="point"/>
  <text x="431.30434782608694" y="375" class="label" text-anchor="middle">2025-12-31</text>
  <text x="431.30434782608694" y="35.0" class="label" text-anchor="middle">52</text>
  <circle cx="439.1304347826087" cy="40.0" class="point"/>
  <text x="439.1304347826087" y="375" class="label" text-anchor="middle">2026-01-01</text>
  <text x="439.1304347826087" y="35.0" class="label" text-anchor="middle">52</text>
  <circle cx="446.9565217391304" cy="40.0" class="point"/>
  <text x="446.9565217391304" y="375" class="label" text-anchor="middle">2026-01-02</text>
  <text x="446.9565217391304" y="35.0" class="label" text-anchor="middle">52</text>
  <circle cx="454.7826086956522" cy="40.0" class="point"/>
  <text x="454.7826086956522" y="375" class="label" text-anchor="middle">2026-01-03</text>
  <text x="454.7826086956522" y="35.0" class="label" text-anchor="middle">52</text>
  <circle cx="462.60869565217394" cy="40.0" class="point"/>
  <text x="462.60869565217394" y="375" class="label" text-anchor="middle">2026-01-04</text>
  <text x="462.60869565217394" y="35.0" class="label" text-anchor="middle">52</text>
  <circle cx="470.4347826086956" cy="40.0" class="point"/>
  <text x="470.4347826086956" y="375" class="label" text-anchor="middle">2026-01-05</text>
  <text x="470.4347826086956" y="35.0" class="label" text-anchor="middle">52</text>
  <circle cx="478.26086956521743" cy="40.0" class="point"/>
  <text x="478.26086956521743" y="375" class="label" text-anchor="middle">2026-01-06</text>
  <text x="478.26086956521743" y="35.0" class="label" text-anchor="middle">52</text>
  <circle cx="486.0869565217391" cy="40.0" class="point"/>
  <text x="486.0869565217391" y="375" class="label" text-anchor="middle">2026-01-07</text>
  <text x="486.0869565217391" y="35.0" class="label" text-anchor="middle">52</text>
  <circle cx="493.9130434782609" cy="40.0" class="point"/>
  <text x="493.9130434782609" y="375" class="label" text-anchor="middle">2026-01-08</text>
  <text x="493.9130434782609" y="35.0" class="label" text-anchor="middle">52</text>
  <circle cx="501.73913043478257" cy="40.0" class="point"/>
  <text x="501.73913043478257" y="375" class="label" text-anchor="middle">2026-01-09</text>
  <text x="501.73913043478257" y="35.0" class="label" text-anchor="middle">52</text>
  <circle cx="509.5652173913044" cy="40.0" class="point"/>
  <text x="509.5652173913044" y="375" class="label" text-anchor="middle">2026-01-10</text>
  <text x="509.5652173913044" y="35.0" class="label" text-anchor="middle">52</text>
  <circle cx="517.391304347826" cy="40.0" class="point"/>
  <text x="517.391304347826" y="375" class="label" text-anchor="middle">2026-01-11</text>
  <text x="517.391304347826" y="35.0" class="label" text-anchor="middle">52</text>
  <circle cx="525.2173913043478" cy="40.0" class="point"/>
  <text x="525.2173913043478" y="375" class="label" text-anchor="middle">2026-01-12</text>
  <text x="525.2173913043478" y="35.0" class="label" text-anchor="middle">52</text>
  <circle cx="533.0434782608696" cy="40.0" class="point"/>
  <text x="533.0434782608696" y="375" class="label" text-anchor="middle">2026-01-13</text>
  <text x="533.0434782608696" y="35.0" class="label" text-anchor="middle">52</text>
  <circle cx="540.8695652173913" cy="40.0" class="point"/>
  <text x="540.8695652173913" y="375" class="label" text-anchor="middle">2026-01-14</text>
  <text x="540.8695652173913" y="35.0" class="label" text-anchor="middle">52</text>
  <circle cx="548.695652173913" cy="40.0" class="point"/>
  <text x="548.695652173913" y="375" class="label" text-anchor="middle">2026-01-15</text>
  <text x="548.695652173913" y="35.0" class="label" text-anchor="middle">52</text>
  <circle cx="556.5217391304348" cy="40.0" class="point"/>
  <text x="556.5217391304348" y="375" class="label" text-anchor="middle">2026-01-16</text>
  <text x="556.5217391304348" y="35.0" class="label" text-anchor="middle">52</text>
  <circle cx="564.3478260869565" cy="40.0" class="point"/>
  <text x="564.3478260869565" y="375" class="label" text-anchor="middle">2026-01-17</text>
  <text x="564.3478260869565" y="35.0" class="label" text-anchor="middle">52</text>
  <circle cx="572.1739130434783" cy="40.0" class="point"/>
  <text x="572.1739130434783" y="375" class="label" text-anchor="middle">2026-01-18</text>
  <text x="572.1739130434783" y="35.0" class="label" text-anchor="middle">52</text>
  <circle cx="580.0" cy="40.0" class="point"/>
  <text x="580.0" y="375" class="label" text-anchor="middle">2026-01-19</text>
  <text x="580.0" y="35.0" class="label" text-anchor="middle">52</text>
  <circle cx="587.8260869565217" cy="40.0" class="point"/>
  <text x="587.8260869565217" y="375" class="label" text-anchor="middle">2026-01-20</text>
  <text x="587.8260869565217" y="35.0" class="label" text-anchor="middle">52</text>
  <circle cx="595.6521739130435" cy="40.0" class="point"/>
  <text x="595.6521739130435" y="375" class="label" text-anchor="middle">2026-01-21</text>
  <text x="595.6521739130435" y="35.0" class="label" text-anchor="middle">52</text>
  <circle cx="603.4782608695652" cy="40.0" class="point"/>
  <text x="603.4782608695652" y="375" class="label" text-anchor="middle">2026-01-22</text>
  <text x="603.4782608695652" y="35.0" class="label" text-anchor="middle">52</text>
  <circle cx="611.3043478260869" cy="40.0" class="point"/>
  <text x="611.3043478260869" y="375" class="label" text-anchor="middle">2026-01-23</text>
  <text x="611.3043478260869" y="35.0" class="label" text-anchor="middle">52</text>
  <circle cx="619.1304347826087" cy="40.0" class="point"/>
  <text x="619.1304347826087" y="375" class="label" text-anchor="middle">2026-01-24</text>
  <text x="619.1304347826087" y="35.0" class="label" text-anchor="middle">52</text>
  <circle cx="626.9565217391304" cy="40.0" class="point"/>
  <text x="626.9565217391304" y="375" class="label" text-anchor="middle">2026-01-25</text>
  <text x="626.9565217391304" y="35.0" class="label" text-anchor="middle">52</text>
  <circle cx="634.7826086956521" cy="40.0" class="point"/>
  <text x="634.7826086956521" y="375" class="label" text-anchor="middle">2026-01-26</text>
  <text x="634.7826086956521" y="35.0" class="label" text-anchor="middle">52</text>
  <circle cx="642.608695652174" cy="40.0" class="point"/>
  <text x="642.608695652174" y="375" class="label" text-anchor="middle">2026-01-27</text>
  <text x="642.608695652174" y="35.0" class="label" text-anchor="middle">52</text>
  <circle cx="650.4347826086956" cy="40.0" class="point"/>
  <text x="650.4347826086956" y="375" class="label" text-anchor="middle">2026-01-28</text>
  <text x="650.4347826086956" y="35.0" class="label" text-anchor="middle">52</text>
  <circle cx="658.2608695652174" cy="40.0" class="point"/>
  <text x="658.2608695652174" y="375" class="label" text-anchor="middle">2026-01-29</text>
  <text x="658.2608695652174" y="35.0" class="label" text-anchor="middle">52</text>
  <circle cx="666.0869565217391" cy="40.0" class="point"/>
  <text x="666.0869565217391" y="375" class="label" text-anchor="middle">2026-01-30</text>
  <text x="666.0869565217391" y="35.0" class="label" text-anchor="middle">52</text>
  <circle cx="673.9130434782609" cy="40.0" class="point"/>
  <text x="673.9130434782609" y="375" class="label" text-anchor="middle">2026-01-31</text>
  <text x="673.9130434782609" y="35.0" class="label" text-anchor="middle">52</text>
  <circle cx="681.7391304347826" cy="40.0" class="point"/>
  <text x="681.7391304347826" y="375" class="label" text-anchor="middle">2026-02-01</text>
  <text x="681.7391304347826" y="35.0" class="label" text-anchor="middle">52</text>
  <circle cx="689.5652173913044" cy="40.0" class="point"/>
  <text x="689.5652173913044" y="375" class="label" text-anchor="middle">2026-02-02</text>
  <text x="689.5652173913044" y="35.0" class="label" text-anchor="middle">52</text>
  <circle cx="697.391304347826" cy="40.0" class="point"/>
  <text x="697.391304347826" y="375" class="label" text-anchor="middle">2026-02-03</text>
  <text x="697.391304347826" y="35.0" class="label" text-anchor="middle">52</text>
  <circle cx="705.2173913043479" cy="40.0" class="point"/>
  <text x="705.2173913043479" y="375" class="label" text-anchor="middle">2026-02-04</text>
  <text x="705.2173913043479" y="35.0" class="label" text-anchor="middle">52</text>
  <circle cx="713.0434782608696" cy="40.0" class="point"/>
  <text x="713.0434782608696" y="375" class="label" text-anchor="middle">2026-02-05</text>
  <text x="713.0434782608696" y="35.0" class="label" text-anchor="middle">52</text>
  <circle cx="720.8695652173913" cy="40.0" class="point"/>
  <text x="720.8695652173913" y="375" class="label" text-anchor="middle">2026-02-06</text>
  <text x="720.8695652173913" y="35.0" class="label" text-anchor="middle">52</text>
  <circle cx="728.6956521739131" cy="40.0" class="point"/>
  <text x="728.6956521739131" y="375" class="label" text-anchor="middle">2026-02-07</text>
  <text x="728.6956521739131" y="35.0" class="label" text-anchor="middle">52</text>
  <circle cx="736.5217391304348" cy="40.0" class="point"/>
  <text x="736.5217391304348" y="375" class="label" text-anchor="middle">2026-02-08</text>
  <text x="736.5217391304348" y="35.0" class="label" text-anchor="middle">52</text>
  <circle cx="744.3478260869565" cy="40.0" class="point"/>
  <text x="744.3478260869565" y="375" class="label" text-anchor="middle">2026-02-09</text>
  <text x="744.3478260869565" y="35.0" class="label" text-anchor="middle">52</text>
  <circle cx="752.1739130434783" cy="40.0" class="point"/>
  <text x="752.1739130434783" y="375" class="label" text-anchor="middle">2026-02-10</text>
  <text x="752.1739130434783" y="35.0" class="label" text-anchor="middle">52</text>
  <circle cx="760.0" cy="40.0" class="point"/>
  <text x="760.0" y="375" class="label" text-anchor="middle">2026-02-11</text>
  <text x="760.0" y="35.0" class="label" text-anchor="middle">52</text>
  <text x="30" y="363.0" class="label" text-anchor="end">0</text>
  <text x="30" y="301.46153846153845" class="label" text-anchor="end">10</text>
  <text x="30" y="239.9230769230769" class="label" text-anchor="end">20</text>
  <text x="30" y="178.38461538461542" class="label" text-anchor="end">30</text>
  <text x="30" y="116.84615384615384" class="label" text-anchor="end">40</text>
  <text x="30" y="55.30769230769232" class="label" text-anchor="end">50</text>
</svg>