<svg xmlns="http://www.w3.org/2000/svg" width="800" height="400" viewBox="0 0 800 400">
  <style>
    .axis{stroke:#666;stroke-width:1}
    .line{stroke:#4a9;stroke-width:2;fill:none}
    .point{fill:#4a9;r:4}
    .label{font:10px sans-serif;fill:#aaa}
    .title{font:14px sans-serif;fill:#333}
  </style>
  <text x="400" y="20" class="title" text-anchor="middle">OPIC Field Growth Timeline</text>
  <line x1="40" y1="40" x2="40" y2="360" class="axis"/>
  <line x1="40" y1="360" x2="760" y2="360" class="axis"/>
  <path d="M 40.0,40.0 L 80.0,40.0 L 120.0,40.0 L 160.0,40.0 L 200.0,40.0 L 240.0,40.0 L 280.0,40.0 L 320.0,40.0 L 360.0,40.0 L 400.0,40.0 L 440.0,40.0 L 480.00000000000006,40.0 L 520.0,40.0 L 560.0,40.0 L 600.0,40.0 L 640.0,40.0 L 680.0,40.0 L 720.0,40.0 L 760.0,40.0" class="line"/>
  <circle cx="40.0" cy="40.0" class="point"/>
  <text x="40.0" y="375" class="label" text-anchor="middle">2025-11-11</text>
  <text x="40.0" y="35.0" class="label" text-anchor="middle">42</text>
  <circle cx="80.0" cy="40.0" class="point"/>
  <text x="80.0" y="375" class="label" text-anchor="middle">2025-11-12</text>
  <text x="80.0" y="35.0" class="label" text-anchor="middle">42</text>
  <circle cx="120.0" cy="40.0" class="point"/>
  <text x="120.0" y="375" class="label" text-anchor="middle">2025-11-13</text>
  <text x="120.0" y="35.0" class="label" text-anchor="middle">42</text>
  <circle cx="160.0" cy="40.0" class="point"/>
  <text x="160.0" y="375" class="label" text-anchor="middle">2025-11-14</text>
  <text x="160.0" y="35.0" class="label" text-anchor="middle">42</text>
  <circle cx="200.0" cy="40.0" class="point"/>
  <text x="200.0" y="375" class="label" text-anchor="middle">2025-11-15</text>
  <text x="200.0" y="35.0" class="label" text-anchor="middle">42</text>
  <circle cx="240.0" cy="40.0" class="point"/>
  <text x="240.0" y="375" class="label" text-anchor="middle">2025-11-16</text>
  <text x="240.0" y="35.0" class="label" text-anchor="middle">42</text>
  <circle cx="280.0" cy="40.0" class="point"/>
  <text x="280.0" y="375" class="label" text-anchor="middle">2025-11-17</text>
  <text x="280.0" y="35.0" class="label" text-anchor="middle">42</text>
  <circle cx="320.0" cy="40.0" class="point"/>
  <text x="320.0" y="375" class="label" text-anchor="middle">2025-11-18</text>
  <text x="320.0" y="35.0" class="label" text-anchor="middle">42</text>
  <circle cx="360.0" cy="40.0" class="point"/>
  <text x="360.0" y="375" class="label" text-anchor="middle">2025-11-19</text>
  <text x="360.0" y="35.0" class="label" text-anchor="middle">42</text>
  <circle cx="400.0" cy="40.0" class="point"/>
  <text x="400.0" y="375" class="label" text-anchor="middle">2025-11-20</text>
  <text x="400.0" y="35.0" class="label" text-anchor="middle">42</text>
  <circle cx="440.0" cy="40.0" class="point"/>
  <text x="440.0" y="375" class="label" text-anchor="middle">2025-11-21</text>
  <text x="440.0" y="35.0" class="label" text-anchor="middle">42</text>
  <circle cx="480.00000000000006" cy="40.0" class="point"/>
  <text x="480.00000000000006" y="375" class="label" text-anchor="middle">2025-11-22</text>
  <text x="480.00000000000006" y="35.0" class="label" text-anchor="middle">42</text>
  <circle cx="520.0" cy="40.0" class="point"/>
  <text x="520.0" y="375" class="label" text-anchor="middle">2025-11-23</text>
  <text x="520.0" y="35.0" class="label" text-anchor="middle">42</text>
  <circle cx="560.0" cy="40.0" class="point"/>
  <text x="560.0" y="375" class="label" text-anchor="middle">2025-11-24</text>
  <text x="560.0" y="35.0" class="label" text-anchor="middle">42</text>
  <circle cx="600.0" cy="40.0" class="point"/>
  <text x="600.0" y="375" class="label" text-anchor="middle">2025-11-25</text>
  <text x="600.0" y="35.0" class="label" text-anchor="middle">42</text>
  <circle cx="640.0" cy="40.0" class="point"/>
  <text x="640.0" y="375" class="label" text-anchor="middle">2025-11-26</text>
  <text x="640.0" y="35.0" class="label" text-anchor="middle">42</text>
  <circle cx="680.0" cy="40.0" class="point"/>
  <text x="680.0" y="375" class="label" text-anchor="middle">2025-11-27</text>
  <text x="680.0" y="35.0" class="label" text-anchor="middle">42</text>
  <circle cx="720.0" cy="40.0" class="point"/>
  <text x="720.0" y="375" class="label" text-anchor="middle">2025-11-28</text>
  <text x="720.0" y="35.0" class="label" text-anchor="middle">42</text>
  <circle cx="760.0" cy="40.0" class="point"/>
  <text x="760.0" y="375" class="label" text-anchor="middle">2025-11-29</text>
  <text x="760.0" y="35.0" class="label" text-anchor="middle">42</text>
  <text x="30" y="363.0" class="label" text-anchor="end">0</text>
  <text x="30" y="302.04761904761904" class="label" text-anchor="end">8</text>
  <text x="30" y="241.0952380952381" class="label" text-anchor="end">16</text>
  <text x="30" y="180.14285714285717" class="label" text-anchor="end">24</text>
  <text x="30" y="119.1904761904762" class="label" text-anchor="end">32</text>
  <text x="30" y="58.23809523809524" class="label" text-anchor="end">40</text>
</svg>