<svg xmlns="http://www.w3.org/2000/svg" width="800" height="400" viewBox="0 0 800 400">
  <style>
    .axis{stroke:#666;stroke-width:1}
    .line{stroke:#4a9;stroke-width:2;fill:none}
    .point{fill:#4a9;r:4}
    .label{font:10px sans-serif;fill:#aaa}
    .title{font:14px sans-serif;fill:#333}
  </style>
  <text x="400" y="20" class="title" text-anchor="middle">OPIC Field Growth Timeline</text>
  <line x1="40" y1="40" x2="40" y2="360" class="axis"/>
  <line x1="40" y1="360" x2="760" y2="360" class="axis"/>
  <path d="M 40.0,101.53846153846155 L 52.41379310344828,101.53846153846155 L 64.82758620689656,101.53846153846155 L 77.24137931034483,101.53846153846155 L 89.65517241379311,101.53846153846155 L 102.06896551724138,101.53846153846155 L 114.48275862068965,101.53846153846155 L 126.89655172413794,101.53846153846155 L 139.31034482758622,101.53846153846155 L 151.72413793103448,101.53846153846155 L 164.13793103448276,101.53846153846155 L 176.55172413793102,101.53846153846155 L 188.9655172413793,101.53846153846155 L 201.3793103448276,101.53846153846155 L 213.79310344827587,101.53846153846155 L 226.20689655172416,101.53846153846155 L 238.6206896551724,101.53846153846155 L 251.03448275862067,101.53846153846155 L 263.44827586206895,101.53846153846155 L 275.8620689655172,101.53846153846155 L 288.2758620689655,101.53846153846155 L 300.6896551724138,101.53846153846155 L 313.10344827586204,101.53846153846155 L 325.51724137931035,101.53846153846155 L 337.9310344827586,101.53846153846155 L 350.34482758620686,101.53846153846155 L 362.7586206896552,101.53846153846155 L 375.17241379310343,40.0 L 387.58620689655174,40.0 L 400.0,40.0 L 412.4137931034483,40.0 L 424.8275862068965,40.0 L 437.2413793103448,40.0 L 449.65517241379314,40.0 L 462.06896551724134,40.0 L 474.48275862068965,40.0 L 486.89655172413796,40.0 L 499.3103448275862,40.0 L 511.7241379310345,40.0 L 524.1379310344828,40.0 L 536.551724137931,40.0 L 548.9655172413793,40.0 L 561.3793103448276,40.0 L 573.7931034482759,40.0 L 586.2068965517241,40.0 L 598.6206896551724,40.0 L 611.0344827586207,40.0 L 623.448275862069,40.0 L 635.8620689655172,40.0 L 648.2758620689656,40.0 L 660.6896551724137,40.0 L 673.1034482758621,40.0 L 685.5172413793103,40.0 L 697.9310344827586,40.0 L 710.3448275862069,40.0 L 722.7586206896552,40.0 L 735.1724137931035,40.0 L 747.5862068965517,40.0 L 760.0,40.0" class="line"/>
  <circle cx="40.0" cy="101.53846153846155" class="point"/>
  <text x="40.0" y="375" class="label" text-anchor="middle">2025-11-11</text>
  <text x="40.0" y="96.53846153846155" class="label" text-anchor="middle">42</text>
  <circle cx="52.41379310344828" cy="101.53846153846155" class="point"/>
  <text x="52.41379310344828" y="375" class="label" text-anchor="middle">2025-11-12</text>
  <text x="52.41379310344828" y="96.53846153846155" class="label" text-anchor="middle">42</text>
  <circle cx="64.82758620689656" cy="101.53846153846155" class="point"/>
  <text x="64.82758620689656" y="375" class="label" text-anchor="middle">2025-11-13</text>
  <text x="64.82758620689656" y="96.53846153846155" class="label" text-anchor="middle">42</text>
  <circle cx="77.24137931034483" cy="101.53846153846155" class="point"/>
  <text x="77.24137931034483" y="375" class="label" text-anchor="middle">2025-11-14</text>
  <text x="77.24137931034483" y="96.53846153846155" class="label" text-anchor="middle">42</text>
  <circle cx="89.65517241379311" cy="101.53846153846155" class="point"/>
  <text x="89.65517241379311" y="375" class="label" text-anchor="middle">2025-11-15</text>
  <text x="89.65517241379311" y="96.53846153846155" class="label" text-anchor="middle">42</text>
  <circle cx="102.06896551724138" cy="101.53846153846155" class="point"/>
  <text x="102.06896551724138" y="375" class="label" text-anchor="middle">2025-11-16</text>
  <text x="102.06896551724138" y="96.53846153846155" class="label" text-anchor="middle">42</text>
  <circle cx="114.48275862068965" cy="101.53846153846155" class="point"/>
  <text x="114.48275862068965" y="375" class="label" text-anchor="middle">2025-11-17</text>
  <text x="114.48275862068965" y="96.53846153846155" class="label" text-anchor="middle">42</text>
  <circle cx="126.89655172413794" cy="101.53846153846155" class="point"/>
  <text x="126.89655172413794" y="375" class="label" text-anchor="middle">2025-11-18</text>
  <text x="126.89655172413794" y="96.53846153846155" class="label" text-anchor="middle">42</text>
  <circle cx="139.31034482758622" cy="101.53846153846155" class="point"/>
  <text x="139.31034482758622" y="375" class="label" text-anchor="middle">2025-11-19</text>
  <text x="139.31034482758622" y="96.53846153846155" class="label" text-anchor="middle">42</text>
  <circle cx="151.72413793103448" cy="101.53846153846155" class="point"/>
  <text x="151.72413793103448" y="375" class="label" text-anchor="middle">2025-11-20</text>
  <text x="151.72413793103448" y="96.53846153846155" class="label" text-anchor="middle">42</text>
  <circle cx="164.13793103448276" cy="101.53846153846155" class="point"/>
  <text x="164.13793103448276" y="375" class="label" text-anchor="middle">2025-11-21</text>
  <text x="164.13793103448276" y="96.53846153846155" class="label" text-anchor="middle">42</text>
  <circle cx="176.55172413793102" cy="101.53846153846155" class="point"/>
  <text x="176.55172413793102" y="375" class="label" text-anchor="middle">2025-11-22</text>
  <text x="176.55172413793102" y="96.53846153846155" class="label" text-anchor="middle">42</text>
  <circle cx="188.9655172413793" cy="101.53846153846155" class="point"/>
  <text x="188.9655172413793" y="375" class="label" text-anchor="middle">2025-11-23</text>
  <text x="188.9655172413793" y="96.53846153846155" class="label" text-anchor="middle">42</text>
  <circle cx="201.3793103448276" cy="101.53846153846155" class="point"/>
  <text x="201.3793103448276" y="375" class="label" text-anchor="middle">2025-11-24</text>
  <text x="201.3793103448276" y="96.53846153846155" class="label" text-anchor="middle">42</text>
  <circle cx="213.79310344827587" cy="101.53846153846155" class="point"/>
  <text x="213.79310344827587" y="375" class="label" text-anchor="middle">2025-11-25</text>
  <text x="213.79310344827587" y="96.53846153846155" class="label" text-anchor="middle">42</text>
  <circle cx="226.20689655172416" cy="101.53846153846155" class="point"/>
  <text x="226.20689655172416" y="375" class="label" text-anchor="middle">2025-11-26</text>
  <text x="226.20689655172416" y="96.53846153846155" class="label" text-anchor="middle">42</text>
  <circle cx="238.6206896551724" cy="101.53846153846155" class="point"/>
  <text x="238.6206896551724" y="375" class="label" text-anchor="middle">2025-11-27</text>
  <text x="238.6206896551724" y="96.53846153846155" class="label" text-anchor="middle">42</text>
  <circle cx="251.03448275862067" cy="101.53846153846155" class="point"/>
  <text x="251.03448275862067" y="375" class="label" text-anchor="middle">2025-11-28</text>
  <text x="251.03448275862067" y="96.53846153846155" class="label" text-anchor="middle">42</text>
  <circle cx="263.44827586206895" cy="101.53846153846155" class="point"/>
  <text x="263.44827586206895" y="375" class="label" text-anchor="middle">2025-11-29</text>
  <text x="263.44827586206895" y="96.53846153846155" class="label" text-anchor="middle">42</text>
  <circle cx="275.8620689655172" cy="101.53846153846155" class="point"/>
  <text x="275.8620689655172" y="375" class="label" text-anchor="middle">2025-11-30</text>
  <text x="275.8620689655172" y="96.53846153846155" class="label" text-anchor="middle">42</text>
  <circle cx="288.2758620689655" cy="101.53846153846155" class="point"/>
  <text x="288.2758620689655" y="375" class="label" text-anchor="middle">2025-12-01</text>
  <text x="288.2758620689655" y="96.53846153846155" class="label" text-anchor="middle">42</text>
  <circle cx="300.6896551724138" cy="101.53846153846155" class="point"/>
  <text x="300.6896551724138" y="375" class="label" text-anchor="middle">2025-12-02</text>
  <text x="300.6896551724138" y="96.53846153846155" class="label" text-anchor="middle">42</text>
  <circle cx="313.10344827586204" cy="101.53846153846155" class="point"/>
  <text x="313.10344827586204" y="375" class="label" text-anchor="middle">2025-12-03</text>
  <text x="313.10344827586204" y="96.53846153846155" class="label" text-anchor="middle">42</text>
  <circle cx="325.51724137931035" cy="101.53846153846155" class="point"/>
  <text x="325.51724137931035" y="375" class="label" text-anchor="middle">2025-12-04</text>
  <text x="325.51724137931035" y="96.53846153846155" class="label" text-anchor="middle">42</text>
  <circle cx="337.9310344827586" cy="101.53846153846155" class="point"/>
  <text x="337.9310344827586" y="375" class="label" text-anchor="middle">2025-12-05</text>
  <text x="337.9310344827586" y="96.53846153846155" class="label" text-anchor="middle">42</text>
  <circle cx="350.34482758620686" cy="101.53846153846155" class="point"/>
  <text x="350.34482758620686" y="375" class="label" text-anchor="middle">2025-12-06</text>
  <text x="350.34482758620686" y="96.53846153846155" class="label" text-anchor="middle">42</text>
  <circle cx="362.7586206896552" cy="101.53846153846155" class="point"/>
  <text x="362.7586206896552" y="375" class="label" text-anchor="middle">2025-12-07</text>
  <text x="362.7586206896552" y="96.53846153846155" class="label" text-anchor="middle">42</text>
  <circle cx="375.17241379310343" cy="40.0" class="point"/>
  <text x="375.17241379310343" y="375" class="label" text-anchor="middle">2025-12-08</text>
  <text x="375.17241379310343" y="35.0" class="label" text-anchor="middle">52</text>
  <circle cx="387.58620689655174" cy="40.0" class="point"/>
  <text x="387.58620689655174" y="375" class="label" text-anchor="middle">2025-12-09</text>
  <text x="387.58620689655174" y="35.0" class="label" text-anchor="middle">52</text>
  <circle cx="400.0" cy="40.0" class="point"/>
  <text x="400.0" y="375" class="label" text-anchor="middle">2025-12-10</text>
  <text x="400.0" y="35.0" class="label" text-anchor="middle">52</text>
  <circle cx="412.4137931034483" cy="40.0" class="point"/>
  <text x="412.4137931034483" y="375" class="label" text-anchor="middle">2025-12-11</text>
  <text x="412.4137931034483" y="35.0" class="label" text-anchor="middle">52</text>
  <circle cx="424.8275862068965" cy="40.0" class="point"/>
  <text x="424.8275862068965" y="375" class="label" text-anchor="middle">2025-12-12</text>
  <text x="424.8275862068965" y="35.0" class="label" text-anchor="middle">52</text>
  <circle cx="437.2413793103448" cy="40.0" class="point"/>
  <text x="437.2413793103448" y="375" class="label" text-anchor="middle">2025-12-13</text>
  <text x="437.2413793103448" y="35.0" class="label" text-anchor="middle">52</text>
  <circle cx="449.65517241379314" cy="40.0" class="point"/>
  <text x="449.65517241379314" y="375" class="label" text-anchor="middle">2025-12-14</text>
  <text x="449.65517241379314" y="35.0" class="label" text-anchor="middle">52</text>
  <circle cx="462.06896551724134" cy="40.0" class="point"/>
  <text x="462.06896551724134" y="375" class="label" text-anchor="middle">2025-12-15</text>
  <text x="462.06896551724134" y="35.0" class="label" text-anchor="middle">52</text>
  <circle cx="474.48275862068965" cy="40.0" class="point"/>
  <text x="474.48275862068965" y="375" class="label" text-anchor="middle">2025-12-16</text>
  <text x="474.48275862068965" y="35.0" class="label" text-anchor="middle">52</text>
  <circle cx="486.89655172413796" cy="40.0" class="point"/>
  <text x="486.89655172413796" y="375" class="label" text-anchor="middle">2025-12-17</text>
  <text x="486.89655172413796" y="35.0" class="label" text-anchor="middle">52</text>
  <circle cx="499.3103448275862" cy="40.0" class="point"/>
  <text x="499.3103448275862" y="375" class="label" text-anchor="middle">2025-12-18</text>
  <text x="499.3103448275862" y="35.0" class="label" text-anchor="middle">52</text>
  <circle cx="511.7241379310345" cy="40.0" class="point"/>
  <text x="511.7241379310345" y="375" class="label" text-anchor="middle">2025-12-19</text>
  <text x="511.7241379310345" y="35.0" class="label" text-anchor="middle">52</text>
  <circle cx="524.1379310344828" cy="40.0" class="point"/>
  <text x="524.1379310344828" y="375" class="label" text-anchor="middle">2025-12-20</text>
  <text x="524.1379310344828" y="35.0" class="label" text-anchor="middle">52</text>
  <circle cx="536.551724137931" cy="40.0" class="point"/>
  <text x="536.551724137931" y="375" class="label" text-anchor="middle">2025-12-21</text>
  <text x="536.551724137931" y="35.0" class="label" text-anchor="middle">52</text>
  <circle cx="548.9655172413793" cy="40.0" class="point"/>
  <text x="548.9655172413793" y="375" class="label" text-anchor="middle">2025-12-22</text>
  <text x="548.9655172413793" y="35.0" class="label" text-anchor="middle">52</text>
  <circle cx="561.3793103448276" cy="40.0" class="point"/>
  <text x="561.3793103448276" y="375" class="label" text-anchor="middle">2025-12-23</text>
  <text x="561.3793103448276" y="35.0" class="label" text-anchor="middle">52</text>
  <circle cx="573.7931034482759" cy="40.0" class="point"/>
  <text x="573.7931034482759" y="375" class="label" text-anchor="middle">2025-12-24</text>
  <text x="573.7931034482759" y="35.0" class="label" text-anchor="middle">52</text>
  <circle cx="586.2068965517241" cy="40.0" class="point"/>
  <text x="586.2068965517241" y="375" class="label" text-anchor="middle">2025-12-25</text>
  <text x="586.2068965517241" y="35.0" class="label" text-anchor="middle">52</text>
  <circle cx="598.6206896551724" cy="40.0" class="point"/>
  <text x="598.6206896551724" y="375" class="label" text-anchor="middle">2025-12-26</text>
  <text x="598.6206896551724" y="35.0" class="label" text-anchor="middle">52</text>
  <circle cx="611.0344827586207" cy="40.0" class="point"/>
  <text x="611.0344827586207" y="375" class="label" text-anchor="middle">2025-12-27</text>
  <text x="611.0344827586207" y="35.0" class="label" text-anchor="middle">52</text>
  <circle cx="623.448275862069" cy="40.0" class="point"/>
  <text x="623.448275862069" y="375" class="label" text-anchor="middle">2025-12-28</text>
  <text x="623.448275862069" y="35.0" class="label" text-anchor="middle">52</text>
  <circle cx="635.8620689655172" cy="40.0" class="point"/>
  <text x="635.8620689655172" y="375" class="label" text-anchor="middle">2025-12-29</text>
  <text x="635.8620689655172" y="35.0" class="label" text-anchor="middle">52</text>
  <circle cx="648.2758620689656" cy="40.0" class="point"/>
  <text x="648.2758620689656" y="375" class="label" text-anchor="middle">2025-12-30</text>
  <text x="648.2758620689656" y="35.0" class="label" text-anchor="middle">52</text>
  <circle cx="660.6896551724137" cy="40.0" class="point"/>
  <text x="660.6896551724137" y="375" class="label" text-anchor="middle">2025-12-31</text>
  <text x="660.6896551724137" y="35.0" class="label" text-anchor="middle">52</text>
  <circle cx="673.1034482758621" cy="40.0" class="point"/>
  <text x="673.1034482758621" y="375" class="label" text-anchor="middle">2026-01-01</text>
  <text x="673.1034482758621" y="35.0" class="label" text-anchor="middle">52</text>
  <circle cx="685.5172413793103" cy="40.0" class="point"/>
  <text x="685.5172413793103" y="375" class="label" text-anchor="middle">2026-01-02</text>
  <text x="685.5172413793103" y="35.0" class="label" text-anchor="middle">52</text>
  <circle cx="697.9310344827586" cy="40.0" class="point"/>
  <text x="697.9310344827586" y="375" class="label" text-anchor="middle">2026-01-03</text>
  <text x="697.9310344827586" y="35.0" class="label" text-anchor="middle">52</text>
  <circle cx="710.3448275862069" cy="40.0" class="point"/>
  <text x="710.3448275862069" y="375" class="label" text-anchor="middle">2026-01-04</text>
  <text x="710.3448275862069" y="35.0" class="label" text-anchor="middle">52</text>
  <circle cx="722.7586206896552" cy="40.0" class="point"/>
  <text x="722.7586206896552" y="375" class="label" text-anchor="middle">2026-01-05</text>
  <text x="722.7586206896552" y="35.0" class="label" text-anchor="middle">52</text>
  <circle cx="735.1724137931035" cy="40.0" class="point"/>
  <text x="735.1724137931035" y="375" class="label" text-anchor="middle">2026-01-06</text>
  <text x="735.1724137931035" y="35.0" class="label" text-anchor="middle">52</text>
  <circle cx="747.5862068965517" cy="40.0" class="point"/>
  <text x="747.5862068965517" y="375" class="label" text-anchor="middle">2026-01-07</text>
  <text x="747.5862068965517" y="35.0" class="label" text-anchor="middle">52</text>
  <circle cx="760.0" cy="40.0" class="point"/>
  <text x="760.0" y="375" class="label" text-anchor="middle">2026-01-08</text>
  <text x="760.0" y="35.0" class="label" text-anchor="middle">52</text>
  <text x="30" y="363.0" class="label" text-anchor="end">0</text>
  <text x="30" y="301.46153846153845" class="label" text-anchor="end">10</text>
  <text x="30" y="239.9230769230769" class="label" text-anchor="end">20</text>
  <text x="30" y="178.38461538461542" class="label" text-anchor="end">30</text>
  <text x="30" y="116.84615384615384" class="label" text-anchor="end">40</text>
  <text x="30" y="55.30769230769232" class="label" text-anchor="end">50</text>
</svg>