<svg xmlns="http://www.w3.org/2000/svg" width="800" height="400" viewBox="0 0 800 400">
  <style>
    .axis{stroke:#666;stroke-width:1}
    .line{stroke:#4a9;stroke-width:2;fill:none}
    .point{fill:#4a9;r:4}
    .label{font:10px sans-serif;fill:#aaa}
    .title{font:14px sans-serif;fill:#333}
  </style>
  <text x="400" y="20" class="title" text-anchor="middle">OPIC Field Growth Timeline</text>
  <line x1="40" y1="40" x2="40" y2="360" class="axis"/>
  <line x1="40" y1="360" x2="760" y2="360" class="axis"/>
  <path d="M 40.0,101.53846153846155 L 45.333333333333336,101.53846153846155 L 50.66666666666667,101.53846153846155 L 56.0,101.53846153846155 L 61.333333333333336,101.53846153846155 L 66.66666666666666,101.53846153846155 L 72.0,101.53846153846155 L 77.33333333333334,101.53846153846155 L 82.66666666666667,101.53846153846155 L 88.0,101.53846153846155 L 93.33333333333333,101.53846153846155 L 98.66666666666667,101.53846153846155 L 104.0,101.53846153846155 L 109.33333333333333,101.53846153846155 L 114.66666666666667,101.53846153846155 L 120.0,101.53846153846155 L 125.33333333333334,101.53846153846155 L 130.66666666666666,101.53846153846155 L 136.0,101.53846153846155 L 141.33333333333334,101.53846153846155 L 146.66666666666666,101.53846153846155 L 152.0,101.53846153846155 L 157.33333333333334,101.53846153846155 L 162.66666666666666,101.53846153846155 L 168.0,101.53846153846155 L 173.33333333333331,101.53846153846155 L 178.66666666666666,101.53846153846155 L 184.0,40.0 L 189.33333333333334,40.0 L 194.66666666666666,40.0 L 200.0,40.0 L 205.33333333333334,40.0 L 210.66666666666669,40.0 L 216.0,40.0 L 221.33333333333331,40.0 L 226.66666666666666,40.0 L 232.0,40.0 L 237.33333333333334,40.0 L 242.66666666666669,40.0 L 247.99999999999997,40.0 L 253.33333333333331,40.0 L 258.66666666666663,40.0 L 264.0,40.0 L 269.33333333333337,40.0 L 274.6666666666667,40.0 L 280.0,40.0 L 285.3333333333333,40.0 L 290.66666666666663,40.0 L 296.0,40.0 L 301.33333333333337,40.0 L 306.66666666666663,40.0 L 312.0,40.0 L 317.3333333333333,40.0 L 322.6666666666667,40.0 L 328.0,40.0 L 333.3333333333333,40.0 L 338.6666666666667,40.0 L 344.0,40.0 L 349.3333333333333,40.0 L 354.6666666666667,40.0 L 360.0,40.0 L 365.3333333333333,40.0 L 370.6666666666667,40.0 L 376.0,40.0 L 381.33333333333337,40.0 L 386.66666666666663,40.0 L 392.0,40.0 L 397.3333333333333,40.0 L 402.66666666666663,40.0 L 408.0,40.0 L 413.3333333333333,40.0 L 418.66666666666663,40.0 L 424.0,40.0 L 429.3333333333333,40.0 L 434.6666666666667,40.0 L 440.0,40.0 L 445.33333333333337,40.0 L 450.6666666666667,40.0 L 455.99999999999994,40.0 L 461.3333333333333,40.0 L 466.66666666666663,40.0 L 472.0,40.0 L 477.3333333333333,40.0 L 482.6666666666667,40.0 L 488.0,40.0 L 493.33333333333337,40.0 L 498.6666666666667,40.0 L 504.00000000000006,40.0 L 509.33333333333337,40.0 L 514.6666666666666,40.0 L 520.0,40.0 L 525.3333333333333,40.0 L 530.6666666666666,40.0 L 536.0,40.0 L 541.3333333333333,40.0 L 546.6666666666667,40.0 L 552.0,40.0 L 557.3333333333334,40.0 L 562.6666666666667,40.0 L 568.0,40.0 L 573.3333333333333,40.0 L 578.6666666666666,40.0 L 584.0,40.0 L 589.3333333333334,40.0 L 594.6666666666666,40.0 L 600.0,40.0 L 605.3333333333334,40.0 L 610.6666666666667,40.0 L 616.0,40.0 L 621.3333333333334,40.0 L 626.6666666666666,40.0 L 632.0,40.0 L 637.3333333333334,40.0 L 642.6666666666666,40.0 L 648.0,40.0 L 653.3333333333334,40.0 L 658.6666666666666,40.0 L 664.0,40.0 L 669.3333333333334,40.0 L 674.6666666666667,40.0 L 680.0,40.0 L 685.3333333333333,40.0 L 690.6666666666666,40.0 L 696.0,40.0 L 701.3333333333334,40.0 L 706.6666666666666,40.0 L 712.0,40.0 L 717.3333333333334,40.0 L 722.6666666666667,40.0 L 728.0,40.0 L 733.3333333333333,40.0 L 738.6666666666666,40.0 L 744.0,40.0 L 749.3333333333334,40.0 L 754.6666666666666,40.0 L 760.0,40.0" class="line"/>
  <circle cx="40.0" cy="101.53846153846155" class="point"/>
  <text x="40.0" y="375" class="label" text-anchor="middle">2025-11-11</text>
  <text x="40.0" y="96.53846153846155" class="label" text-anchor="middle">42</text>
  <circle cx="45.333333333333336" cy="101.53846153846155" class="point"/>
  <text x="45.333333333333336" y="375" class="label" text-anchor="middle">2025-11-12</text>
  <text x="45.333333333333336" y="96.53846153846155" class="label" text-anchor="middle">42</text>
  <circle cx="50.66666666666667" cy="101.53846153846155" class="point"/>
  <text x="50.66666666666667" y="375" class="label" text-anchor="middle">2025-11-13</text>
  <text x="50.66666666666667" y="96.53846153846155" class="label" text-anchor="middle">42</text>
  <circle cx="56.0" cy="101.53846153846155" class="point"/>
  <text x="56.0" y="375" class="label" text-anchor="middle">2025-11-14</text>
  <text x="56.0" y="96.53846153846155" class="label" text-anchor="middle">42</text>
  <circle cx="61.333333333333336" cy="101.53846153846155" class="point"/>
  <text x="61.333333333333336" y="375" class="label" text-anchor="middle">2025-11-15</text>
  <text x="61.333333333333336" y="96.53846153846155" class="label" text-anchor="middle">42</text>
  <circle cx="66.66666666666666" cy="101.53846153846155" class="point"/>
  <text x="66.66666666666666" y="375" class="label" text-anchor="middle">2025-11-16</text>
  <text x="66.66666666666666" y="96.53846153846155" class="label" text-anchor="middle">42</text>
  <circle cx="72.0" cy="101.53846153846155" class="point"/>
  <text x="72.0" y="375" class="label" text-anchor="middle">2025-11-17</text>
  <text x="72.0" y="96.53846153846155" class="label" text-anchor="middle">42</text>
  <circle cx="77.33333333333334" cy="101.53846153846155" class="point"/>
  <text x="77.33333333333334" y="375" class="label" text-anchor="middle">2025-11-18</text>
  <text x="77.33333333333334" y="96.53846153846155" class="label" text-anchor="middle">42</text>
  <circle cx="82.66666666666667" cy="101.53846153846155" class="point"/>
  <text x="82.66666666666667" y="375" class="label" text-anchor="middle">2025-11-19</text>
  <text x="82.66666666666667" y="96.53846153846155" class="label" text-anchor="middle">42</text>
  <circle cx="88.0" cy="101.53846153846155" class="point"/>
  <text x="88.0" y="375" class="label" text-anchor="middle">2025-11-20</text>
  <text x="88.0" y="96.53846153846155" class="label" text-anchor="middle">42</text>
  <circle cx="93.33333333333333" cy="101.53846153846155" class="point"/>
  <text x="93.33333333333333" y="375" class="label" text-anchor="middle">2025-11-21</text>
  <text x="93.33333333333333" y="96.53846153846155" class="label" text-anchor="middle">42</text>
  <circle cx="98.66666666666667" cy="101.53846153846155" class="point"/>
  <text x="98.66666666666667" y="375" class="label" text-anchor="middle">2025-11-22</text>
  <text x="98.66666666666667" y="96.53846153846155" class="label" text-anchor="middle">42</text>
  <circle cx="104.0" cy="101.53846153846155" class="point"/>
  <text x="104.0" y="375" class="label" text-anchor="middle">2025-11-23</text>
  <text x="104.0" y="96.53846153846155" class="label" text-anchor="middle">42</text>
  <circle cx="109.33333333333333" cy="101.53846153846155" class="point"/>
  <text x="109.33333333333333" y="375" class="label" text-anchor="middle">2025-11-24</text>
  <text x="109.33333333333333" y="96.53846153846155" class="label" text-anchor="middle">42</text>
  <circle cx="114.66666666666667" cy="101.53846153846155" class="point"/>
  <text x="114.66666666666667" y="375" class="label" text-anchor="middle">2025-11-25</text>
  <text x="114.66666666666667" y="96.53846153846155" class="label" text-anchor="middle">42</text>
  <circle cx="120.0" cy="101.53846153846155" class="point"/>
  <text x="120.0" y="375" class="label" text-anchor="middle">2025-11-26</text>
  <text x="120.0" y="96.53846153846155" class="label" text-anchor="middle">42</text>
  <circle cx="125.33333333333334" cy="101.53846153846155" class="point"/>
  <text x="125.33333333333334" y="375" class="label" text-anchor="middle">2025-11-27</text>
  <text x="125.33333333333334" y="96.53846153846155" class="label" text-anchor="middle">42</text>
  <circle cx="130.66666666666666" cy="101.53846153846155" class="point"/>
  <text x="130.66666666666666" y="375" class="label" text-anchor="middle">2025-11-28</text>
  <text x="130.66666666666666" y="96.53846153846155" class="label" text-anchor="middle">42</text>
  <circle cx="136.0" cy="101.53846153846155" class="point"/>
  <text x="136.0" y="375" class="label" text-anchor="middle">2025-11-29</text>
  <text x="136.0" y="96.53846153846155" class="label" text-anchor="middle">42</text>
  <circle cx="141.33333333333334" cy="101.53846153846155" class="point"/>
  <text x="141.33333333333334" y="375" class="label" text-anchor="middle">2025-11-30</text>
  <text x="141.33333333333334" y="96.53846153846155" class="label" text-anchor="middle">42</text>
  <circle cx="146.66666666666666" cy="101.53846153846155" class="point"/>
  <text x="146.66666666666666" y="375" class="label" text-anchor="middle">2025-12-01</text>
  <text x="146.66666666666666" y="96.53846153846155" class="label" text-anchor="middle">42</text>
  <circle cx="152.0" cy="101.53846153846155" class="point"/>
  <text x="152.0" y="375" class="label" text-anchor="middle">2025-12-02</text>
  <text x="152.0" y="96.53846153846155" class="label" text-anchor="middle">42</text>
  <circle cx="157.33333333333334" cy="101.53846153846155" class="point"/>
  <text x="157.33333333333334" y="375" class="label" text-anchor="middle">2025-12-03</text>
  <text x="157.33333333333334" y="96.53846153846155" class="label" text-anchor="middle">42</text>
  <circle cx="162.66666666666666" cy="101.53846153846155" class="point"/>
  <text x="162.66666666666666" y="375" class="label" text-anchor="middle">2025-12-04</text>
  <text x="162.66666666666666" y="96.53846153846155" class="label" text-anchor="middle">42</text>
  <circle cx="168.0" cy="101.53846153846155" class="point"/>
  <text x="168.0" y="375" class="label" text-anchor="middle">2025-12-05</text>
  <text x="168.0" y="96.53846153846155" class="label" text-anchor="middle">42</text>
  <circle cx="173.33333333333331" cy="101.53846153846155" class="point"/>
  <text x="173.33333333333331" y="375" class="label" text-anchor="middle">2025-12-06</text>
  <text x="173.33333333333331" y="96.53846153846155" class="label" text-anchor="middle">42</text>
  <circle cx="178.66666666666666" cy="101.53846153846155" class="point"/>
  <text x="178.66666666666666" y="375" class="label" text-anchor="middle">2025-12-07</text>
  <text x="178.66666666666666" y="96.53846153846155" class="label" text-anchor="middle">42</text>
  <circle cx="184.0" cy="40.0" class="point"/>
  <text x="184.0" y="375" class="label" text-anchor="middle">2025-12-08</text>
  <text x="184.0" y="35.0" class="label" text-anchor="middle">52</text>
  <circle cx="189.33333333333334" cy="40.0" class="point"/>
  <text x="189.33333333333334" y="375" class="label" text-anchor="middle">2025-12-09</text>
  <text x="189.33333333333334" y="35.0" class="label" text-anchor="middle">52</text>
  <circle cx="194.66666666666666" cy="40.0" class="point"/>
  <text x="194.66666666666666" y="375" class="label" text-anchor="middle">2025-12-10</text>
  <text x="194.66666666666666" y="35.0" class="label" text-anchor="middle">52</text>
  <circle cx="200.0" cy="40.0" class="point"/>
  <text x="200.0" y="375" class="label" text-anchor="middle">2025-12-11</text>
  <text x="200.0" y="35.0" class="label" text-anchor="middle">52</text>
  <circle cx="205.33333333333334" cy="40.0" class="point"/>
  <text x="205.33333333333334" y="375" class="label" text-anchor="middle">2025-12-12</text>
  <text x="205.33333333333334" y="35.0" class="label" text-anchor="middle">52</text>
  <circle cx="210.66666666666669" cy="40.0" class="point"/>
  <text x="210.66666666666669" y="375" class="label" text-anchor="middle">2025-12-13</text>
  <text x="210.66666666666669" y="35.0" class="label" text-anchor="middle">52</text>
  <circle cx="216.0" cy="40.0" class="point"/>
  <text x="216.0" y="375" class="label" text-anchor="middle">2025-12-14</text>
  <text x="216.0" y="35.0" class="label" text-anchor="middle">52</text>
  <circle cx="221.33333333333331" cy="40.0" class="point"/>
  <text x="221.33333333333331" y="375" class="label" text-anchor="middle">2025-12-15</text>
  <text x="221.33333333333331" y="35.0" class="label" text-anchor="middle">52</text>
  <circle cx="226.66666666666666" cy="40.0" class="point"/>
  <text x="226.66666666666666" y="375" class="label" text-anchor="middle">2025-12-16</text>
  <text x="226.66666666666666" y="35.0" class="label" text-anchor="middle">52</text>
  <circle cx="232.0" cy="40.0" class="point"/>
  <text x="232.0" y="375" class="label" text-anchor="middle">2025-12-17</text>
  <text x="232.0" y="35.0" class="label" text-anchor="middle">52</text>
  <circle cx="237.33333333333334" cy="40.0" class="point"/>
  <text x="237.33333333333334" y="375" class="label" text-anchor="middle">2025-12-18</text>
  <text x="237.33333333333334" y="35.0" class="label" text-anchor="middle">52</text>
  <circle cx="242.66666666666669" cy="40.0" class="point"/>
  <text x="242.66666666666669" y="375" class="label" text-anchor="middle">2025-12-19</text>
  <text x="242.66666666666669" y="35.0" class="label" text-anchor="middle">52</text>
  <circle cx="247.99999999999997" cy="40.0" class="point"/>
  <text x="247.99999999999997" y="375" class="label" text-anchor="middle">2025-12-20</text>
  <text x="247.99999999999997" y="35.0" class="label" text-anchor="middle">52</text>
  <circle cx="253.33333333333331" cy="40.0" class="point"/>
  <text x="253.33333333333331" y="375" class="label" text-anchor="middle">2025-12-21</text>
  <text x="253.33333333333331" y="35.0" class="label" text-anchor="middle">52</text>
  <circle cx="258.66666666666663" cy="40.0" class="point"/>
  <text x="258.66666666666663" y="375" class="label" text-anchor="middle">2025-12-22</text>
  <text x="258.66666666666663" y="35.0" class="label" text-anchor="middle">52</text>
  <circle cx="264.0" cy="40.0" class="point"/>
  <text x="264.0" y="375" class="label" text-anchor="middle">2025-12-23</text>
  <text x="264.0" y="35.0" class="label" text-anchor="middle">52</text>
  <circle cx="269.33333333333337" cy="40.0" class="point"/>
  <text x="269.33333333333337" y="375" class="label" text-anchor="middle">2025-12-24</text>
  <text x="269.33333333333337" y="35.0" class="label" text-anchor="middle">52</text>
  <circle cx="274.6666666666667" cy="40.0" class="point"/>
  <text x="274.6666666666667" y="375" class="label" text-anchor="middle">2025-12-25</text>
  <text x="274.6666666666667" y="35.0" class="label" text-anchor="middle">52</text>
  <circle cx="280.0" cy="40.0" class="point"/>
  <text x="280.0" y="375" class="label" text-anchor="middle">2025-12-26</text>
  <text x="280.0" y="35.0" class="label" text-anchor="middle">52</text>
  <circle cx="285.3333333333333" cy="40.0" class="point"/>
  <text x="285.3333333333333" y="375" class="label" text-anchor="middle">2025-12-27</text>
  <text x="285.3333333333333" y="35.0" class="label" text-anchor="middle">52</text>
  <circle cx="290.66666666666663" cy="40.0" class="point"/>
  <text x="290.66666666666663" y="375" class="label" text-anchor="middle">2025-12-28</text>
  <text x="290.66666666666663" y="35.0" class="label" text-anchor="middle">52</text>
  <circle cx="296.0" cy="40.0" class="point"/>
  <text x="296.0" y="375" class="label" text-anchor="middle">2025-12-29</text>
  <text x="296.0" y="35.0" class="label" text-anchor="middle">52</text>
  <circle cx="301.33333333333337" cy="40.0" class="point"/>
  <text x="301.33333333333337" y="375" class="label" text-anchor="middle">2025-12-30</text>
  <text x="301.33333333333337" y="35.0" class="label" text-anchor="middle">52</text>
  <circle cx="306.66666666666663" cy="40.0" class="point"/>
  <text x="306.66666666666663" y="375" class="label" text-anchor="middle">2025-12-31</text>
  <text x="306.66666666666663" y="35.0" class="label" text-anchor="middle">52</text>
  <circle cx="312.0" cy="40.0" class="point"/>
  <text x="312.0" y="375" class="label" text-anchor="middle">2026-01-01</text>
  <text x="312.0" y="35.0" class="label" text-anchor="middle">52</text>
  <circle cx="317.3333333333333" cy="40.0" class="point"/>
  <text x="317.3333333333333" y="375" class="label" text-anchor="middle">2026-01-02</text>
  <text x="317.3333333333333" y="35.0" class="label" text-anchor="middle">52</text>
  <circle cx="322.6666666666667" cy="40.0" class="point"/>
  <text x="322.6666666666667" y="375" class="label" text-anchor="middle">2026-01-03</text>
  <text x="322.6666666666667" y="35.0" class="label" text-anchor="middle">52</text>
  <circle cx="328.0" cy="40.0" class="point"/>
  <text x="328.0" y="375" class="label" text-anchor="middle">2026-01-04</text>
  <text x="328.0" y="35.0" class="label" text-anchor="middle">52</text>
  <circle cx="333.3333333333333" cy="40.0" class="point"/>
  <text x="333.3333333333333" y="375" class="label" text-anchor="middle">2026-01-05</text>
  <text x="333.3333333333333" y="35.0" class="label" text-anchor="middle">52</text>
  <circle cx="338.6666666666667" cy="40.0" class="point"/>
  <text x="338.6666666666667" y="375" class="label" text-anchor="middle">2026-01-06</text>
  <text x="338.6666666666667" y="35.0" class="label" text-anchor="middle">52</text>
  <circle cx="344.0" cy="40.0" class="point"/>
  <text x="344.0" y="375" class="label" text-anchor="middle">2026-01-07</text>
  <text x="344.0" y="35.0" class="label" text-anchor="middle">52</text>
  <circle cx="349.3333333333333" cy="40.0" class="point"/>
  <text x="349.3333333333333" y="375" class="label" text-anchor="middle">2026-01-08</text>
  <text x="349.3333333333333" y="35.0" class="label" text-anchor="middle">52</text>
  <circle cx="354.6666666666667" cy="40.0" class="point"/>
  <text x="354.6666666666667" y="375" class="label" text-anchor="middle">2026-01-09</text>
  <text x="354.6666666666667" y="35.0" class="label" text-anchor="middle">52</text>
  <circle cx="360.0" cy="40.0" class="point"/>
  <text x="360.0" y="375" class="label" text-anchor="middle">2026-01-10</text>
  <text x="360.0" y="35.0" class="label" text-anchor="middle">52</text>
  <circle cx="365.3333333333333" cy="40.0" class="point"/>
  <text x="365.3333333333333" y="375" class="label" text-anchor="middle">2026-01-11</text>
  <text x="365.3333333333333" y="35.0" class="label" text-anchor="middle">52</text>
  <circle cx="370.6666666666667" cy="40.0" class="point"/>
  <text x="370.6666666666667" y="375" class="label" text-anchor="middle">2026-01-12</text>
  <text x="370.6666666666667" y="35.0" class="label" text-anchor="middle">52</text>
  <circle cx="376.0" cy="40.0" class="point"/>
  <text x="376.0" y="375" class="label" text-anchor="middle">2026-01-13</text>
  <text x="376.0" y="35.0" class="label" text-anchor="middle">52</text>
  <circle cx="381.33333333333337" cy="40.0" class="point"/>
  <text x="381.33333333333337" y="375" class="label" text-anchor="middle">2026-01-14</text>
  <text x="381.33333333333337" y="35.0" class="label" text-anchor="middle">52</text>
  <circle cx="386.66666666666663" cy="40.0" class="point"/>
  <text x="386.66666666666663" y="375" class="label" text-anchor="middle">2026-01-15</text>
  <text x="386.66666666666663" y="35.0" class="label" text-anchor="middle">52</text>
  <circle cx="392.0" cy="40.0" class="point"/>
  <text x="392.0" y="375" class="label" text-anchor="middle">2026-01-16</text>
  <text x="392.0" y="35.0" class="label" text-anchor="middle">52</text>
  <circle cx="397.3333333333333" cy="40.0" class="point"/>
  <text x="397.3333333333333" y="375" class="label" text-anchor="middle">2026-01-17</text>
  <text x="397.3333333333333" y="35.0" class="label" text-anchor="middle">52</text>
  <circle cx="402.66666666666663" cy="40.0" class="point"/>
  <text x="402.66666666666663" y="375" class="label" text-anchor="middle">2026-01-18</text>
  <text x="402.66666666666663" y="35.0" class="label" text-anchor="middle">52</text>
  <circle cx="408.0" cy="40.0" class="point"/>
  <text x="408.0" y="375" class="label" text-anchor="middle">2026-01-19</text>
  <text x="408.0" y="35.0" class="label" text-anchor="middle">52</text>
  <circle cx="413.3333333333333" cy="40.0" class="point"/>
  <text x="413.3333333333333" y="375" class="label" text-anchor="middle">2026-01-20</text>
  <text x="413.3333333333333" y="35.0" class="label" text-anchor="middle">52</text>
  <circle cx="418.66666666666663" cy="40.0" class="point"/>
  <text x="418.66666666666663" y="375" class="label" text-anchor="middle">2026-01-21</text>
  <text x="418.66666666666663" y="35.0" class="label" text-anchor="middle">52</text>
  <circle cx="424.0" cy="40.0" class="point"/>
  <text x="424.0" y="375" class="label" text-anchor="middle">2026-01-22</text>
  <text x="424.0" y="35.0" class="label" text-anchor="middle">52</text>
  <circle cx="429.3333333333333" cy="40.0" class="point"/>
  <text x="429.3333333333333" y="375" class="label" text-anchor="middle">2026-01-23</text>
  <text x="429.3333333333333" y="35.0" class="label" text-anchor="middle">52</text>
  <circle cx="434.6666666666667" cy="40.0" class="point"/>
  <text x="434.6666666666667" y="375" class="label" text-anchor="middle">2026-01-24</text>
  <text x="434.6666666666667" y="35.0" class="label" text-anchor="middle">52</text>
  <circle cx="440.0" cy="40.0" class="point"/>
  <text x="440.0" y="375" class="label" text-anchor="middle">2026-01-25</text>
  <text x="440.0" y="35.0" class="label" text-anchor="middle">52</text>
  <circle cx="445.33333333333337" cy="40.0" class="point"/>
  <text x="445.33333333333337" y="375" class="label" text-anchor="middle">2026-01-26</text>
  <text x="445.33333333333337" y="35.0" class="label" text-anchor="middle">52</text>
  <circle cx="450.6666666666667" cy="40.0" class="point"/>
  <text x="450.6666666666667" y="375" class="label" text-anchor="middle">2026-01-27</text>
  <text x="450.6666666666667" y="35.0" class="label" text-anchor="middle">52</text>
  <circle cx="455.99999999999994" cy="40.0" class="point"/>
  <text x="455.99999999999994" y="375" class="label" text-anchor="middle">2026-01-28</text>
  <text x="455.99999999999994" y="35.0" class="label" text-anchor="middle">52</text>
  <circle cx="461.3333333333333" cy="40.0" class="point"/>
  <text x="461.3333333333333" y="375" class="label" text-anchor="middle">2026-01-29</text>
  <text x="461.3333333333333" y="35.0" class="label" text-anchor="middle">52</text>
  <circle cx="466.66666666666663" cy="40.0" class="point"/>
  <text x="466.66666666666663" y="375" class="label" text-anchor="middle">2026-01-30</text>
  <text x="466.66666666666663" y="35.0" class="label" text-anchor="middle">52</text>
  <circle cx="472.0" cy="40.0" class="point"/>
  <text x="472.0" y="375" class="label" text-anchor="middle">2026-01-31</text>
  <text x="472.0" y="35.0" class="label" text-anchor="middle">52</text>
  <circle cx="477.3333333333333" cy="40.0" class="point"/>
  <text x="477.3333333333333" y="375" class="label" text-anchor="middle">2026-02-01</text>
  <text x="477.3333333333333" y="35.0" class="label" text-anchor="middle">52</text>
  <circle cx="482.6666666666667" cy="40.0" class="point"/>
  <text x="482.6666666666667" y="375" class="label" text-anchor="middle">2026-02-02</text>
  <text x="482.6666666666667" y="35.0" class="label" text-anchor="middle">52</text>
  <circle cx="488.0" cy="40.0" class="point"/>
  <text x="488.0" y="375" class="label" text-anchor="middle">2026-02-03</text>
  <text x="488.0" y="35.0" class="label" text-anchor="middle">52</text>
  <circle cx="493.33333333333337" cy="40.0" class="point"/>
  <text x="493.33333333333337" y="375" class="label" text-anchor="middle">2026-02-04</text>
  <text x="493.33333333333337" y="35.0" class="label" text-anchor="middle">52</text>
  <circle cx="498.6666666666667" cy="40.0" class="point"/>
  <text x="498.6666666666667" y="375" class="label" text-anchor="middle">2026-02-05</text>
  <text x="498.6666666666667" y="35.0" class="label" text-anchor="middle">52</text>
  <circle cx="504.00000000000006" cy="40.0" class="point"/>
  <text x="504.00000000000006" y="375" class="label" text-anchor="middle">2026-02-06</text>
  <text x="504.00000000000006" y="35.0" class="label" text-anchor="middle">52</text>
  <circle cx="509.33333333333337" cy="40.0" class="point"/>
  <text x="509.33333333333337" y="375" class="label" text-anchor="middle">2026-02-07</text>
  <text x="509.33333333333337" y="35.0" class="label" text-anchor="middle">52</text>
  <circle cx="514.6666666666666" cy="40.0" class="point"/>
  <text x="514.6666666666666" y="375" class="label" text-anchor="middle">2026-02-08</text>
  <text x="514.6666666666666" y="35.0" class="label" text-anchor="middle">52</text>
  <circle cx="520.0" cy="40.0" class="point"/>
  <text x="520.0" y="375" class="label" text-anchor="middle">2026-02-09</text>
  <text x="520.0" y="35.0" class="label" text-anchor="middle">52</text>
  <circle cx="525.3333333333333" cy="40.0" class="point"/>
  <text x="525.3333333333333" y="375" class="label" text-anchor="middle">2026-02-10</text>
  <text x="525.3333333333333" y="35.0" class="label" text-anchor="middle">52</text>
  <circle cx="530.6666666666666" cy="40.0" class="point"/>
  <text x="530.6666666666666" y="375" class="label" text-anchor="middle">2026-02-11</text>
  <text x="530.6666666666666" y="35.0" class="label" text-anchor="middle">52</text>
  <circle cx="536.0" cy="40.0" class="point"/>
  <text x="536.0" y="375" class="label" text-anchor="middle">2026-02-12</text>
  <text x="536.0" y="35.0" class="label" text-anchor="middle">52</text>
  <circle cx="541.3333333333333" cy="40.0" class="point"/>
  <text x="541.3333333333333" y="375" class="label" text-anchor="middle">2026-02-13</text>
  <text x="541.3333333333333" y="35.0" class="label" text-anchor="middle">52</text>
  <circle cx="546.6666666666667" cy="40.0" class="point"/>
  <text x="546.6666666666667" y="375" class="label" text-anchor="middle">2026-02-14</text>
  <text x="546.6666666666667" y="35.0" class="label" text-anchor="middle">52</text>
  <circle cx="552.0" cy="40.0" class="point"/>
  <text x="552.0" y="375" class="label" text-anchor="middle">2026-02-15</text>
  <text x="552.0" y="35.0" class="label" text-anchor="middle">52</text>
  <circle cx="557.3333333333334" cy="40.0" class="point"/>
  <text x="557.3333333333334" y="375" class="label" text-anchor="middle">2026-02-16</text>
  <text x="557.3333333333334" y="35.0" class="label" text-anchor="middle">52</text>
  <circle cx="562.6666666666667" cy="40.0" class="point"/>
  <text x="562.6666666666667" y="375" class="label" text-anchor="middle">2026-02-17</text>
  <text x="562.6666666666667" y="35.0" class="label" text-anchor="middle">52</text>
  <circle cx="568.0" cy="40.0" class="point"/>
  <text x="568.0" y="375" class="label" text-anchor="middle">2026-02-18</text>
  <text x="568.0" y="35.0" class="label" text-anchor="middle">52</text>
  <circle cx="573.3333333333333" cy="40.0" class="point"/>
  <text x="573.3333333333333" y="375" class="label" text-anchor="middle">2026-02-19</text>
  <text x="573.3333333333333" y="35.0" class="label" text-anchor="middle">52</text>
  <circle cx="578.6666666666666" cy="40.0" class="point"/>
  <text x="578.6666666666666" y="375" class="label" text-anchor="middle">2026-02-20</text>
  <text x="578.6666666666666" y="35.0" class="label" text-anchor="middle">52</text>
  <circle cx="584.0" cy="40.0" class="point"/>
  <text x="584.0" y="375" class="label" text-anchor="middle">2026-02-21</text>
  <text x="584.0" y="35.0" class="label" text-anchor="middle">52</text>
  <circle cx="589.3333333333334" cy="40.0" class="point"/>
  <text x="589.3333333333334" y="375" class="label" text-anchor="middle">2026-02-22</text>
  <text x="589.3333333333334" y="35.0" class="label" text-anchor="middle">52</text>
  <circle cx="594.6666666666666" cy="40.0" class="point"/>
  <text x="594.6666666666666" y="375" class="label" text-anchor="middle">2026-02-23</text>
  <text x="594.6666666666666" y="35.0" class="label" text-anchor="middle">52</text>
  <circle cx="600.0" cy="40.0" class="point"/>
  <text x="600.0" y="375" class="label" text-anchor="middle">2026-02-24</text>
  <text x="600.0" y="35.0" class="label" text-anchor="middle">52</text>
  <circle cx="605.3333333333334" cy="40.0" class="point"/>
  <text x="605.3333333333334" y="375" class="label" text-anchor="middle">2026-02-25</text>
  <text x="605.3333333333334" y="35.0" class="label" text-anchor="middle">52</text>
  <circle cx="610.6666666666667" cy="40.0" class="point"/>
  <text x="610.6666666666667" y="375" class="label" text-anchor="middle">2026-02-26</text>
  <text x="610.6666666666667" y="35.0" class="label" text-anchor="middle">52</text>
  <circle cx="616.0" cy="40.0" class="point"/>
  <text x="616.0" y="375" class="label" text-anchor="middle">2026-02-27</text>
  <text x="616.0" y="35.0" class="label" text-anchor="middle">52</text>
  <circle cx="621.3333333333334" cy="40.0" class="point"/>
  <text x="621.3333333333334" y="375" class="label" text-anchor="middle">2026-02-28</text>
  <text x="621.3333333333334" y="35.0" class="label" text-anchor="middle">52</text>
  <circle cx="626.6666666666666" cy="40.0" class="point"/>
  <text x="626.6666666666666" y="375" class="label" text-anchor="middle">2026-03-01</text>
  <text x="626.6666666666666" y="35.0" class="label" text-anchor="middle">52</text>
  <circle cx="632.0" cy="40.0" class="point"/>
  <text x="632.0" y="375" class="label" text-anchor="middle">2026-03-02</text>
  <text x="632.0" y="35.0" class="label" text-anchor="middle">52</text>
  <circle cx="637.3333333333334" cy="40.0" class="point"/>
  <text x="637.3333333333334" y="375" class="label" text-anchor="middle">2026-03-03</text>
  <text x="637.3333333333334" y="35.0" class="label" text-anchor="middle">52</text>
  <circle cx="642.6666666666666" cy="40.0" class="point"/>
  <text x="642.6666666666666" y="375" class="label" text-anchor="middle">2026-03-04</text>
  <text x="642.6666666666666" y="35.0" class="label" text-anchor="middle">52</text>
  <circle cx="648.0" cy="40.0" class="point"/>
  <text x="648.0" y="375" class="label" text-anchor="middle">2026-03-05</text>
  <text x="648.0" y="35.0" class="label" text-anchor="middle">52</text>
  <circle cx="653.3333333333334" cy="40.0" class="point"/>
  <text x="653.3333333333334" y="375" class="label" text-anchor="middle">2026-03-06</text>
  <text x="653.3333333333334" y="35.0" class="label" text-anchor="middle">52</text>
  <circle cx="658.6666666666666" cy="40.0" class="point"/>
  <text x="658.6666666666666" y="375" class="label" text-anchor="middle">2026-03-07</text>
  <text x="658.6666666666666" y="35.0" class="label" text-anchor="middle">52</text>
  <circle cx="664.0" cy="40.0" class="point"/>
  <text x="664.0" y="375" class="label" text-anchor="middle">2026-03-08</text>
  <text x="664.0" y="35.0" class="label" text-anchor="middle">52</text>
  <circle cx="669.3333333333334" cy="40.0" class="point"/>
  <text x="669.3333333333334" y="375" class="label" text-anchor="middle">2026-03-09</text>
  <text x="669.3333333333334" y="35.0" class="label" text-anchor="middle">52</text>
  <circle cx="674.6666666666667" cy="40.0" class="point"/>
  <text x="674.6666666666667" y="375" class="label" text-anchor="middle">2026-03-10</text>
  <text x="674.6666666666667" y="35.0" class="label" text-anchor="middle">52</text>
  <circle cx="680.0" cy="40.0" class="point"/>
  <text x="680.0" y="375" class="label" text-anchor="middle">2026-03-11</text>
  <text x="680.0" y="35.0" class="label" text-anchor="middle">52</text>
  <circle cx="685.3333333333333" cy="40.0" class="point"/>
  <text x="685.3333333333333" y="375" class="label" text-anchor="middle">2026-03-12</text>
  <text x="685.3333333333333" y="35.0" class="label" text-anchor="middle">52</text>
  <circle cx="690.6666666666666" cy="40.0" class="point"/>
  <text x="690.6666666666666" y="375" class="label" text-anchor="middle">2026-03-13</text>
  <text x="690.6666666666666" y="35.0" class="label" text-anchor="middle">52</text>
  <circle cx="696.0" cy="40.0" class="point"/>
  <text x="696.0" y="375" class="label" text-anchor="middle">2026-03-14</text>
  <text x="696.0" y="35.0" class="label" text-anchor="middle">52</text>
  <circle cx="701.3333333333334" cy="40.0" class="point"/>
  <text x="701.3333333333334" y="375" class="label" text-anchor="middle">2026-03-15</text>
  <text x="701.3333333333334" y="35.0" class="label" text-anchor="middle">52</text>
  <circle cx="706.6666666666666" cy="40.0" class="point"/>
  <text x="706.6666666666666" y="375" class="label" text-anchor="middle">2026-03-16</text>
  <text x="706.6666666666666" y="35.0" class="label" text-anchor="middle">52</text>
  <circle cx="712.0" cy="40.0" class="point"/>
  <text x="712.0" y="375" class="label" text-anchor="middle">2026-03-17</text>
  <text x="712.0" y="35.0" class="label" text-anchor="middle">52</text>
  <circle cx="717.3333333333334" cy="40.0" class="point"/>
  <text x="717.3333333333334" y="375" class="label" text-anchor="middle">2026-03-18</text>
  <text x="717.3333333333334" y="35.0" class="label" text-anchor="middle">52</text>
  <circle cx="722.6666666666667" cy="40.0" class="point"/>
  <text x="722.6666666666667" y="375" class="label" text-anchor="middle">2026-03-19</text>
  <text x="722.6666666666667" y="35.0" class="label" text-anchor="middle">52</text>
  <circle cx="728.0" cy="40.0" class="point"/>
  <text x="728.0" y="375" class="label" text-anchor="middle">2026-03-20</text>
  <text x="728.0" y="35.0" class="label" text-anchor="middle">52</text>
  <circle cx="733.3333333333333" cy="40.0" class="point"/>
  <text x="733.3333333333333" y="375" class="label" text-anchor="middle">2026-03-21</text>
  <text x="733.3333333333333" y="35.0" class="label" text-anchor="middle">52</text>
  <circle cx="738.6666666666666" cy="40.0" class="point"/>
  <text x="738.6666666666666" y="375" class="label" text-anchor="middle">2026-03-22</text>
  <text x="738.6666666666666" y="35.0" class="label" text-anchor="middle">52</text>
  <circle cx="744.0" cy="40.0" class="point"/>
  <text x="744.0" y="375" class="label" text-anchor="middle">2026-03-23</text>
  <text x="744.0" y="35.0" class="label" text-anchor="middle">52</text>
  <circle cx="749.3333333333334" cy="40.0" class="point"/>
  <text x="749.3333333333334" y="375" class="label" text-anchor="middle">2026-03-24</text>
  <text x="749.3333333333334" y="35.0" class="label" text-anchor="middle">52</text>
  <circle cx="754.6666666666666" cy="40.0" class="point"/>
  <text x="754.6666666666666" y="375" class="label" text-anchor="middle">2026-03-25</text>
  <text x="754.6666666666666" y="35.0" class="label" text-anchor="middle">52</text>
  <circle cx="760.0" cy="40.0" class="point"/>
  <text x="760.0" y="375" class="label" text-anchor="middle">2026-03-26</text>
  <text x="760.0" y="35.0" class="label" text-anchor="middle">52</text>
  <text x="30" y="363.0" class="label" text-anchor="end">0</text>
  <text x="30" y="301.46153846153845" class="label" text-anchor="end">10</text>
  <text x="30" y="239.9230769230769" class="label" text-anchor="end">20</text>
  <text x="30" y="178.38461538461542" class="label" text-anchor="end">30</text>
  <text x="30" y="116.84615384615384" class="label" text-anchor="end">40</text>
  <text x="30" y="55.30769230769232" class="label" text-anchor="end">50</text>
</svg>