<svg xmlns="http://www.w3.org/2000/svg" width="800" height="400" viewBox="0 0 800 400">
  <style>
    .axis{stroke:#666;stroke-width:1}
    .line{stroke:#4a9;stroke-width:2;fill:none}
    .point{fill:#4a9;r:4}
    .label{font:10px sans-serif;fill:#aaa}
    .title{font:14px sans-serif;fill:#333}
  </style>
  <text x="400" y="20" class="title" text-anchor="middle">OPIC Field Growth Timeline</text>
  <line x1="40" y1="40" x2="40" y2="360" class="axis"/>
  <line x1="40" y1="360" x2="760" y2="360" class="axis"/>
  <path d="M 40.0,101.53846153846155 L 44.528301886792455,101.53846153846155 L 49.056603773584904,101.53846153846155 L 53.58490566037736,101.53846153846155 L 58.11320754716981,101.53846153846155 L 62.64150943396226,101.53846153846155 L 67.16981132075472,101.53846153846155 L 71.69811320754717,101.53846153846155 L 76.22641509433961,101.53846153846155 L 80.75471698113208,101.53846153846155 L 85.28301886792453,101.53846153846155 L 89.81132075471697,101.53846153846155 L 94.33962264150944,101.53846153846155 L 98.86792452830188,101.53846153846155 L 103.39622641509433,101.53846153846155 L 107.9245283018868,101.53846153846155 L 112.45283018867924,101.53846153846155 L 116.9811320754717,101.53846153846155 L 121.50943396226415,101.53846153846155 L 126.0377358490566,101.53846153846155 L 130.56603773584905,101.53846153846155 L 135.0943396226415,101.53846153846155 L 139.62264150943395,101.53846153846155 L 144.1509433962264,101.53846153846155 L 148.67924528301887,101.53846153846155 L 153.20754716981133,101.53846153846155 L 157.73584905660377,101.53846153846155 L 162.2641509433962,40.0 L 166.79245283018867,40.0 L 171.32075471698113,40.0 L 175.8490566037736,40.0 L 180.37735849056605,40.0 L 184.9056603773585,40.0 L 189.43396226415095,40.0 L 193.9622641509434,40.0 L 198.49056603773585,40.0 L 203.0188679245283,40.0 L 207.54716981132077,40.0 L 212.0754716981132,40.0 L 216.60377358490567,40.0 L 221.1320754716981,40.0 L 225.66037735849056,40.0 L 230.18867924528303,40.0 L 234.71698113207546,40.0 L 239.24528301886792,40.0 L 243.77358490566039,40.0 L 248.30188679245282,40.0 L 252.83018867924528,40.0 L 257.35849056603774,40.0 L 261.88679245283015,40.0 L 266.41509433962267,40.0 L 270.9433962264151,40.0 L 275.47169811320754,40.0 L 280.0,40.0 L 284.5283018867924,40.0 L 289.0566037735849,40.0 L 293.58490566037733,40.0 L 298.1132075471698,40.0 L 302.64150943396226,40.0 L 307.1698113207547,40.0 L 311.6981132075472,40.0 L 316.22641509433964,40.0 L 320.7547169811321,40.0 L 325.28301886792457,40.0 L 329.811320754717,40.0 L 334.33962264150944,40.0 L 338.8679245283019,40.0 L 343.39622641509436,40.0 L 347.9245283018868,40.0 L 352.45283018867923,40.0 L 356.9811320754717,40.0 L 361.50943396226415,40.0 L 366.0377358490566,40.0 L 370.5660377358491,40.0 L 375.09433962264154,40.0 L 379.62264150943395,40.0 L 384.1509433962264,40.0 L 388.6792452830189,40.0 L 393.20754716981133,40.0 L 397.7358490566038,40.0 L 402.2641509433962,40.0 L 406.79245283018867,40.0 L 411.3207547169811,40.0 L 415.8490566037736,40.0 L 420.37735849056605,40.0 L 424.90566037735846,40.0 L 429.4339622641509,40.0 L 433.9622641509434,40.0 L 438.49056603773585,40.0 L 443.0188679245283,40.0 L 447.54716981132077,40.0 L 452.0754716981132,40.0 L 456.60377358490564,40.0 L 461.1320754716981,40.0 L 465.66037735849056,40.0 L 470.188679245283,40.0 L 474.71698113207543,40.0 L 479.2452830188679,40.0 L 483.77358490566036,40.0 L 488.3018867924528,40.0 L 492.8301886792453,40.0 L 497.3584905660377,40.0 L 501.88679245283015,40.0 L 506.4150943396226,40.0 L 510.9433962264151,40.0 L 515.4716981132076,40.0 L 520.0,40.0 L 524.5283018867924,40.0 L 529.0566037735848,40.0 L 533.5849056603773,40.0 L 538.1132075471698,40.0 L 542.6415094339623,40.0 L 547.1698113207547,40.0 L 551.6981132075471,40.0 L 556.2264150943396,40.0 L 560.754716981132,40.0 L 565.2830188679245,40.0 L 569.8113207547169,40.0 L 574.3396226415094,40.0 L 578.8679245283018,40.0 L 583.3962264150944,40.0 L 587.9245283018869,40.0 L 592.4528301886793,40.0 L 596.9811320754717,40.0 L 601.5094339622642,40.0 L 606.0377358490566,40.0 L 610.5660377358491,40.0 L 615.0943396226415,40.0 L 619.622641509434,40.0 L 624.1509433962265,40.0 L 628.6792452830189,40.0 L 633.2075471698114,40.0 L 637.7358490566038,40.0 L 642.2641509433962,40.0 L 646.7924528301887,40.0 L 651.3207547169811,40.0 L 655.8490566037736,40.0 L 660.377358490566,40.0 L 664.9056603773585,40.0 L 669.433962264151,40.0 L 673.9622641509434,40.0 L 678.4905660377359,40.0 L 683.0188679245283,40.0 L 687.5471698113208,40.0 L 692.0754716981132,40.0 L 696.6037735849056,40.0 L 701.1320754716982,40.0 L 705.6603773584906,40.0 L 710.1886792452831,40.0 L 714.7169811320755,40.0 L 719.2452830188679,40.0 L 723.7735849056604,40.0 L 728.3018867924528,40.0 L 732.8301886792453,40.0 L 737.3584905660377,40.0 L 741.8867924528302,40.0 L 746.4150943396227,40.0 L 750.9433962264151,40.0 L 755.4716981132076,40.0 L 760.0,40.0" class="line"/>
  <circle cx="40.0" cy="101.53846153846155" class="point"/>
  <text x="40.0" y="375" class="label" text-anchor="middle">2025-11-11</text>
  <text x="40.0" y="96.53846153846155" class="label" text-anchor="middle">42</text>
  <circle cx="44.528301886792455" cy="101.53846153846155" class="point"/>
  <text x="44.528301886792455" y="375" class="label" text-anchor="middle">2025-11-12</text>
  <text x="44.528301886792455" y="96.53846153846155" class="label" text-anchor="middle">42</text>
  <circle cx="49.056603773584904" cy="101.53846153846155" class="point"/>
  <text x="49.056603773584904" y="375" class="label" text-anchor="middle">2025-11-13</text>
  <text x="49.056603773584904" y="96.53846153846155" class="label" text-anchor="middle">42</text>
  <circle cx="53.58490566037736" cy="101.53846153846155" class="point"/>
  <text x="53.58490566037736" y="375" class="label" text-anchor="middle">2025-11-14</text>
  <text x="53.58490566037736" y="96.53846153846155" class="label" text-anchor="middle">42</text>
  <circle cx="58.11320754716981" cy="101.53846153846155" class="point"/>
  <text x="58.11320754716981" y="375" class="label" text-anchor="middle">2025-11-15</text>
  <text x="58.11320754716981" y="96.53846153846155" class="label" text-anchor="middle">42</text>
  <circle cx="62.64150943396226" cy="101.53846153846155" class="point"/>
  <text x="62.64150943396226" y="375" class="label" text-anchor="middle">2025-11-16</text>
  <text x="62.64150943396226" y="96.53846153846155" class="label" text-anchor="middle">42</text>
  <circle cx="67.16981132075472" cy="101.53846153846155" class="point"/>
  <text x="67.16981132075472" y="375" class="label" text-anchor="middle">2025-11-17</text>
  <text x="67.16981132075472" y="96.53846153846155" class="label" text-anchor="middle">42</text>
  <circle cx="71.69811320754717" cy="101.53846153846155" class="point"/>
  <text x="71.69811320754717" y="375" class="label" text-anchor="middle">2025-11-18</text>
  <text x="71.69811320754717" y="96.53846153846155" class="label" text-anchor="middle">42</text>
  <circle cx="76.22641509433961" cy="101.53846153846155" class="point"/>
  <text x="76.22641509433961" y="375" class="label" text-anchor="middle">2025-11-19</text>
  <text x="76.22641509433961" y="96.53846153846155" class="label" text-anchor="middle">42</text>
  <circle cx="80.75471698113208" cy="101.53846153846155" class="point"/>
  <text x="80.75471698113208" y="375" class="label" text-anchor="middle">2025-11-20</text>
  <text x="80.75471698113208" y="96.53846153846155" class="label" text-anchor="middle">42</text>
  <circle cx="85.28301886792453" cy="101.53846153846155" class="point"/>
  <text x="85.28301886792453" y="375" class="label" text-anchor="middle">2025-11-21</text>
  <text x="85.28301886792453" y="96.53846153846155" class="label" text-anchor="middle">42</text>
  <circle cx="89.81132075471697" cy="101.53846153846155" class="point"/>
  <text x="89.81132075471697" y="375" class="label" text-anchor="middle">2025-11-22</text>
  <text x="89.81132075471697" y="96.53846153846155" class="label" text-anchor="middle">42</text>
  <circle cx="94.33962264150944" cy="101.53846153846155" class="point"/>
  <text x="94.33962264150944" y="375" class="label" text-anchor="middle">2025-11-23</text>
  <text x="94.33962264150944" y="96.53846153846155" class="label" text-anchor="middle">42</text>
  <circle cx="98.86792452830188" cy="101.53846153846155" class="point"/>
  <text x="98.86792452830188" y="375" class="label" text-anchor="middle">2025-11-24</text>
  <text x="98.86792452830188" y="96.53846153846155" class="label" text-anchor="middle">42</text>
  <circle cx="103.39622641509433" cy="101.53846153846155" class="point"/>
  <text x="103.39622641509433" y="375" class="label" text-anchor="middle">2025-11-25</text>
  <text x="103.39622641509433" y="96.53846153846155" class="label" text-anchor="middle">42</text>
  <circle cx="107.9245283018868" cy="101.53846153846155" class="point"/>
  <text x="107.9245283018868" y="375" class="label" text-anchor="middle">2025-11-26</text>
  <text x="107.9245283018868" y="96.53846153846155" class="label" text-anchor="middle">42</text>
  <circle cx="112.45283018867924" cy="101.53846153846155" class="point"/>
  <text x="112.45283018867924" y="375" class="label" text-anchor="middle">2025-11-27</text>
  <text x="112.45283018867924" y="96.53846153846155" class="label" text-anchor="middle">42</text>
  <circle cx="116.9811320754717" cy="101.53846153846155" class="point"/>
  <text x="116.9811320754717" y="375" class="label" text-anchor="middle">2025-11-28</text>
  <text x="116.9811320754717" y="96.53846153846155" class="label" text-anchor="middle">42</text>
  <circle cx="121.50943396226415" cy="101.53846153846155" class="point"/>
  <text x="121.50943396226415" y="375" class="label" text-anchor="middle">2025-11-29</text>
  <text x="121.50943396226415" y="96.53846153846155" class="label" text-anchor="middle">42</text>
  <circle cx="126.0377358490566" cy="101.53846153846155" class="point"/>
  <text x="126.0377358490566" y="375" class="label" text-anchor="middle">2025-11-30</text>
  <text x="126.0377358490566" y="96.53846153846155" class="label" text-anchor="middle">42</text>
  <circle cx="130.56603773584905" cy="101.53846153846155" class="point"/>
  <text x="130.56603773584905" y="375" class="label" text-anchor="middle">2025-12-01</text>
  <text x="130.56603773584905" y="96.53846153846155" class="label" text-anchor="middle">42</text>
  <circle cx="135.0943396226415" cy="101.53846153846155" class="point"/>
  <text x="135.0943396226415" y="375" class="label" text-anchor="middle">2025-12-02</text>
  <text x="135.0943396226415" y="96.53846153846155" class="label" text-anchor="middle">42</text>
  <circle cx="139.62264150943395" cy="101.53846153846155" class="point"/>
  <text x="139.62264150943395" y="375" class="label" text-anchor="middle">2025-12-03</text>
  <text x="139.62264150943395" y="96.53846153846155" class="label" text-anchor="middle">42</text>
  <circle cx="144.1509433962264" cy="101.53846153846155" class="point"/>
  <text x="144.1509433962264" y="375" class="label" text-anchor="middle">2025-12-04</text>
  <text x="144.1509433962264" y="96.53846153846155" class="label" text-anchor="middle">42</text>
  <circle cx="148.67924528301887" cy="101.53846153846155" class="point"/>
  <text x="148.67924528301887" y="375" class="label" text-anchor="middle">2025-12-05</text>
  <text x="148.67924528301887" y="96.53846153846155" class="label" text-anchor="middle">42</text>
  <circle cx="153.20754716981133" cy="101.53846153846155" class="point"/>
  <text x="153.20754716981133" y="375" class="label" text-anchor="middle">2025-12-06</text>
  <text x="153.20754716981133" y="96.53846153846155" class="label" text-anchor="middle">42</text>
  <circle cx="157.73584905660377" cy="101.53846153846155" class="point"/>
  <text x="157.73584905660377" y="375" class="label" text-anchor="middle">2025-12-07</text>
  <text x="157.73584905660377" y="96.53846153846155" class="label" text-anchor="middle">42</text>
  <circle cx="162.2641509433962" cy="40.0" class="point"/>
  <text x="162.2641509433962" y="375" class="label" text-anchor="middle">2025-12-08</text>
  <text x="162.2641509433962" y="35.0" class="label" text-anchor="middle">52</text>
  <circle cx="166.79245283018867" cy="40.0" class="point"/>
  <text x="166.79245283018867" y="375" class="label" text-anchor="middle">2025-12-09</text>
  <text x="166.79245283018867" y="35.0" class="label" text-anchor="middle">52</text>
  <circle cx="171.32075471698113" cy="40.0" class="point"/>
  <text x="171.32075471698113" y="375" class="label" text-anchor="middle">2025-12-10</text>
  <text x="171.32075471698113" y="35.0" class="label" text-anchor="middle">52</text>
  <circle cx="175.8490566037736" cy="40.0" class="point"/>
  <text x="175.8490566037736" y="375" class="label" text-anchor="middle">2025-12-11</text>
  <text x="175.8490566037736" y="35.0" class="label" text-anchor="middle">52</text>
  <circle cx="180.37735849056605" cy="40.0" class="point"/>
  <text x="180.37735849056605" y="375" class="label" text-anchor="middle">2025-12-12</text>
  <text x="180.37735849056605" y="35.0" class="label" text-anchor="middle">52</text>
  <circle cx="184.9056603773585" cy="40.0" class="point"/>
  <text x="184.9056603773585" y="375" class="label" text-anchor="middle">2025-12-13</text>
  <text x="184.9056603773585" y="35.0" class="label" text-anchor="middle">52</text>
  <circle cx="189.43396226415095" cy="40.0" class="point"/>
  <text x="189.43396226415095" y="375" class="label" text-anchor="middle">2025-12-14</text>
  <text x="189.43396226415095" y="35.0" class="label" text-anchor="middle">52</text>
  <circle cx="193.9622641509434" cy="40.0" class="point"/>
  <text x="193.9622641509434" y="375" class="label" text-anchor="middle">2025-12-15</text>
  <text x="193.9622641509434" y="35.0" class="label" text-anchor="middle">52</text>
  <circle cx="198.49056603773585" cy="40.0" class="point"/>
  <text x="198.49056603773585" y="375" class="label" text-anchor="middle">2025-12-16</text>
  <text x="198.49056603773585" y="35.0" class="label" text-anchor="middle">52</text>
  <circle cx="203.0188679245283" cy="40.0" class="point"/>
  <text x="203.0188679245283" y="375" class="label" text-anchor="middle">2025-12-17</text>
  <text x="203.0188679245283" y="35.0" class="label" text-anchor="middle">52</text>
  <circle cx="207.54716981132077" cy="40.0" class="point"/>
  <text x="207.54716981132077" y="375" class="label" text-anchor="middle">2025-12-18</text>
  <text x="207.54716981132077" y="35.0" class="label" text-anchor="middle">52</text>
  <circle cx="212.0754716981132" cy="40.0" class="point"/>
  <text x="212.0754716981132" y="375" class="label" text-anchor="middle">2025-12-19</text>
  <text x="212.0754716981132" y="35.0" class="label" text-anchor="middle">52</text>
  <circle cx="216.60377358490567" cy="40.0" class="point"/>
  <text x="216.60377358490567" y="375" class="label" text-anchor="middle">2025-12-20</text>
  <text x="216.60377358490567" y="35.0" class="label" text-anchor="middle">52</text>
  <circle cx="221.1320754716981" cy="40.0" class="point"/>
  <text x="221.1320754716981" y="375" class="label" text-anchor="middle">2025-12-21</text>
  <text x="221.1320754716981" y="35.0" class="label" text-anchor="middle">52</text>
  <circle cx="225.66037735849056" cy="40.0" class="point"/>
  <text x="225.66037735849056" y="375" class="label" text-anchor="middle">2025-12-22</text>
  <text x="225.66037735849056" y="35.0" class="label" text-anchor="middle">52</text>
  <circle cx="230.18867924528303" cy="40.0" class="point"/>
  <text x="230.18867924528303" y="375" class="label" text-anchor="middle">2025-12-23</text>
  <text x="230.18867924528303" y="35.0" class="label" text-anchor="middle">52</text>
  <circle cx="234.71698113207546" cy="40.0" class="point"/>
  <text x="234.71698113207546" y="375" class="label" text-anchor="middle">2025-12-24</text>
  <text x="234.71698113207546" y="35.0" class="label" text-anchor="middle">52</text>
  <circle cx="239.24528301886792" cy="40.0" class="point"/>
  <text x="239.24528301886792" y="375" class="label" text-anchor="middle">2025-12-25</text>
  <text x="239.24528301886792" y="35.0" class="label" text-anchor="middle">52</text>
  <circle cx="243.77358490566039" cy="40.0" class="point"/>
  <text x="243.77358490566039" y="375" class="label" text-anchor="middle">2025-12-26</text>
  <text x="243.77358490566039" y="35.0" class="label" text-anchor="middle">52</text>
  <circle cx="248.30188679245282" cy="40.0" class="point"/>
  <text x="248.30188679245282" y="375" class="label" text-anchor="middle">2025-12-27</text>
  <text x="248.30188679245282" y="35.0" class="label" text-anchor="middle">52</text>
  <circle cx="252.83018867924528" cy="40.0" class="point"/>
  <text x="252.83018867924528" y="375" class="label" text-anchor="middle">2025-12-28</text>
  <text x="252.83018867924528" y="35.0" class="label" text-anchor="middle">52</text>
  <circle cx="257.35849056603774" cy="40.0" class="point"/>
  <text x="257.35849056603774" y="375" class="label" text-anchor="middle">2025-12-29</text>
  <text x="257.35849056603774" y="35.0" class="label" text-anchor="middle">52</text>
  <circle cx="261.88679245283015" cy="40.0" class="point"/>
  <text x="261.88679245283015" y="375" class="label" text-anchor="middle">2025-12-30</text>
  <text x="261.88679245283015" y="35.0" class="label" text-anchor="middle">52</text>
  <circle cx="266.41509433962267" cy="40.0" class="point"/>
  <text x="266.41509433962267" y="375" class="label" text-anchor="middle">2025-12-31</text>
  <text x="266.41509433962267" y="35.0" class="label" text-anchor="middle">52</text>
  <circle cx="270.9433962264151" cy="40.0" class="point"/>
  <text x="270.9433962264151" y="375" class="label" text-anchor="middle">2026-01-01</text>
  <text x="270.9433962264151" y="35.0" class="label" text-anchor="middle">52</text>
  <circle cx="275.47169811320754" cy="40.0" class="point"/>
  <text x="275.47169811320754" y="375" class="label" text-anchor="middle">2026-01-02</text>
  <text x="275.47169811320754" y="35.0" class="label" text-anchor="middle">52</text>
  <circle cx="280.0" cy="40.0" class="point"/>
  <text x="280.0" y="375" class="label" text-anchor="middle">2026-01-03</text>
  <text x="280.0" y="35.0" class="label" text-anchor="middle">52</text>
  <circle cx="284.5283018867924" cy="40.0" class="point"/>
  <text x="284.5283018867924" y="375" class="label" text-anchor="middle">2026-01-04</text>
  <text x="284.5283018867924" y="35.0" class="label" text-anchor="middle">52</text>
  <circle cx="289.0566037735849" cy="40.0" class="point"/>
  <text x="289.0566037735849" y="375" class="label" text-anchor="middle">2026-01-05</text>
  <text x="289.0566037735849" y="35.0" class="label" text-anchor="middle">52</text>
  <circle cx="293.58490566037733" cy="40.0" class="point"/>
  <text x="293.58490566037733" y="375" class="label" text-anchor="middle">2026-01-06</text>
  <text x="293.58490566037733" y="35.0" class="label" text-anchor="middle">52</text>
  <circle cx="298.1132075471698" cy="40.0" class="point"/>
  <text x="298.1132075471698" y="375" class="label" text-anchor="middle">2026-01-07</text>
  <text x="298.1132075471698" y="35.0" class="label" text-anchor="middle">52</text>
  <circle cx="302.64150943396226" cy="40.0" class="point"/>
  <text x="302.64150943396226" y="375" class="label" text-anchor="middle">2026-01-08</text>
  <text x="302.64150943396226" y="35.0" class="label" text-anchor="middle">52</text>
  <circle cx="307.1698113207547" cy="40.0" class="point"/>
  <text x="307.1698113207547" y="375" class="label" text-anchor="middle">2026-01-09</text>
  <text x="307.1698113207547" y="35.0" class="label" text-anchor="middle">52</text>
  <circle cx="311.6981132075472" cy="40.0" class="point"/>
  <text x="311.6981132075472" y="375" class="label" text-anchor="middle">2026-01-10</text>
  <text x="311.6981132075472" y="35.0" class="label" text-anchor="middle">52</text>
  <circle cx="316.22641509433964" cy="40.0" class="point"/>
  <text x="316.22641509433964" y="375" class="label" text-anchor="middle">2026-01-11</text>
  <text x="316.22641509433964" y="35.0" class="label" text-anchor="middle">52</text>
  <circle cx="320.7547169811321" cy="40.0" class="point"/>
  <text x="320.7547169811321" y="375" class="label" text-anchor="middle">2026-01-12</text>
  <text x="320.7547169811321" y="35.0" class="label" text-anchor="middle">52</text>
  <circle cx="325.28301886792457" cy="40.0" class="point"/>
  <text x="325.28301886792457" y="375" class="label" text-anchor="middle">2026-01-13</text>
  <text x="325.28301886792457" y="35.0" class="label" text-anchor="middle">52</text>
  <circle cx="329.811320754717" cy="40.0" class="point"/>
  <text x="329.811320754717" y="375" class="label" text-anchor="middle">2026-01-14</text>
  <text x="329.811320754717" y="35.0" class="label" text-anchor="middle">52</text>
  <circle cx="334.33962264150944" cy="40.0" class="point"/>
  <text x="334.33962264150944" y="375" class="label" text-anchor="middle">2026-01-15</text>
  <text x="334.33962264150944" y="35.0" class="label" text-anchor="middle">52</text>
  <circle cx="338.8679245283019" cy="40.0" class="point"/>
  <text x="338.8679245283019" y="375" class="label" text-anchor="middle">2026-01-16</text>
  <text x="338.8679245283019" y="35.0" class="label" text-anchor="middle">52</text>
  <circle cx="343.39622641509436" cy="40.0" class="point"/>
  <text x="343.39622641509436" y="375" class="label" text-anchor="middle">2026-01-17</text>
  <text x="343.39622641509436" y="35.0" class="label" text-anchor="middle">52</text>
  <circle cx="347.9245283018868" cy="40.0" class="point"/>
  <text x="347.9245283018868" y="375" class="label" text-anchor="middle">2026-01-18</text>
  <text x="347.9245283018868" y="35.0" class="label" text-anchor="middle">52</text>
  <circle cx="352.45283018867923" cy="40.0" class="point"/>
  <text x="352.45283018867923" y="375" class="label" text-anchor="middle">2026-01-19</text>
  <text x="352.45283018867923" y="35.0" class="label" text-anchor="middle">52</text>
  <circle cx="356.9811320754717" cy="40.0" class="point"/>
  <text x="356.9811320754717" y="375" class="label" text-anchor="middle">2026-01-20</text>
  <text x="356.9811320754717" y="35.0" class="label" text-anchor="middle">52</text>
  <circle cx="361.50943396226415" cy="40.0" class="point"/>
  <text x="361.50943396226415" y="375" class="label" text-anchor="middle">2026-01-21</text>
  <text x="361.50943396226415" y="35.0" class="label" text-anchor="middle">52</text>
  <circle cx="366.0377358490566" cy="40.0" class="point"/>
  <text x="366.0377358490566" y="375" class="label" text-anchor="middle">2026-01-22</text>
  <text x="366.0377358490566" y="35.0" class="label" text-anchor="middle">52</text>
  <circle cx="370.5660377358491" cy="40.0" class="point"/>
  <text x="370.5660377358491" y="375" class="label" text-anchor="middle">2026-01-23</text>
  <text x="370.5660377358491" y="35.0" class="label" text-anchor="middle">52</text>
  <circle cx="375.09433962264154" cy="40.0" class="point"/>
  <text x="375.09433962264154" y="375" class="label" text-anchor="middle">2026-01-24</text>
  <text x="375.09433962264154" y="35.0" class="label" text-anchor="middle">52</text>
  <circle cx="379.62264150943395" cy="40.0" class="point"/>
  <text x="379.62264150943395" y="375" class="label" text-anchor="middle">2026-01-25</text>
  <text x="379.62264150943395" y="35.0" class="label" text-anchor="middle">52</text>
  <circle cx="384.1509433962264" cy="40.0" class="point"/>
  <text x="384.1509433962264" y="375" class="label" text-anchor="middle">2026-01-26</text>
  <text x="384.1509433962264" y="35.0" class="label" text-anchor="middle">52</text>
  <circle cx="388.6792452830189" cy="40.0" class="point"/>
  <text x="388.6792452830189" y="375" class="label" text-anchor="middle">2026-01-27</text>
  <text x="388.6792452830189" y="35.0" class="label" text-anchor="middle">52</text>
  <circle cx="393.20754716981133" cy="40.0" class="point"/>
  <text x="393.20754716981133" y="375" class="label" text-anchor="middle">2026-01-28</text>
  <text x="393.20754716981133" y="35.0" class="label" text-anchor="middle">52</text>
  <circle cx="397.7358490566038" cy="40.0" class="point"/>
  <text x="397.7358490566038" y="375" class="label" text-anchor="middle">2026-01-29</text>
  <text x="397.7358490566038" y="35.0" class="label" text-anchor="middle">52</text>
  <circle cx="402.2641509433962" cy="40.0" class="point"/>
  <text x="402.2641509433962" y="375" class="label" text-anchor="middle">2026-01-30</text>
  <text x="402.2641509433962" y="35.0" class="label" text-anchor="middle">52</text>
  <circle cx="406.79245283018867" cy="40.0" class="point"/>
  <text x="406.79245283018867" y="375" class="label" text-anchor="middle">2026-01-31</text>
  <text x="406.79245283018867" y="35.0" class="label" text-anchor="middle">52</text>
  <circle cx="411.3207547169811" cy="40.0" class="point"/>
  <text x="411.3207547169811" y="375" class="label" text-anchor="middle">2026-02-01</text>
  <text x="411.3207547169811" y="35.0" class="label" text-anchor="middle">52</text>
  <circle cx="415.8490566037736" cy="40.0" class="point"/>
  <text x="415.8490566037736" y="375" class="label" text-anchor="middle">2026-02-02</text>
  <text x="415.8490566037736" y="35.0" class="label" text-anchor="middle">52</text>
  <circle cx="420.37735849056605" cy="40.0" class="point"/>
  <text x="420.37735849056605" y="375" class="label" text-anchor="middle">2026-02-03</text>
  <text x="420.37735849056605" y="35.0" class="label" text-anchor="middle">52</text>
  <circle cx="424.90566037735846" cy="40.0" class="point"/>
  <text x="424.90566037735846" y="375" class="label" text-anchor="middle">2026-02-04</text>
  <text x="424.90566037735846" y="35.0" class="label" text-anchor="middle">52</text>
  <circle cx="429.4339622641509" cy="40.0" class="point"/>
  <text x="429.4339622641509" y="375" class="label" text-anchor="middle">2026-02-05</text>
  <text x="429.4339622641509" y="35.0" class="label" text-anchor="middle">52</text>
  <circle cx="433.9622641509434" cy="40.0" class="point"/>
  <text x="433.9622641509434" y="375" class="label" text-anchor="middle">2026-02-06</text>
  <text x="433.9622641509434" y="35.0" class="label" text-anchor="middle">52</text>
  <circle cx="438.49056603773585" cy="40.0" class="point"/>
  <text x="438.49056603773585" y="375" class="label" text-anchor="middle">2026-02-07</text>
  <text x="438.49056603773585" y="35.0" class="label" text-anchor="middle">52</text>
  <circle cx="443.0188679245283" cy="40.0" class="point"/>
  <text x="443.0188679245283" y="375" class="label" text-anchor="middle">2026-02-08</text>
  <text x="443.0188679245283" y="35.0" class="label" text-anchor="middle">52</text>
  <circle cx="447.54716981132077" cy="40.0" class="point"/>
  <text x="447.54716981132077" y="375" class="label" text-anchor="middle">2026-02-09</text>
  <text x="447.54716981132077" y="35.0" class="label" text-anchor="middle">52</text>
  <circle cx="452.0754716981132" cy="40.0" class="point"/>
  <text x="452.0754716981132" y="375" class="label" text-anchor="middle">2026-02-10</text>
  <text x="452.0754716981132" y="35.0" class="label" text-anchor="middle">52</text>
  <circle cx="456.60377358490564" cy="40.0" class="point"/>
  <text x="456.60377358490564" y="375" class="label" text-anchor="middle">2026-02-11</text>
  <text x="456.60377358490564" y="35.0" class="label" text-anchor="middle">52</text>
  <circle cx="461.1320754716981" cy="40.0" class="point"/>
  <text x="461.1320754716981" y="375" class="label" text-anchor="middle">2026-02-12</text>
  <text x="461.1320754716981" y="35.0" class="label" text-anchor="middle">52</text>
  <circle cx="465.66037735849056" cy="40.0" class="point"/>
  <text x="465.66037735849056" y="375" class="label" text-anchor="middle">2026-02-13</text>
  <text x="465.66037735849056" y="35.0" class="label" text-anchor="middle">52</text>
  <circle cx="470.188679245283" cy="40.0" class="point"/>
  <text x="470.188679245283" y="375" class="label" text-anchor="middle">2026-02-14</text>
  <text x="470.188679245283" y="35.0" class="label" text-anchor="middle">52</text>
  <circle cx="474.71698113207543" cy="40.0" class="point"/>
  <text x="474.71698113207543" y="375" class="label" text-anchor="middle">2026-02-15</text>
  <text x="474.71698113207543" y="35.0" class="label" text-anchor="middle">52</text>
  <circle cx="479.2452830188679" cy="40.0" class="point"/>
  <text x="479.2452830188679" y="375" class="label" text-anchor="middle">2026-02-16</text>
  <text x="479.2452830188679" y="35.0" class="label" text-anchor="middle">52</text>
  <circle cx="483.77358490566036" cy="40.0" class="point"/>
  <text x="483.77358490566036" y="375" class="label" text-anchor="middle">2026-02-17</text>
  <text x="483.77358490566036" y="35.0" class="label" text-anchor="middle">52</text>
  <circle cx="488.3018867924528" cy="40.0" class="point"/>
  <text x="488.3018867924528" y="375" class="label" text-anchor="middle">2026-02-18</text>
  <text x="488.3018867924528" y="35.0" class="label" text-anchor="middle">52</text>
  <circle cx="492.8301886792453" cy="40.0" class="point"/>
  <text x="492.8301886792453" y="375" class="label" text-anchor="middle">2026-02-19</text>
  <text x="492.8301886792453" y="35.0" class="label" text-anchor="middle">52</text>
  <circle cx="497.3584905660377" cy="40.0" class="point"/>
  <text x="497.3584905660377" y="375" class="label" text-anchor="middle">2026-02-20</text>
  <text x="497.3584905660377" y="35.0" class="label" text-anchor="middle">52</text>
  <circle cx="501.88679245283015" cy="40.0" class="point"/>
  <text x="501.88679245283015" y="375" class="label" text-anchor="middle">2026-02-21</text>
  <text x="501.88679245283015" y="35.0" class="label" text-anchor="middle">52</text>
  <circle cx="506.4150943396226" cy="40.0" class="point"/>
  <text x="506.4150943396226" y="375" class="label" text-anchor="middle">2026-02-22</text>
  <text x="506.4150943396226" y="35.0" class="label" text-anchor="middle">52</text>
  <circle cx="510.9433962264151" cy="40.0" class="point"/>
  <text x="510.9433962264151" y="375" class="label" text-anchor="middle">2026-02-23</text>
  <text x="510.9433962264151" y="35.0" class="label" text-anchor="middle">52</text>
  <circle cx="515.4716981132076" cy="40.0" class="point"/>
  <text x="515.4716981132076" y="375" class="label" text-anchor="middle">2026-02-24</text>
  <text x="515.4716981132076" y="35.0" class="label" text-anchor="middle">52</text>
  <circle cx="520.0" cy="40.0" class="point"/>
  <text x="520.0" y="375" class="label" text-anchor="middle">2026-02-25</text>
  <text x="520.0" y="35.0" class="label" text-anchor="middle">52</text>
  <circle cx="524.5283018867924" cy="40.0" class="point"/>
  <text x="524.5283018867924" y="375" class="label" text-anchor="middle">2026-02-26</text>
  <text x="524.5283018867924" y="35.0" class="label" text-anchor="middle">52</text>
  <circle cx="529.0566037735848" cy="40.0" class="point"/>
  <text x="529.0566037735848" y="375" class="label" text-anchor="middle">2026-02-27</text>
  <text x="529.0566037735848" y="35.0" class="label" text-anchor="middle">52</text>
  <circle cx="533.5849056603773" cy="40.0" class="point"/>
  <text x="533.5849056603773" y="375" class="label" text-anchor="middle">2026-02-28</text>
  <text x="533.5849056603773" y="35.0" class="label" text-anchor="middle">52</text>
  <circle cx="538.1132075471698" cy="40.0" class="point"/>
  <text x="538.1132075471698" y="375" class="label" text-anchor="middle">2026-03-01</text>
  <text x="538.1132075471698" y="35.0" class="label" text-anchor="middle">52</text>
  <circle cx="542.6415094339623" cy="40.0" class="point"/>
  <text x="542.6415094339623" y="375" class="label" text-anchor="middle">2026-03-02</text>
  <text x="542.6415094339623" y="35.0" class="label" text-anchor="middle">52</text>
  <circle cx="547.1698113207547" cy="40.0" class="point"/>
  <text x="547.1698113207547" y="375" class="label" text-anchor="middle">2026-03-03</text>
  <text x="547.1698113207547" y="35.0" class="label" text-anchor="middle">52</text>
  <circle cx="551.6981132075471" cy="40.0" class="point"/>
  <text x="551.6981132075471" y="375" class="label" text-anchor="middle">2026-03-04</text>
  <text x="551.6981132075471" y="35.0" class="label" text-anchor="middle">52</text>
  <circle cx="556.2264150943396" cy="40.0" class="point"/>
  <text x="556.2264150943396" y="375" class="label" text-anchor="middle">2026-03-05</text>
  <text x="556.2264150943396" y="35.0" class="label" text-anchor="middle">52</text>
  <circle cx="560.754716981132" cy="40.0" class="point"/>
  <text x="560.754716981132" y="375" class="label" text-anchor="middle">2026-03-06</text>
  <text x="560.754716981132" y="35.0" class="label" text-anchor="middle">52</text>
  <circle cx="565.2830188679245" cy="40.0" class="point"/>
  <text x="565.2830188679245" y="375" class="label" text-anchor="middle">2026-03-07</text>
  <text x="565.2830188679245" y="35.0" class="label" text-anchor="middle">52</text>
  <circle cx="569.8113207547169" cy="40.0" class="point"/>
  <text x="569.8113207547169" y="375" class="label" text-anchor="middle">2026-03-08</text>
  <text x="569.8113207547169" y="35.0" class="label" text-anchor="middle">52</text>
  <circle cx="574.3396226415094" cy="40.0" class="point"/>
  <text x="574.3396226415094" y="375" class="label" text-anchor="middle">2026-03-09</text>
  <text x="574.3396226415094" y="35.0" class="label" text-anchor="middle">52</text>
  <circle cx="578.8679245283018" cy="40.0" class="point"/>
  <text x="578.8679245283018" y="375" class="label" text-anchor="middle">2026-03-10</text>
  <text x="578.8679245283018" y="35.0" class="label" text-anchor="middle">52</text>
  <circle cx="583.3962264150944" cy="40.0" class="point"/>
  <text x="583.3962264150944" y="375" class="label" text-anchor="middle">2026-03-11</text>
  <text x="583.3962264150944" y="35.0" class="label" text-anchor="middle">52</text>
  <circle cx="587.9245283018869" cy="40.0" class="point"/>
  <text x="587.9245283018869" y="375" class="label" text-anchor="middle">2026-03-12</text>
  <text x="587.9245283018869" y="35.0" class="label" text-anchor="middle">52</text>
  <circle cx="592.4528301886793" cy="40.0" class="point"/>
  <text x="592.4528301886793" y="375" class="label" text-anchor="middle">2026-03-13</text>
  <text x="592.4528301886793" y="35.0" class="label" text-anchor="middle">52</text>
  <circle cx="596.9811320754717" cy="40.0" class="point"/>
  <text x="596.9811320754717" y="375" class="label" text-anchor="middle">2026-03-14</text>
  <text x="596.9811320754717" y="35.0" class="label" text-anchor="middle">52</text>
  <circle cx="601.5094339622642" cy="40.0" class="point"/>
  <text x="601.5094339622642" y="375" class="label" text-anchor="middle">2026-03-15</text>
  <text x="601.5094339622642" y="35.0" class="label" text-anchor="middle">52</text>
  <circle cx="606.0377358490566" cy="40.0" class="point"/>
  <text x="606.0377358490566" y="375" class="label" text-anchor="middle">2026-03-16</text>
  <text x="606.0377358490566" y="35.0" class="label" text-anchor="middle">52</text>
  <circle cx="610.5660377358491" cy="40.0" class="point"/>
  <text x="610.5660377358491" y="375" class="label" text-anchor="middle">2026-03-17</text>
  <text x="610.5660377358491" y="35.0" class="label" text-anchor="middle">52</text>
  <circle cx="615.0943396226415" cy="40.0" class="point"/>
  <text x="615.0943396226415" y="375" class="label" text-anchor="middle">2026-03-18</text>
  <text x="615.0943396226415" y="35.0" class="label" text-anchor="middle">52</text>
  <circle cx="619.622641509434" cy="40.0" class="point"/>
  <text x="619.622641509434" y="375" class="label" text-anchor="middle">2026-03-19</text>
  <text x="619.622641509434" y="35.0" class="label" text-anchor="middle">52</text>
  <circle cx="624.1509433962265" cy="40.0" class="point"/>
  <text x="624.1509433962265" y="375" class="label" text-anchor="middle">2026-03-20</text>
  <text x="624.1509433962265" y="35.0" class="label" text-anchor="middle">52</text>
  <circle cx="628.6792452830189" cy="40.0" class="point"/>
  <text x="628.6792452830189" y="375" class="label" text-anchor="middle">2026-03-21</text>
  <text x="628.6792452830189" y="35.0" class="label" text-anchor="middle">52</text>
  <circle cx="633.2075471698114" cy="40.0" class="point"/>
  <text x="633.2075471698114" y="375" class="label" text-anchor="middle">2026-03-22</text>
  <text x="633.2075471698114" y="35.0" class="label" text-anchor="middle">52</text>
  <circle cx="637.7358490566038" cy="40.0" class="point"/>
  <text x="637.7358490566038" y="375" class="label" text-anchor="middle">2026-03-23</text>
  <text x="637.7358490566038" y="35.0" class="label" text-anchor="middle">52</text>
  <circle cx="642.2641509433962" cy="40.0" class="point"/>
  <text x="642.2641509433962" y="375" class="label" text-anchor="middle">2026-03-24</text>
  <text x="642.2641509433962" y="35.0" class="label" text-anchor="middle">52</text>
  <circle cx="646.7924528301887" cy="40.0" class="point"/>
  <text x="646.7924528301887" y="375" class="label" text-anchor="middle">2026-03-25</text>
  <text x="646.7924528301887" y="35.0" class="label" text-anchor="middle">52</text>
  <circle cx="651.3207547169811" cy="40.0" class="point"/>
  <text x="651.3207547169811" y="375" class="label" text-anchor="middle">2026-03-26</text>
  <text x="651.3207547169811" y="35.0" class="label" text-anchor="middle">52</text>
  <circle cx="655.8490566037736" cy="40.0" class="point"/>
  <text x="655.8490566037736" y="375" class="label" text-anchor="middle">2026-03-27</text>
  <text x="655.8490566037736" y="35.0" class="label" text-anchor="middle">52</text>
  <circle cx="660.377358490566" cy="40.0" class="point"/>
  <text x="660.377358490566" y="375" class="label" text-anchor="middle">2026-03-28</text>
  <text x="660.377358490566" y="35.0" class="label" text-anchor="middle">52</text>
  <circle cx="664.9056603773585" cy="40.0" class="point"/>
  <text x="664.9056603773585" y="375" class="label" text-anchor="middle">2026-03-29</text>
  <text x="664.9056603773585" y="35.0" class="label" text-anchor="middle">52</text>
  <circle cx="669.433962264151" cy="40.0" class="point"/>
  <text x="669.433962264151" y="375" class="label" text-anchor="middle">2026-03-30</text>
  <text x="669.433962264151" y="35.0" class="label" text-anchor="middle">52</text>
  <circle cx="673.9622641509434" cy="40.0" class="point"/>
  <text x="673.9622641509434" y="375" class="label" text-anchor="middle">2026-03-31</text>
  <text x="673.9622641509434" y="35.0" class="label" text-anchor="middle">52</text>
  <circle cx="678.4905660377359" cy="40.0" class="point"/>
  <text x="678.4905660377359" y="375" class="label" text-anchor="middle">2026-04-01</text>
  <text x="678.4905660377359" y="35.0" class="label" text-anchor="middle">52</text>
  <circle cx="683.0188679245283" cy="40.0" class="point"/>
  <text x="683.0188679245283" y="375" class="label" text-anchor="middle">2026-04-02</text>
  <text x="683.0188679245283" y="35.0" class="label" text-anchor="middle">52</text>
  <circle cx="687.5471698113208" cy="40.0" class="point"/>
  <text x="687.5471698113208" y="375" class="label" text-anchor="middle">2026-04-03</text>
  <text x="687.5471698113208" y="35.0" class="label" text-anchor="middle">52</text>
  <circle cx="692.0754716981132" cy="40.0" class="point"/>
  <text x="692.0754716981132" y="375" class="label" text-anchor="middle">2026-04-04</text>
  <text x="692.0754716981132" y="35.0" class="label" text-anchor="middle">52</text>
  <circle cx="696.6037735849056" cy="40.0" class="point"/>
  <text x="696.6037735849056" y="375" class="label" text-anchor="middle">2026-04-05</text>
  <text x="696.6037735849056" y="35.0" class="label" text-anchor="middle">52</text>
  <circle cx="701.1320754716982" cy="40.0" class="point"/>
  <text x="701.1320754716982" y="375" class="label" text-anchor="middle">2026-04-06</text>
  <text x="701.1320754716982" y="35.0" class="label" text-anchor="middle">52</text>
  <circle cx="705.6603773584906" cy="40.0" class="point"/>
  <text x="705.6603773584906" y="375" class="label" text-anchor="middle">2026-04-07</text>
  <text x="705.6603773584906" y="35.0" class="label" text-anchor="middle">52</text>
  <circle cx="710.1886792452831" cy="40.0" class="point"/>
  <text x="710.1886792452831" y="375" class="label" text-anchor="middle">2026-04-08</text>
  <text x="710.1886792452831" y="35.0" class="label" text-anchor="middle">52</text>
  <circle cx="714.7169811320755" cy="40.0" class="point"/>
  <text x="714.7169811320755" y="375" class="label" text-anchor="middle">2026-04-09</text>
  <text x="714.7169811320755" y="35.0" class="label" text-anchor="middle">52</text>
  <circle cx="719.2452830188679" cy="40.0" class="point"/>
  <text x="719.2452830188679" y="375" class="label" text-anchor="middle">2026-04-10</text>
  <text x="719.2452830188679" y="35.0" class="label" text-anchor="middle">52</text>
  <circle cx="723.7735849056604" cy="40.0" class="point"/>
  <text x="723.7735849056604" y="375" class="label" text-anchor="middle">2026-04-11</text>
  <text x="723.7735849056604" y="35.0" class="label" text-anchor="middle">52</text>
  <circle cx="728.3018867924528" cy="40.0" class="point"/>
  <text x="728.3018867924528" y="375" class="label" text-anchor="middle">2026-04-12</text>
  <text x="728.3018867924528" y="35.0" class="label" text-anchor="middle">52</text>
  <circle cx="732.8301886792453" cy="40.0" class="point"/>
  <text x="732.8301886792453" y="375" class="label" text-anchor="middle">2026-04-13</text>
  <text x="732.8301886792453" y="35.0" class="label" text-anchor="middle">52</text>
  <circle cx="737.3584905660377" cy="40.0" class="point"/>
  <text x="737.3584905660377" y="375" class="label" text-anchor="middle">2026-04-14</text>
  <text x="737.3584905660377" y="35.0" class="label" text-anchor="middle">52</text>
  <circle cx="741.8867924528302" cy="40.0" class="point"/>
  <text x="741.8867924528302" y="375" class="label" text-anchor="middle">2026-04-15</text>
  <text x="741.8867924528302" y="35.0" class="label" text-anchor="middle">52</text>
  <circle cx="746.4150943396227" cy="40.0" class="point"/>
  <text x="746.4150943396227" y="375" class="label" text-anchor="middle">2026-04-16</text>
  <text x="746.4150943396227" y="35.0" class="label" text-anchor="middle">52</text>
  <circle cx="750.9433962264151" cy="40.0" class="point"/>
  <text x="750.9433962264151" y="375" class="label" text-anchor="middle">2026-04-17</text>
  <text x="750.9433962264151" y="35.0" class="label" text-anchor="middle">52</text>
  <circle cx="755.4716981132076" cy="40.0" class="point"/>
  <text x="755.4716981132076" y="375" class="label" text-anchor="middle">2026-04-18</text>
  <text x="755.4716981132076" y="35.0" class="label" text-anchor="middle">52</text>
  <circle cx="760.0" cy="40.0" class="point"/>
  <text x="760.0" y="375" class="label" text-anchor="middle">2026-04-19</text>
  <text x="760.0" y="35.0" class="label" text-anchor="middle">52</text>
  <text x="30" y="363.0" class="label" text-anchor="end">0</text>
  <text x="30" y="301.46153846153845" class="label" text-anchor="end">10</text>
  <text x="30" y="239.9230769230769" class="label" text-anchor="end">20</text>
  <text x="30" y="178.38461538461542" class="label" text-anchor="end">30</text>
  <text x="30" y="116.84615384615384" class="label" text-anchor="end">40</text>
  <text x="30" y="55.30769230769232" class="label" text-anchor="end">50</text>
</svg>