<svg xmlns="http://www.w3.org/2000/svg" width="800" height="400" viewBox="0 0 800 400">
  <style>
    .axis{stroke:#666;stroke-width:1}
    .line{stroke:#4a9;stroke-width:2;fill:none}
    .point{fill:#4a9;r:4}
    .label{font:10px sans-serif;fill:#aaa}
    .title{font:14px sans-serif;fill:#333}
  </style>
  <text x="400" y="20" class="title" text-anchor="middle">OPIC Field Growth Timeline</text>
  <line x1="40" y1="40" x2="40" y2="360" class="axis"/>
  <line x1="40" y1="360" x2="760" y2="360" class="axis"/>
  <path d="M 40.0,101.53846153846155 L 46.486486486486484,101.53846153846155 L 52.972972972972975,101.53846153846155 L 59.45945945945946,101.53846153846155 L 65.94594594594595,101.53846153846155 L 72.43243243243242,101.53846153846155 L 78.91891891891892,101.53846153846155 L 85.4054054054054,101.53846153846155 L 91.8918918918919,101.53846153846155 L 98.37837837837839,101.53846153846155 L 104.86486486486486,101.53846153846155 L 111.35135135135135,101.53846153846155 L 117.83783783783784,101.53846153846155 L 124.32432432432432,101.53846153846155 L 130.8108108108108,101.53846153846155 L 137.2972972972973,101.53846153846155 L 143.7837837837838,101.53846153846155 L 150.27027027027026,101.53846153846155 L 156.75675675675677,101.53846153846155 L 163.24324324324323,101.53846153846155 L 169.7297297297297,101.53846153846155 L 176.21621621621622,101.53846153846155 L 182.7027027027027,101.53846153846155 L 189.1891891891892,101.53846153846155 L 195.67567567567568,101.53846153846155 L 202.16216216216216,101.53846153846155 L 208.64864864864865,101.53846153846155 L 215.13513513513516,40.0 L 221.6216216216216,40.0 L 228.1081081081081,40.0 L 234.5945945945946,40.0 L 241.08108108108107,40.0 L 247.56756756756758,40.0 L 254.05405405405406,40.0 L 260.5405405405405,40.0 L 267.02702702702703,40.0 L 273.51351351351354,40.0 L 280.0,40.0 L 286.48648648648646,40.0 L 292.972972972973,40.0 L 299.4594594594594,40.0 L 305.94594594594594,40.0 L 312.43243243243245,40.0 L 318.9189189189189,40.0 L 325.4054054054054,40.0 L 331.89189189189193,40.0 L 338.3783783783784,40.0 L 344.86486486486484,40.0 L 351.35135135135135,40.0 L 357.8378378378378,40.0 L 364.3243243243243,40.0 L 370.81081081081084,40.0 L 377.2972972972973,40.0 L 383.7837837837838,40.0 L 390.2702702702703,40.0 L 396.7567567567568,40.0 L 403.2432432432432,40.0 L 409.7297297297297,40.0 L 416.2162162162162,40.0 L 422.7027027027027,40.0 L 429.1891891891892,40.0 L 435.67567567567573,40.0 L 442.16216216216213,40.0 L 448.64864864864865,40.0 L 455.13513513513516,40.0 L 461.6216216216216,40.0 L 468.1081081081081,40.0 L 474.59459459459464,40.0 L 481.08108108108104,40.0 L 487.56756756756755,40.0 L 494.05405405405406,40.0 L 500.5405405405406,40.0 L 507.02702702702703,40.0 L 513.5135135135135,40.0 L 520.0,40.0 L 526.4864864864865,40.0 L 532.9729729729729,40.0 L 539.4594594594595,40.0 L 545.945945945946,40.0 L 552.4324324324324,40.0 L 558.9189189189188,40.0 L 565.4054054054054,40.0 L 571.8918918918919,40.0 L 578.3783783783784,40.0 L 584.8648648648649,40.0 L 591.3513513513514,40.0 L 597.8378378378378,40.0 L 604.3243243243243,40.0 L 610.8108108108108,40.0 L 617.2972972972973,40.0 L 623.7837837837839,40.0 L 630.2702702702702,40.0 L 636.7567567567568,40.0 L 643.2432432432432,40.0 L 649.7297297297297,40.0 L 656.2162162162163,40.0 L 662.7027027027027,40.0 L 669.1891891891892,40.0 L 675.6756756756756,40.0 L 682.1621621621622,40.0 L 688.6486486486486,40.0 L 695.1351351351352,40.0 L 701.6216216216217,40.0 L 708.1081081081081,40.0 L 714.5945945945946,40.0 L 721.081081081081,40.0 L 727.5675675675676,40.0 L 734.0540540540541,40.0 L 740.5405405405406,40.0 L 747.027027027027,40.0 L 753.5135135135135,40.0 L 760.0,40.0" class="line"/>
  <circle cx="40.0" cy="101.53846153846155" class="point"/>
  <text x="40.0" y="375" class="label" text-anchor="middle">2025-11-11</text>
  <text x="40.0" y="96.53846153846155" class="label" text-anchor="middle">42</text>
  <circle cx="46.486486486486484" cy="101.53846153846155" class="point"/>
  <text x="46.486486486486484" y="375" class="label" text-anchor="middle">2025-11-12</text>
  <text x="46.486486486486484" y="96.53846153846155" class="label" text-anchor="middle">42</text>
  <circle cx="52.972972972972975" cy="101.53846153846155" class="point"/>
  <text x="52.972972972972975" y="375" class="label" text-anchor="middle">2025-11-13</text>
  <text x="52.972972972972975" y="96.53846153846155" class="label" text-anchor="middle">42</text>
  <circle cx="59.45945945945946" cy="101.53846153846155" class="point"/>
  <text x="59.45945945945946" y="375" class="label" text-anchor="middle">2025-11-14</text>
  <text x="59.45945945945946" y="96.53846153846155" class="label" text-anchor="middle">42</text>
  <circle cx="65.94594594594595" cy="101.53846153846155" class="point"/>
  <text x="65.94594594594595" y="375" class="label" text-anchor="middle">2025-11-15</text>
  <text x="65.94594594594595" y="96.53846153846155" class="label" text-anchor="middle">42</text>
  <circle cx="72.43243243243242" cy="101.53846153846155" class="point"/>
  <text x="72.43243243243242" y="375" class="label" text-anchor="middle">2025-11-16</text>
  <text x="72.43243243243242" y="96.53846153846155" class="label" text-anchor="middle">42</text>
  <circle cx="78.91891891891892" cy="101.53846153846155" class="point"/>
  <text x="78.91891891891892" y="375" class="label" text-anchor="middle">2025-11-17</text>
  <text x="78.91891891891892" y="96.53846153846155" class="label" text-anchor="middle">42</text>
  <circle cx="85.4054054054054" cy="101.53846153846155" class="point"/>
  <text x="85.4054054054054" y="375" class="label" text-anchor="middle">2025-11-18</text>
  <text x="85.4054054054054" y="96.53846153846155" class="label" text-anchor="middle">42</text>
  <circle cx="91.8918918918919" cy="101.53846153846155" class="point"/>
  <text x="91.8918918918919" y="375" class="label" text-anchor="middle">2025-11-19</text>
  <text x="91.8918918918919" y="96.53846153846155" class="label" text-anchor="middle">42</text>
  <circle cx="98.37837837837839" cy="101.53846153846155" class="point"/>
  <text x="98.37837837837839" y="375" class="label" text-anchor="middle">2025-11-20</text>
  <text x="98.37837837837839" y="96.53846153846155" class="label" text-anchor="middle">42</text>
  <circle cx="104.86486486486486" cy="101.53846153846155" class="point"/>
  <text x="104.86486486486486" y="375" class="label" text-anchor="middle">2025-11-21</text>
  <text x="104.86486486486486" y="96.53846153846155" class="label" text-anchor="middle">42</text>
  <circle cx="111.35135135135135" cy="101.53846153846155" class="point"/>
  <text x="111.35135135135135" y="375" class="label" text-anchor="middle">2025-11-22</text>
  <text x="111.35135135135135" y="96.53846153846155" class="label" text-anchor="middle">42</text>
  <circle cx="117.83783783783784" cy="101.53846153846155" class="point"/>
  <text x="117.83783783783784" y="375" class="label" text-anchor="middle">2025-11-23</text>
  <text x="117.83783783783784" y="96.53846153846155" class="label" text-anchor="middle">42</text>
  <circle cx="124.32432432432432" cy="101.53846153846155" class="point"/>
  <text x="124.32432432432432" y="375" class="label" text-anchor="middle">2025-11-24</text>
  <text x="124.32432432432432" y="96.53846153846155" class="label" text-anchor="middle">42</text>
  <circle cx="130.8108108108108" cy="101.53846153846155" class="point"/>
  <text x="130.8108108108108" y="375" class="label" text-anchor="middle">2025-11-25</text>
  <text x="130.8108108108108" y="96.53846153846155" class="label" text-anchor="middle">42</text>
  <circle cx="137.2972972972973" cy="101.53846153846155" class="point"/>
  <text x="137.2972972972973" y="375" class="label" text-anchor="middle">2025-11-26</text>
  <text x="137.2972972972973" y="96.53846153846155" class="label" text-anchor="middle">42</text>
  <circle cx="143.7837837837838" cy="101.53846153846155" class="point"/>
  <text x="143.7837837837838" y="375" class="label" text-anchor="middle">2025-11-27</text>
  <text x="143.7837837837838" y="96.53846153846155" class="label" text-anchor="middle">42</text>
  <circle cx="150.27027027027026" cy="101.53846153846155" class="point"/>
  <text x="150.27027027027026" y="375" class="label" text-anchor="middle">2025-11-28</text>
  <text x="150.27027027027026" y="96.53846153846155" class="label" text-anchor="middle">42</text>
  <circle cx="156.75675675675677" cy="101.53846153846155" class="point"/>
  <text x="156.75675675675677" y="375" class="label" text-anchor="middle">2025-11-29</text>
  <text x="156.75675675675677" y="96.53846153846155" class="label" text-anchor="middle">42</text>
  <circle cx="163.24324324324323" cy="101.53846153846155" class="point"/>
  <text x="163.24324324324323" y="375" class="label" text-anchor="middle">2025-11-30</text>
  <text x="163.24324324324323" y="96.53846153846155" class="label" text-anchor="middle">42</text>
  <circle cx="169.7297297297297" cy="101.53846153846155" class="point"/>
  <text x="169.7297297297297" y="375" class="label" text-anchor="middle">2025-12-01</text>
  <text x="169.7297297297297" y="96.53846153846155" class="label" text-anchor="middle">42</text>
  <circle cx="176.21621621621622" cy="101.53846153846155" class="point"/>
  <text x="176.21621621621622" y="375" class="label" text-anchor="middle">2025-12-02</text>
  <text x="176.21621621621622" y="96.53846153846155" class="label" text-anchor="middle">42</text>
  <circle cx="182.7027027027027" cy="101.53846153846155" class="point"/>
  <text x="182.7027027027027" y="375" class="label" text-anchor="middle">2025-12-03</text>
  <text x="182.7027027027027" y="96.53846153846155" class="label" text-anchor="middle">42</text>
  <circle cx="189.1891891891892" cy="101.53846153846155" class="point"/>
  <text x="189.1891891891892" y="375" class="label" text-anchor="middle">2025-12-04</text>
  <text x="189.1891891891892" y="96.53846153846155" class="label" text-anchor="middle">42</text>
  <circle cx="195.67567567567568" cy="101.53846153846155" class="point"/>
  <text x="195.67567567567568" y="375" class="label" text-anchor="middle">2025-12-05</text>
  <text x="195.67567567567568" y="96.53846153846155" class="label" text-anchor="middle">42</text>
  <circle cx="202.16216216216216" cy="101.53846153846155" class="point"/>
  <text x="202.16216216216216" y="375" class="label" text-anchor="middle">2025-12-06</text>
  <text x="202.16216216216216" y="96.53846153846155" class="label" text-anchor="middle">42</text>
  <circle cx="208.64864864864865" cy="101.53846153846155" class="point"/>
  <text x="208.64864864864865" y="375" class="label" text-anchor="middle">2025-12-07</text>
  <text x="208.64864864864865" y="96.53846153846155" class="label" text-anchor="middle">42</text>
  <circle cx="215.13513513513516" cy="40.0" class="point"/>
  <text x="215.13513513513516" y="375" class="label" text-anchor="middle">2025-12-08</text>
  <text x="215.13513513513516" y="35.0" class="label" text-anchor="middle">52</text>
  <circle cx="221.6216216216216" cy="40.0" class="point"/>
  <text x="221.6216216216216" y="375" class="label" text-anchor="middle">2025-12-09</text>
  <text x="221.6216216216216" y="35.0" class="label" text-anchor="middle">52</text>
  <circle cx="228.1081081081081" cy="40.0" class="point"/>
  <text x="228.1081081081081" y="375" class="label" text-anchor="middle">2025-12-10</text>
  <text x="228.1081081081081" y="35.0" class="label" text-anchor="middle">52</text>
  <circle cx="234.5945945945946" cy="40.0" class="point"/>
  <text x="234.5945945945946" y="375" class="label" text-anchor="middle">2025-12-11</text>
  <text x="234.5945945945946" y="35.0" class="label" text-anchor="middle">52</text>
  <circle cx="241.08108108108107" cy="40.0" class="point"/>
  <text x="241.08108108108107" y="375" class="label" text-anchor="middle">2025-12-12</text>
  <text x="241.08108108108107" y="35.0" class="label" text-anchor="middle">52</text>
  <circle cx="247.56756756756758" cy="40.0" class="point"/>
  <text x="247.56756756756758" y="375" class="label" text-anchor="middle">2025-12-13</text>
  <text x="247.56756756756758" y="35.0" class="label" text-anchor="middle">52</text>
  <circle cx="254.05405405405406" cy="40.0" class="point"/>
  <text x="254.05405405405406" y="375" class="label" text-anchor="middle">2025-12-14</text>
  <text x="254.05405405405406" y="35.0" class="label" text-anchor="middle">52</text>
  <circle cx="260.5405405405405" cy="40.0" class="point"/>
  <text x="260.5405405405405" y="375" class="label" text-anchor="middle">2025-12-15</text>
  <text x="260.5405405405405" y="35.0" class="label" text-anchor="middle">52</text>
  <circle cx="267.02702702702703" cy="40.0" class="point"/>
  <text x="267.02702702702703" y="375" class="label" text-anchor="middle">2025-12-16</text>
  <text x="267.02702702702703" y="35.0" class="label" text-anchor="middle">52</text>
  <circle cx="273.51351351351354" cy="40.0" class="point"/>
  <text x="273.51351351351354" y="375" class="label" text-anchor="middle">2025-12-17</text>
  <text x="273.51351351351354" y="35.0" class="label" text-anchor="middle">52</text>
  <circle cx="280.0" cy="40.0" class="point"/>
  <text x="280.0" y="375" class="label" text-anchor="middle">2025-12-18</text>
  <text x="280.0" y="35.0" class="label" text-anchor="middle">52</text>
  <circle cx="286.48648648648646" cy="40.0" class="point"/>
  <text x="286.48648648648646" y="375" class="label" text-anchor="middle">2025-12-19</text>
  <text x="286.48648648648646" y="35.0" class="label" text-anchor="middle">52</text>
  <circle cx="292.972972972973" cy="40.0" class="point"/>
  <text x="292.972972972973" y="375" class="label" text-anchor="middle">2025-12-20</text>
  <text x="292.972972972973" y="35.0" class="label" text-anchor="middle">52</text>
  <circle cx="299.4594594594594" cy="40.0" class="point"/>
  <text x="299.4594594594594" y="375" class="label" text-anchor="middle">2025-12-21</text>
  <text x="299.4594594594594" y="35.0" class="label" text-anchor="middle">52</text>
  <circle cx="305.94594594594594" cy="40.0" class="point"/>
  <text x="305.94594594594594" y="375" class="label" text-anchor="middle">2025-12-22</text>
  <text x="305.94594594594594" y="35.0" class="label" text-anchor="middle">52</text>
  <circle cx="312.43243243243245" cy="40.0" class="point"/>
  <text x="312.43243243243245" y="375" class="label" text-anchor="middle">2025-12-23</text>
  <text x="312.43243243243245" y="35.0" class="label" text-anchor="middle">52</text>
  <circle cx="318.9189189189189" cy="40.0" class="point"/>
  <text x="318.9189189189189" y="375" class="label" text-anchor="middle">2025-12-24</text>
  <text x="318.9189189189189" y="35.0" class="label" text-anchor="middle">52</text>
  <circle cx="325.4054054054054" cy="40.0" class="point"/>
  <text x="325.4054054054054" y="375" class="label" text-anchor="middle">2025-12-25</text>
  <text x="325.4054054054054" y="35.0" class="label" text-anchor="middle">52</text>
  <circle cx="331.89189189189193" cy="40.0" class="point"/>
  <text x="331.89189189189193" y="375" class="label" text-anchor="middle">2025-12-26</text>
  <text x="331.89189189189193" y="35.0" class="label" text-anchor="middle">52</text>
  <circle cx="338.3783783783784" cy="40.0" class="point"/>
  <text x="338.3783783783784" y="375" class="label" text-anchor="middle">2025-12-27</text>
  <text x="338.3783783783784" y="35.0" class="label" text-anchor="middle">52</text>
  <circle cx="344.86486486486484" cy="40.0" class="point"/>
  <text x="344.86486486486484" y="375" class="label" text-anchor="middle">2025-12-28</text>
  <text x="344.86486486486484" y="35.0" class="label" text-anchor="middle">52</text>
  <circle cx="351.35135135135135" cy="40.0" class="point"/>
  <text x="351.35135135135135" y="375" class="label" text-anchor="middle">2025-12-29</text>
  <text x="351.35135135135135" y="35.0" class="label" text-anchor="middle">52</text>
  <circle cx="357.8378378378378" cy="40.0" class="point"/>
  <text x="357.8378378378378" y="375" class="label" text-anchor="middle">2025-12-30</text>
  <text x="357.8378378378378" y="35.0" class="label" text-anchor="middle">52</text>
  <circle cx="364.3243243243243" cy="40.0" class="point"/>
  <text x="364.3243243243243" y="375" class="label" text-anchor="middle">2025-12-31</text>
  <text x="364.3243243243243" y="35.0" class="label" text-anchor="middle">52</text>
  <circle cx="370.81081081081084" cy="40.0" class="point"/>
  <text x="370.81081081081084" y="375" class="label" text-anchor="middle">2026-01-01</text>
  <text x="370.81081081081084" y="35.0" class="label" text-anchor="middle">52</text>
  <circle cx="377.2972972972973" cy="40.0" class="point"/>
  <text x="377.2972972972973" y="375" class="label" text-anchor="middle">2026-01-02</text>
  <text x="377.2972972972973" y="35.0" class="label" text-anchor="middle">52</text>
  <circle cx="383.7837837837838" cy="40.0" class="point"/>
  <text x="383.7837837837838" y="375" class="label" text-anchor="middle">2026-01-03</text>
  <text x="383.7837837837838" y="35.0" class="label" text-anchor="middle">52</text>
  <circle cx="390.2702702702703" cy="40.0" class="point"/>
  <text x="390.2702702702703" y="375" class="label" text-anchor="middle">2026-01-04</text>
  <text x="390.2702702702703" y="35.0" class="label" text-anchor="middle">52</text>
  <circle cx="396.7567567567568" cy="40.0" class="point"/>
  <text x="396.7567567567568" y="375" class="label" text-anchor="middle">2026-01-05</text>
  <text x="396.7567567567568" y="35.0" class="label" text-anchor="middle">52</text>
  <circle cx="403.2432432432432" cy="40.0" class="point"/>
  <text x="403.2432432432432" y="375" class="label" text-anchor="middle">2026-01-06</text>
  <text x="403.2432432432432" y="35.0" class="label" text-anchor="middle">52</text>
  <circle cx="409.7297297297297" cy="40.0" class="point"/>
  <text x="409.7297297297297" y="375" class="label" text-anchor="middle">2026-01-07</text>
  <text x="409.7297297297297" y="35.0" class="label" text-anchor="middle">52</text>
  <circle cx="416.2162162162162" cy="40.0" class="point"/>
  <text x="416.2162162162162" y="375" class="label" text-anchor="middle">2026-01-08</text>
  <text x="416.2162162162162" y="35.0" class="label" text-anchor="middle">52</text>
  <circle cx="422.7027027027027" cy="40.0" class="point"/>
  <text x="422.7027027027027" y="375" class="label" text-anchor="middle">2026-01-09</text>
  <text x="422.7027027027027" y="35.0" class="label" text-anchor="middle">52</text>
  <circle cx="429.1891891891892" cy="40.0" class="point"/>
  <text x="429.1891891891892" y="375" class="label" text-anchor="middle">2026-01-10</text>
  <text x="429.1891891891892" y="35.0" class="label" text-anchor="middle">52</text>
  <circle cx="435.67567567567573" cy="40.0" class="point"/>
  <text x="435.67567567567573" y="375" class="label" text-anchor="middle">2026-01-11</text>
  <text x="435.67567567567573" y="35.0" class="label" text-anchor="middle">52</text>
  <circle cx="442.16216216216213" cy="40.0" class="point"/>
  <text x="442.16216216216213" y="375" class="label" text-anchor="middle">2026-01-12</text>
  <text x="442.16216216216213" y="35.0" class="label" text-anchor="middle">52</text>
  <circle cx="448.64864864864865" cy="40.0" class="point"/>
  <text x="448.64864864864865" y="375" class="label" text-anchor="middle">2026-01-13</text>
  <text x="448.64864864864865" y="35.0" class="label" text-anchor="middle">52</text>
  <circle cx="455.13513513513516" cy="40.0" class="point"/>
  <text x="455.13513513513516" y="375" class="label" text-anchor="middle">2026-01-14</text>
  <text x="455.13513513513516" y="35.0" class="label" text-anchor="middle">52</text>
  <circle cx="461.6216216216216" cy="40.0" class="point"/>
  <text x="461.6216216216216" y="375" class="label" text-anchor="middle">2026-01-15</text>
  <text x="461.6216216216216" y="35.0" class="label" text-anchor="middle">52</text>
  <circle cx="468.1081081081081" cy="40.0" class="point"/>
  <text x="468.1081081081081" y="375" class="label" text-anchor="middle">2026-01-16</text>
  <text x="468.1081081081081" y="35.0" class="label" text-anchor="middle">52</text>
  <circle cx="474.59459459459464" cy="40.0" class="point"/>
  <text x="474.59459459459464" y="375" class="label" text-anchor="middle">2026-01-17</text>
  <text x="474.59459459459464" y="35.0" class="label" text-anchor="middle">52</text>
  <circle cx="481.08108108108104" cy="40.0" class="point"/>
  <text x="481.08108108108104" y="375" class="label" text-anchor="middle">2026-01-18</text>
  <text x="481.08108108108104" y="35.0" class="label" text-anchor="middle">52</text>
  <circle cx="487.56756756756755" cy="40.0" class="point"/>
  <text x="487.56756756756755" y="375" class="label" text-anchor="middle">2026-01-19</text>
  <text x="487.56756756756755" y="35.0" class="label" text-anchor="middle">52</text>
  <circle cx="494.05405405405406" cy="40.0" class="point"/>
  <text x="494.05405405405406" y="375" class="label" text-anchor="middle">2026-01-20</text>
  <text x="494.05405405405406" y="35.0" class="label" text-anchor="middle">52</text>
  <circle cx="500.5405405405406" cy="40.0" class="point"/>
  <text x="500.5405405405406" y="375" class="label" text-anchor="middle">2026-01-21</text>
  <text x="500.5405405405406" y="35.0" class="label" text-anchor="middle">52</text>
  <circle cx="507.02702702702703" cy="40.0" class="point"/>
  <text x="507.02702702702703" y="375" class="label" text-anchor="middle">2026-01-22</text>
  <text x="507.02702702702703" y="35.0" class="label" text-anchor="middle">52</text>
  <circle cx="513.5135135135135" cy="40.0" class="point"/>
  <text x="513.5135135135135" y="375" class="label" text-anchor="middle">2026-01-23</text>
  <text x="513.5135135135135" y="35.0" class="label" text-anchor="middle">52</text>
  <circle cx="520.0" cy="40.0" class="point"/>
  <text x="520.0" y="375" class="label" text-anchor="middle">2026-01-24</text>
  <text x="520.0" y="35.0" class="label" text-anchor="middle">52</text>
  <circle cx="526.4864864864865" cy="40.0" class="point"/>
  <text x="526.4864864864865" y="375" class="label" text-anchor="middle">2026-01-25</text>
  <text x="526.4864864864865" y="35.0" class="label" text-anchor="middle">52</text>
  <circle cx="532.9729729729729" cy="40.0" class="point"/>
  <text x="532.9729729729729" y="375" class="label" text-anchor="middle">2026-01-26</text>
  <text x="532.9729729729729" y="35.0" class="label" text-anchor="middle">52</text>
  <circle cx="539.4594594594595" cy="40.0" class="point"/>
  <text x="539.4594594594595" y="375" class="label" text-anchor="middle">2026-01-27</text>
  <text x="539.4594594594595" y="35.0" class="label" text-anchor="middle">52</text>
  <circle cx="545.945945945946" cy="40.0" class="point"/>
  <text x="545.945945945946" y="375" class="label" text-anchor="middle">2026-01-28</text>
  <text x="545.945945945946" y="35.0" class="label" text-anchor="middle">52</text>
  <circle cx="552.4324324324324" cy="40.0" class="point"/>
  <text x="552.4324324324324" y="375" class="label" text-anchor="middle">2026-01-29</text>
  <text x="552.4324324324324" y="35.0" class="label" text-anchor="middle">52</text>
  <circle cx="558.9189189189188" cy="40.0" class="point"/>
  <text x="558.9189189189188" y="375" class="label" text-anchor="middle">2026-01-30</text>
  <text x="558.9189189189188" y="35.0" class="label" text-anchor="middle">52</text>
  <circle cx="565.4054054054054" cy="40.0" class="point"/>
  <text x="565.4054054054054" y="375" class="label" text-anchor="middle">2026-01-31</text>
  <text x="565.4054054054054" y="35.0" class="label" text-anchor="middle">52</text>
  <circle cx="571.8918918918919" cy="40.0" class="point"/>
  <text x="571.8918918918919" y="375" class="label" text-anchor="middle">2026-02-01</text>
  <text x="571.8918918918919" y="35.0" class="label" text-anchor="middle">52</text>
  <circle cx="578.3783783783784" cy="40.0" class="point"/>
  <text x="578.3783783783784" y="375" class="label" text-anchor="middle">2026-02-02</text>
  <text x="578.3783783783784" y="35.0" class="label" text-anchor="middle">52</text>
  <circle cx="584.8648648648649" cy="40.0" class="point"/>
  <text x="584.8648648648649" y="375" class="label" text-anchor="middle">2026-02-03</text>
  <text x="584.8648648648649" y="35.0" class="label" text-anchor="middle">52</text>
  <circle cx="591.3513513513514" cy="40.0" class="point"/>
  <text x="591.3513513513514" y="375" class="label" text-anchor="middle">2026-02-04</text>
  <text x="591.3513513513514" y="35.0" class="label" text-anchor="middle">52</text>
  <circle cx="597.8378378378378" cy="40.0" class="point"/>
  <text x="597.8378378378378" y="375" class="label" text-anchor="middle">2026-02-05</text>
  <text x="597.8378378378378" y="35.0" class="label" text-anchor="middle">52</text>
  <circle cx="604.3243243243243" cy="40.0" class="point"/>
  <text x="604.3243243243243" y="375" class="label" text-anchor="middle">2026-02-06</text>
  <text x="604.3243243243243" y="35.0" class="label" text-anchor="middle">52</text>
  <circle cx="610.8108108108108" cy="40.0" class="point"/>
  <text x="610.8108108108108" y="375" class="label" text-anchor="middle">2026-02-07</text>
  <text x="610.8108108108108" y="35.0" class="label" text-anchor="middle">52</text>
  <circle cx="617.2972972972973" cy="40.0" class="point"/>
  <text x="617.2972972972973" y="375" class="label" text-anchor="middle">2026-02-08</text>
  <text x="617.2972972972973" y="35.0" class="label" text-anchor="middle">52</text>
  <circle cx="623.7837837837839" cy="40.0" class="point"/>
  <text x="623.7837837837839" y="375" class="label" text-anchor="middle">2026-02-09</text>
  <text x="623.7837837837839" y="35.0" class="label" text-anchor="middle">52</text>
  <circle cx="630.2702702702702" cy="40.0" class="point"/>
  <text x="630.2702702702702" y="375" class="label" text-anchor="middle">2026-02-10</text>
  <text x="630.2702702702702" y="35.0" class="label" text-anchor="middle">52</text>
  <circle cx="636.7567567567568" cy="40.0" class="point"/>
  <text x="636.7567567567568" y="375" class="label" text-anchor="middle">2026-02-11</text>
  <text x="636.7567567567568" y="35.0" class="label" text-anchor="middle">52</text>
  <circle cx="643.2432432432432" cy="40.0" class="point"/>
  <text x="643.2432432432432" y="375" class="label" text-anchor="middle">2026-02-12</text>
  <text x="643.2432432432432" y="35.0" class="label" text-anchor="middle">52</text>
  <circle cx="649.7297297297297" cy="40.0" class="point"/>
  <text x="649.7297297297297" y="375" class="label" text-anchor="middle">2026-02-13</text>
  <text x="649.7297297297297" y="35.0" class="label" text-anchor="middle">52</text>
  <circle cx="656.2162162162163" cy="40.0" class="point"/>
  <text x="656.2162162162163" y="375" class="label" text-anchor="middle">2026-02-14</text>
  <text x="656.2162162162163" y="35.0" class="label" text-anchor="middle">52</text>
  <circle cx="662.7027027027027" cy="40.0" class="point"/>
  <text x="662.7027027027027" y="375" class="label" text-anchor="middle">2026-02-15</text>
  <text x="662.7027027027027" y="35.0" class="label" text-anchor="middle">52</text>
  <circle cx="669.1891891891892" cy="40.0" class="point"/>
  <text x="669.1891891891892" y="375" class="label" text-anchor="middle">2026-02-16</text>
  <text x="669.1891891891892" y="35.0" class="label" text-anchor="middle">52</text>
  <circle cx="675.6756756756756" cy="40.0" class="point"/>
  <text x="675.6756756756756" y="375" class="label" text-anchor="middle">2026-02-17</text>
  <text x="675.6756756756756" y="35.0" class="label" text-anchor="middle">52</text>
  <circle cx="682.1621621621622" cy="40.0" class="point"/>
  <text x="682.1621621621622" y="375" class="label" text-anchor="middle">2026-02-18</text>
  <text x="682.1621621621622" y="35.0" class="label" text-anchor="middle">52</text>
  <circle cx="688.6486486486486" cy="40.0" class="point"/>
  <text x="688.6486486486486" y="375" class="label" text-anchor="middle">2026-02-19</text>
  <text x="688.6486486486486" y="35.0" class="label" text-anchor="middle">52</text>
  <circle cx="695.1351351351352" cy="40.0" class="point"/>
  <text x="695.1351351351352" y="375" class="label" text-anchor="middle">2026-02-20</text>
  <text x="695.1351351351352" y="35.0" class="label" text-anchor="middle">52</text>
  <circle cx="701.6216216216217" cy="40.0" class="point"/>
  <text x="701.6216216216217" y="375" class="label" text-anchor="middle">2026-02-21</text>
  <text x="701.6216216216217" y="35.0" class="label" text-anchor="middle">52</text>
  <circle cx="708.1081081081081" cy="40.0" class="point"/>
  <text x="708.1081081081081" y="375" class="label" text-anchor="middle">2026-02-22</text>
  <text x="708.1081081081081" y="35.0" class="label" text-anchor="middle">52</text>
  <circle cx="714.5945945945946" cy="40.0" class="point"/>
  <text x="714.5945945945946" y="375" class="label" text-anchor="middle">2026-02-23</text>
  <text x="714.5945945945946" y="35.0" class="label" text-anchor="middle">52</text>
  <circle cx="721.081081081081" cy="40.0" class="point"/>
  <text x="721.081081081081" y="375" class="label" text-anchor="middle">2026-02-24</text>
  <text x="721.081081081081" y="35.0" class="label" text-anchor="middle">52</text>
  <circle cx="727.5675675675676" cy="40.0" class="point"/>
  <text x="727.5675675675676" y="375" class="label" text-anchor="middle">2026-02-25</text>
  <text x="727.5675675675676" y="35.0" class="label" text-anchor="middle">52</text>
  <circle cx="734.0540540540541" cy="40.0" class="point"/>
  <text x="734.0540540540541" y="375" class="label" text-anchor="middle">2026-02-26</text>
  <text x="734.0540540540541" y="35.0" class="label" text-anchor="middle">52</text>
  <circle cx="740.5405405405406" cy="40.0" class="point"/>
  <text x="740.5405405405406" y="375" class="label" text-anchor="middle">2026-02-27</text>
  <text x="740.5405405405406" y="35.0" class="label" text-anchor="middle">52</text>
  <circle cx="747.027027027027" cy="40.0" class="point"/>
  <text x="747.027027027027" y="375" class="label" text-anchor="middle">2026-02-28</text>
  <text x="747.027027027027" y="35.0" class="label" text-anchor="middle">52</text>
  <circle cx="753.5135135135135" cy="40.0" class="point"/>
  <text x="753.5135135135135" y="375" class="label" text-anchor="middle">2026-03-01</text>
  <text x="753.5135135135135" y="35.0" class="label" text-anchor="middle">52</text>
  <circle cx="760.0" cy="40.0" class="point"/>
  <text x="760.0" y="375" class="label" text-anchor="middle">2026-03-02</text>
  <text x="760.0" y="35.0" class="label" text-anchor="middle">52</text>
  <text x="30" y="363.0" class="label" text-anchor="end">0</text>
  <text x="30" y="301.46153846153845" class="label" text-anchor="end">10</text>
  <text x="30" y="239.9230769230769" class="label" text-anchor="end">20</text>
  <text x="30" y="178.38461538461542" class="label" text-anchor="end">30</text>
  <text x="30" y="116.84615384615384" class="label" text-anchor="end">40</text>
  <text x="30" y="55.30769230769232" class="label" text-anchor="end">50</text>
</svg>