<svg xmlns="http://www.w3.org/2000/svg" width="800" height="400" viewBox="0 0 800 400">
  <style>
    .axis{stroke:#666;stroke-width:1}
    .line{stroke:#4a9;stroke-width:2;fill:none}
    .point{fill:#4a9;r:4}
    .label{font:10px sans-serif;fill:#aaa}
    .title{font:14px sans-serif;fill:#333}
  </style>
  <text x="400" y="20" class="title" text-anchor="middle">OPIC Field Growth Timeline</text>
  <line x1="40" y1="40" x2="40" y2="360" class="axis"/>
  <line x1="40" y1="360" x2="760" y2="360" class="axis"/>
  <path d="M 40.0,101.53846153846155 L 45.17985611510792,101.53846153846155 L 50.35971223021583,101.53846153846155 L 55.539568345323744,101.53846153846155 L 60.719424460431654,101.53846153846155 L 65.89928057553956,101.53846153846155 L 71.07913669064749,101.53846153846155 L 76.2589928057554,101.53846153846155 L 81.43884892086331,101.53846153846155 L 86.61870503597123,101.53846153846155 L 91.79856115107913,101.53846153846155 L 96.97841726618705,101.53846153846155 L 102.15827338129498,101.53846153846155 L 107.33812949640289,101.53846153846155 L 112.5179856115108,101.53846153846155 L 117.6978417266187,101.53846153846155 L 122.87769784172663,101.53846153846155 L 128.05755395683454,101.53846153846155 L 133.23741007194246,101.53846153846155 L 138.41726618705036,101.53846153846155 L 143.59712230215825,101.53846153846155 L 148.7769784172662,101.53846153846155 L 153.9568345323741,101.53846153846155 L 159.136690647482,101.53846153846155 L 164.31654676258995,101.53846153846155 L 169.49640287769785,101.53846153846155 L 174.67625899280577,101.53846153846155 L 179.85611510791367,40.0 L 185.0359712230216,40.0 L 190.21582733812951,40.0 L 195.3956834532374,40.0 L 200.57553956834533,40.0 L 205.75539568345326,40.0 L 210.93525179856115,40.0 L 216.11510791366908,40.0 L 221.29496402877697,40.0 L 226.4748201438849,40.0 L 231.65467625899282,40.0 L 236.83453237410075,40.0 L 242.0143884892086,40.0 L 247.19424460431654,40.0 L 252.37410071942446,40.0 L 257.5539568345324,40.0 L 262.7338129496403,40.0 L 267.9136690647482,40.0 L 273.0935251798561,40.0 L 278.273381294964,40.0 L 283.45323741007195,40.0 L 288.6330935251799,40.0 L 293.81294964028774,40.0 L 298.9928057553957,40.0 L 304.1726618705036,40.0 L 309.35251798561154,40.0 L 314.53237410071944,40.0 L 319.71223021582733,40.0 L 324.89208633093523,40.0 L 330.0719424460432,40.0 L 335.2517985611511,40.0 L 340.43165467625903,40.0 L 345.6115107913669,40.0 L 350.7913669064748,40.0 L 355.9712230215827,40.0 L 361.15107913669067,40.0 L 366.33093525179856,40.0 L 371.5107913669065,40.0 L 376.69064748201436,40.0 L 381.8705035971223,40.0 L 387.0503597122302,40.0 L 392.23021582733816,40.0 L 397.41007194244605,40.0 L 402.58992805755395,40.0 L 407.7697841726619,40.0 L 412.9496402877698,40.0 L 418.1294964028777,40.0 L 423.30935251798564,40.0 L 428.4892086330935,40.0 L 433.6690647482015,40.0 L 438.84892086330933,40.0 L 444.0287769784172,40.0 L 449.2086330935252,40.0 L 454.3884892086331,40.0 L 459.568345323741,40.0 L 464.7482014388489,40.0 L 469.9280575539568,40.0 L 475.10791366906477,40.0 L 480.28776978417267,40.0 L 485.4676258992806,40.0 L 490.64748201438846,40.0 L 495.82733812949635,40.0 L 501.0071942446043,40.0 L 506.1870503597122,40.0 L 511.36690647482015,40.0 L 516.546762589928,40.0 L 521.7266187050359,40.0 L 526.9064748201439,40.0 L 532.0863309352518,40.0 L 537.2661870503598,40.0 L 542.4460431654677,40.0 L 547.6258992805755,40.0 L 552.8057553956835,40.0 L 557.9856115107914,40.0 L 563.1654676258993,40.0 L 568.3453237410072,40.0 L 573.5251798561151,40.0 L 578.7050359712231,40.0 L 583.8848920863309,40.0 L 589.0647482014389,40.0 L 594.2446043165468,40.0 L 599.4244604316547,40.0 L 604.6043165467626,40.0 L 609.7841726618705,40.0 L 614.9640287769785,40.0 L 620.1438848920864,40.0 L 625.3237410071943,40.0 L 630.5035971223022,40.0 L 635.68345323741,40.0 L 640.8633093525181,40.0 L 646.0431654676258,40.0 L 651.2230215827338,40.0 L 656.4028776978417,40.0 L 661.5827338129496,40.0 L 666.7625899280575,40.0 L 671.9424460431654,40.0 L 677.1223021582734,40.0 L 682.3021582733813,40.0 L 687.4820143884892,40.0 L 692.6618705035971,40.0 L 697.841726618705,40.0 L 703.021582733813,40.0 L 708.2014388489208,40.0 L 713.3812949640287,40.0 L 718.5611510791367,40.0 L 723.7410071942446,40.0 L 728.9208633093525,40.0 L 734.1007194244604,40.0 L 739.2805755395683,40.0 L 744.4604316546763,40.0 L 749.6402877697842,40.0 L 754.8201438848921,40.0 L 760.0,40.0" class="line"/>
  <circle cx="40.0" cy="101.53846153846155" class="point"/>
  <text x="40.0" y="375" class="label" text-anchor="middle">2025-11-11</text>
  <text x="40.0" y="96.53846153846155" class="label" text-anchor="middle">42</text>
  <circle cx="45.17985611510792" cy="101.53846153846155" class="point"/>
  <text x="45.17985611510792" y="375" class="label" text-anchor="middle">2025-11-12</text>
  <text x="45.17985611510792" y="96.53846153846155" class="label" text-anchor="middle">42</text>
  <circle cx="50.35971223021583" cy="101.53846153846155" class="point"/>
  <text x="50.35971223021583" y="375" class="label" text-anchor="middle">2025-11-13</text>
  <text x="50.35971223021583" y="96.53846153846155" class="label" text-anchor="middle">42</text>
  <circle cx="55.539568345323744" cy="101.53846153846155" class="point"/>
  <text x="55.539568345323744" y="375" class="label" text-anchor="middle">2025-11-14</text>
  <text x="55.539568345323744" y="96.53846153846155" class="label" text-anchor="middle">42</text>
  <circle cx="60.719424460431654" cy="101.53846153846155" class="point"/>
  <text x="60.719424460431654" y="375" class="label" text-anchor="middle">2025-11-15</text>
  <text x="60.719424460431654" y="96.53846153846155" class="label" text-anchor="middle">42</text>
  <circle cx="65.89928057553956" cy="101.53846153846155" class="point"/>
  <text x="65.89928057553956" y="375" class="label" text-anchor="middle">2025-11-16</text>
  <text x="65.89928057553956" y="96.53846153846155" class="label" text-anchor="middle">42</text>
  <circle cx="71.07913669064749" cy="101.53846153846155" class="point"/>
  <text x="71.07913669064749" y="375" class="label" text-anchor="middle">2025-11-17</text>
  <text x="71.07913669064749" y="96.53846153846155" class="label" text-anchor="middle">42</text>
  <circle cx="76.2589928057554" cy="101.53846153846155" class="point"/>
  <text x="76.2589928057554" y="375" class="label" text-anchor="middle">2025-11-18</text>
  <text x="76.2589928057554" y="96.53846153846155" class="label" text-anchor="middle">42</text>
  <circle cx="81.43884892086331" cy="101.53846153846155" class="point"/>
  <text x="81.43884892086331" y="375" class="label" text-anchor="middle">2025-11-19</text>
  <text x="81.43884892086331" y="96.53846153846155" class="label" text-anchor="middle">42</text>
  <circle cx="86.61870503597123" cy="101.53846153846155" class="point"/>
  <text x="86.61870503597123" y="375" class="label" text-anchor="middle">2025-11-20</text>
  <text x="86.61870503597123" y="96.53846153846155" class="label" text-anchor="middle">42</text>
  <circle cx="91.79856115107913" cy="101.53846153846155" class="point"/>
  <text x="91.79856115107913" y="375" class="label" text-anchor="middle">2025-11-21</text>
  <text x="91.79856115107913" y="96.53846153846155" class="label" text-anchor="middle">42</text>
  <circle cx="96.97841726618705" cy="101.53846153846155" class="point"/>
  <text x="96.97841726618705" y="375" class="label" text-anchor="middle">2025-11-22</text>
  <text x="96.97841726618705" y="96.53846153846155" class="label" text-anchor="middle">42</text>
  <circle cx="102.15827338129498" cy="101.53846153846155" class="point"/>
  <text x="102.15827338129498" y="375" class="label" text-anchor="middle">2025-11-23</text>
  <text x="102.15827338129498" y="96.53846153846155" class="label" text-anchor="middle">42</text>
  <circle cx="107.33812949640289" cy="101.53846153846155" class="point"/>
  <text x="107.33812949640289" y="375" class="label" text-anchor="middle">2025-11-24</text>
  <text x="107.33812949640289" y="96.53846153846155" class="label" text-anchor="middle">42</text>
  <circle cx="112.5179856115108" cy="101.53846153846155" class="point"/>
  <text x="112.5179856115108" y="375" class="label" text-anchor="middle">2025-11-25</text>
  <text x="112.5179856115108" y="96.53846153846155" class="label" text-anchor="middle">42</text>
  <circle cx="117.6978417266187" cy="101.53846153846155" class="point"/>
  <text x="117.6978417266187" y="375" class="label" text-anchor="middle">2025-11-26</text>
  <text x="117.6978417266187" y="96.53846153846155" class="label" text-anchor="middle">42</text>
  <circle cx="122.87769784172663" cy="101.53846153846155" class="point"/>
  <text x="122.87769784172663" y="375" class="label" text-anchor="middle">2025-11-27</text>
  <text x="122.87769784172663" y="96.53846153846155" class="label" text-anchor="middle">42</text>
  <circle cx="128.05755395683454" cy="101.53846153846155" class="point"/>
  <text x="128.05755395683454" y="375" class="label" text-anchor="middle">2025-11-28</text>
  <text x="128.05755395683454" y="96.53846153846155" class="label" text-anchor="middle">42</text>
  <circle cx="133.23741007194246" cy="101.53846153846155" class="point"/>
  <text x="133.23741007194246" y="375" class="label" text-anchor="middle">2025-11-29</text>
  <text x="133.23741007194246" y="96.53846153846155" class="label" text-anchor="middle">42</text>
  <circle cx="138.41726618705036" cy="101.53846153846155" class="point"/>
  <text x="138.41726618705036" y="375" class="label" text-anchor="middle">2025-11-30</text>
  <text x="138.41726618705036" y="96.53846153846155" class="label" text-anchor="middle">42</text>
  <circle cx="143.59712230215825" cy="101.53846153846155" class="point"/>
  <text x="143.59712230215825" y="375" class="label" text-anchor="middle">2025-12-01</text>
  <text x="143.59712230215825" y="96.53846153846155" class="label" text-anchor="middle">42</text>
  <circle cx="148.7769784172662" cy="101.53846153846155" class="point"/>
  <text x="148.7769784172662" y="375" class="label" text-anchor="middle">2025-12-02</text>
  <text x="148.7769784172662" y="96.53846153846155" class="label" text-anchor="middle">42</text>
  <circle cx="153.9568345323741" cy="101.53846153846155" class="point"/>
  <text x="153.9568345323741" y="375" class="label" text-anchor="middle">2025-12-03</text>
  <text x="153.9568345323741" y="96.53846153846155" class="label" text-anchor="middle">42</text>
  <circle cx="159.136690647482" cy="101.53846153846155" class="point"/>
  <text x="159.136690647482" y="375" class="label" text-anchor="middle">2025-12-04</text>
  <text x="159.136690647482" y="96.53846153846155" class="label" text-anchor="middle">42</text>
  <circle cx="164.31654676258995" cy="101.53846153846155" class="point"/>
  <text x="164.31654676258995" y="375" class="label" text-anchor="middle">2025-12-05</text>
  <text x="164.31654676258995" y="96.53846153846155" class="label" text-anchor="middle">42</text>
  <circle cx="169.49640287769785" cy="101.53846153846155" class="point"/>
  <text x="169.49640287769785" y="375" class="label" text-anchor="middle">2025-12-06</text>
  <text x="169.49640287769785" y="96.53846153846155" class="label" text-anchor="middle">42</text>
  <circle cx="174.67625899280577" cy="101.53846153846155" class="point"/>
  <text x="174.67625899280577" y="375" class="label" text-anchor="middle">2025-12-07</text>
  <text x="174.67625899280577" y="96.53846153846155" class="label" text-anchor="middle">42</text>
  <circle cx="179.85611510791367" cy="40.0" class="point"/>
  <text x="179.85611510791367" y="375" class="label" text-anchor="middle">2025-12-08</text>
  <text x="179.85611510791367" y="35.0" class="label" text-anchor="middle">52</text>
  <circle cx="185.0359712230216" cy="40.0" class="point"/>
  <text x="185.0359712230216" y="375" class="label" text-anchor="middle">2025-12-09</text>
  <text x="185.0359712230216" y="35.0" class="label" text-anchor="middle">52</text>
  <circle cx="190.21582733812951" cy="40.0" class="point"/>
  <text x="190.21582733812951" y="375" class="label" text-anchor="middle">2025-12-10</text>
  <text x="190.21582733812951" y="35.0" class="label" text-anchor="middle">52</text>
  <circle cx="195.3956834532374" cy="40.0" class="point"/>
  <text x="195.3956834532374" y="375" class="label" text-anchor="middle">2025-12-11</text>
  <text x="195.3956834532374" y="35.0" class="label" text-anchor="middle">52</text>
  <circle cx="200.57553956834533" cy="40.0" class="point"/>
  <text x="200.57553956834533" y="375" class="label" text-anchor="middle">2025-12-12</text>
  <text x="200.57553956834533" y="35.0" class="label" text-anchor="middle">52</text>
  <circle cx="205.75539568345326" cy="40.0" class="point"/>
  <text x="205.75539568345326" y="375" class="label" text-anchor="middle">2025-12-13</text>
  <text x="205.75539568345326" y="35.0" class="label" text-anchor="middle">52</text>
  <circle cx="210.93525179856115" cy="40.0" class="point"/>
  <text x="210.93525179856115" y="375" class="label" text-anchor="middle">2025-12-14</text>
  <text x="210.93525179856115" y="35.0" class="label" text-anchor="middle">52</text>
  <circle cx="216.11510791366908" cy="40.0" class="point"/>
  <text x="216.11510791366908" y="375" class="label" text-anchor="middle">2025-12-15</text>
  <text x="216.11510791366908" y="35.0" class="label" text-anchor="middle">52</text>
  <circle cx="221.29496402877697" cy="40.0" class="point"/>
  <text x="221.29496402877697" y="375" class="label" text-anchor="middle">2025-12-16</text>
  <text x="221.29496402877697" y="35.0" class="label" text-anchor="middle">52</text>
  <circle cx="226.4748201438849" cy="40.0" class="point"/>
  <text x="226.4748201438849" y="375" class="label" text-anchor="middle">2025-12-17</text>
  <text x="226.4748201438849" y="35.0" class="label" text-anchor="middle">52</text>
  <circle cx="231.65467625899282" cy="40.0" class="point"/>
  <text x="231.65467625899282" y="375" class="label" text-anchor="middle">2025-12-18</text>
  <text x="231.65467625899282" y="35.0" class="label" text-anchor="middle">52</text>
  <circle cx="236.83453237410075" cy="40.0" class="point"/>
  <text x="236.83453237410075" y="375" class="label" text-anchor="middle">2025-12-19</text>
  <text x="236.83453237410075" y="35.0" class="label" text-anchor="middle">52</text>
  <circle cx="242.0143884892086" cy="40.0" class="point"/>
  <text x="242.0143884892086" y="375" class="label" text-anchor="middle">2025-12-20</text>
  <text x="242.0143884892086" y="35.0" class="label" text-anchor="middle">52</text>
  <circle cx="247.19424460431654" cy="40.0" class="point"/>
  <text x="247.19424460431654" y="375" class="label" text-anchor="middle">2025-12-21</text>
  <text x="247.19424460431654" y="35.0" class="label" text-anchor="middle">52</text>
  <circle cx="252.37410071942446" cy="40.0" class="point"/>
  <text x="252.37410071942446" y="375" class="label" text-anchor="middle">2025-12-22</text>
  <text x="252.37410071942446" y="35.0" class="label" text-anchor="middle">52</text>
  <circle cx="257.5539568345324" cy="40.0" class="point"/>
  <text x="257.5539568345324" y="375" class="label" text-anchor="middle">2025-12-23</text>
  <text x="257.5539568345324" y="35.0" class="label" text-anchor="middle">52</text>
  <circle cx="262.7338129496403" cy="40.0" class="point"/>
  <text x="262.7338129496403" y="375" class="label" text-anchor="middle">2025-12-24</text>
  <text x="262.7338129496403" y="35.0" class="label" text-anchor="middle">52</text>
  <circle cx="267.9136690647482" cy="40.0" class="point"/>
  <text x="267.9136690647482" y="375" class="label" text-anchor="middle">2025-12-25</text>
  <text x="267.9136690647482" y="35.0" class="label" text-anchor="middle">52</text>
  <circle cx="273.0935251798561" cy="40.0" class="point"/>
  <text x="273.0935251798561" y="375" class="label" text-anchor="middle">2025-12-26</text>
  <text x="273.0935251798561" y="35.0" class="label" text-anchor="middle">52</text>
  <circle cx="278.273381294964" cy="40.0" class="point"/>
  <text x="278.273381294964" y="375" class="label" text-anchor="middle">2025-12-27</text>
  <text x="278.273381294964" y="35.0" class="label" text-anchor="middle">52</text>
  <circle cx="283.45323741007195" cy="40.0" class="point"/>
  <text x="283.45323741007195" y="375" class="label" text-anchor="middle">2025-12-28</text>
  <text x="283.45323741007195" y="35.0" class="label" text-anchor="middle">52</text>
  <circle cx="288.6330935251799" cy="40.0" class="point"/>
  <text x="288.6330935251799" y="375" class="label" text-anchor="middle">2025-12-29</text>
  <text x="288.6330935251799" y="35.0" class="label" text-anchor="middle">52</text>
  <circle cx="293.81294964028774" cy="40.0" class="point"/>
  <text x="293.81294964028774" y="375" class="label" text-anchor="middle">2025-12-30</text>
  <text x="293.81294964028774" y="35.0" class="label" text-anchor="middle">52</text>
  <circle cx="298.9928057553957" cy="40.0" class="point"/>
  <text x="298.9928057553957" y="375" class="label" text-anchor="middle">2025-12-31</text>
  <text x="298.9928057553957" y="35.0" class="label" text-anchor="middle">52</text>
  <circle cx="304.1726618705036" cy="40.0" class="point"/>
  <text x="304.1726618705036" y="375" class="label" text-anchor="middle">2026-01-01</text>
  <text x="304.1726618705036" y="35.0" class="label" text-anchor="middle">52</text>
  <circle cx="309.35251798561154" cy="40.0" class="point"/>
  <text x="309.35251798561154" y="375" class="label" text-anchor="middle">2026-01-02</text>
  <text x="309.35251798561154" y="35.0" class="label" text-anchor="middle">52</text>
  <circle cx="314.53237410071944" cy="40.0" class="point"/>
  <text x="314.53237410071944" y="375" class="label" text-anchor="middle">2026-01-03</text>
  <text x="314.53237410071944" y="35.0" class="label" text-anchor="middle">52</text>
  <circle cx="319.71223021582733" cy="40.0" class="point"/>
  <text x="319.71223021582733" y="375" class="label" text-anchor="middle">2026-01-04</text>
  <text x="319.71223021582733" y="35.0" class="label" text-anchor="middle">52</text>
  <circle cx="324.89208633093523" cy="40.0" class="point"/>
  <text x="324.89208633093523" y="375" class="label" text-anchor="middle">2026-01-05</text>
  <text x="324.89208633093523" y="35.0" class="label" text-anchor="middle">52</text>
  <circle cx="330.0719424460432" cy="40.0" class="point"/>
  <text x="330.0719424460432" y="375" class="label" text-anchor="middle">2026-01-06</text>
  <text x="330.0719424460432" y="35.0" class="label" text-anchor="middle">52</text>
  <circle cx="335.2517985611511" cy="40.0" class="point"/>
  <text x="335.2517985611511" y="375" class="label" text-anchor="middle">2026-01-07</text>
  <text x="335.2517985611511" y="35.0" class="label" text-anchor="middle">52</text>
  <circle cx="340.43165467625903" cy="40.0" class="point"/>
  <text x="340.43165467625903" y="375" class="label" text-anchor="middle">2026-01-08</text>
  <text x="340.43165467625903" y="35.0" class="label" text-anchor="middle">52</text>
  <circle cx="345.6115107913669" cy="40.0" class="point"/>
  <text x="345.6115107913669" y="375" class="label" text-anchor="middle">2026-01-09</text>
  <text x="345.6115107913669" y="35.0" class="label" text-anchor="middle">52</text>
  <circle cx="350.7913669064748" cy="40.0" class="point"/>
  <text x="350.7913669064748" y="375" class="label" text-anchor="middle">2026-01-10</text>
  <text x="350.7913669064748" y="35.0" class="label" text-anchor="middle">52</text>
  <circle cx="355.9712230215827" cy="40.0" class="point"/>
  <text x="355.9712230215827" y="375" class="label" text-anchor="middle">2026-01-11</text>
  <text x="355.9712230215827" y="35.0" class="label" text-anchor="middle">52</text>
  <circle cx="361.15107913669067" cy="40.0" class="point"/>
  <text x="361.15107913669067" y="375" class="label" text-anchor="middle">2026-01-12</text>
  <text x="361.15107913669067" y="35.0" class="label" text-anchor="middle">52</text>
  <circle cx="366.33093525179856" cy="40.0" class="point"/>
  <text x="366.33093525179856" y="375" class="label" text-anchor="middle">2026-01-13</text>
  <text x="366.33093525179856" y="35.0" class="label" text-anchor="middle">52</text>
  <circle cx="371.5107913669065" cy="40.0" class="point"/>
  <text x="371.5107913669065" y="375" class="label" text-anchor="middle">2026-01-14</text>
  <text x="371.5107913669065" y="35.0" class="label" text-anchor="middle">52</text>
  <circle cx="376.69064748201436" cy="40.0" class="point"/>
  <text x="376.69064748201436" y="375" class="label" text-anchor="middle">2026-01-15</text>
  <text x="376.69064748201436" y="35.0" class="label" text-anchor="middle">52</text>
  <circle cx="381.8705035971223" cy="40.0" class="point"/>
  <text x="381.8705035971223" y="375" class="label" text-anchor="middle">2026-01-16</text>
  <text x="381.8705035971223" y="35.0" class="label" text-anchor="middle">52</text>
  <circle cx="387.0503597122302" cy="40.0" class="point"/>
  <text x="387.0503597122302" y="375" class="label" text-anchor="middle">2026-01-17</text>
  <text x="387.0503597122302" y="35.0" class="label" text-anchor="middle">52</text>
  <circle cx="392.23021582733816" cy="40.0" class="point"/>
  <text x="392.23021582733816" y="375" class="label" text-anchor="middle">2026-01-18</text>
  <text x="392.23021582733816" y="35.0" class="label" text-anchor="middle">52</text>
  <circle cx="397.41007194244605" cy="40.0" class="point"/>
  <text x="397.41007194244605" y="375" class="label" text-anchor="middle">2026-01-19</text>
  <text x="397.41007194244605" y="35.0" class="label" text-anchor="middle">52</text>
  <circle cx="402.58992805755395" cy="40.0" class="point"/>
  <text x="402.58992805755395" y="375" class="label" text-anchor="middle">2026-01-20</text>
  <text x="402.58992805755395" y="35.0" class="label" text-anchor="middle">52</text>
  <circle cx="407.7697841726619" cy="40.0" class="point"/>
  <text x="407.7697841726619" y="375" class="label" text-anchor="middle">2026-01-21</text>
  <text x="407.7697841726619" y="35.0" class="label" text-anchor="middle">52</text>
  <circle cx="412.9496402877698" cy="40.0" class="point"/>
  <text x="412.9496402877698" y="375" class="label" text-anchor="middle">2026-01-22</text>
  <text x="412.9496402877698" y="35.0" class="label" text-anchor="middle">52</text>
  <circle cx="418.1294964028777" cy="40.0" class="point"/>
  <text x="418.1294964028777" y="375" class="label" text-anchor="middle">2026-01-23</text>
  <text x="418.1294964028777" y="35.0" class="label" text-anchor="middle">52</text>
  <circle cx="423.30935251798564" cy="40.0" class="point"/>
  <text x="423.30935251798564" y="375" class="label" text-anchor="middle">2026-01-24</text>
  <text x="423.30935251798564" y="35.0" class="label" text-anchor="middle">52</text>
  <circle cx="428.4892086330935" cy="40.0" class="point"/>
  <text x="428.4892086330935" y="375" class="label" text-anchor="middle">2026-01-25</text>
  <text x="428.4892086330935" y="35.0" class="label" text-anchor="middle">52</text>
  <circle cx="433.6690647482015" cy="40.0" class="point"/>
  <text x="433.6690647482015" y="375" class="label" text-anchor="middle">2026-01-26</text>
  <text x="433.6690647482015" y="35.0" class="label" text-anchor="middle">52</text>
  <circle cx="438.84892086330933" cy="40.0" class="point"/>
  <text x="438.84892086330933" y="375" class="label" text-anchor="middle">2026-01-27</text>
  <text x="438.84892086330933" y="35.0" class="label" text-anchor="middle">52</text>
  <circle cx="444.0287769784172" cy="40.0" class="point"/>
  <text x="444.0287769784172" y="375" class="label" text-anchor="middle">2026-01-28</text>
  <text x="444.0287769784172" y="35.0" class="label" text-anchor="middle">52</text>
  <circle cx="449.2086330935252" cy="40.0" class="point"/>
  <text x="449.2086330935252" y="375" class="label" text-anchor="middle">2026-01-29</text>
  <text x="449.2086330935252" y="35.0" class="label" text-anchor="middle">52</text>
  <circle cx="454.3884892086331" cy="40.0" class="point"/>
  <text x="454.3884892086331" y="375" class="label" text-anchor="middle">2026-01-30</text>
  <text x="454.3884892086331" y="35.0" class="label" text-anchor="middle">52</text>
  <circle cx="459.568345323741" cy="40.0" class="point"/>
  <text x="459.568345323741" y="375" class="label" text-anchor="middle">2026-01-31</text>
  <text x="459.568345323741" y="35.0" class="label" text-anchor="middle">52</text>
  <circle cx="464.7482014388489" cy="40.0" class="point"/>
  <text x="464.7482014388489" y="375" class="label" text-anchor="middle">2026-02-01</text>
  <text x="464.7482014388489" y="35.0" class="label" text-anchor="middle">52</text>
  <circle cx="469.9280575539568" cy="40.0" class="point"/>
  <text x="469.9280575539568" y="375" class="label" text-anchor="middle">2026-02-02</text>
  <text x="469.9280575539568" y="35.0" class="label" text-anchor="middle">52</text>
  <circle cx="475.10791366906477" cy="40.0" class="point"/>
  <text x="475.10791366906477" y="375" class="label" text-anchor="middle">2026-02-03</text>
  <text x="475.10791366906477" y="35.0" class="label" text-anchor="middle">52</text>
  <circle cx="480.28776978417267" cy="40.0" class="point"/>
  <text x="480.28776978417267" y="375" class="label" text-anchor="middle">2026-02-04</text>
  <text x="480.28776978417267" y="35.0" class="label" text-anchor="middle">52</text>
  <circle cx="485.4676258992806" cy="40.0" class="point"/>
  <text x="485.4676258992806" y="375" class="label" text-anchor="middle">2026-02-05</text>
  <text x="485.4676258992806" y="35.0" class="label" text-anchor="middle">52</text>
  <circle cx="490.64748201438846" cy="40.0" class="point"/>
  <text x="490.64748201438846" y="375" class="label" text-anchor="middle">2026-02-06</text>
  <text x="490.64748201438846" y="35.0" class="label" text-anchor="middle">52</text>
  <circle cx="495.82733812949635" cy="40.0" class="point"/>
  <text x="495.82733812949635" y="375" class="label" text-anchor="middle">2026-02-07</text>
  <text x="495.82733812949635" y="35.0" class="label" text-anchor="middle">52</text>
  <circle cx="501.0071942446043" cy="40.0" class="point"/>
  <text x="501.0071942446043" y="375" class="label" text-anchor="middle">2026-02-08</text>
  <text x="501.0071942446043" y="35.0" class="label" text-anchor="middle">52</text>
  <circle cx="506.1870503597122" cy="40.0" class="point"/>
  <text x="506.1870503597122" y="375" class="label" text-anchor="middle">2026-02-09</text>
  <text x="506.1870503597122" y="35.0" class="label" text-anchor="middle">52</text>
  <circle cx="511.36690647482015" cy="40.0" class="point"/>
  <text x="511.36690647482015" y="375" class="label" text-anchor="middle">2026-02-10</text>
  <text x="511.36690647482015" y="35.0" class="label" text-anchor="middle">52</text>
  <circle cx="516.546762589928" cy="40.0" class="point"/>
  <text x="516.546762589928" y="375" class="label" text-anchor="middle">2026-02-11</text>
  <text x="516.546762589928" y="35.0" class="label" text-anchor="middle">52</text>
  <circle cx="521.7266187050359" cy="40.0" class="point"/>
  <text x="521.7266187050359" y="375" class="label" text-anchor="middle">2026-02-12</text>
  <text x="521.7266187050359" y="35.0" class="label" text-anchor="middle">52</text>
  <circle cx="526.9064748201439" cy="40.0" class="point"/>
  <text x="526.9064748201439" y="375" class="label" text-anchor="middle">2026-02-13</text>
  <text x="526.9064748201439" y="35.0" class="label" text-anchor="middle">52</text>
  <circle cx="532.0863309352518" cy="40.0" class="point"/>
  <text x="532.0863309352518" y="375" class="label" text-anchor="middle">2026-02-14</text>
  <text x="532.0863309352518" y="35.0" class="label" text-anchor="middle">52</text>
  <circle cx="537.2661870503598" cy="40.0" class="point"/>
  <text x="537.2661870503598" y="375" class="label" text-anchor="middle">2026-02-15</text>
  <text x="537.2661870503598" y="35.0" class="label" text-anchor="middle">52</text>
  <circle cx="542.4460431654677" cy="40.0" class="point"/>
  <text x="542.4460431654677" y="375" class="label" text-anchor="middle">2026-02-16</text>
  <text x="542.4460431654677" y="35.0" class="label" text-anchor="middle">52</text>
  <circle cx="547.6258992805755" cy="40.0" class="point"/>
  <text x="547.6258992805755" y="375" class="label" text-anchor="middle">2026-02-17</text>
  <text x="547.6258992805755" y="35.0" class="label" text-anchor="middle">52</text>
  <circle cx="552.8057553956835" cy="40.0" class="point"/>
  <text x="552.8057553956835" y="375" class="label" text-anchor="middle">2026-02-18</text>
  <text x="552.8057553956835" y="35.0" class="label" text-anchor="middle">52</text>
  <circle cx="557.9856115107914" cy="40.0" class="point"/>
  <text x="557.9856115107914" y="375" class="label" text-anchor="middle">2026-02-19</text>
  <text x="557.9856115107914" y="35.0" class="label" text-anchor="middle">52</text>
  <circle cx="563.1654676258993" cy="40.0" class="point"/>
  <text x="563.1654676258993" y="375" class="label" text-anchor="middle">2026-02-20</text>
  <text x="563.1654676258993" y="35.0" class="label" text-anchor="middle">52</text>
  <circle cx="568.3453237410072" cy="40.0" class="point"/>
  <text x="568.3453237410072" y="375" class="label" text-anchor="middle">2026-02-21</text>
  <text x="568.3453237410072" y="35.0" class="label" text-anchor="middle">52</text>
  <circle cx="573.5251798561151" cy="40.0" class="point"/>
  <text x="573.5251798561151" y="375" class="label" text-anchor="middle">2026-02-22</text>
  <text x="573.5251798561151" y="35.0" class="label" text-anchor="middle">52</text>
  <circle cx="578.7050359712231" cy="40.0" class="point"/>
  <text x="578.7050359712231" y="375" class="label" text-anchor="middle">2026-02-23</text>
  <text x="578.7050359712231" y="35.0" class="label" text-anchor="middle">52</text>
  <circle cx="583.8848920863309" cy="40.0" class="point"/>
  <text x="583.8848920863309" y="375" class="label" text-anchor="middle">2026-02-24</text>
  <text x="583.8848920863309" y="35.0" class="label" text-anchor="middle">52</text>
  <circle cx="589.0647482014389" cy="40.0" class="point"/>
  <text x="589.0647482014389" y="375" class="label" text-anchor="middle">2026-02-25</text>
  <text x="589.0647482014389" y="35.0" class="label" text-anchor="middle">52</text>
  <circle cx="594.2446043165468" cy="40.0" class="point"/>
  <text x="594.2446043165468" y="375" class="label" text-anchor="middle">2026-02-26</text>
  <text x="594.2446043165468" y="35.0" class="label" text-anchor="middle">52</text>
  <circle cx="599.4244604316547" cy="40.0" class="point"/>
  <text x="599.4244604316547" y="375" class="label" text-anchor="middle">2026-02-27</text>
  <text x="599.4244604316547" y="35.0" class="label" text-anchor="middle">52</text>
  <circle cx="604.6043165467626" cy="40.0" class="point"/>
  <text x="604.6043165467626" y="375" class="label" text-anchor="middle">2026-02-28</text>
  <text x="604.6043165467626" y="35.0" class="label" text-anchor="middle">52</text>
  <circle cx="609.7841726618705" cy="40.0" class="point"/>
  <text x="609.7841726618705" y="375" class="label" text-anchor="middle">2026-03-01</text>
  <text x="609.7841726618705" y="35.0" class="label" text-anchor="middle">52</text>
  <circle cx="614.9640287769785" cy="40.0" class="point"/>
  <text x="614.9640287769785" y="375" class="label" text-anchor="middle">2026-03-02</text>
  <text x="614.9640287769785" y="35.0" class="label" text-anchor="middle">52</text>
  <circle cx="620.1438848920864" cy="40.0" class="point"/>
  <text x="620.1438848920864" y="375" class="label" text-anchor="middle">2026-03-03</text>
  <text x="620.1438848920864" y="35.0" class="label" text-anchor="middle">52</text>
  <circle cx="625.3237410071943" cy="40.0" class="point"/>
  <text x="625.3237410071943" y="375" class="label" text-anchor="middle">2026-03-04</text>
  <text x="625.3237410071943" y="35.0" class="label" text-anchor="middle">52</text>
  <circle cx="630.5035971223022" cy="40.0" class="point"/>
  <text x="630.5035971223022" y="375" class="label" text-anchor="middle">2026-03-05</text>
  <text x="630.5035971223022" y="35.0" class="label" text-anchor="middle">52</text>
  <circle cx="635.68345323741" cy="40.0" class="point"/>
  <text x="635.68345323741" y="375" class="label" text-anchor="middle">2026-03-06</text>
  <text x="635.68345323741" y="35.0" class="label" text-anchor="middle">52</text>
  <circle cx="640.8633093525181" cy="40.0" class="point"/>
  <text x="640.8633093525181" y="375" class="label" text-anchor="middle">2026-03-07</text>
  <text x="640.8633093525181" y="35.0" class="label" text-anchor="middle">52</text>
  <circle cx="646.0431654676258" cy="40.0" class="point"/>
  <text x="646.0431654676258" y="375" class="label" text-anchor="middle">2026-03-08</text>
  <text x="646.0431654676258" y="35.0" class="label" text-anchor="middle">52</text>
  <circle cx="651.2230215827338" cy="40.0" class="point"/>
  <text x="651.2230215827338" y="375" class="label" text-anchor="middle">2026-03-09</text>
  <text x="651.2230215827338" y="35.0" class="label" text-anchor="middle">52</text>
  <circle cx="656.4028776978417" cy="40.0" class="point"/>
  <text x="656.4028776978417" y="375" class="label" text-anchor="middle">2026-03-10</text>
  <text x="656.4028776978417" y="35.0" class="label" text-anchor="middle">52</text>
  <circle cx="661.5827338129496" cy="40.0" class="point"/>
  <text x="661.5827338129496" y="375" class="label" text-anchor="middle">2026-03-11</text>
  <text x="661.5827338129496" y="35.0" class="label" text-anchor="middle">52</text>
  <circle cx="666.7625899280575" cy="40.0" class="point"/>
  <text x="666.7625899280575" y="375" class="label" text-anchor="middle">2026-03-12</text>
  <text x="666.7625899280575" y="35.0" class="label" text-anchor="middle">52</text>
  <circle cx="671.9424460431654" cy="40.0" class="point"/>
  <text x="671.9424460431654" y="375" class="label" text-anchor="middle">2026-03-13</text>
  <text x="671.9424460431654" y="35.0" class="label" text-anchor="middle">52</text>
  <circle cx="677.1223021582734" cy="40.0" class="point"/>
  <text x="677.1223021582734" y="375" class="label" text-anchor="middle">2026-03-14</text>
  <text x="677.1223021582734" y="35.0" class="label" text-anchor="middle">52</text>
  <circle cx="682.3021582733813" cy="40.0" class="point"/>
  <text x="682.3021582733813" y="375" class="label" text-anchor="middle">2026-03-15</text>
  <text x="682.3021582733813" y="35.0" class="label" text-anchor="middle">52</text>
  <circle cx="687.4820143884892" cy="40.0" class="point"/>
  <text x="687.4820143884892" y="375" class="label" text-anchor="middle">2026-03-16</text>
  <text x="687.4820143884892" y="35.0" class="label" text-anchor="middle">52</text>
  <circle cx="692.6618705035971" cy="40.0" class="point"/>
  <text x="692.6618705035971" y="375" class="label" text-anchor="middle">2026-03-17</text>
  <text x="692.6618705035971" y="35.0" class="label" text-anchor="middle">52</text>
  <circle cx="697.841726618705" cy="40.0" class="point"/>
  <text x="697.841726618705" y="375" class="label" text-anchor="middle">2026-03-18</text>
  <text x="697.841726618705" y="35.0" class="label" text-anchor="middle">52</text>
  <circle cx="703.021582733813" cy="40.0" class="point"/>
  <text x="703.021582733813" y="375" class="label" text-anchor="middle">2026-03-19</text>
  <text x="703.021582733813" y="35.0" class="label" text-anchor="middle">52</text>
  <circle cx="708.2014388489208" cy="40.0" class="point"/>
  <text x="708.2014388489208" y="375" class="label" text-anchor="middle">2026-03-20</text>
  <text x="708.2014388489208" y="35.0" class="label" text-anchor="middle">52</text>
  <circle cx="713.3812949640287" cy="40.0" class="point"/>
  <text x="713.3812949640287" y="375" class="label" text-anchor="middle">2026-03-21</text>
  <text x="713.3812949640287" y="35.0" class="label" text-anchor="middle">52</text>
  <circle cx="718.5611510791367" cy="40.0" class="point"/>
  <text x="718.5611510791367" y="375" class="label" text-anchor="middle">2026-03-22</text>
  <text x="718.5611510791367" y="35.0" class="label" text-anchor="middle">52</text>
  <circle cx="723.7410071942446" cy="40.0" class="point"/>
  <text x="723.7410071942446" y="375" class="label" text-anchor="middle">2026-03-23</text>
  <text x="723.7410071942446" y="35.0" class="label" text-anchor="middle">52</text>
  <circle cx="728.9208633093525" cy="40.0" class="point"/>
  <text x="728.9208633093525" y="375" class="label" text-anchor="middle">2026-03-24</text>
  <text x="728.9208633093525" y="35.0" class="label" text-anchor="middle">52</text>
  <circle cx="734.1007194244604" cy="40.0" class="point"/>
  <text x="734.1007194244604" y="375" class="label" text-anchor="middle">2026-03-25</text>
  <text x="734.1007194244604" y="35.0" class="label" text-anchor="middle">52</text>
  <circle cx="739.2805755395683" cy="40.0" class="point"/>
  <text x="739.2805755395683" y="375" class="label" text-anchor="middle">2026-03-26</text>
  <text x="739.2805755395683" y="35.0" class="label" text-anchor="middle">52</text>
  <circle cx="744.4604316546763" cy="40.0" class="point"/>
  <text x="744.4604316546763" y="375" class="label" text-anchor="middle">2026-03-27</text>
  <text x="744.4604316546763" y="35.0" class="label" text-anchor="middle">52</text>
  <circle cx="749.6402877697842" cy="40.0" class="point"/>
  <text x="749.6402877697842" y="375" class="label" text-anchor="middle">2026-03-28</text>
  <text x="749.6402877697842" y="35.0" class="label" text-anchor="middle">52</text>
  <circle cx="754.8201438848921" cy="40.0" class="point"/>
  <text x="754.8201438848921" y="375" class="label" text-anchor="middle">2026-03-29</text>
  <text x="754.8201438848921" y="35.0" class="label" text-anchor="middle">52</text>
  <circle cx="760.0" cy="40.0" class="point"/>
  <text x="760.0" y="375" class="label" text-anchor="middle">2026-03-30</text>
  <text x="760.0" y="35.0" class="label" text-anchor="middle">52</text>
  <text x="30" y="363.0" class="label" text-anchor="end">0</text>
  <text x="30" y="301.46153846153845" class="label" text-anchor="end">10</text>
  <text x="30" y="239.9230769230769" class="label" text-anchor="end">20</text>
  <text x="30" y="178.38461538461542" class="label" text-anchor="end">30</text>
  <text x="30" y="116.84615384615384" class="label" text-anchor="end">40</text>
  <text x="30" y="55.30769230769232" class="label" text-anchor="end">50</text>
</svg>