<svg xmlns="http://www.w3.org/2000/svg" width="800" height="400" viewBox="0 0 800 400">
  <style>
    .axis{stroke:#666;stroke-width:1}
    .line{stroke:#4a9;stroke-width:2;fill:none}
    .point{fill:#4a9;r:4}
    .label{font:10px sans-serif;fill:#aaa}
    .title{font:14px sans-serif;fill:#333}
  </style>
  <text x="400" y="20" class="title" text-anchor="middle">OPIC Field Growth Timeline</text>
  <line x1="40" y1="40" x2="40" y2="360" class="axis"/>
  <line x1="40" y1="360" x2="760" y2="360" class="axis"/>
  <path d="M 40.0,101.53846153846155 L 44.61538461538461,101.53846153846155 L 49.230769230769226,101.53846153846155 L 53.84615384615385,101.53846153846155 L 58.46153846153846,101.53846153846155 L 63.07692307692307,101.53846153846155 L 67.6923076923077,101.53846153846155 L 72.3076923076923,101.53846153846155 L 76.92307692307692,101.53846153846155 L 81.53846153846155,101.53846153846155 L 86.15384615384615,101.53846153846155 L 90.76923076923077,101.53846153846155 L 95.38461538461539,101.53846153846155 L 100.0,101.53846153846155 L 104.61538461538461,101.53846153846155 L 109.23076923076924,101.53846153846155 L 113.84615384615384,101.53846153846155 L 118.46153846153847,101.53846153846155 L 123.07692307692308,101.53846153846155 L 127.6923076923077,101.53846153846155 L 132.3076923076923,101.53846153846155 L 136.9230769230769,101.53846153846155 L 141.53846153846155,101.53846153846155 L 146.15384615384616,101.53846153846155 L 150.76923076923077,101.53846153846155 L 155.38461538461542,101.53846153846155 L 160.0,101.53846153846155 L 164.6153846153846,40.0 L 169.23076923076923,40.0 L 173.84615384615384,40.0 L 178.46153846153848,40.0 L 183.07692307692307,40.0 L 187.69230769230768,40.0 L 192.3076923076923,40.0 L 196.92307692307693,40.0 L 201.53846153846155,40.0 L 206.15384615384616,40.0 L 210.76923076923077,40.0 L 215.3846153846154,40.0 L 220.0,40.0 L 224.61538461538458,40.0 L 229.23076923076923,40.0 L 233.84615384615384,40.0 L 238.46153846153848,40.0 L 243.07692307692307,40.0 L 247.69230769230768,40.0 L 252.30769230769232,40.0 L 256.9230769230769,40.0 L 261.53846153846155,40.0 L 266.1538461538462,40.0 L 270.76923076923083,40.0 L 275.38461538461536,40.0 L 280.0,40.0 L 284.61538461538464,40.0 L 289.2307692307692,40.0 L 293.84615384615387,40.0 L 298.46153846153845,40.0 L 303.07692307692304,40.0 L 307.6923076923077,40.0 L 312.3076923076923,40.0 L 316.92307692307696,40.0 L 321.53846153846155,40.0 L 326.15384615384613,40.0 L 330.7692307692308,40.0 L 335.38461538461536,40.0 L 340.0,40.0 L 344.6153846153846,40.0 L 349.2307692307692,40.0 L 353.84615384615387,40.0 L 358.46153846153845,40.0 L 363.0769230769231,40.0 L 367.6923076923077,40.0 L 372.3076923076923,40.0 L 376.9230769230769,40.0 L 381.53846153846155,40.0 L 386.1538461538462,40.0 L 390.7692307692308,40.0 L 395.3846153846154,40.0 L 400.0,40.0 L 404.6153846153846,40.0 L 409.23076923076917,40.0 L 413.84615384615387,40.0 L 418.46153846153845,40.0 L 423.0769230769231,40.0 L 427.6923076923077,40.0 L 432.30769230769226,40.0 L 436.92307692307696,40.0 L 441.53846153846155,40.0 L 446.15384615384613,40.0 L 450.7692307692308,40.0 L 455.38461538461536,40.0 L 460.0,40.0 L 464.61538461538464,40.0 L 469.2307692307692,40.0 L 473.8461538461538,40.0 L 478.4615384615384,40.0 L 483.0769230769231,40.0 L 487.6923076923077,40.0 L 492.3076923076923,40.0 L 496.9230769230769,40.0 L 501.5384615384616,40.0 L 506.1538461538462,40.0 L 510.7692307692308,40.0 L 515.3846153846154,40.0 L 520.0,40.0 L 524.6153846153846,40.0 L 529.2307692307693,40.0 L 533.8461538461538,40.0 L 538.4615384615385,40.0 L 543.0769230769231,40.0 L 547.6923076923077,40.0 L 552.3076923076924,40.0 L 556.9230769230769,40.0 L 561.5384615384615,40.0 L 566.1538461538461,40.0 L 570.7692307692308,40.0 L 575.3846153846154,40.0 L 580.0,40.0 L 584.6153846153846,40.0 L 589.2307692307692,40.0 L 593.8461538461539,40.0 L 598.4615384615385,40.0 L 603.0769230769231,40.0 L 607.6923076923076,40.0 L 612.3076923076923,40.0 L 616.9230769230769,40.0 L 621.5384615384615,40.0 L 626.1538461538462,40.0 L 630.7692307692307,40.0 L 635.3846153846154,40.0 L 640.0,40.0 L 644.6153846153846,40.0 L 649.2307692307692,40.0 L 653.8461538461538,40.0 L 658.4615384615385,40.0 L 663.0769230769231,40.0 L 667.6923076923077,40.0 L 672.3076923076923,40.0 L 676.9230769230769,40.0 L 681.5384615384615,40.0 L 686.1538461538462,40.0 L 690.7692307692308,40.0 L 695.3846153846154,40.0 L 700.0,40.0 L 704.6153846153846,40.0 L 709.2307692307693,40.0 L 713.8461538461538,40.0 L 718.4615384615385,40.0 L 723.0769230769231,40.0 L 727.6923076923077,40.0 L 732.3076923076924,40.0 L 736.9230769230769,40.0 L 741.5384615384615,40.0 L 746.1538461538461,40.0 L 750.7692307692308,40.0 L 755.3846153846154,40.0 L 760.0,40.0" class="line"/>
  <circle cx="40.0" cy="101.53846153846155" class="point"/>
  <text x="40.0" y="375" class="label" text-anchor="middle">2025-11-11</text>
  <text x="40.0" y="96.53846153846155" class="label" text-anchor="middle">42</text>
  <circle cx="44.61538461538461" cy="101.53846153846155" class="point"/>
  <text x="44.61538461538461" y="375" class="label" text-anchor="middle">2025-11-12</text>
  <text x="44.61538461538461" y="96.53846153846155" class="label" text-anchor="middle">42</text>
  <circle cx="49.230769230769226" cy="101.53846153846155" class="point"/>
  <text x="49.230769230769226" y="375" class="label" text-anchor="middle">2025-11-13</text>
  <text x="49.230769230769226" y="96.53846153846155" class="label" text-anchor="middle">42</text>
  <circle cx="53.84615384615385" cy="101.53846153846155" class="point"/>
  <text x="53.84615384615385" y="375" class="label" text-anchor="middle">2025-11-14</text>
  <text x="53.84615384615385" y="96.53846153846155" class="label" text-anchor="middle">42</text>
  <circle cx="58.46153846153846" cy="101.53846153846155" class="point"/>
  <text x="58.46153846153846" y="375" class="label" text-anchor="middle">2025-11-15</text>
  <text x="58.46153846153846" y="96.53846153846155" class="label" text-anchor="middle">42</text>
  <circle cx="63.07692307692307" cy="101.53846153846155" class="point"/>
  <text x="63.07692307692307" y="375" class="label" text-anchor="middle">2025-11-16</text>
  <text x="63.07692307692307" y="96.53846153846155" class="label" text-anchor="middle">42</text>
  <circle cx="67.6923076923077" cy="101.53846153846155" class="point"/>
  <text x="67.6923076923077" y="375" class="label" text-anchor="middle">2025-11-17</text>
  <text x="67.6923076923077" y="96.53846153846155" class="label" text-anchor="middle">42</text>
  <circle cx="72.3076923076923" cy="101.53846153846155" class="point"/>
  <text x="72.3076923076923" y="375" class="label" text-anchor="middle">2025-11-18</text>
  <text x="72.3076923076923" y="96.53846153846155" class="label" text-anchor="middle">42</text>
  <circle cx="76.92307692307692" cy="101.53846153846155" class="point"/>
  <text x="76.92307692307692" y="375" class="label" text-anchor="middle">2025-11-19</text>
  <text x="76.92307692307692" y="96.53846153846155" class="label" text-anchor="middle">42</text>
  <circle cx="81.53846153846155" cy="101.53846153846155" class="point"/>
  <text x="81.53846153846155" y="375" class="label" text-anchor="middle">2025-11-20</text>
  <text x="81.53846153846155" y="96.53846153846155" class="label" text-anchor="middle">42</text>
  <circle cx="86.15384615384615" cy="101.53846153846155" class="point"/>
  <text x="86.15384615384615" y="375" class="label" text-anchor="middle">2025-11-21</text>
  <text x="86.15384615384615" y="96.53846153846155" class="label" text-anchor="middle">42</text>
  <circle cx="90.76923076923077" cy="101.53846153846155" class="point"/>
  <text x="90.76923076923077" y="375" class="label" text-anchor="middle">2025-11-22</text>
  <text x="90.76923076923077" y="96.53846153846155" class="label" text-anchor="middle">42</text>
  <circle cx="95.38461538461539" cy="101.53846153846155" class="point"/>
  <text x="95.38461538461539" y="375" class="label" text-anchor="middle">2025-11-23</text>
  <text x="95.38461538461539" y="96.53846153846155" class="label" text-anchor="middle">42</text>
  <circle cx="100.0" cy="101.53846153846155" class="point"/>
  <text x="100.0" y="375" class="label" text-anchor="middle">2025-11-24</text>
  <text x="100.0" y="96.53846153846155" class="label" text-anchor="middle">42</text>
  <circle cx="104.61538461538461" cy="101.53846153846155" class="point"/>
  <text x="104.61538461538461" y="375" class="label" text-anchor="middle">2025-11-25</text>
  <text x="104.61538461538461" y="96.53846153846155" class="label" text-anchor="middle">42</text>
  <circle cx="109.23076923076924" cy="101.53846153846155" class="point"/>
  <text x="109.23076923076924" y="375" class="label" text-anchor="middle">2025-11-26</text>
  <text x="109.23076923076924" y="96.53846153846155" class="label" text-anchor="middle">42</text>
  <circle cx="113.84615384615384" cy="101.53846153846155" class="point"/>
  <text x="113.84615384615384" y="375" class="label" text-anchor="middle">2025-11-27</text>
  <text x="113.84615384615384" y="96.53846153846155" class="label" text-anchor="middle">42</text>
  <circle cx="118.46153846153847" cy="101.53846153846155" class="point"/>
  <text x="118.46153846153847" y="375" class="label" text-anchor="middle">2025-11-28</text>
  <text x="118.46153846153847" y="96.53846153846155" class="label" text-anchor="middle">42</text>
  <circle cx="123.07692307692308" cy="101.53846153846155" class="point"/>
  <text x="123.07692307692308" y="375" class="label" text-anchor="middle">2025-11-29</text>
  <text x="123.07692307692308" y="96.53846153846155" class="label" text-anchor="middle">42</text>
  <circle cx="127.6923076923077" cy="101.53846153846155" class="point"/>
  <text x="127.6923076923077" y="375" class="label" text-anchor="middle">2025-11-30</text>
  <text x="127.6923076923077" y="96.53846153846155" class="label" text-anchor="middle">42</text>
  <circle cx="132.3076923076923" cy="101.53846153846155" class="point"/>
  <text x="132.3076923076923" y="375" class="label" text-anchor="middle">2025-12-01</text>
  <text x="132.3076923076923" y="96.53846153846155" class="label" text-anchor="middle">42</text>
  <circle cx="136.9230769230769" cy="101.53846153846155" class="point"/>
  <text x="136.9230769230769" y="375" class="label" text-anchor="middle">2025-12-02</text>
  <text x="136.9230769230769" y="96.53846153846155" class="label" text-anchor="middle">42</text>
  <circle cx="141.53846153846155" cy="101.53846153846155" class="point"/>
  <text x="141.53846153846155" y="375" class="label" text-anchor="middle">2025-12-03</text>
  <text x="141.53846153846155" y="96.53846153846155" class="label" text-anchor="middle">42</text>
  <circle cx="146.15384615384616" cy="101.53846153846155" class="point"/>
  <text x="146.15384615384616" y="375" class="label" text-anchor="middle">2025-12-04</text>
  <text x="146.15384615384616" y="96.53846153846155" class="label" text-anchor="middle">42</text>
  <circle cx="150.76923076923077" cy="101.53846153846155" class="point"/>
  <text x="150.76923076923077" y="375" class="label" text-anchor="middle">2025-12-05</text>
  <text x="150.76923076923077" y="96.53846153846155" class="label" text-anchor="middle">42</text>
  <circle cx="155.38461538461542" cy="101.53846153846155" class="point"/>
  <text x="155.38461538461542" y="375" class="label" text-anchor="middle">2025-12-06</text>
  <text x="155.38461538461542" y="96.53846153846155" class="label" text-anchor="middle">42</text>
  <circle cx="160.0" cy="101.53846153846155" class="point"/>
  <text x="160.0" y="375" class="label" text-anchor="middle">2025-12-07</text>
  <text x="160.0" y="96.53846153846155" class="label" text-anchor="middle">42</text>
  <circle cx="164.6153846153846" cy="40.0" class="point"/>
  <text x="164.6153846153846" y="375" class="label" text-anchor="middle">2025-12-08</text>
  <text x="164.6153846153846" y="35.0" class="label" text-anchor="middle">52</text>
  <circle cx="169.23076923076923" cy="40.0" class="point"/>
  <text x="169.23076923076923" y="375" class="label" text-anchor="middle">2025-12-09</text>
  <text x="169.23076923076923" y="35.0" class="label" text-anchor="middle">52</text>
  <circle cx="173.84615384615384" cy="40.0" class="point"/>
  <text x="173.84615384615384" y="375" class="label" text-anchor="middle">2025-12-10</text>
  <text x="173.84615384615384" y="35.0" class="label" text-anchor="middle">52</text>
  <circle cx="178.46153846153848" cy="40.0" class="point"/>
  <text x="178.46153846153848" y="375" class="label" text-anchor="middle">2025-12-11</text>
  <text x="178.46153846153848" y="35.0" class="label" text-anchor="middle">52</text>
  <circle cx="183.07692307692307" cy="40.0" class="point"/>
  <text x="183.07692307692307" y="375" class="label" text-anchor="middle">2025-12-12</text>
  <text x="183.07692307692307" y="35.0" class="label" text-anchor="middle">52</text>
  <circle cx="187.69230769230768" cy="40.0" class="point"/>
  <text x="187.69230769230768" y="375" class="label" text-anchor="middle">2025-12-13</text>
  <text x="187.69230769230768" y="35.0" class="label" text-anchor="middle">52</text>
  <circle cx="192.3076923076923" cy="40.0" class="point"/>
  <text x="192.3076923076923" y="375" class="label" text-anchor="middle">2025-12-14</text>
  <text x="192.3076923076923" y="35.0" class="label" text-anchor="middle">52</text>
  <circle cx="196.92307692307693" cy="40.0" class="point"/>
  <text x="196.92307692307693" y="375" class="label" text-anchor="middle">2025-12-15</text>
  <text x="196.92307692307693" y="35.0" class="label" text-anchor="middle">52</text>
  <circle cx="201.53846153846155" cy="40.0" class="point"/>
  <text x="201.53846153846155" y="375" class="label" text-anchor="middle">2025-12-16</text>
  <text x="201.53846153846155" y="35.0" class="label" text-anchor="middle">52</text>
  <circle cx="206.15384615384616" cy="40.0" class="point"/>
  <text x="206.15384615384616" y="375" class="label" text-anchor="middle">2025-12-17</text>
  <text x="206.15384615384616" y="35.0" class="label" text-anchor="middle">52</text>
  <circle cx="210.76923076923077" cy="40.0" class="point"/>
  <text x="210.76923076923077" y="375" class="label" text-anchor="middle">2025-12-18</text>
  <text x="210.76923076923077" y="35.0" class="label" text-anchor="middle">52</text>
  <circle cx="215.3846153846154" cy="40.0" class="point"/>
  <text x="215.3846153846154" y="375" class="label" text-anchor="middle">2025-12-19</text>
  <text x="215.3846153846154" y="35.0" class="label" text-anchor="middle">52</text>
  <circle cx="220.0" cy="40.0" class="point"/>
  <text x="220.0" y="375" class="label" text-anchor="middle">2025-12-20</text>
  <text x="220.0" y="35.0" class="label" text-anchor="middle">52</text>
  <circle cx="224.61538461538458" cy="40.0" class="point"/>
  <text x="224.61538461538458" y="375" class="label" text-anchor="middle">2025-12-21</text>
  <text x="224.61538461538458" y="35.0" class="label" text-anchor="middle">52</text>
  <circle cx="229.23076923076923" cy="40.0" class="point"/>
  <text x="229.23076923076923" y="375" class="label" text-anchor="middle">2025-12-22</text>
  <text x="229.23076923076923" y="35.0" class="label" text-anchor="middle">52</text>
  <circle cx="233.84615384615384" cy="40.0" class="point"/>
  <text x="233.84615384615384" y="375" class="label" text-anchor="middle">2025-12-23</text>
  <text x="233.84615384615384" y="35.0" class="label" text-anchor="middle">52</text>
  <circle cx="238.46153846153848" cy="40.0" class="point"/>
  <text x="238.46153846153848" y="375" class="label" text-anchor="middle">2025-12-24</text>
  <text x="238.46153846153848" y="35.0" class="label" text-anchor="middle">52</text>
  <circle cx="243.07692307692307" cy="40.0" class="point"/>
  <text x="243.07692307692307" y="375" class="label" text-anchor="middle">2025-12-25</text>
  <text x="243.07692307692307" y="35.0" class="label" text-anchor="middle">52</text>
  <circle cx="247.69230769230768" cy="40.0" class="point"/>
  <text x="247.69230769230768" y="375" class="label" text-anchor="middle">2025-12-26</text>
  <text x="247.69230769230768" y="35.0" class="label" text-anchor="middle">52</text>
  <circle cx="252.30769230769232" cy="40.0" class="point"/>
  <text x="252.30769230769232" y="375" class="label" text-anchor="middle">2025-12-27</text>
  <text x="252.30769230769232" y="35.0" class="label" text-anchor="middle">52</text>
  <circle cx="256.9230769230769" cy="40.0" class="point"/>
  <text x="256.9230769230769" y="375" class="label" text-anchor="middle">2025-12-28</text>
  <text x="256.9230769230769" y="35.0" class="label" text-anchor="middle">52</text>
  <circle cx="261.53846153846155" cy="40.0" class="point"/>
  <text x="261.53846153846155" y="375" class="label" text-anchor="middle">2025-12-29</text>
  <text x="261.53846153846155" y="35.0" class="label" text-anchor="middle">52</text>
  <circle cx="266.1538461538462" cy="40.0" class="point"/>
  <text x="266.1538461538462" y="375" class="label" text-anchor="middle">2025-12-30</text>
  <text x="266.1538461538462" y="35.0" class="label" text-anchor="middle">52</text>
  <circle cx="270.76923076923083" cy="40.0" class="point"/>
  <text x="270.76923076923083" y="375" class="label" text-anchor="middle">2025-12-31</text>
  <text x="270.76923076923083" y="35.0" class="label" text-anchor="middle">52</text>
  <circle cx="275.38461538461536" cy="40.0" class="point"/>
  <text x="275.38461538461536" y="375" class="label" text-anchor="middle">2026-01-01</text>
  <text x="275.38461538461536" y="35.0" class="label" text-anchor="middle">52</text>
  <circle cx="280.0" cy="40.0" class="point"/>
  <text x="280.0" y="375" class="label" text-anchor="middle">2026-01-02</text>
  <text x="280.0" y="35.0" class="label" text-anchor="middle">52</text>
  <circle cx="284.61538461538464" cy="40.0" class="point"/>
  <text x="284.61538461538464" y="375" class="label" text-anchor="middle">2026-01-03</text>
  <text x="284.61538461538464" y="35.0" class="label" text-anchor="middle">52</text>
  <circle cx="289.2307692307692" cy="40.0" class="point"/>
  <text x="289.2307692307692" y="375" class="label" text-anchor="middle">2026-01-04</text>
  <text x="289.2307692307692" y="35.0" class="label" text-anchor="middle">52</text>
  <circle cx="293.84615384615387" cy="40.0" class="point"/>
  <text x="293.84615384615387" y="375" class="label" text-anchor="middle">2026-01-05</text>
  <text x="293.84615384615387" y="35.0" class="label" text-anchor="middle">52</text>
  <circle cx="298.46153846153845" cy="40.0" class="point"/>
  <text x="298.46153846153845" y="375" class="label" text-anchor="middle">2026-01-06</text>
  <text x="298.46153846153845" y="35.0" class="label" text-anchor="middle">52</text>
  <circle cx="303.07692307692304" cy="40.0" class="point"/>
  <text x="303.07692307692304" y="375" class="label" text-anchor="middle">2026-01-07</text>
  <text x="303.07692307692304" y="35.0" class="label" text-anchor="middle">52</text>
  <circle cx="307.6923076923077" cy="40.0" class="point"/>
  <text x="307.6923076923077" y="375" class="label" text-anchor="middle">2026-01-08</text>
  <text x="307.6923076923077" y="35.0" class="label" text-anchor="middle">52</text>
  <circle cx="312.3076923076923" cy="40.0" class="point"/>
  <text x="312.3076923076923" y="375" class="label" text-anchor="middle">2026-01-09</text>
  <text x="312.3076923076923" y="35.0" class="label" text-anchor="middle">52</text>
  <circle cx="316.92307692307696" cy="40.0" class="point"/>
  <text x="316.92307692307696" y="375" class="label" text-anchor="middle">2026-01-10</text>
  <text x="316.92307692307696" y="35.0" class="label" text-anchor="middle">52</text>
  <circle cx="321.53846153846155" cy="40.0" class="point"/>
  <text x="321.53846153846155" y="375" class="label" text-anchor="middle">2026-01-11</text>
  <text x="321.53846153846155" y="35.0" class="label" text-anchor="middle">52</text>
  <circle cx="326.15384615384613" cy="40.0" class="point"/>
  <text x="326.15384615384613" y="375" class="label" text-anchor="middle">2026-01-12</text>
  <text x="326.15384615384613" y="35.0" class="label" text-anchor="middle">52</text>
  <circle cx="330.7692307692308" cy="40.0" class="point"/>
  <text x="330.7692307692308" y="375" class="label" text-anchor="middle">2026-01-13</text>
  <text x="330.7692307692308" y="35.0" class="label" text-anchor="middle">52</text>
  <circle cx="335.38461538461536" cy="40.0" class="point"/>
  <text x="335.38461538461536" y="375" class="label" text-anchor="middle">2026-01-14</text>
  <text x="335.38461538461536" y="35.0" class="label" text-anchor="middle">52</text>
  <circle cx="340.0" cy="40.0" class="point"/>
  <text x="340.0" y="375" class="label" text-anchor="middle">2026-01-15</text>
  <text x="340.0" y="35.0" class="label" text-anchor="middle">52</text>
  <circle cx="344.6153846153846" cy="40.0" class="point"/>
  <text x="344.6153846153846" y="375" class="label" text-anchor="middle">2026-01-16</text>
  <text x="344.6153846153846" y="35.0" class="label" text-anchor="middle">52</text>
  <circle cx="349.2307692307692" cy="40.0" class="point"/>
  <text x="349.2307692307692" y="375" class="label" text-anchor="middle">2026-01-17</text>
  <text x="349.2307692307692" y="35.0" class="label" text-anchor="middle">52</text>
  <circle cx="353.84615384615387" cy="40.0" class="point"/>
  <text x="353.84615384615387" y="375" class="label" text-anchor="middle">2026-01-18</text>
  <text x="353.84615384615387" y="35.0" class="label" text-anchor="middle">52</text>
  <circle cx="358.46153846153845" cy="40.0" class="point"/>
  <text x="358.46153846153845" y="375" class="label" text-anchor="middle">2026-01-19</text>
  <text x="358.46153846153845" y="35.0" class="label" text-anchor="middle">52</text>
  <circle cx="363.0769230769231" cy="40.0" class="point"/>
  <text x="363.0769230769231" y="375" class="label" text-anchor="middle">2026-01-20</text>
  <text x="363.0769230769231" y="35.0" class="label" text-anchor="middle">52</text>
  <circle cx="367.6923076923077" cy="40.0" class="point"/>
  <text x="367.6923076923077" y="375" class="label" text-anchor="middle">2026-01-21</text>
  <text x="367.6923076923077" y="35.0" class="label" text-anchor="middle">52</text>
  <circle cx="372.3076923076923" cy="40.0" class="point"/>
  <text x="372.3076923076923" y="375" class="label" text-anchor="middle">2026-01-22</text>
  <text x="372.3076923076923" y="35.0" class="label" text-anchor="middle">52</text>
  <circle cx="376.9230769230769" cy="40.0" class="point"/>
  <text x="376.9230769230769" y="375" class="label" text-anchor="middle">2026-01-23</text>
  <text x="376.9230769230769" y="35.0" class="label" text-anchor="middle">52</text>
  <circle cx="381.53846153846155" cy="40.0" class="point"/>
  <text x="381.53846153846155" y="375" class="label" text-anchor="middle">2026-01-24</text>
  <text x="381.53846153846155" y="35.0" class="label" text-anchor="middle">52</text>
  <circle cx="386.1538461538462" cy="40.0" class="point"/>
  <text x="386.1538461538462" y="375" class="label" text-anchor="middle">2026-01-25</text>
  <text x="386.1538461538462" y="35.0" class="label" text-anchor="middle">52</text>
  <circle cx="390.7692307692308" cy="40.0" class="point"/>
  <text x="390.7692307692308" y="375" class="label" text-anchor="middle">2026-01-26</text>
  <text x="390.7692307692308" y="35.0" class="label" text-anchor="middle">52</text>
  <circle cx="395.3846153846154" cy="40.0" class="point"/>
  <text x="395.3846153846154" y="375" class="label" text-anchor="middle">2026-01-27</text>
  <text x="395.3846153846154" y="35.0" class="label" text-anchor="middle">52</text>
  <circle cx="400.0" cy="40.0" class="point"/>
  <text x="400.0" y="375" class="label" text-anchor="middle">2026-01-28</text>
  <text x="400.0" y="35.0" class="label" text-anchor="middle">52</text>
  <circle cx="404.6153846153846" cy="40.0" class="point"/>
  <text x="404.6153846153846" y="375" class="label" text-anchor="middle">2026-01-29</text>
  <text x="404.6153846153846" y="35.0" class="label" text-anchor="middle">52</text>
  <circle cx="409.23076923076917" cy="40.0" class="point"/>
  <text x="409.23076923076917" y="375" class="label" text-anchor="middle">2026-01-30</text>
  <text x="409.23076923076917" y="35.0" class="label" text-anchor="middle">52</text>
  <circle cx="413.84615384615387" cy="40.0" class="point"/>
  <text x="413.84615384615387" y="375" class="label" text-anchor="middle">2026-01-31</text>
  <text x="413.84615384615387" y="35.0" class="label" text-anchor="middle">52</text>
  <circle cx="418.46153846153845" cy="40.0" class="point"/>
  <text x="418.46153846153845" y="375" class="label" text-anchor="middle">2026-02-01</text>
  <text x="418.46153846153845" y="35.0" class="label" text-anchor="middle">52</text>
  <circle cx="423.0769230769231" cy="40.0" class="point"/>
  <text x="423.0769230769231" y="375" class="label" text-anchor="middle">2026-02-02</text>
  <text x="423.0769230769231" y="35.0" class="label" text-anchor="middle">52</text>
  <circle cx="427.6923076923077" cy="40.0" class="point"/>
  <text x="427.6923076923077" y="375" class="label" text-anchor="middle">2026-02-03</text>
  <text x="427.6923076923077" y="35.0" class="label" text-anchor="middle">52</text>
  <circle cx="432.30769230769226" cy="40.0" class="point"/>
  <text x="432.30769230769226" y="375" class="label" text-anchor="middle">2026-02-04</text>
  <text x="432.30769230769226" y="35.0" class="label" text-anchor="middle">52</text>
  <circle cx="436.92307692307696" cy="40.0" class="point"/>
  <text x="436.92307692307696" y="375" class="label" text-anchor="middle">2026-02-05</text>
  <text x="436.92307692307696" y="35.0" class="label" text-anchor="middle">52</text>
  <circle cx="441.53846153846155" cy="40.0" class="point"/>
  <text x="441.53846153846155" y="375" class="label" text-anchor="middle">2026-02-06</text>
  <text x="441.53846153846155" y="35.0" class="label" text-anchor="middle">52</text>
  <circle cx="446.15384615384613" cy="40.0" class="point"/>
  <text x="446.15384615384613" y="375" class="label" text-anchor="middle">2026-02-07</text>
  <text x="446.15384615384613" y="35.0" class="label" text-anchor="middle">52</text>
  <circle cx="450.7692307692308" cy="40.0" class="point"/>
  <text x="450.7692307692308" y="375" class="label" text-anchor="middle">2026-02-08</text>
  <text x="450.7692307692308" y="35.0" class="label" text-anchor="middle">52</text>
  <circle cx="455.38461538461536" cy="40.0" class="point"/>
  <text x="455.38461538461536" y="375" class="label" text-anchor="middle">2026-02-09</text>
  <text x="455.38461538461536" y="35.0" class="label" text-anchor="middle">52</text>
  <circle cx="460.0" cy="40.0" class="point"/>
  <text x="460.0" y="375" class="label" text-anchor="middle">2026-02-10</text>
  <text x="460.0" y="35.0" class="label" text-anchor="middle">52</text>
  <circle cx="464.61538461538464" cy="40.0" class="point"/>
  <text x="464.61538461538464" y="375" class="label" text-anchor="middle">2026-02-11</text>
  <text x="464.61538461538464" y="35.0" class="label" text-anchor="middle">52</text>
  <circle cx="469.2307692307692" cy="40.0" class="point"/>
  <text x="469.2307692307692" y="375" class="label" text-anchor="middle">2026-02-12</text>
  <text x="469.2307692307692" y="35.0" class="label" text-anchor="middle">52</text>
  <circle cx="473.8461538461538" cy="40.0" class="point"/>
  <text x="473.8461538461538" y="375" class="label" text-anchor="middle">2026-02-13</text>
  <text x="473.8461538461538" y="35.0" class="label" text-anchor="middle">52</text>
  <circle cx="478.4615384615384" cy="40.0" class="point"/>
  <text x="478.4615384615384" y="375" class="label" text-anchor="middle">2026-02-14</text>
  <text x="478.4615384615384" y="35.0" class="label" text-anchor="middle">52</text>
  <circle cx="483.0769230769231" cy="40.0" class="point"/>
  <text x="483.0769230769231" y="375" class="label" text-anchor="middle">2026-02-15</text>
  <text x="483.0769230769231" y="35.0" class="label" text-anchor="middle">52</text>
  <circle cx="487.6923076923077" cy="40.0" class="point"/>
  <text x="487.6923076923077" y="375" class="label" text-anchor="middle">2026-02-16</text>
  <text x="487.6923076923077" y="35.0" class="label" text-anchor="middle">52</text>
  <circle cx="492.3076923076923" cy="40.0" class="point"/>
  <text x="492.3076923076923" y="375" class="label" text-anchor="middle">2026-02-17</text>
  <text x="492.3076923076923" y="35.0" class="label" text-anchor="middle">52</text>
  <circle cx="496.9230769230769" cy="40.0" class="point"/>
  <text x="496.9230769230769" y="375" class="label" text-anchor="middle">2026-02-18</text>
  <text x="496.9230769230769" y="35.0" class="label" text-anchor="middle">52</text>
  <circle cx="501.5384615384616" cy="40.0" class="point"/>
  <text x="501.5384615384616" y="375" class="label" text-anchor="middle">2026-02-19</text>
  <text x="501.5384615384616" y="35.0" class="label" text-anchor="middle">52</text>
  <circle cx="506.1538461538462" cy="40.0" class="point"/>
  <text x="506.1538461538462" y="375" class="label" text-anchor="middle">2026-02-20</text>
  <text x="506.1538461538462" y="35.0" class="label" text-anchor="middle">52</text>
  <circle cx="510.7692307692308" cy="40.0" class="point"/>
  <text x="510.7692307692308" y="375" class="label" text-anchor="middle">2026-02-21</text>
  <text x="510.7692307692308" y="35.0" class="label" text-anchor="middle">52</text>
  <circle cx="515.3846153846154" cy="40.0" class="point"/>
  <text x="515.3846153846154" y="375" class="label" text-anchor="middle">2026-02-22</text>
  <text x="515.3846153846154" y="35.0" class="label" text-anchor="middle">52</text>
  <circle cx="520.0" cy="40.0" class="point"/>
  <text x="520.0" y="375" class="label" text-anchor="middle">2026-02-23</text>
  <text x="520.0" y="35.0" class="label" text-anchor="middle">52</text>
  <circle cx="524.6153846153846" cy="40.0" class="point"/>
  <text x="524.6153846153846" y="375" class="label" text-anchor="middle">2026-02-24</text>
  <text x="524.6153846153846" y="35.0" class="label" text-anchor="middle">52</text>
  <circle cx="529.2307692307693" cy="40.0" class="point"/>
  <text x="529.2307692307693" y="375" class="label" text-anchor="middle">2026-02-25</text>
  <text x="529.2307692307693" y="35.0" class="label" text-anchor="middle">52</text>
  <circle cx="533.8461538461538" cy="40.0" class="point"/>
  <text x="533.8461538461538" y="375" class="label" text-anchor="middle">2026-02-26</text>
  <text x="533.8461538461538" y="35.0" class="label" text-anchor="middle">52</text>
  <circle cx="538.4615384615385" cy="40.0" class="point"/>
  <text x="538.4615384615385" y="375" class="label" text-anchor="middle">2026-02-27</text>
  <text x="538.4615384615385" y="35.0" class="label" text-anchor="middle">52</text>
  <circle cx="543.0769230769231" cy="40.0" class="point"/>
  <text x="543.0769230769231" y="375" class="label" text-anchor="middle">2026-02-28</text>
  <text x="543.0769230769231" y="35.0" class="label" text-anchor="middle">52</text>
  <circle cx="547.6923076923077" cy="40.0" class="point"/>
  <text x="547.6923076923077" y="375" class="label" text-anchor="middle">2026-03-01</text>
  <text x="547.6923076923077" y="35.0" class="label" text-anchor="middle">52</text>
  <circle cx="552.3076923076924" cy="40.0" class="point"/>
  <text x="552.3076923076924" y="375" class="label" text-anchor="middle">2026-03-02</text>
  <text x="552.3076923076924" y="35.0" class="label" text-anchor="middle">52</text>
  <circle cx="556.9230769230769" cy="40.0" class="point"/>
  <text x="556.9230769230769" y="375" class="label" text-anchor="middle">2026-03-03</text>
  <text x="556.9230769230769" y="35.0" class="label" text-anchor="middle">52</text>
  <circle cx="561.5384615384615" cy="40.0" class="point"/>
  <text x="561.5384615384615" y="375" class="label" text-anchor="middle">2026-03-04</text>
  <text x="561.5384615384615" y="35.0" class="label" text-anchor="middle">52</text>
  <circle cx="566.1538461538461" cy="40.0" class="point"/>
  <text x="566.1538461538461" y="375" class="label" text-anchor="middle">2026-03-05</text>
  <text x="566.1538461538461" y="35.0" class="label" text-anchor="middle">52</text>
  <circle cx="570.7692307692308" cy="40.0" class="point"/>
  <text x="570.7692307692308" y="375" class="label" text-anchor="middle">2026-03-06</text>
  <text x="570.7692307692308" y="35.0" class="label" text-anchor="middle">52</text>
  <circle cx="575.3846153846154" cy="40.0" class="point"/>
  <text x="575.3846153846154" y="375" class="label" text-anchor="middle">2026-03-07</text>
  <text x="575.3846153846154" y="35.0" class="label" text-anchor="middle">52</text>
  <circle cx="580.0" cy="40.0" class="point"/>
  <text x="580.0" y="375" class="label" text-anchor="middle">2026-03-08</text>
  <text x="580.0" y="35.0" class="label" text-anchor="middle">52</text>
  <circle cx="584.6153846153846" cy="40.0" class="point"/>
  <text x="584.6153846153846" y="375" class="label" text-anchor="middle">2026-03-09</text>
  <text x="584.6153846153846" y="35.0" class="label" text-anchor="middle">52</text>
  <circle cx="589.2307692307692" cy="40.0" class="point"/>
  <text x="589.2307692307692" y="375" class="label" text-anchor="middle">2026-03-10</text>
  <text x="589.2307692307692" y="35.0" class="label" text-anchor="middle">52</text>
  <circle cx="593.8461538461539" cy="40.0" class="point"/>
  <text x="593.8461538461539" y="375" class="label" text-anchor="middle">2026-03-11</text>
  <text x="593.8461538461539" y="35.0" class="label" text-anchor="middle">52</text>
  <circle cx="598.4615384615385" cy="40.0" class="point"/>
  <text x="598.4615384615385" y="375" class="label" text-anchor="middle">2026-03-12</text>
  <text x="598.4615384615385" y="35.0" class="label" text-anchor="middle">52</text>
  <circle cx="603.0769230769231" cy="40.0" class="point"/>
  <text x="603.0769230769231" y="375" class="label" text-anchor="middle">2026-03-13</text>
  <text x="603.0769230769231" y="35.0" class="label" text-anchor="middle">52</text>
  <circle cx="607.6923076923076" cy="40.0" class="point"/>
  <text x="607.6923076923076" y="375" class="label" text-anchor="middle">2026-03-14</text>
  <text x="607.6923076923076" y="35.0" class="label" text-anchor="middle">52</text>
  <circle cx="612.3076923076923" cy="40.0" class="point"/>
  <text x="612.3076923076923" y="375" class="label" text-anchor="middle">2026-03-15</text>
  <text x="612.3076923076923" y="35.0" class="label" text-anchor="middle">52</text>
  <circle cx="616.9230769230769" cy="40.0" class="point"/>
  <text x="616.9230769230769" y="375" class="label" text-anchor="middle">2026-03-16</text>
  <text x="616.9230769230769" y="35.0" class="label" text-anchor="middle">52</text>
  <circle cx="621.5384615384615" cy="40.0" class="point"/>
  <text x="621.5384615384615" y="375" class="label" text-anchor="middle">2026-03-17</text>
  <text x="621.5384615384615" y="35.0" class="label" text-anchor="middle">52</text>
  <circle cx="626.1538461538462" cy="40.0" class="point"/>
  <text x="626.1538461538462" y="375" class="label" text-anchor="middle">2026-03-18</text>
  <text x="626.1538461538462" y="35.0" class="label" text-anchor="middle">52</text>
  <circle cx="630.7692307692307" cy="40.0" class="point"/>
  <text x="630.7692307692307" y="375" class="label" text-anchor="middle">2026-03-19</text>
  <text x="630.7692307692307" y="35.0" class="label" text-anchor="middle">52</text>
  <circle cx="635.3846153846154" cy="40.0" class="point"/>
  <text x="635.3846153846154" y="375" class="label" text-anchor="middle">2026-03-20</text>
  <text x="635.3846153846154" y="35.0" class="label" text-anchor="middle">52</text>
  <circle cx="640.0" cy="40.0" class="point"/>
  <text x="640.0" y="375" class="label" text-anchor="middle">2026-03-21</text>
  <text x="640.0" y="35.0" class="label" text-anchor="middle">52</text>
  <circle cx="644.6153846153846" cy="40.0" class="point"/>
  <text x="644.6153846153846" y="375" class="label" text-anchor="middle">2026-03-22</text>
  <text x="644.6153846153846" y="35.0" class="label" text-anchor="middle">52</text>
  <circle cx="649.2307692307692" cy="40.0" class="point"/>
  <text x="649.2307692307692" y="375" class="label" text-anchor="middle">2026-03-23</text>
  <text x="649.2307692307692" y="35.0" class="label" text-anchor="middle">52</text>
  <circle cx="653.8461538461538" cy="40.0" class="point"/>
  <text x="653.8461538461538" y="375" class="label" text-anchor="middle">2026-03-24</text>
  <text x="653.8461538461538" y="35.0" class="label" text-anchor="middle">52</text>
  <circle cx="658.4615384615385" cy="40.0" class="point"/>
  <text x="658.4615384615385" y="375" class="label" text-anchor="middle">2026-03-25</text>
  <text x="658.4615384615385" y="35.0" class="label" text-anchor="middle">52</text>
  <circle cx="663.0769230769231" cy="40.0" class="point"/>
  <text x="663.0769230769231" y="375" class="label" text-anchor="middle">2026-03-26</text>
  <text x="663.0769230769231" y="35.0" class="label" text-anchor="middle">52</text>
  <circle cx="667.6923076923077" cy="40.0" class="point"/>
  <text x="667.6923076923077" y="375" class="label" text-anchor="middle">2026-03-27</text>
  <text x="667.6923076923077" y="35.0" class="label" text-anchor="middle">52</text>
  <circle cx="672.3076923076923" cy="40.0" class="point"/>
  <text x="672.3076923076923" y="375" class="label" text-anchor="middle">2026-03-28</text>
  <text x="672.3076923076923" y="35.0" class="label" text-anchor="middle">52</text>
  <circle cx="676.9230769230769" cy="40.0" class="point"/>
  <text x="676.9230769230769" y="375" class="label" text-anchor="middle">2026-03-29</text>
  <text x="676.9230769230769" y="35.0" class="label" text-anchor="middle">52</text>
  <circle cx="681.5384615384615" cy="40.0" class="point"/>
  <text x="681.5384615384615" y="375" class="label" text-anchor="middle">2026-03-30</text>
  <text x="681.5384615384615" y="35.0" class="label" text-anchor="middle">52</text>
  <circle cx="686.1538461538462" cy="40.0" class="point"/>
  <text x="686.1538461538462" y="375" class="label" text-anchor="middle">2026-03-31</text>
  <text x="686.1538461538462" y="35.0" class="label" text-anchor="middle">52</text>
  <circle cx="690.7692307692308" cy="40.0" class="point"/>
  <text x="690.7692307692308" y="375" class="label" text-anchor="middle">2026-04-01</text>
  <text x="690.7692307692308" y="35.0" class="label" text-anchor="middle">52</text>
  <circle cx="695.3846153846154" cy="40.0" class="point"/>
  <text x="695.3846153846154" y="375" class="label" text-anchor="middle">2026-04-02</text>
  <text x="695.3846153846154" y="35.0" class="label" text-anchor="middle">52</text>
  <circle cx="700.0" cy="40.0" class="point"/>
  <text x="700.0" y="375" class="label" text-anchor="middle">2026-04-03</text>
  <text x="700.0" y="35.0" class="label" text-anchor="middle">52</text>
  <circle cx="704.6153846153846" cy="40.0" class="point"/>
  <text x="704.6153846153846" y="375" class="label" text-anchor="middle">2026-04-04</text>
  <text x="704.6153846153846" y="35.0" class="label" text-anchor="middle">52</text>
  <circle cx="709.2307692307693" cy="40.0" class="point"/>
  <text x="709.2307692307693" y="375" class="label" text-anchor="middle">2026-04-05</text>
  <text x="709.2307692307693" y="35.0" class="label" text-anchor="middle">52</text>
  <circle cx="713.8461538461538" cy="40.0" class="point"/>
  <text x="713.8461538461538" y="375" class="label" text-anchor="middle">2026-04-06</text>
  <text x="713.8461538461538" y="35.0" class="label" text-anchor="middle">52</text>
  <circle cx="718.4615384615385" cy="40.0" class="point"/>
  <text x="718.4615384615385" y="375" class="label" text-anchor="middle">2026-04-07</text>
  <text x="718.4615384615385" y="35.0" class="label" text-anchor="middle">52</text>
  <circle cx="723.0769230769231" cy="40.0" class="point"/>
  <text x="723.0769230769231" y="375" class="label" text-anchor="middle">2026-04-08</text>
  <text x="723.0769230769231" y="35.0" class="label" text-anchor="middle">52</text>
  <circle cx="727.6923076923077" cy="40.0" class="point"/>
  <text x="727.6923076923077" y="375" class="label" text-anchor="middle">2026-04-09</text>
  <text x="727.6923076923077" y="35.0" class="label" text-anchor="middle">52</text>
  <circle cx="732.3076923076924" cy="40.0" class="point"/>
  <text x="732.3076923076924" y="375" class="label" text-anchor="middle">2026-04-10</text>
  <text x="732.3076923076924" y="35.0" class="label" text-anchor="middle">52</text>
  <circle cx="736.9230769230769" cy="40.0" class="point"/>
  <text x="736.9230769230769" y="375" class="label" text-anchor="middle">2026-04-11</text>
  <text x="736.9230769230769" y="35.0" class="label" text-anchor="middle">52</text>
  <circle cx="741.5384615384615" cy="40.0" class="point"/>
  <text x="741.5384615384615" y="375" class="label" text-anchor="middle">2026-04-12</text>
  <text x="741.5384615384615" y="35.0" class="label" text-anchor="middle">52</text>
  <circle cx="746.1538461538461" cy="40.0" class="point"/>
  <text x="746.1538461538461" y="375" class="label" text-anchor="middle">2026-04-13</text>
  <text x="746.1538461538461" y="35.0" class="label" text-anchor="middle">52</text>
  <circle cx="750.7692307692308" cy="40.0" class="point"/>
  <text x="750.7692307692308" y="375" class="label" text-anchor="middle">2026-04-14</text>
  <text x="750.7692307692308" y="35.0" class="label" text-anchor="middle">52</text>
  <circle cx="755.3846153846154" cy="40.0" class="point"/>
  <text x="755.3846153846154" y="375" class="label" text-anchor="middle">2026-04-15</text>
  <text x="755.3846153846154" y="35.0" class="label" text-anchor="middle">52</text>
  <circle cx="760.0" cy="40.0" class="point"/>
  <text x="760.0" y="375" class="label" text-anchor="middle">2026-04-16</text>
  <text x="760.0" y="35.0" class="label" text-anchor="middle">52</text>
  <text x="30" y="363.0" class="label" text-anchor="end">0</text>
  <text x="30" y="301.46153846153845" class="label" text-anchor="end">10</text>
  <text x="30" y="239.9230769230769" class="label" text-anchor="end">20</text>
  <text x="30" y="178.38461538461542" class="label" text-anchor="end">30</text>
  <text x="30" y="116.84615384615384" class="label" text-anchor="end">40</text>
  <text x="30" y="55.30769230769232" class="label" text-anchor="end">50</text>
</svg>