<svg xmlns="http://www.w3.org/2000/svg" width="800" height="400" viewBox="0 0 800 400">
  <style>
    .axis{stroke:#666;stroke-width:1}
    .line{stroke:#4a9;stroke-width:2;fill:none}
    .point{fill:#4a9;r:4}
    .label{font:10px sans-serif;fill:#aaa}
    .title{font:14px sans-serif;fill:#333}
  </style>
  <text x="400" y="20" class="title" text-anchor="middle">OPIC Field Growth Timeline</text>
  <line x1="40" y1="40" x2="40" y2="360" class="axis"/>
  <line x1="40" y1="360" x2="760" y2="360" class="axis"/>
  <path d="M 40.0,101.53846153846155 L 45.58139534883721,101.53846153846155 L 51.16279069767442,101.53846153846155 L 56.74418604651163,101.53846153846155 L 62.325581395348834,101.53846153846155 L 67.90697674418604,101.53846153846155 L 73.48837209302326,101.53846153846155 L 79.06976744186046,101.53846153846155 L 84.65116279069767,101.53846153846155 L 90.23255813953489,101.53846153846155 L 95.81395348837209,101.53846153846155 L 101.3953488372093,101.53846153846155 L 106.97674418604652,101.53846153846155 L 112.55813953488372,101.53846153846155 L 118.13953488372093,101.53846153846155 L 123.72093023255813,101.53846153846155 L 129.30232558139534,101.53846153846155 L 134.88372093023258,101.53846153846155 L 140.46511627906978,101.53846153846155 L 146.04651162790697,101.53846153846155 L 151.62790697674419,101.53846153846155 L 157.2093023255814,101.53846153846155 L 162.7906976744186,101.53846153846155 L 168.37209302325581,101.53846153846155 L 173.95348837209303,101.53846153846155 L 179.53488372093025,101.53846153846155 L 185.11627906976744,101.53846153846155 L 190.69767441860466,40.0 L 196.27906976744185,40.0 L 201.86046511627907,40.0 L 207.44186046511626,40.0 L 213.02325581395348,40.0 L 218.6046511627907,40.0 L 224.18604651162792,40.0 L 229.76744186046514,40.0 L 235.3488372093023,40.0 L 240.93023255813952,40.0 L 246.51162790697674,40.0 L 252.09302325581396,40.0 L 257.6744186046511,40.0 L 263.25581395348837,40.0 L 268.8372093023256,40.0 L 274.4186046511628,40.0 L 280.0,40.0 L 285.5813953488372,40.0 L 291.16279069767444,40.0 L 296.74418604651163,40.0 L 302.3255813953488,40.0 L 307.90697674418607,40.0 L 313.48837209302326,40.0 L 319.0697674418605,40.0 L 324.65116279069764,40.0 L 330.2325581395349,40.0 L 335.8139534883721,40.0 L 341.3953488372093,40.0 L 346.9767441860465,40.0 L 352.5581395348837,40.0 L 358.13953488372096,40.0 L 363.72093023255815,40.0 L 369.30232558139534,40.0 L 374.8837209302325,40.0 L 380.4651162790698,40.0 L 386.04651162790697,40.0 L 391.62790697674416,40.0 L 397.2093023255814,40.0 L 402.7906976744186,40.0 L 408.37209302325584,40.0 L 413.95348837209303,40.0 L 419.5348837209303,40.0 L 425.1162790697674,40.0 L 430.6976744186046,40.0 L 436.27906976744185,40.0 L 441.86046511627904,40.0 L 447.4418604651163,40.0 L 453.0232558139535,40.0 L 458.60465116279073,40.0 L 464.1860465116279,40.0 L 469.76744186046506,40.0 L 475.3488372093023,40.0 L 480.9302325581395,40.0 L 486.51162790697674,40.0 L 492.09302325581393,40.0 L 497.6744186046512,40.0 L 503.25581395348837,40.0 L 508.8372093023256,40.0 L 514.4186046511627,40.0 L 520.0,40.0 L 525.5813953488372,40.0 L 531.1627906976744,40.0 L 536.7441860465117,40.0 L 542.3255813953489,40.0 L 547.9069767441861,40.0 L 553.4883720930233,40.0 L 559.0697674418604,40.0 L 564.6511627906976,40.0 L 570.2325581395348,40.0 L 575.8139534883721,40.0 L 581.3953488372093,40.0 L 586.9767441860465,40.0 L 592.5581395348837,40.0 L 598.139534883721,40.0 L 603.7209302325581,40.0 L 609.3023255813953,40.0 L 614.8837209302326,40.0 L 620.4651162790698,40.0 L 626.046511627907,40.0 L 631.6279069767442,40.0 L 637.2093023255815,40.0 L 642.7906976744187,40.0 L 648.3720930232557,40.0 L 653.953488372093,40.0 L 659.5348837209302,40.0 L 665.1162790697674,40.0 L 670.6976744186046,40.0 L 676.2790697674419,40.0 L 681.8604651162791,40.0 L 687.4418604651163,40.0 L 693.0232558139535,40.0 L 698.6046511627907,40.0 L 704.1860465116279,40.0 L 709.767441860465,40.0 L 715.3488372093024,40.0 L 720.9302325581396,40.0 L 726.5116279069767,40.0 L 732.0930232558139,40.0 L 737.6744186046511,40.0 L 743.2558139534883,40.0 L 748.8372093023256,40.0 L 754.4186046511628,40.0 L 760.0,40.0" class="line"/>
  <circle cx="40.0" cy="101.53846153846155" class="point"/>
  <text x="40.0" y="375" class="label" text-anchor="middle">2025-11-11</text>
  <text x="40.0" y="96.53846153846155" class="label" text-anchor="middle">42</text>
  <circle cx="45.58139534883721" cy="101.53846153846155" class="point"/>
  <text x="45.58139534883721" y="375" class="label" text-anchor="middle">2025-11-12</text>
  <text x="45.58139534883721" y="96.53846153846155" class="label" text-anchor="middle">42</text>
  <circle cx="51.16279069767442" cy="101.53846153846155" class="point"/>
  <text x="51.16279069767442" y="375" class="label" text-anchor="middle">2025-11-13</text>
  <text x="51.16279069767442" y="96.53846153846155" class="label" text-anchor="middle">42</text>
  <circle cx="56.74418604651163" cy="101.53846153846155" class="point"/>
  <text x="56.74418604651163" y="375" class="label" text-anchor="middle">2025-11-14</text>
  <text x="56.74418604651163" y="96.53846153846155" class="label" text-anchor="middle">42</text>
  <circle cx="62.325581395348834" cy="101.53846153846155" class="point"/>
  <text x="62.325581395348834" y="375" class="label" text-anchor="middle">2025-11-15</text>
  <text x="62.325581395348834" y="96.53846153846155" class="label" text-anchor="middle">42</text>
  <circle cx="67.90697674418604" cy="101.53846153846155" class="point"/>
  <text x="67.90697674418604" y="375" class="label" text-anchor="middle">2025-11-16</text>
  <text x="67.90697674418604" y="96.53846153846155" class="label" text-anchor="middle">42</text>
  <circle cx="73.48837209302326" cy="101.53846153846155" class="point"/>
  <text x="73.48837209302326" y="375" class="label" text-anchor="middle">2025-11-17</text>
  <text x="73.48837209302326" y="96.53846153846155" class="label" text-anchor="middle">42</text>
  <circle cx="79.06976744186046" cy="101.53846153846155" class="point"/>
  <text x="79.06976744186046" y="375" class="label" text-anchor="middle">2025-11-18</text>
  <text x="79.06976744186046" y="96.53846153846155" class="label" text-anchor="middle">42</text>
  <circle cx="84.65116279069767" cy="101.53846153846155" class="point"/>
  <text x="84.65116279069767" y="375" class="label" text-anchor="middle">2025-11-19</text>
  <text x="84.65116279069767" y="96.53846153846155" class="label" text-anchor="middle">42</text>
  <circle cx="90.23255813953489" cy="101.53846153846155" class="point"/>
  <text x="90.23255813953489" y="375" class="label" text-anchor="middle">2025-11-20</text>
  <text x="90.23255813953489" y="96.53846153846155" class="label" text-anchor="middle">42</text>
  <circle cx="95.81395348837209" cy="101.53846153846155" class="point"/>
  <text x="95.81395348837209" y="375" class="label" text-anchor="middle">2025-11-21</text>
  <text x="95.81395348837209" y="96.53846153846155" class="label" text-anchor="middle">42</text>
  <circle cx="101.3953488372093" cy="101.53846153846155" class="point"/>
  <text x="101.3953488372093" y="375" class="label" text-anchor="middle">2025-11-22</text>
  <text x="101.3953488372093" y="96.53846153846155" class="label" text-anchor="middle">42</text>
  <circle cx="106.97674418604652" cy="101.53846153846155" class="point"/>
  <text x="106.97674418604652" y="375" class="label" text-anchor="middle">2025-11-23</text>
  <text x="106.97674418604652" y="96.53846153846155" class="label" text-anchor="middle">42</text>
  <circle cx="112.55813953488372" cy="101.53846153846155" class="point"/>
  <text x="112.55813953488372" y="375" class="label" text-anchor="middle">2025-11-24</text>
  <text x="112.55813953488372" y="96.53846153846155" class="label" text-anchor="middle">42</text>
  <circle cx="118.13953488372093" cy="101.53846153846155" class="point"/>
  <text x="118.13953488372093" y="375" class="label" text-anchor="middle">2025-11-25</text>
  <text x="118.13953488372093" y="96.53846153846155" class="label" text-anchor="middle">42</text>
  <circle cx="123.72093023255813" cy="101.53846153846155" class="point"/>
  <text x="123.72093023255813" y="375" class="label" text-anchor="middle">2025-11-26</text>
  <text x="123.72093023255813" y="96.53846153846155" class="label" text-anchor="middle">42</text>
  <circle cx="129.30232558139534" cy="101.53846153846155" class="point"/>
  <text x="129.30232558139534" y="375" class="label" text-anchor="middle">2025-11-27</text>
  <text x="129.30232558139534" y="96.53846153846155" class="label" text-anchor="middle">42</text>
  <circle cx="134.88372093023258" cy="101.53846153846155" class="point"/>
  <text x="134.88372093023258" y="375" class="label" text-anchor="middle">2025-11-28</text>
  <text x="134.88372093023258" y="96.53846153846155" class="label" text-anchor="middle">42</text>
  <circle cx="140.46511627906978" cy="101.53846153846155" class="point"/>
  <text x="140.46511627906978" y="375" class="label" text-anchor="middle">2025-11-29</text>
  <text x="140.46511627906978" y="96.53846153846155" class="label" text-anchor="middle">42</text>
  <circle cx="146.04651162790697" cy="101.53846153846155" class="point"/>
  <text x="146.04651162790697" y="375" class="label" text-anchor="middle">2025-11-30</text>
  <text x="146.04651162790697" y="96.53846153846155" class="label" text-anchor="middle">42</text>
  <circle cx="151.62790697674419" cy="101.53846153846155" class="point"/>
  <text x="151.62790697674419" y="375" class="label" text-anchor="middle">2025-12-01</text>
  <text x="151.62790697674419" y="96.53846153846155" class="label" text-anchor="middle">42</text>
  <circle cx="157.2093023255814" cy="101.53846153846155" class="point"/>
  <text x="157.2093023255814" y="375" class="label" text-anchor="middle">2025-12-02</text>
  <text x="157.2093023255814" y="96.53846153846155" class="label" text-anchor="middle">42</text>
  <circle cx="162.7906976744186" cy="101.53846153846155" class="point"/>
  <text x="162.7906976744186" y="375" class="label" text-anchor="middle">2025-12-03</text>
  <text x="162.7906976744186" y="96.53846153846155" class="label" text-anchor="middle">42</text>
  <circle cx="168.37209302325581" cy="101.53846153846155" class="point"/>
  <text x="168.37209302325581" y="375" class="label" text-anchor="middle">2025-12-04</text>
  <text x="168.37209302325581" y="96.53846153846155" class="label" text-anchor="middle">42</text>
  <circle cx="173.95348837209303" cy="101.53846153846155" class="point"/>
  <text x="173.95348837209303" y="375" class="label" text-anchor="middle">2025-12-05</text>
  <text x="173.95348837209303" y="96.53846153846155" class="label" text-anchor="middle">42</text>
  <circle cx="179.53488372093025" cy="101.53846153846155" class="point"/>
  <text x="179.53488372093025" y="375" class="label" text-anchor="middle">2025-12-06</text>
  <text x="179.53488372093025" y="96.53846153846155" class="label" text-anchor="middle">42</text>
  <circle cx="185.11627906976744" cy="101.53846153846155" class="point"/>
  <text x="185.11627906976744" y="375" class="label" text-anchor="middle">2025-12-07</text>
  <text x="185.11627906976744" y="96.53846153846155" class="label" text-anchor="middle">42</text>
  <circle cx="190.69767441860466" cy="40.0" class="point"/>
  <text x="190.69767441860466" y="375" class="label" text-anchor="middle">2025-12-08</text>
  <text x="190.69767441860466" y="35.0" class="label" text-anchor="middle">52</text>
  <circle cx="196.27906976744185" cy="40.0" class="point"/>
  <text x="196.27906976744185" y="375" class="label" text-anchor="middle">2025-12-09</text>
  <text x="196.27906976744185" y="35.0" class="label" text-anchor="middle">52</text>
  <circle cx="201.86046511627907" cy="40.0" class="point"/>
  <text x="201.86046511627907" y="375" class="label" text-anchor="middle">2025-12-10</text>
  <text x="201.86046511627907" y="35.0" class="label" text-anchor="middle">52</text>
  <circle cx="207.44186046511626" cy="40.0" class="point"/>
  <text x="207.44186046511626" y="375" class="label" text-anchor="middle">2025-12-11</text>
  <text x="207.44186046511626" y="35.0" class="label" text-anchor="middle">52</text>
  <circle cx="213.02325581395348" cy="40.0" class="point"/>
  <text x="213.02325581395348" y="375" class="label" text-anchor="middle">2025-12-12</text>
  <text x="213.02325581395348" y="35.0" class="label" text-anchor="middle">52</text>
  <circle cx="218.6046511627907" cy="40.0" class="point"/>
  <text x="218.6046511627907" y="375" class="label" text-anchor="middle">2025-12-13</text>
  <text x="218.6046511627907" y="35.0" class="label" text-anchor="middle">52</text>
  <circle cx="224.18604651162792" cy="40.0" class="point"/>
  <text x="224.18604651162792" y="375" class="label" text-anchor="middle">2025-12-14</text>
  <text x="224.18604651162792" y="35.0" class="label" text-anchor="middle">52</text>
  <circle cx="229.76744186046514" cy="40.0" class="point"/>
  <text x="229.76744186046514" y="375" class="label" text-anchor="middle">2025-12-15</text>
  <text x="229.76744186046514" y="35.0" class="label" text-anchor="middle">52</text>
  <circle cx="235.3488372093023" cy="40.0" class="point"/>
  <text x="235.3488372093023" y="375" class="label" text-anchor="middle">2025-12-16</text>
  <text x="235.3488372093023" y="35.0" class="label" text-anchor="middle">52</text>
  <circle cx="240.93023255813952" cy="40.0" class="point"/>
  <text x="240.93023255813952" y="375" class="label" text-anchor="middle">2025-12-17</text>
  <text x="240.93023255813952" y="35.0" class="label" text-anchor="middle">52</text>
  <circle cx="246.51162790697674" cy="40.0" class="point"/>
  <text x="246.51162790697674" y="375" class="label" text-anchor="middle">2025-12-18</text>
  <text x="246.51162790697674" y="35.0" class="label" text-anchor="middle">52</text>
  <circle cx="252.09302325581396" cy="40.0" class="point"/>
  <text x="252.09302325581396" y="375" class="label" text-anchor="middle">2025-12-19</text>
  <text x="252.09302325581396" y="35.0" class="label" text-anchor="middle">52</text>
  <circle cx="257.6744186046511" cy="40.0" class="point"/>
  <text x="257.6744186046511" y="375" class="label" text-anchor="middle">2025-12-20</text>
  <text x="257.6744186046511" y="35.0" class="label" text-anchor="middle">52</text>
  <circle cx="263.25581395348837" cy="40.0" class="point"/>
  <text x="263.25581395348837" y="375" class="label" text-anchor="middle">2025-12-21</text>
  <text x="263.25581395348837" y="35.0" class="label" text-anchor="middle">52</text>
  <circle cx="268.8372093023256" cy="40.0" class="point"/>
  <text x="268.8372093023256" y="375" class="label" text-anchor="middle">2025-12-22</text>
  <text x="268.8372093023256" y="35.0" class="label" text-anchor="middle">52</text>
  <circle cx="274.4186046511628" cy="40.0" class="point"/>
  <text x="274.4186046511628" y="375" class="label" text-anchor="middle">2025-12-23</text>
  <text x="274.4186046511628" y="35.0" class="label" text-anchor="middle">52</text>
  <circle cx="280.0" cy="40.0" class="point"/>
  <text x="280.0" y="375" class="label" text-anchor="middle">2025-12-24</text>
  <text x="280.0" y="35.0" class="label" text-anchor="middle">52</text>
  <circle cx="285.5813953488372" cy="40.0" class="point"/>
  <text x="285.5813953488372" y="375" class="label" text-anchor="middle">2025-12-25</text>
  <text x="285.5813953488372" y="35.0" class="label" text-anchor="middle">52</text>
  <circle cx="291.16279069767444" cy="40.0" class="point"/>
  <text x="291.16279069767444" y="375" class="label" text-anchor="middle">2025-12-26</text>
  <text x="291.16279069767444" y="35.0" class="label" text-anchor="middle">52</text>
  <circle cx="296.74418604651163" cy="40.0" class="point"/>
  <text x="296.74418604651163" y="375" class="label" text-anchor="middle">2025-12-27</text>
  <text x="296.74418604651163" y="35.0" class="label" text-anchor="middle">52</text>
  <circle cx="302.3255813953488" cy="40.0" class="point"/>
  <text x="302.3255813953488" y="375" class="label" text-anchor="middle">2025-12-28</text>
  <text x="302.3255813953488" y="35.0" class="label" text-anchor="middle">52</text>
  <circle cx="307.90697674418607" cy="40.0" class="point"/>
  <text x="307.90697674418607" y="375" class="label" text-anchor="middle">2025-12-29</text>
  <text x="307.90697674418607" y="35.0" class="label" text-anchor="middle">52</text>
  <circle cx="313.48837209302326" cy="40.0" class="point"/>
  <text x="313.48837209302326" y="375" class="label" text-anchor="middle">2025-12-30</text>
  <text x="313.48837209302326" y="35.0" class="label" text-anchor="middle">52</text>
  <circle cx="319.0697674418605" cy="40.0" class="point"/>
  <text x="319.0697674418605" y="375" class="label" text-anchor="middle">2025-12-31</text>
  <text x="319.0697674418605" y="35.0" class="label" text-anchor="middle">52</text>
  <circle cx="324.65116279069764" cy="40.0" class="point"/>
  <text x="324.65116279069764" y="375" class="label" text-anchor="middle">2026-01-01</text>
  <text x="324.65116279069764" y="35.0" class="label" text-anchor="middle">52</text>
  <circle cx="330.2325581395349" cy="40.0" class="point"/>
  <text x="330.2325581395349" y="375" class="label" text-anchor="middle">2026-01-02</text>
  <text x="330.2325581395349" y="35.0" class="label" text-anchor="middle">52</text>
  <circle cx="335.8139534883721" cy="40.0" class="point"/>
  <text x="335.8139534883721" y="375" class="label" text-anchor="middle">2026-01-03</text>
  <text x="335.8139534883721" y="35.0" class="label" text-anchor="middle">52</text>
  <circle cx="341.3953488372093" cy="40.0" class="point"/>
  <text x="341.3953488372093" y="375" class="label" text-anchor="middle">2026-01-04</text>
  <text x="341.3953488372093" y="35.0" class="label" text-anchor="middle">52</text>
  <circle cx="346.9767441860465" cy="40.0" class="point"/>
  <text x="346.9767441860465" y="375" class="label" text-anchor="middle">2026-01-05</text>
  <text x="346.9767441860465" y="35.0" class="label" text-anchor="middle">52</text>
  <circle cx="352.5581395348837" cy="40.0" class="point"/>
  <text x="352.5581395348837" y="375" class="label" text-anchor="middle">2026-01-06</text>
  <text x="352.5581395348837" y="35.0" class="label" text-anchor="middle">52</text>
  <circle cx="358.13953488372096" cy="40.0" class="point"/>
  <text x="358.13953488372096" y="375" class="label" text-anchor="middle">2026-01-07</text>
  <text x="358.13953488372096" y="35.0" class="label" text-anchor="middle">52</text>
  <circle cx="363.72093023255815" cy="40.0" class="point"/>
  <text x="363.72093023255815" y="375" class="label" text-anchor="middle">2026-01-08</text>
  <text x="363.72093023255815" y="35.0" class="label" text-anchor="middle">52</text>
  <circle cx="369.30232558139534" cy="40.0" class="point"/>
  <text x="369.30232558139534" y="375" class="label" text-anchor="middle">2026-01-09</text>
  <text x="369.30232558139534" y="35.0" class="label" text-anchor="middle">52</text>
  <circle cx="374.8837209302325" cy="40.0" class="point"/>
  <text x="374.8837209302325" y="375" class="label" text-anchor="middle">2026-01-10</text>
  <text x="374.8837209302325" y="35.0" class="label" text-anchor="middle">52</text>
  <circle cx="380.4651162790698" cy="40.0" class="point"/>
  <text x="380.4651162790698" y="375" class="label" text-anchor="middle">2026-01-11</text>
  <text x="380.4651162790698" y="35.0" class="label" text-anchor="middle">52</text>
  <circle cx="386.04651162790697" cy="40.0" class="point"/>
  <text x="386.04651162790697" y="375" class="label" text-anchor="middle">2026-01-12</text>
  <text x="386.04651162790697" y="35.0" class="label" text-anchor="middle">52</text>
  <circle cx="391.62790697674416" cy="40.0" class="point"/>
  <text x="391.62790697674416" y="375" class="label" text-anchor="middle">2026-01-13</text>
  <text x="391.62790697674416" y="35.0" class="label" text-anchor="middle">52</text>
  <circle cx="397.2093023255814" cy="40.0" class="point"/>
  <text x="397.2093023255814" y="375" class="label" text-anchor="middle">2026-01-14</text>
  <text x="397.2093023255814" y="35.0" class="label" text-anchor="middle">52</text>
  <circle cx="402.7906976744186" cy="40.0" class="point"/>
  <text x="402.7906976744186" y="375" class="label" text-anchor="middle">2026-01-15</text>
  <text x="402.7906976744186" y="35.0" class="label" text-anchor="middle">52</text>
  <circle cx="408.37209302325584" cy="40.0" class="point"/>
  <text x="408.37209302325584" y="375" class="label" text-anchor="middle">2026-01-16</text>
  <text x="408.37209302325584" y="35.0" class="label" text-anchor="middle">52</text>
  <circle cx="413.95348837209303" cy="40.0" class="point"/>
  <text x="413.95348837209303" y="375" class="label" text-anchor="middle">2026-01-17</text>
  <text x="413.95348837209303" y="35.0" class="label" text-anchor="middle">52</text>
  <circle cx="419.5348837209303" cy="40.0" class="point"/>
  <text x="419.5348837209303" y="375" class="label" text-anchor="middle">2026-01-18</text>
  <text x="419.5348837209303" y="35.0" class="label" text-anchor="middle">52</text>
  <circle cx="425.1162790697674" cy="40.0" class="point"/>
  <text x="425.1162790697674" y="375" class="label" text-anchor="middle">2026-01-19</text>
  <text x="425.1162790697674" y="35.0" class="label" text-anchor="middle">52</text>
  <circle cx="430.6976744186046" cy="40.0" class="point"/>
  <text x="430.6976744186046" y="375" class="label" text-anchor="middle">2026-01-20</text>
  <text x="430.6976744186046" y="35.0" class="label" text-anchor="middle">52</text>
  <circle cx="436.27906976744185" cy="40.0" class="point"/>
  <text x="436.27906976744185" y="375" class="label" text-anchor="middle">2026-01-21</text>
  <text x="436.27906976744185" y="35.0" class="label" text-anchor="middle">52</text>
  <circle cx="441.86046511627904" cy="40.0" class="point"/>
  <text x="441.86046511627904" y="375" class="label" text-anchor="middle">2026-01-22</text>
  <text x="441.86046511627904" y="35.0" class="label" text-anchor="middle">52</text>
  <circle cx="447.4418604651163" cy="40.0" class="point"/>
  <text x="447.4418604651163" y="375" class="label" text-anchor="middle">2026-01-23</text>
  <text x="447.4418604651163" y="35.0" class="label" text-anchor="middle">52</text>
  <circle cx="453.0232558139535" cy="40.0" class="point"/>
  <text x="453.0232558139535" y="375" class="label" text-anchor="middle">2026-01-24</text>
  <text x="453.0232558139535" y="35.0" class="label" text-anchor="middle">52</text>
  <circle cx="458.60465116279073" cy="40.0" class="point"/>
  <text x="458.60465116279073" y="375" class="label" text-anchor="middle">2026-01-25</text>
  <text x="458.60465116279073" y="35.0" class="label" text-anchor="middle">52</text>
  <circle cx="464.1860465116279" cy="40.0" class="point"/>
  <text x="464.1860465116279" y="375" class="label" text-anchor="middle">2026-01-26</text>
  <text x="464.1860465116279" y="35.0" class="label" text-anchor="middle">52</text>
  <circle cx="469.76744186046506" cy="40.0" class="point"/>
  <text x="469.76744186046506" y="375" class="label" text-anchor="middle">2026-01-27</text>
  <text x="469.76744186046506" y="35.0" class="label" text-anchor="middle">52</text>
  <circle cx="475.3488372093023" cy="40.0" class="point"/>
  <text x="475.3488372093023" y="375" class="label" text-anchor="middle">2026-01-28</text>
  <text x="475.3488372093023" y="35.0" class="label" text-anchor="middle">52</text>
  <circle cx="480.9302325581395" cy="40.0" class="point"/>
  <text x="480.9302325581395" y="375" class="label" text-anchor="middle">2026-01-29</text>
  <text x="480.9302325581395" y="35.0" class="label" text-anchor="middle">52</text>
  <circle cx="486.51162790697674" cy="40.0" class="point"/>
  <text x="486.51162790697674" y="375" class="label" text-anchor="middle">2026-01-30</text>
  <text x="486.51162790697674" y="35.0" class="label" text-anchor="middle">52</text>
  <circle cx="492.09302325581393" cy="40.0" class="point"/>
  <text x="492.09302325581393" y="375" class="label" text-anchor="middle">2026-01-31</text>
  <text x="492.09302325581393" y="35.0" class="label" text-anchor="middle">52</text>
  <circle cx="497.6744186046512" cy="40.0" class="point"/>
  <text x="497.6744186046512" y="375" class="label" text-anchor="middle">2026-02-01</text>
  <text x="497.6744186046512" y="35.0" class="label" text-anchor="middle">52</text>
  <circle cx="503.25581395348837" cy="40.0" class="point"/>
  <text x="503.25581395348837" y="375" class="label" text-anchor="middle">2026-02-02</text>
  <text x="503.25581395348837" y="35.0" class="label" text-anchor="middle">52</text>
  <circle cx="508.8372093023256" cy="40.0" class="point"/>
  <text x="508.8372093023256" y="375" class="label" text-anchor="middle">2026-02-03</text>
  <text x="508.8372093023256" y="35.0" class="label" text-anchor="middle">52</text>
  <circle cx="514.4186046511627" cy="40.0" class="point"/>
  <text x="514.4186046511627" y="375" class="label" text-anchor="middle">2026-02-04</text>
  <text x="514.4186046511627" y="35.0" class="label" text-anchor="middle">52</text>
  <circle cx="520.0" cy="40.0" class="point"/>
  <text x="520.0" y="375" class="label" text-anchor="middle">2026-02-05</text>
  <text x="520.0" y="35.0" class="label" text-anchor="middle">52</text>
  <circle cx="525.5813953488372" cy="40.0" class="point"/>
  <text x="525.5813953488372" y="375" class="label" text-anchor="middle">2026-02-06</text>
  <text x="525.5813953488372" y="35.0" class="label" text-anchor="middle">52</text>
  <circle cx="531.1627906976744" cy="40.0" class="point"/>
  <text x="531.1627906976744" y="375" class="label" text-anchor="middle">2026-02-07</text>
  <text x="531.1627906976744" y="35.0" class="label" text-anchor="middle">52</text>
  <circle cx="536.7441860465117" cy="40.0" class="point"/>
  <text x="536.7441860465117" y="375" class="label" text-anchor="middle">2026-02-08</text>
  <text x="536.7441860465117" y="35.0" class="label" text-anchor="middle">52</text>
  <circle cx="542.3255813953489" cy="40.0" class="point"/>
  <text x="542.3255813953489" y="375" class="label" text-anchor="middle">2026-02-09</text>
  <text x="542.3255813953489" y="35.0" class="label" text-anchor="middle">52</text>
  <circle cx="547.9069767441861" cy="40.0" class="point"/>
  <text x="547.9069767441861" y="375" class="label" text-anchor="middle">2026-02-10</text>
  <text x="547.9069767441861" y="35.0" class="label" text-anchor="middle">52</text>
  <circle cx="553.4883720930233" cy="40.0" class="point"/>
  <text x="553.4883720930233" y="375" class="label" text-anchor="middle">2026-02-11</text>
  <text x="553.4883720930233" y="35.0" class="label" text-anchor="middle">52</text>
  <circle cx="559.0697674418604" cy="40.0" class="point"/>
  <text x="559.0697674418604" y="375" class="label" text-anchor="middle">2026-02-12</text>
  <text x="559.0697674418604" y="35.0" class="label" text-anchor="middle">52</text>
  <circle cx="564.6511627906976" cy="40.0" class="point"/>
  <text x="564.6511627906976" y="375" class="label" text-anchor="middle">2026-02-13</text>
  <text x="564.6511627906976" y="35.0" class="label" text-anchor="middle">52</text>
  <circle cx="570.2325581395348" cy="40.0" class="point"/>
  <text x="570.2325581395348" y="375" class="label" text-anchor="middle">2026-02-14</text>
  <text x="570.2325581395348" y="35.0" class="label" text-anchor="middle">52</text>
  <circle cx="575.8139534883721" cy="40.0" class="point"/>
  <text x="575.8139534883721" y="375" class="label" text-anchor="middle">2026-02-15</text>
  <text x="575.8139534883721" y="35.0" class="label" text-anchor="middle">52</text>
  <circle cx="581.3953488372093" cy="40.0" class="point"/>
  <text x="581.3953488372093" y="375" class="label" text-anchor="middle">2026-02-16</text>
  <text x="581.3953488372093" y="35.0" class="label" text-anchor="middle">52</text>
  <circle cx="586.9767441860465" cy="40.0" class="point"/>
  <text x="586.9767441860465" y="375" class="label" text-anchor="middle">2026-02-17</text>
  <text x="586.9767441860465" y="35.0" class="label" text-anchor="middle">52</text>
  <circle cx="592.5581395348837" cy="40.0" class="point"/>
  <text x="592.5581395348837" y="375" class="label" text-anchor="middle">2026-02-18</text>
  <text x="592.5581395348837" y="35.0" class="label" text-anchor="middle">52</text>
  <circle cx="598.139534883721" cy="40.0" class="point"/>
  <text x="598.139534883721" y="375" class="label" text-anchor="middle">2026-02-19</text>
  <text x="598.139534883721" y="35.0" class="label" text-anchor="middle">52</text>
  <circle cx="603.7209302325581" cy="40.0" class="point"/>
  <text x="603.7209302325581" y="375" class="label" text-anchor="middle">2026-02-20</text>
  <text x="603.7209302325581" y="35.0" class="label" text-anchor="middle">52</text>
  <circle cx="609.3023255813953" cy="40.0" class="point"/>
  <text x="609.3023255813953" y="375" class="label" text-anchor="middle">2026-02-21</text>
  <text x="609.3023255813953" y="35.0" class="label" text-anchor="middle">52</text>
  <circle cx="614.8837209302326" cy="40.0" class="point"/>
  <text x="614.8837209302326" y="375" class="label" text-anchor="middle">2026-02-22</text>
  <text x="614.8837209302326" y="35.0" class="label" text-anchor="middle">52</text>
  <circle cx="620.4651162790698" cy="40.0" class="point"/>
  <text x="620.4651162790698" y="375" class="label" text-anchor="middle">2026-02-23</text>
  <text x="620.4651162790698" y="35.0" class="label" text-anchor="middle">52</text>
  <circle cx="626.046511627907" cy="40.0" class="point"/>
  <text x="626.046511627907" y="375" class="label" text-anchor="middle">2026-02-24</text>
  <text x="626.046511627907" y="35.0" class="label" text-anchor="middle">52</text>
  <circle cx="631.6279069767442" cy="40.0" class="point"/>
  <text x="631.6279069767442" y="375" class="label" text-anchor="middle">2026-02-25</text>
  <text x="631.6279069767442" y="35.0" class="label" text-anchor="middle">52</text>
  <circle cx="637.2093023255815" cy="40.0" class="point"/>
  <text x="637.2093023255815" y="375" class="label" text-anchor="middle">2026-02-26</text>
  <text x="637.2093023255815" y="35.0" class="label" text-anchor="middle">52</text>
  <circle cx="642.7906976744187" cy="40.0" class="point"/>
  <text x="642.7906976744187" y="375" class="label" text-anchor="middle">2026-02-27</text>
  <text x="642.7906976744187" y="35.0" class="label" text-anchor="middle">52</text>
  <circle cx="648.3720930232557" cy="40.0" class="point"/>
  <text x="648.3720930232557" y="375" class="label" text-anchor="middle">2026-02-28</text>
  <text x="648.3720930232557" y="35.0" class="label" text-anchor="middle">52</text>
  <circle cx="653.953488372093" cy="40.0" class="point"/>
  <text x="653.953488372093" y="375" class="label" text-anchor="middle">2026-03-01</text>
  <text x="653.953488372093" y="35.0" class="label" text-anchor="middle">52</text>
  <circle cx="659.5348837209302" cy="40.0" class="point"/>
  <text x="659.5348837209302" y="375" class="label" text-anchor="middle">2026-03-02</text>
  <text x="659.5348837209302" y="35.0" class="label" text-anchor="middle">52</text>
  <circle cx="665.1162790697674" cy="40.0" class="point"/>
  <text x="665.1162790697674" y="375" class="label" text-anchor="middle">2026-03-03</text>
  <text x="665.1162790697674" y="35.0" class="label" text-anchor="middle">52</text>
  <circle cx="670.6976744186046" cy="40.0" class="point"/>
  <text x="670.6976744186046" y="375" class="label" text-anchor="middle">2026-03-04</text>
  <text x="670.6976744186046" y="35.0" class="label" text-anchor="middle">52</text>
  <circle cx="676.2790697674419" cy="40.0" class="point"/>
  <text x="676.2790697674419" y="375" class="label" text-anchor="middle">2026-03-05</text>
  <text x="676.2790697674419" y="35.0" class="label" text-anchor="middle">52</text>
  <circle cx="681.8604651162791" cy="40.0" class="point"/>
  <text x="681.8604651162791" y="375" class="label" text-anchor="middle">2026-03-06</text>
  <text x="681.8604651162791" y="35.0" class="label" text-anchor="middle">52</text>
  <circle cx="687.4418604651163" cy="40.0" class="point"/>
  <text x="687.4418604651163" y="375" class="label" text-anchor="middle">2026-03-07</text>
  <text x="687.4418604651163" y="35.0" class="label" text-anchor="middle">52</text>
  <circle cx="693.0232558139535" cy="40.0" class="point"/>
  <text x="693.0232558139535" y="375" class="label" text-anchor="middle">2026-03-08</text>
  <text x="693.0232558139535" y="35.0" class="label" text-anchor="middle">52</text>
  <circle cx="698.6046511627907" cy="40.0" class="point"/>
  <text x="698.6046511627907" y="375" class="label" text-anchor="middle">2026-03-09</text>
  <text x="698.6046511627907" y="35.0" class="label" text-anchor="middle">52</text>
  <circle cx="704.1860465116279" cy="40.0" class="point"/>
  <text x="704.1860465116279" y="375" class="label" text-anchor="middle">2026-03-10</text>
  <text x="704.1860465116279" y="35.0" class="label" text-anchor="middle">52</text>
  <circle cx="709.767441860465" cy="40.0" class="point"/>
  <text x="709.767441860465" y="375" class="label" text-anchor="middle">2026-03-11</text>
  <text x="709.767441860465" y="35.0" class="label" text-anchor="middle">52</text>
  <circle cx="715.3488372093024" cy="40.0" class="point"/>
  <text x="715.3488372093024" y="375" class="label" text-anchor="middle">2026-03-12</text>
  <text x="715.3488372093024" y="35.0" class="label" text-anchor="middle">52</text>
  <circle cx="720.9302325581396" cy="40.0" class="point"/>
  <text x="720.9302325581396" y="375" class="label" text-anchor="middle">2026-03-13</text>
  <text x="720.9302325581396" y="35.0" class="label" text-anchor="middle">52</text>
  <circle cx="726.5116279069767" cy="40.0" class="point"/>
  <text x="726.5116279069767" y="375" class="label" text-anchor="middle">2026-03-14</text>
  <text x="726.5116279069767" y="35.0" class="label" text-anchor="middle">52</text>
  <circle cx="732.0930232558139" cy="40.0" class="point"/>
  <text x="732.0930232558139" y="375" class="label" text-anchor="middle">2026-03-15</text>
  <text x="732.0930232558139" y="35.0" class="label" text-anchor="middle">52</text>
  <circle cx="737.6744186046511" cy="40.0" class="point"/>
  <text x="737.6744186046511" y="375" class="label" text-anchor="middle">2026-03-16</text>
  <text x="737.6744186046511" y="35.0" class="label" text-anchor="middle">52</text>
  <circle cx="743.2558139534883" cy="40.0" class="point"/>
  <text x="743.2558139534883" y="375" class="label" text-anchor="middle">2026-03-17</text>
  <text x="743.2558139534883" y="35.0" class="label" text-anchor="middle">52</text>
  <circle cx="748.8372093023256" cy="40.0" class="point"/>
  <text x="748.8372093023256" y="375" class="label" text-anchor="middle">2026-03-18</text>
  <text x="748.8372093023256" y="35.0" class="label" text-anchor="middle">52</text>
  <circle cx="754.4186046511628" cy="40.0" class="point"/>
  <text x="754.4186046511628" y="375" class="label" text-anchor="middle">2026-03-19</text>
  <text x="754.4186046511628" y="35.0" class="label" text-anchor="middle">52</text>
  <circle cx="760.0" cy="40.0" class="point"/>
  <text x="760.0" y="375" class="label" text-anchor="middle">2026-03-20</text>
  <text x="760.0" y="35.0" class="label" text-anchor="middle">52</text>
  <text x="30" y="363.0" class="label" text-anchor="end">0</text>
  <text x="30" y="301.46153846153845" class="label" text-anchor="end">10</text>
  <text x="30" y="239.9230769230769" class="label" text-anchor="end">20</text>
  <text x="30" y="178.38461538461542" class="label" text-anchor="end">30</text>
  <text x="30" y="116.84615384615384" class="label" text-anchor="end">40</text>
  <text x="30" y="55.30769230769232" class="label" text-anchor="end">50</text>
</svg>