<svg xmlns="http://www.w3.org/2000/svg" width="800" height="400" viewBox="0 0 800 400">
  <style>
    .axis{stroke:#666;stroke-width:1}
    .line{stroke:#4a9;stroke-width:2;fill:none}
    .point{fill:#4a9;r:4}
    .label{font:10px sans-serif;fill:#aaa}
    .title{font:14px sans-serif;fill:#333}
  </style>
  <text x="400" y="20" class="title" text-anchor="middle">OPIC Field Growth Timeline</text>
  <line x1="40" y1="40" x2="40" y2="360" class="axis"/>
  <line x1="40" y1="360" x2="760" y2="360" class="axis"/>
  <path d="M 40.0,101.53846153846155 L 45.714285714285715,101.53846153846155 L 51.42857142857143,101.53846153846155 L 57.14285714285714,101.53846153846155 L 62.857142857142854,101.53846153846155 L 68.57142857142857,101.53846153846155 L 74.28571428571428,101.53846153846155 L 80.0,101.53846153846155 L 85.71428571428571,101.53846153846155 L 91.42857142857142,101.53846153846155 L 97.14285714285714,101.53846153846155 L 102.85714285714286,101.53846153846155 L 108.57142857142857,101.53846153846155 L 114.28571428571428,101.53846153846155 L 120.0,101.53846153846155 L 125.71428571428571,101.53846153846155 L 131.42857142857142,101.53846153846155 L 137.14285714285714,101.53846153846155 L 142.85714285714283,101.53846153846155 L 148.57142857142856,101.53846153846155 L 154.28571428571428,101.53846153846155 L 160.0,101.53846153846155 L 165.71428571428572,101.53846153846155 L 171.42857142857142,101.53846153846155 L 177.14285714285714,101.53846153846155 L 182.85714285714286,101.53846153846155 L 188.57142857142856,101.53846153846155 L 194.28571428571428,40.0 L 200.0,40.0 L 205.7142857142857,40.0 L 211.42857142857142,40.0 L 217.14285714285714,40.0 L 222.85714285714283,40.0 L 228.57142857142858,40.0 L 234.28571428571428,40.0 L 240.0,40.0 L 245.7142857142857,40.0 L 251.42857142857144,40.0 L 257.1428571428571,40.0 L 262.8571428571429,40.0 L 268.57142857142856,40.0 L 274.28571428571433,40.0 L 280.0,40.0 L 285.7142857142857,40.0 L 291.42857142857144,40.0 L 297.14285714285717,40.0 L 302.85714285714283,40.0 L 308.57142857142856,40.0 L 314.2857142857143,40.0 L 320.0,40.0 L 325.7142857142857,40.0 L 331.42857142857144,40.0 L 337.1428571428571,40.0 L 342.85714285714283,40.0 L 348.57142857142856,40.0 L 354.2857142857143,40.0 L 360.0,40.0 L 365.7142857142857,40.0 L 371.4285714285714,40.0 L 377.14285714285717,40.0 L 382.85714285714283,40.0 L 388.57142857142856,40.0 L 394.2857142857143,40.0 L 400.0,40.0 L 405.71428571428567,40.0 L 411.42857142857144,40.0 L 417.14285714285717,40.0 L 422.85714285714283,40.0 L 428.57142857142856,40.0 L 434.28571428571433,40.0 L 440.0,40.0 L 445.7142857142857,40.0 L 451.4285714285714,40.0 L 457.14285714285717,40.0 L 462.8571428571429,40.0 L 468.57142857142856,40.0 L 474.2857142857143,40.0 L 480.00000000000006,40.0 L 485.7142857142857,40.0 L 491.42857142857144,40.0 L 497.1428571428571,40.0 L 502.8571428571429,40.0 L 508.5714285714286,40.0 L 514.2857142857142,40.0 L 520.0,40.0 L 525.7142857142858,40.0 L 531.4285714285714,40.0 L 537.1428571428571,40.0 L 542.8571428571429,40.0 L 548.5714285714287,40.0 L 554.2857142857143,40.0 L 560.0,40.0 L 565.7142857142857,40.0 L 571.4285714285714,40.0 L 577.1428571428571,40.0 L 582.8571428571429,40.0 L 588.5714285714286,40.0 L 594.2857142857143,40.0 L 600.0,40.0 L 605.7142857142857,40.0 L 611.4285714285714,40.0 L 617.1428571428572,40.0 L 622.8571428571429,40.0 L 628.5714285714286,40.0 L 634.2857142857142,40.0 L 640.0,40.0 L 645.7142857142857,40.0 L 651.4285714285714,40.0 L 657.1428571428571,40.0 L 662.8571428571429,40.0 L 668.5714285714286,40.0 L 674.2857142857142,40.0 L 680.0,40.0 L 685.7142857142858,40.0 L 691.4285714285714,40.0 L 697.1428571428571,40.0 L 702.8571428571428,40.0 L 708.5714285714286,40.0 L 714.2857142857143,40.0 L 720.0,40.0 L 725.7142857142857,40.0 L 731.4285714285714,40.0 L 737.1428571428571,40.0 L 742.8571428571429,40.0 L 748.5714285714286,40.0 L 754.2857142857143,40.0 L 760.0,40.0" class="line"/>
  <circle cx="40.0" cy="101.53846153846155" class="point"/>
  <text x="40.0" y="375" class="label" text-anchor="middle">2025-11-11</text>
  <text x="40.0" y="96.53846153846155" class="label" text-anchor="middle">42</text>
  <circle cx="45.714285714285715" cy="101.53846153846155" class="point"/>
  <text x="45.714285714285715" y="375" class="label" text-anchor="middle">2025-11-12</text>
  <text x="45.714285714285715" y="96.53846153846155" class="label" text-anchor="middle">42</text>
  <circle cx="51.42857142857143" cy="101.53846153846155" class="point"/>
  <text x="51.42857142857143" y="375" class="label" text-anchor="middle">2025-11-13</text>
  <text x="51.42857142857143" y="96.53846153846155" class="label" text-anchor="middle">42</text>
  <circle cx="57.14285714285714" cy="101.53846153846155" class="point"/>
  <text x="57.14285714285714" y="375" class="label" text-anchor="middle">2025-11-14</text>
  <text x="57.14285714285714" y="96.53846153846155" class="label" text-anchor="middle">42</text>
  <circle cx="62.857142857142854" cy="101.53846153846155" class="point"/>
  <text x="62.857142857142854" y="375" class="label" text-anchor="middle">2025-11-15</text>
  <text x="62.857142857142854" y="96.53846153846155" class="label" text-anchor="middle">42</text>
  <circle cx="68.57142857142857" cy="101.53846153846155" class="point"/>
  <text x="68.57142857142857" y="375" class="label" text-anchor="middle">2025-11-16</text>
  <text x="68.57142857142857" y="96.53846153846155" class="label" text-anchor="middle">42</text>
  <circle cx="74.28571428571428" cy="101.53846153846155" class="point"/>
  <text x="74.28571428571428" y="375" class="label" text-anchor="middle">2025-11-17</text>
  <text x="74.28571428571428" y="96.53846153846155" class="label" text-anchor="middle">42</text>
  <circle cx="80.0" cy="101.53846153846155" class="point"/>
  <text x="80.0" y="375" class="label" text-anchor="middle">2025-11-18</text>
  <text x="80.0" y="96.53846153846155" class="label" text-anchor="middle">42</text>
  <circle cx="85.71428571428571" cy="101.53846153846155" class="point"/>
  <text x="85.71428571428571" y="375" class="label" text-anchor="middle">2025-11-19</text>
  <text x="85.71428571428571" y="96.53846153846155" class="label" text-anchor="middle">42</text>
  <circle cx="91.42857142857142" cy="101.53846153846155" class="point"/>
  <text x="91.42857142857142" y="375" class="label" text-anchor="middle">2025-11-20</text>
  <text x="91.42857142857142" y="96.53846153846155" class="label" text-anchor="middle">42</text>
  <circle cx="97.14285714285714" cy="101.53846153846155" class="point"/>
  <text x="97.14285714285714" y="375" class="label" text-anchor="middle">2025-11-21</text>
  <text x="97.14285714285714" y="96.53846153846155" class="label" text-anchor="middle">42</text>
  <circle cx="102.85714285714286" cy="101.53846153846155" class="point"/>
  <text x="102.85714285714286" y="375" class="label" text-anchor="middle">2025-11-22</text>
  <text x="102.85714285714286" y="96.53846153846155" class="label" text-anchor="middle">42</text>
  <circle cx="108.57142857142857" cy="101.53846153846155" class="point"/>
  <text x="108.57142857142857" y="375" class="label" text-anchor="middle">2025-11-23</text>
  <text x="108.57142857142857" y="96.53846153846155" class="label" text-anchor="middle">42</text>
  <circle cx="114.28571428571428" cy="101.53846153846155" class="point"/>
  <text x="114.28571428571428" y="375" class="label" text-anchor="middle">2025-11-24</text>
  <text x="114.28571428571428" y="96.53846153846155" class="label" text-anchor="middle">42</text>
  <circle cx="120.0" cy="101.53846153846155" class="point"/>
  <text x="120.0" y="375" class="label" text-anchor="middle">2025-11-25</text>
  <text x="120.0" y="96.53846153846155" class="label" text-anchor="middle">42</text>
  <circle cx="125.71428571428571" cy="101.53846153846155" class="point"/>
  <text x="125.71428571428571" y="375" class="label" text-anchor="middle">2025-11-26</text>
  <text x="125.71428571428571" y="96.53846153846155" class="label" text-anchor="middle">42</text>
  <circle cx="131.42857142857142" cy="101.53846153846155" class="point"/>
  <text x="131.42857142857142" y="375" class="label" text-anchor="middle">2025-11-27</text>
  <text x="131.42857142857142" y="96.53846153846155" class="label" text-anchor="middle">42</text>
  <circle cx="137.14285714285714" cy="101.53846153846155" class="point"/>
  <text x="137.14285714285714" y="375" class="label" text-anchor="middle">2025-11-28</text>
  <text x="137.14285714285714" y="96.53846153846155" class="label" text-anchor="middle">42</text>
  <circle cx="142.85714285714283" cy="101.53846153846155" class="point"/>
  <text x="142.85714285714283" y="375" class="label" text-anchor="middle">2025-11-29</text>
  <text x="142.85714285714283" y="96.53846153846155" class="label" text-anchor="middle">42</text>
  <circle cx="148.57142857142856" cy="101.53846153846155" class="point"/>
  <text x="148.57142857142856" y="375" class="label" text-anchor="middle">2025-11-30</text>
  <text x="148.57142857142856" y="96.53846153846155" class="label" text-anchor="middle">42</text>
  <circle cx="154.28571428571428" cy="101.53846153846155" class="point"/>
  <text x="154.28571428571428" y="375" class="label" text-anchor="middle">2025-12-01</text>
  <text x="154.28571428571428" y="96.53846153846155" class="label" text-anchor="middle">42</text>
  <circle cx="160.0" cy="101.53846153846155" class="point"/>
  <text x="160.0" y="375" class="label" text-anchor="middle">2025-12-02</text>
  <text x="160.0" y="96.53846153846155" class="label" text-anchor="middle">42</text>
  <circle cx="165.71428571428572" cy="101.53846153846155" class="point"/>
  <text x="165.71428571428572" y="375" class="label" text-anchor="middle">2025-12-03</text>
  <text x="165.71428571428572" y="96.53846153846155" class="label" text-anchor="middle">42</text>
  <circle cx="171.42857142857142" cy="101.53846153846155" class="point"/>
  <text x="171.42857142857142" y="375" class="label" text-anchor="middle">2025-12-04</text>
  <text x="171.42857142857142" y="96.53846153846155" class="label" text-anchor="middle">42</text>
  <circle cx="177.14285714285714" cy="101.53846153846155" class="point"/>
  <text x="177.14285714285714" y="375" class="label" text-anchor="middle">2025-12-05</text>
  <text x="177.14285714285714" y="96.53846153846155" class="label" text-anchor="middle">42</text>
  <circle cx="182.85714285714286" cy="101.53846153846155" class="point"/>
  <text x="182.85714285714286" y="375" class="label" text-anchor="middle">2025-12-06</text>
  <text x="182.85714285714286" y="96.53846153846155" class="label" text-anchor="middle">42</text>
  <circle cx="188.57142857142856" cy="101.53846153846155" class="point"/>
  <text x="188.57142857142856" y="375" class="label" text-anchor="middle">2025-12-07</text>
  <text x="188.57142857142856" y="96.53846153846155" class="label" text-anchor="middle">42</text>
  <circle cx="194.28571428571428" cy="40.0" class="point"/>
  <text x="194.28571428571428" y="375" class="label" text-anchor="middle">2025-12-08</text>
  <text x="194.28571428571428" y="35.0" class="label" text-anchor="middle">52</text>
  <circle cx="200.0" cy="40.0" class="point"/>
  <text x="200.0" y="375" class="label" text-anchor="middle">2025-12-09</text>
  <text x="200.0" y="35.0" class="label" text-anchor="middle">52</text>
  <circle cx="205.7142857142857" cy="40.0" class="point"/>
  <text x="205.7142857142857" y="375" class="label" text-anchor="middle">2025-12-10</text>
  <text x="205.7142857142857" y="35.0" class="label" text-anchor="middle">52</text>
  <circle cx="211.42857142857142" cy="40.0" class="point"/>
  <text x="211.42857142857142" y="375" class="label" text-anchor="middle">2025-12-11</text>
  <text x="211.42857142857142" y="35.0" class="label" text-anchor="middle">52</text>
  <circle cx="217.14285714285714" cy="40.0" class="point"/>
  <text x="217.14285714285714" y="375" class="label" text-anchor="middle">2025-12-12</text>
  <text x="217.14285714285714" y="35.0" class="label" text-anchor="middle">52</text>
  <circle cx="222.85714285714283" cy="40.0" class="point"/>
  <text x="222.85714285714283" y="375" class="label" text-anchor="middle">2025-12-13</text>
  <text x="222.85714285714283" y="35.0" class="label" text-anchor="middle">52</text>
  <circle cx="228.57142857142858" cy="40.0" class="point"/>
  <text x="228.57142857142858" y="375" class="label" text-anchor="middle">2025-12-14</text>
  <text x="228.57142857142858" y="35.0" class="label" text-anchor="middle">52</text>
  <circle cx="234.28571428571428" cy="40.0" class="point"/>
  <text x="234.28571428571428" y="375" class="label" text-anchor="middle">2025-12-15</text>
  <text x="234.28571428571428" y="35.0" class="label" text-anchor="middle">52</text>
  <circle cx="240.0" cy="40.0" class="point"/>
  <text x="240.0" y="375" class="label" text-anchor="middle">2025-12-16</text>
  <text x="240.0" y="35.0" class="label" text-anchor="middle">52</text>
  <circle cx="245.7142857142857" cy="40.0" class="point"/>
  <text x="245.7142857142857" y="375" class="label" text-anchor="middle">2025-12-17</text>
  <text x="245.7142857142857" y="35.0" class="label" text-anchor="middle">52</text>
  <circle cx="251.42857142857144" cy="40.0" class="point"/>
  <text x="251.42857142857144" y="375" class="label" text-anchor="middle">2025-12-18</text>
  <text x="251.42857142857144" y="35.0" class="label" text-anchor="middle">52</text>
  <circle cx="257.1428571428571" cy="40.0" class="point"/>
  <text x="257.1428571428571" y="375" class="label" text-anchor="middle">2025-12-19</text>
  <text x="257.1428571428571" y="35.0" class="label" text-anchor="middle">52</text>
  <circle cx="262.8571428571429" cy="40.0" class="point"/>
  <text x="262.8571428571429" y="375" class="label" text-anchor="middle">2025-12-20</text>
  <text x="262.8571428571429" y="35.0" class="label" text-anchor="middle">52</text>
  <circle cx="268.57142857142856" cy="40.0" class="point"/>
  <text x="268.57142857142856" y="375" class="label" text-anchor="middle">2025-12-21</text>
  <text x="268.57142857142856" y="35.0" class="label" text-anchor="middle">52</text>
  <circle cx="274.28571428571433" cy="40.0" class="point"/>
  <text x="274.28571428571433" y="375" class="label" text-anchor="middle">2025-12-22</text>
  <text x="274.28571428571433" y="35.0" class="label" text-anchor="middle">52</text>
  <circle cx="280.0" cy="40.0" class="point"/>
  <text x="280.0" y="375" class="label" text-anchor="middle">2025-12-23</text>
  <text x="280.0" y="35.0" class="label" text-anchor="middle">52</text>
  <circle cx="285.7142857142857" cy="40.0" class="point"/>
  <text x="285.7142857142857" y="375" class="label" text-anchor="middle">2025-12-24</text>
  <text x="285.7142857142857" y="35.0" class="label" text-anchor="middle">52</text>
  <circle cx="291.42857142857144" cy="40.0" class="point"/>
  <text x="291.42857142857144" y="375" class="label" text-anchor="middle">2025-12-25</text>
  <text x="291.42857142857144" y="35.0" class="label" text-anchor="middle">52</text>
  <circle cx="297.14285714285717" cy="40.0" class="point"/>
  <text x="297.14285714285717" y="375" class="label" text-anchor="middle">2025-12-26</text>
  <text x="297.14285714285717" y="35.0" class="label" text-anchor="middle">52</text>
  <circle cx="302.85714285714283" cy="40.0" class="point"/>
  <text x="302.85714285714283" y="375" class="label" text-anchor="middle">2025-12-27</text>
  <text x="302.85714285714283" y="35.0" class="label" text-anchor="middle">52</text>
  <circle cx="308.57142857142856" cy="40.0" class="point"/>
  <text x="308.57142857142856" y="375" class="label" text-anchor="middle">2025-12-28</text>
  <text x="308.57142857142856" y="35.0" class="label" text-anchor="middle">52</text>
  <circle cx="314.2857142857143" cy="40.0" class="point"/>
  <text x="314.2857142857143" y="375" class="label" text-anchor="middle">2025-12-29</text>
  <text x="314.2857142857143" y="35.0" class="label" text-anchor="middle">52</text>
  <circle cx="320.0" cy="40.0" class="point"/>
  <text x="320.0" y="375" class="label" text-anchor="middle">2025-12-30</text>
  <text x="320.0" y="35.0" class="label" text-anchor="middle">52</text>
  <circle cx="325.7142857142857" cy="40.0" class="point"/>
  <text x="325.7142857142857" y="375" class="label" text-anchor="middle">2025-12-31</text>
  <text x="325.7142857142857" y="35.0" class="label" text-anchor="middle">52</text>
  <circle cx="331.42857142857144" cy="40.0" class="point"/>
  <text x="331.42857142857144" y="375" class="label" text-anchor="middle">2026-01-01</text>
  <text x="331.42857142857144" y="35.0" class="label" text-anchor="middle">52</text>
  <circle cx="337.1428571428571" cy="40.0" class="point"/>
  <text x="337.1428571428571" y="375" class="label" text-anchor="middle">2026-01-02</text>
  <text x="337.1428571428571" y="35.0" class="label" text-anchor="middle">52</text>
  <circle cx="342.85714285714283" cy="40.0" class="point"/>
  <text x="342.85714285714283" y="375" class="label" text-anchor="middle">2026-01-03</text>
  <text x="342.85714285714283" y="35.0" class="label" text-anchor="middle">52</text>
  <circle cx="348.57142857142856" cy="40.0" class="point"/>
  <text x="348.57142857142856" y="375" class="label" text-anchor="middle">2026-01-04</text>
  <text x="348.57142857142856" y="35.0" class="label" text-anchor="middle">52</text>
  <circle cx="354.2857142857143" cy="40.0" class="point"/>
  <text x="354.2857142857143" y="375" class="label" text-anchor="middle">2026-01-05</text>
  <text x="354.2857142857143" y="35.0" class="label" text-anchor="middle">52</text>
  <circle cx="360.0" cy="40.0" class="point"/>
  <text x="360.0" y="375" class="label" text-anchor="middle">2026-01-06</text>
  <text x="360.0" y="35.0" class="label" text-anchor="middle">52</text>
  <circle cx="365.7142857142857" cy="40.0" class="point"/>
  <text x="365.7142857142857" y="375" class="label" text-anchor="middle">2026-01-07</text>
  <text x="365.7142857142857" y="35.0" class="label" text-anchor="middle">52</text>
  <circle cx="371.4285714285714" cy="40.0" class="point"/>
  <text x="371.4285714285714" y="375" class="label" text-anchor="middle">2026-01-08</text>
  <text x="371.4285714285714" y="35.0" class="label" text-anchor="middle">52</text>
  <circle cx="377.14285714285717" cy="40.0" class="point"/>
  <text x="377.14285714285717" y="375" class="label" text-anchor="middle">2026-01-09</text>
  <text x="377.14285714285717" y="35.0" class="label" text-anchor="middle">52</text>
  <circle cx="382.85714285714283" cy="40.0" class="point"/>
  <text x="382.85714285714283" y="375" class="label" text-anchor="middle">2026-01-10</text>
  <text x="382.85714285714283" y="35.0" class="label" text-anchor="middle">52</text>
  <circle cx="388.57142857142856" cy="40.0" class="point"/>
  <text x="388.57142857142856" y="375" class="label" text-anchor="middle">2026-01-11</text>
  <text x="388.57142857142856" y="35.0" class="label" text-anchor="middle">52</text>
  <circle cx="394.2857142857143" cy="40.0" class="point"/>
  <text x="394.2857142857143" y="375" class="label" text-anchor="middle">2026-01-12</text>
  <text x="394.2857142857143" y="35.0" class="label" text-anchor="middle">52</text>
  <circle cx="400.0" cy="40.0" class="point"/>
  <text x="400.0" y="375" class="label" text-anchor="middle">2026-01-13</text>
  <text x="400.0" y="35.0" class="label" text-anchor="middle">52</text>
  <circle cx="405.71428571428567" cy="40.0" class="point"/>
  <text x="405.71428571428567" y="375" class="label" text-anchor="middle">2026-01-14</text>
  <text x="405.71428571428567" y="35.0" class="label" text-anchor="middle">52</text>
  <circle cx="411.42857142857144" cy="40.0" class="point"/>
  <text x="411.42857142857144" y="375" class="label" text-anchor="middle">2026-01-15</text>
  <text x="411.42857142857144" y="35.0" class="label" text-anchor="middle">52</text>
  <circle cx="417.14285714285717" cy="40.0" class="point"/>
  <text x="417.14285714285717" y="375" class="label" text-anchor="middle">2026-01-16</text>
  <text x="417.14285714285717" y="35.0" class="label" text-anchor="middle">52</text>
  <circle cx="422.85714285714283" cy="40.0" class="point"/>
  <text x="422.85714285714283" y="375" class="label" text-anchor="middle">2026-01-17</text>
  <text x="422.85714285714283" y="35.0" class="label" text-anchor="middle">52</text>
  <circle cx="428.57142857142856" cy="40.0" class="point"/>
  <text x="428.57142857142856" y="375" class="label" text-anchor="middle">2026-01-18</text>
  <text x="428.57142857142856" y="35.0" class="label" text-anchor="middle">52</text>
  <circle cx="434.28571428571433" cy="40.0" class="point"/>
  <text x="434.28571428571433" y="375" class="label" text-anchor="middle">2026-01-19</text>
  <text x="434.28571428571433" y="35.0" class="label" text-anchor="middle">52</text>
  <circle cx="440.0" cy="40.0" class="point"/>
  <text x="440.0" y="375" class="label" text-anchor="middle">2026-01-20</text>
  <text x="440.0" y="35.0" class="label" text-anchor="middle">52</text>
  <circle cx="445.7142857142857" cy="40.0" class="point"/>
  <text x="445.7142857142857" y="375" class="label" text-anchor="middle">2026-01-21</text>
  <text x="445.7142857142857" y="35.0" class="label" text-anchor="middle">52</text>
  <circle cx="451.4285714285714" cy="40.0" class="point"/>
  <text x="451.4285714285714" y="375" class="label" text-anchor="middle">2026-01-22</text>
  <text x="451.4285714285714" y="35.0" class="label" text-anchor="middle">52</text>
  <circle cx="457.14285714285717" cy="40.0" class="point"/>
  <text x="457.14285714285717" y="375" class="label" text-anchor="middle">2026-01-23</text>
  <text x="457.14285714285717" y="35.0" class="label" text-anchor="middle">52</text>
  <circle cx="462.8571428571429" cy="40.0" class="point"/>
  <text x="462.8571428571429" y="375" class="label" text-anchor="middle">2026-01-24</text>
  <text x="462.8571428571429" y="35.0" class="label" text-anchor="middle">52</text>
  <circle cx="468.57142857142856" cy="40.0" class="point"/>
  <text x="468.57142857142856" y="375" class="label" text-anchor="middle">2026-01-25</text>
  <text x="468.57142857142856" y="35.0" class="label" text-anchor="middle">52</text>
  <circle cx="474.2857142857143" cy="40.0" class="point"/>
  <text x="474.2857142857143" y="375" class="label" text-anchor="middle">2026-01-26</text>
  <text x="474.2857142857143" y="35.0" class="label" text-anchor="middle">52</text>
  <circle cx="480.00000000000006" cy="40.0" class="point"/>
  <text x="480.00000000000006" y="375" class="label" text-anchor="middle">2026-01-27</text>
  <text x="480.00000000000006" y="35.0" class="label" text-anchor="middle">52</text>
  <circle cx="485.7142857142857" cy="40.0" class="point"/>
  <text x="485.7142857142857" y="375" class="label" text-anchor="middle">2026-01-28</text>
  <text x="485.7142857142857" y="35.0" class="label" text-anchor="middle">52</text>
  <circle cx="491.42857142857144" cy="40.0" class="point"/>
  <text x="491.42857142857144" y="375" class="label" text-anchor="middle">2026-01-29</text>
  <text x="491.42857142857144" y="35.0" class="label" text-anchor="middle">52</text>
  <circle cx="497.1428571428571" cy="40.0" class="point"/>
  <text x="497.1428571428571" y="375" class="label" text-anchor="middle">2026-01-30</text>
  <text x="497.1428571428571" y="35.0" class="label" text-anchor="middle">52</text>
  <circle cx="502.8571428571429" cy="40.0" class="point"/>
  <text x="502.8571428571429" y="375" class="label" text-anchor="middle">2026-01-31</text>
  <text x="502.8571428571429" y="35.0" class="label" text-anchor="middle">52</text>
  <circle cx="508.5714285714286" cy="40.0" class="point"/>
  <text x="508.5714285714286" y="375" class="label" text-anchor="middle">2026-02-01</text>
  <text x="508.5714285714286" y="35.0" class="label" text-anchor="middle">52</text>
  <circle cx="514.2857142857142" cy="40.0" class="point"/>
  <text x="514.2857142857142" y="375" class="label" text-anchor="middle">2026-02-02</text>
  <text x="514.2857142857142" y="35.0" class="label" text-anchor="middle">52</text>
  <circle cx="520.0" cy="40.0" class="point"/>
  <text x="520.0" y="375" class="label" text-anchor="middle">2026-02-03</text>
  <text x="520.0" y="35.0" class="label" text-anchor="middle">52</text>
  <circle cx="525.7142857142858" cy="40.0" class="point"/>
  <text x="525.7142857142858" y="375" class="label" text-anchor="middle">2026-02-04</text>
  <text x="525.7142857142858" y="35.0" class="label" text-anchor="middle">52</text>
  <circle cx="531.4285714285714" cy="40.0" class="point"/>
  <text x="531.4285714285714" y="375" class="label" text-anchor="middle">2026-02-05</text>
  <text x="531.4285714285714" y="35.0" class="label" text-anchor="middle">52</text>
  <circle cx="537.1428571428571" cy="40.0" class="point"/>
  <text x="537.1428571428571" y="375" class="label" text-anchor="middle">2026-02-06</text>
  <text x="537.1428571428571" y="35.0" class="label" text-anchor="middle">52</text>
  <circle cx="542.8571428571429" cy="40.0" class="point"/>
  <text x="542.8571428571429" y="375" class="label" text-anchor="middle">2026-02-07</text>
  <text x="542.8571428571429" y="35.0" class="label" text-anchor="middle">52</text>
  <circle cx="548.5714285714287" cy="40.0" class="point"/>
  <text x="548.5714285714287" y="375" class="label" text-anchor="middle">2026-02-08</text>
  <text x="548.5714285714287" y="35.0" class="label" text-anchor="middle">52</text>
  <circle cx="554.2857142857143" cy="40.0" class="point"/>
  <text x="554.2857142857143" y="375" class="label" text-anchor="middle">2026-02-09</text>
  <text x="554.2857142857143" y="35.0" class="label" text-anchor="middle">52</text>
  <circle cx="560.0" cy="40.0" class="point"/>
  <text x="560.0" y="375" class="label" text-anchor="middle">2026-02-10</text>
  <text x="560.0" y="35.0" class="label" text-anchor="middle">52</text>
  <circle cx="565.7142857142857" cy="40.0" class="point"/>
  <text x="565.7142857142857" y="375" class="label" text-anchor="middle">2026-02-11</text>
  <text x="565.7142857142857" y="35.0" class="label" text-anchor="middle">52</text>
  <circle cx="571.4285714285714" cy="40.0" class="point"/>
  <text x="571.4285714285714" y="375" class="label" text-anchor="middle">2026-02-12</text>
  <text x="571.4285714285714" y="35.0" class="label" text-anchor="middle">52</text>
  <circle cx="577.1428571428571" cy="40.0" class="point"/>
  <text x="577.1428571428571" y="375" class="label" text-anchor="middle">2026-02-13</text>
  <text x="577.1428571428571" y="35.0" class="label" text-anchor="middle">52</text>
  <circle cx="582.8571428571429" cy="40.0" class="point"/>
  <text x="582.8571428571429" y="375" class="label" text-anchor="middle">2026-02-14</text>
  <text x="582.8571428571429" y="35.0" class="label" text-anchor="middle">52</text>
  <circle cx="588.5714285714286" cy="40.0" class="point"/>
  <text x="588.5714285714286" y="375" class="label" text-anchor="middle">2026-02-15</text>
  <text x="588.5714285714286" y="35.0" class="label" text-anchor="middle">52</text>
  <circle cx="594.2857142857143" cy="40.0" class="point"/>
  <text x="594.2857142857143" y="375" class="label" text-anchor="middle">2026-02-16</text>
  <text x="594.2857142857143" y="35.0" class="label" text-anchor="middle">52</text>
  <circle cx="600.0" cy="40.0" class="point"/>
  <text x="600.0" y="375" class="label" text-anchor="middle">2026-02-17</text>
  <text x="600.0" y="35.0" class="label" text-anchor="middle">52</text>
  <circle cx="605.7142857142857" cy="40.0" class="point"/>
  <text x="605.7142857142857" y="375" class="label" text-anchor="middle">2026-02-18</text>
  <text x="605.7142857142857" y="35.0" class="label" text-anchor="middle">52</text>
  <circle cx="611.4285714285714" cy="40.0" class="point"/>
  <text x="611.4285714285714" y="375" class="label" text-anchor="middle">2026-02-19</text>
  <text x="611.4285714285714" y="35.0" class="label" text-anchor="middle">52</text>
  <circle cx="617.1428571428572" cy="40.0" class="point"/>
  <text x="617.1428571428572" y="375" class="label" text-anchor="middle">2026-02-20</text>
  <text x="617.1428571428572" y="35.0" class="label" text-anchor="middle">52</text>
  <circle cx="622.8571428571429" cy="40.0" class="point"/>
  <text x="622.8571428571429" y="375" class="label" text-anchor="middle">2026-02-21</text>
  <text x="622.8571428571429" y="35.0" class="label" text-anchor="middle">52</text>
  <circle cx="628.5714285714286" cy="40.0" class="point"/>
  <text x="628.5714285714286" y="375" class="label" text-anchor="middle">2026-02-22</text>
  <text x="628.5714285714286" y="35.0" class="label" text-anchor="middle">52</text>
  <circle cx="634.2857142857142" cy="40.0" class="point"/>
  <text x="634.2857142857142" y="375" class="label" text-anchor="middle">2026-02-23</text>
  <text x="634.2857142857142" y="35.0" class="label" text-anchor="middle">52</text>
  <circle cx="640.0" cy="40.0" class="point"/>
  <text x="640.0" y="375" class="label" text-anchor="middle">2026-02-24</text>
  <text x="640.0" y="35.0" class="label" text-anchor="middle">52</text>
  <circle cx="645.7142857142857" cy="40.0" class="point"/>
  <text x="645.7142857142857" y="375" class="label" text-anchor="middle">2026-02-25</text>
  <text x="645.7142857142857" y="35.0" class="label" text-anchor="middle">52</text>
  <circle cx="651.4285714285714" cy="40.0" class="point"/>
  <text x="651.4285714285714" y="375" class="label" text-anchor="middle">2026-02-26</text>
  <text x="651.4285714285714" y="35.0" class="label" text-anchor="middle">52</text>
  <circle cx="657.1428571428571" cy="40.0" class="point"/>
  <text x="657.1428571428571" y="375" class="label" text-anchor="middle">2026-02-27</text>
  <text x="657.1428571428571" y="35.0" class="label" text-anchor="middle">52</text>
  <circle cx="662.8571428571429" cy="40.0" class="point"/>
  <text x="662.8571428571429" y="375" class="label" text-anchor="middle">2026-02-28</text>
  <text x="662.8571428571429" y="35.0" class="label" text-anchor="middle">52</text>
  <circle cx="668.5714285714286" cy="40.0" class="point"/>
  <text x="668.5714285714286" y="375" class="label" text-anchor="middle">2026-03-01</text>
  <text x="668.5714285714286" y="35.0" class="label" text-anchor="middle">52</text>
  <circle cx="674.2857142857142" cy="40.0" class="point"/>
  <text x="674.2857142857142" y="375" class="label" text-anchor="middle">2026-03-02</text>
  <text x="674.2857142857142" y="35.0" class="label" text-anchor="middle">52</text>
  <circle cx="680.0" cy="40.0" class="point"/>
  <text x="680.0" y="375" class="label" text-anchor="middle">2026-03-03</text>
  <text x="680.0" y="35.0" class="label" text-anchor="middle">52</text>
  <circle cx="685.7142857142858" cy="40.0" class="point"/>
  <text x="685.7142857142858" y="375" class="label" text-anchor="middle">2026-03-04</text>
  <text x="685.7142857142858" y="35.0" class="label" text-anchor="middle">52</text>
  <circle cx="691.4285714285714" cy="40.0" class="point"/>
  <text x="691.4285714285714" y="375" class="label" text-anchor="middle">2026-03-05</text>
  <text x="691.4285714285714" y="35.0" class="label" text-anchor="middle">52</text>
  <circle cx="697.1428571428571" cy="40.0" class="point"/>
  <text x="697.1428571428571" y="375" class="label" text-anchor="middle">2026-03-06</text>
  <text x="697.1428571428571" y="35.0" class="label" text-anchor="middle">52</text>
  <circle cx="702.8571428571428" cy="40.0" class="point"/>
  <text x="702.8571428571428" y="375" class="label" text-anchor="middle">2026-03-07</text>
  <text x="702.8571428571428" y="35.0" class="label" text-anchor="middle">52</text>
  <circle cx="708.5714285714286" cy="40.0" class="point"/>
  <text x="708.5714285714286" y="375" class="label" text-anchor="middle">2026-03-08</text>
  <text x="708.5714285714286" y="35.0" class="label" text-anchor="middle">52</text>
  <circle cx="714.2857142857143" cy="40.0" class="point"/>
  <text x="714.2857142857143" y="375" class="label" text-anchor="middle">2026-03-09</text>
  <text x="714.2857142857143" y="35.0" class="label" text-anchor="middle">52</text>
  <circle cx="720.0" cy="40.0" class="point"/>
  <text x="720.0" y="375" class="label" text-anchor="middle">2026-03-10</text>
  <text x="720.0" y="35.0" class="label" text-anchor="middle">52</text>
  <circle cx="725.7142857142857" cy="40.0" class="point"/>
  <text x="725.7142857142857" y="375" class="label" text-anchor="middle">2026-03-11</text>
  <text x="725.7142857142857" y="35.0" class="label" text-anchor="middle">52</text>
  <circle cx="731.4285714285714" cy="40.0" class="point"/>
  <text x="731.4285714285714" y="375" class="label" text-anchor="middle">2026-03-12</text>
  <text x="731.4285714285714" y="35.0" class="label" text-anchor="middle">52</text>
  <circle cx="737.1428571428571" cy="40.0" class="point"/>
  <text x="737.1428571428571" y="375" class="label" text-anchor="middle">2026-03-13</text>
  <text x="737.1428571428571" y="35.0" class="label" text-anchor="middle">52</text>
  <circle cx="742.8571428571429" cy="40.0" class="point"/>
  <text x="742.8571428571429" y="375" class="label" text-anchor="middle">2026-03-14</text>
  <text x="742.8571428571429" y="35.0" class="label" text-anchor="middle">52</text>
  <circle cx="748.5714285714286" cy="40.0" class="point"/>
  <text x="748.5714285714286" y="375" class="label" text-anchor="middle">2026-03-15</text>
  <text x="748.5714285714286" y="35.0" class="label" text-anchor="middle">52</text>
  <circle cx="754.2857142857143" cy="40.0" class="point"/>
  <text x="754.2857142857143" y="375" class="label" text-anchor="middle">2026-03-16</text>
  <text x="754.2857142857143" y="35.0" class="label" text-anchor="middle">52</text>
  <circle cx="760.0" cy="40.0" class="point"/>
  <text x="760.0" y="375" class="label" text-anchor="middle">2026-03-17</text>
  <text x="760.0" y="35.0" class="label" text-anchor="middle">52</text>
  <text x="30" y="363.0" class="label" text-anchor="end">0</text>
  <text x="30" y="301.46153846153845" class="label" text-anchor="end">10</text>
  <text x="30" y="239.9230769230769" class="label" text-anchor="end">20</text>
  <text x="30" y="178.38461538461542" class="label" text-anchor="end">30</text>
  <text x="30" y="116.84615384615384" class="label" text-anchor="end">40</text>
  <text x="30" y="55.30769230769232" class="label" text-anchor="end">50</text>
</svg>