<svg xmlns="http://www.w3.org/2000/svg" width="800" height="400" viewBox="0 0 800 400">
  <style>
    .axis{stroke:#666;stroke-width:1}
    .line{stroke:#4a9;stroke-width:2;fill:none}
    .point{fill:#4a9;r:4}
    .label{font:10px sans-serif;fill:#aaa}
    .title{font:14px sans-serif;fill:#333}
  </style>
  <text x="400" y="20" class="title" text-anchor="middle">OPIC Field Growth Timeline</text>
  <line x1="40" y1="40" x2="40" y2="360" class="axis"/>
  <line x1="40" y1="360" x2="760" y2="360" class="axis"/>
  <path d="M 40.0,101.53846153846155 L 52.857142857142854,101.53846153846155 L 65.71428571428571,101.53846153846155 L 78.57142857142857,101.53846153846155 L 91.42857142857142,101.53846153846155 L 104.28571428571429,101.53846153846155 L 117.14285714285714,101.53846153846155 L 130.0,101.53846153846155 L 142.85714285714283,101.53846153846155 L 155.71428571428572,101.53846153846155 L 168.57142857142858,101.53846153846155 L 181.42857142857142,101.53846153846155 L 194.28571428571428,101.53846153846155 L 207.14285714285714,101.53846153846155 L 220.0,101.53846153846155 L 232.85714285714286,101.53846153846155 L 245.7142857142857,101.53846153846155 L 258.57142857142856,101.53846153846155 L 271.42857142857144,101.53846153846155 L 284.28571428571433,101.53846153846155 L 297.14285714285717,101.53846153846155 L 310.0,101.53846153846155 L 322.85714285714283,101.53846153846155 L 335.7142857142857,101.53846153846155 L 348.57142857142856,101.53846153846155 L 361.42857142857144,101.53846153846155 L 374.2857142857143,101.53846153846155 L 387.14285714285717,40.0 L 400.0,40.0 L 412.8571428571429,40.0 L 425.7142857142857,40.0 L 438.5714285714286,40.0 L 451.4285714285714,40.0 L 464.2857142857143,40.0 L 477.1428571428571,40.0 L 490.0,40.0 L 502.8571428571429,40.0 L 515.7142857142858,40.0 L 528.5714285714287,40.0 L 541.4285714285713,40.0 L 554.2857142857143,40.0 L 567.1428571428571,40.0 L 580.0,40.0 L 592.8571428571429,40.0 L 605.7142857142857,40.0 L 618.5714285714286,40.0 L 631.4285714285714,40.0 L 644.2857142857143,40.0 L 657.1428571428571,40.0 L 670.0,40.0 L 682.8571428571429,40.0 L 695.7142857142857,40.0 L 708.5714285714286,40.0 L 721.4285714285714,40.0 L 734.2857142857143,40.0 L 747.1428571428571,40.0 L 760.0,40.0" class="line"/>
  <circle cx="40.0" cy="101.53846153846155" class="point"/>
  <text x="40.0" y="375" class="label" text-anchor="middle">2025-11-11</text>
  <text x="40.0" y="96.53846153846155" class="label" text-anchor="middle">42</text>
  <circle cx="52.857142857142854" cy="101.53846153846155" class="point"/>
  <text x="52.857142857142854" y="375" class="label" text-anchor="middle">2025-11-12</text>
  <text x="52.857142857142854" y="96.53846153846155" class="label" text-anchor="middle">42</text>
  <circle cx="65.71428571428571" cy="101.53846153846155" class="point"/>
  <text x="65.71428571428571" y="375" class="label" text-anchor="middle">2025-11-13</text>
  <text x="65.71428571428571" y="96.53846153846155" class="label" text-anchor="middle">42</text>
  <circle cx="78.57142857142857" cy="101.53846153846155" class="point"/>
  <text x="78.57142857142857" y="375" class="label" text-anchor="middle">2025-11-14</text>
  <text x="78.57142857142857" y="96.53846153846155" class="label" text-anchor="middle">42</text>
  <circle cx="91.42857142857142" cy="101.53846153846155" class="point"/>
  <text x="91.42857142857142" y="375" class="label" text-anchor="middle">2025-11-15</text>
  <text x="91.42857142857142" y="96.53846153846155" class="label" text-anchor="middle">42</text>
  <circle cx="104.28571428571429" cy="101.53846153846155" class="point"/>
  <text x="104.28571428571429" y="375" class="label" text-anchor="middle">2025-11-16</text>
  <text x="104.28571428571429" y="96.53846153846155" class="label" text-anchor="middle">42</text>
  <circle cx="117.14285714285714" cy="101.53846153846155" class="point"/>
  <text x="117.14285714285714" y="375" class="label" text-anchor="middle">2025-11-17</text>
  <text x="117.14285714285714" y="96.53846153846155" class="label" text-anchor="middle">42</text>
  <circle cx="130.0" cy="101.53846153846155" class="point"/>
  <text x="130.0" y="375" class="label" text-anchor="middle">2025-11-18</text>
  <text x="130.0" y="96.53846153846155" class="label" text-anchor="middle">42</text>
  <circle cx="142.85714285714283" cy="101.53846153846155" class="point"/>
  <text x="142.85714285714283" y="375" class="label" text-anchor="middle">2025-11-19</text>
  <text x="142.85714285714283" y="96.53846153846155" class="label" text-anchor="middle">42</text>
  <circle cx="155.71428571428572" cy="101.53846153846155" class="point"/>
  <text x="155.71428571428572" y="375" class="label" text-anchor="middle">2025-11-20</text>
  <text x="155.71428571428572" y="96.53846153846155" class="label" text-anchor="middle">42</text>
  <circle cx="168.57142857142858" cy="101.53846153846155" class="point"/>
  <text x="168.57142857142858" y="375" class="label" text-anchor="middle">2025-11-21</text>
  <text x="168.57142857142858" y="96.53846153846155" class="label" text-anchor="middle">42</text>
  <circle cx="181.42857142857142" cy="101.53846153846155" class="point"/>
  <text x="181.42857142857142" y="375" class="label" text-anchor="middle">2025-11-22</text>
  <text x="181.42857142857142" y="96.53846153846155" class="label" text-anchor="middle">42</text>
  <circle cx="194.28571428571428" cy="101.53846153846155" class="point"/>
  <text x="194.28571428571428" y="375" class="label" text-anchor="middle">2025-11-23</text>
  <text x="194.28571428571428" y="96.53846153846155" class="label" text-anchor="middle">42</text>
  <circle cx="207.14285714285714" cy="101.53846153846155" class="point"/>
  <text x="207.14285714285714" y="375" class="label" text-anchor="middle">2025-11-24</text>
  <text x="207.14285714285714" y="96.53846153846155" class="label" text-anchor="middle">42</text>
  <circle cx="220.0" cy="101.53846153846155" class="point"/>
  <text x="220.0" y="375" class="label" text-anchor="middle">2025-11-25</text>
  <text x="220.0" y="96.53846153846155" class="label" text-anchor="middle">42</text>
  <circle cx="232.85714285714286" cy="101.53846153846155" class="point"/>
  <text x="232.85714285714286" y="375" class="label" text-anchor="middle">2025-11-26</text>
  <text x="232.85714285714286" y="96.53846153846155" class="label" text-anchor="middle">42</text>
  <circle cx="245.7142857142857" cy="101.53846153846155" class="point"/>
  <text x="245.7142857142857" y="375" class="label" text-anchor="middle">2025-11-27</text>
  <text x="245.7142857142857" y="96.53846153846155" class="label" text-anchor="middle">42</text>
  <circle cx="258.57142857142856" cy="101.53846153846155" class="point"/>
  <text x="258.57142857142856" y="375" class="label" text-anchor="middle">2025-11-28</text>
  <text x="258.57142857142856" y="96.53846153846155" class="label" text-anchor="middle">42</text>
  <circle cx="271.42857142857144" cy="101.53846153846155" class="point"/>
  <text x="271.42857142857144" y="375" class="label" text-anchor="middle">2025-11-29</text>
  <text x="271.42857142857144" y="96.53846153846155" class="label" text-anchor="middle">42</text>
  <circle cx="284.28571428571433" cy="101.53846153846155" class="point"/>
  <text x="284.28571428571433" y="375" class="label" text-anchor="middle">2025-11-30</text>
  <text x="284.28571428571433" y="96.53846153846155" class="label" text-anchor="middle">42</text>
  <circle cx="297.14285714285717" cy="101.53846153846155" class="point"/>
  <text x="297.14285714285717" y="375" class="label" text-anchor="middle">2025-12-01</text>
  <text x="297.14285714285717" y="96.53846153846155" class="label" text-anchor="middle">42</text>
  <circle cx="310.0" cy="101.53846153846155" class="point"/>
  <text x="310.0" y="375" class="label" text-anchor="middle">2025-12-02</text>
  <text x="310.0" y="96.53846153846155" class="label" text-anchor="middle">42</text>
  <circle cx="322.85714285714283" cy="101.53846153846155" class="point"/>
  <text x="322.85714285714283" y="375" class="label" text-anchor="middle">2025-12-03</text>
  <text x="322.85714285714283" y="96.53846153846155" class="label" text-anchor="middle">42</text>
  <circle cx="335.7142857142857" cy="101.53846153846155" class="point"/>
  <text x="335.7142857142857" y="375" class="label" text-anchor="middle">2025-12-04</text>
  <text x="335.7142857142857" y="96.53846153846155" class="label" text-anchor="middle">42</text>
  <circle cx="348.57142857142856" cy="101.53846153846155" class="point"/>
  <text x="348.57142857142856" y="375" class="label" text-anchor="middle">2025-12-05</text>
  <text x="348.57142857142856" y="96.53846153846155" class="label" text-anchor="middle">42</text>
  <circle cx="361.42857142857144" cy="101.53846153846155" class="point"/>
  <text x="361.42857142857144" y="375" class="label" text-anchor="middle">2025-12-06</text>
  <text x="361.42857142857144" y="96.53846153846155" class="label" text-anchor="middle">42</text>
  <circle cx="374.2857142857143" cy="101.53846153846155" class="point"/>
  <text x="374.2857142857143" y="375" class="label" text-anchor="middle">2025-12-07</text>
  <text x="374.2857142857143" y="96.53846153846155" class="label" text-anchor="middle">42</text>
  <circle cx="387.14285714285717" cy="40.0" class="point"/>
  <text x="387.14285714285717" y="375" class="label" text-anchor="middle">2025-12-08</text>
  <text x="387.14285714285717" y="35.0" class="label" text-anchor="middle">52</text>
  <circle cx="400.0" cy="40.0" class="point"/>
  <text x="400.0" y="375" class="label" text-anchor="middle">2025-12-09</text>
  <text x="400.0" y="35.0" class="label" text-anchor="middle">52</text>
  <circle cx="412.8571428571429" cy="40.0" class="point"/>
  <text x="412.8571428571429" y="375" class="label" text-anchor="middle">2025-12-10</text>
  <text x="412.8571428571429" y="35.0" class="label" text-anchor="middle">52</text>
  <circle cx="425.7142857142857" cy="40.0" class="point"/>
  <text x="425.7142857142857" y="375" class="label" text-anchor="middle">2025-12-11</text>
  <text x="425.7142857142857" y="35.0" class="label" text-anchor="middle">52</text>
  <circle cx="438.5714285714286" cy="40.0" class="point"/>
  <text x="438.5714285714286" y="375" class="label" text-anchor="middle">2025-12-12</text>
  <text x="438.5714285714286" y="35.0" class="label" text-anchor="middle">52</text>
  <circle cx="451.4285714285714" cy="40.0" class="point"/>
  <text x="451.4285714285714" y="375" class="label" text-anchor="middle">2025-12-13</text>
  <text x="451.4285714285714" y="35.0" class="label" text-anchor="middle">52</text>
  <circle cx="464.2857142857143" cy="40.0" class="point"/>
  <text x="464.2857142857143" y="375" class="label" text-anchor="middle">2025-12-14</text>
  <text x="464.2857142857143" y="35.0" class="label" text-anchor="middle">52</text>
  <circle cx="477.1428571428571" cy="40.0" class="point"/>
  <text x="477.1428571428571" y="375" class="label" text-anchor="middle">2025-12-15</text>
  <text x="477.1428571428571" y="35.0" class="label" text-anchor="middle">52</text>
  <circle cx="490.0" cy="40.0" class="point"/>
  <text x="490.0" y="375" class="label" text-anchor="middle">2025-12-16</text>
  <text x="490.0" y="35.0" class="label" text-anchor="middle">52</text>
  <circle cx="502.8571428571429" cy="40.0" class="point"/>
  <text x="502.8571428571429" y="375" class="label" text-anchor="middle">2025-12-17</text>
  <text x="502.8571428571429" y="35.0" class="label" text-anchor="middle">52</text>
  <circle cx="515.7142857142858" cy="40.0" class="point"/>
  <text x="515.7142857142858" y="375" class="label" text-anchor="middle">2025-12-18</text>
  <text x="515.7142857142858" y="35.0" class="label" text-anchor="middle">52</text>
  <circle cx="528.5714285714287" cy="40.0" class="point"/>
  <text x="528.5714285714287" y="375" class="label" text-anchor="middle">2025-12-19</text>
  <text x="528.5714285714287" y="35.0" class="label" text-anchor="middle">52</text>
  <circle cx="541.4285714285713" cy="40.0" class="point"/>
  <text x="541.4285714285713" y="375" class="label" text-anchor="middle">2025-12-20</text>
  <text x="541.4285714285713" y="35.0" class="label" text-anchor="middle">52</text>
  <circle cx="554.2857142857143" cy="40.0" class="point"/>
  <text x="554.2857142857143" y="375" class="label" text-anchor="middle">2025-12-21</text>
  <text x="554.2857142857143" y="35.0" class="label" text-anchor="middle">52</text>
  <circle cx="567.1428571428571" cy="40.0" class="point"/>
  <text x="567.1428571428571" y="375" class="label" text-anchor="middle">2025-12-22</text>
  <text x="567.1428571428571" y="35.0" class="label" text-anchor="middle">52</text>
  <circle cx="580.0" cy="40.0" class="point"/>
  <text x="580.0" y="375" class="label" text-anchor="middle">2025-12-23</text>
  <text x="580.0" y="35.0" class="label" text-anchor="middle">52</text>
  <circle cx="592.8571428571429" cy="40.0" class="point"/>
  <text x="592.8571428571429" y="375" class="label" text-anchor="middle">2025-12-24</text>
  <text x="592.8571428571429" y="35.0" class="label" text-anchor="middle">52</text>
  <circle cx="605.7142857142857" cy="40.0" class="point"/>
  <text x="605.7142857142857" y="375" class="label" text-anchor="middle">2025-12-25</text>
  <text x="605.7142857142857" y="35.0" class="label" text-anchor="middle">52</text>
  <circle cx="618.5714285714286" cy="40.0" class="point"/>
  <text x="618.5714285714286" y="375" class="label" text-anchor="middle">2025-12-26</text>
  <text x="618.5714285714286" y="35.0" class="label" text-anchor="middle">52</text>
  <circle cx="631.4285714285714" cy="40.0" class="point"/>
  <text x="631.4285714285714" y="375" class="label" text-anchor="middle">2025-12-27</text>
  <text x="631.4285714285714" y="35.0" class="label" text-anchor="middle">52</text>
  <circle cx="644.2857142857143" cy="40.0" class="point"/>
  <text x="644.2857142857143" y="375" class="label" text-anchor="middle">2025-12-28</text>
  <text x="644.2857142857143" y="35.0" class="label" text-anchor="middle">52</text>
  <circle cx="657.1428571428571" cy="40.0" class="point"/>
  <text x="657.1428571428571" y="375" class="label" text-anchor="middle">2025-12-29</text>
  <text x="657.1428571428571" y="35.0" class="label" text-anchor="middle">52</text>
  <circle cx="670.0" cy="40.0" class="point"/>
  <text x="670.0" y="375" class="label" text-anchor="middle">2025-12-30</text>
  <text x="670.0" y="35.0" class="label" text-anchor="middle">52</text>
  <circle cx="682.8571428571429" cy="40.0" class="point"/>
  <text x="682.8571428571429" y="375" class="label" text-anchor="middle">2025-12-31</text>
  <text x="682.8571428571429" y="35.0" class="label" text-anchor="middle">52</text>
  <circle cx="695.7142857142857" cy="40.0" class="point"/>
  <text x="695.7142857142857" y="375" class="label" text-anchor="middle">2026-01-01</text>
  <text x="695.7142857142857" y="35.0" class="label" text-anchor="middle">52</text>
  <circle cx="708.5714285714286" cy="40.0" class="point"/>
  <text x="708.5714285714286" y="375" class="label" text-anchor="middle">2026-01-02</text>
  <text x="708.5714285714286" y="35.0" class="label" text-anchor="middle">52</text>
  <circle cx="721.4285714285714" cy="40.0" class="point"/>
  <text x="721.4285714285714" y="375" class="label" text-anchor="middle">2026-01-03</text>
  <text x="721.4285714285714" y="35.0" class="label" text-anchor="middle">52</text>
  <circle cx="734.2857142857143" cy="40.0" class="point"/>
  <text x="734.2857142857143" y="375" class="label" text-anchor="middle">2026-01-04</text>
  <text x="734.2857142857143" y="35.0" class="label" text-anchor="middle">52</text>
  <circle cx="747.1428571428571" cy="40.0" class="point"/>
  <text x="747.1428571428571" y="375" class="label" text-anchor="middle">2026-01-05</text>
  <text x="747.1428571428571" y="35.0" class="label" text-anchor="middle">52</text>
  <circle cx="760.0" cy="40.0" class="point"/>
  <text x="760.0" y="375" class="label" text-anchor="middle">2026-01-06</text>
  <text x="760.0" y="35.0" class="label" text-anchor="middle">52</text>
  <text x="30" y="363.0" class="label" text-anchor="end">0</text>
  <text x="30" y="301.46153846153845" class="label" text-anchor="end">10</text>
  <text x="30" y="239.9230769230769" class="label" text-anchor="end">20</text>
  <text x="30" y="178.38461538461542" class="label" text-anchor="end">30</text>
  <text x="30" y="116.84615384615384" class="label" text-anchor="end">40</text>
  <text x="30" y="55.30769230769232" class="label" text-anchor="end">50</text>
</svg>