<svg xmlns="http://www.w3.org/2000/svg" width="800" height="400" viewBox="0 0 800 400">
  <style>
    .axis{stroke:#666;stroke-width:1}
    .line{stroke:#4a9;stroke-width:2;fill:none}
    .point{fill:#4a9;r:4}
    .label{font:10px sans-serif;fill:#aaa}
    .title{font:14px sans-serif;fill:#333}
  </style>
  <text x="400" y="20" class="title" text-anchor="middle">OPIC Field Growth Timeline</text>
  <line x1="40" y1="40" x2="40" y2="360" class="axis"/>
  <line x1="40" y1="360" x2="760" y2="360" class="axis"/>
  <path d="M 40.0,101.53846153846155 L 45.41353383458647,101.53846153846155 L 50.82706766917293,101.53846153846155 L 56.24060150375939,101.53846153846155 L 61.65413533834587,101.53846153846155 L 67.06766917293233,101.53846153846155 L 72.48120300751879,101.53846153846155 L 77.89473684210526,101.53846153846155 L 83.30827067669173,101.53846153846155 L 88.7218045112782,101.53846153846155 L 94.13533834586465,101.53846153846155 L 99.54887218045113,101.53846153846155 L 104.96240601503759,101.53846153846155 L 110.37593984962406,101.53846153846155 L 115.78947368421052,101.53846153846155 L 121.203007518797,101.53846153846155 L 126.61654135338345,101.53846153846155 L 132.0300751879699,101.53846153846155 L 137.4436090225564,101.53846153846155 L 142.85714285714283,101.53846153846155 L 148.2706766917293,101.53846153846155 L 153.68421052631578,101.53846153846155 L 159.09774436090225,101.53846153846155 L 164.51127819548873,101.53846153846155 L 169.92481203007517,101.53846153846155 L 175.33834586466165,101.53846153846155 L 180.75187969924812,101.53846153846155 L 186.16541353383457,40.0 L 191.57894736842104,40.0 L 196.99248120300751,40.0 L 202.406015037594,40.0 L 207.81954887218043,40.0 L 213.2330827067669,40.0 L 218.64661654135338,40.0 L 224.06015037593983,40.0 L 229.4736842105263,40.0 L 234.88721804511277,40.0 L 240.30075187969925,40.0 L 245.7142857142857,40.0 L 251.12781954887217,40.0 L 256.5413533834586,40.0 L 261.9548872180451,40.0 L 267.36842105263156,40.0 L 272.78195488721803,40.0 L 278.1954887218045,40.0 L 283.609022556391,40.0 L 289.02255639097746,40.0 L 294.43609022556393,40.0 L 299.84962406015035,40.0 L 305.2631578947368,40.0 L 310.6766917293233,40.0 L 316.09022556390977,40.0 L 321.50375939849624,40.0 L 326.9172932330827,40.0 L 332.33082706766913,40.0 L 337.7443609022556,40.0 L 343.1578947368421,40.0 L 348.57142857142856,40.0 L 353.98496240601503,40.0 L 359.3984962406015,40.0 L 364.812030075188,40.0 L 370.2255639097744,40.0 L 375.63909774436087,40.0 L 381.05263157894734,40.0 L 386.4661654135338,40.0 L 391.8796992481203,40.0 L 397.29323308270676,40.0 L 402.70676691729324,40.0 L 408.12030075187965,40.0 L 413.5338345864662,40.0 L 418.9473684210526,40.0 L 424.36090225563913,40.0 L 429.77443609022555,40.0 L 435.187969924812,40.0 L 440.6015037593985,40.0 L 446.01503759398497,40.0 L 451.4285714285714,40.0 L 456.8421052631579,40.0 L 462.25563909774434,40.0 L 467.66917293233087,40.0 L 473.0827067669173,40.0 L 478.49624060150376,40.0 L 483.9097744360902,40.0 L 489.3233082706767,40.0 L 494.7368421052631,40.0 L 500.15037593984965,40.0 L 505.56390977443607,40.0 L 510.97744360902254,40.0 L 516.390977443609,40.0 L 521.8045112781955,40.0 L 527.218045112782,40.0 L 532.6315789473684,40.0 L 538.0451127819549,40.0 L 543.4586466165414,40.0 L 548.8721804511279,40.0 L 554.2857142857143,40.0 L 559.6992481203007,40.0 L 565.1127819548873,40.0 L 570.5263157894736,40.0 L 575.9398496240601,40.0 L 581.3533834586466,40.0 L 586.7669172932331,40.0 L 592.1804511278195,40.0 L 597.593984962406,40.0 L 603.0075187969925,40.0 L 608.421052631579,40.0 L 613.8345864661654,40.0 L 619.2481203007519,40.0 L 624.6616541353383,40.0 L 630.0751879699249,40.0 L 635.4887218045112,40.0 L 640.9022556390978,40.0 L 646.3157894736842,40.0 L 651.7293233082706,40.0 L 657.1428571428571,40.0 L 662.5563909774436,40.0 L 667.9699248120301,40.0 L 673.3834586466165,40.0 L 678.796992481203,40.0 L 684.2105263157895,40.0 L 689.624060150376,40.0 L 695.0375939849624,40.0 L 700.4511278195488,40.0 L 705.8646616541354,40.0 L 711.2781954887217,40.0 L 716.6917293233083,40.0 L 722.1052631578947,40.0 L 727.5187969924812,40.0 L 732.9323308270676,40.0 L 738.3458646616541,40.0 L 743.7593984962406,40.0 L 749.172932330827,40.0 L 754.5864661654135,40.0 L 760.0,40.0" class="line"/>
  <circle cx="40.0" cy="101.53846153846155" class="point"/>
  <text x="40.0" y="375" class="label" text-anchor="middle">2025-11-11</text>
  <text x="40.0" y="96.53846153846155" class="label" text-anchor="middle">42</text>
  <circle cx="45.41353383458647" cy="101.53846153846155" class="point"/>
  <text x="45.41353383458647" y="375" class="label" text-anchor="middle">2025-11-12</text>
  <text x="45.41353383458647" y="96.53846153846155" class="label" text-anchor="middle">42</text>
  <circle cx="50.82706766917293" cy="101.53846153846155" class="point"/>
  <text x="50.82706766917293" y="375" class="label" text-anchor="middle">2025-11-13</text>
  <text x="50.82706766917293" y="96.53846153846155" class="label" text-anchor="middle">42</text>
  <circle cx="56.24060150375939" cy="101.53846153846155" class="point"/>
  <text x="56.24060150375939" y="375" class="label" text-anchor="middle">2025-11-14</text>
  <text x="56.24060150375939" y="96.53846153846155" class="label" text-anchor="middle">42</text>
  <circle cx="61.65413533834587" cy="101.53846153846155" class="point"/>
  <text x="61.65413533834587" y="375" class="label" text-anchor="middle">2025-11-15</text>
  <text x="61.65413533834587" y="96.53846153846155" class="label" text-anchor="middle">42</text>
  <circle cx="67.06766917293233" cy="101.53846153846155" class="point"/>
  <text x="67.06766917293233" y="375" class="label" text-anchor="middle">2025-11-16</text>
  <text x="67.06766917293233" y="96.53846153846155" class="label" text-anchor="middle">42</text>
  <circle cx="72.48120300751879" cy="101.53846153846155" class="point"/>
  <text x="72.48120300751879" y="375" class="label" text-anchor="middle">2025-11-17</text>
  <text x="72.48120300751879" y="96.53846153846155" class="label" text-anchor="middle">42</text>
  <circle cx="77.89473684210526" cy="101.53846153846155" class="point"/>
  <text x="77.89473684210526" y="375" class="label" text-anchor="middle">2025-11-18</text>
  <text x="77.89473684210526" y="96.53846153846155" class="label" text-anchor="middle">42</text>
  <circle cx="83.30827067669173" cy="101.53846153846155" class="point"/>
  <text x="83.30827067669173" y="375" class="label" text-anchor="middle">2025-11-19</text>
  <text x="83.30827067669173" y="96.53846153846155" class="label" text-anchor="middle">42</text>
  <circle cx="88.7218045112782" cy="101.53846153846155" class="point"/>
  <text x="88.7218045112782" y="375" class="label" text-anchor="middle">2025-11-20</text>
  <text x="88.7218045112782" y="96.53846153846155" class="label" text-anchor="middle">42</text>
  <circle cx="94.13533834586465" cy="101.53846153846155" class="point"/>
  <text x="94.13533834586465" y="375" class="label" text-anchor="middle">2025-11-21</text>
  <text x="94.13533834586465" y="96.53846153846155" class="label" text-anchor="middle">42</text>
  <circle cx="99.54887218045113" cy="101.53846153846155" class="point"/>
  <text x="99.54887218045113" y="375" class="label" text-anchor="middle">2025-11-22</text>
  <text x="99.54887218045113" y="96.53846153846155" class="label" text-anchor="middle">42</text>
  <circle cx="104.96240601503759" cy="101.53846153846155" class="point"/>
  <text x="104.96240601503759" y="375" class="label" text-anchor="middle">2025-11-23</text>
  <text x="104.96240601503759" y="96.53846153846155" class="label" text-anchor="middle">42</text>
  <circle cx="110.37593984962406" cy="101.53846153846155" class="point"/>
  <text x="110.37593984962406" y="375" class="label" text-anchor="middle">2025-11-24</text>
  <text x="110.37593984962406" y="96.53846153846155" class="label" text-anchor="middle">42</text>
  <circle cx="115.78947368421052" cy="101.53846153846155" class="point"/>
  <text x="115.78947368421052" y="375" class="label" text-anchor="middle">2025-11-25</text>
  <text x="115.78947368421052" y="96.53846153846155" class="label" text-anchor="middle">42</text>
  <circle cx="121.203007518797" cy="101.53846153846155" class="point"/>
  <text x="121.203007518797" y="375" class="label" text-anchor="middle">2025-11-26</text>
  <text x="121.203007518797" y="96.53846153846155" class="label" text-anchor="middle">42</text>
  <circle cx="126.61654135338345" cy="101.53846153846155" class="point"/>
  <text x="126.61654135338345" y="375" class="label" text-anchor="middle">2025-11-27</text>
  <text x="126.61654135338345" y="96.53846153846155" class="label" text-anchor="middle">42</text>
  <circle cx="132.0300751879699" cy="101.53846153846155" class="point"/>
  <text x="132.0300751879699" y="375" class="label" text-anchor="middle">2025-11-28</text>
  <text x="132.0300751879699" y="96.53846153846155" class="label" text-anchor="middle">42</text>
  <circle cx="137.4436090225564" cy="101.53846153846155" class="point"/>
  <text x="137.4436090225564" y="375" class="label" text-anchor="middle">2025-11-29</text>
  <text x="137.4436090225564" y="96.53846153846155" class="label" text-anchor="middle">42</text>
  <circle cx="142.85714285714283" cy="101.53846153846155" class="point"/>
  <text x="142.85714285714283" y="375" class="label" text-anchor="middle">2025-11-30</text>
  <text x="142.85714285714283" y="96.53846153846155" class="label" text-anchor="middle">42</text>
  <circle cx="148.2706766917293" cy="101.53846153846155" class="point"/>
  <text x="148.2706766917293" y="375" class="label" text-anchor="middle">2025-12-01</text>
  <text x="148.2706766917293" y="96.53846153846155" class="label" text-anchor="middle">42</text>
  <circle cx="153.68421052631578" cy="101.53846153846155" class="point"/>
  <text x="153.68421052631578" y="375" class="label" text-anchor="middle">2025-12-02</text>
  <text x="153.68421052631578" y="96.53846153846155" class="label" text-anchor="middle">42</text>
  <circle cx="159.09774436090225" cy="101.53846153846155" class="point"/>
  <text x="159.09774436090225" y="375" class="label" text-anchor="middle">2025-12-03</text>
  <text x="159.09774436090225" y="96.53846153846155" class="label" text-anchor="middle">42</text>
  <circle cx="164.51127819548873" cy="101.53846153846155" class="point"/>
  <text x="164.51127819548873" y="375" class="label" text-anchor="middle">2025-12-04</text>
  <text x="164.51127819548873" y="96.53846153846155" class="label" text-anchor="middle">42</text>
  <circle cx="169.92481203007517" cy="101.53846153846155" class="point"/>
  <text x="169.92481203007517" y="375" class="label" text-anchor="middle">2025-12-05</text>
  <text x="169.92481203007517" y="96.53846153846155" class="label" text-anchor="middle">42</text>
  <circle cx="175.33834586466165" cy="101.53846153846155" class="point"/>
  <text x="175.33834586466165" y="375" class="label" text-anchor="middle">2025-12-06</text>
  <text x="175.33834586466165" y="96.53846153846155" class="label" text-anchor="middle">42</text>
  <circle cx="180.75187969924812" cy="101.53846153846155" class="point"/>
  <text x="180.75187969924812" y="375" class="label" text-anchor="middle">2025-12-07</text>
  <text x="180.75187969924812" y="96.53846153846155" class="label" text-anchor="middle">42</text>
  <circle cx="186.16541353383457" cy="40.0" class="point"/>
  <text x="186.16541353383457" y="375" class="label" text-anchor="middle">2025-12-08</text>
  <text x="186.16541353383457" y="35.0" class="label" text-anchor="middle">52</text>
  <circle cx="191.57894736842104" cy="40.0" class="point"/>
  <text x="191.57894736842104" y="375" class="label" text-anchor="middle">2025-12-09</text>
  <text x="191.57894736842104" y="35.0" class="label" text-anchor="middle">52</text>
  <circle cx="196.99248120300751" cy="40.0" class="point"/>
  <text x="196.99248120300751" y="375" class="label" text-anchor="middle">2025-12-10</text>
  <text x="196.99248120300751" y="35.0" class="label" text-anchor="middle">52</text>
  <circle cx="202.406015037594" cy="40.0" class="point"/>
  <text x="202.406015037594" y="375" class="label" text-anchor="middle">2025-12-11</text>
  <text x="202.406015037594" y="35.0" class="label" text-anchor="middle">52</text>
  <circle cx="207.81954887218043" cy="40.0" class="point"/>
  <text x="207.81954887218043" y="375" class="label" text-anchor="middle">2025-12-12</text>
  <text x="207.81954887218043" y="35.0" class="label" text-anchor="middle">52</text>
  <circle cx="213.2330827067669" cy="40.0" class="point"/>
  <text x="213.2330827067669" y="375" class="label" text-anchor="middle">2025-12-13</text>
  <text x="213.2330827067669" y="35.0" class="label" text-anchor="middle">52</text>
  <circle cx="218.64661654135338" cy="40.0" class="point"/>
  <text x="218.64661654135338" y="375" class="label" text-anchor="middle">2025-12-14</text>
  <text x="218.64661654135338" y="35.0" class="label" text-anchor="middle">52</text>
  <circle cx="224.06015037593983" cy="40.0" class="point"/>
  <text x="224.06015037593983" y="375" class="label" text-anchor="middle">2025-12-15</text>
  <text x="224.06015037593983" y="35.0" class="label" text-anchor="middle">52</text>
  <circle cx="229.4736842105263" cy="40.0" class="point"/>
  <text x="229.4736842105263" y="375" class="label" text-anchor="middle">2025-12-16</text>
  <text x="229.4736842105263" y="35.0" class="label" text-anchor="middle">52</text>
  <circle cx="234.88721804511277" cy="40.0" class="point"/>
  <text x="234.88721804511277" y="375" class="label" text-anchor="middle">2025-12-17</text>
  <text x="234.88721804511277" y="35.0" class="label" text-anchor="middle">52</text>
  <circle cx="240.30075187969925" cy="40.0" class="point"/>
  <text x="240.30075187969925" y="375" class="label" text-anchor="middle">2025-12-18</text>
  <text x="240.30075187969925" y="35.0" class="label" text-anchor="middle">52</text>
  <circle cx="245.7142857142857" cy="40.0" class="point"/>
  <text x="245.7142857142857" y="375" class="label" text-anchor="middle">2025-12-19</text>
  <text x="245.7142857142857" y="35.0" class="label" text-anchor="middle">52</text>
  <circle cx="251.12781954887217" cy="40.0" class="point"/>
  <text x="251.12781954887217" y="375" class="label" text-anchor="middle">2025-12-20</text>
  <text x="251.12781954887217" y="35.0" class="label" text-anchor="middle">52</text>
  <circle cx="256.5413533834586" cy="40.0" class="point"/>
  <text x="256.5413533834586" y="375" class="label" text-anchor="middle">2025-12-21</text>
  <text x="256.5413533834586" y="35.0" class="label" text-anchor="middle">52</text>
  <circle cx="261.9548872180451" cy="40.0" class="point"/>
  <text x="261.9548872180451" y="375" class="label" text-anchor="middle">2025-12-22</text>
  <text x="261.9548872180451" y="35.0" class="label" text-anchor="middle">52</text>
  <circle cx="267.36842105263156" cy="40.0" class="point"/>
  <text x="267.36842105263156" y="375" class="label" text-anchor="middle">2025-12-23</text>
  <text x="267.36842105263156" y="35.0" class="label" text-anchor="middle">52</text>
  <circle cx="272.78195488721803" cy="40.0" class="point"/>
  <text x="272.78195488721803" y="375" class="label" text-anchor="middle">2025-12-24</text>
  <text x="272.78195488721803" y="35.0" class="label" text-anchor="middle">52</text>
  <circle cx="278.1954887218045" cy="40.0" class="point"/>
  <text x="278.1954887218045" y="375" class="label" text-anchor="middle">2025-12-25</text>
  <text x="278.1954887218045" y="35.0" class="label" text-anchor="middle">52</text>
  <circle cx="283.609022556391" cy="40.0" class="point"/>
  <text x="283.609022556391" y="375" class="label" text-anchor="middle">2025-12-26</text>
  <text x="283.609022556391" y="35.0" class="label" text-anchor="middle">52</text>
  <circle cx="289.02255639097746" cy="40.0" class="point"/>
  <text x="289.02255639097746" y="375" class="label" text-anchor="middle">2025-12-27</text>
  <text x="289.02255639097746" y="35.0" class="label" text-anchor="middle">52</text>
  <circle cx="294.43609022556393" cy="40.0" class="point"/>
  <text x="294.43609022556393" y="375" class="label" text-anchor="middle">2025-12-28</text>
  <text x="294.43609022556393" y="35.0" class="label" text-anchor="middle">52</text>
  <circle cx="299.84962406015035" cy="40.0" class="point"/>
  <text x="299.84962406015035" y="375" class="label" text-anchor="middle">2025-12-29</text>
  <text x="299.84962406015035" y="35.0" class="label" text-anchor="middle">52</text>
  <circle cx="305.2631578947368" cy="40.0" class="point"/>
  <text x="305.2631578947368" y="375" class="label" text-anchor="middle">2025-12-30</text>
  <text x="305.2631578947368" y="35.0" class="label" text-anchor="middle">52</text>
  <circle cx="310.6766917293233" cy="40.0" class="point"/>
  <text x="310.6766917293233" y="375" class="label" text-anchor="middle">2025-12-31</text>
  <text x="310.6766917293233" y="35.0" class="label" text-anchor="middle">52</text>
  <circle cx="316.09022556390977" cy="40.0" class="point"/>
  <text x="316.09022556390977" y="375" class="label" text-anchor="middle">2026-01-01</text>
  <text x="316.09022556390977" y="35.0" class="label" text-anchor="middle">52</text>
  <circle cx="321.50375939849624" cy="40.0" class="point"/>
  <text x="321.50375939849624" y="375" class="label" text-anchor="middle">2026-01-02</text>
  <text x="321.50375939849624" y="35.0" class="label" text-anchor="middle">52</text>
  <circle cx="326.9172932330827" cy="40.0" class="point"/>
  <text x="326.9172932330827" y="375" class="label" text-anchor="middle">2026-01-03</text>
  <text x="326.9172932330827" y="35.0" class="label" text-anchor="middle">52</text>
  <circle cx="332.33082706766913" cy="40.0" class="point"/>
  <text x="332.33082706766913" y="375" class="label" text-anchor="middle">2026-01-04</text>
  <text x="332.33082706766913" y="35.0" class="label" text-anchor="middle">52</text>
  <circle cx="337.7443609022556" cy="40.0" class="point"/>
  <text x="337.7443609022556" y="375" class="label" text-anchor="middle">2026-01-05</text>
  <text x="337.7443609022556" y="35.0" class="label" text-anchor="middle">52</text>
  <circle cx="343.1578947368421" cy="40.0" class="point"/>
  <text x="343.1578947368421" y="375" class="label" text-anchor="middle">2026-01-06</text>
  <text x="343.1578947368421" y="35.0" class="label" text-anchor="middle">52</text>
  <circle cx="348.57142857142856" cy="40.0" class="point"/>
  <text x="348.57142857142856" y="375" class="label" text-anchor="middle">2026-01-07</text>
  <text x="348.57142857142856" y="35.0" class="label" text-anchor="middle">52</text>
  <circle cx="353.98496240601503" cy="40.0" class="point"/>
  <text x="353.98496240601503" y="375" class="label" text-anchor="middle">2026-01-08</text>
  <text x="353.98496240601503" y="35.0" class="label" text-anchor="middle">52</text>
  <circle cx="359.3984962406015" cy="40.0" class="point"/>
  <text x="359.3984962406015" y="375" class="label" text-anchor="middle">2026-01-09</text>
  <text x="359.3984962406015" y="35.0" class="label" text-anchor="middle">52</text>
  <circle cx="364.812030075188" cy="40.0" class="point"/>
  <text x="364.812030075188" y="375" class="label" text-anchor="middle">2026-01-10</text>
  <text x="364.812030075188" y="35.0" class="label" text-anchor="middle">52</text>
  <circle cx="370.2255639097744" cy="40.0" class="point"/>
  <text x="370.2255639097744" y="375" class="label" text-anchor="middle">2026-01-11</text>
  <text x="370.2255639097744" y="35.0" class="label" text-anchor="middle">52</text>
  <circle cx="375.63909774436087" cy="40.0" class="point"/>
  <text x="375.63909774436087" y="375" class="label" text-anchor="middle">2026-01-12</text>
  <text x="375.63909774436087" y="35.0" class="label" text-anchor="middle">52</text>
  <circle cx="381.05263157894734" cy="40.0" class="point"/>
  <text x="381.05263157894734" y="375" class="label" text-anchor="middle">2026-01-13</text>
  <text x="381.05263157894734" y="35.0" class="label" text-anchor="middle">52</text>
  <circle cx="386.4661654135338" cy="40.0" class="point"/>
  <text x="386.4661654135338" y="375" class="label" text-anchor="middle">2026-01-14</text>
  <text x="386.4661654135338" y="35.0" class="label" text-anchor="middle">52</text>
  <circle cx="391.8796992481203" cy="40.0" class="point"/>
  <text x="391.8796992481203" y="375" class="label" text-anchor="middle">2026-01-15</text>
  <text x="391.8796992481203" y="35.0" class="label" text-anchor="middle">52</text>
  <circle cx="397.29323308270676" cy="40.0" class="point"/>
  <text x="397.29323308270676" y="375" class="label" text-anchor="middle">2026-01-16</text>
  <text x="397.29323308270676" y="35.0" class="label" text-anchor="middle">52</text>
  <circle cx="402.70676691729324" cy="40.0" class="point"/>
  <text x="402.70676691729324" y="375" class="label" text-anchor="middle">2026-01-17</text>
  <text x="402.70676691729324" y="35.0" class="label" text-anchor="middle">52</text>
  <circle cx="408.12030075187965" cy="40.0" class="point"/>
  <text x="408.12030075187965" y="375" class="label" text-anchor="middle">2026-01-18</text>
  <text x="408.12030075187965" y="35.0" class="label" text-anchor="middle">52</text>
  <circle cx="413.5338345864662" cy="40.0" class="point"/>
  <text x="413.5338345864662" y="375" class="label" text-anchor="middle">2026-01-19</text>
  <text x="413.5338345864662" y="35.0" class="label" text-anchor="middle">52</text>
  <circle cx="418.9473684210526" cy="40.0" class="point"/>
  <text x="418.9473684210526" y="375" class="label" text-anchor="middle">2026-01-20</text>
  <text x="418.9473684210526" y="35.0" class="label" text-anchor="middle">52</text>
  <circle cx="424.36090225563913" cy="40.0" class="point"/>
  <text x="424.36090225563913" y="375" class="label" text-anchor="middle">2026-01-21</text>
  <text x="424.36090225563913" y="35.0" class="label" text-anchor="middle">52</text>
  <circle cx="429.77443609022555" cy="40.0" class="point"/>
  <text x="429.77443609022555" y="375" class="label" text-anchor="middle">2026-01-22</text>
  <text x="429.77443609022555" y="35.0" class="label" text-anchor="middle">52</text>
  <circle cx="435.187969924812" cy="40.0" class="point"/>
  <text x="435.187969924812" y="375" class="label" text-anchor="middle">2026-01-23</text>
  <text x="435.187969924812" y="35.0" class="label" text-anchor="middle">52</text>
  <circle cx="440.6015037593985" cy="40.0" class="point"/>
  <text x="440.6015037593985" y="375" class="label" text-anchor="middle">2026-01-24</text>
  <text x="440.6015037593985" y="35.0" class="label" text-anchor="middle">52</text>
  <circle cx="446.01503759398497" cy="40.0" class="point"/>
  <text x="446.01503759398497" y="375" class="label" text-anchor="middle">2026-01-25</text>
  <text x="446.01503759398497" y="35.0" class="label" text-anchor="middle">52</text>
  <circle cx="451.4285714285714" cy="40.0" class="point"/>
  <text x="451.4285714285714" y="375" class="label" text-anchor="middle">2026-01-26</text>
  <text x="451.4285714285714" y="35.0" class="label" text-anchor="middle">52</text>
  <circle cx="456.8421052631579" cy="40.0" class="point"/>
  <text x="456.8421052631579" y="375" class="label" text-anchor="middle">2026-01-27</text>
  <text x="456.8421052631579" y="35.0" class="label" text-anchor="middle">52</text>
  <circle cx="462.25563909774434" cy="40.0" class="point"/>
  <text x="462.25563909774434" y="375" class="label" text-anchor="middle">2026-01-28</text>
  <text x="462.25563909774434" y="35.0" class="label" text-anchor="middle">52</text>
  <circle cx="467.66917293233087" cy="40.0" class="point"/>
  <text x="467.66917293233087" y="375" class="label" text-anchor="middle">2026-01-29</text>
  <text x="467.66917293233087" y="35.0" class="label" text-anchor="middle">52</text>
  <circle cx="473.0827067669173" cy="40.0" class="point"/>
  <text x="473.0827067669173" y="375" class="label" text-anchor="middle">2026-01-30</text>
  <text x="473.0827067669173" y="35.0" class="label" text-anchor="middle">52</text>
  <circle cx="478.49624060150376" cy="40.0" class="point"/>
  <text x="478.49624060150376" y="375" class="label" text-anchor="middle">2026-01-31</text>
  <text x="478.49624060150376" y="35.0" class="label" text-anchor="middle">52</text>
  <circle cx="483.9097744360902" cy="40.0" class="point"/>
  <text x="483.9097744360902" y="375" class="label" text-anchor="middle">2026-02-01</text>
  <text x="483.9097744360902" y="35.0" class="label" text-anchor="middle">52</text>
  <circle cx="489.3233082706767" cy="40.0" class="point"/>
  <text x="489.3233082706767" y="375" class="label" text-anchor="middle">2026-02-02</text>
  <text x="489.3233082706767" y="35.0" class="label" text-anchor="middle">52</text>
  <circle cx="494.7368421052631" cy="40.0" class="point"/>
  <text x="494.7368421052631" y="375" class="label" text-anchor="middle">2026-02-03</text>
  <text x="494.7368421052631" y="35.0" class="label" text-anchor="middle">52</text>
  <circle cx="500.15037593984965" cy="40.0" class="point"/>
  <text x="500.15037593984965" y="375" class="label" text-anchor="middle">2026-02-04</text>
  <text x="500.15037593984965" y="35.0" class="label" text-anchor="middle">52</text>
  <circle cx="505.56390977443607" cy="40.0" class="point"/>
  <text x="505.56390977443607" y="375" class="label" text-anchor="middle">2026-02-05</text>
  <text x="505.56390977443607" y="35.0" class="label" text-anchor="middle">52</text>
  <circle cx="510.97744360902254" cy="40.0" class="point"/>
  <text x="510.97744360902254" y="375" class="label" text-anchor="middle">2026-02-06</text>
  <text x="510.97744360902254" y="35.0" class="label" text-anchor="middle">52</text>
  <circle cx="516.390977443609" cy="40.0" class="point"/>
  <text x="516.390977443609" y="375" class="label" text-anchor="middle">2026-02-07</text>
  <text x="516.390977443609" y="35.0" class="label" text-anchor="middle">52</text>
  <circle cx="521.8045112781955" cy="40.0" class="point"/>
  <text x="521.8045112781955" y="375" class="label" text-anchor="middle">2026-02-08</text>
  <text x="521.8045112781955" y="35.0" class="label" text-anchor="middle">52</text>
  <circle cx="527.218045112782" cy="40.0" class="point"/>
  <text x="527.218045112782" y="375" class="label" text-anchor="middle">2026-02-09</text>
  <text x="527.218045112782" y="35.0" class="label" text-anchor="middle">52</text>
  <circle cx="532.6315789473684" cy="40.0" class="point"/>
  <text x="532.6315789473684" y="375" class="label" text-anchor="middle">2026-02-10</text>
  <text x="532.6315789473684" y="35.0" class="label" text-anchor="middle">52</text>
  <circle cx="538.0451127819549" cy="40.0" class="point"/>
  <text x="538.0451127819549" y="375" class="label" text-anchor="middle">2026-02-11</text>
  <text x="538.0451127819549" y="35.0" class="label" text-anchor="middle">52</text>
  <circle cx="543.4586466165414" cy="40.0" class="point"/>
  <text x="543.4586466165414" y="375" class="label" text-anchor="middle">2026-02-12</text>
  <text x="543.4586466165414" y="35.0" class="label" text-anchor="middle">52</text>
  <circle cx="548.8721804511279" cy="40.0" class="point"/>
  <text x="548.8721804511279" y="375" class="label" text-anchor="middle">2026-02-13</text>
  <text x="548.8721804511279" y="35.0" class="label" text-anchor="middle">52</text>
  <circle cx="554.2857142857143" cy="40.0" class="point"/>
  <text x="554.2857142857143" y="375" class="label" text-anchor="middle">2026-02-14</text>
  <text x="554.2857142857143" y="35.0" class="label" text-anchor="middle">52</text>
  <circle cx="559.6992481203007" cy="40.0" class="point"/>
  <text x="559.6992481203007" y="375" class="label" text-anchor="middle">2026-02-15</text>
  <text x="559.6992481203007" y="35.0" class="label" text-anchor="middle">52</text>
  <circle cx="565.1127819548873" cy="40.0" class="point"/>
  <text x="565.1127819548873" y="375" class="label" text-anchor="middle">2026-02-16</text>
  <text x="565.1127819548873" y="35.0" class="label" text-anchor="middle">52</text>
  <circle cx="570.5263157894736" cy="40.0" class="point"/>
  <text x="570.5263157894736" y="375" class="label" text-anchor="middle">2026-02-17</text>
  <text x="570.5263157894736" y="35.0" class="label" text-anchor="middle">52</text>
  <circle cx="575.9398496240601" cy="40.0" class="point"/>
  <text x="575.9398496240601" y="375" class="label" text-anchor="middle">2026-02-18</text>
  <text x="575.9398496240601" y="35.0" class="label" text-anchor="middle">52</text>
  <circle cx="581.3533834586466" cy="40.0" class="point"/>
  <text x="581.3533834586466" y="375" class="label" text-anchor="middle">2026-02-19</text>
  <text x="581.3533834586466" y="35.0" class="label" text-anchor="middle">52</text>
  <circle cx="586.7669172932331" cy="40.0" class="point"/>
  <text x="586.7669172932331" y="375" class="label" text-anchor="middle">2026-02-20</text>
  <text x="586.7669172932331" y="35.0" class="label" text-anchor="middle">52</text>
  <circle cx="592.1804511278195" cy="40.0" class="point"/>
  <text x="592.1804511278195" y="375" class="label" text-anchor="middle">2026-02-21</text>
  <text x="592.1804511278195" y="35.0" class="label" text-anchor="middle">52</text>
  <circle cx="597.593984962406" cy="40.0" class="point"/>
  <text x="597.593984962406" y="375" class="label" text-anchor="middle">2026-02-22</text>
  <text x="597.593984962406" y="35.0" class="label" text-anchor="middle">52</text>
  <circle cx="603.0075187969925" cy="40.0" class="point"/>
  <text x="603.0075187969925" y="375" class="label" text-anchor="middle">2026-02-23</text>
  <text x="603.0075187969925" y="35.0" class="label" text-anchor="middle">52</text>
  <circle cx="608.421052631579" cy="40.0" class="point"/>
  <text x="608.421052631579" y="375" class="label" text-anchor="middle">2026-02-24</text>
  <text x="608.421052631579" y="35.0" class="label" text-anchor="middle">52</text>
  <circle cx="613.8345864661654" cy="40.0" class="point"/>
  <text x="613.8345864661654" y="375" class="label" text-anchor="middle">2026-02-25</text>
  <text x="613.8345864661654" y="35.0" class="label" text-anchor="middle">52</text>
  <circle cx="619.2481203007519" cy="40.0" class="point"/>
  <text x="619.2481203007519" y="375" class="label" text-anchor="middle">2026-02-26</text>
  <text x="619.2481203007519" y="35.0" class="label" text-anchor="middle">52</text>
  <circle cx="624.6616541353383" cy="40.0" class="point"/>
  <text x="624.6616541353383" y="375" class="label" text-anchor="middle">2026-02-27</text>
  <text x="624.6616541353383" y="35.0" class="label" text-anchor="middle">52</text>
  <circle cx="630.0751879699249" cy="40.0" class="point"/>
  <text x="630.0751879699249" y="375" class="label" text-anchor="middle">2026-02-28</text>
  <text x="630.0751879699249" y="35.0" class="label" text-anchor="middle">52</text>
  <circle cx="635.4887218045112" cy="40.0" class="point"/>
  <text x="635.4887218045112" y="375" class="label" text-anchor="middle">2026-03-01</text>
  <text x="635.4887218045112" y="35.0" class="label" text-anchor="middle">52</text>
  <circle cx="640.9022556390978" cy="40.0" class="point"/>
  <text x="640.9022556390978" y="375" class="label" text-anchor="middle">2026-03-02</text>
  <text x="640.9022556390978" y="35.0" class="label" text-anchor="middle">52</text>
  <circle cx="646.3157894736842" cy="40.0" class="point"/>
  <text x="646.3157894736842" y="375" class="label" text-anchor="middle">2026-03-03</text>
  <text x="646.3157894736842" y="35.0" class="label" text-anchor="middle">52</text>
  <circle cx="651.7293233082706" cy="40.0" class="point"/>
  <text x="651.7293233082706" y="375" class="label" text-anchor="middle">2026-03-04</text>
  <text x="651.7293233082706" y="35.0" class="label" text-anchor="middle">52</text>
  <circle cx="657.1428571428571" cy="40.0" class="point"/>
  <text x="657.1428571428571" y="375" class="label" text-anchor="middle">2026-03-05</text>
  <text x="657.1428571428571" y="35.0" class="label" text-anchor="middle">52</text>
  <circle cx="662.5563909774436" cy="40.0" class="point"/>
  <text x="662.5563909774436" y="375" class="label" text-anchor="middle">2026-03-06</text>
  <text x="662.5563909774436" y="35.0" class="label" text-anchor="middle">52</text>
  <circle cx="667.9699248120301" cy="40.0" class="point"/>
  <text x="667.9699248120301" y="375" class="label" text-anchor="middle">2026-03-07</text>
  <text x="667.9699248120301" y="35.0" class="label" text-anchor="middle">52</text>
  <circle cx="673.3834586466165" cy="40.0" class="point"/>
  <text x="673.3834586466165" y="375" class="label" text-anchor="middle">2026-03-08</text>
  <text x="673.3834586466165" y="35.0" class="label" text-anchor="middle">52</text>
  <circle cx="678.796992481203" cy="40.0" class="point"/>
  <text x="678.796992481203" y="375" class="label" text-anchor="middle">2026-03-09</text>
  <text x="678.796992481203" y="35.0" class="label" text-anchor="middle">52</text>
  <circle cx="684.2105263157895" cy="40.0" class="point"/>
  <text x="684.2105263157895" y="375" class="label" text-anchor="middle">2026-03-10</text>
  <text x="684.2105263157895" y="35.0" class="label" text-anchor="middle">52</text>
  <circle cx="689.624060150376" cy="40.0" class="point"/>
  <text x="689.624060150376" y="375" class="label" text-anchor="middle">2026-03-11</text>
  <text x="689.624060150376" y="35.0" class="label" text-anchor="middle">52</text>
  <circle cx="695.0375939849624" cy="40.0" class="point"/>
  <text x="695.0375939849624" y="375" class="label" text-anchor="middle">2026-03-12</text>
  <text x="695.0375939849624" y="35.0" class="label" text-anchor="middle">52</text>
  <circle cx="700.4511278195488" cy="40.0" class="point"/>
  <text x="700.4511278195488" y="375" class="label" text-anchor="middle">2026-03-13</text>
  <text x="700.4511278195488" y="35.0" class="label" text-anchor="middle">52</text>
  <circle cx="705.8646616541354" cy="40.0" class="point"/>
  <text x="705.8646616541354" y="375" class="label" text-anchor="middle">2026-03-14</text>
  <text x="705.8646616541354" y="35.0" class="label" text-anchor="middle">52</text>
  <circle cx="711.2781954887217" cy="40.0" class="point"/>
  <text x="711.2781954887217" y="375" class="label" text-anchor="middle">2026-03-15</text>
  <text x="711.2781954887217" y="35.0" class="label" text-anchor="middle">52</text>
  <circle cx="716.6917293233083" cy="40.0" class="point"/>
  <text x="716.6917293233083" y="375" class="label" text-anchor="middle">2026-03-16</text>
  <text x="716.6917293233083" y="35.0" class="label" text-anchor="middle">52</text>
  <circle cx="722.1052631578947" cy="40.0" class="point"/>
  <text x="722.1052631578947" y="375" class="label" text-anchor="middle">2026-03-17</text>
  <text x="722.1052631578947" y="35.0" class="label" text-anchor="middle">52</text>
  <circle cx="727.5187969924812" cy="40.0" class="point"/>
  <text x="727.5187969924812" y="375" class="label" text-anchor="middle">2026-03-18</text>
  <text x="727.5187969924812" y="35.0" class="label" text-anchor="middle">52</text>
  <circle cx="732.9323308270676" cy="40.0" class="point"/>
  <text x="732.9323308270676" y="375" class="label" text-anchor="middle">2026-03-19</text>
  <text x="732.9323308270676" y="35.0" class="label" text-anchor="middle">52</text>
  <circle cx="738.3458646616541" cy="40.0" class="point"/>
  <text x="738.3458646616541" y="375" class="label" text-anchor="middle">2026-03-20</text>
  <text x="738.3458646616541" y="35.0" class="label" text-anchor="middle">52</text>
  <circle cx="743.7593984962406" cy="40.0" class="point"/>
  <text x="743.7593984962406" y="375" class="label" text-anchor="middle">2026-03-21</text>
  <text x="743.7593984962406" y="35.0" class="label" text-anchor="middle">52</text>
  <circle cx="749.172932330827" cy="40.0" class="point"/>
  <text x="749.172932330827" y="375" class="label" text-anchor="middle">2026-03-22</text>
  <text x="749.172932330827" y="35.0" class="label" text-anchor="middle">52</text>
  <circle cx="754.5864661654135" cy="40.0" class="point"/>
  <text x="754.5864661654135" y="375" class="label" text-anchor="middle">2026-03-23</text>
  <text x="754.5864661654135" y="35.0" class="label" text-anchor="middle">52</text>
  <circle cx="760.0" cy="40.0" class="point"/>
  <text x="760.0" y="375" class="label" text-anchor="middle">2026-03-24</text>
  <text x="760.0" y="35.0" class="label" text-anchor="middle">52</text>
  <text x="30" y="363.0" class="label" text-anchor="end">0</text>
  <text x="30" y="301.46153846153845" class="label" text-anchor="end">10</text>
  <text x="30" y="239.9230769230769" class="label" text-anchor="end">20</text>
  <text x="30" y="178.38461538461542" class="label" text-anchor="end">30</text>
  <text x="30" y="116.84615384615384" class="label" text-anchor="end">40</text>
  <text x="30" y="55.30769230769232" class="label" text-anchor="end">50</text>
</svg>