<svg xmlns="http://www.w3.org/2000/svg" width="800" height="400" viewBox="0 0 800 400">
  <style>
    .axis{stroke:#666;stroke-width:1}
    .line{stroke:#4a9;stroke-width:2;fill:none}
    .point{fill:#4a9;r:4}
    .label{font:10px sans-serif;fill:#aaa}
    .title{font:14px sans-serif;fill:#333}
  </style>
  <text x="400" y="20" class="title" text-anchor="middle">OPIC Field Growth Timeline</text>
  <line x1="40" y1="40" x2="40" y2="360" class="axis"/>
  <line x1="40" y1="360" x2="760" y2="360" class="axis"/>
  <path d="M 40.0,101.53846153846155 L 47.659574468085104,101.53846153846155 L 55.31914893617021,101.53846153846155 L 62.97872340425532,101.53846153846155 L 70.63829787234042,101.53846153846155 L 78.29787234042553,101.53846153846155 L 85.95744680851064,101.53846153846155 L 93.61702127659575,101.53846153846155 L 101.27659574468085,101.53846153846155 L 108.93617021276596,101.53846153846155 L 116.59574468085107,101.53846153846155 L 124.25531914893617,101.53846153846155 L 131.91489361702128,101.53846153846155 L 139.5744680851064,101.53846153846155 L 147.2340425531915,101.53846153846155 L 154.8936170212766,101.53846153846155 L 162.5531914893617,101.53846153846155 L 170.2127659574468,101.53846153846155 L 177.87234042553192,101.53846153846155 L 185.531914893617,101.53846153846155 L 193.19148936170214,101.53846153846155 L 200.85106382978722,101.53846153846155 L 208.51063829787233,101.53846153846155 L 216.17021276595744,101.53846153846155 L 223.82978723404253,101.53846153846155 L 231.48936170212767,101.53846153846155 L 239.14893617021278,101.53846153846155 L 246.8085106382979,40.0 L 254.46808510638297,40.0 L 262.1276595744681,40.0 L 269.7872340425532,40.0 L 277.4468085106383,40.0 L 285.1063829787234,40.0 L 292.76595744680856,40.0 L 300.4255319148936,40.0 L 308.0851063829787,40.0 L 315.74468085106383,40.0 L 323.40425531914894,40.0 L 331.063829787234,40.0 L 338.72340425531917,40.0 L 346.3829787234043,40.0 L 354.0425531914894,40.0 L 361.70212765957444,40.0 L 369.36170212765956,40.0 L 377.02127659574467,40.0 L 384.6808510638298,40.0 L 392.3404255319149,40.0 L 400.0,40.0 L 407.65957446808505,40.0 L 415.3191489361702,40.0 L 422.97872340425533,40.0 L 430.6382978723404,40.0 L 438.29787234042556,40.0 L 445.9574468085106,40.0 L 453.6170212765958,40.0 L 461.27659574468083,40.0 L 468.93617021276594,40.0 L 476.5957446808511,40.0 L 484.25531914893617,40.0 L 491.9148936170212,40.0 L 499.5744680851064,40.0 L 507.2340425531915,40.0 L 514.8936170212766,40.0 L 522.5531914893618,40.0 L 530.2127659574468,40.0 L 537.872340425532,40.0 L 545.5319148936171,40.0 L 553.1914893617021,40.0 L 560.8510638297872,40.0 L 568.5106382978723,40.0 L 576.1702127659574,40.0 L 583.8297872340426,40.0 L 591.4893617021277,40.0 L 599.1489361702128,40.0 L 606.8085106382979,40.0 L 614.468085106383,40.0 L 622.127659574468,40.0 L 629.7872340425532,40.0 L 637.4468085106383,40.0 L 645.1063829787234,40.0 L 652.7659574468086,40.0 L 660.4255319148936,40.0 L 668.0851063829788,40.0 L 675.7446808510638,40.0 L 683.4042553191489,40.0 L 691.0638297872341,40.0 L 698.7234042553191,40.0 L 706.3829787234042,40.0 L 714.0425531914893,40.0 L 721.7021276595744,40.0 L 729.3617021276596,40.0 L 737.0212765957447,40.0 L 744.6808510638298,40.0 L 752.3404255319149,40.0 L 760.0,40.0" class="line"/>
  <circle cx="40.0" cy="101.53846153846155" class="point"/>
  <text x="40.0" y="375" class="label" text-anchor="middle">2025-11-11</text>
  <text x="40.0" y="96.53846153846155" class="label" text-anchor="middle">42</text>
  <circle cx="47.659574468085104" cy="101.53846153846155" class="point"/>
  <text x="47.659574468085104" y="375" class="label" text-anchor="middle">2025-11-12</text>
  <text x="47.659574468085104" y="96.53846153846155" class="label" text-anchor="middle">42</text>
  <circle cx="55.31914893617021" cy="101.53846153846155" class="point"/>
  <text x="55.31914893617021" y="375" class="label" text-anchor="middle">2025-11-13</text>
  <text x="55.31914893617021" y="96.53846153846155" class="label" text-anchor="middle">42</text>
  <circle cx="62.97872340425532" cy="101.53846153846155" class="point"/>
  <text x="62.97872340425532" y="375" class="label" text-anchor="middle">2025-11-14</text>
  <text x="62.97872340425532" y="96.53846153846155" class="label" text-anchor="middle">42</text>
  <circle cx="70.63829787234042" cy="101.53846153846155" class="point"/>
  <text x="70.63829787234042" y="375" class="label" text-anchor="middle">2025-11-15</text>
  <text x="70.63829787234042" y="96.53846153846155" class="label" text-anchor="middle">42</text>
  <circle cx="78.29787234042553" cy="101.53846153846155" class="point"/>
  <text x="78.29787234042553" y="375" class="label" text-anchor="middle">2025-11-16</text>
  <text x="78.29787234042553" y="96.53846153846155" class="label" text-anchor="middle">42</text>
  <circle cx="85.95744680851064" cy="101.53846153846155" class="point"/>
  <text x="85.95744680851064" y="375" class="label" text-anchor="middle">2025-11-17</text>
  <text x="85.95744680851064" y="96.53846153846155" class="label" text-anchor="middle">42</text>
  <circle cx="93.61702127659575" cy="101.53846153846155" class="point"/>
  <text x="93.61702127659575" y="375" class="label" text-anchor="middle">2025-11-18</text>
  <text x="93.61702127659575" y="96.53846153846155" class="label" text-anchor="middle">42</text>
  <circle cx="101.27659574468085" cy="101.53846153846155" class="point"/>
  <text x="101.27659574468085" y="375" class="label" text-anchor="middle">2025-11-19</text>
  <text x="101.27659574468085" y="96.53846153846155" class="label" text-anchor="middle">42</text>
  <circle cx="108.93617021276596" cy="101.53846153846155" class="point"/>
  <text x="108.93617021276596" y="375" class="label" text-anchor="middle">2025-11-20</text>
  <text x="108.93617021276596" y="96.53846153846155" class="label" text-anchor="middle">42</text>
  <circle cx="116.59574468085107" cy="101.53846153846155" class="point"/>
  <text x="116.59574468085107" y="375" class="label" text-anchor="middle">2025-11-21</text>
  <text x="116.59574468085107" y="96.53846153846155" class="label" text-anchor="middle">42</text>
  <circle cx="124.25531914893617" cy="101.53846153846155" class="point"/>
  <text x="124.25531914893617" y="375" class="label" text-anchor="middle">2025-11-22</text>
  <text x="124.25531914893617" y="96.53846153846155" class="label" text-anchor="middle">42</text>
  <circle cx="131.91489361702128" cy="101.53846153846155" class="point"/>
  <text x="131.91489361702128" y="375" class="label" text-anchor="middle">2025-11-23</text>
  <text x="131.91489361702128" y="96.53846153846155" class="label" text-anchor="middle">42</text>
  <circle cx="139.5744680851064" cy="101.53846153846155" class="point"/>
  <text x="139.5744680851064" y="375" class="label" text-anchor="middle">2025-11-24</text>
  <text x="139.5744680851064" y="96.53846153846155" class="label" text-anchor="middle">42</text>
  <circle cx="147.2340425531915" cy="101.53846153846155" class="point"/>
  <text x="147.2340425531915" y="375" class="label" text-anchor="middle">2025-11-25</text>
  <text x="147.2340425531915" y="96.53846153846155" class="label" text-anchor="middle">42</text>
  <circle cx="154.8936170212766" cy="101.53846153846155" class="point"/>
  <text x="154.8936170212766" y="375" class="label" text-anchor="middle">2025-11-26</text>
  <text x="154.8936170212766" y="96.53846153846155" class="label" text-anchor="middle">42</text>
  <circle cx="162.5531914893617" cy="101.53846153846155" class="point"/>
  <text x="162.5531914893617" y="375" class="label" text-anchor="middle">2025-11-27</text>
  <text x="162.5531914893617" y="96.53846153846155" class="label" text-anchor="middle">42</text>
  <circle cx="170.2127659574468" cy="101.53846153846155" class="point"/>
  <text x="170.2127659574468" y="375" class="label" text-anchor="middle">2025-11-28</text>
  <text x="170.2127659574468" y="96.53846153846155" class="label" text-anchor="middle">42</text>
  <circle cx="177.87234042553192" cy="101.53846153846155" class="point"/>
  <text x="177.87234042553192" y="375" class="label" text-anchor="middle">2025-11-29</text>
  <text x="177.87234042553192" y="96.53846153846155" class="label" text-anchor="middle">42</text>
  <circle cx="185.531914893617" cy="101.53846153846155" class="point"/>
  <text x="185.531914893617" y="375" class="label" text-anchor="middle">2025-11-30</text>
  <text x="185.531914893617" y="96.53846153846155" class="label" text-anchor="middle">42</text>
  <circle cx="193.19148936170214" cy="101.53846153846155" class="point"/>
  <text x="193.19148936170214" y="375" class="label" text-anchor="middle">2025-12-01</text>
  <text x="193.19148936170214" y="96.53846153846155" class="label" text-anchor="middle">42</text>
  <circle cx="200.85106382978722" cy="101.53846153846155" class="point"/>
  <text x="200.85106382978722" y="375" class="label" text-anchor="middle">2025-12-02</text>
  <text x="200.85106382978722" y="96.53846153846155" class="label" text-anchor="middle">42</text>
  <circle cx="208.51063829787233" cy="101.53846153846155" class="point"/>
  <text x="208.51063829787233" y="375" class="label" text-anchor="middle">2025-12-03</text>
  <text x="208.51063829787233" y="96.53846153846155" class="label" text-anchor="middle">42</text>
  <circle cx="216.17021276595744" cy="101.53846153846155" class="point"/>
  <text x="216.17021276595744" y="375" class="label" text-anchor="middle">2025-12-04</text>
  <text x="216.17021276595744" y="96.53846153846155" class="label" text-anchor="middle">42</text>
  <circle cx="223.82978723404253" cy="101.53846153846155" class="point"/>
  <text x="223.82978723404253" y="375" class="label" text-anchor="middle">2025-12-05</text>
  <text x="223.82978723404253" y="96.53846153846155" class="label" text-anchor="middle">42</text>
  <circle cx="231.48936170212767" cy="101.53846153846155" class="point"/>
  <text x="231.48936170212767" y="375" class="label" text-anchor="middle">2025-12-06</text>
  <text x="231.48936170212767" y="96.53846153846155" class="label" text-anchor="middle">42</text>
  <circle cx="239.14893617021278" cy="101.53846153846155" class="point"/>
  <text x="239.14893617021278" y="375" class="label" text-anchor="middle">2025-12-07</text>
  <text x="239.14893617021278" y="96.53846153846155" class="label" text-anchor="middle">42</text>
  <circle cx="246.8085106382979" cy="40.0" class="point"/>
  <text x="246.8085106382979" y="375" class="label" text-anchor="middle">2025-12-08</text>
  <text x="246.8085106382979" y="35.0" class="label" text-anchor="middle">52</text>
  <circle cx="254.46808510638297" cy="40.0" class="point"/>
  <text x="254.46808510638297" y="375" class="label" text-anchor="middle">2025-12-09</text>
  <text x="254.46808510638297" y="35.0" class="label" text-anchor="middle">52</text>
  <circle cx="262.1276595744681" cy="40.0" class="point"/>
  <text x="262.1276595744681" y="375" class="label" text-anchor="middle">2025-12-10</text>
  <text x="262.1276595744681" y="35.0" class="label" text-anchor="middle">52</text>
  <circle cx="269.7872340425532" cy="40.0" class="point"/>
  <text x="269.7872340425532" y="375" class="label" text-anchor="middle">2025-12-11</text>
  <text x="269.7872340425532" y="35.0" class="label" text-anchor="middle">52</text>
  <circle cx="277.4468085106383" cy="40.0" class="point"/>
  <text x="277.4468085106383" y="375" class="label" text-anchor="middle">2025-12-12</text>
  <text x="277.4468085106383" y="35.0" class="label" text-anchor="middle">52</text>
  <circle cx="285.1063829787234" cy="40.0" class="point"/>
  <text x="285.1063829787234" y="375" class="label" text-anchor="middle">2025-12-13</text>
  <text x="285.1063829787234" y="35.0" class="label" text-anchor="middle">52</text>
  <circle cx="292.76595744680856" cy="40.0" class="point"/>
  <text x="292.76595744680856" y="375" class="label" text-anchor="middle">2025-12-14</text>
  <text x="292.76595744680856" y="35.0" class="label" text-anchor="middle">52</text>
  <circle cx="300.4255319148936" cy="40.0" class="point"/>
  <text x="300.4255319148936" y="375" class="label" text-anchor="middle">2025-12-15</text>
  <text x="300.4255319148936" y="35.0" class="label" text-anchor="middle">52</text>
  <circle cx="308.0851063829787" cy="40.0" class="point"/>
  <text x="308.0851063829787" y="375" class="label" text-anchor="middle">2025-12-16</text>
  <text x="308.0851063829787" y="35.0" class="label" text-anchor="middle">52</text>
  <circle cx="315.74468085106383" cy="40.0" class="point"/>
  <text x="315.74468085106383" y="375" class="label" text-anchor="middle">2025-12-17</text>
  <text x="315.74468085106383" y="35.0" class="label" text-anchor="middle">52</text>
  <circle cx="323.40425531914894" cy="40.0" class="point"/>
  <text x="323.40425531914894" y="375" class="label" text-anchor="middle">2025-12-18</text>
  <text x="323.40425531914894" y="35.0" class="label" text-anchor="middle">52</text>
  <circle cx="331.063829787234" cy="40.0" class="point"/>
  <text x="331.063829787234" y="375" class="label" text-anchor="middle">2025-12-19</text>
  <text x="331.063829787234" y="35.0" class="label" text-anchor="middle">52</text>
  <circle cx="338.72340425531917" cy="40.0" class="point"/>
  <text x="338.72340425531917" y="375" class="label" text-anchor="middle">2025-12-20</text>
  <text x="338.72340425531917" y="35.0" class="label" text-anchor="middle">52</text>
  <circle cx="346.3829787234043" cy="40.0" class="point"/>
  <text x="346.3829787234043" y="375" class="label" text-anchor="middle">2025-12-21</text>
  <text x="346.3829787234043" y="35.0" class="label" text-anchor="middle">52</text>
  <circle cx="354.0425531914894" cy="40.0" class="point"/>
  <text x="354.0425531914894" y="375" class="label" text-anchor="middle">2025-12-22</text>
  <text x="354.0425531914894" y="35.0" class="label" text-anchor="middle">52</text>
  <circle cx="361.70212765957444" cy="40.0" class="point"/>
  <text x="361.70212765957444" y="375" class="label" text-anchor="middle">2025-12-23</text>
  <text x="361.70212765957444" y="35.0" class="label" text-anchor="middle">52</text>
  <circle cx="369.36170212765956" cy="40.0" class="point"/>
  <text x="369.36170212765956" y="375" class="label" text-anchor="middle">2025-12-24</text>
  <text x="369.36170212765956" y="35.0" class="label" text-anchor="middle">52</text>
  <circle cx="377.02127659574467" cy="40.0" class="point"/>
  <text x="377.02127659574467" y="375" class="label" text-anchor="middle">2025-12-25</text>
  <text x="377.02127659574467" y="35.0" class="label" text-anchor="middle">52</text>
  <circle cx="384.6808510638298" cy="40.0" class="point"/>
  <text x="384.6808510638298" y="375" class="label" text-anchor="middle">2025-12-26</text>
  <text x="384.6808510638298" y="35.0" class="label" text-anchor="middle">52</text>
  <circle cx="392.3404255319149" cy="40.0" class="point"/>
  <text x="392.3404255319149" y="375" class="label" text-anchor="middle">2025-12-27</text>
  <text x="392.3404255319149" y="35.0" class="label" text-anchor="middle">52</text>
  <circle cx="400.0" cy="40.0" class="point"/>
  <text x="400.0" y="375" class="label" text-anchor="middle">2025-12-28</text>
  <text x="400.0" y="35.0" class="label" text-anchor="middle">52</text>
  <circle cx="407.65957446808505" cy="40.0" class="point"/>
  <text x="407.65957446808505" y="375" class="label" text-anchor="middle">2025-12-29</text>
  <text x="407.65957446808505" y="35.0" class="label" text-anchor="middle">52</text>
  <circle cx="415.3191489361702" cy="40.0" class="point"/>
  <text x="415.3191489361702" y="375" class="label" text-anchor="middle">2025-12-30</text>
  <text x="415.3191489361702" y="35.0" class="label" text-anchor="middle">52</text>
  <circle cx="422.97872340425533" cy="40.0" class="point"/>
  <text x="422.97872340425533" y="375" class="label" text-anchor="middle">2025-12-31</text>
  <text x="422.97872340425533" y="35.0" class="label" text-anchor="middle">52</text>
  <circle cx="430.6382978723404" cy="40.0" class="point"/>
  <text x="430.6382978723404" y="375" class="label" text-anchor="middle">2026-01-01</text>
  <text x="430.6382978723404" y="35.0" class="label" text-anchor="middle">52</text>
  <circle cx="438.29787234042556" cy="40.0" class="point"/>
  <text x="438.29787234042556" y="375" class="label" text-anchor="middle">2026-01-02</text>
  <text x="438.29787234042556" y="35.0" class="label" text-anchor="middle">52</text>
  <circle cx="445.9574468085106" cy="40.0" class="point"/>
  <text x="445.9574468085106" y="375" class="label" text-anchor="middle">2026-01-03</text>
  <text x="445.9574468085106" y="35.0" class="label" text-anchor="middle">52</text>
  <circle cx="453.6170212765958" cy="40.0" class="point"/>
  <text x="453.6170212765958" y="375" class="label" text-anchor="middle">2026-01-04</text>
  <text x="453.6170212765958" y="35.0" class="label" text-anchor="middle">52</text>
  <circle cx="461.27659574468083" cy="40.0" class="point"/>
  <text x="461.27659574468083" y="375" class="label" text-anchor="middle">2026-01-05</text>
  <text x="461.27659574468083" y="35.0" class="label" text-anchor="middle">52</text>
  <circle cx="468.93617021276594" cy="40.0" class="point"/>
  <text x="468.93617021276594" y="375" class="label" text-anchor="middle">2026-01-06</text>
  <text x="468.93617021276594" y="35.0" class="label" text-anchor="middle">52</text>
  <circle cx="476.5957446808511" cy="40.0" class="point"/>
  <text x="476.5957446808511" y="375" class="label" text-anchor="middle">2026-01-07</text>
  <text x="476.5957446808511" y="35.0" class="label" text-anchor="middle">52</text>
  <circle cx="484.25531914893617" cy="40.0" class="point"/>
  <text x="484.25531914893617" y="375" class="label" text-anchor="middle">2026-01-08</text>
  <text x="484.25531914893617" y="35.0" class="label" text-anchor="middle">52</text>
  <circle cx="491.9148936170212" cy="40.0" class="point"/>
  <text x="491.9148936170212" y="375" class="label" text-anchor="middle">2026-01-09</text>
  <text x="491.9148936170212" y="35.0" class="label" text-anchor="middle">52</text>
  <circle cx="499.5744680851064" cy="40.0" class="point"/>
  <text x="499.5744680851064" y="375" class="label" text-anchor="middle">2026-01-10</text>
  <text x="499.5744680851064" y="35.0" class="label" text-anchor="middle">52</text>
  <circle cx="507.2340425531915" cy="40.0" class="point"/>
  <text x="507.2340425531915" y="375" class="label" text-anchor="middle">2026-01-11</text>
  <text x="507.2340425531915" y="35.0" class="label" text-anchor="middle">52</text>
  <circle cx="514.8936170212766" cy="40.0" class="point"/>
  <text x="514.8936170212766" y="375" class="label" text-anchor="middle">2026-01-12</text>
  <text x="514.8936170212766" y="35.0" class="label" text-anchor="middle">52</text>
  <circle cx="522.5531914893618" cy="40.0" class="point"/>
  <text x="522.5531914893618" y="375" class="label" text-anchor="middle">2026-01-13</text>
  <text x="522.5531914893618" y="35.0" class="label" text-anchor="middle">52</text>
  <circle cx="530.2127659574468" cy="40.0" class="point"/>
  <text x="530.2127659574468" y="375" class="label" text-anchor="middle">2026-01-14</text>
  <text x="530.2127659574468" y="35.0" class="label" text-anchor="middle">52</text>
  <circle cx="537.872340425532" cy="40.0" class="point"/>
  <text x="537.872340425532" y="375" class="label" text-anchor="middle">2026-01-15</text>
  <text x="537.872340425532" y="35.0" class="label" text-anchor="middle">52</text>
  <circle cx="545.5319148936171" cy="40.0" class="point"/>
  <text x="545.5319148936171" y="375" class="label" text-anchor="middle">2026-01-16</text>
  <text x="545.5319148936171" y="35.0" class="label" text-anchor="middle">52</text>
  <circle cx="553.1914893617021" cy="40.0" class="point"/>
  <text x="553.1914893617021" y="375" class="label" text-anchor="middle">2026-01-17</text>
  <text x="553.1914893617021" y="35.0" class="label" text-anchor="middle">52</text>
  <circle cx="560.8510638297872" cy="40.0" class="point"/>
  <text x="560.8510638297872" y="375" class="label" text-anchor="middle">2026-01-18</text>
  <text x="560.8510638297872" y="35.0" class="label" text-anchor="middle">52</text>
  <circle cx="568.5106382978723" cy="40.0" class="point"/>
  <text x="568.5106382978723" y="375" class="label" text-anchor="middle">2026-01-19</text>
  <text x="568.5106382978723" y="35.0" class="label" text-anchor="middle">52</text>
  <circle cx="576.1702127659574" cy="40.0" class="point"/>
  <text x="576.1702127659574" y="375" class="label" text-anchor="middle">2026-01-20</text>
  <text x="576.1702127659574" y="35.0" class="label" text-anchor="middle">52</text>
  <circle cx="583.8297872340426" cy="40.0" class="point"/>
  <text x="583.8297872340426" y="375" class="label" text-anchor="middle">2026-01-21</text>
  <text x="583.8297872340426" y="35.0" class="label" text-anchor="middle">52</text>
  <circle cx="591.4893617021277" cy="40.0" class="point"/>
  <text x="591.4893617021277" y="375" class="label" text-anchor="middle">2026-01-22</text>
  <text x="591.4893617021277" y="35.0" class="label" text-anchor="middle">52</text>
  <circle cx="599.1489361702128" cy="40.0" class="point"/>
  <text x="599.1489361702128" y="375" class="label" text-anchor="middle">2026-01-23</text>
  <text x="599.1489361702128" y="35.0" class="label" text-anchor="middle">52</text>
  <circle cx="606.8085106382979" cy="40.0" class="point"/>
  <text x="606.8085106382979" y="375" class="label" text-anchor="middle">2026-01-24</text>
  <text x="606.8085106382979" y="35.0" class="label" text-anchor="middle">52</text>
  <circle cx="614.468085106383" cy="40.0" class="point"/>
  <text x="614.468085106383" y="375" class="label" text-anchor="middle">2026-01-25</text>
  <text x="614.468085106383" y="35.0" class="label" text-anchor="middle">52</text>
  <circle cx="622.127659574468" cy="40.0" class="point"/>
  <text x="622.127659574468" y="375" class="label" text-anchor="middle">2026-01-26</text>
  <text x="622.127659574468" y="35.0" class="label" text-anchor="middle">52</text>
  <circle cx="629.7872340425532" cy="40.0" class="point"/>
  <text x="629.7872340425532" y="375" class="label" text-anchor="middle">2026-01-27</text>
  <text x="629.7872340425532" y="35.0" class="label" text-anchor="middle">52</text>
  <circle cx="637.4468085106383" cy="40.0" class="point"/>
  <text x="637.4468085106383" y="375" class="label" text-anchor="middle">2026-01-28</text>
  <text x="637.4468085106383" y="35.0" class="label" text-anchor="middle">52</text>
  <circle cx="645.1063829787234" cy="40.0" class="point"/>
  <text x="645.1063829787234" y="375" class="label" text-anchor="middle">2026-01-29</text>
  <text x="645.1063829787234" y="35.0" class="label" text-anchor="middle">52</text>
  <circle cx="652.7659574468086" cy="40.0" class="point"/>
  <text x="652.7659574468086" y="375" class="label" text-anchor="middle">2026-01-30</text>
  <text x="652.7659574468086" y="35.0" class="label" text-anchor="middle">52</text>
  <circle cx="660.4255319148936" cy="40.0" class="point"/>
  <text x="660.4255319148936" y="375" class="label" text-anchor="middle">2026-01-31</text>
  <text x="660.4255319148936" y="35.0" class="label" text-anchor="middle">52</text>
  <circle cx="668.0851063829788" cy="40.0" class="point"/>
  <text x="668.0851063829788" y="375" class="label" text-anchor="middle">2026-02-01</text>
  <text x="668.0851063829788" y="35.0" class="label" text-anchor="middle">52</text>
  <circle cx="675.7446808510638" cy="40.0" class="point"/>
  <text x="675.7446808510638" y="375" class="label" text-anchor="middle">2026-02-02</text>
  <text x="675.7446808510638" y="35.0" class="label" text-anchor="middle">52</text>
  <circle cx="683.4042553191489" cy="40.0" class="point"/>
  <text x="683.4042553191489" y="375" class="label" text-anchor="middle">2026-02-03</text>
  <text x="683.4042553191489" y="35.0" class="label" text-anchor="middle">52</text>
  <circle cx="691.0638297872341" cy="40.0" class="point"/>
  <text x="691.0638297872341" y="375" class="label" text-anchor="middle">2026-02-04</text>
  <text x="691.0638297872341" y="35.0" class="label" text-anchor="middle">52</text>
  <circle cx="698.7234042553191" cy="40.0" class="point"/>
  <text x="698.7234042553191" y="375" class="label" text-anchor="middle">2026-02-05</text>
  <text x="698.7234042553191" y="35.0" class="label" text-anchor="middle">52</text>
  <circle cx="706.3829787234042" cy="40.0" class="point"/>
  <text x="706.3829787234042" y="375" class="label" text-anchor="middle">2026-02-06</text>
  <text x="706.3829787234042" y="35.0" class="label" text-anchor="middle">52</text>
  <circle cx="714.0425531914893" cy="40.0" class="point"/>
  <text x="714.0425531914893" y="375" class="label" text-anchor="middle">2026-02-07</text>
  <text x="714.0425531914893" y="35.0" class="label" text-anchor="middle">52</text>
  <circle cx="721.7021276595744" cy="40.0" class="point"/>
  <text x="721.7021276595744" y="375" class="label" text-anchor="middle">2026-02-08</text>
  <text x="721.7021276595744" y="35.0" class="label" text-anchor="middle">52</text>
  <circle cx="729.3617021276596" cy="40.0" class="point"/>
  <text x="729.3617021276596" y="375" class="label" text-anchor="middle">2026-02-09</text>
  <text x="729.3617021276596" y="35.0" class="label" text-anchor="middle">52</text>
  <circle cx="737.0212765957447" cy="40.0" class="point"/>
  <text x="737.0212765957447" y="375" class="label" text-anchor="middle">2026-02-10</text>
  <text x="737.0212765957447" y="35.0" class="label" text-anchor="middle">52</text>
  <circle cx="744.6808510638298" cy="40.0" class="point"/>
  <text x="744.6808510638298" y="375" class="label" text-anchor="middle">2026-02-11</text>
  <text x="744.6808510638298" y="35.0" class="label" text-anchor="middle">52</text>
  <circle cx="752.3404255319149" cy="40.0" class="point"/>
  <text x="752.3404255319149" y="375" class="label" text-anchor="middle">2026-02-12</text>
  <text x="752.3404255319149" y="35.0" class="label" text-anchor="middle">52</text>
  <circle cx="760.0" cy="40.0" class="point"/>
  <text x="760.0" y="375" class="label" text-anchor="middle">2026-02-13</text>
  <text x="760.0" y="35.0" class="label" text-anchor="middle">52</text>
  <text x="30" y="363.0" class="label" text-anchor="end">0</text>
  <text x="30" y="301.46153846153845" class="label" text-anchor="end">10</text>
  <text x="30" y="239.9230769230769" class="label" text-anchor="end">20</text>
  <text x="30" y="178.38461538461542" class="label" text-anchor="end">30</text>
  <text x="30" y="116.84615384615384" class="label" text-anchor="end">40</text>
  <text x="30" y="55.30769230769232" class="label" text-anchor="end">50</text>
</svg>