<svg xmlns="http://www.w3.org/2000/svg" width="800" height="400" viewBox="0 0 800 400">
  <style>
    .axis{stroke:#666;stroke-width:1}
    .line{stroke:#4a9;stroke-width:2;fill:none}
    .point{fill:#4a9;r:4}
    .label{font:10px sans-serif;fill:#aaa}
    .title{font:14px sans-serif;fill:#333}
  </style>
  <text x="400" y="20" class="title" text-anchor="middle">OPIC Field Growth Timeline</text>
  <line x1="40" y1="40" x2="40" y2="360" class="axis"/>
  <line x1="40" y1="360" x2="760" y2="360" class="axis"/>
  <path d="M 40.0,40.0 L 67.6923076923077,40.0 L 95.38461538461539,40.0 L 123.07692307692308,40.0 L 150.76923076923077,40.0 L 178.46153846153848,40.0 L 206.15384615384616,40.0 L 233.84615384615384,40.0 L 261.53846153846155,40.0 L 289.2307692307692,40.0 L 316.92307692307696,40.0 L 344.6153846153846,40.0 L 372.3076923076923,40.0 L 400.0,40.0 L 427.6923076923077,40.0 L 455.38461538461536,40.0 L 483.0769230769231,40.0 L 510.7692307692308,40.0 L 538.4615384615385,40.0 L 566.1538461538461,40.0 L 593.8461538461539,40.0 L 621.5384615384615,40.0 L 649.2307692307692,40.0 L 676.9230769230769,40.0 L 704.6153846153846,40.0 L 732.3076923076924,40.0 L 760.0,40.0" class="line"/>
  <circle cx="40.0" cy="40.0" class="point"/>
  <text x="40.0" y="375" class="label" text-anchor="middle">2025-11-11</text>
  <text x="40.0" y="35.0" class="label" text-anchor="middle">42</text>
  <circle cx="67.6923076923077" cy="40.0" class="point"/>
  <text x="67.6923076923077" y="375" class="label" text-anchor="middle">2025-11-12</text>
  <text x="67.6923076923077" y="35.0" class="label" text-anchor="middle">42</text>
  <circle cx="95.38461538461539" cy="40.0" class="point"/>
  <text x="95.38461538461539" y="375" class="label" text-anchor="middle">2025-11-13</text>
  <text x="95.38461538461539" y="35.0" class="label" text-anchor="middle">42</text>
  <circle cx="123.07692307692308" cy="40.0" class="point"/>
  <text x="123.07692307692308" y="375" class="label" text-anchor="middle">2025-11-14</text>
  <text x="123.07692307692308" y="35.0" class="label" text-anchor="middle">42</text>
  <circle cx="150.76923076923077" cy="40.0" class="point"/>
  <text x="150.76923076923077" y="375" class="label" text-anchor="middle">2025-11-15</text>
  <text x="150.76923076923077" y="35.0" class="label" text-anchor="middle">42</text>
  <circle cx="178.46153846153848" cy="40.0" class="point"/>
  <text x="178.46153846153848" y="375" class="label" text-anchor="middle">2025-11-16</text>
  <text x="178.46153846153848" y="35.0" class="label" text-anchor="middle">42</text>
  <circle cx="206.15384615384616" cy="40.0" class="point"/>
  <text x="206.15384615384616" y="375" class="label" text-anchor="middle">2025-11-17</text>
  <text x="206.15384615384616" y="35.0" class="label" text-anchor="middle">42</text>
  <circle cx="233.84615384615384" cy="40.0" class="point"/>
  <text x="233.84615384615384" y="375" class="label" text-anchor="middle">2025-11-18</text>
  <text x="233.84615384615384" y="35.0" class="label" text-anchor="middle">42</text>
  <circle cx="261.53846153846155" cy="40.0" class="point"/>
  <text x="261.53846153846155" y="375" class="label" text-anchor="middle">2025-11-19</text>
  <text x="261.53846153846155" y="35.0" class="label" text-anchor="middle">42</text>
  <circle cx="289.2307692307692" cy="40.0" class="point"/>
  <text x="289.2307692307692" y="375" class="label" text-anchor="middle">2025-11-20</text>
  <text x="289.2307692307692" y="35.0" class="label" text-anchor="middle">42</text>
  <circle cx="316.92307692307696" cy="40.0" class="point"/>
  <text x="316.92307692307696" y="375" class="label" text-anchor="middle">2025-11-21</text>
  <text x="316.92307692307696" y="35.0" class="label" text-anchor="middle">42</text>
  <circle cx="344.6153846153846" cy="40.0" class="point"/>
  <text x="344.6153846153846" y="375" class="label" text-anchor="middle">2025-11-22</text>
  <text x="344.6153846153846" y="35.0" class="label" text-anchor="middle">42</text>
  <circle cx="372.3076923076923" cy="40.0" class="point"/>
  <text x="372.3076923076923" y="375" class="label" text-anchor="middle">2025-11-23</text>
  <text x="372.3076923076923" y="35.0" class="label" text-anchor="middle">42</text>
  <circle cx="400.0" cy="40.0" class="point"/>
  <text x="400.0" y="375" class="label" text-anchor="middle">2025-11-24</text>
  <text x="400.0" y="35.0" class="label" text-anchor="middle">42</text>
  <circle cx="427.6923076923077" cy="40.0" class="point"/>
  <text x="427.6923076923077" y="375" class="label" text-anchor="middle">2025-11-25</text>
  <text x="427.6923076923077" y="35.0" class="label" text-anchor="middle">42</text>
  <circle cx="455.38461538461536" cy="40.0" class="point"/>
  <text x="455.38461538461536" y="375" class="label" text-anchor="middle">2025-11-26</text>
  <text x="455.38461538461536" y="35.0" class="label" text-anchor="middle">42</text>
  <circle cx="483.0769230769231" cy="40.0" class="point"/>
  <text x="483.0769230769231" y="375" class="label" text-anchor="middle">2025-11-27</text>
  <text x="483.0769230769231" y="35.0" class="label" text-anchor="middle">42</text>
  <circle cx="510.7692307692308" cy="40.0" class="point"/>
  <text x="510.7692307692308" y="375" class="label" text-anchor="middle">2025-11-28</text>
  <text x="510.7692307692308" y="35.0" class="label" text-anchor="middle">42</text>
  <circle cx="538.4615384615385" cy="40.0" class="point"/>
  <text x="538.4615384615385" y="375" class="label" text-anchor="middle">2025-11-29</text>
  <text x="538.4615384615385" y="35.0" class="label" text-anchor="middle">42</text>
  <circle cx="566.1538461538461" cy="40.0" class="point"/>
  <text x="566.1538461538461" y="375" class="label" text-anchor="middle">2025-11-30</text>
  <text x="566.1538461538461" y="35.0" class="label" text-anchor="middle">42</text>
  <circle cx="593.8461538461539" cy="40.0" class="point"/>
  <text x="593.8461538461539" y="375" class="label" text-anchor="middle">2025-12-01</text>
  <text x="593.8461538461539" y="35.0" class="label" text-anchor="middle">42</text>
  <circle cx="621.5384615384615" cy="40.0" class="point"/>
  <text x="621.5384615384615" y="375" class="label" text-anchor="middle">2025-12-02</text>
  <text x="621.5384615384615" y="35.0" class="label" text-anchor="middle">42</text>
  <circle cx="649.2307692307692" cy="40.0" class="point"/>
  <text x="649.2307692307692" y="375" class="label" text-anchor="middle">2025-12-03</text>
  <text x="649.2307692307692" y="35.0" class="label" text-anchor="middle">42</text>
  <circle cx="676.9230769230769" cy="40.0" class="point"/>
  <text x="676.9230769230769" y="375" class="label" text-anchor="middle">2025-12-04</text>
  <text x="676.9230769230769" y="35.0" class="label" text-anchor="middle">42</text>
  <circle cx="704.6153846153846" cy="40.0" class="point"/>
  <text x="704.6153846153846" y="375" class="label" text-anchor="middle">2025-12-05</text>
  <text x="704.6153846153846" y="35.0" class="label" text-anchor="middle">42</text>
  <circle cx="732.3076923076924" cy="40.0" class="point"/>
  <text x="732.3076923076924" y="375" class="label" text-anchor="middle">2025-12-06</text>
  <text x="732.3076923076924" y="35.0" class="label" text-anchor="middle">42</text>
  <circle cx="760.0" cy="40.0" class="point"/>
  <text x="760.0" y="375" class="label" text-anchor="middle">2025-12-07</text>
  <text x="760.0" y="35.0" class="label" text-anchor="middle">42</text>
  <text x="30" y="363.0" class="label" text-anchor="end">0</text>
  <text x="30" y="302.04761904761904" class="label" text-anchor="end">8</text>
  <text x="30" y="241.0952380952381" class="label" text-anchor="end">16</text>
  <text x="30" y="180.14285714285717" class="label" text-anchor="end">24</text>
  <text x="30" y="119.1904761904762" class="label" text-anchor="end">32</text>
  <text x="30" y="58.23809523809524" class="label" text-anchor="end">40</text>
</svg>