<svg xmlns="http://www.w3.org/2000/svg" width="800" height="400" viewBox="0 0 800 400">
  <style>
    .axis{stroke:#666;stroke-width:1}
    .line{stroke:#4a9;stroke-width:2;fill:none}
    .point{fill:#4a9;r:4}
    .label{font:10px sans-serif;fill:#aaa}
    .title{font:14px sans-serif;fill:#333}
  </style>
  <text x="400" y="20" class="title" text-anchor="middle">OPIC Field Growth Timeline</text>
  <line x1="40" y1="40" x2="40" y2="360" class="axis"/>
  <line x1="40" y1="360" x2="760" y2="360" class="axis"/>
  <path d="M 40.0,101.53846153846155 L 64.82758620689656,101.53846153846155 L 89.65517241379311,101.53846153846155 L 114.48275862068965,101.53846153846155 L 139.31034482758622,101.53846153846155 L 164.13793103448276,101.53846153846155 L 188.9655172413793,101.53846153846155 L 213.79310344827587,101.53846153846155 L 238.6206896551724,101.53846153846155 L 263.44827586206895,101.53846153846155 L 288.2758620689655,101.53846153846155 L 313.10344827586204,101.53846153846155 L 337.9310344827586,101.53846153846155 L 362.7586206896552,101.53846153846155 L 387.58620689655174,101.53846153846155 L 412.4137931034483,101.53846153846155 L 437.2413793103448,101.53846153846155 L 462.06896551724134,101.53846153846155 L 486.89655172413796,101.53846153846155 L 511.7241379310345,101.53846153846155 L 536.551724137931,101.53846153846155 L 561.3793103448276,101.53846153846155 L 586.2068965517241,101.53846153846155 L 611.0344827586207,101.53846153846155 L 635.8620689655172,101.53846153846155 L 660.6896551724137,101.53846153846155 L 685.5172413793103,101.53846153846155 L 710.3448275862069,40.0 L 735.1724137931035,40.0 L 760.0,40.0" class="line"/>
  <circle cx="40.0" cy="101.53846153846155" class="point"/>
  <text x="40.0" y="375" class="label" text-anchor="middle">2025-11-11</text>
  <text x="40.0" y="96.53846153846155" class="label" text-anchor="middle">42</text>
  <circle cx="64.82758620689656" cy="101.53846153846155" class="point"/>
  <text x="64.82758620689656" y="375" class="label" text-anchor="middle">2025-11-12</text>
  <text x="64.82758620689656" y="96.53846153846155" class="label" text-anchor="middle">42</text>
  <circle cx="89.65517241379311" cy="101.53846153846155" class="point"/>
  <text x="89.65517241379311" y="375" class="label" text-anchor="middle">2025-11-13</text>
  <text x="89.65517241379311" y="96.53846153846155" class="label" text-anchor="middle">42</text>
  <circle cx="114.48275862068965" cy="101.53846153846155" class="point"/>
  <text x="114.48275862068965" y="375" class="label" text-anchor="middle">2025-11-14</text>
  <text x="114.48275862068965" y="96.53846153846155" class="label" text-anchor="middle">42</text>
  <circle cx="139.31034482758622" cy="101.53846153846155" class="point"/>
  <text x="139.31034482758622" y="375" class="label" text-anchor="middle">2025-11-15</text>
  <text x="139.31034482758622" y="96.53846153846155" class="label" text-anchor="middle">42</text>
  <circle cx="164.13793103448276" cy="101.53846153846155" class="point"/>
  <text x="164.13793103448276" y="375" class="label" text-anchor="middle">2025-11-16</text>
  <text x="164.13793103448276" y="96.53846153846155" class="label" text-anchor="middle">42</text>
  <circle cx="188.9655172413793" cy="101.53846153846155" class="point"/>
  <text x="188.9655172413793" y="375" class="label" text-anchor="middle">2025-11-17</text>
  <text x="188.9655172413793" y="96.53846153846155" class="label" text-anchor="middle">42</text>
  <circle cx="213.79310344827587" cy="101.53846153846155" class="point"/>
  <text x="213.79310344827587" y="375" class="label" text-anchor="middle">2025-11-18</text>
  <text x="213.79310344827587" y="96.53846153846155" class="label" text-anchor="middle">42</text>
  <circle cx="238.6206896551724" cy="101.53846153846155" class="point"/>
  <text x="238.6206896551724" y="375" class="label" text-anchor="middle">2025-11-19</text>
  <text x="238.6206896551724" y="96.53846153846155" class="label" text-anchor="middle">42</text>
  <circle cx="263.44827586206895" cy="101.53846153846155" class="point"/>
  <text x="263.44827586206895" y="375" class="label" text-anchor="middle">2025-11-20</text>
  <text x="263.44827586206895" y="96.53846153846155" class="label" text-anchor="middle">42</text>
  <circle cx="288.2758620689655" cy="101.53846153846155" class="point"/>
  <text x="288.2758620689655" y="375" class="label" text-anchor="middle">2025-11-21</text>
  <text x="288.2758620689655" y="96.53846153846155" class="label" text-anchor="middle">42</text>
  <circle cx="313.10344827586204" cy="101.53846153846155" class="point"/>
  <text x="313.10344827586204" y="375" class="label" text-anchor="middle">2025-11-22</text>
  <text x="313.10344827586204" y="96.53846153846155" class="label" text-anchor="middle">42</text>
  <circle cx="337.9310344827586" cy="101.53846153846155" class="point"/>
  <text x="337.9310344827586" y="375" class="label" text-anchor="middle">2025-11-23</text>
  <text x="337.9310344827586" y="96.53846153846155" class="label" text-anchor="middle">42</text>
  <circle cx="362.7586206896552" cy="101.53846153846155" class="point"/>
  <text x="362.7586206896552" y="375" class="label" text-anchor="middle">2025-11-24</text>
  <text x="362.7586206896552" y="96.53846153846155" class="label" text-anchor="middle">42</text>
  <circle cx="387.58620689655174" cy="101.53846153846155" class="point"/>
  <text x="387.58620689655174" y="375" class="label" text-anchor="middle">2025-11-25</text>
  <text x="387.58620689655174" y="96.53846153846155" class="label" text-anchor="middle">42</text>
  <circle cx="412.4137931034483" cy="101.53846153846155" class="point"/>
  <text x="412.4137931034483" y="375" class="label" text-anchor="middle">2025-11-26</text>
  <text x="412.4137931034483" y="96.53846153846155" class="label" text-anchor="middle">42</text>
  <circle cx="437.2413793103448" cy="101.53846153846155" class="point"/>
  <text x="437.2413793103448" y="375" class="label" text-anchor="middle">2025-11-27</text>
  <text x="437.2413793103448" y="96.53846153846155" class="label" text-anchor="middle">42</text>
  <circle cx="462.06896551724134" cy="101.53846153846155" class="point"/>
  <text x="462.06896551724134" y="375" class="label" text-anchor="middle">2025-11-28</text>
  <text x="462.06896551724134" y="96.53846153846155" class="label" text-anchor="middle">42</text>
  <circle cx="486.89655172413796" cy="101.53846153846155" class="point"/>
  <text x="486.89655172413796" y="375" class="label" text-anchor="middle">2025-11-29</text>
  <text x="486.89655172413796" y="96.53846153846155" class="label" text-anchor="middle">42</text>
  <circle cx="511.7241379310345" cy="101.53846153846155" class="point"/>
  <text x="511.7241379310345" y="375" class="label" text-anchor="middle">2025-11-30</text>
  <text x="511.7241379310345" y="96.53846153846155" class="label" text-anchor="middle">42</text>
  <circle cx="536.551724137931" cy="101.53846153846155" class="point"/>
  <text x="536.551724137931" y="375" class="label" text-anchor="middle">2025-12-01</text>
  <text x="536.551724137931" y="96.53846153846155" class="label" text-anchor="middle">42</text>
  <circle cx="561.3793103448276" cy="101.53846153846155" class="point"/>
  <text x="561.3793103448276" y="375" class="label" text-anchor="middle">2025-12-02</text>
  <text x="561.3793103448276" y="96.53846153846155" class="label" text-anchor="middle">42</text>
  <circle cx="586.2068965517241" cy="101.53846153846155" class="point"/>
  <text x="586.2068965517241" y="375" class="label" text-anchor="middle">2025-12-03</text>
  <text x="586.2068965517241" y="96.53846153846155" class="label" text-anchor="middle">42</text>
  <circle cx="611.0344827586207" cy="101.53846153846155" class="point"/>
  <text x="611.0344827586207" y="375" class="label" text-anchor="middle">2025-12-04</text>
  <text x="611.0344827586207" y="96.53846153846155" class="label" text-anchor="middle">42</text>
  <circle cx="635.8620689655172" cy="101.53846153846155" class="point"/>
  <text x="635.8620689655172" y="375" class="label" text-anchor="middle">2025-12-05</text>
  <text x="635.8620689655172" y="96.53846153846155" class="label" text-anchor="middle">42</text>
  <circle cx="660.6896551724137" cy="101.53846153846155" class="point"/>
  <text x="660.6896551724137" y="375" class="label" text-anchor="middle">2025-12-06</text>
  <text x="660.6896551724137" y="96.53846153846155" class="label" text-anchor="middle">42</text>
  <circle cx="685.5172413793103" cy="101.53846153846155" class="point"/>
  <text x="685.5172413793103" y="375" class="label" text-anchor="middle">2025-12-07</text>
  <text x="685.5172413793103" y="96.53846153846155" class="label" text-anchor="middle">42</text>
  <circle cx="710.3448275862069" cy="40.0" class="point"/>
  <text x="710.3448275862069" y="375" class="label" text-anchor="middle">2025-12-08</text>
  <text x="710.3448275862069" y="35.0" class="label" text-anchor="middle">52</text>
  <circle cx="735.1724137931035" cy="40.0" class="point"/>
  <text x="735.1724137931035" y="375" class="label" text-anchor="middle">2025-12-09</text>
  <text x="735.1724137931035" y="35.0" class="label" text-anchor="middle">52</text>
  <circle cx="760.0" cy="40.0" class="point"/>
  <text x="760.0" y="375" class="label" text-anchor="middle">2025-12-10</text>
  <text x="760.0" y="35.0" class="label" text-anchor="middle">52</text>
  <text x="30" y="363.0" class="label" text-anchor="end">0</text>
  <text x="30" y="301.46153846153845" class="label" text-anchor="end">10</text>
  <text x="30" y="239.9230769230769" class="label" text-anchor="end">20</text>
  <text x="30" y="178.38461538461542" class="label" text-anchor="end">30</text>
  <text x="30" y="116.84615384615384" class="label" text-anchor="end">40</text>
  <text x="30" y="55.30769230769232" class="label" text-anchor="end">50</text>
</svg>