<svg xmlns="http://www.w3.org/2000/svg" width="800" height="400" viewBox="0 0 800 400">
  <style>
    .axis{stroke:#666;stroke-width:1}
    .line{stroke:#4a9;stroke-width:2;fill:none}
    .point{fill:#4a9;r:4}
    .label{font:10px sans-serif;fill:#aaa}
    .title{font:14px sans-serif;fill:#333}
  </style>
  <text x="400" y="20" class="title" text-anchor="middle">OPIC Field Growth Timeline</text>
  <line x1="40" y1="40" x2="40" y2="360" class="axis"/>
  <line x1="40" y1="360" x2="760" y2="360" class="axis"/>
  <path d="M 40.0,101.53846153846155 L 45.49618320610687,101.53846153846155 L 50.99236641221374,101.53846153846155 L 56.48854961832061,101.53846153846155 L 61.98473282442748,101.53846153846155 L 67.48091603053436,101.53846153846155 L 72.97709923664122,101.53846153846155 L 78.47328244274809,101.53846153846155 L 83.96946564885496,101.53846153846155 L 89.46564885496184,101.53846153846155 L 94.9618320610687,101.53846153846155 L 100.45801526717557,101.53846153846155 L 105.95419847328245,101.53846153846155 L 111.45038167938931,101.53846153846155 L 116.94656488549619,101.53846153846155 L 122.44274809160305,101.53846153846155 L 127.93893129770991,101.53846153846155 L 133.4351145038168,101.53846153846155 L 138.93129770992368,101.53846153846155 L 144.42748091603053,101.53846153846155 L 149.9236641221374,101.53846153846155 L 155.41984732824426,101.53846153846155 L 160.91603053435114,101.53846153846155 L 166.41221374045801,101.53846153846155 L 171.9083969465649,101.53846153846155 L 177.40458015267177,101.53846153846155 L 182.90076335877862,101.53846153846155 L 188.3969465648855,40.0 L 193.89312977099237,40.0 L 199.38931297709925,40.0 L 204.8854961832061,40.0 L 210.38167938931298,40.0 L 215.87786259541983,40.0 L 221.3740458015267,40.0 L 226.87022900763358,40.0 L 232.36641221374046,40.0 L 237.86259541984734,40.0 L 243.35877862595422,40.0 L 248.85496183206106,40.0 L 254.35114503816794,40.0 L 259.8473282442748,40.0 L 265.3435114503817,40.0 L 270.8396946564885,40.0 L 276.33587786259545,40.0 L 281.8320610687023,40.0 L 287.3282442748092,40.0 L 292.82442748091603,40.0 L 298.3206106870229,40.0 L 303.8167938931298,40.0 L 309.31297709923666,40.0 L 314.80916030534354,40.0 L 320.30534351145036,40.0 L 325.80152671755724,40.0 L 331.2977099236641,40.0 L 336.793893129771,40.0 L 342.29007633587787,40.0 L 347.78625954198475,40.0 L 353.2824427480916,40.0 L 358.7786259541985,40.0 L 364.2748091603053,40.0 L 369.7709923664122,40.0 L 375.2671755725191,40.0 L 380.76335877862596,40.0 L 386.25954198473283,40.0 L 391.75572519083966,40.0 L 397.25190839694653,40.0 L 402.7480916030534,40.0 L 408.2442748091603,40.0 L 413.74045801526717,40.0 L 419.23664122137404,40.0 L 424.7328244274809,40.0 L 430.2290076335878,40.0 L 435.7251908396947,40.0 L 441.22137404580155,40.0 L 446.71755725190843,40.0 L 452.21374045801525,40.0 L 457.70992366412213,40.0 L 463.206106870229,40.0 L 468.7022900763359,40.0 L 474.19847328244276,40.0 L 479.69465648854964,40.0 L 485.1908396946565,40.0 L 490.6870229007634,40.0 L 496.1832061068702,40.0 L 501.6793893129771,40.0 L 507.17557251908397,40.0 L 512.6717557251909,40.0 L 518.1679389312977,40.0 L 523.6641221374045,40.0 L 529.1603053435115,40.0 L 534.6564885496184,40.0 L 540.1526717557252,40.0 L 545.6488549618321,40.0 L 551.1450381679389,40.0 L 556.6412213740458,40.0 L 562.1374045801526,40.0 L 567.6335877862596,40.0 L 573.1297709923664,40.0 L 578.6259541984733,40.0 L 584.1221374045801,40.0 L 589.6183206106871,40.0 L 595.1145038167939,40.0 L 600.6106870229007,40.0 L 606.1068702290077,40.0 L 611.6030534351145,40.0 L 617.0992366412214,40.0 L 622.5954198473282,40.0 L 628.0916030534352,40.0 L 633.587786259542,40.0 L 639.0839694656489,40.0 L 644.5801526717557,40.0 L 650.0763358778626,40.0 L 655.5725190839695,40.0 L 661.0687022900763,40.0 L 666.5648854961833,40.0 L 672.0610687022901,40.0 L 677.557251908397,40.0 L 683.0534351145038,40.0 L 688.5496183206106,40.0 L 694.0458015267176,40.0 L 699.5419847328244,40.0 L 705.0381679389313,40.0 L 710.5343511450382,40.0 L 716.0305343511451,40.0 L 721.5267175572519,40.0 L 727.0229007633588,40.0 L 732.5190839694657,40.0 L 738.0152671755725,40.0 L 743.5114503816793,40.0 L 749.0076335877862,40.0 L 754.5038167938931,40.0 L 760.0,40.0" class="line"/>
  <circle cx="40.0" cy="101.53846153846155" class="point"/>
  <text x="40.0" y="375" class="label" text-anchor="middle">2025-11-11</text>
  <text x="40.0" y="96.53846153846155" class="label" text-anchor="middle">42</text>
  <circle cx="45.49618320610687" cy="101.53846153846155" class="point"/>
  <text x="45.49618320610687" y="375" class="label" text-anchor="middle">2025-11-12</text>
  <text x="45.49618320610687" y="96.53846153846155" class="label" text-anchor="middle">42</text>
  <circle cx="50.99236641221374" cy="101.53846153846155" class="point"/>
  <text x="50.99236641221374" y="375" class="label" text-anchor="middle">2025-11-13</text>
  <text x="50.99236641221374" y="96.53846153846155" class="label" text-anchor="middle">42</text>
  <circle cx="56.48854961832061" cy="101.53846153846155" class="point"/>
  <text x="56.48854961832061" y="375" class="label" text-anchor="middle">2025-11-14</text>
  <text x="56.48854961832061" y="96.53846153846155" class="label" text-anchor="middle">42</text>
  <circle cx="61.98473282442748" cy="101.53846153846155" class="point"/>
  <text x="61.98473282442748" y="375" class="label" text-anchor="middle">2025-11-15</text>
  <text x="61.98473282442748" y="96.53846153846155" class="label" text-anchor="middle">42</text>
  <circle cx="67.48091603053436" cy="101.53846153846155" class="point"/>
  <text x="67.48091603053436" y="375" class="label" text-anchor="middle">2025-11-16</text>
  <text x="67.48091603053436" y="96.53846153846155" class="label" text-anchor="middle">42</text>
  <circle cx="72.97709923664122" cy="101.53846153846155" class="point"/>
  <text x="72.97709923664122" y="375" class="label" text-anchor="middle">2025-11-17</text>
  <text x="72.97709923664122" y="96.53846153846155" class="label" text-anchor="middle">42</text>
  <circle cx="78.47328244274809" cy="101.53846153846155" class="point"/>
  <text x="78.47328244274809" y="375" class="label" text-anchor="middle">2025-11-18</text>
  <text x="78.47328244274809" y="96.53846153846155" class="label" text-anchor="middle">42</text>
  <circle cx="83.96946564885496" cy="101.53846153846155" class="point"/>
  <text x="83.96946564885496" y="375" class="label" text-anchor="middle">2025-11-19</text>
  <text x="83.96946564885496" y="96.53846153846155" class="label" text-anchor="middle">42</text>
  <circle cx="89.46564885496184" cy="101.53846153846155" class="point"/>
  <text x="89.46564885496184" y="375" class="label" text-anchor="middle">2025-11-20</text>
  <text x="89.46564885496184" y="96.53846153846155" class="label" text-anchor="middle">42</text>
  <circle cx="94.9618320610687" cy="101.53846153846155" class="point"/>
  <text x="94.9618320610687" y="375" class="label" text-anchor="middle">2025-11-21</text>
  <text x="94.9618320610687" y="96.53846153846155" class="label" text-anchor="middle">42</text>
  <circle cx="100.45801526717557" cy="101.53846153846155" class="point"/>
  <text x="100.45801526717557" y="375" class="label" text-anchor="middle">2025-11-22</text>
  <text x="100.45801526717557" y="96.53846153846155" class="label" text-anchor="middle">42</text>
  <circle cx="105.95419847328245" cy="101.53846153846155" class="point"/>
  <text x="105.95419847328245" y="375" class="label" text-anchor="middle">2025-11-23</text>
  <text x="105.95419847328245" y="96.53846153846155" class="label" text-anchor="middle">42</text>
  <circle cx="111.45038167938931" cy="101.53846153846155" class="point"/>
  <text x="111.45038167938931" y="375" class="label" text-anchor="middle">2025-11-24</text>
  <text x="111.45038167938931" y="96.53846153846155" class="label" text-anchor="middle">42</text>
  <circle cx="116.94656488549619" cy="101.53846153846155" class="point"/>
  <text x="116.94656488549619" y="375" class="label" text-anchor="middle">2025-11-25</text>
  <text x="116.94656488549619" y="96.53846153846155" class="label" text-anchor="middle">42</text>
  <circle cx="122.44274809160305" cy="101.53846153846155" class="point"/>
  <text x="122.44274809160305" y="375" class="label" text-anchor="middle">2025-11-26</text>
  <text x="122.44274809160305" y="96.53846153846155" class="label" text-anchor="middle">42</text>
  <circle cx="127.93893129770991" cy="101.53846153846155" class="point"/>
  <text x="127.93893129770991" y="375" class="label" text-anchor="middle">2025-11-27</text>
  <text x="127.93893129770991" y="96.53846153846155" class="label" text-anchor="middle">42</text>
  <circle cx="133.4351145038168" cy="101.53846153846155" class="point"/>
  <text x="133.4351145038168" y="375" class="label" text-anchor="middle">2025-11-28</text>
  <text x="133.4351145038168" y="96.53846153846155" class="label" text-anchor="middle">42</text>
  <circle cx="138.93129770992368" cy="101.53846153846155" class="point"/>
  <text x="138.93129770992368" y="375" class="label" text-anchor="middle">2025-11-29</text>
  <text x="138.93129770992368" y="96.53846153846155" class="label" text-anchor="middle">42</text>
  <circle cx="144.42748091603053" cy="101.53846153846155" class="point"/>
  <text x="144.42748091603053" y="375" class="label" text-anchor="middle">2025-11-30</text>
  <text x="144.42748091603053" y="96.53846153846155" class="label" text-anchor="middle">42</text>
  <circle cx="149.9236641221374" cy="101.53846153846155" class="point"/>
  <text x="149.9236641221374" y="375" class="label" text-anchor="middle">2025-12-01</text>
  <text x="149.9236641221374" y="96.53846153846155" class="label" text-anchor="middle">42</text>
  <circle cx="155.41984732824426" cy="101.53846153846155" class="point"/>
  <text x="155.41984732824426" y="375" class="label" text-anchor="middle">2025-12-02</text>
  <text x="155.41984732824426" y="96.53846153846155" class="label" text-anchor="middle">42</text>
  <circle cx="160.91603053435114" cy="101.53846153846155" class="point"/>
  <text x="160.91603053435114" y="375" class="label" text-anchor="middle">2025-12-03</text>
  <text x="160.91603053435114" y="96.53846153846155" class="label" text-anchor="middle">42</text>
  <circle cx="166.41221374045801" cy="101.53846153846155" class="point"/>
  <text x="166.41221374045801" y="375" class="label" text-anchor="middle">2025-12-04</text>
  <text x="166.41221374045801" y="96.53846153846155" class="label" text-anchor="middle">42</text>
  <circle cx="171.9083969465649" cy="101.53846153846155" class="point"/>
  <text x="171.9083969465649" y="375" class="label" text-anchor="middle">2025-12-05</text>
  <text x="171.9083969465649" y="96.53846153846155" class="label" text-anchor="middle">42</text>
  <circle cx="177.40458015267177" cy="101.53846153846155" class="point"/>
  <text x="177.40458015267177" y="375" class="label" text-anchor="middle">2025-12-06</text>
  <text x="177.40458015267177" y="96.53846153846155" class="label" text-anchor="middle">42</text>
  <circle cx="182.90076335877862" cy="101.53846153846155" class="point"/>
  <text x="182.90076335877862" y="375" class="label" text-anchor="middle">2025-12-07</text>
  <text x="182.90076335877862" y="96.53846153846155" class="label" text-anchor="middle">42</text>
  <circle cx="188.3969465648855" cy="40.0" class="point"/>
  <text x="188.3969465648855" y="375" class="label" text-anchor="middle">2025-12-08</text>
  <text x="188.3969465648855" y="35.0" class="label" text-anchor="middle">52</text>
  <circle cx="193.89312977099237" cy="40.0" class="point"/>
  <text x="193.89312977099237" y="375" class="label" text-anchor="middle">2025-12-09</text>
  <text x="193.89312977099237" y="35.0" class="label" text-anchor="middle">52</text>
  <circle cx="199.38931297709925" cy="40.0" class="point"/>
  <text x="199.38931297709925" y="375" class="label" text-anchor="middle">2025-12-10</text>
  <text x="199.38931297709925" y="35.0" class="label" text-anchor="middle">52</text>
  <circle cx="204.8854961832061" cy="40.0" class="point"/>
  <text x="204.8854961832061" y="375" class="label" text-anchor="middle">2025-12-11</text>
  <text x="204.8854961832061" y="35.0" class="label" text-anchor="middle">52</text>
  <circle cx="210.38167938931298" cy="40.0" class="point"/>
  <text x="210.38167938931298" y="375" class="label" text-anchor="middle">2025-12-12</text>
  <text x="210.38167938931298" y="35.0" class="label" text-anchor="middle">52</text>
  <circle cx="215.87786259541983" cy="40.0" class="point"/>
  <text x="215.87786259541983" y="375" class="label" text-anchor="middle">2025-12-13</text>
  <text x="215.87786259541983" y="35.0" class="label" text-anchor="middle">52</text>
  <circle cx="221.3740458015267" cy="40.0" class="point"/>
  <text x="221.3740458015267" y="375" class="label" text-anchor="middle">2025-12-14</text>
  <text x="221.3740458015267" y="35.0" class="label" text-anchor="middle">52</text>
  <circle cx="226.87022900763358" cy="40.0" class="point"/>
  <text x="226.87022900763358" y="375" class="label" text-anchor="middle">2025-12-15</text>
  <text x="226.87022900763358" y="35.0" class="label" text-anchor="middle">52</text>
  <circle cx="232.36641221374046" cy="40.0" class="point"/>
  <text x="232.36641221374046" y="375" class="label" text-anchor="middle">2025-12-16</text>
  <text x="232.36641221374046" y="35.0" class="label" text-anchor="middle">52</text>
  <circle cx="237.86259541984734" cy="40.0" class="point"/>
  <text x="237.86259541984734" y="375" class="label" text-anchor="middle">2025-12-17</text>
  <text x="237.86259541984734" y="35.0" class="label" text-anchor="middle">52</text>
  <circle cx="243.35877862595422" cy="40.0" class="point"/>
  <text x="243.35877862595422" y="375" class="label" text-anchor="middle">2025-12-18</text>
  <text x="243.35877862595422" y="35.0" class="label" text-anchor="middle">52</text>
  <circle cx="248.85496183206106" cy="40.0" class="point"/>
  <text x="248.85496183206106" y="375" class="label" text-anchor="middle">2025-12-19</text>
  <text x="248.85496183206106" y="35.0" class="label" text-anchor="middle">52</text>
  <circle cx="254.35114503816794" cy="40.0" class="point"/>
  <text x="254.35114503816794" y="375" class="label" text-anchor="middle">2025-12-20</text>
  <text x="254.35114503816794" y="35.0" class="label" text-anchor="middle">52</text>
  <circle cx="259.8473282442748" cy="40.0" class="point"/>
  <text x="259.8473282442748" y="375" class="label" text-anchor="middle">2025-12-21</text>
  <text x="259.8473282442748" y="35.0" class="label" text-anchor="middle">52</text>
  <circle cx="265.3435114503817" cy="40.0" class="point"/>
  <text x="265.3435114503817" y="375" class="label" text-anchor="middle">2025-12-22</text>
  <text x="265.3435114503817" y="35.0" class="label" text-anchor="middle">52</text>
  <circle cx="270.8396946564885" cy="40.0" class="point"/>
  <text x="270.8396946564885" y="375" class="label" text-anchor="middle">2025-12-23</text>
  <text x="270.8396946564885" y="35.0" class="label" text-anchor="middle">52</text>
  <circle cx="276.33587786259545" cy="40.0" class="point"/>
  <text x="276.33587786259545" y="375" class="label" text-anchor="middle">2025-12-24</text>
  <text x="276.33587786259545" y="35.0" class="label" text-anchor="middle">52</text>
  <circle cx="281.8320610687023" cy="40.0" class="point"/>
  <text x="281.8320610687023" y="375" class="label" text-anchor="middle">2025-12-25</text>
  <text x="281.8320610687023" y="35.0" class="label" text-anchor="middle">52</text>
  <circle cx="287.3282442748092" cy="40.0" class="point"/>
  <text x="287.3282442748092" y="375" class="label" text-anchor="middle">2025-12-26</text>
  <text x="287.3282442748092" y="35.0" class="label" text-anchor="middle">52</text>
  <circle cx="292.82442748091603" cy="40.0" class="point"/>
  <text x="292.82442748091603" y="375" class="label" text-anchor="middle">2025-12-27</text>
  <text x="292.82442748091603" y="35.0" class="label" text-anchor="middle">52</text>
  <circle cx="298.3206106870229" cy="40.0" class="point"/>
  <text x="298.3206106870229" y="375" class="label" text-anchor="middle">2025-12-28</text>
  <text x="298.3206106870229" y="35.0" class="label" text-anchor="middle">52</text>
  <circle cx="303.8167938931298" cy="40.0" class="point"/>
  <text x="303.8167938931298" y="375" class="label" text-anchor="middle">2025-12-29</text>
  <text x="303.8167938931298" y="35.0" class="label" text-anchor="middle">52</text>
  <circle cx="309.31297709923666" cy="40.0" class="point"/>
  <text x="309.31297709923666" y="375" class="label" text-anchor="middle">2025-12-30</text>
  <text x="309.31297709923666" y="35.0" class="label" text-anchor="middle">52</text>
  <circle cx="314.80916030534354" cy="40.0" class="point"/>
  <text x="314.80916030534354" y="375" class="label" text-anchor="middle">2025-12-31</text>
  <text x="314.80916030534354" y="35.0" class="label" text-anchor="middle">52</text>
  <circle cx="320.30534351145036" cy="40.0" class="point"/>
  <text x="320.30534351145036" y="375" class="label" text-anchor="middle">2026-01-01</text>
  <text x="320.30534351145036" y="35.0" class="label" text-anchor="middle">52</text>
  <circle cx="325.80152671755724" cy="40.0" class="point"/>
  <text x="325.80152671755724" y="375" class="label" text-anchor="middle">2026-01-02</text>
  <text x="325.80152671755724" y="35.0" class="label" text-anchor="middle">52</text>
  <circle cx="331.2977099236641" cy="40.0" class="point"/>
  <text x="331.2977099236641" y="375" class="label" text-anchor="middle">2026-01-03</text>
  <text x="331.2977099236641" y="35.0" class="label" text-anchor="middle">52</text>
  <circle cx="336.793893129771" cy="40.0" class="point"/>
  <text x="336.793893129771" y="375" class="label" text-anchor="middle">2026-01-04</text>
  <text x="336.793893129771" y="35.0" class="label" text-anchor="middle">52</text>
  <circle cx="342.29007633587787" cy="40.0" class="point"/>
  <text x="342.29007633587787" y="375" class="label" text-anchor="middle">2026-01-05</text>
  <text x="342.29007633587787" y="35.0" class="label" text-anchor="middle">52</text>
  <circle cx="347.78625954198475" cy="40.0" class="point"/>
  <text x="347.78625954198475" y="375" class="label" text-anchor="middle">2026-01-06</text>
  <text x="347.78625954198475" y="35.0" class="label" text-anchor="middle">52</text>
  <circle cx="353.2824427480916" cy="40.0" class="point"/>
  <text x="353.2824427480916" y="375" class="label" text-anchor="middle">2026-01-07</text>
  <text x="353.2824427480916" y="35.0" class="label" text-anchor="middle">52</text>
  <circle cx="358.7786259541985" cy="40.0" class="point"/>
  <text x="358.7786259541985" y="375" class="label" text-anchor="middle">2026-01-08</text>
  <text x="358.7786259541985" y="35.0" class="label" text-anchor="middle">52</text>
  <circle cx="364.2748091603053" cy="40.0" class="point"/>
  <text x="364.2748091603053" y="375" class="label" text-anchor="middle">2026-01-09</text>
  <text x="364.2748091603053" y="35.0" class="label" text-anchor="middle">52</text>
  <circle cx="369.7709923664122" cy="40.0" class="point"/>
  <text x="369.7709923664122" y="375" class="label" text-anchor="middle">2026-01-10</text>
  <text x="369.7709923664122" y="35.0" class="label" text-anchor="middle">52</text>
  <circle cx="375.2671755725191" cy="40.0" class="point"/>
  <text x="375.2671755725191" y="375" class="label" text-anchor="middle">2026-01-11</text>
  <text x="375.2671755725191" y="35.0" class="label" text-anchor="middle">52</text>
  <circle cx="380.76335877862596" cy="40.0" class="point"/>
  <text x="380.76335877862596" y="375" class="label" text-anchor="middle">2026-01-12</text>
  <text x="380.76335877862596" y="35.0" class="label" text-anchor="middle">52</text>
  <circle cx="386.25954198473283" cy="40.0" class="point"/>
  <text x="386.25954198473283" y="375" class="label" text-anchor="middle">2026-01-13</text>
  <text x="386.25954198473283" y="35.0" class="label" text-anchor="middle">52</text>
  <circle cx="391.75572519083966" cy="40.0" class="point"/>
  <text x="391.75572519083966" y="375" class="label" text-anchor="middle">2026-01-14</text>
  <text x="391.75572519083966" y="35.0" class="label" text-anchor="middle">52</text>
  <circle cx="397.25190839694653" cy="40.0" class="point"/>
  <text x="397.25190839694653" y="375" class="label" text-anchor="middle">2026-01-15</text>
  <text x="397.25190839694653" y="35.0" class="label" text-anchor="middle">52</text>
  <circle cx="402.7480916030534" cy="40.0" class="point"/>
  <text x="402.7480916030534" y="375" class="label" text-anchor="middle">2026-01-16</text>
  <text x="402.7480916030534" y="35.0" class="label" text-anchor="middle">52</text>
  <circle cx="408.2442748091603" cy="40.0" class="point"/>
  <text x="408.2442748091603" y="375" class="label" text-anchor="middle">2026-01-17</text>
  <text x="408.2442748091603" y="35.0" class="label" text-anchor="middle">52</text>
  <circle cx="413.74045801526717" cy="40.0" class="point"/>
  <text x="413.74045801526717" y="375" class="label" text-anchor="middle">2026-01-18</text>
  <text x="413.74045801526717" y="35.0" class="label" text-anchor="middle">52</text>
  <circle cx="419.23664122137404" cy="40.0" class="point"/>
  <text x="419.23664122137404" y="375" class="label" text-anchor="middle">2026-01-19</text>
  <text x="419.23664122137404" y="35.0" class="label" text-anchor="middle">52</text>
  <circle cx="424.7328244274809" cy="40.0" class="point"/>
  <text x="424.7328244274809" y="375" class="label" text-anchor="middle">2026-01-20</text>
  <text x="424.7328244274809" y="35.0" class="label" text-anchor="middle">52</text>
  <circle cx="430.2290076335878" cy="40.0" class="point"/>
  <text x="430.2290076335878" y="375" class="label" text-anchor="middle">2026-01-21</text>
  <text x="430.2290076335878" y="35.0" class="label" text-anchor="middle">52</text>
  <circle cx="435.7251908396947" cy="40.0" class="point"/>
  <text x="435.7251908396947" y="375" class="label" text-anchor="middle">2026-01-22</text>
  <text x="435.7251908396947" y="35.0" class="label" text-anchor="middle">52</text>
  <circle cx="441.22137404580155" cy="40.0" class="point"/>
  <text x="441.22137404580155" y="375" class="label" text-anchor="middle">2026-01-23</text>
  <text x="441.22137404580155" y="35.0" class="label" text-anchor="middle">52</text>
  <circle cx="446.71755725190843" cy="40.0" class="point"/>
  <text x="446.71755725190843" y="375" class="label" text-anchor="middle">2026-01-24</text>
  <text x="446.71755725190843" y="35.0" class="label" text-anchor="middle">52</text>
  <circle cx="452.21374045801525" cy="40.0" class="point"/>
  <text x="452.21374045801525" y="375" class="label" text-anchor="middle">2026-01-25</text>
  <text x="452.21374045801525" y="35.0" class="label" text-anchor="middle">52</text>
  <circle cx="457.70992366412213" cy="40.0" class="point"/>
  <text x="457.70992366412213" y="375" class="label" text-anchor="middle">2026-01-26</text>
  <text x="457.70992366412213" y="35.0" class="label" text-anchor="middle">52</text>
  <circle cx="463.206106870229" cy="40.0" class="point"/>
  <text x="463.206106870229" y="375" class="label" text-anchor="middle">2026-01-27</text>
  <text x="463.206106870229" y="35.0" class="label" text-anchor="middle">52</text>
  <circle cx="468.7022900763359" cy="40.0" class="point"/>
  <text x="468.7022900763359" y="375" class="label" text-anchor="middle">2026-01-28</text>
  <text x="468.7022900763359" y="35.0" class="label" text-anchor="middle">52</text>
  <circle cx="474.19847328244276" cy="40.0" class="point"/>
  <text x="474.19847328244276" y="375" class="label" text-anchor="middle">2026-01-29</text>
  <text x="474.19847328244276" y="35.0" class="label" text-anchor="middle">52</text>
  <circle cx="479.69465648854964" cy="40.0" class="point"/>
  <text x="479.69465648854964" y="375" class="label" text-anchor="middle">2026-01-30</text>
  <text x="479.69465648854964" y="35.0" class="label" text-anchor="middle">52</text>
  <circle cx="485.1908396946565" cy="40.0" class="point"/>
  <text x="485.1908396946565" y="375" class="label" text-anchor="middle">2026-01-31</text>
  <text x="485.1908396946565" y="35.0" class="label" text-anchor="middle">52</text>
  <circle cx="490.6870229007634" cy="40.0" class="point"/>
  <text x="490.6870229007634" y="375" class="label" text-anchor="middle">2026-02-01</text>
  <text x="490.6870229007634" y="35.0" class="label" text-anchor="middle">52</text>
  <circle cx="496.1832061068702" cy="40.0" class="point"/>
  <text x="496.1832061068702" y="375" class="label" text-anchor="middle">2026-02-02</text>
  <text x="496.1832061068702" y="35.0" class="label" text-anchor="middle">52</text>
  <circle cx="501.6793893129771" cy="40.0" class="point"/>
  <text x="501.6793893129771" y="375" class="label" text-anchor="middle">2026-02-03</text>
  <text x="501.6793893129771" y="35.0" class="label" text-anchor="middle">52</text>
  <circle cx="507.17557251908397" cy="40.0" class="point"/>
  <text x="507.17557251908397" y="375" class="label" text-anchor="middle">2026-02-04</text>
  <text x="507.17557251908397" y="35.0" class="label" text-anchor="middle">52</text>
  <circle cx="512.6717557251909" cy="40.0" class="point"/>
  <text x="512.6717557251909" y="375" class="label" text-anchor="middle">2026-02-05</text>
  <text x="512.6717557251909" y="35.0" class="label" text-anchor="middle">52</text>
  <circle cx="518.1679389312977" cy="40.0" class="point"/>
  <text x="518.1679389312977" y="375" class="label" text-anchor="middle">2026-02-06</text>
  <text x="518.1679389312977" y="35.0" class="label" text-anchor="middle">52</text>
  <circle cx="523.6641221374045" cy="40.0" class="point"/>
  <text x="523.6641221374045" y="375" class="label" text-anchor="middle">2026-02-07</text>
  <text x="523.6641221374045" y="35.0" class="label" text-anchor="middle">52</text>
  <circle cx="529.1603053435115" cy="40.0" class="point"/>
  <text x="529.1603053435115" y="375" class="label" text-anchor="middle">2026-02-08</text>
  <text x="529.1603053435115" y="35.0" class="label" text-anchor="middle">52</text>
  <circle cx="534.6564885496184" cy="40.0" class="point"/>
  <text x="534.6564885496184" y="375" class="label" text-anchor="middle">2026-02-09</text>
  <text x="534.6564885496184" y="35.0" class="label" text-anchor="middle">52</text>
  <circle cx="540.1526717557252" cy="40.0" class="point"/>
  <text x="540.1526717557252" y="375" class="label" text-anchor="middle">2026-02-10</text>
  <text x="540.1526717557252" y="35.0" class="label" text-anchor="middle">52</text>
  <circle cx="545.6488549618321" cy="40.0" class="point"/>
  <text x="545.6488549618321" y="375" class="label" text-anchor="middle">2026-02-11</text>
  <text x="545.6488549618321" y="35.0" class="label" text-anchor="middle">52</text>
  <circle cx="551.1450381679389" cy="40.0" class="point"/>
  <text x="551.1450381679389" y="375" class="label" text-anchor="middle">2026-02-12</text>
  <text x="551.1450381679389" y="35.0" class="label" text-anchor="middle">52</text>
  <circle cx="556.6412213740458" cy="40.0" class="point"/>
  <text x="556.6412213740458" y="375" class="label" text-anchor="middle">2026-02-13</text>
  <text x="556.6412213740458" y="35.0" class="label" text-anchor="middle">52</text>
  <circle cx="562.1374045801526" cy="40.0" class="point"/>
  <text x="562.1374045801526" y="375" class="label" text-anchor="middle">2026-02-14</text>
  <text x="562.1374045801526" y="35.0" class="label" text-anchor="middle">52</text>
  <circle cx="567.6335877862596" cy="40.0" class="point"/>
  <text x="567.6335877862596" y="375" class="label" text-anchor="middle">2026-02-15</text>
  <text x="567.6335877862596" y="35.0" class="label" text-anchor="middle">52</text>
  <circle cx="573.1297709923664" cy="40.0" class="point"/>
  <text x="573.1297709923664" y="375" class="label" text-anchor="middle">2026-02-16</text>
  <text x="573.1297709923664" y="35.0" class="label" text-anchor="middle">52</text>
  <circle cx="578.6259541984733" cy="40.0" class="point"/>
  <text x="578.6259541984733" y="375" class="label" text-anchor="middle">2026-02-17</text>
  <text x="578.6259541984733" y="35.0" class="label" text-anchor="middle">52</text>
  <circle cx="584.1221374045801" cy="40.0" class="point"/>
  <text x="584.1221374045801" y="375" class="label" text-anchor="middle">2026-02-18</text>
  <text x="584.1221374045801" y="35.0" class="label" text-anchor="middle">52</text>
  <circle cx="589.6183206106871" cy="40.0" class="point"/>
  <text x="589.6183206106871" y="375" class="label" text-anchor="middle">2026-02-19</text>
  <text x="589.6183206106871" y="35.0" class="label" text-anchor="middle">52</text>
  <circle cx="595.1145038167939" cy="40.0" class="point"/>
  <text x="595.1145038167939" y="375" class="label" text-anchor="middle">2026-02-20</text>
  <text x="595.1145038167939" y="35.0" class="label" text-anchor="middle">52</text>
  <circle cx="600.6106870229007" cy="40.0" class="point"/>
  <text x="600.6106870229007" y="375" class="label" text-anchor="middle">2026-02-21</text>
  <text x="600.6106870229007" y="35.0" class="label" text-anchor="middle">52</text>
  <circle cx="606.1068702290077" cy="40.0" class="point"/>
  <text x="606.1068702290077" y="375" class="label" text-anchor="middle">2026-02-22</text>
  <text x="606.1068702290077" y="35.0" class="label" text-anchor="middle">52</text>
  <circle cx="611.6030534351145" cy="40.0" class="point"/>
  <text x="611.6030534351145" y="375" class="label" text-anchor="middle">2026-02-23</text>
  <text x="611.6030534351145" y="35.0" class="label" text-anchor="middle">52</text>
  <circle cx="617.0992366412214" cy="40.0" class="point"/>
  <text x="617.0992366412214" y="375" class="label" text-anchor="middle">2026-02-24</text>
  <text x="617.0992366412214" y="35.0" class="label" text-anchor="middle">52</text>
  <circle cx="622.5954198473282" cy="40.0" class="point"/>
  <text x="622.5954198473282" y="375" class="label" text-anchor="middle">2026-02-25</text>
  <text x="622.5954198473282" y="35.0" class="label" text-anchor="middle">52</text>
  <circle cx="628.0916030534352" cy="40.0" class="point"/>
  <text x="628.0916030534352" y="375" class="label" text-anchor="middle">2026-02-26</text>
  <text x="628.0916030534352" y="35.0" class="label" text-anchor="middle">52</text>
  <circle cx="633.587786259542" cy="40.0" class="point"/>
  <text x="633.587786259542" y="375" class="label" text-anchor="middle">2026-02-27</text>
  <text x="633.587786259542" y="35.0" class="label" text-anchor="middle">52</text>
  <circle cx="639.0839694656489" cy="40.0" class="point"/>
  <text x="639.0839694656489" y="375" class="label" text-anchor="middle">2026-02-28</text>
  <text x="639.0839694656489" y="35.0" class="label" text-anchor="middle">52</text>
  <circle cx="644.5801526717557" cy="40.0" class="point"/>
  <text x="644.5801526717557" y="375" class="label" text-anchor="middle">2026-03-01</text>
  <text x="644.5801526717557" y="35.0" class="label" text-anchor="middle">52</text>
  <circle cx="650.0763358778626" cy="40.0" class="point"/>
  <text x="650.0763358778626" y="375" class="label" text-anchor="middle">2026-03-02</text>
  <text x="650.0763358778626" y="35.0" class="label" text-anchor="middle">52</text>
  <circle cx="655.5725190839695" cy="40.0" class="point"/>
  <text x="655.5725190839695" y="375" class="label" text-anchor="middle">2026-03-03</text>
  <text x="655.5725190839695" y="35.0" class="label" text-anchor="middle">52</text>
  <circle cx="661.0687022900763" cy="40.0" class="point"/>
  <text x="661.0687022900763" y="375" class="label" text-anchor="middle">2026-03-04</text>
  <text x="661.0687022900763" y="35.0" class="label" text-anchor="middle">52</text>
  <circle cx="666.5648854961833" cy="40.0" class="point"/>
  <text x="666.5648854961833" y="375" class="label" text-anchor="middle">2026-03-05</text>
  <text x="666.5648854961833" y="35.0" class="label" text-anchor="middle">52</text>
  <circle cx="672.0610687022901" cy="40.0" class="point"/>
  <text x="672.0610687022901" y="375" class="label" text-anchor="middle">2026-03-06</text>
  <text x="672.0610687022901" y="35.0" class="label" text-anchor="middle">52</text>
  <circle cx="677.557251908397" cy="40.0" class="point"/>
  <text x="677.557251908397" y="375" class="label" text-anchor="middle">2026-03-07</text>
  <text x="677.557251908397" y="35.0" class="label" text-anchor="middle">52</text>
  <circle cx="683.0534351145038" cy="40.0" class="point"/>
  <text x="683.0534351145038" y="375" class="label" text-anchor="middle">2026-03-08</text>
  <text x="683.0534351145038" y="35.0" class="label" text-anchor="middle">52</text>
  <circle cx="688.5496183206106" cy="40.0" class="point"/>
  <text x="688.5496183206106" y="375" class="label" text-anchor="middle">2026-03-09</text>
  <text x="688.5496183206106" y="35.0" class="label" text-anchor="middle">52</text>
  <circle cx="694.0458015267176" cy="40.0" class="point"/>
  <text x="694.0458015267176" y="375" class="label" text-anchor="middle">2026-03-10</text>
  <text x="694.0458015267176" y="35.0" class="label" text-anchor="middle">52</text>
  <circle cx="699.5419847328244" cy="40.0" class="point"/>
  <text x="699.5419847328244" y="375" class="label" text-anchor="middle">2026-03-11</text>
  <text x="699.5419847328244" y="35.0" class="label" text-anchor="middle">52</text>
  <circle cx="705.0381679389313" cy="40.0" class="point"/>
  <text x="705.0381679389313" y="375" class="label" text-anchor="middle">2026-03-12</text>
  <text x="705.0381679389313" y="35.0" class="label" text-anchor="middle">52</text>
  <circle cx="710.5343511450382" cy="40.0" class="point"/>
  <text x="710.5343511450382" y="375" class="label" text-anchor="middle">2026-03-13</text>
  <text x="710.5343511450382" y="35.0" class="label" text-anchor="middle">52</text>
  <circle cx="716.0305343511451" cy="40.0" class="point"/>
  <text x="716.0305343511451" y="375" class="label" text-anchor="middle">2026-03-14</text>
  <text x="716.0305343511451" y="35.0" class="label" text-anchor="middle">52</text>
  <circle cx="721.5267175572519" cy="40.0" class="point"/>
  <text x="721.5267175572519" y="375" class="label" text-anchor="middle">2026-03-15</text>
  <text x="721.5267175572519" y="35.0" class="label" text-anchor="middle">52</text>
  <circle cx="727.0229007633588" cy="40.0" class="point"/>
  <text x="727.0229007633588" y="375" class="label" text-anchor="middle">2026-03-16</text>
  <text x="727.0229007633588" y="35.0" class="label" text-anchor="middle">52</text>
  <circle cx="732.5190839694657" cy="40.0" class="point"/>
  <text x="732.5190839694657" y="375" class="label" text-anchor="middle">2026-03-17</text>
  <text x="732.5190839694657" y="35.0" class="label" text-anchor="middle">52</text>
  <circle cx="738.0152671755725" cy="40.0" class="point"/>
  <text x="738.0152671755725" y="375" class="label" text-anchor="middle">2026-03-18</text>
  <text x="738.0152671755725" y="35.0" class="label" text-anchor="middle">52</text>
  <circle cx="743.5114503816793" cy="40.0" class="point"/>
  <text x="743.5114503816793" y="375" class="label" text-anchor="middle">2026-03-19</text>
  <text x="743.5114503816793" y="35.0" class="label" text-anchor="middle">52</text>
  <circle cx="749.0076335877862" cy="40.0" class="point"/>
  <text x="749.0076335877862" y="375" class="label" text-anchor="middle">2026-03-20</text>
  <text x="749.0076335877862" y="35.0" class="label" text-anchor="middle">52</text>
  <circle cx="754.5038167938931" cy="40.0" class="point"/>
  <text x="754.5038167938931" y="375" class="label" text-anchor="middle">2026-03-21</text>
  <text x="754.5038167938931" y="35.0" class="label" text-anchor="middle">52</text>
  <circle cx="760.0" cy="40.0" class="point"/>
  <text x="760.0" y="375" class="label" text-anchor="middle">2026-03-22</text>
  <text x="760.0" y="35.0" class="label" text-anchor="middle">52</text>
  <text x="30" y="363.0" class="label" text-anchor="end">0</text>
  <text x="30" y="301.46153846153845" class="label" text-anchor="end">10</text>
  <text x="30" y="239.9230769230769" class="label" text-anchor="end">20</text>
  <text x="30" y="178.38461538461542" class="label" text-anchor="end">30</text>
  <text x="30" y="116.84615384615384" class="label" text-anchor="end">40</text>
  <text x="30" y="55.30769230769232" class="label" text-anchor="end">50</text>
</svg>