<svg xmlns="http://www.w3.org/2000/svg" width="800" height="400" viewBox="0 0 800 400">
  <style>
    .axis{stroke:#666;stroke-width:1}
    .line{stroke:#4a9;stroke-width:2;fill:none}
    .point{fill:#4a9;r:4}
    .label{font:10px sans-serif;fill:#aaa}
    .title{font:14px sans-serif;fill:#333}
  </style>
  <text x="400" y="20" class="title" text-anchor="middle">OPIC Field Growth Timeline</text>
  <line x1="40" y1="40" x2="40" y2="360" class="axis"/>
  <line x1="40" y1="360" x2="760" y2="360" class="axis"/>
  <path d="M 40.0,101.53846153846155 L 49.729729729729726,101.53846153846155 L 59.45945945945946,101.53846153846155 L 69.1891891891892,101.53846153846155 L 78.91891891891892,101.53846153846155 L 88.64864864864865,101.53846153846155 L 98.37837837837839,101.53846153846155 L 108.10810810810811,101.53846153846155 L 117.83783783783784,101.53846153846155 L 127.56756756756758,101.53846153846155 L 137.2972972972973,101.53846153846155 L 147.02702702702703,101.53846153846155 L 156.75675675675677,101.53846153846155 L 166.4864864864865,101.53846153846155 L 176.21621621621622,101.53846153846155 L 185.94594594594597,101.53846153846155 L 195.67567567567568,101.53846153846155 L 205.40540540540542,101.53846153846155 L 215.13513513513516,101.53846153846155 L 224.86486486486484,101.53846153846155 L 234.5945945945946,101.53846153846155 L 244.32432432432432,101.53846153846155 L 254.05405405405406,101.53846153846155 L 263.78378378378375,101.53846153846155 L 273.51351351351354,101.53846153846155 L 283.2432432432432,101.53846153846155 L 292.972972972973,101.53846153846155 L 302.7027027027027,40.0 L 312.43243243243245,40.0 L 322.16216216216213,40.0 L 331.89189189189193,40.0 L 341.6216216216216,40.0 L 351.35135135135135,40.0 L 361.0810810810811,40.0 L 370.81081081081084,40.0 L 380.5405405405405,40.0 L 390.2702702702703,40.0 L 400.0,40.0 L 409.7297297297297,40.0 L 419.4594594594594,40.0 L 429.1891891891892,40.0 L 438.9189189189189,40.0 L 448.64864864864865,40.0 L 458.37837837837833,40.0 L 468.1081081081081,40.0 L 477.83783783783787,40.0 L 487.56756756756755,40.0 L 497.2972972972973,40.0 L 507.02702702702703,40.0 L 516.7567567567568,40.0 L 526.4864864864865,40.0 L 536.2162162162163,40.0 L 545.945945945946,40.0 L 555.6756756756757,40.0 L 565.4054054054054,40.0 L 575.1351351351351,40.0 L 584.8648648648649,40.0 L 594.5945945945946,40.0 L 604.3243243243243,40.0 L 614.0540540540541,40.0 L 623.7837837837839,40.0 L 633.5135135135135,40.0 L 643.2432432432432,40.0 L 652.9729729729729,40.0 L 662.7027027027027,40.0 L 672.4324324324324,40.0 L 682.1621621621622,40.0 L 691.8918918918919,40.0 L 701.6216216216217,40.0 L 711.3513513513514,40.0 L 721.081081081081,40.0 L 730.8108108108108,40.0 L 740.5405405405406,40.0 L 750.2702702702703,40.0 L 760.0,40.0" class="line"/>
  <circle cx="40.0" cy="101.53846153846155" class="point"/>
  <text x="40.0" y="375" class="label" text-anchor="middle">2025-11-11</text>
  <text x="40.0" y="96.53846153846155" class="label" text-anchor="middle">42</text>
  <circle cx="49.729729729729726" cy="101.53846153846155" class="point"/>
  <text x="49.729729729729726" y="375" class="label" text-anchor="middle">2025-11-12</text>
  <text x="49.729729729729726" y="96.53846153846155" class="label" text-anchor="middle">42</text>
  <circle cx="59.45945945945946" cy="101.53846153846155" class="point"/>
  <text x="59.45945945945946" y="375" class="label" text-anchor="middle">2025-11-13</text>
  <text x="59.45945945945946" y="96.53846153846155" class="label" text-anchor="middle">42</text>
  <circle cx="69.1891891891892" cy="101.53846153846155" class="point"/>
  <text x="69.1891891891892" y="375" class="label" text-anchor="middle">2025-11-14</text>
  <text x="69.1891891891892" y="96.53846153846155" class="label" text-anchor="middle">42</text>
  <circle cx="78.91891891891892" cy="101.53846153846155" class="point"/>
  <text x="78.91891891891892" y="375" class="label" text-anchor="middle">2025-11-15</text>
  <text x="78.91891891891892" y="96.53846153846155" class="label" text-anchor="middle">42</text>
  <circle cx="88.64864864864865" cy="101.53846153846155" class="point"/>
  <text x="88.64864864864865" y="375" class="label" text-anchor="middle">2025-11-16</text>
  <text x="88.64864864864865" y="96.53846153846155" class="label" text-anchor="middle">42</text>
  <circle cx="98.37837837837839" cy="101.53846153846155" class="point"/>
  <text x="98.37837837837839" y="375" class="label" text-anchor="middle">2025-11-17</text>
  <text x="98.37837837837839" y="96.53846153846155" class="label" text-anchor="middle">42</text>
  <circle cx="108.10810810810811" cy="101.53846153846155" class="point"/>
  <text x="108.10810810810811" y="375" class="label" text-anchor="middle">2025-11-18</text>
  <text x="108.10810810810811" y="96.53846153846155" class="label" text-anchor="middle">42</text>
  <circle cx="117.83783783783784" cy="101.53846153846155" class="point"/>
  <text x="117.83783783783784" y="375" class="label" text-anchor="middle">2025-11-19</text>
  <text x="117.83783783783784" y="96.53846153846155" class="label" text-anchor="middle">42</text>
  <circle cx="127.56756756756758" cy="101.53846153846155" class="point"/>
  <text x="127.56756756756758" y="375" class="label" text-anchor="middle">2025-11-20</text>
  <text x="127.56756756756758" y="96.53846153846155" class="label" text-anchor="middle">42</text>
  <circle cx="137.2972972972973" cy="101.53846153846155" class="point"/>
  <text x="137.2972972972973" y="375" class="label" text-anchor="middle">2025-11-21</text>
  <text x="137.2972972972973" y="96.53846153846155" class="label" text-anchor="middle">42</text>
  <circle cx="147.02702702702703" cy="101.53846153846155" class="point"/>
  <text x="147.02702702702703" y="375" class="label" text-anchor="middle">2025-11-22</text>
  <text x="147.02702702702703" y="96.53846153846155" class="label" text-anchor="middle">42</text>
  <circle cx="156.75675675675677" cy="101.53846153846155" class="point"/>
  <text x="156.75675675675677" y="375" class="label" text-anchor="middle">2025-11-23</text>
  <text x="156.75675675675677" y="96.53846153846155" class="label" text-anchor="middle">42</text>
  <circle cx="166.4864864864865" cy="101.53846153846155" class="point"/>
  <text x="166.4864864864865" y="375" class="label" text-anchor="middle">2025-11-24</text>
  <text x="166.4864864864865" y="96.53846153846155" class="label" text-anchor="middle">42</text>
  <circle cx="176.21621621621622" cy="101.53846153846155" class="point"/>
  <text x="176.21621621621622" y="375" class="label" text-anchor="middle">2025-11-25</text>
  <text x="176.21621621621622" y="96.53846153846155" class="label" text-anchor="middle">42</text>
  <circle cx="185.94594594594597" cy="101.53846153846155" class="point"/>
  <text x="185.94594594594597" y="375" class="label" text-anchor="middle">2025-11-26</text>
  <text x="185.94594594594597" y="96.53846153846155" class="label" text-anchor="middle">42</text>
  <circle cx="195.67567567567568" cy="101.53846153846155" class="point"/>
  <text x="195.67567567567568" y="375" class="label" text-anchor="middle">2025-11-27</text>
  <text x="195.67567567567568" y="96.53846153846155" class="label" text-anchor="middle">42</text>
  <circle cx="205.40540540540542" cy="101.53846153846155" class="point"/>
  <text x="205.40540540540542" y="375" class="label" text-anchor="middle">2025-11-28</text>
  <text x="205.40540540540542" y="96.53846153846155" class="label" text-anchor="middle">42</text>
  <circle cx="215.13513513513516" cy="101.53846153846155" class="point"/>
  <text x="215.13513513513516" y="375" class="label" text-anchor="middle">2025-11-29</text>
  <text x="215.13513513513516" y="96.53846153846155" class="label" text-anchor="middle">42</text>
  <circle cx="224.86486486486484" cy="101.53846153846155" class="point"/>
  <text x="224.86486486486484" y="375" class="label" text-anchor="middle">2025-11-30</text>
  <text x="224.86486486486484" y="96.53846153846155" class="label" text-anchor="middle">42</text>
  <circle cx="234.5945945945946" cy="101.53846153846155" class="point"/>
  <text x="234.5945945945946" y="375" class="label" text-anchor="middle">2025-12-01</text>
  <text x="234.5945945945946" y="96.53846153846155" class="label" text-anchor="middle">42</text>
  <circle cx="244.32432432432432" cy="101.53846153846155" class="point"/>
  <text x="244.32432432432432" y="375" class="label" text-anchor="middle">2025-12-02</text>
  <text x="244.32432432432432" y="96.53846153846155" class="label" text-anchor="middle">42</text>
  <circle cx="254.05405405405406" cy="101.53846153846155" class="point"/>
  <text x="254.05405405405406" y="375" class="label" text-anchor="middle">2025-12-03</text>
  <text x="254.05405405405406" y="96.53846153846155" class="label" text-anchor="middle">42</text>
  <circle cx="263.78378378378375" cy="101.53846153846155" class="point"/>
  <text x="263.78378378378375" y="375" class="label" text-anchor="middle">2025-12-04</text>
  <text x="263.78378378378375" y="96.53846153846155" class="label" text-anchor="middle">42</text>
  <circle cx="273.51351351351354" cy="101.53846153846155" class="point"/>
  <text x="273.51351351351354" y="375" class="label" text-anchor="middle">2025-12-05</text>
  <text x="273.51351351351354" y="96.53846153846155" class="label" text-anchor="middle">42</text>
  <circle cx="283.2432432432432" cy="101.53846153846155" class="point"/>
  <text x="283.2432432432432" y="375" class="label" text-anchor="middle">2025-12-06</text>
  <text x="283.2432432432432" y="96.53846153846155" class="label" text-anchor="middle">42</text>
  <circle cx="292.972972972973" cy="101.53846153846155" class="point"/>
  <text x="292.972972972973" y="375" class="label" text-anchor="middle">2025-12-07</text>
  <text x="292.972972972973" y="96.53846153846155" class="label" text-anchor="middle">42</text>
  <circle cx="302.7027027027027" cy="40.0" class="point"/>
  <text x="302.7027027027027" y="375" class="label" text-anchor="middle">2025-12-08</text>
  <text x="302.7027027027027" y="35.0" class="label" text-anchor="middle">52</text>
  <circle cx="312.43243243243245" cy="40.0" class="point"/>
  <text x="312.43243243243245" y="375" class="label" text-anchor="middle">2025-12-09</text>
  <text x="312.43243243243245" y="35.0" class="label" text-anchor="middle">52</text>
  <circle cx="322.16216216216213" cy="40.0" class="point"/>
  <text x="322.16216216216213" y="375" class="label" text-anchor="middle">2025-12-10</text>
  <text x="322.16216216216213" y="35.0" class="label" text-anchor="middle">52</text>
  <circle cx="331.89189189189193" cy="40.0" class="point"/>
  <text x="331.89189189189193" y="375" class="label" text-anchor="middle">2025-12-11</text>
  <text x="331.89189189189193" y="35.0" class="label" text-anchor="middle">52</text>
  <circle cx="341.6216216216216" cy="40.0" class="point"/>
  <text x="341.6216216216216" y="375" class="label" text-anchor="middle">2025-12-12</text>
  <text x="341.6216216216216" y="35.0" class="label" text-anchor="middle">52</text>
  <circle cx="351.35135135135135" cy="40.0" class="point"/>
  <text x="351.35135135135135" y="375" class="label" text-anchor="middle">2025-12-13</text>
  <text x="351.35135135135135" y="35.0" class="label" text-anchor="middle">52</text>
  <circle cx="361.0810810810811" cy="40.0" class="point"/>
  <text x="361.0810810810811" y="375" class="label" text-anchor="middle">2025-12-14</text>
  <text x="361.0810810810811" y="35.0" class="label" text-anchor="middle">52</text>
  <circle cx="370.81081081081084" cy="40.0" class="point"/>
  <text x="370.81081081081084" y="375" class="label" text-anchor="middle">2025-12-15</text>
  <text x="370.81081081081084" y="35.0" class="label" text-anchor="middle">52</text>
  <circle cx="380.5405405405405" cy="40.0" class="point"/>
  <text x="380.5405405405405" y="375" class="label" text-anchor="middle">2025-12-16</text>
  <text x="380.5405405405405" y="35.0" class="label" text-anchor="middle">52</text>
  <circle cx="390.2702702702703" cy="40.0" class="point"/>
  <text x="390.2702702702703" y="375" class="label" text-anchor="middle">2025-12-17</text>
  <text x="390.2702702702703" y="35.0" class="label" text-anchor="middle">52</text>
  <circle cx="400.0" cy="40.0" class="point"/>
  <text x="400.0" y="375" class="label" text-anchor="middle">2025-12-18</text>
  <text x="400.0" y="35.0" class="label" text-anchor="middle">52</text>
  <circle cx="409.7297297297297" cy="40.0" class="point"/>
  <text x="409.7297297297297" y="375" class="label" text-anchor="middle">2025-12-19</text>
  <text x="409.7297297297297" y="35.0" class="label" text-anchor="middle">52</text>
  <circle cx="419.4594594594594" cy="40.0" class="point"/>
  <text x="419.4594594594594" y="375" class="label" text-anchor="middle">2025-12-20</text>
  <text x="419.4594594594594" y="35.0" class="label" text-anchor="middle">52</text>
  <circle cx="429.1891891891892" cy="40.0" class="point"/>
  <text x="429.1891891891892" y="375" class="label" text-anchor="middle">2025-12-21</text>
  <text x="429.1891891891892" y="35.0" class="label" text-anchor="middle">52</text>
  <circle cx="438.9189189189189" cy="40.0" class="point"/>
  <text x="438.9189189189189" y="375" class="label" text-anchor="middle">2025-12-22</text>
  <text x="438.9189189189189" y="35.0" class="label" text-anchor="middle">52</text>
  <circle cx="448.64864864864865" cy="40.0" class="point"/>
  <text x="448.64864864864865" y="375" class="label" text-anchor="middle">2025-12-23</text>
  <text x="448.64864864864865" y="35.0" class="label" text-anchor="middle">52</text>
  <circle cx="458.37837837837833" cy="40.0" class="point"/>
  <text x="458.37837837837833" y="375" class="label" text-anchor="middle">2025-12-24</text>
  <text x="458.37837837837833" y="35.0" class="label" text-anchor="middle">52</text>
  <circle cx="468.1081081081081" cy="40.0" class="point"/>
  <text x="468.1081081081081" y="375" class="label" text-anchor="middle">2025-12-25</text>
  <text x="468.1081081081081" y="35.0" class="label" text-anchor="middle">52</text>
  <circle cx="477.83783783783787" cy="40.0" class="point"/>
  <text x="477.83783783783787" y="375" class="label" text-anchor="middle">2025-12-26</text>
  <text x="477.83783783783787" y="35.0" class="label" text-anchor="middle">52</text>
  <circle cx="487.56756756756755" cy="40.0" class="point"/>
  <text x="487.56756756756755" y="375" class="label" text-anchor="middle">2025-12-27</text>
  <text x="487.56756756756755" y="35.0" class="label" text-anchor="middle">52</text>
  <circle cx="497.2972972972973" cy="40.0" class="point"/>
  <text x="497.2972972972973" y="375" class="label" text-anchor="middle">2025-12-28</text>
  <text x="497.2972972972973" y="35.0" class="label" text-anchor="middle">52</text>
  <circle cx="507.02702702702703" cy="40.0" class="point"/>
  <text x="507.02702702702703" y="375" class="label" text-anchor="middle">2025-12-29</text>
  <text x="507.02702702702703" y="35.0" class="label" text-anchor="middle">52</text>
  <circle cx="516.7567567567568" cy="40.0" class="point"/>
  <text x="516.7567567567568" y="375" class="label" text-anchor="middle">2025-12-30</text>
  <text x="516.7567567567568" y="35.0" class="label" text-anchor="middle">52</text>
  <circle cx="526.4864864864865" cy="40.0" class="point"/>
  <text x="526.4864864864865" y="375" class="label" text-anchor="middle">2025-12-31</text>
  <text x="526.4864864864865" y="35.0" class="label" text-anchor="middle">52</text>
  <circle cx="536.2162162162163" cy="40.0" class="point"/>
  <text x="536.2162162162163" y="375" class="label" text-anchor="middle">2026-01-01</text>
  <text x="536.2162162162163" y="35.0" class="label" text-anchor="middle">52</text>
  <circle cx="545.945945945946" cy="40.0" class="point"/>
  <text x="545.945945945946" y="375" class="label" text-anchor="middle">2026-01-02</text>
  <text x="545.945945945946" y="35.0" class="label" text-anchor="middle">52</text>
  <circle cx="555.6756756756757" cy="40.0" class="point"/>
  <text x="555.6756756756757" y="375" class="label" text-anchor="middle">2026-01-03</text>
  <text x="555.6756756756757" y="35.0" class="label" text-anchor="middle">52</text>
  <circle cx="565.4054054054054" cy="40.0" class="point"/>
  <text x="565.4054054054054" y="375" class="label" text-anchor="middle">2026-01-04</text>
  <text x="565.4054054054054" y="35.0" class="label" text-anchor="middle">52</text>
  <circle cx="575.1351351351351" cy="40.0" class="point"/>
  <text x="575.1351351351351" y="375" class="label" text-anchor="middle">2026-01-05</text>
  <text x="575.1351351351351" y="35.0" class="label" text-anchor="middle">52</text>
  <circle cx="584.8648648648649" cy="40.0" class="point"/>
  <text x="584.8648648648649" y="375" class="label" text-anchor="middle">2026-01-06</text>
  <text x="584.8648648648649" y="35.0" class="label" text-anchor="middle">52</text>
  <circle cx="594.5945945945946" cy="40.0" class="point"/>
  <text x="594.5945945945946" y="375" class="label" text-anchor="middle">2026-01-07</text>
  <text x="594.5945945945946" y="35.0" class="label" text-anchor="middle">52</text>
  <circle cx="604.3243243243243" cy="40.0" class="point"/>
  <text x="604.3243243243243" y="375" class="label" text-anchor="middle">2026-01-08</text>
  <text x="604.3243243243243" y="35.0" class="label" text-anchor="middle">52</text>
  <circle cx="614.0540540540541" cy="40.0" class="point"/>
  <text x="614.0540540540541" y="375" class="label" text-anchor="middle">2026-01-09</text>
  <text x="614.0540540540541" y="35.0" class="label" text-anchor="middle">52</text>
  <circle cx="623.7837837837839" cy="40.0" class="point"/>
  <text x="623.7837837837839" y="375" class="label" text-anchor="middle">2026-01-10</text>
  <text x="623.7837837837839" y="35.0" class="label" text-anchor="middle">52</text>
  <circle cx="633.5135135135135" cy="40.0" class="point"/>
  <text x="633.5135135135135" y="375" class="label" text-anchor="middle">2026-01-11</text>
  <text x="633.5135135135135" y="35.0" class="label" text-anchor="middle">52</text>
  <circle cx="643.2432432432432" cy="40.0" class="point"/>
  <text x="643.2432432432432" y="375" class="label" text-anchor="middle">2026-01-12</text>
  <text x="643.2432432432432" y="35.0" class="label" text-anchor="middle">52</text>
  <circle cx="652.9729729729729" cy="40.0" class="point"/>
  <text x="652.9729729729729" y="375" class="label" text-anchor="middle">2026-01-13</text>
  <text x="652.9729729729729" y="35.0" class="label" text-anchor="middle">52</text>
  <circle cx="662.7027027027027" cy="40.0" class="point"/>
  <text x="662.7027027027027" y="375" class="label" text-anchor="middle">2026-01-14</text>
  <text x="662.7027027027027" y="35.0" class="label" text-anchor="middle">52</text>
  <circle cx="672.4324324324324" cy="40.0" class="point"/>
  <text x="672.4324324324324" y="375" class="label" text-anchor="middle">2026-01-15</text>
  <text x="672.4324324324324" y="35.0" class="label" text-anchor="middle">52</text>
  <circle cx="682.1621621621622" cy="40.0" class="point"/>
  <text x="682.1621621621622" y="375" class="label" text-anchor="middle">2026-01-16</text>
  <text x="682.1621621621622" y="35.0" class="label" text-anchor="middle">52</text>
  <circle cx="691.8918918918919" cy="40.0" class="point"/>
  <text x="691.8918918918919" y="375" class="label" text-anchor="middle">2026-01-17</text>
  <text x="691.8918918918919" y="35.0" class="label" text-anchor="middle">52</text>
  <circle cx="701.6216216216217" cy="40.0" class="point"/>
  <text x="701.6216216216217" y="375" class="label" text-anchor="middle">2026-01-18</text>
  <text x="701.6216216216217" y="35.0" class="label" text-anchor="middle">52</text>
  <circle cx="711.3513513513514" cy="40.0" class="point"/>
  <text x="711.3513513513514" y="375" class="label" text-anchor="middle">2026-01-19</text>
  <text x="711.3513513513514" y="35.0" class="label" text-anchor="middle">52</text>
  <circle cx="721.081081081081" cy="40.0" class="point"/>
  <text x="721.081081081081" y="375" class="label" text-anchor="middle">2026-01-20</text>
  <text x="721.081081081081" y="35.0" class="label" text-anchor="middle">52</text>
  <circle cx="730.8108108108108" cy="40.0" class="point"/>
  <text x="730.8108108108108" y="375" class="label" text-anchor="middle">2026-01-21</text>
  <text x="730.8108108108108" y="35.0" class="label" text-anchor="middle">52</text>
  <circle cx="740.5405405405406" cy="40.0" class="point"/>
  <text x="740.5405405405406" y="375" class="label" text-anchor="middle">2026-01-22</text>
  <text x="740.5405405405406" y="35.0" class="label" text-anchor="middle">52</text>
  <circle cx="750.2702702702703" cy="40.0" class="point"/>
  <text x="750.2702702702703" y="375" class="label" text-anchor="middle">2026-01-23</text>
  <text x="750.2702702702703" y="35.0" class="label" text-anchor="middle">52</text>
  <circle cx="760.0" cy="40.0" class="point"/>
  <text x="760.0" y="375" class="label" text-anchor="middle">2026-01-24</text>
  <text x="760.0" y="35.0" class="label" text-anchor="middle">52</text>
  <text x="30" y="363.0" class="label" text-anchor="end">0</text>
  <text x="30" y="301.46153846153845" class="label" text-anchor="end">10</text>
  <text x="30" y="239.9230769230769" class="label" text-anchor="end">20</text>
  <text x="30" y="178.38461538461542" class="label" text-anchor="end">30</text>
  <text x="30" y="116.84615384615384" class="label" text-anchor="end">40</text>
  <text x="30" y="55.30769230769232" class="label" text-anchor="end">50</text>
</svg>