<svg xmlns="http://www.w3.org/2000/svg" width="800" height="400" viewBox="0 0 800 400">
  <style>
    .axis{stroke:#666;stroke-width:1}
    .line{stroke:#4a9;stroke-width:2;fill:none}
    .point{fill:#4a9;r:4}
    .label{font:10px sans-serif;fill:#aaa}
    .title{font:14px sans-serif;fill:#333}
  </style>
  <text x="400" y="20" class="title" text-anchor="middle">OPIC Field Growth Timeline</text>
  <line x1="40" y1="40" x2="40" y2="360" class="axis"/>
  <line x1="40" y1="360" x2="760" y2="360" class="axis"/>
  <path d="M 40.0,101.53846153846155 L 56.0,101.53846153846155 L 72.0,101.53846153846155 L 88.0,101.53846153846155 L 104.0,101.53846153846155 L 120.0,101.53846153846155 L 136.0,101.53846153846155 L 152.0,101.53846153846155 L 168.0,101.53846153846155 L 184.0,101.53846153846155 L 200.0,101.53846153846155 L 216.0,101.53846153846155 L 232.0,101.53846153846155 L 247.99999999999997,101.53846153846155 L 264.0,101.53846153846155 L 280.0,101.53846153846155 L 296.0,101.53846153846155 L 312.0,101.53846153846155 L 328.0,101.53846153846155 L 344.0,101.53846153846155 L 360.0,101.53846153846155 L 376.0,101.53846153846155 L 392.0,101.53846153846155 L 408.0,101.53846153846155 L 424.0,101.53846153846155 L 440.0,101.53846153846155 L 455.99999999999994,101.53846153846155 L 472.0,40.0 L 488.0,40.0 L 504.00000000000006,40.0 L 520.0,40.0 L 536.0,40.0 L 552.0,40.0 L 568.0,40.0 L 584.0,40.0 L 600.0,40.0 L 616.0,40.0 L 632.0,40.0 L 648.0,40.0 L 664.0,40.0 L 680.0,40.0 L 696.0,40.0 L 712.0,40.0 L 728.0,40.0 L 744.0,40.0 L 760.0,40.0" class="line"/>
  <circle cx="40.0" cy="101.53846153846155" class="point"/>
  <text x="40.0" y="375" class="label" text-anchor="middle">2025-11-11</text>
  <text x="40.0" y="96.53846153846155" class="label" text-anchor="middle">42</text>
  <circle cx="56.0" cy="101.53846153846155" class="point"/>
  <text x="56.0" y="375" class="label" text-anchor="middle">2025-11-12</text>
  <text x="56.0" y="96.53846153846155" class="label" text-anchor="middle">42</text>
  <circle cx="72.0" cy="101.53846153846155" class="point"/>
  <text x="72.0" y="375" class="label" text-anchor="middle">2025-11-13</text>
  <text x="72.0" y="96.53846153846155" class="label" text-anchor="middle">42</text>
  <circle cx="88.0" cy="101.53846153846155" class="point"/>
  <text x="88.0" y="375" class="label" text-anchor="middle">2025-11-14</text>
  <text x="88.0" y="96.53846153846155" class="label" text-anchor="middle">42</text>
  <circle cx="104.0" cy="101.53846153846155" class="point"/>
  <text x="104.0" y="375" class="label" text-anchor="middle">2025-11-15</text>
  <text x="104.0" y="96.53846153846155" class="label" text-anchor="middle">42</text>
  <circle cx="120.0" cy="101.53846153846155" class="point"/>
  <text x="120.0" y="375" class="label" text-anchor="middle">2025-11-16</text>
  <text x="120.0" y="96.53846153846155" class="label" text-anchor="middle">42</text>
  <circle cx="136.0" cy="101.53846153846155" class="point"/>
  <text x="136.0" y="375" class="label" text-anchor="middle">2025-11-17</text>
  <text x="136.0" y="96.53846153846155" class="label" text-anchor="middle">42</text>
  <circle cx="152.0" cy="101.53846153846155" class="point"/>
  <text x="152.0" y="375" class="label" text-anchor="middle">2025-11-18</text>
  <text x="152.0" y="96.53846153846155" class="label" text-anchor="middle">42</text>
  <circle cx="168.0" cy="101.53846153846155" class="point"/>
  <text x="168.0" y="375" class="label" text-anchor="middle">2025-11-19</text>
  <text x="168.0" y="96.53846153846155" class="label" text-anchor="middle">42</text>
  <circle cx="184.0" cy="101.53846153846155" class="point"/>
  <text x="184.0" y="375" class="label" text-anchor="middle">2025-11-20</text>
  <text x="184.0" y="96.53846153846155" class="label" text-anchor="middle">42</text>
  <circle cx="200.0" cy="101.53846153846155" class="point"/>
  <text x="200.0" y="375" class="label" text-anchor="middle">2025-11-21</text>
  <text x="200.0" y="96.53846153846155" class="label" text-anchor="middle">42</text>
  <circle cx="216.0" cy="101.53846153846155" class="point"/>
  <text x="216.0" y="375" class="label" text-anchor="middle">2025-11-22</text>
  <text x="216.0" y="96.53846153846155" class="label" text-anchor="middle">42</text>
  <circle cx="232.0" cy="101.53846153846155" class="point"/>
  <text x="232.0" y="375" class="label" text-anchor="middle">2025-11-23</text>
  <text x="232.0" y="96.53846153846155" class="label" text-anchor="middle">42</text>
  <circle cx="247.99999999999997" cy="101.53846153846155" class="point"/>
  <text x="247.99999999999997" y="375" class="label" text-anchor="middle">2025-11-24</text>
  <text x="247.99999999999997" y="96.53846153846155" class="label" text-anchor="middle">42</text>
  <circle cx="264.0" cy="101.53846153846155" class="point"/>
  <text x="264.0" y="375" class="label" text-anchor="middle">2025-11-25</text>
  <text x="264.0" y="96.53846153846155" class="label" text-anchor="middle">42</text>
  <circle cx="280.0" cy="101.53846153846155" class="point"/>
  <text x="280.0" y="375" class="label" text-anchor="middle">2025-11-26</text>
  <text x="280.0" y="96.53846153846155" class="label" text-anchor="middle">42</text>
  <circle cx="296.0" cy="101.53846153846155" class="point"/>
  <text x="296.0" y="375" class="label" text-anchor="middle">2025-11-27</text>
  <text x="296.0" y="96.53846153846155" class="label" text-anchor="middle">42</text>
  <circle cx="312.0" cy="101.53846153846155" class="point"/>
  <text x="312.0" y="375" class="label" text-anchor="middle">2025-11-28</text>
  <text x="312.0" y="96.53846153846155" class="label" text-anchor="middle">42</text>
  <circle cx="328.0" cy="101.53846153846155" class="point"/>
  <text x="328.0" y="375" class="label" text-anchor="middle">2025-11-29</text>
  <text x="328.0" y="96.53846153846155" class="label" text-anchor="middle">42</text>
  <circle cx="344.0" cy="101.53846153846155" class="point"/>
  <text x="344.0" y="375" class="label" text-anchor="middle">2025-11-30</text>
  <text x="344.0" y="96.53846153846155" class="label" text-anchor="middle">42</text>
  <circle cx="360.0" cy="101.53846153846155" class="point"/>
  <text x="360.0" y="375" class="label" text-anchor="middle">2025-12-01</text>
  <text x="360.0" y="96.53846153846155" class="label" text-anchor="middle">42</text>
  <circle cx="376.0" cy="101.53846153846155" class="point"/>
  <text x="376.0" y="375" class="label" text-anchor="middle">2025-12-02</text>
  <text x="376.0" y="96.53846153846155" class="label" text-anchor="middle">42</text>
  <circle cx="392.0" cy="101.53846153846155" class="point"/>
  <text x="392.0" y="375" class="label" text-anchor="middle">2025-12-03</text>
  <text x="392.0" y="96.53846153846155" class="label" text-anchor="middle">42</text>
  <circle cx="408.0" cy="101.53846153846155" class="point"/>
  <text x="408.0" y="375" class="label" text-anchor="middle">2025-12-04</text>
  <text x="408.0" y="96.53846153846155" class="label" text-anchor="middle">42</text>
  <circle cx="424.0" cy="101.53846153846155" class="point"/>
  <text x="424.0" y="375" class="label" text-anchor="middle">2025-12-05</text>
  <text x="424.0" y="96.53846153846155" class="label" text-anchor="middle">42</text>
  <circle cx="440.0" cy="101.53846153846155" class="point"/>
  <text x="440.0" y="375" class="label" text-anchor="middle">2025-12-06</text>
  <text x="440.0" y="96.53846153846155" class="label" text-anchor="middle">42</text>
  <circle cx="455.99999999999994" cy="101.53846153846155" class="point"/>
  <text x="455.99999999999994" y="375" class="label" text-anchor="middle">2025-12-07</text>
  <text x="455.99999999999994" y="96.53846153846155" class="label" text-anchor="middle">42</text>
  <circle cx="472.0" cy="40.0" class="point"/>
  <text x="472.0" y="375" class="label" text-anchor="middle">2025-12-08</text>
  <text x="472.0" y="35.0" class="label" text-anchor="middle">52</text>
  <circle cx="488.0" cy="40.0" class="point"/>
  <text x="488.0" y="375" class="label" text-anchor="middle">2025-12-09</text>
  <text x="488.0" y="35.0" class="label" text-anchor="middle">52</text>
  <circle cx="504.00000000000006" cy="40.0" class="point"/>
  <text x="504.00000000000006" y="375" class="label" text-anchor="middle">2025-12-10</text>
  <text x="504.00000000000006" y="35.0" class="label" text-anchor="middle">52</text>
  <circle cx="520.0" cy="40.0" class="point"/>
  <text x="520.0" y="375" class="label" text-anchor="middle">2025-12-11</text>
  <text x="520.0" y="35.0" class="label" text-anchor="middle">52</text>
  <circle cx="536.0" cy="40.0" class="point"/>
  <text x="536.0" y="375" class="label" text-anchor="middle">2025-12-12</text>
  <text x="536.0" y="35.0" class="label" text-anchor="middle">52</text>
  <circle cx="552.0" cy="40.0" class="point"/>
  <text x="552.0" y="375" class="label" text-anchor="middle">2025-12-13</text>
  <text x="552.0" y="35.0" class="label" text-anchor="middle">52</text>
  <circle cx="568.0" cy="40.0" class="point"/>
  <text x="568.0" y="375" class="label" text-anchor="middle">2025-12-14</text>
  <text x="568.0" y="35.0" class="label" text-anchor="middle">52</text>
  <circle cx="584.0" cy="40.0" class="point"/>
  <text x="584.0" y="375" class="label" text-anchor="middle">2025-12-15</text>
  <text x="584.0" y="35.0" class="label" text-anchor="middle">52</text>
  <circle cx="600.0" cy="40.0" class="point"/>
  <text x="600.0" y="375" class="label" text-anchor="middle">2025-12-16</text>
  <text x="600.0" y="35.0" class="label" text-anchor="middle">52</text>
  <circle cx="616.0" cy="40.0" class="point"/>
  <text x="616.0" y="375" class="label" text-anchor="middle">2025-12-17</text>
  <text x="616.0" y="35.0" class="label" text-anchor="middle">52</text>
  <circle cx="632.0" cy="40.0" class="point"/>
  <text x="632.0" y="375" class="label" text-anchor="middle">2025-12-18</text>
  <text x="632.0" y="35.0" class="label" text-anchor="middle">52</text>
  <circle cx="648.0" cy="40.0" class="point"/>
  <text x="648.0" y="375" class="label" text-anchor="middle">2025-12-19</text>
  <text x="648.0" y="35.0" class="label" text-anchor="middle">52</text>
  <circle cx="664.0" cy="40.0" class="point"/>
  <text x="664.0" y="375" class="label" text-anchor="middle">2025-12-20</text>
  <text x="664.0" y="35.0" class="label" text-anchor="middle">52</text>
  <circle cx="680.0" cy="40.0" class="point"/>
  <text x="680.0" y="375" class="label" text-anchor="middle">2025-12-21</text>
  <text x="680.0" y="35.0" class="label" text-anchor="middle">52</text>
  <circle cx="696.0" cy="40.0" class="point"/>
  <text x="696.0" y="375" class="label" text-anchor="middle">2025-12-22</text>
  <text x="696.0" y="35.0" class="label" text-anchor="middle">52</text>
  <circle cx="712.0" cy="40.0" class="point"/>
  <text x="712.0" y="375" class="label" text-anchor="middle">2025-12-23</text>
  <text x="712.0" y="35.0" class="label" text-anchor="middle">52</text>
  <circle cx="728.0" cy="40.0" class="point"/>
  <text x="728.0" y="375" class="label" text-anchor="middle">2025-12-24</text>
  <text x="728.0" y="35.0" class="label" text-anchor="middle">52</text>
  <circle cx="744.0" cy="40.0" class="point"/>
  <text x="744.0" y="375" class="label" text-anchor="middle">2025-12-25</text>
  <text x="744.0" y="35.0" class="label" text-anchor="middle">52</text>
  <circle cx="760.0" cy="40.0" class="point"/>
  <text x="760.0" y="375" class="label" text-anchor="middle">2025-12-26</text>
  <text x="760.0" y="35.0" class="label" text-anchor="middle">52</text>
  <text x="30" y="363.0" class="label" text-anchor="end">0</text>
  <text x="30" y="301.46153846153845" class="label" text-anchor="end">10</text>
  <text x="30" y="239.9230769230769" class="label" text-anchor="end">20</text>
  <text x="30" y="178.38461538461542" class="label" text-anchor="end">30</text>
  <text x="30" y="116.84615384615384" class="label" text-anchor="end">40</text>
  <text x="30" y="55.30769230769232" class="label" text-anchor="end">50</text>
</svg>