<svg xmlns="http://www.w3.org/2000/svg" width="800" height="400" viewBox="0 0 800 400">
  <style>
    .axis{stroke:#666;stroke-width:1}
    .line{stroke:#4a9;stroke-width:2;fill:none}
    .point{fill:#4a9;r:4}
    .label{font:10px sans-serif;fill:#aaa}
    .title{font:14px sans-serif;fill:#333}
  </style>
  <text x="400" y="20" class="title" text-anchor="middle">OPIC Field Growth Timeline</text>
  <line x1="40" y1="40" x2="40" y2="360" class="axis"/>
  <line x1="40" y1="360" x2="760" y2="360" class="axis"/>
  <path d="M 40.0,101.53846153846155 L 44.645161290322584,101.53846153846155 L 49.29032258064516,101.53846153846155 L 53.935483870967744,101.53846153846155 L 58.58064516129032,101.53846153846155 L 63.225806451612904,101.53846153846155 L 67.87096774193549,101.53846153846155 L 72.51612903225806,101.53846153846155 L 77.16129032258064,101.53846153846155 L 81.80645161290323,101.53846153846155 L 86.45161290322581,101.53846153846155 L 91.09677419354838,101.53846153846155 L 95.74193548387098,101.53846153846155 L 100.38709677419355,101.53846153846155 L 105.03225806451613,101.53846153846155 L 109.6774193548387,101.53846153846155 L 114.3225806451613,101.53846153846155 L 118.96774193548387,101.53846153846155 L 123.61290322580645,101.53846153846155 L 128.25806451612902,101.53846153846155 L 132.90322580645162,101.53846153846155 L 137.5483870967742,101.53846153846155 L 142.19354838709677,101.53846153846155 L 146.83870967741933,101.53846153846155 L 151.48387096774195,101.53846153846155 L 156.1290322580645,101.53846153846155 L 160.7741935483871,101.53846153846155 L 165.4193548387097,40.0 L 170.06451612903226,40.0 L 174.70967741935485,40.0 L 179.3548387096774,40.0 L 184.0,40.0 L 188.6451612903226,40.0 L 193.29032258064515,40.0 L 197.93548387096774,40.0 L 202.5806451612903,40.0 L 207.2258064516129,40.0 L 211.8709677419355,40.0 L 216.51612903225805,40.0 L 221.16129032258064,40.0 L 225.80645161290323,40.0 L 230.45161290322582,40.0 L 235.0967741935484,40.0 L 239.74193548387095,40.0 L 244.38709677419354,40.0 L 249.03225806451616,40.0 L 253.6774193548387,40.0 L 258.3225806451613,40.0 L 262.9677419354839,40.0 L 267.61290322580646,40.0 L 272.258064516129,40.0 L 276.9032258064516,40.0 L 281.5483870967742,40.0 L 286.19354838709677,40.0 L 290.8387096774194,40.0 L 295.48387096774195,40.0 L 300.1290322580645,40.0 L 304.7741935483871,40.0 L 309.4193548387097,40.0 L 314.06451612903226,40.0 L 318.7096774193548,40.0 L 323.35483870967744,40.0 L 328.0,40.0 L 332.64516129032256,40.0 L 337.2903225806452,40.0 L 341.93548387096774,40.0 L 346.5806451612903,40.0 L 351.2258064516129,40.0 L 355.8709677419355,40.0 L 360.5161290322581,40.0 L 365.1612903225806,40.0 L 369.80645161290323,40.0 L 374.4516129032258,40.0 L 379.09677419354836,40.0 L 383.741935483871,40.0 L 388.38709677419354,40.0 L 393.0322580645161,40.0 L 397.6774193548387,40.0 L 402.3225806451613,40.0 L 406.96774193548384,40.0 L 411.61290322580646,40.0 L 416.258064516129,40.0 L 420.90322580645164,40.0 L 425.5483870967742,40.0 L 430.1935483870968,40.0 L 434.83870967741933,40.0 L 439.4838709677419,40.0 L 444.1290322580645,40.0 L 448.7741935483871,40.0 L 453.4193548387097,40.0 L 458.0645161290323,40.0 L 462.7096774193548,40.0 L 467.3548387096774,40.0 L 472.0,40.0 L 476.64516129032256,40.0 L 481.2903225806452,40.0 L 485.93548387096774,40.0 L 490.58064516129036,40.0 L 495.22580645161287,40.0 L 499.8709677419355,40.0 L 504.51612903225805,40.0 L 509.16129032258067,40.0 L 513.8064516129032,40.0 L 518.4516129032259,40.0 L 523.0967741935484,40.0 L 527.741935483871,40.0 L 532.3870967741935,40.0 L 537.0322580645161,40.0 L 541.6774193548388,40.0 L 546.3225806451612,40.0 L 550.9677419354839,40.0 L 555.6129032258065,40.0 L 560.258064516129,40.0 L 564.9032258064516,40.0 L 569.5483870967741,40.0 L 574.1935483870968,40.0 L 578.8387096774194,40.0 L 583.483870967742,40.0 L 588.1290322580645,40.0 L 592.7741935483871,40.0 L 597.4193548387096,40.0 L 602.0645161290322,40.0 L 606.7096774193549,40.0 L 611.3548387096774,40.0 L 616.0,40.0 L 620.6451612903226,40.0 L 625.2903225806451,40.0 L 629.9354838709677,40.0 L 634.5806451612904,40.0 L 639.2258064516129,40.0 L 643.8709677419355,40.0 L 648.516129032258,40.0 L 653.1612903225806,40.0 L 657.8064516129032,40.0 L 662.4516129032259,40.0 L 667.0967741935484,40.0 L 671.741935483871,40.0 L 676.3870967741935,40.0 L 681.0322580645162,40.0 L 685.6774193548387,40.0 L 690.3225806451612,40.0 L 694.9677419354839,40.0 L 699.6129032258065,40.0 L 704.258064516129,40.0 L 708.9032258064516,40.0 L 713.5483870967741,40.0 L 718.1935483870967,40.0 L 722.8387096774194,40.0 L 727.483870967742,40.0 L 732.1290322580645,40.0 L 736.7741935483871,40.0 L 741.4193548387098,40.0 L 746.0645161290322,40.0 L 750.7096774193548,40.0 L 755.3548387096774,40.0 L 760.0,40.0" class="line"/>
  <circle cx="40.0" cy="101.53846153846155" class="point"/>
  <text x="40.0" y="375" class="label" text-anchor="middle">2025-11-11</text>
  <text x="40.0" y="96.53846153846155" class="label" text-anchor="middle">42</text>
  <circle cx="44.645161290322584" cy="101.53846153846155" class="point"/>
  <text x="44.645161290322584" y="375" class="label" text-anchor="middle">2025-11-12</text>
  <text x="44.645161290322584" y="96.53846153846155" class="label" text-anchor="middle">42</text>
  <circle cx="49.29032258064516" cy="101.53846153846155" class="point"/>
  <text x="49.29032258064516" y="375" class="label" text-anchor="middle">2025-11-13</text>
  <text x="49.29032258064516" y="96.53846153846155" class="label" text-anchor="middle">42</text>
  <circle cx="53.935483870967744" cy="101.53846153846155" class="point"/>
  <text x="53.935483870967744" y="375" class="label" text-anchor="middle">2025-11-14</text>
  <text x="53.935483870967744" y="96.53846153846155" class="label" text-anchor="middle">42</text>
  <circle cx="58.58064516129032" cy="101.53846153846155" class="point"/>
  <text x="58.58064516129032" y="375" class="label" text-anchor="middle">2025-11-15</text>
  <text x="58.58064516129032" y="96.53846153846155" class="label" text-anchor="middle">42</text>
  <circle cx="63.225806451612904" cy="101.53846153846155" class="point"/>
  <text x="63.225806451612904" y="375" class="label" text-anchor="middle">2025-11-16</text>
  <text x="63.225806451612904" y="96.53846153846155" class="label" text-anchor="middle">42</text>
  <circle cx="67.87096774193549" cy="101.53846153846155" class="point"/>
  <text x="67.87096774193549" y="375" class="label" text-anchor="middle">2025-11-17</text>
  <text x="67.87096774193549" y="96.53846153846155" class="label" text-anchor="middle">42</text>
  <circle cx="72.51612903225806" cy="101.53846153846155" class="point"/>
  <text x="72.51612903225806" y="375" class="label" text-anchor="middle">2025-11-18</text>
  <text x="72.51612903225806" y="96.53846153846155" class="label" text-anchor="middle">42</text>
  <circle cx="77.16129032258064" cy="101.53846153846155" class="point"/>
  <text x="77.16129032258064" y="375" class="label" text-anchor="middle">2025-11-19</text>
  <text x="77.16129032258064" y="96.53846153846155" class="label" text-anchor="middle">42</text>
  <circle cx="81.80645161290323" cy="101.53846153846155" class="point"/>
  <text x="81.80645161290323" y="375" class="label" text-anchor="middle">2025-11-20</text>
  <text x="81.80645161290323" y="96.53846153846155" class="label" text-anchor="middle">42</text>
  <circle cx="86.45161290322581" cy="101.53846153846155" class="point"/>
  <text x="86.45161290322581" y="375" class="label" text-anchor="middle">2025-11-21</text>
  <text x="86.45161290322581" y="96.53846153846155" class="label" text-anchor="middle">42</text>
  <circle cx="91.09677419354838" cy="101.53846153846155" class="point"/>
  <text x="91.09677419354838" y="375" class="label" text-anchor="middle">2025-11-22</text>
  <text x="91.09677419354838" y="96.53846153846155" class="label" text-anchor="middle">42</text>
  <circle cx="95.74193548387098" cy="101.53846153846155" class="point"/>
  <text x="95.74193548387098" y="375" class="label" text-anchor="middle">2025-11-23</text>
  <text x="95.74193548387098" y="96.53846153846155" class="label" text-anchor="middle">42</text>
  <circle cx="100.38709677419355" cy="101.53846153846155" class="point"/>
  <text x="100.38709677419355" y="375" class="label" text-anchor="middle">2025-11-24</text>
  <text x="100.38709677419355" y="96.53846153846155" class="label" text-anchor="middle">42</text>
  <circle cx="105.03225806451613" cy="101.53846153846155" class="point"/>
  <text x="105.03225806451613" y="375" class="label" text-anchor="middle">2025-11-25</text>
  <text x="105.03225806451613" y="96.53846153846155" class="label" text-anchor="middle">42</text>
  <circle cx="109.6774193548387" cy="101.53846153846155" class="point"/>
  <text x="109.6774193548387" y="375" class="label" text-anchor="middle">2025-11-26</text>
  <text x="109.6774193548387" y="96.53846153846155" class="label" text-anchor="middle">42</text>
  <circle cx="114.3225806451613" cy="101.53846153846155" class="point"/>
  <text x="114.3225806451613" y="375" class="label" text-anchor="middle">2025-11-27</text>
  <text x="114.3225806451613" y="96.53846153846155" class="label" text-anchor="middle">42</text>
  <circle cx="118.96774193548387" cy="101.53846153846155" class="point"/>
  <text x="118.96774193548387" y="375" class="label" text-anchor="middle">2025-11-28</text>
  <text x="118.96774193548387" y="96.53846153846155" class="label" text-anchor="middle">42</text>
  <circle cx="123.61290322580645" cy="101.53846153846155" class="point"/>
  <text x="123.61290322580645" y="375" class="label" text-anchor="middle">2025-11-29</text>
  <text x="123.61290322580645" y="96.53846153846155" class="label" text-anchor="middle">42</text>
  <circle cx="128.25806451612902" cy="101.53846153846155" class="point"/>
  <text x="128.25806451612902" y="375" class="label" text-anchor="middle">2025-11-30</text>
  <text x="128.25806451612902" y="96.53846153846155" class="label" text-anchor="middle">42</text>
  <circle cx="132.90322580645162" cy="101.53846153846155" class="point"/>
  <text x="132.90322580645162" y="375" class="label" text-anchor="middle">2025-12-01</text>
  <text x="132.90322580645162" y="96.53846153846155" class="label" text-anchor="middle">42</text>
  <circle cx="137.5483870967742" cy="101.53846153846155" class="point"/>
  <text x="137.5483870967742" y="375" class="label" text-anchor="middle">2025-12-02</text>
  <text x="137.5483870967742" y="96.53846153846155" class="label" text-anchor="middle">42</text>
  <circle cx="142.19354838709677" cy="101.53846153846155" class="point"/>
  <text x="142.19354838709677" y="375" class="label" text-anchor="middle">2025-12-03</text>
  <text x="142.19354838709677" y="96.53846153846155" class="label" text-anchor="middle">42</text>
  <circle cx="146.83870967741933" cy="101.53846153846155" class="point"/>
  <text x="146.83870967741933" y="375" class="label" text-anchor="middle">2025-12-04</text>
  <text x="146.83870967741933" y="96.53846153846155" class="label" text-anchor="middle">42</text>
  <circle cx="151.48387096774195" cy="101.53846153846155" class="point"/>
  <text x="151.48387096774195" y="375" class="label" text-anchor="middle">2025-12-05</text>
  <text x="151.48387096774195" y="96.53846153846155" class="label" text-anchor="middle">42</text>
  <circle cx="156.1290322580645" cy="101.53846153846155" class="point"/>
  <text x="156.1290322580645" y="375" class="label" text-anchor="middle">2025-12-06</text>
  <text x="156.1290322580645" y="96.53846153846155" class="label" text-anchor="middle">42</text>
  <circle cx="160.7741935483871" cy="101.53846153846155" class="point"/>
  <text x="160.7741935483871" y="375" class="label" text-anchor="middle">2025-12-07</text>
  <text x="160.7741935483871" y="96.53846153846155" class="label" text-anchor="middle">42</text>
  <circle cx="165.4193548387097" cy="40.0" class="point"/>
  <text x="165.4193548387097" y="375" class="label" text-anchor="middle">2025-12-08</text>
  <text x="165.4193548387097" y="35.0" class="label" text-anchor="middle">52</text>
  <circle cx="170.06451612903226" cy="40.0" class="point"/>
  <text x="170.06451612903226" y="375" class="label" text-anchor="middle">2025-12-09</text>
  <text x="170.06451612903226" y="35.0" class="label" text-anchor="middle">52</text>
  <circle cx="174.70967741935485" cy="40.0" class="point"/>
  <text x="174.70967741935485" y="375" class="label" text-anchor="middle">2025-12-10</text>
  <text x="174.70967741935485" y="35.0" class="label" text-anchor="middle">52</text>
  <circle cx="179.3548387096774" cy="40.0" class="point"/>
  <text x="179.3548387096774" y="375" class="label" text-anchor="middle">2025-12-11</text>
  <text x="179.3548387096774" y="35.0" class="label" text-anchor="middle">52</text>
  <circle cx="184.0" cy="40.0" class="point"/>
  <text x="184.0" y="375" class="label" text-anchor="middle">2025-12-12</text>
  <text x="184.0" y="35.0" class="label" text-anchor="middle">52</text>
  <circle cx="188.6451612903226" cy="40.0" class="point"/>
  <text x="188.6451612903226" y="375" class="label" text-anchor="middle">2025-12-13</text>
  <text x="188.6451612903226" y="35.0" class="label" text-anchor="middle">52</text>
  <circle cx="193.29032258064515" cy="40.0" class="point"/>
  <text x="193.29032258064515" y="375" class="label" text-anchor="middle">2025-12-14</text>
  <text x="193.29032258064515" y="35.0" class="label" text-anchor="middle">52</text>
  <circle cx="197.93548387096774" cy="40.0" class="point"/>
  <text x="197.93548387096774" y="375" class="label" text-anchor="middle">2025-12-15</text>
  <text x="197.93548387096774" y="35.0" class="label" text-anchor="middle">52</text>
  <circle cx="202.5806451612903" cy="40.0" class="point"/>
  <text x="202.5806451612903" y="375" class="label" text-anchor="middle">2025-12-16</text>
  <text x="202.5806451612903" y="35.0" class="label" text-anchor="middle">52</text>
  <circle cx="207.2258064516129" cy="40.0" class="point"/>
  <text x="207.2258064516129" y="375" class="label" text-anchor="middle">2025-12-17</text>
  <text x="207.2258064516129" y="35.0" class="label" text-anchor="middle">52</text>
  <circle cx="211.8709677419355" cy="40.0" class="point"/>
  <text x="211.8709677419355" y="375" class="label" text-anchor="middle">2025-12-18</text>
  <text x="211.8709677419355" y="35.0" class="label" text-anchor="middle">52</text>
  <circle cx="216.51612903225805" cy="40.0" class="point"/>
  <text x="216.51612903225805" y="375" class="label" text-anchor="middle">2025-12-19</text>
  <text x="216.51612903225805" y="35.0" class="label" text-anchor="middle">52</text>
  <circle cx="221.16129032258064" cy="40.0" class="point"/>
  <text x="221.16129032258064" y="375" class="label" text-anchor="middle">2025-12-20</text>
  <text x="221.16129032258064" y="35.0" class="label" text-anchor="middle">52</text>
  <circle cx="225.80645161290323" cy="40.0" class="point"/>
  <text x="225.80645161290323" y="375" class="label" text-anchor="middle">2025-12-21</text>
  <text x="225.80645161290323" y="35.0" class="label" text-anchor="middle">52</text>
  <circle cx="230.45161290322582" cy="40.0" class="point"/>
  <text x="230.45161290322582" y="375" class="label" text-anchor="middle">2025-12-22</text>
  <text x="230.45161290322582" y="35.0" class="label" text-anchor="middle">52</text>
  <circle cx="235.0967741935484" cy="40.0" class="point"/>
  <text x="235.0967741935484" y="375" class="label" text-anchor="middle">2025-12-23</text>
  <text x="235.0967741935484" y="35.0" class="label" text-anchor="middle">52</text>
  <circle cx="239.74193548387095" cy="40.0" class="point"/>
  <text x="239.74193548387095" y="375" class="label" text-anchor="middle">2025-12-24</text>
  <text x="239.74193548387095" y="35.0" class="label" text-anchor="middle">52</text>
  <circle cx="244.38709677419354" cy="40.0" class="point"/>
  <text x="244.38709677419354" y="375" class="label" text-anchor="middle">2025-12-25</text>
  <text x="244.38709677419354" y="35.0" class="label" text-anchor="middle">52</text>
  <circle cx="249.03225806451616" cy="40.0" class="point"/>
  <text x="249.03225806451616" y="375" class="label" text-anchor="middle">2025-12-26</text>
  <text x="249.03225806451616" y="35.0" class="label" text-anchor="middle">52</text>
  <circle cx="253.6774193548387" cy="40.0" class="point"/>
  <text x="253.6774193548387" y="375" class="label" text-anchor="middle">2025-12-27</text>
  <text x="253.6774193548387" y="35.0" class="label" text-anchor="middle">52</text>
  <circle cx="258.3225806451613" cy="40.0" class="point"/>
  <text x="258.3225806451613" y="375" class="label" text-anchor="middle">2025-12-28</text>
  <text x="258.3225806451613" y="35.0" class="label" text-anchor="middle">52</text>
  <circle cx="262.9677419354839" cy="40.0" class="point"/>
  <text x="262.9677419354839" y="375" class="label" text-anchor="middle">2025-12-29</text>
  <text x="262.9677419354839" y="35.0" class="label" text-anchor="middle">52</text>
  <circle cx="267.61290322580646" cy="40.0" class="point"/>
  <text x="267.61290322580646" y="375" class="label" text-anchor="middle">2025-12-30</text>
  <text x="267.61290322580646" y="35.0" class="label" text-anchor="middle">52</text>
  <circle cx="272.258064516129" cy="40.0" class="point"/>
  <text x="272.258064516129" y="375" class="label" text-anchor="middle">2025-12-31</text>
  <text x="272.258064516129" y="35.0" class="label" text-anchor="middle">52</text>
  <circle cx="276.9032258064516" cy="40.0" class="point"/>
  <text x="276.9032258064516" y="375" class="label" text-anchor="middle">2026-01-01</text>
  <text x="276.9032258064516" y="35.0" class="label" text-anchor="middle">52</text>
  <circle cx="281.5483870967742" cy="40.0" class="point"/>
  <text x="281.5483870967742" y="375" class="label" text-anchor="middle">2026-01-02</text>
  <text x="281.5483870967742" y="35.0" class="label" text-anchor="middle">52</text>
  <circle cx="286.19354838709677" cy="40.0" class="point"/>
  <text x="286.19354838709677" y="375" class="label" text-anchor="middle">2026-01-03</text>
  <text x="286.19354838709677" y="35.0" class="label" text-anchor="middle">52</text>
  <circle cx="290.8387096774194" cy="40.0" class="point"/>
  <text x="290.8387096774194" y="375" class="label" text-anchor="middle">2026-01-04</text>
  <text x="290.8387096774194" y="35.0" class="label" text-anchor="middle">52</text>
  <circle cx="295.48387096774195" cy="40.0" class="point"/>
  <text x="295.48387096774195" y="375" class="label" text-anchor="middle">2026-01-05</text>
  <text x="295.48387096774195" y="35.0" class="label" text-anchor="middle">52</text>
  <circle cx="300.1290322580645" cy="40.0" class="point"/>
  <text x="300.1290322580645" y="375" class="label" text-anchor="middle">2026-01-06</text>
  <text x="300.1290322580645" y="35.0" class="label" text-anchor="middle">52</text>
  <circle cx="304.7741935483871" cy="40.0" class="point"/>
  <text x="304.7741935483871" y="375" class="label" text-anchor="middle">2026-01-07</text>
  <text x="304.7741935483871" y="35.0" class="label" text-anchor="middle">52</text>
  <circle cx="309.4193548387097" cy="40.0" class="point"/>
  <text x="309.4193548387097" y="375" class="label" text-anchor="middle">2026-01-08</text>
  <text x="309.4193548387097" y="35.0" class="label" text-anchor="middle">52</text>
  <circle cx="314.06451612903226" cy="40.0" class="point"/>
  <text x="314.06451612903226" y="375" class="label" text-anchor="middle">2026-01-09</text>
  <text x="314.06451612903226" y="35.0" class="label" text-anchor="middle">52</text>
  <circle cx="318.7096774193548" cy="40.0" class="point"/>
  <text x="318.7096774193548" y="375" class="label" text-anchor="middle">2026-01-10</text>
  <text x="318.7096774193548" y="35.0" class="label" text-anchor="middle">52</text>
  <circle cx="323.35483870967744" cy="40.0" class="point"/>
  <text x="323.35483870967744" y="375" class="label" text-anchor="middle">2026-01-11</text>
  <text x="323.35483870967744" y="35.0" class="label" text-anchor="middle">52</text>
  <circle cx="328.0" cy="40.0" class="point"/>
  <text x="328.0" y="375" class="label" text-anchor="middle">2026-01-12</text>
  <text x="328.0" y="35.0" class="label" text-anchor="middle">52</text>
  <circle cx="332.64516129032256" cy="40.0" class="point"/>
  <text x="332.64516129032256" y="375" class="label" text-anchor="middle">2026-01-13</text>
  <text x="332.64516129032256" y="35.0" class="label" text-anchor="middle">52</text>
  <circle cx="337.2903225806452" cy="40.0" class="point"/>
  <text x="337.2903225806452" y="375" class="label" text-anchor="middle">2026-01-14</text>
  <text x="337.2903225806452" y="35.0" class="label" text-anchor="middle">52</text>
  <circle cx="341.93548387096774" cy="40.0" class="point"/>
  <text x="341.93548387096774" y="375" class="label" text-anchor="middle">2026-01-15</text>
  <text x="341.93548387096774" y="35.0" class="label" text-anchor="middle">52</text>
  <circle cx="346.5806451612903" cy="40.0" class="point"/>
  <text x="346.5806451612903" y="375" class="label" text-anchor="middle">2026-01-16</text>
  <text x="346.5806451612903" y="35.0" class="label" text-anchor="middle">52</text>
  <circle cx="351.2258064516129" cy="40.0" class="point"/>
  <text x="351.2258064516129" y="375" class="label" text-anchor="middle">2026-01-17</text>
  <text x="351.2258064516129" y="35.0" class="label" text-anchor="middle">52</text>
  <circle cx="355.8709677419355" cy="40.0" class="point"/>
  <text x="355.8709677419355" y="375" class="label" text-anchor="middle">2026-01-18</text>
  <text x="355.8709677419355" y="35.0" class="label" text-anchor="middle">52</text>
  <circle cx="360.5161290322581" cy="40.0" class="point"/>
  <text x="360.5161290322581" y="375" class="label" text-anchor="middle">2026-01-19</text>
  <text x="360.5161290322581" y="35.0" class="label" text-anchor="middle">52</text>
  <circle cx="365.1612903225806" cy="40.0" class="point"/>
  <text x="365.1612903225806" y="375" class="label" text-anchor="middle">2026-01-20</text>
  <text x="365.1612903225806" y="35.0" class="label" text-anchor="middle">52</text>
  <circle cx="369.80645161290323" cy="40.0" class="point"/>
  <text x="369.80645161290323" y="375" class="label" text-anchor="middle">2026-01-21</text>
  <text x="369.80645161290323" y="35.0" class="label" text-anchor="middle">52</text>
  <circle cx="374.4516129032258" cy="40.0" class="point"/>
  <text x="374.4516129032258" y="375" class="label" text-anchor="middle">2026-01-22</text>
  <text x="374.4516129032258" y="35.0" class="label" text-anchor="middle">52</text>
  <circle cx="379.09677419354836" cy="40.0" class="point"/>
  <text x="379.09677419354836" y="375" class="label" text-anchor="middle">2026-01-23</text>
  <text x="379.09677419354836" y="35.0" class="label" text-anchor="middle">52</text>
  <circle cx="383.741935483871" cy="40.0" class="point"/>
  <text x="383.741935483871" y="375" class="label" text-anchor="middle">2026-01-24</text>
  <text x="383.741935483871" y="35.0" class="label" text-anchor="middle">52</text>
  <circle cx="388.38709677419354" cy="40.0" class="point"/>
  <text x="388.38709677419354" y="375" class="label" text-anchor="middle">2026-01-25</text>
  <text x="388.38709677419354" y="35.0" class="label" text-anchor="middle">52</text>
  <circle cx="393.0322580645161" cy="40.0" class="point"/>
  <text x="393.0322580645161" y="375" class="label" text-anchor="middle">2026-01-26</text>
  <text x="393.0322580645161" y="35.0" class="label" text-anchor="middle">52</text>
  <circle cx="397.6774193548387" cy="40.0" class="point"/>
  <text x="397.6774193548387" y="375" class="label" text-anchor="middle">2026-01-27</text>
  <text x="397.6774193548387" y="35.0" class="label" text-anchor="middle">52</text>
  <circle cx="402.3225806451613" cy="40.0" class="point"/>
  <text x="402.3225806451613" y="375" class="label" text-anchor="middle">2026-01-28</text>
  <text x="402.3225806451613" y="35.0" class="label" text-anchor="middle">52</text>
  <circle cx="406.96774193548384" cy="40.0" class="point"/>
  <text x="406.96774193548384" y="375" class="label" text-anchor="middle">2026-01-29</text>
  <text x="406.96774193548384" y="35.0" class="label" text-anchor="middle">52</text>
  <circle cx="411.61290322580646" cy="40.0" class="point"/>
  <text x="411.61290322580646" y="375" class="label" text-anchor="middle">2026-01-30</text>
  <text x="411.61290322580646" y="35.0" class="label" text-anchor="middle">52</text>
  <circle cx="416.258064516129" cy="40.0" class="point"/>
  <text x="416.258064516129" y="375" class="label" text-anchor="middle">2026-01-31</text>
  <text x="416.258064516129" y="35.0" class="label" text-anchor="middle">52</text>
  <circle cx="420.90322580645164" cy="40.0" class="point"/>
  <text x="420.90322580645164" y="375" class="label" text-anchor="middle">2026-02-01</text>
  <text x="420.90322580645164" y="35.0" class="label" text-anchor="middle">52</text>
  <circle cx="425.5483870967742" cy="40.0" class="point"/>
  <text x="425.5483870967742" y="375" class="label" text-anchor="middle">2026-02-02</text>
  <text x="425.5483870967742" y="35.0" class="label" text-anchor="middle">52</text>
  <circle cx="430.1935483870968" cy="40.0" class="point"/>
  <text x="430.1935483870968" y="375" class="label" text-anchor="middle">2026-02-03</text>
  <text x="430.1935483870968" y="35.0" class="label" text-anchor="middle">52</text>
  <circle cx="434.83870967741933" cy="40.0" class="point"/>
  <text x="434.83870967741933" y="375" class="label" text-anchor="middle">2026-02-04</text>
  <text x="434.83870967741933" y="35.0" class="label" text-anchor="middle">52</text>
  <circle cx="439.4838709677419" cy="40.0" class="point"/>
  <text x="439.4838709677419" y="375" class="label" text-anchor="middle">2026-02-05</text>
  <text x="439.4838709677419" y="35.0" class="label" text-anchor="middle">52</text>
  <circle cx="444.1290322580645" cy="40.0" class="point"/>
  <text x="444.1290322580645" y="375" class="label" text-anchor="middle">2026-02-06</text>
  <text x="444.1290322580645" y="35.0" class="label" text-anchor="middle">52</text>
  <circle cx="448.7741935483871" cy="40.0" class="point"/>
  <text x="448.7741935483871" y="375" class="label" text-anchor="middle">2026-02-07</text>
  <text x="448.7741935483871" y="35.0" class="label" text-anchor="middle">52</text>
  <circle cx="453.4193548387097" cy="40.0" class="point"/>
  <text x="453.4193548387097" y="375" class="label" text-anchor="middle">2026-02-08</text>
  <text x="453.4193548387097" y="35.0" class="label" text-anchor="middle">52</text>
  <circle cx="458.0645161290323" cy="40.0" class="point"/>
  <text x="458.0645161290323" y="375" class="label" text-anchor="middle">2026-02-09</text>
  <text x="458.0645161290323" y="35.0" class="label" text-anchor="middle">52</text>
  <circle cx="462.7096774193548" cy="40.0" class="point"/>
  <text x="462.7096774193548" y="375" class="label" text-anchor="middle">2026-02-10</text>
  <text x="462.7096774193548" y="35.0" class="label" text-anchor="middle">52</text>
  <circle cx="467.3548387096774" cy="40.0" class="point"/>
  <text x="467.3548387096774" y="375" class="label" text-anchor="middle">2026-02-11</text>
  <text x="467.3548387096774" y="35.0" class="label" text-anchor="middle">52</text>
  <circle cx="472.0" cy="40.0" class="point"/>
  <text x="472.0" y="375" class="label" text-anchor="middle">2026-02-12</text>
  <text x="472.0" y="35.0" class="label" text-anchor="middle">52</text>
  <circle cx="476.64516129032256" cy="40.0" class="point"/>
  <text x="476.64516129032256" y="375" class="label" text-anchor="middle">2026-02-13</text>
  <text x="476.64516129032256" y="35.0" class="label" text-anchor="middle">52</text>
  <circle cx="481.2903225806452" cy="40.0" class="point"/>
  <text x="481.2903225806452" y="375" class="label" text-anchor="middle">2026-02-14</text>
  <text x="481.2903225806452" y="35.0" class="label" text-anchor="middle">52</text>
  <circle cx="485.93548387096774" cy="40.0" class="point"/>
  <text x="485.93548387096774" y="375" class="label" text-anchor="middle">2026-02-15</text>
  <text x="485.93548387096774" y="35.0" class="label" text-anchor="middle">52</text>
  <circle cx="490.58064516129036" cy="40.0" class="point"/>
  <text x="490.58064516129036" y="375" class="label" text-anchor="middle">2026-02-16</text>
  <text x="490.58064516129036" y="35.0" class="label" text-anchor="middle">52</text>
  <circle cx="495.22580645161287" cy="40.0" class="point"/>
  <text x="495.22580645161287" y="375" class="label" text-anchor="middle">2026-02-17</text>
  <text x="495.22580645161287" y="35.0" class="label" text-anchor="middle">52</text>
  <circle cx="499.8709677419355" cy="40.0" class="point"/>
  <text x="499.8709677419355" y="375" class="label" text-anchor="middle">2026-02-18</text>
  <text x="499.8709677419355" y="35.0" class="label" text-anchor="middle">52</text>
  <circle cx="504.51612903225805" cy="40.0" class="point"/>
  <text x="504.51612903225805" y="375" class="label" text-anchor="middle">2026-02-19</text>
  <text x="504.51612903225805" y="35.0" class="label" text-anchor="middle">52</text>
  <circle cx="509.16129032258067" cy="40.0" class="point"/>
  <text x="509.16129032258067" y="375" class="label" text-anchor="middle">2026-02-20</text>
  <text x="509.16129032258067" y="35.0" class="label" text-anchor="middle">52</text>
  <circle cx="513.8064516129032" cy="40.0" class="point"/>
  <text x="513.8064516129032" y="375" class="label" text-anchor="middle">2026-02-21</text>
  <text x="513.8064516129032" y="35.0" class="label" text-anchor="middle">52</text>
  <circle cx="518.4516129032259" cy="40.0" class="point"/>
  <text x="518.4516129032259" y="375" class="label" text-anchor="middle">2026-02-22</text>
  <text x="518.4516129032259" y="35.0" class="label" text-anchor="middle">52</text>
  <circle cx="523.0967741935484" cy="40.0" class="point"/>
  <text x="523.0967741935484" y="375" class="label" text-anchor="middle">2026-02-23</text>
  <text x="523.0967741935484" y="35.0" class="label" text-anchor="middle">52</text>
  <circle cx="527.741935483871" cy="40.0" class="point"/>
  <text x="527.741935483871" y="375" class="label" text-anchor="middle">2026-02-24</text>
  <text x="527.741935483871" y="35.0" class="label" text-anchor="middle">52</text>
  <circle cx="532.3870967741935" cy="40.0" class="point"/>
  <text x="532.3870967741935" y="375" class="label" text-anchor="middle">2026-02-25</text>
  <text x="532.3870967741935" y="35.0" class="label" text-anchor="middle">52</text>
  <circle cx="537.0322580645161" cy="40.0" class="point"/>
  <text x="537.0322580645161" y="375" class="label" text-anchor="middle">2026-02-26</text>
  <text x="537.0322580645161" y="35.0" class="label" text-anchor="middle">52</text>
  <circle cx="541.6774193548388" cy="40.0" class="point"/>
  <text x="541.6774193548388" y="375" class="label" text-anchor="middle">2026-02-27</text>
  <text x="541.6774193548388" y="35.0" class="label" text-anchor="middle">52</text>
  <circle cx="546.3225806451612" cy="40.0" class="point"/>
  <text x="546.3225806451612" y="375" class="label" text-anchor="middle">2026-02-28</text>
  <text x="546.3225806451612" y="35.0" class="label" text-anchor="middle">52</text>
  <circle cx="550.9677419354839" cy="40.0" class="point"/>
  <text x="550.9677419354839" y="375" class="label" text-anchor="middle">2026-03-01</text>
  <text x="550.9677419354839" y="35.0" class="label" text-anchor="middle">52</text>
  <circle cx="555.6129032258065" cy="40.0" class="point"/>
  <text x="555.6129032258065" y="375" class="label" text-anchor="middle">2026-03-02</text>
  <text x="555.6129032258065" y="35.0" class="label" text-anchor="middle">52</text>
  <circle cx="560.258064516129" cy="40.0" class="point"/>
  <text x="560.258064516129" y="375" class="label" text-anchor="middle">2026-03-03</text>
  <text x="560.258064516129" y="35.0" class="label" text-anchor="middle">52</text>
  <circle cx="564.9032258064516" cy="40.0" class="point"/>
  <text x="564.9032258064516" y="375" class="label" text-anchor="middle">2026-03-04</text>
  <text x="564.9032258064516" y="35.0" class="label" text-anchor="middle">52</text>
  <circle cx="569.5483870967741" cy="40.0" class="point"/>
  <text x="569.5483870967741" y="375" class="label" text-anchor="middle">2026-03-05</text>
  <text x="569.5483870967741" y="35.0" class="label" text-anchor="middle">52</text>
  <circle cx="574.1935483870968" cy="40.0" class="point"/>
  <text x="574.1935483870968" y="375" class="label" text-anchor="middle">2026-03-06</text>
  <text x="574.1935483870968" y="35.0" class="label" text-anchor="middle">52</text>
  <circle cx="578.8387096774194" cy="40.0" class="point"/>
  <text x="578.8387096774194" y="375" class="label" text-anchor="middle">2026-03-07</text>
  <text x="578.8387096774194" y="35.0" class="label" text-anchor="middle">52</text>
  <circle cx="583.483870967742" cy="40.0" class="point"/>
  <text x="583.483870967742" y="375" class="label" text-anchor="middle">2026-03-08</text>
  <text x="583.483870967742" y="35.0" class="label" text-anchor="middle">52</text>
  <circle cx="588.1290322580645" cy="40.0" class="point"/>
  <text x="588.1290322580645" y="375" class="label" text-anchor="middle">2026-03-09</text>
  <text x="588.1290322580645" y="35.0" class="label" text-anchor="middle">52</text>
  <circle cx="592.7741935483871" cy="40.0" class="point"/>
  <text x="592.7741935483871" y="375" class="label" text-anchor="middle">2026-03-10</text>
  <text x="592.7741935483871" y="35.0" class="label" text-anchor="middle">52</text>
  <circle cx="597.4193548387096" cy="40.0" class="point"/>
  <text x="597.4193548387096" y="375" class="label" text-anchor="middle">2026-03-11</text>
  <text x="597.4193548387096" y="35.0" class="label" text-anchor="middle">52</text>
  <circle cx="602.0645161290322" cy="40.0" class="point"/>
  <text x="602.0645161290322" y="375" class="label" text-anchor="middle">2026-03-12</text>
  <text x="602.0645161290322" y="35.0" class="label" text-anchor="middle">52</text>
  <circle cx="606.7096774193549" cy="40.0" class="point"/>
  <text x="606.7096774193549" y="375" class="label" text-anchor="middle">2026-03-13</text>
  <text x="606.7096774193549" y="35.0" class="label" text-anchor="middle">52</text>
  <circle cx="611.3548387096774" cy="40.0" class="point"/>
  <text x="611.3548387096774" y="375" class="label" text-anchor="middle">2026-03-14</text>
  <text x="611.3548387096774" y="35.0" class="label" text-anchor="middle">52</text>
  <circle cx="616.0" cy="40.0" class="point"/>
  <text x="616.0" y="375" class="label" text-anchor="middle">2026-03-15</text>
  <text x="616.0" y="35.0" class="label" text-anchor="middle">52</text>
  <circle cx="620.6451612903226" cy="40.0" class="point"/>
  <text x="620.6451612903226" y="375" class="label" text-anchor="middle">2026-03-16</text>
  <text x="620.6451612903226" y="35.0" class="label" text-anchor="middle">52</text>
  <circle cx="625.2903225806451" cy="40.0" class="point"/>
  <text x="625.2903225806451" y="375" class="label" text-anchor="middle">2026-03-17</text>
  <text x="625.2903225806451" y="35.0" class="label" text-anchor="middle">52</text>
  <circle cx="629.9354838709677" cy="40.0" class="point"/>
  <text x="629.9354838709677" y="375" class="label" text-anchor="middle">2026-03-18</text>
  <text x="629.9354838709677" y="35.0" class="label" text-anchor="middle">52</text>
  <circle cx="634.5806451612904" cy="40.0" class="point"/>
  <text x="634.5806451612904" y="375" class="label" text-anchor="middle">2026-03-19</text>
  <text x="634.5806451612904" y="35.0" class="label" text-anchor="middle">52</text>
  <circle cx="639.2258064516129" cy="40.0" class="point"/>
  <text x="639.2258064516129" y="375" class="label" text-anchor="middle">2026-03-20</text>
  <text x="639.2258064516129" y="35.0" class="label" text-anchor="middle">52</text>
  <circle cx="643.8709677419355" cy="40.0" class="point"/>
  <text x="643.8709677419355" y="375" class="label" text-anchor="middle">2026-03-21</text>
  <text x="643.8709677419355" y="35.0" class="label" text-anchor="middle">52</text>
  <circle cx="648.516129032258" cy="40.0" class="point"/>
  <text x="648.516129032258" y="375" class="label" text-anchor="middle">2026-03-22</text>
  <text x="648.516129032258" y="35.0" class="label" text-anchor="middle">52</text>
  <circle cx="653.1612903225806" cy="40.0" class="point"/>
  <text x="653.1612903225806" y="375" class="label" text-anchor="middle">2026-03-23</text>
  <text x="653.1612903225806" y="35.0" class="label" text-anchor="middle">52</text>
  <circle cx="657.8064516129032" cy="40.0" class="point"/>
  <text x="657.8064516129032" y="375" class="label" text-anchor="middle">2026-03-24</text>
  <text x="657.8064516129032" y="35.0" class="label" text-anchor="middle">52</text>
  <circle cx="662.4516129032259" cy="40.0" class="point"/>
  <text x="662.4516129032259" y="375" class="label" text-anchor="middle">2026-03-25</text>
  <text x="662.4516129032259" y="35.0" class="label" text-anchor="middle">52</text>
  <circle cx="667.0967741935484" cy="40.0" class="point"/>
  <text x="667.0967741935484" y="375" class="label" text-anchor="middle">2026-03-26</text>
  <text x="667.0967741935484" y="35.0" class="label" text-anchor="middle">52</text>
  <circle cx="671.741935483871" cy="40.0" class="point"/>
  <text x="671.741935483871" y="375" class="label" text-anchor="middle">2026-03-27</text>
  <text x="671.741935483871" y="35.0" class="label" text-anchor="middle">52</text>
  <circle cx="676.3870967741935" cy="40.0" class="point"/>
  <text x="676.3870967741935" y="375" class="label" text-anchor="middle">2026-03-28</text>
  <text x="676.3870967741935" y="35.0" class="label" text-anchor="middle">52</text>
  <circle cx="681.0322580645162" cy="40.0" class="point"/>
  <text x="681.0322580645162" y="375" class="label" text-anchor="middle">2026-03-29</text>
  <text x="681.0322580645162" y="35.0" class="label" text-anchor="middle">52</text>
  <circle cx="685.6774193548387" cy="40.0" class="point"/>
  <text x="685.6774193548387" y="375" class="label" text-anchor="middle">2026-03-30</text>
  <text x="685.6774193548387" y="35.0" class="label" text-anchor="middle">52</text>
  <circle cx="690.3225806451612" cy="40.0" class="point"/>
  <text x="690.3225806451612" y="375" class="label" text-anchor="middle">2026-03-31</text>
  <text x="690.3225806451612" y="35.0" class="label" text-anchor="middle">52</text>
  <circle cx="694.9677419354839" cy="40.0" class="point"/>
  <text x="694.9677419354839" y="375" class="label" text-anchor="middle">2026-04-01</text>
  <text x="694.9677419354839" y="35.0" class="label" text-anchor="middle">52</text>
  <circle cx="699.6129032258065" cy="40.0" class="point"/>
  <text x="699.6129032258065" y="375" class="label" text-anchor="middle">2026-04-02</text>
  <text x="699.6129032258065" y="35.0" class="label" text-anchor="middle">52</text>
  <circle cx="704.258064516129" cy="40.0" class="point"/>
  <text x="704.258064516129" y="375" class="label" text-anchor="middle">2026-04-03</text>
  <text x="704.258064516129" y="35.0" class="label" text-anchor="middle">52</text>
  <circle cx="708.9032258064516" cy="40.0" class="point"/>
  <text x="708.9032258064516" y="375" class="label" text-anchor="middle">2026-04-04</text>
  <text x="708.9032258064516" y="35.0" class="label" text-anchor="middle">52</text>
  <circle cx="713.5483870967741" cy="40.0" class="point"/>
  <text x="713.5483870967741" y="375" class="label" text-anchor="middle">2026-04-05</text>
  <text x="713.5483870967741" y="35.0" class="label" text-anchor="middle">52</text>
  <circle cx="718.1935483870967" cy="40.0" class="point"/>
  <text x="718.1935483870967" y="375" class="label" text-anchor="middle">2026-04-06</text>
  <text x="718.1935483870967" y="35.0" class="label" text-anchor="middle">52</text>
  <circle cx="722.8387096774194" cy="40.0" class="point"/>
  <text x="722.8387096774194" y="375" class="label" text-anchor="middle">2026-04-07</text>
  <text x="722.8387096774194" y="35.0" class="label" text-anchor="middle">52</text>
  <circle cx="727.483870967742" cy="40.0" class="point"/>
  <text x="727.483870967742" y="375" class="label" text-anchor="middle">2026-04-08</text>
  <text x="727.483870967742" y="35.0" class="label" text-anchor="middle">52</text>
  <circle cx="732.1290322580645" cy="40.0" class="point"/>
  <text x="732.1290322580645" y="375" class="label" text-anchor="middle">2026-04-09</text>
  <text x="732.1290322580645" y="35.0" class="label" text-anchor="middle">52</text>
  <circle cx="736.7741935483871" cy="40.0" class="point"/>
  <text x="736.7741935483871" y="375" class="label" text-anchor="middle">2026-04-10</text>
  <text x="736.7741935483871" y="35.0" class="label" text-anchor="middle">52</text>
  <circle cx="741.4193548387098" cy="40.0" class="point"/>
  <text x="741.4193548387098" y="375" class="label" text-anchor="middle">2026-04-11</text>
  <text x="741.4193548387098" y="35.0" class="label" text-anchor="middle">52</text>
  <circle cx="746.0645161290322" cy="40.0" class="point"/>
  <text x="746.0645161290322" y="375" class="label" text-anchor="middle">2026-04-12</text>
  <text x="746.0645161290322" y="35.0" class="label" text-anchor="middle">52</text>
  <circle cx="750.7096774193548" cy="40.0" class="point"/>
  <text x="750.7096774193548" y="375" class="label" text-anchor="middle">2026-04-13</text>
  <text x="750.7096774193548" y="35.0" class="label" text-anchor="middle">52</text>
  <circle cx="755.3548387096774" cy="40.0" class="point"/>
  <text x="755.3548387096774" y="375" class="label" text-anchor="middle">2026-04-14</text>
  <text x="755.3548387096774" y="35.0" class="label" text-anchor="middle">52</text>
  <circle cx="760.0" cy="40.0" class="point"/>
  <text x="760.0" y="375" class="label" text-anchor="middle">2026-04-15</text>
  <text x="760.0" y="35.0" class="label" text-anchor="middle">52</text>
  <text x="30" y="363.0" class="label" text-anchor="end">0</text>
  <text x="30" y="301.46153846153845" class="label" text-anchor="end">10</text>
  <text x="30" y="239.9230769230769" class="label" text-anchor="end">20</text>
  <text x="30" y="178.38461538461542" class="label" text-anchor="end">30</text>
  <text x="30" y="116.84615384615384" class="label" text-anchor="end">40</text>
  <text x="30" y="55.30769230769232" class="label" text-anchor="end">50</text>
</svg>