<svg xmlns="http://www.w3.org/2000/svg" width="800" height="400" viewBox="0 0 800 400">
  <style>
    .axis{stroke:#666;stroke-width:1}
    .line{stroke:#4a9;stroke-width:2;fill:none}
    .point{fill:#4a9;r:4}
    .label{font:10px sans-serif;fill:#aaa}
    .title{font:14px sans-serif;fill:#333}
  </style>
  <text x="400" y="20" class="title" text-anchor="middle">OPIC Field Growth Timeline</text>
  <line x1="40" y1="40" x2="40" y2="360" class="axis"/>
  <line x1="40" y1="360" x2="760" y2="360" class="axis"/>
  <path d="M 40.0,101.53846153846155 L 44.73684210526316,101.53846153846155 L 49.473684210526315,101.53846153846155 L 54.21052631578947,101.53846153846155 L 58.94736842105263,101.53846153846155 L 63.68421052631579,101.53846153846155 L 68.42105263157895,101.53846153846155 L 73.15789473684211,101.53846153846155 L 77.89473684210526,101.53846153846155 L 82.63157894736841,101.53846153846155 L 87.36842105263158,101.53846153846155 L 92.10526315789474,101.53846153846155 L 96.84210526315789,101.53846153846155 L 101.57894736842105,101.53846153846155 L 106.3157894736842,101.53846153846155 L 111.05263157894737,101.53846153846155 L 115.78947368421052,101.53846153846155 L 120.52631578947368,101.53846153846155 L 125.26315789473684,101.53846153846155 L 130.0,101.53846153846155 L 134.73684210526315,101.53846153846155 L 139.47368421052633,101.53846153846155 L 144.21052631578948,101.53846153846155 L 148.94736842105263,101.53846153846155 L 153.68421052631578,101.53846153846155 L 158.42105263157896,101.53846153846155 L 163.1578947368421,101.53846153846155 L 167.89473684210526,40.0 L 172.6315789473684,40.0 L 177.3684210526316,40.0 L 182.10526315789474,40.0 L 186.8421052631579,40.0 L 191.57894736842104,40.0 L 196.31578947368422,40.0 L 201.05263157894737,40.0 L 205.78947368421052,40.0 L 210.52631578947367,40.0 L 215.26315789473685,40.0 L 220.0,40.0 L 224.73684210526318,40.0 L 229.4736842105263,40.0 L 234.21052631578948,40.0 L 238.94736842105266,40.0 L 243.68421052631578,40.0 L 248.42105263157896,40.0 L 253.15789473684208,40.0 L 257.89473684210526,40.0 L 262.63157894736844,40.0 L 267.36842105263156,40.0 L 272.10526315789474,40.0 L 276.8421052631579,40.0 L 281.57894736842104,40.0 L 286.3157894736842,40.0 L 291.05263157894734,40.0 L 295.7894736842105,40.0 L 300.5263157894737,40.0 L 305.2631578947368,40.0 L 310.0,40.0 L 314.7368421052632,40.0 L 319.4736842105263,40.0 L 324.2105263157895,40.0 L 328.94736842105266,40.0 L 333.6842105263158,40.0 L 338.42105263157896,40.0 L 343.1578947368421,40.0 L 347.89473684210526,40.0 L 352.63157894736844,40.0 L 357.36842105263156,40.0 L 362.10526315789474,40.0 L 366.8421052631579,40.0 L 371.57894736842104,40.0 L 376.3157894736842,40.0 L 381.05263157894734,40.0 L 385.7894736842105,40.0 L 390.5263157894737,40.0 L 395.2631578947368,40.0 L 400.0,40.0 L 404.7368421052631,40.0 L 409.47368421052636,40.0 L 414.2105263157895,40.0 L 418.9473684210526,40.0 L 423.68421052631584,40.0 L 428.42105263157896,40.0 L 433.1578947368421,40.0 L 437.8947368421053,40.0 L 442.63157894736844,40.0 L 447.36842105263156,40.0 L 452.1052631578947,40.0 L 456.8421052631579,40.0 L 461.57894736842104,40.0 L 466.31578947368416,40.0 L 471.0526315789474,40.0 L 475.7894736842105,40.0 L 480.52631578947364,40.0 L 485.2631578947369,40.0 L 490.0,40.0 L 494.7368421052631,40.0 L 499.47368421052636,40.0 L 504.2105263157895,40.0 L 508.9473684210526,40.0 L 513.6842105263158,40.0 L 518.421052631579,40.0 L 523.1578947368421,40.0 L 527.8947368421053,40.0 L 532.6315789473684,40.0 L 537.3684210526316,40.0 L 542.1052631578947,40.0 L 546.8421052631579,40.0 L 551.578947368421,40.0 L 556.3157894736842,40.0 L 561.0526315789474,40.0 L 565.7894736842105,40.0 L 570.5263157894736,40.0 L 575.2631578947369,40.0 L 580.0,40.0 L 584.7368421052631,40.0 L 589.4736842105264,40.0 L 594.2105263157895,40.0 L 598.9473684210526,40.0 L 603.6842105263158,40.0 L 608.421052631579,40.0 L 613.1578947368421,40.0 L 617.8947368421053,40.0 L 622.6315789473684,40.0 L 627.3684210526316,40.0 L 632.1052631578947,40.0 L 636.8421052631579,40.0 L 641.578947368421,40.0 L 646.3157894736842,40.0 L 651.0526315789474,40.0 L 655.7894736842105,40.0 L 660.5263157894736,40.0 L 665.2631578947369,40.0 L 670.0,40.0 L 674.7368421052631,40.0 L 679.4736842105264,40.0 L 684.2105263157895,40.0 L 688.9473684210526,40.0 L 693.6842105263158,40.0 L 698.421052631579,40.0 L 703.1578947368421,40.0 L 707.8947368421053,40.0 L 712.6315789473684,40.0 L 717.3684210526316,40.0 L 722.1052631578947,40.0 L 726.8421052631579,40.0 L 731.578947368421,40.0 L 736.3157894736842,40.0 L 741.0526315789474,40.0 L 745.7894736842105,40.0 L 750.5263157894736,40.0 L 755.2631578947369,40.0 L 760.0,40.0" class="line"/>
  <circle cx="40.0" cy="101.53846153846155" class="point"/>
  <text x="40.0" y="375" class="label" text-anchor="middle">2025-11-11</text>
  <text x="40.0" y="96.53846153846155" class="label" text-anchor="middle">42</text>
  <circle cx="44.73684210526316" cy="101.53846153846155" class="point"/>
  <text x="44.73684210526316" y="375" class="label" text-anchor="middle">2025-11-12</text>
  <text x="44.73684210526316" y="96.53846153846155" class="label" text-anchor="middle">42</text>
  <circle cx="49.473684210526315" cy="101.53846153846155" class="point"/>
  <text x="49.473684210526315" y="375" class="label" text-anchor="middle">2025-11-13</text>
  <text x="49.473684210526315" y="96.53846153846155" class="label" text-anchor="middle">42</text>
  <circle cx="54.21052631578947" cy="101.53846153846155" class="point"/>
  <text x="54.21052631578947" y="375" class="label" text-anchor="middle">2025-11-14</text>
  <text x="54.21052631578947" y="96.53846153846155" class="label" text-anchor="middle">42</text>
  <circle cx="58.94736842105263" cy="101.53846153846155" class="point"/>
  <text x="58.94736842105263" y="375" class="label" text-anchor="middle">2025-11-15</text>
  <text x="58.94736842105263" y="96.53846153846155" class="label" text-anchor="middle">42</text>
  <circle cx="63.68421052631579" cy="101.53846153846155" class="point"/>
  <text x="63.68421052631579" y="375" class="label" text-anchor="middle">2025-11-16</text>
  <text x="63.68421052631579" y="96.53846153846155" class="label" text-anchor="middle">42</text>
  <circle cx="68.42105263157895" cy="101.53846153846155" class="point"/>
  <text x="68.42105263157895" y="375" class="label" text-anchor="middle">2025-11-17</text>
  <text x="68.42105263157895" y="96.53846153846155" class="label" text-anchor="middle">42</text>
  <circle cx="73.15789473684211" cy="101.53846153846155" class="point"/>
  <text x="73.15789473684211" y="375" class="label" text-anchor="middle">2025-11-18</text>
  <text x="73.15789473684211" y="96.53846153846155" class="label" text-anchor="middle">42</text>
  <circle cx="77.89473684210526" cy="101.53846153846155" class="point"/>
  <text x="77.89473684210526" y="375" class="label" text-anchor="middle">2025-11-19</text>
  <text x="77.89473684210526" y="96.53846153846155" class="label" text-anchor="middle">42</text>
  <circle cx="82.63157894736841" cy="101.53846153846155" class="point"/>
  <text x="82.63157894736841" y="375" class="label" text-anchor="middle">2025-11-20</text>
  <text x="82.63157894736841" y="96.53846153846155" class="label" text-anchor="middle">42</text>
  <circle cx="87.36842105263158" cy="101.53846153846155" class="point"/>
  <text x="87.36842105263158" y="375" class="label" text-anchor="middle">2025-11-21</text>
  <text x="87.36842105263158" y="96.53846153846155" class="label" text-anchor="middle">42</text>
  <circle cx="92.10526315789474" cy="101.53846153846155" class="point"/>
  <text x="92.10526315789474" y="375" class="label" text-anchor="middle">2025-11-22</text>
  <text x="92.10526315789474" y="96.53846153846155" class="label" text-anchor="middle">42</text>
  <circle cx="96.84210526315789" cy="101.53846153846155" class="point"/>
  <text x="96.84210526315789" y="375" class="label" text-anchor="middle">2025-11-23</text>
  <text x="96.84210526315789" y="96.53846153846155" class="label" text-anchor="middle">42</text>
  <circle cx="101.57894736842105" cy="101.53846153846155" class="point"/>
  <text x="101.57894736842105" y="375" class="label" text-anchor="middle">2025-11-24</text>
  <text x="101.57894736842105" y="96.53846153846155" class="label" text-anchor="middle">42</text>
  <circle cx="106.3157894736842" cy="101.53846153846155" class="point"/>
  <text x="106.3157894736842" y="375" class="label" text-anchor="middle">2025-11-25</text>
  <text x="106.3157894736842" y="96.53846153846155" class="label" text-anchor="middle">42</text>
  <circle cx="111.05263157894737" cy="101.53846153846155" class="point"/>
  <text x="111.05263157894737" y="375" class="label" text-anchor="middle">2025-11-26</text>
  <text x="111.05263157894737" y="96.53846153846155" class="label" text-anchor="middle">42</text>
  <circle cx="115.78947368421052" cy="101.53846153846155" class="point"/>
  <text x="115.78947368421052" y="375" class="label" text-anchor="middle">2025-11-27</text>
  <text x="115.78947368421052" y="96.53846153846155" class="label" text-anchor="middle">42</text>
  <circle cx="120.52631578947368" cy="101.53846153846155" class="point"/>
  <text x="120.52631578947368" y="375" class="label" text-anchor="middle">2025-11-28</text>
  <text x="120.52631578947368" y="96.53846153846155" class="label" text-anchor="middle">42</text>
  <circle cx="125.26315789473684" cy="101.53846153846155" class="point"/>
  <text x="125.26315789473684" y="375" class="label" text-anchor="middle">2025-11-29</text>
  <text x="125.26315789473684" y="96.53846153846155" class="label" text-anchor="middle">42</text>
  <circle cx="130.0" cy="101.53846153846155" class="point"/>
  <text x="130.0" y="375" class="label" text-anchor="middle">2025-11-30</text>
  <text x="130.0" y="96.53846153846155" class="label" text-anchor="middle">42</text>
  <circle cx="134.73684210526315" cy="101.53846153846155" class="point"/>
  <text x="134.73684210526315" y="375" class="label" text-anchor="middle">2025-12-01</text>
  <text x="134.73684210526315" y="96.53846153846155" class="label" text-anchor="middle">42</text>
  <circle cx="139.47368421052633" cy="101.53846153846155" class="point"/>
  <text x="139.47368421052633" y="375" class="label" text-anchor="middle">2025-12-02</text>
  <text x="139.47368421052633" y="96.53846153846155" class="label" text-anchor="middle">42</text>
  <circle cx="144.21052631578948" cy="101.53846153846155" class="point"/>
  <text x="144.21052631578948" y="375" class="label" text-anchor="middle">2025-12-03</text>
  <text x="144.21052631578948" y="96.53846153846155" class="label" text-anchor="middle">42</text>
  <circle cx="148.94736842105263" cy="101.53846153846155" class="point"/>
  <text x="148.94736842105263" y="375" class="label" text-anchor="middle">2025-12-04</text>
  <text x="148.94736842105263" y="96.53846153846155" class="label" text-anchor="middle">42</text>
  <circle cx="153.68421052631578" cy="101.53846153846155" class="point"/>
  <text x="153.68421052631578" y="375" class="label" text-anchor="middle">2025-12-05</text>
  <text x="153.68421052631578" y="96.53846153846155" class="label" text-anchor="middle">42</text>
  <circle cx="158.42105263157896" cy="101.53846153846155" class="point"/>
  <text x="158.42105263157896" y="375" class="label" text-anchor="middle">2025-12-06</text>
  <text x="158.42105263157896" y="96.53846153846155" class="label" text-anchor="middle">42</text>
  <circle cx="163.1578947368421" cy="101.53846153846155" class="point"/>
  <text x="163.1578947368421" y="375" class="label" text-anchor="middle">2025-12-07</text>
  <text x="163.1578947368421" y="96.53846153846155" class="label" text-anchor="middle">42</text>
  <circle cx="167.89473684210526" cy="40.0" class="point"/>
  <text x="167.89473684210526" y="375" class="label" text-anchor="middle">2025-12-08</text>
  <text x="167.89473684210526" y="35.0" class="label" text-anchor="middle">52</text>
  <circle cx="172.6315789473684" cy="40.0" class="point"/>
  <text x="172.6315789473684" y="375" class="label" text-anchor="middle">2025-12-09</text>
  <text x="172.6315789473684" y="35.0" class="label" text-anchor="middle">52</text>
  <circle cx="177.3684210526316" cy="40.0" class="point"/>
  <text x="177.3684210526316" y="375" class="label" text-anchor="middle">2025-12-10</text>
  <text x="177.3684210526316" y="35.0" class="label" text-anchor="middle">52</text>
  <circle cx="182.10526315789474" cy="40.0" class="point"/>
  <text x="182.10526315789474" y="375" class="label" text-anchor="middle">2025-12-11</text>
  <text x="182.10526315789474" y="35.0" class="label" text-anchor="middle">52</text>
  <circle cx="186.8421052631579" cy="40.0" class="point"/>
  <text x="186.8421052631579" y="375" class="label" text-anchor="middle">2025-12-12</text>
  <text x="186.8421052631579" y="35.0" class="label" text-anchor="middle">52</text>
  <circle cx="191.57894736842104" cy="40.0" class="point"/>
  <text x="191.57894736842104" y="375" class="label" text-anchor="middle">2025-12-13</text>
  <text x="191.57894736842104" y="35.0" class="label" text-anchor="middle">52</text>
  <circle cx="196.31578947368422" cy="40.0" class="point"/>
  <text x="196.31578947368422" y="375" class="label" text-anchor="middle">2025-12-14</text>
  <text x="196.31578947368422" y="35.0" class="label" text-anchor="middle">52</text>
  <circle cx="201.05263157894737" cy="40.0" class="point"/>
  <text x="201.05263157894737" y="375" class="label" text-anchor="middle">2025-12-15</text>
  <text x="201.05263157894737" y="35.0" class="label" text-anchor="middle">52</text>
  <circle cx="205.78947368421052" cy="40.0" class="point"/>
  <text x="205.78947368421052" y="375" class="label" text-anchor="middle">2025-12-16</text>
  <text x="205.78947368421052" y="35.0" class="label" text-anchor="middle">52</text>
  <circle cx="210.52631578947367" cy="40.0" class="point"/>
  <text x="210.52631578947367" y="375" class="label" text-anchor="middle">2025-12-17</text>
  <text x="210.52631578947367" y="35.0" class="label" text-anchor="middle">52</text>
  <circle cx="215.26315789473685" cy="40.0" class="point"/>
  <text x="215.26315789473685" y="375" class="label" text-anchor="middle">2025-12-18</text>
  <text x="215.26315789473685" y="35.0" class="label" text-anchor="middle">52</text>
  <circle cx="220.0" cy="40.0" class="point"/>
  <text x="220.0" y="375" class="label" text-anchor="middle">2025-12-19</text>
  <text x="220.0" y="35.0" class="label" text-anchor="middle">52</text>
  <circle cx="224.73684210526318" cy="40.0" class="point"/>
  <text x="224.73684210526318" y="375" class="label" text-anchor="middle">2025-12-20</text>
  <text x="224.73684210526318" y="35.0" class="label" text-anchor="middle">52</text>
  <circle cx="229.4736842105263" cy="40.0" class="point"/>
  <text x="229.4736842105263" y="375" class="label" text-anchor="middle">2025-12-21</text>
  <text x="229.4736842105263" y="35.0" class="label" text-anchor="middle">52</text>
  <circle cx="234.21052631578948" cy="40.0" class="point"/>
  <text x="234.21052631578948" y="375" class="label" text-anchor="middle">2025-12-22</text>
  <text x="234.21052631578948" y="35.0" class="label" text-anchor="middle">52</text>
  <circle cx="238.94736842105266" cy="40.0" class="point"/>
  <text x="238.94736842105266" y="375" class="label" text-anchor="middle">2025-12-23</text>
  <text x="238.94736842105266" y="35.0" class="label" text-anchor="middle">52</text>
  <circle cx="243.68421052631578" cy="40.0" class="point"/>
  <text x="243.68421052631578" y="375" class="label" text-anchor="middle">2025-12-24</text>
  <text x="243.68421052631578" y="35.0" class="label" text-anchor="middle">52</text>
  <circle cx="248.42105263157896" cy="40.0" class="point"/>
  <text x="248.42105263157896" y="375" class="label" text-anchor="middle">2025-12-25</text>
  <text x="248.42105263157896" y="35.0" class="label" text-anchor="middle">52</text>
  <circle cx="253.15789473684208" cy="40.0" class="point"/>
  <text x="253.15789473684208" y="375" class="label" text-anchor="middle">2025-12-26</text>
  <text x="253.15789473684208" y="35.0" class="label" text-anchor="middle">52</text>
  <circle cx="257.89473684210526" cy="40.0" class="point"/>
  <text x="257.89473684210526" y="375" class="label" text-anchor="middle">2025-12-27</text>
  <text x="257.89473684210526" y="35.0" class="label" text-anchor="middle">52</text>
  <circle cx="262.63157894736844" cy="40.0" class="point"/>
  <text x="262.63157894736844" y="375" class="label" text-anchor="middle">2025-12-28</text>
  <text x="262.63157894736844" y="35.0" class="label" text-anchor="middle">52</text>
  <circle cx="267.36842105263156" cy="40.0" class="point"/>
  <text x="267.36842105263156" y="375" class="label" text-anchor="middle">2025-12-29</text>
  <text x="267.36842105263156" y="35.0" class="label" text-anchor="middle">52</text>
  <circle cx="272.10526315789474" cy="40.0" class="point"/>
  <text x="272.10526315789474" y="375" class="label" text-anchor="middle">2025-12-30</text>
  <text x="272.10526315789474" y="35.0" class="label" text-anchor="middle">52</text>
  <circle cx="276.8421052631579" cy="40.0" class="point"/>
  <text x="276.8421052631579" y="375" class="label" text-anchor="middle">2025-12-31</text>
  <text x="276.8421052631579" y="35.0" class="label" text-anchor="middle">52</text>
  <circle cx="281.57894736842104" cy="40.0" class="point"/>
  <text x="281.57894736842104" y="375" class="label" text-anchor="middle">2026-01-01</text>
  <text x="281.57894736842104" y="35.0" class="label" text-anchor="middle">52</text>
  <circle cx="286.3157894736842" cy="40.0" class="point"/>
  <text x="286.3157894736842" y="375" class="label" text-anchor="middle">2026-01-02</text>
  <text x="286.3157894736842" y="35.0" class="label" text-anchor="middle">52</text>
  <circle cx="291.05263157894734" cy="40.0" class="point"/>
  <text x="291.05263157894734" y="375" class="label" text-anchor="middle">2026-01-03</text>
  <text x="291.05263157894734" y="35.0" class="label" text-anchor="middle">52</text>
  <circle cx="295.7894736842105" cy="40.0" class="point"/>
  <text x="295.7894736842105" y="375" class="label" text-anchor="middle">2026-01-04</text>
  <text x="295.7894736842105" y="35.0" class="label" text-anchor="middle">52</text>
  <circle cx="300.5263157894737" cy="40.0" class="point"/>
  <text x="300.5263157894737" y="375" class="label" text-anchor="middle">2026-01-05</text>
  <text x="300.5263157894737" y="35.0" class="label" text-anchor="middle">52</text>
  <circle cx="305.2631578947368" cy="40.0" class="point"/>
  <text x="305.2631578947368" y="375" class="label" text-anchor="middle">2026-01-06</text>
  <text x="305.2631578947368" y="35.0" class="label" text-anchor="middle">52</text>
  <circle cx="310.0" cy="40.0" class="point"/>
  <text x="310.0" y="375" class="label" text-anchor="middle">2026-01-07</text>
  <text x="310.0" y="35.0" class="label" text-anchor="middle">52</text>
  <circle cx="314.7368421052632" cy="40.0" class="point"/>
  <text x="314.7368421052632" y="375" class="label" text-anchor="middle">2026-01-08</text>
  <text x="314.7368421052632" y="35.0" class="label" text-anchor="middle">52</text>
  <circle cx="319.4736842105263" cy="40.0" class="point"/>
  <text x="319.4736842105263" y="375" class="label" text-anchor="middle">2026-01-09</text>
  <text x="319.4736842105263" y="35.0" class="label" text-anchor="middle">52</text>
  <circle cx="324.2105263157895" cy="40.0" class="point"/>
  <text x="324.2105263157895" y="375" class="label" text-anchor="middle">2026-01-10</text>
  <text x="324.2105263157895" y="35.0" class="label" text-anchor="middle">52</text>
  <circle cx="328.94736842105266" cy="40.0" class="point"/>
  <text x="328.94736842105266" y="375" class="label" text-anchor="middle">2026-01-11</text>
  <text x="328.94736842105266" y="35.0" class="label" text-anchor="middle">52</text>
  <circle cx="333.6842105263158" cy="40.0" class="point"/>
  <text x="333.6842105263158" y="375" class="label" text-anchor="middle">2026-01-12</text>
  <text x="333.6842105263158" y="35.0" class="label" text-anchor="middle">52</text>
  <circle cx="338.42105263157896" cy="40.0" class="point"/>
  <text x="338.42105263157896" y="375" class="label" text-anchor="middle">2026-01-13</text>
  <text x="338.42105263157896" y="35.0" class="label" text-anchor="middle">52</text>
  <circle cx="343.1578947368421" cy="40.0" class="point"/>
  <text x="343.1578947368421" y="375" class="label" text-anchor="middle">2026-01-14</text>
  <text x="343.1578947368421" y="35.0" class="label" text-anchor="middle">52</text>
  <circle cx="347.89473684210526" cy="40.0" class="point"/>
  <text x="347.89473684210526" y="375" class="label" text-anchor="middle">2026-01-15</text>
  <text x="347.89473684210526" y="35.0" class="label" text-anchor="middle">52</text>
  <circle cx="352.63157894736844" cy="40.0" class="point"/>
  <text x="352.63157894736844" y="375" class="label" text-anchor="middle">2026-01-16</text>
  <text x="352.63157894736844" y="35.0" class="label" text-anchor="middle">52</text>
  <circle cx="357.36842105263156" cy="40.0" class="point"/>
  <text x="357.36842105263156" y="375" class="label" text-anchor="middle">2026-01-17</text>
  <text x="357.36842105263156" y="35.0" class="label" text-anchor="middle">52</text>
  <circle cx="362.10526315789474" cy="40.0" class="point"/>
  <text x="362.10526315789474" y="375" class="label" text-anchor="middle">2026-01-18</text>
  <text x="362.10526315789474" y="35.0" class="label" text-anchor="middle">52</text>
  <circle cx="366.8421052631579" cy="40.0" class="point"/>
  <text x="366.8421052631579" y="375" class="label" text-anchor="middle">2026-01-19</text>
  <text x="366.8421052631579" y="35.0" class="label" text-anchor="middle">52</text>
  <circle cx="371.57894736842104" cy="40.0" class="point"/>
  <text x="371.57894736842104" y="375" class="label" text-anchor="middle">2026-01-20</text>
  <text x="371.57894736842104" y="35.0" class="label" text-anchor="middle">52</text>
  <circle cx="376.3157894736842" cy="40.0" class="point"/>
  <text x="376.3157894736842" y="375" class="label" text-anchor="middle">2026-01-21</text>
  <text x="376.3157894736842" y="35.0" class="label" text-anchor="middle">52</text>
  <circle cx="381.05263157894734" cy="40.0" class="point"/>
  <text x="381.05263157894734" y="375" class="label" text-anchor="middle">2026-01-22</text>
  <text x="381.05263157894734" y="35.0" class="label" text-anchor="middle">52</text>
  <circle cx="385.7894736842105" cy="40.0" class="point"/>
  <text x="385.7894736842105" y="375" class="label" text-anchor="middle">2026-01-23</text>
  <text x="385.7894736842105" y="35.0" class="label" text-anchor="middle">52</text>
  <circle cx="390.5263157894737" cy="40.0" class="point"/>
  <text x="390.5263157894737" y="375" class="label" text-anchor="middle">2026-01-24</text>
  <text x="390.5263157894737" y="35.0" class="label" text-anchor="middle">52</text>
  <circle cx="395.2631578947368" cy="40.0" class="point"/>
  <text x="395.2631578947368" y="375" class="label" text-anchor="middle">2026-01-25</text>
  <text x="395.2631578947368" y="35.0" class="label" text-anchor="middle">52</text>
  <circle cx="400.0" cy="40.0" class="point"/>
  <text x="400.0" y="375" class="label" text-anchor="middle">2026-01-26</text>
  <text x="400.0" y="35.0" class="label" text-anchor="middle">52</text>
  <circle cx="404.7368421052631" cy="40.0" class="point"/>
  <text x="404.7368421052631" y="375" class="label" text-anchor="middle">2026-01-27</text>
  <text x="404.7368421052631" y="35.0" class="label" text-anchor="middle">52</text>
  <circle cx="409.47368421052636" cy="40.0" class="point"/>
  <text x="409.47368421052636" y="375" class="label" text-anchor="middle">2026-01-28</text>
  <text x="409.47368421052636" y="35.0" class="label" text-anchor="middle">52</text>
  <circle cx="414.2105263157895" cy="40.0" class="point"/>
  <text x="414.2105263157895" y="375" class="label" text-anchor="middle">2026-01-29</text>
  <text x="414.2105263157895" y="35.0" class="label" text-anchor="middle">52</text>
  <circle cx="418.9473684210526" cy="40.0" class="point"/>
  <text x="418.9473684210526" y="375" class="label" text-anchor="middle">2026-01-30</text>
  <text x="418.9473684210526" y="35.0" class="label" text-anchor="middle">52</text>
  <circle cx="423.68421052631584" cy="40.0" class="point"/>
  <text x="423.68421052631584" y="375" class="label" text-anchor="middle">2026-01-31</text>
  <text x="423.68421052631584" y="35.0" class="label" text-anchor="middle">52</text>
  <circle cx="428.42105263157896" cy="40.0" class="point"/>
  <text x="428.42105263157896" y="375" class="label" text-anchor="middle">2026-02-01</text>
  <text x="428.42105263157896" y="35.0" class="label" text-anchor="middle">52</text>
  <circle cx="433.1578947368421" cy="40.0" class="point"/>
  <text x="433.1578947368421" y="375" class="label" text-anchor="middle">2026-02-02</text>
  <text x="433.1578947368421" y="35.0" class="label" text-anchor="middle">52</text>
  <circle cx="437.8947368421053" cy="40.0" class="point"/>
  <text x="437.8947368421053" y="375" class="label" text-anchor="middle">2026-02-03</text>
  <text x="437.8947368421053" y="35.0" class="label" text-anchor="middle">52</text>
  <circle cx="442.63157894736844" cy="40.0" class="point"/>
  <text x="442.63157894736844" y="375" class="label" text-anchor="middle">2026-02-04</text>
  <text x="442.63157894736844" y="35.0" class="label" text-anchor="middle">52</text>
  <circle cx="447.36842105263156" cy="40.0" class="point"/>
  <text x="447.36842105263156" y="375" class="label" text-anchor="middle">2026-02-05</text>
  <text x="447.36842105263156" y="35.0" class="label" text-anchor="middle">52</text>
  <circle cx="452.1052631578947" cy="40.0" class="point"/>
  <text x="452.1052631578947" y="375" class="label" text-anchor="middle">2026-02-06</text>
  <text x="452.1052631578947" y="35.0" class="label" text-anchor="middle">52</text>
  <circle cx="456.8421052631579" cy="40.0" class="point"/>
  <text x="456.8421052631579" y="375" class="label" text-anchor="middle">2026-02-07</text>
  <text x="456.8421052631579" y="35.0" class="label" text-anchor="middle">52</text>
  <circle cx="461.57894736842104" cy="40.0" class="point"/>
  <text x="461.57894736842104" y="375" class="label" text-anchor="middle">2026-02-08</text>
  <text x="461.57894736842104" y="35.0" class="label" text-anchor="middle">52</text>
  <circle cx="466.31578947368416" cy="40.0" class="point"/>
  <text x="466.31578947368416" y="375" class="label" text-anchor="middle">2026-02-09</text>
  <text x="466.31578947368416" y="35.0" class="label" text-anchor="middle">52</text>
  <circle cx="471.0526315789474" cy="40.0" class="point"/>
  <text x="471.0526315789474" y="375" class="label" text-anchor="middle">2026-02-10</text>
  <text x="471.0526315789474" y="35.0" class="label" text-anchor="middle">52</text>
  <circle cx="475.7894736842105" cy="40.0" class="point"/>
  <text x="475.7894736842105" y="375" class="label" text-anchor="middle">2026-02-11</text>
  <text x="475.7894736842105" y="35.0" class="label" text-anchor="middle">52</text>
  <circle cx="480.52631578947364" cy="40.0" class="point"/>
  <text x="480.52631578947364" y="375" class="label" text-anchor="middle">2026-02-12</text>
  <text x="480.52631578947364" y="35.0" class="label" text-anchor="middle">52</text>
  <circle cx="485.2631578947369" cy="40.0" class="point"/>
  <text x="485.2631578947369" y="375" class="label" text-anchor="middle">2026-02-13</text>
  <text x="485.2631578947369" y="35.0" class="label" text-anchor="middle">52</text>
  <circle cx="490.0" cy="40.0" class="point"/>
  <text x="490.0" y="375" class="label" text-anchor="middle">2026-02-14</text>
  <text x="490.0" y="35.0" class="label" text-anchor="middle">52</text>
  <circle cx="494.7368421052631" cy="40.0" class="point"/>
  <text x="494.7368421052631" y="375" class="label" text-anchor="middle">2026-02-15</text>
  <text x="494.7368421052631" y="35.0" class="label" text-anchor="middle">52</text>
  <circle cx="499.47368421052636" cy="40.0" class="point"/>
  <text x="499.47368421052636" y="375" class="label" text-anchor="middle">2026-02-16</text>
  <text x="499.47368421052636" y="35.0" class="label" text-anchor="middle">52</text>
  <circle cx="504.2105263157895" cy="40.0" class="point"/>
  <text x="504.2105263157895" y="375" class="label" text-anchor="middle">2026-02-17</text>
  <text x="504.2105263157895" y="35.0" class="label" text-anchor="middle">52</text>
  <circle cx="508.9473684210526" cy="40.0" class="point"/>
  <text x="508.9473684210526" y="375" class="label" text-anchor="middle">2026-02-18</text>
  <text x="508.9473684210526" y="35.0" class="label" text-anchor="middle">52</text>
  <circle cx="513.6842105263158" cy="40.0" class="point"/>
  <text x="513.6842105263158" y="375" class="label" text-anchor="middle">2026-02-19</text>
  <text x="513.6842105263158" y="35.0" class="label" text-anchor="middle">52</text>
  <circle cx="518.421052631579" cy="40.0" class="point"/>
  <text x="518.421052631579" y="375" class="label" text-anchor="middle">2026-02-20</text>
  <text x="518.421052631579" y="35.0" class="label" text-anchor="middle">52</text>
  <circle cx="523.1578947368421" cy="40.0" class="point"/>
  <text x="523.1578947368421" y="375" class="label" text-anchor="middle">2026-02-21</text>
  <text x="523.1578947368421" y="35.0" class="label" text-anchor="middle">52</text>
  <circle cx="527.8947368421053" cy="40.0" class="point"/>
  <text x="527.8947368421053" y="375" class="label" text-anchor="middle">2026-02-22</text>
  <text x="527.8947368421053" y="35.0" class="label" text-anchor="middle">52</text>
  <circle cx="532.6315789473684" cy="40.0" class="point"/>
  <text x="532.6315789473684" y="375" class="label" text-anchor="middle">2026-02-23</text>
  <text x="532.6315789473684" y="35.0" class="label" text-anchor="middle">52</text>
  <circle cx="537.3684210526316" cy="40.0" class="point"/>
  <text x="537.3684210526316" y="375" class="label" text-anchor="middle">2026-02-24</text>
  <text x="537.3684210526316" y="35.0" class="label" text-anchor="middle">52</text>
  <circle cx="542.1052631578947" cy="40.0" class="point"/>
  <text x="542.1052631578947" y="375" class="label" text-anchor="middle">2026-02-25</text>
  <text x="542.1052631578947" y="35.0" class="label" text-anchor="middle">52</text>
  <circle cx="546.8421052631579" cy="40.0" class="point"/>
  <text x="546.8421052631579" y="375" class="label" text-anchor="middle">2026-02-26</text>
  <text x="546.8421052631579" y="35.0" class="label" text-anchor="middle">52</text>
  <circle cx="551.578947368421" cy="40.0" class="point"/>
  <text x="551.578947368421" y="375" class="label" text-anchor="middle">2026-02-27</text>
  <text x="551.578947368421" y="35.0" class="label" text-anchor="middle">52</text>
  <circle cx="556.3157894736842" cy="40.0" class="point"/>
  <text x="556.3157894736842" y="375" class="label" text-anchor="middle">2026-02-28</text>
  <text x="556.3157894736842" y="35.0" class="label" text-anchor="middle">52</text>
  <circle cx="561.0526315789474" cy="40.0" class="point"/>
  <text x="561.0526315789474" y="375" class="label" text-anchor="middle">2026-03-01</text>
  <text x="561.0526315789474" y="35.0" class="label" text-anchor="middle">52</text>
  <circle cx="565.7894736842105" cy="40.0" class="point"/>
  <text x="565.7894736842105" y="375" class="label" text-anchor="middle">2026-03-02</text>
  <text x="565.7894736842105" y="35.0" class="label" text-anchor="middle">52</text>
  <circle cx="570.5263157894736" cy="40.0" class="point"/>
  <text x="570.5263157894736" y="375" class="label" text-anchor="middle">2026-03-03</text>
  <text x="570.5263157894736" y="35.0" class="label" text-anchor="middle">52</text>
  <circle cx="575.2631578947369" cy="40.0" class="point"/>
  <text x="575.2631578947369" y="375" class="label" text-anchor="middle">2026-03-04</text>
  <text x="575.2631578947369" y="35.0" class="label" text-anchor="middle">52</text>
  <circle cx="580.0" cy="40.0" class="point"/>
  <text x="580.0" y="375" class="label" text-anchor="middle">2026-03-05</text>
  <text x="580.0" y="35.0" class="label" text-anchor="middle">52</text>
  <circle cx="584.7368421052631" cy="40.0" class="point"/>
  <text x="584.7368421052631" y="375" class="label" text-anchor="middle">2026-03-06</text>
  <text x="584.7368421052631" y="35.0" class="label" text-anchor="middle">52</text>
  <circle cx="589.4736842105264" cy="40.0" class="point"/>
  <text x="589.4736842105264" y="375" class="label" text-anchor="middle">2026-03-07</text>
  <text x="589.4736842105264" y="35.0" class="label" text-anchor="middle">52</text>
  <circle cx="594.2105263157895" cy="40.0" class="point"/>
  <text x="594.2105263157895" y="375" class="label" text-anchor="middle">2026-03-08</text>
  <text x="594.2105263157895" y="35.0" class="label" text-anchor="middle">52</text>
  <circle cx="598.9473684210526" cy="40.0" class="point"/>
  <text x="598.9473684210526" y="375" class="label" text-anchor="middle">2026-03-09</text>
  <text x="598.9473684210526" y="35.0" class="label" text-anchor="middle">52</text>
  <circle cx="603.6842105263158" cy="40.0" class="point"/>
  <text x="603.6842105263158" y="375" class="label" text-anchor="middle">2026-03-10</text>
  <text x="603.6842105263158" y="35.0" class="label" text-anchor="middle">52</text>
  <circle cx="608.421052631579" cy="40.0" class="point"/>
  <text x="608.421052631579" y="375" class="label" text-anchor="middle">2026-03-11</text>
  <text x="608.421052631579" y="35.0" class="label" text-anchor="middle">52</text>
  <circle cx="613.1578947368421" cy="40.0" class="point"/>
  <text x="613.1578947368421" y="375" class="label" text-anchor="middle">2026-03-12</text>
  <text x="613.1578947368421" y="35.0" class="label" text-anchor="middle">52</text>
  <circle cx="617.8947368421053" cy="40.0" class="point"/>
  <text x="617.8947368421053" y="375" class="label" text-anchor="middle">2026-03-13</text>
  <text x="617.8947368421053" y="35.0" class="label" text-anchor="middle">52</text>
  <circle cx="622.6315789473684" cy="40.0" class="point"/>
  <text x="622.6315789473684" y="375" class="label" text-anchor="middle">2026-03-14</text>
  <text x="622.6315789473684" y="35.0" class="label" text-anchor="middle">52</text>
  <circle cx="627.3684210526316" cy="40.0" class="point"/>
  <text x="627.3684210526316" y="375" class="label" text-anchor="middle">2026-03-15</text>
  <text x="627.3684210526316" y="35.0" class="label" text-anchor="middle">52</text>
  <circle cx="632.1052631578947" cy="40.0" class="point"/>
  <text x="632.1052631578947" y="375" class="label" text-anchor="middle">2026-03-16</text>
  <text x="632.1052631578947" y="35.0" class="label" text-anchor="middle">52</text>
  <circle cx="636.8421052631579" cy="40.0" class="point"/>
  <text x="636.8421052631579" y="375" class="label" text-anchor="middle">2026-03-17</text>
  <text x="636.8421052631579" y="35.0" class="label" text-anchor="middle">52</text>
  <circle cx="641.578947368421" cy="40.0" class="point"/>
  <text x="641.578947368421" y="375" class="label" text-anchor="middle">2026-03-18</text>
  <text x="641.578947368421" y="35.0" class="label" text-anchor="middle">52</text>
  <circle cx="646.3157894736842" cy="40.0" class="point"/>
  <text x="646.3157894736842" y="375" class="label" text-anchor="middle">2026-03-19</text>
  <text x="646.3157894736842" y="35.0" class="label" text-anchor="middle">52</text>
  <circle cx="651.0526315789474" cy="40.0" class="point"/>
  <text x="651.0526315789474" y="375" class="label" text-anchor="middle">2026-03-20</text>
  <text x="651.0526315789474" y="35.0" class="label" text-anchor="middle">52</text>
  <circle cx="655.7894736842105" cy="40.0" class="point"/>
  <text x="655.7894736842105" y="375" class="label" text-anchor="middle">2026-03-21</text>
  <text x="655.7894736842105" y="35.0" class="label" text-anchor="middle">52</text>
  <circle cx="660.5263157894736" cy="40.0" class="point"/>
  <text x="660.5263157894736" y="375" class="label" text-anchor="middle">2026-03-22</text>
  <text x="660.5263157894736" y="35.0" class="label" text-anchor="middle">52</text>
  <circle cx="665.2631578947369" cy="40.0" class="point"/>
  <text x="665.2631578947369" y="375" class="label" text-anchor="middle">2026-03-23</text>
  <text x="665.2631578947369" y="35.0" class="label" text-anchor="middle">52</text>
  <circle cx="670.0" cy="40.0" class="point"/>
  <text x="670.0" y="375" class="label" text-anchor="middle">2026-03-24</text>
  <text x="670.0" y="35.0" class="label" text-anchor="middle">52</text>
  <circle cx="674.7368421052631" cy="40.0" class="point"/>
  <text x="674.7368421052631" y="375" class="label" text-anchor="middle">2026-03-25</text>
  <text x="674.7368421052631" y="35.0" class="label" text-anchor="middle">52</text>
  <circle cx="679.4736842105264" cy="40.0" class="point"/>
  <text x="679.4736842105264" y="375" class="label" text-anchor="middle">2026-03-26</text>
  <text x="679.4736842105264" y="35.0" class="label" text-anchor="middle">52</text>
  <circle cx="684.2105263157895" cy="40.0" class="point"/>
  <text x="684.2105263157895" y="375" class="label" text-anchor="middle">2026-03-27</text>
  <text x="684.2105263157895" y="35.0" class="label" text-anchor="middle">52</text>
  <circle cx="688.9473684210526" cy="40.0" class="point"/>
  <text x="688.9473684210526" y="375" class="label" text-anchor="middle">2026-03-28</text>
  <text x="688.9473684210526" y="35.0" class="label" text-anchor="middle">52</text>
  <circle cx="693.6842105263158" cy="40.0" class="point"/>
  <text x="693.6842105263158" y="375" class="label" text-anchor="middle">2026-03-29</text>
  <text x="693.6842105263158" y="35.0" class="label" text-anchor="middle">52</text>
  <circle cx="698.421052631579" cy="40.0" class="point"/>
  <text x="698.421052631579" y="375" class="label" text-anchor="middle">2026-03-30</text>
  <text x="698.421052631579" y="35.0" class="label" text-anchor="middle">52</text>
  <circle cx="703.1578947368421" cy="40.0" class="point"/>
  <text x="703.1578947368421" y="375" class="label" text-anchor="middle">2026-03-31</text>
  <text x="703.1578947368421" y="35.0" class="label" text-anchor="middle">52</text>
  <circle cx="707.8947368421053" cy="40.0" class="point"/>
  <text x="707.8947368421053" y="375" class="label" text-anchor="middle">2026-04-01</text>
  <text x="707.8947368421053" y="35.0" class="label" text-anchor="middle">52</text>
  <circle cx="712.6315789473684" cy="40.0" class="point"/>
  <text x="712.6315789473684" y="375" class="label" text-anchor="middle">2026-04-02</text>
  <text x="712.6315789473684" y="35.0" class="label" text-anchor="middle">52</text>
  <circle cx="717.3684210526316" cy="40.0" class="point"/>
  <text x="717.3684210526316" y="375" class="label" text-anchor="middle">2026-04-03</text>
  <text x="717.3684210526316" y="35.0" class="label" text-anchor="middle">52</text>
  <circle cx="722.1052631578947" cy="40.0" class="point"/>
  <text x="722.1052631578947" y="375" class="label" text-anchor="middle">2026-04-04</text>
  <text x="722.1052631578947" y="35.0" class="label" text-anchor="middle">52</text>
  <circle cx="726.8421052631579" cy="40.0" class="point"/>
  <text x="726.8421052631579" y="375" class="label" text-anchor="middle">2026-04-05</text>
  <text x="726.8421052631579" y="35.0" class="label" text-anchor="middle">52</text>
  <circle cx="731.578947368421" cy="40.0" class="point"/>
  <text x="731.578947368421" y="375" class="label" text-anchor="middle">2026-04-06</text>
  <text x="731.578947368421" y="35.0" class="label" text-anchor="middle">52</text>
  <circle cx="736.3157894736842" cy="40.0" class="point"/>
  <text x="736.3157894736842" y="375" class="label" text-anchor="middle">2026-04-07</text>
  <text x="736.3157894736842" y="35.0" class="label" text-anchor="middle">52</text>
  <circle cx="741.0526315789474" cy="40.0" class="point"/>
  <text x="741.0526315789474" y="375" class="label" text-anchor="middle">2026-04-08</text>
  <text x="741.0526315789474" y="35.0" class="label" text-anchor="middle">52</text>
  <circle cx="745.7894736842105" cy="40.0" class="point"/>
  <text x="745.7894736842105" y="375" class="label" text-anchor="middle">2026-04-09</text>
  <text x="745.7894736842105" y="35.0" class="label" text-anchor="middle">52</text>
  <circle cx="750.5263157894736" cy="40.0" class="point"/>
  <text x="750.5263157894736" y="375" class="label" text-anchor="middle">2026-04-10</text>
  <text x="750.5263157894736" y="35.0" class="label" text-anchor="middle">52</text>
  <circle cx="755.2631578947369" cy="40.0" class="point"/>
  <text x="755.2631578947369" y="375" class="label" text-anchor="middle">2026-04-11</text>
  <text x="755.2631578947369" y="35.0" class="label" text-anchor="middle">52</text>
  <circle cx="760.0" cy="40.0" class="point"/>
  <text x="760.0" y="375" class="label" text-anchor="middle">2026-04-12</text>
  <text x="760.0" y="35.0" class="label" text-anchor="middle">52</text>
  <text x="30" y="363.0" class="label" text-anchor="end">0</text>
  <text x="30" y="301.46153846153845" class="label" text-anchor="end">10</text>
  <text x="30" y="239.9230769230769" class="label" text-anchor="end">20</text>
  <text x="30" y="178.38461538461542" class="label" text-anchor="end">30</text>
  <text x="30" y="116.84615384615384" class="label" text-anchor="end">40</text>
  <text x="30" y="55.30769230769232" class="label" text-anchor="end">50</text>
</svg>