<svg xmlns="http://www.w3.org/2000/svg" width="800" height="400" viewBox="0 0 800 400">
  <style>
    .axis{stroke:#666;stroke-width:1}
    .line{stroke:#4a9;stroke-width:2;fill:none}
    .point{fill:#4a9;r:4}
    .label{font:10px sans-serif;fill:#aaa}
    .title{font:14px sans-serif;fill:#333}
  </style>
  <text x="400" y="20" class="title" text-anchor="middle">OPIC Field Growth Timeline</text>
  <line x1="40" y1="40" x2="40" y2="360" class="axis"/>
  <line x1="40" y1="360" x2="760" y2="360" class="axis"/>
  <path d="M 40.0,101.53846153846155 L 44.18604651162791,101.53846153846155 L 48.372093023255815,101.53846153846155 L 52.55813953488372,101.53846153846155 L 56.74418604651163,101.53846153846155 L 60.93023255813954,101.53846153846155 L 65.11627906976744,101.53846153846155 L 69.30232558139535,101.53846153846155 L 73.48837209302326,101.53846153846155 L 77.67441860465117,101.53846153846155 L 81.86046511627907,101.53846153846155 L 86.04651162790698,101.53846153846155 L 90.23255813953489,101.53846153846155 L 94.41860465116278,101.53846153846155 L 98.6046511627907,101.53846153846155 L 102.79069767441861,101.53846153846155 L 106.97674418604652,101.53846153846155 L 111.16279069767441,101.53846153846155 L 115.34883720930233,101.53846153846155 L 119.53488372093024,101.53846153846155 L 123.72093023255813,101.53846153846155 L 127.90697674418604,101.53846153846155 L 132.09302325581396,101.53846153846155 L 136.27906976744185,101.53846153846155 L 140.46511627906978,101.53846153846155 L 144.6511627906977,101.53846153846155 L 148.83720930232556,101.53846153846155 L 153.02325581395348,40.0 L 157.2093023255814,40.0 L 161.3953488372093,40.0 L 165.58139534883722,40.0 L 169.7674418604651,40.0 L 173.95348837209303,40.0 L 178.13953488372093,40.0 L 182.32558139534882,40.0 L 186.51162790697674,40.0 L 190.69767441860466,40.0 L 194.88372093023256,40.0 L 199.06976744186048,40.0 L 203.25581395348837,40.0 L 207.44186046511626,40.0 L 211.62790697674419,40.0 L 215.81395348837208,40.0 L 220.0,40.0 L 224.18604651162792,40.0 L 228.37209302325584,40.0 L 232.5581395348837,40.0 L 236.74418604651163,40.0 L 240.93023255813952,40.0 L 245.11627906976744,40.0 L 249.30232558139537,40.0 L 253.4883720930233,40.0 L 257.6744186046511,40.0 L 261.8604651162791,40.0 L 266.04651162790697,40.0 L 270.2325581395349,40.0 L 274.4186046511628,40.0 L 278.6046511627907,40.0 L 282.7906976744186,40.0 L 286.9767441860465,40.0 L 291.16279069767444,40.0 L 295.34883720930236,40.0 L 299.5348837209302,40.0 L 303.72093023255815,40.0 L 307.90697674418607,40.0 L 312.09302325581393,40.0 L 316.27906976744185,40.0 L 320.4651162790698,40.0 L 324.65116279069764,40.0 L 328.83720930232556,40.0 L 333.0232558139535,40.0 L 337.2093023255814,40.0 L 341.3953488372093,40.0 L 345.5813953488372,40.0 L 349.7674418604651,40.0 L 353.95348837209303,40.0 L 358.13953488372096,40.0 L 362.3255813953489,40.0 L 366.51162790697674,40.0 L 370.69767441860466,40.0 L 374.8837209302325,40.0 L 379.06976744186045,40.0 L 383.25581395348837,40.0 L 387.4418604651163,40.0 L 391.62790697674416,40.0 L 395.8139534883721,40.0 L 400.0,40.0 L 404.1860465116279,40.0 L 408.37209302325584,40.0 L 412.55813953488376,40.0 L 416.7441860465117,40.0 L 420.93023255813955,40.0 L 425.1162790697674,40.0 L 429.30232558139534,40.0 L 433.48837209302326,40.0 L 437.6744186046511,40.0 L 441.86046511627904,40.0 L 446.04651162790697,40.0 L 450.2325581395349,40.0 L 454.4186046511628,40.0 L 458.60465116279073,40.0 L 462.79069767441865,40.0 L 466.9767441860466,40.0 L 471.1627906976744,40.0 L 475.3488372093023,40.0 L 479.5348837209302,40.0 L 483.72093023255815,40.0 L 487.90697674418607,40.0 L 492.09302325581393,40.0 L 496.27906976744185,40.0 L 500.4651162790698,40.0 L 504.6511627906977,40.0 L 508.8372093023256,40.0 L 513.0232558139535,40.0 L 517.2093023255813,40.0 L 521.3953488372092,40.0 L 525.5813953488372,40.0 L 529.7674418604652,40.0 L 533.953488372093,40.0 L 538.1395348837209,40.0 L 542.3255813953489,40.0 L 546.5116279069767,40.0 L 550.6976744186047,40.0 L 554.8837209302326,40.0 L 559.0697674418604,40.0 L 563.2558139534883,40.0 L 567.4418604651163,40.0 L 571.6279069767442,40.0 L 575.8139534883721,40.0 L 580.0,40.0 L 584.1860465116279,40.0 L 588.3720930232558,40.0 L 592.5581395348837,40.0 L 596.7441860465117,40.0 L 600.9302325581396,40.0 L 605.1162790697674,40.0 L 609.3023255813953,40.0 L 613.4883720930233,40.0 L 617.6744186046511,40.0 L 621.8604651162791,40.0 L 626.046511627907,40.0 L 630.232558139535,40.0 L 634.4186046511628,40.0 L 638.6046511627907,40.0 L 642.7906976744187,40.0 L 646.9767441860465,40.0 L 651.1627906976744,40.0 L 655.3488372093022,40.0 L 659.5348837209302,40.0 L 663.7209302325581,40.0 L 667.9069767441861,40.0 L 672.0930232558139,40.0 L 676.2790697674419,40.0 L 680.4651162790698,40.0 L 684.6511627906978,40.0 L 688.8372093023256,40.0 L 693.0232558139535,40.0 L 697.2093023255813,40.0 L 701.3953488372093,40.0 L 705.5813953488372,40.0 L 709.767441860465,40.0 L 713.953488372093,40.0 L 718.1395348837209,40.0 L 722.3255813953489,40.0 L 726.5116279069767,40.0 L 730.6976744186047,40.0 L 734.8837209302326,40.0 L 739.0697674418604,40.0 L 743.2558139534883,40.0 L 747.4418604651163,40.0 L 751.6279069767442,40.0 L 755.8139534883721,40.0 L 760.0,40.0" class="line"/>
  <circle cx="40.0" cy="101.53846153846155" class="point"/>
  <text x="40.0" y="375" class="label" text-anchor="middle">2025-11-11</text>
  <text x="40.0" y="96.53846153846155" class="label" text-anchor="middle">42</text>
  <circle cx="44.18604651162791" cy="101.53846153846155" class="point"/>
  <text x="44.18604651162791" y="375" class="label" text-anchor="middle">2025-11-12</text>
  <text x="44.18604651162791" y="96.53846153846155" class="label" text-anchor="middle">42</text>
  <circle cx="48.372093023255815" cy="101.53846153846155" class="point"/>
  <text x="48.372093023255815" y="375" class="label" text-anchor="middle">2025-11-13</text>
  <text x="48.372093023255815" y="96.53846153846155" class="label" text-anchor="middle">42</text>
  <circle cx="52.55813953488372" cy="101.53846153846155" class="point"/>
  <text x="52.55813953488372" y="375" class="label" text-anchor="middle">2025-11-14</text>
  <text x="52.55813953488372" y="96.53846153846155" class="label" text-anchor="middle">42</text>
  <circle cx="56.74418604651163" cy="101.53846153846155" class="point"/>
  <text x="56.74418604651163" y="375" class="label" text-anchor="middle">2025-11-15</text>
  <text x="56.74418604651163" y="96.53846153846155" class="label" text-anchor="middle">42</text>
  <circle cx="60.93023255813954" cy="101.53846153846155" class="point"/>
  <text x="60.93023255813954" y="375" class="label" text-anchor="middle">2025-11-16</text>
  <text x="60.93023255813954" y="96.53846153846155" class="label" text-anchor="middle">42</text>
  <circle cx="65.11627906976744" cy="101.53846153846155" class="point"/>
  <text x="65.11627906976744" y="375" class="label" text-anchor="middle">2025-11-17</text>
  <text x="65.11627906976744" y="96.53846153846155" class="label" text-anchor="middle">42</text>
  <circle cx="69.30232558139535" cy="101.53846153846155" class="point"/>
  <text x="69.30232558139535" y="375" class="label" text-anchor="middle">2025-11-18</text>
  <text x="69.30232558139535" y="96.53846153846155" class="label" text-anchor="middle">42</text>
  <circle cx="73.48837209302326" cy="101.53846153846155" class="point"/>
  <text x="73.48837209302326" y="375" class="label" text-anchor="middle">2025-11-19</text>
  <text x="73.48837209302326" y="96.53846153846155" class="label" text-anchor="middle">42</text>
  <circle cx="77.67441860465117" cy="101.53846153846155" class="point"/>
  <text x="77.67441860465117" y="375" class="label" text-anchor="middle">2025-11-20</text>
  <text x="77.67441860465117" y="96.53846153846155" class="label" text-anchor="middle">42</text>
  <circle cx="81.86046511627907" cy="101.53846153846155" class="point"/>
  <text x="81.86046511627907" y="375" class="label" text-anchor="middle">2025-11-21</text>
  <text x="81.86046511627907" y="96.53846153846155" class="label" text-anchor="middle">42</text>
  <circle cx="86.04651162790698" cy="101.53846153846155" class="point"/>
  <text x="86.04651162790698" y="375" class="label" text-anchor="middle">2025-11-22</text>
  <text x="86.04651162790698" y="96.53846153846155" class="label" text-anchor="middle">42</text>
  <circle cx="90.23255813953489" cy="101.53846153846155" class="point"/>
  <text x="90.23255813953489" y="375" class="label" text-anchor="middle">2025-11-23</text>
  <text x="90.23255813953489" y="96.53846153846155" class="label" text-anchor="middle">42</text>
  <circle cx="94.41860465116278" cy="101.53846153846155" class="point"/>
  <text x="94.41860465116278" y="375" class="label" text-anchor="middle">2025-11-24</text>
  <text x="94.41860465116278" y="96.53846153846155" class="label" text-anchor="middle">42</text>
  <circle cx="98.6046511627907" cy="101.53846153846155" class="point"/>
  <text x="98.6046511627907" y="375" class="label" text-anchor="middle">2025-11-25</text>
  <text x="98.6046511627907" y="96.53846153846155" class="label" text-anchor="middle">42</text>
  <circle cx="102.79069767441861" cy="101.53846153846155" class="point"/>
  <text x="102.79069767441861" y="375" class="label" text-anchor="middle">2025-11-26</text>
  <text x="102.79069767441861" y="96.53846153846155" class="label" text-anchor="middle">42</text>
  <circle cx="106.97674418604652" cy="101.53846153846155" class="point"/>
  <text x="106.97674418604652" y="375" class="label" text-anchor="middle">2025-11-27</text>
  <text x="106.97674418604652" y="96.53846153846155" class="label" text-anchor="middle">42</text>
  <circle cx="111.16279069767441" cy="101.53846153846155" class="point"/>
  <text x="111.16279069767441" y="375" class="label" text-anchor="middle">2025-11-28</text>
  <text x="111.16279069767441" y="96.53846153846155" class="label" text-anchor="middle">42</text>
  <circle cx="115.34883720930233" cy="101.53846153846155" class="point"/>
  <text x="115.34883720930233" y="375" class="label" text-anchor="middle">2025-11-29</text>
  <text x="115.34883720930233" y="96.53846153846155" class="label" text-anchor="middle">42</text>
  <circle cx="119.53488372093024" cy="101.53846153846155" class="point"/>
  <text x="119.53488372093024" y="375" class="label" text-anchor="middle">2025-11-30</text>
  <text x="119.53488372093024" y="96.53846153846155" class="label" text-anchor="middle">42</text>
  <circle cx="123.72093023255813" cy="101.53846153846155" class="point"/>
  <text x="123.72093023255813" y="375" class="label" text-anchor="middle">2025-12-01</text>
  <text x="123.72093023255813" y="96.53846153846155" class="label" text-anchor="middle">42</text>
  <circle cx="127.90697674418604" cy="101.53846153846155" class="point"/>
  <text x="127.90697674418604" y="375" class="label" text-anchor="middle">2025-12-02</text>
  <text x="127.90697674418604" y="96.53846153846155" class="label" text-anchor="middle">42</text>
  <circle cx="132.09302325581396" cy="101.53846153846155" class="point"/>
  <text x="132.09302325581396" y="375" class="label" text-anchor="middle">2025-12-03</text>
  <text x="132.09302325581396" y="96.53846153846155" class="label" text-anchor="middle">42</text>
  <circle cx="136.27906976744185" cy="101.53846153846155" class="point"/>
  <text x="136.27906976744185" y="375" class="label" text-anchor="middle">2025-12-04</text>
  <text x="136.27906976744185" y="96.53846153846155" class="label" text-anchor="middle">42</text>
  <circle cx="140.46511627906978" cy="101.53846153846155" class="point"/>
  <text x="140.46511627906978" y="375" class="label" text-anchor="middle">2025-12-05</text>
  <text x="140.46511627906978" y="96.53846153846155" class="label" text-anchor="middle">42</text>
  <circle cx="144.6511627906977" cy="101.53846153846155" class="point"/>
  <text x="144.6511627906977" y="375" class="label" text-anchor="middle">2025-12-06</text>
  <text x="144.6511627906977" y="96.53846153846155" class="label" text-anchor="middle">42</text>
  <circle cx="148.83720930232556" cy="101.53846153846155" class="point"/>
  <text x="148.83720930232556" y="375" class="label" text-anchor="middle">2025-12-07</text>
  <text x="148.83720930232556" y="96.53846153846155" class="label" text-anchor="middle">42</text>
  <circle cx="153.02325581395348" cy="40.0" class="point"/>
  <text x="153.02325581395348" y="375" class="label" text-anchor="middle">2025-12-08</text>
  <text x="153.02325581395348" y="35.0" class="label" text-anchor="middle">52</text>
  <circle cx="157.2093023255814" cy="40.0" class="point"/>
  <text x="157.2093023255814" y="375" class="label" text-anchor="middle">2025-12-09</text>
  <text x="157.2093023255814" y="35.0" class="label" text-anchor="middle">52</text>
  <circle cx="161.3953488372093" cy="40.0" class="point"/>
  <text x="161.3953488372093" y="375" class="label" text-anchor="middle">2025-12-10</text>
  <text x="161.3953488372093" y="35.0" class="label" text-anchor="middle">52</text>
  <circle cx="165.58139534883722" cy="40.0" class="point"/>
  <text x="165.58139534883722" y="375" class="label" text-anchor="middle">2025-12-11</text>
  <text x="165.58139534883722" y="35.0" class="label" text-anchor="middle">52</text>
  <circle cx="169.7674418604651" cy="40.0" class="point"/>
  <text x="169.7674418604651" y="375" class="label" text-anchor="middle">2025-12-12</text>
  <text x="169.7674418604651" y="35.0" class="label" text-anchor="middle">52</text>
  <circle cx="173.95348837209303" cy="40.0" class="point"/>
  <text x="173.95348837209303" y="375" class="label" text-anchor="middle">2025-12-13</text>
  <text x="173.95348837209303" y="35.0" class="label" text-anchor="middle">52</text>
  <circle cx="178.13953488372093" cy="40.0" class="point"/>
  <text x="178.13953488372093" y="375" class="label" text-anchor="middle">2025-12-14</text>
  <text x="178.13953488372093" y="35.0" class="label" text-anchor="middle">52</text>
  <circle cx="182.32558139534882" cy="40.0" class="point"/>
  <text x="182.32558139534882" y="375" class="label" text-anchor="middle">2025-12-15</text>
  <text x="182.32558139534882" y="35.0" class="label" text-anchor="middle">52</text>
  <circle cx="186.51162790697674" cy="40.0" class="point"/>
  <text x="186.51162790697674" y="375" class="label" text-anchor="middle">2025-12-16</text>
  <text x="186.51162790697674" y="35.0" class="label" text-anchor="middle">52</text>
  <circle cx="190.69767441860466" cy="40.0" class="point"/>
  <text x="190.69767441860466" y="375" class="label" text-anchor="middle">2025-12-17</text>
  <text x="190.69767441860466" y="35.0" class="label" text-anchor="middle">52</text>
  <circle cx="194.88372093023256" cy="40.0" class="point"/>
  <text x="194.88372093023256" y="375" class="label" text-anchor="middle">2025-12-18</text>
  <text x="194.88372093023256" y="35.0" class="label" text-anchor="middle">52</text>
  <circle cx="199.06976744186048" cy="40.0" class="point"/>
  <text x="199.06976744186048" y="375" class="label" text-anchor="middle">2025-12-19</text>
  <text x="199.06976744186048" y="35.0" class="label" text-anchor="middle">52</text>
  <circle cx="203.25581395348837" cy="40.0" class="point"/>
  <text x="203.25581395348837" y="375" class="label" text-anchor="middle">2025-12-20</text>
  <text x="203.25581395348837" y="35.0" class="label" text-anchor="middle">52</text>
  <circle cx="207.44186046511626" cy="40.0" class="point"/>
  <text x="207.44186046511626" y="375" class="label" text-anchor="middle">2025-12-21</text>
  <text x="207.44186046511626" y="35.0" class="label" text-anchor="middle">52</text>
  <circle cx="211.62790697674419" cy="40.0" class="point"/>
  <text x="211.62790697674419" y="375" class="label" text-anchor="middle">2025-12-22</text>
  <text x="211.62790697674419" y="35.0" class="label" text-anchor="middle">52</text>
  <circle cx="215.81395348837208" cy="40.0" class="point"/>
  <text x="215.81395348837208" y="375" class="label" text-anchor="middle">2025-12-23</text>
  <text x="215.81395348837208" y="35.0" class="label" text-anchor="middle">52</text>
  <circle cx="220.0" cy="40.0" class="point"/>
  <text x="220.0" y="375" class="label" text-anchor="middle">2025-12-24</text>
  <text x="220.0" y="35.0" class="label" text-anchor="middle">52</text>
  <circle cx="224.18604651162792" cy="40.0" class="point"/>
  <text x="224.18604651162792" y="375" class="label" text-anchor="middle">2025-12-25</text>
  <text x="224.18604651162792" y="35.0" class="label" text-anchor="middle">52</text>
  <circle cx="228.37209302325584" cy="40.0" class="point"/>
  <text x="228.37209302325584" y="375" class="label" text-anchor="middle">2025-12-26</text>
  <text x="228.37209302325584" y="35.0" class="label" text-anchor="middle">52</text>
  <circle cx="232.5581395348837" cy="40.0" class="point"/>
  <text x="232.5581395348837" y="375" class="label" text-anchor="middle">2025-12-27</text>
  <text x="232.5581395348837" y="35.0" class="label" text-anchor="middle">52</text>
  <circle cx="236.74418604651163" cy="40.0" class="point"/>
  <text x="236.74418604651163" y="375" class="label" text-anchor="middle">2025-12-28</text>
  <text x="236.74418604651163" y="35.0" class="label" text-anchor="middle">52</text>
  <circle cx="240.93023255813952" cy="40.0" class="point"/>
  <text x="240.93023255813952" y="375" class="label" text-anchor="middle">2025-12-29</text>
  <text x="240.93023255813952" y="35.0" class="label" text-anchor="middle">52</text>
  <circle cx="245.11627906976744" cy="40.0" class="point"/>
  <text x="245.11627906976744" y="375" class="label" text-anchor="middle">2025-12-30</text>
  <text x="245.11627906976744" y="35.0" class="label" text-anchor="middle">52</text>
  <circle cx="249.30232558139537" cy="40.0" class="point"/>
  <text x="249.30232558139537" y="375" class="label" text-anchor="middle">2025-12-31</text>
  <text x="249.30232558139537" y="35.0" class="label" text-anchor="middle">52</text>
  <circle cx="253.4883720930233" cy="40.0" class="point"/>
  <text x="253.4883720930233" y="375" class="label" text-anchor="middle">2026-01-01</text>
  <text x="253.4883720930233" y="35.0" class="label" text-anchor="middle">52</text>
  <circle cx="257.6744186046511" cy="40.0" class="point"/>
  <text x="257.6744186046511" y="375" class="label" text-anchor="middle">2026-01-02</text>
  <text x="257.6744186046511" y="35.0" class="label" text-anchor="middle">52</text>
  <circle cx="261.8604651162791" cy="40.0" class="point"/>
  <text x="261.8604651162791" y="375" class="label" text-anchor="middle">2026-01-03</text>
  <text x="261.8604651162791" y="35.0" class="label" text-anchor="middle">52</text>
  <circle cx="266.04651162790697" cy="40.0" class="point"/>
  <text x="266.04651162790697" y="375" class="label" text-anchor="middle">2026-01-04</text>
  <text x="266.04651162790697" y="35.0" class="label" text-anchor="middle">52</text>
  <circle cx="270.2325581395349" cy="40.0" class="point"/>
  <text x="270.2325581395349" y="375" class="label" text-anchor="middle">2026-01-05</text>
  <text x="270.2325581395349" y="35.0" class="label" text-anchor="middle">52</text>
  <circle cx="274.4186046511628" cy="40.0" class="point"/>
  <text x="274.4186046511628" y="375" class="label" text-anchor="middle">2026-01-06</text>
  <text x="274.4186046511628" y="35.0" class="label" text-anchor="middle">52</text>
  <circle cx="278.6046511627907" cy="40.0" class="point"/>
  <text x="278.6046511627907" y="375" class="label" text-anchor="middle">2026-01-07</text>
  <text x="278.6046511627907" y="35.0" class="label" text-anchor="middle">52</text>
  <circle cx="282.7906976744186" cy="40.0" class="point"/>
  <text x="282.7906976744186" y="375" class="label" text-anchor="middle">2026-01-08</text>
  <text x="282.7906976744186" y="35.0" class="label" text-anchor="middle">52</text>
  <circle cx="286.9767441860465" cy="40.0" class="point"/>
  <text x="286.9767441860465" y="375" class="label" text-anchor="middle">2026-01-09</text>
  <text x="286.9767441860465" y="35.0" class="label" text-anchor="middle">52</text>
  <circle cx="291.16279069767444" cy="40.0" class="point"/>
  <text x="291.16279069767444" y="375" class="label" text-anchor="middle">2026-01-10</text>
  <text x="291.16279069767444" y="35.0" class="label" text-anchor="middle">52</text>
  <circle cx="295.34883720930236" cy="40.0" class="point"/>
  <text x="295.34883720930236" y="375" class="label" text-anchor="middle">2026-01-11</text>
  <text x="295.34883720930236" y="35.0" class="label" text-anchor="middle">52</text>
  <circle cx="299.5348837209302" cy="40.0" class="point"/>
  <text x="299.5348837209302" y="375" class="label" text-anchor="middle">2026-01-12</text>
  <text x="299.5348837209302" y="35.0" class="label" text-anchor="middle">52</text>
  <circle cx="303.72093023255815" cy="40.0" class="point"/>
  <text x="303.72093023255815" y="375" class="label" text-anchor="middle">2026-01-13</text>
  <text x="303.72093023255815" y="35.0" class="label" text-anchor="middle">52</text>
  <circle cx="307.90697674418607" cy="40.0" class="point"/>
  <text x="307.90697674418607" y="375" class="label" text-anchor="middle">2026-01-14</text>
  <text x="307.90697674418607" y="35.0" class="label" text-anchor="middle">52</text>
  <circle cx="312.09302325581393" cy="40.0" class="point"/>
  <text x="312.09302325581393" y="375" class="label" text-anchor="middle">2026-01-15</text>
  <text x="312.09302325581393" y="35.0" class="label" text-anchor="middle">52</text>
  <circle cx="316.27906976744185" cy="40.0" class="point"/>
  <text x="316.27906976744185" y="375" class="label" text-anchor="middle">2026-01-16</text>
  <text x="316.27906976744185" y="35.0" class="label" text-anchor="middle">52</text>
  <circle cx="320.4651162790698" cy="40.0" class="point"/>
  <text x="320.4651162790698" y="375" class="label" text-anchor="middle">2026-01-17</text>
  <text x="320.4651162790698" y="35.0" class="label" text-anchor="middle">52</text>
  <circle cx="324.65116279069764" cy="40.0" class="point"/>
  <text x="324.65116279069764" y="375" class="label" text-anchor="middle">2026-01-18</text>
  <text x="324.65116279069764" y="35.0" class="label" text-anchor="middle">52</text>
  <circle cx="328.83720930232556" cy="40.0" class="point"/>
  <text x="328.83720930232556" y="375" class="label" text-anchor="middle">2026-01-19</text>
  <text x="328.83720930232556" y="35.0" class="label" text-anchor="middle">52</text>
  <circle cx="333.0232558139535" cy="40.0" class="point"/>
  <text x="333.0232558139535" y="375" class="label" text-anchor="middle">2026-01-20</text>
  <text x="333.0232558139535" y="35.0" class="label" text-anchor="middle">52</text>
  <circle cx="337.2093023255814" cy="40.0" class="point"/>
  <text x="337.2093023255814" y="375" class="label" text-anchor="middle">2026-01-21</text>
  <text x="337.2093023255814" y="35.0" class="label" text-anchor="middle">52</text>
  <circle cx="341.3953488372093" cy="40.0" class="point"/>
  <text x="341.3953488372093" y="375" class="label" text-anchor="middle">2026-01-22</text>
  <text x="341.3953488372093" y="35.0" class="label" text-anchor="middle">52</text>
  <circle cx="345.5813953488372" cy="40.0" class="point"/>
  <text x="345.5813953488372" y="375" class="label" text-anchor="middle">2026-01-23</text>
  <text x="345.5813953488372" y="35.0" class="label" text-anchor="middle">52</text>
  <circle cx="349.7674418604651" cy="40.0" class="point"/>
  <text x="349.7674418604651" y="375" class="label" text-anchor="middle">2026-01-24</text>
  <text x="349.7674418604651" y="35.0" class="label" text-anchor="middle">52</text>
  <circle cx="353.95348837209303" cy="40.0" class="point"/>
  <text x="353.95348837209303" y="375" class="label" text-anchor="middle">2026-01-25</text>
  <text x="353.95348837209303" y="35.0" class="label" text-anchor="middle">52</text>
  <circle cx="358.13953488372096" cy="40.0" class="point"/>
  <text x="358.13953488372096" y="375" class="label" text-anchor="middle">2026-01-26</text>
  <text x="358.13953488372096" y="35.0" class="label" text-anchor="middle">52</text>
  <circle cx="362.3255813953489" cy="40.0" class="point"/>
  <text x="362.3255813953489" y="375" class="label" text-anchor="middle">2026-01-27</text>
  <text x="362.3255813953489" y="35.0" class="label" text-anchor="middle">52</text>
  <circle cx="366.51162790697674" cy="40.0" class="point"/>
  <text x="366.51162790697674" y="375" class="label" text-anchor="middle">2026-01-28</text>
  <text x="366.51162790697674" y="35.0" class="label" text-anchor="middle">52</text>
  <circle cx="370.69767441860466" cy="40.0" class="point"/>
  <text x="370.69767441860466" y="375" class="label" text-anchor="middle">2026-01-29</text>
  <text x="370.69767441860466" y="35.0" class="label" text-anchor="middle">52</text>
  <circle cx="374.8837209302325" cy="40.0" class="point"/>
  <text x="374.8837209302325" y="375" class="label" text-anchor="middle">2026-01-30</text>
  <text x="374.8837209302325" y="35.0" class="label" text-anchor="middle">52</text>
  <circle cx="379.06976744186045" cy="40.0" class="point"/>
  <text x="379.06976744186045" y="375" class="label" text-anchor="middle">2026-01-31</text>
  <text x="379.06976744186045" y="35.0" class="label" text-anchor="middle">52</text>
  <circle cx="383.25581395348837" cy="40.0" class="point"/>
  <text x="383.25581395348837" y="375" class="label" text-anchor="middle">2026-02-01</text>
  <text x="383.25581395348837" y="35.0" class="label" text-anchor="middle">52</text>
  <circle cx="387.4418604651163" cy="40.0" class="point"/>
  <text x="387.4418604651163" y="375" class="label" text-anchor="middle">2026-02-02</text>
  <text x="387.4418604651163" y="35.0" class="label" text-anchor="middle">52</text>
  <circle cx="391.62790697674416" cy="40.0" class="point"/>
  <text x="391.62790697674416" y="375" class="label" text-anchor="middle">2026-02-03</text>
  <text x="391.62790697674416" y="35.0" class="label" text-anchor="middle">52</text>
  <circle cx="395.8139534883721" cy="40.0" class="point"/>
  <text x="395.8139534883721" y="375" class="label" text-anchor="middle">2026-02-04</text>
  <text x="395.8139534883721" y="35.0" class="label" text-anchor="middle">52</text>
  <circle cx="400.0" cy="40.0" class="point"/>
  <text x="400.0" y="375" class="label" text-anchor="middle">2026-02-05</text>
  <text x="400.0" y="35.0" class="label" text-anchor="middle">52</text>
  <circle cx="404.1860465116279" cy="40.0" class="point"/>
  <text x="404.1860465116279" y="375" class="label" text-anchor="middle">2026-02-06</text>
  <text x="404.1860465116279" y="35.0" class="label" text-anchor="middle">52</text>
  <circle cx="408.37209302325584" cy="40.0" class="point"/>
  <text x="408.37209302325584" y="375" class="label" text-anchor="middle">2026-02-07</text>
  <text x="408.37209302325584" y="35.0" class="label" text-anchor="middle">52</text>
  <circle cx="412.55813953488376" cy="40.0" class="point"/>
  <text x="412.55813953488376" y="375" class="label" text-anchor="middle">2026-02-08</text>
  <text x="412.55813953488376" y="35.0" class="label" text-anchor="middle">52</text>
  <circle cx="416.7441860465117" cy="40.0" class="point"/>
  <text x="416.7441860465117" y="375" class="label" text-anchor="middle">2026-02-09</text>
  <text x="416.7441860465117" y="35.0" class="label" text-anchor="middle">52</text>
  <circle cx="420.93023255813955" cy="40.0" class="point"/>
  <text x="420.93023255813955" y="375" class="label" text-anchor="middle">2026-02-10</text>
  <text x="420.93023255813955" y="35.0" class="label" text-anchor="middle">52</text>
  <circle cx="425.1162790697674" cy="40.0" class="point"/>
  <text x="425.1162790697674" y="375" class="label" text-anchor="middle">2026-02-11</text>
  <text x="425.1162790697674" y="35.0" class="label" text-anchor="middle">52</text>
  <circle cx="429.30232558139534" cy="40.0" class="point"/>
  <text x="429.30232558139534" y="375" class="label" text-anchor="middle">2026-02-12</text>
  <text x="429.30232558139534" y="35.0" class="label" text-anchor="middle">52</text>
  <circle cx="433.48837209302326" cy="40.0" class="point"/>
  <text x="433.48837209302326" y="375" class="label" text-anchor="middle">2026-02-13</text>
  <text x="433.48837209302326" y="35.0" class="label" text-anchor="middle">52</text>
  <circle cx="437.6744186046511" cy="40.0" class="point"/>
  <text x="437.6744186046511" y="375" class="label" text-anchor="middle">2026-02-14</text>
  <text x="437.6744186046511" y="35.0" class="label" text-anchor="middle">52</text>
  <circle cx="441.86046511627904" cy="40.0" class="point"/>
  <text x="441.86046511627904" y="375" class="label" text-anchor="middle">2026-02-15</text>
  <text x="441.86046511627904" y="35.0" class="label" text-anchor="middle">52</text>
  <circle cx="446.04651162790697" cy="40.0" class="point"/>
  <text x="446.04651162790697" y="375" class="label" text-anchor="middle">2026-02-16</text>
  <text x="446.04651162790697" y="35.0" class="label" text-anchor="middle">52</text>
  <circle cx="450.2325581395349" cy="40.0" class="point"/>
  <text x="450.2325581395349" y="375" class="label" text-anchor="middle">2026-02-17</text>
  <text x="450.2325581395349" y="35.0" class="label" text-anchor="middle">52</text>
  <circle cx="454.4186046511628" cy="40.0" class="point"/>
  <text x="454.4186046511628" y="375" class="label" text-anchor="middle">2026-02-18</text>
  <text x="454.4186046511628" y="35.0" class="label" text-anchor="middle">52</text>
  <circle cx="458.60465116279073" cy="40.0" class="point"/>
  <text x="458.60465116279073" y="375" class="label" text-anchor="middle">2026-02-19</text>
  <text x="458.60465116279073" y="35.0" class="label" text-anchor="middle">52</text>
  <circle cx="462.79069767441865" cy="40.0" class="point"/>
  <text x="462.79069767441865" y="375" class="label" text-anchor="middle">2026-02-20</text>
  <text x="462.79069767441865" y="35.0" class="label" text-anchor="middle">52</text>
  <circle cx="466.9767441860466" cy="40.0" class="point"/>
  <text x="466.9767441860466" y="375" class="label" text-anchor="middle">2026-02-21</text>
  <text x="466.9767441860466" y="35.0" class="label" text-anchor="middle">52</text>
  <circle cx="471.1627906976744" cy="40.0" class="point"/>
  <text x="471.1627906976744" y="375" class="label" text-anchor="middle">2026-02-22</text>
  <text x="471.1627906976744" y="35.0" class="label" text-anchor="middle">52</text>
  <circle cx="475.3488372093023" cy="40.0" class="point"/>
  <text x="475.3488372093023" y="375" class="label" text-anchor="middle">2026-02-23</text>
  <text x="475.3488372093023" y="35.0" class="label" text-anchor="middle">52</text>
  <circle cx="479.5348837209302" cy="40.0" class="point"/>
  <text x="479.5348837209302" y="375" class="label" text-anchor="middle">2026-02-24</text>
  <text x="479.5348837209302" y="35.0" class="label" text-anchor="middle">52</text>
  <circle cx="483.72093023255815" cy="40.0" class="point"/>
  <text x="483.72093023255815" y="375" class="label" text-anchor="middle">2026-02-25</text>
  <text x="483.72093023255815" y="35.0" class="label" text-anchor="middle">52</text>
  <circle cx="487.90697674418607" cy="40.0" class="point"/>
  <text x="487.90697674418607" y="375" class="label" text-anchor="middle">2026-02-26</text>
  <text x="487.90697674418607" y="35.0" class="label" text-anchor="middle">52</text>
  <circle cx="492.09302325581393" cy="40.0" class="point"/>
  <text x="492.09302325581393" y="375" class="label" text-anchor="middle">2026-02-27</text>
  <text x="492.09302325581393" y="35.0" class="label" text-anchor="middle">52</text>
  <circle cx="496.27906976744185" cy="40.0" class="point"/>
  <text x="496.27906976744185" y="375" class="label" text-anchor="middle">2026-02-28</text>
  <text x="496.27906976744185" y="35.0" class="label" text-anchor="middle">52</text>
  <circle cx="500.4651162790698" cy="40.0" class="point"/>
  <text x="500.4651162790698" y="375" class="label" text-anchor="middle">2026-03-01</text>
  <text x="500.4651162790698" y="35.0" class="label" text-anchor="middle">52</text>
  <circle cx="504.6511627906977" cy="40.0" class="point"/>
  <text x="504.6511627906977" y="375" class="label" text-anchor="middle">2026-03-02</text>
  <text x="504.6511627906977" y="35.0" class="label" text-anchor="middle">52</text>
  <circle cx="508.8372093023256" cy="40.0" class="point"/>
  <text x="508.8372093023256" y="375" class="label" text-anchor="middle">2026-03-03</text>
  <text x="508.8372093023256" y="35.0" class="label" text-anchor="middle">52</text>
  <circle cx="513.0232558139535" cy="40.0" class="point"/>
  <text x="513.0232558139535" y="375" class="label" text-anchor="middle">2026-03-04</text>
  <text x="513.0232558139535" y="35.0" class="label" text-anchor="middle">52</text>
  <circle cx="517.2093023255813" cy="40.0" class="point"/>
  <text x="517.2093023255813" y="375" class="label" text-anchor="middle">2026-03-05</text>
  <text x="517.2093023255813" y="35.0" class="label" text-anchor="middle">52</text>
  <circle cx="521.3953488372092" cy="40.0" class="point"/>
  <text x="521.3953488372092" y="375" class="label" text-anchor="middle">2026-03-06</text>
  <text x="521.3953488372092" y="35.0" class="label" text-anchor="middle">52</text>
  <circle cx="525.5813953488372" cy="40.0" class="point"/>
  <text x="525.5813953488372" y="375" class="label" text-anchor="middle">2026-03-07</text>
  <text x="525.5813953488372" y="35.0" class="label" text-anchor="middle">52</text>
  <circle cx="529.7674418604652" cy="40.0" class="point"/>
  <text x="529.7674418604652" y="375" class="label" text-anchor="middle">2026-03-08</text>
  <text x="529.7674418604652" y="35.0" class="label" text-anchor="middle">52</text>
  <circle cx="533.953488372093" cy="40.0" class="point"/>
  <text x="533.953488372093" y="375" class="label" text-anchor="middle">2026-03-09</text>
  <text x="533.953488372093" y="35.0" class="label" text-anchor="middle">52</text>
  <circle cx="538.1395348837209" cy="40.0" class="point"/>
  <text x="538.1395348837209" y="375" class="label" text-anchor="middle">2026-03-10</text>
  <text x="538.1395348837209" y="35.0" class="label" text-anchor="middle">52</text>
  <circle cx="542.3255813953489" cy="40.0" class="point"/>
  <text x="542.3255813953489" y="375" class="label" text-anchor="middle">2026-03-11</text>
  <text x="542.3255813953489" y="35.0" class="label" text-anchor="middle">52</text>
  <circle cx="546.5116279069767" cy="40.0" class="point"/>
  <text x="546.5116279069767" y="375" class="label" text-anchor="middle">2026-03-12</text>
  <text x="546.5116279069767" y="35.0" class="label" text-anchor="middle">52</text>
  <circle cx="550.6976744186047" cy="40.0" class="point"/>
  <text x="550.6976744186047" y="375" class="label" text-anchor="middle">2026-03-13</text>
  <text x="550.6976744186047" y="35.0" class="label" text-anchor="middle">52</text>
  <circle cx="554.8837209302326" cy="40.0" class="point"/>
  <text x="554.8837209302326" y="375" class="label" text-anchor="middle">2026-03-14</text>
  <text x="554.8837209302326" y="35.0" class="label" text-anchor="middle">52</text>
  <circle cx="559.0697674418604" cy="40.0" class="point"/>
  <text x="559.0697674418604" y="375" class="label" text-anchor="middle">2026-03-15</text>
  <text x="559.0697674418604" y="35.0" class="label" text-anchor="middle">52</text>
  <circle cx="563.2558139534883" cy="40.0" class="point"/>
  <text x="563.2558139534883" y="375" class="label" text-anchor="middle">2026-03-16</text>
  <text x="563.2558139534883" y="35.0" class="label" text-anchor="middle">52</text>
  <circle cx="567.4418604651163" cy="40.0" class="point"/>
  <text x="567.4418604651163" y="375" class="label" text-anchor="middle">2026-03-17</text>
  <text x="567.4418604651163" y="35.0" class="label" text-anchor="middle">52</text>
  <circle cx="571.6279069767442" cy="40.0" class="point"/>
  <text x="571.6279069767442" y="375" class="label" text-anchor="middle">2026-03-18</text>
  <text x="571.6279069767442" y="35.0" class="label" text-anchor="middle">52</text>
  <circle cx="575.8139534883721" cy="40.0" class="point"/>
  <text x="575.8139534883721" y="375" class="label" text-anchor="middle">2026-03-19</text>
  <text x="575.8139534883721" y="35.0" class="label" text-anchor="middle">52</text>
  <circle cx="580.0" cy="40.0" class="point"/>
  <text x="580.0" y="375" class="label" text-anchor="middle">2026-03-20</text>
  <text x="580.0" y="35.0" class="label" text-anchor="middle">52</text>
  <circle cx="584.1860465116279" cy="40.0" class="point"/>
  <text x="584.1860465116279" y="375" class="label" text-anchor="middle">2026-03-21</text>
  <text x="584.1860465116279" y="35.0" class="label" text-anchor="middle">52</text>
  <circle cx="588.3720930232558" cy="40.0" class="point"/>
  <text x="588.3720930232558" y="375" class="label" text-anchor="middle">2026-03-22</text>
  <text x="588.3720930232558" y="35.0" class="label" text-anchor="middle">52</text>
  <circle cx="592.5581395348837" cy="40.0" class="point"/>
  <text x="592.5581395348837" y="375" class="label" text-anchor="middle">2026-03-23</text>
  <text x="592.5581395348837" y="35.0" class="label" text-anchor="middle">52</text>
  <circle cx="596.7441860465117" cy="40.0" class="point"/>
  <text x="596.7441860465117" y="375" class="label" text-anchor="middle">2026-03-24</text>
  <text x="596.7441860465117" y="35.0" class="label" text-anchor="middle">52</text>
  <circle cx="600.9302325581396" cy="40.0" class="point"/>
  <text x="600.9302325581396" y="375" class="label" text-anchor="middle">2026-03-25</text>
  <text x="600.9302325581396" y="35.0" class="label" text-anchor="middle">52</text>
  <circle cx="605.1162790697674" cy="40.0" class="point"/>
  <text x="605.1162790697674" y="375" class="label" text-anchor="middle">2026-03-26</text>
  <text x="605.1162790697674" y="35.0" class="label" text-anchor="middle">52</text>
  <circle cx="609.3023255813953" cy="40.0" class="point"/>
  <text x="609.3023255813953" y="375" class="label" text-anchor="middle">2026-03-27</text>
  <text x="609.3023255813953" y="35.0" class="label" text-anchor="middle">52</text>
  <circle cx="613.4883720930233" cy="40.0" class="point"/>
  <text x="613.4883720930233" y="375" class="label" text-anchor="middle">2026-03-28</text>
  <text x="613.4883720930233" y="35.0" class="label" text-anchor="middle">52</text>
  <circle cx="617.6744186046511" cy="40.0" class="point"/>
  <text x="617.6744186046511" y="375" class="label" text-anchor="middle">2026-03-29</text>
  <text x="617.6744186046511" y="35.0" class="label" text-anchor="middle">52</text>
  <circle cx="621.8604651162791" cy="40.0" class="point"/>
  <text x="621.8604651162791" y="375" class="label" text-anchor="middle">2026-03-30</text>
  <text x="621.8604651162791" y="35.0" class="label" text-anchor="middle">52</text>
  <circle cx="626.046511627907" cy="40.0" class="point"/>
  <text x="626.046511627907" y="375" class="label" text-anchor="middle">2026-03-31</text>
  <text x="626.046511627907" y="35.0" class="label" text-anchor="middle">52</text>
  <circle cx="630.232558139535" cy="40.0" class="point"/>
  <text x="630.232558139535" y="375" class="label" text-anchor="middle">2026-04-01</text>
  <text x="630.232558139535" y="35.0" class="label" text-anchor="middle">52</text>
  <circle cx="634.4186046511628" cy="40.0" class="point"/>
  <text x="634.4186046511628" y="375" class="label" text-anchor="middle">2026-04-02</text>
  <text x="634.4186046511628" y="35.0" class="label" text-anchor="middle">52</text>
  <circle cx="638.6046511627907" cy="40.0" class="point"/>
  <text x="638.6046511627907" y="375" class="label" text-anchor="middle">2026-04-03</text>
  <text x="638.6046511627907" y="35.0" class="label" text-anchor="middle">52</text>
  <circle cx="642.7906976744187" cy="40.0" class="point"/>
  <text x="642.7906976744187" y="375" class="label" text-anchor="middle">2026-04-04</text>
  <text x="642.7906976744187" y="35.0" class="label" text-anchor="middle">52</text>
  <circle cx="646.9767441860465" cy="40.0" class="point"/>
  <text x="646.9767441860465" y="375" class="label" text-anchor="middle">2026-04-05</text>
  <text x="646.9767441860465" y="35.0" class="label" text-anchor="middle">52</text>
  <circle cx="651.1627906976744" cy="40.0" class="point"/>
  <text x="651.1627906976744" y="375" class="label" text-anchor="middle">2026-04-06</text>
  <text x="651.1627906976744" y="35.0" class="label" text-anchor="middle">52</text>
  <circle cx="655.3488372093022" cy="40.0" class="point"/>
  <text x="655.3488372093022" y="375" class="label" text-anchor="middle">2026-04-07</text>
  <text x="655.3488372093022" y="35.0" class="label" text-anchor="middle">52</text>
  <circle cx="659.5348837209302" cy="40.0" class="point"/>
  <text x="659.5348837209302" y="375" class="label" text-anchor="middle">2026-04-08</text>
  <text x="659.5348837209302" y="35.0" class="label" text-anchor="middle">52</text>
  <circle cx="663.7209302325581" cy="40.0" class="point"/>
  <text x="663.7209302325581" y="375" class="label" text-anchor="middle">2026-04-09</text>
  <text x="663.7209302325581" y="35.0" class="label" text-anchor="middle">52</text>
  <circle cx="667.9069767441861" cy="40.0" class="point"/>
  <text x="667.9069767441861" y="375" class="label" text-anchor="middle">2026-04-10</text>
  <text x="667.9069767441861" y="35.0" class="label" text-anchor="middle">52</text>
  <circle cx="672.0930232558139" cy="40.0" class="point"/>
  <text x="672.0930232558139" y="375" class="label" text-anchor="middle">2026-04-11</text>
  <text x="672.0930232558139" y="35.0" class="label" text-anchor="middle">52</text>
  <circle cx="676.2790697674419" cy="40.0" class="point"/>
  <text x="676.2790697674419" y="375" class="label" text-anchor="middle">2026-04-12</text>
  <text x="676.2790697674419" y="35.0" class="label" text-anchor="middle">52</text>
  <circle cx="680.4651162790698" cy="40.0" class="point"/>
  <text x="680.4651162790698" y="375" class="label" text-anchor="middle">2026-04-13</text>
  <text x="680.4651162790698" y="35.0" class="label" text-anchor="middle">52</text>
  <circle cx="684.6511627906978" cy="40.0" class="point"/>
  <text x="684.6511627906978" y="375" class="label" text-anchor="middle">2026-04-14</text>
  <text x="684.6511627906978" y="35.0" class="label" text-anchor="middle">52</text>
  <circle cx="688.8372093023256" cy="40.0" class="point"/>
  <text x="688.8372093023256" y="375" class="label" text-anchor="middle">2026-04-15</text>
  <text x="688.8372093023256" y="35.0" class="label" text-anchor="middle">52</text>
  <circle cx="693.0232558139535" cy="40.0" class="point"/>
  <text x="693.0232558139535" y="375" class="label" text-anchor="middle">2026-04-16</text>
  <text x="693.0232558139535" y="35.0" class="label" text-anchor="middle">52</text>
  <circle cx="697.2093023255813" cy="40.0" class="point"/>
  <text x="697.2093023255813" y="375" class="label" text-anchor="middle">2026-04-17</text>
  <text x="697.2093023255813" y="35.0" class="label" text-anchor="middle">52</text>
  <circle cx="701.3953488372093" cy="40.0" class="point"/>
  <text x="701.3953488372093" y="375" class="label" text-anchor="middle">2026-04-18</text>
  <text x="701.3953488372093" y="35.0" class="label" text-anchor="middle">52</text>
  <circle cx="705.5813953488372" cy="40.0" class="point"/>
  <text x="705.5813953488372" y="375" class="label" text-anchor="middle">2026-04-19</text>
  <text x="705.5813953488372" y="35.0" class="label" text-anchor="middle">52</text>
  <circle cx="709.767441860465" cy="40.0" class="point"/>
  <text x="709.767441860465" y="375" class="label" text-anchor="middle">2026-04-20</text>
  <text x="709.767441860465" y="35.0" class="label" text-anchor="middle">52</text>
  <circle cx="713.953488372093" cy="40.0" class="point"/>
  <text x="713.953488372093" y="375" class="label" text-anchor="middle">2026-04-21</text>
  <text x="713.953488372093" y="35.0" class="label" text-anchor="middle">52</text>
  <circle cx="718.1395348837209" cy="40.0" class="point"/>
  <text x="718.1395348837209" y="375" class="label" text-anchor="middle">2026-04-22</text>
  <text x="718.1395348837209" y="35.0" class="label" text-anchor="middle">52</text>
  <circle cx="722.3255813953489" cy="40.0" class="point"/>
  <text x="722.3255813953489" y="375" class="label" text-anchor="middle">2026-04-23</text>
  <text x="722.3255813953489" y="35.0" class="label" text-anchor="middle">52</text>
  <circle cx="726.5116279069767" cy="40.0" class="point"/>
  <text x="726.5116279069767" y="375" class="label" text-anchor="middle">2026-04-24</text>
  <text x="726.5116279069767" y="35.0" class="label" text-anchor="middle">52</text>
  <circle cx="730.6976744186047" cy="40.0" class="point"/>
  <text x="730.6976744186047" y="375" class="label" text-anchor="middle">2026-04-25</text>
  <text x="730.6976744186047" y="35.0" class="label" text-anchor="middle">52</text>
  <circle cx="734.8837209302326" cy="40.0" class="point"/>
  <text x="734.8837209302326" y="375" class="label" text-anchor="middle">2026-04-26</text>
  <text x="734.8837209302326" y="35.0" class="label" text-anchor="middle">52</text>
  <circle cx="739.0697674418604" cy="40.0" class="point"/>
  <text x="739.0697674418604" y="375" class="label" text-anchor="middle">2026-04-27</text>
  <text x="739.0697674418604" y="35.0" class="label" text-anchor="middle">52</text>
  <circle cx="743.2558139534883" cy="40.0" class="point"/>
  <text x="743.2558139534883" y="375" class="label" text-anchor="middle">2026-04-28</text>
  <text x="743.2558139534883" y="35.0" class="label" text-anchor="middle">52</text>
  <circle cx="747.4418604651163" cy="40.0" class="point"/>
  <text x="747.4418604651163" y="375" class="label" text-anchor="middle">2026-04-29</text>
  <text x="747.4418604651163" y="35.0" class="label" text-anchor="middle">52</text>
  <circle cx="751.6279069767442" cy="40.0" class="point"/>
  <text x="751.6279069767442" y="375" class="label" text-anchor="middle">2026-04-30</text>
  <text x="751.6279069767442" y="35.0" class="label" text-anchor="middle">52</text>
  <circle cx="755.8139534883721" cy="40.0" class="point"/>
  <text x="755.8139534883721" y="375" class="label" text-anchor="middle">2026-05-01</text>
  <text x="755.8139534883721" y="35.0" class="label" text-anchor="middle">52</text>
  <circle cx="760.0" cy="40.0" class="point"/>
  <text x="760.0" y="375" class="label" text-anchor="middle">2026-05-02</text>
  <text x="760.0" y="35.0" class="label" text-anchor="middle">52</text>
  <text x="30" y="363.0" class="label" text-anchor="end">0</text>
  <text x="30" y="301.46153846153845" class="label" text-anchor="end">10</text>
  <text x="30" y="239.9230769230769" class="label" text-anchor="end">20</text>
  <text x="30" y="178.38461538461542" class="label" text-anchor="end">30</text>
  <text x="30" y="116.84615384615384" class="label" text-anchor="end">40</text>
  <text x="30" y="55.30769230769232" class="label" text-anchor="end">50</text>
</svg>