<svg xmlns="http://www.w3.org/2000/svg" width="800" height="400" viewBox="0 0 800 400">
  <style>
    .axis{stroke:#666;stroke-width:1}
    .line{stroke:#4a9;stroke-width:2;fill:none}
    .point{fill:#4a9;r:4}
    .label{font:10px sans-serif;fill:#aaa}
    .title{font:14px sans-serif;fill:#333}
  </style>
  <text x="400" y="20" class="title" text-anchor="middle">OPIC Field Growth Timeline</text>
  <line x1="40" y1="40" x2="40" y2="360" class="axis"/>
  <line x1="40" y1="360" x2="760" y2="360" class="axis"/>
  <path d="M 40.0,101.53846153846155 L 44.83221476510067,101.53846153846155 L 49.664429530201346,101.53846153846155 L 54.49664429530201,101.53846153846155 L 59.328859060402685,101.53846153846155 L 64.16107382550335,101.53846153846155 L 68.99328859060402,101.53846153846155 L 73.8255033557047,101.53846153846155 L 78.65771812080537,101.53846153846155 L 83.48993288590604,101.53846153846155 L 88.3221476510067,101.53846153846155 L 93.15436241610739,101.53846153846155 L 97.98657718120805,101.53846153846155 L 102.81879194630872,101.53846153846155 L 107.6510067114094,101.53846153846155 L 112.48322147651007,101.53846153846155 L 117.31543624161074,101.53846153846155 L 122.14765100671141,101.53846153846155 L 126.97986577181209,101.53846153846155 L 131.81208053691276,101.53846153846155 L 136.6442953020134,101.53846153846155 L 141.47651006711408,101.53846153846155 L 146.30872483221478,101.53846153846155 L 151.14093959731542,101.53846153846155 L 155.9731543624161,101.53846153846155 L 160.80536912751677,101.53846153846155 L 165.63758389261744,101.53846153846155 L 170.46979865771812,40.0 L 175.3020134228188,40.0 L 180.13422818791946,40.0 L 184.96644295302013,40.0 L 189.7986577181208,40.0 L 194.63087248322148,40.0 L 199.46308724832215,40.0 L 204.29530201342283,40.0 L 209.1275167785235,40.0 L 213.95973154362417,40.0 L 218.79194630872485,40.0 L 223.62416107382552,40.0 L 228.4563758389262,40.0 L 233.28859060402684,40.0 L 238.1208053691275,40.0 L 242.95302013422818,40.0 L 247.78523489932888,40.0 L 252.61744966442956,40.0 L 257.44966442953023,40.0 L 262.28187919463085,40.0 L 267.1140939597316,40.0 L 271.9463087248322,40.0 L 276.7785234899329,40.0 L 281.61073825503354,40.0 L 286.44295302013427,40.0 L 291.2751677852349,40.0 L 296.10738255033556,40.0 L 300.93959731543623,40.0 L 305.7718120805369,40.0 L 310.6040268456376,40.0 L 315.43624161073825,40.0 L 320.2684563758389,40.0 L 325.1006711409396,40.0 L 329.93288590604027,40.0 L 334.76510067114094,40.0 L 339.5973154362416,40.0 L 344.4295302013423,40.0 L 349.26174496644296,40.0 L 354.09395973154363,40.0 L 358.9261744966443,40.0 L 363.758389261745,40.0 L 368.59060402684565,40.0 L 373.4228187919463,40.0 L 378.255033557047,40.0 L 383.0872483221476,40.0 L 387.91946308724835,40.0 L 392.751677852349,40.0 L 397.5838926174497,40.0 L 402.41610738255036,40.0 L 407.24832214765104,40.0 L 412.0805369127517,40.0 L 416.9127516778524,40.0 L 421.744966442953,40.0 L 426.5771812080537,40.0 L 431.40939597315435,40.0 L 436.241610738255,40.0 L 441.0738255033557,40.0 L 445.90604026845637,40.0 L 450.73825503355704,40.0 L 455.57046979865777,40.0 L 460.40268456375844,40.0 L 465.2348993288591,40.0 L 470.06711409395973,40.0 L 474.8993288590604,40.0 L 479.7315436241611,40.0 L 484.56375838926175,40.0 L 489.3959731543624,40.0 L 494.2281879194631,40.0 L 499.0604026845637,40.0 L 503.8926174496644,40.0 L 508.72483221476506,40.0 L 513.5570469798658,40.0 L 518.3892617449665,40.0 L 523.2214765100671,40.0 L 528.0536912751678,40.0 L 532.8859060402685,40.0 L 537.7181208053692,40.0 L 542.5503355704698,40.0 L 547.3825503355704,40.0 L 552.2147651006711,40.0 L 557.0469798657717,40.0 L 561.8791946308725,40.0 L 566.7114093959732,40.0 L 571.5436241610738,40.0 L 576.3758389261745,40.0 L 581.2080536912752,40.0 L 586.0402684563759,40.0 L 590.8724832214765,40.0 L 595.7046979865772,40.0 L 600.5369127516778,40.0 L 605.3691275167785,40.0 L 610.2013422818792,40.0 L 615.0335570469798,40.0 L 619.8657718120805,40.0 L 624.6979865771813,40.0 L 629.5302013422819,40.0 L 634.3624161073826,40.0 L 639.1946308724832,40.0 L 644.0268456375838,40.0 L 648.8590604026846,40.0 L 653.6912751677852,40.0 L 658.5234899328859,40.0 L 663.3557046979865,40.0 L 668.1879194630873,40.0 L 673.0201342281879,40.0 L 677.8523489932886,40.0 L 682.6845637583893,40.0 L 687.51677852349,40.0 L 692.3489932885906,40.0 L 697.1812080536913,40.0 L 702.0134228187919,40.0 L 706.8456375838927,40.0 L 711.6778523489933,40.0 L 716.510067114094,40.0 L 721.3422818791946,40.0 L 726.1744966442952,40.0 L 731.006711409396,40.0 L 735.8389261744967,40.0 L 740.6711409395973,40.0 L 745.503355704698,40.0 L 750.3355704697987,40.0 L 755.1677852348994,40.0 L 760.0,40.0" class="line"/>
  <circle cx="40.0" cy="101.53846153846155" class="point"/>
  <text x="40.0" y="375" class="label" text-anchor="middle">2025-11-11</text>
  <text x="40.0" y="96.53846153846155" class="label" text-anchor="middle">42</text>
  <circle cx="44.83221476510067" cy="101.53846153846155" class="point"/>
  <text x="44.83221476510067" y="375" class="label" text-anchor="middle">2025-11-12</text>
  <text x="44.83221476510067" y="96.53846153846155" class="label" text-anchor="middle">42</text>
  <circle cx="49.664429530201346" cy="101.53846153846155" class="point"/>
  <text x="49.664429530201346" y="375" class="label" text-anchor="middle">2025-11-13</text>
  <text x="49.664429530201346" y="96.53846153846155" class="label" text-anchor="middle">42</text>
  <circle cx="54.49664429530201" cy="101.53846153846155" class="point"/>
  <text x="54.49664429530201" y="375" class="label" text-anchor="middle">2025-11-14</text>
  <text x="54.49664429530201" y="96.53846153846155" class="label" text-anchor="middle">42</text>
  <circle cx="59.328859060402685" cy="101.53846153846155" class="point"/>
  <text x="59.328859060402685" y="375" class="label" text-anchor="middle">2025-11-15</text>
  <text x="59.328859060402685" y="96.53846153846155" class="label" text-anchor="middle">42</text>
  <circle cx="64.16107382550335" cy="101.53846153846155" class="point"/>
  <text x="64.16107382550335" y="375" class="label" text-anchor="middle">2025-11-16</text>
  <text x="64.16107382550335" y="96.53846153846155" class="label" text-anchor="middle">42</text>
  <circle cx="68.99328859060402" cy="101.53846153846155" class="point"/>
  <text x="68.99328859060402" y="375" class="label" text-anchor="middle">2025-11-17</text>
  <text x="68.99328859060402" y="96.53846153846155" class="label" text-anchor="middle">42</text>
  <circle cx="73.8255033557047" cy="101.53846153846155" class="point"/>
  <text x="73.8255033557047" y="375" class="label" text-anchor="middle">2025-11-18</text>
  <text x="73.8255033557047" y="96.53846153846155" class="label" text-anchor="middle">42</text>
  <circle cx="78.65771812080537" cy="101.53846153846155" class="point"/>
  <text x="78.65771812080537" y="375" class="label" text-anchor="middle">2025-11-19</text>
  <text x="78.65771812080537" y="96.53846153846155" class="label" text-anchor="middle">42</text>
  <circle cx="83.48993288590604" cy="101.53846153846155" class="point"/>
  <text x="83.48993288590604" y="375" class="label" text-anchor="middle">2025-11-20</text>
  <text x="83.48993288590604" y="96.53846153846155" class="label" text-anchor="middle">42</text>
  <circle cx="88.3221476510067" cy="101.53846153846155" class="point"/>
  <text x="88.3221476510067" y="375" class="label" text-anchor="middle">2025-11-21</text>
  <text x="88.3221476510067" y="96.53846153846155" class="label" text-anchor="middle">42</text>
  <circle cx="93.15436241610739" cy="101.53846153846155" class="point"/>
  <text x="93.15436241610739" y="375" class="label" text-anchor="middle">2025-11-22</text>
  <text x="93.15436241610739" y="96.53846153846155" class="label" text-anchor="middle">42</text>
  <circle cx="97.98657718120805" cy="101.53846153846155" class="point"/>
  <text x="97.98657718120805" y="375" class="label" text-anchor="middle">2025-11-23</text>
  <text x="97.98657718120805" y="96.53846153846155" class="label" text-anchor="middle">42</text>
  <circle cx="102.81879194630872" cy="101.53846153846155" class="point"/>
  <text x="102.81879194630872" y="375" class="label" text-anchor="middle">2025-11-24</text>
  <text x="102.81879194630872" y="96.53846153846155" class="label" text-anchor="middle">42</text>
  <circle cx="107.6510067114094" cy="101.53846153846155" class="point"/>
  <text x="107.6510067114094" y="375" class="label" text-anchor="middle">2025-11-25</text>
  <text x="107.6510067114094" y="96.53846153846155" class="label" text-anchor="middle">42</text>
  <circle cx="112.48322147651007" cy="101.53846153846155" class="point"/>
  <text x="112.48322147651007" y="375" class="label" text-anchor="middle">2025-11-26</text>
  <text x="112.48322147651007" y="96.53846153846155" class="label" text-anchor="middle">42</text>
  <circle cx="117.31543624161074" cy="101.53846153846155" class="point"/>
  <text x="117.31543624161074" y="375" class="label" text-anchor="middle">2025-11-27</text>
  <text x="117.31543624161074" y="96.53846153846155" class="label" text-anchor="middle">42</text>
  <circle cx="122.14765100671141" cy="101.53846153846155" class="point"/>
  <text x="122.14765100671141" y="375" class="label" text-anchor="middle">2025-11-28</text>
  <text x="122.14765100671141" y="96.53846153846155" class="label" text-anchor="middle">42</text>
  <circle cx="126.97986577181209" cy="101.53846153846155" class="point"/>
  <text x="126.97986577181209" y="375" class="label" text-anchor="middle">2025-11-29</text>
  <text x="126.97986577181209" y="96.53846153846155" class="label" text-anchor="middle">42</text>
  <circle cx="131.81208053691276" cy="101.53846153846155" class="point"/>
  <text x="131.81208053691276" y="375" class="label" text-anchor="middle">2025-11-30</text>
  <text x="131.81208053691276" y="96.53846153846155" class="label" text-anchor="middle">42</text>
  <circle cx="136.6442953020134" cy="101.53846153846155" class="point"/>
  <text x="136.6442953020134" y="375" class="label" text-anchor="middle">2025-12-01</text>
  <text x="136.6442953020134" y="96.53846153846155" class="label" text-anchor="middle">42</text>
  <circle cx="141.47651006711408" cy="101.53846153846155" class="point"/>
  <text x="141.47651006711408" y="375" class="label" text-anchor="middle">2025-12-02</text>
  <text x="141.47651006711408" y="96.53846153846155" class="label" text-anchor="middle">42</text>
  <circle cx="146.30872483221478" cy="101.53846153846155" class="point"/>
  <text x="146.30872483221478" y="375" class="label" text-anchor="middle">2025-12-03</text>
  <text x="146.30872483221478" y="96.53846153846155" class="label" text-anchor="middle">42</text>
  <circle cx="151.14093959731542" cy="101.53846153846155" class="point"/>
  <text x="151.14093959731542" y="375" class="label" text-anchor="middle">2025-12-04</text>
  <text x="151.14093959731542" y="96.53846153846155" class="label" text-anchor="middle">42</text>
  <circle cx="155.9731543624161" cy="101.53846153846155" class="point"/>
  <text x="155.9731543624161" y="375" class="label" text-anchor="middle">2025-12-05</text>
  <text x="155.9731543624161" y="96.53846153846155" class="label" text-anchor="middle">42</text>
  <circle cx="160.80536912751677" cy="101.53846153846155" class="point"/>
  <text x="160.80536912751677" y="375" class="label" text-anchor="middle">2025-12-06</text>
  <text x="160.80536912751677" y="96.53846153846155" class="label" text-anchor="middle">42</text>
  <circle cx="165.63758389261744" cy="101.53846153846155" class="point"/>
  <text x="165.63758389261744" y="375" class="label" text-anchor="middle">2025-12-07</text>
  <text x="165.63758389261744" y="96.53846153846155" class="label" text-anchor="middle">42</text>
  <circle cx="170.46979865771812" cy="40.0" class="point"/>
  <text x="170.46979865771812" y="375" class="label" text-anchor="middle">2025-12-08</text>
  <text x="170.46979865771812" y="35.0" class="label" text-anchor="middle">52</text>
  <circle cx="175.3020134228188" cy="40.0" class="point"/>
  <text x="175.3020134228188" y="375" class="label" text-anchor="middle">2025-12-09</text>
  <text x="175.3020134228188" y="35.0" class="label" text-anchor="middle">52</text>
  <circle cx="180.13422818791946" cy="40.0" class="point"/>
  <text x="180.13422818791946" y="375" class="label" text-anchor="middle">2025-12-10</text>
  <text x="180.13422818791946" y="35.0" class="label" text-anchor="middle">52</text>
  <circle cx="184.96644295302013" cy="40.0" class="point"/>
  <text x="184.96644295302013" y="375" class="label" text-anchor="middle">2025-12-11</text>
  <text x="184.96644295302013" y="35.0" class="label" text-anchor="middle">52</text>
  <circle cx="189.7986577181208" cy="40.0" class="point"/>
  <text x="189.7986577181208" y="375" class="label" text-anchor="middle">2025-12-12</text>
  <text x="189.7986577181208" y="35.0" class="label" text-anchor="middle">52</text>
  <circle cx="194.63087248322148" cy="40.0" class="point"/>
  <text x="194.63087248322148" y="375" class="label" text-anchor="middle">2025-12-13</text>
  <text x="194.63087248322148" y="35.0" class="label" text-anchor="middle">52</text>
  <circle cx="199.46308724832215" cy="40.0" class="point"/>
  <text x="199.46308724832215" y="375" class="label" text-anchor="middle">2025-12-14</text>
  <text x="199.46308724832215" y="35.0" class="label" text-anchor="middle">52</text>
  <circle cx="204.29530201342283" cy="40.0" class="point"/>
  <text x="204.29530201342283" y="375" class="label" text-anchor="middle">2025-12-15</text>
  <text x="204.29530201342283" y="35.0" class="label" text-anchor="middle">52</text>
  <circle cx="209.1275167785235" cy="40.0" class="point"/>
  <text x="209.1275167785235" y="375" class="label" text-anchor="middle">2025-12-16</text>
  <text x="209.1275167785235" y="35.0" class="label" text-anchor="middle">52</text>
  <circle cx="213.95973154362417" cy="40.0" class="point"/>
  <text x="213.95973154362417" y="375" class="label" text-anchor="middle">2025-12-17</text>
  <text x="213.95973154362417" y="35.0" class="label" text-anchor="middle">52</text>
  <circle cx="218.79194630872485" cy="40.0" class="point"/>
  <text x="218.79194630872485" y="375" class="label" text-anchor="middle">2025-12-18</text>
  <text x="218.79194630872485" y="35.0" class="label" text-anchor="middle">52</text>
  <circle cx="223.62416107382552" cy="40.0" class="point"/>
  <text x="223.62416107382552" y="375" class="label" text-anchor="middle">2025-12-19</text>
  <text x="223.62416107382552" y="35.0" class="label" text-anchor="middle">52</text>
  <circle cx="228.4563758389262" cy="40.0" class="point"/>
  <text x="228.4563758389262" y="375" class="label" text-anchor="middle">2025-12-20</text>
  <text x="228.4563758389262" y="35.0" class="label" text-anchor="middle">52</text>
  <circle cx="233.28859060402684" cy="40.0" class="point"/>
  <text x="233.28859060402684" y="375" class="label" text-anchor="middle">2025-12-21</text>
  <text x="233.28859060402684" y="35.0" class="label" text-anchor="middle">52</text>
  <circle cx="238.1208053691275" cy="40.0" class="point"/>
  <text x="238.1208053691275" y="375" class="label" text-anchor="middle">2025-12-22</text>
  <text x="238.1208053691275" y="35.0" class="label" text-anchor="middle">52</text>
  <circle cx="242.95302013422818" cy="40.0" class="point"/>
  <text x="242.95302013422818" y="375" class="label" text-anchor="middle">2025-12-23</text>
  <text x="242.95302013422818" y="35.0" class="label" text-anchor="middle">52</text>
  <circle cx="247.78523489932888" cy="40.0" class="point"/>
  <text x="247.78523489932888" y="375" class="label" text-anchor="middle">2025-12-24</text>
  <text x="247.78523489932888" y="35.0" class="label" text-anchor="middle">52</text>
  <circle cx="252.61744966442956" cy="40.0" class="point"/>
  <text x="252.61744966442956" y="375" class="label" text-anchor="middle">2025-12-25</text>
  <text x="252.61744966442956" y="35.0" class="label" text-anchor="middle">52</text>
  <circle cx="257.44966442953023" cy="40.0" class="point"/>
  <text x="257.44966442953023" y="375" class="label" text-anchor="middle">2025-12-26</text>
  <text x="257.44966442953023" y="35.0" class="label" text-anchor="middle">52</text>
  <circle cx="262.28187919463085" cy="40.0" class="point"/>
  <text x="262.28187919463085" y="375" class="label" text-anchor="middle">2025-12-27</text>
  <text x="262.28187919463085" y="35.0" class="label" text-anchor="middle">52</text>
  <circle cx="267.1140939597316" cy="40.0" class="point"/>
  <text x="267.1140939597316" y="375" class="label" text-anchor="middle">2025-12-28</text>
  <text x="267.1140939597316" y="35.0" class="label" text-anchor="middle">52</text>
  <circle cx="271.9463087248322" cy="40.0" class="point"/>
  <text x="271.9463087248322" y="375" class="label" text-anchor="middle">2025-12-29</text>
  <text x="271.9463087248322" y="35.0" class="label" text-anchor="middle">52</text>
  <circle cx="276.7785234899329" cy="40.0" class="point"/>
  <text x="276.7785234899329" y="375" class="label" text-anchor="middle">2025-12-30</text>
  <text x="276.7785234899329" y="35.0" class="label" text-anchor="middle">52</text>
  <circle cx="281.61073825503354" cy="40.0" class="point"/>
  <text x="281.61073825503354" y="375" class="label" text-anchor="middle">2025-12-31</text>
  <text x="281.61073825503354" y="35.0" class="label" text-anchor="middle">52</text>
  <circle cx="286.44295302013427" cy="40.0" class="point"/>
  <text x="286.44295302013427" y="375" class="label" text-anchor="middle">2026-01-01</text>
  <text x="286.44295302013427" y="35.0" class="label" text-anchor="middle">52</text>
  <circle cx="291.2751677852349" cy="40.0" class="point"/>
  <text x="291.2751677852349" y="375" class="label" text-anchor="middle">2026-01-02</text>
  <text x="291.2751677852349" y="35.0" class="label" text-anchor="middle">52</text>
  <circle cx="296.10738255033556" cy="40.0" class="point"/>
  <text x="296.10738255033556" y="375" class="label" text-anchor="middle">2026-01-03</text>
  <text x="296.10738255033556" y="35.0" class="label" text-anchor="middle">52</text>
  <circle cx="300.93959731543623" cy="40.0" class="point"/>
  <text x="300.93959731543623" y="375" class="label" text-anchor="middle">2026-01-04</text>
  <text x="300.93959731543623" y="35.0" class="label" text-anchor="middle">52</text>
  <circle cx="305.7718120805369" cy="40.0" class="point"/>
  <text x="305.7718120805369" y="375" class="label" text-anchor="middle">2026-01-05</text>
  <text x="305.7718120805369" y="35.0" class="label" text-anchor="middle">52</text>
  <circle cx="310.6040268456376" cy="40.0" class="point"/>
  <text x="310.6040268456376" y="375" class="label" text-anchor="middle">2026-01-06</text>
  <text x="310.6040268456376" y="35.0" class="label" text-anchor="middle">52</text>
  <circle cx="315.43624161073825" cy="40.0" class="point"/>
  <text x="315.43624161073825" y="375" class="label" text-anchor="middle">2026-01-07</text>
  <text x="315.43624161073825" y="35.0" class="label" text-anchor="middle">52</text>
  <circle cx="320.2684563758389" cy="40.0" class="point"/>
  <text x="320.2684563758389" y="375" class="label" text-anchor="middle">2026-01-08</text>
  <text x="320.2684563758389" y="35.0" class="label" text-anchor="middle">52</text>
  <circle cx="325.1006711409396" cy="40.0" class="point"/>
  <text x="325.1006711409396" y="375" class="label" text-anchor="middle">2026-01-09</text>
  <text x="325.1006711409396" y="35.0" class="label" text-anchor="middle">52</text>
  <circle cx="329.93288590604027" cy="40.0" class="point"/>
  <text x="329.93288590604027" y="375" class="label" text-anchor="middle">2026-01-10</text>
  <text x="329.93288590604027" y="35.0" class="label" text-anchor="middle">52</text>
  <circle cx="334.76510067114094" cy="40.0" class="point"/>
  <text x="334.76510067114094" y="375" class="label" text-anchor="middle">2026-01-11</text>
  <text x="334.76510067114094" y="35.0" class="label" text-anchor="middle">52</text>
  <circle cx="339.5973154362416" cy="40.0" class="point"/>
  <text x="339.5973154362416" y="375" class="label" text-anchor="middle">2026-01-12</text>
  <text x="339.5973154362416" y="35.0" class="label" text-anchor="middle">52</text>
  <circle cx="344.4295302013423" cy="40.0" class="point"/>
  <text x="344.4295302013423" y="375" class="label" text-anchor="middle">2026-01-13</text>
  <text x="344.4295302013423" y="35.0" class="label" text-anchor="middle">52</text>
  <circle cx="349.26174496644296" cy="40.0" class="point"/>
  <text x="349.26174496644296" y="375" class="label" text-anchor="middle">2026-01-14</text>
  <text x="349.26174496644296" y="35.0" class="label" text-anchor="middle">52</text>
  <circle cx="354.09395973154363" cy="40.0" class="point"/>
  <text x="354.09395973154363" y="375" class="label" text-anchor="middle">2026-01-15</text>
  <text x="354.09395973154363" y="35.0" class="label" text-anchor="middle">52</text>
  <circle cx="358.9261744966443" cy="40.0" class="point"/>
  <text x="358.9261744966443" y="375" class="label" text-anchor="middle">2026-01-16</text>
  <text x="358.9261744966443" y="35.0" class="label" text-anchor="middle">52</text>
  <circle cx="363.758389261745" cy="40.0" class="point"/>
  <text x="363.758389261745" y="375" class="label" text-anchor="middle">2026-01-17</text>
  <text x="363.758389261745" y="35.0" class="label" text-anchor="middle">52</text>
  <circle cx="368.59060402684565" cy="40.0" class="point"/>
  <text x="368.59060402684565" y="375" class="label" text-anchor="middle">2026-01-18</text>
  <text x="368.59060402684565" y="35.0" class="label" text-anchor="middle">52</text>
  <circle cx="373.4228187919463" cy="40.0" class="point"/>
  <text x="373.4228187919463" y="375" class="label" text-anchor="middle">2026-01-19</text>
  <text x="373.4228187919463" y="35.0" class="label" text-anchor="middle">52</text>
  <circle cx="378.255033557047" cy="40.0" class="point"/>
  <text x="378.255033557047" y="375" class="label" text-anchor="middle">2026-01-20</text>
  <text x="378.255033557047" y="35.0" class="label" text-anchor="middle">52</text>
  <circle cx="383.0872483221476" cy="40.0" class="point"/>
  <text x="383.0872483221476" y="375" class="label" text-anchor="middle">2026-01-21</text>
  <text x="383.0872483221476" y="35.0" class="label" text-anchor="middle">52</text>
  <circle cx="387.91946308724835" cy="40.0" class="point"/>
  <text x="387.91946308724835" y="375" class="label" text-anchor="middle">2026-01-22</text>
  <text x="387.91946308724835" y="35.0" class="label" text-anchor="middle">52</text>
  <circle cx="392.751677852349" cy="40.0" class="point"/>
  <text x="392.751677852349" y="375" class="label" text-anchor="middle">2026-01-23</text>
  <text x="392.751677852349" y="35.0" class="label" text-anchor="middle">52</text>
  <circle cx="397.5838926174497" cy="40.0" class="point"/>
  <text x="397.5838926174497" y="375" class="label" text-anchor="middle">2026-01-24</text>
  <text x="397.5838926174497" y="35.0" class="label" text-anchor="middle">52</text>
  <circle cx="402.41610738255036" cy="40.0" class="point"/>
  <text x="402.41610738255036" y="375" class="label" text-anchor="middle">2026-01-25</text>
  <text x="402.41610738255036" y="35.0" class="label" text-anchor="middle">52</text>
  <circle cx="407.24832214765104" cy="40.0" class="point"/>
  <text x="407.24832214765104" y="375" class="label" text-anchor="middle">2026-01-26</text>
  <text x="407.24832214765104" y="35.0" class="label" text-anchor="middle">52</text>
  <circle cx="412.0805369127517" cy="40.0" class="point"/>
  <text x="412.0805369127517" y="375" class="label" text-anchor="middle">2026-01-27</text>
  <text x="412.0805369127517" y="35.0" class="label" text-anchor="middle">52</text>
  <circle cx="416.9127516778524" cy="40.0" class="point"/>
  <text x="416.9127516778524" y="375" class="label" text-anchor="middle">2026-01-28</text>
  <text x="416.9127516778524" y="35.0" class="label" text-anchor="middle">52</text>
  <circle cx="421.744966442953" cy="40.0" class="point"/>
  <text x="421.744966442953" y="375" class="label" text-anchor="middle">2026-01-29</text>
  <text x="421.744966442953" y="35.0" class="label" text-anchor="middle">52</text>
  <circle cx="426.5771812080537" cy="40.0" class="point"/>
  <text x="426.5771812080537" y="375" class="label" text-anchor="middle">2026-01-30</text>
  <text x="426.5771812080537" y="35.0" class="label" text-anchor="middle">52</text>
  <circle cx="431.40939597315435" cy="40.0" class="point"/>
  <text x="431.40939597315435" y="375" class="label" text-anchor="middle">2026-01-31</text>
  <text x="431.40939597315435" y="35.0" class="label" text-anchor="middle">52</text>
  <circle cx="436.241610738255" cy="40.0" class="point"/>
  <text x="436.241610738255" y="375" class="label" text-anchor="middle">2026-02-01</text>
  <text x="436.241610738255" y="35.0" class="label" text-anchor="middle">52</text>
  <circle cx="441.0738255033557" cy="40.0" class="point"/>
  <text x="441.0738255033557" y="375" class="label" text-anchor="middle">2026-02-02</text>
  <text x="441.0738255033557" y="35.0" class="label" text-anchor="middle">52</text>
  <circle cx="445.90604026845637" cy="40.0" class="point"/>
  <text x="445.90604026845637" y="375" class="label" text-anchor="middle">2026-02-03</text>
  <text x="445.90604026845637" y="35.0" class="label" text-anchor="middle">52</text>
  <circle cx="450.73825503355704" cy="40.0" class="point"/>
  <text x="450.73825503355704" y="375" class="label" text-anchor="middle">2026-02-04</text>
  <text x="450.73825503355704" y="35.0" class="label" text-anchor="middle">52</text>
  <circle cx="455.57046979865777" cy="40.0" class="point"/>
  <text x="455.57046979865777" y="375" class="label" text-anchor="middle">2026-02-05</text>
  <text x="455.57046979865777" y="35.0" class="label" text-anchor="middle">52</text>
  <circle cx="460.40268456375844" cy="40.0" class="point"/>
  <text x="460.40268456375844" y="375" class="label" text-anchor="middle">2026-02-06</text>
  <text x="460.40268456375844" y="35.0" class="label" text-anchor="middle">52</text>
  <circle cx="465.2348993288591" cy="40.0" class="point"/>
  <text x="465.2348993288591" y="375" class="label" text-anchor="middle">2026-02-07</text>
  <text x="465.2348993288591" y="35.0" class="label" text-anchor="middle">52</text>
  <circle cx="470.06711409395973" cy="40.0" class="point"/>
  <text x="470.06711409395973" y="375" class="label" text-anchor="middle">2026-02-08</text>
  <text x="470.06711409395973" y="35.0" class="label" text-anchor="middle">52</text>
  <circle cx="474.8993288590604" cy="40.0" class="point"/>
  <text x="474.8993288590604" y="375" class="label" text-anchor="middle">2026-02-09</text>
  <text x="474.8993288590604" y="35.0" class="label" text-anchor="middle">52</text>
  <circle cx="479.7315436241611" cy="40.0" class="point"/>
  <text x="479.7315436241611" y="375" class="label" text-anchor="middle">2026-02-10</text>
  <text x="479.7315436241611" y="35.0" class="label" text-anchor="middle">52</text>
  <circle cx="484.56375838926175" cy="40.0" class="point"/>
  <text x="484.56375838926175" y="375" class="label" text-anchor="middle">2026-02-11</text>
  <text x="484.56375838926175" y="35.0" class="label" text-anchor="middle">52</text>
  <circle cx="489.3959731543624" cy="40.0" class="point"/>
  <text x="489.3959731543624" y="375" class="label" text-anchor="middle">2026-02-12</text>
  <text x="489.3959731543624" y="35.0" class="label" text-anchor="middle">52</text>
  <circle cx="494.2281879194631" cy="40.0" class="point"/>
  <text x="494.2281879194631" y="375" class="label" text-anchor="middle">2026-02-13</text>
  <text x="494.2281879194631" y="35.0" class="label" text-anchor="middle">52</text>
  <circle cx="499.0604026845637" cy="40.0" class="point"/>
  <text x="499.0604026845637" y="375" class="label" text-anchor="middle">2026-02-14</text>
  <text x="499.0604026845637" y="35.0" class="label" text-anchor="middle">52</text>
  <circle cx="503.8926174496644" cy="40.0" class="point"/>
  <text x="503.8926174496644" y="375" class="label" text-anchor="middle">2026-02-15</text>
  <text x="503.8926174496644" y="35.0" class="label" text-anchor="middle">52</text>
  <circle cx="508.72483221476506" cy="40.0" class="point"/>
  <text x="508.72483221476506" y="375" class="label" text-anchor="middle">2026-02-16</text>
  <text x="508.72483221476506" y="35.0" class="label" text-anchor="middle">52</text>
  <circle cx="513.5570469798658" cy="40.0" class="point"/>
  <text x="513.5570469798658" y="375" class="label" text-anchor="middle">2026-02-17</text>
  <text x="513.5570469798658" y="35.0" class="label" text-anchor="middle">52</text>
  <circle cx="518.3892617449665" cy="40.0" class="point"/>
  <text x="518.3892617449665" y="375" class="label" text-anchor="middle">2026-02-18</text>
  <text x="518.3892617449665" y="35.0" class="label" text-anchor="middle">52</text>
  <circle cx="523.2214765100671" cy="40.0" class="point"/>
  <text x="523.2214765100671" y="375" class="label" text-anchor="middle">2026-02-19</text>
  <text x="523.2214765100671" y="35.0" class="label" text-anchor="middle">52</text>
  <circle cx="528.0536912751678" cy="40.0" class="point"/>
  <text x="528.0536912751678" y="375" class="label" text-anchor="middle">2026-02-20</text>
  <text x="528.0536912751678" y="35.0" class="label" text-anchor="middle">52</text>
  <circle cx="532.8859060402685" cy="40.0" class="point"/>
  <text x="532.8859060402685" y="375" class="label" text-anchor="middle">2026-02-21</text>
  <text x="532.8859060402685" y="35.0" class="label" text-anchor="middle">52</text>
  <circle cx="537.7181208053692" cy="40.0" class="point"/>
  <text x="537.7181208053692" y="375" class="label" text-anchor="middle">2026-02-22</text>
  <text x="537.7181208053692" y="35.0" class="label" text-anchor="middle">52</text>
  <circle cx="542.5503355704698" cy="40.0" class="point"/>
  <text x="542.5503355704698" y="375" class="label" text-anchor="middle">2026-02-23</text>
  <text x="542.5503355704698" y="35.0" class="label" text-anchor="middle">52</text>
  <circle cx="547.3825503355704" cy="40.0" class="point"/>
  <text x="547.3825503355704" y="375" class="label" text-anchor="middle">2026-02-24</text>
  <text x="547.3825503355704" y="35.0" class="label" text-anchor="middle">52</text>
  <circle cx="552.2147651006711" cy="40.0" class="point"/>
  <text x="552.2147651006711" y="375" class="label" text-anchor="middle">2026-02-25</text>
  <text x="552.2147651006711" y="35.0" class="label" text-anchor="middle">52</text>
  <circle cx="557.0469798657717" cy="40.0" class="point"/>
  <text x="557.0469798657717" y="375" class="label" text-anchor="middle">2026-02-26</text>
  <text x="557.0469798657717" y="35.0" class="label" text-anchor="middle">52</text>
  <circle cx="561.8791946308725" cy="40.0" class="point"/>
  <text x="561.8791946308725" y="375" class="label" text-anchor="middle">2026-02-27</text>
  <text x="561.8791946308725" y="35.0" class="label" text-anchor="middle">52</text>
  <circle cx="566.7114093959732" cy="40.0" class="point"/>
  <text x="566.7114093959732" y="375" class="label" text-anchor="middle">2026-02-28</text>
  <text x="566.7114093959732" y="35.0" class="label" text-anchor="middle">52</text>
  <circle cx="571.5436241610738" cy="40.0" class="point"/>
  <text x="571.5436241610738" y="375" class="label" text-anchor="middle">2026-03-01</text>
  <text x="571.5436241610738" y="35.0" class="label" text-anchor="middle">52</text>
  <circle cx="576.3758389261745" cy="40.0" class="point"/>
  <text x="576.3758389261745" y="375" class="label" text-anchor="middle">2026-03-02</text>
  <text x="576.3758389261745" y="35.0" class="label" text-anchor="middle">52</text>
  <circle cx="581.2080536912752" cy="40.0" class="point"/>
  <text x="581.2080536912752" y="375" class="label" text-anchor="middle">2026-03-03</text>
  <text x="581.2080536912752" y="35.0" class="label" text-anchor="middle">52</text>
  <circle cx="586.0402684563759" cy="40.0" class="point"/>
  <text x="586.0402684563759" y="375" class="label" text-anchor="middle">2026-03-04</text>
  <text x="586.0402684563759" y="35.0" class="label" text-anchor="middle">52</text>
  <circle cx="590.8724832214765" cy="40.0" class="point"/>
  <text x="590.8724832214765" y="375" class="label" text-anchor="middle">2026-03-05</text>
  <text x="590.8724832214765" y="35.0" class="label" text-anchor="middle">52</text>
  <circle cx="595.7046979865772" cy="40.0" class="point"/>
  <text x="595.7046979865772" y="375" class="label" text-anchor="middle">2026-03-06</text>
  <text x="595.7046979865772" y="35.0" class="label" text-anchor="middle">52</text>
  <circle cx="600.5369127516778" cy="40.0" class="point"/>
  <text x="600.5369127516778" y="375" class="label" text-anchor="middle">2026-03-07</text>
  <text x="600.5369127516778" y="35.0" class="label" text-anchor="middle">52</text>
  <circle cx="605.3691275167785" cy="40.0" class="point"/>
  <text x="605.3691275167785" y="375" class="label" text-anchor="middle">2026-03-08</text>
  <text x="605.3691275167785" y="35.0" class="label" text-anchor="middle">52</text>
  <circle cx="610.2013422818792" cy="40.0" class="point"/>
  <text x="610.2013422818792" y="375" class="label" text-anchor="middle">2026-03-09</text>
  <text x="610.2013422818792" y="35.0" class="label" text-anchor="middle">52</text>
  <circle cx="615.0335570469798" cy="40.0" class="point"/>
  <text x="615.0335570469798" y="375" class="label" text-anchor="middle">2026-03-10</text>
  <text x="615.0335570469798" y="35.0" class="label" text-anchor="middle">52</text>
  <circle cx="619.8657718120805" cy="40.0" class="point"/>
  <text x="619.8657718120805" y="375" class="label" text-anchor="middle">2026-03-11</text>
  <text x="619.8657718120805" y="35.0" class="label" text-anchor="middle">52</text>
  <circle cx="624.6979865771813" cy="40.0" class="point"/>
  <text x="624.6979865771813" y="375" class="label" text-anchor="middle">2026-03-12</text>
  <text x="624.6979865771813" y="35.0" class="label" text-anchor="middle">52</text>
  <circle cx="629.5302013422819" cy="40.0" class="point"/>
  <text x="629.5302013422819" y="375" class="label" text-anchor="middle">2026-03-13</text>
  <text x="629.5302013422819" y="35.0" class="label" text-anchor="middle">52</text>
  <circle cx="634.3624161073826" cy="40.0" class="point"/>
  <text x="634.3624161073826" y="375" class="label" text-anchor="middle">2026-03-14</text>
  <text x="634.3624161073826" y="35.0" class="label" text-anchor="middle">52</text>
  <circle cx="639.1946308724832" cy="40.0" class="point"/>
  <text x="639.1946308724832" y="375" class="label" text-anchor="middle">2026-03-15</text>
  <text x="639.1946308724832" y="35.0" class="label" text-anchor="middle">52</text>
  <circle cx="644.0268456375838" cy="40.0" class="point"/>
  <text x="644.0268456375838" y="375" class="label" text-anchor="middle">2026-03-16</text>
  <text x="644.0268456375838" y="35.0" class="label" text-anchor="middle">52</text>
  <circle cx="648.8590604026846" cy="40.0" class="point"/>
  <text x="648.8590604026846" y="375" class="label" text-anchor="middle">2026-03-17</text>
  <text x="648.8590604026846" y="35.0" class="label" text-anchor="middle">52</text>
  <circle cx="653.6912751677852" cy="40.0" class="point"/>
  <text x="653.6912751677852" y="375" class="label" text-anchor="middle">2026-03-18</text>
  <text x="653.6912751677852" y="35.0" class="label" text-anchor="middle">52</text>
  <circle cx="658.5234899328859" cy="40.0" class="point"/>
  <text x="658.5234899328859" y="375" class="label" text-anchor="middle">2026-03-19</text>
  <text x="658.5234899328859" y="35.0" class="label" text-anchor="middle">52</text>
  <circle cx="663.3557046979865" cy="40.0" class="point"/>
  <text x="663.3557046979865" y="375" class="label" text-anchor="middle">2026-03-20</text>
  <text x="663.3557046979865" y="35.0" class="label" text-anchor="middle">52</text>
  <circle cx="668.1879194630873" cy="40.0" class="point"/>
  <text x="668.1879194630873" y="375" class="label" text-anchor="middle">2026-03-21</text>
  <text x="668.1879194630873" y="35.0" class="label" text-anchor="middle">52</text>
  <circle cx="673.0201342281879" cy="40.0" class="point"/>
  <text x="673.0201342281879" y="375" class="label" text-anchor="middle">2026-03-22</text>
  <text x="673.0201342281879" y="35.0" class="label" text-anchor="middle">52</text>
  <circle cx="677.8523489932886" cy="40.0" class="point"/>
  <text x="677.8523489932886" y="375" class="label" text-anchor="middle">2026-03-23</text>
  <text x="677.8523489932886" y="35.0" class="label" text-anchor="middle">52</text>
  <circle cx="682.6845637583893" cy="40.0" class="point"/>
  <text x="682.6845637583893" y="375" class="label" text-anchor="middle">2026-03-24</text>
  <text x="682.6845637583893" y="35.0" class="label" text-anchor="middle">52</text>
  <circle cx="687.51677852349" cy="40.0" class="point"/>
  <text x="687.51677852349" y="375" class="label" text-anchor="middle">2026-03-25</text>
  <text x="687.51677852349" y="35.0" class="label" text-anchor="middle">52</text>
  <circle cx="692.3489932885906" cy="40.0" class="point"/>
  <text x="692.3489932885906" y="375" class="label" text-anchor="middle">2026-03-26</text>
  <text x="692.3489932885906" y="35.0" class="label" text-anchor="middle">52</text>
  <circle cx="697.1812080536913" cy="40.0" class="point"/>
  <text x="697.1812080536913" y="375" class="label" text-anchor="middle">2026-03-27</text>
  <text x="697.1812080536913" y="35.0" class="label" text-anchor="middle">52</text>
  <circle cx="702.0134228187919" cy="40.0" class="point"/>
  <text x="702.0134228187919" y="375" class="label" text-anchor="middle">2026-03-28</text>
  <text x="702.0134228187919" y="35.0" class="label" text-anchor="middle">52</text>
  <circle cx="706.8456375838927" cy="40.0" class="point"/>
  <text x="706.8456375838927" y="375" class="label" text-anchor="middle">2026-03-29</text>
  <text x="706.8456375838927" y="35.0" class="label" text-anchor="middle">52</text>
  <circle cx="711.6778523489933" cy="40.0" class="point"/>
  <text x="711.6778523489933" y="375" class="label" text-anchor="middle">2026-03-30</text>
  <text x="711.6778523489933" y="35.0" class="label" text-anchor="middle">52</text>
  <circle cx="716.510067114094" cy="40.0" class="point"/>
  <text x="716.510067114094" y="375" class="label" text-anchor="middle">2026-03-31</text>
  <text x="716.510067114094" y="35.0" class="label" text-anchor="middle">52</text>
  <circle cx="721.3422818791946" cy="40.0" class="point"/>
  <text x="721.3422818791946" y="375" class="label" text-anchor="middle">2026-04-01</text>
  <text x="721.3422818791946" y="35.0" class="label" text-anchor="middle">52</text>
  <circle cx="726.1744966442952" cy="40.0" class="point"/>
  <text x="726.1744966442952" y="375" class="label" text-anchor="middle">2026-04-02</text>
  <text x="726.1744966442952" y="35.0" class="label" text-anchor="middle">52</text>
  <circle cx="731.006711409396" cy="40.0" class="point"/>
  <text x="731.006711409396" y="375" class="label" text-anchor="middle">2026-04-03</text>
  <text x="731.006711409396" y="35.0" class="label" text-anchor="middle">52</text>
  <circle cx="735.8389261744967" cy="40.0" class="point"/>
  <text x="735.8389261744967" y="375" class="label" text-anchor="middle">2026-04-04</text>
  <text x="735.8389261744967" y="35.0" class="label" text-anchor="middle">52</text>
  <circle cx="740.6711409395973" cy="40.0" class="point"/>
  <text x="740.6711409395973" y="375" class="label" text-anchor="middle">2026-04-05</text>
  <text x="740.6711409395973" y="35.0" class="label" text-anchor="middle">52</text>
  <circle cx="745.503355704698" cy="40.0" class="point"/>
  <text x="745.503355704698" y="375" class="label" text-anchor="middle">2026-04-06</text>
  <text x="745.503355704698" y="35.0" class="label" text-anchor="middle">52</text>
  <circle cx="750.3355704697987" cy="40.0" class="point"/>
  <text x="750.3355704697987" y="375" class="label" text-anchor="middle">2026-04-07</text>
  <text x="750.3355704697987" y="35.0" class="label" text-anchor="middle">52</text>
  <circle cx="755.1677852348994" cy="40.0" class="point"/>
  <text x="755.1677852348994" y="375" class="label" text-anchor="middle">2026-04-08</text>
  <text x="755.1677852348994" y="35.0" class="label" text-anchor="middle">52</text>
  <circle cx="760.0" cy="40.0" class="point"/>
  <text x="760.0" y="375" class="label" text-anchor="middle">2026-04-09</text>
  <text x="760.0" y="35.0" class="label" text-anchor="middle">52</text>
  <text x="30" y="363.0" class="label" text-anchor="end">0</text>
  <text x="30" y="301.46153846153845" class="label" text-anchor="end">10</text>
  <text x="30" y="239.9230769230769" class="label" text-anchor="end">20</text>
  <text x="30" y="178.38461538461542" class="label" text-anchor="end">30</text>
  <text x="30" y="116.84615384615384" class="label" text-anchor="end">40</text>
  <text x="30" y="55.30769230769232" class="label" text-anchor="end">50</text>
</svg>