<svg xmlns="http://www.w3.org/2000/svg" width="800" height="400" viewBox="0 0 800 400">
  <style>
    .axis{stroke:#666;stroke-width:1}
    .line{stroke:#4a9;stroke-width:2;fill:none}
    .point{fill:#4a9;r:4}
    .label{font:10px sans-serif;fill:#aaa}
    .title{font:14px sans-serif;fill:#333}
  </style>
  <text x="400" y="20" class="title" text-anchor="middle">OPIC Field Growth Timeline</text>
  <line x1="40" y1="40" x2="40" y2="360" class="axis"/>
  <line x1="40" y1="360" x2="760" y2="360" class="axis"/>
  <path d="M 40.0,101.53846153846155 L 46.60550458715596,101.53846153846155 L 53.211009174311926,101.53846153846155 L 59.81651376146789,101.53846153846155 L 66.42201834862385,101.53846153846155 L 73.02752293577981,101.53846153846155 L 79.63302752293578,101.53846153846155 L 86.23853211009174,101.53846153846155 L 92.8440366972477,101.53846153846155 L 99.44954128440367,101.53846153846155 L 106.05504587155964,101.53846153846155 L 112.6605504587156,101.53846153846155 L 119.26605504587157,101.53846153846155 L 125.87155963302753,101.53846153846155 L 132.47706422018348,101.53846153846155 L 139.08256880733944,101.53846153846155 L 145.6880733944954,101.53846153846155 L 152.29357798165137,101.53846153846155 L 158.89908256880733,101.53846153846155 L 165.5045871559633,101.53846153846155 L 172.11009174311928,101.53846153846155 L 178.71559633027525,101.53846153846155 L 185.3211009174312,101.53846153846155 L 191.92660550458717,101.53846153846155 L 198.53211009174314,101.53846153846155 L 205.1376146788991,101.53846153846155 L 211.74311926605506,101.53846153846155 L 218.34862385321102,40.0 L 224.954128440367,40.0 L 231.55963302752295,40.0 L 238.1651376146789,40.0 L 244.77064220183487,40.0 L 251.37614678899084,40.0 L 257.98165137614683,40.0 L 264.58715596330273,40.0 L 271.19266055045875,40.0 L 277.79816513761466,40.0 L 284.4036697247707,40.0 L 291.0091743119266,40.0 L 297.6146788990826,40.0 L 304.22018348623857,40.0 L 310.82568807339453,40.0 L 317.4311926605505,40.0 L 324.03669724770646,40.0 L 330.6422018348624,40.0 L 337.2477064220184,40.0 L 343.85321100917434,40.0 L 350.4587155963303,40.0 L 357.06422018348627,40.0 L 363.66972477064223,40.0 L 370.2752293577982,40.0 L 376.88073394495416,40.0 L 383.4862385321101,40.0 L 390.0917431192661,40.0 L 396.69724770642205,40.0 L 403.30275229357795,40.0 L 409.908256880734,40.0 L 416.5137614678899,40.0 L 423.1192660550459,40.0 L 429.7247706422018,40.0 L 436.3302752293578,40.0 L 442.93577981651373,40.0 L 449.54128440366975,40.0 L 456.14678899082566,40.0 L 462.7522935779817,40.0 L 469.3577981651376,40.0 L 475.9633027522936,40.0 L 482.5688073394495,40.0 L 489.1743119266055,40.0 L 495.77981651376143,40.0 L 502.38532110091745,40.0 L 508.99082568807336,40.0 L 515.5963302752293,40.0 L 522.2018348623853,40.0 L 528.8073394495414,40.0 L 535.4128440366972,40.0 L 542.0183486238532,40.0 L 548.6238532110092,40.0 L 555.2293577981652,40.0 L 561.8348623853211,40.0 L 568.4403669724771,40.0 L 575.045871559633,40.0 L 581.6513761467891,40.0 L 588.256880733945,40.0 L 594.862385321101,40.0 L 601.4678899082569,40.0 L 608.0733944954129,40.0 L 614.6788990825688,40.0 L 621.2844036697248,40.0 L 627.8899082568807,40.0 L 634.4954128440368,40.0 L 641.1009174311927,40.0 L 647.7064220183487,40.0 L 654.3119266055046,40.0 L 660.9174311926606,40.0 L 667.5229357798165,40.0 L 674.1284403669725,40.0 L 680.7339449541284,40.0 L 687.3394495412845,40.0 L 693.9449541284404,40.0 L 700.5504587155964,40.0 L 707.1559633027523,40.0 L 713.7614678899083,40.0 L 720.3669724770642,40.0 L 726.9724770642202,40.0 L 733.5779816513761,40.0 L 740.1834862385322,40.0 L 746.7889908256881,40.0 L 753.3944954128441,40.0 L 760.0,40.0" class="line"/>
  <circle cx="40.0" cy="101.53846153846155" class="point"/>
  <text x="40.0" y="375" class="label" text-anchor="middle">2025-11-11</text>
  <text x="40.0" y="96.53846153846155" class="label" text-anchor="middle">42</text>
  <circle cx="46.60550458715596" cy="101.53846153846155" class="point"/>
  <text x="46.60550458715596" y="375" class="label" text-anchor="middle">2025-11-12</text>
  <text x="46.60550458715596" y="96.53846153846155" class="label" text-anchor="middle">42</text>
  <circle cx="53.211009174311926" cy="101.53846153846155" class="point"/>
  <text x="53.211009174311926" y="375" class="label" text-anchor="middle">2025-11-13</text>
  <text x="53.211009174311926" y="96.53846153846155" class="label" text-anchor="middle">42</text>
  <circle cx="59.81651376146789" cy="101.53846153846155" class="point"/>
  <text x="59.81651376146789" y="375" class="label" text-anchor="middle">2025-11-14</text>
  <text x="59.81651376146789" y="96.53846153846155" class="label" text-anchor="middle">42</text>
  <circle cx="66.42201834862385" cy="101.53846153846155" class="point"/>
  <text x="66.42201834862385" y="375" class="label" text-anchor="middle">2025-11-15</text>
  <text x="66.42201834862385" y="96.53846153846155" class="label" text-anchor="middle">42</text>
  <circle cx="73.02752293577981" cy="101.53846153846155" class="point"/>
  <text x="73.02752293577981" y="375" class="label" text-anchor="middle">2025-11-16</text>
  <text x="73.02752293577981" y="96.53846153846155" class="label" text-anchor="middle">42</text>
  <circle cx="79.63302752293578" cy="101.53846153846155" class="point"/>
  <text x="79.63302752293578" y="375" class="label" text-anchor="middle">2025-11-17</text>
  <text x="79.63302752293578" y="96.53846153846155" class="label" text-anchor="middle">42</text>
  <circle cx="86.23853211009174" cy="101.53846153846155" class="point"/>
  <text x="86.23853211009174" y="375" class="label" text-anchor="middle">2025-11-18</text>
  <text x="86.23853211009174" y="96.53846153846155" class="label" text-anchor="middle">42</text>
  <circle cx="92.8440366972477" cy="101.53846153846155" class="point"/>
  <text x="92.8440366972477" y="375" class="label" text-anchor="middle">2025-11-19</text>
  <text x="92.8440366972477" y="96.53846153846155" class="label" text-anchor="middle">42</text>
  <circle cx="99.44954128440367" cy="101.53846153846155" class="point"/>
  <text x="99.44954128440367" y="375" class="label" text-anchor="middle">2025-11-20</text>
  <text x="99.44954128440367" y="96.53846153846155" class="label" text-anchor="middle">42</text>
  <circle cx="106.05504587155964" cy="101.53846153846155" class="point"/>
  <text x="106.05504587155964" y="375" class="label" text-anchor="middle">2025-11-21</text>
  <text x="106.05504587155964" y="96.53846153846155" class="label" text-anchor="middle">42</text>
  <circle cx="112.6605504587156" cy="101.53846153846155" class="point"/>
  <text x="112.6605504587156" y="375" class="label" text-anchor="middle">2025-11-22</text>
  <text x="112.6605504587156" y="96.53846153846155" class="label" text-anchor="middle">42</text>
  <circle cx="119.26605504587157" cy="101.53846153846155" class="point"/>
  <text x="119.26605504587157" y="375" class="label" text-anchor="middle">2025-11-23</text>
  <text x="119.26605504587157" y="96.53846153846155" class="label" text-anchor="middle">42</text>
  <circle cx="125.87155963302753" cy="101.53846153846155" class="point"/>
  <text x="125.87155963302753" y="375" class="label" text-anchor="middle">2025-11-24</text>
  <text x="125.87155963302753" y="96.53846153846155" class="label" text-anchor="middle">42</text>
  <circle cx="132.47706422018348" cy="101.53846153846155" class="point"/>
  <text x="132.47706422018348" y="375" class="label" text-anchor="middle">2025-11-25</text>
  <text x="132.47706422018348" y="96.53846153846155" class="label" text-anchor="middle">42</text>
  <circle cx="139.08256880733944" cy="101.53846153846155" class="point"/>
  <text x="139.08256880733944" y="375" class="label" text-anchor="middle">2025-11-26</text>
  <text x="139.08256880733944" y="96.53846153846155" class="label" text-anchor="middle">42</text>
  <circle cx="145.6880733944954" cy="101.53846153846155" class="point"/>
  <text x="145.6880733944954" y="375" class="label" text-anchor="middle">2025-11-27</text>
  <text x="145.6880733944954" y="96.53846153846155" class="label" text-anchor="middle">42</text>
  <circle cx="152.29357798165137" cy="101.53846153846155" class="point"/>
  <text x="152.29357798165137" y="375" class="label" text-anchor="middle">2025-11-28</text>
  <text x="152.29357798165137" y="96.53846153846155" class="label" text-anchor="middle">42</text>
  <circle cx="158.89908256880733" cy="101.53846153846155" class="point"/>
  <text x="158.89908256880733" y="375" class="label" text-anchor="middle">2025-11-29</text>
  <text x="158.89908256880733" y="96.53846153846155" class="label" text-anchor="middle">42</text>
  <circle cx="165.5045871559633" cy="101.53846153846155" class="point"/>
  <text x="165.5045871559633" y="375" class="label" text-anchor="middle">2025-11-30</text>
  <text x="165.5045871559633" y="96.53846153846155" class="label" text-anchor="middle">42</text>
  <circle cx="172.11009174311928" cy="101.53846153846155" class="point"/>
  <text x="172.11009174311928" y="375" class="label" text-anchor="middle">2025-12-01</text>
  <text x="172.11009174311928" y="96.53846153846155" class="label" text-anchor="middle">42</text>
  <circle cx="178.71559633027525" cy="101.53846153846155" class="point"/>
  <text x="178.71559633027525" y="375" class="label" text-anchor="middle">2025-12-02</text>
  <text x="178.71559633027525" y="96.53846153846155" class="label" text-anchor="middle">42</text>
  <circle cx="185.3211009174312" cy="101.53846153846155" class="point"/>
  <text x="185.3211009174312" y="375" class="label" text-anchor="middle">2025-12-03</text>
  <text x="185.3211009174312" y="96.53846153846155" class="label" text-anchor="middle">42</text>
  <circle cx="191.92660550458717" cy="101.53846153846155" class="point"/>
  <text x="191.92660550458717" y="375" class="label" text-anchor="middle">2025-12-04</text>
  <text x="191.92660550458717" y="96.53846153846155" class="label" text-anchor="middle">42</text>
  <circle cx="198.53211009174314" cy="101.53846153846155" class="point"/>
  <text x="198.53211009174314" y="375" class="label" text-anchor="middle">2025-12-05</text>
  <text x="198.53211009174314" y="96.53846153846155" class="label" text-anchor="middle">42</text>
  <circle cx="205.1376146788991" cy="101.53846153846155" class="point"/>
  <text x="205.1376146788991" y="375" class="label" text-anchor="middle">2025-12-06</text>
  <text x="205.1376146788991" y="96.53846153846155" class="label" text-anchor="middle">42</text>
  <circle cx="211.74311926605506" cy="101.53846153846155" class="point"/>
  <text x="211.74311926605506" y="375" class="label" text-anchor="middle">2025-12-07</text>
  <text x="211.74311926605506" y="96.53846153846155" class="label" text-anchor="middle">42</text>
  <circle cx="218.34862385321102" cy="40.0" class="point"/>
  <text x="218.34862385321102" y="375" class="label" text-anchor="middle">2025-12-08</text>
  <text x="218.34862385321102" y="35.0" class="label" text-anchor="middle">52</text>
  <circle cx="224.954128440367" cy="40.0" class="point"/>
  <text x="224.954128440367" y="375" class="label" text-anchor="middle">2025-12-09</text>
  <text x="224.954128440367" y="35.0" class="label" text-anchor="middle">52</text>
  <circle cx="231.55963302752295" cy="40.0" class="point"/>
  <text x="231.55963302752295" y="375" class="label" text-anchor="middle">2025-12-10</text>
  <text x="231.55963302752295" y="35.0" class="label" text-anchor="middle">52</text>
  <circle cx="238.1651376146789" cy="40.0" class="point"/>
  <text x="238.1651376146789" y="375" class="label" text-anchor="middle">2025-12-11</text>
  <text x="238.1651376146789" y="35.0" class="label" text-anchor="middle">52</text>
  <circle cx="244.77064220183487" cy="40.0" class="point"/>
  <text x="244.77064220183487" y="375" class="label" text-anchor="middle">2025-12-12</text>
  <text x="244.77064220183487" y="35.0" class="label" text-anchor="middle">52</text>
  <circle cx="251.37614678899084" cy="40.0" class="point"/>
  <text x="251.37614678899084" y="375" class="label" text-anchor="middle">2025-12-13</text>
  <text x="251.37614678899084" y="35.0" class="label" text-anchor="middle">52</text>
  <circle cx="257.98165137614683" cy="40.0" class="point"/>
  <text x="257.98165137614683" y="375" class="label" text-anchor="middle">2025-12-14</text>
  <text x="257.98165137614683" y="35.0" class="label" text-anchor="middle">52</text>
  <circle cx="264.58715596330273" cy="40.0" class="point"/>
  <text x="264.58715596330273" y="375" class="label" text-anchor="middle">2025-12-15</text>
  <text x="264.58715596330273" y="35.0" class="label" text-anchor="middle">52</text>
  <circle cx="271.19266055045875" cy="40.0" class="point"/>
  <text x="271.19266055045875" y="375" class="label" text-anchor="middle">2025-12-16</text>
  <text x="271.19266055045875" y="35.0" class="label" text-anchor="middle">52</text>
  <circle cx="277.79816513761466" cy="40.0" class="point"/>
  <text x="277.79816513761466" y="375" class="label" text-anchor="middle">2025-12-17</text>
  <text x="277.79816513761466" y="35.0" class="label" text-anchor="middle">52</text>
  <circle cx="284.4036697247707" cy="40.0" class="point"/>
  <text x="284.4036697247707" y="375" class="label" text-anchor="middle">2025-12-18</text>
  <text x="284.4036697247707" y="35.0" class="label" text-anchor="middle">52</text>
  <circle cx="291.0091743119266" cy="40.0" class="point"/>
  <text x="291.0091743119266" y="375" class="label" text-anchor="middle">2025-12-19</text>
  <text x="291.0091743119266" y="35.0" class="label" text-anchor="middle">52</text>
  <circle cx="297.6146788990826" cy="40.0" class="point"/>
  <text x="297.6146788990826" y="375" class="label" text-anchor="middle">2025-12-20</text>
  <text x="297.6146788990826" y="35.0" class="label" text-anchor="middle">52</text>
  <circle cx="304.22018348623857" cy="40.0" class="point"/>
  <text x="304.22018348623857" y="375" class="label" text-anchor="middle">2025-12-21</text>
  <text x="304.22018348623857" y="35.0" class="label" text-anchor="middle">52</text>
  <circle cx="310.82568807339453" cy="40.0" class="point"/>
  <text x="310.82568807339453" y="375" class="label" text-anchor="middle">2025-12-22</text>
  <text x="310.82568807339453" y="35.0" class="label" text-anchor="middle">52</text>
  <circle cx="317.4311926605505" cy="40.0" class="point"/>
  <text x="317.4311926605505" y="375" class="label" text-anchor="middle">2025-12-23</text>
  <text x="317.4311926605505" y="35.0" class="label" text-anchor="middle">52</text>
  <circle cx="324.03669724770646" cy="40.0" class="point"/>
  <text x="324.03669724770646" y="375" class="label" text-anchor="middle">2025-12-24</text>
  <text x="324.03669724770646" y="35.0" class="label" text-anchor="middle">52</text>
  <circle cx="330.6422018348624" cy="40.0" class="point"/>
  <text x="330.6422018348624" y="375" class="label" text-anchor="middle">2025-12-25</text>
  <text x="330.6422018348624" y="35.0" class="label" text-anchor="middle">52</text>
  <circle cx="337.2477064220184" cy="40.0" class="point"/>
  <text x="337.2477064220184" y="375" class="label" text-anchor="middle">2025-12-26</text>
  <text x="337.2477064220184" y="35.0" class="label" text-anchor="middle">52</text>
  <circle cx="343.85321100917434" cy="40.0" class="point"/>
  <text x="343.85321100917434" y="375" class="label" text-anchor="middle">2025-12-27</text>
  <text x="343.85321100917434" y="35.0" class="label" text-anchor="middle">52</text>
  <circle cx="350.4587155963303" cy="40.0" class="point"/>
  <text x="350.4587155963303" y="375" class="label" text-anchor="middle">2025-12-28</text>
  <text x="350.4587155963303" y="35.0" class="label" text-anchor="middle">52</text>
  <circle cx="357.06422018348627" cy="40.0" class="point"/>
  <text x="357.06422018348627" y="375" class="label" text-anchor="middle">2025-12-29</text>
  <text x="357.06422018348627" y="35.0" class="label" text-anchor="middle">52</text>
  <circle cx="363.66972477064223" cy="40.0" class="point"/>
  <text x="363.66972477064223" y="375" class="label" text-anchor="middle">2025-12-30</text>
  <text x="363.66972477064223" y="35.0" class="label" text-anchor="middle">52</text>
  <circle cx="370.2752293577982" cy="40.0" class="point"/>
  <text x="370.2752293577982" y="375" class="label" text-anchor="middle">2025-12-31</text>
  <text x="370.2752293577982" y="35.0" class="label" text-anchor="middle">52</text>
  <circle cx="376.88073394495416" cy="40.0" class="point"/>
  <text x="376.88073394495416" y="375" class="label" text-anchor="middle">2026-01-01</text>
  <text x="376.88073394495416" y="35.0" class="label" text-anchor="middle">52</text>
  <circle cx="383.4862385321101" cy="40.0" class="point"/>
  <text x="383.4862385321101" y="375" class="label" text-anchor="middle">2026-01-02</text>
  <text x="383.4862385321101" y="35.0" class="label" text-anchor="middle">52</text>
  <circle cx="390.0917431192661" cy="40.0" class="point"/>
  <text x="390.0917431192661" y="375" class="label" text-anchor="middle">2026-01-03</text>
  <text x="390.0917431192661" y="35.0" class="label" text-anchor="middle">52</text>
  <circle cx="396.69724770642205" cy="40.0" class="point"/>
  <text x="396.69724770642205" y="375" class="label" text-anchor="middle">2026-01-04</text>
  <text x="396.69724770642205" y="35.0" class="label" text-anchor="middle">52</text>
  <circle cx="403.30275229357795" cy="40.0" class="point"/>
  <text x="403.30275229357795" y="375" class="label" text-anchor="middle">2026-01-05</text>
  <text x="403.30275229357795" y="35.0" class="label" text-anchor="middle">52</text>
  <circle cx="409.908256880734" cy="40.0" class="point"/>
  <text x="409.908256880734" y="375" class="label" text-anchor="middle">2026-01-06</text>
  <text x="409.908256880734" y="35.0" class="label" text-anchor="middle">52</text>
  <circle cx="416.5137614678899" cy="40.0" class="point"/>
  <text x="416.5137614678899" y="375" class="label" text-anchor="middle">2026-01-07</text>
  <text x="416.5137614678899" y="35.0" class="label" text-anchor="middle">52</text>
  <circle cx="423.1192660550459" cy="40.0" class="point"/>
  <text x="423.1192660550459" y="375" class="label" text-anchor="middle">2026-01-08</text>
  <text x="423.1192660550459" y="35.0" class="label" text-anchor="middle">52</text>
  <circle cx="429.7247706422018" cy="40.0" class="point"/>
  <text x="429.7247706422018" y="375" class="label" text-anchor="middle">2026-01-09</text>
  <text x="429.7247706422018" y="35.0" class="label" text-anchor="middle">52</text>
  <circle cx="436.3302752293578" cy="40.0" class="point"/>
  <text x="436.3302752293578" y="375" class="label" text-anchor="middle">2026-01-10</text>
  <text x="436.3302752293578" y="35.0" class="label" text-anchor="middle">52</text>
  <circle cx="442.93577981651373" cy="40.0" class="point"/>
  <text x="442.93577981651373" y="375" class="label" text-anchor="middle">2026-01-11</text>
  <text x="442.93577981651373" y="35.0" class="label" text-anchor="middle">52</text>
  <circle cx="449.54128440366975" cy="40.0" class="point"/>
  <text x="449.54128440366975" y="375" class="label" text-anchor="middle">2026-01-12</text>
  <text x="449.54128440366975" y="35.0" class="label" text-anchor="middle">52</text>
  <circle cx="456.14678899082566" cy="40.0" class="point"/>
  <text x="456.14678899082566" y="375" class="label" text-anchor="middle">2026-01-13</text>
  <text x="456.14678899082566" y="35.0" class="label" text-anchor="middle">52</text>
  <circle cx="462.7522935779817" cy="40.0" class="point"/>
  <text x="462.7522935779817" y="375" class="label" text-anchor="middle">2026-01-14</text>
  <text x="462.7522935779817" y="35.0" class="label" text-anchor="middle">52</text>
  <circle cx="469.3577981651376" cy="40.0" class="point"/>
  <text x="469.3577981651376" y="375" class="label" text-anchor="middle">2026-01-15</text>
  <text x="469.3577981651376" y="35.0" class="label" text-anchor="middle">52</text>
  <circle cx="475.9633027522936" cy="40.0" class="point"/>
  <text x="475.9633027522936" y="375" class="label" text-anchor="middle">2026-01-16</text>
  <text x="475.9633027522936" y="35.0" class="label" text-anchor="middle">52</text>
  <circle cx="482.5688073394495" cy="40.0" class="point"/>
  <text x="482.5688073394495" y="375" class="label" text-anchor="middle">2026-01-17</text>
  <text x="482.5688073394495" y="35.0" class="label" text-anchor="middle">52</text>
  <circle cx="489.1743119266055" cy="40.0" class="point"/>
  <text x="489.1743119266055" y="375" class="label" text-anchor="middle">2026-01-18</text>
  <text x="489.1743119266055" y="35.0" class="label" text-anchor="middle">52</text>
  <circle cx="495.77981651376143" cy="40.0" class="point"/>
  <text x="495.77981651376143" y="375" class="label" text-anchor="middle">2026-01-19</text>
  <text x="495.77981651376143" y="35.0" class="label" text-anchor="middle">52</text>
  <circle cx="502.38532110091745" cy="40.0" class="point"/>
  <text x="502.38532110091745" y="375" class="label" text-anchor="middle">2026-01-20</text>
  <text x="502.38532110091745" y="35.0" class="label" text-anchor="middle">52</text>
  <circle cx="508.99082568807336" cy="40.0" class="point"/>
  <text x="508.99082568807336" y="375" class="label" text-anchor="middle">2026-01-21</text>
  <text x="508.99082568807336" y="35.0" class="label" text-anchor="middle">52</text>
  <circle cx="515.5963302752293" cy="40.0" class="point"/>
  <text x="515.5963302752293" y="375" class="label" text-anchor="middle">2026-01-22</text>
  <text x="515.5963302752293" y="35.0" class="label" text-anchor="middle">52</text>
  <circle cx="522.2018348623853" cy="40.0" class="point"/>
  <text x="522.2018348623853" y="375" class="label" text-anchor="middle">2026-01-23</text>
  <text x="522.2018348623853" y="35.0" class="label" text-anchor="middle">52</text>
  <circle cx="528.8073394495414" cy="40.0" class="point"/>
  <text x="528.8073394495414" y="375" class="label" text-anchor="middle">2026-01-24</text>
  <text x="528.8073394495414" y="35.0" class="label" text-anchor="middle">52</text>
  <circle cx="535.4128440366972" cy="40.0" class="point"/>
  <text x="535.4128440366972" y="375" class="label" text-anchor="middle">2026-01-25</text>
  <text x="535.4128440366972" y="35.0" class="label" text-anchor="middle">52</text>
  <circle cx="542.0183486238532" cy="40.0" class="point"/>
  <text x="542.0183486238532" y="375" class="label" text-anchor="middle">2026-01-26</text>
  <text x="542.0183486238532" y="35.0" class="label" text-anchor="middle">52</text>
  <circle cx="548.6238532110092" cy="40.0" class="point"/>
  <text x="548.6238532110092" y="375" class="label" text-anchor="middle">2026-01-27</text>
  <text x="548.6238532110092" y="35.0" class="label" text-anchor="middle">52</text>
  <circle cx="555.2293577981652" cy="40.0" class="point"/>
  <text x="555.2293577981652" y="375" class="label" text-anchor="middle">2026-01-28</text>
  <text x="555.2293577981652" y="35.0" class="label" text-anchor="middle">52</text>
  <circle cx="561.8348623853211" cy="40.0" class="point"/>
  <text x="561.8348623853211" y="375" class="label" text-anchor="middle">2026-01-29</text>
  <text x="561.8348623853211" y="35.0" class="label" text-anchor="middle">52</text>
  <circle cx="568.4403669724771" cy="40.0" class="point"/>
  <text x="568.4403669724771" y="375" class="label" text-anchor="middle">2026-01-30</text>
  <text x="568.4403669724771" y="35.0" class="label" text-anchor="middle">52</text>
  <circle cx="575.045871559633" cy="40.0" class="point"/>
  <text x="575.045871559633" y="375" class="label" text-anchor="middle">2026-01-31</text>
  <text x="575.045871559633" y="35.0" class="label" text-anchor="middle">52</text>
  <circle cx="581.6513761467891" cy="40.0" class="point"/>
  <text x="581.6513761467891" y="375" class="label" text-anchor="middle">2026-02-01</text>
  <text x="581.6513761467891" y="35.0" class="label" text-anchor="middle">52</text>
  <circle cx="588.256880733945" cy="40.0" class="point"/>
  <text x="588.256880733945" y="375" class="label" text-anchor="middle">2026-02-02</text>
  <text x="588.256880733945" y="35.0" class="label" text-anchor="middle">52</text>
  <circle cx="594.862385321101" cy="40.0" class="point"/>
  <text x="594.862385321101" y="375" class="label" text-anchor="middle">2026-02-03</text>
  <text x="594.862385321101" y="35.0" class="label" text-anchor="middle">52</text>
  <circle cx="601.4678899082569" cy="40.0" class="point"/>
  <text x="601.4678899082569" y="375" class="label" text-anchor="middle">2026-02-04</text>
  <text x="601.4678899082569" y="35.0" class="label" text-anchor="middle">52</text>
  <circle cx="608.0733944954129" cy="40.0" class="point"/>
  <text x="608.0733944954129" y="375" class="label" text-anchor="middle">2026-02-05</text>
  <text x="608.0733944954129" y="35.0" class="label" text-anchor="middle">52</text>
  <circle cx="614.6788990825688" cy="40.0" class="point"/>
  <text x="614.6788990825688" y="375" class="label" text-anchor="middle">2026-02-06</text>
  <text x="614.6788990825688" y="35.0" class="label" text-anchor="middle">52</text>
  <circle cx="621.2844036697248" cy="40.0" class="point"/>
  <text x="621.2844036697248" y="375" class="label" text-anchor="middle">2026-02-07</text>
  <text x="621.2844036697248" y="35.0" class="label" text-anchor="middle">52</text>
  <circle cx="627.8899082568807" cy="40.0" class="point"/>
  <text x="627.8899082568807" y="375" class="label" text-anchor="middle">2026-02-08</text>
  <text x="627.8899082568807" y="35.0" class="label" text-anchor="middle">52</text>
  <circle cx="634.4954128440368" cy="40.0" class="point"/>
  <text x="634.4954128440368" y="375" class="label" text-anchor="middle">2026-02-09</text>
  <text x="634.4954128440368" y="35.0" class="label" text-anchor="middle">52</text>
  <circle cx="641.1009174311927" cy="40.0" class="point"/>
  <text x="641.1009174311927" y="375" class="label" text-anchor="middle">2026-02-10</text>
  <text x="641.1009174311927" y="35.0" class="label" text-anchor="middle">52</text>
  <circle cx="647.7064220183487" cy="40.0" class="point"/>
  <text x="647.7064220183487" y="375" class="label" text-anchor="middle">2026-02-11</text>
  <text x="647.7064220183487" y="35.0" class="label" text-anchor="middle">52</text>
  <circle cx="654.3119266055046" cy="40.0" class="point"/>
  <text x="654.3119266055046" y="375" class="label" text-anchor="middle">2026-02-12</text>
  <text x="654.3119266055046" y="35.0" class="label" text-anchor="middle">52</text>
  <circle cx="660.9174311926606" cy="40.0" class="point"/>
  <text x="660.9174311926606" y="375" class="label" text-anchor="middle">2026-02-13</text>
  <text x="660.9174311926606" y="35.0" class="label" text-anchor="middle">52</text>
  <circle cx="667.5229357798165" cy="40.0" class="point"/>
  <text x="667.5229357798165" y="375" class="label" text-anchor="middle">2026-02-14</text>
  <text x="667.5229357798165" y="35.0" class="label" text-anchor="middle">52</text>
  <circle cx="674.1284403669725" cy="40.0" class="point"/>
  <text x="674.1284403669725" y="375" class="label" text-anchor="middle">2026-02-15</text>
  <text x="674.1284403669725" y="35.0" class="label" text-anchor="middle">52</text>
  <circle cx="680.7339449541284" cy="40.0" class="point"/>
  <text x="680.7339449541284" y="375" class="label" text-anchor="middle">2026-02-16</text>
  <text x="680.7339449541284" y="35.0" class="label" text-anchor="middle">52</text>
  <circle cx="687.3394495412845" cy="40.0" class="point"/>
  <text x="687.3394495412845" y="375" class="label" text-anchor="middle">2026-02-17</text>
  <text x="687.3394495412845" y="35.0" class="label" text-anchor="middle">52</text>
  <circle cx="693.9449541284404" cy="40.0" class="point"/>
  <text x="693.9449541284404" y="375" class="label" text-anchor="middle">2026-02-18</text>
  <text x="693.9449541284404" y="35.0" class="label" text-anchor="middle">52</text>
  <circle cx="700.5504587155964" cy="40.0" class="point"/>
  <text x="700.5504587155964" y="375" class="label" text-anchor="middle">2026-02-19</text>
  <text x="700.5504587155964" y="35.0" class="label" text-anchor="middle">52</text>
  <circle cx="707.1559633027523" cy="40.0" class="point"/>
  <text x="707.1559633027523" y="375" class="label" text-anchor="middle">2026-02-20</text>
  <text x="707.1559633027523" y="35.0" class="label" text-anchor="middle">52</text>
  <circle cx="713.7614678899083" cy="40.0" class="point"/>
  <text x="713.7614678899083" y="375" class="label" text-anchor="middle">2026-02-21</text>
  <text x="713.7614678899083" y="35.0" class="label" text-anchor="middle">52</text>
  <circle cx="720.3669724770642" cy="40.0" class="point"/>
  <text x="720.3669724770642" y="375" class="label" text-anchor="middle">2026-02-22</text>
  <text x="720.3669724770642" y="35.0" class="label" text-anchor="middle">52</text>
  <circle cx="726.9724770642202" cy="40.0" class="point"/>
  <text x="726.9724770642202" y="375" class="label" text-anchor="middle">2026-02-23</text>
  <text x="726.9724770642202" y="35.0" class="label" text-anchor="middle">52</text>
  <circle cx="733.5779816513761" cy="40.0" class="point"/>
  <text x="733.5779816513761" y="375" class="label" text-anchor="middle">2026-02-24</text>
  <text x="733.5779816513761" y="35.0" class="label" text-anchor="middle">52</text>
  <circle cx="740.1834862385322" cy="40.0" class="point"/>
  <text x="740.1834862385322" y="375" class="label" text-anchor="middle">2026-02-25</text>
  <text x="740.1834862385322" y="35.0" class="label" text-anchor="middle">52</text>
  <circle cx="746.7889908256881" cy="40.0" class="point"/>
  <text x="746.7889908256881" y="375" class="label" text-anchor="middle">2026-02-26</text>
  <text x="746.7889908256881" y="35.0" class="label" text-anchor="middle">52</text>
  <circle cx="753.3944954128441" cy="40.0" class="point"/>
  <text x="753.3944954128441" y="375" class="label" text-anchor="middle">2026-02-27</text>
  <text x="753.3944954128441" y="35.0" class="label" text-anchor="middle">52</text>
  <circle cx="760.0" cy="40.0" class="point"/>
  <text x="760.0" y="375" class="label" text-anchor="middle">2026-02-28</text>
  <text x="760.0" y="35.0" class="label" text-anchor="middle">52</text>
  <text x="30" y="363.0" class="label" text-anchor="end">0</text>
  <text x="30" y="301.46153846153845" class="label" text-anchor="end">10</text>
  <text x="30" y="239.9230769230769" class="label" text-anchor="end">20</text>
  <text x="30" y="178.38461538461542" class="label" text-anchor="end">30</text>
  <text x="30" y="116.84615384615384" class="label" text-anchor="end">40</text>
  <text x="30" y="55.30769230769232" class="label" text-anchor="end">50</text>
</svg>