<svg xmlns="http://www.w3.org/2000/svg" width="800" height="400" viewBox="0 0 800 400">
  <style>
    .axis{stroke:#666;stroke-width:1}
    .line{stroke:#4a9;stroke-width:2;fill:none}
    .point{fill:#4a9;r:4}
    .label{font:10px sans-serif;fill:#aaa}
    .title{font:14px sans-serif;fill:#333}
  </style>
  <text x="400" y="20" class="title" text-anchor="middle">OPIC Field Growth Timeline</text>
  <line x1="40" y1="40" x2="40" y2="360" class="axis"/>
  <line x1="40" y1="360" x2="760" y2="360" class="axis"/>
  <path d="M 40.0,101.53846153846155 L 44.21052631578947,101.53846153846155 L 48.421052631578945,101.53846153846155 L 52.631578947368425,101.53846153846155 L 56.84210526315789,101.53846153846155 L 61.05263157894737,101.53846153846155 L 65.26315789473685,101.53846153846155 L 69.47368421052632,101.53846153846155 L 73.68421052631578,101.53846153846155 L 77.89473684210526,101.53846153846155 L 82.10526315789474,101.53846153846155 L 86.3157894736842,101.53846153846155 L 90.52631578947368,101.53846153846155 L 94.73684210526315,101.53846153846155 L 98.94736842105263,101.53846153846155 L 103.15789473684211,101.53846153846155 L 107.36842105263158,101.53846153846155 L 111.57894736842105,101.53846153846155 L 115.78947368421052,101.53846153846155 L 120.0,101.53846153846155 L 124.21052631578947,101.53846153846155 L 128.42105263157896,101.53846153846155 L 132.6315789473684,101.53846153846155 L 136.8421052631579,101.53846153846155 L 141.05263157894737,101.53846153846155 L 145.26315789473682,101.53846153846155 L 149.4736842105263,101.53846153846155 L 153.68421052631578,40.0 L 157.89473684210526,40.0 L 162.10526315789474,40.0 L 166.31578947368422,40.0 L 170.52631578947367,40.0 L 174.73684210526315,40.0 L 178.94736842105263,40.0 L 183.1578947368421,40.0 L 187.36842105263156,40.0 L 191.57894736842104,40.0 L 195.78947368421052,40.0 L 200.0,40.0 L 204.21052631578945,40.0 L 208.42105263157893,40.0 L 212.6315789473684,40.0 L 216.8421052631579,40.0 L 221.05263157894737,40.0 L 225.26315789473682,40.0 L 229.4736842105263,40.0 L 233.68421052631578,40.0 L 237.89473684210526,40.0 L 242.10526315789474,40.0 L 246.3157894736842,40.0 L 250.52631578947367,40.0 L 254.73684210526315,40.0 L 258.9473684210526,40.0 L 263.1578947368421,40.0 L 267.36842105263156,40.0 L 271.57894736842104,40.0 L 275.7894736842105,40.0 L 280.0,40.0 L 284.2105263157895,40.0 L 288.42105263157896,40.0 L 292.63157894736844,40.0 L 296.84210526315786,40.0 L 301.05263157894734,40.0 L 305.2631578947368,40.0 L 309.4736842105263,40.0 L 313.6842105263158,40.0 L 317.89473684210526,40.0 L 322.10526315789474,40.0 L 326.3157894736842,40.0 L 330.52631578947364,40.0 L 334.7368421052631,40.0 L 338.9473684210526,40.0 L 343.1578947368421,40.0 L 347.36842105263156,40.0 L 351.57894736842104,40.0 L 355.7894736842105,40.0 L 360.0,40.0 L 364.2105263157895,40.0 L 368.4210526315789,40.0 L 372.6315789473684,40.0 L 376.84210526315786,40.0 L 381.05263157894734,40.0 L 385.2631578947368,40.0 L 389.4736842105263,40.0 L 393.6842105263158,40.0 L 397.89473684210526,40.0 L 402.10526315789474,40.0 L 406.3157894736842,40.0 L 410.52631578947364,40.0 L 414.7368421052632,40.0 L 418.9473684210526,40.0 L 423.15789473684214,40.0 L 427.36842105263156,40.0 L 431.5789473684211,40.0 L 435.7894736842105,40.0 L 440.0,40.0 L 444.2105263157895,40.0 L 448.42105263157896,40.0 L 452.6315789473684,40.0 L 456.8421052631579,40.0 L 461.05263157894734,40.0 L 465.2631578947369,40.0 L 469.4736842105263,40.0 L 473.6842105263158,40.0 L 477.89473684210526,40.0 L 482.10526315789474,40.0 L 486.31578947368416,40.0 L 490.5263157894737,40.0 L 494.7368421052631,40.0 L 498.94736842105266,40.0 L 503.1578947368421,40.0 L 507.3684210526316,40.0 L 511.57894736842104,40.0 L 515.7894736842105,40.0 L 520.0,40.0 L 524.2105263157895,40.0 L 528.421052631579,40.0 L 532.6315789473684,40.0 L 536.8421052631579,40.0 L 541.0526315789474,40.0 L 545.2631578947369,40.0 L 549.4736842105262,40.0 L 553.6842105263157,40.0 L 557.8947368421053,40.0 L 562.1052631578947,40.0 L 566.3157894736843,40.0 L 570.5263157894736,40.0 L 574.7368421052631,40.0 L 578.9473684210526,40.0 L 583.1578947368421,40.0 L 587.3684210526316,40.0 L 591.578947368421,40.0 L 595.7894736842105,40.0 L 600.0,40.0 L 604.2105263157895,40.0 L 608.421052631579,40.0 L 612.6315789473684,40.0 L 616.8421052631579,40.0 L 621.0526315789473,40.0 L 625.2631578947369,40.0 L 629.4736842105262,40.0 L 633.6842105263158,40.0 L 637.8947368421052,40.0 L 642.1052631578948,40.0 L 646.3157894736842,40.0 L 650.5263157894736,40.0 L 654.7368421052631,40.0 L 658.9473684210526,40.0 L 663.1578947368421,40.0 L 667.3684210526316,40.0 L 671.578947368421,40.0 L 675.7894736842105,40.0 L 680.0,40.0 L 684.2105263157895,40.0 L 688.421052631579,40.0 L 692.6315789473684,40.0 L 696.8421052631578,40.0 L 701.0526315789474,40.0 L 705.2631578947368,40.0 L 709.4736842105264,40.0 L 713.6842105263157,40.0 L 717.8947368421053,40.0 L 722.1052631578947,40.0 L 726.3157894736842,40.0 L 730.5263157894736,40.0 L 734.7368421052631,40.0 L 738.9473684210526,40.0 L 743.1578947368421,40.0 L 747.3684210526316,40.0 L 751.578947368421,40.0 L 755.7894736842105,40.0 L 760.0,40.0" class="line"/>
  <circle cx="40.0" cy="101.53846153846155" class="point"/>
  <text x="40.0" y="375" class="label" text-anchor="middle">2025-11-11</text>
  <text x="40.0" y="96.53846153846155" class="label" text-anchor="middle">42</text>
  <circle cx="44.21052631578947" cy="101.53846153846155" class="point"/>
  <text x="44.21052631578947" y="375" class="label" text-anchor="middle">2025-11-12</text>
  <text x="44.21052631578947" y="96.53846153846155" class="label" text-anchor="middle">42</text>
  <circle cx="48.421052631578945" cy="101.53846153846155" class="point"/>
  <text x="48.421052631578945" y="375" class="label" text-anchor="middle">2025-11-13</text>
  <text x="48.421052631578945" y="96.53846153846155" class="label" text-anchor="middle">42</text>
  <circle cx="52.631578947368425" cy="101.53846153846155" class="point"/>
  <text x="52.631578947368425" y="375" class="label" text-anchor="middle">2025-11-14</text>
  <text x="52.631578947368425" y="96.53846153846155" class="label" text-anchor="middle">42</text>
  <circle cx="56.84210526315789" cy="101.53846153846155" class="point"/>
  <text x="56.84210526315789" y="375" class="label" text-anchor="middle">2025-11-15</text>
  <text x="56.84210526315789" y="96.53846153846155" class="label" text-anchor="middle">42</text>
  <circle cx="61.05263157894737" cy="101.53846153846155" class="point"/>
  <text x="61.05263157894737" y="375" class="label" text-anchor="middle">2025-11-16</text>
  <text x="61.05263157894737" y="96.53846153846155" class="label" text-anchor="middle">42</text>
  <circle cx="65.26315789473685" cy="101.53846153846155" class="point"/>
  <text x="65.26315789473685" y="375" class="label" text-anchor="middle">2025-11-17</text>
  <text x="65.26315789473685" y="96.53846153846155" class="label" text-anchor="middle">42</text>
  <circle cx="69.47368421052632" cy="101.53846153846155" class="point"/>
  <text x="69.47368421052632" y="375" class="label" text-anchor="middle">2025-11-18</text>
  <text x="69.47368421052632" y="96.53846153846155" class="label" text-anchor="middle">42</text>
  <circle cx="73.68421052631578" cy="101.53846153846155" class="point"/>
  <text x="73.68421052631578" y="375" class="label" text-anchor="middle">2025-11-19</text>
  <text x="73.68421052631578" y="96.53846153846155" class="label" text-anchor="middle">42</text>
  <circle cx="77.89473684210526" cy="101.53846153846155" class="point"/>
  <text x="77.89473684210526" y="375" class="label" text-anchor="middle">2025-11-20</text>
  <text x="77.89473684210526" y="96.53846153846155" class="label" text-anchor="middle">42</text>
  <circle cx="82.10526315789474" cy="101.53846153846155" class="point"/>
  <text x="82.10526315789474" y="375" class="label" text-anchor="middle">2025-11-21</text>
  <text x="82.10526315789474" y="96.53846153846155" class="label" text-anchor="middle">42</text>
  <circle cx="86.3157894736842" cy="101.53846153846155" class="point"/>
  <text x="86.3157894736842" y="375" class="label" text-anchor="middle">2025-11-22</text>
  <text x="86.3157894736842" y="96.53846153846155" class="label" text-anchor="middle">42</text>
  <circle cx="90.52631578947368" cy="101.53846153846155" class="point"/>
  <text x="90.52631578947368" y="375" class="label" text-anchor="middle">2025-11-23</text>
  <text x="90.52631578947368" y="96.53846153846155" class="label" text-anchor="middle">42</text>
  <circle cx="94.73684210526315" cy="101.53846153846155" class="point"/>
  <text x="94.73684210526315" y="375" class="label" text-anchor="middle">2025-11-24</text>
  <text x="94.73684210526315" y="96.53846153846155" class="label" text-anchor="middle">42</text>
  <circle cx="98.94736842105263" cy="101.53846153846155" class="point"/>
  <text x="98.94736842105263" y="375" class="label" text-anchor="middle">2025-11-25</text>
  <text x="98.94736842105263" y="96.53846153846155" class="label" text-anchor="middle">42</text>
  <circle cx="103.15789473684211" cy="101.53846153846155" class="point"/>
  <text x="103.15789473684211" y="375" class="label" text-anchor="middle">2025-11-26</text>
  <text x="103.15789473684211" y="96.53846153846155" class="label" text-anchor="middle">42</text>
  <circle cx="107.36842105263158" cy="101.53846153846155" class="point"/>
  <text x="107.36842105263158" y="375" class="label" text-anchor="middle">2025-11-27</text>
  <text x="107.36842105263158" y="96.53846153846155" class="label" text-anchor="middle">42</text>
  <circle cx="111.57894736842105" cy="101.53846153846155" class="point"/>
  <text x="111.57894736842105" y="375" class="label" text-anchor="middle">2025-11-28</text>
  <text x="111.57894736842105" y="96.53846153846155" class="label" text-anchor="middle">42</text>
  <circle cx="115.78947368421052" cy="101.53846153846155" class="point"/>
  <text x="115.78947368421052" y="375" class="label" text-anchor="middle">2025-11-29</text>
  <text x="115.78947368421052" y="96.53846153846155" class="label" text-anchor="middle">42</text>
  <circle cx="120.0" cy="101.53846153846155" class="point"/>
  <text x="120.0" y="375" class="label" text-anchor="middle">2025-11-30</text>
  <text x="120.0" y="96.53846153846155" class="label" text-anchor="middle">42</text>
  <circle cx="124.21052631578947" cy="101.53846153846155" class="point"/>
  <text x="124.21052631578947" y="375" class="label" text-anchor="middle">2025-12-01</text>
  <text x="124.21052631578947" y="96.53846153846155" class="label" text-anchor="middle">42</text>
  <circle cx="128.42105263157896" cy="101.53846153846155" class="point"/>
  <text x="128.42105263157896" y="375" class="label" text-anchor="middle">2025-12-02</text>
  <text x="128.42105263157896" y="96.53846153846155" class="label" text-anchor="middle">42</text>
  <circle cx="132.6315789473684" cy="101.53846153846155" class="point"/>
  <text x="132.6315789473684" y="375" class="label" text-anchor="middle">2025-12-03</text>
  <text x="132.6315789473684" y="96.53846153846155" class="label" text-anchor="middle">42</text>
  <circle cx="136.8421052631579" cy="101.53846153846155" class="point"/>
  <text x="136.8421052631579" y="375" class="label" text-anchor="middle">2025-12-04</text>
  <text x="136.8421052631579" y="96.53846153846155" class="label" text-anchor="middle">42</text>
  <circle cx="141.05263157894737" cy="101.53846153846155" class="point"/>
  <text x="141.05263157894737" y="375" class="label" text-anchor="middle">2025-12-05</text>
  <text x="141.05263157894737" y="96.53846153846155" class="label" text-anchor="middle">42</text>
  <circle cx="145.26315789473682" cy="101.53846153846155" class="point"/>
  <text x="145.26315789473682" y="375" class="label" text-anchor="middle">2025-12-06</text>
  <text x="145.26315789473682" y="96.53846153846155" class="label" text-anchor="middle">42</text>
  <circle cx="149.4736842105263" cy="101.53846153846155" class="point"/>
  <text x="149.4736842105263" y="375" class="label" text-anchor="middle">2025-12-07</text>
  <text x="149.4736842105263" y="96.53846153846155" class="label" text-anchor="middle">42</text>
  <circle cx="153.68421052631578" cy="40.0" class="point"/>
  <text x="153.68421052631578" y="375" class="label" text-anchor="middle">2025-12-08</text>
  <text x="153.68421052631578" y="35.0" class="label" text-anchor="middle">52</text>
  <circle cx="157.89473684210526" cy="40.0" class="point"/>
  <text x="157.89473684210526" y="375" class="label" text-anchor="middle">2025-12-09</text>
  <text x="157.89473684210526" y="35.0" class="label" text-anchor="middle">52</text>
  <circle cx="162.10526315789474" cy="40.0" class="point"/>
  <text x="162.10526315789474" y="375" class="label" text-anchor="middle">2025-12-10</text>
  <text x="162.10526315789474" y="35.0" class="label" text-anchor="middle">52</text>
  <circle cx="166.31578947368422" cy="40.0" class="point"/>
  <text x="166.31578947368422" y="375" class="label" text-anchor="middle">2025-12-11</text>
  <text x="166.31578947368422" y="35.0" class="label" text-anchor="middle">52</text>
  <circle cx="170.52631578947367" cy="40.0" class="point"/>
  <text x="170.52631578947367" y="375" class="label" text-anchor="middle">2025-12-12</text>
  <text x="170.52631578947367" y="35.0" class="label" text-anchor="middle">52</text>
  <circle cx="174.73684210526315" cy="40.0" class="point"/>
  <text x="174.73684210526315" y="375" class="label" text-anchor="middle">2025-12-13</text>
  <text x="174.73684210526315" y="35.0" class="label" text-anchor="middle">52</text>
  <circle cx="178.94736842105263" cy="40.0" class="point"/>
  <text x="178.94736842105263" y="375" class="label" text-anchor="middle">2025-12-14</text>
  <text x="178.94736842105263" y="35.0" class="label" text-anchor="middle">52</text>
  <circle cx="183.1578947368421" cy="40.0" class="point"/>
  <text x="183.1578947368421" y="375" class="label" text-anchor="middle">2025-12-15</text>
  <text x="183.1578947368421" y="35.0" class="label" text-anchor="middle">52</text>
  <circle cx="187.36842105263156" cy="40.0" class="point"/>
  <text x="187.36842105263156" y="375" class="label" text-anchor="middle">2025-12-16</text>
  <text x="187.36842105263156" y="35.0" class="label" text-anchor="middle">52</text>
  <circle cx="191.57894736842104" cy="40.0" class="point"/>
  <text x="191.57894736842104" y="375" class="label" text-anchor="middle">2025-12-17</text>
  <text x="191.57894736842104" y="35.0" class="label" text-anchor="middle">52</text>
  <circle cx="195.78947368421052" cy="40.0" class="point"/>
  <text x="195.78947368421052" y="375" class="label" text-anchor="middle">2025-12-18</text>
  <text x="195.78947368421052" y="35.0" class="label" text-anchor="middle">52</text>
  <circle cx="200.0" cy="40.0" class="point"/>
  <text x="200.0" y="375" class="label" text-anchor="middle">2025-12-19</text>
  <text x="200.0" y="35.0" class="label" text-anchor="middle">52</text>
  <circle cx="204.21052631578945" cy="40.0" class="point"/>
  <text x="204.21052631578945" y="375" class="label" text-anchor="middle">2025-12-20</text>
  <text x="204.21052631578945" y="35.0" class="label" text-anchor="middle">52</text>
  <circle cx="208.42105263157893" cy="40.0" class="point"/>
  <text x="208.42105263157893" y="375" class="label" text-anchor="middle">2025-12-21</text>
  <text x="208.42105263157893" y="35.0" class="label" text-anchor="middle">52</text>
  <circle cx="212.6315789473684" cy="40.0" class="point"/>
  <text x="212.6315789473684" y="375" class="label" text-anchor="middle">2025-12-22</text>
  <text x="212.6315789473684" y="35.0" class="label" text-anchor="middle">52</text>
  <circle cx="216.8421052631579" cy="40.0" class="point"/>
  <text x="216.8421052631579" y="375" class="label" text-anchor="middle">2025-12-23</text>
  <text x="216.8421052631579" y="35.0" class="label" text-anchor="middle">52</text>
  <circle cx="221.05263157894737" cy="40.0" class="point"/>
  <text x="221.05263157894737" y="375" class="label" text-anchor="middle">2025-12-24</text>
  <text x="221.05263157894737" y="35.0" class="label" text-anchor="middle">52</text>
  <circle cx="225.26315789473682" cy="40.0" class="point"/>
  <text x="225.26315789473682" y="375" class="label" text-anchor="middle">2025-12-25</text>
  <text x="225.26315789473682" y="35.0" class="label" text-anchor="middle">52</text>
  <circle cx="229.4736842105263" cy="40.0" class="point"/>
  <text x="229.4736842105263" y="375" class="label" text-anchor="middle">2025-12-26</text>
  <text x="229.4736842105263" y="35.0" class="label" text-anchor="middle">52</text>
  <circle cx="233.68421052631578" cy="40.0" class="point"/>
  <text x="233.68421052631578" y="375" class="label" text-anchor="middle">2025-12-27</text>
  <text x="233.68421052631578" y="35.0" class="label" text-anchor="middle">52</text>
  <circle cx="237.89473684210526" cy="40.0" class="point"/>
  <text x="237.89473684210526" y="375" class="label" text-anchor="middle">2025-12-28</text>
  <text x="237.89473684210526" y="35.0" class="label" text-anchor="middle">52</text>
  <circle cx="242.10526315789474" cy="40.0" class="point"/>
  <text x="242.10526315789474" y="375" class="label" text-anchor="middle">2025-12-29</text>
  <text x="242.10526315789474" y="35.0" class="label" text-anchor="middle">52</text>
  <circle cx="246.3157894736842" cy="40.0" class="point"/>
  <text x="246.3157894736842" y="375" class="label" text-anchor="middle">2025-12-30</text>
  <text x="246.3157894736842" y="35.0" class="label" text-anchor="middle">52</text>
  <circle cx="250.52631578947367" cy="40.0" class="point"/>
  <text x="250.52631578947367" y="375" class="label" text-anchor="middle">2025-12-31</text>
  <text x="250.52631578947367" y="35.0" class="label" text-anchor="middle">52</text>
  <circle cx="254.73684210526315" cy="40.0" class="point"/>
  <text x="254.73684210526315" y="375" class="label" text-anchor="middle">2026-01-01</text>
  <text x="254.73684210526315" y="35.0" class="label" text-anchor="middle">52</text>
  <circle cx="258.9473684210526" cy="40.0" class="point"/>
  <text x="258.9473684210526" y="375" class="label" text-anchor="middle">2026-01-02</text>
  <text x="258.9473684210526" y="35.0" class="label" text-anchor="middle">52</text>
  <circle cx="263.1578947368421" cy="40.0" class="point"/>
  <text x="263.1578947368421" y="375" class="label" text-anchor="middle">2026-01-03</text>
  <text x="263.1578947368421" y="35.0" class="label" text-anchor="middle">52</text>
  <circle cx="267.36842105263156" cy="40.0" class="point"/>
  <text x="267.36842105263156" y="375" class="label" text-anchor="middle">2026-01-04</text>
  <text x="267.36842105263156" y="35.0" class="label" text-anchor="middle">52</text>
  <circle cx="271.57894736842104" cy="40.0" class="point"/>
  <text x="271.57894736842104" y="375" class="label" text-anchor="middle">2026-01-05</text>
  <text x="271.57894736842104" y="35.0" class="label" text-anchor="middle">52</text>
  <circle cx="275.7894736842105" cy="40.0" class="point"/>
  <text x="275.7894736842105" y="375" class="label" text-anchor="middle">2026-01-06</text>
  <text x="275.7894736842105" y="35.0" class="label" text-anchor="middle">52</text>
  <circle cx="280.0" cy="40.0" class="point"/>
  <text x="280.0" y="375" class="label" text-anchor="middle">2026-01-07</text>
  <text x="280.0" y="35.0" class="label" text-anchor="middle">52</text>
  <circle cx="284.2105263157895" cy="40.0" class="point"/>
  <text x="284.2105263157895" y="375" class="label" text-anchor="middle">2026-01-08</text>
  <text x="284.2105263157895" y="35.0" class="label" text-anchor="middle">52</text>
  <circle cx="288.42105263157896" cy="40.0" class="point"/>
  <text x="288.42105263157896" y="375" class="label" text-anchor="middle">2026-01-09</text>
  <text x="288.42105263157896" y="35.0" class="label" text-anchor="middle">52</text>
  <circle cx="292.63157894736844" cy="40.0" class="point"/>
  <text x="292.63157894736844" y="375" class="label" text-anchor="middle">2026-01-10</text>
  <text x="292.63157894736844" y="35.0" class="label" text-anchor="middle">52</text>
  <circle cx="296.84210526315786" cy="40.0" class="point"/>
  <text x="296.84210526315786" y="375" class="label" text-anchor="middle">2026-01-11</text>
  <text x="296.84210526315786" y="35.0" class="label" text-anchor="middle">52</text>
  <circle cx="301.05263157894734" cy="40.0" class="point"/>
  <text x="301.05263157894734" y="375" class="label" text-anchor="middle">2026-01-12</text>
  <text x="301.05263157894734" y="35.0" class="label" text-anchor="middle">52</text>
  <circle cx="305.2631578947368" cy="40.0" class="point"/>
  <text x="305.2631578947368" y="375" class="label" text-anchor="middle">2026-01-13</text>
  <text x="305.2631578947368" y="35.0" class="label" text-anchor="middle">52</text>
  <circle cx="309.4736842105263" cy="40.0" class="point"/>
  <text x="309.4736842105263" y="375" class="label" text-anchor="middle">2026-01-14</text>
  <text x="309.4736842105263" y="35.0" class="label" text-anchor="middle">52</text>
  <circle cx="313.6842105263158" cy="40.0" class="point"/>
  <text x="313.6842105263158" y="375" class="label" text-anchor="middle">2026-01-15</text>
  <text x="313.6842105263158" y="35.0" class="label" text-anchor="middle">52</text>
  <circle cx="317.89473684210526" cy="40.0" class="point"/>
  <text x="317.89473684210526" y="375" class="label" text-anchor="middle">2026-01-16</text>
  <text x="317.89473684210526" y="35.0" class="label" text-anchor="middle">52</text>
  <circle cx="322.10526315789474" cy="40.0" class="point"/>
  <text x="322.10526315789474" y="375" class="label" text-anchor="middle">2026-01-17</text>
  <text x="322.10526315789474" y="35.0" class="label" text-anchor="middle">52</text>
  <circle cx="326.3157894736842" cy="40.0" class="point"/>
  <text x="326.3157894736842" y="375" class="label" text-anchor="middle">2026-01-18</text>
  <text x="326.3157894736842" y="35.0" class="label" text-anchor="middle">52</text>
  <circle cx="330.52631578947364" cy="40.0" class="point"/>
  <text x="330.52631578947364" y="375" class="label" text-anchor="middle">2026-01-19</text>
  <text x="330.52631578947364" y="35.0" class="label" text-anchor="middle">52</text>
  <circle cx="334.7368421052631" cy="40.0" class="point"/>
  <text x="334.7368421052631" y="375" class="label" text-anchor="middle">2026-01-20</text>
  <text x="334.7368421052631" y="35.0" class="label" text-anchor="middle">52</text>
  <circle cx="338.9473684210526" cy="40.0" class="point"/>
  <text x="338.9473684210526" y="375" class="label" text-anchor="middle">2026-01-21</text>
  <text x="338.9473684210526" y="35.0" class="label" text-anchor="middle">52</text>
  <circle cx="343.1578947368421" cy="40.0" class="point"/>
  <text x="343.1578947368421" y="375" class="label" text-anchor="middle">2026-01-22</text>
  <text x="343.1578947368421" y="35.0" class="label" text-anchor="middle">52</text>
  <circle cx="347.36842105263156" cy="40.0" class="point"/>
  <text x="347.36842105263156" y="375" class="label" text-anchor="middle">2026-01-23</text>
  <text x="347.36842105263156" y="35.0" class="label" text-anchor="middle">52</text>
  <circle cx="351.57894736842104" cy="40.0" class="point"/>
  <text x="351.57894736842104" y="375" class="label" text-anchor="middle">2026-01-24</text>
  <text x="351.57894736842104" y="35.0" class="label" text-anchor="middle">52</text>
  <circle cx="355.7894736842105" cy="40.0" class="point"/>
  <text x="355.7894736842105" y="375" class="label" text-anchor="middle">2026-01-25</text>
  <text x="355.7894736842105" y="35.0" class="label" text-anchor="middle">52</text>
  <circle cx="360.0" cy="40.0" class="point"/>
  <text x="360.0" y="375" class="label" text-anchor="middle">2026-01-26</text>
  <text x="360.0" y="35.0" class="label" text-anchor="middle">52</text>
  <circle cx="364.2105263157895" cy="40.0" class="point"/>
  <text x="364.2105263157895" y="375" class="label" text-anchor="middle">2026-01-27</text>
  <text x="364.2105263157895" y="35.0" class="label" text-anchor="middle">52</text>
  <circle cx="368.4210526315789" cy="40.0" class="point"/>
  <text x="368.4210526315789" y="375" class="label" text-anchor="middle">2026-01-28</text>
  <text x="368.4210526315789" y="35.0" class="label" text-anchor="middle">52</text>
  <circle cx="372.6315789473684" cy="40.0" class="point"/>
  <text x="372.6315789473684" y="375" class="label" text-anchor="middle">2026-01-29</text>
  <text x="372.6315789473684" y="35.0" class="label" text-anchor="middle">52</text>
  <circle cx="376.84210526315786" cy="40.0" class="point"/>
  <text x="376.84210526315786" y="375" class="label" text-anchor="middle">2026-01-30</text>
  <text x="376.84210526315786" y="35.0" class="label" text-anchor="middle">52</text>
  <circle cx="381.05263157894734" cy="40.0" class="point"/>
  <text x="381.05263157894734" y="375" class="label" text-anchor="middle">2026-01-31</text>
  <text x="381.05263157894734" y="35.0" class="label" text-anchor="middle">52</text>
  <circle cx="385.2631578947368" cy="40.0" class="point"/>
  <text x="385.2631578947368" y="375" class="label" text-anchor="middle">2026-02-01</text>
  <text x="385.2631578947368" y="35.0" class="label" text-anchor="middle">52</text>
  <circle cx="389.4736842105263" cy="40.0" class="point"/>
  <text x="389.4736842105263" y="375" class="label" text-anchor="middle">2026-02-02</text>
  <text x="389.4736842105263" y="35.0" class="label" text-anchor="middle">52</text>
  <circle cx="393.6842105263158" cy="40.0" class="point"/>
  <text x="393.6842105263158" y="375" class="label" text-anchor="middle">2026-02-03</text>
  <text x="393.6842105263158" y="35.0" class="label" text-anchor="middle">52</text>
  <circle cx="397.89473684210526" cy="40.0" class="point"/>
  <text x="397.89473684210526" y="375" class="label" text-anchor="middle">2026-02-04</text>
  <text x="397.89473684210526" y="35.0" class="label" text-anchor="middle">52</text>
  <circle cx="402.10526315789474" cy="40.0" class="point"/>
  <text x="402.10526315789474" y="375" class="label" text-anchor="middle">2026-02-05</text>
  <text x="402.10526315789474" y="35.0" class="label" text-anchor="middle">52</text>
  <circle cx="406.3157894736842" cy="40.0" class="point"/>
  <text x="406.3157894736842" y="375" class="label" text-anchor="middle">2026-02-06</text>
  <text x="406.3157894736842" y="35.0" class="label" text-anchor="middle">52</text>
  <circle cx="410.52631578947364" cy="40.0" class="point"/>
  <text x="410.52631578947364" y="375" class="label" text-anchor="middle">2026-02-07</text>
  <text x="410.52631578947364" y="35.0" class="label" text-anchor="middle">52</text>
  <circle cx="414.7368421052632" cy="40.0" class="point"/>
  <text x="414.7368421052632" y="375" class="label" text-anchor="middle">2026-02-08</text>
  <text x="414.7368421052632" y="35.0" class="label" text-anchor="middle">52</text>
  <circle cx="418.9473684210526" cy="40.0" class="point"/>
  <text x="418.9473684210526" y="375" class="label" text-anchor="middle">2026-02-09</text>
  <text x="418.9473684210526" y="35.0" class="label" text-anchor="middle">52</text>
  <circle cx="423.15789473684214" cy="40.0" class="point"/>
  <text x="423.15789473684214" y="375" class="label" text-anchor="middle">2026-02-10</text>
  <text x="423.15789473684214" y="35.0" class="label" text-anchor="middle">52</text>
  <circle cx="427.36842105263156" cy="40.0" class="point"/>
  <text x="427.36842105263156" y="375" class="label" text-anchor="middle">2026-02-11</text>
  <text x="427.36842105263156" y="35.0" class="label" text-anchor="middle">52</text>
  <circle cx="431.5789473684211" cy="40.0" class="point"/>
  <text x="431.5789473684211" y="375" class="label" text-anchor="middle">2026-02-12</text>
  <text x="431.5789473684211" y="35.0" class="label" text-anchor="middle">52</text>
  <circle cx="435.7894736842105" cy="40.0" class="point"/>
  <text x="435.7894736842105" y="375" class="label" text-anchor="middle">2026-02-13</text>
  <text x="435.7894736842105" y="35.0" class="label" text-anchor="middle">52</text>
  <circle cx="440.0" cy="40.0" class="point"/>
  <text x="440.0" y="375" class="label" text-anchor="middle">2026-02-14</text>
  <text x="440.0" y="35.0" class="label" text-anchor="middle">52</text>
  <circle cx="444.2105263157895" cy="40.0" class="point"/>
  <text x="444.2105263157895" y="375" class="label" text-anchor="middle">2026-02-15</text>
  <text x="444.2105263157895" y="35.0" class="label" text-anchor="middle">52</text>
  <circle cx="448.42105263157896" cy="40.0" class="point"/>
  <text x="448.42105263157896" y="375" class="label" text-anchor="middle">2026-02-16</text>
  <text x="448.42105263157896" y="35.0" class="label" text-anchor="middle">52</text>
  <circle cx="452.6315789473684" cy="40.0" class="point"/>
  <text x="452.6315789473684" y="375" class="label" text-anchor="middle">2026-02-17</text>
  <text x="452.6315789473684" y="35.0" class="label" text-anchor="middle">52</text>
  <circle cx="456.8421052631579" cy="40.0" class="point"/>
  <text x="456.8421052631579" y="375" class="label" text-anchor="middle">2026-02-18</text>
  <text x="456.8421052631579" y="35.0" class="label" text-anchor="middle">52</text>
  <circle cx="461.05263157894734" cy="40.0" class="point"/>
  <text x="461.05263157894734" y="375" class="label" text-anchor="middle">2026-02-19</text>
  <text x="461.05263157894734" y="35.0" class="label" text-anchor="middle">52</text>
  <circle cx="465.2631578947369" cy="40.0" class="point"/>
  <text x="465.2631578947369" y="375" class="label" text-anchor="middle">2026-02-20</text>
  <text x="465.2631578947369" y="35.0" class="label" text-anchor="middle">52</text>
  <circle cx="469.4736842105263" cy="40.0" class="point"/>
  <text x="469.4736842105263" y="375" class="label" text-anchor="middle">2026-02-21</text>
  <text x="469.4736842105263" y="35.0" class="label" text-anchor="middle">52</text>
  <circle cx="473.6842105263158" cy="40.0" class="point"/>
  <text x="473.6842105263158" y="375" class="label" text-anchor="middle">2026-02-22</text>
  <text x="473.6842105263158" y="35.0" class="label" text-anchor="middle">52</text>
  <circle cx="477.89473684210526" cy="40.0" class="point"/>
  <text x="477.89473684210526" y="375" class="label" text-anchor="middle">2026-02-23</text>
  <text x="477.89473684210526" y="35.0" class="label" text-anchor="middle">52</text>
  <circle cx="482.10526315789474" cy="40.0" class="point"/>
  <text x="482.10526315789474" y="375" class="label" text-anchor="middle">2026-02-24</text>
  <text x="482.10526315789474" y="35.0" class="label" text-anchor="middle">52</text>
  <circle cx="486.31578947368416" cy="40.0" class="point"/>
  <text x="486.31578947368416" y="375" class="label" text-anchor="middle">2026-02-25</text>
  <text x="486.31578947368416" y="35.0" class="label" text-anchor="middle">52</text>
  <circle cx="490.5263157894737" cy="40.0" class="point"/>
  <text x="490.5263157894737" y="375" class="label" text-anchor="middle">2026-02-26</text>
  <text x="490.5263157894737" y="35.0" class="label" text-anchor="middle">52</text>
  <circle cx="494.7368421052631" cy="40.0" class="point"/>
  <text x="494.7368421052631" y="375" class="label" text-anchor="middle">2026-02-27</text>
  <text x="494.7368421052631" y="35.0" class="label" text-anchor="middle">52</text>
  <circle cx="498.94736842105266" cy="40.0" class="point"/>
  <text x="498.94736842105266" y="375" class="label" text-anchor="middle">2026-02-28</text>
  <text x="498.94736842105266" y="35.0" class="label" text-anchor="middle">52</text>
  <circle cx="503.1578947368421" cy="40.0" class="point"/>
  <text x="503.1578947368421" y="375" class="label" text-anchor="middle">2026-03-01</text>
  <text x="503.1578947368421" y="35.0" class="label" text-anchor="middle">52</text>
  <circle cx="507.3684210526316" cy="40.0" class="point"/>
  <text x="507.3684210526316" y="375" class="label" text-anchor="middle">2026-03-02</text>
  <text x="507.3684210526316" y="35.0" class="label" text-anchor="middle">52</text>
  <circle cx="511.57894736842104" cy="40.0" class="point"/>
  <text x="511.57894736842104" y="375" class="label" text-anchor="middle">2026-03-03</text>
  <text x="511.57894736842104" y="35.0" class="label" text-anchor="middle">52</text>
  <circle cx="515.7894736842105" cy="40.0" class="point"/>
  <text x="515.7894736842105" y="375" class="label" text-anchor="middle">2026-03-04</text>
  <text x="515.7894736842105" y="35.0" class="label" text-anchor="middle">52</text>
  <circle cx="520.0" cy="40.0" class="point"/>
  <text x="520.0" y="375" class="label" text-anchor="middle">2026-03-05</text>
  <text x="520.0" y="35.0" class="label" text-anchor="middle">52</text>
  <circle cx="524.2105263157895" cy="40.0" class="point"/>
  <text x="524.2105263157895" y="375" class="label" text-anchor="middle">2026-03-06</text>
  <text x="524.2105263157895" y="35.0" class="label" text-anchor="middle">52</text>
  <circle cx="528.421052631579" cy="40.0" class="point"/>
  <text x="528.421052631579" y="375" class="label" text-anchor="middle">2026-03-07</text>
  <text x="528.421052631579" y="35.0" class="label" text-anchor="middle">52</text>
  <circle cx="532.6315789473684" cy="40.0" class="point"/>
  <text x="532.6315789473684" y="375" class="label" text-anchor="middle">2026-03-08</text>
  <text x="532.6315789473684" y="35.0" class="label" text-anchor="middle">52</text>
  <circle cx="536.8421052631579" cy="40.0" class="point"/>
  <text x="536.8421052631579" y="375" class="label" text-anchor="middle">2026-03-09</text>
  <text x="536.8421052631579" y="35.0" class="label" text-anchor="middle">52</text>
  <circle cx="541.0526315789474" cy="40.0" class="point"/>
  <text x="541.0526315789474" y="375" class="label" text-anchor="middle">2026-03-10</text>
  <text x="541.0526315789474" y="35.0" class="label" text-anchor="middle">52</text>
  <circle cx="545.2631578947369" cy="40.0" class="point"/>
  <text x="545.2631578947369" y="375" class="label" text-anchor="middle">2026-03-11</text>
  <text x="545.2631578947369" y="35.0" class="label" text-anchor="middle">52</text>
  <circle cx="549.4736842105262" cy="40.0" class="point"/>
  <text x="549.4736842105262" y="375" class="label" text-anchor="middle">2026-03-12</text>
  <text x="549.4736842105262" y="35.0" class="label" text-anchor="middle">52</text>
  <circle cx="553.6842105263157" cy="40.0" class="point"/>
  <text x="553.6842105263157" y="375" class="label" text-anchor="middle">2026-03-13</text>
  <text x="553.6842105263157" y="35.0" class="label" text-anchor="middle">52</text>
  <circle cx="557.8947368421053" cy="40.0" class="point"/>
  <text x="557.8947368421053" y="375" class="label" text-anchor="middle">2026-03-14</text>
  <text x="557.8947368421053" y="35.0" class="label" text-anchor="middle">52</text>
  <circle cx="562.1052631578947" cy="40.0" class="point"/>
  <text x="562.1052631578947" y="375" class="label" text-anchor="middle">2026-03-15</text>
  <text x="562.1052631578947" y="35.0" class="label" text-anchor="middle">52</text>
  <circle cx="566.3157894736843" cy="40.0" class="point"/>
  <text x="566.3157894736843" y="375" class="label" text-anchor="middle">2026-03-16</text>
  <text x="566.3157894736843" y="35.0" class="label" text-anchor="middle">52</text>
  <circle cx="570.5263157894736" cy="40.0" class="point"/>
  <text x="570.5263157894736" y="375" class="label" text-anchor="middle">2026-03-17</text>
  <text x="570.5263157894736" y="35.0" class="label" text-anchor="middle">52</text>
  <circle cx="574.7368421052631" cy="40.0" class="point"/>
  <text x="574.7368421052631" y="375" class="label" text-anchor="middle">2026-03-18</text>
  <text x="574.7368421052631" y="35.0" class="label" text-anchor="middle">52</text>
  <circle cx="578.9473684210526" cy="40.0" class="point"/>
  <text x="578.9473684210526" y="375" class="label" text-anchor="middle">2026-03-19</text>
  <text x="578.9473684210526" y="35.0" class="label" text-anchor="middle">52</text>
  <circle cx="583.1578947368421" cy="40.0" class="point"/>
  <text x="583.1578947368421" y="375" class="label" text-anchor="middle">2026-03-20</text>
  <text x="583.1578947368421" y="35.0" class="label" text-anchor="middle">52</text>
  <circle cx="587.3684210526316" cy="40.0" class="point"/>
  <text x="587.3684210526316" y="375" class="label" text-anchor="middle">2026-03-21</text>
  <text x="587.3684210526316" y="35.0" class="label" text-anchor="middle">52</text>
  <circle cx="591.578947368421" cy="40.0" class="point"/>
  <text x="591.578947368421" y="375" class="label" text-anchor="middle">2026-03-22</text>
  <text x="591.578947368421" y="35.0" class="label" text-anchor="middle">52</text>
  <circle cx="595.7894736842105" cy="40.0" class="point"/>
  <text x="595.7894736842105" y="375" class="label" text-anchor="middle">2026-03-23</text>
  <text x="595.7894736842105" y="35.0" class="label" text-anchor="middle">52</text>
  <circle cx="600.0" cy="40.0" class="point"/>
  <text x="600.0" y="375" class="label" text-anchor="middle">2026-03-24</text>
  <text x="600.0" y="35.0" class="label" text-anchor="middle">52</text>
  <circle cx="604.2105263157895" cy="40.0" class="point"/>
  <text x="604.2105263157895" y="375" class="label" text-anchor="middle">2026-03-25</text>
  <text x="604.2105263157895" y="35.0" class="label" text-anchor="middle">52</text>
  <circle cx="608.421052631579" cy="40.0" class="point"/>
  <text x="608.421052631579" y="375" class="label" text-anchor="middle">2026-03-26</text>
  <text x="608.421052631579" y="35.0" class="label" text-anchor="middle">52</text>
  <circle cx="612.6315789473684" cy="40.0" class="point"/>
  <text x="612.6315789473684" y="375" class="label" text-anchor="middle">2026-03-27</text>
  <text x="612.6315789473684" y="35.0" class="label" text-anchor="middle">52</text>
  <circle cx="616.8421052631579" cy="40.0" class="point"/>
  <text x="616.8421052631579" y="375" class="label" text-anchor="middle">2026-03-28</text>
  <text x="616.8421052631579" y="35.0" class="label" text-anchor="middle">52</text>
  <circle cx="621.0526315789473" cy="40.0" class="point"/>
  <text x="621.0526315789473" y="375" class="label" text-anchor="middle">2026-03-29</text>
  <text x="621.0526315789473" y="35.0" class="label" text-anchor="middle">52</text>
  <circle cx="625.2631578947369" cy="40.0" class="point"/>
  <text x="625.2631578947369" y="375" class="label" text-anchor="middle">2026-03-30</text>
  <text x="625.2631578947369" y="35.0" class="label" text-anchor="middle">52</text>
  <circle cx="629.4736842105262" cy="40.0" class="point"/>
  <text x="629.4736842105262" y="375" class="label" text-anchor="middle">2026-03-31</text>
  <text x="629.4736842105262" y="35.0" class="label" text-anchor="middle">52</text>
  <circle cx="633.6842105263158" cy="40.0" class="point"/>
  <text x="633.6842105263158" y="375" class="label" text-anchor="middle">2026-04-01</text>
  <text x="633.6842105263158" y="35.0" class="label" text-anchor="middle">52</text>
  <circle cx="637.8947368421052" cy="40.0" class="point"/>
  <text x="637.8947368421052" y="375" class="label" text-anchor="middle">2026-04-02</text>
  <text x="637.8947368421052" y="35.0" class="label" text-anchor="middle">52</text>
  <circle cx="642.1052631578948" cy="40.0" class="point"/>
  <text x="642.1052631578948" y="375" class="label" text-anchor="middle">2026-04-03</text>
  <text x="642.1052631578948" y="35.0" class="label" text-anchor="middle">52</text>
  <circle cx="646.3157894736842" cy="40.0" class="point"/>
  <text x="646.3157894736842" y="375" class="label" text-anchor="middle">2026-04-04</text>
  <text x="646.3157894736842" y="35.0" class="label" text-anchor="middle">52</text>
  <circle cx="650.5263157894736" cy="40.0" class="point"/>
  <text x="650.5263157894736" y="375" class="label" text-anchor="middle">2026-04-05</text>
  <text x="650.5263157894736" y="35.0" class="label" text-anchor="middle">52</text>
  <circle cx="654.7368421052631" cy="40.0" class="point"/>
  <text x="654.7368421052631" y="375" class="label" text-anchor="middle">2026-04-06</text>
  <text x="654.7368421052631" y="35.0" class="label" text-anchor="middle">52</text>
  <circle cx="658.9473684210526" cy="40.0" class="point"/>
  <text x="658.9473684210526" y="375" class="label" text-anchor="middle">2026-04-07</text>
  <text x="658.9473684210526" y="35.0" class="label" text-anchor="middle">52</text>
  <circle cx="663.1578947368421" cy="40.0" class="point"/>
  <text x="663.1578947368421" y="375" class="label" text-anchor="middle">2026-04-08</text>
  <text x="663.1578947368421" y="35.0" class="label" text-anchor="middle">52</text>
  <circle cx="667.3684210526316" cy="40.0" class="point"/>
  <text x="667.3684210526316" y="375" class="label" text-anchor="middle">2026-04-09</text>
  <text x="667.3684210526316" y="35.0" class="label" text-anchor="middle">52</text>
  <circle cx="671.578947368421" cy="40.0" class="point"/>
  <text x="671.578947368421" y="375" class="label" text-anchor="middle">2026-04-10</text>
  <text x="671.578947368421" y="35.0" class="label" text-anchor="middle">52</text>
  <circle cx="675.7894736842105" cy="40.0" class="point"/>
  <text x="675.7894736842105" y="375" class="label" text-anchor="middle">2026-04-11</text>
  <text x="675.7894736842105" y="35.0" class="label" text-anchor="middle">52</text>
  <circle cx="680.0" cy="40.0" class="point"/>
  <text x="680.0" y="375" class="label" text-anchor="middle">2026-04-12</text>
  <text x="680.0" y="35.0" class="label" text-anchor="middle">52</text>
  <circle cx="684.2105263157895" cy="40.0" class="point"/>
  <text x="684.2105263157895" y="375" class="label" text-anchor="middle">2026-04-13</text>
  <text x="684.2105263157895" y="35.0" class="label" text-anchor="middle">52</text>
  <circle cx="688.421052631579" cy="40.0" class="point"/>
  <text x="688.421052631579" y="375" class="label" text-anchor="middle">2026-04-14</text>
  <text x="688.421052631579" y="35.0" class="label" text-anchor="middle">52</text>
  <circle cx="692.6315789473684" cy="40.0" class="point"/>
  <text x="692.6315789473684" y="375" class="label" text-anchor="middle">2026-04-15</text>
  <text x="692.6315789473684" y="35.0" class="label" text-anchor="middle">52</text>
  <circle cx="696.8421052631578" cy="40.0" class="point"/>
  <text x="696.8421052631578" y="375" class="label" text-anchor="middle">2026-04-16</text>
  <text x="696.8421052631578" y="35.0" class="label" text-anchor="middle">52</text>
  <circle cx="701.0526315789474" cy="40.0" class="point"/>
  <text x="701.0526315789474" y="375" class="label" text-anchor="middle">2026-04-17</text>
  <text x="701.0526315789474" y="35.0" class="label" text-anchor="middle">52</text>
  <circle cx="705.2631578947368" cy="40.0" class="point"/>
  <text x="705.2631578947368" y="375" class="label" text-anchor="middle">2026-04-18</text>
  <text x="705.2631578947368" y="35.0" class="label" text-anchor="middle">52</text>
  <circle cx="709.4736842105264" cy="40.0" class="point"/>
  <text x="709.4736842105264" y="375" class="label" text-anchor="middle">2026-04-19</text>
  <text x="709.4736842105264" y="35.0" class="label" text-anchor="middle">52</text>
  <circle cx="713.6842105263157" cy="40.0" class="point"/>
  <text x="713.6842105263157" y="375" class="label" text-anchor="middle">2026-04-20</text>
  <text x="713.6842105263157" y="35.0" class="label" text-anchor="middle">52</text>
  <circle cx="717.8947368421053" cy="40.0" class="point"/>
  <text x="717.8947368421053" y="375" class="label" text-anchor="middle">2026-04-21</text>
  <text x="717.8947368421053" y="35.0" class="label" text-anchor="middle">52</text>
  <circle cx="722.1052631578947" cy="40.0" class="point"/>
  <text x="722.1052631578947" y="375" class="label" text-anchor="middle">2026-04-22</text>
  <text x="722.1052631578947" y="35.0" class="label" text-anchor="middle">52</text>
  <circle cx="726.3157894736842" cy="40.0" class="point"/>
  <text x="726.3157894736842" y="375" class="label" text-anchor="middle">2026-04-23</text>
  <text x="726.3157894736842" y="35.0" class="label" text-anchor="middle">52</text>
  <circle cx="730.5263157894736" cy="40.0" class="point"/>
  <text x="730.5263157894736" y="375" class="label" text-anchor="middle">2026-04-24</text>
  <text x="730.5263157894736" y="35.0" class="label" text-anchor="middle">52</text>
  <circle cx="734.7368421052631" cy="40.0" class="point"/>
  <text x="734.7368421052631" y="375" class="label" text-anchor="middle">2026-04-25</text>
  <text x="734.7368421052631" y="35.0" class="label" text-anchor="middle">52</text>
  <circle cx="738.9473684210526" cy="40.0" class="point"/>
  <text x="738.9473684210526" y="375" class="label" text-anchor="middle">2026-04-26</text>
  <text x="738.9473684210526" y="35.0" class="label" text-anchor="middle">52</text>
  <circle cx="743.1578947368421" cy="40.0" class="point"/>
  <text x="743.1578947368421" y="375" class="label" text-anchor="middle">2026-04-27</text>
  <text x="743.1578947368421" y="35.0" class="label" text-anchor="middle">52</text>
  <circle cx="747.3684210526316" cy="40.0" class="point"/>
  <text x="747.3684210526316" y="375" class="label" text-anchor="middle">2026-04-28</text>
  <text x="747.3684210526316" y="35.0" class="label" text-anchor="middle">52</text>
  <circle cx="751.578947368421" cy="40.0" class="point"/>
  <text x="751.578947368421" y="375" class="label" text-anchor="middle">2026-04-29</text>
  <text x="751.578947368421" y="35.0" class="label" text-anchor="middle">52</text>
  <circle cx="755.7894736842105" cy="40.0" class="point"/>
  <text x="755.7894736842105" y="375" class="label" text-anchor="middle">2026-04-30</text>
  <text x="755.7894736842105" y="35.0" class="label" text-anchor="middle">52</text>
  <circle cx="760.0" cy="40.0" class="point"/>
  <text x="760.0" y="375" class="label" text-anchor="middle">2026-05-01</text>
  <text x="760.0" y="35.0" class="label" text-anchor="middle">52</text>
  <text x="30" y="363.0" class="label" text-anchor="end">0</text>
  <text x="30" y="301.46153846153845" class="label" text-anchor="end">10</text>
  <text x="30" y="239.9230769230769" class="label" text-anchor="end">20</text>
  <text x="30" y="178.38461538461542" class="label" text-anchor="end">30</text>
  <text x="30" y="116.84615384615384" class="label" text-anchor="end">40</text>
  <text x="30" y="55.30769230769232" class="label" text-anchor="end">50</text>
</svg>