<svg xmlns="http://www.w3.org/2000/svg" width="800" height="400" viewBox="0 0 800 400">
  <style>
    .axis{stroke:#666;stroke-width:1}
    .line{stroke:#4a9;stroke-width:2;fill:none}
    .point{fill:#4a9;r:4}
    .label{font:10px sans-serif;fill:#aaa}
    .title{font:14px sans-serif;fill:#333}
  </style>
  <text x="400" y="20" class="title" text-anchor="middle">OPIC Field Growth Timeline</text>
  <line x1="40" y1="40" x2="40" y2="360" class="axis"/>
  <line x1="40" y1="360" x2="760" y2="360" class="axis"/>
  <path d="M 40.0,101.53846153846155 L 54.11764705882353,101.53846153846155 L 68.23529411764706,101.53846153846155 L 82.35294117647058,101.53846153846155 L 96.47058823529412,101.53846153846155 L 110.58823529411765,101.53846153846155 L 124.70588235294117,101.53846153846155 L 138.8235294117647,101.53846153846155 L 152.94117647058823,101.53846153846155 L 167.05882352941177,101.53846153846155 L 181.1764705882353,101.53846153846155 L 195.29411764705884,101.53846153846155 L 209.41176470588235,101.53846153846155 L 223.52941176470586,101.53846153846155 L 237.64705882352942,101.53846153846155 L 251.76470588235296,101.53846153846155 L 265.88235294117646,101.53846153846155 L 280.0,101.53846153846155 L 294.11764705882354,101.53846153846155 L 308.2352941176471,101.53846153846155 L 322.3529411764706,101.53846153846155 L 336.4705882352941,101.53846153846155 L 350.5882352941177,101.53846153846155 L 364.70588235294116,101.53846153846155 L 378.8235294117647,101.53846153846155 L 392.94117647058823,101.53846153846155 L 407.0588235294117,101.53846153846155 L 421.1764705882353,40.0 L 435.29411764705884,40.0 L 449.4117647058823,40.0 L 463.5294117647059,40.0 L 477.6470588235294,40.0 L 491.7647058823529,40.0 L 505.8823529411765,40.0 L 520.0,40.0 L 534.1176470588235,40.0 L 548.2352941176471,40.0 L 562.3529411764706,40.0 L 576.4705882352941,40.0 L 590.5882352941176,40.0 L 604.7058823529412,40.0 L 618.8235294117648,40.0 L 632.9411764705882,40.0 L 647.0588235294117,40.0 L 661.1764705882354,40.0 L 675.2941176470588,40.0 L 689.4117647058823,40.0 L 703.5294117647059,40.0 L 717.6470588235294,40.0 L 731.7647058823529,40.0 L 745.8823529411765,40.0 L 760.0,40.0" class="line"/>
  <circle cx="40.0" cy="101.53846153846155" class="point"/>
  <text x="40.0" y="375" class="label" text-anchor="middle">2025-11-11</text>
  <text x="40.0" y="96.53846153846155" class="label" text-anchor="middle">42</text>
  <circle cx="54.11764705882353" cy="101.53846153846155" class="point"/>
  <text x="54.11764705882353" y="375" class="label" text-anchor="middle">2025-11-12</text>
  <text x="54.11764705882353" y="96.53846153846155" class="label" text-anchor="middle">42</text>
  <circle cx="68.23529411764706" cy="101.53846153846155" class="point"/>
  <text x="68.23529411764706" y="375" class="label" text-anchor="middle">2025-11-13</text>
  <text x="68.23529411764706" y="96.53846153846155" class="label" text-anchor="middle">42</text>
  <circle cx="82.35294117647058" cy="101.53846153846155" class="point"/>
  <text x="82.35294117647058" y="375" class="label" text-anchor="middle">2025-11-14</text>
  <text x="82.35294117647058" y="96.53846153846155" class="label" text-anchor="middle">42</text>
  <circle cx="96.47058823529412" cy="101.53846153846155" class="point"/>
  <text x="96.47058823529412" y="375" class="label" text-anchor="middle">2025-11-15</text>
  <text x="96.47058823529412" y="96.53846153846155" class="label" text-anchor="middle">42</text>
  <circle cx="110.58823529411765" cy="101.53846153846155" class="point"/>
  <text x="110.58823529411765" y="375" class="label" text-anchor="middle">2025-11-16</text>
  <text x="110.58823529411765" y="96.53846153846155" class="label" text-anchor="middle">42</text>
  <circle cx="124.70588235294117" cy="101.53846153846155" class="point"/>
  <text x="124.70588235294117" y="375" class="label" text-anchor="middle">2025-11-17</text>
  <text x="124.70588235294117" y="96.53846153846155" class="label" text-anchor="middle">42</text>
  <circle cx="138.8235294117647" cy="101.53846153846155" class="point"/>
  <text x="138.8235294117647" y="375" class="label" text-anchor="middle">2025-11-18</text>
  <text x="138.8235294117647" y="96.53846153846155" class="label" text-anchor="middle">42</text>
  <circle cx="152.94117647058823" cy="101.53846153846155" class="point"/>
  <text x="152.94117647058823" y="375" class="label" text-anchor="middle">2025-11-19</text>
  <text x="152.94117647058823" y="96.53846153846155" class="label" text-anchor="middle">42</text>
  <circle cx="167.05882352941177" cy="101.53846153846155" class="point"/>
  <text x="167.05882352941177" y="375" class="label" text-anchor="middle">2025-11-20</text>
  <text x="167.05882352941177" y="96.53846153846155" class="label" text-anchor="middle">42</text>
  <circle cx="181.1764705882353" cy="101.53846153846155" class="point"/>
  <text x="181.1764705882353" y="375" class="label" text-anchor="middle">2025-11-21</text>
  <text x="181.1764705882353" y="96.53846153846155" class="label" text-anchor="middle">42</text>
  <circle cx="195.29411764705884" cy="101.53846153846155" class="point"/>
  <text x="195.29411764705884" y="375" class="label" text-anchor="middle">2025-11-22</text>
  <text x="195.29411764705884" y="96.53846153846155" class="label" text-anchor="middle">42</text>
  <circle cx="209.41176470588235" cy="101.53846153846155" class="point"/>
  <text x="209.41176470588235" y="375" class="label" text-anchor="middle">2025-11-23</text>
  <text x="209.41176470588235" y="96.53846153846155" class="label" text-anchor="middle">42</text>
  <circle cx="223.52941176470586" cy="101.53846153846155" class="point"/>
  <text x="223.52941176470586" y="375" class="label" text-anchor="middle">2025-11-24</text>
  <text x="223.52941176470586" y="96.53846153846155" class="label" text-anchor="middle">42</text>
  <circle cx="237.64705882352942" cy="101.53846153846155" class="point"/>
  <text x="237.64705882352942" y="375" class="label" text-anchor="middle">2025-11-25</text>
  <text x="237.64705882352942" y="96.53846153846155" class="label" text-anchor="middle">42</text>
  <circle cx="251.76470588235296" cy="101.53846153846155" class="point"/>
  <text x="251.76470588235296" y="375" class="label" text-anchor="middle">2025-11-26</text>
  <text x="251.76470588235296" y="96.53846153846155" class="label" text-anchor="middle">42</text>
  <circle cx="265.88235294117646" cy="101.53846153846155" class="point"/>
  <text x="265.88235294117646" y="375" class="label" text-anchor="middle">2025-11-27</text>
  <text x="265.88235294117646" y="96.53846153846155" class="label" text-anchor="middle">42</text>
  <circle cx="280.0" cy="101.53846153846155" class="point"/>
  <text x="280.0" y="375" class="label" text-anchor="middle">2025-11-28</text>
  <text x="280.0" y="96.53846153846155" class="label" text-anchor="middle">42</text>
  <circle cx="294.11764705882354" cy="101.53846153846155" class="point"/>
  <text x="294.11764705882354" y="375" class="label" text-anchor="middle">2025-11-29</text>
  <text x="294.11764705882354" y="96.53846153846155" class="label" text-anchor="middle">42</text>
  <circle cx="308.2352941176471" cy="101.53846153846155" class="point"/>
  <text x="308.2352941176471" y="375" class="label" text-anchor="middle">2025-11-30</text>
  <text x="308.2352941176471" y="96.53846153846155" class="label" text-anchor="middle">42</text>
  <circle cx="322.3529411764706" cy="101.53846153846155" class="point"/>
  <text x="322.3529411764706" y="375" class="label" text-anchor="middle">2025-12-01</text>
  <text x="322.3529411764706" y="96.53846153846155" class="label" text-anchor="middle">42</text>
  <circle cx="336.4705882352941" cy="101.53846153846155" class="point"/>
  <text x="336.4705882352941" y="375" class="label" text-anchor="middle">2025-12-02</text>
  <text x="336.4705882352941" y="96.53846153846155" class="label" text-anchor="middle">42</text>
  <circle cx="350.5882352941177" cy="101.53846153846155" class="point"/>
  <text x="350.5882352941177" y="375" class="label" text-anchor="middle">2025-12-03</text>
  <text x="350.5882352941177" y="96.53846153846155" class="label" text-anchor="middle">42</text>
  <circle cx="364.70588235294116" cy="101.53846153846155" class="point"/>
  <text x="364.70588235294116" y="375" class="label" text-anchor="middle">2025-12-04</text>
  <text x="364.70588235294116" y="96.53846153846155" class="label" text-anchor="middle">42</text>
  <circle cx="378.8235294117647" cy="101.53846153846155" class="point"/>
  <text x="378.8235294117647" y="375" class="label" text-anchor="middle">2025-12-05</text>
  <text x="378.8235294117647" y="96.53846153846155" class="label" text-anchor="middle">42</text>
  <circle cx="392.94117647058823" cy="101.53846153846155" class="point"/>
  <text x="392.94117647058823" y="375" class="label" text-anchor="middle">2025-12-06</text>
  <text x="392.94117647058823" y="96.53846153846155" class="label" text-anchor="middle">42</text>
  <circle cx="407.0588235294117" cy="101.53846153846155" class="point"/>
  <text x="407.0588235294117" y="375" class="label" text-anchor="middle">2025-12-07</text>
  <text x="407.0588235294117" y="96.53846153846155" class="label" text-anchor="middle">42</text>
  <circle cx="421.1764705882353" cy="40.0" class="point"/>
  <text x="421.1764705882353" y="375" class="label" text-anchor="middle">2025-12-08</text>
  <text x="421.1764705882353" y="35.0" class="label" text-anchor="middle">52</text>
  <circle cx="435.29411764705884" cy="40.0" class="point"/>
  <text x="435.29411764705884" y="375" class="label" text-anchor="middle">2025-12-09</text>
  <text x="435.29411764705884" y="35.0" class="label" text-anchor="middle">52</text>
  <circle cx="449.4117647058823" cy="40.0" class="point"/>
  <text x="449.4117647058823" y="375" class="label" text-anchor="middle">2025-12-10</text>
  <text x="449.4117647058823" y="35.0" class="label" text-anchor="middle">52</text>
  <circle cx="463.5294117647059" cy="40.0" class="point"/>
  <text x="463.5294117647059" y="375" class="label" text-anchor="middle">2025-12-11</text>
  <text x="463.5294117647059" y="35.0" class="label" text-anchor="middle">52</text>
  <circle cx="477.6470588235294" cy="40.0" class="point"/>
  <text x="477.6470588235294" y="375" class="label" text-anchor="middle">2025-12-12</text>
  <text x="477.6470588235294" y="35.0" class="label" text-anchor="middle">52</text>
  <circle cx="491.7647058823529" cy="40.0" class="point"/>
  <text x="491.7647058823529" y="375" class="label" text-anchor="middle">2025-12-13</text>
  <text x="491.7647058823529" y="35.0" class="label" text-anchor="middle">52</text>
  <circle cx="505.8823529411765" cy="40.0" class="point"/>
  <text x="505.8823529411765" y="375" class="label" text-anchor="middle">2025-12-14</text>
  <text x="505.8823529411765" y="35.0" class="label" text-anchor="middle">52</text>
  <circle cx="520.0" cy="40.0" class="point"/>
  <text x="520.0" y="375" class="label" text-anchor="middle">2025-12-15</text>
  <text x="520.0" y="35.0" class="label" text-anchor="middle">52</text>
  <circle cx="534.1176470588235" cy="40.0" class="point"/>
  <text x="534.1176470588235" y="375" class="label" text-anchor="middle">2025-12-16</text>
  <text x="534.1176470588235" y="35.0" class="label" text-anchor="middle">52</text>
  <circle cx="548.2352941176471" cy="40.0" class="point"/>
  <text x="548.2352941176471" y="375" class="label" text-anchor="middle">2025-12-17</text>
  <text x="548.2352941176471" y="35.0" class="label" text-anchor="middle">52</text>
  <circle cx="562.3529411764706" cy="40.0" class="point"/>
  <text x="562.3529411764706" y="375" class="label" text-anchor="middle">2025-12-18</text>
  <text x="562.3529411764706" y="35.0" class="label" text-anchor="middle">52</text>
  <circle cx="576.4705882352941" cy="40.0" class="point"/>
  <text x="576.4705882352941" y="375" class="label" text-anchor="middle">2025-12-19</text>
  <text x="576.4705882352941" y="35.0" class="label" text-anchor="middle">52</text>
  <circle cx="590.5882352941176" cy="40.0" class="point"/>
  <text x="590.5882352941176" y="375" class="label" text-anchor="middle">2025-12-20</text>
  <text x="590.5882352941176" y="35.0" class="label" text-anchor="middle">52</text>
  <circle cx="604.7058823529412" cy="40.0" class="point"/>
  <text x="604.7058823529412" y="375" class="label" text-anchor="middle">2025-12-21</text>
  <text x="604.7058823529412" y="35.0" class="label" text-anchor="middle">52</text>
  <circle cx="618.8235294117648" cy="40.0" class="point"/>
  <text x="618.8235294117648" y="375" class="label" text-anchor="middle">2025-12-22</text>
  <text x="618.8235294117648" y="35.0" class="label" text-anchor="middle">52</text>
  <circle cx="632.9411764705882" cy="40.0" class="point"/>
  <text x="632.9411764705882" y="375" class="label" text-anchor="middle">2025-12-23</text>
  <text x="632.9411764705882" y="35.0" class="label" text-anchor="middle">52</text>
  <circle cx="647.0588235294117" cy="40.0" class="point"/>
  <text x="647.0588235294117" y="375" class="label" text-anchor="middle">2025-12-24</text>
  <text x="647.0588235294117" y="35.0" class="label" text-anchor="middle">52</text>
  <circle cx="661.1764705882354" cy="40.0" class="point"/>
  <text x="661.1764705882354" y="375" class="label" text-anchor="middle">2025-12-25</text>
  <text x="661.1764705882354" y="35.0" class="label" text-anchor="middle">52</text>
  <circle cx="675.2941176470588" cy="40.0" class="point"/>
  <text x="675.2941176470588" y="375" class="label" text-anchor="middle">2025-12-26</text>
  <text x="675.2941176470588" y="35.0" class="label" text-anchor="middle">52</text>
  <circle cx="689.4117647058823" cy="40.0" class="point"/>
  <text x="689.4117647058823" y="375" class="label" text-anchor="middle">2025-12-27</text>
  <text x="689.4117647058823" y="35.0" class="label" text-anchor="middle">52</text>
  <circle cx="703.5294117647059" cy="40.0" class="point"/>
  <text x="703.5294117647059" y="375" class="label" text-anchor="middle">2025-12-28</text>
  <text x="703.5294117647059" y="35.0" class="label" text-anchor="middle">52</text>
  <circle cx="717.6470588235294" cy="40.0" class="point"/>
  <text x="717.6470588235294" y="375" class="label" text-anchor="middle">2025-12-29</text>
  <text x="717.6470588235294" y="35.0" class="label" text-anchor="middle">52</text>
  <circle cx="731.7647058823529" cy="40.0" class="point"/>
  <text x="731.7647058823529" y="375" class="label" text-anchor="middle">2025-12-30</text>
  <text x="731.7647058823529" y="35.0" class="label" text-anchor="middle">52</text>
  <circle cx="745.8823529411765" cy="40.0" class="point"/>
  <text x="745.8823529411765" y="375" class="label" text-anchor="middle">2025-12-31</text>
  <text x="745.8823529411765" y="35.0" class="label" text-anchor="middle">52</text>
  <circle cx="760.0" cy="40.0" class="point"/>
  <text x="760.0" y="375" class="label" text-anchor="middle">2026-01-01</text>
  <text x="760.0" y="35.0" class="label" text-anchor="middle">52</text>
  <text x="30" y="363.0" class="label" text-anchor="end">0</text>
  <text x="30" y="301.46153846153845" class="label" text-anchor="end">10</text>
  <text x="30" y="239.9230769230769" class="label" text-anchor="end">20</text>
  <text x="30" y="178.38461538461542" class="label" text-anchor="end">30</text>
  <text x="30" y="116.84615384615384" class="label" text-anchor="end">40</text>
  <text x="30" y="55.30769230769232" class="label" text-anchor="end">50</text>
</svg>