<svg xmlns="http://www.w3.org/2000/svg" width="800" height="400" viewBox="0 0 800 400">
  <style>
    .axis{stroke:#666;stroke-width:1}
    .line{stroke:#4a9;stroke-width:2;fill:none}
    .point{fill:#4a9;r:4}
    .label{font:10px sans-serif;fill:#aaa}
    .title{font:14px sans-serif;fill:#333}
  </style>
  <text x="400" y="20" class="title" text-anchor="middle">OPIC Field Growth Timeline</text>
  <line x1="40" y1="40" x2="40" y2="360" class="axis"/>
  <line x1="40" y1="360" x2="760" y2="360" class="axis"/>
  <path d="M 40.0,101.53846153846155 L 44.16184971098266,101.53846153846155 L 48.323699421965316,101.53846153846155 L 52.48554913294797,101.53846153846155 L 56.64739884393063,101.53846153846155 L 60.809248554913296,101.53846153846155 L 64.97109826589595,101.53846153846155 L 69.13294797687861,101.53846153846155 L 73.29479768786126,101.53846153846155 L 77.45664739884393,101.53846153846155 L 81.61849710982659,101.53846153846155 L 85.78034682080924,101.53846153846155 L 89.9421965317919,101.53846153846155 L 94.10404624277457,101.53846153846155 L 98.26589595375722,101.53846153846155 L 102.42774566473989,101.53846153846155 L 106.58959537572254,101.53846153846155 L 110.7514450867052,101.53846153846155 L 114.91329479768787,101.53846153846155 L 119.07514450867052,101.53846153846155 L 123.23699421965318,101.53846153846155 L 127.39884393063583,101.53846153846155 L 131.56069364161849,101.53846153846155 L 135.72254335260115,101.53846153846155 L 139.8843930635838,101.53846153846155 L 144.04624277456648,101.53846153846155 L 148.20809248554914,101.53846153846155 L 152.36994219653178,40.0 L 156.53179190751445,40.0 L 160.6936416184971,40.0 L 164.85549132947978,40.0 L 169.0173410404624,40.0 L 173.17919075144508,40.0 L 177.34104046242774,40.0 L 181.5028901734104,40.0 L 185.66473988439307,40.0 L 189.82658959537574,40.0 L 193.98843930635837,40.0 L 198.15028901734104,40.0 L 202.3121387283237,40.0 L 206.47398843930637,40.0 L 210.635838150289,40.0 L 214.79768786127167,40.0 L 218.95953757225433,40.0 L 223.12138728323697,40.0 L 227.28323699421964,40.0 L 231.4450867052023,40.0 L 235.60693641618496,40.0 L 239.7687861271676,40.0 L 243.9306358381503,40.0 L 248.09248554913296,40.0 L 252.25433526011562,40.0 L 256.4161849710983,40.0 L 260.5780346820809,40.0 L 264.73988439306356,40.0 L 268.9017341040462,40.0 L 273.0635838150289,40.0 L 277.22543352601156,40.0 L 281.3872832369942,40.0 L 285.5491329479769,40.0 L 289.71098265895955,40.0 L 293.8728323699422,40.0 L 298.0346820809248,40.0 L 302.1965317919075,40.0 L 306.35838150289015,40.0 L 310.5202312138728,40.0 L 314.6820809248555,40.0 L 318.84393063583815,40.0 L 323.0057803468208,40.0 L 327.1676300578035,40.0 L 331.32947976878614,40.0 L 335.4913294797688,40.0 L 339.6531791907515,40.0 L 343.81502890173414,40.0 L 347.97687861271675,40.0 L 352.1387283236994,40.0 L 356.3005780346821,40.0 L 360.46242774566474,40.0 L 364.6242774566474,40.0 L 368.78612716763007,40.0 L 372.94797687861274,40.0 L 377.10982658959534,40.0 L 381.271676300578,40.0 L 385.4335260115607,40.0 L 389.59537572254334,40.0 L 393.757225433526,40.0 L 397.91907514450867,40.0 L 402.08092485549133,40.0 L 406.24277456647394,40.0 L 410.40462427745666,40.0 L 414.56647398843927,40.0 L 418.728323699422,40.0 L 422.8901734104046,40.0 L 427.05202312138726,40.0 L 431.21387283236993,40.0 L 435.3757225433526,40.0 L 439.5375722543352,40.0 L 443.6994219653179,40.0 L 447.8612716763006,40.0 L 452.02312138728325,40.0 L 456.1849710982659,40.0 L 460.3468208092485,40.0 L 464.50867052023125,40.0 L 468.67052023121386,40.0 L 472.8323699421966,40.0 L 476.9942196531792,40.0 L 481.15606936416185,40.0 L 485.31791907514446,40.0 L 489.4797687861272,40.0 L 493.6416184971098,40.0 L 497.8034682080925,40.0 L 501.9653179190751,40.0 L 506.1271676300578,40.0 L 510.28901734104045,40.0 L 514.4508670520231,40.0 L 518.6127167630057,40.0 L 522.7745664739884,40.0 L 526.9364161849711,40.0 L 531.0982658959538,40.0 L 535.2601156069364,40.0 L 539.4219653179191,40.0 L 543.5838150289018,40.0 L 547.7456647398844,40.0 L 551.9075144508671,40.0 L 556.0693641618496,40.0 L 560.2312138728324,40.0 L 564.393063583815,40.0 L 568.5549132947978,40.0 L 572.7167630057803,40.0 L 576.878612716763,40.0 L 581.0404624277456,40.0 L 585.2023121387283,40.0 L 589.364161849711,40.0 L 593.5260115606936,40.0 L 597.6878612716763,40.0 L 601.849710982659,40.0 L 606.0115606936416,40.0 L 610.1734104046243,40.0 L 614.335260115607,40.0 L 618.4971098265896,40.0 L 622.6589595375723,40.0 L 626.820809248555,40.0 L 630.9826589595376,40.0 L 635.1445086705202,40.0 L 639.306358381503,40.0 L 643.4682080924855,40.0 L 647.6300578034683,40.0 L 651.7919075144508,40.0 L 655.9537572254335,40.0 L 660.1156069364162,40.0 L 664.2774566473988,40.0 L 668.4393063583815,40.0 L 672.6011560693642,40.0 L 676.7630057803468,40.0 L 680.9248554913295,40.0 L 685.0867052023121,40.0 L 689.2485549132948,40.0 L 693.4104046242775,40.0 L 697.5722543352601,40.0 L 701.7341040462428,40.0 L 705.8959537572255,40.0 L 710.0578034682081,40.0 L 714.2196531791907,40.0 L 718.3815028901735,40.0 L 722.543352601156,40.0 L 726.7052023121388,40.0 L 730.8670520231213,40.0 L 735.028901734104,40.0 L 739.1907514450867,40.0 L 743.3526011560693,40.0 L 747.514450867052,40.0 L 751.6763005780347,40.0 L 755.8381502890173,40.0 L 760.0,40.0" class="line"/>
  <circle cx="40.0" cy="101.53846153846155" class="point"/>
  <text x="40.0" y="375" class="label" text-anchor="middle">2025-11-11</text>
  <text x="40.0" y="96.53846153846155" class="label" text-anchor="middle">42</text>
  <circle cx="44.16184971098266" cy="101.53846153846155" class="point"/>
  <text x="44.16184971098266" y="375" class="label" text-anchor="middle">2025-11-12</text>
  <text x="44.16184971098266" y="96.53846153846155" class="label" text-anchor="middle">42</text>
  <circle cx="48.323699421965316" cy="101.53846153846155" class="point"/>
  <text x="48.323699421965316" y="375" class="label" text-anchor="middle">2025-11-13</text>
  <text x="48.323699421965316" y="96.53846153846155" class="label" text-anchor="middle">42</text>
  <circle cx="52.48554913294797" cy="101.53846153846155" class="point"/>
  <text x="52.48554913294797" y="375" class="label" text-anchor="middle">2025-11-14</text>
  <text x="52.48554913294797" y="96.53846153846155" class="label" text-anchor="middle">42</text>
  <circle cx="56.64739884393063" cy="101.53846153846155" class="point"/>
  <text x="56.64739884393063" y="375" class="label" text-anchor="middle">2025-11-15</text>
  <text x="56.64739884393063" y="96.53846153846155" class="label" text-anchor="middle">42</text>
  <circle cx="60.809248554913296" cy="101.53846153846155" class="point"/>
  <text x="60.809248554913296" y="375" class="label" text-anchor="middle">2025-11-16</text>
  <text x="60.809248554913296" y="96.53846153846155" class="label" text-anchor="middle">42</text>
  <circle cx="64.97109826589595" cy="101.53846153846155" class="point"/>
  <text x="64.97109826589595" y="375" class="label" text-anchor="middle">2025-11-17</text>
  <text x="64.97109826589595" y="96.53846153846155" class="label" text-anchor="middle">42</text>
  <circle cx="69.13294797687861" cy="101.53846153846155" class="point"/>
  <text x="69.13294797687861" y="375" class="label" text-anchor="middle">2025-11-18</text>
  <text x="69.13294797687861" y="96.53846153846155" class="label" text-anchor="middle">42</text>
  <circle cx="73.29479768786126" cy="101.53846153846155" class="point"/>
  <text x="73.29479768786126" y="375" class="label" text-anchor="middle">2025-11-19</text>
  <text x="73.29479768786126" y="96.53846153846155" class="label" text-anchor="middle">42</text>
  <circle cx="77.45664739884393" cy="101.53846153846155" class="point"/>
  <text x="77.45664739884393" y="375" class="label" text-anchor="middle">2025-11-20</text>
  <text x="77.45664739884393" y="96.53846153846155" class="label" text-anchor="middle">42</text>
  <circle cx="81.61849710982659" cy="101.53846153846155" class="point"/>
  <text x="81.61849710982659" y="375" class="label" text-anchor="middle">2025-11-21</text>
  <text x="81.61849710982659" y="96.53846153846155" class="label" text-anchor="middle">42</text>
  <circle cx="85.78034682080924" cy="101.53846153846155" class="point"/>
  <text x="85.78034682080924" y="375" class="label" text-anchor="middle">2025-11-22</text>
  <text x="85.78034682080924" y="96.53846153846155" class="label" text-anchor="middle">42</text>
  <circle cx="89.9421965317919" cy="101.53846153846155" class="point"/>
  <text x="89.9421965317919" y="375" class="label" text-anchor="middle">2025-11-23</text>
  <text x="89.9421965317919" y="96.53846153846155" class="label" text-anchor="middle">42</text>
  <circle cx="94.10404624277457" cy="101.53846153846155" class="point"/>
  <text x="94.10404624277457" y="375" class="label" text-anchor="middle">2025-11-24</text>
  <text x="94.10404624277457" y="96.53846153846155" class="label" text-anchor="middle">42</text>
  <circle cx="98.26589595375722" cy="101.53846153846155" class="point"/>
  <text x="98.26589595375722" y="375" class="label" text-anchor="middle">2025-11-25</text>
  <text x="98.26589595375722" y="96.53846153846155" class="label" text-anchor="middle">42</text>
  <circle cx="102.42774566473989" cy="101.53846153846155" class="point"/>
  <text x="102.42774566473989" y="375" class="label" text-anchor="middle">2025-11-26</text>
  <text x="102.42774566473989" y="96.53846153846155" class="label" text-anchor="middle">42</text>
  <circle cx="106.58959537572254" cy="101.53846153846155" class="point"/>
  <text x="106.58959537572254" y="375" class="label" text-anchor="middle">2025-11-27</text>
  <text x="106.58959537572254" y="96.53846153846155" class="label" text-anchor="middle">42</text>
  <circle cx="110.7514450867052" cy="101.53846153846155" class="point"/>
  <text x="110.7514450867052" y="375" class="label" text-anchor="middle">2025-11-28</text>
  <text x="110.7514450867052" y="96.53846153846155" class="label" text-anchor="middle">42</text>
  <circle cx="114.91329479768787" cy="101.53846153846155" class="point"/>
  <text x="114.91329479768787" y="375" class="label" text-anchor="middle">2025-11-29</text>
  <text x="114.91329479768787" y="96.53846153846155" class="label" text-anchor="middle">42</text>
  <circle cx="119.07514450867052" cy="101.53846153846155" class="point"/>
  <text x="119.07514450867052" y="375" class="label" text-anchor="middle">2025-11-30</text>
  <text x="119.07514450867052" y="96.53846153846155" class="label" text-anchor="middle">42</text>
  <circle cx="123.23699421965318" cy="101.53846153846155" class="point"/>
  <text x="123.23699421965318" y="375" class="label" text-anchor="middle">2025-12-01</text>
  <text x="123.23699421965318" y="96.53846153846155" class="label" text-anchor="middle">42</text>
  <circle cx="127.39884393063583" cy="101.53846153846155" class="point"/>
  <text x="127.39884393063583" y="375" class="label" text-anchor="middle">2025-12-02</text>
  <text x="127.39884393063583" y="96.53846153846155" class="label" text-anchor="middle">42</text>
  <circle cx="131.56069364161849" cy="101.53846153846155" class="point"/>
  <text x="131.56069364161849" y="375" class="label" text-anchor="middle">2025-12-03</text>
  <text x="131.56069364161849" y="96.53846153846155" class="label" text-anchor="middle">42</text>
  <circle cx="135.72254335260115" cy="101.53846153846155" class="point"/>
  <text x="135.72254335260115" y="375" class="label" text-anchor="middle">2025-12-04</text>
  <text x="135.72254335260115" y="96.53846153846155" class="label" text-anchor="middle">42</text>
  <circle cx="139.8843930635838" cy="101.53846153846155" class="point"/>
  <text x="139.8843930635838" y="375" class="label" text-anchor="middle">2025-12-05</text>
  <text x="139.8843930635838" y="96.53846153846155" class="label" text-anchor="middle">42</text>
  <circle cx="144.04624277456648" cy="101.53846153846155" class="point"/>
  <text x="144.04624277456648" y="375" class="label" text-anchor="middle">2025-12-06</text>
  <text x="144.04624277456648" y="96.53846153846155" class="label" text-anchor="middle">42</text>
  <circle cx="148.20809248554914" cy="101.53846153846155" class="point"/>
  <text x="148.20809248554914" y="375" class="label" text-anchor="middle">2025-12-07</text>
  <text x="148.20809248554914" y="96.53846153846155" class="label" text-anchor="middle">42</text>
  <circle cx="152.36994219653178" cy="40.0" class="point"/>
  <text x="152.36994219653178" y="375" class="label" text-anchor="middle">2025-12-08</text>
  <text x="152.36994219653178" y="35.0" class="label" text-anchor="middle">52</text>
  <circle cx="156.53179190751445" cy="40.0" class="point"/>
  <text x="156.53179190751445" y="375" class="label" text-anchor="middle">2025-12-09</text>
  <text x="156.53179190751445" y="35.0" class="label" text-anchor="middle">52</text>
  <circle cx="160.6936416184971" cy="40.0" class="point"/>
  <text x="160.6936416184971" y="375" class="label" text-anchor="middle">2025-12-10</text>
  <text x="160.6936416184971" y="35.0" class="label" text-anchor="middle">52</text>
  <circle cx="164.85549132947978" cy="40.0" class="point"/>
  <text x="164.85549132947978" y="375" class="label" text-anchor="middle">2025-12-11</text>
  <text x="164.85549132947978" y="35.0" class="label" text-anchor="middle">52</text>
  <circle cx="169.0173410404624" cy="40.0" class="point"/>
  <text x="169.0173410404624" y="375" class="label" text-anchor="middle">2025-12-12</text>
  <text x="169.0173410404624" y="35.0" class="label" text-anchor="middle">52</text>
  <circle cx="173.17919075144508" cy="40.0" class="point"/>
  <text x="173.17919075144508" y="375" class="label" text-anchor="middle">2025-12-13</text>
  <text x="173.17919075144508" y="35.0" class="label" text-anchor="middle">52</text>
  <circle cx="177.34104046242774" cy="40.0" class="point"/>
  <text x="177.34104046242774" y="375" class="label" text-anchor="middle">2025-12-14</text>
  <text x="177.34104046242774" y="35.0" class="label" text-anchor="middle">52</text>
  <circle cx="181.5028901734104" cy="40.0" class="point"/>
  <text x="181.5028901734104" y="375" class="label" text-anchor="middle">2025-12-15</text>
  <text x="181.5028901734104" y="35.0" class="label" text-anchor="middle">52</text>
  <circle cx="185.66473988439307" cy="40.0" class="point"/>
  <text x="185.66473988439307" y="375" class="label" text-anchor="middle">2025-12-16</text>
  <text x="185.66473988439307" y="35.0" class="label" text-anchor="middle">52</text>
  <circle cx="189.82658959537574" cy="40.0" class="point"/>
  <text x="189.82658959537574" y="375" class="label" text-anchor="middle">2025-12-17</text>
  <text x="189.82658959537574" y="35.0" class="label" text-anchor="middle">52</text>
  <circle cx="193.98843930635837" cy="40.0" class="point"/>
  <text x="193.98843930635837" y="375" class="label" text-anchor="middle">2025-12-18</text>
  <text x="193.98843930635837" y="35.0" class="label" text-anchor="middle">52</text>
  <circle cx="198.15028901734104" cy="40.0" class="point"/>
  <text x="198.15028901734104" y="375" class="label" text-anchor="middle">2025-12-19</text>
  <text x="198.15028901734104" y="35.0" class="label" text-anchor="middle">52</text>
  <circle cx="202.3121387283237" cy="40.0" class="point"/>
  <text x="202.3121387283237" y="375" class="label" text-anchor="middle">2025-12-20</text>
  <text x="202.3121387283237" y="35.0" class="label" text-anchor="middle">52</text>
  <circle cx="206.47398843930637" cy="40.0" class="point"/>
  <text x="206.47398843930637" y="375" class="label" text-anchor="middle">2025-12-21</text>
  <text x="206.47398843930637" y="35.0" class="label" text-anchor="middle">52</text>
  <circle cx="210.635838150289" cy="40.0" class="point"/>
  <text x="210.635838150289" y="375" class="label" text-anchor="middle">2025-12-22</text>
  <text x="210.635838150289" y="35.0" class="label" text-anchor="middle">52</text>
  <circle cx="214.79768786127167" cy="40.0" class="point"/>
  <text x="214.79768786127167" y="375" class="label" text-anchor="middle">2025-12-23</text>
  <text x="214.79768786127167" y="35.0" class="label" text-anchor="middle">52</text>
  <circle cx="218.95953757225433" cy="40.0" class="point"/>
  <text x="218.95953757225433" y="375" class="label" text-anchor="middle">2025-12-24</text>
  <text x="218.95953757225433" y="35.0" class="label" text-anchor="middle">52</text>
  <circle cx="223.12138728323697" cy="40.0" class="point"/>
  <text x="223.12138728323697" y="375" class="label" text-anchor="middle">2025-12-25</text>
  <text x="223.12138728323697" y="35.0" class="label" text-anchor="middle">52</text>
  <circle cx="227.28323699421964" cy="40.0" class="point"/>
  <text x="227.28323699421964" y="375" class="label" text-anchor="middle">2025-12-26</text>
  <text x="227.28323699421964" y="35.0" class="label" text-anchor="middle">52</text>
  <circle cx="231.4450867052023" cy="40.0" class="point"/>
  <text x="231.4450867052023" y="375" class="label" text-anchor="middle">2025-12-27</text>
  <text x="231.4450867052023" y="35.0" class="label" text-anchor="middle">52</text>
  <circle cx="235.60693641618496" cy="40.0" class="point"/>
  <text x="235.60693641618496" y="375" class="label" text-anchor="middle">2025-12-28</text>
  <text x="235.60693641618496" y="35.0" class="label" text-anchor="middle">52</text>
  <circle cx="239.7687861271676" cy="40.0" class="point"/>
  <text x="239.7687861271676" y="375" class="label" text-anchor="middle">2025-12-29</text>
  <text x="239.7687861271676" y="35.0" class="label" text-anchor="middle">52</text>
  <circle cx="243.9306358381503" cy="40.0" class="point"/>
  <text x="243.9306358381503" y="375" class="label" text-anchor="middle">2025-12-30</text>
  <text x="243.9306358381503" y="35.0" class="label" text-anchor="middle">52</text>
  <circle cx="248.09248554913296" cy="40.0" class="point"/>
  <text x="248.09248554913296" y="375" class="label" text-anchor="middle">2025-12-31</text>
  <text x="248.09248554913296" y="35.0" class="label" text-anchor="middle">52</text>
  <circle cx="252.25433526011562" cy="40.0" class="point"/>
  <text x="252.25433526011562" y="375" class="label" text-anchor="middle">2026-01-01</text>
  <text x="252.25433526011562" y="35.0" class="label" text-anchor="middle">52</text>
  <circle cx="256.4161849710983" cy="40.0" class="point"/>
  <text x="256.4161849710983" y="375" class="label" text-anchor="middle">2026-01-02</text>
  <text x="256.4161849710983" y="35.0" class="label" text-anchor="middle">52</text>
  <circle cx="260.5780346820809" cy="40.0" class="point"/>
  <text x="260.5780346820809" y="375" class="label" text-anchor="middle">2026-01-03</text>
  <text x="260.5780346820809" y="35.0" class="label" text-anchor="middle">52</text>
  <circle cx="264.73988439306356" cy="40.0" class="point"/>
  <text x="264.73988439306356" y="375" class="label" text-anchor="middle">2026-01-04</text>
  <text x="264.73988439306356" y="35.0" class="label" text-anchor="middle">52</text>
  <circle cx="268.9017341040462" cy="40.0" class="point"/>
  <text x="268.9017341040462" y="375" class="label" text-anchor="middle">2026-01-05</text>
  <text x="268.9017341040462" y="35.0" class="label" text-anchor="middle">52</text>
  <circle cx="273.0635838150289" cy="40.0" class="point"/>
  <text x="273.0635838150289" y="375" class="label" text-anchor="middle">2026-01-06</text>
  <text x="273.0635838150289" y="35.0" class="label" text-anchor="middle">52</text>
  <circle cx="277.22543352601156" cy="40.0" class="point"/>
  <text x="277.22543352601156" y="375" class="label" text-anchor="middle">2026-01-07</text>
  <text x="277.22543352601156" y="35.0" class="label" text-anchor="middle">52</text>
  <circle cx="281.3872832369942" cy="40.0" class="point"/>
  <text x="281.3872832369942" y="375" class="label" text-anchor="middle">2026-01-08</text>
  <text x="281.3872832369942" y="35.0" class="label" text-anchor="middle">52</text>
  <circle cx="285.5491329479769" cy="40.0" class="point"/>
  <text x="285.5491329479769" y="375" class="label" text-anchor="middle">2026-01-09</text>
  <text x="285.5491329479769" y="35.0" class="label" text-anchor="middle">52</text>
  <circle cx="289.71098265895955" cy="40.0" class="point"/>
  <text x="289.71098265895955" y="375" class="label" text-anchor="middle">2026-01-10</text>
  <text x="289.71098265895955" y="35.0" class="label" text-anchor="middle">52</text>
  <circle cx="293.8728323699422" cy="40.0" class="point"/>
  <text x="293.8728323699422" y="375" class="label" text-anchor="middle">2026-01-11</text>
  <text x="293.8728323699422" y="35.0" class="label" text-anchor="middle">52</text>
  <circle cx="298.0346820809248" cy="40.0" class="point"/>
  <text x="298.0346820809248" y="375" class="label" text-anchor="middle">2026-01-12</text>
  <text x="298.0346820809248" y="35.0" class="label" text-anchor="middle">52</text>
  <circle cx="302.1965317919075" cy="40.0" class="point"/>
  <text x="302.1965317919075" y="375" class="label" text-anchor="middle">2026-01-13</text>
  <text x="302.1965317919075" y="35.0" class="label" text-anchor="middle">52</text>
  <circle cx="306.35838150289015" cy="40.0" class="point"/>
  <text x="306.35838150289015" y="375" class="label" text-anchor="middle">2026-01-14</text>
  <text x="306.35838150289015" y="35.0" class="label" text-anchor="middle">52</text>
  <circle cx="310.5202312138728" cy="40.0" class="point"/>
  <text x="310.5202312138728" y="375" class="label" text-anchor="middle">2026-01-15</text>
  <text x="310.5202312138728" y="35.0" class="label" text-anchor="middle">52</text>
  <circle cx="314.6820809248555" cy="40.0" class="point"/>
  <text x="314.6820809248555" y="375" class="label" text-anchor="middle">2026-01-16</text>
  <text x="314.6820809248555" y="35.0" class="label" text-anchor="middle">52</text>
  <circle cx="318.84393063583815" cy="40.0" class="point"/>
  <text x="318.84393063583815" y="375" class="label" text-anchor="middle">2026-01-17</text>
  <text x="318.84393063583815" y="35.0" class="label" text-anchor="middle">52</text>
  <circle cx="323.0057803468208" cy="40.0" class="point"/>
  <text x="323.0057803468208" y="375" class="label" text-anchor="middle">2026-01-18</text>
  <text x="323.0057803468208" y="35.0" class="label" text-anchor="middle">52</text>
  <circle cx="327.1676300578035" cy="40.0" class="point"/>
  <text x="327.1676300578035" y="375" class="label" text-anchor="middle">2026-01-19</text>
  <text x="327.1676300578035" y="35.0" class="label" text-anchor="middle">52</text>
  <circle cx="331.32947976878614" cy="40.0" class="point"/>
  <text x="331.32947976878614" y="375" class="label" text-anchor="middle">2026-01-20</text>
  <text x="331.32947976878614" y="35.0" class="label" text-anchor="middle">52</text>
  <circle cx="335.4913294797688" cy="40.0" class="point"/>
  <text x="335.4913294797688" y="375" class="label" text-anchor="middle">2026-01-21</text>
  <text x="335.4913294797688" y="35.0" class="label" text-anchor="middle">52</text>
  <circle cx="339.6531791907515" cy="40.0" class="point"/>
  <text x="339.6531791907515" y="375" class="label" text-anchor="middle">2026-01-22</text>
  <text x="339.6531791907515" y="35.0" class="label" text-anchor="middle">52</text>
  <circle cx="343.81502890173414" cy="40.0" class="point"/>
  <text x="343.81502890173414" y="375" class="label" text-anchor="middle">2026-01-23</text>
  <text x="343.81502890173414" y="35.0" class="label" text-anchor="middle">52</text>
  <circle cx="347.97687861271675" cy="40.0" class="point"/>
  <text x="347.97687861271675" y="375" class="label" text-anchor="middle">2026-01-24</text>
  <text x="347.97687861271675" y="35.0" class="label" text-anchor="middle">52</text>
  <circle cx="352.1387283236994" cy="40.0" class="point"/>
  <text x="352.1387283236994" y="375" class="label" text-anchor="middle">2026-01-25</text>
  <text x="352.1387283236994" y="35.0" class="label" text-anchor="middle">52</text>
  <circle cx="356.3005780346821" cy="40.0" class="point"/>
  <text x="356.3005780346821" y="375" class="label" text-anchor="middle">2026-01-26</text>
  <text x="356.3005780346821" y="35.0" class="label" text-anchor="middle">52</text>
  <circle cx="360.46242774566474" cy="40.0" class="point"/>
  <text x="360.46242774566474" y="375" class="label" text-anchor="middle">2026-01-27</text>
  <text x="360.46242774566474" y="35.0" class="label" text-anchor="middle">52</text>
  <circle cx="364.6242774566474" cy="40.0" class="point"/>
  <text x="364.6242774566474" y="375" class="label" text-anchor="middle">2026-01-28</text>
  <text x="364.6242774566474" y="35.0" class="label" text-anchor="middle">52</text>
  <circle cx="368.78612716763007" cy="40.0" class="point"/>
  <text x="368.78612716763007" y="375" class="label" text-anchor="middle">2026-01-29</text>
  <text x="368.78612716763007" y="35.0" class="label" text-anchor="middle">52</text>
  <circle cx="372.94797687861274" cy="40.0" class="point"/>
  <text x="372.94797687861274" y="375" class="label" text-anchor="middle">2026-01-30</text>
  <text x="372.94797687861274" y="35.0" class="label" text-anchor="middle">52</text>
  <circle cx="377.10982658959534" cy="40.0" class="point"/>
  <text x="377.10982658959534" y="375" class="label" text-anchor="middle">2026-01-31</text>
  <text x="377.10982658959534" y="35.0" class="label" text-anchor="middle">52</text>
  <circle cx="381.271676300578" cy="40.0" class="point"/>
  <text x="381.271676300578" y="375" class="label" text-anchor="middle">2026-02-01</text>
  <text x="381.271676300578" y="35.0" class="label" text-anchor="middle">52</text>
  <circle cx="385.4335260115607" cy="40.0" class="point"/>
  <text x="385.4335260115607" y="375" class="label" text-anchor="middle">2026-02-02</text>
  <text x="385.4335260115607" y="35.0" class="label" text-anchor="middle">52</text>
  <circle cx="389.59537572254334" cy="40.0" class="point"/>
  <text x="389.59537572254334" y="375" class="label" text-anchor="middle">2026-02-03</text>
  <text x="389.59537572254334" y="35.0" class="label" text-anchor="middle">52</text>
  <circle cx="393.757225433526" cy="40.0" class="point"/>
  <text x="393.757225433526" y="375" class="label" text-anchor="middle">2026-02-04</text>
  <text x="393.757225433526" y="35.0" class="label" text-anchor="middle">52</text>
  <circle cx="397.91907514450867" cy="40.0" class="point"/>
  <text x="397.91907514450867" y="375" class="label" text-anchor="middle">2026-02-05</text>
  <text x="397.91907514450867" y="35.0" class="label" text-anchor="middle">52</text>
  <circle cx="402.08092485549133" cy="40.0" class="point"/>
  <text x="402.08092485549133" y="375" class="label" text-anchor="middle">2026-02-06</text>
  <text x="402.08092485549133" y="35.0" class="label" text-anchor="middle">52</text>
  <circle cx="406.24277456647394" cy="40.0" class="point"/>
  <text x="406.24277456647394" y="375" class="label" text-anchor="middle">2026-02-07</text>
  <text x="406.24277456647394" y="35.0" class="label" text-anchor="middle">52</text>
  <circle cx="410.40462427745666" cy="40.0" class="point"/>
  <text x="410.40462427745666" y="375" class="label" text-anchor="middle">2026-02-08</text>
  <text x="410.40462427745666" y="35.0" class="label" text-anchor="middle">52</text>
  <circle cx="414.56647398843927" cy="40.0" class="point"/>
  <text x="414.56647398843927" y="375" class="label" text-anchor="middle">2026-02-09</text>
  <text x="414.56647398843927" y="35.0" class="label" text-anchor="middle">52</text>
  <circle cx="418.728323699422" cy="40.0" class="point"/>
  <text x="418.728323699422" y="375" class="label" text-anchor="middle">2026-02-10</text>
  <text x="418.728323699422" y="35.0" class="label" text-anchor="middle">52</text>
  <circle cx="422.8901734104046" cy="40.0" class="point"/>
  <text x="422.8901734104046" y="375" class="label" text-anchor="middle">2026-02-11</text>
  <text x="422.8901734104046" y="35.0" class="label" text-anchor="middle">52</text>
  <circle cx="427.05202312138726" cy="40.0" class="point"/>
  <text x="427.05202312138726" y="375" class="label" text-anchor="middle">2026-02-12</text>
  <text x="427.05202312138726" y="35.0" class="label" text-anchor="middle">52</text>
  <circle cx="431.21387283236993" cy="40.0" class="point"/>
  <text x="431.21387283236993" y="375" class="label" text-anchor="middle">2026-02-13</text>
  <text x="431.21387283236993" y="35.0" class="label" text-anchor="middle">52</text>
  <circle cx="435.3757225433526" cy="40.0" class="point"/>
  <text x="435.3757225433526" y="375" class="label" text-anchor="middle">2026-02-14</text>
  <text x="435.3757225433526" y="35.0" class="label" text-anchor="middle">52</text>
  <circle cx="439.5375722543352" cy="40.0" class="point"/>
  <text x="439.5375722543352" y="375" class="label" text-anchor="middle">2026-02-15</text>
  <text x="439.5375722543352" y="35.0" class="label" text-anchor="middle">52</text>
  <circle cx="443.6994219653179" cy="40.0" class="point"/>
  <text x="443.6994219653179" y="375" class="label" text-anchor="middle">2026-02-16</text>
  <text x="443.6994219653179" y="35.0" class="label" text-anchor="middle">52</text>
  <circle cx="447.8612716763006" cy="40.0" class="point"/>
  <text x="447.8612716763006" y="375" class="label" text-anchor="middle">2026-02-17</text>
  <text x="447.8612716763006" y="35.0" class="label" text-anchor="middle">52</text>
  <circle cx="452.02312138728325" cy="40.0" class="point"/>
  <text x="452.02312138728325" y="375" class="label" text-anchor="middle">2026-02-18</text>
  <text x="452.02312138728325" y="35.0" class="label" text-anchor="middle">52</text>
  <circle cx="456.1849710982659" cy="40.0" class="point"/>
  <text x="456.1849710982659" y="375" class="label" text-anchor="middle">2026-02-19</text>
  <text x="456.1849710982659" y="35.0" class="label" text-anchor="middle">52</text>
  <circle cx="460.3468208092485" cy="40.0" class="point"/>
  <text x="460.3468208092485" y="375" class="label" text-anchor="middle">2026-02-20</text>
  <text x="460.3468208092485" y="35.0" class="label" text-anchor="middle">52</text>
  <circle cx="464.50867052023125" cy="40.0" class="point"/>
  <text x="464.50867052023125" y="375" class="label" text-anchor="middle">2026-02-21</text>
  <text x="464.50867052023125" y="35.0" class="label" text-anchor="middle">52</text>
  <circle cx="468.67052023121386" cy="40.0" class="point"/>
  <text x="468.67052023121386" y="375" class="label" text-anchor="middle">2026-02-22</text>
  <text x="468.67052023121386" y="35.0" class="label" text-anchor="middle">52</text>
  <circle cx="472.8323699421966" cy="40.0" class="point"/>
  <text x="472.8323699421966" y="375" class="label" text-anchor="middle">2026-02-23</text>
  <text x="472.8323699421966" y="35.0" class="label" text-anchor="middle">52</text>
  <circle cx="476.9942196531792" cy="40.0" class="point"/>
  <text x="476.9942196531792" y="375" class="label" text-anchor="middle">2026-02-24</text>
  <text x="476.9942196531792" y="35.0" class="label" text-anchor="middle">52</text>
  <circle cx="481.15606936416185" cy="40.0" class="point"/>
  <text x="481.15606936416185" y="375" class="label" text-anchor="middle">2026-02-25</text>
  <text x="481.15606936416185" y="35.0" class="label" text-anchor="middle">52</text>
  <circle cx="485.31791907514446" cy="40.0" class="point"/>
  <text x="485.31791907514446" y="375" class="label" text-anchor="middle">2026-02-26</text>
  <text x="485.31791907514446" y="35.0" class="label" text-anchor="middle">52</text>
  <circle cx="489.4797687861272" cy="40.0" class="point"/>
  <text x="489.4797687861272" y="375" class="label" text-anchor="middle">2026-02-27</text>
  <text x="489.4797687861272" y="35.0" class="label" text-anchor="middle">52</text>
  <circle cx="493.6416184971098" cy="40.0" class="point"/>
  <text x="493.6416184971098" y="375" class="label" text-anchor="middle">2026-02-28</text>
  <text x="493.6416184971098" y="35.0" class="label" text-anchor="middle">52</text>
  <circle cx="497.8034682080925" cy="40.0" class="point"/>
  <text x="497.8034682080925" y="375" class="label" text-anchor="middle">2026-03-01</text>
  <text x="497.8034682080925" y="35.0" class="label" text-anchor="middle">52</text>
  <circle cx="501.9653179190751" cy="40.0" class="point"/>
  <text x="501.9653179190751" y="375" class="label" text-anchor="middle">2026-03-02</text>
  <text x="501.9653179190751" y="35.0" class="label" text-anchor="middle">52</text>
  <circle cx="506.1271676300578" cy="40.0" class="point"/>
  <text x="506.1271676300578" y="375" class="label" text-anchor="middle">2026-03-03</text>
  <text x="506.1271676300578" y="35.0" class="label" text-anchor="middle">52</text>
  <circle cx="510.28901734104045" cy="40.0" class="point"/>
  <text x="510.28901734104045" y="375" class="label" text-anchor="middle">2026-03-04</text>
  <text x="510.28901734104045" y="35.0" class="label" text-anchor="middle">52</text>
  <circle cx="514.4508670520231" cy="40.0" class="point"/>
  <text x="514.4508670520231" y="375" class="label" text-anchor="middle">2026-03-05</text>
  <text x="514.4508670520231" y="35.0" class="label" text-anchor="middle">52</text>
  <circle cx="518.6127167630057" cy="40.0" class="point"/>
  <text x="518.6127167630057" y="375" class="label" text-anchor="middle">2026-03-06</text>
  <text x="518.6127167630057" y="35.0" class="label" text-anchor="middle">52</text>
  <circle cx="522.7745664739884" cy="40.0" class="point"/>
  <text x="522.7745664739884" y="375" class="label" text-anchor="middle">2026-03-07</text>
  <text x="522.7745664739884" y="35.0" class="label" text-anchor="middle">52</text>
  <circle cx="526.9364161849711" cy="40.0" class="point"/>
  <text x="526.9364161849711" y="375" class="label" text-anchor="middle">2026-03-08</text>
  <text x="526.9364161849711" y="35.0" class="label" text-anchor="middle">52</text>
  <circle cx="531.0982658959538" cy="40.0" class="point"/>
  <text x="531.0982658959538" y="375" class="label" text-anchor="middle">2026-03-09</text>
  <text x="531.0982658959538" y="35.0" class="label" text-anchor="middle">52</text>
  <circle cx="535.2601156069364" cy="40.0" class="point"/>
  <text x="535.2601156069364" y="375" class="label" text-anchor="middle">2026-03-10</text>
  <text x="535.2601156069364" y="35.0" class="label" text-anchor="middle">52</text>
  <circle cx="539.4219653179191" cy="40.0" class="point"/>
  <text x="539.4219653179191" y="375" class="label" text-anchor="middle">2026-03-11</text>
  <text x="539.4219653179191" y="35.0" class="label" text-anchor="middle">52</text>
  <circle cx="543.5838150289018" cy="40.0" class="point"/>
  <text x="543.5838150289018" y="375" class="label" text-anchor="middle">2026-03-12</text>
  <text x="543.5838150289018" y="35.0" class="label" text-anchor="middle">52</text>
  <circle cx="547.7456647398844" cy="40.0" class="point"/>
  <text x="547.7456647398844" y="375" class="label" text-anchor="middle">2026-03-13</text>
  <text x="547.7456647398844" y="35.0" class="label" text-anchor="middle">52</text>
  <circle cx="551.9075144508671" cy="40.0" class="point"/>
  <text x="551.9075144508671" y="375" class="label" text-anchor="middle">2026-03-14</text>
  <text x="551.9075144508671" y="35.0" class="label" text-anchor="middle">52</text>
  <circle cx="556.0693641618496" cy="40.0" class="point"/>
  <text x="556.0693641618496" y="375" class="label" text-anchor="middle">2026-03-15</text>
  <text x="556.0693641618496" y="35.0" class="label" text-anchor="middle">52</text>
  <circle cx="560.2312138728324" cy="40.0" class="point"/>
  <text x="560.2312138728324" y="375" class="label" text-anchor="middle">2026-03-16</text>
  <text x="560.2312138728324" y="35.0" class="label" text-anchor="middle">52</text>
  <circle cx="564.393063583815" cy="40.0" class="point"/>
  <text x="564.393063583815" y="375" class="label" text-anchor="middle">2026-03-17</text>
  <text x="564.393063583815" y="35.0" class="label" text-anchor="middle">52</text>
  <circle cx="568.5549132947978" cy="40.0" class="point"/>
  <text x="568.5549132947978" y="375" class="label" text-anchor="middle">2026-03-18</text>
  <text x="568.5549132947978" y="35.0" class="label" text-anchor="middle">52</text>
  <circle cx="572.7167630057803" cy="40.0" class="point"/>
  <text x="572.7167630057803" y="375" class="label" text-anchor="middle">2026-03-19</text>
  <text x="572.7167630057803" y="35.0" class="label" text-anchor="middle">52</text>
  <circle cx="576.878612716763" cy="40.0" class="point"/>
  <text x="576.878612716763" y="375" class="label" text-anchor="middle">2026-03-20</text>
  <text x="576.878612716763" y="35.0" class="label" text-anchor="middle">52</text>
  <circle cx="581.0404624277456" cy="40.0" class="point"/>
  <text x="581.0404624277456" y="375" class="label" text-anchor="middle">2026-03-21</text>
  <text x="581.0404624277456" y="35.0" class="label" text-anchor="middle">52</text>
  <circle cx="585.2023121387283" cy="40.0" class="point"/>
  <text x="585.2023121387283" y="375" class="label" text-anchor="middle">2026-03-22</text>
  <text x="585.2023121387283" y="35.0" class="label" text-anchor="middle">52</text>
  <circle cx="589.364161849711" cy="40.0" class="point"/>
  <text x="589.364161849711" y="375" class="label" text-anchor="middle">2026-03-23</text>
  <text x="589.364161849711" y="35.0" class="label" text-anchor="middle">52</text>
  <circle cx="593.5260115606936" cy="40.0" class="point"/>
  <text x="593.5260115606936" y="375" class="label" text-anchor="middle">2026-03-24</text>
  <text x="593.5260115606936" y="35.0" class="label" text-anchor="middle">52</text>
  <circle cx="597.6878612716763" cy="40.0" class="point"/>
  <text x="597.6878612716763" y="375" class="label" text-anchor="middle">2026-03-25</text>
  <text x="597.6878612716763" y="35.0" class="label" text-anchor="middle">52</text>
  <circle cx="601.849710982659" cy="40.0" class="point"/>
  <text x="601.849710982659" y="375" class="label" text-anchor="middle">2026-03-26</text>
  <text x="601.849710982659" y="35.0" class="label" text-anchor="middle">52</text>
  <circle cx="606.0115606936416" cy="40.0" class="point"/>
  <text x="606.0115606936416" y="375" class="label" text-anchor="middle">2026-03-27</text>
  <text x="606.0115606936416" y="35.0" class="label" text-anchor="middle">52</text>
  <circle cx="610.1734104046243" cy="40.0" class="point"/>
  <text x="610.1734104046243" y="375" class="label" text-anchor="middle">2026-03-28</text>
  <text x="610.1734104046243" y="35.0" class="label" text-anchor="middle">52</text>
  <circle cx="614.335260115607" cy="40.0" class="point"/>
  <text x="614.335260115607" y="375" class="label" text-anchor="middle">2026-03-29</text>
  <text x="614.335260115607" y="35.0" class="label" text-anchor="middle">52</text>
  <circle cx="618.4971098265896" cy="40.0" class="point"/>
  <text x="618.4971098265896" y="375" class="label" text-anchor="middle">2026-03-30</text>
  <text x="618.4971098265896" y="35.0" class="label" text-anchor="middle">52</text>
  <circle cx="622.6589595375723" cy="40.0" class="point"/>
  <text x="622.6589595375723" y="375" class="label" text-anchor="middle">2026-03-31</text>
  <text x="622.6589595375723" y="35.0" class="label" text-anchor="middle">52</text>
  <circle cx="626.820809248555" cy="40.0" class="point"/>
  <text x="626.820809248555" y="375" class="label" text-anchor="middle">2026-04-01</text>
  <text x="626.820809248555" y="35.0" class="label" text-anchor="middle">52</text>
  <circle cx="630.9826589595376" cy="40.0" class="point"/>
  <text x="630.9826589595376" y="375" class="label" text-anchor="middle">2026-04-02</text>
  <text x="630.9826589595376" y="35.0" class="label" text-anchor="middle">52</text>
  <circle cx="635.1445086705202" cy="40.0" class="point"/>
  <text x="635.1445086705202" y="375" class="label" text-anchor="middle">2026-04-03</text>
  <text x="635.1445086705202" y="35.0" class="label" text-anchor="middle">52</text>
  <circle cx="639.306358381503" cy="40.0" class="point"/>
  <text x="639.306358381503" y="375" class="label" text-anchor="middle">2026-04-04</text>
  <text x="639.306358381503" y="35.0" class="label" text-anchor="middle">52</text>
  <circle cx="643.4682080924855" cy="40.0" class="point"/>
  <text x="643.4682080924855" y="375" class="label" text-anchor="middle">2026-04-05</text>
  <text x="643.4682080924855" y="35.0" class="label" text-anchor="middle">52</text>
  <circle cx="647.6300578034683" cy="40.0" class="point"/>
  <text x="647.6300578034683" y="375" class="label" text-anchor="middle">2026-04-06</text>
  <text x="647.6300578034683" y="35.0" class="label" text-anchor="middle">52</text>
  <circle cx="651.7919075144508" cy="40.0" class="point"/>
  <text x="651.7919075144508" y="375" class="label" text-anchor="middle">2026-04-07</text>
  <text x="651.7919075144508" y="35.0" class="label" text-anchor="middle">52</text>
  <circle cx="655.9537572254335" cy="40.0" class="point"/>
  <text x="655.9537572254335" y="375" class="label" text-anchor="middle">2026-04-08</text>
  <text x="655.9537572254335" y="35.0" class="label" text-anchor="middle">52</text>
  <circle cx="660.1156069364162" cy="40.0" class="point"/>
  <text x="660.1156069364162" y="375" class="label" text-anchor="middle">2026-04-09</text>
  <text x="660.1156069364162" y="35.0" class="label" text-anchor="middle">52</text>
  <circle cx="664.2774566473988" cy="40.0" class="point"/>
  <text x="664.2774566473988" y="375" class="label" text-anchor="middle">2026-04-10</text>
  <text x="664.2774566473988" y="35.0" class="label" text-anchor="middle">52</text>
  <circle cx="668.4393063583815" cy="40.0" class="point"/>
  <text x="668.4393063583815" y="375" class="label" text-anchor="middle">2026-04-11</text>
  <text x="668.4393063583815" y="35.0" class="label" text-anchor="middle">52</text>
  <circle cx="672.6011560693642" cy="40.0" class="point"/>
  <text x="672.6011560693642" y="375" class="label" text-anchor="middle">2026-04-12</text>
  <text x="672.6011560693642" y="35.0" class="label" text-anchor="middle">52</text>
  <circle cx="676.7630057803468" cy="40.0" class="point"/>
  <text x="676.7630057803468" y="375" class="label" text-anchor="middle">2026-04-13</text>
  <text x="676.7630057803468" y="35.0" class="label" text-anchor="middle">52</text>
  <circle cx="680.9248554913295" cy="40.0" class="point"/>
  <text x="680.9248554913295" y="375" class="label" text-anchor="middle">2026-04-14</text>
  <text x="680.9248554913295" y="35.0" class="label" text-anchor="middle">52</text>
  <circle cx="685.0867052023121" cy="40.0" class="point"/>
  <text x="685.0867052023121" y="375" class="label" text-anchor="middle">2026-04-15</text>
  <text x="685.0867052023121" y="35.0" class="label" text-anchor="middle">52</text>
  <circle cx="689.2485549132948" cy="40.0" class="point"/>
  <text x="689.2485549132948" y="375" class="label" text-anchor="middle">2026-04-16</text>
  <text x="689.2485549132948" y="35.0" class="label" text-anchor="middle">52</text>
  <circle cx="693.4104046242775" cy="40.0" class="point"/>
  <text x="693.4104046242775" y="375" class="label" text-anchor="middle">2026-04-17</text>
  <text x="693.4104046242775" y="35.0" class="label" text-anchor="middle">52</text>
  <circle cx="697.5722543352601" cy="40.0" class="point"/>
  <text x="697.5722543352601" y="375" class="label" text-anchor="middle">2026-04-18</text>
  <text x="697.5722543352601" y="35.0" class="label" text-anchor="middle">52</text>
  <circle cx="701.7341040462428" cy="40.0" class="point"/>
  <text x="701.7341040462428" y="375" class="label" text-anchor="middle">2026-04-19</text>
  <text x="701.7341040462428" y="35.0" class="label" text-anchor="middle">52</text>
  <circle cx="705.8959537572255" cy="40.0" class="point"/>
  <text x="705.8959537572255" y="375" class="label" text-anchor="middle">2026-04-20</text>
  <text x="705.8959537572255" y="35.0" class="label" text-anchor="middle">52</text>
  <circle cx="710.0578034682081" cy="40.0" class="point"/>
  <text x="710.0578034682081" y="375" class="label" text-anchor="middle">2026-04-21</text>
  <text x="710.0578034682081" y="35.0" class="label" text-anchor="middle">52</text>
  <circle cx="714.2196531791907" cy="40.0" class="point"/>
  <text x="714.2196531791907" y="375" class="label" text-anchor="middle">2026-04-22</text>
  <text x="714.2196531791907" y="35.0" class="label" text-anchor="middle">52</text>
  <circle cx="718.3815028901735" cy="40.0" class="point"/>
  <text x="718.3815028901735" y="375" class="label" text-anchor="middle">2026-04-23</text>
  <text x="718.3815028901735" y="35.0" class="label" text-anchor="middle">52</text>
  <circle cx="722.543352601156" cy="40.0" class="point"/>
  <text x="722.543352601156" y="375" class="label" text-anchor="middle">2026-04-24</text>
  <text x="722.543352601156" y="35.0" class="label" text-anchor="middle">52</text>
  <circle cx="726.7052023121388" cy="40.0" class="point"/>
  <text x="726.7052023121388" y="375" class="label" text-anchor="middle">2026-04-25</text>
  <text x="726.7052023121388" y="35.0" class="label" text-anchor="middle">52</text>
  <circle cx="730.8670520231213" cy="40.0" class="point"/>
  <text x="730.8670520231213" y="375" class="label" text-anchor="middle">2026-04-26</text>
  <text x="730.8670520231213" y="35.0" class="label" text-anchor="middle">52</text>
  <circle cx="735.028901734104" cy="40.0" class="point"/>
  <text x="735.028901734104" y="375" class="label" text-anchor="middle">2026-04-27</text>
  <text x="735.028901734104" y="35.0" class="label" text-anchor="middle">52</text>
  <circle cx="739.1907514450867" cy="40.0" class="point"/>
  <text x="739.1907514450867" y="375" class="label" text-anchor="middle">2026-04-28</text>
  <text x="739.1907514450867" y="35.0" class="label" text-anchor="middle">52</text>
  <circle cx="743.3526011560693" cy="40.0" class="point"/>
  <text x="743.3526011560693" y="375" class="label" text-anchor="middle">2026-04-29</text>
  <text x="743.3526011560693" y="35.0" class="label" text-anchor="middle">52</text>
  <circle cx="747.514450867052" cy="40.0" class="point"/>
  <text x="747.514450867052" y="375" class="label" text-anchor="middle">2026-04-30</text>
  <text x="747.514450867052" y="35.0" class="label" text-anchor="middle">52</text>
  <circle cx="751.6763005780347" cy="40.0" class="point"/>
  <text x="751.6763005780347" y="375" class="label" text-anchor="middle">2026-05-01</text>
  <text x="751.6763005780347" y="35.0" class="label" text-anchor="middle">52</text>
  <circle cx="755.8381502890173" cy="40.0" class="point"/>
  <text x="755.8381502890173" y="375" class="label" text-anchor="middle">2026-05-02</text>
  <text x="755.8381502890173" y="35.0" class="label" text-anchor="middle">52</text>
  <circle cx="760.0" cy="40.0" class="point"/>
  <text x="760.0" y="375" class="label" text-anchor="middle">2026-05-03</text>
  <text x="760.0" y="35.0" class="label" text-anchor="middle">52</text>
  <text x="30" y="363.0" class="label" text-anchor="end">0</text>
  <text x="30" y="301.46153846153845" class="label" text-anchor="end">10</text>
  <text x="30" y="239.9230769230769" class="label" text-anchor="end">20</text>
  <text x="30" y="178.38461538461542" class="label" text-anchor="end">30</text>
  <text x="30" y="116.84615384615384" class="label" text-anchor="end">40</text>
  <text x="30" y="55.30769230769232" class="label" text-anchor="end">50</text>
</svg>