<svg xmlns="http://www.w3.org/2000/svg" width="800" height="400" viewBox="0 0 800 400">
  <style>
    .axis{stroke:#666;stroke-width:1}
    .line{stroke:#4a9;stroke-width:2;fill:none}
    .point{fill:#4a9;r:4}
    .label{font:10px sans-serif;fill:#aaa}
    .title{font:14px sans-serif;fill:#333}
  </style>
  <text x="400" y="20" class="title" text-anchor="middle">OPIC Field Growth Timeline</text>
  <line x1="40" y1="40" x2="40" y2="360" class="axis"/>
  <line x1="40" y1="360" x2="760" y2="360" class="axis"/>
  <path d="M 40.0,101.53846153846155 L 48.78048780487805,101.53846153846155 L 57.5609756097561,101.53846153846155 L 66.34146341463415,101.53846153846155 L 75.1219512195122,101.53846153846155 L 83.90243902439025,101.53846153846155 L 92.6829268292683,101.53846153846155 L 101.46341463414635,101.53846153846155 L 110.2439024390244,101.53846153846155 L 119.02439024390245,101.53846153846155 L 127.80487804878048,101.53846153846155 L 136.58536585365854,101.53846153846155 L 145.3658536585366,101.53846153846155 L 154.14634146341461,101.53846153846155 L 162.9268292682927,101.53846153846155 L 171.70731707317074,101.53846153846155 L 180.4878048780488,101.53846153846155 L 189.2682926829268,101.53846153846155 L 198.0487804878049,101.53846153846155 L 206.82926829268294,101.53846153846155 L 215.60975609756096,101.53846153846155 L 224.39024390243904,101.53846153846155 L 233.1707317073171,101.53846153846155 L 241.95121951219514,101.53846153846155 L 250.73170731707316,101.53846153846155 L 259.5121951219512,101.53846153846155 L 268.29268292682923,101.53846153846155 L 277.07317073170736,40.0 L 285.8536585365854,40.0 L 294.6341463414634,40.0 L 303.4146341463415,40.0 L 312.1951219512195,40.0 L 320.9756097560976,40.0 L 329.7560975609756,40.0 L 338.5365853658536,40.0 L 347.3170731707317,40.0 L 356.0975609756098,40.0 L 364.8780487804878,40.0 L 373.6585365853659,40.0 L 382.4390243902439,40.0 L 391.2195121951219,40.0 L 400.0,40.0 L 408.7804878048781,40.0 L 417.5609756097561,40.0 L 426.3414634146342,40.0 L 435.1219512195122,40.0 L 443.9024390243903,40.0 L 452.68292682926824,40.0 L 461.4634146341463,40.0 L 470.2439024390244,40.0 L 479.0243902439024,40.0 L 487.8048780487805,40.0 L 496.5853658536585,40.0 L 505.3658536585366,40.0 L 514.1463414634147,40.0 L 522.9268292682927,40.0 L 531.7073170731708,40.0 L 540.4878048780488,40.0 L 549.2682926829268,40.0 L 558.0487804878048,40.0 L 566.829268292683,40.0 L 575.609756097561,40.0 L 584.390243902439,40.0 L 593.170731707317,40.0 L 601.9512195121952,40.0 L 610.7317073170732,40.0 L 619.5121951219512,40.0 L 628.2926829268292,40.0 L 637.0731707317073,40.0 L 645.8536585365854,40.0 L 654.6341463414634,40.0 L 663.4146341463414,40.0 L 672.1951219512196,40.0 L 680.9756097560976,40.0 L 689.7560975609756,40.0 L 698.5365853658537,40.0 L 707.3170731707318,40.0 L 716.0975609756097,40.0 L 724.8780487804878,40.0 L 733.6585365853658,40.0 L 742.4390243902438,40.0 L 751.219512195122,40.0 L 760.0,40.0" class="line"/>
  <circle cx="40.0" cy="101.53846153846155" class="point"/>
  <text x="40.0" y="375" class="label" text-anchor="middle">2025-11-11</text>
  <text x="40.0" y="96.53846153846155" class="label" text-anchor="middle">42</text>
  <circle cx="48.78048780487805" cy="101.53846153846155" class="point"/>
  <text x="48.78048780487805" y="375" class="label" text-anchor="middle">2025-11-12</text>
  <text x="48.78048780487805" y="96.53846153846155" class="label" text-anchor="middle">42</text>
  <circle cx="57.5609756097561" cy="101.53846153846155" class="point"/>
  <text x="57.5609756097561" y="375" class="label" text-anchor="middle">2025-11-13</text>
  <text x="57.5609756097561" y="96.53846153846155" class="label" text-anchor="middle">42</text>
  <circle cx="66.34146341463415" cy="101.53846153846155" class="point"/>
  <text x="66.34146341463415" y="375" class="label" text-anchor="middle">2025-11-14</text>
  <text x="66.34146341463415" y="96.53846153846155" class="label" text-anchor="middle">42</text>
  <circle cx="75.1219512195122" cy="101.53846153846155" class="point"/>
  <text x="75.1219512195122" y="375" class="label" text-anchor="middle">2025-11-15</text>
  <text x="75.1219512195122" y="96.53846153846155" class="label" text-anchor="middle">42</text>
  <circle cx="83.90243902439025" cy="101.53846153846155" class="point"/>
  <text x="83.90243902439025" y="375" class="label" text-anchor="middle">2025-11-16</text>
  <text x="83.90243902439025" y="96.53846153846155" class="label" text-anchor="middle">42</text>
  <circle cx="92.6829268292683" cy="101.53846153846155" class="point"/>
  <text x="92.6829268292683" y="375" class="label" text-anchor="middle">2025-11-17</text>
  <text x="92.6829268292683" y="96.53846153846155" class="label" text-anchor="middle">42</text>
  <circle cx="101.46341463414635" cy="101.53846153846155" class="point"/>
  <text x="101.46341463414635" y="375" class="label" text-anchor="middle">2025-11-18</text>
  <text x="101.46341463414635" y="96.53846153846155" class="label" text-anchor="middle">42</text>
  <circle cx="110.2439024390244" cy="101.53846153846155" class="point"/>
  <text x="110.2439024390244" y="375" class="label" text-anchor="middle">2025-11-19</text>
  <text x="110.2439024390244" y="96.53846153846155" class="label" text-anchor="middle">42</text>
  <circle cx="119.02439024390245" cy="101.53846153846155" class="point"/>
  <text x="119.02439024390245" y="375" class="label" text-anchor="middle">2025-11-20</text>
  <text x="119.02439024390245" y="96.53846153846155" class="label" text-anchor="middle">42</text>
  <circle cx="127.80487804878048" cy="101.53846153846155" class="point"/>
  <text x="127.80487804878048" y="375" class="label" text-anchor="middle">2025-11-21</text>
  <text x="127.80487804878048" y="96.53846153846155" class="label" text-anchor="middle">42</text>
  <circle cx="136.58536585365854" cy="101.53846153846155" class="point"/>
  <text x="136.58536585365854" y="375" class="label" text-anchor="middle">2025-11-22</text>
  <text x="136.58536585365854" y="96.53846153846155" class="label" text-anchor="middle">42</text>
  <circle cx="145.3658536585366" cy="101.53846153846155" class="point"/>
  <text x="145.3658536585366" y="375" class="label" text-anchor="middle">2025-11-23</text>
  <text x="145.3658536585366" y="96.53846153846155" class="label" text-anchor="middle">42</text>
  <circle cx="154.14634146341461" cy="101.53846153846155" class="point"/>
  <text x="154.14634146341461" y="375" class="label" text-anchor="middle">2025-11-24</text>
  <text x="154.14634146341461" y="96.53846153846155" class="label" text-anchor="middle">42</text>
  <circle cx="162.9268292682927" cy="101.53846153846155" class="point"/>
  <text x="162.9268292682927" y="375" class="label" text-anchor="middle">2025-11-25</text>
  <text x="162.9268292682927" y="96.53846153846155" class="label" text-anchor="middle">42</text>
  <circle cx="171.70731707317074" cy="101.53846153846155" class="point"/>
  <text x="171.70731707317074" y="375" class="label" text-anchor="middle">2025-11-26</text>
  <text x="171.70731707317074" y="96.53846153846155" class="label" text-anchor="middle">42</text>
  <circle cx="180.4878048780488" cy="101.53846153846155" class="point"/>
  <text x="180.4878048780488" y="375" class="label" text-anchor="middle">2025-11-27</text>
  <text x="180.4878048780488" y="96.53846153846155" class="label" text-anchor="middle">42</text>
  <circle cx="189.2682926829268" cy="101.53846153846155" class="point"/>
  <text x="189.2682926829268" y="375" class="label" text-anchor="middle">2025-11-28</text>
  <text x="189.2682926829268" y="96.53846153846155" class="label" text-anchor="middle">42</text>
  <circle cx="198.0487804878049" cy="101.53846153846155" class="point"/>
  <text x="198.0487804878049" y="375" class="label" text-anchor="middle">2025-11-29</text>
  <text x="198.0487804878049" y="96.53846153846155" class="label" text-anchor="middle">42</text>
  <circle cx="206.82926829268294" cy="101.53846153846155" class="point"/>
  <text x="206.82926829268294" y="375" class="label" text-anchor="middle">2025-11-30</text>
  <text x="206.82926829268294" y="96.53846153846155" class="label" text-anchor="middle">42</text>
  <circle cx="215.60975609756096" cy="101.53846153846155" class="point"/>
  <text x="215.60975609756096" y="375" class="label" text-anchor="middle">2025-12-01</text>
  <text x="215.60975609756096" y="96.53846153846155" class="label" text-anchor="middle">42</text>
  <circle cx="224.39024390243904" cy="101.53846153846155" class="point"/>
  <text x="224.39024390243904" y="375" class="label" text-anchor="middle">2025-12-02</text>
  <text x="224.39024390243904" y="96.53846153846155" class="label" text-anchor="middle">42</text>
  <circle cx="233.1707317073171" cy="101.53846153846155" class="point"/>
  <text x="233.1707317073171" y="375" class="label" text-anchor="middle">2025-12-03</text>
  <text x="233.1707317073171" y="96.53846153846155" class="label" text-anchor="middle">42</text>
  <circle cx="241.95121951219514" cy="101.53846153846155" class="point"/>
  <text x="241.95121951219514" y="375" class="label" text-anchor="middle">2025-12-04</text>
  <text x="241.95121951219514" y="96.53846153846155" class="label" text-anchor="middle">42</text>
  <circle cx="250.73170731707316" cy="101.53846153846155" class="point"/>
  <text x="250.73170731707316" y="375" class="label" text-anchor="middle">2025-12-05</text>
  <text x="250.73170731707316" y="96.53846153846155" class="label" text-anchor="middle">42</text>
  <circle cx="259.5121951219512" cy="101.53846153846155" class="point"/>
  <text x="259.5121951219512" y="375" class="label" text-anchor="middle">2025-12-06</text>
  <text x="259.5121951219512" y="96.53846153846155" class="label" text-anchor="middle">42</text>
  <circle cx="268.29268292682923" cy="101.53846153846155" class="point"/>
  <text x="268.29268292682923" y="375" class="label" text-anchor="middle">2025-12-07</text>
  <text x="268.29268292682923" y="96.53846153846155" class="label" text-anchor="middle">42</text>
  <circle cx="277.07317073170736" cy="40.0" class="point"/>
  <text x="277.07317073170736" y="375" class="label" text-anchor="middle">2025-12-08</text>
  <text x="277.07317073170736" y="35.0" class="label" text-anchor="middle">52</text>
  <circle cx="285.8536585365854" cy="40.0" class="point"/>
  <text x="285.8536585365854" y="375" class="label" text-anchor="middle">2025-12-09</text>
  <text x="285.8536585365854" y="35.0" class="label" text-anchor="middle">52</text>
  <circle cx="294.6341463414634" cy="40.0" class="point"/>
  <text x="294.6341463414634" y="375" class="label" text-anchor="middle">2025-12-10</text>
  <text x="294.6341463414634" y="35.0" class="label" text-anchor="middle">52</text>
  <circle cx="303.4146341463415" cy="40.0" class="point"/>
  <text x="303.4146341463415" y="375" class="label" text-anchor="middle">2025-12-11</text>
  <text x="303.4146341463415" y="35.0" class="label" text-anchor="middle">52</text>
  <circle cx="312.1951219512195" cy="40.0" class="point"/>
  <text x="312.1951219512195" y="375" class="label" text-anchor="middle">2025-12-12</text>
  <text x="312.1951219512195" y="35.0" class="label" text-anchor="middle">52</text>
  <circle cx="320.9756097560976" cy="40.0" class="point"/>
  <text x="320.9756097560976" y="375" class="label" text-anchor="middle">2025-12-13</text>
  <text x="320.9756097560976" y="35.0" class="label" text-anchor="middle">52</text>
  <circle cx="329.7560975609756" cy="40.0" class="point"/>
  <text x="329.7560975609756" y="375" class="label" text-anchor="middle">2025-12-14</text>
  <text x="329.7560975609756" y="35.0" class="label" text-anchor="middle">52</text>
  <circle cx="338.5365853658536" cy="40.0" class="point"/>
  <text x="338.5365853658536" y="375" class="label" text-anchor="middle">2025-12-15</text>
  <text x="338.5365853658536" y="35.0" class="label" text-anchor="middle">52</text>
  <circle cx="347.3170731707317" cy="40.0" class="point"/>
  <text x="347.3170731707317" y="375" class="label" text-anchor="middle">2025-12-16</text>
  <text x="347.3170731707317" y="35.0" class="label" text-anchor="middle">52</text>
  <circle cx="356.0975609756098" cy="40.0" class="point"/>
  <text x="356.0975609756098" y="375" class="label" text-anchor="middle">2025-12-17</text>
  <text x="356.0975609756098" y="35.0" class="label" text-anchor="middle">52</text>
  <circle cx="364.8780487804878" cy="40.0" class="point"/>
  <text x="364.8780487804878" y="375" class="label" text-anchor="middle">2025-12-18</text>
  <text x="364.8780487804878" y="35.0" class="label" text-anchor="middle">52</text>
  <circle cx="373.6585365853659" cy="40.0" class="point"/>
  <text x="373.6585365853659" y="375" class="label" text-anchor="middle">2025-12-19</text>
  <text x="373.6585365853659" y="35.0" class="label" text-anchor="middle">52</text>
  <circle cx="382.4390243902439" cy="40.0" class="point"/>
  <text x="382.4390243902439" y="375" class="label" text-anchor="middle">2025-12-20</text>
  <text x="382.4390243902439" y="35.0" class="label" text-anchor="middle">52</text>
  <circle cx="391.2195121951219" cy="40.0" class="point"/>
  <text x="391.2195121951219" y="375" class="label" text-anchor="middle">2025-12-21</text>
  <text x="391.2195121951219" y="35.0" class="label" text-anchor="middle">52</text>
  <circle cx="400.0" cy="40.0" class="point"/>
  <text x="400.0" y="375" class="label" text-anchor="middle">2025-12-22</text>
  <text x="400.0" y="35.0" class="label" text-anchor="middle">52</text>
  <circle cx="408.7804878048781" cy="40.0" class="point"/>
  <text x="408.7804878048781" y="375" class="label" text-anchor="middle">2025-12-23</text>
  <text x="408.7804878048781" y="35.0" class="label" text-anchor="middle">52</text>
  <circle cx="417.5609756097561" cy="40.0" class="point"/>
  <text x="417.5609756097561" y="375" class="label" text-anchor="middle">2025-12-24</text>
  <text x="417.5609756097561" y="35.0" class="label" text-anchor="middle">52</text>
  <circle cx="426.3414634146342" cy="40.0" class="point"/>
  <text x="426.3414634146342" y="375" class="label" text-anchor="middle">2025-12-25</text>
  <text x="426.3414634146342" y="35.0" class="label" text-anchor="middle">52</text>
  <circle cx="435.1219512195122" cy="40.0" class="point"/>
  <text x="435.1219512195122" y="375" class="label" text-anchor="middle">2025-12-26</text>
  <text x="435.1219512195122" y="35.0" class="label" text-anchor="middle">52</text>
  <circle cx="443.9024390243903" cy="40.0" class="point"/>
  <text x="443.9024390243903" y="375" class="label" text-anchor="middle">2025-12-27</text>
  <text x="443.9024390243903" y="35.0" class="label" text-anchor="middle">52</text>
  <circle cx="452.68292682926824" cy="40.0" class="point"/>
  <text x="452.68292682926824" y="375" class="label" text-anchor="middle">2025-12-28</text>
  <text x="452.68292682926824" y="35.0" class="label" text-anchor="middle">52</text>
  <circle cx="461.4634146341463" cy="40.0" class="point"/>
  <text x="461.4634146341463" y="375" class="label" text-anchor="middle">2025-12-29</text>
  <text x="461.4634146341463" y="35.0" class="label" text-anchor="middle">52</text>
  <circle cx="470.2439024390244" cy="40.0" class="point"/>
  <text x="470.2439024390244" y="375" class="label" text-anchor="middle">2025-12-30</text>
  <text x="470.2439024390244" y="35.0" class="label" text-anchor="middle">52</text>
  <circle cx="479.0243902439024" cy="40.0" class="point"/>
  <text x="479.0243902439024" y="375" class="label" text-anchor="middle">2025-12-31</text>
  <text x="479.0243902439024" y="35.0" class="label" text-anchor="middle">52</text>
  <circle cx="487.8048780487805" cy="40.0" class="point"/>
  <text x="487.8048780487805" y="375" class="label" text-anchor="middle">2026-01-01</text>
  <text x="487.8048780487805" y="35.0" class="label" text-anchor="middle">52</text>
  <circle cx="496.5853658536585" cy="40.0" class="point"/>
  <text x="496.5853658536585" y="375" class="label" text-anchor="middle">2026-01-02</text>
  <text x="496.5853658536585" y="35.0" class="label" text-anchor="middle">52</text>
  <circle cx="505.3658536585366" cy="40.0" class="point"/>
  <text x="505.3658536585366" y="375" class="label" text-anchor="middle">2026-01-03</text>
  <text x="505.3658536585366" y="35.0" class="label" text-anchor="middle">52</text>
  <circle cx="514.1463414634147" cy="40.0" class="point"/>
  <text x="514.1463414634147" y="375" class="label" text-anchor="middle">2026-01-04</text>
  <text x="514.1463414634147" y="35.0" class="label" text-anchor="middle">52</text>
  <circle cx="522.9268292682927" cy="40.0" class="point"/>
  <text x="522.9268292682927" y="375" class="label" text-anchor="middle">2026-01-05</text>
  <text x="522.9268292682927" y="35.0" class="label" text-anchor="middle">52</text>
  <circle cx="531.7073170731708" cy="40.0" class="point"/>
  <text x="531.7073170731708" y="375" class="label" text-anchor="middle">2026-01-06</text>
  <text x="531.7073170731708" y="35.0" class="label" text-anchor="middle">52</text>
  <circle cx="540.4878048780488" cy="40.0" class="point"/>
  <text x="540.4878048780488" y="375" class="label" text-anchor="middle">2026-01-07</text>
  <text x="540.4878048780488" y="35.0" class="label" text-anchor="middle">52</text>
  <circle cx="549.2682926829268" cy="40.0" class="point"/>
  <text x="549.2682926829268" y="375" class="label" text-anchor="middle">2026-01-08</text>
  <text x="549.2682926829268" y="35.0" class="label" text-anchor="middle">52</text>
  <circle cx="558.0487804878048" cy="40.0" class="point"/>
  <text x="558.0487804878048" y="375" class="label" text-anchor="middle">2026-01-09</text>
  <text x="558.0487804878048" y="35.0" class="label" text-anchor="middle">52</text>
  <circle cx="566.829268292683" cy="40.0" class="point"/>
  <text x="566.829268292683" y="375" class="label" text-anchor="middle">2026-01-10</text>
  <text x="566.829268292683" y="35.0" class="label" text-anchor="middle">52</text>
  <circle cx="575.609756097561" cy="40.0" class="point"/>
  <text x="575.609756097561" y="375" class="label" text-anchor="middle">2026-01-11</text>
  <text x="575.609756097561" y="35.0" class="label" text-anchor="middle">52</text>
  <circle cx="584.390243902439" cy="40.0" class="point"/>
  <text x="584.390243902439" y="375" class="label" text-anchor="middle">2026-01-12</text>
  <text x="584.390243902439" y="35.0" class="label" text-anchor="middle">52</text>
  <circle cx="593.170731707317" cy="40.0" class="point"/>
  <text x="593.170731707317" y="375" class="label" text-anchor="middle">2026-01-13</text>
  <text x="593.170731707317" y="35.0" class="label" text-anchor="middle">52</text>
  <circle cx="601.9512195121952" cy="40.0" class="point"/>
  <text x="601.9512195121952" y="375" class="label" text-anchor="middle">2026-01-14</text>
  <text x="601.9512195121952" y="35.0" class="label" text-anchor="middle">52</text>
  <circle cx="610.7317073170732" cy="40.0" class="point"/>
  <text x="610.7317073170732" y="375" class="label" text-anchor="middle">2026-01-15</text>
  <text x="610.7317073170732" y="35.0" class="label" text-anchor="middle">52</text>
  <circle cx="619.5121951219512" cy="40.0" class="point"/>
  <text x="619.5121951219512" y="375" class="label" text-anchor="middle">2026-01-16</text>
  <text x="619.5121951219512" y="35.0" class="label" text-anchor="middle">52</text>
  <circle cx="628.2926829268292" cy="40.0" class="point"/>
  <text x="628.2926829268292" y="375" class="label" text-anchor="middle">2026-01-17</text>
  <text x="628.2926829268292" y="35.0" class="label" text-anchor="middle">52</text>
  <circle cx="637.0731707317073" cy="40.0" class="point"/>
  <text x="637.0731707317073" y="375" class="label" text-anchor="middle">2026-01-18</text>
  <text x="637.0731707317073" y="35.0" class="label" text-anchor="middle">52</text>
  <circle cx="645.8536585365854" cy="40.0" class="point"/>
  <text x="645.8536585365854" y="375" class="label" text-anchor="middle">2026-01-19</text>
  <text x="645.8536585365854" y="35.0" class="label" text-anchor="middle">52</text>
  <circle cx="654.6341463414634" cy="40.0" class="point"/>
  <text x="654.6341463414634" y="375" class="label" text-anchor="middle">2026-01-20</text>
  <text x="654.6341463414634" y="35.0" class="label" text-anchor="middle">52</text>
  <circle cx="663.4146341463414" cy="40.0" class="point"/>
  <text x="663.4146341463414" y="375" class="label" text-anchor="middle">2026-01-21</text>
  <text x="663.4146341463414" y="35.0" class="label" text-anchor="middle">52</text>
  <circle cx="672.1951219512196" cy="40.0" class="point"/>
  <text x="672.1951219512196" y="375" class="label" text-anchor="middle">2026-01-22</text>
  <text x="672.1951219512196" y="35.0" class="label" text-anchor="middle">52</text>
  <circle cx="680.9756097560976" cy="40.0" class="point"/>
  <text x="680.9756097560976" y="375" class="label" text-anchor="middle">2026-01-23</text>
  <text x="680.9756097560976" y="35.0" class="label" text-anchor="middle">52</text>
  <circle cx="689.7560975609756" cy="40.0" class="point"/>
  <text x="689.7560975609756" y="375" class="label" text-anchor="middle">2026-01-24</text>
  <text x="689.7560975609756" y="35.0" class="label" text-anchor="middle">52</text>
  <circle cx="698.5365853658537" cy="40.0" class="point"/>
  <text x="698.5365853658537" y="375" class="label" text-anchor="middle">2026-01-25</text>
  <text x="698.5365853658537" y="35.0" class="label" text-anchor="middle">52</text>
  <circle cx="707.3170731707318" cy="40.0" class="point"/>
  <text x="707.3170731707318" y="375" class="label" text-anchor="middle">2026-01-26</text>
  <text x="707.3170731707318" y="35.0" class="label" text-anchor="middle">52</text>
  <circle cx="716.0975609756097" cy="40.0" class="point"/>
  <text x="716.0975609756097" y="375" class="label" text-anchor="middle">2026-01-27</text>
  <text x="716.0975609756097" y="35.0" class="label" text-anchor="middle">52</text>
  <circle cx="724.8780487804878" cy="40.0" class="point"/>
  <text x="724.8780487804878" y="375" class="label" text-anchor="middle">2026-01-28</text>
  <text x="724.8780487804878" y="35.0" class="label" text-anchor="middle">52</text>
  <circle cx="733.6585365853658" cy="40.0" class="point"/>
  <text x="733.6585365853658" y="375" class="label" text-anchor="middle">2026-01-29</text>
  <text x="733.6585365853658" y="35.0" class="label" text-anchor="middle">52</text>
  <circle cx="742.4390243902438" cy="40.0" class="point"/>
  <text x="742.4390243902438" y="375" class="label" text-anchor="middle">2026-01-30</text>
  <text x="742.4390243902438" y="35.0" class="label" text-anchor="middle">52</text>
  <circle cx="751.219512195122" cy="40.0" class="point"/>
  <text x="751.219512195122" y="375" class="label" text-anchor="middle">2026-01-31</text>
  <text x="751.219512195122" y="35.0" class="label" text-anchor="middle">52</text>
  <circle cx="760.0" cy="40.0" class="point"/>
  <text x="760.0" y="375" class="label" text-anchor="middle">2026-02-01</text>
  <text x="760.0" y="35.0" class="label" text-anchor="middle">52</text>
  <text x="30" y="363.0" class="label" text-anchor="end">0</text>
  <text x="30" y="301.46153846153845" class="label" text-anchor="end">10</text>
  <text x="30" y="239.9230769230769" class="label" text-anchor="end">20</text>
  <text x="30" y="178.38461538461542" class="label" text-anchor="end">30</text>
  <text x="30" y="116.84615384615384" class="label" text-anchor="end">40</text>
  <text x="30" y="55.30769230769232" class="label" text-anchor="end">50</text>
</svg>