<svg xmlns="http://www.w3.org/2000/svg" width="800" height="400" viewBox="0 0 800 400">
  <style>
    .axis{stroke:#666;stroke-width:1}
    .line{stroke:#4a9;stroke-width:2;fill:none}
    .point{fill:#4a9;r:4}
    .label{font:10px sans-serif;fill:#aaa}
    .title{font:14px sans-serif;fill:#333}
  </style>
  <text x="400" y="20" class="title" text-anchor="middle">OPIC Field Growth Timeline</text>
  <line x1="40" y1="40" x2="40" y2="360" class="axis"/>
  <line x1="40" y1="360" x2="760" y2="360" class="axis"/>
  <path d="M 40.0,101.53846153846155 L 46.101694915254235,101.53846153846155 L 52.20338983050847,101.53846153846155 L 58.30508474576271,101.53846153846155 L 64.40677966101694,101.53846153846155 L 70.50847457627118,101.53846153846155 L 76.61016949152543,101.53846153846155 L 82.71186440677965,101.53846153846155 L 88.8135593220339,101.53846153846155 L 94.91525423728814,101.53846153846155 L 101.01694915254237,101.53846153846155 L 107.11864406779661,101.53846153846155 L 113.22033898305085,101.53846153846155 L 119.32203389830508,101.53846153846155 L 125.42372881355932,101.53846153846155 L 131.52542372881356,101.53846153846155 L 137.6271186440678,101.53846153846155 L 143.72881355932202,101.53846153846155 L 149.83050847457628,101.53846153846155 L 155.9322033898305,101.53846153846155 L 162.03389830508473,101.53846153846155 L 168.135593220339,101.53846153846155 L 174.23728813559322,101.53846153846155 L 180.33898305084747,101.53846153846155 L 186.4406779661017,101.53846153846155 L 192.54237288135593,101.53846153846155 L 198.64406779661016,101.53846153846155 L 204.74576271186442,40.0 L 210.84745762711864,40.0 L 216.9491525423729,40.0 L 223.0508474576271,40.0 L 229.15254237288138,40.0 L 235.25423728813558,40.0 L 241.3559322033898,40.0 L 247.45762711864407,40.0 L 253.5593220338983,40.0 L 259.66101694915255,40.0 L 265.7627118644068,40.0 L 271.864406779661,40.0 L 277.96610169491527,40.0 L 284.06779661016947,40.0 L 290.1694915254237,40.0 L 296.271186440678,40.0 L 302.3728813559322,40.0 L 308.47457627118644,40.0 L 314.5762711864407,40.0 L 320.67796610169495,40.0 L 326.77966101694915,40.0 L 332.8813559322034,40.0 L 338.9830508474576,40.0 L 345.08474576271186,40.0 L 351.1864406779661,40.0 L 357.2881355932203,40.0 L 363.3898305084746,40.0 L 369.49152542372883,40.0 L 375.59322033898303,40.0 L 381.6949152542373,40.0 L 387.79661016949154,40.0 L 393.8983050847458,40.0 L 400.0,40.0 L 406.1016949152542,40.0 L 412.20338983050846,40.0 L 418.30508474576277,40.0 L 424.40677966101697,40.0 L 430.50847457627117,40.0 L 436.6101694915254,40.0 L 442.7118644067796,40.0 L 448.81355932203394,40.0 L 454.91525423728814,40.0 L 461.0169491525424,40.0 L 467.1186440677966,40.0 L 473.2203389830508,40.0 L 479.3220338983051,40.0 L 485.4237288135593,40.0 L 491.52542372881356,40.0 L 497.62711864406776,40.0 L 503.728813559322,40.0 L 509.8305084745763,40.0 L 515.9322033898305,40.0 L 522.0338983050847,40.0 L 528.1355932203389,40.0 L 534.2372881355932,40.0 L 540.3389830508474,40.0 L 546.4406779661017,40.0 L 552.542372881356,40.0 L 558.6440677966101,40.0 L 564.7457627118644,40.0 L 570.8474576271186,40.0 L 576.9491525423729,40.0 L 583.0508474576271,40.0 L 589.1525423728814,40.0 L 595.2542372881356,40.0 L 601.3559322033899,40.0 L 607.457627118644,40.0 L 613.5593220338983,40.0 L 619.6610169491526,40.0 L 625.7627118644068,40.0 L 631.8644067796611,40.0 L 637.9661016949152,40.0 L 644.0677966101695,40.0 L 650.1694915254237,40.0 L 656.271186440678,40.0 L 662.3728813559322,40.0 L 668.4745762711865,40.0 L 674.5762711864406,40.0 L 680.6779661016949,40.0 L 686.7796610169491,40.0 L 692.8813559322034,40.0 L 698.9830508474577,40.0 L 705.0847457627118,40.0 L 711.1864406779661,40.0 L 717.2881355932203,40.0 L 723.3898305084746,40.0 L 729.4915254237288,40.0 L 735.5932203389831,40.0 L 741.6949152542372,40.0 L 747.7966101694916,40.0 L 753.8983050847457,40.0 L 760.0,40.0" class="line"/>
  <circle cx="40.0" cy="101.53846153846155" class="point"/>
  <text x="40.0" y="375" class="label" text-anchor="middle">2025-11-11</text>
  <text x="40.0" y="96.53846153846155" class="label" text-anchor="middle">42</text>
  <circle cx="46.101694915254235" cy="101.53846153846155" class="point"/>
  <text x="46.101694915254235" y="375" class="label" text-anchor="middle">2025-11-12</text>
  <text x="46.101694915254235" y="96.53846153846155" class="label" text-anchor="middle">42</text>
  <circle cx="52.20338983050847" cy="101.53846153846155" class="point"/>
  <text x="52.20338983050847" y="375" class="label" text-anchor="middle">2025-11-13</text>
  <text x="52.20338983050847" y="96.53846153846155" class="label" text-anchor="middle">42</text>
  <circle cx="58.30508474576271" cy="101.53846153846155" class="point"/>
  <text x="58.30508474576271" y="375" class="label" text-anchor="middle">2025-11-14</text>
  <text x="58.30508474576271" y="96.53846153846155" class="label" text-anchor="middle">42</text>
  <circle cx="64.40677966101694" cy="101.53846153846155" class="point"/>
  <text x="64.40677966101694" y="375" class="label" text-anchor="middle">2025-11-15</text>
  <text x="64.40677966101694" y="96.53846153846155" class="label" text-anchor="middle">42</text>
  <circle cx="70.50847457627118" cy="101.53846153846155" class="point"/>
  <text x="70.50847457627118" y="375" class="label" text-anchor="middle">2025-11-16</text>
  <text x="70.50847457627118" y="96.53846153846155" class="label" text-anchor="middle">42</text>
  <circle cx="76.61016949152543" cy="101.53846153846155" class="point"/>
  <text x="76.61016949152543" y="375" class="label" text-anchor="middle">2025-11-17</text>
  <text x="76.61016949152543" y="96.53846153846155" class="label" text-anchor="middle">42</text>
  <circle cx="82.71186440677965" cy="101.53846153846155" class="point"/>
  <text x="82.71186440677965" y="375" class="label" text-anchor="middle">2025-11-18</text>
  <text x="82.71186440677965" y="96.53846153846155" class="label" text-anchor="middle">42</text>
  <circle cx="88.8135593220339" cy="101.53846153846155" class="point"/>
  <text x="88.8135593220339" y="375" class="label" text-anchor="middle">2025-11-19</text>
  <text x="88.8135593220339" y="96.53846153846155" class="label" text-anchor="middle">42</text>
  <circle cx="94.91525423728814" cy="101.53846153846155" class="point"/>
  <text x="94.91525423728814" y="375" class="label" text-anchor="middle">2025-11-20</text>
  <text x="94.91525423728814" y="96.53846153846155" class="label" text-anchor="middle">42</text>
  <circle cx="101.01694915254237" cy="101.53846153846155" class="point"/>
  <text x="101.01694915254237" y="375" class="label" text-anchor="middle">2025-11-21</text>
  <text x="101.01694915254237" y="96.53846153846155" class="label" text-anchor="middle">42</text>
  <circle cx="107.11864406779661" cy="101.53846153846155" class="point"/>
  <text x="107.11864406779661" y="375" class="label" text-anchor="middle">2025-11-22</text>
  <text x="107.11864406779661" y="96.53846153846155" class="label" text-anchor="middle">42</text>
  <circle cx="113.22033898305085" cy="101.53846153846155" class="point"/>
  <text x="113.22033898305085" y="375" class="label" text-anchor="middle">2025-11-23</text>
  <text x="113.22033898305085" y="96.53846153846155" class="label" text-anchor="middle">42</text>
  <circle cx="119.32203389830508" cy="101.53846153846155" class="point"/>
  <text x="119.32203389830508" y="375" class="label" text-anchor="middle">2025-11-24</text>
  <text x="119.32203389830508" y="96.53846153846155" class="label" text-anchor="middle">42</text>
  <circle cx="125.42372881355932" cy="101.53846153846155" class="point"/>
  <text x="125.42372881355932" y="375" class="label" text-anchor="middle">2025-11-25</text>
  <text x="125.42372881355932" y="96.53846153846155" class="label" text-anchor="middle">42</text>
  <circle cx="131.52542372881356" cy="101.53846153846155" class="point"/>
  <text x="131.52542372881356" y="375" class="label" text-anchor="middle">2025-11-26</text>
  <text x="131.52542372881356" y="96.53846153846155" class="label" text-anchor="middle">42</text>
  <circle cx="137.6271186440678" cy="101.53846153846155" class="point"/>
  <text x="137.6271186440678" y="375" class="label" text-anchor="middle">2025-11-27</text>
  <text x="137.6271186440678" y="96.53846153846155" class="label" text-anchor="middle">42</text>
  <circle cx="143.72881355932202" cy="101.53846153846155" class="point"/>
  <text x="143.72881355932202" y="375" class="label" text-anchor="middle">2025-11-28</text>
  <text x="143.72881355932202" y="96.53846153846155" class="label" text-anchor="middle">42</text>
  <circle cx="149.83050847457628" cy="101.53846153846155" class="point"/>
  <text x="149.83050847457628" y="375" class="label" text-anchor="middle">2025-11-29</text>
  <text x="149.83050847457628" y="96.53846153846155" class="label" text-anchor="middle">42</text>
  <circle cx="155.9322033898305" cy="101.53846153846155" class="point"/>
  <text x="155.9322033898305" y="375" class="label" text-anchor="middle">2025-11-30</text>
  <text x="155.9322033898305" y="96.53846153846155" class="label" text-anchor="middle">42</text>
  <circle cx="162.03389830508473" cy="101.53846153846155" class="point"/>
  <text x="162.03389830508473" y="375" class="label" text-anchor="middle">2025-12-01</text>
  <text x="162.03389830508473" y="96.53846153846155" class="label" text-anchor="middle">42</text>
  <circle cx="168.135593220339" cy="101.53846153846155" class="point"/>
  <text x="168.135593220339" y="375" class="label" text-anchor="middle">2025-12-02</text>
  <text x="168.135593220339" y="96.53846153846155" class="label" text-anchor="middle">42</text>
  <circle cx="174.23728813559322" cy="101.53846153846155" class="point"/>
  <text x="174.23728813559322" y="375" class="label" text-anchor="middle">2025-12-03</text>
  <text x="174.23728813559322" y="96.53846153846155" class="label" text-anchor="middle">42</text>
  <circle cx="180.33898305084747" cy="101.53846153846155" class="point"/>
  <text x="180.33898305084747" y="375" class="label" text-anchor="middle">2025-12-04</text>
  <text x="180.33898305084747" y="96.53846153846155" class="label" text-anchor="middle">42</text>
  <circle cx="186.4406779661017" cy="101.53846153846155" class="point"/>
  <text x="186.4406779661017" y="375" class="label" text-anchor="middle">2025-12-05</text>
  <text x="186.4406779661017" y="96.53846153846155" class="label" text-anchor="middle">42</text>
  <circle cx="192.54237288135593" cy="101.53846153846155" class="point"/>
  <text x="192.54237288135593" y="375" class="label" text-anchor="middle">2025-12-06</text>
  <text x="192.54237288135593" y="96.53846153846155" class="label" text-anchor="middle">42</text>
  <circle cx="198.64406779661016" cy="101.53846153846155" class="point"/>
  <text x="198.64406779661016" y="375" class="label" text-anchor="middle">2025-12-07</text>
  <text x="198.64406779661016" y="96.53846153846155" class="label" text-anchor="middle">42</text>
  <circle cx="204.74576271186442" cy="40.0" class="point"/>
  <text x="204.74576271186442" y="375" class="label" text-anchor="middle">2025-12-08</text>
  <text x="204.74576271186442" y="35.0" class="label" text-anchor="middle">52</text>
  <circle cx="210.84745762711864" cy="40.0" class="point"/>
  <text x="210.84745762711864" y="375" class="label" text-anchor="middle">2025-12-09</text>
  <text x="210.84745762711864" y="35.0" class="label" text-anchor="middle">52</text>
  <circle cx="216.9491525423729" cy="40.0" class="point"/>
  <text x="216.9491525423729" y="375" class="label" text-anchor="middle">2025-12-10</text>
  <text x="216.9491525423729" y="35.0" class="label" text-anchor="middle">52</text>
  <circle cx="223.0508474576271" cy="40.0" class="point"/>
  <text x="223.0508474576271" y="375" class="label" text-anchor="middle">2025-12-11</text>
  <text x="223.0508474576271" y="35.0" class="label" text-anchor="middle">52</text>
  <circle cx="229.15254237288138" cy="40.0" class="point"/>
  <text x="229.15254237288138" y="375" class="label" text-anchor="middle">2025-12-12</text>
  <text x="229.15254237288138" y="35.0" class="label" text-anchor="middle">52</text>
  <circle cx="235.25423728813558" cy="40.0" class="point"/>
  <text x="235.25423728813558" y="375" class="label" text-anchor="middle">2025-12-13</text>
  <text x="235.25423728813558" y="35.0" class="label" text-anchor="middle">52</text>
  <circle cx="241.3559322033898" cy="40.0" class="point"/>
  <text x="241.3559322033898" y="375" class="label" text-anchor="middle">2025-12-14</text>
  <text x="241.3559322033898" y="35.0" class="label" text-anchor="middle">52</text>
  <circle cx="247.45762711864407" cy="40.0" class="point"/>
  <text x="247.45762711864407" y="375" class="label" text-anchor="middle">2025-12-15</text>
  <text x="247.45762711864407" y="35.0" class="label" text-anchor="middle">52</text>
  <circle cx="253.5593220338983" cy="40.0" class="point"/>
  <text x="253.5593220338983" y="375" class="label" text-anchor="middle">2025-12-16</text>
  <text x="253.5593220338983" y="35.0" class="label" text-anchor="middle">52</text>
  <circle cx="259.66101694915255" cy="40.0" class="point"/>
  <text x="259.66101694915255" y="375" class="label" text-anchor="middle">2025-12-17</text>
  <text x="259.66101694915255" y="35.0" class="label" text-anchor="middle">52</text>
  <circle cx="265.7627118644068" cy="40.0" class="point"/>
  <text x="265.7627118644068" y="375" class="label" text-anchor="middle">2025-12-18</text>
  <text x="265.7627118644068" y="35.0" class="label" text-anchor="middle">52</text>
  <circle cx="271.864406779661" cy="40.0" class="point"/>
  <text x="271.864406779661" y="375" class="label" text-anchor="middle">2025-12-19</text>
  <text x="271.864406779661" y="35.0" class="label" text-anchor="middle">52</text>
  <circle cx="277.96610169491527" cy="40.0" class="point"/>
  <text x="277.96610169491527" y="375" class="label" text-anchor="middle">2025-12-20</text>
  <text x="277.96610169491527" y="35.0" class="label" text-anchor="middle">52</text>
  <circle cx="284.06779661016947" cy="40.0" class="point"/>
  <text x="284.06779661016947" y="375" class="label" text-anchor="middle">2025-12-21</text>
  <text x="284.06779661016947" y="35.0" class="label" text-anchor="middle">52</text>
  <circle cx="290.1694915254237" cy="40.0" class="point"/>
  <text x="290.1694915254237" y="375" class="label" text-anchor="middle">2025-12-22</text>
  <text x="290.1694915254237" y="35.0" class="label" text-anchor="middle">52</text>
  <circle cx="296.271186440678" cy="40.0" class="point"/>
  <text x="296.271186440678" y="375" class="label" text-anchor="middle">2025-12-23</text>
  <text x="296.271186440678" y="35.0" class="label" text-anchor="middle">52</text>
  <circle cx="302.3728813559322" cy="40.0" class="point"/>
  <text x="302.3728813559322" y="375" class="label" text-anchor="middle">2025-12-24</text>
  <text x="302.3728813559322" y="35.0" class="label" text-anchor="middle">52</text>
  <circle cx="308.47457627118644" cy="40.0" class="point"/>
  <text x="308.47457627118644" y="375" class="label" text-anchor="middle">2025-12-25</text>
  <text x="308.47457627118644" y="35.0" class="label" text-anchor="middle">52</text>
  <circle cx="314.5762711864407" cy="40.0" class="point"/>
  <text x="314.5762711864407" y="375" class="label" text-anchor="middle">2025-12-26</text>
  <text x="314.5762711864407" y="35.0" class="label" text-anchor="middle">52</text>
  <circle cx="320.67796610169495" cy="40.0" class="point"/>
  <text x="320.67796610169495" y="375" class="label" text-anchor="middle">2025-12-27</text>
  <text x="320.67796610169495" y="35.0" class="label" text-anchor="middle">52</text>
  <circle cx="326.77966101694915" cy="40.0" class="point"/>
  <text x="326.77966101694915" y="375" class="label" text-anchor="middle">2025-12-28</text>
  <text x="326.77966101694915" y="35.0" class="label" text-anchor="middle">52</text>
  <circle cx="332.8813559322034" cy="40.0" class="point"/>
  <text x="332.8813559322034" y="375" class="label" text-anchor="middle">2025-12-29</text>
  <text x="332.8813559322034" y="35.0" class="label" text-anchor="middle">52</text>
  <circle cx="338.9830508474576" cy="40.0" class="point"/>
  <text x="338.9830508474576" y="375" class="label" text-anchor="middle">2025-12-30</text>
  <text x="338.9830508474576" y="35.0" class="label" text-anchor="middle">52</text>
  <circle cx="345.08474576271186" cy="40.0" class="point"/>
  <text x="345.08474576271186" y="375" class="label" text-anchor="middle">2025-12-31</text>
  <text x="345.08474576271186" y="35.0" class="label" text-anchor="middle">52</text>
  <circle cx="351.1864406779661" cy="40.0" class="point"/>
  <text x="351.1864406779661" y="375" class="label" text-anchor="middle">2026-01-01</text>
  <text x="351.1864406779661" y="35.0" class="label" text-anchor="middle">52</text>
  <circle cx="357.2881355932203" cy="40.0" class="point"/>
  <text x="357.2881355932203" y="375" class="label" text-anchor="middle">2026-01-02</text>
  <text x="357.2881355932203" y="35.0" class="label" text-anchor="middle">52</text>
  <circle cx="363.3898305084746" cy="40.0" class="point"/>
  <text x="363.3898305084746" y="375" class="label" text-anchor="middle">2026-01-03</text>
  <text x="363.3898305084746" y="35.0" class="label" text-anchor="middle">52</text>
  <circle cx="369.49152542372883" cy="40.0" class="point"/>
  <text x="369.49152542372883" y="375" class="label" text-anchor="middle">2026-01-04</text>
  <text x="369.49152542372883" y="35.0" class="label" text-anchor="middle">52</text>
  <circle cx="375.59322033898303" cy="40.0" class="point"/>
  <text x="375.59322033898303" y="375" class="label" text-anchor="middle">2026-01-05</text>
  <text x="375.59322033898303" y="35.0" class="label" text-anchor="middle">52</text>
  <circle cx="381.6949152542373" cy="40.0" class="point"/>
  <text x="381.6949152542373" y="375" class="label" text-anchor="middle">2026-01-06</text>
  <text x="381.6949152542373" y="35.0" class="label" text-anchor="middle">52</text>
  <circle cx="387.79661016949154" cy="40.0" class="point"/>
  <text x="387.79661016949154" y="375" class="label" text-anchor="middle">2026-01-07</text>
  <text x="387.79661016949154" y="35.0" class="label" text-anchor="middle">52</text>
  <circle cx="393.8983050847458" cy="40.0" class="point"/>
  <text x="393.8983050847458" y="375" class="label" text-anchor="middle">2026-01-08</text>
  <text x="393.8983050847458" y="35.0" class="label" text-anchor="middle">52</text>
  <circle cx="400.0" cy="40.0" class="point"/>
  <text x="400.0" y="375" class="label" text-anchor="middle">2026-01-09</text>
  <text x="400.0" y="35.0" class="label" text-anchor="middle">52</text>
  <circle cx="406.1016949152542" cy="40.0" class="point"/>
  <text x="406.1016949152542" y="375" class="label" text-anchor="middle">2026-01-10</text>
  <text x="406.1016949152542" y="35.0" class="label" text-anchor="middle">52</text>
  <circle cx="412.20338983050846" cy="40.0" class="point"/>
  <text x="412.20338983050846" y="375" class="label" text-anchor="middle">2026-01-11</text>
  <text x="412.20338983050846" y="35.0" class="label" text-anchor="middle">52</text>
  <circle cx="418.30508474576277" cy="40.0" class="point"/>
  <text x="418.30508474576277" y="375" class="label" text-anchor="middle">2026-01-12</text>
  <text x="418.30508474576277" y="35.0" class="label" text-anchor="middle">52</text>
  <circle cx="424.40677966101697" cy="40.0" class="point"/>
  <text x="424.40677966101697" y="375" class="label" text-anchor="middle">2026-01-13</text>
  <text x="424.40677966101697" y="35.0" class="label" text-anchor="middle">52</text>
  <circle cx="430.50847457627117" cy="40.0" class="point"/>
  <text x="430.50847457627117" y="375" class="label" text-anchor="middle">2026-01-14</text>
  <text x="430.50847457627117" y="35.0" class="label" text-anchor="middle">52</text>
  <circle cx="436.6101694915254" cy="40.0" class="point"/>
  <text x="436.6101694915254" y="375" class="label" text-anchor="middle">2026-01-15</text>
  <text x="436.6101694915254" y="35.0" class="label" text-anchor="middle">52</text>
  <circle cx="442.7118644067796" cy="40.0" class="point"/>
  <text x="442.7118644067796" y="375" class="label" text-anchor="middle">2026-01-16</text>
  <text x="442.7118644067796" y="35.0" class="label" text-anchor="middle">52</text>
  <circle cx="448.81355932203394" cy="40.0" class="point"/>
  <text x="448.81355932203394" y="375" class="label" text-anchor="middle">2026-01-17</text>
  <text x="448.81355932203394" y="35.0" class="label" text-anchor="middle">52</text>
  <circle cx="454.91525423728814" cy="40.0" class="point"/>
  <text x="454.91525423728814" y="375" class="label" text-anchor="middle">2026-01-18</text>
  <text x="454.91525423728814" y="35.0" class="label" text-anchor="middle">52</text>
  <circle cx="461.0169491525424" cy="40.0" class="point"/>
  <text x="461.0169491525424" y="375" class="label" text-anchor="middle">2026-01-19</text>
  <text x="461.0169491525424" y="35.0" class="label" text-anchor="middle">52</text>
  <circle cx="467.1186440677966" cy="40.0" class="point"/>
  <text x="467.1186440677966" y="375" class="label" text-anchor="middle">2026-01-20</text>
  <text x="467.1186440677966" y="35.0" class="label" text-anchor="middle">52</text>
  <circle cx="473.2203389830508" cy="40.0" class="point"/>
  <text x="473.2203389830508" y="375" class="label" text-anchor="middle">2026-01-21</text>
  <text x="473.2203389830508" y="35.0" class="label" text-anchor="middle">52</text>
  <circle cx="479.3220338983051" cy="40.0" class="point"/>
  <text x="479.3220338983051" y="375" class="label" text-anchor="middle">2026-01-22</text>
  <text x="479.3220338983051" y="35.0" class="label" text-anchor="middle">52</text>
  <circle cx="485.4237288135593" cy="40.0" class="point"/>
  <text x="485.4237288135593" y="375" class="label" text-anchor="middle">2026-01-23</text>
  <text x="485.4237288135593" y="35.0" class="label" text-anchor="middle">52</text>
  <circle cx="491.52542372881356" cy="40.0" class="point"/>
  <text x="491.52542372881356" y="375" class="label" text-anchor="middle">2026-01-24</text>
  <text x="491.52542372881356" y="35.0" class="label" text-anchor="middle">52</text>
  <circle cx="497.62711864406776" cy="40.0" class="point"/>
  <text x="497.62711864406776" y="375" class="label" text-anchor="middle">2026-01-25</text>
  <text x="497.62711864406776" y="35.0" class="label" text-anchor="middle">52</text>
  <circle cx="503.728813559322" cy="40.0" class="point"/>
  <text x="503.728813559322" y="375" class="label" text-anchor="middle">2026-01-26</text>
  <text x="503.728813559322" y="35.0" class="label" text-anchor="middle">52</text>
  <circle cx="509.8305084745763" cy="40.0" class="point"/>
  <text x="509.8305084745763" y="375" class="label" text-anchor="middle">2026-01-27</text>
  <text x="509.8305084745763" y="35.0" class="label" text-anchor="middle">52</text>
  <circle cx="515.9322033898305" cy="40.0" class="point"/>
  <text x="515.9322033898305" y="375" class="label" text-anchor="middle">2026-01-28</text>
  <text x="515.9322033898305" y="35.0" class="label" text-anchor="middle">52</text>
  <circle cx="522.0338983050847" cy="40.0" class="point"/>
  <text x="522.0338983050847" y="375" class="label" text-anchor="middle">2026-01-29</text>
  <text x="522.0338983050847" y="35.0" class="label" text-anchor="middle">52</text>
  <circle cx="528.1355932203389" cy="40.0" class="point"/>
  <text x="528.1355932203389" y="375" class="label" text-anchor="middle">2026-01-30</text>
  <text x="528.1355932203389" y="35.0" class="label" text-anchor="middle">52</text>
  <circle cx="534.2372881355932" cy="40.0" class="point"/>
  <text x="534.2372881355932" y="375" class="label" text-anchor="middle">2026-01-31</text>
  <text x="534.2372881355932" y="35.0" class="label" text-anchor="middle">52</text>
  <circle cx="540.3389830508474" cy="40.0" class="point"/>
  <text x="540.3389830508474" y="375" class="label" text-anchor="middle">2026-02-01</text>
  <text x="540.3389830508474" y="35.0" class="label" text-anchor="middle">52</text>
  <circle cx="546.4406779661017" cy="40.0" class="point"/>
  <text x="546.4406779661017" y="375" class="label" text-anchor="middle">2026-02-02</text>
  <text x="546.4406779661017" y="35.0" class="label" text-anchor="middle">52</text>
  <circle cx="552.542372881356" cy="40.0" class="point"/>
  <text x="552.542372881356" y="375" class="label" text-anchor="middle">2026-02-03</text>
  <text x="552.542372881356" y="35.0" class="label" text-anchor="middle">52</text>
  <circle cx="558.6440677966101" cy="40.0" class="point"/>
  <text x="558.6440677966101" y="375" class="label" text-anchor="middle">2026-02-04</text>
  <text x="558.6440677966101" y="35.0" class="label" text-anchor="middle">52</text>
  <circle cx="564.7457627118644" cy="40.0" class="point"/>
  <text x="564.7457627118644" y="375" class="label" text-anchor="middle">2026-02-05</text>
  <text x="564.7457627118644" y="35.0" class="label" text-anchor="middle">52</text>
  <circle cx="570.8474576271186" cy="40.0" class="point"/>
  <text x="570.8474576271186" y="375" class="label" text-anchor="middle">2026-02-06</text>
  <text x="570.8474576271186" y="35.0" class="label" text-anchor="middle">52</text>
  <circle cx="576.9491525423729" cy="40.0" class="point"/>
  <text x="576.9491525423729" y="375" class="label" text-anchor="middle">2026-02-07</text>
  <text x="576.9491525423729" y="35.0" class="label" text-anchor="middle">52</text>
  <circle cx="583.0508474576271" cy="40.0" class="point"/>
  <text x="583.0508474576271" y="375" class="label" text-anchor="middle">2026-02-08</text>
  <text x="583.0508474576271" y="35.0" class="label" text-anchor="middle">52</text>
  <circle cx="589.1525423728814" cy="40.0" class="point"/>
  <text x="589.1525423728814" y="375" class="label" text-anchor="middle">2026-02-09</text>
  <text x="589.1525423728814" y="35.0" class="label" text-anchor="middle">52</text>
  <circle cx="595.2542372881356" cy="40.0" class="point"/>
  <text x="595.2542372881356" y="375" class="label" text-anchor="middle">2026-02-10</text>
  <text x="595.2542372881356" y="35.0" class="label" text-anchor="middle">52</text>
  <circle cx="601.3559322033899" cy="40.0" class="point"/>
  <text x="601.3559322033899" y="375" class="label" text-anchor="middle">2026-02-11</text>
  <text x="601.3559322033899" y="35.0" class="label" text-anchor="middle">52</text>
  <circle cx="607.457627118644" cy="40.0" class="point"/>
  <text x="607.457627118644" y="375" class="label" text-anchor="middle">2026-02-12</text>
  <text x="607.457627118644" y="35.0" class="label" text-anchor="middle">52</text>
  <circle cx="613.5593220338983" cy="40.0" class="point"/>
  <text x="613.5593220338983" y="375" class="label" text-anchor="middle">2026-02-13</text>
  <text x="613.5593220338983" y="35.0" class="label" text-anchor="middle">52</text>
  <circle cx="619.6610169491526" cy="40.0" class="point"/>
  <text x="619.6610169491526" y="375" class="label" text-anchor="middle">2026-02-14</text>
  <text x="619.6610169491526" y="35.0" class="label" text-anchor="middle">52</text>
  <circle cx="625.7627118644068" cy="40.0" class="point"/>
  <text x="625.7627118644068" y="375" class="label" text-anchor="middle">2026-02-15</text>
  <text x="625.7627118644068" y="35.0" class="label" text-anchor="middle">52</text>
  <circle cx="631.8644067796611" cy="40.0" class="point"/>
  <text x="631.8644067796611" y="375" class="label" text-anchor="middle">2026-02-16</text>
  <text x="631.8644067796611" y="35.0" class="label" text-anchor="middle">52</text>
  <circle cx="637.9661016949152" cy="40.0" class="point"/>
  <text x="637.9661016949152" y="375" class="label" text-anchor="middle">2026-02-17</text>
  <text x="637.9661016949152" y="35.0" class="label" text-anchor="middle">52</text>
  <circle cx="644.0677966101695" cy="40.0" class="point"/>
  <text x="644.0677966101695" y="375" class="label" text-anchor="middle">2026-02-18</text>
  <text x="644.0677966101695" y="35.0" class="label" text-anchor="middle">52</text>
  <circle cx="650.1694915254237" cy="40.0" class="point"/>
  <text x="650.1694915254237" y="375" class="label" text-anchor="middle">2026-02-19</text>
  <text x="650.1694915254237" y="35.0" class="label" text-anchor="middle">52</text>
  <circle cx="656.271186440678" cy="40.0" class="point"/>
  <text x="656.271186440678" y="375" class="label" text-anchor="middle">2026-02-20</text>
  <text x="656.271186440678" y="35.0" class="label" text-anchor="middle">52</text>
  <circle cx="662.3728813559322" cy="40.0" class="point"/>
  <text x="662.3728813559322" y="375" class="label" text-anchor="middle">2026-02-21</text>
  <text x="662.3728813559322" y="35.0" class="label" text-anchor="middle">52</text>
  <circle cx="668.4745762711865" cy="40.0" class="point"/>
  <text x="668.4745762711865" y="375" class="label" text-anchor="middle">2026-02-22</text>
  <text x="668.4745762711865" y="35.0" class="label" text-anchor="middle">52</text>
  <circle cx="674.5762711864406" cy="40.0" class="point"/>
  <text x="674.5762711864406" y="375" class="label" text-anchor="middle">2026-02-23</text>
  <text x="674.5762711864406" y="35.0" class="label" text-anchor="middle">52</text>
  <circle cx="680.6779661016949" cy="40.0" class="point"/>
  <text x="680.6779661016949" y="375" class="label" text-anchor="middle">2026-02-24</text>
  <text x="680.6779661016949" y="35.0" class="label" text-anchor="middle">52</text>
  <circle cx="686.7796610169491" cy="40.0" class="point"/>
  <text x="686.7796610169491" y="375" class="label" text-anchor="middle">2026-02-25</text>
  <text x="686.7796610169491" y="35.0" class="label" text-anchor="middle">52</text>
  <circle cx="692.8813559322034" cy="40.0" class="point"/>
  <text x="692.8813559322034" y="375" class="label" text-anchor="middle">2026-02-26</text>
  <text x="692.8813559322034" y="35.0" class="label" text-anchor="middle">52</text>
  <circle cx="698.9830508474577" cy="40.0" class="point"/>
  <text x="698.9830508474577" y="375" class="label" text-anchor="middle">2026-02-27</text>
  <text x="698.9830508474577" y="35.0" class="label" text-anchor="middle">52</text>
  <circle cx="705.0847457627118" cy="40.0" class="point"/>
  <text x="705.0847457627118" y="375" class="label" text-anchor="middle">2026-02-28</text>
  <text x="705.0847457627118" y="35.0" class="label" text-anchor="middle">52</text>
  <circle cx="711.1864406779661" cy="40.0" class="point"/>
  <text x="711.1864406779661" y="375" class="label" text-anchor="middle">2026-03-01</text>
  <text x="711.1864406779661" y="35.0" class="label" text-anchor="middle">52</text>
  <circle cx="717.2881355932203" cy="40.0" class="point"/>
  <text x="717.2881355932203" y="375" class="label" text-anchor="middle">2026-03-02</text>
  <text x="717.2881355932203" y="35.0" class="label" text-anchor="middle">52</text>
  <circle cx="723.3898305084746" cy="40.0" class="point"/>
  <text x="723.3898305084746" y="375" class="label" text-anchor="middle">2026-03-03</text>
  <text x="723.3898305084746" y="35.0" class="label" text-anchor="middle">52</text>
  <circle cx="729.4915254237288" cy="40.0" class="point"/>
  <text x="729.4915254237288" y="375" class="label" text-anchor="middle">2026-03-04</text>
  <text x="729.4915254237288" y="35.0" class="label" text-anchor="middle">52</text>
  <circle cx="735.5932203389831" cy="40.0" class="point"/>
  <text x="735.5932203389831" y="375" class="label" text-anchor="middle">2026-03-05</text>
  <text x="735.5932203389831" y="35.0" class="label" text-anchor="middle">52</text>
  <circle cx="741.6949152542372" cy="40.0" class="point"/>
  <text x="741.6949152542372" y="375" class="label" text-anchor="middle">2026-03-06</text>
  <text x="741.6949152542372" y="35.0" class="label" text-anchor="middle">52</text>
  <circle cx="747.7966101694916" cy="40.0" class="point"/>
  <text x="747.7966101694916" y="375" class="label" text-anchor="middle">2026-03-07</text>
  <text x="747.7966101694916" y="35.0" class="label" text-anchor="middle">52</text>
  <circle cx="753.8983050847457" cy="40.0" class="point"/>
  <text x="753.8983050847457" y="375" class="label" text-anchor="middle">2026-03-08</text>
  <text x="753.8983050847457" y="35.0" class="label" text-anchor="middle">52</text>
  <circle cx="760.0" cy="40.0" class="point"/>
  <text x="760.0" y="375" class="label" text-anchor="middle">2026-03-09</text>
  <text x="760.0" y="35.0" class="label" text-anchor="middle">52</text>
  <text x="30" y="363.0" class="label" text-anchor="end">0</text>
  <text x="30" y="301.46153846153845" class="label" text-anchor="end">10</text>
  <text x="30" y="239.9230769230769" class="label" text-anchor="end">20</text>
  <text x="30" y="178.38461538461542" class="label" text-anchor="end">30</text>
  <text x="30" y="116.84615384615384" class="label" text-anchor="end">40</text>
  <text x="30" y="55.30769230769232" class="label" text-anchor="end">50</text>
</svg>