<svg xmlns="http://www.w3.org/2000/svg" width="800" height="400" viewBox="0 0 800 400">
  <style>
    .axis{stroke:#666;stroke-width:1}
    .line{stroke:#4a9;stroke-width:2;fill:none}
    .point{fill:#4a9;r:4}
    .label{font:10px sans-serif;fill:#aaa}
    .title{font:14px sans-serif;fill:#333}
  </style>
  <text x="400" y="20" class="title" text-anchor="middle">OPIC Field Growth Timeline</text>
  <line x1="40" y1="40" x2="40" y2="360" class="axis"/>
  <line x1="40" y1="360" x2="760" y2="360" class="axis"/>
  <path d="M 40.0,101.53846153846155 L 44.89795918367347,101.53846153846155 L 49.79591836734694,101.53846153846155 L 54.69387755102041,101.53846153846155 L 59.59183673469388,101.53846153846155 L 64.48979591836735,101.53846153846155 L 69.38775510204081,101.53846153846155 L 74.28571428571428,101.53846153846155 L 79.18367346938776,101.53846153846155 L 84.08163265306122,101.53846153846155 L 88.9795918367347,101.53846153846155 L 93.87755102040816,101.53846153846155 L 98.77551020408163,101.53846153846155 L 103.6734693877551,101.53846153846155 L 108.57142857142857,101.53846153846155 L 113.46938775510205,101.53846153846155 L 118.36734693877551,101.53846153846155 L 123.26530612244898,101.53846153846155 L 128.16326530612244,101.53846153846155 L 133.0612244897959,101.53846153846155 L 137.9591836734694,101.53846153846155 L 142.85714285714283,101.53846153846155 L 147.75510204081633,101.53846153846155 L 152.65306122448982,101.53846153846155 L 157.55102040816325,101.53846153846155 L 162.44897959183675,101.53846153846155 L 167.3469387755102,101.53846153846155 L 172.24489795918367,40.0 L 177.14285714285714,40.0 L 182.0408163265306,40.0 L 186.9387755102041,40.0 L 191.83673469387756,40.0 L 196.73469387755102,40.0 L 201.6326530612245,40.0 L 206.53061224489795,40.0 L 211.42857142857142,40.0 L 216.32653061224488,40.0 L 221.22448979591837,40.0 L 226.12244897959184,40.0 L 231.02040816326533,40.0 L 235.9183673469388,40.0 L 240.81632653061223,40.0 L 245.7142857142857,40.0 L 250.6122448979592,40.0 L 255.51020408163265,40.0 L 260.40816326530614,40.0 L 265.30612244897964,40.0 L 270.2040816326531,40.0 L 275.1020408163265,40.0 L 280.0,40.0 L 284.8979591836735,40.0 L 289.7959183673469,40.0 L 294.6938775510204,40.0 L 299.5918367346939,40.0 L 304.48979591836735,40.0 L 309.38775510204084,40.0 L 314.2857142857143,40.0 L 319.18367346938777,40.0 L 324.0816326530612,40.0 L 328.9795918367347,40.0 L 333.8775510204082,40.0 L 338.7755102040816,40.0 L 343.6734693877551,40.0 L 348.57142857142856,40.0 L 353.46938775510205,40.0 L 358.3673469387755,40.0 L 363.265306122449,40.0 L 368.16326530612247,40.0 L 373.0612244897959,40.0 L 377.9591836734694,40.0 L 382.85714285714283,40.0 L 387.7551020408163,40.0 L 392.65306122448976,40.0 L 397.55102040816325,40.0 L 402.44897959183675,40.0 L 407.34693877551024,40.0 L 412.2448979591837,40.0 L 417.14285714285717,40.0 L 422.04081632653066,40.0 L 426.9387755102041,40.0 L 431.8367346938776,40.0 L 436.73469387755097,40.0 L 441.63265306122446,40.0 L 446.53061224489795,40.0 L 451.4285714285714,40.0 L 456.3265306122449,40.0 L 461.2244897959184,40.0 L 466.1224489795918,40.0 L 471.0204081632653,40.0 L 475.9183673469388,40.0 L 480.81632653061223,40.0 L 485.7142857142857,40.0 L 490.6122448979592,40.0 L 495.51020408163265,40.0 L 500.40816326530614,40.0 L 505.30612244897964,40.0 L 510.204081632653,40.0 L 515.1020408163265,40.0 L 520.0,40.0 L 524.8979591836735,40.0 L 529.795918367347,40.0 L 534.6938775510205,40.0 L 539.5918367346939,40.0 L 544.4897959183673,40.0 L 549.3877551020408,40.0 L 554.2857142857143,40.0 L 559.1836734693878,40.0 L 564.0816326530612,40.0 L 568.9795918367347,40.0 L 573.8775510204082,40.0 L 578.7755102040817,40.0 L 583.6734693877551,40.0 L 588.5714285714286,40.0 L 593.469387755102,40.0 L 598.3673469387755,40.0 L 603.2653061224489,40.0 L 608.1632653061224,40.0 L 613.0612244897959,40.0 L 617.9591836734694,40.0 L 622.8571428571429,40.0 L 627.7551020408164,40.0 L 632.6530612244898,40.0 L 637.5510204081633,40.0 L 642.4489795918367,40.0 L 647.3469387755102,40.0 L 652.2448979591836,40.0 L 657.1428571428571,40.0 L 662.0408163265306,40.0 L 666.9387755102041,40.0 L 671.8367346938776,40.0 L 676.734693877551,40.0 L 681.6326530612245,40.0 L 686.530612244898,40.0 L 691.4285714285714,40.0 L 696.3265306122449,40.0 L 701.2244897959184,40.0 L 706.1224489795918,40.0 L 711.0204081632653,40.0 L 715.9183673469388,40.0 L 720.8163265306123,40.0 L 725.7142857142857,40.0 L 730.6122448979592,40.0 L 735.5102040816327,40.0 L 740.4081632653061,40.0 L 745.3061224489795,40.0 L 750.204081632653,40.0 L 755.1020408163265,40.0 L 760.0,40.0" class="line"/>
  <circle cx="40.0" cy="101.53846153846155" class="point"/>
  <text x="40.0" y="375" class="label" text-anchor="middle">2025-11-11</text>
  <text x="40.0" y="96.53846153846155" class="label" text-anchor="middle">42</text>
  <circle cx="44.89795918367347" cy="101.53846153846155" class="point"/>
  <text x="44.89795918367347" y="375" class="label" text-anchor="middle">2025-11-12</text>
  <text x="44.89795918367347" y="96.53846153846155" class="label" text-anchor="middle">42</text>
  <circle cx="49.79591836734694" cy="101.53846153846155" class="point"/>
  <text x="49.79591836734694" y="375" class="label" text-anchor="middle">2025-11-13</text>
  <text x="49.79591836734694" y="96.53846153846155" class="label" text-anchor="middle">42</text>
  <circle cx="54.69387755102041" cy="101.53846153846155" class="point"/>
  <text x="54.69387755102041" y="375" class="label" text-anchor="middle">2025-11-14</text>
  <text x="54.69387755102041" y="96.53846153846155" class="label" text-anchor="middle">42</text>
  <circle cx="59.59183673469388" cy="101.53846153846155" class="point"/>
  <text x="59.59183673469388" y="375" class="label" text-anchor="middle">2025-11-15</text>
  <text x="59.59183673469388" y="96.53846153846155" class="label" text-anchor="middle">42</text>
  <circle cx="64.48979591836735" cy="101.53846153846155" class="point"/>
  <text x="64.48979591836735" y="375" class="label" text-anchor="middle">2025-11-16</text>
  <text x="64.48979591836735" y="96.53846153846155" class="label" text-anchor="middle">42</text>
  <circle cx="69.38775510204081" cy="101.53846153846155" class="point"/>
  <text x="69.38775510204081" y="375" class="label" text-anchor="middle">2025-11-17</text>
  <text x="69.38775510204081" y="96.53846153846155" class="label" text-anchor="middle">42</text>
  <circle cx="74.28571428571428" cy="101.53846153846155" class="point"/>
  <text x="74.28571428571428" y="375" class="label" text-anchor="middle">2025-11-18</text>
  <text x="74.28571428571428" y="96.53846153846155" class="label" text-anchor="middle">42</text>
  <circle cx="79.18367346938776" cy="101.53846153846155" class="point"/>
  <text x="79.18367346938776" y="375" class="label" text-anchor="middle">2025-11-19</text>
  <text x="79.18367346938776" y="96.53846153846155" class="label" text-anchor="middle">42</text>
  <circle cx="84.08163265306122" cy="101.53846153846155" class="point"/>
  <text x="84.08163265306122" y="375" class="label" text-anchor="middle">2025-11-20</text>
  <text x="84.08163265306122" y="96.53846153846155" class="label" text-anchor="middle">42</text>
  <circle cx="88.9795918367347" cy="101.53846153846155" class="point"/>
  <text x="88.9795918367347" y="375" class="label" text-anchor="middle">2025-11-21</text>
  <text x="88.9795918367347" y="96.53846153846155" class="label" text-anchor="middle">42</text>
  <circle cx="93.87755102040816" cy="101.53846153846155" class="point"/>
  <text x="93.87755102040816" y="375" class="label" text-anchor="middle">2025-11-22</text>
  <text x="93.87755102040816" y="96.53846153846155" class="label" text-anchor="middle">42</text>
  <circle cx="98.77551020408163" cy="101.53846153846155" class="point"/>
  <text x="98.77551020408163" y="375" class="label" text-anchor="middle">2025-11-23</text>
  <text x="98.77551020408163" y="96.53846153846155" class="label" text-anchor="middle">42</text>
  <circle cx="103.6734693877551" cy="101.53846153846155" class="point"/>
  <text x="103.6734693877551" y="375" class="label" text-anchor="middle">2025-11-24</text>
  <text x="103.6734693877551" y="96.53846153846155" class="label" text-anchor="middle">42</text>
  <circle cx="108.57142857142857" cy="101.53846153846155" class="point"/>
  <text x="108.57142857142857" y="375" class="label" text-anchor="middle">2025-11-25</text>
  <text x="108.57142857142857" y="96.53846153846155" class="label" text-anchor="middle">42</text>
  <circle cx="113.46938775510205" cy="101.53846153846155" class="point"/>
  <text x="113.46938775510205" y="375" class="label" text-anchor="middle">2025-11-26</text>
  <text x="113.46938775510205" y="96.53846153846155" class="label" text-anchor="middle">42</text>
  <circle cx="118.36734693877551" cy="101.53846153846155" class="point"/>
  <text x="118.36734693877551" y="375" class="label" text-anchor="middle">2025-11-27</text>
  <text x="118.36734693877551" y="96.53846153846155" class="label" text-anchor="middle">42</text>
  <circle cx="123.26530612244898" cy="101.53846153846155" class="point"/>
  <text x="123.26530612244898" y="375" class="label" text-anchor="middle">2025-11-28</text>
  <text x="123.26530612244898" y="96.53846153846155" class="label" text-anchor="middle">42</text>
  <circle cx="128.16326530612244" cy="101.53846153846155" class="point"/>
  <text x="128.16326530612244" y="375" class="label" text-anchor="middle">2025-11-29</text>
  <text x="128.16326530612244" y="96.53846153846155" class="label" text-anchor="middle">42</text>
  <circle cx="133.0612244897959" cy="101.53846153846155" class="point"/>
  <text x="133.0612244897959" y="375" class="label" text-anchor="middle">2025-11-30</text>
  <text x="133.0612244897959" y="96.53846153846155" class="label" text-anchor="middle">42</text>
  <circle cx="137.9591836734694" cy="101.53846153846155" class="point"/>
  <text x="137.9591836734694" y="375" class="label" text-anchor="middle">2025-12-01</text>
  <text x="137.9591836734694" y="96.53846153846155" class="label" text-anchor="middle">42</text>
  <circle cx="142.85714285714283" cy="101.53846153846155" class="point"/>
  <text x="142.85714285714283" y="375" class="label" text-anchor="middle">2025-12-02</text>
  <text x="142.85714285714283" y="96.53846153846155" class="label" text-anchor="middle">42</text>
  <circle cx="147.75510204081633" cy="101.53846153846155" class="point"/>
  <text x="147.75510204081633" y="375" class="label" text-anchor="middle">2025-12-03</text>
  <text x="147.75510204081633" y="96.53846153846155" class="label" text-anchor="middle">42</text>
  <circle cx="152.65306122448982" cy="101.53846153846155" class="point"/>
  <text x="152.65306122448982" y="375" class="label" text-anchor="middle">2025-12-04</text>
  <text x="152.65306122448982" y="96.53846153846155" class="label" text-anchor="middle">42</text>
  <circle cx="157.55102040816325" cy="101.53846153846155" class="point"/>
  <text x="157.55102040816325" y="375" class="label" text-anchor="middle">2025-12-05</text>
  <text x="157.55102040816325" y="96.53846153846155" class="label" text-anchor="middle">42</text>
  <circle cx="162.44897959183675" cy="101.53846153846155" class="point"/>
  <text x="162.44897959183675" y="375" class="label" text-anchor="middle">2025-12-06</text>
  <text x="162.44897959183675" y="96.53846153846155" class="label" text-anchor="middle">42</text>
  <circle cx="167.3469387755102" cy="101.53846153846155" class="point"/>
  <text x="167.3469387755102" y="375" class="label" text-anchor="middle">2025-12-07</text>
  <text x="167.3469387755102" y="96.53846153846155" class="label" text-anchor="middle">42</text>
  <circle cx="172.24489795918367" cy="40.0" class="point"/>
  <text x="172.24489795918367" y="375" class="label" text-anchor="middle">2025-12-08</text>
  <text x="172.24489795918367" y="35.0" class="label" text-anchor="middle">52</text>
  <circle cx="177.14285714285714" cy="40.0" class="point"/>
  <text x="177.14285714285714" y="375" class="label" text-anchor="middle">2025-12-09</text>
  <text x="177.14285714285714" y="35.0" class="label" text-anchor="middle">52</text>
  <circle cx="182.0408163265306" cy="40.0" class="point"/>
  <text x="182.0408163265306" y="375" class="label" text-anchor="middle">2025-12-10</text>
  <text x="182.0408163265306" y="35.0" class="label" text-anchor="middle">52</text>
  <circle cx="186.9387755102041" cy="40.0" class="point"/>
  <text x="186.9387755102041" y="375" class="label" text-anchor="middle">2025-12-11</text>
  <text x="186.9387755102041" y="35.0" class="label" text-anchor="middle">52</text>
  <circle cx="191.83673469387756" cy="40.0" class="point"/>
  <text x="191.83673469387756" y="375" class="label" text-anchor="middle">2025-12-12</text>
  <text x="191.83673469387756" y="35.0" class="label" text-anchor="middle">52</text>
  <circle cx="196.73469387755102" cy="40.0" class="point"/>
  <text x="196.73469387755102" y="375" class="label" text-anchor="middle">2025-12-13</text>
  <text x="196.73469387755102" y="35.0" class="label" text-anchor="middle">52</text>
  <circle cx="201.6326530612245" cy="40.0" class="point"/>
  <text x="201.6326530612245" y="375" class="label" text-anchor="middle">2025-12-14</text>
  <text x="201.6326530612245" y="35.0" class="label" text-anchor="middle">52</text>
  <circle cx="206.53061224489795" cy="40.0" class="point"/>
  <text x="206.53061224489795" y="375" class="label" text-anchor="middle">2025-12-15</text>
  <text x="206.53061224489795" y="35.0" class="label" text-anchor="middle">52</text>
  <circle cx="211.42857142857142" cy="40.0" class="point"/>
  <text x="211.42857142857142" y="375" class="label" text-anchor="middle">2025-12-16</text>
  <text x="211.42857142857142" y="35.0" class="label" text-anchor="middle">52</text>
  <circle cx="216.32653061224488" cy="40.0" class="point"/>
  <text x="216.32653061224488" y="375" class="label" text-anchor="middle">2025-12-17</text>
  <text x="216.32653061224488" y="35.0" class="label" text-anchor="middle">52</text>
  <circle cx="221.22448979591837" cy="40.0" class="point"/>
  <text x="221.22448979591837" y="375" class="label" text-anchor="middle">2025-12-18</text>
  <text x="221.22448979591837" y="35.0" class="label" text-anchor="middle">52</text>
  <circle cx="226.12244897959184" cy="40.0" class="point"/>
  <text x="226.12244897959184" y="375" class="label" text-anchor="middle">2025-12-19</text>
  <text x="226.12244897959184" y="35.0" class="label" text-anchor="middle">52</text>
  <circle cx="231.02040816326533" cy="40.0" class="point"/>
  <text x="231.02040816326533" y="375" class="label" text-anchor="middle">2025-12-20</text>
  <text x="231.02040816326533" y="35.0" class="label" text-anchor="middle">52</text>
  <circle cx="235.9183673469388" cy="40.0" class="point"/>
  <text x="235.9183673469388" y="375" class="label" text-anchor="middle">2025-12-21</text>
  <text x="235.9183673469388" y="35.0" class="label" text-anchor="middle">52</text>
  <circle cx="240.81632653061223" cy="40.0" class="point"/>
  <text x="240.81632653061223" y="375" class="label" text-anchor="middle">2025-12-22</text>
  <text x="240.81632653061223" y="35.0" class="label" text-anchor="middle">52</text>
  <circle cx="245.7142857142857" cy="40.0" class="point"/>
  <text x="245.7142857142857" y="375" class="label" text-anchor="middle">2025-12-23</text>
  <text x="245.7142857142857" y="35.0" class="label" text-anchor="middle">52</text>
  <circle cx="250.6122448979592" cy="40.0" class="point"/>
  <text x="250.6122448979592" y="375" class="label" text-anchor="middle">2025-12-24</text>
  <text x="250.6122448979592" y="35.0" class="label" text-anchor="middle">52</text>
  <circle cx="255.51020408163265" cy="40.0" class="point"/>
  <text x="255.51020408163265" y="375" class="label" text-anchor="middle">2025-12-25</text>
  <text x="255.51020408163265" y="35.0" class="label" text-anchor="middle">52</text>
  <circle cx="260.40816326530614" cy="40.0" class="point"/>
  <text x="260.40816326530614" y="375" class="label" text-anchor="middle">2025-12-26</text>
  <text x="260.40816326530614" y="35.0" class="label" text-anchor="middle">52</text>
  <circle cx="265.30612244897964" cy="40.0" class="point"/>
  <text x="265.30612244897964" y="375" class="label" text-anchor="middle">2025-12-27</text>
  <text x="265.30612244897964" y="35.0" class="label" text-anchor="middle">52</text>
  <circle cx="270.2040816326531" cy="40.0" class="point"/>
  <text x="270.2040816326531" y="375" class="label" text-anchor="middle">2025-12-28</text>
  <text x="270.2040816326531" y="35.0" class="label" text-anchor="middle">52</text>
  <circle cx="275.1020408163265" cy="40.0" class="point"/>
  <text x="275.1020408163265" y="375" class="label" text-anchor="middle">2025-12-29</text>
  <text x="275.1020408163265" y="35.0" class="label" text-anchor="middle">52</text>
  <circle cx="280.0" cy="40.0" class="point"/>
  <text x="280.0" y="375" class="label" text-anchor="middle">2025-12-30</text>
  <text x="280.0" y="35.0" class="label" text-anchor="middle">52</text>
  <circle cx="284.8979591836735" cy="40.0" class="point"/>
  <text x="284.8979591836735" y="375" class="label" text-anchor="middle">2025-12-31</text>
  <text x="284.8979591836735" y="35.0" class="label" text-anchor="middle">52</text>
  <circle cx="289.7959183673469" cy="40.0" class="point"/>
  <text x="289.7959183673469" y="375" class="label" text-anchor="middle">2026-01-01</text>
  <text x="289.7959183673469" y="35.0" class="label" text-anchor="middle">52</text>
  <circle cx="294.6938775510204" cy="40.0" class="point"/>
  <text x="294.6938775510204" y="375" class="label" text-anchor="middle">2026-01-02</text>
  <text x="294.6938775510204" y="35.0" class="label" text-anchor="middle">52</text>
  <circle cx="299.5918367346939" cy="40.0" class="point"/>
  <text x="299.5918367346939" y="375" class="label" text-anchor="middle">2026-01-03</text>
  <text x="299.5918367346939" y="35.0" class="label" text-anchor="middle">52</text>
  <circle cx="304.48979591836735" cy="40.0" class="point"/>
  <text x="304.48979591836735" y="375" class="label" text-anchor="middle">2026-01-04</text>
  <text x="304.48979591836735" y="35.0" class="label" text-anchor="middle">52</text>
  <circle cx="309.38775510204084" cy="40.0" class="point"/>
  <text x="309.38775510204084" y="375" class="label" text-anchor="middle">2026-01-05</text>
  <text x="309.38775510204084" y="35.0" class="label" text-anchor="middle">52</text>
  <circle cx="314.2857142857143" cy="40.0" class="point"/>
  <text x="314.2857142857143" y="375" class="label" text-anchor="middle">2026-01-06</text>
  <text x="314.2857142857143" y="35.0" class="label" text-anchor="middle">52</text>
  <circle cx="319.18367346938777" cy="40.0" class="point"/>
  <text x="319.18367346938777" y="375" class="label" text-anchor="middle">2026-01-07</text>
  <text x="319.18367346938777" y="35.0" class="label" text-anchor="middle">52</text>
  <circle cx="324.0816326530612" cy="40.0" class="point"/>
  <text x="324.0816326530612" y="375" class="label" text-anchor="middle">2026-01-08</text>
  <text x="324.0816326530612" y="35.0" class="label" text-anchor="middle">52</text>
  <circle cx="328.9795918367347" cy="40.0" class="point"/>
  <text x="328.9795918367347" y="375" class="label" text-anchor="middle">2026-01-09</text>
  <text x="328.9795918367347" y="35.0" class="label" text-anchor="middle">52</text>
  <circle cx="333.8775510204082" cy="40.0" class="point"/>
  <text x="333.8775510204082" y="375" class="label" text-anchor="middle">2026-01-10</text>
  <text x="333.8775510204082" y="35.0" class="label" text-anchor="middle">52</text>
  <circle cx="338.7755102040816" cy="40.0" class="point"/>
  <text x="338.7755102040816" y="375" class="label" text-anchor="middle">2026-01-11</text>
  <text x="338.7755102040816" y="35.0" class="label" text-anchor="middle">52</text>
  <circle cx="343.6734693877551" cy="40.0" class="point"/>
  <text x="343.6734693877551" y="375" class="label" text-anchor="middle">2026-01-12</text>
  <text x="343.6734693877551" y="35.0" class="label" text-anchor="middle">52</text>
  <circle cx="348.57142857142856" cy="40.0" class="point"/>
  <text x="348.57142857142856" y="375" class="label" text-anchor="middle">2026-01-13</text>
  <text x="348.57142857142856" y="35.0" class="label" text-anchor="middle">52</text>
  <circle cx="353.46938775510205" cy="40.0" class="point"/>
  <text x="353.46938775510205" y="375" class="label" text-anchor="middle">2026-01-14</text>
  <text x="353.46938775510205" y="35.0" class="label" text-anchor="middle">52</text>
  <circle cx="358.3673469387755" cy="40.0" class="point"/>
  <text x="358.3673469387755" y="375" class="label" text-anchor="middle">2026-01-15</text>
  <text x="358.3673469387755" y="35.0" class="label" text-anchor="middle">52</text>
  <circle cx="363.265306122449" cy="40.0" class="point"/>
  <text x="363.265306122449" y="375" class="label" text-anchor="middle">2026-01-16</text>
  <text x="363.265306122449" y="35.0" class="label" text-anchor="middle">52</text>
  <circle cx="368.16326530612247" cy="40.0" class="point"/>
  <text x="368.16326530612247" y="375" class="label" text-anchor="middle">2026-01-17</text>
  <text x="368.16326530612247" y="35.0" class="label" text-anchor="middle">52</text>
  <circle cx="373.0612244897959" cy="40.0" class="point"/>
  <text x="373.0612244897959" y="375" class="label" text-anchor="middle">2026-01-18</text>
  <text x="373.0612244897959" y="35.0" class="label" text-anchor="middle">52</text>
  <circle cx="377.9591836734694" cy="40.0" class="point"/>
  <text x="377.9591836734694" y="375" class="label" text-anchor="middle">2026-01-19</text>
  <text x="377.9591836734694" y="35.0" class="label" text-anchor="middle">52</text>
  <circle cx="382.85714285714283" cy="40.0" class="point"/>
  <text x="382.85714285714283" y="375" class="label" text-anchor="middle">2026-01-20</text>
  <text x="382.85714285714283" y="35.0" class="label" text-anchor="middle">52</text>
  <circle cx="387.7551020408163" cy="40.0" class="point"/>
  <text x="387.7551020408163" y="375" class="label" text-anchor="middle">2026-01-21</text>
  <text x="387.7551020408163" y="35.0" class="label" text-anchor="middle">52</text>
  <circle cx="392.65306122448976" cy="40.0" class="point"/>
  <text x="392.65306122448976" y="375" class="label" text-anchor="middle">2026-01-22</text>
  <text x="392.65306122448976" y="35.0" class="label" text-anchor="middle">52</text>
  <circle cx="397.55102040816325" cy="40.0" class="point"/>
  <text x="397.55102040816325" y="375" class="label" text-anchor="middle">2026-01-23</text>
  <text x="397.55102040816325" y="35.0" class="label" text-anchor="middle">52</text>
  <circle cx="402.44897959183675" cy="40.0" class="point"/>
  <text x="402.44897959183675" y="375" class="label" text-anchor="middle">2026-01-24</text>
  <text x="402.44897959183675" y="35.0" class="label" text-anchor="middle">52</text>
  <circle cx="407.34693877551024" cy="40.0" class="point"/>
  <text x="407.34693877551024" y="375" class="label" text-anchor="middle">2026-01-25</text>
  <text x="407.34693877551024" y="35.0" class="label" text-anchor="middle">52</text>
  <circle cx="412.2448979591837" cy="40.0" class="point"/>
  <text x="412.2448979591837" y="375" class="label" text-anchor="middle">2026-01-26</text>
  <text x="412.2448979591837" y="35.0" class="label" text-anchor="middle">52</text>
  <circle cx="417.14285714285717" cy="40.0" class="point"/>
  <text x="417.14285714285717" y="375" class="label" text-anchor="middle">2026-01-27</text>
  <text x="417.14285714285717" y="35.0" class="label" text-anchor="middle">52</text>
  <circle cx="422.04081632653066" cy="40.0" class="point"/>
  <text x="422.04081632653066" y="375" class="label" text-anchor="middle">2026-01-28</text>
  <text x="422.04081632653066" y="35.0" class="label" text-anchor="middle">52</text>
  <circle cx="426.9387755102041" cy="40.0" class="point"/>
  <text x="426.9387755102041" y="375" class="label" text-anchor="middle">2026-01-29</text>
  <text x="426.9387755102041" y="35.0" class="label" text-anchor="middle">52</text>
  <circle cx="431.8367346938776" cy="40.0" class="point"/>
  <text x="431.8367346938776" y="375" class="label" text-anchor="middle">2026-01-30</text>
  <text x="431.8367346938776" y="35.0" class="label" text-anchor="middle">52</text>
  <circle cx="436.73469387755097" cy="40.0" class="point"/>
  <text x="436.73469387755097" y="375" class="label" text-anchor="middle">2026-01-31</text>
  <text x="436.73469387755097" y="35.0" class="label" text-anchor="middle">52</text>
  <circle cx="441.63265306122446" cy="40.0" class="point"/>
  <text x="441.63265306122446" y="375" class="label" text-anchor="middle">2026-02-01</text>
  <text x="441.63265306122446" y="35.0" class="label" text-anchor="middle">52</text>
  <circle cx="446.53061224489795" cy="40.0" class="point"/>
  <text x="446.53061224489795" y="375" class="label" text-anchor="middle">2026-02-02</text>
  <text x="446.53061224489795" y="35.0" class="label" text-anchor="middle">52</text>
  <circle cx="451.4285714285714" cy="40.0" class="point"/>
  <text x="451.4285714285714" y="375" class="label" text-anchor="middle">2026-02-03</text>
  <text x="451.4285714285714" y="35.0" class="label" text-anchor="middle">52</text>
  <circle cx="456.3265306122449" cy="40.0" class="point"/>
  <text x="456.3265306122449" y="375" class="label" text-anchor="middle">2026-02-04</text>
  <text x="456.3265306122449" y="35.0" class="label" text-anchor="middle">52</text>
  <circle cx="461.2244897959184" cy="40.0" class="point"/>
  <text x="461.2244897959184" y="375" class="label" text-anchor="middle">2026-02-05</text>
  <text x="461.2244897959184" y="35.0" class="label" text-anchor="middle">52</text>
  <circle cx="466.1224489795918" cy="40.0" class="point"/>
  <text x="466.1224489795918" y="375" class="label" text-anchor="middle">2026-02-06</text>
  <text x="466.1224489795918" y="35.0" class="label" text-anchor="middle">52</text>
  <circle cx="471.0204081632653" cy="40.0" class="point"/>
  <text x="471.0204081632653" y="375" class="label" text-anchor="middle">2026-02-07</text>
  <text x="471.0204081632653" y="35.0" class="label" text-anchor="middle">52</text>
  <circle cx="475.9183673469388" cy="40.0" class="point"/>
  <text x="475.9183673469388" y="375" class="label" text-anchor="middle">2026-02-08</text>
  <text x="475.9183673469388" y="35.0" class="label" text-anchor="middle">52</text>
  <circle cx="480.81632653061223" cy="40.0" class="point"/>
  <text x="480.81632653061223" y="375" class="label" text-anchor="middle">2026-02-09</text>
  <text x="480.81632653061223" y="35.0" class="label" text-anchor="middle">52</text>
  <circle cx="485.7142857142857" cy="40.0" class="point"/>
  <text x="485.7142857142857" y="375" class="label" text-anchor="middle">2026-02-10</text>
  <text x="485.7142857142857" y="35.0" class="label" text-anchor="middle">52</text>
  <circle cx="490.6122448979592" cy="40.0" class="point"/>
  <text x="490.6122448979592" y="375" class="label" text-anchor="middle">2026-02-11</text>
  <text x="490.6122448979592" y="35.0" class="label" text-anchor="middle">52</text>
  <circle cx="495.51020408163265" cy="40.0" class="point"/>
  <text x="495.51020408163265" y="375" class="label" text-anchor="middle">2026-02-12</text>
  <text x="495.51020408163265" y="35.0" class="label" text-anchor="middle">52</text>
  <circle cx="500.40816326530614" cy="40.0" class="point"/>
  <text x="500.40816326530614" y="375" class="label" text-anchor="middle">2026-02-13</text>
  <text x="500.40816326530614" y="35.0" class="label" text-anchor="middle">52</text>
  <circle cx="505.30612244897964" cy="40.0" class="point"/>
  <text x="505.30612244897964" y="375" class="label" text-anchor="middle">2026-02-14</text>
  <text x="505.30612244897964" y="35.0" class="label" text-anchor="middle">52</text>
  <circle cx="510.204081632653" cy="40.0" class="point"/>
  <text x="510.204081632653" y="375" class="label" text-anchor="middle">2026-02-15</text>
  <text x="510.204081632653" y="35.0" class="label" text-anchor="middle">52</text>
  <circle cx="515.1020408163265" cy="40.0" class="point"/>
  <text x="515.1020408163265" y="375" class="label" text-anchor="middle">2026-02-16</text>
  <text x="515.1020408163265" y="35.0" class="label" text-anchor="middle">52</text>
  <circle cx="520.0" cy="40.0" class="point"/>
  <text x="520.0" y="375" class="label" text-anchor="middle">2026-02-17</text>
  <text x="520.0" y="35.0" class="label" text-anchor="middle">52</text>
  <circle cx="524.8979591836735" cy="40.0" class="point"/>
  <text x="524.8979591836735" y="375" class="label" text-anchor="middle">2026-02-18</text>
  <text x="524.8979591836735" y="35.0" class="label" text-anchor="middle">52</text>
  <circle cx="529.795918367347" cy="40.0" class="point"/>
  <text x="529.795918367347" y="375" class="label" text-anchor="middle">2026-02-19</text>
  <text x="529.795918367347" y="35.0" class="label" text-anchor="middle">52</text>
  <circle cx="534.6938775510205" cy="40.0" class="point"/>
  <text x="534.6938775510205" y="375" class="label" text-anchor="middle">2026-02-20</text>
  <text x="534.6938775510205" y="35.0" class="label" text-anchor="middle">52</text>
  <circle cx="539.5918367346939" cy="40.0" class="point"/>
  <text x="539.5918367346939" y="375" class="label" text-anchor="middle">2026-02-21</text>
  <text x="539.5918367346939" y="35.0" class="label" text-anchor="middle">52</text>
  <circle cx="544.4897959183673" cy="40.0" class="point"/>
  <text x="544.4897959183673" y="375" class="label" text-anchor="middle">2026-02-22</text>
  <text x="544.4897959183673" y="35.0" class="label" text-anchor="middle">52</text>
  <circle cx="549.3877551020408" cy="40.0" class="point"/>
  <text x="549.3877551020408" y="375" class="label" text-anchor="middle">2026-02-23</text>
  <text x="549.3877551020408" y="35.0" class="label" text-anchor="middle">52</text>
  <circle cx="554.2857142857143" cy="40.0" class="point"/>
  <text x="554.2857142857143" y="375" class="label" text-anchor="middle">2026-02-24</text>
  <text x="554.2857142857143" y="35.0" class="label" text-anchor="middle">52</text>
  <circle cx="559.1836734693878" cy="40.0" class="point"/>
  <text x="559.1836734693878" y="375" class="label" text-anchor="middle">2026-02-25</text>
  <text x="559.1836734693878" y="35.0" class="label" text-anchor="middle">52</text>
  <circle cx="564.0816326530612" cy="40.0" class="point"/>
  <text x="564.0816326530612" y="375" class="label" text-anchor="middle">2026-02-26</text>
  <text x="564.0816326530612" y="35.0" class="label" text-anchor="middle">52</text>
  <circle cx="568.9795918367347" cy="40.0" class="point"/>
  <text x="568.9795918367347" y="375" class="label" text-anchor="middle">2026-02-27</text>
  <text x="568.9795918367347" y="35.0" class="label" text-anchor="middle">52</text>
  <circle cx="573.8775510204082" cy="40.0" class="point"/>
  <text x="573.8775510204082" y="375" class="label" text-anchor="middle">2026-02-28</text>
  <text x="573.8775510204082" y="35.0" class="label" text-anchor="middle">52</text>
  <circle cx="578.7755102040817" cy="40.0" class="point"/>
  <text x="578.7755102040817" y="375" class="label" text-anchor="middle">2026-03-01</text>
  <text x="578.7755102040817" y="35.0" class="label" text-anchor="middle">52</text>
  <circle cx="583.6734693877551" cy="40.0" class="point"/>
  <text x="583.6734693877551" y="375" class="label" text-anchor="middle">2026-03-02</text>
  <text x="583.6734693877551" y="35.0" class="label" text-anchor="middle">52</text>
  <circle cx="588.5714285714286" cy="40.0" class="point"/>
  <text x="588.5714285714286" y="375" class="label" text-anchor="middle">2026-03-03</text>
  <text x="588.5714285714286" y="35.0" class="label" text-anchor="middle">52</text>
  <circle cx="593.469387755102" cy="40.0" class="point"/>
  <text x="593.469387755102" y="375" class="label" text-anchor="middle">2026-03-04</text>
  <text x="593.469387755102" y="35.0" class="label" text-anchor="middle">52</text>
  <circle cx="598.3673469387755" cy="40.0" class="point"/>
  <text x="598.3673469387755" y="375" class="label" text-anchor="middle">2026-03-05</text>
  <text x="598.3673469387755" y="35.0" class="label" text-anchor="middle">52</text>
  <circle cx="603.2653061224489" cy="40.0" class="point"/>
  <text x="603.2653061224489" y="375" class="label" text-anchor="middle">2026-03-06</text>
  <text x="603.2653061224489" y="35.0" class="label" text-anchor="middle">52</text>
  <circle cx="608.1632653061224" cy="40.0" class="point"/>
  <text x="608.1632653061224" y="375" class="label" text-anchor="middle">2026-03-07</text>
  <text x="608.1632653061224" y="35.0" class="label" text-anchor="middle">52</text>
  <circle cx="613.0612244897959" cy="40.0" class="point"/>
  <text x="613.0612244897959" y="375" class="label" text-anchor="middle">2026-03-08</text>
  <text x="613.0612244897959" y="35.0" class="label" text-anchor="middle">52</text>
  <circle cx="617.9591836734694" cy="40.0" class="point"/>
  <text x="617.9591836734694" y="375" class="label" text-anchor="middle">2026-03-09</text>
  <text x="617.9591836734694" y="35.0" class="label" text-anchor="middle">52</text>
  <circle cx="622.8571428571429" cy="40.0" class="point"/>
  <text x="622.8571428571429" y="375" class="label" text-anchor="middle">2026-03-10</text>
  <text x="622.8571428571429" y="35.0" class="label" text-anchor="middle">52</text>
  <circle cx="627.7551020408164" cy="40.0" class="point"/>
  <text x="627.7551020408164" y="375" class="label" text-anchor="middle">2026-03-11</text>
  <text x="627.7551020408164" y="35.0" class="label" text-anchor="middle">52</text>
  <circle cx="632.6530612244898" cy="40.0" class="point"/>
  <text x="632.6530612244898" y="375" class="label" text-anchor="middle">2026-03-12</text>
  <text x="632.6530612244898" y="35.0" class="label" text-anchor="middle">52</text>
  <circle cx="637.5510204081633" cy="40.0" class="point"/>
  <text x="637.5510204081633" y="375" class="label" text-anchor="middle">2026-03-13</text>
  <text x="637.5510204081633" y="35.0" class="label" text-anchor="middle">52</text>
  <circle cx="642.4489795918367" cy="40.0" class="point"/>
  <text x="642.4489795918367" y="375" class="label" text-anchor="middle">2026-03-14</text>
  <text x="642.4489795918367" y="35.0" class="label" text-anchor="middle">52</text>
  <circle cx="647.3469387755102" cy="40.0" class="point"/>
  <text x="647.3469387755102" y="375" class="label" text-anchor="middle">2026-03-15</text>
  <text x="647.3469387755102" y="35.0" class="label" text-anchor="middle">52</text>
  <circle cx="652.2448979591836" cy="40.0" class="point"/>
  <text x="652.2448979591836" y="375" class="label" text-anchor="middle">2026-03-16</text>
  <text x="652.2448979591836" y="35.0" class="label" text-anchor="middle">52</text>
  <circle cx="657.1428571428571" cy="40.0" class="point"/>
  <text x="657.1428571428571" y="375" class="label" text-anchor="middle">2026-03-17</text>
  <text x="657.1428571428571" y="35.0" class="label" text-anchor="middle">52</text>
  <circle cx="662.0408163265306" cy="40.0" class="point"/>
  <text x="662.0408163265306" y="375" class="label" text-anchor="middle">2026-03-18</text>
  <text x="662.0408163265306" y="35.0" class="label" text-anchor="middle">52</text>
  <circle cx="666.9387755102041" cy="40.0" class="point"/>
  <text x="666.9387755102041" y="375" class="label" text-anchor="middle">2026-03-19</text>
  <text x="666.9387755102041" y="35.0" class="label" text-anchor="middle">52</text>
  <circle cx="671.8367346938776" cy="40.0" class="point"/>
  <text x="671.8367346938776" y="375" class="label" text-anchor="middle">2026-03-20</text>
  <text x="671.8367346938776" y="35.0" class="label" text-anchor="middle">52</text>
  <circle cx="676.734693877551" cy="40.0" class="point"/>
  <text x="676.734693877551" y="375" class="label" text-anchor="middle">2026-03-21</text>
  <text x="676.734693877551" y="35.0" class="label" text-anchor="middle">52</text>
  <circle cx="681.6326530612245" cy="40.0" class="point"/>
  <text x="681.6326530612245" y="375" class="label" text-anchor="middle">2026-03-22</text>
  <text x="681.6326530612245" y="35.0" class="label" text-anchor="middle">52</text>
  <circle cx="686.530612244898" cy="40.0" class="point"/>
  <text x="686.530612244898" y="375" class="label" text-anchor="middle">2026-03-23</text>
  <text x="686.530612244898" y="35.0" class="label" text-anchor="middle">52</text>
  <circle cx="691.4285714285714" cy="40.0" class="point"/>
  <text x="691.4285714285714" y="375" class="label" text-anchor="middle">2026-03-24</text>
  <text x="691.4285714285714" y="35.0" class="label" text-anchor="middle">52</text>
  <circle cx="696.3265306122449" cy="40.0" class="point"/>
  <text x="696.3265306122449" y="375" class="label" text-anchor="middle">2026-03-25</text>
  <text x="696.3265306122449" y="35.0" class="label" text-anchor="middle">52</text>
  <circle cx="701.2244897959184" cy="40.0" class="point"/>
  <text x="701.2244897959184" y="375" class="label" text-anchor="middle">2026-03-26</text>
  <text x="701.2244897959184" y="35.0" class="label" text-anchor="middle">52</text>
  <circle cx="706.1224489795918" cy="40.0" class="point"/>
  <text x="706.1224489795918" y="375" class="label" text-anchor="middle">2026-03-27</text>
  <text x="706.1224489795918" y="35.0" class="label" text-anchor="middle">52</text>
  <circle cx="711.0204081632653" cy="40.0" class="point"/>
  <text x="711.0204081632653" y="375" class="label" text-anchor="middle">2026-03-28</text>
  <text x="711.0204081632653" y="35.0" class="label" text-anchor="middle">52</text>
  <circle cx="715.9183673469388" cy="40.0" class="point"/>
  <text x="715.9183673469388" y="375" class="label" text-anchor="middle">2026-03-29</text>
  <text x="715.9183673469388" y="35.0" class="label" text-anchor="middle">52</text>
  <circle cx="720.8163265306123" cy="40.0" class="point"/>
  <text x="720.8163265306123" y="375" class="label" text-anchor="middle">2026-03-30</text>
  <text x="720.8163265306123" y="35.0" class="label" text-anchor="middle">52</text>
  <circle cx="725.7142857142857" cy="40.0" class="point"/>
  <text x="725.7142857142857" y="375" class="label" text-anchor="middle">2026-03-31</text>
  <text x="725.7142857142857" y="35.0" class="label" text-anchor="middle">52</text>
  <circle cx="730.6122448979592" cy="40.0" class="point"/>
  <text x="730.6122448979592" y="375" class="label" text-anchor="middle">2026-04-01</text>
  <text x="730.6122448979592" y="35.0" class="label" text-anchor="middle">52</text>
  <circle cx="735.5102040816327" cy="40.0" class="point"/>
  <text x="735.5102040816327" y="375" class="label" text-anchor="middle">2026-04-02</text>
  <text x="735.5102040816327" y="35.0" class="label" text-anchor="middle">52</text>
  <circle cx="740.4081632653061" cy="40.0" class="point"/>
  <text x="740.4081632653061" y="375" class="label" text-anchor="middle">2026-04-03</text>
  <text x="740.4081632653061" y="35.0" class="label" text-anchor="middle">52</text>
  <circle cx="745.3061224489795" cy="40.0" class="point"/>
  <text x="745.3061224489795" y="375" class="label" text-anchor="middle">2026-04-04</text>
  <text x="745.3061224489795" y="35.0" class="label" text-anchor="middle">52</text>
  <circle cx="750.204081632653" cy="40.0" class="point"/>
  <text x="750.204081632653" y="375" class="label" text-anchor="middle">2026-04-05</text>
  <text x="750.204081632653" y="35.0" class="label" text-anchor="middle">52</text>
  <circle cx="755.1020408163265" cy="40.0" class="point"/>
  <text x="755.1020408163265" y="375" class="label" text-anchor="middle">2026-04-06</text>
  <text x="755.1020408163265" y="35.0" class="label" text-anchor="middle">52</text>
  <circle cx="760.0" cy="40.0" class="point"/>
  <text x="760.0" y="375" class="label" text-anchor="middle">2026-04-07</text>
  <text x="760.0" y="35.0" class="label" text-anchor="middle">52</text>
  <text x="30" y="363.0" class="label" text-anchor="end">0</text>
  <text x="30" y="301.46153846153845" class="label" text-anchor="end">10</text>
  <text x="30" y="239.9230769230769" class="label" text-anchor="end">20</text>
  <text x="30" y="178.38461538461542" class="label" text-anchor="end">30</text>
  <text x="30" y="116.84615384615384" class="label" text-anchor="end">40</text>
  <text x="30" y="55.30769230769232" class="label" text-anchor="end">50</text>
</svg>