<svg xmlns="http://www.w3.org/2000/svg" width="800" height="400" viewBox="0 0 800 400">
  <style>
    .axis{stroke:#666;stroke-width:1}
    .line{stroke:#4a9;stroke-width:2;fill:none}
    .point{fill:#4a9;r:4}
    .label{font:10px sans-serif;fill:#aaa}
    .title{font:14px sans-serif;fill:#333}
  </style>
  <text x="400" y="20" class="title" text-anchor="middle">OPIC Field Growth Timeline</text>
  <line x1="40" y1="40" x2="40" y2="360" class="axis"/>
  <line x1="40" y1="360" x2="760" y2="360" class="axis"/>
  <path d="M 40.0,101.53846153846155 L 55.65217391304348,101.53846153846155 L 71.30434782608695,101.53846153846155 L 86.95652173913044,101.53846153846155 L 102.6086956521739,101.53846153846155 L 118.26086956521739,101.53846153846155 L 133.91304347826087,101.53846153846155 L 149.56521739130437,101.53846153846155 L 165.2173913043478,101.53846153846155 L 180.8695652173913,101.53846153846155 L 196.52173913043478,101.53846153846155 L 212.17391304347828,101.53846153846155 L 227.82608695652172,101.53846153846155 L 243.4782608695652,101.53846153846155 L 259.13043478260875,101.53846153846155 L 274.7826086956522,101.53846153846155 L 290.4347826086956,101.53846153846155 L 306.0869565217391,101.53846153846155 L 321.7391304347826,101.53846153846155 L 337.39130434782606,101.53846153846155 L 353.04347826086956,101.53846153846155 L 368.695652173913,101.53846153846155 L 384.34782608695656,101.53846153846155 L 400.0,101.53846153846155 L 415.65217391304344,101.53846153846155 L 431.30434782608694,101.53846153846155 L 446.9565217391304,101.53846153846155 L 462.60869565217394,40.0 L 478.26086956521743,40.0 L 493.9130434782609,40.0 L 509.5652173913044,40.0 L 525.2173913043478,40.0 L 540.8695652173913,40.0 L 556.5217391304348,40.0 L 572.1739130434783,40.0 L 587.8260869565217,40.0 L 603.4782608695652,40.0 L 619.1304347826087,40.0 L 634.7826086956521,40.0 L 650.4347826086956,40.0 L 666.0869565217391,40.0 L 681.7391304347826,40.0 L 697.391304347826,40.0 L 713.0434782608696,40.0 L 728.6956521739131,40.0 L 744.3478260869565,40.0 L 760.0,40.0" class="line"/>
  <circle cx="40.0" cy="101.53846153846155" class="point"/>
  <text x="40.0" y="375" class="label" text-anchor="middle">2025-11-11</text>
  <text x="40.0" y="96.53846153846155" class="label" text-anchor="middle">42</text>
  <circle cx="55.65217391304348" cy="101.53846153846155" class="point"/>
  <text x="55.65217391304348" y="375" class="label" text-anchor="middle">2025-11-12</text>
  <text x="55.65217391304348" y="96.53846153846155" class="label" text-anchor="middle">42</text>
  <circle cx="71.30434782608695" cy="101.53846153846155" class="point"/>
  <text x="71.30434782608695" y="375" class="label" text-anchor="middle">2025-11-13</text>
  <text x="71.30434782608695" y="96.53846153846155" class="label" text-anchor="middle">42</text>
  <circle cx="86.95652173913044" cy="101.53846153846155" class="point"/>
  <text x="86.95652173913044" y="375" class="label" text-anchor="middle">2025-11-14</text>
  <text x="86.95652173913044" y="96.53846153846155" class="label" text-anchor="middle">42</text>
  <circle cx="102.6086956521739" cy="101.53846153846155" class="point"/>
  <text x="102.6086956521739" y="375" class="label" text-anchor="middle">2025-11-15</text>
  <text x="102.6086956521739" y="96.53846153846155" class="label" text-anchor="middle">42</text>
  <circle cx="118.26086956521739" cy="101.53846153846155" class="point"/>
  <text x="118.26086956521739" y="375" class="label" text-anchor="middle">2025-11-16</text>
  <text x="118.26086956521739" y="96.53846153846155" class="label" text-anchor="middle">42</text>
  <circle cx="133.91304347826087" cy="101.53846153846155" class="point"/>
  <text x="133.91304347826087" y="375" class="label" text-anchor="middle">2025-11-17</text>
  <text x="133.91304347826087" y="96.53846153846155" class="label" text-anchor="middle">42</text>
  <circle cx="149.56521739130437" cy="101.53846153846155" class="point"/>
  <text x="149.56521739130437" y="375" class="label" text-anchor="middle">2025-11-18</text>
  <text x="149.56521739130437" y="96.53846153846155" class="label" text-anchor="middle">42</text>
  <circle cx="165.2173913043478" cy="101.53846153846155" class="point"/>
  <text x="165.2173913043478" y="375" class="label" text-anchor="middle">2025-11-19</text>
  <text x="165.2173913043478" y="96.53846153846155" class="label" text-anchor="middle">42</text>
  <circle cx="180.8695652173913" cy="101.53846153846155" class="point"/>
  <text x="180.8695652173913" y="375" class="label" text-anchor="middle">2025-11-20</text>
  <text x="180.8695652173913" y="96.53846153846155" class="label" text-anchor="middle">42</text>
  <circle cx="196.52173913043478" cy="101.53846153846155" class="point"/>
  <text x="196.52173913043478" y="375" class="label" text-anchor="middle">2025-11-21</text>
  <text x="196.52173913043478" y="96.53846153846155" class="label" text-anchor="middle">42</text>
  <circle cx="212.17391304347828" cy="101.53846153846155" class="point"/>
  <text x="212.17391304347828" y="375" class="label" text-anchor="middle">2025-11-22</text>
  <text x="212.17391304347828" y="96.53846153846155" class="label" text-anchor="middle">42</text>
  <circle cx="227.82608695652172" cy="101.53846153846155" class="point"/>
  <text x="227.82608695652172" y="375" class="label" text-anchor="middle">2025-11-23</text>
  <text x="227.82608695652172" y="96.53846153846155" class="label" text-anchor="middle">42</text>
  <circle cx="243.4782608695652" cy="101.53846153846155" class="point"/>
  <text x="243.4782608695652" y="375" class="label" text-anchor="middle">2025-11-24</text>
  <text x="243.4782608695652" y="96.53846153846155" class="label" text-anchor="middle">42</text>
  <circle cx="259.13043478260875" cy="101.53846153846155" class="point"/>
  <text x="259.13043478260875" y="375" class="label" text-anchor="middle">2025-11-25</text>
  <text x="259.13043478260875" y="96.53846153846155" class="label" text-anchor="middle">42</text>
  <circle cx="274.7826086956522" cy="101.53846153846155" class="point"/>
  <text x="274.7826086956522" y="375" class="label" text-anchor="middle">2025-11-26</text>
  <text x="274.7826086956522" y="96.53846153846155" class="label" text-anchor="middle">42</text>
  <circle cx="290.4347826086956" cy="101.53846153846155" class="point"/>
  <text x="290.4347826086956" y="375" class="label" text-anchor="middle">2025-11-27</text>
  <text x="290.4347826086956" y="96.53846153846155" class="label" text-anchor="middle">42</text>
  <circle cx="306.0869565217391" cy="101.53846153846155" class="point"/>
  <text x="306.0869565217391" y="375" class="label" text-anchor="middle">2025-11-28</text>
  <text x="306.0869565217391" y="96.53846153846155" class="label" text-anchor="middle">42</text>
  <circle cx="321.7391304347826" cy="101.53846153846155" class="point"/>
  <text x="321.7391304347826" y="375" class="label" text-anchor="middle">2025-11-29</text>
  <text x="321.7391304347826" y="96.53846153846155" class="label" text-anchor="middle">42</text>
  <circle cx="337.39130434782606" cy="101.53846153846155" class="point"/>
  <text x="337.39130434782606" y="375" class="label" text-anchor="middle">2025-11-30</text>
  <text x="337.39130434782606" y="96.53846153846155" class="label" text-anchor="middle">42</text>
  <circle cx="353.04347826086956" cy="101.53846153846155" class="point"/>
  <text x="353.04347826086956" y="375" class="label" text-anchor="middle">2025-12-01</text>
  <text x="353.04347826086956" y="96.53846153846155" class="label" text-anchor="middle">42</text>
  <circle cx="368.695652173913" cy="101.53846153846155" class="point"/>
  <text x="368.695652173913" y="375" class="label" text-anchor="middle">2025-12-02</text>
  <text x="368.695652173913" y="96.53846153846155" class="label" text-anchor="middle">42</text>
  <circle cx="384.34782608695656" cy="101.53846153846155" class="point"/>
  <text x="384.34782608695656" y="375" class="label" text-anchor="middle">2025-12-03</text>
  <text x="384.34782608695656" y="96.53846153846155" class="label" text-anchor="middle">42</text>
  <circle cx="400.0" cy="101.53846153846155" class="point"/>
  <text x="400.0" y="375" class="label" text-anchor="middle">2025-12-04</text>
  <text x="400.0" y="96.53846153846155" class="label" text-anchor="middle">42</text>
  <circle cx="415.65217391304344" cy="101.53846153846155" class="point"/>
  <text x="415.65217391304344" y="375" class="label" text-anchor="middle">2025-12-05</text>
  <text x="415.65217391304344" y="96.53846153846155" class="label" text-anchor="middle">42</text>
  <circle cx="431.30434782608694" cy="101.53846153846155" class="point"/>
  <text x="431.30434782608694" y="375" class="label" text-anchor="middle">2025-12-06</text>
  <text x="431.30434782608694" y="96.53846153846155" class="label" text-anchor="middle">42</text>
  <circle cx="446.9565217391304" cy="101.53846153846155" class="point"/>
  <text x="446.9565217391304" y="375" class="label" text-anchor="middle">2025-12-07</text>
  <text x="446.9565217391304" y="96.53846153846155" class="label" text-anchor="middle">42</text>
  <circle cx="462.60869565217394" cy="40.0" class="point"/>
  <text x="462.60869565217394" y="375" class="label" text-anchor="middle">2025-12-08</text>
  <text x="462.60869565217394" y="35.0" class="label" text-anchor="middle">52</text>
  <circle cx="478.26086956521743" cy="40.0" class="point"/>
  <text x="478.26086956521743" y="375" class="label" text-anchor="middle">2025-12-09</text>
  <text x="478.26086956521743" y="35.0" class="label" text-anchor="middle">52</text>
  <circle cx="493.9130434782609" cy="40.0" class="point"/>
  <text x="493.9130434782609" y="375" class="label" text-anchor="middle">2025-12-10</text>
  <text x="493.9130434782609" y="35.0" class="label" text-anchor="middle">52</text>
  <circle cx="509.5652173913044" cy="40.0" class="point"/>
  <text x="509.5652173913044" y="375" class="label" text-anchor="middle">2025-12-11</text>
  <text x="509.5652173913044" y="35.0" class="label" text-anchor="middle">52</text>
  <circle cx="525.2173913043478" cy="40.0" class="point"/>
  <text x="525.2173913043478" y="375" class="label" text-anchor="middle">2025-12-12</text>
  <text x="525.2173913043478" y="35.0" class="label" text-anchor="middle">52</text>
  <circle cx="540.8695652173913" cy="40.0" class="point"/>
  <text x="540.8695652173913" y="375" class="label" text-anchor="middle">2025-12-13</text>
  <text x="540.8695652173913" y="35.0" class="label" text-anchor="middle">52</text>
  <circle cx="556.5217391304348" cy="40.0" class="point"/>
  <text x="556.5217391304348" y="375" class="label" text-anchor="middle">2025-12-14</text>
  <text x="556.5217391304348" y="35.0" class="label" text-anchor="middle">52</text>
  <circle cx="572.1739130434783" cy="40.0" class="point"/>
  <text x="572.1739130434783" y="375" class="label" text-anchor="middle">2025-12-15</text>
  <text x="572.1739130434783" y="35.0" class="label" text-anchor="middle">52</text>
  <circle cx="587.8260869565217" cy="40.0" class="point"/>
  <text x="587.8260869565217" y="375" class="label" text-anchor="middle">2025-12-16</text>
  <text x="587.8260869565217" y="35.0" class="label" text-anchor="middle">52</text>
  <circle cx="603.4782608695652" cy="40.0" class="point"/>
  <text x="603.4782608695652" y="375" class="label" text-anchor="middle">2025-12-17</text>
  <text x="603.4782608695652" y="35.0" class="label" text-anchor="middle">52</text>
  <circle cx="619.1304347826087" cy="40.0" class="point"/>
  <text x="619.1304347826087" y="375" class="label" text-anchor="middle">2025-12-18</text>
  <text x="619.1304347826087" y="35.0" class="label" text-anchor="middle">52</text>
  <circle cx="634.7826086956521" cy="40.0" class="point"/>
  <text x="634.7826086956521" y="375" class="label" text-anchor="middle">2025-12-19</text>
  <text x="634.7826086956521" y="35.0" class="label" text-anchor="middle">52</text>
  <circle cx="650.4347826086956" cy="40.0" class="point"/>
  <text x="650.4347826086956" y="375" class="label" text-anchor="middle">2025-12-20</text>
  <text x="650.4347826086956" y="35.0" class="label" text-anchor="middle">52</text>
  <circle cx="666.0869565217391" cy="40.0" class="point"/>
  <text x="666.0869565217391" y="375" class="label" text-anchor="middle">2025-12-21</text>
  <text x="666.0869565217391" y="35.0" class="label" text-anchor="middle">52</text>
  <circle cx="681.7391304347826" cy="40.0" class="point"/>
  <text x="681.7391304347826" y="375" class="label" text-anchor="middle">2025-12-22</text>
  <text x="681.7391304347826" y="35.0" class="label" text-anchor="middle">52</text>
  <circle cx="697.391304347826" cy="40.0" class="point"/>
  <text x="697.391304347826" y="375" class="label" text-anchor="middle">2025-12-23</text>
  <text x="697.391304347826" y="35.0" class="label" text-anchor="middle">52</text>
  <circle cx="713.0434782608696" cy="40.0" class="point"/>
  <text x="713.0434782608696" y="375" class="label" text-anchor="middle">2025-12-24</text>
  <text x="713.0434782608696" y="35.0" class="label" text-anchor="middle">52</text>
  <circle cx="728.6956521739131" cy="40.0" class="point"/>
  <text x="728.6956521739131" y="375" class="label" text-anchor="middle">2025-12-25</text>
  <text x="728.6956521739131" y="35.0" class="label" text-anchor="middle">52</text>
  <circle cx="744.3478260869565" cy="40.0" class="point"/>
  <text x="744.3478260869565" y="375" class="label" text-anchor="middle">2025-12-26</text>
  <text x="744.3478260869565" y="35.0" class="label" text-anchor="middle">52</text>
  <circle cx="760.0" cy="40.0" class="point"/>
  <text x="760.0" y="375" class="label" text-anchor="middle">2025-12-27</text>
  <text x="760.0" y="35.0" class="label" text-anchor="middle">52</text>
  <text x="30" y="363.0" class="label" text-anchor="end">0</text>
  <text x="30" y="301.46153846153845" class="label" text-anchor="end">10</text>
  <text x="30" y="239.9230769230769" class="label" text-anchor="end">20</text>
  <text x="30" y="178.38461538461542" class="label" text-anchor="end">30</text>
  <text x="30" y="116.84615384615384" class="label" text-anchor="end">40</text>
  <text x="30" y="55.30769230769232" class="label" text-anchor="end">50</text>
</svg>