<svg xmlns="http://www.w3.org/2000/svg" width="800" height="400" viewBox="0 0 800 400">
  <style>
    .axis{stroke:#666;stroke-width:1}
    .line{stroke:#4a9;stroke-width:2;fill:none}
    .point{fill:#4a9;r:4}
    .label{font:10px sans-serif;fill:#aaa}
    .title{font:14px sans-serif;fill:#333}
  </style>
  <text x="400" y="20" class="title" text-anchor="middle">OPIC Field Growth Timeline</text>
  <line x1="40" y1="40" x2="40" y2="360" class="axis"/>
  <line x1="40" y1="360" x2="760" y2="360" class="axis"/>
  <path d="M 40.0,40.0 L 105.45454545454545,40.0 L 170.9090909090909,40.0 L 236.36363636363635,40.0 L 301.8181818181818,40.0 L 367.27272727272725,40.0 L 432.7272727272727,40.0 L 498.1818181818182,40.0 L 563.6363636363636,40.0 L 629.0909090909091,40.0 L 694.5454545454545,40.0 L 760.0,40.0" class="line"/>
  <circle cx="40.0" cy="40.0" class="point"/>
  <text x="40.0" y="375" class="label" text-anchor="middle">2025-11-11</text>
  <text x="40.0" y="35.0" class="label" text-anchor="middle">42</text>
  <circle cx="105.45454545454545" cy="40.0" class="point"/>
  <text x="105.45454545454545" y="375" class="label" text-anchor="middle">2025-11-12</text>
  <text x="105.45454545454545" y="35.0" class="label" text-anchor="middle">42</text>
  <circle cx="170.9090909090909" cy="40.0" class="point"/>
  <text x="170.9090909090909" y="375" class="label" text-anchor="middle">2025-11-13</text>
  <text x="170.9090909090909" y="35.0" class="label" text-anchor="middle">42</text>
  <circle cx="236.36363636363635" cy="40.0" class="point"/>
  <text x="236.36363636363635" y="375" class="label" text-anchor="middle">2025-11-14</text>
  <text x="236.36363636363635" y="35.0" class="label" text-anchor="middle">42</text>
  <circle cx="301.8181818181818" cy="40.0" class="point"/>
  <text x="301.8181818181818" y="375" class="label" text-anchor="middle">2025-11-15</text>
  <text x="301.8181818181818" y="35.0" class="label" text-anchor="middle">42</text>
  <circle cx="367.27272727272725" cy="40.0" class="point"/>
  <text x="367.27272727272725" y="375" class="label" text-anchor="middle">2025-11-16</text>
  <text x="367.27272727272725" y="35.0" class="label" text-anchor="middle">42</text>
  <circle cx="432.7272727272727" cy="40.0" class="point"/>
  <text x="432.7272727272727" y="375" class="label" text-anchor="middle">2025-11-17</text>
  <text x="432.7272727272727" y="35.0" class="label" text-anchor="middle">42</text>
  <circle cx="498.1818181818182" cy="40.0" class="point"/>
  <text x="498.1818181818182" y="375" class="label" text-anchor="middle">2025-11-18</text>
  <text x="498.1818181818182" y="35.0" class="label" text-anchor="middle">42</text>
  <circle cx="563.6363636363636" cy="40.0" class="point"/>
  <text x="563.6363636363636" y="375" class="label" text-anchor="middle">2025-11-19</text>
  <text x="563.6363636363636" y="35.0" class="label" text-anchor="middle">42</text>
  <circle cx="629.0909090909091" cy="40.0" class="point"/>
  <text x="629.0909090909091" y="375" class="label" text-anchor="middle">2025-11-20</text>
  <text x="629.0909090909091" y="35.0" class="label" text-anchor="middle">42</text>
  <circle cx="694.5454545454545" cy="40.0" class="point"/>
  <text x="694.5454545454545" y="375" class="label" text-anchor="middle">2025-11-21</text>
  <text x="694.5454545454545" y="35.0" class="label" text-anchor="middle">42</text>
  <circle cx="760.0" cy="40.0" class="point"/>
  <text x="760.0" y="375" class="label" text-anchor="middle">2025-11-22</text>
  <text x="760.0" y="35.0" class="label" text-anchor="middle">42</text>
  <text x="30" y="363.0" class="label" text-anchor="end">0</text>
  <text x="30" y="302.04761904761904" class="label" text-anchor="end">8</text>
  <text x="30" y="241.0952380952381" class="label" text-anchor="end">16</text>
  <text x="30" y="180.14285714285717" class="label" text-anchor="end">24</text>
  <text x="30" y="119.1904761904762" class="label" text-anchor="end">32</text>
  <text x="30" y="58.23809523809524" class="label" text-anchor="end">40</text>
</svg>