<svg xmlns="http://www.w3.org/2000/svg" width="800" height="400" viewBox="0 0 800 400">
  <style>
    .axis{stroke:#666;stroke-width:1}
    .line{stroke:#4a9;stroke-width:2;fill:none}
    .point{fill:#4a9;r:4}
    .label{font:10px sans-serif;fill:#aaa}
    .title{font:14px sans-serif;fill:#333}
  </style>
  <text x="400" y="20" class="title" text-anchor="middle">OPIC Field Growth Timeline</text>
  <line x1="40" y1="40" x2="40" y2="360" class="axis"/>
  <line x1="40" y1="360" x2="760" y2="360" class="axis"/>
  <path d="M 40.0,101.53846153846155 L 45.21739130434783,101.53846153846155 L 50.434782608695656,101.53846153846155 L 55.65217391304348,101.53846153846155 L 60.869565217391305,101.53846153846155 L 66.08695652173913,101.53846153846155 L 71.30434782608695,101.53846153846155 L 76.52173913043478,101.53846153846155 L 81.73913043478261,101.53846153846155 L 86.95652173913044,101.53846153846155 L 92.17391304347827,101.53846153846155 L 97.39130434782608,101.53846153846155 L 102.6086956521739,101.53846153846155 L 107.82608695652173,101.53846153846155 L 113.04347826086956,101.53846153846155 L 118.26086956521739,101.53846153846155 L 123.47826086956522,101.53846153846155 L 128.69565217391306,101.53846153846155 L 133.91304347826087,101.53846153846155 L 139.1304347826087,101.53846153846155 L 144.34782608695653,101.53846153846155 L 149.56521739130437,101.53846153846155 L 154.78260869565216,101.53846153846155 L 160.0,101.53846153846155 L 165.2173913043478,101.53846153846155 L 170.43478260869566,101.53846153846155 L 175.65217391304347,101.53846153846155 L 180.8695652173913,40.0 L 186.08695652173913,40.0 L 191.30434782608694,40.0 L 196.52173913043478,40.0 L 201.7391304347826,40.0 L 206.95652173913044,40.0 L 212.17391304347828,40.0 L 217.3913043478261,40.0 L 222.60869565217394,40.0 L 227.82608695652172,40.0 L 233.0434782608696,40.0 L 238.2608695652174,40.0 L 243.4782608695652,40.0 L 248.69565217391306,40.0 L 253.91304347826087,40.0 L 259.13043478260875,40.0 L 264.3478260869565,40.0 L 269.5652173913043,40.0 L 274.7826086956522,40.0 L 280.0,40.0 L 285.21739130434787,40.0 L 290.4347826086956,40.0 L 295.6521739130435,40.0 L 300.8695652173913,40.0 L 306.0869565217391,40.0 L 311.30434782608694,40.0 L 316.52173913043475,40.0 L 321.7391304347826,40.0 L 326.95652173913044,40.0 L 332.17391304347825,40.0 L 337.39130434782606,40.0 L 342.6086956521739,40.0 L 347.82608695652175,40.0 L 353.04347826086956,40.0 L 358.26086956521743,40.0 L 363.4782608695652,40.0 L 368.695652173913,40.0 L 373.9130434782609,40.0 L 379.1304347826087,40.0 L 384.34782608695656,40.0 L 389.5652173913043,40.0 L 394.7826086956522,40.0 L 400.0,40.0 L 405.21739130434787,40.0 L 410.4347826086956,40.0 L 415.65217391304344,40.0 L 420.8695652173913,40.0 L 426.0869565217392,40.0 L 431.30434782608694,40.0 L 436.5217391304348,40.0 L 441.7391304347826,40.0 L 446.9565217391304,40.0 L 452.17391304347825,40.0 L 457.3913043478261,40.0 L 462.60869565217394,40.0 L 467.82608695652175,40.0 L 473.04347826086956,40.0 L 478.26086956521743,40.0 L 483.4782608695652,40.0 L 488.69565217391306,40.0 L 493.9130434782609,40.0 L 499.13043478260863,40.0 L 504.3478260869565,40.0 L 509.5652173913044,40.0 L 514.7826086956522,40.0 L 520.0,40.0 L 525.2173913043478,40.0 L 530.4347826086957,40.0 L 535.6521739130435,40.0 L 540.8695652173913,40.0 L 546.0869565217391,40.0 L 551.304347826087,40.0 L 556.5217391304348,40.0 L 561.7391304347826,40.0 L 566.9565217391305,40.0 L 572.1739130434783,40.0 L 577.3913043478261,40.0 L 582.6086956521739,40.0 L 587.8260869565217,40.0 L 593.0434782608695,40.0 L 598.2608695652174,40.0 L 603.4782608695652,40.0 L 608.695652173913,40.0 L 613.9130434782609,40.0 L 619.1304347826087,40.0 L 624.3478260869565,40.0 L 629.5652173913044,40.0 L 634.7826086956521,40.0 L 640.0,40.0 L 645.2173913043478,40.0 L 650.4347826086956,40.0 L 655.6521739130435,40.0 L 660.8695652173914,40.0 L 666.0869565217391,40.0 L 671.304347826087,40.0 L 676.5217391304349,40.0 L 681.7391304347826,40.0 L 686.9565217391304,40.0 L 692.1739130434783,40.0 L 697.391304347826,40.0 L 702.6086956521739,40.0 L 707.8260869565217,40.0 L 713.0434782608696,40.0 L 718.2608695652174,40.0 L 723.4782608695652,40.0 L 728.6956521739131,40.0 L 733.9130434782609,40.0 L 739.1304347826086,40.0 L 744.3478260869565,40.0 L 749.5652173913044,40.0 L 754.7826086956521,40.0 L 760.0,40.0" class="line"/>
  <circle cx="40.0" cy="101.53846153846155" class="point"/>
  <text x="40.0" y="375" class="label" text-anchor="middle">2025-11-11</text>
  <text x="40.0" y="96.53846153846155" class="label" text-anchor="middle">42</text>
  <circle cx="45.21739130434783" cy="101.53846153846155" class="point"/>
  <text x="45.21739130434783" y="375" class="label" text-anchor="middle">2025-11-12</text>
  <text x="45.21739130434783" y="96.53846153846155" class="label" text-anchor="middle">42</text>
  <circle cx="50.434782608695656" cy="101.53846153846155" class="point"/>
  <text x="50.434782608695656" y="375" class="label" text-anchor="middle">2025-11-13</text>
  <text x="50.434782608695656" y="96.53846153846155" class="label" text-anchor="middle">42</text>
  <circle cx="55.65217391304348" cy="101.53846153846155" class="point"/>
  <text x="55.65217391304348" y="375" class="label" text-anchor="middle">2025-11-14</text>
  <text x="55.65217391304348" y="96.53846153846155" class="label" text-anchor="middle">42</text>
  <circle cx="60.869565217391305" cy="101.53846153846155" class="point"/>
  <text x="60.869565217391305" y="375" class="label" text-anchor="middle">2025-11-15</text>
  <text x="60.869565217391305" y="96.53846153846155" class="label" text-anchor="middle">42</text>
  <circle cx="66.08695652173913" cy="101.53846153846155" class="point"/>
  <text x="66.08695652173913" y="375" class="label" text-anchor="middle">2025-11-16</text>
  <text x="66.08695652173913" y="96.53846153846155" class="label" text-anchor="middle">42</text>
  <circle cx="71.30434782608695" cy="101.53846153846155" class="point"/>
  <text x="71.30434782608695" y="375" class="label" text-anchor="middle">2025-11-17</text>
  <text x="71.30434782608695" y="96.53846153846155" class="label" text-anchor="middle">42</text>
  <circle cx="76.52173913043478" cy="101.53846153846155" class="point"/>
  <text x="76.52173913043478" y="375" class="label" text-anchor="middle">2025-11-18</text>
  <text x="76.52173913043478" y="96.53846153846155" class="label" text-anchor="middle">42</text>
  <circle cx="81.73913043478261" cy="101.53846153846155" class="point"/>
  <text x="81.73913043478261" y="375" class="label" text-anchor="middle">2025-11-19</text>
  <text x="81.73913043478261" y="96.53846153846155" class="label" text-anchor="middle">42</text>
  <circle cx="86.95652173913044" cy="101.53846153846155" class="point"/>
  <text x="86.95652173913044" y="375" class="label" text-anchor="middle">2025-11-20</text>
  <text x="86.95652173913044" y="96.53846153846155" class="label" text-anchor="middle">42</text>
  <circle cx="92.17391304347827" cy="101.53846153846155" class="point"/>
  <text x="92.17391304347827" y="375" class="label" text-anchor="middle">2025-11-21</text>
  <text x="92.17391304347827" y="96.53846153846155" class="label" text-anchor="middle">42</text>
  <circle cx="97.39130434782608" cy="101.53846153846155" class="point"/>
  <text x="97.39130434782608" y="375" class="label" text-anchor="middle">2025-11-22</text>
  <text x="97.39130434782608" y="96.53846153846155" class="label" text-anchor="middle">42</text>
  <circle cx="102.6086956521739" cy="101.53846153846155" class="point"/>
  <text x="102.6086956521739" y="375" class="label" text-anchor="middle">2025-11-23</text>
  <text x="102.6086956521739" y="96.53846153846155" class="label" text-anchor="middle">42</text>
  <circle cx="107.82608695652173" cy="101.53846153846155" class="point"/>
  <text x="107.82608695652173" y="375" class="label" text-anchor="middle">2025-11-24</text>
  <text x="107.82608695652173" y="96.53846153846155" class="label" text-anchor="middle">42</text>
  <circle cx="113.04347826086956" cy="101.53846153846155" class="point"/>
  <text x="113.04347826086956" y="375" class="label" text-anchor="middle">2025-11-25</text>
  <text x="113.04347826086956" y="96.53846153846155" class="label" text-anchor="middle">42</text>
  <circle cx="118.26086956521739" cy="101.53846153846155" class="point"/>
  <text x="118.26086956521739" y="375" class="label" text-anchor="middle">2025-11-26</text>
  <text x="118.26086956521739" y="96.53846153846155" class="label" text-anchor="middle">42</text>
  <circle cx="123.47826086956522" cy="101.53846153846155" class="point"/>
  <text x="123.47826086956522" y="375" class="label" text-anchor="middle">2025-11-27</text>
  <text x="123.47826086956522" y="96.53846153846155" class="label" text-anchor="middle">42</text>
  <circle cx="128.69565217391306" cy="101.53846153846155" class="point"/>
  <text x="128.69565217391306" y="375" class="label" text-anchor="middle">2025-11-28</text>
  <text x="128.69565217391306" y="96.53846153846155" class="label" text-anchor="middle">42</text>
  <circle cx="133.91304347826087" cy="101.53846153846155" class="point"/>
  <text x="133.91304347826087" y="375" class="label" text-anchor="middle">2025-11-29</text>
  <text x="133.91304347826087" y="96.53846153846155" class="label" text-anchor="middle">42</text>
  <circle cx="139.1304347826087" cy="101.53846153846155" class="point"/>
  <text x="139.1304347826087" y="375" class="label" text-anchor="middle">2025-11-30</text>
  <text x="139.1304347826087" y="96.53846153846155" class="label" text-anchor="middle">42</text>
  <circle cx="144.34782608695653" cy="101.53846153846155" class="point"/>
  <text x="144.34782608695653" y="375" class="label" text-anchor="middle">2025-12-01</text>
  <text x="144.34782608695653" y="96.53846153846155" class="label" text-anchor="middle">42</text>
  <circle cx="149.56521739130437" cy="101.53846153846155" class="point"/>
  <text x="149.56521739130437" y="375" class="label" text-anchor="middle">2025-12-02</text>
  <text x="149.56521739130437" y="96.53846153846155" class="label" text-anchor="middle">42</text>
  <circle cx="154.78260869565216" cy="101.53846153846155" class="point"/>
  <text x="154.78260869565216" y="375" class="label" text-anchor="middle">2025-12-03</text>
  <text x="154.78260869565216" y="96.53846153846155" class="label" text-anchor="middle">42</text>
  <circle cx="160.0" cy="101.53846153846155" class="point"/>
  <text x="160.0" y="375" class="label" text-anchor="middle">2025-12-04</text>
  <text x="160.0" y="96.53846153846155" class="label" text-anchor="middle">42</text>
  <circle cx="165.2173913043478" cy="101.53846153846155" class="point"/>
  <text x="165.2173913043478" y="375" class="label" text-anchor="middle">2025-12-05</text>
  <text x="165.2173913043478" y="96.53846153846155" class="label" text-anchor="middle">42</text>
  <circle cx="170.43478260869566" cy="101.53846153846155" class="point"/>
  <text x="170.43478260869566" y="375" class="label" text-anchor="middle">2025-12-06</text>
  <text x="170.43478260869566" y="96.53846153846155" class="label" text-anchor="middle">42</text>
  <circle cx="175.65217391304347" cy="101.53846153846155" class="point"/>
  <text x="175.65217391304347" y="375" class="label" text-anchor="middle">2025-12-07</text>
  <text x="175.65217391304347" y="96.53846153846155" class="label" text-anchor="middle">42</text>
  <circle cx="180.8695652173913" cy="40.0" class="point"/>
  <text x="180.8695652173913" y="375" class="label" text-anchor="middle">2025-12-08</text>
  <text x="180.8695652173913" y="35.0" class="label" text-anchor="middle">52</text>
  <circle cx="186.08695652173913" cy="40.0" class="point"/>
  <text x="186.08695652173913" y="375" class="label" text-anchor="middle">2025-12-09</text>
  <text x="186.08695652173913" y="35.0" class="label" text-anchor="middle">52</text>
  <circle cx="191.30434782608694" cy="40.0" class="point"/>
  <text x="191.30434782608694" y="375" class="label" text-anchor="middle">2025-12-10</text>
  <text x="191.30434782608694" y="35.0" class="label" text-anchor="middle">52</text>
  <circle cx="196.52173913043478" cy="40.0" class="point"/>
  <text x="196.52173913043478" y="375" class="label" text-anchor="middle">2025-12-11</text>
  <text x="196.52173913043478" y="35.0" class="label" text-anchor="middle">52</text>
  <circle cx="201.7391304347826" cy="40.0" class="point"/>
  <text x="201.7391304347826" y="375" class="label" text-anchor="middle">2025-12-12</text>
  <text x="201.7391304347826" y="35.0" class="label" text-anchor="middle">52</text>
  <circle cx="206.95652173913044" cy="40.0" class="point"/>
  <text x="206.95652173913044" y="375" class="label" text-anchor="middle">2025-12-13</text>
  <text x="206.95652173913044" y="35.0" class="label" text-anchor="middle">52</text>
  <circle cx="212.17391304347828" cy="40.0" class="point"/>
  <text x="212.17391304347828" y="375" class="label" text-anchor="middle">2025-12-14</text>
  <text x="212.17391304347828" y="35.0" class="label" text-anchor="middle">52</text>
  <circle cx="217.3913043478261" cy="40.0" class="point"/>
  <text x="217.3913043478261" y="375" class="label" text-anchor="middle">2025-12-15</text>
  <text x="217.3913043478261" y="35.0" class="label" text-anchor="middle">52</text>
  <circle cx="222.60869565217394" cy="40.0" class="point"/>
  <text x="222.60869565217394" y="375" class="label" text-anchor="middle">2025-12-16</text>
  <text x="222.60869565217394" y="35.0" class="label" text-anchor="middle">52</text>
  <circle cx="227.82608695652172" cy="40.0" class="point"/>
  <text x="227.82608695652172" y="375" class="label" text-anchor="middle">2025-12-17</text>
  <text x="227.82608695652172" y="35.0" class="label" text-anchor="middle">52</text>
  <circle cx="233.0434782608696" cy="40.0" class="point"/>
  <text x="233.0434782608696" y="375" class="label" text-anchor="middle">2025-12-18</text>
  <text x="233.0434782608696" y="35.0" class="label" text-anchor="middle">52</text>
  <circle cx="238.2608695652174" cy="40.0" class="point"/>
  <text x="238.2608695652174" y="375" class="label" text-anchor="middle">2025-12-19</text>
  <text x="238.2608695652174" y="35.0" class="label" text-anchor="middle">52</text>
  <circle cx="243.4782608695652" cy="40.0" class="point"/>
  <text x="243.4782608695652" y="375" class="label" text-anchor="middle">2025-12-20</text>
  <text x="243.4782608695652" y="35.0" class="label" text-anchor="middle">52</text>
  <circle cx="248.69565217391306" cy="40.0" class="point"/>
  <text x="248.69565217391306" y="375" class="label" text-anchor="middle">2025-12-21</text>
  <text x="248.69565217391306" y="35.0" class="label" text-anchor="middle">52</text>
  <circle cx="253.91304347826087" cy="40.0" class="point"/>
  <text x="253.91304347826087" y="375" class="label" text-anchor="middle">2025-12-22</text>
  <text x="253.91304347826087" y="35.0" class="label" text-anchor="middle">52</text>
  <circle cx="259.13043478260875" cy="40.0" class="point"/>
  <text x="259.13043478260875" y="375" class="label" text-anchor="middle">2025-12-23</text>
  <text x="259.13043478260875" y="35.0" class="label" text-anchor="middle">52</text>
  <circle cx="264.3478260869565" cy="40.0" class="point"/>
  <text x="264.3478260869565" y="375" class="label" text-anchor="middle">2025-12-24</text>
  <text x="264.3478260869565" y="35.0" class="label" text-anchor="middle">52</text>
  <circle cx="269.5652173913043" cy="40.0" class="point"/>
  <text x="269.5652173913043" y="375" class="label" text-anchor="middle">2025-12-25</text>
  <text x="269.5652173913043" y="35.0" class="label" text-anchor="middle">52</text>
  <circle cx="274.7826086956522" cy="40.0" class="point"/>
  <text x="274.7826086956522" y="375" class="label" text-anchor="middle">2025-12-26</text>
  <text x="274.7826086956522" y="35.0" class="label" text-anchor="middle">52</text>
  <circle cx="280.0" cy="40.0" class="point"/>
  <text x="280.0" y="375" class="label" text-anchor="middle">2025-12-27</text>
  <text x="280.0" y="35.0" class="label" text-anchor="middle">52</text>
  <circle cx="285.21739130434787" cy="40.0" class="point"/>
  <text x="285.21739130434787" y="375" class="label" text-anchor="middle">2025-12-28</text>
  <text x="285.21739130434787" y="35.0" class="label" text-anchor="middle">52</text>
  <circle cx="290.4347826086956" cy="40.0" class="point"/>
  <text x="290.4347826086956" y="375" class="label" text-anchor="middle">2025-12-29</text>
  <text x="290.4347826086956" y="35.0" class="label" text-anchor="middle">52</text>
  <circle cx="295.6521739130435" cy="40.0" class="point"/>
  <text x="295.6521739130435" y="375" class="label" text-anchor="middle">2025-12-30</text>
  <text x="295.6521739130435" y="35.0" class="label" text-anchor="middle">52</text>
  <circle cx="300.8695652173913" cy="40.0" class="point"/>
  <text x="300.8695652173913" y="375" class="label" text-anchor="middle">2025-12-31</text>
  <text x="300.8695652173913" y="35.0" class="label" text-anchor="middle">52</text>
  <circle cx="306.0869565217391" cy="40.0" class="point"/>
  <text x="306.0869565217391" y="375" class="label" text-anchor="middle">2026-01-01</text>
  <text x="306.0869565217391" y="35.0" class="label" text-anchor="middle">52</text>
  <circle cx="311.30434782608694" cy="40.0" class="point"/>
  <text x="311.30434782608694" y="375" class="label" text-anchor="middle">2026-01-02</text>
  <text x="311.30434782608694" y="35.0" class="label" text-anchor="middle">52</text>
  <circle cx="316.52173913043475" cy="40.0" class="point"/>
  <text x="316.52173913043475" y="375" class="label" text-anchor="middle">2026-01-03</text>
  <text x="316.52173913043475" y="35.0" class="label" text-anchor="middle">52</text>
  <circle cx="321.7391304347826" cy="40.0" class="point"/>
  <text x="321.7391304347826" y="375" class="label" text-anchor="middle">2026-01-04</text>
  <text x="321.7391304347826" y="35.0" class="label" text-anchor="middle">52</text>
  <circle cx="326.95652173913044" cy="40.0" class="point"/>
  <text x="326.95652173913044" y="375" class="label" text-anchor="middle">2026-01-05</text>
  <text x="326.95652173913044" y="35.0" class="label" text-anchor="middle">52</text>
  <circle cx="332.17391304347825" cy="40.0" class="point"/>
  <text x="332.17391304347825" y="375" class="label" text-anchor="middle">2026-01-06</text>
  <text x="332.17391304347825" y="35.0" class="label" text-anchor="middle">52</text>
  <circle cx="337.39130434782606" cy="40.0" class="point"/>
  <text x="337.39130434782606" y="375" class="label" text-anchor="middle">2026-01-07</text>
  <text x="337.39130434782606" y="35.0" class="label" text-anchor="middle">52</text>
  <circle cx="342.6086956521739" cy="40.0" class="point"/>
  <text x="342.6086956521739" y="375" class="label" text-anchor="middle">2026-01-08</text>
  <text x="342.6086956521739" y="35.0" class="label" text-anchor="middle">52</text>
  <circle cx="347.82608695652175" cy="40.0" class="point"/>
  <text x="347.82608695652175" y="375" class="label" text-anchor="middle">2026-01-09</text>
  <text x="347.82608695652175" y="35.0" class="label" text-anchor="middle">52</text>
  <circle cx="353.04347826086956" cy="40.0" class="point"/>
  <text x="353.04347826086956" y="375" class="label" text-anchor="middle">2026-01-10</text>
  <text x="353.04347826086956" y="35.0" class="label" text-anchor="middle">52</text>
  <circle cx="358.26086956521743" cy="40.0" class="point"/>
  <text x="358.26086956521743" y="375" class="label" text-anchor="middle">2026-01-11</text>
  <text x="358.26086956521743" y="35.0" class="label" text-anchor="middle">52</text>
  <circle cx="363.4782608695652" cy="40.0" class="point"/>
  <text x="363.4782608695652" y="375" class="label" text-anchor="middle">2026-01-12</text>
  <text x="363.4782608695652" y="35.0" class="label" text-anchor="middle">52</text>
  <circle cx="368.695652173913" cy="40.0" class="point"/>
  <text x="368.695652173913" y="375" class="label" text-anchor="middle">2026-01-13</text>
  <text x="368.695652173913" y="35.0" class="label" text-anchor="middle">52</text>
  <circle cx="373.9130434782609" cy="40.0" class="point"/>
  <text x="373.9130434782609" y="375" class="label" text-anchor="middle">2026-01-14</text>
  <text x="373.9130434782609" y="35.0" class="label" text-anchor="middle">52</text>
  <circle cx="379.1304347826087" cy="40.0" class="point"/>
  <text x="379.1304347826087" y="375" class="label" text-anchor="middle">2026-01-15</text>
  <text x="379.1304347826087" y="35.0" class="label" text-anchor="middle">52</text>
  <circle cx="384.34782608695656" cy="40.0" class="point"/>
  <text x="384.34782608695656" y="375" class="label" text-anchor="middle">2026-01-16</text>
  <text x="384.34782608695656" y="35.0" class="label" text-anchor="middle">52</text>
  <circle cx="389.5652173913043" cy="40.0" class="point"/>
  <text x="389.5652173913043" y="375" class="label" text-anchor="middle">2026-01-17</text>
  <text x="389.5652173913043" y="35.0" class="label" text-anchor="middle">52</text>
  <circle cx="394.7826086956522" cy="40.0" class="point"/>
  <text x="394.7826086956522" y="375" class="label" text-anchor="middle">2026-01-18</text>
  <text x="394.7826086956522" y="35.0" class="label" text-anchor="middle">52</text>
  <circle cx="400.0" cy="40.0" class="point"/>
  <text x="400.0" y="375" class="label" text-anchor="middle">2026-01-19</text>
  <text x="400.0" y="35.0" class="label" text-anchor="middle">52</text>
  <circle cx="405.21739130434787" cy="40.0" class="point"/>
  <text x="405.21739130434787" y="375" class="label" text-anchor="middle">2026-01-20</text>
  <text x="405.21739130434787" y="35.0" class="label" text-anchor="middle">52</text>
  <circle cx="410.4347826086956" cy="40.0" class="point"/>
  <text x="410.4347826086956" y="375" class="label" text-anchor="middle">2026-01-21</text>
  <text x="410.4347826086956" y="35.0" class="label" text-anchor="middle">52</text>
  <circle cx="415.65217391304344" cy="40.0" class="point"/>
  <text x="415.65217391304344" y="375" class="label" text-anchor="middle">2026-01-22</text>
  <text x="415.65217391304344" y="35.0" class="label" text-anchor="middle">52</text>
  <circle cx="420.8695652173913" cy="40.0" class="point"/>
  <text x="420.8695652173913" y="375" class="label" text-anchor="middle">2026-01-23</text>
  <text x="420.8695652173913" y="35.0" class="label" text-anchor="middle">52</text>
  <circle cx="426.0869565217392" cy="40.0" class="point"/>
  <text x="426.0869565217392" y="375" class="label" text-anchor="middle">2026-01-24</text>
  <text x="426.0869565217392" y="35.0" class="label" text-anchor="middle">52</text>
  <circle cx="431.30434782608694" cy="40.0" class="point"/>
  <text x="431.30434782608694" y="375" class="label" text-anchor="middle">2026-01-25</text>
  <text x="431.30434782608694" y="35.0" class="label" text-anchor="middle">52</text>
  <circle cx="436.5217391304348" cy="40.0" class="point"/>
  <text x="436.5217391304348" y="375" class="label" text-anchor="middle">2026-01-26</text>
  <text x="436.5217391304348" y="35.0" class="label" text-anchor="middle">52</text>
  <circle cx="441.7391304347826" cy="40.0" class="point"/>
  <text x="441.7391304347826" y="375" class="label" text-anchor="middle">2026-01-27</text>
  <text x="441.7391304347826" y="35.0" class="label" text-anchor="middle">52</text>
  <circle cx="446.9565217391304" cy="40.0" class="point"/>
  <text x="446.9565217391304" y="375" class="label" text-anchor="middle">2026-01-28</text>
  <text x="446.9565217391304" y="35.0" class="label" text-anchor="middle">52</text>
  <circle cx="452.17391304347825" cy="40.0" class="point"/>
  <text x="452.17391304347825" y="375" class="label" text-anchor="middle">2026-01-29</text>
  <text x="452.17391304347825" y="35.0" class="label" text-anchor="middle">52</text>
  <circle cx="457.3913043478261" cy="40.0" class="point"/>
  <text x="457.3913043478261" y="375" class="label" text-anchor="middle">2026-01-30</text>
  <text x="457.3913043478261" y="35.0" class="label" text-anchor="middle">52</text>
  <circle cx="462.60869565217394" cy="40.0" class="point"/>
  <text x="462.60869565217394" y="375" class="label" text-anchor="middle">2026-01-31</text>
  <text x="462.60869565217394" y="35.0" class="label" text-anchor="middle">52</text>
  <circle cx="467.82608695652175" cy="40.0" class="point"/>
  <text x="467.82608695652175" y="375" class="label" text-anchor="middle">2026-02-01</text>
  <text x="467.82608695652175" y="35.0" class="label" text-anchor="middle">52</text>
  <circle cx="473.04347826086956" cy="40.0" class="point"/>
  <text x="473.04347826086956" y="375" class="label" text-anchor="middle">2026-02-02</text>
  <text x="473.04347826086956" y="35.0" class="label" text-anchor="middle">52</text>
  <circle cx="478.26086956521743" cy="40.0" class="point"/>
  <text x="478.26086956521743" y="375" class="label" text-anchor="middle">2026-02-03</text>
  <text x="478.26086956521743" y="35.0" class="label" text-anchor="middle">52</text>
  <circle cx="483.4782608695652" cy="40.0" class="point"/>
  <text x="483.4782608695652" y="375" class="label" text-anchor="middle">2026-02-04</text>
  <text x="483.4782608695652" y="35.0" class="label" text-anchor="middle">52</text>
  <circle cx="488.69565217391306" cy="40.0" class="point"/>
  <text x="488.69565217391306" y="375" class="label" text-anchor="middle">2026-02-05</text>
  <text x="488.69565217391306" y="35.0" class="label" text-anchor="middle">52</text>
  <circle cx="493.9130434782609" cy="40.0" class="point"/>
  <text x="493.9130434782609" y="375" class="label" text-anchor="middle">2026-02-06</text>
  <text x="493.9130434782609" y="35.0" class="label" text-anchor="middle">52</text>
  <circle cx="499.13043478260863" cy="40.0" class="point"/>
  <text x="499.13043478260863" y="375" class="label" text-anchor="middle">2026-02-07</text>
  <text x="499.13043478260863" y="35.0" class="label" text-anchor="middle">52</text>
  <circle cx="504.3478260869565" cy="40.0" class="point"/>
  <text x="504.3478260869565" y="375" class="label" text-anchor="middle">2026-02-08</text>
  <text x="504.3478260869565" y="35.0" class="label" text-anchor="middle">52</text>
  <circle cx="509.5652173913044" cy="40.0" class="point"/>
  <text x="509.5652173913044" y="375" class="label" text-anchor="middle">2026-02-09</text>
  <text x="509.5652173913044" y="35.0" class="label" text-anchor="middle">52</text>
  <circle cx="514.7826086956522" cy="40.0" class="point"/>
  <text x="514.7826086956522" y="375" class="label" text-anchor="middle">2026-02-10</text>
  <text x="514.7826086956522" y="35.0" class="label" text-anchor="middle">52</text>
  <circle cx="520.0" cy="40.0" class="point"/>
  <text x="520.0" y="375" class="label" text-anchor="middle">2026-02-11</text>
  <text x="520.0" y="35.0" class="label" text-anchor="middle">52</text>
  <circle cx="525.2173913043478" cy="40.0" class="point"/>
  <text x="525.2173913043478" y="375" class="label" text-anchor="middle">2026-02-12</text>
  <text x="525.2173913043478" y="35.0" class="label" text-anchor="middle">52</text>
  <circle cx="530.4347826086957" cy="40.0" class="point"/>
  <text x="530.4347826086957" y="375" class="label" text-anchor="middle">2026-02-13</text>
  <text x="530.4347826086957" y="35.0" class="label" text-anchor="middle">52</text>
  <circle cx="535.6521739130435" cy="40.0" class="point"/>
  <text x="535.6521739130435" y="375" class="label" text-anchor="middle">2026-02-14</text>
  <text x="535.6521739130435" y="35.0" class="label" text-anchor="middle">52</text>
  <circle cx="540.8695652173913" cy="40.0" class="point"/>
  <text x="540.8695652173913" y="375" class="label" text-anchor="middle">2026-02-15</text>
  <text x="540.8695652173913" y="35.0" class="label" text-anchor="middle">52</text>
  <circle cx="546.0869565217391" cy="40.0" class="point"/>
  <text x="546.0869565217391" y="375" class="label" text-anchor="middle">2026-02-16</text>
  <text x="546.0869565217391" y="35.0" class="label" text-anchor="middle">52</text>
  <circle cx="551.304347826087" cy="40.0" class="point"/>
  <text x="551.304347826087" y="375" class="label" text-anchor="middle">2026-02-17</text>
  <text x="551.304347826087" y="35.0" class="label" text-anchor="middle">52</text>
  <circle cx="556.5217391304348" cy="40.0" class="point"/>
  <text x="556.5217391304348" y="375" class="label" text-anchor="middle">2026-02-18</text>
  <text x="556.5217391304348" y="35.0" class="label" text-anchor="middle">52</text>
  <circle cx="561.7391304347826" cy="40.0" class="point"/>
  <text x="561.7391304347826" y="375" class="label" text-anchor="middle">2026-02-19</text>
  <text x="561.7391304347826" y="35.0" class="label" text-anchor="middle">52</text>
  <circle cx="566.9565217391305" cy="40.0" class="point"/>
  <text x="566.9565217391305" y="375" class="label" text-anchor="middle">2026-02-20</text>
  <text x="566.9565217391305" y="35.0" class="label" text-anchor="middle">52</text>
  <circle cx="572.1739130434783" cy="40.0" class="point"/>
  <text x="572.1739130434783" y="375" class="label" text-anchor="middle">2026-02-21</text>
  <text x="572.1739130434783" y="35.0" class="label" text-anchor="middle">52</text>
  <circle cx="577.3913043478261" cy="40.0" class="point"/>
  <text x="577.3913043478261" y="375" class="label" text-anchor="middle">2026-02-22</text>
  <text x="577.3913043478261" y="35.0" class="label" text-anchor="middle">52</text>
  <circle cx="582.6086956521739" cy="40.0" class="point"/>
  <text x="582.6086956521739" y="375" class="label" text-anchor="middle">2026-02-23</text>
  <text x="582.6086956521739" y="35.0" class="label" text-anchor="middle">52</text>
  <circle cx="587.8260869565217" cy="40.0" class="point"/>
  <text x="587.8260869565217" y="375" class="label" text-anchor="middle">2026-02-24</text>
  <text x="587.8260869565217" y="35.0" class="label" text-anchor="middle">52</text>
  <circle cx="593.0434782608695" cy="40.0" class="point"/>
  <text x="593.0434782608695" y="375" class="label" text-anchor="middle">2026-02-25</text>
  <text x="593.0434782608695" y="35.0" class="label" text-anchor="middle">52</text>
  <circle cx="598.2608695652174" cy="40.0" class="point"/>
  <text x="598.2608695652174" y="375" class="label" text-anchor="middle">2026-02-26</text>
  <text x="598.2608695652174" y="35.0" class="label" text-anchor="middle">52</text>
  <circle cx="603.4782608695652" cy="40.0" class="point"/>
  <text x="603.4782608695652" y="375" class="label" text-anchor="middle">2026-02-27</text>
  <text x="603.4782608695652" y="35.0" class="label" text-anchor="middle">52</text>
  <circle cx="608.695652173913" cy="40.0" class="point"/>
  <text x="608.695652173913" y="375" class="label" text-anchor="middle">2026-02-28</text>
  <text x="608.695652173913" y="35.0" class="label" text-anchor="middle">52</text>
  <circle cx="613.9130434782609" cy="40.0" class="point"/>
  <text x="613.9130434782609" y="375" class="label" text-anchor="middle">2026-03-01</text>
  <text x="613.9130434782609" y="35.0" class="label" text-anchor="middle">52</text>
  <circle cx="619.1304347826087" cy="40.0" class="point"/>
  <text x="619.1304347826087" y="375" class="label" text-anchor="middle">2026-03-02</text>
  <text x="619.1304347826087" y="35.0" class="label" text-anchor="middle">52</text>
  <circle cx="624.3478260869565" cy="40.0" class="point"/>
  <text x="624.3478260869565" y="375" class="label" text-anchor="middle">2026-03-03</text>
  <text x="624.3478260869565" y="35.0" class="label" text-anchor="middle">52</text>
  <circle cx="629.5652173913044" cy="40.0" class="point"/>
  <text x="629.5652173913044" y="375" class="label" text-anchor="middle">2026-03-04</text>
  <text x="629.5652173913044" y="35.0" class="label" text-anchor="middle">52</text>
  <circle cx="634.7826086956521" cy="40.0" class="point"/>
  <text x="634.7826086956521" y="375" class="label" text-anchor="middle">2026-03-05</text>
  <text x="634.7826086956521" y="35.0" class="label" text-anchor="middle">52</text>
  <circle cx="640.0" cy="40.0" class="point"/>
  <text x="640.0" y="375" class="label" text-anchor="middle">2026-03-06</text>
  <text x="640.0" y="35.0" class="label" text-anchor="middle">52</text>
  <circle cx="645.2173913043478" cy="40.0" class="point"/>
  <text x="645.2173913043478" y="375" class="label" text-anchor="middle">2026-03-07</text>
  <text x="645.2173913043478" y="35.0" class="label" text-anchor="middle">52</text>
  <circle cx="650.4347826086956" cy="40.0" class="point"/>
  <text x="650.4347826086956" y="375" class="label" text-anchor="middle">2026-03-08</text>
  <text x="650.4347826086956" y="35.0" class="label" text-anchor="middle">52</text>
  <circle cx="655.6521739130435" cy="40.0" class="point"/>
  <text x="655.6521739130435" y="375" class="label" text-anchor="middle">2026-03-09</text>
  <text x="655.6521739130435" y="35.0" class="label" text-anchor="middle">52</text>
  <circle cx="660.8695652173914" cy="40.0" class="point"/>
  <text x="660.8695652173914" y="375" class="label" text-anchor="middle">2026-03-10</text>
  <text x="660.8695652173914" y="35.0" class="label" text-anchor="middle">52</text>
  <circle cx="666.0869565217391" cy="40.0" class="point"/>
  <text x="666.0869565217391" y="375" class="label" text-anchor="middle">2026-03-11</text>
  <text x="666.0869565217391" y="35.0" class="label" text-anchor="middle">52</text>
  <circle cx="671.304347826087" cy="40.0" class="point"/>
  <text x="671.304347826087" y="375" class="label" text-anchor="middle">2026-03-12</text>
  <text x="671.304347826087" y="35.0" class="label" text-anchor="middle">52</text>
  <circle cx="676.5217391304349" cy="40.0" class="point"/>
  <text x="676.5217391304349" y="375" class="label" text-anchor="middle">2026-03-13</text>
  <text x="676.5217391304349" y="35.0" class="label" text-anchor="middle">52</text>
  <circle cx="681.7391304347826" cy="40.0" class="point"/>
  <text x="681.7391304347826" y="375" class="label" text-anchor="middle">2026-03-14</text>
  <text x="681.7391304347826" y="35.0" class="label" text-anchor="middle">52</text>
  <circle cx="686.9565217391304" cy="40.0" class="point"/>
  <text x="686.9565217391304" y="375" class="label" text-anchor="middle">2026-03-15</text>
  <text x="686.9565217391304" y="35.0" class="label" text-anchor="middle">52</text>
  <circle cx="692.1739130434783" cy="40.0" class="point"/>
  <text x="692.1739130434783" y="375" class="label" text-anchor="middle">2026-03-16</text>
  <text x="692.1739130434783" y="35.0" class="label" text-anchor="middle">52</text>
  <circle cx="697.391304347826" cy="40.0" class="point"/>
  <text x="697.391304347826" y="375" class="label" text-anchor="middle">2026-03-17</text>
  <text x="697.391304347826" y="35.0" class="label" text-anchor="middle">52</text>
  <circle cx="702.6086956521739" cy="40.0" class="point"/>
  <text x="702.6086956521739" y="375" class="label" text-anchor="middle">2026-03-18</text>
  <text x="702.6086956521739" y="35.0" class="label" text-anchor="middle">52</text>
  <circle cx="707.8260869565217" cy="40.0" class="point"/>
  <text x="707.8260869565217" y="375" class="label" text-anchor="middle">2026-03-19</text>
  <text x="707.8260869565217" y="35.0" class="label" text-anchor="middle">52</text>
  <circle cx="713.0434782608696" cy="40.0" class="point"/>
  <text x="713.0434782608696" y="375" class="label" text-anchor="middle">2026-03-20</text>
  <text x="713.0434782608696" y="35.0" class="label" text-anchor="middle">52</text>
  <circle cx="718.2608695652174" cy="40.0" class="point"/>
  <text x="718.2608695652174" y="375" class="label" text-anchor="middle">2026-03-21</text>
  <text x="718.2608695652174" y="35.0" class="label" text-anchor="middle">52</text>
  <circle cx="723.4782608695652" cy="40.0" class="point"/>
  <text x="723.4782608695652" y="375" class="label" text-anchor="middle">2026-03-22</text>
  <text x="723.4782608695652" y="35.0" class="label" text-anchor="middle">52</text>
  <circle cx="728.6956521739131" cy="40.0" class="point"/>
  <text x="728.6956521739131" y="375" class="label" text-anchor="middle">2026-03-23</text>
  <text x="728.6956521739131" y="35.0" class="label" text-anchor="middle">52</text>
  <circle cx="733.9130434782609" cy="40.0" class="point"/>
  <text x="733.9130434782609" y="375" class="label" text-anchor="middle">2026-03-24</text>
  <text x="733.9130434782609" y="35.0" class="label" text-anchor="middle">52</text>
  <circle cx="739.1304347826086" cy="40.0" class="point"/>
  <text x="739.1304347826086" y="375" class="label" text-anchor="middle">2026-03-25</text>
  <text x="739.1304347826086" y="35.0" class="label" text-anchor="middle">52</text>
  <circle cx="744.3478260869565" cy="40.0" class="point"/>
  <text x="744.3478260869565" y="375" class="label" text-anchor="middle">2026-03-26</text>
  <text x="744.3478260869565" y="35.0" class="label" text-anchor="middle">52</text>
  <circle cx="749.5652173913044" cy="40.0" class="point"/>
  <text x="749.5652173913044" y="375" class="label" text-anchor="middle">2026-03-27</text>
  <text x="749.5652173913044" y="35.0" class="label" text-anchor="middle">52</text>
  <circle cx="754.7826086956521" cy="40.0" class="point"/>
  <text x="754.7826086956521" y="375" class="label" text-anchor="middle">2026-03-28</text>
  <text x="754.7826086956521" y="35.0" class="label" text-anchor="middle">52</text>
  <circle cx="760.0" cy="40.0" class="point"/>
  <text x="760.0" y="375" class="label" text-anchor="middle">2026-03-29</text>
  <text x="760.0" y="35.0" class="label" text-anchor="middle">52</text>
  <text x="30" y="363.0" class="label" text-anchor="end">0</text>
  <text x="30" y="301.46153846153845" class="label" text-anchor="end">10</text>
  <text x="30" y="239.9230769230769" class="label" text-anchor="end">20</text>
  <text x="30" y="178.38461538461542" class="label" text-anchor="end">30</text>
  <text x="30" y="116.84615384615384" class="label" text-anchor="end">40</text>
  <text x="30" y="55.30769230769232" class="label" text-anchor="end">50</text>
</svg>