<svg xmlns="http://www.w3.org/2000/svg" width="800" height="400" viewBox="0 0 800 400">
  <style>
    .axis{stroke:#666;stroke-width:1}
    .line{stroke:#4a9;stroke-width:2;fill:none}
    .point{fill:#4a9;r:4}
    .label{font:10px sans-serif;fill:#aaa}
    .title{font:14px sans-serif;fill:#333}
  </style>
  <text x="400" y="20" class="title" text-anchor="middle">OPIC Field Growth Timeline</text>
  <line x1="40" y1="40" x2="40" y2="360" class="axis"/>
  <line x1="40" y1="360" x2="760" y2="360" class="axis"/>
  <path d="M 40.0,101.53846153846155 L 65.71428571428571,101.53846153846155 L 91.42857142857142,101.53846153846155 L 117.14285714285714,101.53846153846155 L 142.85714285714283,101.53846153846155 L 168.57142857142858,101.53846153846155 L 194.28571428571428,101.53846153846155 L 220.0,101.53846153846155 L 245.7142857142857,101.53846153846155 L 271.42857142857144,101.53846153846155 L 297.14285714285717,101.53846153846155 L 322.85714285714283,101.53846153846155 L 348.57142857142856,101.53846153846155 L 374.2857142857143,101.53846153846155 L 400.0,101.53846153846155 L 425.7142857142857,101.53846153846155 L 451.4285714285714,101.53846153846155 L 477.1428571428571,101.53846153846155 L 502.8571428571429,101.53846153846155 L 528.5714285714287,101.53846153846155 L 554.2857142857143,101.53846153846155 L 580.0,101.53846153846155 L 605.7142857142857,101.53846153846155 L 631.4285714285714,101.53846153846155 L 657.1428571428571,101.53846153846155 L 682.8571428571429,101.53846153846155 L 708.5714285714286,101.53846153846155 L 734.2857142857143,40.0 L 760.0,40.0" class="line"/>
  <circle cx="40.0" cy="101.53846153846155" class="point"/>
  <text x="40.0" y="375" class="label" text-anchor="middle">2025-11-11</text>
  <text x="40.0" y="96.53846153846155" class="label" text-anchor="middle">42</text>
  <circle cx="65.71428571428571" cy="101.53846153846155" class="point"/>
  <text x="65.71428571428571" y="375" class="label" text-anchor="middle">2025-11-12</text>
  <text x="65.71428571428571" y="96.53846153846155" class="label" text-anchor="middle">42</text>
  <circle cx="91.42857142857142" cy="101.53846153846155" class="point"/>
  <text x="91.42857142857142" y="375" class="label" text-anchor="middle">2025-11-13</text>
  <text x="91.42857142857142" y="96.53846153846155" class="label" text-anchor="middle">42</text>
  <circle cx="117.14285714285714" cy="101.53846153846155" class="point"/>
  <text x="117.14285714285714" y="375" class="label" text-anchor="middle">2025-11-14</text>
  <text x="117.14285714285714" y="96.53846153846155" class="label" text-anchor="middle">42</text>
  <circle cx="142.85714285714283" cy="101.53846153846155" class="point"/>
  <text x="142.85714285714283" y="375" class="label" text-anchor="middle">2025-11-15</text>
  <text x="142.85714285714283" y="96.53846153846155" class="label" text-anchor="middle">42</text>
  <circle cx="168.57142857142858" cy="101.53846153846155" class="point"/>
  <text x="168.57142857142858" y="375" class="label" text-anchor="middle">2025-11-16</text>
  <text x="168.57142857142858" y="96.53846153846155" class="label" text-anchor="middle">42</text>
  <circle cx="194.28571428571428" cy="101.53846153846155" class="point"/>
  <text x="194.28571428571428" y="375" class="label" text-anchor="middle">2025-11-17</text>
  <text x="194.28571428571428" y="96.53846153846155" class="label" text-anchor="middle">42</text>
  <circle cx="220.0" cy="101.53846153846155" class="point"/>
  <text x="220.0" y="375" class="label" text-anchor="middle">2025-11-18</text>
  <text x="220.0" y="96.53846153846155" class="label" text-anchor="middle">42</text>
  <circle cx="245.7142857142857" cy="101.53846153846155" class="point"/>
  <text x="245.7142857142857" y="375" class="label" text-anchor="middle">2025-11-19</text>
  <text x="245.7142857142857" y="96.53846153846155" class="label" text-anchor="middle">42</text>
  <circle cx="271.42857142857144" cy="101.53846153846155" class="point"/>
  <text x="271.42857142857144" y="375" class="label" text-anchor="middle">2025-11-20</text>
  <text x="271.42857142857144" y="96.53846153846155" class="label" text-anchor="middle">42</text>
  <circle cx="297.14285714285717" cy="101.53846153846155" class="point"/>
  <text x="297.14285714285717" y="375" class="label" text-anchor="middle">2025-11-21</text>
  <text x="297.14285714285717" y="96.53846153846155" class="label" text-anchor="middle">42</text>
  <circle cx="322.85714285714283" cy="101.53846153846155" class="point"/>
  <text x="322.85714285714283" y="375" class="label" text-anchor="middle">2025-11-22</text>
  <text x="322.85714285714283" y="96.53846153846155" class="label" text-anchor="middle">42</text>
  <circle cx="348.57142857142856" cy="101.53846153846155" class="point"/>
  <text x="348.57142857142856" y="375" class="label" text-anchor="middle">2025-11-23</text>
  <text x="348.57142857142856" y="96.53846153846155" class="label" text-anchor="middle">42</text>
  <circle cx="374.2857142857143" cy="101.53846153846155" class="point"/>
  <text x="374.2857142857143" y="375" class="label" text-anchor="middle">2025-11-24</text>
  <text x="374.2857142857143" y="96.53846153846155" class="label" text-anchor="middle">42</text>
  <circle cx="400.0" cy="101.53846153846155" class="point"/>
  <text x="400.0" y="375" class="label" text-anchor="middle">2025-11-25</text>
  <text x="400.0" y="96.53846153846155" class="label" text-anchor="middle">42</text>
  <circle cx="425.7142857142857" cy="101.53846153846155" class="point"/>
  <text x="425.7142857142857" y="375" class="label" text-anchor="middle">2025-11-26</text>
  <text x="425.7142857142857" y="96.53846153846155" class="label" text-anchor="middle">42</text>
  <circle cx="451.4285714285714" cy="101.53846153846155" class="point"/>
  <text x="451.4285714285714" y="375" class="label" text-anchor="middle">2025-11-27</text>
  <text x="451.4285714285714" y="96.53846153846155" class="label" text-anchor="middle">42</text>
  <circle cx="477.1428571428571" cy="101.53846153846155" class="point"/>
  <text x="477.1428571428571" y="375" class="label" text-anchor="middle">2025-11-28</text>
  <text x="477.1428571428571" y="96.53846153846155" class="label" text-anchor="middle">42</text>
  <circle cx="502.8571428571429" cy="101.53846153846155" class="point"/>
  <text x="502.8571428571429" y="375" class="label" text-anchor="middle">2025-11-29</text>
  <text x="502.8571428571429" y="96.53846153846155" class="label" text-anchor="middle">42</text>
  <circle cx="528.5714285714287" cy="101.53846153846155" class="point"/>
  <text x="528.5714285714287" y="375" class="label" text-anchor="middle">2025-11-30</text>
  <text x="528.5714285714287" y="96.53846153846155" class="label" text-anchor="middle">42</text>
  <circle cx="554.2857142857143" cy="101.53846153846155" class="point"/>
  <text x="554.2857142857143" y="375" class="label" text-anchor="middle">2025-12-01</text>
  <text x="554.2857142857143" y="96.53846153846155" class="label" text-anchor="middle">42</text>
  <circle cx="580.0" cy="101.53846153846155" class="point"/>
  <text x="580.0" y="375" class="label" text-anchor="middle">2025-12-02</text>
  <text x="580.0" y="96.53846153846155" class="label" text-anchor="middle">42</text>
  <circle cx="605.7142857142857" cy="101.53846153846155" class="point"/>
  <text x="605.7142857142857" y="375" class="label" text-anchor="middle">2025-12-03</text>
  <text x="605.7142857142857" y="96.53846153846155" class="label" text-anchor="middle">42</text>
  <circle cx="631.4285714285714" cy="101.53846153846155" class="point"/>
  <text x="631.4285714285714" y="375" class="label" text-anchor="middle">2025-12-04</text>
  <text x="631.4285714285714" y="96.53846153846155" class="label" text-anchor="middle">42</text>
  <circle cx="657.1428571428571" cy="101.53846153846155" class="point"/>
  <text x="657.1428571428571" y="375" class="label" text-anchor="middle">2025-12-05</text>
  <text x="657.1428571428571" y="96.53846153846155" class="label" text-anchor="middle">42</text>
  <circle cx="682.8571428571429" cy="101.53846153846155" class="point"/>
  <text x="682.8571428571429" y="375" class="label" text-anchor="middle">2025-12-06</text>
  <text x="682.8571428571429" y="96.53846153846155" class="label" text-anchor="middle">42</text>
  <circle cx="708.5714285714286" cy="101.53846153846155" class="point"/>
  <text x="708.5714285714286" y="375" class="label" text-anchor="middle">2025-12-07</text>
  <text x="708.5714285714286" y="96.53846153846155" class="label" text-anchor="middle">42</text>
  <circle cx="734.2857142857143" cy="40.0" class="point"/>
  <text x="734.2857142857143" y="375" class="label" text-anchor="middle">2025-12-08</text>
  <text x="734.2857142857143" y="35.0" class="label" text-anchor="middle">52</text>
  <circle cx="760.0" cy="40.0" class="point"/>
  <text x="760.0" y="375" class="label" text-anchor="middle">2025-12-09</text>
  <text x="760.0" y="35.0" class="label" text-anchor="middle">52</text>
  <text x="30" y="363.0" class="label" text-anchor="end">0</text>
  <text x="30" y="301.46153846153845" class="label" text-anchor="end">10</text>
  <text x="30" y="239.9230769230769" class="label" text-anchor="end">20</text>
  <text x="30" y="178.38461538461542" class="label" text-anchor="end">30</text>
  <text x="30" y="116.84615384615384" class="label" text-anchor="end">40</text>
  <text x="30" y="55.30769230769232" class="label" text-anchor="end">50</text>
</svg>