<svg xmlns="http://www.w3.org/2000/svg" width="800" height="400" viewBox="0 0 800 400">
  <style>
    .axis{stroke:#666;stroke-width:1}
    .line{stroke:#4a9;stroke-width:2;fill:none}
    .point{fill:#4a9;r:4}
    .label{font:10px sans-serif;fill:#aaa}
    .title{font:14px sans-serif;fill:#333}
  </style>
  <text x="400" y="20" class="title" text-anchor="middle">OPIC Field Growth Timeline</text>
  <line x1="40" y1="40" x2="40" y2="360" class="axis"/>
  <line x1="40" y1="360" x2="760" y2="360" class="axis"/>
  <path d="M 40.0,101.53846153846155 L 47.12871287128713,101.53846153846155 L 54.257425742574256,101.53846153846155 L 61.386138613861384,101.53846153846155 L 68.51485148514851,101.53846153846155 L 75.64356435643565,101.53846153846155 L 82.77227722772277,101.53846153846155 L 89.9009900990099,101.53846153846155 L 97.02970297029702,101.53846153846155 L 104.15841584158416,101.53846153846155 L 111.2871287128713,101.53846153846155 L 118.41584158415841,101.53846153846155 L 125.54455445544554,101.53846153846155 L 132.67326732673268,101.53846153846155 L 139.8019801980198,101.53846153846155 L 146.93069306930693,101.53846153846155 L 154.05940594059405,101.53846153846155 L 161.1881188118812,101.53846153846155 L 168.31683168316832,101.53846153846155 L 175.44554455445544,101.53846153846155 L 182.5742574257426,101.53846153846155 L 189.7029702970297,101.53846153846155 L 196.83168316831683,101.53846153846155 L 203.96039603960398,101.53846153846155 L 211.08910891089107,101.53846153846155 L 218.21782178217822,101.53846153846155 L 225.34653465346534,101.53846153846155 L 232.4752475247525,40.0 L 239.6039603960396,40.0 L 246.7326732673267,40.0 L 253.86138613861385,40.0 L 260.990099009901,40.0 L 268.1188118811881,40.0 L 275.2475247524752,40.0 L 282.3762376237624,40.0 L 289.50495049504946,40.0 L 296.63366336633663,40.0 L 303.76237623762376,40.0 L 310.8910891089109,40.0 L 318.01980198019805,40.0 L 325.1485148514852,40.0 L 332.2772277227723,40.0 L 339.4059405940594,40.0 L 346.53465346534654,40.0 L 353.66336633663366,40.0 L 360.7920792079208,40.0 L 367.92079207920796,40.0 L 375.0495049504951,40.0 L 382.17821782178214,40.0 L 389.3069306930693,40.0 L 396.43564356435644,40.0 L 403.56435643564356,40.0 L 410.6930693069307,40.0 L 417.82178217821786,40.0 L 424.950495049505,40.0 L 432.0792079207921,40.0 L 439.2079207920792,40.0 L 446.3366336633663,40.0 L 453.4653465346534,40.0 L 460.5940594059406,40.0 L 467.7227722772277,40.0 L 474.8514851485148,40.0 L 481.98019801980195,40.0 L 489.1089108910891,40.0 L 496.23762376237624,40.0 L 503.36633663366337,40.0 L 510.4950495049505,40.0 L 517.6237623762377,40.0 L 524.7524752475248,40.0 L 531.8811881188119,40.0 L 539.0099009900989,40.0 L 546.1386138613861,40.0 L 553.2673267326733,40.0 L 560.3960396039604,40.0 L 567.5247524752475,40.0 L 574.6534653465346,40.0 L 581.7821782178218,40.0 L 588.9108910891089,40.0 L 596.0396039603961,40.0 L 603.1683168316832,40.0 L 610.2970297029703,40.0 L 617.4257425742575,40.0 L 624.5544554455446,40.0 L 631.6831683168316,40.0 L 638.8118811881188,40.0 L 645.940594059406,40.0 L 653.0693069306931,40.0 L 660.1980198019802,40.0 L 667.3267326732673,40.0 L 674.4554455445544,40.0 L 681.5841584158416,40.0 L 688.7128712871287,40.0 L 695.8415841584159,40.0 L 702.970297029703,40.0 L 710.0990099009902,40.0 L 717.2277227722772,40.0 L 724.3564356435643,40.0 L 731.4851485148515,40.0 L 738.6138613861386,40.0 L 745.7425742574258,40.0 L 752.8712871287129,40.0 L 760.0,40.0" class="line"/>
  <circle cx="40.0" cy="101.53846153846155" class="point"/>
  <text x="40.0" y="375" class="label" text-anchor="middle">2025-11-11</text>
  <text x="40.0" y="96.53846153846155" class="label" text-anchor="middle">42</text>
  <circle cx="47.12871287128713" cy="101.53846153846155" class="point"/>
  <text x="47.12871287128713" y="375" class="label" text-anchor="middle">2025-11-12</text>
  <text x="47.12871287128713" y="96.53846153846155" class="label" text-anchor="middle">42</text>
  <circle cx="54.257425742574256" cy="101.53846153846155" class="point"/>
  <text x="54.257425742574256" y="375" class="label" text-anchor="middle">2025-11-13</text>
  <text x="54.257425742574256" y="96.53846153846155" class="label" text-anchor="middle">42</text>
  <circle cx="61.386138613861384" cy="101.53846153846155" class="point"/>
  <text x="61.386138613861384" y="375" class="label" text-anchor="middle">2025-11-14</text>
  <text x="61.386138613861384" y="96.53846153846155" class="label" text-anchor="middle">42</text>
  <circle cx="68.51485148514851" cy="101.53846153846155" class="point"/>
  <text x="68.51485148514851" y="375" class="label" text-anchor="middle">2025-11-15</text>
  <text x="68.51485148514851" y="96.53846153846155" class="label" text-anchor="middle">42</text>
  <circle cx="75.64356435643565" cy="101.53846153846155" class="point"/>
  <text x="75.64356435643565" y="375" class="label" text-anchor="middle">2025-11-16</text>
  <text x="75.64356435643565" y="96.53846153846155" class="label" text-anchor="middle">42</text>
  <circle cx="82.77227722772277" cy="101.53846153846155" class="point"/>
  <text x="82.77227722772277" y="375" class="label" text-anchor="middle">2025-11-17</text>
  <text x="82.77227722772277" y="96.53846153846155" class="label" text-anchor="middle">42</text>
  <circle cx="89.9009900990099" cy="101.53846153846155" class="point"/>
  <text x="89.9009900990099" y="375" class="label" text-anchor="middle">2025-11-18</text>
  <text x="89.9009900990099" y="96.53846153846155" class="label" text-anchor="middle">42</text>
  <circle cx="97.02970297029702" cy="101.53846153846155" class="point"/>
  <text x="97.02970297029702" y="375" class="label" text-anchor="middle">2025-11-19</text>
  <text x="97.02970297029702" y="96.53846153846155" class="label" text-anchor="middle">42</text>
  <circle cx="104.15841584158416" cy="101.53846153846155" class="point"/>
  <text x="104.15841584158416" y="375" class="label" text-anchor="middle">2025-11-20</text>
  <text x="104.15841584158416" y="96.53846153846155" class="label" text-anchor="middle">42</text>
  <circle cx="111.2871287128713" cy="101.53846153846155" class="point"/>
  <text x="111.2871287128713" y="375" class="label" text-anchor="middle">2025-11-21</text>
  <text x="111.2871287128713" y="96.53846153846155" class="label" text-anchor="middle">42</text>
  <circle cx="118.41584158415841" cy="101.53846153846155" class="point"/>
  <text x="118.41584158415841" y="375" class="label" text-anchor="middle">2025-11-22</text>
  <text x="118.41584158415841" y="96.53846153846155" class="label" text-anchor="middle">42</text>
  <circle cx="125.54455445544554" cy="101.53846153846155" class="point"/>
  <text x="125.54455445544554" y="375" class="label" text-anchor="middle">2025-11-23</text>
  <text x="125.54455445544554" y="96.53846153846155" class="label" text-anchor="middle">42</text>
  <circle cx="132.67326732673268" cy="101.53846153846155" class="point"/>
  <text x="132.67326732673268" y="375" class="label" text-anchor="middle">2025-11-24</text>
  <text x="132.67326732673268" y="96.53846153846155" class="label" text-anchor="middle">42</text>
  <circle cx="139.8019801980198" cy="101.53846153846155" class="point"/>
  <text x="139.8019801980198" y="375" class="label" text-anchor="middle">2025-11-25</text>
  <text x="139.8019801980198" y="96.53846153846155" class="label" text-anchor="middle">42</text>
  <circle cx="146.93069306930693" cy="101.53846153846155" class="point"/>
  <text x="146.93069306930693" y="375" class="label" text-anchor="middle">2025-11-26</text>
  <text x="146.93069306930693" y="96.53846153846155" class="label" text-anchor="middle">42</text>
  <circle cx="154.05940594059405" cy="101.53846153846155" class="point"/>
  <text x="154.05940594059405" y="375" class="label" text-anchor="middle">2025-11-27</text>
  <text x="154.05940594059405" y="96.53846153846155" class="label" text-anchor="middle">42</text>
  <circle cx="161.1881188118812" cy="101.53846153846155" class="point"/>
  <text x="161.1881188118812" y="375" class="label" text-anchor="middle">2025-11-28</text>
  <text x="161.1881188118812" y="96.53846153846155" class="label" text-anchor="middle">42</text>
  <circle cx="168.31683168316832" cy="101.53846153846155" class="point"/>
  <text x="168.31683168316832" y="375" class="label" text-anchor="middle">2025-11-29</text>
  <text x="168.31683168316832" y="96.53846153846155" class="label" text-anchor="middle">42</text>
  <circle cx="175.44554455445544" cy="101.53846153846155" class="point"/>
  <text x="175.44554455445544" y="375" class="label" text-anchor="middle">2025-11-30</text>
  <text x="175.44554455445544" y="96.53846153846155" class="label" text-anchor="middle">42</text>
  <circle cx="182.5742574257426" cy="101.53846153846155" class="point"/>
  <text x="182.5742574257426" y="375" class="label" text-anchor="middle">2025-12-01</text>
  <text x="182.5742574257426" y="96.53846153846155" class="label" text-anchor="middle">42</text>
  <circle cx="189.7029702970297" cy="101.53846153846155" class="point"/>
  <text x="189.7029702970297" y="375" class="label" text-anchor="middle">2025-12-02</text>
  <text x="189.7029702970297" y="96.53846153846155" class="label" text-anchor="middle">42</text>
  <circle cx="196.83168316831683" cy="101.53846153846155" class="point"/>
  <text x="196.83168316831683" y="375" class="label" text-anchor="middle">2025-12-03</text>
  <text x="196.83168316831683" y="96.53846153846155" class="label" text-anchor="middle">42</text>
  <circle cx="203.96039603960398" cy="101.53846153846155" class="point"/>
  <text x="203.96039603960398" y="375" class="label" text-anchor="middle">2025-12-04</text>
  <text x="203.96039603960398" y="96.53846153846155" class="label" text-anchor="middle">42</text>
  <circle cx="211.08910891089107" cy="101.53846153846155" class="point"/>
  <text x="211.08910891089107" y="375" class="label" text-anchor="middle">2025-12-05</text>
  <text x="211.08910891089107" y="96.53846153846155" class="label" text-anchor="middle">42</text>
  <circle cx="218.21782178217822" cy="101.53846153846155" class="point"/>
  <text x="218.21782178217822" y="375" class="label" text-anchor="middle">2025-12-06</text>
  <text x="218.21782178217822" y="96.53846153846155" class="label" text-anchor="middle">42</text>
  <circle cx="225.34653465346534" cy="101.53846153846155" class="point"/>
  <text x="225.34653465346534" y="375" class="label" text-anchor="middle">2025-12-07</text>
  <text x="225.34653465346534" y="96.53846153846155" class="label" text-anchor="middle">42</text>
  <circle cx="232.4752475247525" cy="40.0" class="point"/>
  <text x="232.4752475247525" y="375" class="label" text-anchor="middle">2025-12-08</text>
  <text x="232.4752475247525" y="35.0" class="label" text-anchor="middle">52</text>
  <circle cx="239.6039603960396" cy="40.0" class="point"/>
  <text x="239.6039603960396" y="375" class="label" text-anchor="middle">2025-12-09</text>
  <text x="239.6039603960396" y="35.0" class="label" text-anchor="middle">52</text>
  <circle cx="246.7326732673267" cy="40.0" class="point"/>
  <text x="246.7326732673267" y="375" class="label" text-anchor="middle">2025-12-10</text>
  <text x="246.7326732673267" y="35.0" class="label" text-anchor="middle">52</text>
  <circle cx="253.86138613861385" cy="40.0" class="point"/>
  <text x="253.86138613861385" y="375" class="label" text-anchor="middle">2025-12-11</text>
  <text x="253.86138613861385" y="35.0" class="label" text-anchor="middle">52</text>
  <circle cx="260.990099009901" cy="40.0" class="point"/>
  <text x="260.990099009901" y="375" class="label" text-anchor="middle">2025-12-12</text>
  <text x="260.990099009901" y="35.0" class="label" text-anchor="middle">52</text>
  <circle cx="268.1188118811881" cy="40.0" class="point"/>
  <text x="268.1188118811881" y="375" class="label" text-anchor="middle">2025-12-13</text>
  <text x="268.1188118811881" y="35.0" class="label" text-anchor="middle">52</text>
  <circle cx="275.2475247524752" cy="40.0" class="point"/>
  <text x="275.2475247524752" y="375" class="label" text-anchor="middle">2025-12-14</text>
  <text x="275.2475247524752" y="35.0" class="label" text-anchor="middle">52</text>
  <circle cx="282.3762376237624" cy="40.0" class="point"/>
  <text x="282.3762376237624" y="375" class="label" text-anchor="middle">2025-12-15</text>
  <text x="282.3762376237624" y="35.0" class="label" text-anchor="middle">52</text>
  <circle cx="289.50495049504946" cy="40.0" class="point"/>
  <text x="289.50495049504946" y="375" class="label" text-anchor="middle">2025-12-16</text>
  <text x="289.50495049504946" y="35.0" class="label" text-anchor="middle">52</text>
  <circle cx="296.63366336633663" cy="40.0" class="point"/>
  <text x="296.63366336633663" y="375" class="label" text-anchor="middle">2025-12-17</text>
  <text x="296.63366336633663" y="35.0" class="label" text-anchor="middle">52</text>
  <circle cx="303.76237623762376" cy="40.0" class="point"/>
  <text x="303.76237623762376" y="375" class="label" text-anchor="middle">2025-12-18</text>
  <text x="303.76237623762376" y="35.0" class="label" text-anchor="middle">52</text>
  <circle cx="310.8910891089109" cy="40.0" class="point"/>
  <text x="310.8910891089109" y="375" class="label" text-anchor="middle">2025-12-19</text>
  <text x="310.8910891089109" y="35.0" class="label" text-anchor="middle">52</text>
  <circle cx="318.01980198019805" cy="40.0" class="point"/>
  <text x="318.01980198019805" y="375" class="label" text-anchor="middle">2025-12-20</text>
  <text x="318.01980198019805" y="35.0" class="label" text-anchor="middle">52</text>
  <circle cx="325.1485148514852" cy="40.0" class="point"/>
  <text x="325.1485148514852" y="375" class="label" text-anchor="middle">2025-12-21</text>
  <text x="325.1485148514852" y="35.0" class="label" text-anchor="middle">52</text>
  <circle cx="332.2772277227723" cy="40.0" class="point"/>
  <text x="332.2772277227723" y="375" class="label" text-anchor="middle">2025-12-22</text>
  <text x="332.2772277227723" y="35.0" class="label" text-anchor="middle">52</text>
  <circle cx="339.4059405940594" cy="40.0" class="point"/>
  <text x="339.4059405940594" y="375" class="label" text-anchor="middle">2025-12-23</text>
  <text x="339.4059405940594" y="35.0" class="label" text-anchor="middle">52</text>
  <circle cx="346.53465346534654" cy="40.0" class="point"/>
  <text x="346.53465346534654" y="375" class="label" text-anchor="middle">2025-12-24</text>
  <text x="346.53465346534654" y="35.0" class="label" text-anchor="middle">52</text>
  <circle cx="353.66336633663366" cy="40.0" class="point"/>
  <text x="353.66336633663366" y="375" class="label" text-anchor="middle">2025-12-25</text>
  <text x="353.66336633663366" y="35.0" class="label" text-anchor="middle">52</text>
  <circle cx="360.7920792079208" cy="40.0" class="point"/>
  <text x="360.7920792079208" y="375" class="label" text-anchor="middle">2025-12-26</text>
  <text x="360.7920792079208" y="35.0" class="label" text-anchor="middle">52</text>
  <circle cx="367.92079207920796" cy="40.0" class="point"/>
  <text x="367.92079207920796" y="375" class="label" text-anchor="middle">2025-12-27</text>
  <text x="367.92079207920796" y="35.0" class="label" text-anchor="middle">52</text>
  <circle cx="375.0495049504951" cy="40.0" class="point"/>
  <text x="375.0495049504951" y="375" class="label" text-anchor="middle">2025-12-28</text>
  <text x="375.0495049504951" y="35.0" class="label" text-anchor="middle">52</text>
  <circle cx="382.17821782178214" cy="40.0" class="point"/>
  <text x="382.17821782178214" y="375" class="label" text-anchor="middle">2025-12-29</text>
  <text x="382.17821782178214" y="35.0" class="label" text-anchor="middle">52</text>
  <circle cx="389.3069306930693" cy="40.0" class="point"/>
  <text x="389.3069306930693" y="375" class="label" text-anchor="middle">2025-12-30</text>
  <text x="389.3069306930693" y="35.0" class="label" text-anchor="middle">52</text>
  <circle cx="396.43564356435644" cy="40.0" class="point"/>
  <text x="396.43564356435644" y="375" class="label" text-anchor="middle">2025-12-31</text>
  <text x="396.43564356435644" y="35.0" class="label" text-anchor="middle">52</text>
  <circle cx="403.56435643564356" cy="40.0" class="point"/>
  <text x="403.56435643564356" y="375" class="label" text-anchor="middle">2026-01-01</text>
  <text x="403.56435643564356" y="35.0" class="label" text-anchor="middle">52</text>
  <circle cx="410.6930693069307" cy="40.0" class="point"/>
  <text x="410.6930693069307" y="375" class="label" text-anchor="middle">2026-01-02</text>
  <text x="410.6930693069307" y="35.0" class="label" text-anchor="middle">52</text>
  <circle cx="417.82178217821786" cy="40.0" class="point"/>
  <text x="417.82178217821786" y="375" class="label" text-anchor="middle">2026-01-03</text>
  <text x="417.82178217821786" y="35.0" class="label" text-anchor="middle">52</text>
  <circle cx="424.950495049505" cy="40.0" class="point"/>
  <text x="424.950495049505" y="375" class="label" text-anchor="middle">2026-01-04</text>
  <text x="424.950495049505" y="35.0" class="label" text-anchor="middle">52</text>
  <circle cx="432.0792079207921" cy="40.0" class="point"/>
  <text x="432.0792079207921" y="375" class="label" text-anchor="middle">2026-01-05</text>
  <text x="432.0792079207921" y="35.0" class="label" text-anchor="middle">52</text>
  <circle cx="439.2079207920792" cy="40.0" class="point"/>
  <text x="439.2079207920792" y="375" class="label" text-anchor="middle">2026-01-06</text>
  <text x="439.2079207920792" y="35.0" class="label" text-anchor="middle">52</text>
  <circle cx="446.3366336633663" cy="40.0" class="point"/>
  <text x="446.3366336633663" y="375" class="label" text-anchor="middle">2026-01-07</text>
  <text x="446.3366336633663" y="35.0" class="label" text-anchor="middle">52</text>
  <circle cx="453.4653465346534" cy="40.0" class="point"/>
  <text x="453.4653465346534" y="375" class="label" text-anchor="middle">2026-01-08</text>
  <text x="453.4653465346534" y="35.0" class="label" text-anchor="middle">52</text>
  <circle cx="460.5940594059406" cy="40.0" class="point"/>
  <text x="460.5940594059406" y="375" class="label" text-anchor="middle">2026-01-09</text>
  <text x="460.5940594059406" y="35.0" class="label" text-anchor="middle">52</text>
  <circle cx="467.7227722772277" cy="40.0" class="point"/>
  <text x="467.7227722772277" y="375" class="label" text-anchor="middle">2026-01-10</text>
  <text x="467.7227722772277" y="35.0" class="label" text-anchor="middle">52</text>
  <circle cx="474.8514851485148" cy="40.0" class="point"/>
  <text x="474.8514851485148" y="375" class="label" text-anchor="middle">2026-01-11</text>
  <text x="474.8514851485148" y="35.0" class="label" text-anchor="middle">52</text>
  <circle cx="481.98019801980195" cy="40.0" class="point"/>
  <text x="481.98019801980195" y="375" class="label" text-anchor="middle">2026-01-12</text>
  <text x="481.98019801980195" y="35.0" class="label" text-anchor="middle">52</text>
  <circle cx="489.1089108910891" cy="40.0" class="point"/>
  <text x="489.1089108910891" y="375" class="label" text-anchor="middle">2026-01-13</text>
  <text x="489.1089108910891" y="35.0" class="label" text-anchor="middle">52</text>
  <circle cx="496.23762376237624" cy="40.0" class="point"/>
  <text x="496.23762376237624" y="375" class="label" text-anchor="middle">2026-01-14</text>
  <text x="496.23762376237624" y="35.0" class="label" text-anchor="middle">52</text>
  <circle cx="503.36633663366337" cy="40.0" class="point"/>
  <text x="503.36633663366337" y="375" class="label" text-anchor="middle">2026-01-15</text>
  <text x="503.36633663366337" y="35.0" class="label" text-anchor="middle">52</text>
  <circle cx="510.4950495049505" cy="40.0" class="point"/>
  <text x="510.4950495049505" y="375" class="label" text-anchor="middle">2026-01-16</text>
  <text x="510.4950495049505" y="35.0" class="label" text-anchor="middle">52</text>
  <circle cx="517.6237623762377" cy="40.0" class="point"/>
  <text x="517.6237623762377" y="375" class="label" text-anchor="middle">2026-01-17</text>
  <text x="517.6237623762377" y="35.0" class="label" text-anchor="middle">52</text>
  <circle cx="524.7524752475248" cy="40.0" class="point"/>
  <text x="524.7524752475248" y="375" class="label" text-anchor="middle">2026-01-18</text>
  <text x="524.7524752475248" y="35.0" class="label" text-anchor="middle">52</text>
  <circle cx="531.8811881188119" cy="40.0" class="point"/>
  <text x="531.8811881188119" y="375" class="label" text-anchor="middle">2026-01-19</text>
  <text x="531.8811881188119" y="35.0" class="label" text-anchor="middle">52</text>
  <circle cx="539.0099009900989" cy="40.0" class="point"/>
  <text x="539.0099009900989" y="375" class="label" text-anchor="middle">2026-01-20</text>
  <text x="539.0099009900989" y="35.0" class="label" text-anchor="middle">52</text>
  <circle cx="546.1386138613861" cy="40.0" class="point"/>
  <text x="546.1386138613861" y="375" class="label" text-anchor="middle">2026-01-21</text>
  <text x="546.1386138613861" y="35.0" class="label" text-anchor="middle">52</text>
  <circle cx="553.2673267326733" cy="40.0" class="point"/>
  <text x="553.2673267326733" y="375" class="label" text-anchor="middle">2026-01-22</text>
  <text x="553.2673267326733" y="35.0" class="label" text-anchor="middle">52</text>
  <circle cx="560.3960396039604" cy="40.0" class="point"/>
  <text x="560.3960396039604" y="375" class="label" text-anchor="middle">2026-01-23</text>
  <text x="560.3960396039604" y="35.0" class="label" text-anchor="middle">52</text>
  <circle cx="567.5247524752475" cy="40.0" class="point"/>
  <text x="567.5247524752475" y="375" class="label" text-anchor="middle">2026-01-24</text>
  <text x="567.5247524752475" y="35.0" class="label" text-anchor="middle">52</text>
  <circle cx="574.6534653465346" cy="40.0" class="point"/>
  <text x="574.6534653465346" y="375" class="label" text-anchor="middle">2026-01-25</text>
  <text x="574.6534653465346" y="35.0" class="label" text-anchor="middle">52</text>
  <circle cx="581.7821782178218" cy="40.0" class="point"/>
  <text x="581.7821782178218" y="375" class="label" text-anchor="middle">2026-01-26</text>
  <text x="581.7821782178218" y="35.0" class="label" text-anchor="middle">52</text>
  <circle cx="588.9108910891089" cy="40.0" class="point"/>
  <text x="588.9108910891089" y="375" class="label" text-anchor="middle">2026-01-27</text>
  <text x="588.9108910891089" y="35.0" class="label" text-anchor="middle">52</text>
  <circle cx="596.0396039603961" cy="40.0" class="point"/>
  <text x="596.0396039603961" y="375" class="label" text-anchor="middle">2026-01-28</text>
  <text x="596.0396039603961" y="35.0" class="label" text-anchor="middle">52</text>
  <circle cx="603.1683168316832" cy="40.0" class="point"/>
  <text x="603.1683168316832" y="375" class="label" text-anchor="middle">2026-01-29</text>
  <text x="603.1683168316832" y="35.0" class="label" text-anchor="middle">52</text>
  <circle cx="610.2970297029703" cy="40.0" class="point"/>
  <text x="610.2970297029703" y="375" class="label" text-anchor="middle">2026-01-30</text>
  <text x="610.2970297029703" y="35.0" class="label" text-anchor="middle">52</text>
  <circle cx="617.4257425742575" cy="40.0" class="point"/>
  <text x="617.4257425742575" y="375" class="label" text-anchor="middle">2026-01-31</text>
  <text x="617.4257425742575" y="35.0" class="label" text-anchor="middle">52</text>
  <circle cx="624.5544554455446" cy="40.0" class="point"/>
  <text x="624.5544554455446" y="375" class="label" text-anchor="middle">2026-02-01</text>
  <text x="624.5544554455446" y="35.0" class="label" text-anchor="middle">52</text>
  <circle cx="631.6831683168316" cy="40.0" class="point"/>
  <text x="631.6831683168316" y="375" class="label" text-anchor="middle">2026-02-02</text>
  <text x="631.6831683168316" y="35.0" class="label" text-anchor="middle">52</text>
  <circle cx="638.8118811881188" cy="40.0" class="point"/>
  <text x="638.8118811881188" y="375" class="label" text-anchor="middle">2026-02-03</text>
  <text x="638.8118811881188" y="35.0" class="label" text-anchor="middle">52</text>
  <circle cx="645.940594059406" cy="40.0" class="point"/>
  <text x="645.940594059406" y="375" class="label" text-anchor="middle">2026-02-04</text>
  <text x="645.940594059406" y="35.0" class="label" text-anchor="middle">52</text>
  <circle cx="653.0693069306931" cy="40.0" class="point"/>
  <text x="653.0693069306931" y="375" class="label" text-anchor="middle">2026-02-05</text>
  <text x="653.0693069306931" y="35.0" class="label" text-anchor="middle">52</text>
  <circle cx="660.1980198019802" cy="40.0" class="point"/>
  <text x="660.1980198019802" y="375" class="label" text-anchor="middle">2026-02-06</text>
  <text x="660.1980198019802" y="35.0" class="label" text-anchor="middle">52</text>
  <circle cx="667.3267326732673" cy="40.0" class="point"/>
  <text x="667.3267326732673" y="375" class="label" text-anchor="middle">2026-02-07</text>
  <text x="667.3267326732673" y="35.0" class="label" text-anchor="middle">52</text>
  <circle cx="674.4554455445544" cy="40.0" class="point"/>
  <text x="674.4554455445544" y="375" class="label" text-anchor="middle">2026-02-08</text>
  <text x="674.4554455445544" y="35.0" class="label" text-anchor="middle">52</text>
  <circle cx="681.5841584158416" cy="40.0" class="point"/>
  <text x="681.5841584158416" y="375" class="label" text-anchor="middle">2026-02-09</text>
  <text x="681.5841584158416" y="35.0" class="label" text-anchor="middle">52</text>
  <circle cx="688.7128712871287" cy="40.0" class="point"/>
  <text x="688.7128712871287" y="375" class="label" text-anchor="middle">2026-02-10</text>
  <text x="688.7128712871287" y="35.0" class="label" text-anchor="middle">52</text>
  <circle cx="695.8415841584159" cy="40.0" class="point"/>
  <text x="695.8415841584159" y="375" class="label" text-anchor="middle">2026-02-11</text>
  <text x="695.8415841584159" y="35.0" class="label" text-anchor="middle">52</text>
  <circle cx="702.970297029703" cy="40.0" class="point"/>
  <text x="702.970297029703" y="375" class="label" text-anchor="middle">2026-02-12</text>
  <text x="702.970297029703" y="35.0" class="label" text-anchor="middle">52</text>
  <circle cx="710.0990099009902" cy="40.0" class="point"/>
  <text x="710.0990099009902" y="375" class="label" text-anchor="middle">2026-02-13</text>
  <text x="710.0990099009902" y="35.0" class="label" text-anchor="middle">52</text>
  <circle cx="717.2277227722772" cy="40.0" class="point"/>
  <text x="717.2277227722772" y="375" class="label" text-anchor="middle">2026-02-14</text>
  <text x="717.2277227722772" y="35.0" class="label" text-anchor="middle">52</text>
  <circle cx="724.3564356435643" cy="40.0" class="point"/>
  <text x="724.3564356435643" y="375" class="label" text-anchor="middle">2026-02-15</text>
  <text x="724.3564356435643" y="35.0" class="label" text-anchor="middle">52</text>
  <circle cx="731.4851485148515" cy="40.0" class="point"/>
  <text x="731.4851485148515" y="375" class="label" text-anchor="middle">2026-02-16</text>
  <text x="731.4851485148515" y="35.0" class="label" text-anchor="middle">52</text>
  <circle cx="738.6138613861386" cy="40.0" class="point"/>
  <text x="738.6138613861386" y="375" class="label" text-anchor="middle">2026-02-17</text>
  <text x="738.6138613861386" y="35.0" class="label" text-anchor="middle">52</text>
  <circle cx="745.7425742574258" cy="40.0" class="point"/>
  <text x="745.7425742574258" y="375" class="label" text-anchor="middle">2026-02-18</text>
  <text x="745.7425742574258" y="35.0" class="label" text-anchor="middle">52</text>
  <circle cx="752.8712871287129" cy="40.0" class="point"/>
  <text x="752.8712871287129" y="375" class="label" text-anchor="middle">2026-02-19</text>
  <text x="752.8712871287129" y="35.0" class="label" text-anchor="middle">52</text>
  <circle cx="760.0" cy="40.0" class="point"/>
  <text x="760.0" y="375" class="label" text-anchor="middle">2026-02-20</text>
  <text x="760.0" y="35.0" class="label" text-anchor="middle">52</text>
  <text x="30" y="363.0" class="label" text-anchor="end">0</text>
  <text x="30" y="301.46153846153845" class="label" text-anchor="end">10</text>
  <text x="30" y="239.9230769230769" class="label" text-anchor="end">20</text>
  <text x="30" y="178.38461538461542" class="label" text-anchor="end">30</text>
  <text x="30" y="116.84615384615384" class="label" text-anchor="end">40</text>
  <text x="30" y="55.30769230769232" class="label" text-anchor="end">50</text>
</svg>