<svg xmlns="http://www.w3.org/2000/svg" width="800" height="400" viewBox="0 0 800 400">
  <style>
    .axis{stroke:#666;stroke-width:1}
    .line{stroke:#4a9;stroke-width:2;fill:none}
    .point{fill:#4a9;r:4}
    .label{font:10px sans-serif;fill:#aaa}
    .title{font:14px sans-serif;fill:#333}
  </style>
  <text x="400" y="20" class="title" text-anchor="middle">OPIC Field Growth Timeline</text>
  <line x1="40" y1="40" x2="40" y2="360" class="axis"/>
  <line x1="40" y1="360" x2="760" y2="360" class="axis"/>
  <path d="M 40.0,101.53846153846155 L 60.57142857142857,101.53846153846155 L 81.14285714285714,101.53846153846155 L 101.71428571428572,101.53846153846155 L 122.28571428571428,101.53846153846155 L 142.85714285714283,101.53846153846155 L 163.42857142857144,101.53846153846155 L 184.0,101.53846153846155 L 204.57142857142856,101.53846153846155 L 225.1428571428571,101.53846153846155 L 245.7142857142857,101.53846153846155 L 266.2857142857143,101.53846153846155 L 286.8571428571429,101.53846153846155 L 307.42857142857144,101.53846153846155 L 328.0,101.53846153846155 L 348.57142857142856,101.53846153846155 L 369.1428571428571,101.53846153846155 L 389.7142857142857,101.53846153846155 L 410.2857142857142,101.53846153846155 L 430.85714285714283,101.53846153846155 L 451.4285714285714,101.53846153846155 L 472.0,101.53846153846155 L 492.57142857142856,101.53846153846155 L 513.1428571428571,101.53846153846155 L 533.7142857142858,101.53846153846155 L 554.2857142857143,101.53846153846155 L 574.8571428571429,101.53846153846155 L 595.4285714285714,40.0 L 616.0,40.0 L 636.5714285714286,40.0 L 657.1428571428571,40.0 L 677.7142857142857,40.0 L 698.2857142857142,40.0 L 718.8571428571429,40.0 L 739.4285714285714,40.0 L 760.0,40.0" class="line"/>
  <circle cx="40.0" cy="101.53846153846155" class="point"/>
  <text x="40.0" y="375" class="label" text-anchor="middle">2025-11-11</text>
  <text x="40.0" y="96.53846153846155" class="label" text-anchor="middle">42</text>
  <circle cx="60.57142857142857" cy="101.53846153846155" class="point"/>
  <text x="60.57142857142857" y="375" class="label" text-anchor="middle">2025-11-12</text>
  <text x="60.57142857142857" y="96.53846153846155" class="label" text-anchor="middle">42</text>
  <circle cx="81.14285714285714" cy="101.53846153846155" class="point"/>
  <text x="81.14285714285714" y="375" class="label" text-anchor="middle">2025-11-13</text>
  <text x="81.14285714285714" y="96.53846153846155" class="label" text-anchor="middle">42</text>
  <circle cx="101.71428571428572" cy="101.53846153846155" class="point"/>
  <text x="101.71428571428572" y="375" class="label" text-anchor="middle">2025-11-14</text>
  <text x="101.71428571428572" y="96.53846153846155" class="label" text-anchor="middle">42</text>
  <circle cx="122.28571428571428" cy="101.53846153846155" class="point"/>
  <text x="122.28571428571428" y="375" class="label" text-anchor="middle">2025-11-15</text>
  <text x="122.28571428571428" y="96.53846153846155" class="label" text-anchor="middle">42</text>
  <circle cx="142.85714285714283" cy="101.53846153846155" class="point"/>
  <text x="142.85714285714283" y="375" class="label" text-anchor="middle">2025-11-16</text>
  <text x="142.85714285714283" y="96.53846153846155" class="label" text-anchor="middle">42</text>
  <circle cx="163.42857142857144" cy="101.53846153846155" class="point"/>
  <text x="163.42857142857144" y="375" class="label" text-anchor="middle">2025-11-17</text>
  <text x="163.42857142857144" y="96.53846153846155" class="label" text-anchor="middle">42</text>
  <circle cx="184.0" cy="101.53846153846155" class="point"/>
  <text x="184.0" y="375" class="label" text-anchor="middle">2025-11-18</text>
  <text x="184.0" y="96.53846153846155" class="label" text-anchor="middle">42</text>
  <circle cx="204.57142857142856" cy="101.53846153846155" class="point"/>
  <text x="204.57142857142856" y="375" class="label" text-anchor="middle">2025-11-19</text>
  <text x="204.57142857142856" y="96.53846153846155" class="label" text-anchor="middle">42</text>
  <circle cx="225.1428571428571" cy="101.53846153846155" class="point"/>
  <text x="225.1428571428571" y="375" class="label" text-anchor="middle">2025-11-20</text>
  <text x="225.1428571428571" y="96.53846153846155" class="label" text-anchor="middle">42</text>
  <circle cx="245.7142857142857" cy="101.53846153846155" class="point"/>
  <text x="245.7142857142857" y="375" class="label" text-anchor="middle">2025-11-21</text>
  <text x="245.7142857142857" y="96.53846153846155" class="label" text-anchor="middle">42</text>
  <circle cx="266.2857142857143" cy="101.53846153846155" class="point"/>
  <text x="266.2857142857143" y="375" class="label" text-anchor="middle">2025-11-22</text>
  <text x="266.2857142857143" y="96.53846153846155" class="label" text-anchor="middle">42</text>
  <circle cx="286.8571428571429" cy="101.53846153846155" class="point"/>
  <text x="286.8571428571429" y="375" class="label" text-anchor="middle">2025-11-23</text>
  <text x="286.8571428571429" y="96.53846153846155" class="label" text-anchor="middle">42</text>
  <circle cx="307.42857142857144" cy="101.53846153846155" class="point"/>
  <text x="307.42857142857144" y="375" class="label" text-anchor="middle">2025-11-24</text>
  <text x="307.42857142857144" y="96.53846153846155" class="label" text-anchor="middle">42</text>
  <circle cx="328.0" cy="101.53846153846155" class="point"/>
  <text x="328.0" y="375" class="label" text-anchor="middle">2025-11-25</text>
  <text x="328.0" y="96.53846153846155" class="label" text-anchor="middle">42</text>
  <circle cx="348.57142857142856" cy="101.53846153846155" class="point"/>
  <text x="348.57142857142856" y="375" class="label" text-anchor="middle">2025-11-26</text>
  <text x="348.57142857142856" y="96.53846153846155" class="label" text-anchor="middle">42</text>
  <circle cx="369.1428571428571" cy="101.53846153846155" class="point"/>
  <text x="369.1428571428571" y="375" class="label" text-anchor="middle">2025-11-27</text>
  <text x="369.1428571428571" y="96.53846153846155" class="label" text-anchor="middle">42</text>
  <circle cx="389.7142857142857" cy="101.53846153846155" class="point"/>
  <text x="389.7142857142857" y="375" class="label" text-anchor="middle">2025-11-28</text>
  <text x="389.7142857142857" y="96.53846153846155" class="label" text-anchor="middle">42</text>
  <circle cx="410.2857142857142" cy="101.53846153846155" class="point"/>
  <text x="410.2857142857142" y="375" class="label" text-anchor="middle">2025-11-29</text>
  <text x="410.2857142857142" y="96.53846153846155" class="label" text-anchor="middle">42</text>
  <circle cx="430.85714285714283" cy="101.53846153846155" class="point"/>
  <text x="430.85714285714283" y="375" class="label" text-anchor="middle">2025-11-30</text>
  <text x="430.85714285714283" y="96.53846153846155" class="label" text-anchor="middle">42</text>
  <circle cx="451.4285714285714" cy="101.53846153846155" class="point"/>
  <text x="451.4285714285714" y="375" class="label" text-anchor="middle">2025-12-01</text>
  <text x="451.4285714285714" y="96.53846153846155" class="label" text-anchor="middle">42</text>
  <circle cx="472.0" cy="101.53846153846155" class="point"/>
  <text x="472.0" y="375" class="label" text-anchor="middle">2025-12-02</text>
  <text x="472.0" y="96.53846153846155" class="label" text-anchor="middle">42</text>
  <circle cx="492.57142857142856" cy="101.53846153846155" class="point"/>
  <text x="492.57142857142856" y="375" class="label" text-anchor="middle">2025-12-03</text>
  <text x="492.57142857142856" y="96.53846153846155" class="label" text-anchor="middle">42</text>
  <circle cx="513.1428571428571" cy="101.53846153846155" class="point"/>
  <text x="513.1428571428571" y="375" class="label" text-anchor="middle">2025-12-04</text>
  <text x="513.1428571428571" y="96.53846153846155" class="label" text-anchor="middle">42</text>
  <circle cx="533.7142857142858" cy="101.53846153846155" class="point"/>
  <text x="533.7142857142858" y="375" class="label" text-anchor="middle">2025-12-05</text>
  <text x="533.7142857142858" y="96.53846153846155" class="label" text-anchor="middle">42</text>
  <circle cx="554.2857142857143" cy="101.53846153846155" class="point"/>
  <text x="554.2857142857143" y="375" class="label" text-anchor="middle">2025-12-06</text>
  <text x="554.2857142857143" y="96.53846153846155" class="label" text-anchor="middle">42</text>
  <circle cx="574.8571428571429" cy="101.53846153846155" class="point"/>
  <text x="574.8571428571429" y="375" class="label" text-anchor="middle">2025-12-07</text>
  <text x="574.8571428571429" y="96.53846153846155" class="label" text-anchor="middle">42</text>
  <circle cx="595.4285714285714" cy="40.0" class="point"/>
  <text x="595.4285714285714" y="375" class="label" text-anchor="middle">2025-12-08</text>
  <text x="595.4285714285714" y="35.0" class="label" text-anchor="middle">52</text>
  <circle cx="616.0" cy="40.0" class="point"/>
  <text x="616.0" y="375" class="label" text-anchor="middle">2025-12-09</text>
  <text x="616.0" y="35.0" class="label" text-anchor="middle">52</text>
  <circle cx="636.5714285714286" cy="40.0" class="point"/>
  <text x="636.5714285714286" y="375" class="label" text-anchor="middle">2025-12-10</text>
  <text x="636.5714285714286" y="35.0" class="label" text-anchor="middle">52</text>
  <circle cx="657.1428571428571" cy="40.0" class="point"/>
  <text x="657.1428571428571" y="375" class="label" text-anchor="middle">2025-12-11</text>
  <text x="657.1428571428571" y="35.0" class="label" text-anchor="middle">52</text>
  <circle cx="677.7142857142857" cy="40.0" class="point"/>
  <text x="677.7142857142857" y="375" class="label" text-anchor="middle">2025-12-12</text>
  <text x="677.7142857142857" y="35.0" class="label" text-anchor="middle">52</text>
  <circle cx="698.2857142857142" cy="40.0" class="point"/>
  <text x="698.2857142857142" y="375" class="label" text-anchor="middle">2025-12-13</text>
  <text x="698.2857142857142" y="35.0" class="label" text-anchor="middle">52</text>
  <circle cx="718.8571428571429" cy="40.0" class="point"/>
  <text x="718.8571428571429" y="375" class="label" text-anchor="middle">2025-12-14</text>
  <text x="718.8571428571429" y="35.0" class="label" text-anchor="middle">52</text>
  <circle cx="739.4285714285714" cy="40.0" class="point"/>
  <text x="739.4285714285714" y="375" class="label" text-anchor="middle">2025-12-15</text>
  <text x="739.4285714285714" y="35.0" class="label" text-anchor="middle">52</text>
  <circle cx="760.0" cy="40.0" class="point"/>
  <text x="760.0" y="375" class="label" text-anchor="middle">2025-12-16</text>
  <text x="760.0" y="35.0" class="label" text-anchor="middle">52</text>
  <text x="30" y="363.0" class="label" text-anchor="end">0</text>
  <text x="30" y="301.46153846153845" class="label" text-anchor="end">10</text>
  <text x="30" y="239.9230769230769" class="label" text-anchor="end">20</text>
  <text x="30" y="178.38461538461542" class="label" text-anchor="end">30</text>
  <text x="30" y="116.84615384615384" class="label" text-anchor="end">40</text>
  <text x="30" y="55.30769230769232" class="label" text-anchor="end">50</text>
</svg>