<svg xmlns="http://www.w3.org/2000/svg" width="800" height="400" viewBox="0 0 800 400">
  <style>
    .axis{stroke:#666;stroke-width:1}
    .line{stroke:#4a9;stroke-width:2;fill:none}
    .point{fill:#4a9;r:4}
    .label{font:10px sans-serif;fill:#aaa}
    .title{font:14px sans-serif;fill:#333}
  </style>
  <text x="400" y="20" class="title" text-anchor="middle">OPIC Field Growth Timeline</text>
  <line x1="40" y1="40" x2="40" y2="360" class="axis"/>
  <line x1="40" y1="360" x2="760" y2="360" class="axis"/>
  <path d="M 40.0,101.53846153846155 L 45.76,101.53846153846155 L 51.519999999999996,101.53846153846155 L 57.28,101.53846153846155 L 63.04,101.53846153846155 L 68.8,101.53846153846155 L 74.56,101.53846153846155 L 80.32,101.53846153846155 L 86.08,101.53846153846155 L 91.84,101.53846153846155 L 97.6,101.53846153846155 L 103.36,101.53846153846155 L 109.12,101.53846153846155 L 114.88,101.53846153846155 L 120.64,101.53846153846155 L 126.39999999999999,101.53846153846155 L 132.16,101.53846153846155 L 137.92000000000002,101.53846153846155 L 143.68,101.53846153846155 L 149.44,101.53846153846155 L 155.2,101.53846153846155 L 160.96,101.53846153846155 L 166.72,101.53846153846155 L 172.48,101.53846153846155 L 178.24,101.53846153846155 L 184.0,101.53846153846155 L 189.76,101.53846153846155 L 195.52,40.0 L 201.28,40.0 L 207.04000000000002,40.0 L 212.79999999999998,40.0 L 218.56,40.0 L 224.32,40.0 L 230.08,40.0 L 235.84,40.0 L 241.60000000000002,40.0 L 247.35999999999999,40.0 L 253.11999999999998,40.0 L 258.88,40.0 L 264.64,40.0 L 270.4,40.0 L 276.15999999999997,40.0 L 281.92,40.0 L 287.67999999999995,40.0 L 293.44,40.0 L 299.2,40.0 L 304.96,40.0 L 310.72,40.0 L 316.48,40.0 L 322.24,40.0 L 328.0,40.0 L 333.76,40.0 L 339.52,40.0 L 345.28,40.0 L 351.04,40.0 L 356.8,40.0 L 362.56,40.0 L 368.32,40.0 L 374.08000000000004,40.0 L 379.84,40.0 L 385.59999999999997,40.0 L 391.36,40.0 L 397.12,40.0 L 402.88,40.0 L 408.64,40.0 L 414.40000000000003,40.0 L 420.16,40.0 L 425.92,40.0 L 431.68,40.0 L 437.44000000000005,40.0 L 443.20000000000005,40.0 L 448.96,40.0 L 454.71999999999997,40.0 L 460.47999999999996,40.0 L 466.23999999999995,40.0 L 472.0,40.0 L 477.76,40.0 L 483.52,40.0 L 489.28,40.0 L 495.04,40.0 L 500.8,40.0 L 506.56,40.0 L 512.3199999999999,40.0 L 518.08,40.0 L 523.84,40.0 L 529.6,40.0 L 535.3599999999999,40.0 L 541.1199999999999,40.0 L 546.88,40.0 L 552.64,40.0 L 558.4,40.0 L 564.16,40.0 L 569.92,40.0 L 575.68,40.0 L 581.44,40.0 L 587.2,40.0 L 592.96,40.0 L 598.72,40.0 L 604.48,40.0 L 610.24,40.0 L 616.0,40.0 L 621.76,40.0 L 627.52,40.0 L 633.28,40.0 L 639.04,40.0 L 644.8,40.0 L 650.56,40.0 L 656.3199999999999,40.0 L 662.08,40.0 L 667.84,40.0 L 673.6,40.0 L 679.36,40.0 L 685.12,40.0 L 690.88,40.0 L 696.64,40.0 L 702.4,40.0 L 708.1600000000001,40.0 L 713.9200000000001,40.0 L 719.68,40.0 L 725.4399999999999,40.0 L 731.1999999999999,40.0 L 736.96,40.0 L 742.72,40.0 L 748.48,40.0 L 754.24,40.0 L 760.0,40.0" class="line"/>
  <circle cx="40.0" cy="101.53846153846155" class="point"/>
  <text x="40.0" y="375" class="label" text-anchor="middle">2025-11-11</text>
  <text x="40.0" y="96.53846153846155" class="label" text-anchor="middle">42</text>
  <circle cx="45.76" cy="101.53846153846155" class="point"/>
  <text x="45.76" y="375" class="label" text-anchor="middle">2025-11-12</text>
  <text x="45.76" y="96.53846153846155" class="label" text-anchor="middle">42</text>
  <circle cx="51.519999999999996" cy="101.53846153846155" class="point"/>
  <text x="51.519999999999996" y="375" class="label" text-anchor="middle">2025-11-13</text>
  <text x="51.519999999999996" y="96.53846153846155" class="label" text-anchor="middle">42</text>
  <circle cx="57.28" cy="101.53846153846155" class="point"/>
  <text x="57.28" y="375" class="label" text-anchor="middle">2025-11-14</text>
  <text x="57.28" y="96.53846153846155" class="label" text-anchor="middle">42</text>
  <circle cx="63.04" cy="101.53846153846155" class="point"/>
  <text x="63.04" y="375" class="label" text-anchor="middle">2025-11-15</text>
  <text x="63.04" y="96.53846153846155" class="label" text-anchor="middle">42</text>
  <circle cx="68.8" cy="101.53846153846155" class="point"/>
  <text x="68.8" y="375" class="label" text-anchor="middle">2025-11-16</text>
  <text x="68.8" y="96.53846153846155" class="label" text-anchor="middle">42</text>
  <circle cx="74.56" cy="101.53846153846155" class="point"/>
  <text x="74.56" y="375" class="label" text-anchor="middle">2025-11-17</text>
  <text x="74.56" y="96.53846153846155" class="label" text-anchor="middle">42</text>
  <circle cx="80.32" cy="101.53846153846155" class="point"/>
  <text x="80.32" y="375" class="label" text-anchor="middle">2025-11-18</text>
  <text x="80.32" y="96.53846153846155" class="label" text-anchor="middle">42</text>
  <circle cx="86.08" cy="101.53846153846155" class="point"/>
  <text x="86.08" y="375" class="label" text-anchor="middle">2025-11-19</text>
  <text x="86.08" y="96.53846153846155" class="label" text-anchor="middle">42</text>
  <circle cx="91.84" cy="101.53846153846155" class="point"/>
  <text x="91.84" y="375" class="label" text-anchor="middle">2025-11-20</text>
  <text x="91.84" y="96.53846153846155" class="label" text-anchor="middle">42</text>
  <circle cx="97.6" cy="101.53846153846155" class="point"/>
  <text x="97.6" y="375" class="label" text-anchor="middle">2025-11-21</text>
  <text x="97.6" y="96.53846153846155" class="label" text-anchor="middle">42</text>
  <circle cx="103.36" cy="101.53846153846155" class="point"/>
  <text x="103.36" y="375" class="label" text-anchor="middle">2025-11-22</text>
  <text x="103.36" y="96.53846153846155" class="label" text-anchor="middle">42</text>
  <circle cx="109.12" cy="101.53846153846155" class="point"/>
  <text x="109.12" y="375" class="label" text-anchor="middle">2025-11-23</text>
  <text x="109.12" y="96.53846153846155" class="label" text-anchor="middle">42</text>
  <circle cx="114.88" cy="101.53846153846155" class="point"/>
  <text x="114.88" y="375" class="label" text-anchor="middle">2025-11-24</text>
  <text x="114.88" y="96.53846153846155" class="label" text-anchor="middle">42</text>
  <circle cx="120.64" cy="101.53846153846155" class="point"/>
  <text x="120.64" y="375" class="label" text-anchor="middle">2025-11-25</text>
  <text x="120.64" y="96.53846153846155" class="label" text-anchor="middle">42</text>
  <circle cx="126.39999999999999" cy="101.53846153846155" class="point"/>
  <text x="126.39999999999999" y="375" class="label" text-anchor="middle">2025-11-26</text>
  <text x="126.39999999999999" y="96.53846153846155" class="label" text-anchor="middle">42</text>
  <circle cx="132.16" cy="101.53846153846155" class="point"/>
  <text x="132.16" y="375" class="label" text-anchor="middle">2025-11-27</text>
  <text x="132.16" y="96.53846153846155" class="label" text-anchor="middle">42</text>
  <circle cx="137.92000000000002" cy="101.53846153846155" class="point"/>
  <text x="137.92000000000002" y="375" class="label" text-anchor="middle">2025-11-28</text>
  <text x="137.92000000000002" y="96.53846153846155" class="label" text-anchor="middle">42</text>
  <circle cx="143.68" cy="101.53846153846155" class="point"/>
  <text x="143.68" y="375" class="label" text-anchor="middle">2025-11-29</text>
  <text x="143.68" y="96.53846153846155" class="label" text-anchor="middle">42</text>
  <circle cx="149.44" cy="101.53846153846155" class="point"/>
  <text x="149.44" y="375" class="label" text-anchor="middle">2025-11-30</text>
  <text x="149.44" y="96.53846153846155" class="label" text-anchor="middle">42</text>
  <circle cx="155.2" cy="101.53846153846155" class="point"/>
  <text x="155.2" y="375" class="label" text-anchor="middle">2025-12-01</text>
  <text x="155.2" y="96.53846153846155" class="label" text-anchor="middle">42</text>
  <circle cx="160.96" cy="101.53846153846155" class="point"/>
  <text x="160.96" y="375" class="label" text-anchor="middle">2025-12-02</text>
  <text x="160.96" y="96.53846153846155" class="label" text-anchor="middle">42</text>
  <circle cx="166.72" cy="101.53846153846155" class="point"/>
  <text x="166.72" y="375" class="label" text-anchor="middle">2025-12-03</text>
  <text x="166.72" y="96.53846153846155" class="label" text-anchor="middle">42</text>
  <circle cx="172.48" cy="101.53846153846155" class="point"/>
  <text x="172.48" y="375" class="label" text-anchor="middle">2025-12-04</text>
  <text x="172.48" y="96.53846153846155" class="label" text-anchor="middle">42</text>
  <circle cx="178.24" cy="101.53846153846155" class="point"/>
  <text x="178.24" y="375" class="label" text-anchor="middle">2025-12-05</text>
  <text x="178.24" y="96.53846153846155" class="label" text-anchor="middle">42</text>
  <circle cx="184.0" cy="101.53846153846155" class="point"/>
  <text x="184.0" y="375" class="label" text-anchor="middle">2025-12-06</text>
  <text x="184.0" y="96.53846153846155" class="label" text-anchor="middle">42</text>
  <circle cx="189.76" cy="101.53846153846155" class="point"/>
  <text x="189.76" y="375" class="label" text-anchor="middle">2025-12-07</text>
  <text x="189.76" y="96.53846153846155" class="label" text-anchor="middle">42</text>
  <circle cx="195.52" cy="40.0" class="point"/>
  <text x="195.52" y="375" class="label" text-anchor="middle">2025-12-08</text>
  <text x="195.52" y="35.0" class="label" text-anchor="middle">52</text>
  <circle cx="201.28" cy="40.0" class="point"/>
  <text x="201.28" y="375" class="label" text-anchor="middle">2025-12-09</text>
  <text x="201.28" y="35.0" class="label" text-anchor="middle">52</text>
  <circle cx="207.04000000000002" cy="40.0" class="point"/>
  <text x="207.04000000000002" y="375" class="label" text-anchor="middle">2025-12-10</text>
  <text x="207.04000000000002" y="35.0" class="label" text-anchor="middle">52</text>
  <circle cx="212.79999999999998" cy="40.0" class="point"/>
  <text x="212.79999999999998" y="375" class="label" text-anchor="middle">2025-12-11</text>
  <text x="212.79999999999998" y="35.0" class="label" text-anchor="middle">52</text>
  <circle cx="218.56" cy="40.0" class="point"/>
  <text x="218.56" y="375" class="label" text-anchor="middle">2025-12-12</text>
  <text x="218.56" y="35.0" class="label" text-anchor="middle">52</text>
  <circle cx="224.32" cy="40.0" class="point"/>
  <text x="224.32" y="375" class="label" text-anchor="middle">2025-12-13</text>
  <text x="224.32" y="35.0" class="label" text-anchor="middle">52</text>
  <circle cx="230.08" cy="40.0" class="point"/>
  <text x="230.08" y="375" class="label" text-anchor="middle">2025-12-14</text>
  <text x="230.08" y="35.0" class="label" text-anchor="middle">52</text>
  <circle cx="235.84" cy="40.0" class="point"/>
  <text x="235.84" y="375" class="label" text-anchor="middle">2025-12-15</text>
  <text x="235.84" y="35.0" class="label" text-anchor="middle">52</text>
  <circle cx="241.60000000000002" cy="40.0" class="point"/>
  <text x="241.60000000000002" y="375" class="label" text-anchor="middle">2025-12-16</text>
  <text x="241.60000000000002" y="35.0" class="label" text-anchor="middle">52</text>
  <circle cx="247.35999999999999" cy="40.0" class="point"/>
  <text x="247.35999999999999" y="375" class="label" text-anchor="middle">2025-12-17</text>
  <text x="247.35999999999999" y="35.0" class="label" text-anchor="middle">52</text>
  <circle cx="253.11999999999998" cy="40.0" class="point"/>
  <text x="253.11999999999998" y="375" class="label" text-anchor="middle">2025-12-18</text>
  <text x="253.11999999999998" y="35.0" class="label" text-anchor="middle">52</text>
  <circle cx="258.88" cy="40.0" class="point"/>
  <text x="258.88" y="375" class="label" text-anchor="middle">2025-12-19</text>
  <text x="258.88" y="35.0" class="label" text-anchor="middle">52</text>
  <circle cx="264.64" cy="40.0" class="point"/>
  <text x="264.64" y="375" class="label" text-anchor="middle">2025-12-20</text>
  <text x="264.64" y="35.0" class="label" text-anchor="middle">52</text>
  <circle cx="270.4" cy="40.0" class="point"/>
  <text x="270.4" y="375" class="label" text-anchor="middle">2025-12-21</text>
  <text x="270.4" y="35.0" class="label" text-anchor="middle">52</text>
  <circle cx="276.15999999999997" cy="40.0" class="point"/>
  <text x="276.15999999999997" y="375" class="label" text-anchor="middle">2025-12-22</text>
  <text x="276.15999999999997" y="35.0" class="label" text-anchor="middle">52</text>
  <circle cx="281.92" cy="40.0" class="point"/>
  <text x="281.92" y="375" class="label" text-anchor="middle">2025-12-23</text>
  <text x="281.92" y="35.0" class="label" text-anchor="middle">52</text>
  <circle cx="287.67999999999995" cy="40.0" class="point"/>
  <text x="287.67999999999995" y="375" class="label" text-anchor="middle">2025-12-24</text>
  <text x="287.67999999999995" y="35.0" class="label" text-anchor="middle">52</text>
  <circle cx="293.44" cy="40.0" class="point"/>
  <text x="293.44" y="375" class="label" text-anchor="middle">2025-12-25</text>
  <text x="293.44" y="35.0" class="label" text-anchor="middle">52</text>
  <circle cx="299.2" cy="40.0" class="point"/>
  <text x="299.2" y="375" class="label" text-anchor="middle">2025-12-26</text>
  <text x="299.2" y="35.0" class="label" text-anchor="middle">52</text>
  <circle cx="304.96" cy="40.0" class="point"/>
  <text x="304.96" y="375" class="label" text-anchor="middle">2025-12-27</text>
  <text x="304.96" y="35.0" class="label" text-anchor="middle">52</text>
  <circle cx="310.72" cy="40.0" class="point"/>
  <text x="310.72" y="375" class="label" text-anchor="middle">2025-12-28</text>
  <text x="310.72" y="35.0" class="label" text-anchor="middle">52</text>
  <circle cx="316.48" cy="40.0" class="point"/>
  <text x="316.48" y="375" class="label" text-anchor="middle">2025-12-29</text>
  <text x="316.48" y="35.0" class="label" text-anchor="middle">52</text>
  <circle cx="322.24" cy="40.0" class="point"/>
  <text x="322.24" y="375" class="label" text-anchor="middle">2025-12-30</text>
  <text x="322.24" y="35.0" class="label" text-anchor="middle">52</text>
  <circle cx="328.0" cy="40.0" class="point"/>
  <text x="328.0" y="375" class="label" text-anchor="middle">2025-12-31</text>
  <text x="328.0" y="35.0" class="label" text-anchor="middle">52</text>
  <circle cx="333.76" cy="40.0" class="point"/>
  <text x="333.76" y="375" class="label" text-anchor="middle">2026-01-01</text>
  <text x="333.76" y="35.0" class="label" text-anchor="middle">52</text>
  <circle cx="339.52" cy="40.0" class="point"/>
  <text x="339.52" y="375" class="label" text-anchor="middle">2026-01-02</text>
  <text x="339.52" y="35.0" class="label" text-anchor="middle">52</text>
  <circle cx="345.28" cy="40.0" class="point"/>
  <text x="345.28" y="375" class="label" text-anchor="middle">2026-01-03</text>
  <text x="345.28" y="35.0" class="label" text-anchor="middle">52</text>
  <circle cx="351.04" cy="40.0" class="point"/>
  <text x="351.04" y="375" class="label" text-anchor="middle">2026-01-04</text>
  <text x="351.04" y="35.0" class="label" text-anchor="middle">52</text>
  <circle cx="356.8" cy="40.0" class="point"/>
  <text x="356.8" y="375" class="label" text-anchor="middle">2026-01-05</text>
  <text x="356.8" y="35.0" class="label" text-anchor="middle">52</text>
  <circle cx="362.56" cy="40.0" class="point"/>
  <text x="362.56" y="375" class="label" text-anchor="middle">2026-01-06</text>
  <text x="362.56" y="35.0" class="label" text-anchor="middle">52</text>
  <circle cx="368.32" cy="40.0" class="point"/>
  <text x="368.32" y="375" class="label" text-anchor="middle">2026-01-07</text>
  <text x="368.32" y="35.0" class="label" text-anchor="middle">52</text>
  <circle cx="374.08000000000004" cy="40.0" class="point"/>
  <text x="374.08000000000004" y="375" class="label" text-anchor="middle">2026-01-08</text>
  <text x="374.08000000000004" y="35.0" class="label" text-anchor="middle">52</text>
  <circle cx="379.84" cy="40.0" class="point"/>
  <text x="379.84" y="375" class="label" text-anchor="middle">2026-01-09</text>
  <text x="379.84" y="35.0" class="label" text-anchor="middle">52</text>
  <circle cx="385.59999999999997" cy="40.0" class="point"/>
  <text x="385.59999999999997" y="375" class="label" text-anchor="middle">2026-01-10</text>
  <text x="385.59999999999997" y="35.0" class="label" text-anchor="middle">52</text>
  <circle cx="391.36" cy="40.0" class="point"/>
  <text x="391.36" y="375" class="label" text-anchor="middle">2026-01-11</text>
  <text x="391.36" y="35.0" class="label" text-anchor="middle">52</text>
  <circle cx="397.12" cy="40.0" class="point"/>
  <text x="397.12" y="375" class="label" text-anchor="middle">2026-01-12</text>
  <text x="397.12" y="35.0" class="label" text-anchor="middle">52</text>
  <circle cx="402.88" cy="40.0" class="point"/>
  <text x="402.88" y="375" class="label" text-anchor="middle">2026-01-13</text>
  <text x="402.88" y="35.0" class="label" text-anchor="middle">52</text>
  <circle cx="408.64" cy="40.0" class="point"/>
  <text x="408.64" y="375" class="label" text-anchor="middle">2026-01-14</text>
  <text x="408.64" y="35.0" class="label" text-anchor="middle">52</text>
  <circle cx="414.40000000000003" cy="40.0" class="point"/>
  <text x="414.40000000000003" y="375" class="label" text-anchor="middle">2026-01-15</text>
  <text x="414.40000000000003" y="35.0" class="label" text-anchor="middle">52</text>
  <circle cx="420.16" cy="40.0" class="point"/>
  <text x="420.16" y="375" class="label" text-anchor="middle">2026-01-16</text>
  <text x="420.16" y="35.0" class="label" text-anchor="middle">52</text>
  <circle cx="425.92" cy="40.0" class="point"/>
  <text x="425.92" y="375" class="label" text-anchor="middle">2026-01-17</text>
  <text x="425.92" y="35.0" class="label" text-anchor="middle">52</text>
  <circle cx="431.68" cy="40.0" class="point"/>
  <text x="431.68" y="375" class="label" text-anchor="middle">2026-01-18</text>
  <text x="431.68" y="35.0" class="label" text-anchor="middle">52</text>
  <circle cx="437.44000000000005" cy="40.0" class="point"/>
  <text x="437.44000000000005" y="375" class="label" text-anchor="middle">2026-01-19</text>
  <text x="437.44000000000005" y="35.0" class="label" text-anchor="middle">52</text>
  <circle cx="443.20000000000005" cy="40.0" class="point"/>
  <text x="443.20000000000005" y="375" class="label" text-anchor="middle">2026-01-20</text>
  <text x="443.20000000000005" y="35.0" class="label" text-anchor="middle">52</text>
  <circle cx="448.96" cy="40.0" class="point"/>
  <text x="448.96" y="375" class="label" text-anchor="middle">2026-01-21</text>
  <text x="448.96" y="35.0" class="label" text-anchor="middle">52</text>
  <circle cx="454.71999999999997" cy="40.0" class="point"/>
  <text x="454.71999999999997" y="375" class="label" text-anchor="middle">2026-01-22</text>
  <text x="454.71999999999997" y="35.0" class="label" text-anchor="middle">52</text>
  <circle cx="460.47999999999996" cy="40.0" class="point"/>
  <text x="460.47999999999996" y="375" class="label" text-anchor="middle">2026-01-23</text>
  <text x="460.47999999999996" y="35.0" class="label" text-anchor="middle">52</text>
  <circle cx="466.23999999999995" cy="40.0" class="point"/>
  <text x="466.23999999999995" y="375" class="label" text-anchor="middle">2026-01-24</text>
  <text x="466.23999999999995" y="35.0" class="label" text-anchor="middle">52</text>
  <circle cx="472.0" cy="40.0" class="point"/>
  <text x="472.0" y="375" class="label" text-anchor="middle">2026-01-25</text>
  <text x="472.0" y="35.0" class="label" text-anchor="middle">52</text>
  <circle cx="477.76" cy="40.0" class="point"/>
  <text x="477.76" y="375" class="label" text-anchor="middle">2026-01-26</text>
  <text x="477.76" y="35.0" class="label" text-anchor="middle">52</text>
  <circle cx="483.52" cy="40.0" class="point"/>
  <text x="483.52" y="375" class="label" text-anchor="middle">2026-01-27</text>
  <text x="483.52" y="35.0" class="label" text-anchor="middle">52</text>
  <circle cx="489.28" cy="40.0" class="point"/>
  <text x="489.28" y="375" class="label" text-anchor="middle">2026-01-28</text>
  <text x="489.28" y="35.0" class="label" text-anchor="middle">52</text>
  <circle cx="495.04" cy="40.0" class="point"/>
  <text x="495.04" y="375" class="label" text-anchor="middle">2026-01-29</text>
  <text x="495.04" y="35.0" class="label" text-anchor="middle">52</text>
  <circle cx="500.8" cy="40.0" class="point"/>
  <text x="500.8" y="375" class="label" text-anchor="middle">2026-01-30</text>
  <text x="500.8" y="35.0" class="label" text-anchor="middle">52</text>
  <circle cx="506.56" cy="40.0" class="point"/>
  <text x="506.56" y="375" class="label" text-anchor="middle">2026-01-31</text>
  <text x="506.56" y="35.0" class="label" text-anchor="middle">52</text>
  <circle cx="512.3199999999999" cy="40.0" class="point"/>
  <text x="512.3199999999999" y="375" class="label" text-anchor="middle">2026-02-01</text>
  <text x="512.3199999999999" y="35.0" class="label" text-anchor="middle">52</text>
  <circle cx="518.08" cy="40.0" class="point"/>
  <text x="518.08" y="375" class="label" text-anchor="middle">2026-02-02</text>
  <text x="518.08" y="35.0" class="label" text-anchor="middle">52</text>
  <circle cx="523.84" cy="40.0" class="point"/>
  <text x="523.84" y="375" class="label" text-anchor="middle">2026-02-03</text>
  <text x="523.84" y="35.0" class="label" text-anchor="middle">52</text>
  <circle cx="529.6" cy="40.0" class="point"/>
  <text x="529.6" y="375" class="label" text-anchor="middle">2026-02-04</text>
  <text x="529.6" y="35.0" class="label" text-anchor="middle">52</text>
  <circle cx="535.3599999999999" cy="40.0" class="point"/>
  <text x="535.3599999999999" y="375" class="label" text-anchor="middle">2026-02-05</text>
  <text x="535.3599999999999" y="35.0" class="label" text-anchor="middle">52</text>
  <circle cx="541.1199999999999" cy="40.0" class="point"/>
  <text x="541.1199999999999" y="375" class="label" text-anchor="middle">2026-02-06</text>
  <text x="541.1199999999999" y="35.0" class="label" text-anchor="middle">52</text>
  <circle cx="546.88" cy="40.0" class="point"/>
  <text x="546.88" y="375" class="label" text-anchor="middle">2026-02-07</text>
  <text x="546.88" y="35.0" class="label" text-anchor="middle">52</text>
  <circle cx="552.64" cy="40.0" class="point"/>
  <text x="552.64" y="375" class="label" text-anchor="middle">2026-02-08</text>
  <text x="552.64" y="35.0" class="label" text-anchor="middle">52</text>
  <circle cx="558.4" cy="40.0" class="point"/>
  <text x="558.4" y="375" class="label" text-anchor="middle">2026-02-09</text>
  <text x="558.4" y="35.0" class="label" text-anchor="middle">52</text>
  <circle cx="564.16" cy="40.0" class="point"/>
  <text x="564.16" y="375" class="label" text-anchor="middle">2026-02-10</text>
  <text x="564.16" y="35.0" class="label" text-anchor="middle">52</text>
  <circle cx="569.92" cy="40.0" class="point"/>
  <text x="569.92" y="375" class="label" text-anchor="middle">2026-02-11</text>
  <text x="569.92" y="35.0" class="label" text-anchor="middle">52</text>
  <circle cx="575.68" cy="40.0" class="point"/>
  <text x="575.68" y="375" class="label" text-anchor="middle">2026-02-12</text>
  <text x="575.68" y="35.0" class="label" text-anchor="middle">52</text>
  <circle cx="581.44" cy="40.0" class="point"/>
  <text x="581.44" y="375" class="label" text-anchor="middle">2026-02-13</text>
  <text x="581.44" y="35.0" class="label" text-anchor="middle">52</text>
  <circle cx="587.2" cy="40.0" class="point"/>
  <text x="587.2" y="375" class="label" text-anchor="middle">2026-02-14</text>
  <text x="587.2" y="35.0" class="label" text-anchor="middle">52</text>
  <circle cx="592.96" cy="40.0" class="point"/>
  <text x="592.96" y="375" class="label" text-anchor="middle">2026-02-15</text>
  <text x="592.96" y="35.0" class="label" text-anchor="middle">52</text>
  <circle cx="598.72" cy="40.0" class="point"/>
  <text x="598.72" y="375" class="label" text-anchor="middle">2026-02-16</text>
  <text x="598.72" y="35.0" class="label" text-anchor="middle">52</text>
  <circle cx="604.48" cy="40.0" class="point"/>
  <text x="604.48" y="375" class="label" text-anchor="middle">2026-02-17</text>
  <text x="604.48" y="35.0" class="label" text-anchor="middle">52</text>
  <circle cx="610.24" cy="40.0" class="point"/>
  <text x="610.24" y="375" class="label" text-anchor="middle">2026-02-18</text>
  <text x="610.24" y="35.0" class="label" text-anchor="middle">52</text>
  <circle cx="616.0" cy="40.0" class="point"/>
  <text x="616.0" y="375" class="label" text-anchor="middle">2026-02-19</text>
  <text x="616.0" y="35.0" class="label" text-anchor="middle">52</text>
  <circle cx="621.76" cy="40.0" class="point"/>
  <text x="621.76" y="375" class="label" text-anchor="middle">2026-02-20</text>
  <text x="621.76" y="35.0" class="label" text-anchor="middle">52</text>
  <circle cx="627.52" cy="40.0" class="point"/>
  <text x="627.52" y="375" class="label" text-anchor="middle">2026-02-21</text>
  <text x="627.52" y="35.0" class="label" text-anchor="middle">52</text>
  <circle cx="633.28" cy="40.0" class="point"/>
  <text x="633.28" y="375" class="label" text-anchor="middle">2026-02-22</text>
  <text x="633.28" y="35.0" class="label" text-anchor="middle">52</text>
  <circle cx="639.04" cy="40.0" class="point"/>
  <text x="639.04" y="375" class="label" text-anchor="middle">2026-02-23</text>
  <text x="639.04" y="35.0" class="label" text-anchor="middle">52</text>
  <circle cx="644.8" cy="40.0" class="point"/>
  <text x="644.8" y="375" class="label" text-anchor="middle">2026-02-24</text>
  <text x="644.8" y="35.0" class="label" text-anchor="middle">52</text>
  <circle cx="650.56" cy="40.0" class="point"/>
  <text x="650.56" y="375" class="label" text-anchor="middle">2026-02-25</text>
  <text x="650.56" y="35.0" class="label" text-anchor="middle">52</text>
  <circle cx="656.3199999999999" cy="40.0" class="point"/>
  <text x="656.3199999999999" y="375" class="label" text-anchor="middle">2026-02-26</text>
  <text x="656.3199999999999" y="35.0" class="label" text-anchor="middle">52</text>
  <circle cx="662.08" cy="40.0" class="point"/>
  <text x="662.08" y="375" class="label" text-anchor="middle">2026-02-27</text>
  <text x="662.08" y="35.0" class="label" text-anchor="middle">52</text>
  <circle cx="667.84" cy="40.0" class="point"/>
  <text x="667.84" y="375" class="label" text-anchor="middle">2026-02-28</text>
  <text x="667.84" y="35.0" class="label" text-anchor="middle">52</text>
  <circle cx="673.6" cy="40.0" class="point"/>
  <text x="673.6" y="375" class="label" text-anchor="middle">2026-03-01</text>
  <text x="673.6" y="35.0" class="label" text-anchor="middle">52</text>
  <circle cx="679.36" cy="40.0" class="point"/>
  <text x="679.36" y="375" class="label" text-anchor="middle">2026-03-02</text>
  <text x="679.36" y="35.0" class="label" text-anchor="middle">52</text>
  <circle cx="685.12" cy="40.0" class="point"/>
  <text x="685.12" y="375" class="label" text-anchor="middle">2026-03-03</text>
  <text x="685.12" y="35.0" class="label" text-anchor="middle">52</text>
  <circle cx="690.88" cy="40.0" class="point"/>
  <text x="690.88" y="375" class="label" text-anchor="middle">2026-03-04</text>
  <text x="690.88" y="35.0" class="label" text-anchor="middle">52</text>
  <circle cx="696.64" cy="40.0" class="point"/>
  <text x="696.64" y="375" class="label" text-anchor="middle">2026-03-05</text>
  <text x="696.64" y="35.0" class="label" text-anchor="middle">52</text>
  <circle cx="702.4" cy="40.0" class="point"/>
  <text x="702.4" y="375" class="label" text-anchor="middle">2026-03-06</text>
  <text x="702.4" y="35.0" class="label" text-anchor="middle">52</text>
  <circle cx="708.1600000000001" cy="40.0" class="point"/>
  <text x="708.1600000000001" y="375" class="label" text-anchor="middle">2026-03-07</text>
  <text x="708.1600000000001" y="35.0" class="label" text-anchor="middle">52</text>
  <circle cx="713.9200000000001" cy="40.0" class="point"/>
  <text x="713.9200000000001" y="375" class="label" text-anchor="middle">2026-03-08</text>
  <text x="713.9200000000001" y="35.0" class="label" text-anchor="middle">52</text>
  <circle cx="719.68" cy="40.0" class="point"/>
  <text x="719.68" y="375" class="label" text-anchor="middle">2026-03-09</text>
  <text x="719.68" y="35.0" class="label" text-anchor="middle">52</text>
  <circle cx="725.4399999999999" cy="40.0" class="point"/>
  <text x="725.4399999999999" y="375" class="label" text-anchor="middle">2026-03-10</text>
  <text x="725.4399999999999" y="35.0" class="label" text-anchor="middle">52</text>
  <circle cx="731.1999999999999" cy="40.0" class="point"/>
  <text x="731.1999999999999" y="375" class="label" text-anchor="middle">2026-03-11</text>
  <text x="731.1999999999999" y="35.0" class="label" text-anchor="middle">52</text>
  <circle cx="736.96" cy="40.0" class="point"/>
  <text x="736.96" y="375" class="label" text-anchor="middle">2026-03-12</text>
  <text x="736.96" y="35.0" class="label" text-anchor="middle">52</text>
  <circle cx="742.72" cy="40.0" class="point"/>
  <text x="742.72" y="375" class="label" text-anchor="middle">2026-03-13</text>
  <text x="742.72" y="35.0" class="label" text-anchor="middle">52</text>
  <circle cx="748.48" cy="40.0" class="point"/>
  <text x="748.48" y="375" class="label" text-anchor="middle">2026-03-14</text>
  <text x="748.48" y="35.0" class="label" text-anchor="middle">52</text>
  <circle cx="754.24" cy="40.0" class="point"/>
  <text x="754.24" y="375" class="label" text-anchor="middle">2026-03-15</text>
  <text x="754.24" y="35.0" class="label" text-anchor="middle">52</text>
  <circle cx="760.0" cy="40.0" class="point"/>
  <text x="760.0" y="375" class="label" text-anchor="middle">2026-03-16</text>
  <text x="760.0" y="35.0" class="label" text-anchor="middle">52</text>
  <text x="30" y="363.0" class="label" text-anchor="end">0</text>
  <text x="30" y="301.46153846153845" class="label" text-anchor="end">10</text>
  <text x="30" y="239.9230769230769" class="label" text-anchor="end">20</text>
  <text x="30" y="178.38461538461542" class="label" text-anchor="end">30</text>
  <text x="30" y="116.84615384615384" class="label" text-anchor="end">40</text>
  <text x="30" y="55.30769230769232" class="label" text-anchor="end">50</text>
</svg>