<svg xmlns="http://www.w3.org/2000/svg" width="800" height="400" viewBox="0 0 800 400">
  <style>
    .axis{stroke:#666;stroke-width:1}
    .line{stroke:#4a9;stroke-width:2;fill:none}
    .point{fill:#4a9;r:4}
    .label{font:10px sans-serif;fill:#aaa}
    .title{font:14px sans-serif;fill:#333}
  </style>
  <text x="400" y="20" class="title" text-anchor="middle">OPIC Field Growth Timeline</text>
  <line x1="40" y1="40" x2="40" y2="360" class="axis"/>
  <line x1="40" y1="360" x2="760" y2="360" class="axis"/>
  <path d="M 40.0,101.53846153846155 L 47.91208791208791,101.53846153846155 L 55.824175824175825,101.53846153846155 L 63.73626373626374,101.53846153846155 L 71.64835164835165,101.53846153846155 L 79.56043956043956,101.53846153846155 L 87.47252747252747,101.53846153846155 L 95.38461538461539,101.53846153846155 L 103.2967032967033,101.53846153846155 L 111.20879120879121,101.53846153846155 L 119.12087912087912,101.53846153846155 L 127.03296703296704,101.53846153846155 L 134.94505494505495,101.53846153846155 L 142.85714285714283,101.53846153846155 L 150.76923076923077,101.53846153846155 L 158.6813186813187,101.53846153846155 L 166.5934065934066,101.53846153846155 L 174.5054945054945,101.53846153846155 L 182.41758241758242,101.53846153846155 L 190.32967032967034,101.53846153846155 L 198.24175824175825,101.53846153846155 L 206.15384615384616,101.53846153846155 L 214.06593406593407,101.53846153846155 L 221.97802197802196,101.53846153846155 L 229.8901098901099,101.53846153846155 L 237.8021978021978,101.53846153846155 L 245.7142857142857,101.53846153846155 L 253.62637362637363,40.0 L 261.53846153846155,40.0 L 269.45054945054943,40.0 L 277.3626373626374,40.0 L 285.27472527472526,40.0 L 293.1868131868132,40.0 L 301.0989010989011,40.0 L 309.010989010989,40.0 L 316.92307692307696,40.0 L 324.83516483516485,40.0 L 332.74725274725273,40.0 L 340.65934065934067,40.0 L 348.57142857142856,40.0 L 356.4835164835165,40.0 L 364.3956043956044,40.0 L 372.3076923076923,40.0 L 380.2197802197802,40.0 L 388.13186813186815,40.0 L 396.0439560439561,40.0 L 403.9560439560439,40.0 L 411.8681318681319,40.0 L 419.7802197802198,40.0 L 427.6923076923077,40.0 L 435.6043956043956,40.0 L 443.5164835164835,40.0 L 451.4285714285714,40.0 L 459.3406593406594,40.0 L 467.25274725274727,40.0 L 475.16483516483515,40.0 L 483.0769230769231,40.0 L 490.989010989011,40.0 L 498.90109890109886,40.0 L 506.81318681318686,40.0 L 514.7252747252747,40.0 L 522.6373626373627,40.0 L 530.5494505494505,40.0 L 538.4615384615385,40.0 L 546.3736263736264,40.0 L 554.2857142857143,40.0 L 562.1978021978022,40.0 L 570.1098901098901,40.0 L 578.021978021978,40.0 L 585.9340659340659,40.0 L 593.8461538461539,40.0 L 601.7582417582418,40.0 L 609.6703296703297,40.0 L 617.5824175824176,40.0 L 625.4945054945055,40.0 L 633.4065934065934,40.0 L 641.3186813186813,40.0 L 649.2307692307692,40.0 L 657.1428571428571,40.0 L 665.054945054945,40.0 L 672.967032967033,40.0 L 680.8791208791208,40.0 L 688.7912087912088,40.0 L 696.7032967032967,40.0 L 704.6153846153846,40.0 L 712.5274725274726,40.0 L 720.4395604395604,40.0 L 728.3516483516484,40.0 L 736.2637362637363,40.0 L 744.1758241758241,40.0 L 752.0879120879122,40.0 L 760.0,40.0" class="line"/>
  <circle cx="40.0" cy="101.53846153846155" class="point"/>
  <text x="40.0" y="375" class="label" text-anchor="middle">2025-11-11</text>
  <text x="40.0" y="96.53846153846155" class="label" text-anchor="middle">42</text>
  <circle cx="47.91208791208791" cy="101.53846153846155" class="point"/>
  <text x="47.91208791208791" y="375" class="label" text-anchor="middle">2025-11-12</text>
  <text x="47.91208791208791" y="96.53846153846155" class="label" text-anchor="middle">42</text>
  <circle cx="55.824175824175825" cy="101.53846153846155" class="point"/>
  <text x="55.824175824175825" y="375" class="label" text-anchor="middle">2025-11-13</text>
  <text x="55.824175824175825" y="96.53846153846155" class="label" text-anchor="middle">42</text>
  <circle cx="63.73626373626374" cy="101.53846153846155" class="point"/>
  <text x="63.73626373626374" y="375" class="label" text-anchor="middle">2025-11-14</text>
  <text x="63.73626373626374" y="96.53846153846155" class="label" text-anchor="middle">42</text>
  <circle cx="71.64835164835165" cy="101.53846153846155" class="point"/>
  <text x="71.64835164835165" y="375" class="label" text-anchor="middle">2025-11-15</text>
  <text x="71.64835164835165" y="96.53846153846155" class="label" text-anchor="middle">42</text>
  <circle cx="79.56043956043956" cy="101.53846153846155" class="point"/>
  <text x="79.56043956043956" y="375" class="label" text-anchor="middle">2025-11-16</text>
  <text x="79.56043956043956" y="96.53846153846155" class="label" text-anchor="middle">42</text>
  <circle cx="87.47252747252747" cy="101.53846153846155" class="point"/>
  <text x="87.47252747252747" y="375" class="label" text-anchor="middle">2025-11-17</text>
  <text x="87.47252747252747" y="96.53846153846155" class="label" text-anchor="middle">42</text>
  <circle cx="95.38461538461539" cy="101.53846153846155" class="point"/>
  <text x="95.38461538461539" y="375" class="label" text-anchor="middle">2025-11-18</text>
  <text x="95.38461538461539" y="96.53846153846155" class="label" text-anchor="middle">42</text>
  <circle cx="103.2967032967033" cy="101.53846153846155" class="point"/>
  <text x="103.2967032967033" y="375" class="label" text-anchor="middle">2025-11-19</text>
  <text x="103.2967032967033" y="96.53846153846155" class="label" text-anchor="middle">42</text>
  <circle cx="111.20879120879121" cy="101.53846153846155" class="point"/>
  <text x="111.20879120879121" y="375" class="label" text-anchor="middle">2025-11-20</text>
  <text x="111.20879120879121" y="96.53846153846155" class="label" text-anchor="middle">42</text>
  <circle cx="119.12087912087912" cy="101.53846153846155" class="point"/>
  <text x="119.12087912087912" y="375" class="label" text-anchor="middle">2025-11-21</text>
  <text x="119.12087912087912" y="96.53846153846155" class="label" text-anchor="middle">42</text>
  <circle cx="127.03296703296704" cy="101.53846153846155" class="point"/>
  <text x="127.03296703296704" y="375" class="label" text-anchor="middle">2025-11-22</text>
  <text x="127.03296703296704" y="96.53846153846155" class="label" text-anchor="middle">42</text>
  <circle cx="134.94505494505495" cy="101.53846153846155" class="point"/>
  <text x="134.94505494505495" y="375" class="label" text-anchor="middle">2025-11-23</text>
  <text x="134.94505494505495" y="96.53846153846155" class="label" text-anchor="middle">42</text>
  <circle cx="142.85714285714283" cy="101.53846153846155" class="point"/>
  <text x="142.85714285714283" y="375" class="label" text-anchor="middle">2025-11-24</text>
  <text x="142.85714285714283" y="96.53846153846155" class="label" text-anchor="middle">42</text>
  <circle cx="150.76923076923077" cy="101.53846153846155" class="point"/>
  <text x="150.76923076923077" y="375" class="label" text-anchor="middle">2025-11-25</text>
  <text x="150.76923076923077" y="96.53846153846155" class="label" text-anchor="middle">42</text>
  <circle cx="158.6813186813187" cy="101.53846153846155" class="point"/>
  <text x="158.6813186813187" y="375" class="label" text-anchor="middle">2025-11-26</text>
  <text x="158.6813186813187" y="96.53846153846155" class="label" text-anchor="middle">42</text>
  <circle cx="166.5934065934066" cy="101.53846153846155" class="point"/>
  <text x="166.5934065934066" y="375" class="label" text-anchor="middle">2025-11-27</text>
  <text x="166.5934065934066" y="96.53846153846155" class="label" text-anchor="middle">42</text>
  <circle cx="174.5054945054945" cy="101.53846153846155" class="point"/>
  <text x="174.5054945054945" y="375" class="label" text-anchor="middle">2025-11-28</text>
  <text x="174.5054945054945" y="96.53846153846155" class="label" text-anchor="middle">42</text>
  <circle cx="182.41758241758242" cy="101.53846153846155" class="point"/>
  <text x="182.41758241758242" y="375" class="label" text-anchor="middle">2025-11-29</text>
  <text x="182.41758241758242" y="96.53846153846155" class="label" text-anchor="middle">42</text>
  <circle cx="190.32967032967034" cy="101.53846153846155" class="point"/>
  <text x="190.32967032967034" y="375" class="label" text-anchor="middle">2025-11-30</text>
  <text x="190.32967032967034" y="96.53846153846155" class="label" text-anchor="middle">42</text>
  <circle cx="198.24175824175825" cy="101.53846153846155" class="point"/>
  <text x="198.24175824175825" y="375" class="label" text-anchor="middle">2025-12-01</text>
  <text x="198.24175824175825" y="96.53846153846155" class="label" text-anchor="middle">42</text>
  <circle cx="206.15384615384616" cy="101.53846153846155" class="point"/>
  <text x="206.15384615384616" y="375" class="label" text-anchor="middle">2025-12-02</text>
  <text x="206.15384615384616" y="96.53846153846155" class="label" text-anchor="middle">42</text>
  <circle cx="214.06593406593407" cy="101.53846153846155" class="point"/>
  <text x="214.06593406593407" y="375" class="label" text-anchor="middle">2025-12-03</text>
  <text x="214.06593406593407" y="96.53846153846155" class="label" text-anchor="middle">42</text>
  <circle cx="221.97802197802196" cy="101.53846153846155" class="point"/>
  <text x="221.97802197802196" y="375" class="label" text-anchor="middle">2025-12-04</text>
  <text x="221.97802197802196" y="96.53846153846155" class="label" text-anchor="middle">42</text>
  <circle cx="229.8901098901099" cy="101.53846153846155" class="point"/>
  <text x="229.8901098901099" y="375" class="label" text-anchor="middle">2025-12-05</text>
  <text x="229.8901098901099" y="96.53846153846155" class="label" text-anchor="middle">42</text>
  <circle cx="237.8021978021978" cy="101.53846153846155" class="point"/>
  <text x="237.8021978021978" y="375" class="label" text-anchor="middle">2025-12-06</text>
  <text x="237.8021978021978" y="96.53846153846155" class="label" text-anchor="middle">42</text>
  <circle cx="245.7142857142857" cy="101.53846153846155" class="point"/>
  <text x="245.7142857142857" y="375" class="label" text-anchor="middle">2025-12-07</text>
  <text x="245.7142857142857" y="96.53846153846155" class="label" text-anchor="middle">42</text>
  <circle cx="253.62637362637363" cy="40.0" class="point"/>
  <text x="253.62637362637363" y="375" class="label" text-anchor="middle">2025-12-08</text>
  <text x="253.62637362637363" y="35.0" class="label" text-anchor="middle">52</text>
  <circle cx="261.53846153846155" cy="40.0" class="point"/>
  <text x="261.53846153846155" y="375" class="label" text-anchor="middle">2025-12-09</text>
  <text x="261.53846153846155" y="35.0" class="label" text-anchor="middle">52</text>
  <circle cx="269.45054945054943" cy="40.0" class="point"/>
  <text x="269.45054945054943" y="375" class="label" text-anchor="middle">2025-12-10</text>
  <text x="269.45054945054943" y="35.0" class="label" text-anchor="middle">52</text>
  <circle cx="277.3626373626374" cy="40.0" class="point"/>
  <text x="277.3626373626374" y="375" class="label" text-anchor="middle">2025-12-11</text>
  <text x="277.3626373626374" y="35.0" class="label" text-anchor="middle">52</text>
  <circle cx="285.27472527472526" cy="40.0" class="point"/>
  <text x="285.27472527472526" y="375" class="label" text-anchor="middle">2025-12-12</text>
  <text x="285.27472527472526" y="35.0" class="label" text-anchor="middle">52</text>
  <circle cx="293.1868131868132" cy="40.0" class="point"/>
  <text x="293.1868131868132" y="375" class="label" text-anchor="middle">2025-12-13</text>
  <text x="293.1868131868132" y="35.0" class="label" text-anchor="middle">52</text>
  <circle cx="301.0989010989011" cy="40.0" class="point"/>
  <text x="301.0989010989011" y="375" class="label" text-anchor="middle">2025-12-14</text>
  <text x="301.0989010989011" y="35.0" class="label" text-anchor="middle">52</text>
  <circle cx="309.010989010989" cy="40.0" class="point"/>
  <text x="309.010989010989" y="375" class="label" text-anchor="middle">2025-12-15</text>
  <text x="309.010989010989" y="35.0" class="label" text-anchor="middle">52</text>
  <circle cx="316.92307692307696" cy="40.0" class="point"/>
  <text x="316.92307692307696" y="375" class="label" text-anchor="middle">2025-12-16</text>
  <text x="316.92307692307696" y="35.0" class="label" text-anchor="middle">52</text>
  <circle cx="324.83516483516485" cy="40.0" class="point"/>
  <text x="324.83516483516485" y="375" class="label" text-anchor="middle">2025-12-17</text>
  <text x="324.83516483516485" y="35.0" class="label" text-anchor="middle">52</text>
  <circle cx="332.74725274725273" cy="40.0" class="point"/>
  <text x="332.74725274725273" y="375" class="label" text-anchor="middle">2025-12-18</text>
  <text x="332.74725274725273" y="35.0" class="label" text-anchor="middle">52</text>
  <circle cx="340.65934065934067" cy="40.0" class="point"/>
  <text x="340.65934065934067" y="375" class="label" text-anchor="middle">2025-12-19</text>
  <text x="340.65934065934067" y="35.0" class="label" text-anchor="middle">52</text>
  <circle cx="348.57142857142856" cy="40.0" class="point"/>
  <text x="348.57142857142856" y="375" class="label" text-anchor="middle">2025-12-20</text>
  <text x="348.57142857142856" y="35.0" class="label" text-anchor="middle">52</text>
  <circle cx="356.4835164835165" cy="40.0" class="point"/>
  <text x="356.4835164835165" y="375" class="label" text-anchor="middle">2025-12-21</text>
  <text x="356.4835164835165" y="35.0" class="label" text-anchor="middle">52</text>
  <circle cx="364.3956043956044" cy="40.0" class="point"/>
  <text x="364.3956043956044" y="375" class="label" text-anchor="middle">2025-12-22</text>
  <text x="364.3956043956044" y="35.0" class="label" text-anchor="middle">52</text>
  <circle cx="372.3076923076923" cy="40.0" class="point"/>
  <text x="372.3076923076923" y="375" class="label" text-anchor="middle">2025-12-23</text>
  <text x="372.3076923076923" y="35.0" class="label" text-anchor="middle">52</text>
  <circle cx="380.2197802197802" cy="40.0" class="point"/>
  <text x="380.2197802197802" y="375" class="label" text-anchor="middle">2025-12-24</text>
  <text x="380.2197802197802" y="35.0" class="label" text-anchor="middle">52</text>
  <circle cx="388.13186813186815" cy="40.0" class="point"/>
  <text x="388.13186813186815" y="375" class="label" text-anchor="middle">2025-12-25</text>
  <text x="388.13186813186815" y="35.0" class="label" text-anchor="middle">52</text>
  <circle cx="396.0439560439561" cy="40.0" class="point"/>
  <text x="396.0439560439561" y="375" class="label" text-anchor="middle">2025-12-26</text>
  <text x="396.0439560439561" y="35.0" class="label" text-anchor="middle">52</text>
  <circle cx="403.9560439560439" cy="40.0" class="point"/>
  <text x="403.9560439560439" y="375" class="label" text-anchor="middle">2025-12-27</text>
  <text x="403.9560439560439" y="35.0" class="label" text-anchor="middle">52</text>
  <circle cx="411.8681318681319" cy="40.0" class="point"/>
  <text x="411.8681318681319" y="375" class="label" text-anchor="middle">2025-12-28</text>
  <text x="411.8681318681319" y="35.0" class="label" text-anchor="middle">52</text>
  <circle cx="419.7802197802198" cy="40.0" class="point"/>
  <text x="419.7802197802198" y="375" class="label" text-anchor="middle">2025-12-29</text>
  <text x="419.7802197802198" y="35.0" class="label" text-anchor="middle">52</text>
  <circle cx="427.6923076923077" cy="40.0" class="point"/>
  <text x="427.6923076923077" y="375" class="label" text-anchor="middle">2025-12-30</text>
  <text x="427.6923076923077" y="35.0" class="label" text-anchor="middle">52</text>
  <circle cx="435.6043956043956" cy="40.0" class="point"/>
  <text x="435.6043956043956" y="375" class="label" text-anchor="middle">2025-12-31</text>
  <text x="435.6043956043956" y="35.0" class="label" text-anchor="middle">52</text>
  <circle cx="443.5164835164835" cy="40.0" class="point"/>
  <text x="443.5164835164835" y="375" class="label" text-anchor="middle">2026-01-01</text>
  <text x="443.5164835164835" y="35.0" class="label" text-anchor="middle">52</text>
  <circle cx="451.4285714285714" cy="40.0" class="point"/>
  <text x="451.4285714285714" y="375" class="label" text-anchor="middle">2026-01-02</text>
  <text x="451.4285714285714" y="35.0" class="label" text-anchor="middle">52</text>
  <circle cx="459.3406593406594" cy="40.0" class="point"/>
  <text x="459.3406593406594" y="375" class="label" text-anchor="middle">2026-01-03</text>
  <text x="459.3406593406594" y="35.0" class="label" text-anchor="middle">52</text>
  <circle cx="467.25274725274727" cy="40.0" class="point"/>
  <text x="467.25274725274727" y="375" class="label" text-anchor="middle">2026-01-04</text>
  <text x="467.25274725274727" y="35.0" class="label" text-anchor="middle">52</text>
  <circle cx="475.16483516483515" cy="40.0" class="point"/>
  <text x="475.16483516483515" y="375" class="label" text-anchor="middle">2026-01-05</text>
  <text x="475.16483516483515" y="35.0" class="label" text-anchor="middle">52</text>
  <circle cx="483.0769230769231" cy="40.0" class="point"/>
  <text x="483.0769230769231" y="375" class="label" text-anchor="middle">2026-01-06</text>
  <text x="483.0769230769231" y="35.0" class="label" text-anchor="middle">52</text>
  <circle cx="490.989010989011" cy="40.0" class="point"/>
  <text x="490.989010989011" y="375" class="label" text-anchor="middle">2026-01-07</text>
  <text x="490.989010989011" y="35.0" class="label" text-anchor="middle">52</text>
  <circle cx="498.90109890109886" cy="40.0" class="point"/>
  <text x="498.90109890109886" y="375" class="label" text-anchor="middle">2026-01-08</text>
  <text x="498.90109890109886" y="35.0" class="label" text-anchor="middle">52</text>
  <circle cx="506.81318681318686" cy="40.0" class="point"/>
  <text x="506.81318681318686" y="375" class="label" text-anchor="middle">2026-01-09</text>
  <text x="506.81318681318686" y="35.0" class="label" text-anchor="middle">52</text>
  <circle cx="514.7252747252747" cy="40.0" class="point"/>
  <text x="514.7252747252747" y="375" class="label" text-anchor="middle">2026-01-10</text>
  <text x="514.7252747252747" y="35.0" class="label" text-anchor="middle">52</text>
  <circle cx="522.6373626373627" cy="40.0" class="point"/>
  <text x="522.6373626373627" y="375" class="label" text-anchor="middle">2026-01-11</text>
  <text x="522.6373626373627" y="35.0" class="label" text-anchor="middle">52</text>
  <circle cx="530.5494505494505" cy="40.0" class="point"/>
  <text x="530.5494505494505" y="375" class="label" text-anchor="middle">2026-01-12</text>
  <text x="530.5494505494505" y="35.0" class="label" text-anchor="middle">52</text>
  <circle cx="538.4615384615385" cy="40.0" class="point"/>
  <text x="538.4615384615385" y="375" class="label" text-anchor="middle">2026-01-13</text>
  <text x="538.4615384615385" y="35.0" class="label" text-anchor="middle">52</text>
  <circle cx="546.3736263736264" cy="40.0" class="point"/>
  <text x="546.3736263736264" y="375" class="label" text-anchor="middle">2026-01-14</text>
  <text x="546.3736263736264" y="35.0" class="label" text-anchor="middle">52</text>
  <circle cx="554.2857142857143" cy="40.0" class="point"/>
  <text x="554.2857142857143" y="375" class="label" text-anchor="middle">2026-01-15</text>
  <text x="554.2857142857143" y="35.0" class="label" text-anchor="middle">52</text>
  <circle cx="562.1978021978022" cy="40.0" class="point"/>
  <text x="562.1978021978022" y="375" class="label" text-anchor="middle">2026-01-16</text>
  <text x="562.1978021978022" y="35.0" class="label" text-anchor="middle">52</text>
  <circle cx="570.1098901098901" cy="40.0" class="point"/>
  <text x="570.1098901098901" y="375" class="label" text-anchor="middle">2026-01-17</text>
  <text x="570.1098901098901" y="35.0" class="label" text-anchor="middle">52</text>
  <circle cx="578.021978021978" cy="40.0" class="point"/>
  <text x="578.021978021978" y="375" class="label" text-anchor="middle">2026-01-18</text>
  <text x="578.021978021978" y="35.0" class="label" text-anchor="middle">52</text>
  <circle cx="585.9340659340659" cy="40.0" class="point"/>
  <text x="585.9340659340659" y="375" class="label" text-anchor="middle">2026-01-19</text>
  <text x="585.9340659340659" y="35.0" class="label" text-anchor="middle">52</text>
  <circle cx="593.8461538461539" cy="40.0" class="point"/>
  <text x="593.8461538461539" y="375" class="label" text-anchor="middle">2026-01-20</text>
  <text x="593.8461538461539" y="35.0" class="label" text-anchor="middle">52</text>
  <circle cx="601.7582417582418" cy="40.0" class="point"/>
  <text x="601.7582417582418" y="375" class="label" text-anchor="middle">2026-01-21</text>
  <text x="601.7582417582418" y="35.0" class="label" text-anchor="middle">52</text>
  <circle cx="609.6703296703297" cy="40.0" class="point"/>
  <text x="609.6703296703297" y="375" class="label" text-anchor="middle">2026-01-22</text>
  <text x="609.6703296703297" y="35.0" class="label" text-anchor="middle">52</text>
  <circle cx="617.5824175824176" cy="40.0" class="point"/>
  <text x="617.5824175824176" y="375" class="label" text-anchor="middle">2026-01-23</text>
  <text x="617.5824175824176" y="35.0" class="label" text-anchor="middle">52</text>
  <circle cx="625.4945054945055" cy="40.0" class="point"/>
  <text x="625.4945054945055" y="375" class="label" text-anchor="middle">2026-01-24</text>
  <text x="625.4945054945055" y="35.0" class="label" text-anchor="middle">52</text>
  <circle cx="633.4065934065934" cy="40.0" class="point"/>
  <text x="633.4065934065934" y="375" class="label" text-anchor="middle">2026-01-25</text>
  <text x="633.4065934065934" y="35.0" class="label" text-anchor="middle">52</text>
  <circle cx="641.3186813186813" cy="40.0" class="point"/>
  <text x="641.3186813186813" y="375" class="label" text-anchor="middle">2026-01-26</text>
  <text x="641.3186813186813" y="35.0" class="label" text-anchor="middle">52</text>
  <circle cx="649.2307692307692" cy="40.0" class="point"/>
  <text x="649.2307692307692" y="375" class="label" text-anchor="middle">2026-01-27</text>
  <text x="649.2307692307692" y="35.0" class="label" text-anchor="middle">52</text>
  <circle cx="657.1428571428571" cy="40.0" class="point"/>
  <text x="657.1428571428571" y="375" class="label" text-anchor="middle">2026-01-28</text>
  <text x="657.1428571428571" y="35.0" class="label" text-anchor="middle">52</text>
  <circle cx="665.054945054945" cy="40.0" class="point"/>
  <text x="665.054945054945" y="375" class="label" text-anchor="middle">2026-01-29</text>
  <text x="665.054945054945" y="35.0" class="label" text-anchor="middle">52</text>
  <circle cx="672.967032967033" cy="40.0" class="point"/>
  <text x="672.967032967033" y="375" class="label" text-anchor="middle">2026-01-30</text>
  <text x="672.967032967033" y="35.0" class="label" text-anchor="middle">52</text>
  <circle cx="680.8791208791208" cy="40.0" class="point"/>
  <text x="680.8791208791208" y="375" class="label" text-anchor="middle">2026-01-31</text>
  <text x="680.8791208791208" y="35.0" class="label" text-anchor="middle">52</text>
  <circle cx="688.7912087912088" cy="40.0" class="point"/>
  <text x="688.7912087912088" y="375" class="label" text-anchor="middle">2026-02-01</text>
  <text x="688.7912087912088" y="35.0" class="label" text-anchor="middle">52</text>
  <circle cx="696.7032967032967" cy="40.0" class="point"/>
  <text x="696.7032967032967" y="375" class="label" text-anchor="middle">2026-02-02</text>
  <text x="696.7032967032967" y="35.0" class="label" text-anchor="middle">52</text>
  <circle cx="704.6153846153846" cy="40.0" class="point"/>
  <text x="704.6153846153846" y="375" class="label" text-anchor="middle">2026-02-03</text>
  <text x="704.6153846153846" y="35.0" class="label" text-anchor="middle">52</text>
  <circle cx="712.5274725274726" cy="40.0" class="point"/>
  <text x="712.5274725274726" y="375" class="label" text-anchor="middle">2026-02-04</text>
  <text x="712.5274725274726" y="35.0" class="label" text-anchor="middle">52</text>
  <circle cx="720.4395604395604" cy="40.0" class="point"/>
  <text x="720.4395604395604" y="375" class="label" text-anchor="middle">2026-02-05</text>
  <text x="720.4395604395604" y="35.0" class="label" text-anchor="middle">52</text>
  <circle cx="728.3516483516484" cy="40.0" class="point"/>
  <text x="728.3516483516484" y="375" class="label" text-anchor="middle">2026-02-06</text>
  <text x="728.3516483516484" y="35.0" class="label" text-anchor="middle">52</text>
  <circle cx="736.2637362637363" cy="40.0" class="point"/>
  <text x="736.2637362637363" y="375" class="label" text-anchor="middle">2026-02-07</text>
  <text x="736.2637362637363" y="35.0" class="label" text-anchor="middle">52</text>
  <circle cx="744.1758241758241" cy="40.0" class="point"/>
  <text x="744.1758241758241" y="375" class="label" text-anchor="middle">2026-02-08</text>
  <text x="744.1758241758241" y="35.0" class="label" text-anchor="middle">52</text>
  <circle cx="752.0879120879122" cy="40.0" class="point"/>
  <text x="752.0879120879122" y="375" class="label" text-anchor="middle">2026-02-09</text>
  <text x="752.0879120879122" y="35.0" class="label" text-anchor="middle">52</text>
  <circle cx="760.0" cy="40.0" class="point"/>
  <text x="760.0" y="375" class="label" text-anchor="middle">2026-02-10</text>
  <text x="760.0" y="35.0" class="label" text-anchor="middle">52</text>
  <text x="30" y="363.0" class="label" text-anchor="end">0</text>
  <text x="30" y="301.46153846153845" class="label" text-anchor="end">10</text>
  <text x="30" y="239.9230769230769" class="label" text-anchor="end">20</text>
  <text x="30" y="178.38461538461542" class="label" text-anchor="end">30</text>
  <text x="30" y="116.84615384615384" class="label" text-anchor="end">40</text>
  <text x="30" y="55.30769230769232" class="label" text-anchor="end">50</text>
</svg>