<svg xmlns="http://www.w3.org/2000/svg" width="800" height="400" viewBox="0 0 800 400">
  <style>
    .axis{stroke:#666;stroke-width:1}
    .line{stroke:#4a9;stroke-width:2;fill:none}
    .point{fill:#4a9;r:4}
    .label{font:10px sans-serif;fill:#aaa}
    .title{font:14px sans-serif;fill:#333}
  </style>
  <text x="400" y="20" class="title" text-anchor="middle">OPIC Field Growth Timeline</text>
  <line x1="40" y1="40" x2="40" y2="360" class="axis"/>
  <line x1="40" y1="360" x2="760" y2="360" class="axis"/>
  <path d="M 40.0,101.53846153846155 L 46.26086956521739,101.53846153846155 L 52.52173913043478,101.53846153846155 L 58.78260869565217,101.53846153846155 L 65.04347826086956,101.53846153846155 L 71.30434782608695,101.53846153846155 L 77.56521739130434,101.53846153846155 L 83.82608695652175,101.53846153846155 L 90.08695652173913,101.53846153846155 L 96.34782608695653,101.53846153846155 L 102.6086956521739,101.53846153846155 L 108.86956521739131,101.53846153846155 L 115.13043478260869,101.53846153846155 L 121.3913043478261,101.53846153846155 L 127.65217391304348,101.53846153846155 L 133.91304347826087,101.53846153846155 L 140.17391304347825,101.53846153846155 L 146.43478260869566,101.53846153846155 L 152.69565217391306,101.53846153846155 L 158.95652173913044,101.53846153846155 L 165.2173913043478,101.53846153846155 L 171.47826086956522,101.53846153846155 L 177.73913043478262,101.53846153846155 L 184.0,101.53846153846155 L 190.26086956521738,101.53846153846155 L 196.52173913043478,101.53846153846155 L 202.7826086956522,101.53846153846155 L 209.04347826086956,40.0 L 215.30434782608697,40.0 L 221.56521739130434,40.0 L 227.82608695652172,40.0 L 234.08695652173913,40.0 L 240.34782608695653,40.0 L 246.6086956521739,40.0 L 252.8695652173913,40.0 L 259.13043478260875,40.0 L 265.3913043478261,40.0 L 271.6521739130435,40.0 L 277.9130434782609,40.0 L 284.17391304347825,40.0 L 290.4347826086956,40.0 L 296.69565217391306,40.0 L 302.95652173913044,40.0 L 309.2173913043478,40.0 L 315.47826086956525,40.0 L 321.7391304347826,40.0 L 328.0,40.0 L 334.26086956521743,40.0 L 340.52173913043475,40.0 L 346.7826086956522,40.0 L 353.04347826086956,40.0 L 359.30434782608694,40.0 L 365.5652173913044,40.0 L 371.82608695652175,40.0 L 378.0869565217391,40.0 L 384.34782608695656,40.0 L 390.60869565217394,40.0 L 396.8695652173913,40.0 L 403.1304347826087,40.0 L 409.3913043478261,40.0 L 415.65217391304344,40.0 L 421.9130434782609,40.0 L 428.17391304347825,40.0 L 434.4347826086956,40.0 L 440.69565217391306,40.0 L 446.9565217391304,40.0 L 453.2173913043478,40.0 L 459.4782608695652,40.0 L 465.7391304347826,40.0 L 472.0,40.0 L 478.26086956521743,40.0 L 484.52173913043475,40.0 L 490.7826086956522,40.0 L 497.04347826086956,40.0 L 503.30434782608694,40.0 L 509.5652173913044,40.0 L 515.8260869565217,40.0 L 522.0869565217391,40.0 L 528.3478260869565,40.0 L 534.608695652174,40.0 L 540.8695652173913,40.0 L 547.1304347826087,40.0 L 553.3913043478261,40.0 L 559.6521739130435,40.0 L 565.9130434782609,40.0 L 572.1739130434783,40.0 L 578.4347826086956,40.0 L 584.695652173913,40.0 L 590.9565217391305,40.0 L 597.2173913043478,40.0 L 603.4782608695652,40.0 L 609.7391304347826,40.0 L 616.0,40.0 L 622.2608695652174,40.0 L 628.5217391304349,40.0 L 634.7826086956521,40.0 L 641.0434782608695,40.0 L 647.304347826087,40.0 L 653.5652173913044,40.0 L 659.8260869565217,40.0 L 666.0869565217391,40.0 L 672.3478260869565,40.0 L 678.6086956521739,40.0 L 684.8695652173914,40.0 L 691.1304347826087,40.0 L 697.391304347826,40.0 L 703.6521739130435,40.0 L 709.9130434782609,40.0 L 716.1739130434783,40.0 L 722.4347826086956,40.0 L 728.6956521739131,40.0 L 734.9565217391304,40.0 L 741.2173913043479,40.0 L 747.4782608695652,40.0 L 753.7391304347826,40.0 L 760.0,40.0" class="line"/>
  <circle cx="40.0" cy="101.53846153846155" class="point"/>
  <text x="40.0" y="375" class="label" text-anchor="middle">2025-11-11</text>
  <text x="40.0" y="96.53846153846155" class="label" text-anchor="middle">42</text>
  <circle cx="46.26086956521739" cy="101.53846153846155" class="point"/>
  <text x="46.26086956521739" y="375" class="label" text-anchor="middle">2025-11-12</text>
  <text x="46.26086956521739" y="96.53846153846155" class="label" text-anchor="middle">42</text>
  <circle cx="52.52173913043478" cy="101.53846153846155" class="point"/>
  <text x="52.52173913043478" y="375" class="label" text-anchor="middle">2025-11-13</text>
  <text x="52.52173913043478" y="96.53846153846155" class="label" text-anchor="middle">42</text>
  <circle cx="58.78260869565217" cy="101.53846153846155" class="point"/>
  <text x="58.78260869565217" y="375" class="label" text-anchor="middle">2025-11-14</text>
  <text x="58.78260869565217" y="96.53846153846155" class="label" text-anchor="middle">42</text>
  <circle cx="65.04347826086956" cy="101.53846153846155" class="point"/>
  <text x="65.04347826086956" y="375" class="label" text-anchor="middle">2025-11-15</text>
  <text x="65.04347826086956" y="96.53846153846155" class="label" text-anchor="middle">42</text>
  <circle cx="71.30434782608695" cy="101.53846153846155" class="point"/>
  <text x="71.30434782608695" y="375" class="label" text-anchor="middle">2025-11-16</text>
  <text x="71.30434782608695" y="96.53846153846155" class="label" text-anchor="middle">42</text>
  <circle cx="77.56521739130434" cy="101.53846153846155" class="point"/>
  <text x="77.56521739130434" y="375" class="label" text-anchor="middle">2025-11-17</text>
  <text x="77.56521739130434" y="96.53846153846155" class="label" text-anchor="middle">42</text>
  <circle cx="83.82608695652175" cy="101.53846153846155" class="point"/>
  <text x="83.82608695652175" y="375" class="label" text-anchor="middle">2025-11-18</text>
  <text x="83.82608695652175" y="96.53846153846155" class="label" text-anchor="middle">42</text>
  <circle cx="90.08695652173913" cy="101.53846153846155" class="point"/>
  <text x="90.08695652173913" y="375" class="label" text-anchor="middle">2025-11-19</text>
  <text x="90.08695652173913" y="96.53846153846155" class="label" text-anchor="middle">42</text>
  <circle cx="96.34782608695653" cy="101.53846153846155" class="point"/>
  <text x="96.34782608695653" y="375" class="label" text-anchor="middle">2025-11-20</text>
  <text x="96.34782608695653" y="96.53846153846155" class="label" text-anchor="middle">42</text>
  <circle cx="102.6086956521739" cy="101.53846153846155" class="point"/>
  <text x="102.6086956521739" y="375" class="label" text-anchor="middle">2025-11-21</text>
  <text x="102.6086956521739" y="96.53846153846155" class="label" text-anchor="middle">42</text>
  <circle cx="108.86956521739131" cy="101.53846153846155" class="point"/>
  <text x="108.86956521739131" y="375" class="label" text-anchor="middle">2025-11-22</text>
  <text x="108.86956521739131" y="96.53846153846155" class="label" text-anchor="middle">42</text>
  <circle cx="115.13043478260869" cy="101.53846153846155" class="point"/>
  <text x="115.13043478260869" y="375" class="label" text-anchor="middle">2025-11-23</text>
  <text x="115.13043478260869" y="96.53846153846155" class="label" text-anchor="middle">42</text>
  <circle cx="121.3913043478261" cy="101.53846153846155" class="point"/>
  <text x="121.3913043478261" y="375" class="label" text-anchor="middle">2025-11-24</text>
  <text x="121.3913043478261" y="96.53846153846155" class="label" text-anchor="middle">42</text>
  <circle cx="127.65217391304348" cy="101.53846153846155" class="point"/>
  <text x="127.65217391304348" y="375" class="label" text-anchor="middle">2025-11-25</text>
  <text x="127.65217391304348" y="96.53846153846155" class="label" text-anchor="middle">42</text>
  <circle cx="133.91304347826087" cy="101.53846153846155" class="point"/>
  <text x="133.91304347826087" y="375" class="label" text-anchor="middle">2025-11-26</text>
  <text x="133.91304347826087" y="96.53846153846155" class="label" text-anchor="middle">42</text>
  <circle cx="140.17391304347825" cy="101.53846153846155" class="point"/>
  <text x="140.17391304347825" y="375" class="label" text-anchor="middle">2025-11-27</text>
  <text x="140.17391304347825" y="96.53846153846155" class="label" text-anchor="middle">42</text>
  <circle cx="146.43478260869566" cy="101.53846153846155" class="point"/>
  <text x="146.43478260869566" y="375" class="label" text-anchor="middle">2025-11-28</text>
  <text x="146.43478260869566" y="96.53846153846155" class="label" text-anchor="middle">42</text>
  <circle cx="152.69565217391306" cy="101.53846153846155" class="point"/>
  <text x="152.69565217391306" y="375" class="label" text-anchor="middle">2025-11-29</text>
  <text x="152.69565217391306" y="96.53846153846155" class="label" text-anchor="middle">42</text>
  <circle cx="158.95652173913044" cy="101.53846153846155" class="point"/>
  <text x="158.95652173913044" y="375" class="label" text-anchor="middle">2025-11-30</text>
  <text x="158.95652173913044" y="96.53846153846155" class="label" text-anchor="middle">42</text>
  <circle cx="165.2173913043478" cy="101.53846153846155" class="point"/>
  <text x="165.2173913043478" y="375" class="label" text-anchor="middle">2025-12-01</text>
  <text x="165.2173913043478" y="96.53846153846155" class="label" text-anchor="middle">42</text>
  <circle cx="171.47826086956522" cy="101.53846153846155" class="point"/>
  <text x="171.47826086956522" y="375" class="label" text-anchor="middle">2025-12-02</text>
  <text x="171.47826086956522" y="96.53846153846155" class="label" text-anchor="middle">42</text>
  <circle cx="177.73913043478262" cy="101.53846153846155" class="point"/>
  <text x="177.73913043478262" y="375" class="label" text-anchor="middle">2025-12-03</text>
  <text x="177.73913043478262" y="96.53846153846155" class="label" text-anchor="middle">42</text>
  <circle cx="184.0" cy="101.53846153846155" class="point"/>
  <text x="184.0" y="375" class="label" text-anchor="middle">2025-12-04</text>
  <text x="184.0" y="96.53846153846155" class="label" text-anchor="middle">42</text>
  <circle cx="190.26086956521738" cy="101.53846153846155" class="point"/>
  <text x="190.26086956521738" y="375" class="label" text-anchor="middle">2025-12-05</text>
  <text x="190.26086956521738" y="96.53846153846155" class="label" text-anchor="middle">42</text>
  <circle cx="196.52173913043478" cy="101.53846153846155" class="point"/>
  <text x="196.52173913043478" y="375" class="label" text-anchor="middle">2025-12-06</text>
  <text x="196.52173913043478" y="96.53846153846155" class="label" text-anchor="middle">42</text>
  <circle cx="202.7826086956522" cy="101.53846153846155" class="point"/>
  <text x="202.7826086956522" y="375" class="label" text-anchor="middle">2025-12-07</text>
  <text x="202.7826086956522" y="96.53846153846155" class="label" text-anchor="middle">42</text>
  <circle cx="209.04347826086956" cy="40.0" class="point"/>
  <text x="209.04347826086956" y="375" class="label" text-anchor="middle">2025-12-08</text>
  <text x="209.04347826086956" y="35.0" class="label" text-anchor="middle">52</text>
  <circle cx="215.30434782608697" cy="40.0" class="point"/>
  <text x="215.30434782608697" y="375" class="label" text-anchor="middle">2025-12-09</text>
  <text x="215.30434782608697" y="35.0" class="label" text-anchor="middle">52</text>
  <circle cx="221.56521739130434" cy="40.0" class="point"/>
  <text x="221.56521739130434" y="375" class="label" text-anchor="middle">2025-12-10</text>
  <text x="221.56521739130434" y="35.0" class="label" text-anchor="middle">52</text>
  <circle cx="227.82608695652172" cy="40.0" class="point"/>
  <text x="227.82608695652172" y="375" class="label" text-anchor="middle">2025-12-11</text>
  <text x="227.82608695652172" y="35.0" class="label" text-anchor="middle">52</text>
  <circle cx="234.08695652173913" cy="40.0" class="point"/>
  <text x="234.08695652173913" y="375" class="label" text-anchor="middle">2025-12-12</text>
  <text x="234.08695652173913" y="35.0" class="label" text-anchor="middle">52</text>
  <circle cx="240.34782608695653" cy="40.0" class="point"/>
  <text x="240.34782608695653" y="375" class="label" text-anchor="middle">2025-12-13</text>
  <text x="240.34782608695653" y="35.0" class="label" text-anchor="middle">52</text>
  <circle cx="246.6086956521739" cy="40.0" class="point"/>
  <text x="246.6086956521739" y="375" class="label" text-anchor="middle">2025-12-14</text>
  <text x="246.6086956521739" y="35.0" class="label" text-anchor="middle">52</text>
  <circle cx="252.8695652173913" cy="40.0" class="point"/>
  <text x="252.8695652173913" y="375" class="label" text-anchor="middle">2025-12-15</text>
  <text x="252.8695652173913" y="35.0" class="label" text-anchor="middle">52</text>
  <circle cx="259.13043478260875" cy="40.0" class="point"/>
  <text x="259.13043478260875" y="375" class="label" text-anchor="middle">2025-12-16</text>
  <text x="259.13043478260875" y="35.0" class="label" text-anchor="middle">52</text>
  <circle cx="265.3913043478261" cy="40.0" class="point"/>
  <text x="265.3913043478261" y="375" class="label" text-anchor="middle">2025-12-17</text>
  <text x="265.3913043478261" y="35.0" class="label" text-anchor="middle">52</text>
  <circle cx="271.6521739130435" cy="40.0" class="point"/>
  <text x="271.6521739130435" y="375" class="label" text-anchor="middle">2025-12-18</text>
  <text x="271.6521739130435" y="35.0" class="label" text-anchor="middle">52</text>
  <circle cx="277.9130434782609" cy="40.0" class="point"/>
  <text x="277.9130434782609" y="375" class="label" text-anchor="middle">2025-12-19</text>
  <text x="277.9130434782609" y="35.0" class="label" text-anchor="middle">52</text>
  <circle cx="284.17391304347825" cy="40.0" class="point"/>
  <text x="284.17391304347825" y="375" class="label" text-anchor="middle">2025-12-20</text>
  <text x="284.17391304347825" y="35.0" class="label" text-anchor="middle">52</text>
  <circle cx="290.4347826086956" cy="40.0" class="point"/>
  <text x="290.4347826086956" y="375" class="label" text-anchor="middle">2025-12-21</text>
  <text x="290.4347826086956" y="35.0" class="label" text-anchor="middle">52</text>
  <circle cx="296.69565217391306" cy="40.0" class="point"/>
  <text x="296.69565217391306" y="375" class="label" text-anchor="middle">2025-12-22</text>
  <text x="296.69565217391306" y="35.0" class="label" text-anchor="middle">52</text>
  <circle cx="302.95652173913044" cy="40.0" class="point"/>
  <text x="302.95652173913044" y="375" class="label" text-anchor="middle">2025-12-23</text>
  <text x="302.95652173913044" y="35.0" class="label" text-anchor="middle">52</text>
  <circle cx="309.2173913043478" cy="40.0" class="point"/>
  <text x="309.2173913043478" y="375" class="label" text-anchor="middle">2025-12-24</text>
  <text x="309.2173913043478" y="35.0" class="label" text-anchor="middle">52</text>
  <circle cx="315.47826086956525" cy="40.0" class="point"/>
  <text x="315.47826086956525" y="375" class="label" text-anchor="middle">2025-12-25</text>
  <text x="315.47826086956525" y="35.0" class="label" text-anchor="middle">52</text>
  <circle cx="321.7391304347826" cy="40.0" class="point"/>
  <text x="321.7391304347826" y="375" class="label" text-anchor="middle">2025-12-26</text>
  <text x="321.7391304347826" y="35.0" class="label" text-anchor="middle">52</text>
  <circle cx="328.0" cy="40.0" class="point"/>
  <text x="328.0" y="375" class="label" text-anchor="middle">2025-12-27</text>
  <text x="328.0" y="35.0" class="label" text-anchor="middle">52</text>
  <circle cx="334.26086956521743" cy="40.0" class="point"/>
  <text x="334.26086956521743" y="375" class="label" text-anchor="middle">2025-12-28</text>
  <text x="334.26086956521743" y="35.0" class="label" text-anchor="middle">52</text>
  <circle cx="340.52173913043475" cy="40.0" class="point"/>
  <text x="340.52173913043475" y="375" class="label" text-anchor="middle">2025-12-29</text>
  <text x="340.52173913043475" y="35.0" class="label" text-anchor="middle">52</text>
  <circle cx="346.7826086956522" cy="40.0" class="point"/>
  <text x="346.7826086956522" y="375" class="label" text-anchor="middle">2025-12-30</text>
  <text x="346.7826086956522" y="35.0" class="label" text-anchor="middle">52</text>
  <circle cx="353.04347826086956" cy="40.0" class="point"/>
  <text x="353.04347826086956" y="375" class="label" text-anchor="middle">2025-12-31</text>
  <text x="353.04347826086956" y="35.0" class="label" text-anchor="middle">52</text>
  <circle cx="359.30434782608694" cy="40.0" class="point"/>
  <text x="359.30434782608694" y="375" class="label" text-anchor="middle">2026-01-01</text>
  <text x="359.30434782608694" y="35.0" class="label" text-anchor="middle">52</text>
  <circle cx="365.5652173913044" cy="40.0" class="point"/>
  <text x="365.5652173913044" y="375" class="label" text-anchor="middle">2026-01-02</text>
  <text x="365.5652173913044" y="35.0" class="label" text-anchor="middle">52</text>
  <circle cx="371.82608695652175" cy="40.0" class="point"/>
  <text x="371.82608695652175" y="375" class="label" text-anchor="middle">2026-01-03</text>
  <text x="371.82608695652175" y="35.0" class="label" text-anchor="middle">52</text>
  <circle cx="378.0869565217391" cy="40.0" class="point"/>
  <text x="378.0869565217391" y="375" class="label" text-anchor="middle">2026-01-04</text>
  <text x="378.0869565217391" y="35.0" class="label" text-anchor="middle">52</text>
  <circle cx="384.34782608695656" cy="40.0" class="point"/>
  <text x="384.34782608695656" y="375" class="label" text-anchor="middle">2026-01-05</text>
  <text x="384.34782608695656" y="35.0" class="label" text-anchor="middle">52</text>
  <circle cx="390.60869565217394" cy="40.0" class="point"/>
  <text x="390.60869565217394" y="375" class="label" text-anchor="middle">2026-01-06</text>
  <text x="390.60869565217394" y="35.0" class="label" text-anchor="middle">52</text>
  <circle cx="396.8695652173913" cy="40.0" class="point"/>
  <text x="396.8695652173913" y="375" class="label" text-anchor="middle">2026-01-07</text>
  <text x="396.8695652173913" y="35.0" class="label" text-anchor="middle">52</text>
  <circle cx="403.1304347826087" cy="40.0" class="point"/>
  <text x="403.1304347826087" y="375" class="label" text-anchor="middle">2026-01-08</text>
  <text x="403.1304347826087" y="35.0" class="label" text-anchor="middle">52</text>
  <circle cx="409.3913043478261" cy="40.0" class="point"/>
  <text x="409.3913043478261" y="375" class="label" text-anchor="middle">2026-01-09</text>
  <text x="409.3913043478261" y="35.0" class="label" text-anchor="middle">52</text>
  <circle cx="415.65217391304344" cy="40.0" class="point"/>
  <text x="415.65217391304344" y="375" class="label" text-anchor="middle">2026-01-10</text>
  <text x="415.65217391304344" y="35.0" class="label" text-anchor="middle">52</text>
  <circle cx="421.9130434782609" cy="40.0" class="point"/>
  <text x="421.9130434782609" y="375" class="label" text-anchor="middle">2026-01-11</text>
  <text x="421.9130434782609" y="35.0" class="label" text-anchor="middle">52</text>
  <circle cx="428.17391304347825" cy="40.0" class="point"/>
  <text x="428.17391304347825" y="375" class="label" text-anchor="middle">2026-01-12</text>
  <text x="428.17391304347825" y="35.0" class="label" text-anchor="middle">52</text>
  <circle cx="434.4347826086956" cy="40.0" class="point"/>
  <text x="434.4347826086956" y="375" class="label" text-anchor="middle">2026-01-13</text>
  <text x="434.4347826086956" y="35.0" class="label" text-anchor="middle">52</text>
  <circle cx="440.69565217391306" cy="40.0" class="point"/>
  <text x="440.69565217391306" y="375" class="label" text-anchor="middle">2026-01-14</text>
  <text x="440.69565217391306" y="35.0" class="label" text-anchor="middle">52</text>
  <circle cx="446.9565217391304" cy="40.0" class="point"/>
  <text x="446.9565217391304" y="375" class="label" text-anchor="middle">2026-01-15</text>
  <text x="446.9565217391304" y="35.0" class="label" text-anchor="middle">52</text>
  <circle cx="453.2173913043478" cy="40.0" class="point"/>
  <text x="453.2173913043478" y="375" class="label" text-anchor="middle">2026-01-16</text>
  <text x="453.2173913043478" y="35.0" class="label" text-anchor="middle">52</text>
  <circle cx="459.4782608695652" cy="40.0" class="point"/>
  <text x="459.4782608695652" y="375" class="label" text-anchor="middle">2026-01-17</text>
  <text x="459.4782608695652" y="35.0" class="label" text-anchor="middle">52</text>
  <circle cx="465.7391304347826" cy="40.0" class="point"/>
  <text x="465.7391304347826" y="375" class="label" text-anchor="middle">2026-01-18</text>
  <text x="465.7391304347826" y="35.0" class="label" text-anchor="middle">52</text>
  <circle cx="472.0" cy="40.0" class="point"/>
  <text x="472.0" y="375" class="label" text-anchor="middle">2026-01-19</text>
  <text x="472.0" y="35.0" class="label" text-anchor="middle">52</text>
  <circle cx="478.26086956521743" cy="40.0" class="point"/>
  <text x="478.26086956521743" y="375" class="label" text-anchor="middle">2026-01-20</text>
  <text x="478.26086956521743" y="35.0" class="label" text-anchor="middle">52</text>
  <circle cx="484.52173913043475" cy="40.0" class="point"/>
  <text x="484.52173913043475" y="375" class="label" text-anchor="middle">2026-01-21</text>
  <text x="484.52173913043475" y="35.0" class="label" text-anchor="middle">52</text>
  <circle cx="490.7826086956522" cy="40.0" class="point"/>
  <text x="490.7826086956522" y="375" class="label" text-anchor="middle">2026-01-22</text>
  <text x="490.7826086956522" y="35.0" class="label" text-anchor="middle">52</text>
  <circle cx="497.04347826086956" cy="40.0" class="point"/>
  <text x="497.04347826086956" y="375" class="label" text-anchor="middle">2026-01-23</text>
  <text x="497.04347826086956" y="35.0" class="label" text-anchor="middle">52</text>
  <circle cx="503.30434782608694" cy="40.0" class="point"/>
  <text x="503.30434782608694" y="375" class="label" text-anchor="middle">2026-01-24</text>
  <text x="503.30434782608694" y="35.0" class="label" text-anchor="middle">52</text>
  <circle cx="509.5652173913044" cy="40.0" class="point"/>
  <text x="509.5652173913044" y="375" class="label" text-anchor="middle">2026-01-25</text>
  <text x="509.5652173913044" y="35.0" class="label" text-anchor="middle">52</text>
  <circle cx="515.8260869565217" cy="40.0" class="point"/>
  <text x="515.8260869565217" y="375" class="label" text-anchor="middle">2026-01-26</text>
  <text x="515.8260869565217" y="35.0" class="label" text-anchor="middle">52</text>
  <circle cx="522.0869565217391" cy="40.0" class="point"/>
  <text x="522.0869565217391" y="375" class="label" text-anchor="middle">2026-01-27</text>
  <text x="522.0869565217391" y="35.0" class="label" text-anchor="middle">52</text>
  <circle cx="528.3478260869565" cy="40.0" class="point"/>
  <text x="528.3478260869565" y="375" class="label" text-anchor="middle">2026-01-28</text>
  <text x="528.3478260869565" y="35.0" class="label" text-anchor="middle">52</text>
  <circle cx="534.608695652174" cy="40.0" class="point"/>
  <text x="534.608695652174" y="375" class="label" text-anchor="middle">2026-01-29</text>
  <text x="534.608695652174" y="35.0" class="label" text-anchor="middle">52</text>
  <circle cx="540.8695652173913" cy="40.0" class="point"/>
  <text x="540.8695652173913" y="375" class="label" text-anchor="middle">2026-01-30</text>
  <text x="540.8695652173913" y="35.0" class="label" text-anchor="middle">52</text>
  <circle cx="547.1304347826087" cy="40.0" class="point"/>
  <text x="547.1304347826087" y="375" class="label" text-anchor="middle">2026-01-31</text>
  <text x="547.1304347826087" y="35.0" class="label" text-anchor="middle">52</text>
  <circle cx="553.3913043478261" cy="40.0" class="point"/>
  <text x="553.3913043478261" y="375" class="label" text-anchor="middle">2026-02-01</text>
  <text x="553.3913043478261" y="35.0" class="label" text-anchor="middle">52</text>
  <circle cx="559.6521739130435" cy="40.0" class="point"/>
  <text x="559.6521739130435" y="375" class="label" text-anchor="middle">2026-02-02</text>
  <text x="559.6521739130435" y="35.0" class="label" text-anchor="middle">52</text>
  <circle cx="565.9130434782609" cy="40.0" class="point"/>
  <text x="565.9130434782609" y="375" class="label" text-anchor="middle">2026-02-03</text>
  <text x="565.9130434782609" y="35.0" class="label" text-anchor="middle">52</text>
  <circle cx="572.1739130434783" cy="40.0" class="point"/>
  <text x="572.1739130434783" y="375" class="label" text-anchor="middle">2026-02-04</text>
  <text x="572.1739130434783" y="35.0" class="label" text-anchor="middle">52</text>
  <circle cx="578.4347826086956" cy="40.0" class="point"/>
  <text x="578.4347826086956" y="375" class="label" text-anchor="middle">2026-02-05</text>
  <text x="578.4347826086956" y="35.0" class="label" text-anchor="middle">52</text>
  <circle cx="584.695652173913" cy="40.0" class="point"/>
  <text x="584.695652173913" y="375" class="label" text-anchor="middle">2026-02-06</text>
  <text x="584.695652173913" y="35.0" class="label" text-anchor="middle">52</text>
  <circle cx="590.9565217391305" cy="40.0" class="point"/>
  <text x="590.9565217391305" y="375" class="label" text-anchor="middle">2026-02-07</text>
  <text x="590.9565217391305" y="35.0" class="label" text-anchor="middle">52</text>
  <circle cx="597.2173913043478" cy="40.0" class="point"/>
  <text x="597.2173913043478" y="375" class="label" text-anchor="middle">2026-02-08</text>
  <text x="597.2173913043478" y="35.0" class="label" text-anchor="middle">52</text>
  <circle cx="603.4782608695652" cy="40.0" class="point"/>
  <text x="603.4782608695652" y="375" class="label" text-anchor="middle">2026-02-09</text>
  <text x="603.4782608695652" y="35.0" class="label" text-anchor="middle">52</text>
  <circle cx="609.7391304347826" cy="40.0" class="point"/>
  <text x="609.7391304347826" y="375" class="label" text-anchor="middle">2026-02-10</text>
  <text x="609.7391304347826" y="35.0" class="label" text-anchor="middle">52</text>
  <circle cx="616.0" cy="40.0" class="point"/>
  <text x="616.0" y="375" class="label" text-anchor="middle">2026-02-11</text>
  <text x="616.0" y="35.0" class="label" text-anchor="middle">52</text>
  <circle cx="622.2608695652174" cy="40.0" class="point"/>
  <text x="622.2608695652174" y="375" class="label" text-anchor="middle">2026-02-12</text>
  <text x="622.2608695652174" y="35.0" class="label" text-anchor="middle">52</text>
  <circle cx="628.5217391304349" cy="40.0" class="point"/>
  <text x="628.5217391304349" y="375" class="label" text-anchor="middle">2026-02-13</text>
  <text x="628.5217391304349" y="35.0" class="label" text-anchor="middle">52</text>
  <circle cx="634.7826086956521" cy="40.0" class="point"/>
  <text x="634.7826086956521" y="375" class="label" text-anchor="middle">2026-02-14</text>
  <text x="634.7826086956521" y="35.0" class="label" text-anchor="middle">52</text>
  <circle cx="641.0434782608695" cy="40.0" class="point"/>
  <text x="641.0434782608695" y="375" class="label" text-anchor="middle">2026-02-15</text>
  <text x="641.0434782608695" y="35.0" class="label" text-anchor="middle">52</text>
  <circle cx="647.304347826087" cy="40.0" class="point"/>
  <text x="647.304347826087" y="375" class="label" text-anchor="middle">2026-02-16</text>
  <text x="647.304347826087" y="35.0" class="label" text-anchor="middle">52</text>
  <circle cx="653.5652173913044" cy="40.0" class="point"/>
  <text x="653.5652173913044" y="375" class="label" text-anchor="middle">2026-02-17</text>
  <text x="653.5652173913044" y="35.0" class="label" text-anchor="middle">52</text>
  <circle cx="659.8260869565217" cy="40.0" class="point"/>
  <text x="659.8260869565217" y="375" class="label" text-anchor="middle">2026-02-18</text>
  <text x="659.8260869565217" y="35.0" class="label" text-anchor="middle">52</text>
  <circle cx="666.0869565217391" cy="40.0" class="point"/>
  <text x="666.0869565217391" y="375" class="label" text-anchor="middle">2026-02-19</text>
  <text x="666.0869565217391" y="35.0" class="label" text-anchor="middle">52</text>
  <circle cx="672.3478260869565" cy="40.0" class="point"/>
  <text x="672.3478260869565" y="375" class="label" text-anchor="middle">2026-02-20</text>
  <text x="672.3478260869565" y="35.0" class="label" text-anchor="middle">52</text>
  <circle cx="678.6086956521739" cy="40.0" class="point"/>
  <text x="678.6086956521739" y="375" class="label" text-anchor="middle">2026-02-21</text>
  <text x="678.6086956521739" y="35.0" class="label" text-anchor="middle">52</text>
  <circle cx="684.8695652173914" cy="40.0" class="point"/>
  <text x="684.8695652173914" y="375" class="label" text-anchor="middle">2026-02-22</text>
  <text x="684.8695652173914" y="35.0" class="label" text-anchor="middle">52</text>
  <circle cx="691.1304347826087" cy="40.0" class="point"/>
  <text x="691.1304347826087" y="375" class="label" text-anchor="middle">2026-02-23</text>
  <text x="691.1304347826087" y="35.0" class="label" text-anchor="middle">52</text>
  <circle cx="697.391304347826" cy="40.0" class="point"/>
  <text x="697.391304347826" y="375" class="label" text-anchor="middle">2026-02-24</text>
  <text x="697.391304347826" y="35.0" class="label" text-anchor="middle">52</text>
  <circle cx="703.6521739130435" cy="40.0" class="point"/>
  <text x="703.6521739130435" y="375" class="label" text-anchor="middle">2026-02-25</text>
  <text x="703.6521739130435" y="35.0" class="label" text-anchor="middle">52</text>
  <circle cx="709.9130434782609" cy="40.0" class="point"/>
  <text x="709.9130434782609" y="375" class="label" text-anchor="middle">2026-02-26</text>
  <text x="709.9130434782609" y="35.0" class="label" text-anchor="middle">52</text>
  <circle cx="716.1739130434783" cy="40.0" class="point"/>
  <text x="716.1739130434783" y="375" class="label" text-anchor="middle">2026-02-27</text>
  <text x="716.1739130434783" y="35.0" class="label" text-anchor="middle">52</text>
  <circle cx="722.4347826086956" cy="40.0" class="point"/>
  <text x="722.4347826086956" y="375" class="label" text-anchor="middle">2026-02-28</text>
  <text x="722.4347826086956" y="35.0" class="label" text-anchor="middle">52</text>
  <circle cx="728.6956521739131" cy="40.0" class="point"/>
  <text x="728.6956521739131" y="375" class="label" text-anchor="middle">2026-03-01</text>
  <text x="728.6956521739131" y="35.0" class="label" text-anchor="middle">52</text>
  <circle cx="734.9565217391304" cy="40.0" class="point"/>
  <text x="734.9565217391304" y="375" class="label" text-anchor="middle">2026-03-02</text>
  <text x="734.9565217391304" y="35.0" class="label" text-anchor="middle">52</text>
  <circle cx="741.2173913043479" cy="40.0" class="point"/>
  <text x="741.2173913043479" y="375" class="label" text-anchor="middle">2026-03-03</text>
  <text x="741.2173913043479" y="35.0" class="label" text-anchor="middle">52</text>
  <circle cx="747.4782608695652" cy="40.0" class="point"/>
  <text x="747.4782608695652" y="375" class="label" text-anchor="middle">2026-03-04</text>
  <text x="747.4782608695652" y="35.0" class="label" text-anchor="middle">52</text>
  <circle cx="753.7391304347826" cy="40.0" class="point"/>
  <text x="753.7391304347826" y="375" class="label" text-anchor="middle">2026-03-05</text>
  <text x="753.7391304347826" y="35.0" class="label" text-anchor="middle">52</text>
  <circle cx="760.0" cy="40.0" class="point"/>
  <text x="760.0" y="375" class="label" text-anchor="middle">2026-03-06</text>
  <text x="760.0" y="35.0" class="label" text-anchor="middle">52</text>
  <text x="30" y="363.0" class="label" text-anchor="end">0</text>
  <text x="30" y="301.46153846153845" class="label" text-anchor="end">10</text>
  <text x="30" y="239.9230769230769" class="label" text-anchor="end">20</text>
  <text x="30" y="178.38461538461542" class="label" text-anchor="end">30</text>
  <text x="30" y="116.84615384615384" class="label" text-anchor="end">40</text>
  <text x="30" y="55.30769230769232" class="label" text-anchor="end">50</text>
</svg>