<svg xmlns="http://www.w3.org/2000/svg" width="800" height="400" viewBox="0 0 800 400">
<style>
.title{font:16px sans-serif;fill:#fff;font-weight:bold}
.label{font:12px sans-serif;fill:#aaa}
.metric{font:11px monospace;fill:#0f0}
.temp-line{fill:none;stroke-width:2}
.load-bar{opacity:0.3}
</style>
<rect width="100%" height="100%" fill="#111"/>
<text x="400" y="30" class="title" text-anchor="middle">Thermal Field Optimization</text>
<text x="200" y="60" class="title" text-anchor="middle">Before</text>
<rect x="50.0" y="180.0" width="68.0" height="20.0" class="load-bar" fill="#444"/>
<rect x="120.0" y="120.0" width="68.0" height="80.0" class="load-bar" fill="#444"/>
<rect x="190.0" y="110.0" width="68.0" height="90.0" class="load-bar" fill="#444"/>
<rect x="260.0" y="120.0" width="68.0" height="80.0" class="load-bar" fill="#444"/>
<rect x="330.0" y="140.0" width="68.0" height="60.0" class="load-bar" fill="#444"/>
<rect x="400.0" y="170.0" width="68.0" height="30.0" class="load-bar" fill="#444"/>
<rect x="470.0" y="180.0" width="68.0" height="20.0" class="load-bar" fill="#444"/>
<rect x="540.0" y="190.0" width="68.0" height="10.0" class="load-bar" fill="#444"/>
<rect x="610.0" y="190.0" width="68.0" height="10.0" class="load-bar" fill="#444"/>
<rect x="680.0" y="195.0" width="68.0" height="5.0" class="load-bar" fill="#444"/>
<polyline points="85.0,186.36363636363637 155.0,84.0909090909091 225.0,50.0 295.0,70.45454545454544 365.0,118.18181818181819 435.0,165.9090909090909 505.0,179.54545454545456 575.0,186.36363636363637 645.0,193.1818181818182 715.0,200.0" class="temp-line" stroke="#f00"/>
<text x="50" y="230" class="metric">
Curvature: 0.0158 rad
</text>
<text x="50" y="245" class="metric">
Entropy: 1.5144
</text>
<text x="50" y="260" class="metric">
Alignment: 0.9927
</text>
<text x="600" y="60" class="title" text-anchor="middle">After AI Optimization</text>
<rect x="450.0" y="180.0" width="68.0" height="20.0" class="load-bar" fill="#444"/>
<rect x="520.0" y="120.0" width="68.0" height="80.0" class="load-bar" fill="#444"/>
<rect x="590.0" y="110.0" width="68.0" height="90.0" class="load-bar" fill="#444"/>
<rect x="660.0" y="120.0" width="68.0" height="80.0" class="load-bar" fill="#444"/>
<rect x="730.0" y="140.0" width="68.0" height="60.0" class="load-bar" fill="#444"/>
<rect x="800.0" y="170.0" width="68.0" height="30.0" class="load-bar" fill="#444"/>
<rect x="870.0" y="180.0" width="68.0" height="20.0" class="load-bar" fill="#444"/>
<rect x="940.0" y="190.0" width="68.0" height="10.0" class="load-bar" fill="#444"/>
<rect x="1010.0" y="190.0" width="68.0" height="10.0" class="load-bar" fill="#444"/>
<rect x="1080.0" y="195.0" width="68.0" height="5.0" class="load-bar" fill="#444"/>
<polyline points="485.0,159.95827966373847 555.0,137.26520152320037 625.0,132.87300421296067 695.0,135.5499133670352 765.0,142.33606096891845 835.0,152.9290036685561 905.0,156.76678153213598 975.0,160.89652086642587 1045.0,161.27043088534793 1115.0,163.42730317428789" class="temp-line" stroke="#0f0"/>
<text x="450" y="230" class="metric">
Curvature: 0.0033 rad
</text>
<text x="450" y="245" class="metric">
Entropy: 1.6148
</text>
<text x="450" y="260" class="metric">
Alignment: 0.9960
</text>
<text x="400" y="290" class="title" text-anchor="middle">Improvements</text>
<text x="400" y="310" class="metric" text-anchor="middle">
Entropy Reduction: -6.6% | 
Curvature: -0.0124 | 
Alignment: +0.0034
</text>
<text x="50" y="350" class="label">Gray bars: Computational load</text>
<text x="50" y="365" class="label">Red line: Temperature (before)</text>
<text x="50" y="380" class="label">Green line: Temperature (after)</text>
</svg>